<?xml version="1.0" encoding="UTF-8" standalone="no"?>
<!DOCTYPE svg PUBLIC "-//W3C//DTD SVG 1.1//EN"
 "http://www.w3.org/Graphics/SVG/1.1/DTD/svg11.dtd">
<!-- Generated by graphviz version 2.38.0 (20140413.2041)
 -->
<!-- Title: THeap.c Pages: 1 -->
<svg width="398pt" height="247pt"
 viewBox="0.00 0.00 398.00 247.00" xmlns="http://www.w3.org/2000/svg" xmlns:xlink="http://www.w3.org/1999/xlink">
<g id="graph0" class="graph" transform="scale(1 1) rotate(0) translate(4 243)">
<title>THeap.c</title>
<!-- Node1 -->
<g id="Node000001" class="node"><title>Node1</title>
<g id="a_Node000001"><a xlink:title="Implementace API typu Heap pro přístup k elementům vektoru jako k uzlům haldy (Sortable Vector with s...">
<polygon fill="#999999" stroke="#666666" points="358.5,-239 305.5,-239 305.5,-220 358.5,-220 358.5,-239"/>
<text text-anchor="middle" x="332" y="-227" font-family="Helvetica,sans-Serif" font-size="10.00">THeap.c</text>
</a>
</g>
</g>
<!-- Node2 -->
<g id="Node000002" class="node"><title>Node2</title>
<g id="a_Node000002"><a xlink:title=" ">
<polygon fill="#e0e0e0" stroke="#999999" points="390,-19 342,-19 342,-0 390,-0 390,-19"/>
<text text-anchor="middle" x="366" y="-7" font-family="Helvetica,sans-Serif" font-size="10.00">stdlib.h</text>
</a>
</g>
</g>
<!-- Node1&#45;&gt;Node2 -->
<g id="edge1_Node000001_Node000002" class="edge"><title>Node1&#45;&gt;Node2</title>
<g id="a_edge1_Node000001_Node000002"><a xlink:title=" ">
<path fill="none" stroke="#63b8ff" d="M335.291,-219.767C338.507,-210.889 343.301,-196.674 346,-184 357.81,-128.534 363.039,-61.5058 364.999,-29.4158"/>
<polygon fill="#63b8ff" stroke="#63b8ff" points="368.503,-29.4435 365.579,-19.2601 361.514,-29.0441 368.503,-29.4435"/>
</a>
</g>
</g>
<!-- Node3 -->
<g id="Node000003" class="node"><title>Node3</title>
<g id="a_Node000003"><a xlink:title=" ">
<polygon fill="#e0e0e0" stroke="#999999" points="320,-19 268,-19 268,-0 320,-0 320,-19"/>
<text text-anchor="middle" x="294" y="-7" font-family="Helvetica,sans-Serif" font-size="10.00">assert.h</text>
</a>
</g>
</g>
<!-- Node1&#45;&gt;Node3 -->
<g id="edge2_Node000001_Node000003" class="edge"><title>Node1&#45;&gt;Node3</title>
<g id="a_edge2_Node000001_Node000003"><a xlink:title=" ">
<path fill="none" stroke="#63b8ff" d="M330.655,-219.816C326.699,-194.415 314.645,-118.067 303,-55 301.424,-46.4653 299.539,-37.04 297.902,-29.0691"/>
<polygon fill="#63b8ff" stroke="#63b8ff" points="301.274,-28.0924 295.811,-19.0143 294.42,-29.5174 301.274,-28.0924"/>
</a>
</g>
</g>
<!-- Node4 -->
<g id="Node000004" class="node"><title>Node4</title>
<g id="a_Node000004"><a xlink:href="_t_heap_8h.html" target="_top" xlink:title="Definice typu Heap pro přístup k elementům vektoru jako k uzlům haldy (vyžaduje Sortable Vector with ...">
<polygon fill="white" stroke="#666666" points="303.5,-184 250.5,-184 250.5,-165 303.5,-165 303.5,-184"/>
<text text-anchor="middle" x="277" y="-172" font-family="Helvetica,sans-Serif" font-size="10.00">THeap.h</text>
</a>
</g>
</g>
<!-- Node1&#45;&gt;Node4 -->
<g id="edge3_Node000001_Node000004" class="edge"><title>Node1&#45;&gt;Node4</title>
<g id="a_edge3_Node000001_Node000004"><a xlink:title=" ">
<path fill="none" stroke="#63b8ff" d="M322.918,-219.748C314.909,-212.03 303.042,-200.595 293.379,-191.283"/>
<polygon fill="#63b8ff" stroke="#63b8ff" points="295.543,-188.508 285.913,-184.089 290.685,-193.548 295.543,-188.508"/>
</a>
</g>
</g>
<!-- Node4&#45;&gt;Node3 -->
<g id="edge4_Node000004_Node000003" class="edge"><title>Node4&#45;&gt;Node3</title>
<g id="a_edge4_Node000004_Node000003"><a xlink:title=" ">
<path fill="none" stroke="#63b8ff" d="M277.914,-164.736C280.566,-139.309 288.308,-65.0771 291.998,-29.6914"/>
<polygon fill="#63b8ff" stroke="#63b8ff" points="295.525,-29.6161 293.081,-19.3069 288.563,-28.8899 295.525,-29.6161"/>
</a>
</g>
</g>
<!-- Node5 -->
<g id="Node000005" class="node"><title>Node5</title>
<g id="a_Node000005"><a xlink:href="_t_vector_8h.html" target="_top" xlink:title="Definice typu Sortable Vector with shareable sortstats.">
<polygon fill="white" stroke="#666666" points="171.5,-129 112.5,-129 112.5,-110 171.5,-110 171.5,-129"/>
<text text-anchor="middle" x="142" y="-117" font-family="Helvetica,sans-Serif" font-size="10.00">TVector.h</text>
</a>
</g>
</g>
<!-- Node4&#45;&gt;Node5 -->
<g id="edge5_Node000004_Node000005" class="edge"><title>Node4&#45;&gt;Node5</title>
<g id="a_edge5_Node000004_Node000005"><a xlink:title=" ">
<path fill="none" stroke="#63b8ff" d="M255.31,-164.985C233.201,-156.305 198.678,-142.751 173.546,-132.885"/>
<polygon fill="#63b8ff" stroke="#63b8ff" points="174.672,-129.567 164.085,-129.17 172.114,-136.083 174.672,-129.567"/>
</a>
</g>
</g>
<!-- Node6 -->
<g id="Node000006" class="node"><title>Node6</title>
<g id="a_Node000006"><a xlink:title=" ">
<polygon fill="#e0e0e0" stroke="#999999" points="226,-19 180,-19 180,-0 226,-0 226,-19"/>
<text text-anchor="middle" x="203" y="-7" font-family="Helvetica,sans-Serif" font-size="10.00">stdio.h</text>
</a>
</g>
</g>
<!-- Node5&#45;&gt;Node6 -->
<g id="edge6_Node000005_Node000006" class="edge"><title>Node5&#45;&gt;Node6</title>
<g id="a_edge6_Node000005_Node000006"><a xlink:title=" ">
<path fill="none" stroke="#63b8ff" d="M171.794,-113.133C193.7,-107.46 221.997,-96.1215 236,-74 245.795,-58.5257 233.369,-39.8182 221.064,-26.7314"/>
<polygon fill="#63b8ff" stroke="#63b8ff" points="223.196,-23.9181 213.618,-19.3886 218.281,-28.9023 223.196,-23.9181"/>
</a>
</g>
</g>
<!-- Node7 -->
<g id="Node000007" class="node"><title>Node7</title>
<g id="a_Node000007"><a xlink:title=" ">
<polygon fill="#e0e0e0" stroke="#999999" points="56,-19 3.55271e-015,-19 3.55271e-015,-0 56,-0 56,-19"/>
<text text-anchor="middle" x="28" y="-7" font-family="Helvetica,sans-Serif" font-size="10.00">stdbool.h</text>
</a>
</g>
</g>
<!-- Node5&#45;&gt;Node7 -->
<g id="edge7_Node000005_Node000007" class="edge"><title>Node5&#45;&gt;Node7</title>
<g id="a_edge7_Node000005_Node000007"><a xlink:title=" ">
<path fill="none" stroke="#63b8ff" d="M112.34,-117.421C82.2147,-114.551 36.9625,-104.967 15,-74 5.46618,-60.5573 11.0952,-41.7131 17.6586,-28.0471"/>
<polygon fill="#63b8ff" stroke="#63b8ff" points="20.7795,-29.6329 22.3993,-19.1626 14.6037,-26.3374 20.7795,-29.6329"/>
</a>
</g>
</g>
<!-- Node8 -->
<g id="Node000008" class="node"><title>Node8</title>
<g id="a_Node000008"><a xlink:title=" ">
<polygon fill="#e0e0e0" stroke="#999999" points="75.5,-74 24.5,-74 24.5,-55 75.5,-55 75.5,-74"/>
<text text-anchor="middle" x="50" y="-62" font-family="Helvetica,sans-Serif" font-size="10.00">stddef.h</text>
</a>
</g>
</g>
<!-- Node5&#45;&gt;Node8 -->
<g id="edge8_Node000005_Node000008" class="edge"><title>Node5&#45;&gt;Node8</title>
<g id="a_edge8_Node000005_Node000008"><a xlink:title=" ">
<path fill="none" stroke="#63b8ff" d="M127.219,-109.985C112.819,-101.689 90.6906,-88.9413 73.8077,-79.2153"/>
<polygon fill="#63b8ff" stroke="#63b8ff" points="75.4625,-76.1294 65.0503,-74.1703 71.9682,-82.1949 75.4625,-76.1294"/>
</a>
</g>
</g>
<!-- Node9 -->
<g id="Node000009" class="node"><title>Node9</title>
<g id="a_Node000009"><a xlink:href="_t_vector_element_8h.html" target="_top" xlink:title="Definice typu Basic VectorElement a implementace API.">
<polygon fill="white" stroke="#666666" points="227.5,-74 132.5,-74 132.5,-55 227.5,-55 227.5,-74"/>
<text text-anchor="middle" x="180" y="-62" font-family="Helvetica,sans-Serif" font-size="10.00">TVectorElement.h</text>
</a>
</g>
</g>
<!-- Node5&#45;&gt;Node9 -->
<g id="edge9_Node000005_Node000009" class="edge"><title>Node5&#45;&gt;Node9</title>
<g id="a_edge9_Node000005_Node000009"><a xlink:title=" ">
<path fill="none" stroke="#63b8ff" d="M148.275,-109.748C153.587,-102.339 161.355,-91.5042 167.875,-82.4107"/>
<polygon fill="#63b8ff" stroke="#63b8ff" points="170.859,-84.2554 173.842,-74.089 165.17,-80.1766 170.859,-84.2554"/>
</a>
</g>
</g>
<!-- Node10 -->
<g id="Node000010" class="node"><title>Node10</title>
<g id="a_Node000010"><a xlink:title=" ">
<polygon fill="#e0e0e0" stroke="#999999" points="157.5,-19 106.5,-19 106.5,-0 157.5,-0 157.5,-19"/>
<text text-anchor="middle" x="132" y="-7" font-family="Helvetica,sans-Serif" font-size="10.00">check.h</text>
</a>
</g>
</g>
<!-- Node5&#45;&gt;Node10 -->
<g id="edge15_Node000005_Node000010" class="edge"><title>Node5&#45;&gt;Node10</title>
<g id="a_edge15_Node000005_Node000010"><a xlink:title=" ">
<path fill="none" stroke="#63b8ff" d="M137.125,-109.975C132.442,-101.259 125.694,-87.168 123,-74 119.928,-58.9819 122.763,-41.752 126.04,-29.0325"/>
<polygon fill="#63b8ff" stroke="#63b8ff" points="129.472,-29.7641 128.896,-19.1849 122.749,-27.8141 129.472,-29.7641"/>
</a>
</g>
</g>
<!-- Node9&#45;&gt;Node2 -->
<g id="edge11_Node000009_Node000002" class="edge"><title>Node9&#45;&gt;Node2</title>
<g id="a_edge11_Node000009_Node000002"><a xlink:title=" ">
<path fill="none" stroke="#63b8ff" d="M209.884,-54.9846C243.251,-45.4768 297.142,-30.1208 332.069,-20.1686"/>
<polygon fill="#63b8ff" stroke="#63b8ff" points="333.161,-23.4966 341.819,-17.3902 331.243,-16.7646 333.161,-23.4966"/>
</a>
</g>
</g>
<!-- Node9&#45;&gt;Node3 -->
<g id="edge13_Node000009_Node000003" class="edge"><title>Node9&#45;&gt;Node3</title>
<g id="a_edge13_Node000009_Node000003"><a xlink:title=" ">
<path fill="none" stroke="#63b8ff" d="M198.316,-54.9846C216.655,-46.4586 245.11,-33.2297 266.227,-23.412"/>
<polygon fill="#63b8ff" stroke="#63b8ff" points="267.758,-26.5599 275.351,-19.1703 264.807,-20.2124 267.758,-26.5599"/>
</a>
</g>
</g>
<!-- Node9&#45;&gt;Node6 -->
<g id="edge10_Node000009_Node000006" class="edge"><title>Node9&#45;&gt;Node6</title>
<g id="a_edge10_Node000009_Node000006"><a xlink:title=" ">
<path fill="none" stroke="#63b8ff" d="M183.798,-54.7481C186.913,-47.5705 191.423,-37.178 195.289,-28.2682"/>
<polygon fill="#63b8ff" stroke="#63b8ff" points="198.502,-29.6558 199.273,-19.089 192.081,-26.8691 198.502,-29.6558"/>
</a>
</g>
</g>
<!-- Node9&#45;&gt;Node7 -->
<g id="edge12_Node000009_Node000007" class="edge"><title>Node9&#45;&gt;Node7</title>
<g id="a_edge12_Node000009_Node000007"><a xlink:title=" ">
<path fill="none" stroke="#63b8ff" d="M155.579,-54.9846C130.28,-46.1636 90.5454,-32.3086 62.1439,-22.4054"/>
<polygon fill="#63b8ff" stroke="#63b8ff" points="63.2077,-19.0697 52.6128,-19.0821 60.9029,-25.6795 63.2077,-19.0697"/>
</a>
</g>
</g>
<!-- Node9&#45;&gt;Node10 -->
<g id="edge14_Node000009_Node000010" class="edge"><title>Node9&#45;&gt;Node10</title>
<g id="a_edge14_Node000009_Node000010"><a xlink:title=" ">
<path fill="none" stroke="#63b8ff" d="M172.074,-54.7481C165.154,-47.1075 154.935,-35.8237 146.548,-26.5634"/>
<polygon fill="#63b8ff" stroke="#63b8ff" points="149.086,-24.1516 139.779,-19.089 143.897,-28.8506 149.086,-24.1516"/>
</a>
</g>
</g>
</g>
</svg>
