<?xml version="1.0" encoding="UTF-8" standalone="no"?>
<!DOCTYPE svg PUBLIC "-//W3C//DTD SVG 1.1//EN"
 "http://www.w3.org/Graphics/SVG/1.1/DTD/svg11.dtd">
<!-- Generated by graphviz version 2.38.0 (20140413.2041)
 -->
<!-- Title: THeap.h Pages: 1 -->
<svg width="353pt" height="192pt"
 viewBox="0.00 0.00 353.00 192.00" xmlns="http://www.w3.org/2000/svg" xmlns:xlink="http://www.w3.org/1999/xlink">
<g id="graph0" class="graph" transform="scale(1 1) rotate(0) translate(4 188)">
<title>THeap.h</title>
<!-- Node1 -->
<g id="Node000001" class="node"><title>Node1</title>
<g id="a_Node000001"><a xlink:title="Definice typu Heap pro přístup k elementům vektoru jako k uzlům haldy (vyžaduje Sortable Vector with ...">
<polygon fill="#999999" stroke="#666666" points="106.5,-184 53.5,-184 53.5,-165 106.5,-165 106.5,-184"/>
<text text-anchor="middle" x="80" y="-172" font-family="Helvetica,sans-Serif" font-size="10.00">THeap.h</text>
</a>
</g>
</g>
<!-- Node2 -->
<g id="Node000002" class="node"><title>Node2</title>
<g id="a_Node000002"><a xlink:title=" ">
<polygon fill="#e0e0e0" stroke="#999999" points="52,-19 0,-19 0,-0 52,-0 52,-19"/>
<text text-anchor="middle" x="26" y="-7" font-family="Helvetica,sans-Serif" font-size="10.00">assert.h</text>
</a>
</g>
</g>
<!-- Node1&#45;&gt;Node2 -->
<g id="edge1_Node000001_Node000002" class="edge"><title>Node1&#45;&gt;Node2</title>
<g id="a_edge1_Node000001_Node000002"><a xlink:title=" ">
<path fill="none" stroke="#63b8ff" d="M73.3035,-164.811C61.0177,-148.257 35.2855,-110.576 26,-74 22.3031,-59.4379 22.5423,-42.3844 23.5745,-29.619"/>
<polygon fill="#63b8ff" stroke="#63b8ff" points="27.0949,-29.6057 24.6552,-19.2956 20.133,-28.8768 27.0949,-29.6057"/>
</a>
</g>
</g>
<!-- Node3 -->
<g id="Node000003" class="node"><title>Node3</title>
<g id="a_Node000003"><a xlink:href="_t_vector_8h.html" target="_top" xlink:title="Definice typu Sortable Vector with shareable sortstats.">
<polygon fill="white" stroke="#666666" points="182.5,-129 123.5,-129 123.5,-110 182.5,-110 182.5,-129"/>
<text text-anchor="middle" x="153" y="-117" font-family="Helvetica,sans-Serif" font-size="10.00">TVector.h</text>
</a>
</g>
</g>
<!-- Node1&#45;&gt;Node3 -->
<g id="edge2_Node000001_Node000003" class="edge"><title>Node1&#45;&gt;Node3</title>
<g id="a_edge2_Node000001_Node000003"><a xlink:title=" ">
<path fill="none" stroke="#63b8ff" d="M91.7287,-164.985C102.732,-156.996 119.421,-144.88 132.604,-135.308"/>
<polygon fill="#63b8ff" stroke="#63b8ff" points="135.022,-137.878 141.058,-129.17 130.909,-132.213 135.022,-137.878"/>
</a>
</g>
</g>
<!-- Node4 -->
<g id="Node000004" class="node"><title>Node4</title>
<g id="a_Node000004"><a xlink:title=" ">
<polygon fill="#e0e0e0" stroke="#999999" points="271,-19 225,-19 225,-0 271,-0 271,-19"/>
<text text-anchor="middle" x="248" y="-7" font-family="Helvetica,sans-Serif" font-size="10.00">stdio.h</text>
</a>
</g>
</g>
<!-- Node3&#45;&gt;Node4 -->
<g id="edge3_Node000003_Node000004" class="edge"><title>Node3&#45;&gt;Node4</title>
<g id="a_edge3_Node000003_Node000004"><a xlink:title=" ">
<path fill="none" stroke="#63b8ff" d="M182.696,-113.071C204.55,-107.364 232.824,-96.0106 247,-74 255.489,-60.82 254.856,-42.6917 252.616,-29.1778"/>
<polygon fill="#63b8ff" stroke="#63b8ff" points="255.987,-28.1973 250.521,-19.1213 249.134,-29.6249 255.987,-28.1973"/>
</a>
</g>
</g>
<!-- Node5 -->
<g id="Node000005" class="node"><title>Node5</title>
<g id="a_Node000005"><a xlink:title=" ">
<polygon fill="#e0e0e0" stroke="#999999" points="345,-19 289,-19 289,-0 345,-0 345,-19"/>
<text text-anchor="middle" x="317" y="-7" font-family="Helvetica,sans-Serif" font-size="10.00">stdbool.h</text>
</a>
</g>
</g>
<!-- Node3&#45;&gt;Node5 -->
<g id="edge4_Node000003_Node000005" class="edge"><title>Node3&#45;&gt;Node5</title>
<g id="a_edge4_Node000003_Node000005"><a xlink:title=" ">
<path fill="none" stroke="#63b8ff" d="M182.636,-111.182C206.476,-104.296 240.004,-92.2789 265,-74 282.195,-61.4255 297.041,-41.8817 306.417,-27.7969"/>
<polygon fill="#63b8ff" stroke="#63b8ff" points="309.558,-29.3814 311.996,-19.0708 303.66,-25.6107 309.558,-29.3814"/>
</a>
</g>
</g>
<!-- Node6 -->
<g id="Node000006" class="node"><title>Node6</title>
<g id="a_Node000006"><a xlink:title=" ">
<polygon fill="#e0e0e0" stroke="#999999" points="86.5,-74 35.5,-74 35.5,-55 86.5,-55 86.5,-74"/>
<text text-anchor="middle" x="61" y="-62" font-family="Helvetica,sans-Serif" font-size="10.00">stddef.h</text>
</a>
</g>
</g>
<!-- Node3&#45;&gt;Node6 -->
<g id="edge5_Node000003_Node000006" class="edge"><title>Node3&#45;&gt;Node6</title>
<g id="a_edge5_Node000003_Node000006"><a xlink:title=" ">
<path fill="none" stroke="#63b8ff" d="M138.219,-109.985C123.819,-101.689 101.691,-88.9413 84.8077,-79.2153"/>
<polygon fill="#63b8ff" stroke="#63b8ff" points="86.4625,-76.1294 76.0503,-74.1703 82.9682,-82.1949 86.4625,-76.1294"/>
</a>
</g>
</g>
<!-- Node7 -->
<g id="Node000007" class="node"><title>Node7</title>
<g id="a_Node000007"><a xlink:href="_t_vector_element_8h.html" target="_top" xlink:title="Definice typu Basic VectorElement a implementace API.">
<polygon fill="white" stroke="#666666" points="238.5,-74 143.5,-74 143.5,-55 238.5,-55 238.5,-74"/>
<text text-anchor="middle" x="191" y="-62" font-family="Helvetica,sans-Serif" font-size="10.00">TVectorElement.h</text>
</a>
</g>
</g>
<!-- Node3&#45;&gt;Node7 -->
<g id="edge6_Node000003_Node000007" class="edge"><title>Node3&#45;&gt;Node7</title>
<g id="a_edge6_Node000003_Node000007"><a xlink:title=" ">
<path fill="none" stroke="#63b8ff" d="M159.275,-109.748C164.587,-102.339 172.355,-91.5042 178.875,-82.4107"/>
<polygon fill="#63b8ff" stroke="#63b8ff" points="181.859,-84.2554 184.842,-74.089 176.17,-80.1766 181.859,-84.2554"/>
</a>
</g>
</g>
<!-- Node9 -->
<g id="Node000009" class="node"><title>Node9</title>
<g id="a_Node000009"><a xlink:title=" ">
<polygon fill="#e0e0e0" stroke="#999999" points="140.5,-19 89.5,-19 89.5,-0 140.5,-0 140.5,-19"/>
<text text-anchor="middle" x="115" y="-7" font-family="Helvetica,sans-Serif" font-size="10.00">check.h</text>
</a>
</g>
</g>
<!-- Node3&#45;&gt;Node9 -->
<g id="edge12_Node000003_Node000009" class="edge"><title>Node3&#45;&gt;Node9</title>
<g id="a_edge12_Node000003_Node000009"><a xlink:title=" ">
<path fill="none" stroke="#63b8ff" d="M148.917,-109.752C144.851,-100.862 138.573,-86.639 134,-74 128.61,-59.1028 123.523,-41.8637 119.971,-29.11"/>
<polygon fill="#63b8ff" stroke="#63b8ff" points="123.284,-27.9552 117.276,-19.2284 116.53,-29.797 123.284,-27.9552"/>
</a>
</g>
</g>
<!-- Node7&#45;&gt;Node2 -->
<g id="edge10_Node000007_Node000002" class="edge"><title>Node7&#45;&gt;Node2</title>
<g id="a_edge10_Node000007_Node000002"><a xlink:title=" ">
<path fill="none" stroke="#63b8ff" d="M164.49,-54.9846C136.624,-46.0337 92.6214,-31.8996 61.7107,-21.9707"/>
<polygon fill="#63b8ff" stroke="#63b8ff" points="62.7631,-18.6327 52.1718,-18.9067 60.6223,-25.2973 62.7631,-18.6327"/>
</a>
</g>
</g>
<!-- Node7&#45;&gt;Node4 -->
<g id="edge7_Node000007_Node000004" class="edge"><title>Node7&#45;&gt;Node4</title>
<g id="a_edge7_Node000007_Node000004"><a xlink:title=" ">
<path fill="none" stroke="#63b8ff" d="M200.158,-54.9846C208.501,-47.2267 221.032,-35.5751 231.177,-26.1425"/>
<polygon fill="#63b8ff" stroke="#63b8ff" points="233.735,-28.543 238.675,-19.1703 228.969,-23.4166 233.735,-28.543"/>
</a>
</g>
</g>
<!-- Node7&#45;&gt;Node5 -->
<g id="edge9_Node000007_Node000005" class="edge"><title>Node7&#45;&gt;Node5</title>
<g id="a_edge9_Node000007_Node000005"><a xlink:title=" ">
<path fill="none" stroke="#63b8ff" d="M211.244,-54.9846C231.696,-46.3818 263.531,-32.991 286.932,-23.1475"/>
<polygon fill="#63b8ff" stroke="#63b8ff" points="288.527,-26.2739 296.388,-19.1703 285.813,-19.8215 288.527,-26.2739"/>
</a>
</g>
</g>
<!-- Node8 -->
<g id="Node000008" class="node"><title>Node8</title>
<g id="a_Node000008"><a xlink:title=" ">
<polygon fill="#e0e0e0" stroke="#999999" points="207,-19 159,-19 159,-0 207,-0 207,-19"/>
<text text-anchor="middle" x="183" y="-7" font-family="Helvetica,sans-Serif" font-size="10.00">stdlib.h</text>
</a>
</g>
</g>
<!-- Node7&#45;&gt;Node8 -->
<g id="edge8_Node000007_Node000008" class="edge"><title>Node7&#45;&gt;Node8</title>
<g id="a_edge8_Node000007_Node000008"><a xlink:title=" ">
<path fill="none" stroke="#63b8ff" d="M189.679,-54.7481C188.63,-47.8021 187.128,-37.8451 185.813,-29.1349"/>
<polygon fill="#63b8ff" stroke="#63b8ff" points="189.25,-28.4546 184.296,-19.089 182.328,-29.4994 189.25,-28.4546"/>
</a>
</g>
</g>
<!-- Node7&#45;&gt;Node9 -->
<g id="edge11_Node000007_Node000009" class="edge"><title>Node7&#45;&gt;Node9</title>
<g id="a_edge11_Node000007_Node000009"><a xlink:title=" ">
<path fill="none" stroke="#63b8ff" d="M178.789,-54.9846C167.224,-46.9194 149.625,-34.6461 135.839,-25.0327"/>
<polygon fill="#63b8ff" stroke="#63b8ff" points="137.637,-22.0196 127.433,-19.1703 133.633,-27.7613 137.637,-22.0196"/>
</a>
</g>
</g>
</g>
</svg>
