<?xml version="1.0" encoding="UTF-8" standalone="no"?>
<!DOCTYPE svg PUBLIC "-//W3C//DTD SVG 1.1//EN"
 "http://www.w3.org/Graphics/SVG/1.1/DTD/svg11.dtd">
<!-- Generated by graphviz version 2.38.0 (20140413.2041)
 -->
<!-- Title: THeap.h Pages: 1 -->
<svg width="297pt" height="82pt"
 viewBox="0.00 0.00 297.00 82.00" xmlns="http://www.w3.org/2000/svg" xmlns:xlink="http://www.w3.org/1999/xlink">
<g id="graph0" class="graph" transform="scale(1 1) rotate(0) translate(4 78)">
<title>THeap.h</title>
<!-- Node1 -->
<g id="Node000001" class="node"><title>Node1</title>
<g id="a_Node000001"><a xlink:title="Definice typu Heap pro přístup k elementům vektoru jako k uzlům haldy (vyžaduje Sortable Vector with ...">
<polygon fill="#999999" stroke="#666666" points="132,-74 79,-74 79,-55 132,-55 132,-74"/>
<text text-anchor="middle" x="105.5" y="-62" font-family="Helvetica,sans-Serif" font-size="10.00">THeap.h</text>
</a>
</g>
</g>
<!-- Node2 -->
<g id="Node000002" class="node"><title>Node2</title>
<g id="a_Node000002"><a xlink:href="_t_heap_8c.html" target="_top" xlink:title="Implementace API typu Heap pro přístup k elementům vektoru jako k uzlům haldy (Sortable Vector with s...">
<polygon fill="white" stroke="#666666" points="53,-19 0,-19 0,-0 53,-0 53,-19"/>
<text text-anchor="middle" x="26.5" y="-7" font-family="Helvetica,sans-Serif" font-size="10.00">THeap.c</text>
</a>
</g>
</g>
<!-- Node1&#45;&gt;Node2 -->
<g id="edge1_Node000001_Node000002" class="edge"><title>Node1&#45;&gt;Node2</title>
<g id="a_edge1_Node000001_Node000002"><a xlink:title=" ">
<path fill="none" stroke="#63b8ff" d="M84.112,-49.1511C69.8335,-39.5719 51.525,-27.2889 39.4237,-19.1703"/>
<polygon fill="#63b8ff" stroke="#63b8ff" points="82.553,-52.3199 92.8073,-54.9846 86.4529,-46.5068 82.553,-52.3199"/>
</a>
</g>
</g>
<!-- Node3 -->
<g id="Node000003" class="node"><title>Node3</title>
<g id="a_Node000003"><a xlink:href="heap__sort_8c.html" target="_top" xlink:title="Implementace API výkonnější metody třídění (Heap sort), využívající poziční API pro přístup k uzlům h...">
<polygon fill="white" stroke="#666666" points="139.5,-19 71.5,-19 71.5,-0 139.5,-0 139.5,-19"/>
<text text-anchor="middle" x="105.5" y="-7" font-family="Helvetica,sans-Serif" font-size="10.00">heap_sort.c</text>
</a>
</g>
</g>
<!-- Node1&#45;&gt;Node3 -->
<g id="edge2_Node000001_Node000003" class="edge"><title>Node1&#45;&gt;Node3</title>
<g id="a_edge2_Node000001_Node000003"><a xlink:title=" ">
<path fill="none" stroke="#63b8ff" d="M105.5,-44.66C105.5,-35.9304 105.5,-25.9876 105.5,-19.089"/>
<polygon fill="#63b8ff" stroke="#63b8ff" points="102,-44.7481 105.5,-54.7481 109,-44.7482 102,-44.7481"/>
</a>
</g>
</g>
<!-- Node4 -->
<g id="Node000004" class="node"><title>Node4</title>
<g id="a_Node000004"><a xlink:href="heap__sort__with__iterators_8c.html" target="_top" xlink:title="Implementace API výkonnější metody třídění (Heap sort), využívající iterátorové API pro přístup k uzl...">
<polygon fill="white" stroke="#666666" points="289,-19 158,-19 158,-0 289,-0 289,-19"/>
<text text-anchor="middle" x="223.5" y="-7" font-family="Helvetica,sans-Serif" font-size="10.00">heap_sort_with_iterators.c</text>
</a>
</g>
</g>
<!-- Node1&#45;&gt;Node4 -->
<g id="edge3_Node000001_Node000004" class="edge"><title>Node1&#45;&gt;Node4</title>
<g id="a_edge3_Node000001_Node000004"><a xlink:title=" ">
<path fill="none" stroke="#63b8ff" d="M133.852,-50.7655C155.618,-40.9892 185.088,-27.7529 204.196,-19.1703"/>
<polygon fill="#63b8ff" stroke="#63b8ff" points="132.147,-47.6946 124.459,-54.9846 135.015,-54.0801 132.147,-47.6946"/>
</a>
</g>
</g>
</g>
</svg>
