<?xml version="1.0" encoding="UTF-8" standalone="no"?>
<!DOCTYPE svg PUBLIC "-//W3C//DTD SVG 1.1//EN"
 "http://www.w3.org/Graphics/SVG/1.1/DTD/svg11.dtd">
<!-- Generated by graphviz version 2.38.0 (20140413.2041)
 -->
<!-- Title: vector_fast_compare_position_value Pages: 1 -->
<svg width="909pt" height="297pt"
 viewBox="0.00 0.00 909.00 297.00" xmlns="http://www.w3.org/2000/svg" xmlns:xlink="http://www.w3.org/1999/xlink">
<g id="graph0" class="graph" transform="scale(1 1) rotate(0) translate(4 293)">
<title>vector_fast_compare_position_value</title>
<!-- Node1 -->
<g id="Node000001" class="node"><title>Node1</title>
<g id="a_Node000001"><a xlink:title=" ">
<polygon fill="#999999" stroke="#666666" points="901,-133 795,-133 795,-103 901,-103 901,-133"/>
<text text-anchor="start" x="803" y="-121" font-family="Helvetica,sans-Serif" font-size="10.00">vector_fast_compare</text>
<text text-anchor="middle" x="848" y="-110" font-family="Helvetica,sans-Serif" font-size="10.00">_position_value</text>
</a>
</g>
</g>
<!-- Node2 -->
<g id="Node000002" class="node"><title>Node2</title>
<g id="a_Node000002"><a xlink:href="group__sortable___t_vector.html#ga09e150aa4cdd8faabf43474ab1dbe454" target="_top" xlink:title="Porovnání mezi hodnotou elementu vektoru a hodnotou typu VectorElement.">
<polygon fill="white" stroke="#666666" points="759,-188 635,-188 635,-158 759,-158 759,-188"/>
<text text-anchor="start" x="643" y="-176" font-family="Helvetica,sans-Serif" font-size="10.00">vector_compare_position</text>
<text text-anchor="middle" x="697" y="-165" font-family="Helvetica,sans-Serif" font-size="10.00">_value</text>
</a>
</g>
</g>
<!-- Node1&#45;&gt;Node2 -->
<g id="edge1_Node000001_Node000002" class="edge"><title>Node1&#45;&gt;Node2</title>
<g id="a_edge1_Node000001_Node000002"><a xlink:title=" ">
<path fill="none" stroke="#63b8ff" d="M796.652,-136.585C777.768,-143.555 756.563,-151.383 738.666,-157.989"/>
<polygon fill="#63b8ff" stroke="#63b8ff" points="798.116,-139.775 806.285,-133.029 795.692,-133.208 798.116,-139.775"/>
</a>
</g>
</g>
<!-- Node13 -->
<g id="Node000013" class="node"><title>Node13</title>
<g id="a_Node000013"><a xlink:href="group__sortable___t_vector_iterator.html#gaa359594c5556fb685473666fad583ddf" target="_top" xlink:title="Porovnání mezi hodnotou elementu vektoru určenou iterátorem a hodnotou typu VectorElement.">
<polygon fill="white" stroke="#666666" points="750.5,-78 643.5,-78 643.5,-48 750.5,-48 750.5,-78"/>
<text text-anchor="start" x="651.5" y="-66" font-family="Helvetica,sans-Serif" font-size="10.00">vector_compare_with</text>
<text text-anchor="middle" x="697" y="-55" font-family="Helvetica,sans-Serif" font-size="10.00">_iterator_value</text>
</a>
</g>
</g>
<!-- Node1&#45;&gt;Node13 -->
<g id="edge17_Node000001_Node000013" class="edge"><title>Node1&#45;&gt;Node13</title>
<g id="a_edge17_Node000001_Node000013"><a xlink:title=" ">
<path fill="none" stroke="#63b8ff" d="M796.652,-99.415C777.768,-92.4445 756.563,-84.6172 738.666,-78.0108"/>
<polygon fill="#63b8ff" stroke="#63b8ff" points="795.692,-102.792 806.285,-102.971 798.116,-96.2246 795.692,-102.792"/>
</a>
</g>
</g>
<!-- Node3 -->
<g id="Node000003" class="node"><title>Node3</title>
<g id="a_Node000003"><a xlink:href="group___t_heap.html#ga3651a742b0492e167a3be5db0183f896" target="_top" xlink:title="Porovnání mezi hodnotou v uzlu haldy a hodnotou typu HeapElement.">
<polygon fill="white" stroke="#666666" points="589.5,-289 470.5,-289 470.5,-259 589.5,-259 589.5,-289"/>
<text text-anchor="start" x="478.5" y="-277" font-family="Helvetica,sans-Serif" font-size="10.00">heap_compare_position</text>
<text text-anchor="middle" x="530" y="-266" font-family="Helvetica,sans-Serif" font-size="10.00">_value</text>
</a>
</g>
</g>
<!-- Node2&#45;&gt;Node3 -->
<g id="edge2_Node000002_Node000003" class="edge"><title>Node2&#45;&gt;Node3</title>
<g id="a_edge2_Node000002_Node000003"><a xlink:title=" ">
<path fill="none" stroke="#63b8ff" d="M670.439,-194.588C651.516,-209.904 624.672,-230.273 599,-245 590.094,-250.109 580.114,-254.857 570.6,-258.971"/>
<polygon fill="#63b8ff" stroke="#63b8ff" points="672.773,-197.201 678.29,-188.155 668.337,-191.786 672.773,-197.201"/>
</a>
</g>
</g>
<!-- Node8 -->
<g id="Node000008" class="node"><title>Node8</title>
<g id="a_Node000008"><a xlink:href="group___basic_sorts.html#gac3903c3fd846908cd362e293ed40582e" target="_top" xlink:title="Třídění přímým vkládáním (Insert Sort)">
<polygon fill="white" stroke="#666666" points="294,-224.5 232,-224.5 232,-205.5 294,-205.5 294,-224.5"/>
<text text-anchor="middle" x="263" y="-212.5" font-family="Helvetica,sans-Serif" font-size="10.00">insert_sort</text>
</a>
</g>
</g>
<!-- Node2&#45;&gt;Node8 -->
<g id="edge8_Node000002_Node000008" class="edge"><title>Node2&#45;&gt;Node8</title>
<g id="a_edge8_Node000002_Node000008"><a xlink:title=" ">
<path fill="none" stroke="#63b8ff" d="M624.846,-185.052C616.147,-186.432 607.376,-187.78 599,-189 521.865,-200.234 502.728,-205.136 425,-211 379.415,-214.439 326.385,-215.117 294.015,-215.158"/>
<polygon fill="#63b8ff" stroke="#63b8ff" points="625.678,-188.464 634.997,-183.423 624.568,-181.552 625.678,-188.464"/>
</a>
</g>
</g>
<!-- Node9 -->
<g id="Node000009" class="node"><title>Node9</title>
<g id="a_Node000009"><a xlink:href="advanced__sorts_8c.html#a0ae77c9640aa821e5507079ec5d2eb1d" target="_top" xlink:title="Vnitřní a lokální funkce realizující rekurzivní funkci pro metodu (Quick Sort)">
<polygon fill="white" stroke="#666666" points="425,-184.5 330,-184.5 330,-165.5 425,-165.5 425,-184.5"/>
<text text-anchor="middle" x="377.5" y="-172.5" font-family="Helvetica,sans-Serif" font-size="10.00">quick_sort_worker</text>
</a>
</g>
</g>
<!-- Node2&#45;&gt;Node9 -->
<g id="edge10_Node000002_Node000009" class="edge"><title>Node2&#45;&gt;Node9</title>
<g id="a_edge10_Node000002_Node000009"><a xlink:title=" ">
<path fill="none" stroke="#63b8ff" d="M624.458,-173.451C563.465,-173.835 477.568,-174.376 425.092,-174.707"/>
<polygon fill="#63b8ff" stroke="#63b8ff" points="624.805,-176.949 634.783,-173.386 624.761,-169.949 624.805,-176.949"/>
</a>
</g>
</g>
<!-- Node11 -->
<g id="Node000011" class="node"><title>Node11</title>
<g id="a_Node000011"><a xlink:href="group___advanced_sorts.html#gaee070b00692f425d83eaea28b37bab2b" target="_top" xlink:title="Shellovo třídění vkládáním s ubývajícím krokem (Shell Sort) dle Hibbardovy posloupnosti.">
<polygon fill="white" stroke="#666666" points="407,-147.5 348,-147.5 348,-128.5 407,-128.5 407,-147.5"/>
<text text-anchor="middle" x="377.5" y="-135.5" font-family="Helvetica,sans-Serif" font-size="10.00">shell_sort</text>
</a>
</g>
</g>
<!-- Node2&#45;&gt;Node11 -->
<g id="edge14_Node000002_Node000011" class="edge"><title>Node2&#45;&gt;Node11</title>
<g id="a_edge14_Node000002_Node000011"><a xlink:title=" ">
<path fill="none" stroke="#63b8ff" d="M624.481,-165.116C555.896,-157.555 455.807,-146.522 407.166,-141.16"/>
<polygon fill="#63b8ff" stroke="#63b8ff" points="624.459,-168.635 634.783,-166.252 625.227,-161.677 624.459,-168.635"/>
</a>
</g>
</g>
<!-- Node12 -->
<g id="Node000012" class="node"><title>Node12</title>
<g id="a_Node000012"><a xlink:href="group___t_span.html#gad64d53738a4da90ef126cd73d84b5f52" target="_top" xlink:title="Porovnání mezi hodnotou elementu Span a hodnotou typu VectorElement.">
<polygon fill="white" stroke="#666666" points="589.5,-126 470.5,-126 470.5,-96 589.5,-96 589.5,-126"/>
<text text-anchor="start" x="478.5" y="-114" font-family="Helvetica,sans-Serif" font-size="10.00">span_compare_position</text>
<text text-anchor="middle" x="530" y="-103" font-family="Helvetica,sans-Serif" font-size="10.00">_value</text>
</a>
</g>
</g>
<!-- Node2&#45;&gt;Node12 -->
<g id="edge16_Node000002_Node000012" class="edge"><title>Node2&#45;&gt;Node12</title>
<g id="a_edge16_Node000002_Node000012"><a xlink:title=" ">
<path fill="none" stroke="#63b8ff" d="M646.395,-154.361C622.336,-145.32 593.814,-134.603 571.146,-126.085"/>
<polygon fill="#63b8ff" stroke="#63b8ff" points="645.466,-157.75 656.058,-157.992 647.928,-151.198 645.466,-157.75"/>
</a>
</g>
</g>
<!-- Node4 -->
<g id="Node000004" class="node"><title>Node4</title>
<g id="a_Node000004"><a xlink:href="heap__sort_8c.html#a1572325ec24b4714bb9bbd64229d85d0" target="_top" xlink:title="Vnitřní a lokální funkce zajišťující vložení hodnoty do zvoleného uzlu haldy, při zachování podmínek ...">
<polygon fill="white" stroke="#666666" points="406,-283.5 349,-283.5 349,-264.5 406,-264.5 406,-283.5"/>
<text text-anchor="middle" x="377.5" y="-271.5" font-family="Helvetica,sans-Serif" font-size="10.00">sift_down</text>
</a>
</g>
</g>
<!-- Node3&#45;&gt;Node4 -->
<g id="edge3_Node000003_Node000004" class="edge"><title>Node3&#45;&gt;Node4</title>
<g id="a_edge3_Node000003_Node000004"><a xlink:title=" ">
<path fill="none" stroke="#63b8ff" d="M460.161,-274C441.051,-274 421.385,-274 406.142,-274"/>
<polygon fill="#63b8ff" stroke="#63b8ff" points="460.382,-277.5 470.382,-274 460.382,-270.5 460.382,-277.5"/>
</a>
</g>
</g>
<!-- Node5 -->
<g id="Node000005" class="node"><title>Node5</title>
<g id="a_Node000005"><a xlink:href="group___powerful_sorts.html#gaf564949cc194e5feea63d6c2aaa3125a" target="_top" xlink:title="Třídění pomocí haldy (Heap Sort) využívající poziční API pro přístup k elementům vektoru.">
<polygon fill="white" stroke="#666666" points="164.5,-261.5 105.5,-261.5 105.5,-242.5 164.5,-242.5 164.5,-261.5"/>
<text text-anchor="middle" x="135" y="-249.5" font-family="Helvetica,sans-Serif" font-size="10.00">heap_sort</text>
</a>
</g>
</g>
<!-- Node4&#45;&gt;Node5 -->
<g id="edge4_Node000004_Node000005" class="edge"><title>Node4&#45;&gt;Node5</title>
<g id="a_edge4_Node000004_Node000005"><a xlink:title=" ">
<path fill="none" stroke="#63b8ff" d="M338.794,-275.013C309.569,-275.364 268.103,-274.917 232,-271 209.197,-268.526 183.748,-263.378 164.784,-259.063"/>
<polygon fill="#63b8ff" stroke="#63b8ff" points="339.032,-278.509 348.976,-274.852 338.921,-271.51 339.032,-278.509"/>
</a>
</g>
</g>
<!-- Node7 -->
<g id="Node000007" class="node"><title>Node7</title>
<g id="a_Node000007"><a xlink:href="heap__sort_8c.html#aceaf0618c69440f1e439e224eb6945dc" target="_top" xlink:title="Vnitřní a lokální funkce realizující uspořádání elementů vektoru do haldy.">
<polygon fill="white" stroke="#666666" points="286.5,-261.5 239.5,-261.5 239.5,-242.5 286.5,-242.5 286.5,-261.5"/>
<text text-anchor="middle" x="263" y="-249.5" font-family="Helvetica,sans-Serif" font-size="10.00">heapify</text>
</a>
</g>
</g>
<!-- Node4&#45;&gt;Node7 -->
<g id="edge6_Node000004_Node000007" class="edge"><title>Node4&#45;&gt;Node7</title>
<g id="a_edge6_Node000004_Node000007"><a xlink:title=" ">
<path fill="none" stroke="#63b8ff" d="M339.136,-266.693C321.786,-263.3 301.724,-259.377 286.697,-256.439"/>
<polygon fill="#63b8ff" stroke="#63b8ff" points="338.494,-270.134 348.979,-268.618 339.837,-263.264 338.494,-270.134"/>
</a>
</g>
</g>
<!-- Node6 -->
<g id="Node000006" class="node"><title>Node6</title>
<g id="a_Node000006"><a xlink:href="group___main_program.html#ga0ddf1224851353fc92bfbff6f499fa97" target="_top" xlink:title=" ">
<polygon fill="white" stroke="#666666" points="38,-185.5 0,-185.5 0,-166.5 38,-166.5 38,-185.5"/>
<text text-anchor="middle" x="19" y="-173.5" font-family="Helvetica,sans-Serif" font-size="10.00">main</text>
</a>
</g>
</g>
<!-- Node5&#45;&gt;Node6 -->
<g id="edge5_Node000005_Node000006" class="edge"><title>Node5&#45;&gt;Node6</title>
<g id="a_edge5_Node000005_Node000006"><a xlink:title=" ">
<path fill="none" stroke="#63b8ff" d="M95.9956,-239.382C88.4397,-236.169 80.7588,-232.366 74,-228 55.4146,-215.995 37.7001,-197.003 27.8956,-185.598"/>
<polygon fill="#63b8ff" stroke="#63b8ff" points="94.8353,-242.688 105.421,-243.135 97.4247,-236.184 94.8353,-242.688"/>
</a>
</g>
</g>
<!-- Node7&#45;&gt;Node5 -->
<g id="edge7_Node000007_Node000005" class="edge"><title>Node7&#45;&gt;Node5</title>
<g id="a_edge7_Node000007_Node000005"><a xlink:title=" ">
<path fill="none" stroke="#63b8ff" d="M229.244,-252C209.182,-252 183.755,-252 164.522,-252"/>
<polygon fill="#63b8ff" stroke="#63b8ff" points="229.474,-255.5 239.474,-252 229.474,-248.5 229.474,-255.5"/>
</a>
</g>
</g>
<!-- Node8&#45;&gt;Node6 -->
<g id="edge9_Node000008_Node000006" class="edge"><title>Node8&#45;&gt;Node6</title>
<g id="a_edge9_Node000008_Node000006"><a xlink:title=" ">
<path fill="none" stroke="#63b8ff" d="M221.482,-212.943C183.133,-210.417 124.135,-205.027 74,-194 61.8392,-191.325 48.5678,-186.923 38.2249,-183.142"/>
<polygon fill="#63b8ff" stroke="#63b8ff" points="221.527,-216.453 231.726,-213.582 221.963,-209.466 221.527,-216.453"/>
</a>
</g>
</g>
<!-- Node9&#45;&gt;Node9 -->
<g id="edge13_Node000009_Node000009" class="edge"><title>Node9&#45;&gt;Node9</title>
<g id="a_edge13_Node000009_Node000009"><a xlink:title=" ">
<path fill="none" stroke="#63b8ff" d="M398.61,-194.054C397.2,-198.88 390.164,-202.5 377.5,-202.5 357.238,-202.5 351.381,-193.234 359.929,-184.583"/>
<polygon fill="#63b8ff" stroke="#63b8ff" points="401.85,-192.725 395.071,-184.583 395.293,-195.175 401.85,-192.725"/>
</a>
</g>
</g>
<!-- Node10 -->
<g id="Node000010" class="node"><title>Node10</title>
<g id="a_Node000010"><a xlink:href="group___advanced_sorts.html#gaa369b74c9050d30aa2416f9dba8cc8f5" target="_top" xlink:title="Rychlé třídění výměnou (Quick Sort) s volbou prostředního prvku jako pivota.">
<polygon fill="white" stroke="#666666" points="166,-185.5 104,-185.5 104,-166.5 166,-166.5 166,-185.5"/>
<text text-anchor="middle" x="135" y="-173.5" font-family="Helvetica,sans-Serif" font-size="10.00">quick_sort</text>
</a>
</g>
</g>
<!-- Node9&#45;&gt;Node10 -->
<g id="edge11_Node000009_Node000010" class="edge"><title>Node9&#45;&gt;Node10</title>
<g id="a_edge11_Node000009_Node000010"><a xlink:title=" ">
<path fill="none" stroke="#63b8ff" d="M319.584,-175.237C271.504,-175.437 204.52,-175.715 166.171,-175.875"/>
<polygon fill="#63b8ff" stroke="#63b8ff" points="319.859,-178.736 329.844,-175.194 319.83,-171.736 319.859,-178.736"/>
</a>
</g>
</g>
<!-- Node10&#45;&gt;Node6 -->
<g id="edge12_Node000010_Node000006" class="edge"><title>Node10&#45;&gt;Node6</title>
<g id="a_edge12_Node000010_Node000006"><a xlink:title=" ">
<path fill="none" stroke="#63b8ff" d="M93.5859,-176C74.6916,-176 53.1339,-176 38.2588,-176"/>
<polygon fill="#63b8ff" stroke="#63b8ff" points="93.7494,-179.5 103.749,-176 93.7494,-172.5 93.7494,-179.5"/>
</a>
</g>
</g>
<!-- Node11&#45;&gt;Node6 -->
<g id="edge15_Node000011_Node000006" class="edge"><title>Node11&#45;&gt;Node6</title>
<g id="a_edge15_Node000011_Node000006"><a xlink:title=" ">
<path fill="none" stroke="#63b8ff" d="M337.614,-137.049C279.595,-136.391 167.206,-138.055 74,-157 61.7286,-159.494 48.4554,-164.136 38.1393,-168.207"/>
<polygon fill="#63b8ff" stroke="#63b8ff" points="337.749,-140.551 347.798,-137.195 337.85,-133.552 337.749,-140.551"/>
</a>
</g>
</g>
<!-- Node14 -->
<g id="Node000014" class="node"><title>Node14</title>
<g id="a_Node000014"><a xlink:href="group___t_heap.html#gad15335cb6b5e00a87655aa3f25fadc38" target="_top" xlink:title="Porovnání mezi hodnotou v uzlu haldy určenou iterátorem a hodnotou typu HeapElement.">
<polygon fill="white" stroke="#666666" points="599,-78 461,-78 461,-48 599,-48 599,-78"/>
<text text-anchor="start" x="469" y="-66" font-family="Helvetica,sans-Serif" font-size="10.00">heap_compare_with_iterator</text>
<text text-anchor="middle" x="530" y="-55" font-family="Helvetica,sans-Serif" font-size="10.00">_value</text>
</a>
</g>
</g>
<!-- Node13&#45;&gt;Node14 -->
<g id="edge18_Node000013_Node000014" class="edge"><title>Node13&#45;&gt;Node14</title>
<g id="a_edge18_Node000013_Node000014"><a xlink:title=" ">
<path fill="none" stroke="#63b8ff" d="M633.264,-63C622.108,-63 610.441,-63 599.144,-63"/>
<polygon fill="#63b8ff" stroke="#63b8ff" points="633.339,-66.5001 643.339,-63 633.339,-59.5001 633.339,-66.5001"/>
</a>
</g>
</g>
<!-- Node18 -->
<g id="Node000018" class="node"><title>Node18</title>
<g id="a_Node000018"><a xlink:href="group___t_span.html#ga0b2e633085569b47c063161298794b98" target="_top" xlink:title="Porovnání mezi hodnotou elementu Spanu určenou iterátorem a hodnotou typu VectorElement.">
<polygon fill="white" stroke="#666666" points="599,-30 461,-30 461,-0 599,-0 599,-30"/>
<text text-anchor="start" x="469" y="-18" font-family="Helvetica,sans-Serif" font-size="10.00">span_compare_with_iterator</text>
<text text-anchor="middle" x="530" y="-7" font-family="Helvetica,sans-Serif" font-size="10.00">_value</text>
</a>
</g>
</g>
<!-- Node13&#45;&gt;Node18 -->
<g id="edge24_Node000013_Node000018" class="edge"><title>Node13&#45;&gt;Node18</title>
<g id="a_edge24_Node000013_Node000018"><a xlink:title=" ">
<path fill="none" stroke="#63b8ff" d="M634.375,-45.0727C617.319,-40.111 598.989,-34.7787 582.571,-30.0024"/>
<polygon fill="#63b8ff" stroke="#63b8ff" points="633.666,-48.5115 644.246,-47.9442 635.621,-41.7901 633.666,-48.5115"/>
</a>
</g>
</g>
<!-- Node15 -->
<g id="Node000015" class="node"><title>Node15</title>
<g id="a_Node000015"><a xlink:href="heap__sort__with__iterators_8c.html#a7bf828c9c4eb35c2121c3f7d1177d19b" target="_top" xlink:title="Vnitřní a lokální funkce zajišťující vložení hodnoty do zvoleného uzlu haldy, při zachování podmínek ...">
<polygon fill="white" stroke="#666666" points="406,-72.5 349,-72.5 349,-53.5 406,-53.5 406,-72.5"/>
<text text-anchor="middle" x="377.5" y="-60.5" font-family="Helvetica,sans-Serif" font-size="10.00">sift_down</text>
</a>
</g>
</g>
<!-- Node14&#45;&gt;Node15 -->
<g id="edge19_Node000014_Node000015" class="edge"><title>Node14&#45;&gt;Node15</title>
<g id="a_edge19_Node000014_Node000015"><a xlink:title=" ">
<path fill="none" stroke="#63b8ff" d="M450.367,-63C434.498,-63 418.829,-63 406.192,-63"/>
<polygon fill="#63b8ff" stroke="#63b8ff" points="450.796,-66.5001 460.796,-63 450.795,-59.5001 450.796,-66.5001"/>
</a>
</g>
</g>
<!-- Node16 -->
<g id="Node000016" class="node"><title>Node16</title>
<g id="a_Node000016"><a xlink:href="group___powerful_sorts.html#ga84762e575f9465881e13d17072186ddd" target="_top" xlink:title="Třídění pomocí haldy (Heap Sort) využívající iterátorové API pro přístup k elementům vektoru.">
<polygon fill="white" stroke="#666666" points="196,-109.5 74,-109.5 74,-90.5 196,-90.5 196,-109.5"/>
<text text-anchor="middle" x="135" y="-97.5" font-family="Helvetica,sans-Serif" font-size="10.00">heap_sort_with_iterators</text>
</a>
</g>
</g>
<!-- Node15&#45;&gt;Node16 -->
<g id="edge20_Node000015_Node000016" class="edge"><title>Node15&#45;&gt;Node16</title>
<g id="a_edge20_Node000015_Node000016"><a xlink:title=" ">
<path fill="none" stroke="#63b8ff" d="M338.91,-71.3843C324.862,-74.349 308.743,-77.5517 294,-80 261.814,-85.3449 225.731,-90.0118 196.181,-93.49"/>
<polygon fill="#63b8ff" stroke="#63b8ff" points="339.678,-74.7992 348.723,-69.2819 338.212,-67.9546 339.678,-74.7992"/>
</a>
</g>
</g>
<!-- Node17 -->
<g id="Node000017" class="node"><title>Node17</title>
<g id="a_Node000017"><a xlink:href="heap__sort__with__iterators_8c.html#aceaf0618c69440f1e439e224eb6945dc" target="_top" xlink:title="Vnitřní a lokální funkce realizující uspořádání elementů vektoru do haldy.">
<polygon fill="white" stroke="#666666" points="286.5,-71.5 239.5,-71.5 239.5,-52.5 286.5,-52.5 286.5,-71.5"/>
<text text-anchor="middle" x="263" y="-59.5" font-family="Helvetica,sans-Serif" font-size="10.00">heapify</text>
</a>
</g>
</g>
<!-- Node15&#45;&gt;Node17 -->
<g id="edge22_Node000015_Node000017" class="edge"><title>Node15&#45;&gt;Node17</title>
<g id="a_edge22_Node000015_Node000017"><a xlink:title=" ">
<path fill="none" stroke="#63b8ff" d="M338.649,-62.6635C321.412,-62.5103 301.584,-62.3341 286.697,-62.2018"/>
<polygon fill="#63b8ff" stroke="#63b8ff" points="338.949,-66.1663 348.979,-62.7554 339.011,-59.1665 338.949,-66.1663"/>
</a>
</g>
</g>
<!-- Node16&#45;&gt;Node6 -->
<g id="edge21_Node000016_Node000006" class="edge"><title>Node16&#45;&gt;Node6</title>
<g id="a_edge21_Node000016_Node000006"><a xlink:title=" ">
<path fill="none" stroke="#63b8ff" d="M94.1862,-113.398C87.2206,-116.441 80.2198,-119.982 74,-124 55.4146,-136.005 37.7001,-154.997 27.8956,-166.402"/>
<polygon fill="#63b8ff" stroke="#63b8ff" points="95.6524,-116.579 103.586,-109.558 93.0054,-110.099 95.6524,-116.579"/>
</a>
</g>
</g>
<!-- Node17&#45;&gt;Node16 -->
<g id="edge23_Node000017_Node000016" class="edge"><title>Node17&#45;&gt;Node16</title>
<g id="a_edge23_Node000017_Node000016"><a xlink:title=" ">
<path fill="none" stroke="#63b8ff" d="M229.754,-71.7249C210.729,-77.4628 186.745,-84.6961 167.798,-90.4102"/>
<polygon fill="#63b8ff" stroke="#63b8ff" points="230.91,-75.0321 239.474,-68.7936 228.889,-68.3302 230.91,-75.0321"/>
</a>
</g>
</g>
</g>
</svg>
