<?xml version="1.0" encoding="UTF-8" standalone="no"?>
<!DOCTYPE svg PUBLIC "-//W3C//DTD SVG 1.1//EN"
 "http://www.w3.org/Graphics/SVG/1.1/DTD/svg11.dtd">
<!-- Generated by graphviz version 2.38.0 (20140413.2041)
 -->
<!-- Title: vector_fast_value Pages: 1 -->
<svg width="717pt" height="322pt"
 viewBox="0.00 0.00 717.00 322.05" xmlns="http://www.w3.org/2000/svg" xmlns:xlink="http://www.w3.org/1999/xlink">
<g id="graph0" class="graph" transform="scale(1 1) rotate(0) translate(4 318.049)">
<title>vector_fast_value</title>
<!-- Node1 -->
<g id="Node000001" class="node"><title>Node1</title>
<g id="a_Node000001"><a xlink:title=" ">
<polygon fill="#999999" stroke="#666666" points="709,-198 619,-198 619,-179 709,-179 709,-198"/>
<text text-anchor="middle" x="664" y="-186" font-family="Helvetica,sans-Serif" font-size="10.00">vector_fast_value</text>
</a>
</g>
</g>
<!-- Node2 -->
<g id="Node000002" class="node"><title>Node2</title>
<g id="a_Node000002"><a xlink:href="group___t_vector_iterator.html#ga4d8032eb9dbbdccf794611f2b0c9821c" target="_top" xlink:title="Přečtení hodnoty elementu z vektoru pomocí iterátoru.">
<polygon fill="white" stroke="#666666" points="583,-246 479,-246 479,-227 583,-227 583,-246"/>
<text text-anchor="middle" x="531" y="-234" font-family="Helvetica,sans-Serif" font-size="10.00">vector_iterator_value</text>
</a>
</g>
</g>
<!-- Node1&#45;&gt;Node2 -->
<g id="edge1_Node000001_Node000002" class="edge"><title>Node1&#45;&gt;Node2</title>
<g id="a_edge1_Node000001_Node000002"><a xlink:title=" ">
<path fill="none" stroke="#63b8ff" d="M627.213,-201.613C605.378,-209.614 577.951,-219.663 558.15,-226.918"/>
<polygon fill="#63b8ff" stroke="#63b8ff" points="628.62,-204.825 636.805,-198.098 626.211,-198.252 628.62,-204.825"/>
</a>
</g>
</g>
<!-- Node10 -->
<g id="Node000010" class="node"><title>Node10</title>
<g id="a_Node000010"><a xlink:href="group___t_vector.html#ga2b08236d9825632cd96bcc89faed929c" target="_top" xlink:title="Přečtení hodnoty elementu z vektoru na požadované pozici.">
<polygon fill="white" stroke="#666666" points="565.5,-123 496.5,-123 496.5,-104 565.5,-104 565.5,-123"/>
<text text-anchor="middle" x="531" y="-111" font-family="Helvetica,sans-Serif" font-size="10.00">vector_value</text>
</a>
</g>
</g>
<!-- Node1&#45;&gt;Node10 -->
<g id="edge11_Node000001_Node000010" class="edge"><title>Node1&#45;&gt;Node10</title>
<g id="a_edge11_Node000001_Node000010"><a xlink:title=" ">
<path fill="none" stroke="#63b8ff" d="M637.159,-173.706C610.953,-158.702 571.162,-135.921 548.793,-123.114"/>
<polygon fill="#63b8ff" stroke="#63b8ff" points="635.725,-176.917 646.142,-178.849 639.203,-170.843 635.725,-176.917"/>
</a>
</g>
</g>
<!-- Node3 -->
<g id="Node000003" class="node"><title>Node3</title>
<g id="a_Node000003"><a xlink:href="group___t_heap.html#gac645f0bf424be39230e2472e55ad4f6e" target="_top" xlink:title="Přečtení hodnoty uzlu haldy pomocí iterátoru.">
<polygon fill="white" stroke="#666666" points="443,-303 343,-303 343,-284 443,-284 443,-303"/>
<text text-anchor="middle" x="393" y="-291" font-family="Helvetica,sans-Serif" font-size="10.00">heap_iterator_value</text>
</a>
</g>
</g>
<!-- Node2&#45;&gt;Node3 -->
<g id="edge2_Node000002_Node000003" class="edge"><title>Node2&#45;&gt;Node3</title>
<g id="a_edge2_Node000002_Node000003"><a xlink:title=" ">
<path fill="none" stroke="#63b8ff" d="M497.839,-249.979C472.926,-260.421 439.027,-274.629 416.838,-283.928"/>
<polygon fill="#63b8ff" stroke="#63b8ff" points="499.367,-253.134 507.237,-246.041 496.661,-246.678 499.367,-253.134"/>
</a>
</g>
</g>
<!-- Node7 -->
<g id="Node000007" class="node"><title>Node7</title>
<g id="a_Node000007"><a xlink:href="group___basic_sorts.html#ga25c7ac8991c266d71b75cf20c14b67cf" target="_top" xlink:title="Vytisknutí elementu vektoru pomocí iterátoru.">
<polygon fill="white" stroke="#666666" points="307,-265 232,-265 232,-246 307,-246 307,-265"/>
<text text-anchor="middle" x="269.5" y="-253" font-family="Helvetica,sans-Serif" font-size="10.00">print_element</text>
</a>
</g>
</g>
<!-- Node2&#45;&gt;Node7 -->
<g id="edge7_Node000002_Node000007" class="edge"><title>Node2&#45;&gt;Node7</title>
<g id="a_edge7_Node000002_Node000007"><a xlink:title=" ">
<path fill="none" stroke="#63b8ff" d="M468.631,-240.993C418.371,-244.673 348.944,-249.757 307.025,-252.826"/>
<polygon fill="#63b8ff" stroke="#63b8ff" points="469.013,-244.475 478.731,-240.254 468.502,-237.493 469.013,-244.475"/>
</a>
</g>
</g>
<!-- Node9 -->
<g id="Node000009" class="node"><title>Node9</title>
<g id="a_Node000009"><a xlink:href="group___t_span.html#ga8796ef08880befbf07bda987120a58cb" target="_top" xlink:title="Přečtení hodnoty elementu z Spanu pomocí iterátoru.">
<polygon fill="white" stroke="#666666" points="443,-227 343,-227 343,-208 443,-208 443,-227"/>
<text text-anchor="middle" x="393" y="-215" font-family="Helvetica,sans-Serif" font-size="10.00">span_iterator_value</text>
</a>
</g>
</g>
<!-- Node2&#45;&gt;Node9 -->
<g id="edge10_Node000002_Node000009" class="edge"><title>Node2&#45;&gt;Node9</title>
<g id="a_edge10_Node000002_Node000009"><a xlink:title=" ">
<path fill="none" stroke="#63b8ff" d="M468.913,-227.966C460.257,-226.756 451.45,-225.526 443.06,-224.354"/>
<polygon fill="#63b8ff" stroke="#63b8ff" points="468.584,-231.454 478.972,-229.371 469.552,-224.521 468.584,-231.454"/>
</a>
</g>
</g>
<!-- Node4 -->
<g id="Node000004" class="node"><title>Node4</title>
<g id="a_Node000004"><a xlink:href="group___powerful_sorts.html#ga84762e575f9465881e13d17072186ddd" target="_top" xlink:title="Třídění pomocí haldy (Heap Sort) využívající iterátorové API pro přístup k elementům vektoru.">
<polygon fill="white" stroke="#666666" points="196,-302 74,-302 74,-283 196,-283 196,-302"/>
<text text-anchor="middle" x="135" y="-290" font-family="Helvetica,sans-Serif" font-size="10.00">heap_sort_with_iterators</text>
</a>
</g>
</g>
<!-- Node3&#45;&gt;Node4 -->
<g id="edge3_Node000003_Node000004" class="edge"><title>Node3&#45;&gt;Node4</title>
<g id="a_edge3_Node000003_Node000004"><a xlink:title=" ">
<path fill="none" stroke="#63b8ff" d="M344.987,-305.282C332.704,-307.856 319.424,-310.199 307,-311.5 273.848,-314.972 265.174,-314.751 232,-311.5 213.062,-309.644 192.32,-305.775 174.977,-302.01"/>
<polygon fill="#63b8ff" stroke="#63b8ff" points="346.01,-308.641 355.03,-303.082 344.512,-301.803 346.01,-308.641"/>
</a>
</g>
</g>
<!-- Node6 -->
<g id="Node000006" class="node"><title>Node6</title>
<g id="a_Node000006"><a xlink:href="heap__sort__with__iterators_8c.html#aceaf0618c69440f1e439e224eb6945dc" target="_top" xlink:title="Vnitřní a lokální funkce realizující uspořádání elementů vektoru do haldy.">
<polygon fill="white" stroke="#666666" points="293,-302 246,-302 246,-283 293,-283 293,-302"/>
<text text-anchor="middle" x="269.5" y="-290" font-family="Helvetica,sans-Serif" font-size="10.00">heapify</text>
</a>
</g>
</g>
<!-- Node3&#45;&gt;Node6 -->
<g id="edge5_Node000003_Node000006" class="edge"><title>Node3&#45;&gt;Node6</title>
<g id="a_edge5_Node000003_Node000006"><a xlink:title=" ">
<path fill="none" stroke="#63b8ff" d="M332.715,-293.012C318.599,-292.896 304.377,-292.779 293.101,-292.686"/>
<polygon fill="#63b8ff" stroke="#63b8ff" points="332.903,-296.514 342.932,-293.096 332.961,-289.514 332.903,-296.514"/>
</a>
</g>
</g>
<!-- Node5 -->
<g id="Node000005" class="node"><title>Node5</title>
<g id="a_Node000005"><a xlink:href="group___main_program.html#ga0ddf1224851353fc92bfbff6f499fa97" target="_top" xlink:title=" ">
<polygon fill="white" stroke="#666666" points="38,-170 0,-170 0,-151 38,-151 38,-170"/>
<text text-anchor="middle" x="19" y="-158" font-family="Helvetica,sans-Serif" font-size="10.00">main</text>
</a>
</g>
</g>
<!-- Node4&#45;&gt;Node5 -->
<g id="edge4_Node000004_Node000005" class="edge"><title>Node4&#45;&gt;Node5</title>
<g id="a_edge4_Node000004_Node000005"><a xlink:title=" ">
<path fill="none" stroke="#63b8ff" d="M104.932,-277.949C94.3553,-271.713 82.8391,-263.729 74,-254.5 48.8751,-228.267 30.9416,-188.161 23.6366,-170.01"/>
<polygon fill="#63b8ff" stroke="#63b8ff" points="103.459,-281.135 113.894,-282.965 106.878,-275.026 103.459,-281.135"/>
</a>
</g>
</g>
<!-- Node6&#45;&gt;Node4 -->
<g id="edge6_Node000006_Node000004" class="edge"><title>Node6&#45;&gt;Node4</title>
<g id="a_edge6_Node000006_Node000004"><a xlink:title=" ">
<path fill="none" stroke="#63b8ff" d="M235.373,-292.5C223.441,-292.5 209.579,-292.5 196.064,-292.5"/>
<polygon fill="#63b8ff" stroke="#63b8ff" points="235.722,-296 245.722,-292.5 235.722,-289 235.722,-296"/>
</a>
</g>
</g>
<!-- Node8 -->
<g id="Node000008" class="node"><title>Node8</title>
<g id="a_Node000008"><a xlink:href="group___main_program.html#ga7343209645c93203da0a86613abfed04" target="_top" xlink:title="Testování třídicí metody.">
<polygon fill="white" stroke="#666666" points="169,-245 101,-245 101,-226 169,-226 169,-245"/>
<text text-anchor="middle" x="135" y="-233" font-family="Helvetica,sans-Serif" font-size="10.00">sort_testing</text>
</a>
</g>
</g>
<!-- Node7&#45;&gt;Node8 -->
<g id="edge8_Node000007_Node000008" class="edge"><title>Node7&#45;&gt;Node8</title>
<g id="a_edge8_Node000007_Node000008"><a xlink:title=" ">
<path fill="none" stroke="#63b8ff" d="M221.979,-248.478C204.595,-245.854 185.217,-242.929 169.264,-240.521"/>
<polygon fill="#63b8ff" stroke="#63b8ff" points="221.533,-251.95 231.943,-249.982 222.577,-245.029 221.533,-251.95"/>
</a>
</g>
</g>
<!-- Node8&#45;&gt;Node5 -->
<g id="edge9_Node000008_Node000005" class="edge"><title>Node8&#45;&gt;Node5</title>
<g id="a_edge9_Node000008_Node000005"><a xlink:title=" ">
<path fill="none" stroke="#63b8ff" d="M109.184,-220.661C98.2932,-214.03 85.4145,-206.026 74,-198.5 59.8355,-189.161 44.0003,-177.92 33.1604,-170.097"/>
<polygon fill="#63b8ff" stroke="#63b8ff" points="107.422,-223.685 117.789,-225.868 111.046,-217.696 107.422,-223.685"/>
</a>
</g>
</g>
<!-- Node11 -->
<g id="Node000011" class="node"><title>Node11</title>
<g id="a_Node000011"><a xlink:href="group___t_heap.html#gaf0369d757c7569adb9ddb0d5f3530c07" target="_top" xlink:title="Přečtení hodnoty z uzlu haldy dle požadované pozice.">
<polygon fill="white" stroke="#666666" points="425.5,-189 360.5,-189 360.5,-170 425.5,-170 425.5,-189"/>
<text text-anchor="middle" x="393" y="-177" font-family="Helvetica,sans-Serif" font-size="10.00">heap_value</text>
</a>
</g>
</g>
<!-- Node10&#45;&gt;Node11 -->
<g id="edge12_Node000010_Node000011" class="edge"><title>Node10&#45;&gt;Node11</title>
<g id="a_edge12_Node000010_Node000011"><a xlink:title=" ">
<path fill="none" stroke="#63b8ff" d="M501.13,-127.511C474.858,-140.26 436.774,-158.742 413.799,-169.891"/>
<polygon fill="#63b8ff" stroke="#63b8ff" points="502.756,-130.612 510.224,-123.097 499.7,-124.314 502.756,-130.612"/>
</a>
</g>
</g>
<!-- Node14 -->
<g id="Node000014" class="node"><title>Node14</title>
<g id="a_Node000014"><a xlink:href="group___basic_sorts.html#gac3903c3fd846908cd362e293ed40582e" target="_top" xlink:title="Třídění přímým vkládáním (Insert Sort)">
<polygon fill="white" stroke="#666666" points="166,-151 104,-151 104,-132 166,-132 166,-151"/>
<text text-anchor="middle" x="135" y="-139" font-family="Helvetica,sans-Serif" font-size="10.00">insert_sort</text>
</a>
</g>
</g>
<!-- Node10&#45;&gt;Node14 -->
<g id="edge17_Node000010_Node000014" class="edge"><title>Node10&#45;&gt;Node14</title>
<g id="a_edge17_Node000010_Node000014"><a xlink:title=" ">
<path fill="none" stroke="#63b8ff" d="M485.956,-117.78C472.204,-119.054 456.978,-120.402 443,-121.5 341.563,-129.466 221.093,-136.651 166.087,-139.807"/>
<polygon fill="#63b8ff" stroke="#63b8ff" points="486.509,-121.243 496.139,-116.825 485.855,-114.274 486.509,-121.243"/>
</a>
</g>
</g>
<!-- Node15 -->
<g id="Node000015" class="node"><title>Node15</title>
<g id="a_Node000015"><a xlink:href="advanced__sorts_8c.html#a0ae77c9640aa821e5507079ec5d2eb1d" target="_top" xlink:title="Vnitřní a lokální funkce realizující rekurzivní funkci pro metodu (Quick Sort)">
<polygon fill="white" stroke="#666666" points="440.5,-95 345.5,-95 345.5,-76 440.5,-76 440.5,-95"/>
<text text-anchor="middle" x="393" y="-83" font-family="Helvetica,sans-Serif" font-size="10.00">quick_sort_worker</text>
</a>
</g>
</g>
<!-- Node10&#45;&gt;Node15 -->
<g id="edge19_Node000010_Node000015" class="edge"><title>Node10&#45;&gt;Node15</title>
<g id="a_edge19_Node000010_Node000015"><a xlink:title=" ">
<path fill="none" stroke="#63b8ff" d="M486.504,-104.545C471.768,-101.511 455.259,-98.1121 440.312,-95.0348"/>
<polygon fill="#63b8ff" stroke="#63b8ff" points="485.882,-107.99 496.382,-106.579 487.293,-101.134 485.882,-107.99"/>
</a>
</g>
</g>
<!-- Node17 -->
<g id="Node000017" class="node"><title>Node17</title>
<g id="a_Node000017"><a xlink:href="group___advanced_sorts.html#gaee070b00692f425d83eaea28b37bab2b" target="_top" xlink:title="Shellovo třídění vkládáním s ubývajícím krokem (Shell Sort) dle Hibbardovy posloupnosti.">
<polygon fill="white" stroke="#666666" points="299,-59 240,-59 240,-40 299,-40 299,-59"/>
<text text-anchor="middle" x="269.5" y="-47" font-family="Helvetica,sans-Serif" font-size="10.00">shell_sort</text>
</a>
</g>
</g>
<!-- Node10&#45;&gt;Node17 -->
<g id="edge23_Node000010_Node000017" class="edge"><title>Node10&#45;&gt;Node17</title>
<g id="a_edge23_Node000010_Node000017"><a xlink:title=" ">
<path fill="none" stroke="#63b8ff" d="M507.689,-98.2161C490.733,-87.4245 466.409,-73.6587 443,-66.5 394.078,-51.5396 334.062,-48.9518 299.259,-48.9015"/>
<polygon fill="#63b8ff" stroke="#63b8ff" points="506.013,-101.302 516.299,-103.845 509.844,-95.4431 506.013,-101.302"/>
</a>
</g>
</g>
<!-- Node18 -->
<g id="Node000018" class="node"><title>Node18</title>
<g id="a_Node000018"><a xlink:href="group___t_span.html#ga4c772b349af71b9066651285a90ee21e" target="_top" xlink:title="Přečtení hodnoty elementu Spanu na požadované pozici.">
<polygon fill="white" stroke="#666666" points="425.5,-19 360.5,-19 360.5,-0 425.5,-0 425.5,-19"/>
<text text-anchor="middle" x="393" y="-7" font-family="Helvetica,sans-Serif" font-size="10.00">span_value</text>
</a>
</g>
</g>
<!-- Node10&#45;&gt;Node18 -->
<g id="edge25_Node000010_Node000018" class="edge"><title>Node10&#45;&gt;Node18</title>
<g id="a_edge25_Node000010_Node000018"><a xlink:title=" ">
<path fill="none" stroke="#63b8ff" d="M514.126,-96.2304C497.553,-78.8767 470.225,-52.1049 443,-33.5 435.023,-28.0486 425.624,-23.1312 417.202,-19.1877"/>
<polygon fill="#63b8ff" stroke="#63b8ff" points="511.951,-99.0268 521.351,-103.916 517.052,-94.2324 511.951,-99.0268"/>
</a>
</g>
</g>
<!-- Node12 -->
<g id="Node000012" class="node"><title>Node12</title>
<g id="a_Node000012"><a xlink:href="group___powerful_sorts.html#gaf564949cc194e5feea63d6c2aaa3125a" target="_top" xlink:title="Třídění pomocí haldy (Heap Sort) využívající poziční API pro přístup k elementům vektoru.">
<polygon fill="white" stroke="#666666" points="164.5,-189 105.5,-189 105.5,-170 164.5,-170 164.5,-189"/>
<text text-anchor="middle" x="135" y="-177" font-family="Helvetica,sans-Serif" font-size="10.00">heap_sort</text>
</a>
</g>
</g>
<!-- Node11&#45;&gt;Node12 -->
<g id="edge13_Node000011_Node000012" class="edge"><title>Node11&#45;&gt;Node12</title>
<g id="a_edge13_Node000011_Node000012"><a xlink:title=" ">
<path fill="none" stroke="#63b8ff" d="M350.296,-190.739C336.609,-193.912 321.252,-196.926 307,-198.5 273.868,-202.158 265.174,-201.751 232,-198.5 209.173,-196.263 183.725,-191.101 164.767,-186.722"/>
<polygon fill="#63b8ff" stroke="#63b8ff" points="351.491,-194.051 360.392,-188.304 349.85,-187.247 351.491,-194.051"/>
</a>
</g>
</g>
<!-- Node13 -->
<g id="Node000013" class="node"><title>Node13</title>
<g id="a_Node000013"><a xlink:href="heap__sort_8c.html#aceaf0618c69440f1e439e224eb6945dc" target="_top" xlink:title="Vnitřní a lokální funkce realizující uspořádání elementů vektoru do haldy.">
<polygon fill="white" stroke="#666666" points="293,-189 246,-189 246,-170 293,-170 293,-189"/>
<text text-anchor="middle" x="269.5" y="-177" font-family="Helvetica,sans-Serif" font-size="10.00">heapify</text>
</a>
</g>
</g>
<!-- Node11&#45;&gt;Node13 -->
<g id="edge15_Node000011_Node000013" class="edge"><title>Node11&#45;&gt;Node13</title>
<g id="a_edge15_Node000011_Node000013"><a xlink:title=" ">
<path fill="none" stroke="#63b8ff" d="M350.377,-179.5C331.194,-179.5 309.178,-179.5 293.124,-179.5"/>
<polygon fill="#63b8ff" stroke="#63b8ff" points="350.395,-183 360.394,-179.5 350.394,-176 350.395,-183"/>
</a>
</g>
</g>
<!-- Node12&#45;&gt;Node5 -->
<g id="edge14_Node000012_Node000005" class="edge"><title>Node12&#45;&gt;Node5</title>
<g id="a_edge14_Node000012_Node000005"><a xlink:title=" ">
<path fill="none" stroke="#63b8ff" d="M95.1649,-173.027C75.8207,-169.803 53.3594,-166.06 38.0636,-163.511"/>
<polygon fill="#63b8ff" stroke="#63b8ff" points="94.7936,-176.514 105.233,-174.705 95.9445,-169.609 94.7936,-176.514"/>
</a>
</g>
</g>
<!-- Node13&#45;&gt;Node12 -->
<g id="edge16_Node000013_Node000012" class="edge"><title>Node13&#45;&gt;Node12</title>
<g id="a_edge16_Node000013_Node000012"><a xlink:title=" ">
<path fill="none" stroke="#63b8ff" d="M235.655,-179.5C213.965,-179.5 185.806,-179.5 164.956,-179.5"/>
<polygon fill="#63b8ff" stroke="#63b8ff" points="235.722,-183 245.722,-179.5 235.722,-176 235.722,-183"/>
</a>
</g>
</g>
<!-- Node14&#45;&gt;Node5 -->
<g id="edge18_Node000014_Node000005" class="edge"><title>Node14&#45;&gt;Node5</title>
<g id="a_edge18_Node000014_Node000005"><a xlink:title=" ">
<path fill="none" stroke="#63b8ff" d="M93.8482,-148.192C74.8913,-151.351 53.2028,-154.966 38.2588,-157.457"/>
<polygon fill="#63b8ff" stroke="#63b8ff" points="94.4609,-151.638 103.749,-146.542 93.31,-144.733 94.4609,-151.638"/>
</a>
</g>
</g>
<!-- Node15&#45;&gt;Node15 -->
<g id="edge22_Node000015_Node000015" class="edge"><title>Node15&#45;&gt;Node15</title>
<g id="a_edge22_Node000015_Node000015"><a xlink:title=" ">
<path fill="none" stroke="#63b8ff" d="M415.591,-104.554C414.083,-109.38 406.552,-113 393,-113 371.316,-113 365.048,-103.734 374.196,-95.0828"/>
<polygon fill="#63b8ff" stroke="#63b8ff" points="418.767,-103.068 411.804,-95.0828 412.267,-105.668 418.767,-103.068"/>
</a>
</g>
</g>
<!-- Node16 -->
<g id="Node000016" class="node"><title>Node16</title>
<g id="a_Node000016"><a xlink:href="group___advanced_sorts.html#gaa369b74c9050d30aa2416f9dba8cc8f5" target="_top" xlink:title="Rychlé třídění výměnou (Quick Sort) s volbou prostředního prvku jako pivota.">
<polygon fill="white" stroke="#666666" points="300.5,-99 238.5,-99 238.5,-80 300.5,-80 300.5,-99"/>
<text text-anchor="middle" x="269.5" y="-87" font-family="Helvetica,sans-Serif" font-size="10.00">quick_sort</text>
</a>
</g>
</g>
<!-- Node15&#45;&gt;Node16 -->
<g id="edge20_Node000015_Node000016" class="edge"><title>Node15&#45;&gt;Node16</title>
<g id="a_edge20_Node000015_Node000016"><a xlink:title=" ">
<path fill="none" stroke="#63b8ff" d="M335.042,-87.3751C323.179,-87.7657 311.121,-88.1627 300.69,-88.5061"/>
<polygon fill="#63b8ff" stroke="#63b8ff" points="335.493,-90.8623 345.372,-87.0351 335.263,-83.8661 335.493,-90.8623"/>
</a>
</g>
</g>
<!-- Node16&#45;&gt;Node5 -->
<g id="edge21_Node000016_Node000005" class="edge"><title>Node16&#45;&gt;Node5</title>
<g id="a_edge21_Node000016_Node000005"><a xlink:title=" ">
<path fill="none" stroke="#63b8ff" d="M228.438,-91.5235C188.124,-94.6914 124.814,-102.797 74,-123.5 57.7921,-130.103 41.543,-142.152 31.1675,-150.704"/>
<polygon fill="#63b8ff" stroke="#63b8ff" points="228.697,-95.014 238.419,-90.8034 228.193,-88.0321 228.697,-95.014"/>
</a>
</g>
</g>
<!-- Node17&#45;&gt;Node5 -->
<g id="edge24_Node000017_Node000005" class="edge"><title>Node17&#45;&gt;Node5</title>
<g id="a_edge24_Node000017_Node000005"><a xlink:title=" ">
<path fill="none" stroke="#63b8ff" d="M229.604,-50.2308C188.125,-52.6701 121.935,-61.4661 74,-91.5 50.2817,-106.361 32.762,-135.505 24.7833,-150.723"/>
<polygon fill="#63b8ff" stroke="#63b8ff" points="230.03,-53.7142 239.846,-49.7285 229.687,-46.7226 230.03,-53.7142"/>
</a>
</g>
</g>
</g>
</svg>
