<?xml version="1.0" encoding="UTF-8" standalone="no"?>
<!DOCTYPE svg PUBLIC "-//W3C//DTD SVG 1.1//EN"
 "http://www.w3.org/Graphics/SVG/1.1/DTD/svg11.dtd">
<!-- Generated by graphviz version 2.38.0 (20140413.2041)
 -->
<!-- Title: TVector.h Pages: 1 -->
<svg width="939pt" height="192pt"
 viewBox="0.00 0.00 939.00 192.00" xmlns="http://www.w3.org/2000/svg" xmlns:xlink="http://www.w3.org/1999/xlink">
<g id="graph0" class="graph" transform="scale(1 1) rotate(0) translate(4 188)">
<title>TVector.h</title>
<!-- Node1 -->
<g id="Node000001" class="node"><title>Node1</title>
<g id="a_Node000001"><a xlink:title="Definice typu Sortable Vector with shareable sortstats.">
<polygon fill="#999999" stroke="#666666" points="547,-184 488,-184 488,-165 547,-165 547,-184"/>
<text text-anchor="middle" x="517.5" y="-172" font-family="Helvetica,sans-Serif" font-size="10.00">TVector.h</text>
</a>
</g>
</g>
<!-- Node2 -->
<g id="Node000002" class="node"><title>Node2</title>
<g id="a_Node000002"><a xlink:href="_t_heap_8h.html" target="_top" xlink:title="Definice typu Heap pro přístup k elementům vektoru jako k uzlům haldy (vyžaduje Sortable Vector with ...">
<polygon fill="white" stroke="#666666" points="110,-129 57,-129 57,-110 110,-110 110,-129"/>
<text text-anchor="middle" x="83.5" y="-117" font-family="Helvetica,sans-Serif" font-size="10.00">THeap.h</text>
</a>
</g>
</g>
<!-- Node1&#45;&gt;Node2 -->
<g id="edge1_Node000001_Node000002" class="edge"><title>Node1&#45;&gt;Node2</title>
<g id="a_edge1_Node000001_Node000002"><a xlink:title=" ">
<path fill="none" stroke="#63b8ff" d="M477.459,-170.629C405.454,-165.11 249.497,-151.53 119.5,-129 116.463,-128.474 113.299,-127.846 110.163,-127.173"/>
<polygon fill="#63b8ff" stroke="#63b8ff" points="477.634,-174.152 487.869,-171.415 478.161,-167.172 477.634,-174.152"/>
</a>
</g>
</g>
<!-- Node6 -->
<g id="Node000006" class="node"><title>Node6</title>
<g id="a_Node000006"><a xlink:href="_t_span_8h.html" target="_top" xlink:title="Definice typu Span zajišťující přístup k omezené části vektoru (vyžaduje Sortable Vector with shareab...">
<polygon fill="white" stroke="#666666" points="650,-129 597,-129 597,-110 650,-110 650,-129"/>
<text text-anchor="middle" x="623.5" y="-117" font-family="Helvetica,sans-Serif" font-size="10.00">TSpan.h</text>
</a>
</g>
</g>
<!-- Node1&#45;&gt;Node6 -->
<g id="edge5_Node000001_Node000006" class="edge"><title>Node1&#45;&gt;Node6</title>
<g id="a_edge5_Node000001_Node000006"><a xlink:title=" ">
<path fill="none" stroke="#63b8ff" d="M543.499,-160.5C562.998,-150.751 589.149,-137.676 606.159,-129.17"/>
<polygon fill="#63b8ff" stroke="#63b8ff" points="541.91,-157.382 534.531,-164.985 545.04,-163.643 541.91,-157.382"/>
</a>
</g>
</g>
<!-- Node8 -->
<g id="Node000008" class="node"><title>Node8</title>
<g id="a_Node000008"><a xlink:href="_t_vector_8c.html" target="_top" xlink:title="Implementace API typu Sortable Vector with shareable sortstats.">
<polygon fill="white" stroke="#666666" points="931,-129 872,-129 872,-110 931,-110 931,-129"/>
<text text-anchor="middle" x="901.5" y="-117" font-family="Helvetica,sans-Serif" font-size="10.00">TVector.c</text>
</a>
</g>
</g>
<!-- Node1&#45;&gt;Node8 -->
<g id="edge7_Node000001_Node000008" class="edge"><title>Node1&#45;&gt;Node8</title>
<g id="a_edge7_Node000001_Node000008"><a xlink:title=" ">
<path fill="none" stroke="#63b8ff" d="M557.284,-169.497C621.667,-162.766 752.581,-148.031 862.5,-129 865.504,-128.48 868.628,-127.887 871.741,-127.263"/>
<polygon fill="#63b8ff" stroke="#63b8ff" points="556.751,-166.034 547.165,-170.546 557.472,-172.996 556.751,-166.034"/>
</a>
</g>
</g>
<!-- Node9 -->
<g id="Node000009" class="node"><title>Node9</title>
<g id="a_Node000009"><a xlink:href="advanced__sorts_8h.html" target="_top" xlink:title="Deklarace API účinnějších metod třídění">
<polygon fill="white" stroke="#666666" points="853.5,-129 761.5,-129 761.5,-110 853.5,-110 853.5,-129"/>
<text text-anchor="middle" x="807.5" y="-117" font-family="Helvetica,sans-Serif" font-size="10.00">advanced_sorts.h</text>
</a>
</g>
</g>
<!-- Node1&#45;&gt;Node9 -->
<g id="edge8_Node000001_Node000009" class="edge"><title>Node1&#45;&gt;Node9</title>
<g id="a_edge8_Node000001_Node000009"><a xlink:title=" ">
<path fill="none" stroke="#63b8ff" d="M557.269,-166.232C610.615,-156.482 705.143,-139.207 761.495,-128.908"/>
<polygon fill="#63b8ff" stroke="#63b8ff" points="556.38,-162.836 547.172,-168.077 557.639,-169.722 556.38,-162.836"/>
</a>
</g>
</g>
<!-- Node12 -->
<g id="Node000012" class="node"><title>Node12</title>
<g id="a_Node000012"><a xlink:href="basic__sorts_8h.html" target="_top" xlink:title="Deklarace API přímých metod třídění">
<polygon fill="white" stroke="#666666" points="743,-129 668,-129 668,-110 743,-110 743,-129"/>
<text text-anchor="middle" x="705.5" y="-117" font-family="Helvetica,sans-Serif" font-size="10.00">basic_sorts.h</text>
</a>
</g>
</g>
<!-- Node1&#45;&gt;Node12 -->
<g id="edge11_Node000001_Node000012" class="edge"><title>Node1&#45;&gt;Node12</title>
<g id="a_edge11_Node000001_Node000012"><a xlink:title=" ">
<path fill="none" stroke="#63b8ff" d="M557.239,-162.297C592.478,-152.363 643.187,-138.067 675.228,-129.034"/>
<polygon fill="#63b8ff" stroke="#63b8ff" points="555.964,-159.02 547.289,-165.102 557.864,-165.757 555.964,-159.02"/>
</a>
</g>
</g>
<!-- Node14 -->
<g id="Node000014" class="node"><title>Node14</title>
<g id="a_Node000014"><a xlink:href="heap__sort_8h.html" target="_top" xlink:title="Deklarace API výkonnější metody třídění (Heap sort), využívající poziční API pro přístup k uzlům hald...">
<polygon fill="white" stroke="#666666" points="196.5,-129 128.5,-129 128.5,-110 196.5,-110 196.5,-129"/>
<text text-anchor="middle" x="162.5" y="-117" font-family="Helvetica,sans-Serif" font-size="10.00">heap_sort.h</text>
</a>
</g>
</g>
<!-- Node1&#45;&gt;Node14 -->
<g id="edge14_Node000001_Node000014" class="edge"><title>Node1&#45;&gt;Node14</title>
<g id="a_edge14_Node000001_Node000014"><a xlink:title=" ">
<path fill="none" stroke="#63b8ff" d="M477.652,-168.51C418.231,-160.913 302.946,-145.568 205.5,-129 202.649,-128.515 199.697,-127.987 196.737,-127.439"/>
<polygon fill="#63b8ff" stroke="#63b8ff" points="477.373,-172.003 487.735,-169.794 478.256,-165.059 477.373,-172.003"/>
</a>
</g>
</g>
<!-- Node16 -->
<g id="Node000016" class="node"><title>Node16</title>
<g id="a_Node000016"><a xlink:href="heap__sort__with__iterators_8h.html" target="_top" xlink:title="Deklarace API výkonnější metody třídění (Heap sort), využívající iterátorové API pro přístup k uzlům ...">
<polygon fill="white" stroke="#666666" points="346,-129 215,-129 215,-110 346,-110 346,-129"/>
<text text-anchor="middle" x="280.5" y="-117" font-family="Helvetica,sans-Serif" font-size="10.00">heap_sort_with_iterators.h</text>
</a>
</g>
</g>
<!-- Node1&#45;&gt;Node16 -->
<g id="edge18_Node000001_Node000016" class="edge"><title>Node1&#45;&gt;Node16</title>
<g id="a_edge18_Node000001_Node000016"><a xlink:title=" ">
<path fill="none" stroke="#63b8ff" d="M478.136,-164.697C433.858,-154.795 362.429,-138.822 318.653,-129.032"/>
<polygon fill="#63b8ff" stroke="#63b8ff" points="477.44,-168.128 487.963,-166.895 478.968,-161.297 477.44,-168.128"/>
</a>
</g>
</g>
<!-- Node17 -->
<g id="Node000017" class="node"><title>Node17</title>
<g id="a_Node000017"><a xlink:href="merge__sort_8h.html" target="_top" xlink:title="Deklarace API výkonnější metody třídění slučováním (Merge sort), využívající rekurzi.">
<polygon fill="white" stroke="#666666" points="438.5,-129 364.5,-129 364.5,-110 438.5,-110 438.5,-129"/>
<text text-anchor="middle" x="401.5" y="-117" font-family="Helvetica,sans-Serif" font-size="10.00">merge_sort.h</text>
</a>
</g>
</g>
<!-- Node1&#45;&gt;Node17 -->
<g id="edge21_Node000001_Node000017" class="edge"><title>Node1&#45;&gt;Node17</title>
<g id="a_edge21_Node000001_Node000017"><a xlink:title=" ">
<path fill="none" stroke="#63b8ff" d="M489.628,-160.765C468.231,-150.989 439.261,-137.753 420.477,-129.17"/>
<polygon fill="#63b8ff" stroke="#63b8ff" points="488.312,-164.012 498.863,-164.985 491.222,-157.645 488.312,-164.012"/>
</a>
</g>
</g>
<!-- Node19 -->
<g id="Node000019" class="node"><title>Node19</title>
<g id="a_Node000019"><a xlink:href="merge__sort__with__span_8h.html" target="_top" xlink:title="Deklarace API výkonnější metody třídění slučováním (Merge sort), využívající rekurzi a datový typ Spa...">
<polygon fill="white" stroke="#666666" points="578.5,-129 456.5,-129 456.5,-110 578.5,-110 578.5,-129"/>
<text text-anchor="middle" x="517.5" y="-117" font-family="Helvetica,sans-Serif" font-size="10.00">merge_sort_with_span.h</text>
</a>
</g>
</g>
<!-- Node1&#45;&gt;Node19 -->
<g id="edge24_Node000001_Node000019" class="edge"><title>Node1&#45;&gt;Node19</title>
<g id="a_edge24_Node000001_Node000019"><a xlink:title=" ">
<path fill="none" stroke="#63b8ff" d="M517.5,-154.66C517.5,-145.93 517.5,-135.988 517.5,-129.089"/>
<polygon fill="#63b8ff" stroke="#63b8ff" points="514,-154.748 517.5,-164.748 521,-154.748 514,-154.748"/>
</a>
</g>
</g>
<!-- Node3 -->
<g id="Node000003" class="node"><title>Node3</title>
<g id="a_Node000003"><a xlink:href="_t_heap_8c.html" target="_top" xlink:title="Implementace API typu Heap pro přístup k elementům vektoru jako k uzlům haldy (Sortable Vector with s...">
<polygon fill="white" stroke="#666666" points="53,-74 0,-74 0,-55 53,-55 53,-74"/>
<text text-anchor="middle" x="26.5" y="-62" font-family="Helvetica,sans-Serif" font-size="10.00">THeap.c</text>
</a>
</g>
</g>
<!-- Node2&#45;&gt;Node3 -->
<g id="edge2_Node000002_Node000003" class="edge"><title>Node2&#45;&gt;Node3</title>
<g id="a_edge2_Node000002_Node000003"><a xlink:title=" ">
<path fill="none" stroke="#63b8ff" d="M66.8785,-103.045C56.766,-93.6421 44.2234,-81.9797 35.8247,-74.1703"/>
<polygon fill="#63b8ff" stroke="#63b8ff" points="64.6353,-105.738 74.342,-109.985 69.4019,-100.612 64.6353,-105.738"/>
</a>
</g>
</g>
<!-- Node4 -->
<g id="Node000004" class="node"><title>Node4</title>
<g id="a_Node000004"><a xlink:href="heap__sort_8c.html" target="_top" xlink:title="Implementace API výkonnější metody třídění (Heap sort), využívající poziční API pro přístup k uzlům h...">
<polygon fill="white" stroke="#666666" points="139.5,-74 71.5,-74 71.5,-55 139.5,-55 139.5,-74"/>
<text text-anchor="middle" x="105.5" y="-62" font-family="Helvetica,sans-Serif" font-size="10.00">heap_sort.c</text>
</a>
</g>
</g>
<!-- Node2&#45;&gt;Node4 -->
<g id="edge3_Node000002_Node000004" class="edge"><title>Node2&#45;&gt;Node4</title>
<g id="a_edge3_Node000002_Node000004"><a xlink:title=" ">
<path fill="none" stroke="#63b8ff" d="M91.0796,-100.24C94.7599,-91.3738 99.0075,-81.1409 101.935,-74.089"/>
<polygon fill="#63b8ff" stroke="#63b8ff" points="87.7341,-99.1704 87.1329,-109.748 94.1993,-101.854 87.7341,-99.1704"/>
</a>
</g>
</g>
<!-- Node5 -->
<g id="Node000005" class="node"><title>Node5</title>
<g id="a_Node000005"><a xlink:href="heap__sort__with__iterators_8c.html" target="_top" xlink:title="Implementace API výkonnější metody třídění (Heap sort), využívající iterátorové API pro přístup k uzl...">
<polygon fill="white" stroke="#666666" points="289,-74 158,-74 158,-55 289,-55 289,-74"/>
<text text-anchor="middle" x="223.5" y="-62" font-family="Helvetica,sans-Serif" font-size="10.00">heap_sort_with_iterators.c</text>
</a>
</g>
</g>
<!-- Node2&#45;&gt;Node5 -->
<g id="edge4_Node000002_Node000005" class="edge"><title>Node2&#45;&gt;Node5</title>
<g id="a_edge4_Node000002_Node000005"><a xlink:title=" ">
<path fill="none" stroke="#63b8ff" d="M115.408,-106.421C141.381,-96.5878 177.416,-82.9462 200.597,-74.1703"/>
<polygon fill="#63b8ff" stroke="#63b8ff" points="114.106,-103.171 105.993,-109.985 116.585,-109.717 114.106,-103.171"/>
</a>
</g>
</g>
<!-- Node7 -->
<g id="Node000007" class="node"><title>Node7</title>
<g id="a_Node000007"><a xlink:href="merge__sort__with__span_8c.html" target="_top" xlink:title="Implementace API výkonnější metody třídění slučováním (Merge sort), využívající rekurzi a datový typ ...">
<polygon fill="white" stroke="#666666" points="626.5,-74 504.5,-74 504.5,-55 626.5,-55 626.5,-74"/>
<text text-anchor="middle" x="565.5" y="-62" font-family="Helvetica,sans-Serif" font-size="10.00">merge_sort_with_span.c</text>
</a>
</g>
</g>
<!-- Node6&#45;&gt;Node7 -->
<g id="edge6_Node000006_Node000007" class="edge"><title>Node6&#45;&gt;Node7</title>
<g id="a_edge6_Node000006_Node000007"><a xlink:title=" ">
<path fill="none" stroke="#63b8ff" d="M606.587,-103.045C596.297,-93.6421 583.534,-81.9797 574.988,-74.1703"/>
<polygon fill="#63b8ff" stroke="#63b8ff" points="604.438,-105.823 614.181,-109.985 609.16,-100.655 604.438,-105.823"/>
</a>
</g>
</g>
<!-- Node10 -->
<g id="Node000010" class="node"><title>Node10</title>
<g id="a_Node000010"><a xlink:href="advanced__sorts_8c.html" target="_top" xlink:title="Implementace API účinnějších metod třídění">
<polygon fill="white" stroke="#666666" points="906.5,-74 814.5,-74 814.5,-55 906.5,-55 906.5,-74"/>
<text text-anchor="middle" x="860.5" y="-62" font-family="Helvetica,sans-Serif" font-size="10.00">advanced_sorts.c</text>
</a>
</g>
</g>
<!-- Node9&#45;&gt;Node10 -->
<g id="edge9_Node000009_Node000010" class="edge"><title>Node9&#45;&gt;Node10</title>
<g id="a_edge9_Node000009_Node000010"><a xlink:title=" ">
<path fill="none" stroke="#63b8ff" d="M823.481,-102.519C832.822,-93.1775 844.246,-81.7541 851.911,-74.089"/>
<polygon fill="#63b8ff" stroke="#63b8ff" points="820.848,-100.202 816.252,-109.748 825.798,-105.152 820.848,-100.202"/>
</a>
</g>
</g>
<!-- Node11 -->
<g id="Node000011" class="node"><title>Node11</title>
<g id="a_Node000011"><a xlink:href="main_8c.html" target="_top" xlink:title="Hlavní program testující API výkonnějších metod třídění">
<polygon fill="white" stroke="#666666" points="771.5,-19 725.5,-19 725.5,-0 771.5,-0 771.5,-19"/>
<text text-anchor="middle" x="748.5" y="-7" font-family="Helvetica,sans-Serif" font-size="10.00">main.c</text>
</a>
</g>
</g>
<!-- Node9&#45;&gt;Node11 -->
<g id="edge10_Node000009_Node000011" class="edge"><title>Node9&#45;&gt;Node11</title>
<g id="a_edge10_Node000009_Node000011"><a xlink:title=" ">
<path fill="none" stroke="#63b8ff" d="M797.807,-100.757C784.982,-77.2813 762.875,-36.8133 753.23,-19.1584"/>
<polygon fill="#63b8ff" stroke="#63b8ff" points="794.806,-102.564 802.672,-109.662 800.949,-99.2081 794.806,-102.564"/>
</a>
</g>
</g>
<!-- Node12&#45;&gt;Node11 -->
<g id="edge13_Node000012_Node000011" class="edge"><title>Node12&#45;&gt;Node11</title>
<g id="a_edge13_Node000012_Node000011"><a xlink:title=" ">
<path fill="none" stroke="#63b8ff" d="M715.42,-101.021C719.768,-92.9495 724.729,-83.1455 728.5,-74 736.342,-54.9798 742.948,-31.7099 746.245,-19.2955"/>
<polygon fill="#63b8ff" stroke="#63b8ff" points="712.315,-99.4019 710.54,-109.847 718.441,-102.789 712.315,-99.4019"/>
</a>
</g>
</g>
<!-- Node13 -->
<g id="Node000013" class="node"><title>Node13</title>
<g id="a_Node000013"><a xlink:href="basic__sorts_8c.html" target="_top" xlink:title="Implementace API přímých metod třídění">
<polygon fill="white" stroke="#666666" points="720,-74 645,-74 645,-55 720,-55 720,-74"/>
<text text-anchor="middle" x="682.5" y="-62" font-family="Helvetica,sans-Serif" font-size="10.00">basic_sorts.c</text>
</a>
</g>
</g>
<!-- Node12&#45;&gt;Node13 -->
<g id="edge12_Node000012_Node000013" class="edge"><title>Node12&#45;&gt;Node13</title>
<g id="a_edge12_Node000012_Node000013"><a xlink:title=" ">
<path fill="none" stroke="#63b8ff" d="M697.701,-100.529C693.825,-91.5967 689.321,-81.2176 686.227,-74.089"/>
<polygon fill="#63b8ff" stroke="#63b8ff" points="694.51,-101.968 701.702,-109.748 700.932,-99.1813 694.51,-101.968"/>
</a>
</g>
</g>
<!-- Node14&#45;&gt;Node4 -->
<g id="edge15_Node000014_Node000004" class="edge"><title>Node14&#45;&gt;Node4</title>
<g id="a_edge15_Node000014_Node000004"><a xlink:title=" ">
<path fill="none" stroke="#63b8ff" d="M145.879,-103.045C135.766,-93.6421 123.223,-81.9797 114.825,-74.1703"/>
<polygon fill="#63b8ff" stroke="#63b8ff" points="143.635,-105.738 153.342,-109.985 148.402,-100.612 143.635,-105.738"/>
</a>
</g>
</g>
<!-- Node15 -->
<g id="Node000015" class="node"><title>Node15</title>
<g id="a_Node000015"><a xlink:href="powerful__sorts_8h.html" target="_top" xlink:title="Deklarace API výkonnějších metod třídění">
<polygon fill="white" stroke="#666666" points="394,-74 307,-74 307,-55 394,-55 394,-74"/>
<text text-anchor="middle" x="350.5" y="-62" font-family="Helvetica,sans-Serif" font-size="10.00">powerful_sorts.h</text>
</a>
</g>
</g>
<!-- Node14&#45;&gt;Node15 -->
<g id="edge16_Node000014_Node000015" class="edge"><title>Node14&#45;&gt;Node15</title>
<g id="a_edge16_Node000014_Node000015"><a xlink:title=" ">
<path fill="none" stroke="#63b8ff" d="M202.641,-107.184C237.8,-97.2718 288.13,-83.083 320.058,-74.0821"/>
<polygon fill="#63b8ff" stroke="#63b8ff" points="201.381,-103.902 192.705,-109.985 203.28,-110.64 201.381,-103.902"/>
</a>
</g>
</g>
<!-- Node15&#45;&gt;Node11 -->
<g id="edge17_Node000015_Node000011" class="edge"><title>Node15&#45;&gt;Node11</title>
<g id="a_edge17_Node000015_Node000011"><a xlink:title=" ">
<path fill="none" stroke="#63b8ff" d="M404.115,-54.9527C531.861,-36.6034 671.366,-19.6707 725.453,-13.2244"/>
<polygon fill="#63b8ff" stroke="#63b8ff" points="403.554,-51.4972 394.157,-56.3895 404.554,-58.4255 403.554,-51.4972"/>
</a>
</g>
</g>
<!-- Node16&#45;&gt;Node5 -->
<g id="edge19_Node000016_Node000005" class="edge"><title>Node16&#45;&gt;Node5</title>
<g id="a_edge19_Node000016_Node000005"><a xlink:title=" ">
<path fill="none" stroke="#63b8ff" d="M263.879,-103.045C253.766,-93.6421 241.223,-81.9797 232.825,-74.1703"/>
<polygon fill="#63b8ff" stroke="#63b8ff" points="261.635,-105.738 271.342,-109.985 266.402,-100.612 261.635,-105.738"/>
</a>
</g>
</g>
<!-- Node16&#45;&gt;Node15 -->
<g id="edge20_Node000016_Node000015" class="edge"><title>Node16&#45;&gt;Node15</title>
<g id="a_edge20_Node000016_Node000015"><a xlink:title=" ">
<path fill="none" stroke="#63b8ff" d="M299.814,-103.877C312.412,-94.3383 328.428,-82.2116 339.049,-74.1703"/>
<polygon fill="#63b8ff" stroke="#63b8ff" points="297.607,-101.158 291.747,-109.985 301.832,-106.739 297.607,-101.158"/>
</a>
</g>
</g>
<!-- Node17&#45;&gt;Node15 -->
<g id="edge23_Node000017_Node000015" class="edge"><title>Node17&#45;&gt;Node15</title>
<g id="a_edge23_Node000017_Node000015"><a xlink:title=" ">
<path fill="none" stroke="#63b8ff" d="M386.122,-102.519C377.133,-93.1775 366.141,-81.7541 358.765,-74.089"/>
<polygon fill="#63b8ff" stroke="#63b8ff" points="383.623,-104.969 393.078,-109.748 388.667,-100.116 383.623,-104.969"/>
</a>
</g>
</g>
<!-- Node18 -->
<g id="Node000018" class="node"><title>Node18</title>
<g id="a_Node000018"><a xlink:href="merge__sort_8c.html" target="_top" xlink:title="Implementace API výkonnější metody třídění slučováním (Merge sort), využívající rekurzi.">
<polygon fill="white" stroke="#666666" points="486.5,-74 412.5,-74 412.5,-55 486.5,-55 486.5,-74"/>
<text text-anchor="middle" x="449.5" y="-62" font-family="Helvetica,sans-Serif" font-size="10.00">merge_sort.c</text>
</a>
</g>
</g>
<!-- Node17&#45;&gt;Node18 -->
<g id="edge22_Node000017_Node000018" class="edge"><title>Node17&#45;&gt;Node18</title>
<g id="a_edge22_Node000017_Node000018"><a xlink:title=" ">
<path fill="none" stroke="#63b8ff" d="M416.228,-102.238C424.64,-92.9494 434.849,-81.6775 441.721,-74.089"/>
<polygon fill="#63b8ff" stroke="#63b8ff" points="413.545,-99.9866 409.426,-109.748 418.733,-104.686 413.545,-99.9866"/>
</a>
</g>
</g>
<!-- Node19&#45;&gt;Node7 -->
<g id="edge25_Node000019_Node000007" class="edge"><title>Node19&#45;&gt;Node7</title>
<g id="a_edge25_Node000019_Node000007"><a xlink:title=" ">
<path fill="none" stroke="#63b8ff" d="M532.228,-102.238C540.64,-92.9494 550.849,-81.6775 557.721,-74.089"/>
<polygon fill="#63b8ff" stroke="#63b8ff" points="529.545,-99.9866 525.426,-109.748 534.733,-104.686 529.545,-99.9866"/>
</a>
</g>
</g>
<!-- Node19&#45;&gt;Node15 -->
<g id="edge26_Node000019_Node000015" class="edge"><title>Node19&#45;&gt;Node15</title>
<g id="a_edge26_Node000019_Node000015"><a xlink:title=" ">
<path fill="none" stroke="#63b8ff" d="M481.035,-106.927C449.845,-97.0286 405.66,-83.0057 377.542,-74.0821"/>
<polygon fill="#63b8ff" stroke="#63b8ff" points="480.078,-110.296 490.669,-109.985 482.196,-103.624 480.078,-110.296"/>
</a>
</g>
</g>
</g>
</svg>
