<?xml version="1.0" encoding="UTF-8" standalone="no"?>
<!DOCTYPE svg PUBLIC "-//W3C//DTD SVG 1.1//EN"
 "http://www.w3.org/Graphics/SVG/1.1/DTD/svg11.dtd">
<!-- Generated by graphviz version 2.38.0 (20140413.2041)
 -->
<!-- Title: vector_fast_compare_positions Pages: 1 -->
<svg width="918pt" height="362pt"
 viewBox="0.00 0.00 918.00 362.00" xmlns="http://www.w3.org/2000/svg" xmlns:xlink="http://www.w3.org/1999/xlink">
<g id="graph0" class="graph" transform="scale(1 1) rotate(0) translate(4 358)">
<title>vector_fast_compare_positions</title>
<!-- Node1 -->
<g id="Node000001" class="node"><title>Node1</title>
<g id="a_Node000001"><a xlink:title=" ">
<polygon fill="#999999" stroke="#666666" points="910,-135.5 804,-135.5 804,-105.5 910,-105.5 910,-135.5"/>
<text text-anchor="start" x="812" y="-123.5" font-family="Helvetica,sans-Serif" font-size="10.00">vector_fast_compare</text>
<text text-anchor="middle" x="857" y="-112.5" font-family="Helvetica,sans-Serif" font-size="10.00">_positions</text>
</a>
</g>
</g>
<!-- Node2 -->
<g id="Node000002" class="node"><title>Node2</title>
<g id="a_Node000002"><a xlink:href="group__sortable___t_vector.html#gaedaf9c79afa345e5e71e5c66ab25fa26" target="_top" xlink:title="Porovnání hodnot elementů vektorů">
<polygon fill="white" stroke="#666666" points="768,-205 639,-205 639,-186 768,-186 768,-205"/>
<text text-anchor="middle" x="703.5" y="-193" font-family="Helvetica,sans-Serif" font-size="10.00">vector_compare_positions</text>
</a>
</g>
</g>
<!-- Node1&#45;&gt;Node2 -->
<g id="edge1_Node000001_Node000002" class="edge"><title>Node1&#45;&gt;Node2</title>
<g id="a_edge1_Node000001_Node000002"><a xlink:title=" ">
<path fill="none" stroke="#63b8ff" d="M816.076,-140.264C786.409,-154.951 747.215,-174.354 724.049,-185.822"/>
<polygon fill="#63b8ff" stroke="#63b8ff" points="817.933,-143.251 825.342,-135.677 814.827,-136.977 817.933,-143.251"/>
</a>
</g>
</g>
<!-- Node20 -->
<g id="Node000020" class="node"><title>Node20</title>
<g id="a_Node000020"><a xlink:href="group__sortable___t_vector_iterator.html#gadd8aded92ce2c6402742a57316412d39" target="_top" xlink:title="Porovnání hodnot elementů vektorů určených dvěma iterátory.">
<polygon fill="white" stroke="#666666" points="757,-61.5 650,-61.5 650,-31.5 757,-31.5 757,-61.5"/>
<text text-anchor="start" x="658" y="-49.5" font-family="Helvetica,sans-Serif" font-size="10.00">vector_compare_with</text>
<text text-anchor="middle" x="703.5" y="-38.5" font-family="Helvetica,sans-Serif" font-size="10.00">_iterators</text>
</a>
</g>
</g>
<!-- Node1&#45;&gt;Node20 -->
<g id="edge24_Node000001_Node000020" class="edge"><title>Node1&#45;&gt;Node20</title>
<g id="a_edge24_Node000001_Node000020"><a xlink:title=" ">
<path fill="none" stroke="#63b8ff" d="M815.665,-100.799C790.421,-88.4682 758.406,-72.8304 735.223,-61.5067"/>
<polygon fill="#63b8ff" stroke="#63b8ff" points="814.455,-104.102 824.976,-105.346 817.527,-97.8126 814.455,-104.102"/>
</a>
</g>
</g>
<!-- Node3 -->
<g id="Node000003" class="node"><title>Node3</title>
<g id="a_Node000003"><a xlink:href="group___basic_sorts.html#gaa1ef093f5205f293df8303ac228452fc" target="_top" xlink:title="Třídění přímou výměnou (Bubble Sort)">
<polygon fill="white" stroke="#666666" points="565,-354 498,-354 498,-335 565,-335 565,-354"/>
<text text-anchor="middle" x="531.5" y="-342" font-family="Helvetica,sans-Serif" font-size="10.00">bubble_sort</text>
</a>
</g>
</g>
<!-- Node2&#45;&gt;Node3 -->
<g id="edge2_Node000002_Node000003" class="edge"><title>Node2&#45;&gt;Node3</title>
<g id="a_edge2_Node000002_Node000003"><a xlink:title=" ">
<path fill="none" stroke="#63b8ff" d="M693.559,-214.157C678.818,-242.859 646.646,-297.554 603,-326.5 591.841,-333.901 577.836,-338.259 565.255,-340.825"/>
<polygon fill="#63b8ff" stroke="#63b8ff" points="696.708,-215.684 698.036,-205.173 690.443,-212.562 696.708,-215.684"/>
</a>
</g>
</g>
<!-- Node4 -->
<g id="Node000004" class="node"><title>Node4</title>
<g id="a_Node000004"><a xlink:href="group___basic_sorts.html#ga62a36eb31bf0a873f7c027e145843b1a" target="_top" xlink:title="Třídění přímou výměnou včetně optimalizace s pomocným příznakem ukončení třídění (Bubble Sort Optimiz...">
<polygon fill="white" stroke="#666666" points="588.5,-317 474.5,-317 474.5,-298 588.5,-298 588.5,-317"/>
<text text-anchor="middle" x="531.5" y="-305" font-family="Helvetica,sans-Serif" font-size="10.00">bubble_sort_optimized</text>
</a>
</g>
</g>
<!-- Node2&#45;&gt;Node4 -->
<g id="edge3_Node000002_Node000004" class="edge"><title>Node2&#45;&gt;Node4</title>
<g id="a_edge3_Node000002_Node000004"><a xlink:title=" ">
<path fill="none" stroke="#63b8ff" d="M688.768,-213.079C671.178,-234.379 638.674,-269.85 603,-289.5 596.804,-292.913 589.945,-295.694 583.01,-297.957"/>
<polygon fill="#63b8ff" stroke="#63b8ff" points="691.602,-215.14 695.158,-205.16 686.154,-210.744 691.602,-215.14"/>
</a>
</g>
</g>
<!-- Node5 -->
<g id="Node000005" class="node"><title>Node5</title>
<g id="a_Node000005"><a xlink:href="group___basic_sorts.html#gaba41a68f00241f38f7864b4e1dacd086" target="_top" xlink:title="Třídění přímou výměnou včetně optimalizace s výpočtem indexu poslední změny (Bubble Sort Optimized2)">
<polygon fill="white" stroke="#666666" points="591,-280 472,-280 472,-261 591,-261 591,-280"/>
<text text-anchor="middle" x="531.5" y="-268" font-family="Helvetica,sans-Serif" font-size="10.00">bubble_sort_optimized2</text>
</a>
</g>
</g>
<!-- Node2&#45;&gt;Node5 -->
<g id="edge4_Node000002_Node000005" class="edge"><title>Node2&#45;&gt;Node5</title>
<g id="a_edge4_Node000002_Node000005"><a xlink:title=" ">
<path fill="none" stroke="#63b8ff" d="M680.104,-210.683C660.5,-223.388 630.873,-241.202 603,-252.5 594.922,-255.774 586.077,-258.591 577.465,-260.959"/>
<polygon fill="#63b8ff" stroke="#63b8ff" points="682.19,-213.5 688.617,-205.078 678.34,-207.654 682.19,-213.5"/>
</a>
</g>
</g>
<!-- Node6 -->
<g id="Node000006" class="node"><title>Node6</title>
<g id="a_Node000006"><a xlink:href="group___t_heap.html#gad5c7d7699f71a4c30740204aba84f100" target="_top" xlink:title="Porovnání hodnot uzlů haldy.">
<polygon fill="white" stroke="#666666" points="594,-243 469,-243 469,-224 594,-224 594,-243"/>
<text text-anchor="middle" x="531.5" y="-231" font-family="Helvetica,sans-Serif" font-size="10.00">heap_compare_positions</text>
</a>
</g>
</g>
<!-- Node2&#45;&gt;Node6 -->
<g id="edge5_Node000002_Node000006" class="edge"><title>Node2&#45;&gt;Node6</title>
<g id="a_edge5_Node000002_Node000006"><a xlink:title=" ">
<path fill="none" stroke="#63b8ff" d="M649.602,-207.324C625.635,-212.682 597.676,-218.931 575.09,-223.98"/>
<polygon fill="#63b8ff" stroke="#63b8ff" points="650.606,-210.686 659.602,-205.089 649.079,-203.855 650.606,-210.686"/>
</a>
</g>
</g>
<!-- Node11 -->
<g id="Node000011" class="node"><title>Node11</title>
<g id="a_Node000011"><a xlink:href="merge__sort_8c.html#a662181aab782eefc61f71886c9aa21ab" target="_top" xlink:title="Vnitřní a lokální funkce realizující sloučení dvou již setříděných rozsahů z vektoru aFromVector do v...">
<polygon fill="white" stroke="#666666" points="419.5,-187 371.5,-187 371.5,-168 419.5,-168 419.5,-187"/>
<text text-anchor="middle" x="395.5" y="-175" font-family="Helvetica,sans-Serif" font-size="10.00">mergify</text>
</a>
</g>
</g>
<!-- Node2&#45;&gt;Node11 -->
<g id="edge11_Node000002_Node000011" class="edge"><title>Node2&#45;&gt;Node11</title>
<g id="a_edge11_Node000002_Node000011"><a xlink:title=" ">
<path fill="none" stroke="#63b8ff" d="M628.469,-191.145C560.321,-187.137 463.379,-181.434 419.569,-178.857"/>
<polygon fill="#63b8ff" stroke="#63b8ff" points="628.537,-194.655 638.725,-191.749 628.948,-187.667 628.537,-194.655"/>
</a>
</g>
</g>
<!-- Node14 -->
<g id="Node000014" class="node"><title>Node14</title>
<g id="a_Node000014"><a xlink:href="group___basic_sorts.html#ga3688a58781905ac2e518285b8bb711ec" target="_top" xlink:title="Třídění přímým výběrem (Select Sort)">
<polygon fill="white" stroke="#666666" points="564,-167 499,-167 499,-148 564,-148 564,-167"/>
<text text-anchor="middle" x="531.5" y="-155" font-family="Helvetica,sans-Serif" font-size="10.00">select_sort</text>
</a>
</g>
</g>
<!-- Node2&#45;&gt;Node14 -->
<g id="edge16_Node000002_Node000014" class="edge"><title>Node2&#45;&gt;Node14</title>
<g id="a_edge16_Node000002_Node000014"><a xlink:title=" ">
<path fill="none" stroke="#63b8ff" d="M649.553,-183.665C621.534,-177.402 588.071,-169.922 564.115,-164.567"/>
<polygon fill="#63b8ff" stroke="#63b8ff" points="649.079,-187.145 659.602,-185.911 650.606,-180.314 649.079,-187.145"/>
</a>
</g>
</g>
<!-- Node15 -->
<g id="Node000015" class="node"><title>Node15</title>
<g id="a_Node000015"><a xlink:href="group___basic_sorts.html#gaacee5d609500566a6ad1724486ab8bb2" target="_top" xlink:title="Třídění přímou výměnou se změnou postupu třídění (Shaker Sort)">
<polygon fill="white" stroke="#666666" points="565.5,-130 497.5,-130 497.5,-111 565.5,-111 565.5,-130"/>
<text text-anchor="middle" x="531.5" y="-118" font-family="Helvetica,sans-Serif" font-size="10.00">shaker_sort</text>
</a>
</g>
</g>
<!-- Node2&#45;&gt;Node15 -->
<g id="edge17_Node000002_Node000015" class="edge"><title>Node2&#45;&gt;Node15</title>
<g id="a_edge17_Node000002_Node000015"><a xlink:title=" ">
<path fill="none" stroke="#63b8ff" d="M680.104,-180.317C660.5,-167.612 630.873,-149.798 603,-138.5 591.176,-133.707 577.708,-129.894 565.734,-127.034"/>
<polygon fill="#63b8ff" stroke="#63b8ff" points="678.34,-183.346 688.617,-185.922 682.19,-177.5 678.34,-183.346"/>
</a>
</g>
</g>
<!-- Node16 -->
<g id="Node000016" class="node"><title>Node16</title>
<g id="a_Node000016"><a xlink:href="group___t_span.html#gaffd3a758138012dac875ceda42a975db" target="_top" xlink:title="Porovnání hodnot elementů Spanů">
<polygon fill="white" stroke="#666666" points="594,-93 469,-93 469,-74 594,-74 594,-93"/>
<text text-anchor="middle" x="531.5" y="-81" font-family="Helvetica,sans-Serif" font-size="10.00">span_compare_positions</text>
</a>
</g>
</g>
<!-- Node2&#45;&gt;Node16 -->
<g id="edge18_Node000002_Node000016" class="edge"><title>Node2&#45;&gt;Node16</title>
<g id="a_edge18_Node000002_Node000016"><a xlink:title=" ">
<path fill="none" stroke="#63b8ff" d="M688.768,-177.921C671.178,-156.621 638.674,-121.15 603,-101.5 596.804,-98.0869 589.945,-95.3058 583.01,-93.0433"/>
<polygon fill="#63b8ff" stroke="#63b8ff" points="686.154,-180.256 695.158,-185.84 691.602,-175.86 686.154,-180.256"/>
</a>
</g>
</g>
<!-- Node7 -->
<g id="Node000007" class="node"><title>Node7</title>
<g id="a_Node000007"><a xlink:href="heap__sort_8c.html#a1572325ec24b4714bb9bbd64229d85d0" target="_top" xlink:title="Vnitřní a lokální funkce zajišťující vložení hodnoty do zvoleného uzlu haldy, při zachování podmínek ...">
<polygon fill="white" stroke="#666666" points="424,-243 367,-243 367,-224 424,-224 424,-243"/>
<text text-anchor="middle" x="395.5" y="-231" font-family="Helvetica,sans-Serif" font-size="10.00">sift_down</text>
</a>
</g>
</g>
<!-- Node6&#45;&gt;Node7 -->
<g id="edge6_Node000006_Node000007" class="edge"><title>Node6&#45;&gt;Node7</title>
<g id="a_edge6_Node000006_Node000007"><a xlink:title=" ">
<path fill="none" stroke="#63b8ff" d="M458.675,-233.5C446.411,-233.5 434.364,-233.5 424.189,-233.5"/>
<polygon fill="#63b8ff" stroke="#63b8ff" points="458.991,-237 468.991,-233.5 458.991,-230 458.991,-237"/>
</a>
</g>
</g>
<!-- Node8 -->
<g id="Node000008" class="node"><title>Node8</title>
<g id="a_Node000008"><a xlink:href="group___powerful_sorts.html#gaf564949cc194e5feea63d6c2aaa3125a" target="_top" xlink:title="Třídění pomocí haldy (Heap Sort) využívající poziční API pro přístup k elementům vektoru.">
<polygon fill="white" stroke="#666666" points="164.5,-224 105.5,-224 105.5,-205 164.5,-205 164.5,-224"/>
<text text-anchor="middle" x="135" y="-212" font-family="Helvetica,sans-Serif" font-size="10.00">heap_sort</text>
</a>
</g>
</g>
<!-- Node7&#45;&gt;Node8 -->
<g id="edge7_Node000007_Node000008" class="edge"><title>Node7&#45;&gt;Node8</title>
<g id="a_edge7_Node000007_Node000008"><a xlink:title=" ">
<path fill="none" stroke="#63b8ff" d="M356.699,-235.582C323.7,-236.903 274.563,-237.672 232,-233.5 209.173,-231.263 183.725,-226.101 164.767,-221.722"/>
<polygon fill="#63b8ff" stroke="#63b8ff" points="356.98,-239.073 366.817,-235.139 356.674,-232.079 356.98,-239.073"/>
</a>
</g>
</g>
<!-- Node10 -->
<g id="Node000010" class="node"><title>Node10</title>
<g id="a_Node000010"><a xlink:href="heap__sort_8c.html#aceaf0618c69440f1e439e224eb6945dc" target="_top" xlink:title="Vnitřní a lokální funkce realizující uspořádání elementů vektoru do haldy.">
<polygon fill="white" stroke="#666666" points="305,-224 258,-224 258,-205 305,-205 305,-224"/>
<text text-anchor="middle" x="281.5" y="-212" font-family="Helvetica,sans-Serif" font-size="10.00">heapify</text>
</a>
</g>
</g>
<!-- Node7&#45;&gt;Node10 -->
<g id="edge9_Node000007_Node000010" class="edge"><title>Node7&#45;&gt;Node10</title>
<g id="a_edge9_Node000007_Node000010"><a xlink:title=" ">
<path fill="none" stroke="#63b8ff" d="M356.608,-227.072C339.593,-224.185 320.078,-220.875 305.346,-218.376"/>
<polygon fill="#63b8ff" stroke="#63b8ff" points="356.37,-230.581 366.815,-228.803 357.541,-223.68 356.37,-230.581"/>
</a>
</g>
</g>
<!-- Node9 -->
<g id="Node000009" class="node"><title>Node9</title>
<g id="a_Node000009"><a xlink:href="group___main_program.html#ga0ddf1224851353fc92bfbff6f499fa97" target="_top" xlink:title=" ">
<polygon fill="white" stroke="#666666" points="38,-141 0,-141 0,-122 38,-122 38,-141"/>
<text text-anchor="middle" x="19" y="-129" font-family="Helvetica,sans-Serif" font-size="10.00">main</text>
</a>
</g>
</g>
<!-- Node8&#45;&gt;Node9 -->
<g id="edge8_Node000008_Node000009" class="edge"><title>Node8&#45;&gt;Node9</title>
<g id="a_edge8_Node000008_Node000009"><a xlink:title=" ">
<path fill="none" stroke="#63b8ff" d="M111.612,-199.133C100.268,-191.27 86.3221,-181.485 74,-172.5 59.5435,-161.958 43.2169,-149.481 32.3376,-141.082"/>
<polygon fill="#63b8ff" stroke="#63b8ff" points="109.853,-202.172 120.07,-204.975 113.831,-196.412 109.853,-202.172"/>
</a>
</g>
</g>
<!-- Node10&#45;&gt;Node8 -->
<g id="edge10_Node000010_Node000008" class="edge"><title>Node10&#45;&gt;Node8</title>
<g id="a_edge10_Node000010_Node000008"><a xlink:title=" ">
<path fill="none" stroke="#63b8ff" d="M247.812,-214.5C222.783,-214.5 188.595,-214.5 164.635,-214.5"/>
<polygon fill="#63b8ff" stroke="#63b8ff" points="247.922,-218 257.922,-214.5 247.922,-211 247.922,-218"/>
</a>
</g>
</g>
<!-- Node12 -->
<g id="Node000012" class="node"><title>Node12</title>
<g id="a_Node000012"><a xlink:href="merge__sort_8c.html#a41bfb4129631a73ffc60c10381af80c2" target="_top" xlink:title="Vnitřní a lokální funkce realizující rekurzivní funkci pro metodu (Merge Sort)">
<polygon fill="white" stroke="#666666" points="331,-169 232,-169 232,-150 331,-150 331,-169"/>
<text text-anchor="middle" x="281.5" y="-157" font-family="Helvetica,sans-Serif" font-size="10.00">merge_sort_worker</text>
</a>
</g>
</g>
<!-- Node11&#45;&gt;Node12 -->
<g id="edge12_Node000011_Node000012" class="edge"><title>Node11&#45;&gt;Node12</title>
<g id="a_edge12_Node000011_Node000012"><a xlink:title=" ">
<path fill="none" stroke="#63b8ff" d="M361.143,-172.139C351.7,-170.621 341.223,-168.938 331.078,-167.307"/>
<polygon fill="#63b8ff" stroke="#63b8ff" points="360.865,-175.639 371.294,-173.77 361.976,-168.728 360.865,-175.639"/>
</a>
</g>
</g>
<!-- Node12&#45;&gt;Node12 -->
<g id="edge15_Node000012_Node000012" class="edge"><title>Node12&#45;&gt;Node12</title>
<g id="a_edge15_Node000012_Node000012"><a xlink:title=" ">
<path fill="none" stroke="#63b8ff" d="M302.61,-178.554C301.2,-183.38 294.164,-187 281.5,-187 261.238,-187 255.381,-177.734 263.929,-169.083"/>
<polygon fill="#63b8ff" stroke="#63b8ff" points="305.85,-177.225 299.071,-169.083 299.293,-179.675 305.85,-177.225"/>
</a>
</g>
</g>
<!-- Node13 -->
<g id="Node000013" class="node"><title>Node13</title>
<g id="a_Node000013"><a xlink:href="group___powerful_sorts.html#gaca54b9dda831aa79008867770c96413e" target="_top" xlink:title="Třídění pomocí metody slučováním (Merge sort) využívající rekurzivní rozklad.">
<polygon fill="white" stroke="#666666" points="167.5,-164 102.5,-164 102.5,-145 167.5,-145 167.5,-164"/>
<text text-anchor="middle" x="135" y="-152" font-family="Helvetica,sans-Serif" font-size="10.00">merge_sort</text>
</a>
</g>
</g>
<!-- Node12&#45;&gt;Node13 -->
<g id="edge13_Node000012_Node000013" class="edge"><title>Node12&#45;&gt;Node13</title>
<g id="a_edge13_Node000012_Node000013"><a xlink:title=" ">
<path fill="none" stroke="#63b8ff" d="M221.875,-157.471C203.395,-156.832 183.682,-156.15 167.81,-155.601"/>
<polygon fill="#63b8ff" stroke="#63b8ff" points="221.867,-160.973 231.982,-157.821 222.109,-153.977 221.867,-160.973"/>
</a>
</g>
</g>
<!-- Node13&#45;&gt;Node9 -->
<g id="edge14_Node000013_Node000009" class="edge"><title>Node13&#45;&gt;Node9</title>
<g id="a_edge14_Node000013_Node000009"><a xlink:title=" ">
<path fill="none" stroke="#63b8ff" d="M92.1961,-146.066C73.5763,-142.309 52.6227,-138.082 38.105,-135.153"/>
<polygon fill="#63b8ff" stroke="#63b8ff" points="91.7499,-149.546 102.245,-148.093 93.1344,-142.685 91.7499,-149.546"/>
</a>
</g>
</g>
<!-- Node17 -->
<g id="Node000017" class="node"><title>Node17</title>
<g id="a_Node000017"><a xlink:href="merge__sort__with__span_8c.html#a8c83f4f60393434eff082ca19f5f14ad" target="_top" xlink:title="Vnitřní a lokální funkce realizující sloučení dvou již setříděných rozsahů (Spanů)">
<polygon fill="white" stroke="#666666" points="419.5,-103 371.5,-103 371.5,-84 419.5,-84 419.5,-103"/>
<text text-anchor="middle" x="395.5" y="-91" font-family="Helvetica,sans-Serif" font-size="10.00">mergify</text>
</a>
</g>
</g>
<!-- Node16&#45;&gt;Node17 -->
<g id="edge19_Node000016_Node000017" class="edge"><title>Node16&#45;&gt;Node17</title>
<g id="a_edge19_Node000016_Node000017"><a xlink:title=" ">
<path fill="none" stroke="#63b8ff" d="M458.649,-88.862C444.466,-89.9204 430.575,-90.9571 419.535,-91.7809"/>
<polygon fill="#63b8ff" stroke="#63b8ff" points="459.279,-92.3248 468.991,-88.0903 458.758,-85.3442 459.279,-92.3248"/>
</a>
</g>
</g>
<!-- Node18 -->
<g id="Node000018" class="node"><title>Node18</title>
<g id="a_Node000018"><a xlink:href="merge__sort__with__span_8c.html#acfb719292b2ea89b714190280e0021b0" target="_top" xlink:title="Vnitřní a lokální funkce realizující rekurzivní funkci pro metodu (Merge Sort)">
<polygon fill="white" stroke="#666666" points="331,-114 232,-114 232,-95 331,-95 331,-114"/>
<text text-anchor="middle" x="281.5" y="-102" font-family="Helvetica,sans-Serif" font-size="10.00">merge_sort_worker</text>
</a>
</g>
</g>
<!-- Node17&#45;&gt;Node18 -->
<g id="edge20_Node000017_Node000018" class="edge"><title>Node17&#45;&gt;Node18</title>
<g id="a_edge20_Node000017_Node000018"><a xlink:title=" ">
<path fill="none" stroke="#63b8ff" d="M361.143,-96.7761C351.7,-97.7036 341.223,-98.7325 331.078,-99.729"/>
<polygon fill="#63b8ff" stroke="#63b8ff" points="361.684,-100.24 371.294,-95.7792 360.999,-93.2735 361.684,-100.24"/>
</a>
</g>
</g>
<!-- Node18&#45;&gt;Node18 -->
<g id="edge23_Node000018_Node000018" class="edge"><title>Node18&#45;&gt;Node18</title>
<g id="a_edge23_Node000018_Node000018"><a xlink:title=" ">
<path fill="none" stroke="#63b8ff" d="M302.61,-123.554C301.2,-128.38 294.164,-132 281.5,-132 261.238,-132 255.381,-122.734 263.929,-114.083"/>
<polygon fill="#63b8ff" stroke="#63b8ff" points="305.85,-122.225 299.071,-114.083 299.293,-124.675 305.85,-122.225"/>
</a>
</g>
</g>
<!-- Node19 -->
<g id="Node000019" class="node"><title>Node19</title>
<g id="a_Node000019"><a xlink:href="group___powerful_sorts.html#ga879a216389959b8a25490288ba4e63dc" target="_top" xlink:title="Třídění pomocí metody slučováním (Merge sort) využívající rekurzivní rozklad a datový typ span.">
<polygon fill="white" stroke="#666666" points="192,-118 78,-118 78,-99 192,-99 192,-118"/>
<text text-anchor="middle" x="135" y="-106" font-family="Helvetica,sans-Serif" font-size="10.00">merge_sort_with_span</text>
</a>
</g>
</g>
<!-- Node18&#45;&gt;Node19 -->
<g id="edge21_Node000018_Node000019" class="edge"><title>Node18&#45;&gt;Node19</title>
<g id="a_edge21_Node000018_Node000019"><a xlink:title=" ">
<path fill="none" stroke="#63b8ff" d="M221.898,-106.122C212.071,-106.394 201.893,-106.676 192.129,-106.946"/>
<polygon fill="#63b8ff" stroke="#63b8ff" points="222.082,-109.619 231.982,-105.843 221.889,-102.621 222.082,-109.619"/>
</a>
</g>
</g>
<!-- Node19&#45;&gt;Node9 -->
<g id="edge22_Node000019_Node000009" class="edge"><title>Node19&#45;&gt;Node9</title>
<g id="a_edge22_Node000019_Node000009"><a xlink:title=" ">
<path fill="none" stroke="#63b8ff" d="M76.5186,-120.097C62.5565,-122.914 48.6329,-125.723 38.0991,-127.848"/>
<polygon fill="#63b8ff" stroke="#63b8ff" points="77.5338,-123.463 86.6441,-118.054 76.1494,-116.601 77.5338,-123.463"/>
</a>
</g>
</g>
<!-- Node21 -->
<g id="Node000021" class="node"><title>Node21</title>
<g id="a_Node000021"><a xlink:href="group___t_heap.html#ga33f604f94a11da32fdf681dd21186b87" target="_top" xlink:title="Porovnání hodnot uzlů haldy určených dvěma iterátory.">
<polygon fill="white" stroke="#666666" points="603,-56 460,-56 460,-37 603,-37 603,-56"/>
<text text-anchor="middle" x="531.5" y="-44" font-family="Helvetica,sans-Serif" font-size="10.00">heap_compare_with_iterators</text>
</a>
</g>
</g>
<!-- Node20&#45;&gt;Node21 -->
<g id="edge25_Node000020_Node000021" class="edge"><title>Node20&#45;&gt;Node21</title>
<g id="a_edge25_Node000020_Node000021"><a xlink:title=" ">
<path fill="none" stroke="#63b8ff" d="M639.432,-46.5C627.607,-46.5 615.173,-46.5 603.136,-46.5"/>
<polygon fill="#63b8ff" stroke="#63b8ff" points="639.643,-50.0001 649.643,-46.5 639.643,-43.0001 639.643,-50.0001"/>
</a>
</g>
</g>
<!-- Node25 -->
<g id="Node000025" class="node"><title>Node25</title>
<g id="a_Node000025"><a xlink:href="group___t_span.html#ga1b60dd9d2211c7cb07b066f19237b0ac" target="_top" xlink:title="Porovnání hodnot elementů Spanů určených dvěma iterátory.">
<polygon fill="white" stroke="#666666" points="603,-19 460,-19 460,-0 603,-0 603,-19"/>
<text text-anchor="middle" x="531.5" y="-7" font-family="Helvetica,sans-Serif" font-size="10.00">span_compare_with_iterators</text>
</a>
</g>
</g>
<!-- Node20&#45;&gt;Node25 -->
<g id="edge31_Node000020_Node000025" class="edge"><title>Node20&#45;&gt;Node25</title>
<g id="a_edge31_Node000020_Node000025"><a xlink:title=" ">
<path fill="none" stroke="#63b8ff" d="M639.774,-32.8479C618.641,-28.2484 595.533,-23.2188 576.193,-19.0096"/>
<polygon fill="#63b8ff" stroke="#63b8ff" points="639.127,-36.289 649.643,-34.9958 640.616,-29.4491 639.127,-36.289"/>
</a>
</g>
</g>
<!-- Node22 -->
<g id="Node000022" class="node"><title>Node22</title>
<g id="a_Node000022"><a xlink:href="heap__sort__with__iterators_8c.html#a7bf828c9c4eb35c2121c3f7d1177d19b" target="_top" xlink:title="Vnitřní a lokální funkce zajišťující vložení hodnoty do zvoleného uzlu haldy, při zachování podmínek ...">
<polygon fill="white" stroke="#666666" points="424,-56 367,-56 367,-37 424,-37 424,-56"/>
<text text-anchor="middle" x="395.5" y="-44" font-family="Helvetica,sans-Serif" font-size="10.00">sift_down</text>
</a>
</g>
</g>
<!-- Node21&#45;&gt;Node22 -->
<g id="edge26_Node000021_Node000022" class="edge"><title>Node21&#45;&gt;Node22</title>
<g id="a_edge26_Node000021_Node000022"><a xlink:title=" ">
<path fill="none" stroke="#63b8ff" d="M449.89,-46.5C440.699,-46.5 431.865,-46.5 424.119,-46.5"/>
<polygon fill="#63b8ff" stroke="#63b8ff" points="449.968,-50.0001 459.968,-46.5 449.968,-43.0001 449.968,-50.0001"/>
</a>
</g>
</g>
<!-- Node23 -->
<g id="Node000023" class="node"><title>Node23</title>
<g id="a_Node000023"><a xlink:href="group___powerful_sorts.html#ga84762e575f9465881e13d17072186ddd" target="_top" xlink:title="Třídění pomocí haldy (Heap Sort) využívající iterátorové API pro přístup k elementům vektoru.">
<polygon fill="white" stroke="#666666" points="196,-76 74,-76 74,-57 196,-57 196,-76"/>
<text text-anchor="middle" x="135" y="-64" font-family="Helvetica,sans-Serif" font-size="10.00">heap_sort_with_iterators</text>
</a>
</g>
</g>
<!-- Node22&#45;&gt;Node23 -->
<g id="edge27_Node000022_Node000023" class="edge"><title>Node22&#45;&gt;Node23</title>
<g id="a_edge27_Node000022_Node000023"><a xlink:title=" ">
<path fill="none" stroke="#63b8ff" d="M356.712,-49.4237C314.52,-52.688 245.66,-58.0157 196.067,-61.8527"/>
<polygon fill="#63b8ff" stroke="#63b8ff" points="357.136,-52.9014 366.836,-48.6404 356.596,-45.9223 357.136,-52.9014"/>
</a>
</g>
</g>
<!-- Node24 -->
<g id="Node000024" class="node"><title>Node24</title>
<g id="a_Node000024"><a xlink:href="heap__sort__with__iterators_8c.html#aceaf0618c69440f1e439e224eb6945dc" target="_top" xlink:title="Vnitřní a lokální funkce realizující uspořádání elementů vektoru do haldy.">
<polygon fill="white" stroke="#666666" points="305,-38 258,-38 258,-19 305,-19 305,-38"/>
<text text-anchor="middle" x="281.5" y="-26" font-family="Helvetica,sans-Serif" font-size="10.00">heapify</text>
</a>
</g>
</g>
<!-- Node22&#45;&gt;Node24 -->
<g id="edge29_Node000022_Node000024" class="edge"><title>Node22&#45;&gt;Node24</title>
<g id="a_edge29_Node000022_Node000024"><a xlink:title=" ">
<path fill="none" stroke="#63b8ff" d="M356.608,-40.4102C339.593,-37.6756 320.078,-34.5393 305.346,-32.1717"/>
<polygon fill="#63b8ff" stroke="#63b8ff" points="356.386,-43.9194 366.815,-42.0506 357.497,-37.008 356.386,-43.9194"/>
</a>
</g>
</g>
<!-- Node23&#45;&gt;Node9 -->
<g id="edge28_Node000023_Node000009" class="edge"><title>Node23&#45;&gt;Node9</title>
<g id="a_edge28_Node000023_Node000009"><a xlink:title=" ">
<path fill="none" stroke="#63b8ff" d="M94.5055,-79.7246C87.5074,-82.6021 80.4131,-85.8829 74,-89.5 57.6552,-98.7189 40.9163,-112.557 30.4959,-121.801"/>
<polygon fill="#63b8ff" stroke="#63b8ff" points="95.8693,-82.9496 103.916,-76.0571 93.3274,-76.4274 95.8693,-82.9496"/>
</a>
</g>
</g>
<!-- Node24&#45;&gt;Node23 -->
<g id="edge30_Node000024_Node000023" class="edge"><title>Node24&#45;&gt;Node23</title>
<g id="a_edge30_Node000024_Node000023"><a xlink:title=" ">
<path fill="none" stroke="#63b8ff" d="M248.148,-37.0078C225.608,-42.9353 195.52,-50.8477 172.184,-56.9845"/>
<polygon fill="#63b8ff" stroke="#63b8ff" points="249.141,-40.3658 257.922,-34.4375 247.361,-33.5959 249.141,-40.3658"/>
</a>
</g>
</g>
</g>
</svg>
