<?xml version="1.0" encoding="UTF-8" standalone="no"?>
<!DOCTYPE svg PUBLIC "-//W3C//DTD SVG 1.1//EN"
 "http://www.w3.org/Graphics/SVG/1.1/DTD/svg11.dtd">
<!-- Generated by graphviz version 2.38.0 (20140413.2041)
 -->
<!-- Title: vector_fast_swap_position_value Pages: 1 -->
<svg width="461pt" height="182pt"
 viewBox="0.00 0.00 461.00 182.00" xmlns="http://www.w3.org/2000/svg" xmlns:xlink="http://www.w3.org/1999/xlink">
<g id="graph0" class="graph" transform="scale(1 1) rotate(0) translate(4 178)">
<title>vector_fast_swap_position_value</title>
<!-- Node1 -->
<g id="Node000001" class="node"><title>Node1</title>
<g id="a_Node000001"><a xlink:title=" ">
<polygon fill="#999999" stroke="#666666" points="453,-102 323,-102 323,-72 453,-72 453,-102"/>
<text text-anchor="start" x="331" y="-90" font-family="Helvetica,sans-Serif" font-size="10.00">vector_fast_swap_position</text>
<text text-anchor="middle" x="388" y="-79" font-family="Helvetica,sans-Serif" font-size="10.00">_value</text>
</a>
</g>
</g>
<!-- Node2 -->
<g id="Node000002" class="node"><title>Node2</title>
<g id="a_Node000002"><a xlink:href="group__sortable___t_vector.html#gabdff161479b4c497204dc32fd2202e6f" target="_top" xlink:title="Výměna mezi hodnotou elementu vektoru a proměnnou typu VectorElement.">
<polygon fill="white" stroke="#666666" points="277.5,-126 168.5,-126 168.5,-96 277.5,-96 277.5,-126"/>
<text text-anchor="start" x="176.5" y="-114" font-family="Helvetica,sans-Serif" font-size="10.00">vector_swap_position</text>
<text text-anchor="middle" x="223" y="-103" font-family="Helvetica,sans-Serif" font-size="10.00">_value</text>
</a>
</g>
</g>
<!-- Node1&#45;&gt;Node2 -->
<g id="edge1_Node000001_Node000002" class="edge"><title>Node1&#45;&gt;Node2</title>
<g id="a_edge1_Node000001_Node000002"><a xlink:title=" ">
<path fill="none" stroke="#63b8ff" d="M312.38,-97.987C300.691,-99.7081 288.812,-101.457 277.715,-103.091"/>
<polygon fill="#63b8ff" stroke="#63b8ff" points="313.195,-101.405 322.578,-96.4854 312.175,-94.4795 313.195,-101.405"/>
</a>
</g>
</g>
<!-- Node5 -->
<g id="Node000005" class="node"><title>Node5</title>
<g id="a_Node000005"><a xlink:href="group__sortable___t_vector_iterator.html#ga015969daf209d461aaf0ba4391df4b5b" target="_top" xlink:title="Výměna mezi hodnotou elementu vektoru určenou iterátorem a proměnnou typu VectorElement.">
<polygon fill="white" stroke="#666666" points="287,-78 159,-78 159,-48 287,-48 287,-78"/>
<text text-anchor="start" x="167" y="-66" font-family="Helvetica,sans-Serif" font-size="10.00">vector_swap_with_iterator</text>
<text text-anchor="middle" x="223" y="-55" font-family="Helvetica,sans-Serif" font-size="10.00">_value</text>
</a>
</g>
</g>
<!-- Node1&#45;&gt;Node5 -->
<g id="edge4_Node000001_Node000005" class="edge"><title>Node1&#45;&gt;Node5</title>
<g id="a_edge4_Node000001_Node000005"><a xlink:title=" ">
<path fill="none" stroke="#63b8ff" d="M312.649,-76.0526C304.131,-74.7984 295.507,-73.5287 287.155,-72.2989"/>
<polygon fill="#63b8ff" stroke="#63b8ff" points="312.175,-79.5205 322.578,-77.5146 313.195,-72.5951 312.175,-79.5205"/>
</a>
</g>
</g>
<!-- Node3 -->
<g id="Node000003" class="node"><title>Node3</title>
<g id="a_Node000003"><a xlink:href="group___t_heap.html#ga9e3ecb67eb7fd210b5154c661000ba16" target="_top" xlink:title="Vzájemná výměna hodnot mezi uzlem haldy a proměnnou typu HeapElement.">
<polygon fill="white" stroke="#666666" points="113.5,-174 9.5,-174 9.5,-144 113.5,-144 113.5,-174"/>
<text text-anchor="start" x="17.5" y="-162" font-family="Helvetica,sans-Serif" font-size="10.00">heap_swap_position</text>
<text text-anchor="middle" x="61.5" y="-151" font-family="Helvetica,sans-Serif" font-size="10.00">_value</text>
</a>
</g>
</g>
<!-- Node2&#45;&gt;Node3 -->
<g id="edge2_Node000002_Node000003" class="edge"><title>Node2&#45;&gt;Node3</title>
<g id="a_edge2_Node000002_Node000003"><a xlink:title=" ">
<path fill="none" stroke="#63b8ff" d="M161.966,-129.067C145.611,-133.989 128.075,-139.266 112.352,-143.998"/>
<polygon fill="#63b8ff" stroke="#63b8ff" points="163.404,-132.289 171.971,-126.056 161.386,-125.586 163.404,-132.289"/>
</a>
</g>
</g>
<!-- Node4 -->
<g id="Node000004" class="node"><title>Node4</title>
<g id="a_Node000004"><a xlink:href="group___t_span.html#ga2df4c39d49410db156d79f5d12c84f7e" target="_top" xlink:title="Výměna mezi hodnotou elementu Spanu a proměnnou typu VectorElement.">
<polygon fill="white" stroke="#666666" points="113.5,-126 9.5,-126 9.5,-96 113.5,-96 113.5,-126"/>
<text text-anchor="start" x="17.5" y="-114" font-family="Helvetica,sans-Serif" font-size="10.00">span_swap_position</text>
<text text-anchor="middle" x="61.5" y="-103" font-family="Helvetica,sans-Serif" font-size="10.00">_value</text>
</a>
</g>
</g>
<!-- Node2&#45;&gt;Node4 -->
<g id="edge3_Node000002_Node000004" class="edge"><title>Node2&#45;&gt;Node4</title>
<g id="a_edge3_Node000002_Node000004"><a xlink:title=" ">
<path fill="none" stroke="#63b8ff" d="M158.342,-111C143.531,-111 127.949,-111 113.753,-111"/>
<polygon fill="#63b8ff" stroke="#63b8ff" points="158.445,-114.5 168.445,-111 158.445,-107.5 158.445,-114.5"/>
</a>
</g>
</g>
<!-- Node6 -->
<g id="Node000006" class="node"><title>Node6</title>
<g id="a_Node000006"><a xlink:href="group___t_heap.html#gada6619039c74de7852ababa894ff4029" target="_top" xlink:title="Výměna mezi hodnotou v uzlu haldy určenou iterátorem a proměnnou typu HeapElement.">
<polygon fill="white" stroke="#666666" points="123,-78 0,-78 0,-48 123,-48 123,-78"/>
<text text-anchor="start" x="8" y="-66" font-family="Helvetica,sans-Serif" font-size="10.00">heap_swap_with_iterator</text>
<text text-anchor="middle" x="61.5" y="-55" font-family="Helvetica,sans-Serif" font-size="10.00">_value</text>
</a>
</g>
</g>
<!-- Node5&#45;&gt;Node6 -->
<g id="edge5_Node000005_Node000006" class="edge"><title>Node5&#45;&gt;Node6</title>
<g id="a_edge5_Node000005_Node000006"><a xlink:title=" ">
<path fill="none" stroke="#63b8ff" d="M148.947,-63C140.354,-63 131.657,-63 123.259,-63"/>
<polygon fill="#63b8ff" stroke="#63b8ff" points="148.961,-66.5001 158.961,-63 148.961,-59.5001 148.961,-66.5001"/>
</a>
</g>
</g>
<!-- Node7 -->
<g id="Node000007" class="node"><title>Node7</title>
<g id="a_Node000007"><a xlink:href="group___t_span.html#ga87439f0c5045aa7f177a37558b60d397" target="_top" xlink:title="Výměna mezi hodnotou elementu Spanu určenou iterátorem a proměnnou typu SpanElement.">
<polygon fill="white" stroke="#666666" points="123,-30 0,-30 0,-0 123,-0 123,-30"/>
<text text-anchor="start" x="8" y="-18" font-family="Helvetica,sans-Serif" font-size="10.00">span_swap_with_iterator</text>
<text text-anchor="middle" x="61.5" y="-7" font-family="Helvetica,sans-Serif" font-size="10.00">_value</text>
</a>
</g>
</g>
<!-- Node5&#45;&gt;Node7 -->
<g id="edge6_Node000005_Node000007" class="edge"><title>Node5&#45;&gt;Node7</title>
<g id="a_edge6_Node000005_Node000007"><a xlink:title=" ">
<path fill="none" stroke="#63b8ff" d="M161.966,-44.9335C145.611,-40.0114 128.075,-34.7341 112.352,-30.0024"/>
<polygon fill="#63b8ff" stroke="#63b8ff" points="161.386,-48.4139 171.971,-47.9442 163.404,-41.7109 161.386,-48.4139"/>
</a>
</g>
</g>
</g>
</svg>
