<?xml version="1.0" encoding="UTF-8" standalone="no"?>
<!DOCTYPE svg PUBLIC "-//W3C//DTD SVG 1.1//EN"
 "http://www.w3.org/Graphics/SVG/1.1/DTD/svg11.dtd">
<!-- Generated by graphviz version 2.38.0 (20140413.2041)
 -->
<!-- Title: vector_fast_swap_positions Pages: 1 -->
<svg width="648pt" height="378pt"
 viewBox="0.00 0.00 648.00 378.00" xmlns="http://www.w3.org/2000/svg" xmlns:xlink="http://www.w3.org/1999/xlink">
<g id="graph0" class="graph" transform="scale(1 1) rotate(0) translate(4 374)">
<title>vector_fast_swap_positions</title>
<!-- Node1 -->
<g id="Node000001" class="node"><title>Node1</title>
<g id="a_Node000001"><a xlink:title=" ">
<polygon fill="#999999" stroke="#666666" points="640,-130 505,-130 505,-111 640,-111 640,-130"/>
<text text-anchor="middle" x="572.5" y="-118" font-family="Helvetica,sans-Serif" font-size="10.00">vector_fast_swap_positions</text>
</a>
</g>
</g>
<!-- Node2 -->
<g id="Node000002" class="node"><title>Node2</title>
<g id="a_Node000002"><a xlink:href="group__sortable___t_vector.html#gac1982d8a0e5f66f933dc6a0413f2d23e" target="_top" xlink:title="Výměna hodnot elementů vektorů">
<polygon fill="white" stroke="#666666" points="459.5,-204 345.5,-204 345.5,-185 459.5,-185 459.5,-204"/>
<text text-anchor="middle" x="402.5" y="-192" font-family="Helvetica,sans-Serif" font-size="10.00">vector_swap_positions</text>
</a>
</g>
</g>
<!-- Node1&#45;&gt;Node2 -->
<g id="edge1_Node000001_Node000002" class="edge"><title>Node1&#45;&gt;Node2</title>
<g id="a_edge1_Node000001_Node000002"><a xlink:title=" ">
<path fill="none" stroke="#63b8ff" d="M540.573,-134.122C507.131,-148.853 454.678,-171.957 425.302,-184.897"/>
<polygon fill="#63b8ff" stroke="#63b8ff" points="542.14,-137.257 549.881,-130.023 539.318,-130.851 542.14,-137.257"/>
</a>
</g>
</g>
<!-- Node13 -->
<g id="Node000013" class="node"><title>Node13</title>
<g id="a_Node000013"><a xlink:href="group__sortable___t_vector_iterator.html#gac16589d02c81c789a7fa6cd323a49013" target="_top" xlink:title="Výměna hodnot elementů vektorů určených dvěma iterátory.">
<polygon fill="white" stroke="#666666" points="469,-56 336,-56 336,-37 469,-37 469,-56"/>
<text text-anchor="middle" x="402.5" y="-44" font-family="Helvetica,sans-Serif" font-size="10.00">vector_swap_with_iterators</text>
</a>
</g>
</g>
<!-- Node1&#45;&gt;Node13 -->
<g id="edge13_Node000001_Node000013" class="edge"><title>Node1&#45;&gt;Node13</title>
<g id="a_edge13_Node000001_Node000013"><a xlink:title=" ">
<path fill="none" stroke="#63b8ff" d="M540.573,-106.878C507.131,-92.1469 454.678,-69.0426 425.302,-56.1034"/>
<polygon fill="#63b8ff" stroke="#63b8ff" points="539.318,-110.149 549.881,-110.977 542.14,-103.743 539.318,-110.149"/>
</a>
</g>
</g>
<!-- Node3 -->
<g id="Node000003" class="node"><title>Node3</title>
<g id="a_Node000003"><a xlink:href="group___basic_sorts.html#gaa1ef093f5205f293df8303ac228452fc" target="_top" xlink:title="Třídění přímou výměnou (Bubble Sort)">
<polygon fill="white" stroke="#666666" points="269.5,-370 202.5,-370 202.5,-351 269.5,-351 269.5,-370"/>
<text text-anchor="middle" x="236" y="-358" font-family="Helvetica,sans-Serif" font-size="10.00">bubble_sort</text>
</a>
</g>
</g>
<!-- Node2&#45;&gt;Node3 -->
<g id="edge2_Node000002_Node000003" class="edge"><title>Node2&#45;&gt;Node3</title>
<g id="a_edge2_Node000002_Node000003"><a xlink:title=" ">
<path fill="none" stroke="#63b8ff" d="M393.631,-213.604C379.604,-245.264 347.252,-308.482 300,-342.5 291.138,-348.88 280.063,-353.007 269.681,-355.672"/>
<polygon fill="#63b8ff" stroke="#63b8ff" points="396.954,-214.735 397.68,-204.165 390.521,-211.975 396.954,-214.735"/>
</a>
</g>
</g>
<!-- Node4 -->
<g id="Node000004" class="node"><title>Node4</title>
<g id="a_Node000004"><a xlink:href="group___basic_sorts.html#ga62a36eb31bf0a873f7c027e145843b1a" target="_top" xlink:title="Třídění přímou výměnou včetně optimalizace s pomocným příznakem ukončení třídění (Bubble Sort Optimiz...">
<polygon fill="white" stroke="#666666" points="293,-333 179,-333 179,-314 293,-314 293,-333"/>
<text text-anchor="middle" x="236" y="-321" font-family="Helvetica,sans-Serif" font-size="10.00">bubble_sort_optimized</text>
</a>
</g>
</g>
<!-- Node2&#45;&gt;Node4 -->
<g id="edge3_Node000002_Node000004" class="edge"><title>Node2&#45;&gt;Node4</title>
<g id="a_edge3_Node000002_Node000004"><a xlink:title=" ">
<path fill="none" stroke="#63b8ff" d="M389.795,-212.595C372.908,-237.255 339.378,-281.129 300,-305.5 294.487,-308.912 288.305,-311.697 282.026,-313.965"/>
<polygon fill="#63b8ff" stroke="#63b8ff" points="392.782,-214.424 395.429,-204.165 386.962,-210.534 392.782,-214.424"/>
</a>
</g>
</g>
<!-- Node5 -->
<g id="Node000005" class="node"><title>Node5</title>
<g id="a_Node000005"><a xlink:href="group___basic_sorts.html#gaba41a68f00241f38f7864b4e1dacd086" target="_top" xlink:title="Třídění přímou výměnou včetně optimalizace s výpočtem indexu poslední změny (Bubble Sort Optimized2)">
<polygon fill="white" stroke="#666666" points="295.5,-296 176.5,-296 176.5,-277 295.5,-277 295.5,-296"/>
<text text-anchor="middle" x="236" y="-284" font-family="Helvetica,sans-Serif" font-size="10.00">bubble_sort_optimized2</text>
</a>
</g>
</g>
<!-- Node2&#45;&gt;Node5 -->
<g id="edge4_Node000002_Node000005" class="edge"><title>Node2&#45;&gt;Node5</title>
<g id="a_edge4_Node000002_Node000005"><a xlink:title=" ">
<path fill="none" stroke="#63b8ff" d="M383.345,-210.829C363.97,-227.478 331.752,-253 300,-268.5 293.253,-271.793 285.798,-274.585 278.448,-276.915"/>
<polygon fill="#63b8ff" stroke="#63b8ff" points="385.836,-213.299 391.059,-204.081 381.228,-208.03 385.836,-213.299"/>
</a>
</g>
</g>
<!-- Node6 -->
<g id="Node000006" class="node"><title>Node6</title>
<g id="a_Node000006"><a xlink:href="group___t_heap.html#gaa617d4886d443671851e3256c7ac5860" target="_top" xlink:title="Vzájemná výměna hodnot mezi uzly haldy.">
<polygon fill="white" stroke="#666666" points="291,-259 181,-259 181,-240 291,-240 291,-259"/>
<text text-anchor="middle" x="236" y="-247" font-family="Helvetica,sans-Serif" font-size="10.00">heap_swap_positions</text>
</a>
</g>
</g>
<!-- Node2&#45;&gt;Node6 -->
<g id="edge5_Node000002_Node000006" class="edge"><title>Node2&#45;&gt;Node6</title>
<g id="a_edge5_Node000002_Node000006"><a xlink:title=" ">
<path fill="none" stroke="#63b8ff" d="M367.233,-207.682C347.658,-215.037 322.586,-224.167 300,-231.5 291.02,-234.415 281.241,-237.333 272.124,-239.944"/>
<polygon fill="#63b8ff" stroke="#63b8ff" points="368.529,-210.933 376.645,-204.123 366.053,-204.386 368.529,-210.933"/>
</a>
</g>
</g>
<!-- Node7 -->
<g id="Node000007" class="node"><title>Node7</title>
<g id="a_Node000007"><a xlink:href="advanced__sorts_8c.html#a0ae77c9640aa821e5507079ec5d2eb1d" target="_top" xlink:title="Vnitřní a lokální funkce realizující rekurzivní funkci pro metodu (Quick Sort)">
<polygon fill="white" stroke="#666666" points="283.5,-204 188.5,-204 188.5,-185 283.5,-185 283.5,-204"/>
<text text-anchor="middle" x="236" y="-192" font-family="Helvetica,sans-Serif" font-size="10.00">quick_sort_worker</text>
</a>
</g>
</g>
<!-- Node2&#45;&gt;Node7 -->
<g id="edge6_Node000002_Node000007" class="edge"><title>Node2&#45;&gt;Node7</title>
<g id="a_edge6_Node000002_Node000007"><a xlink:title=" ">
<path fill="none" stroke="#63b8ff" d="M335.291,-194.5C317.973,-194.5 299.668,-194.5 283.61,-194.5"/>
<polygon fill="#63b8ff" stroke="#63b8ff" points="335.349,-198 345.349,-194.5 335.348,-191 335.349,-198"/>
</a>
</g>
</g>
<!-- Node10 -->
<g id="Node000010" class="node"><title>Node10</title>
<g id="a_Node000010"><a xlink:href="group___basic_sorts.html#ga3688a58781905ac2e518285b8bb711ec" target="_top" xlink:title="Třídění přímým výběrem (Select Sort)">
<polygon fill="white" stroke="#666666" points="268.5,-167 203.5,-167 203.5,-148 268.5,-148 268.5,-167"/>
<text text-anchor="middle" x="236" y="-155" font-family="Helvetica,sans-Serif" font-size="10.00">select_sort</text>
</a>
</g>
</g>
<!-- Node2&#45;&gt;Node10 -->
<g id="edge10_Node000002_Node000010" class="edge"><title>Node2&#45;&gt;Node10</title>
<g id="a_edge10_Node000002_Node000010"><a xlink:title=" ">
<path fill="none" stroke="#63b8ff" d="M349.237,-182.745C322.718,-176.78 291.38,-169.731 268.567,-164.6"/>
<polygon fill="#63b8ff" stroke="#63b8ff" points="348.613,-186.192 359.137,-184.972 350.149,-179.362 348.613,-186.192"/>
</a>
</g>
</g>
<!-- Node11 -->
<g id="Node000011" class="node"><title>Node11</title>
<g id="a_Node000011"><a xlink:href="group___basic_sorts.html#gaacee5d609500566a6ad1724486ab8bb2" target="_top" xlink:title="Třídění přímou výměnou se změnou postupu třídění (Shaker Sort)">
<polygon fill="white" stroke="#666666" points="270,-130 202,-130 202,-111 270,-111 270,-130"/>
<text text-anchor="middle" x="236" y="-118" font-family="Helvetica,sans-Serif" font-size="10.00">shaker_sort</text>
</a>
</g>
</g>
<!-- Node2&#45;&gt;Node11 -->
<g id="edge11_Node000002_Node000011" class="edge"><title>Node2&#45;&gt;Node11</title>
<g id="a_edge11_Node000002_Node000011"><a xlink:title=" ">
<path fill="none" stroke="#63b8ff" d="M377.796,-179.408C357.697,-167.109 327.786,-149.962 300,-138.5 290.536,-134.596 279.94,-131.212 270.177,-128.466"/>
<polygon fill="#63b8ff" stroke="#63b8ff" points="376.217,-182.547 386.56,-184.844 379.907,-176.599 376.217,-182.547"/>
</a>
</g>
</g>
<!-- Node12 -->
<g id="Node000012" class="node"><title>Node12</title>
<g id="a_Node000012"><a xlink:href="group___t_span.html#gae81c37610069e0d3c8d3182ca4964c1a" target="_top" xlink:title="Výměna hodnot elementů Spanů">
<polygon fill="white" stroke="#666666" points="291,-93 181,-93 181,-74 291,-74 291,-93"/>
<text text-anchor="middle" x="236" y="-81" font-family="Helvetica,sans-Serif" font-size="10.00">span_swap_positions</text>
</a>
</g>
</g>
<!-- Node2&#45;&gt;Node12 -->
<g id="edge12_Node000002_Node000012" class="edge"><title>Node2&#45;&gt;Node12</title>
<g id="a_edge12_Node000002_Node000012"><a xlink:title=" ">
<path fill="none" stroke="#63b8ff" d="M387,-176.968C368.781,-156.044 335.565,-121.394 300,-101.5 293.944,-98.1125 287.197,-95.3174 280.433,-93.0247"/>
<polygon fill="#63b8ff" stroke="#63b8ff" points="384.493,-179.421 393.644,-184.761 389.82,-174.88 384.493,-179.421"/>
</a>
</g>
</g>
<!-- Node7&#45;&gt;Node7 -->
<g id="edge9_Node000007_Node000007" class="edge"><title>Node7&#45;&gt;Node7</title>
<g id="a_edge9_Node000007_Node000007"><a xlink:title=" ">
<path fill="none" stroke="#63b8ff" d="M260.181,-213.189C258.862,-218.197 250.802,-222 236,-222 212.895,-222 206.216,-212.734 215.963,-204.083"/>
<polygon fill="#63b8ff" stroke="#63b8ff" points="263.365,-211.735 256.037,-204.083 256.994,-214.634 263.365,-211.735"/>
</a>
</g>
</g>
<!-- Node8 -->
<g id="Node000008" class="node"><title>Node8</title>
<g id="a_Node000008"><a xlink:href="group___advanced_sorts.html#gaa369b74c9050d30aa2416f9dba8cc8f5" target="_top" xlink:title="Rychlé třídění výměnou (Quick Sort) s volbou prostředního prvku jako pivota.">
<polygon fill="white" stroke="#666666" points="136,-204 74,-204 74,-185 136,-185 136,-204"/>
<text text-anchor="middle" x="105" y="-192" font-family="Helvetica,sans-Serif" font-size="10.00">quick_sort</text>
</a>
</g>
</g>
<!-- Node7&#45;&gt;Node8 -->
<g id="edge7_Node000007_Node000008" class="edge"><title>Node7&#45;&gt;Node8</title>
<g id="a_edge7_Node000007_Node000008"><a xlink:title=" ">
<path fill="none" stroke="#63b8ff" d="M178.019,-194.5C163.542,-194.5 148.552,-194.5 136.021,-194.5"/>
<polygon fill="#63b8ff" stroke="#63b8ff" points="178.428,-198 188.428,-194.5 178.428,-191 178.428,-198"/>
</a>
</g>
</g>
<!-- Node9 -->
<g id="Node000009" class="node"><title>Node9</title>
<g id="a_Node000009"><a xlink:href="group___main_program.html#ga0ddf1224851353fc92bfbff6f499fa97" target="_top" xlink:title=" ">
<polygon fill="white" stroke="#666666" points="38,-204 0,-204 0,-185 38,-185 38,-204"/>
<text text-anchor="middle" x="19" y="-192" font-family="Helvetica,sans-Serif" font-size="10.00">main</text>
</a>
</g>
</g>
<!-- Node8&#45;&gt;Node9 -->
<g id="edge8_Node000008_Node000009" class="edge"><title>Node8&#45;&gt;Node9</title>
<g id="a_edge8_Node000008_Node000009"><a xlink:title=" ">
<path fill="none" stroke="#63b8ff" d="M63.4561,-194.5C54.6389,-194.5 45.7361,-194.5 38.3044,-194.5"/>
<polygon fill="#63b8ff" stroke="#63b8ff" points="63.6741,-198 73.6741,-194.5 63.674,-191 63.6741,-198"/>
</a>
</g>
</g>
<!-- Node14 -->
<g id="Node000014" class="node"><title>Node14</title>
<g id="a_Node000014"><a xlink:href="group___t_heap.html#ga03d48bdfc99322c0e16fd502820ce43d" target="_top" xlink:title="Výměna hodnot uzlů haldy určených dvěma iterátory.">
<polygon fill="white" stroke="#666666" points="300,-56 172,-56 172,-37 300,-37 300,-56"/>
<text text-anchor="middle" x="236" y="-44" font-family="Helvetica,sans-Serif" font-size="10.00">heap_swap_with_iterators</text>
</a>
</g>
</g>
<!-- Node13&#45;&gt;Node14 -->
<g id="edge14_Node000013_Node000014" class="edge"><title>Node13&#45;&gt;Node14</title>
<g id="a_edge14_Node000013_Node000014"><a xlink:title=" ">
<path fill="none" stroke="#63b8ff" d="M325.294,-46.5C316.84,-46.5 308.301,-46.5 300.036,-46.5"/>
<polygon fill="#63b8ff" stroke="#63b8ff" points="325.539,-50.0001 335.539,-46.5 325.539,-43.0001 325.539,-50.0001"/>
</a>
</g>
</g>
<!-- Node15 -->
<g id="Node000015" class="node"><title>Node15</title>
<g id="a_Node000015"><a xlink:href="group___t_span.html#ga2bc9c4a1a22d533a1a01ddb8cb57cfca" target="_top" xlink:title="Výměna hodnot elementů Spanů určených dvěma iterátory.">
<polygon fill="white" stroke="#666666" points="300,-19 172,-19 172,-0 300,-0 300,-19"/>
<text text-anchor="middle" x="236" y="-7" font-family="Helvetica,sans-Serif" font-size="10.00">span_swap_with_iterators</text>
</a>
</g>
</g>
<!-- Node13&#45;&gt;Node15 -->
<g id="edge15_Node000013_Node000015" class="edge"><title>Node13&#45;&gt;Node15</title>
<g id="a_edge15_Node000013_Node000015"><a xlink:title=" ">
<path fill="none" stroke="#63b8ff" d="M349.09,-34.7116C326.632,-29.6604 300.742,-23.837 279.505,-19.0604"/>
<polygon fill="#63b8ff" stroke="#63b8ff" points="348.613,-38.1918 359.137,-36.9716 350.149,-31.3624 348.613,-38.1918"/>
</a>
</g>
</g>
</g>
</svg>
