<?xml version="1.0" encoding="UTF-8" standalone="no"?>
<!DOCTYPE svg PUBLIC "-//W3C//DTD SVG 1.1//EN"
 "http://www.w3.org/Graphics/SVG/1.1/DTD/svg11.dtd">
<!-- Generated by graphviz version 2.38.0 (20140413.2041)
 -->
<!-- Title: vector_fast_move_positions Pages: 1 -->
<svg width="978pt" height="344pt"
 viewBox="0.00 0.00 978.00 343.92" xmlns="http://www.w3.org/2000/svg" xmlns:xlink="http://www.w3.org/1999/xlink">
<g id="graph0" class="graph" transform="scale(1 1) rotate(0) translate(4 339.918)">
<title>vector_fast_move_positions</title>
<!-- Node1 -->
<g id="Node000001" class="node"><title>Node1</title>
<g id="a_Node000001"><a xlink:title=" ">
<polygon fill="#999999" stroke="#666666" points="970,-142 835,-142 835,-123 970,-123 970,-142"/>
<text text-anchor="middle" x="902.5" y="-130" font-family="Helvetica,sans-Serif" font-size="10.00">vector_fast_move_positions</text>
</a>
</g>
</g>
<!-- Node2 -->
<g id="Node000002" class="node"><title>Node2</title>
<g id="a_Node000002"><a xlink:href="group__sortable___t_vector.html#ga16623c06371077674f5d4d31e38e42a4" target="_top" xlink:title="Přesun hodnoty elementu vektoru.">
<polygon fill="white" stroke="#666666" points="789.5,-190 675.5,-190 675.5,-171 789.5,-171 789.5,-190"/>
<text text-anchor="middle" x="732.5" y="-178" font-family="Helvetica,sans-Serif" font-size="10.00">vector_move_positions</text>
</a>
</g>
</g>
<!-- Node1&#45;&gt;Node2 -->
<g id="edge1_Node000001_Node000002" class="edge"><title>Node1&#45;&gt;Node2</title>
<g id="a_edge1_Node000001_Node000002"><a xlink:title=" ">
<path fill="none" stroke="#63b8ff" d="M858.233,-144.862C829.83,-152.977 793.231,-163.434 767.035,-170.918"/>
<polygon fill="#63b8ff" stroke="#63b8ff" points="859.253,-148.211 867.906,-142.098 857.33,-141.48 859.253,-148.211"/>
</a>
</g>
</g>
<!-- Node17 -->
<g id="Node000017" class="node"><title>Node17</title>
<g id="a_Node000017"><a xlink:href="group__sortable___t_vector_iterator.html#gaa3e549d3e67e2168311acc8f4a494cc5" target="_top" xlink:title="Přesun hodnoty elementu vektoru určené dvěma iterátory.">
<polygon fill="white" stroke="#666666" points="799,-95 666,-95 666,-76 799,-76 799,-95"/>
<text text-anchor="middle" x="732.5" y="-83" font-family="Helvetica,sans-Serif" font-size="10.00">vector_move_with_iterators</text>
</a>
</g>
</g>
<!-- Node1&#45;&gt;Node17 -->
<g id="edge24_Node000001_Node000017" class="edge"><title>Node1&#45;&gt;Node17</title>
<g id="a_edge24_Node000001_Node000017"><a xlink:title=" ">
<path fill="none" stroke="#63b8ff" d="M857.553,-120.205C829.501,-112.357 793.669,-102.333 767.735,-95.0776"/>
<polygon fill="#63b8ff" stroke="#63b8ff" points="856.929,-123.665 867.503,-122.989 858.815,-116.924 856.929,-123.665"/>
</a>
</g>
</g>
<!-- Node3 -->
<g id="Node000003" class="node"><title>Node3</title>
<g id="a_Node000003"><a xlink:href="group___t_heap.html#ga5189745928eb05b31e28d37a79d9017f" target="_top" xlink:title="Přesun hodnot mezi uzly haldy.">
<polygon fill="white" stroke="#666666" points="621,-322 511,-322 511,-303 621,-303 621,-322"/>
<text text-anchor="middle" x="566" y="-310" font-family="Helvetica,sans-Serif" font-size="10.00">heap_move_positions</text>
</a>
</g>
</g>
<!-- Node2&#45;&gt;Node3 -->
<g id="edge2_Node000002_Node000003" class="edge"><title>Node2&#45;&gt;Node3</title>
<g id="a_edge2_Node000002_Node000003"><a xlink:title=" ">
<path fill="none" stroke="#63b8ff" d="M714.127,-196.891C694.344,-215.278 660.77,-245.649 630,-269.5 614.196,-281.75 595.117,-294.509 582.125,-302.915"/>
<polygon fill="#63b8ff" stroke="#63b8ff" points="716.561,-199.407 721.476,-190.021 711.781,-194.293 716.561,-199.407"/>
</a>
</g>
</g>
<!-- Node8 -->
<g id="Node000008" class="node"><title>Node8</title>
<g id="a_Node000008"><a xlink:href="group___basic_sorts.html#gac3903c3fd846908cd362e293ed40582e" target="_top" xlink:title="Třídění přímým vkládáním (Insert Sort)">
<polygon fill="white" stroke="#666666" points="166,-265 104,-265 104,-246 166,-246 166,-265"/>
<text text-anchor="middle" x="135" y="-253" font-family="Helvetica,sans-Serif" font-size="10.00">insert_sort</text>
</a>
</g>
</g>
<!-- Node2&#45;&gt;Node8 -->
<g id="edge9_Node000002_Node000008" class="edge"><title>Node2&#45;&gt;Node8</title>
<g id="a_edge9_Node000002_Node000008"><a xlink:title=" ">
<path fill="none" stroke="#63b8ff" d="M700.365,-194.061C680.579,-202.121 654.218,-211.844 630,-217.5 458.076,-257.653 244.284,-257.847 166.275,-256.346"/>
<polygon fill="#63b8ff" stroke="#63b8ff" points="701.897,-197.215 709.789,-190.146 699.211,-190.75 701.897,-197.215"/>
</a>
</g>
</g>
<!-- Node9 -->
<g id="Node000009" class="node"><title>Node9</title>
<g id="a_Node000009"><a xlink:href="merge__sort_8c.html#a662181aab782eefc61f71886c9aa21ab" target="_top" xlink:title="Vnitřní a lokální funkce realizující sloučení dvou již setříděných rozsahů z vektoru aFromVector do v...">
<polygon fill="white" stroke="#666666" points="590,-209 542,-209 542,-190 590,-190 590,-209"/>
<text text-anchor="middle" x="566" y="-197" font-family="Helvetica,sans-Serif" font-size="10.00">mergify</text>
</a>
</g>
</g>
<!-- Node2&#45;&gt;Node9 -->
<g id="edge11_Node000002_Node000009" class="edge"><title>Node2&#45;&gt;Node9</title>
<g id="a_edge11_Node000002_Node000009"><a xlink:title=" ">
<path fill="none" stroke="#63b8ff" d="M665.318,-188.144C638.785,-191.209 609.931,-194.541 590.389,-196.799"/>
<polygon fill="#63b8ff" stroke="#63b8ff" points="665.816,-191.61 675.349,-186.986 665.013,-184.656 665.816,-191.61"/>
</a>
</g>
</g>
<!-- Node12 -->
<g id="Node000012" class="node"><title>Node12</title>
<g id="a_Node000012"><a xlink:href="group___advanced_sorts.html#gaee070b00692f425d83eaea28b37bab2b" target="_top" xlink:title="Shellovo třídění vkládáním s ubývajícím krokem (Shell Sort) dle Hibbardovy posloupnosti.">
<polygon fill="white" stroke="#666666" points="446,-172 387,-172 387,-153 446,-153 446,-172"/>
<text text-anchor="middle" x="416.5" y="-160" font-family="Helvetica,sans-Serif" font-size="10.00">shell_sort</text>
</a>
</g>
</g>
<!-- Node2&#45;&gt;Node12 -->
<g id="edge16_Node000002_Node000012" class="edge"><title>Node2&#45;&gt;Node12</title>
<g id="a_edge16_Node000002_Node000012"><a xlink:title=" ">
<path fill="none" stroke="#63b8ff" d="M665.224,-176.701C597.553,-172.822 495.648,-166.98 446.305,-164.151"/>
<polygon fill="#63b8ff" stroke="#63b8ff" points="665.179,-180.204 675.363,-177.282 665.58,-173.215 665.179,-180.204"/>
</a>
</g>
</g>
<!-- Node13 -->
<g id="Node000013" class="node"><title>Node13</title>
<g id="a_Node000013"><a xlink:href="group___t_span.html#ga8efc8ea3e4f239b6c154cdae03258740" target="_top" xlink:title="Přesun hodnoty elementu Spanu.">
<polygon fill="white" stroke="#666666" points="621,-133 511,-133 511,-114 621,-114 621,-133"/>
<text text-anchor="middle" x="566" y="-121" font-family="Helvetica,sans-Serif" font-size="10.00">span_move_positions</text>
</a>
</g>
</g>
<!-- Node2&#45;&gt;Node13 -->
<g id="edge18_Node000002_Node000013" class="edge"><title>Node2&#45;&gt;Node13</title>
<g id="a_edge18_Node000002_Node000013"><a xlink:title=" ">
<path fill="none" stroke="#63b8ff" d="M694.189,-167.572C663.921,-157.084 621.937,-142.536 594.623,-133.072"/>
<polygon fill="#63b8ff" stroke="#63b8ff" points="693.372,-170.992 703.966,-170.959 695.664,-164.378 693.372,-170.992"/>
</a>
</g>
</g>
<!-- Node4 -->
<g id="Node000004" class="node"><title>Node4</title>
<g id="a_Node000004"><a xlink:href="group___powerful_sorts.html#gaf564949cc194e5feea63d6c2aaa3125a" target="_top" xlink:title="Třídění pomocí haldy (Heap Sort) využívající poziční API pro přístup k elementům vektoru.">
<polygon fill="white" stroke="#666666" points="164.5,-322 105.5,-322 105.5,-303 164.5,-303 164.5,-322"/>
<text text-anchor="middle" x="135" y="-310" font-family="Helvetica,sans-Serif" font-size="10.00">heap_sort</text>
</a>
</g>
</g>
<!-- Node3&#45;&gt;Node4 -->
<g id="edge3_Node000003_Node000004" class="edge"><title>Node3&#45;&gt;Node4</title>
<g id="a_edge3_Node000003_Node000004"><a xlink:title=" ">
<path fill="none" stroke="#63b8ff" d="M511.87,-323.974C497.092,-326.67 480.985,-329.149 466,-330.5 362.405,-339.841 335.62,-335.56 232,-326.5 209.348,-324.519 183.89,-320.734 164.885,-317.599"/>
<polygon fill="#63b8ff" stroke="#63b8ff" points="512.684,-327.382 521.859,-322.085 511.383,-320.504 512.684,-327.382"/>
</a>
</g>
</g>
<!-- Node6 -->
<g id="Node000006" class="node"><title>Node6</title>
<g id="a_Node000006"><a xlink:href="heap__sort_8c.html#a1572325ec24b4714bb9bbd64229d85d0" target="_top" xlink:title="Vnitřní a lokální funkce zajišťující vložení hodnoty do zvoleného uzlu haldy, při zachování podmínek ...">
<polygon fill="white" stroke="#666666" points="445,-322 388,-322 388,-303 445,-303 445,-322"/>
<text text-anchor="middle" x="416.5" y="-310" font-family="Helvetica,sans-Serif" font-size="10.00">sift_down</text>
</a>
</g>
</g>
<!-- Node3&#45;&gt;Node6 -->
<g id="edge5_Node000003_Node000006" class="edge"><title>Node3&#45;&gt;Node6</title>
<g id="a_edge5_Node000003_Node000006"><a xlink:title=" ">
<path fill="none" stroke="#63b8ff" d="M500.813,-312.5C481.281,-312.5 460.839,-312.5 445.092,-312.5"/>
<polygon fill="#63b8ff" stroke="#63b8ff" points="500.914,-316 510.914,-312.5 500.914,-309 500.914,-316"/>
</a>
</g>
</g>
<!-- Node5 -->
<g id="Node000005" class="node"><title>Node5</title>
<g id="a_Node000005"><a xlink:href="group___main_program.html#ga0ddf1224851353fc92bfbff6f499fa97" target="_top" xlink:title=" ">
<polygon fill="white" stroke="#666666" points="38,-208 0,-208 0,-189 38,-189 38,-208"/>
<text text-anchor="middle" x="19" y="-196" font-family="Helvetica,sans-Serif" font-size="10.00">main</text>
</a>
</g>
</g>
<!-- Node4&#45;&gt;Node5 -->
<g id="edge4_Node000004_Node000005" class="edge"><title>Node4&#45;&gt;Node5</title>
<g id="a_edge4_Node000004_Node000005"><a xlink:title=" ">
<path fill="none" stroke="#63b8ff" d="M106.942,-297.86C96.0413,-291.239 83.7645,-282.81 74,-273.5 52.6332,-253.128 34.0847,-223.296 25.3413,-208.126"/>
<polygon fill="#63b8ff" stroke="#63b8ff" points="105.29,-300.948 115.69,-302.975 108.824,-294.906 105.29,-300.948"/>
</a>
</g>
</g>
<!-- Node6&#45;&gt;Node4 -->
<g id="edge6_Node000006_Node000004" class="edge"><title>Node6&#45;&gt;Node4</title>
<g id="a_edge6_Node000006_Node000004"><a xlink:title=" ">
<path fill="none" stroke="#63b8ff" d="M377.614,-312.5C320.932,-312.5 215.309,-312.5 164.605,-312.5"/>
<polygon fill="#63b8ff" stroke="#63b8ff" points="377.936,-316 387.936,-312.5 377.936,-309 377.936,-316"/>
</a>
</g>
</g>
<!-- Node7 -->
<g id="Node000007" class="node"><title>Node7</title>
<g id="a_Node000007"><a xlink:href="heap__sort_8c.html#aceaf0618c69440f1e439e224eb6945dc" target="_top" xlink:title="Vnitřní a lokální funkce realizující uspořádání elementů vektoru do haldy.">
<polygon fill="white" stroke="#666666" points="305,-303 258,-303 258,-284 305,-284 305,-303"/>
<text text-anchor="middle" x="281.5" y="-291" font-family="Helvetica,sans-Serif" font-size="10.00">heapify</text>
</a>
</g>
</g>
<!-- Node6&#45;&gt;Node7 -->
<g id="edge7_Node000006_Node000007" class="edge"><title>Node6&#45;&gt;Node7</title>
<g id="a_edge7_Node000006_Node000007"><a xlink:title=" ">
<path fill="none" stroke="#63b8ff" d="M377.975,-307.139C354.526,-303.789 325.103,-299.586 305.163,-296.738"/>
<polygon fill="#63b8ff" stroke="#63b8ff" points="377.548,-310.614 387.942,-308.563 378.538,-303.684 377.548,-310.614"/>
</a>
</g>
</g>
<!-- Node7&#45;&gt;Node4 -->
<g id="edge8_Node000007_Node000004" class="edge"><title>Node7&#45;&gt;Node4</title>
<g id="a_edge8_Node000007_Node000004"><a xlink:title=" ">
<path fill="none" stroke="#63b8ff" d="M247.812,-297.798C222.783,-301.089 188.595,-305.584 164.635,-308.735"/>
<polygon fill="#63b8ff" stroke="#63b8ff" points="248.464,-301.243 257.922,-296.469 247.551,-294.302 248.464,-301.243"/>
</a>
</g>
</g>
<!-- Node8&#45;&gt;Node5 -->
<g id="edge10_Node000008_Node000005" class="edge"><title>Node8&#45;&gt;Node5</title>
<g id="a_edge10_Node000008_Node000005"><a xlink:title=" ">
<path fill="none" stroke="#63b8ff" d="M97.8276,-242.173C89.8666,-238.925 81.5587,-235.288 74,-231.5 60.0517,-224.511 44.9627,-215.122 34.29,-208.146"/>
<polygon fill="#63b8ff" stroke="#63b8ff" points="96.7064,-245.493 107.292,-245.924 99.2858,-238.986 96.7064,-245.493"/>
</a>
</g>
</g>
<!-- Node10 -->
<g id="Node000010" class="node"><title>Node10</title>
<g id="a_Node000010"><a xlink:href="merge__sort_8c.html#a41bfb4129631a73ffc60c10381af80c2" target="_top" xlink:title="Vnitřní a lokální funkce realizující rekurzivní funkci pro metodu (Merge Sort)">
<polygon fill="white" stroke="#666666" points="466,-209 367,-209 367,-190 466,-190 466,-209"/>
<text text-anchor="middle" x="416.5" y="-197" font-family="Helvetica,sans-Serif" font-size="10.00">merge_sort_worker</text>
</a>
</g>
</g>
<!-- Node9&#45;&gt;Node10 -->
<g id="edge12_Node000009_Node000010" class="edge"><title>Node9&#45;&gt;Node10</title>
<g id="a_edge12_Node000009_Node000010"><a xlink:title=" ">
<path fill="none" stroke="#63b8ff" d="M531.789,-199.5C512.388,-199.5 487.558,-199.5 466.001,-199.5"/>
<polygon fill="#63b8ff" stroke="#63b8ff" points="531.953,-203 541.953,-199.5 531.953,-196 531.953,-203"/>
</a>
</g>
</g>
<!-- Node10&#45;&gt;Node10 -->
<g id="edge15_Node000010_Node000010" class="edge"><title>Node10&#45;&gt;Node10</title>
<g id="a_edge15_Node000010_Node000010"><a xlink:title=" ">
<path fill="none" stroke="#63b8ff" d="M441.425,-218.189C440.066,-223.197 431.757,-227 416.5,-227 392.684,-227 385.799,-217.734 395.847,-209.083"/>
<polygon fill="#63b8ff" stroke="#63b8ff" points="444.569,-216.65 437.153,-209.083 438.232,-219.623 444.569,-216.65"/>
</a>
</g>
</g>
<!-- Node11 -->
<g id="Node000011" class="node"><title>Node11</title>
<g id="a_Node000011"><a xlink:href="group___powerful_sorts.html#gaca54b9dda831aa79008867770c96413e" target="_top" xlink:title="Třídění pomocí metody slučováním (Merge sort) využívající rekurzivní rozklad.">
<polygon fill="white" stroke="#666666" points="314,-227 249,-227 249,-208 314,-208 314,-227"/>
<text text-anchor="middle" x="281.5" y="-215" font-family="Helvetica,sans-Serif" font-size="10.00">merge_sort</text>
</a>
</g>
</g>
<!-- Node10&#45;&gt;Node11 -->
<g id="edge13_Node000010_Node000011" class="edge"><title>Node10&#45;&gt;Node11</title>
<g id="a_edge13_Node000010_Node000011"><a xlink:title=" ">
<path fill="none" stroke="#63b8ff" d="M356.738,-207.453C342.137,-209.429 327.031,-211.473 314.288,-213.198"/>
<polygon fill="#63b8ff" stroke="#63b8ff" points="357.291,-210.91 366.731,-206.1 356.352,-203.973 357.291,-210.91"/>
</a>
</g>
</g>
<!-- Node11&#45;&gt;Node5 -->
<g id="edge14_Node000011_Node000005" class="edge"><title>Node11&#45;&gt;Node5</title>
<g id="a_edge14_Node000011_Node000005"><a xlink:title=" ">
<path fill="none" stroke="#63b8ff" d="M238.583,-214.443C180.919,-210.237 79.573,-202.845 38.283,-199.834"/>
<polygon fill="#63b8ff" stroke="#63b8ff" points="238.59,-217.952 248.818,-215.189 239.099,-210.971 238.59,-217.952"/>
</a>
</g>
</g>
<!-- Node12&#45;&gt;Node5 -->
<g id="edge17_Node000012_Node000005" class="edge"><title>Node12&#45;&gt;Node5</title>
<g id="a_edge17_Node000012_Node000005"><a xlink:title=" ">
<path fill="none" stroke="#63b8ff" d="M376.62,-166.039C292.865,-173.663 98.1187,-191.389 38.0017,-196.861"/>
<polygon fill="#63b8ff" stroke="#63b8ff" points="377.097,-169.51 386.738,-165.118 376.462,-162.539 377.097,-169.51"/>
</a>
</g>
</g>
<!-- Node14 -->
<g id="Node000014" class="node"><title>Node14</title>
<g id="a_Node000014"><a xlink:href="merge__sort__with__span_8c.html#a8c83f4f60393434eff082ca19f5f14ad" target="_top" xlink:title="Vnitřní a lokální funkce realizující sloučení dvou již setříděných rozsahů (Spanů)">
<polygon fill="white" stroke="#666666" points="440.5,-133 392.5,-133 392.5,-114 440.5,-114 440.5,-133"/>
<text text-anchor="middle" x="416.5" y="-121" font-family="Helvetica,sans-Serif" font-size="10.00">mergify</text>
</a>
</g>
</g>
<!-- Node13&#45;&gt;Node14 -->
<g id="edge19_Node000013_Node000014" class="edge"><title>Node13&#45;&gt;Node14</title>
<g id="a_edge19_Node000013_Node000014"><a xlink:title=" ">
<path fill="none" stroke="#63b8ff" d="M500.858,-123.5C479.458,-123.5 456.959,-123.5 440.737,-123.5"/>
<polygon fill="#63b8ff" stroke="#63b8ff" points="500.914,-127 510.914,-123.5 500.914,-120 500.914,-127"/>
</a>
</g>
</g>
<!-- Node15 -->
<g id="Node000015" class="node"><title>Node15</title>
<g id="a_Node000015"><a xlink:href="merge__sort__with__span_8c.html#acfb719292b2ea89b714190280e0021b0" target="_top" xlink:title="Vnitřní a lokální funkce realizující rekurzivní funkci pro metodu (Merge Sort)">
<polygon fill="white" stroke="#666666" points="331,-133 232,-133 232,-114 331,-114 331,-133"/>
<text text-anchor="middle" x="281.5" y="-121" font-family="Helvetica,sans-Serif" font-size="10.00">merge_sort_worker</text>
</a>
</g>
</g>
<!-- Node14&#45;&gt;Node15 -->
<g id="edge20_Node000014_Node000015" class="edge"><title>Node14&#45;&gt;Node15</title>
<g id="a_edge20_Node000014_Node000015"><a xlink:title=" ">
<path fill="none" stroke="#63b8ff" d="M382.194,-123.5C366.715,-123.5 348.011,-123.5 331.004,-123.5"/>
<polygon fill="#63b8ff" stroke="#63b8ff" points="382.333,-127 392.333,-123.5 382.333,-120 382.333,-127"/>
</a>
</g>
</g>
<!-- Node15&#45;&gt;Node15 -->
<g id="edge23_Node000015_Node000015" class="edge"><title>Node15&#45;&gt;Node15</title>
<g id="a_edge23_Node000015_Node000015"><a xlink:title=" ">
<path fill="none" stroke="#63b8ff" d="M306.425,-142.189C305.066,-147.197 296.757,-151 281.5,-151 257.684,-151 250.799,-141.734 260.847,-133.083"/>
<polygon fill="#63b8ff" stroke="#63b8ff" points="309.569,-140.65 302.153,-133.083 303.232,-143.623 309.569,-140.65"/>
</a>
</g>
</g>
<!-- Node16 -->
<g id="Node000016" class="node"><title>Node16</title>
<g id="a_Node000016"><a xlink:href="group___powerful_sorts.html#ga879a216389959b8a25490288ba4e63dc" target="_top" xlink:title="Třídění pomocí metody slučováním (Merge sort) využívající rekurzivní rozklad a datový typ span.">
<polygon fill="white" stroke="#666666" points="192,-142 78,-142 78,-123 192,-123 192,-142"/>
<text text-anchor="middle" x="135" y="-130" font-family="Helvetica,sans-Serif" font-size="10.00">merge_sort_with_span</text>
</a>
</g>
</g>
<!-- Node15&#45;&gt;Node16 -->
<g id="edge21_Node000015_Node000016" class="edge"><title>Node15&#45;&gt;Node16</title>
<g id="a_edge21_Node000015_Node000016"><a xlink:title=" ">
<path fill="none" stroke="#63b8ff" d="M221.898,-127.15C212.071,-127.762 201.893,-128.396 192.129,-129.004"/>
<polygon fill="#63b8ff" stroke="#63b8ff" points="222.219,-130.637 231.982,-126.522 221.783,-123.65 222.219,-130.637"/>
</a>
</g>
</g>
<!-- Node16&#45;&gt;Node5 -->
<g id="edge22_Node000016_Node000005" class="edge"><title>Node16&#45;&gt;Node5</title>
<g id="a_edge22_Node000016_Node000005"><a xlink:title=" ">
<path fill="none" stroke="#63b8ff" d="M107.009,-147.004C96.6305,-152.67 84.7072,-159.288 74,-165.5 60.8852,-173.109 46.218,-182.104 35.4831,-188.779"/>
<polygon fill="#63b8ff" stroke="#63b8ff" points="108.91,-149.955 116.027,-142.107 105.569,-143.803 108.91,-149.955"/>
</a>
</g>
</g>
<!-- Node18 -->
<g id="Node000018" class="node"><title>Node18</title>
<g id="a_Node000018"><a xlink:href="group___t_heap.html#gaa7548708d4ee2e6afd1366cccc135f6a" target="_top" xlink:title="Přesun hodnoty uzlu haldy určené dvěma iterátory.">
<polygon fill="white" stroke="#666666" points="630,-95 502,-95 502,-76 630,-76 630,-95"/>
<text text-anchor="middle" x="566" y="-83" font-family="Helvetica,sans-Serif" font-size="10.00">heap_move_with_iterators</text>
</a>
</g>
</g>
<!-- Node17&#45;&gt;Node18 -->
<g id="edge25_Node000017_Node000018" class="edge"><title>Node17&#45;&gt;Node18</title>
<g id="a_edge25_Node000017_Node000018"><a xlink:title=" ">
<path fill="none" stroke="#63b8ff" d="M655.294,-85.5C646.84,-85.5 638.301,-85.5 630.036,-85.5"/>
<polygon fill="#63b8ff" stroke="#63b8ff" points="655.539,-89.0001 665.539,-85.5 655.539,-82.0001 655.539,-89.0001"/>
</a>
</g>
</g>
<!-- Node22 -->
<g id="Node000022" class="node"><title>Node22</title>
<g id="a_Node000022"><a xlink:href="group___t_span.html#ga972048723036512595f461c3ba0a9d21" target="_top" xlink:title="Přesun hodnoty elementu Spanu určené dvěma iterátory.">
<polygon fill="white" stroke="#666666" points="630,-58 502,-58 502,-39 630,-39 630,-58"/>
<text text-anchor="middle" x="566" y="-46" font-family="Helvetica,sans-Serif" font-size="10.00">span_move_with_iterators</text>
</a>
</g>
</g>
<!-- Node17&#45;&gt;Node22 -->
<g id="edge32_Node000017_Node000022" class="edge"><title>Node17&#45;&gt;Node22</title>
<g id="a_edge32_Node000017_Node000022"><a xlink:title=" ">
<path fill="none" stroke="#63b8ff" d="M679.09,-73.7116C656.632,-68.6604 630.742,-62.837 609.505,-58.0604"/>
<polygon fill="#63b8ff" stroke="#63b8ff" points="678.613,-77.1918 689.137,-75.9716 680.149,-70.3624 678.613,-77.1918"/>
</a>
</g>
</g>
<!-- Node19 -->
<g id="Node000019" class="node"><title>Node19</title>
<g id="a_Node000019"><a xlink:href="group___powerful_sorts.html#ga84762e575f9465881e13d17072186ddd" target="_top" xlink:title="Třídění pomocí haldy (Heap Sort) využívající iterátorové API pro přístup k elementům vektoru.">
<polygon fill="white" stroke="#666666" points="196,-76 74,-76 74,-57 196,-57 196,-76"/>
<text text-anchor="middle" x="135" y="-64" font-family="Helvetica,sans-Serif" font-size="10.00">heap_sort_with_iterators</text>
</a>
</g>
</g>
<!-- Node18&#45;&gt;Node19 -->
<g id="edge26_Node000018_Node000019" class="edge"><title>Node18&#45;&gt;Node19</title>
<g id="a_edge26_Node000018_Node000019"><a xlink:title=" ">
<path fill="none" stroke="#63b8ff" d="M491.667,-82.6281C424.188,-79.9354 321.338,-75.7044 232,-71.5 220.414,-70.9547 208.043,-70.337 196.168,-69.7264"/>
<polygon fill="#63b8ff" stroke="#63b8ff" points="491.641,-86.1298 501.773,-83.0305 491.92,-79.1353 491.641,-86.1298"/>
</a>
</g>
</g>
<!-- Node20 -->
<g id="Node000020" class="node"><title>Node20</title>
<g id="a_Node000020"><a xlink:href="heap__sort__with__iterators_8c.html#a7bf828c9c4eb35c2121c3f7d1177d19b" target="_top" xlink:title="Vnitřní a lokální funkce zajišťující vložení hodnoty do zvoleného uzlu haldy, při zachování podmínek ...">
<polygon fill="white" stroke="#666666" points="445,-57 388,-57 388,-38 445,-38 445,-57"/>
<text text-anchor="middle" x="416.5" y="-45" font-family="Helvetica,sans-Serif" font-size="10.00">sift_down</text>
</a>
</g>
</g>
<!-- Node18&#45;&gt;Node20 -->
<g id="edge28_Node000018_Node000020" class="edge"><title>Node18&#45;&gt;Node20</title>
<g id="a_edge28_Node000018_Node000020"><a xlink:title=" ">
<path fill="none" stroke="#63b8ff" d="M517.845,-73.3517C493.97,-67.2007 465.801,-59.9435 445.395,-54.6866"/>
<polygon fill="#63b8ff" stroke="#63b8ff" points="517.223,-76.8054 527.78,-75.911 518.969,-70.0268 517.223,-76.8054"/>
</a>
</g>
</g>
<!-- Node19&#45;&gt;Node5 -->
<g id="edge27_Node000019_Node000005" class="edge"><title>Node19&#45;&gt;Node5</title>
<g id="a_edge27_Node000019_Node000005"><a xlink:title=" ">
<path fill="none" stroke="#63b8ff" d="M110.547,-82.0008C98.7712,-90.463 84.7612,-101.623 74,-113.5 51.9314,-137.858 33.1535,-172.281 24.7348,-188.85"/>
<polygon fill="#63b8ff" stroke="#63b8ff" points="112.824,-84.6794 119.025,-76.0884 108.82,-78.9376 112.824,-84.6794"/>
</a>
</g>
</g>
<!-- Node20&#45;&gt;Node19 -->
<g id="edge29_Node000020_Node000019" class="edge"><title>Node20&#45;&gt;Node19</title>
<g id="a_edge29_Node000020_Node000019"><a xlink:title=" ">
<path fill="none" stroke="#63b8ff" d="M377.956,-50.0522C331.327,-53.222 251.202,-58.6687 196.012,-62.4205"/>
<polygon fill="#63b8ff" stroke="#63b8ff" points="378.196,-53.544 387.936,-49.3738 377.721,-46.5602 378.196,-53.544"/>
</a>
</g>
</g>
<!-- Node21 -->
<g id="Node000021" class="node"><title>Node21</title>
<g id="a_Node000021"><a xlink:href="heap__sort__with__iterators_8c.html#aceaf0618c69440f1e439e224eb6945dc" target="_top" xlink:title="Vnitřní a lokální funkce realizující uspořádání elementů vektoru do haldy.">
<polygon fill="white" stroke="#666666" points="305,-19 258,-19 258,-0 305,-0 305,-19"/>
<text text-anchor="middle" x="281.5" y="-7" font-family="Helvetica,sans-Serif" font-size="10.00">heapify</text>
</a>
</g>
</g>
<!-- Node20&#45;&gt;Node21 -->
<g id="edge30_Node000020_Node000021" class="edge"><title>Node20&#45;&gt;Node21</title>
<g id="a_edge30_Node000020_Node000021"><a xlink:title=" ">
<path fill="none" stroke="#63b8ff" d="M378.29,-36.8686C354.79,-30.1544 325.192,-21.6979 305.163,-15.9751"/>
<polygon fill="#63b8ff" stroke="#63b8ff" points="377.366,-40.2444 387.942,-39.6264 379.289,-33.5138 377.366,-40.2444"/>
</a>
</g>
</g>
<!-- Node21&#45;&gt;Node19 -->
<g id="edge31_Node000021_Node000019" class="edge"><title>Node21&#45;&gt;Node19</title>
<g id="a_edge31_Node000021_Node000019"><a xlink:title=" ">
<path fill="none" stroke="#63b8ff" d="M248.295,-22.2035C221.698,-32.6954 184.516,-47.362 160.349,-56.8952"/>
<polygon fill="#63b8ff" stroke="#63b8ff" points="249.904,-25.3316 257.922,-18.4063 247.335,-18.8199 249.904,-25.3316"/>
</a>
</g>
</g>
</g>
</svg>
