<?xml version="1.0" encoding="UTF-8" standalone="no"?>
<!DOCTYPE svg PUBLIC "-//W3C//DTD SVG 1.1//EN"
 "http://www.w3.org/Graphics/SVG/1.1/DTD/svg11.dtd">
<!-- Generated by graphviz version 2.38.0 (20140413.2041)
 -->
<!-- Title: vector_fast_set_value Pages: 1 -->
<svg width="829pt" height="229pt"
 viewBox="0.00 0.00 829.00 228.54" xmlns="http://www.w3.org/2000/svg" xmlns:xlink="http://www.w3.org/1999/xlink">
<g id="graph0" class="graph" transform="scale(1 1) rotate(0) translate(4 224.54)">
<title>vector_fast_set_value</title>
<!-- Node1 -->
<g id="Node000001" class="node"><title>Node1</title>
<g id="a_Node000001"><a xlink:title=" ">
<polygon fill="#999999" stroke="#666666" points="821,-133 712,-133 712,-114 821,-114 821,-133"/>
<text text-anchor="middle" x="766.5" y="-121" font-family="Helvetica,sans-Serif" font-size="10.00">vector_fast_set_value</text>
</a>
</g>
</g>
<!-- Node2 -->
<g id="Node000002" class="node"><title>Node2</title>
<g id="a_Node000002"><a xlink:href="group___t_vector_iterator.html#ga66f6b96e416a7e593b1cf703f58be7ca" target="_top" xlink:title="Zapsání hodnoty elementu do vektoru pomocí iterátoru.">
<polygon fill="white" stroke="#666666" points="676,-176.5 580,-176.5 580,-146.5 676,-146.5 676,-176.5"/>
<text text-anchor="start" x="588" y="-164.5" font-family="Helvetica,sans-Serif" font-size="10.00">vector_iterator_set</text>
<text text-anchor="middle" x="628" y="-153.5" font-family="Helvetica,sans-Serif" font-size="10.00">_value</text>
</a>
</g>
</g>
<!-- Node1&#45;&gt;Node2 -->
<g id="edge1_Node000001_Node000002" class="edge"><title>Node1&#45;&gt;Node2</title>
<g id="a_edge1_Node000001_Node000002"><a xlink:title=" ">
<path fill="none" stroke="#63b8ff" d="M721.34,-135.794C706.87,-139.822 690.742,-144.312 676.065,-148.398"/>
<polygon fill="#63b8ff" stroke="#63b8ff" points="722.36,-139.143 731.055,-133.089 720.483,-132.399 722.36,-139.143"/>
</a>
</g>
</g>
<!-- Node9 -->
<g id="Node000009" class="node"><title>Node9</title>
<g id="a_Node000009"><a xlink:href="group___t_vector.html#gabd5ba54950295545d27b1286234ead39" target="_top" xlink:title="Zapsání hodnoty elementu do vektoru na požadovanou pozici.">
<polygon fill="white" stroke="#666666" points="672,-95 584,-95 584,-76 672,-76 672,-95"/>
<text text-anchor="middle" x="628" y="-83" font-family="Helvetica,sans-Serif" font-size="10.00">vector_set_value</text>
</a>
</g>
</g>
<!-- Node1&#45;&gt;Node9 -->
<g id="edge9_Node000001_Node000009" class="edge"><title>Node1&#45;&gt;Node9</title>
<g id="a_edge9_Node000001_Node000009"><a xlink:title=" ">
<path fill="none" stroke="#63b8ff" d="M721.251,-111.182C702.497,-105.961 680.972,-99.9684 663.434,-95.0859"/>
<polygon fill="#63b8ff" stroke="#63b8ff" points="720.483,-114.601 731.055,-113.911 722.36,-107.857 720.483,-114.601"/>
</a>
</g>
</g>
<!-- Node3 -->
<g id="Node000003" class="node"><title>Node3</title>
<g id="a_Node000003"><a xlink:href="group___t_heap.html#gad1c0b47027aa5f072c7275f86b8b2c2a" target="_top" xlink:title="Zapsání hodnoty uzlu haldy pomocí iterátoru.">
<polygon fill="white" stroke="#666666" points="544,-208 425,-208 425,-189 544,-189 544,-208"/>
<text text-anchor="middle" x="484.5" y="-196" font-family="Helvetica,sans-Serif" font-size="10.00">heap_iterator_set_value</text>
</a>
</g>
</g>
<!-- Node2&#45;&gt;Node3 -->
<g id="edge2_Node000002_Node000003" class="edge"><title>Node2&#45;&gt;Node3</title>
<g id="a_edge2_Node000002_Node000003"><a xlink:title=" ">
<path fill="none" stroke="#63b8ff" d="M569.991,-176.407C553.847,-180.628 536.711,-185.109 522.121,-188.924"/>
<polygon fill="#63b8ff" stroke="#63b8ff" points="571.093,-179.736 579.883,-173.82 569.322,-172.964 571.093,-179.736"/>
</a>
</g>
</g>
<!-- Node8 -->
<g id="Node000008" class="node"><title>Node8</title>
<g id="a_Node000008"><a xlink:href="group___t_span.html#gad7325743f683c214db12e5f7070569a7" target="_top" xlink:title="Zapsání hodnoty elementu do Spanu pomocí iterátoru.">
<polygon fill="white" stroke="#666666" points="544,-171 425,-171 425,-152 544,-152 544,-171"/>
<text text-anchor="middle" x="484.5" y="-159" font-family="Helvetica,sans-Serif" font-size="10.00">span_iterator_set_value</text>
</a>
</g>
</g>
<!-- Node2&#45;&gt;Node8 -->
<g id="edge8_Node000002_Node000008" class="edge"><title>Node2&#45;&gt;Node8</title>
<g id="a_edge8_Node000002_Node000008"><a xlink:title=" ">
<path fill="none" stroke="#63b8ff" d="M569.784,-161.5C561.369,-161.5 552.689,-161.5 544.244,-161.5"/>
<polygon fill="#63b8ff" stroke="#63b8ff" points="569.883,-165 579.883,-161.5 569.883,-158 569.883,-165"/>
</a>
</g>
</g>
<!-- Node4 -->
<g id="Node000004" class="node"><title>Node4</title>
<g id="a_Node000004"><a xlink:href="heap__sort__with__iterators_8c.html#a7bf828c9c4eb35c2121c3f7d1177d19b" target="_top" xlink:title="Vnitřní a lokální funkce zajišťující vložení hodnoty do zvoleného uzlu haldy, při zachování podmínek ...">
<polygon fill="white" stroke="#666666" points="386.5,-209 329.5,-209 329.5,-190 386.5,-190 386.5,-209"/>
<text text-anchor="middle" x="358" y="-197" font-family="Helvetica,sans-Serif" font-size="10.00">sift_down</text>
</a>
</g>
</g>
<!-- Node3&#45;&gt;Node4 -->
<g id="edge3_Node000003_Node000004" class="edge"><title>Node3&#45;&gt;Node4</title>
<g id="a_edge3_Node000003_Node000004"><a xlink:title=" ">
<path fill="none" stroke="#63b8ff" d="M414.864,-199.051C404.868,-199.132 395.094,-199.21 386.587,-199.278"/>
<polygon fill="#63b8ff" stroke="#63b8ff" points="414.924,-202.551 424.896,-198.971 414.868,-195.551 414.924,-202.551"/>
</a>
</g>
</g>
<!-- Node5 -->
<g id="Node000005" class="node"><title>Node5</title>
<g id="a_Node000005"><a xlink:href="group___powerful_sorts.html#ga84762e575f9465881e13d17072186ddd" target="_top" xlink:title="Třídění pomocí haldy (Heap Sort) využívající iterátorové API pro přístup k elementům vektoru.">
<polygon fill="white" stroke="#666666" points="196,-209 74,-209 74,-190 196,-190 196,-209"/>
<text text-anchor="middle" x="135" y="-197" font-family="Helvetica,sans-Serif" font-size="10.00">heap_sort_with_iterators</text>
</a>
</g>
</g>
<!-- Node4&#45;&gt;Node5 -->
<g id="edge4_Node000004_Node000005" class="edge"><title>Node4&#45;&gt;Node5</title>
<g id="a_edge4_Node000004_Node000005"><a xlink:title=" ">
<path fill="none" stroke="#63b8ff" d="M320.784,-211.897C311.214,-214.627 300.814,-217.115 291,-218.5 249.927,-224.294 202.584,-216.376 171.137,-209.066"/>
<polygon fill="#63b8ff" stroke="#63b8ff" points="321.831,-215.237 330.397,-209.001 319.812,-208.534 321.831,-215.237"/>
</a>
</g>
</g>
<!-- Node7 -->
<g id="Node000007" class="node"><title>Node7</title>
<g id="a_Node000007"><a xlink:href="heap__sort__with__iterators_8c.html#aceaf0618c69440f1e439e224eb6945dc" target="_top" xlink:title="Vnitřní a lokální funkce realizující uspořádání elementů vektoru do haldy.">
<polygon fill="white" stroke="#666666" points="285,-209 238,-209 238,-190 285,-190 285,-209"/>
<text text-anchor="middle" x="261.5" y="-197" font-family="Helvetica,sans-Serif" font-size="10.00">heapify</text>
</a>
</g>
</g>
<!-- Node4&#45;&gt;Node7 -->
<g id="edge6_Node000004_Node000007" class="edge"><title>Node4&#45;&gt;Node7</title>
<g id="a_edge6_Node000004_Node000007"><a xlink:title=" ">
<path fill="none" stroke="#63b8ff" d="M319.147,-199.5C307.642,-199.5 295.362,-199.5 285.187,-199.5"/>
<polygon fill="#63b8ff" stroke="#63b8ff" points="319.413,-203 329.413,-199.5 319.413,-196 319.413,-203"/>
</a>
</g>
</g>
<!-- Node6 -->
<g id="Node000006" class="node"><title>Node6</title>
<g id="a_Node000006"><a xlink:href="group___main_program.html#ga0ddf1224851353fc92bfbff6f499fa97" target="_top" xlink:title=" ">
<polygon fill="white" stroke="#666666" points="38,-114 0,-114 0,-95 38,-95 38,-114"/>
<text text-anchor="middle" x="19" y="-102" font-family="Helvetica,sans-Serif" font-size="10.00">main</text>
</a>
</g>
</g>
<!-- Node5&#45;&gt;Node6 -->
<g id="edge5_Node000005_Node000006" class="edge"><title>Node5&#45;&gt;Node6</title>
<g id="a_edge5_Node000005_Node000006"><a xlink:title=" ">
<path fill="none" stroke="#63b8ff" d="M114.506,-183.255C90.6462,-163.372 51.0198,-130.35 31.5368,-114.114"/>
<polygon fill="#63b8ff" stroke="#63b8ff" points="112.306,-185.978 122.229,-189.691 116.788,-180.6 112.306,-185.978"/>
</a>
</g>
</g>
<!-- Node7&#45;&gt;Node5 -->
<g id="edge7_Node000007_Node000005" class="edge"><title>Node7&#45;&gt;Node5</title>
<g id="a_edge7_Node000007_Node000005"><a xlink:title=" ">
<path fill="none" stroke="#63b8ff" d="M227.886,-199.5C218.085,-199.5 207.005,-199.5 196.018,-199.5"/>
<polygon fill="#63b8ff" stroke="#63b8ff" points="227.954,-203 237.954,-199.5 227.954,-196 227.954,-203"/>
</a>
</g>
</g>
<!-- Node10 -->
<g id="Node000010" class="node"><title>Node10</title>
<g id="a_Node000010"><a xlink:href="group___t_heap.html#gac522fe67b5a330d6289f4566a2f1aff4" target="_top" xlink:title="Zapsání hodnoty do uzlu haldy na požadovanou pozici.">
<polygon fill="white" stroke="#666666" points="526,-133 443,-133 443,-114 526,-114 526,-133"/>
<text text-anchor="middle" x="484.5" y="-121" font-family="Helvetica,sans-Serif" font-size="10.00">heap_set_value</text>
</a>
</g>
</g>
<!-- Node9&#45;&gt;Node10 -->
<g id="edge10_Node000009_Node000010" class="edge"><title>Node9&#45;&gt;Node10</title>
<g id="a_edge10_Node000009_Node000010"><a xlink:title=" ">
<path fill="none" stroke="#63b8ff" d="M581.399,-97.7462C561.895,-102.984 539.46,-109.009 521.195,-113.914"/>
<polygon fill="#63b8ff" stroke="#63b8ff" points="582.544,-101.063 591.294,-95.089 580.728,-94.3025 582.544,-101.063"/>
</a>
</g>
</g>
<!-- Node14 -->
<g id="Node000014" class="node"><title>Node14</title>
<g id="a_Node000014"><a xlink:href="group___basic_sorts.html#gac3903c3fd846908cd362e293ed40582e" target="_top" xlink:title="Třídění přímým vkládáním (Insert Sort)">
<polygon fill="white" stroke="#666666" points="389,-95 327,-95 327,-76 389,-76 389,-95"/>
<text text-anchor="middle" x="358" y="-83" font-family="Helvetica,sans-Serif" font-size="10.00">insert_sort</text>
</a>
</g>
</g>
<!-- Node9&#45;&gt;Node14 -->
<g id="edge16_Node000009_Node000014" class="edge"><title>Node9&#45;&gt;Node14</title>
<g id="a_edge16_Node000009_Node000014"><a xlink:title=" ">
<path fill="none" stroke="#63b8ff" d="M573.623,-85.5C518.278,-85.5 433.727,-85.5 389.062,-85.5"/>
<polygon fill="#63b8ff" stroke="#63b8ff" points="573.941,-89.0001 583.941,-85.5 573.941,-82.0001 573.941,-89.0001"/>
</a>
</g>
</g>
<!-- Node15 -->
<g id="Node000015" class="node"><title>Node15</title>
<g id="a_Node000015"><a xlink:href="group___advanced_sorts.html#gaee070b00692f425d83eaea28b37bab2b" target="_top" xlink:title="Shellovo třídění vkládáním s ubývajícím krokem (Shell Sort) dle Hibbardovy posloupnosti.">
<polygon fill="white" stroke="#666666" points="291,-57 232,-57 232,-38 291,-38 291,-57"/>
<text text-anchor="middle" x="261.5" y="-45" font-family="Helvetica,sans-Serif" font-size="10.00">shell_sort</text>
</a>
</g>
</g>
<!-- Node9&#45;&gt;Node15 -->
<g id="edge18_Node000009_Node000015" class="edge"><title>Node9&#45;&gt;Node15</title>
<g id="a_edge18_Node000009_Node000015"><a xlink:title=" ">
<path fill="none" stroke="#63b8ff" d="M573.612,-79.9342C495.286,-71.7685 351.942,-56.8246 291.064,-50.4778"/>
<polygon fill="#63b8ff" stroke="#63b8ff" points="573.447,-83.4358 583.756,-80.9917 574.173,-76.4736 573.447,-83.4358"/>
</a>
</g>
</g>
<!-- Node16 -->
<g id="Node000016" class="node"><title>Node16</title>
<g id="a_Node000016"><a xlink:href="group___t_span.html#ga56e402bae9f24dffb084212da636a128" target="_top" xlink:title="Zapsání hodnoty elementu do Spanu na požadovanou pozici.">
<polygon fill="white" stroke="#666666" points="526,-19 443,-19 443,-0 526,-0 526,-19"/>
<text text-anchor="middle" x="484.5" y="-7" font-family="Helvetica,sans-Serif" font-size="10.00">span_set_value</text>
</a>
</g>
</g>
<!-- Node9&#45;&gt;Node16 -->
<g id="edge20_Node000009_Node000016" class="edge"><title>Node9&#45;&gt;Node16</title>
<g id="a_edge20_Node000009_Node000016"><a xlink:title=" ">
<path fill="none" stroke="#63b8ff" d="M604.972,-70.2536C588.585,-59.2726 565.44,-44.5127 544,-33.5 533.649,-28.1834 521.84,-23.1549 511.556,-19.0874"/>
<polygon fill="#63b8ff" stroke="#63b8ff" points="603.087,-73.2036 613.328,-75.9176 607.014,-67.4094 603.087,-73.2036"/>
</a>
</g>
</g>
<!-- Node11 -->
<g id="Node000011" class="node"><title>Node11</title>
<g id="a_Node000011"><a xlink:href="heap__sort_8c.html#a1572325ec24b4714bb9bbd64229d85d0" target="_top" xlink:title="Vnitřní a lokální funkce zajišťující vložení hodnoty do zvoleného uzlu haldy, při zachování podmínek ...">
<polygon fill="white" stroke="#666666" points="386.5,-133 329.5,-133 329.5,-114 386.5,-114 386.5,-133"/>
<text text-anchor="middle" x="358" y="-121" font-family="Helvetica,sans-Serif" font-size="10.00">sift_down</text>
</a>
</g>
</g>
<!-- Node10&#45;&gt;Node11 -->
<g id="edge11_Node000010_Node000011" class="edge"><title>Node10&#45;&gt;Node11</title>
<g id="a_edge11_Node000010_Node000011"><a xlink:title=" ">
<path fill="none" stroke="#63b8ff" d="M432.641,-123.5C416.999,-123.5 400.363,-123.5 386.868,-123.5"/>
<polygon fill="#63b8ff" stroke="#63b8ff" points="432.734,-127 442.734,-123.5 432.734,-120 432.734,-127"/>
</a>
</g>
</g>
<!-- Node12 -->
<g id="Node000012" class="node"><title>Node12</title>
<g id="a_Node000012"><a xlink:href="group___powerful_sorts.html#gaf564949cc194e5feea63d6c2aaa3125a" target="_top" xlink:title="Třídění pomocí haldy (Heap Sort) využívající poziční API pro přístup k elementům vektoru.">
<polygon fill="white" stroke="#666666" points="164.5,-133 105.5,-133 105.5,-114 164.5,-114 164.5,-133"/>
<text text-anchor="middle" x="135" y="-121" font-family="Helvetica,sans-Serif" font-size="10.00">heap_sort</text>
</a>
</g>
</g>
<!-- Node11&#45;&gt;Node12 -->
<g id="edge12_Node000011_Node000012" class="edge"><title>Node11&#45;&gt;Node12</title>
<g id="a_edge12_Node000011_Node000012"><a xlink:title=" ">
<path fill="none" stroke="#63b8ff" d="M319.677,-135.533C310.406,-138.005 300.423,-140.238 291,-141.5 246.965,-147.397 195.737,-138.351 164.605,-131.088"/>
<polygon fill="#63b8ff" stroke="#63b8ff" points="320.725,-138.874 329.399,-132.789 318.824,-132.137 320.725,-138.874"/>
</a>
</g>
</g>
<!-- Node13 -->
<g id="Node000013" class="node"><title>Node13</title>
<g id="a_Node000013"><a xlink:href="heap__sort_8c.html#aceaf0618c69440f1e439e224eb6945dc" target="_top" xlink:title="Vnitřní a lokální funkce realizující uspořádání elementů vektoru do haldy.">
<polygon fill="white" stroke="#666666" points="285,-133 238,-133 238,-114 285,-114 285,-133"/>
<text text-anchor="middle" x="261.5" y="-121" font-family="Helvetica,sans-Serif" font-size="10.00">heapify</text>
</a>
</g>
</g>
<!-- Node11&#45;&gt;Node13 -->
<g id="edge14_Node000011_Node000013" class="edge"><title>Node11&#45;&gt;Node13</title>
<g id="a_edge14_Node000011_Node000013"><a xlink:title=" ">
<path fill="none" stroke="#63b8ff" d="M319.147,-123.5C307.642,-123.5 295.362,-123.5 285.187,-123.5"/>
<polygon fill="#63b8ff" stroke="#63b8ff" points="319.413,-127 329.413,-123.5 319.413,-120 319.413,-127"/>
</a>
</g>
</g>
<!-- Node12&#45;&gt;Node6 -->
<g id="edge13_Node000012_Node000006" class="edge"><title>Node12&#45;&gt;Node6</title>
<g id="a_edge13_Node000012_Node000006"><a xlink:title=" ">
<path fill="none" stroke="#63b8ff" d="M95.1649,-117.027C75.8207,-113.803 53.3594,-110.06 38.0636,-107.511"/>
<polygon fill="#63b8ff" stroke="#63b8ff" points="94.7936,-120.514 105.233,-118.705 95.9445,-113.609 94.7936,-120.514"/>
</a>
</g>
</g>
<!-- Node13&#45;&gt;Node12 -->
<g id="edge15_Node000013_Node000012" class="edge"><title>Node13&#45;&gt;Node12</title>
<g id="a_edge15_Node000013_Node000012"><a xlink:title=" ">
<path fill="none" stroke="#63b8ff" d="M227.91,-123.5C208.233,-123.5 183.398,-123.5 164.505,-123.5"/>
<polygon fill="#63b8ff" stroke="#63b8ff" points="227.954,-127 237.954,-123.5 227.954,-120 227.954,-127"/>
</a>
</g>
</g>
<!-- Node14&#45;&gt;Node6 -->
<g id="edge17_Node000014_Node000006" class="edge"><title>Node14&#45;&gt;Node6</title>
<g id="a_edge17_Node000014_Node000006"><a xlink:title=" ">
<path fill="none" stroke="#63b8ff" d="M316.546,-87.7808C243.029,-91.9256 90.2805,-100.538 38.0032,-103.485"/>
<polygon fill="#63b8ff" stroke="#63b8ff" points="317.01,-91.2603 326.797,-87.2028 316.616,-84.2714 317.01,-91.2603"/>
</a>
</g>
</g>
<!-- Node15&#45;&gt;Node6 -->
<g id="edge19_Node000015_Node000006" class="edge"><title>Node15&#45;&gt;Node6</title>
<g id="a_edge19_Node000015_Node000006"><a xlink:title=" ">
<path fill="none" stroke="#63b8ff" d="M221.587,-47.8056C183.085,-49.1853 122.979,-54.2697 74,-71.5 58.6607,-76.8962 43.0091,-87.0826 32.5332,-94.7169"/>
<polygon fill="#63b8ff" stroke="#63b8ff" points="221.953,-51.2965 231.847,-47.5076 221.749,-44.2995 221.953,-51.2965"/>
</a>
</g>
</g>
</g>
</svg>
