<?xml version="1.0" encoding="UTF-8" standalone="no"?>
<!DOCTYPE svg PUBLIC "-//W3C//DTD SVG 1.1//EN"
 "http://www.w3.org/Graphics/SVG/1.1/DTD/svg11.dtd">
<!-- Generated by graphviz version 2.38.0 (20140413.2041)
 -->
<!-- Title: advanced_sorts.h Pages: 1 -->
<svg width="164pt" height="82pt"
 viewBox="0.00 0.00 164.00 82.00" xmlns="http://www.w3.org/2000/svg" xmlns:xlink="http://www.w3.org/1999/xlink">
<g id="graph0" class="graph" transform="scale(1 1) rotate(0) translate(4 78)">
<title>advanced_sorts.h</title>
<!-- Node1 -->
<g id="Node000001" class="node"><title>Node1</title>
<g id="a_Node000001"><a xlink:title="Deklarace API účinnějších metod třídění">
<polygon fill="#999999" stroke="#666666" points="135,-74 43,-74 43,-55 135,-55 135,-74"/>
<text text-anchor="middle" x="89" y="-62" font-family="Helvetica,sans-Serif" font-size="10.00">advanced_sorts.h</text>
</a>
</g>
</g>
<!-- Node2 -->
<g id="Node000002" class="node"><title>Node2</title>
<g id="a_Node000002"><a xlink:href="advanced__sorts_8c.html" target="_top" xlink:title="Implementace API účinnějších metod třídění">
<polygon fill="white" stroke="#666666" points="92,-19 0,-19 0,-0 92,-0 92,-19"/>
<text text-anchor="middle" x="46" y="-7" font-family="Helvetica,sans-Serif" font-size="10.00">advanced_sorts.c</text>
</a>
</g>
</g>
<!-- Node1&#45;&gt;Node2 -->
<g id="edge1_Node000001_Node000002" class="edge"><title>Node1&#45;&gt;Node2</title>
<g id="a_edge1_Node000001_Node000002"><a xlink:title=" ">
<path fill="none" stroke="#63b8ff" d="M75.5776,-46.9561C68.0858,-37.7221 59.0629,-26.6008 52.9685,-19.089"/>
<polygon fill="#63b8ff" stroke="#63b8ff" points="72.881,-49.1876 81.8994,-54.7481 78.317,-44.7773 72.881,-49.1876"/>
</a>
</g>
</g>
<!-- Node3 -->
<g id="Node000003" class="node"><title>Node3</title>
<g id="a_Node000003"><a xlink:href="main_8c.html" target="_top" xlink:title="Hlavní program testující API výkonnějších metod třídění">
<polygon fill="white" stroke="#666666" points="156,-19 110,-19 110,-0 156,-0 156,-19"/>
<text text-anchor="middle" x="133" y="-7" font-family="Helvetica,sans-Serif" font-size="10.00">main.c</text>
</a>
</g>
</g>
<!-- Node1&#45;&gt;Node3 -->
<g id="edge2_Node000001_Node000003" class="edge"><title>Node1&#45;&gt;Node3</title>
<g id="a_edge2_Node000001_Node000003"><a xlink:title=" ">
<path fill="none" stroke="#63b8ff" d="M102.735,-46.9561C110.401,-37.7221 119.633,-26.6008 125.869,-19.089"/>
<polygon fill="#63b8ff" stroke="#63b8ff" points="99.9604,-44.8184 96.2657,-54.7481 105.346,-49.2897 99.9604,-44.8184"/>
</a>
</g>
</g>
</g>
</svg>
