<?xml version="1.0" encoding="UTF-8" standalone="no"?>
<!DOCTYPE svg PUBLIC "-//W3C//DTD SVG 1.1//EN"
 "http://www.w3.org/Graphics/SVG/1.1/DTD/svg11.dtd">
<!-- Generated by graphviz version 2.38.0 (20140413.2041)
 -->
<!-- Title: merge_sort_with_span Pages: 1 -->
<svg width="1117pt" height="313pt"
 viewBox="0.00 0.00 1117.00 312.50" xmlns="http://www.w3.org/2000/svg" xmlns:xlink="http://www.w3.org/1999/xlink">
<g id="graph0" class="graph" transform="scale(1 1) rotate(0) translate(4 308.5)">
<title>merge_sort_with_span</title>
<!-- Node1 -->
<g id="Node000001" class="node"><title>Node1</title>
<g id="a_Node000001"><a xlink:title="Třídění pomocí metody slučováním (Merge sort) využívající rekurzivní rozklad a datový typ span.">
<polygon fill="#999999" stroke="#666666" points="114,-111 0,-111 0,-92 114,-92 114,-111"/>
<text text-anchor="middle" x="57" y="-99" font-family="Helvetica,sans-Serif" font-size="10.00">merge_sort_with_span</text>
</a>
</g>
</g>
<!-- Node2 -->
<g id="Node000002" class="node"><title>Node2</title>
<g id="a_Node000002"><a xlink:href="merge__sort__with__span_8c.html#acfb719292b2ea89b714190280e0021b0" target="_top" xlink:title="Vnitřní a lokální funkce realizující rekurzivní funkci pro metodu (Merge Sort)">
<polygon fill="white" stroke="#666666" points="258.5,-204 159.5,-204 159.5,-185 258.5,-185 258.5,-204"/>
<text text-anchor="middle" x="209" y="-192" font-family="Helvetica,sans-Serif" font-size="10.00">merge_sort_worker</text>
</a>
</g>
</g>
<!-- Node1&#45;&gt;Node2 -->
<g id="edge1_Node000001_Node000002" class="edge"><title>Node1&#45;&gt;Node2</title>
<g id="a_edge1_Node000001_Node000002"><a xlink:title=" ">
<path fill="none" stroke="#63b8ff" d="M67.2983,-111.192C82.9631,-126.998 116.225,-158.379 150,-176.5 153.257,-178.248 156.711,-179.854 160.245,-181.326"/>
<polygon fill="#63b8ff" stroke="#63b8ff" points="159.119,-184.642 169.71,-184.909 161.597,-178.095 159.119,-184.642"/>
</a>
</g>
</g>
<!-- Node14 -->
<g id="Node000014" class="node"><title>Node14</title>
<g id="a_Node000014"><a xlink:href="group___t_span.html#gac78c14bd69fa6a23ef2db50c75a51488" target="_top" xlink:title="Vytvoření Spanu pro celý vektor.">
<polygon fill="white" stroke="#666666" points="244,-167 174,-167 174,-148 244,-148 244,-167"/>
<text text-anchor="middle" x="209" y="-155" font-family="Helvetica,sans-Serif" font-size="10.00">span_create</text>
</a>
</g>
</g>
<!-- Node1&#45;&gt;Node14 -->
<g id="edge15_Node000001_Node000014" class="edge"><title>Node1&#45;&gt;Node14</title>
<g id="a_edge15_Node000001_Node000014"><a xlink:title=" ">
<path fill="none" stroke="#63b8ff" d="M79.7163,-111.124C98.2224,-119.167 125.617,-130.701 150,-139.5 154.956,-141.288 160.186,-143.064 165.396,-144.764"/>
<polygon fill="#63b8ff" stroke="#63b8ff" points="164.72,-148.222 175.311,-147.924 166.846,-141.553 164.72,-148.222"/>
</a>
</g>
</g>
<!-- Node15 -->
<g id="Node000015" class="node"><title>Node15</title>
<g id="a_Node000015"><a xlink:href="group__sortable___t_vector__with__shareable__sortstats.html#gad8dab56657c4e8504ecdfef34ca91f19" target="_top" xlink:title="Napojení statistik o počtu operací s elementy jednoho vektoru na statistiky jiného vektoru.">
<polygon fill="white" stroke="#666666" points="268,-130 150,-130 150,-111 268,-111 268,-130"/>
<text text-anchor="middle" x="209" y="-118" font-family="Helvetica,sans-Serif" font-size="10.00">vector_attach_sortstats</text>
</a>
</g>
</g>
<!-- Node1&#45;&gt;Node15 -->
<g id="edge16_Node000001_Node000015" class="edge"><title>Node1&#45;&gt;Node15</title>
<g id="a_edge16_Node000001_Node000015"><a xlink:title=" ">
<path fill="none" stroke="#63b8ff" d="M114.281,-108.629C122.646,-109.689 131.343,-110.79 139.919,-111.876"/>
<polygon fill="#63b8ff" stroke="#63b8ff" points="139.542,-115.356 149.902,-113.141 140.421,-108.412 139.542,-115.356"/>
</a>
</g>
</g>
<!-- Node16 -->
<g id="Node000016" class="node"><title>Node16</title>
<g id="a_Node000016"><a xlink:href="group___t_vector.html#ga6b0b8780d60dad02b8569be119769548" target="_top" xlink:title="Vytvoření úplné kopie vektoru.">
<polygon fill="white" stroke="#666666" points="244.5,-93 173.5,-93 173.5,-74 244.5,-74 244.5,-93"/>
<text text-anchor="middle" x="209" y="-81" font-family="Helvetica,sans-Serif" font-size="10.00">vector_clone</text>
</a>
</g>
</g>
<!-- Node1&#45;&gt;Node16 -->
<g id="edge17_Node000001_Node000016" class="edge"><title>Node1&#45;&gt;Node16</title>
<g id="a_edge17_Node000001_Node000016"><a xlink:title=" ">
<path fill="none" stroke="#63b8ff" d="M114.281,-94.7463C130.357,-92.8172 147.658,-90.7411 162.966,-88.9041"/>
<polygon fill="#63b8ff" stroke="#63b8ff" points="163.694,-92.3419 173.206,-87.6753 162.86,-85.3918 163.694,-92.3419"/>
</a>
</g>
</g>
<!-- Node17 -->
<g id="Node000017" class="node"><title>Node17</title>
<g id="a_Node000017"><a xlink:href="group___t_vector.html#ga41fcff5418fe213f2caaa586f521bcd6" target="_top" xlink:title="Dealokace vektoru.">
<polygon fill="white" stroke="#666666" points="249,-56 169,-56 169,-37 249,-37 249,-56"/>
<text text-anchor="middle" x="209" y="-44" font-family="Helvetica,sans-Serif" font-size="10.00">vector_destroy</text>
</a>
</g>
</g>
<!-- Node1&#45;&gt;Node17 -->
<g id="edge18_Node000001_Node000017" class="edge"><title>Node1&#45;&gt;Node17</title>
<g id="a_edge18_Node000001_Node000017"><a xlink:title=" ">
<path fill="none" stroke="#63b8ff" d="M80.4886,-91.8586C98.9956,-84.0692 125.994,-73.0365 150,-64.5 155.153,-62.6676 160.599,-60.8386 166.009,-59.0871"/>
<polygon fill="#63b8ff" stroke="#63b8ff" points="167.16,-62.3938 175.633,-56.0337 165.043,-55.7216 167.16,-62.3938"/>
</a>
</g>
</g>
<!-- Node18 -->
<g id="Node000018" class="node"><title>Node18</title>
<g id="a_Node000018"><a xlink:href="group___t_vector.html#ga2502e6ec116dbac5e49f5b62b07dc898" target="_top" xlink:title="Přečtení počtu elementů vektoru.">
<polygon fill="white" stroke="#666666" points="241.5,-19 176.5,-19 176.5,-0 241.5,-0 241.5,-19"/>
<text text-anchor="middle" x="209" y="-7" font-family="Helvetica,sans-Serif" font-size="10.00">vector_size</text>
</a>
</g>
</g>
<!-- Node1&#45;&gt;Node18 -->
<g id="edge19_Node000001_Node000018" class="edge"><title>Node1&#45;&gt;Node18</title>
<g id="a_edge19_Node000001_Node000018"><a xlink:title=" ">
<path fill="none" stroke="#63b8ff" d="M67.3252,-91.9456C83.0287,-76.3611 116.345,-45.4146 150,-27.5 155.247,-24.7072 160.995,-22.2715 166.77,-20.1711"/>
<polygon fill="#63b8ff" stroke="#63b8ff" points="168.051,-23.4334 176.43,-16.9489 165.836,-16.793 168.051,-23.4334"/>
</a>
</g>
</g>
<!-- Node2&#45;&gt;Node2 -->
<g id="edge2_Node000002_Node000002" class="edge"><title>Node2&#45;&gt;Node2</title>
<g id="a_edge2_Node000002_Node000002"><a xlink:title=" ">
<path fill="none" stroke="#63b8ff" d="M185.572,-204.083C174.175,-212.734 181.984,-222 209,-222 226.729,-222 236.186,-218.009 237.372,-212.821"/>
<polygon fill="#63b8ff" stroke="#63b8ff" points="240.399,-211.062 232.428,-204.083 234.307,-214.51 240.399,-211.062"/>
</a>
</g>
</g>
<!-- Node3 -->
<g id="Node000003" class="node"><title>Node3</title>
<g id="a_Node000003"><a xlink:href="merge__sort__with__span_8c.html#a8c83f4f60393434eff082ca19f5f14ad" target="_top" xlink:title="Vnitřní a lokální funkce realizující sloučení dvou již setříděných rozsahů (Spanů)">
<polygon fill="white" stroke="#666666" points="396,-261 348,-261 348,-242 396,-242 396,-261"/>
<text text-anchor="middle" x="372" y="-249" font-family="Helvetica,sans-Serif" font-size="10.00">mergify</text>
</a>
</g>
</g>
<!-- Node2&#45;&gt;Node3 -->
<g id="edge3_Node000002_Node000003" class="edge"><title>Node2&#45;&gt;Node3</title>
<g id="a_edge3_Node000002_Node000003"><a xlink:title=" ">
<path fill="none" stroke="#63b8ff" d="M236.948,-204.041C264.855,-213.921 308.478,-229.365 338.332,-239.934"/>
<polygon fill="#63b8ff" stroke="#63b8ff" points="337.29,-243.278 347.885,-243.316 339.627,-236.68 337.29,-243.278"/>
</a>
</g>
</g>
<!-- Node11 -->
<g id="Node000011" class="node"><title>Node11</title>
<g id="a_Node000011"><a xlink:href="group___t_span.html#ga873f8813d9a78c9b43e8a6b2b2a4c9d1" target="_top" xlink:title="Přečtení počtu elementů Spanu.">
<polygon fill="white" stroke="#666666" points="569,-223 508,-223 508,-204 569,-204 569,-223"/>
<text text-anchor="middle" x="538.5" y="-211" font-family="Helvetica,sans-Serif" font-size="10.00">span_size</text>
</a>
</g>
</g>
<!-- Node2&#45;&gt;Node11 -->
<g id="edge14_Node000002_Node000011" class="edge"><title>Node2&#45;&gt;Node11</title>
<g id="a_edge14_Node000002_Node000011"><a xlink:title=" ">
<path fill="none" stroke="#63b8ff" d="M258.676,-197.324C323.561,-201.088 437.185,-207.68 497.402,-211.174"/>
<polygon fill="#63b8ff" stroke="#63b8ff" points="497.463,-214.683 507.649,-211.768 497.869,-207.695 497.463,-214.683"/>
</a>
</g>
</g>
<!-- Node12 -->
<g id="Node000012" class="node"><title>Node12</title>
<g id="a_Node000012"><a xlink:href="group___t_span.html#ga95663322132016bbaf40e6281480e122" target="_top" xlink:title="Vytvoření SubSpanu jako části od počátku a definované délce původního Spanu.">
<polygon fill="white" stroke="#666666" points="437,-185 307,-185 307,-166 437,-166 437,-185"/>
<text text-anchor="middle" x="372" y="-173" font-family="Helvetica,sans-Serif" font-size="10.00">span_create_left_subspan</text>
</a>
</g>
</g>
<!-- Node2&#45;&gt;Node12 -->
<g id="edge12_Node000002_Node000012" class="edge"><title>Node2&#45;&gt;Node12</title>
<g id="a_edge12_Node000002_Node000012"><a xlink:title=" ">
<path fill="none" stroke="#63b8ff" d="M258.742,-188.748C270.719,-187.334 283.813,-185.789 296.694,-184.269"/>
<polygon fill="#63b8ff" stroke="#63b8ff" points="297.432,-187.706 306.953,-183.058 296.612,-180.755 297.432,-187.706"/>
</a>
</g>
</g>
<!-- Node13 -->
<g id="Node000013" class="node"><title>Node13</title>
<g id="a_Node000013"><a xlink:href="group___t_span.html#ga6270a02d3bfd6fa1fdbf37ca62276687" target="_top" xlink:title="Vytvoření SubSpanu jako části od definované pozice až do konce původního Spanu.">
<polygon fill="white" stroke="#666666" points="440,-148 304,-148 304,-129 440,-129 440,-148"/>
<text text-anchor="middle" x="372" y="-136" font-family="Helvetica,sans-Serif" font-size="10.00">span_create_right_subspan</text>
</a>
</g>
</g>
<!-- Node2&#45;&gt;Node13 -->
<g id="edge13_Node000002_Node000013" class="edge"><title>Node2&#45;&gt;Node13</title>
<g id="a_edge13_Node000002_Node000013"><a xlink:title=" ">
<path fill="none" stroke="#63b8ff" d="M244.417,-184.969C252.267,-182.479 260.501,-179.611 268,-176.5 284.711,-169.567 287.205,-164.227 304,-157.5 309.819,-155.169 316.029,-153.003 322.232,-151.031"/>
<polygon fill="#63b8ff" stroke="#63b8ff" points="323.364,-154.345 331.919,-148.095 321.334,-147.646 323.364,-154.345"/>
</a>
</g>
</g>
<!-- Node4 -->
<g id="Node000004" class="node"><title>Node4</title>
<g id="a_Node000004"><a xlink:href="group___t_span.html#gaffd3a758138012dac875ceda42a975db" target="_top" xlink:title="Porovnání hodnot elementů Spanů">
<polygon fill="white" stroke="#666666" points="601,-297 476,-297 476,-278 601,-278 601,-297"/>
<text text-anchor="middle" x="538.5" y="-285" font-family="Helvetica,sans-Serif" font-size="10.00">span_compare_positions</text>
</a>
</g>
</g>
<!-- Node3&#45;&gt;Node4 -->
<g id="edge4_Node000003_Node000004" class="edge"><title>Node3&#45;&gt;Node4</title>
<g id="a_edge4_Node000003_Node000004"><a xlink:title=" ">
<path fill="none" stroke="#63b8ff" d="M396.22,-256.582C418.977,-261.562 454.475,-269.33 484.195,-275.834"/>
<polygon fill="#63b8ff" stroke="#63b8ff" points="483.509,-279.267 494.026,-277.986 485.005,-272.429 483.509,-279.267"/>
</a>
</g>
</g>
<!-- Node8 -->
<g id="Node000008" class="node"><title>Node8</title>
<g id="a_Node000008"><a xlink:href="group___t_span.html#ga8efc8ea3e4f239b6c154cdae03258740" target="_top" xlink:title="Přesun hodnoty elementu Spanu.">
<polygon fill="white" stroke="#666666" points="593.5,-260 483.5,-260 483.5,-241 593.5,-241 593.5,-260"/>
<text text-anchor="middle" x="538.5" y="-248" font-family="Helvetica,sans-Serif" font-size="10.00">span_move_positions</text>
</a>
</g>
</g>
<!-- Node3&#45;&gt;Node8 -->
<g id="edge8_Node000003_Node000008" class="edge"><title>Node3&#45;&gt;Node8</title>
<g id="a_edge8_Node000003_Node000008"><a xlink:title=" ">
<path fill="none" stroke="#63b8ff" d="M396.22,-251.359C416.167,-251.238 445.903,-251.057 472.957,-250.892"/>
<polygon fill="#63b8ff" stroke="#63b8ff" points="473.19,-254.391 483.168,-250.83 473.147,-247.391 473.19,-254.391"/>
</a>
</g>
</g>
<!-- Node3&#45;&gt;Node11 -->
<g id="edge11_Node000003_Node000011" class="edge"><title>Node3&#45;&gt;Node11</title>
<g id="a_edge11_Node000003_Node000011"><a xlink:title=" ">
<path fill="none" stroke="#63b8ff" d="M396.22,-246.136C422.592,-240.044 466.076,-229.999 497.847,-222.66"/>
<polygon fill="#63b8ff" stroke="#63b8ff" points="498.759,-226.042 507.715,-220.38 497.184,-219.221 498.759,-226.042"/>
</a>
</g>
</g>
<!-- Node5 -->
<g id="Node000005" class="node"><title>Node5</title>
<g id="a_Node000005"><a xlink:href="group__sortable___t_vector.html#gaedaf9c79afa345e5e71e5c66ab25fa26" target="_top" xlink:title="Porovnání hodnot elementů vektorů">
<polygon fill="white" stroke="#666666" points="766,-297 637,-297 637,-278 766,-278 766,-297"/>
<text text-anchor="middle" x="701.5" y="-285" font-family="Helvetica,sans-Serif" font-size="10.00">vector_compare_positions</text>
</a>
</g>
</g>
<!-- Node4&#45;&gt;Node5 -->
<g id="edge5_Node000004_Node000005" class="edge"><title>Node4&#45;&gt;Node5</title>
<g id="a_edge5_Node000004_Node000005"><a xlink:title=" ">
<path fill="none" stroke="#63b8ff" d="M601.286,-287.5C609.545,-287.5 618.082,-287.5 626.523,-287.5"/>
<polygon fill="#63b8ff" stroke="#63b8ff" points="626.746,-291 636.746,-287.5 626.746,-284 626.746,-291"/>
</a>
</g>
</g>
<!-- Node6 -->
<g id="Node000006" class="node"><title>Node6</title>
<g id="a_Node000006"><a xlink:href="_t_vector_8c.html#a188bab569c3ae8a25070f632a6f53e62" target="_top" xlink:title=" ">
<polygon fill="white" stroke="#666666" points="922.5,-304.5 816.5,-304.5 816.5,-274.5 922.5,-274.5 922.5,-304.5"/>
<text text-anchor="start" x="824.5" y="-292.5" font-family="Helvetica,sans-Serif" font-size="10.00">vector_fast_compare</text>
<text text-anchor="middle" x="869.5" y="-281.5" font-family="Helvetica,sans-Serif" font-size="10.00">_positions</text>
</a>
</g>
</g>
<!-- Node5&#45;&gt;Node6 -->
<g id="edge6_Node000005_Node000006" class="edge"><title>Node5&#45;&gt;Node6</title>
<g id="a_edge6_Node000005_Node000006"><a xlink:title=" ">
<path fill="none" stroke="#63b8ff" d="M766.205,-288.268C779.263,-288.425 792.996,-288.59 806.011,-288.747"/>
<polygon fill="#63b8ff" stroke="#63b8ff" points="806.227,-292.25 816.268,-288.871 806.311,-285.25 806.227,-292.25"/>
</a>
</g>
</g>
<!-- Node7 -->
<g id="Node000007" class="node"><title>Node7</title>
<g id="a_Node000007"><a xlink:href="group___t_vector_element.html#ga82e527836fce12c93af896f65e9f701d" target="_top" xlink:title="Porovnání dvou elementů">
<polygon fill="white" stroke="#666666" points="1109,-299 973,-299 973,-280 1109,-280 1109,-299"/>
<text text-anchor="middle" x="1041" y="-287" font-family="Helvetica,sans-Serif" font-size="10.00">vector_element_comparator</text>
</a>
</g>
</g>
<!-- Node6&#45;&gt;Node7 -->
<g id="edge7_Node000006_Node000007" class="edge"><title>Node6&#45;&gt;Node7</title>
<g id="a_edge7_Node000006_Node000007"><a xlink:title=" ">
<path fill="none" stroke="#63b8ff" d="M922.739,-289.5C935.373,-289.5 949.144,-289.5 962.662,-289.5"/>
<polygon fill="#63b8ff" stroke="#63b8ff" points="962.926,-293 972.926,-289.5 962.926,-286 962.926,-293"/>
</a>
</g>
</g>
<!-- Node9 -->
<g id="Node000009" class="node"><title>Node9</title>
<g id="a_Node000009"><a xlink:href="group__sortable___t_vector.html#ga16623c06371077674f5d4d31e38e42a4" target="_top" xlink:title="Přesun hodnoty elementu vektoru.">
<polygon fill="white" stroke="#666666" points="758.5,-257 644.5,-257 644.5,-238 758.5,-238 758.5,-257"/>
<text text-anchor="middle" x="701.5" y="-245" font-family="Helvetica,sans-Serif" font-size="10.00">vector_move_positions</text>
</a>
</g>
</g>
<!-- Node8&#45;&gt;Node9 -->
<g id="edge9_Node000008_Node000009" class="edge"><title>Node8&#45;&gt;Node9</title>
<g id="a_edge9_Node000008_Node000009"><a xlink:title=" ">
<path fill="none" stroke="#63b8ff" d="M593.559,-249.493C606.589,-249.25 620.659,-248.988 634.179,-248.736"/>
<polygon fill="#63b8ff" stroke="#63b8ff" points="634.45,-252.231 644.383,-248.546 634.32,-245.233 634.45,-252.231"/>
</a>
</g>
</g>
<!-- Node10 -->
<g id="Node000010" class="node"><title>Node10</title>
<g id="a_Node000010"><a xlink:href="_t_vector_8c.html#a0e3151269c65b7033ddecb4c3aee6566" target="_top" xlink:title=" ">
<polygon fill="white" stroke="#666666" points="937,-256 802,-256 802,-237 937,-237 937,-256"/>
<text text-anchor="middle" x="869.5" y="-244" font-family="Helvetica,sans-Serif" font-size="10.00">vector_fast_move_positions</text>
</a>
</g>
</g>
<!-- Node9&#45;&gt;Node10 -->
<g id="edge10_Node000009_Node000010" class="edge"><title>Node9&#45;&gt;Node10</title>
<g id="a_edge10_Node000009_Node000010"><a xlink:title=" ">
<path fill="none" stroke="#63b8ff" d="M758.7,-247.161C769.286,-247.098 780.524,-247.03 791.615,-246.963"/>
<polygon fill="#63b8ff" stroke="#63b8ff" points="791.758,-250.462 801.736,-246.902 791.715,-243.463 791.758,-250.462"/>
</a>
</g>
</g>
</g>
</svg>
