<?xml version="1.0" encoding="UTF-8" standalone="no"?>
<!DOCTYPE svg PUBLIC "-//W3C//DTD SVG 1.1//EN"
 "http://www.w3.org/Graphics/SVG/1.1/DTD/svg11.dtd">
<!-- Generated by graphviz version 2.38.0 (20140413.2041)
 -->
<!-- Title: vector_swap_positions Pages: 1 -->
<svg width="449pt" height="304pt"
 viewBox="0.00 0.00 449.00 304.00" xmlns="http://www.w3.org/2000/svg" xmlns:xlink="http://www.w3.org/1999/xlink">
<g id="graph0" class="graph" transform="scale(1 1) rotate(0) translate(4 300)">
<title>vector_swap_positions</title>
<!-- Node1 -->
<g id="Node000001" class="node"><title>Node1</title>
<g id="a_Node000001"><a xlink:title="Výměna hodnot elementů vektorů">
<polygon fill="#999999" stroke="#666666" points="441,-157 327,-157 327,-138 441,-138 441,-157"/>
<text text-anchor="middle" x="384" y="-145" font-family="Helvetica,sans-Serif" font-size="10.00">vector_swap_positions</text>
</a>
</g>
</g>
<!-- Node2 -->
<g id="Node000002" class="node"><title>Node2</title>
<g id="a_Node000002"><a xlink:href="group___basic_sorts.html#gaa1ef093f5205f293df8303ac228452fc" target="_top" xlink:title="Třídění přímou výměnou (Bubble Sort)">
<polygon fill="white" stroke="#666666" points="265,-296 198,-296 198,-277 265,-277 265,-296"/>
<text text-anchor="middle" x="231.5" y="-284" font-family="Helvetica,sans-Serif" font-size="10.00">bubble_sort</text>
</a>
</g>
</g>
<!-- Node1&#45;&gt;Node2 -->
<g id="edge1_Node000001_Node000002" class="edge"><title>Node1&#45;&gt;Node2</title>
<g id="a_edge1_Node000001_Node000002"><a xlink:title=" ">
<path fill="none" stroke="#63b8ff" d="M373.577,-166.363C359.316,-193.009 329.754,-241.437 291,-268.5 283.333,-273.854 274.025,-277.654 265.109,-280.336"/>
<polygon fill="#63b8ff" stroke="#63b8ff" points="376.777,-167.794 378.28,-157.306 370.565,-164.567 376.777,-167.794"/>
</a>
</g>
</g>
<!-- Node3 -->
<g id="Node000003" class="node"><title>Node3</title>
<g id="a_Node000003"><a xlink:href="group___basic_sorts.html#ga62a36eb31bf0a873f7c027e145843b1a" target="_top" xlink:title="Třídění přímou výměnou včetně optimalizace s pomocným příznakem ukončení třídění (Bubble Sort Optimiz...">
<polygon fill="white" stroke="#666666" points="288.5,-259 174.5,-259 174.5,-240 288.5,-240 288.5,-259"/>
<text text-anchor="middle" x="231.5" y="-247" font-family="Helvetica,sans-Serif" font-size="10.00">bubble_sort_optimized</text>
</a>
</g>
</g>
<!-- Node1&#45;&gt;Node3 -->
<g id="edge2_Node000001_Node000003" class="edge"><title>Node1&#45;&gt;Node3</title>
<g id="a_edge2_Node000001_Node000003"><a xlink:title=" ">
<path fill="none" stroke="#63b8ff" d="M368.556,-164.611C351.735,-183.517 322.242,-213.644 291,-231.5 285.188,-234.822 278.694,-237.599 272.205,-239.898"/>
<polygon fill="#63b8ff" stroke="#63b8ff" points="371.228,-166.872 375.155,-157.031 365.949,-162.275 371.228,-166.872"/>
</a>
</g>
</g>
<!-- Node4 -->
<g id="Node000004" class="node"><title>Node4</title>
<g id="a_Node000004"><a xlink:href="group___basic_sorts.html#gaba41a68f00241f38f7864b4e1dacd086" target="_top" xlink:title="Třídění přímou výměnou včetně optimalizace s výpočtem indexu poslední změny (Bubble Sort Optimized2)">
<polygon fill="white" stroke="#666666" points="291,-222 172,-222 172,-203 291,-203 291,-222"/>
<text text-anchor="middle" x="231.5" y="-210" font-family="Helvetica,sans-Serif" font-size="10.00">bubble_sort_optimized2</text>
</a>
</g>
</g>
<!-- Node1&#45;&gt;Node4 -->
<g id="edge3_Node000001_Node000004" class="edge"><title>Node1&#45;&gt;Node4</title>
<g id="a_edge3_Node000001_Node000004"><a xlink:title=" ">
<path fill="none" stroke="#63b8ff" d="M357.648,-161.964C339.477,-171.954 314.211,-185.083 291,-194.5 283.418,-197.576 275.105,-200.43 267.186,-202.917"/>
<polygon fill="#63b8ff" stroke="#63b8ff" points="359.419,-164.984 366.455,-157.063 356.015,-158.867 359.419,-164.984"/>
</a>
</g>
</g>
<!-- Node5 -->
<g id="Node000005" class="node"><title>Node5</title>
<g id="a_Node000005"><a xlink:href="group___t_heap.html#gaa617d4886d443671851e3256c7ac5860" target="_top" xlink:title="Vzájemná výměna hodnot mezi uzly haldy.">
<polygon fill="white" stroke="#666666" points="286.5,-185 176.5,-185 176.5,-166 286.5,-166 286.5,-185"/>
<text text-anchor="middle" x="231.5" y="-173" font-family="Helvetica,sans-Serif" font-size="10.00">heap_swap_positions</text>
</a>
</g>
</g>
<!-- Node1&#45;&gt;Node5 -->
<g id="edge4_Node000001_Node000005" class="edge"><title>Node1&#45;&gt;Node5</title>
<g id="a_edge4_Node000001_Node000005"><a xlink:title=" ">
<path fill="none" stroke="#63b8ff" d="M321.647,-158.914C309.023,-161.263 295.858,-163.712 283.641,-165.985"/>
<polygon fill="#63b8ff" stroke="#63b8ff" points="322.436,-162.328 331.627,-157.058 321.156,-155.446 322.436,-162.328"/>
</a>
</g>
</g>
<!-- Node6 -->
<g id="Node000006" class="node"><title>Node6</title>
<g id="a_Node000006"><a xlink:href="advanced__sorts_8c.html#a0ae77c9640aa821e5507079ec5d2eb1d" target="_top" xlink:title="Vnitřní a lokální funkce realizující rekurzivní funkci pro metodu (Quick Sort)">
<polygon fill="white" stroke="#666666" points="279,-130 184,-130 184,-111 279,-111 279,-130"/>
<text text-anchor="middle" x="231.5" y="-118" font-family="Helvetica,sans-Serif" font-size="10.00">quick_sort_worker</text>
</a>
</g>
</g>
<!-- Node1&#45;&gt;Node6 -->
<g id="edge5_Node000001_Node000006" class="edge"><title>Node1&#45;&gt;Node6</title>
<g id="a_edge5_Node000001_Node000006"><a xlink:title=" ">
<path fill="none" stroke="#63b8ff" d="M320.067,-136.21C306.334,-133.746 292.039,-131.181 279.079,-128.856"/>
<polygon fill="#63b8ff" stroke="#63b8ff" points="319.478,-139.66 329.939,-137.981 320.715,-132.77 319.478,-139.66"/>
</a>
</g>
</g>
<!-- Node9 -->
<g id="Node000009" class="node"><title>Node9</title>
<g id="a_Node000009"><a xlink:href="group___basic_sorts.html#ga3688a58781905ac2e518285b8bb711ec" target="_top" xlink:title="Třídění přímým výběrem (Select Sort)">
<polygon fill="white" stroke="#666666" points="264,-93 199,-93 199,-74 264,-74 264,-93"/>
<text text-anchor="middle" x="231.5" y="-81" font-family="Helvetica,sans-Serif" font-size="10.00">select_sort</text>
</a>
</g>
</g>
<!-- Node1&#45;&gt;Node9 -->
<g id="edge9_Node000001_Node000009" class="edge"><title>Node1&#45;&gt;Node9</title>
<g id="a_edge9_Node000001_Node000009"><a xlink:title=" ">
<path fill="none" stroke="#63b8ff" d="M356.021,-133.053C337.924,-123.675 313.39,-111.559 291,-102.5 282.388,-99.0155 272.873,-95.7049 264.064,-92.8526"/>
<polygon fill="#63b8ff" stroke="#63b8ff" points="354.876,-136.404 365.358,-137.944 358.124,-130.204 354.876,-136.404"/>
</a>
</g>
</g>
<!-- Node10 -->
<g id="Node000010" class="node"><title>Node10</title>
<g id="a_Node000010"><a xlink:href="group___basic_sorts.html#gaacee5d609500566a6ad1724486ab8bb2" target="_top" xlink:title="Třídění přímou výměnou se změnou postupu třídění (Shaker Sort)">
<polygon fill="white" stroke="#666666" points="265.5,-56 197.5,-56 197.5,-37 265.5,-37 265.5,-56"/>
<text text-anchor="middle" x="231.5" y="-44" font-family="Helvetica,sans-Serif" font-size="10.00">shaker_sort</text>
</a>
</g>
</g>
<!-- Node1&#45;&gt;Node10 -->
<g id="edge10_Node000001_Node000010" class="edge"><title>Node1&#45;&gt;Node10</title>
<g id="a_edge10_Node000001_Node000010"><a xlink:title=" ">
<path fill="none" stroke="#63b8ff" d="M367.924,-130.365C350.903,-111.975 321.575,-83.0475 291,-65.5 283.22,-61.0351 274.247,-57.4547 265.702,-54.6589"/>
<polygon fill="#63b8ff" stroke="#63b8ff" points="365.53,-132.935 374.839,-137.994 370.716,-128.234 365.53,-132.935"/>
</a>
</g>
</g>
<!-- Node11 -->
<g id="Node000011" class="node"><title>Node11</title>
<g id="a_Node000011"><a xlink:href="group___t_span.html#gae81c37610069e0d3c8d3182ca4964c1a" target="_top" xlink:title="Výměna hodnot elementů Spanů">
<polygon fill="white" stroke="#666666" points="286.5,-19 176.5,-19 176.5,-0 286.5,-0 286.5,-19"/>
<text text-anchor="middle" x="231.5" y="-7" font-family="Helvetica,sans-Serif" font-size="10.00">span_swap_positions</text>
</a>
</g>
</g>
<!-- Node1&#45;&gt;Node11 -->
<g id="edge11_Node000001_Node000011" class="edge"><title>Node1&#45;&gt;Node11</title>
<g id="a_edge11_Node000001_Node000011"><a xlink:title=" ">
<path fill="none" stroke="#63b8ff" d="M373.44,-129.033C359.012,-102.928 329.249,-55.424 291,-28.5 285.499,-24.6276 279.162,-21.5105 272.735,-19.0114"/>
<polygon fill="#63b8ff" stroke="#63b8ff" points="370.389,-130.749 378.204,-137.902 376.555,-127.436 370.389,-130.749"/>
</a>
</g>
</g>
<!-- Node6&#45;&gt;Node6 -->
<g id="edge8_Node000006_Node000006" class="edge"><title>Node6&#45;&gt;Node6</title>
<g id="a_edge8_Node000006_Node000006"><a xlink:title=" ">
<path fill="none" stroke="#63b8ff" d="M254.832,-139.554C253.274,-144.38 245.497,-148 231.5,-148 209.105,-148 202.632,-138.734 212.08,-130.083"/>
<polygon fill="#63b8ff" stroke="#63b8ff" points="257.973,-137.989 250.92,-130.083 251.503,-140.662 257.973,-137.989"/>
</a>
</g>
</g>
<!-- Node7 -->
<g id="Node000007" class="node"><title>Node7</title>
<g id="a_Node000007"><a xlink:href="group___advanced_sorts.html#gaa369b74c9050d30aa2416f9dba8cc8f5" target="_top" xlink:title="Rychlé třídění výměnou (Quick Sort) s volbou prostředního prvku jako pivota.">
<polygon fill="white" stroke="#666666" points="136,-130 74,-130 74,-111 136,-111 136,-130"/>
<text text-anchor="middle" x="105" y="-118" font-family="Helvetica,sans-Serif" font-size="10.00">quick_sort</text>
</a>
</g>
</g>
<!-- Node6&#45;&gt;Node7 -->
<g id="edge6_Node000006_Node000007" class="edge"><title>Node6&#45;&gt;Node7</title>
<g id="a_edge6_Node000006_Node000007"><a xlink:title=" ">
<path fill="none" stroke="#63b8ff" d="M173.594,-120.5C160.751,-120.5 147.602,-120.5 136.355,-120.5"/>
<polygon fill="#63b8ff" stroke="#63b8ff" points="173.787,-124 183.787,-120.5 173.787,-117 173.787,-124"/>
</a>
</g>
</g>
<!-- Node8 -->
<g id="Node000008" class="node"><title>Node8</title>
<g id="a_Node000008"><a xlink:href="group___main_program.html#ga0ddf1224851353fc92bfbff6f499fa97" target="_top" xlink:title=" ">
<polygon fill="white" stroke="#666666" points="38,-130 0,-130 0,-111 38,-111 38,-130"/>
<text text-anchor="middle" x="19" y="-118" font-family="Helvetica,sans-Serif" font-size="10.00">main</text>
</a>
</g>
</g>
<!-- Node7&#45;&gt;Node8 -->
<g id="edge7_Node000007_Node000008" class="edge"><title>Node7&#45;&gt;Node8</title>
<g id="a_edge7_Node000007_Node000008"><a xlink:title=" ">
<path fill="none" stroke="#63b8ff" d="M63.4561,-120.5C54.6389,-120.5 45.7361,-120.5 38.3044,-120.5"/>
<polygon fill="#63b8ff" stroke="#63b8ff" points="63.6741,-124 73.6741,-120.5 63.674,-117 63.6741,-124"/>
</a>
</g>
</g>
</g>
</svg>
