<?xml version="1.0" encoding="UTF-8" standalone="no"?>
<!DOCTYPE svg PUBLIC "-//W3C//DTD SVG 1.1//EN"
 "http://www.w3.org/Graphics/SVG/1.1/DTD/svg11.dtd">
<!-- Generated by graphviz version 2.38.0 (20140413.2041)
 -->
<!-- Title: vector_swap_with_iterators Pages: 1 -->
<svg width="305pt" height="64pt"
 viewBox="0.00 0.00 305.00 64.00" xmlns="http://www.w3.org/2000/svg" xmlns:xlink="http://www.w3.org/1999/xlink">
<g id="graph0" class="graph" transform="scale(1 1) rotate(0) translate(4 60)">
<title>vector_swap_with_iterators</title>
<!-- Node1 -->
<g id="Node000001" class="node"><title>Node1</title>
<g id="a_Node000001"><a xlink:title="Výměna hodnot elementů vektorů určených dvěma iterátory.">
<polygon fill="#999999" stroke="#666666" points="297,-37 164,-37 164,-18 297,-18 297,-37"/>
<text text-anchor="middle" x="230.5" y="-25" font-family="Helvetica,sans-Serif" font-size="10.00">vector_swap_with_iterators</text>
</a>
</g>
</g>
<!-- Node2 -->
<g id="Node000002" class="node"><title>Node2</title>
<g id="a_Node000002"><a xlink:href="group___t_heap.html#ga03d48bdfc99322c0e16fd502820ce43d" target="_top" xlink:title="Výměna hodnot uzlů haldy určených dvěma iterátory.">
<polygon fill="white" stroke="#666666" points="128,-56 0,-56 0,-37 128,-37 128,-56"/>
<text text-anchor="middle" x="64" y="-44" font-family="Helvetica,sans-Serif" font-size="10.00">heap_swap_with_iterators</text>
</a>
</g>
</g>
<!-- Node1&#45;&gt;Node2 -->
<g id="edge1_Node000001_Node000002" class="edge"><title>Node1&#45;&gt;Node2</title>
<g id="a_edge1_Node000001_Node000002"><a xlink:title=" ">
<path fill="none" stroke="#63b8ff" d="M153.573,-36.2697C145.028,-37.2566 136.392,-38.2541 128.036,-39.2193"/>
<polygon fill="#63b8ff" stroke="#63b8ff" points="154.007,-39.7429 163.539,-35.1185 153.204,-32.7891 154.007,-39.7429"/>
</a>
</g>
</g>
<!-- Node3 -->
<g id="Node000003" class="node"><title>Node3</title>
<g id="a_Node000003"><a xlink:href="group___t_span.html#ga2bc9c4a1a22d533a1a01ddb8cb57cfca" target="_top" xlink:title="Výměna hodnot elementů Spanů určených dvěma iterátory.">
<polygon fill="white" stroke="#666666" points="128,-19 0,-19 0,-0 128,-0 128,-19"/>
<text text-anchor="middle" x="64" y="-7" font-family="Helvetica,sans-Serif" font-size="10.00">span_swap_with_iterators</text>
</a>
</g>
</g>
<!-- Node1&#45;&gt;Node3 -->
<g id="edge2_Node000001_Node000003" class="edge"><title>Node1&#45;&gt;Node3</title>
<g id="a_edge2_Node000001_Node000003"><a xlink:title=" ">
<path fill="none" stroke="#63b8ff" d="M153.573,-19.1919C145.028,-18.2569 136.392,-17.3119 128.036,-16.3975"/>
<polygon fill="#63b8ff" stroke="#63b8ff" points="153.218,-22.6738 163.539,-20.2824 153.979,-15.7154 153.218,-22.6738"/>
</a>
</g>
</g>
</g>
</svg>
