<?xml version="1.0" encoding="UTF-8" standalone="no"?>
<!DOCTYPE svg PUBLIC "-//W3C//DTD SVG 1.1//EN"
 "http://www.w3.org/Graphics/SVG/1.1/DTD/svg11.dtd">
<!-- Generated by graphviz version 2.38.0 (20140413.2041)
 -->
<!-- Title: vector_iterator_to_prev Pages: 1 -->
<svg width="581pt" height="64pt"
 viewBox="0.00 0.00 581.00 64.00" xmlns="http://www.w3.org/2000/svg" xmlns:xlink="http://www.w3.org/1999/xlink">
<g id="graph0" class="graph" transform="scale(1 1) rotate(0) translate(4 60)">
<title>vector_iterator_to_prev</title>
<!-- Node1 -->
<g id="Node000001" class="node"><title>Node1</title>
<g id="a_Node000001"><a xlink:title="Posunutí iterátoru vzad.">
<polygon fill="#999999" stroke="#666666" points="573,-37 460,-37 460,-18 573,-18 573,-37"/>
<text text-anchor="middle" x="516.5" y="-25" font-family="Helvetica,sans-Serif" font-size="10.00">vector_iterator_to_prev</text>
</a>
</g>
</g>
<!-- Node2 -->
<g id="Node000002" class="node"><title>Node2</title>
<g id="a_Node000002"><a xlink:href="group___t_heap.html#ga459d729f98a06d26d4cab4dee469ce9a" target="_top" xlink:title="Posunutí iterátoru vzad.">
<polygon fill="white" stroke="#666666" points="424,-56 315,-56 315,-37 424,-37 424,-56"/>
<text text-anchor="middle" x="369.5" y="-44" font-family="Helvetica,sans-Serif" font-size="10.00">heap_iterator_to_prev</text>
</a>
</g>
</g>
<!-- Node1&#45;&gt;Node2 -->
<g id="edge1_Node000001_Node000002" class="edge"><title>Node1&#45;&gt;Node2</title>
<g id="a_edge1_Node000001_Node000002"><a xlink:title=" ">
<path fill="none" stroke="#63b8ff" d="M449.898,-36.0961C441.342,-37.2172 432.657,-38.3553 424.325,-39.447"/>
<polygon fill="#63b8ff" stroke="#63b8ff" points="450.393,-39.5612 459.854,-34.7916 449.484,-32.6205 450.393,-39.5612"/>
</a>
</g>
</g>
<!-- Node6 -->
<g id="Node000006" class="node"><title>Node6</title>
<g id="a_Node000006"><a xlink:href="group___t_span.html#gaba2bf18029ccee38147943a1176f1673" target="_top" xlink:title="Posunutí iterátoru vzad.">
<polygon fill="white" stroke="#666666" points="424,-19 315,-19 315,-0 424,-0 424,-19"/>
<text text-anchor="middle" x="369.5" y="-7" font-family="Helvetica,sans-Serif" font-size="10.00">span_iterator_to_prev</text>
</a>
</g>
</g>
<!-- Node1&#45;&gt;Node6 -->
<g id="edge5_Node000001_Node000006" class="edge"><title>Node1&#45;&gt;Node6</title>
<g id="a_edge5_Node000001_Node000006"><a xlink:title=" ">
<path fill="none" stroke="#63b8ff" d="M449.898,-19.3563C441.342,-18.2942 432.657,-17.2161 424.325,-16.1818"/>
<polygon fill="#63b8ff" stroke="#63b8ff" points="449.499,-22.8335 459.854,-20.5922 450.361,-15.8869 449.499,-22.8335"/>
</a>
</g>
</g>
<!-- Node3 -->
<g id="Node000003" class="node"><title>Node3</title>
<g id="a_Node000003"><a xlink:href="heap__sort__with__iterators_8c.html#aceaf0618c69440f1e439e224eb6945dc" target="_top" xlink:title="Vnitřní a lokální funkce realizující uspořádání elementů vektoru do haldy.">
<polygon fill="white" stroke="#666666" points="279,-56 232,-56 232,-37 279,-37 279,-56"/>
<text text-anchor="middle" x="255.5" y="-44" font-family="Helvetica,sans-Serif" font-size="10.00">heapify</text>
</a>
</g>
</g>
<!-- Node2&#45;&gt;Node3 -->
<g id="edge2_Node000002_Node000003" class="edge"><title>Node2&#45;&gt;Node3</title>
<g id="a_edge2_Node000002_Node000003"><a xlink:title=" ">
<path fill="none" stroke="#63b8ff" d="M304.79,-46.5C295.626,-46.5 286.743,-46.5 279.148,-46.5"/>
<polygon fill="#63b8ff" stroke="#63b8ff" points="304.796,-50.0001 314.796,-46.5 304.796,-43.0001 304.796,-50.0001"/>
</a>
</g>
</g>
<!-- Node4 -->
<g id="Node000004" class="node"><title>Node4</title>
<g id="a_Node000004"><a xlink:href="group___powerful_sorts.html#ga84762e575f9465881e13d17072186ddd" target="_top" xlink:title="Třídění pomocí haldy (Heap Sort) využívající iterátorové API pro přístup k elementům vektoru.">
<polygon fill="white" stroke="#666666" points="196,-56 74,-56 74,-37 196,-37 196,-56"/>
<text text-anchor="middle" x="135" y="-44" font-family="Helvetica,sans-Serif" font-size="10.00">heap_sort_with_iterators</text>
</a>
</g>
</g>
<!-- Node3&#45;&gt;Node4 -->
<g id="edge3_Node000003_Node000004" class="edge"><title>Node3&#45;&gt;Node4</title>
<g id="a_edge3_Node000003_Node000004"><a xlink:title=" ">
<path fill="none" stroke="#63b8ff" d="M221.662,-46.5C213.714,-46.5 204.97,-46.5 196.199,-46.5"/>
<polygon fill="#63b8ff" stroke="#63b8ff" points="221.932,-50.0001 231.932,-46.5 221.932,-43.0001 221.932,-50.0001"/>
</a>
</g>
</g>
<!-- Node5 -->
<g id="Node000005" class="node"><title>Node5</title>
<g id="a_Node000005"><a xlink:href="group___main_program.html#ga0ddf1224851353fc92bfbff6f499fa97" target="_top" xlink:title=" ">
<polygon fill="white" stroke="#666666" points="38,-56 0,-56 0,-37 38,-37 38,-56"/>
<text text-anchor="middle" x="19" y="-44" font-family="Helvetica,sans-Serif" font-size="10.00">main</text>
</a>
</g>
</g>
<!-- Node4&#45;&gt;Node5 -->
<g id="edge4_Node000004_Node000005" class="edge"><title>Node4&#45;&gt;Node5</title>
<g id="a_edge4_Node000004_Node000005"><a xlink:title=" ">
<path fill="none" stroke="#63b8ff" d="M63.9621,-46.5C54.4658,-46.5 45.4797,-46.5 38.1365,-46.5"/>
<polygon fill="#63b8ff" stroke="#63b8ff" points="63.9954,-50.0001 73.9954,-46.5 63.9953,-43.0001 63.9954,-50.0001"/>
</a>
</g>
</g>
</g>
</svg>
