<?xml version="1.0" encoding="UTF-8" standalone="no"?>
<!DOCTYPE svg PUBLIC "-//W3C//DTD SVG 1.1//EN"
 "http://www.w3.org/Graphics/SVG/1.1/DTD/svg11.dtd">
<!-- Generated by graphviz version 2.38.0 (20140413.2041)
 -->
<!-- Title: vector_compare_with_iterators Pages: 1 -->
<svg width="702pt" height="64pt"
 viewBox="0.00 0.00 702.00 64.00" xmlns="http://www.w3.org/2000/svg" xmlns:xlink="http://www.w3.org/1999/xlink">
<g id="graph0" class="graph" transform="scale(1 1) rotate(0) translate(4 60)">
<title>vector_compare_with_iterators</title>
<!-- Node1 -->
<g id="Node000001" class="node"><title>Node1</title>
<g id="a_Node000001"><a xlink:title="Porovnání hodnot elementů vektorů určených dvěma iterátory.">
<polygon fill="#999999" stroke="#666666" points="694,-42.5 587,-42.5 587,-12.5 694,-12.5 694,-42.5"/>
<text text-anchor="start" x="595" y="-30.5" font-family="Helvetica,sans-Serif" font-size="10.00">vector_compare_with</text>
<text text-anchor="middle" x="640.5" y="-19.5" font-family="Helvetica,sans-Serif" font-size="10.00">_iterators</text>
</a>
</g>
</g>
<!-- Node2 -->
<g id="Node000002" class="node"><title>Node2</title>
<g id="a_Node000002"><a xlink:href="group___t_heap.html#ga33f604f94a11da32fdf681dd21186b87" target="_top" xlink:title="Porovnání hodnot uzlů haldy určených dvěma iterátory.">
<polygon fill="white" stroke="#666666" points="551,-56 408,-56 408,-37 551,-37 551,-56"/>
<text text-anchor="middle" x="479.5" y="-44" font-family="Helvetica,sans-Serif" font-size="10.00">heap_compare_with_iterators</text>
</a>
</g>
</g>
<!-- Node1&#45;&gt;Node2 -->
<g id="edge1_Node000001_Node000002" class="edge"><title>Node1&#45;&gt;Node2</title>
<g id="a_edge1_Node000001_Node000002"><a xlink:title=" ">
<path fill="none" stroke="#63b8ff" d="M576.848,-34.9867C568.397,-35.9965 559.68,-37.0382 551.103,-38.0631"/>
<polygon fill="#63b8ff" stroke="#63b8ff" points="577.483,-38.4359 586.997,-33.774 576.652,-31.4853 577.483,-38.4359"/>
</a>
</g>
</g>
<!-- Node7 -->
<g id="Node000007" class="node"><title>Node7</title>
<g id="a_Node000007"><a xlink:href="group___t_span.html#ga1b60dd9d2211c7cb07b066f19237b0ac" target="_top" xlink:title="Porovnání hodnot elementů Spanů určených dvěma iterátory.">
<polygon fill="white" stroke="#666666" points="551,-19 408,-19 408,-0 551,-0 551,-19"/>
<text text-anchor="middle" x="479.5" y="-7" font-family="Helvetica,sans-Serif" font-size="10.00">span_compare_with_iterators</text>
</a>
</g>
</g>
<!-- Node1&#45;&gt;Node7 -->
<g id="edge7_Node000001_Node000007" class="edge"><title>Node1&#45;&gt;Node7</title>
<g id="a_edge7_Node000001_Node000007"><a xlink:title=" ">
<path fill="none" stroke="#63b8ff" d="M576.848,-20.4073C568.397,-19.4506 559.68,-18.4638 551.103,-17.4928"/>
<polygon fill="#63b8ff" stroke="#63b8ff" points="576.667,-23.909 586.997,-21.5562 577.454,-16.9535 576.667,-23.909"/>
</a>
</g>
</g>
<!-- Node3 -->
<g id="Node000003" class="node"><title>Node3</title>
<g id="a_Node000003"><a xlink:href="heap__sort__with__iterators_8c.html#a7bf828c9c4eb35c2121c3f7d1177d19b" target="_top" xlink:title="Vnitřní a lokální funkce zajišťující vložení hodnoty do zvoleného uzlu haldy, při zachování podmínek ...">
<polygon fill="white" stroke="#666666" points="372,-56 315,-56 315,-37 372,-37 372,-56"/>
<text text-anchor="middle" x="343.5" y="-44" font-family="Helvetica,sans-Serif" font-size="10.00">sift_down</text>
</a>
</g>
</g>
<!-- Node2&#45;&gt;Node3 -->
<g id="edge2_Node000002_Node000003" class="edge"><title>Node2&#45;&gt;Node3</title>
<g id="a_edge2_Node000002_Node000003"><a xlink:title=" ">
<path fill="none" stroke="#63b8ff" d="M397.89,-46.5C388.699,-46.5 379.865,-46.5 372.119,-46.5"/>
<polygon fill="#63b8ff" stroke="#63b8ff" points="397.968,-50.0001 407.968,-46.5 397.968,-43.0001 397.968,-50.0001"/>
</a>
</g>
</g>
<!-- Node4 -->
<g id="Node000004" class="node"><title>Node4</title>
<g id="a_Node000004"><a xlink:href="group___powerful_sorts.html#ga84762e575f9465881e13d17072186ddd" target="_top" xlink:title="Třídění pomocí haldy (Heap Sort) využívající iterátorové API pro přístup k elementům vektoru.">
<polygon fill="white" stroke="#666666" points="196,-56 74,-56 74,-37 196,-37 196,-56"/>
<text text-anchor="middle" x="135" y="-44" font-family="Helvetica,sans-Serif" font-size="10.00">heap_sort_with_iterators</text>
</a>
</g>
</g>
<!-- Node3&#45;&gt;Node4 -->
<g id="edge3_Node000003_Node000004" class="edge"><title>Node3&#45;&gt;Node4</title>
<g id="a_edge3_Node000003_Node000004"><a xlink:title=" ">
<path fill="none" stroke="#63b8ff" d="M304.51,-46.5C274.252,-46.5 231.321,-46.5 196.366,-46.5"/>
<polygon fill="#63b8ff" stroke="#63b8ff" points="304.651,-50.0001 314.65,-46.5 304.65,-43.0001 304.651,-50.0001"/>
</a>
</g>
</g>
<!-- Node6 -->
<g id="Node000006" class="node"><title>Node6</title>
<g id="a_Node000006"><a xlink:href="heap__sort__with__iterators_8c.html#aceaf0618c69440f1e439e224eb6945dc" target="_top" xlink:title="Vnitřní a lokální funkce realizující uspořádání elementů vektoru do haldy.">
<polygon fill="white" stroke="#666666" points="279,-37 232,-37 232,-18 279,-18 279,-37"/>
<text text-anchor="middle" x="255.5" y="-25" font-family="Helvetica,sans-Serif" font-size="10.00">heapify</text>
</a>
</g>
</g>
<!-- Node3&#45;&gt;Node6 -->
<g id="edge5_Node000003_Node000006" class="edge"><title>Node3&#45;&gt;Node6</title>
<g id="a_edge5_Node000003_Node000006"><a xlink:title=" ">
<path fill="none" stroke="#63b8ff" d="M304.81,-38.1732C296.097,-36.2482 287.088,-34.2579 279.245,-32.525"/>
<polygon fill="#63b8ff" stroke="#63b8ff" points="304.296,-41.6439 314.816,-40.3837 305.806,-34.8088 304.296,-41.6439"/>
</a>
</g>
</g>
<!-- Node5 -->
<g id="Node000005" class="node"><title>Node5</title>
<g id="a_Node000005"><a xlink:href="group___main_program.html#ga0ddf1224851353fc92bfbff6f499fa97" target="_top" xlink:title=" ">
<polygon fill="white" stroke="#666666" points="38,-56 0,-56 0,-37 38,-37 38,-56"/>
<text text-anchor="middle" x="19" y="-44" font-family="Helvetica,sans-Serif" font-size="10.00">main</text>
</a>
</g>
</g>
<!-- Node4&#45;&gt;Node5 -->
<g id="edge4_Node000004_Node000005" class="edge"><title>Node4&#45;&gt;Node5</title>
<g id="a_edge4_Node000004_Node000005"><a xlink:title=" ">
<path fill="none" stroke="#63b8ff" d="M63.9621,-46.5C54.4658,-46.5 45.4797,-46.5 38.1365,-46.5"/>
<polygon fill="#63b8ff" stroke="#63b8ff" points="63.9954,-50.0001 73.9954,-46.5 63.9953,-43.0001 63.9954,-50.0001"/>
</a>
</g>
</g>
<!-- Node6&#45;&gt;Node4 -->
<g id="edge6_Node000006_Node000004" class="edge"><title>Node6&#45;&gt;Node4</title>
<g id="a_edge6_Node000006_Node000004"><a xlink:title=" ">
<path fill="none" stroke="#63b8ff" d="M222.001,-32.7108C213.738,-34.0357 204.596,-35.5015 195.448,-36.9683"/>
<polygon fill="#63b8ff" stroke="#63b8ff" points="222.612,-36.1576 231.932,-31.1185 221.504,-29.2459 222.612,-36.1576"/>
</a>
</g>
</g>
</g>
</svg>
