<?xml version="1.0" encoding="UTF-8" standalone="no"?>
<!DOCTYPE svg PUBLIC "-//W3C//DTD SVG 1.1//EN"
 "http://www.w3.org/Graphics/SVG/1.1/DTD/svg11.dtd">
<!-- Generated by graphviz version 2.38.0 (20140413.2041)
 -->
<!-- Title: span_iterator_value Pages: 1 -->
<svg width="374pt" height="76pt"
 viewBox="0.00 0.00 374.00 75.50" xmlns="http://www.w3.org/2000/svg" xmlns:xlink="http://www.w3.org/1999/xlink">
<g id="graph0" class="graph" transform="scale(1 1) rotate(0) translate(4 71.5)">
<title>span_iterator_value</title>
<!-- Node1 -->
<g id="Node000001" class="node"><title>Node1</title>
<g id="a_Node000001"><a xlink:title="Přečtení hodnoty elementu z Spanu pomocí iterátoru.">
<polygon fill="#999999" stroke="#666666" points="100,-45.5 0,-45.5 0,-26.5 100,-26.5 100,-45.5"/>
<text text-anchor="middle" x="50" y="-33.5" font-family="Helvetica,sans-Serif" font-size="10.00">span_iterator_value</text>
</a>
</g>
</g>
<!-- Node2 -->
<g id="Node000002" class="node"><title>Node2</title>
<g id="a_Node000002"><a xlink:href="group___t_vector_iterator.html#ga4d8032eb9dbbdccf794611f2b0c9821c" target="_top" xlink:title="Přečtení hodnoty elementu z vektoru pomocí iterátoru.">
<polygon fill="white" stroke="#666666" points="240,-45.5 136,-45.5 136,-26.5 240,-26.5 240,-45.5"/>
<text text-anchor="middle" x="188" y="-33.5" font-family="Helvetica,sans-Serif" font-size="10.00">vector_iterator_value</text>
</a>
</g>
</g>
<!-- Node1&#45;&gt;Node2 -->
<g id="edge1_Node000001_Node000002" class="edge"><title>Node1&#45;&gt;Node2</title>
<g id="a_edge1_Node000001_Node000002"><a xlink:title=" ">
<path fill="none" stroke="#63b8ff" d="M100.099,-36C108.321,-36 116.943,-36 125.431,-36"/>
<polygon fill="#63b8ff" stroke="#63b8ff" points="125.681,-39.5001 135.681,-36 125.681,-32.5001 125.681,-39.5001"/>
</a>
</g>
</g>
<!-- Node3 -->
<g id="Node000003" class="node"><title>Node3</title>
<g id="a_Node000003"><a xlink:href="_t_vector_8c.html#a0fe5f1145e51f154b5470d640c5d682c" target="_top" xlink:title=" ">
<polygon fill="white" stroke="#666666" points="366,-67.5 276,-67.5 276,-48.5 366,-48.5 366,-67.5"/>
<text text-anchor="middle" x="321" y="-55.5" font-family="Helvetica,sans-Serif" font-size="10.00">vector_fast_value</text>
</a>
</g>
</g>
<!-- Node2&#45;&gt;Node3 -->
<g id="edge2_Node000002_Node000003" class="edge"><title>Node2&#45;&gt;Node3</title>
<g id="a_edge2_Node000002_Node000003"><a xlink:title=" ">
<path fill="none" stroke="#63b8ff" d="M240.023,-44.5688C248.491,-45.9909 257.299,-47.4701 265.842,-48.9048"/>
<polygon fill="#63b8ff" stroke="#63b8ff" points="265.271,-52.3577 275.712,-50.5623 266.43,-45.4544 265.271,-52.3577"/>
</a>
</g>
</g>
<!-- Node4 -->
<g id="Node000004" class="node"><title>Node4</title>
<g id="a_Node000004"><a xlink:href="group___t_vector_iterator.html#ga3f8a97a63f887539e270f6845bf22b9a" target="_top" xlink:title="Zjištění platnosti iterátoru.">
<polygon fill="white" stroke="#666666" points="366,-30 276,-30 276,-0 366,-0 366,-30"/>
<text text-anchor="start" x="284" y="-18" font-family="Helvetica,sans-Serif" font-size="10.00">vector_iterator_is</text>
<text text-anchor="middle" x="321" y="-7" font-family="Helvetica,sans-Serif" font-size="10.00">_valid</text>
</a>
</g>
</g>
<!-- Node2&#45;&gt;Node4 -->
<g id="edge3_Node000002_Node000004" class="edge"><title>Node2&#45;&gt;Node4</title>
<g id="a_edge3_Node000002_Node000004"><a xlink:title=" ">
<path fill="none" stroke="#63b8ff" d="M240.023,-27.8207C248.399,-26.478 257.108,-25.0819 265.563,-23.7265"/>
<polygon fill="#63b8ff" stroke="#63b8ff" points="266.392,-27.1384 275.712,-22.0996 265.284,-20.2266 266.392,-27.1384"/>
</a>
</g>
</g>
</g>
</svg>
