<?xml version="1.0" encoding="UTF-8" standalone="no"?>
<!DOCTYPE svg PUBLIC "-//W3C//DTD SVG 1.1//EN"
 "http://www.w3.org/Graphics/SVG/1.1/DTD/svg11.dtd">
<!-- Generated by graphviz version 2.38.0 (20140413.2041)
 -->
<!-- Title: vector_compare_positions Pages: 1 -->
<svg width="750pt" height="288pt"
 viewBox="0.00 0.00 750.00 288.00" xmlns="http://www.w3.org/2000/svg" xmlns:xlink="http://www.w3.org/1999/xlink">
<g id="graph0" class="graph" transform="scale(1 1) rotate(0) translate(4 284)">
<title>vector_compare_positions</title>
<!-- Node1 -->
<g id="Node000001" class="node"><title>Node1</title>
<g id="a_Node000001"><a xlink:title="Porovnání hodnot elementů vektorů">
<polygon fill="#999999" stroke="#666666" points="742,-150 613,-150 613,-131 742,-131 742,-150"/>
<text text-anchor="middle" x="677.5" y="-138" font-family="Helvetica,sans-Serif" font-size="10.00">vector_compare_positions</text>
</a>
</g>
</g>
<!-- Node2 -->
<g id="Node000002" class="node"><title>Node2</title>
<g id="a_Node000002"><a xlink:href="group___basic_sorts.html#gaa1ef093f5205f293df8303ac228452fc" target="_top" xlink:title="Třídění přímou výměnou (Bubble Sort)">
<polygon fill="white" stroke="#666666" points="548,-280 481,-280 481,-261 548,-261 548,-280"/>
<text text-anchor="middle" x="514.5" y="-268" font-family="Helvetica,sans-Serif" font-size="10.00">bubble_sort</text>
</a>
</g>
</g>
<!-- Node1&#45;&gt;Node2 -->
<g id="edge1_Node000001_Node000002" class="edge"><title>Node1&#45;&gt;Node2</title>
<g id="a_edge1_Node000001_Node000002"><a xlink:title=" ">
<path fill="none" stroke="#63b8ff" d="M665.129,-158.733C648.696,-183.585 615.968,-227.82 577,-252.5 568.353,-257.976 557.979,-261.841 548.235,-264.546"/>
<polygon fill="#63b8ff" stroke="#63b8ff" points="668.129,-160.539 670.608,-150.238 662.246,-156.744 668.129,-160.539"/>
</a>
</g>
</g>
<!-- Node3 -->
<g id="Node000003" class="node"><title>Node3</title>
<g id="a_Node000003"><a xlink:href="group___basic_sorts.html#ga62a36eb31bf0a873f7c027e145843b1a" target="_top" xlink:title="Třídění přímou výměnou včetně optimalizace s pomocným příznakem ukončení třídění (Bubble Sort Optimiz...">
<polygon fill="white" stroke="#666666" points="571.5,-243 457.5,-243 457.5,-224 571.5,-224 571.5,-243"/>
<text text-anchor="middle" x="514.5" y="-231" font-family="Helvetica,sans-Serif" font-size="10.00">bubble_sort_optimized</text>
</a>
</g>
</g>
<!-- Node1&#45;&gt;Node3 -->
<g id="edge2_Node000001_Node000003" class="edge"><title>Node1&#45;&gt;Node3</title>
<g id="a_edge2_Node000001_Node000003"><a xlink:title=" ">
<path fill="none" stroke="#63b8ff" d="M658.782,-157.042C639.853,-173.911 608.322,-199.773 577,-215.5 570.438,-218.795 563.172,-221.587 556.001,-223.917"/>
<polygon fill="#63b8ff" stroke="#63b8ff" points="661.262,-159.518 666.316,-150.207 656.558,-154.334 661.262,-159.518"/>
</a>
</g>
</g>
<!-- Node4 -->
<g id="Node000004" class="node"><title>Node4</title>
<g id="a_Node000004"><a xlink:href="group___basic_sorts.html#gaba41a68f00241f38f7864b4e1dacd086" target="_top" xlink:title="Třídění přímou výměnou včetně optimalizace s výpočtem indexu poslední změny (Bubble Sort Optimized2)">
<polygon fill="white" stroke="#666666" points="574,-206 455,-206 455,-187 574,-187 574,-206"/>
<text text-anchor="middle" x="514.5" y="-194" font-family="Helvetica,sans-Serif" font-size="10.00">bubble_sort_optimized2</text>
</a>
</g>
</g>
<!-- Node1&#45;&gt;Node4 -->
<g id="edge3_Node000001_Node000004" class="edge"><title>Node1&#45;&gt;Node4</title>
<g id="a_edge3_Node000001_Node000004"><a xlink:title=" ">
<path fill="none" stroke="#63b8ff" d="M643.454,-153.883C624.203,-161.487 599.385,-170.963 577,-178.5 568.249,-181.446 558.708,-184.374 549.808,-186.986"/>
<polygon fill="#63b8ff" stroke="#63b8ff" points="644.972,-157.046 652.97,-150.098 642.385,-150.541 644.972,-157.046"/>
</a>
</g>
</g>
<!-- Node5 -->
<g id="Node000005" class="node"><title>Node5</title>
<g id="a_Node000005"><a xlink:href="group___t_heap.html#gad5c7d7699f71a4c30740204aba84f100" target="_top" xlink:title="Porovnání hodnot uzlů haldy.">
<polygon fill="white" stroke="#666666" points="577,-169 452,-169 452,-150 577,-150 577,-169"/>
<text text-anchor="middle" x="514.5" y="-157" font-family="Helvetica,sans-Serif" font-size="10.00">heap_compare_positions</text>
</a>
</g>
</g>
<!-- Node1&#45;&gt;Node5 -->
<g id="edge4_Node000001_Node000005" class="edge"><title>Node1&#45;&gt;Node5</title>
<g id="a_edge4_Node000001_Node000005"><a xlink:title=" ">
<path fill="none" stroke="#63b8ff" d="M602.835,-149.193C594.227,-150.209 585.513,-151.238 577.092,-152.231"/>
<polygon fill="#63b8ff" stroke="#63b8ff" points="603.348,-152.657 612.869,-148.009 602.527,-145.706 603.348,-152.657"/>
</a>
</g>
</g>
<!-- Node10 -->
<g id="Node000010" class="node"><title>Node10</title>
<g id="a_Node000010"><a xlink:href="merge__sort_8c.html#a662181aab782eefc61f71886c9aa21ab" target="_top" xlink:title="Vnitřní a lokální funkce realizující sloučení dvou již setříděných rozsahů z vektoru aFromVector do v...">
<polygon fill="white" stroke="#666666" points="411.5,-119 363.5,-119 363.5,-100 411.5,-100 411.5,-119"/>
<text text-anchor="middle" x="387.5" y="-107" font-family="Helvetica,sans-Serif" font-size="10.00">mergify</text>
</a>
</g>
</g>
<!-- Node1&#45;&gt;Node10 -->
<g id="edge10_Node000001_Node000010" class="edge"><title>Node1&#45;&gt;Node10</title>
<g id="a_edge10_Node000001_Node000010"><a xlink:title=" ">
<path fill="none" stroke="#63b8ff" d="M602.632,-132.549C539.513,-125.755 452.607,-116.4 411.642,-111.991"/>
<polygon fill="#63b8ff" stroke="#63b8ff" points="602.623,-136.068 612.941,-133.659 603.373,-129.108 602.623,-136.068"/>
</a>
</g>
</g>
<!-- Node13 -->
<g id="Node000013" class="node"><title>Node13</title>
<g id="a_Node000013"><a xlink:href="group___basic_sorts.html#ga3688a58781905ac2e518285b8bb711ec" target="_top" xlink:title="Třídění přímým výběrem (Select Sort)">
<polygon fill="white" stroke="#666666" points="547,-93 482,-93 482,-74 547,-74 547,-93"/>
<text text-anchor="middle" x="514.5" y="-81" font-family="Helvetica,sans-Serif" font-size="10.00">select_sort</text>
</a>
</g>
</g>
<!-- Node1&#45;&gt;Node13 -->
<g id="edge15_Node000001_Node000013" class="edge"><title>Node1&#45;&gt;Node13</title>
<g id="a_edge15_Node000001_Node000013"><a xlink:title=" ">
<path fill="none" stroke="#63b8ff" d="M639.983,-127.572C610.359,-117.084 569.269,-102.536 542.536,-93.0716"/>
<polygon fill="#63b8ff" stroke="#63b8ff" points="638.957,-130.921 649.552,-130.959 641.294,-124.323 638.957,-130.921"/>
</a>
</g>
</g>
<!-- Node14 -->
<g id="Node000014" class="node"><title>Node14</title>
<g id="a_Node000014"><a xlink:href="group___basic_sorts.html#gaacee5d609500566a6ad1724486ab8bb2" target="_top" xlink:title="Třídění přímou výměnou se změnou postupu třídění (Shaker Sort)">
<polygon fill="white" stroke="#666666" points="548.5,-56 480.5,-56 480.5,-37 548.5,-37 548.5,-56"/>
<text text-anchor="middle" x="514.5" y="-44" font-family="Helvetica,sans-Serif" font-size="10.00">shaker_sort</text>
</a>
</g>
</g>
<!-- Node1&#45;&gt;Node14 -->
<g id="edge16_Node000001_Node000014" class="edge"><title>Node1&#45;&gt;Node14</title>
<g id="a_edge16_Node000001_Node000014"><a xlink:title=" ">
<path fill="none" stroke="#63b8ff" d="M659.126,-123.999C640.266,-106.901 608.593,-80.4888 577,-64.5 568.166,-60.029 558.041,-56.4912 548.59,-53.7781"/>
<polygon fill="#63b8ff" stroke="#63b8ff" points="656.894,-126.701 666.616,-130.913 661.642,-121.558 656.894,-126.701"/>
</a>
</g>
</g>
<!-- Node15 -->
<g id="Node000015" class="node"><title>Node15</title>
<g id="a_Node000015"><a xlink:href="group___t_span.html#gaffd3a758138012dac875ceda42a975db" target="_top" xlink:title="Porovnání hodnot elementů Spanů">
<polygon fill="white" stroke="#666666" points="577,-19 452,-19 452,-0 577,-0 577,-19"/>
<text text-anchor="middle" x="514.5" y="-7" font-family="Helvetica,sans-Serif" font-size="10.00">span_compare_positions</text>
</a>
</g>
</g>
<!-- Node1&#45;&gt;Node15 -->
<g id="edge17_Node000001_Node000015" class="edge"><title>Node1&#45;&gt;Node15</title>
<g id="a_edge17_Node000001_Node000015"><a xlink:title=" ">
<path fill="none" stroke="#63b8ff" d="M665.168,-122.102C648.782,-97.0238 616.108,-52.39 577,-27.5 571.65,-24.0952 565.634,-21.3143 559.513,-19.0482"/>
<polygon fill="#63b8ff" stroke="#63b8ff" points="662.305,-124.121 670.631,-130.674 668.208,-120.359 662.305,-124.121"/>
</a>
</g>
</g>
<!-- Node6 -->
<g id="Node000006" class="node"><title>Node6</title>
<g id="a_Node000006"><a xlink:href="heap__sort_8c.html#a1572325ec24b4714bb9bbd64229d85d0" target="_top" xlink:title="Vnitřní a lokální funkce zajišťující vložení hodnoty do zvoleného uzlu haldy, při zachování podmínek ...">
<polygon fill="white" stroke="#666666" points="416,-169 359,-169 359,-150 416,-150 416,-169"/>
<text text-anchor="middle" x="387.5" y="-157" font-family="Helvetica,sans-Serif" font-size="10.00">sift_down</text>
</a>
</g>
</g>
<!-- Node5&#45;&gt;Node6 -->
<g id="edge5_Node000005_Node000006" class="edge"><title>Node5&#45;&gt;Node6</title>
<g id="a_edge5_Node000005_Node000006"><a xlink:title=" ">
<path fill="none" stroke="#63b8ff" d="M441.572,-159.5C432.636,-159.5 423.963,-159.5 416.307,-159.5"/>
<polygon fill="#63b8ff" stroke="#63b8ff" points="441.732,-163 451.732,-159.5 441.732,-156 441.732,-163"/>
</a>
</g>
</g>
<!-- Node7 -->
<g id="Node000007" class="node"><title>Node7</title>
<g id="a_Node000007"><a xlink:href="group___powerful_sorts.html#gaf564949cc194e5feea63d6c2aaa3125a" target="_top" xlink:title="Třídění pomocí haldy (Heap Sort) využívající poziční API pro přístup k elementům vektoru.">
<polygon fill="white" stroke="#666666" points="160.5,-162 101.5,-162 101.5,-143 160.5,-143 160.5,-162"/>
<text text-anchor="middle" x="131" y="-150" font-family="Helvetica,sans-Serif" font-size="10.00">heap_sort</text>
</a>
</g>
</g>
<!-- Node6&#45;&gt;Node7 -->
<g id="edge6_Node000006_Node000007" class="edge"><title>Node6&#45;&gt;Node7</title>
<g id="a_edge6_Node000006_Node000007"><a xlink:title=" ">
<path fill="none" stroke="#63b8ff" d="M348.842,-167.815C340.383,-169.347 331.418,-170.712 323,-171.5 279.192,-175.603 267.772,-175.973 224,-171.5 202.583,-169.312 178.793,-164.328 160.77,-160.014"/>
<polygon fill="#63b8ff" stroke="#63b8ff" points="349.683,-171.217 358.841,-165.889 348.359,-164.344 349.683,-171.217"/>
</a>
</g>
</g>
<!-- Node9 -->
<g id="Node000009" class="node"><title>Node9</title>
<g id="a_Node000009"><a xlink:href="heap__sort_8c.html#aceaf0618c69440f1e439e224eb6945dc" target="_top" xlink:title="Vnitřní a lokální funkce realizující uspořádání elementů vektoru do haldy.">
<polygon fill="white" stroke="#666666" points="297,-162 250,-162 250,-143 297,-143 297,-162"/>
<text text-anchor="middle" x="273.5" y="-150" font-family="Helvetica,sans-Serif" font-size="10.00">heapify</text>
</a>
</g>
</g>
<!-- Node6&#45;&gt;Node9 -->
<g id="edge8_Node000006_Node000009" class="edge"><title>Node6&#45;&gt;Node9</title>
<g id="a_edge8_Node000006_Node000009"><a xlink:title=" ">
<path fill="none" stroke="#63b8ff" d="M348.608,-157.132C331.593,-156.068 312.078,-154.849 297.346,-153.928"/>
<polygon fill="#63b8ff" stroke="#63b8ff" points="348.616,-160.639 358.815,-157.77 349.052,-153.653 348.616,-160.639"/>
</a>
</g>
</g>
<!-- Node8 -->
<g id="Node000008" class="node"><title>Node8</title>
<g id="a_Node000008"><a xlink:href="group___main_program.html#ga0ddf1224851353fc92bfbff6f499fa97" target="_top" xlink:title=" ">
<polygon fill="white" stroke="#666666" points="38,-107 0,-107 0,-88 38,-88 38,-107"/>
<text text-anchor="middle" x="19" y="-95" font-family="Helvetica,sans-Serif" font-size="10.00">main</text>
</a>
</g>
</g>
<!-- Node7&#45;&gt;Node8 -->
<g id="edge7_Node000007_Node000008" class="edge"><title>Node7&#45;&gt;Node8</title>
<g id="a_edge7_Node000007_Node000008"><a xlink:title=" ">
<path fill="none" stroke="#63b8ff" d="M101.863,-138.431C81.8439,-128.422 55.5318,-115.266 38.2105,-106.605"/>
<polygon fill="#63b8ff" stroke="#63b8ff" points="100.33,-141.578 110.839,-142.92 103.46,-135.317 100.33,-141.578"/>
</a>
</g>
</g>
<!-- Node9&#45;&gt;Node7 -->
<g id="edge9_Node000009_Node000007" class="edge"><title>Node9&#45;&gt;Node7</title>
<g id="a_edge9_Node000009_Node000007"><a xlink:title=" ">
<path fill="none" stroke="#63b8ff" d="M239.877,-152.5C215.882,-152.5 183.579,-152.5 160.592,-152.5"/>
<polygon fill="#63b8ff" stroke="#63b8ff" points="239.926,-156 249.926,-152.5 239.926,-149 239.926,-156"/>
</a>
</g>
</g>
<!-- Node11 -->
<g id="Node000011" class="node"><title>Node11</title>
<g id="a_Node000011"><a xlink:href="merge__sort_8c.html#a41bfb4129631a73ffc60c10381af80c2" target="_top" xlink:title="Vnitřní a lokální funkce realizující rekurzivní funkci pro metodu (Merge Sort)">
<polygon fill="white" stroke="#666666" points="323,-107 224,-107 224,-88 323,-88 323,-107"/>
<text text-anchor="middle" x="273.5" y="-95" font-family="Helvetica,sans-Serif" font-size="10.00">merge_sort_worker</text>
</a>
</g>
</g>
<!-- Node10&#45;&gt;Node11 -->
<g id="edge11_Node000010_Node000011" class="edge"><title>Node10&#45;&gt;Node11</title>
<g id="a_edge11_Node000010_Node000011"><a xlink:title=" ">
<path fill="none" stroke="#63b8ff" d="M353.143,-105.926C343.7,-104.914 333.223,-103.792 323.078,-102.705"/>
<polygon fill="#63b8ff" stroke="#63b8ff" points="352.978,-109.428 363.294,-107.014 353.723,-102.468 352.978,-109.428"/>
</a>
</g>
</g>
<!-- Node11&#45;&gt;Node11 -->
<g id="edge14_Node000011_Node000011" class="edge"><title>Node11&#45;&gt;Node11</title>
<g id="a_edge14_Node000011_Node000011"><a xlink:title=" ">
<path fill="none" stroke="#63b8ff" d="M294.61,-116.554C293.2,-121.38 286.164,-125 273.5,-125 253.238,-125 247.381,-115.734 255.929,-107.083"/>
<polygon fill="#63b8ff" stroke="#63b8ff" points="297.85,-115.225 291.071,-107.083 291.293,-117.675 297.85,-115.225"/>
</a>
</g>
</g>
<!-- Node12 -->
<g id="Node000012" class="node"><title>Node12</title>
<g id="a_Node000012"><a xlink:href="group___powerful_sorts.html#gaca54b9dda831aa79008867770c96413e" target="_top" xlink:title="Třídění pomocí metody slučováním (Merge sort) využívající rekurzivní rozklad.">
<polygon fill="white" stroke="#666666" points="163.5,-107 98.5,-107 98.5,-88 163.5,-88 163.5,-107"/>
<text text-anchor="middle" x="131" y="-95" font-family="Helvetica,sans-Serif" font-size="10.00">merge_sort</text>
</a>
</g>
</g>
<!-- Node11&#45;&gt;Node12 -->
<g id="edge12_Node000011_Node000012" class="edge"><title>Node11&#45;&gt;Node12</title>
<g id="a_edge12_Node000011_Node000012"><a xlink:title=" ">
<path fill="none" stroke="#63b8ff" d="M213.749,-97.5C196.515,-97.5 178.331,-97.5 163.501,-97.5"/>
<polygon fill="#63b8ff" stroke="#63b8ff" points="213.754,-101 223.754,-97.5 213.754,-94.0001 213.754,-101"/>
</a>
</g>
</g>
<!-- Node12&#45;&gt;Node8 -->
<g id="edge13_Node000012_Node000008" class="edge"><title>Node12&#45;&gt;Node8</title>
<g id="a_edge13_Node000012_Node000008"><a xlink:title=" ">
<path fill="none" stroke="#63b8ff" d="M88.0298,-97.5C70.766,-97.5 51.6849,-97.5 38.1354,-97.5"/>
<polygon fill="#63b8ff" stroke="#63b8ff" points="88.4784,-101 98.4784,-97.5 88.4784,-94.0001 88.4784,-101"/>
</a>
</g>
</g>
<!-- Node16 -->
<g id="Node000016" class="node"><title>Node16</title>
<g id="a_Node000016"><a xlink:href="merge__sort__with__span_8c.html#a8c83f4f60393434eff082ca19f5f14ad" target="_top" xlink:title="Vnitřní a lokální funkce realizující sloučení dvou již setříděných rozsahů (Spanů)">
<polygon fill="white" stroke="#666666" points="411.5,-23 363.5,-23 363.5,-4 411.5,-4 411.5,-23"/>
<text text-anchor="middle" x="387.5" y="-11" font-family="Helvetica,sans-Serif" font-size="10.00">mergify</text>
</a>
</g>
</g>
<!-- Node15&#45;&gt;Node16 -->
<g id="edge18_Node000015_Node000016" class="edge"><title>Node15&#45;&gt;Node16</title>
<g id="a_edge18_Node000015_Node000016"><a xlink:title=" ">
<path fill="none" stroke="#63b8ff" d="M441.729,-11.7967C430.91,-12.1429 420.471,-12.4769 411.746,-12.7561"/>
<polygon fill="#63b8ff" stroke="#63b8ff" points="441.849,-15.2947 451.732,-11.4766 441.626,-8.29829 441.849,-15.2947"/>
</a>
</g>
</g>
<!-- Node17 -->
<g id="Node000017" class="node"><title>Node17</title>
<g id="a_Node000017"><a xlink:href="merge__sort__with__span_8c.html#acfb719292b2ea89b714190280e0021b0" target="_top" xlink:title="Vnitřní a lokální funkce realizující rekurzivní funkci pro metodu (Merge Sort)">
<polygon fill="white" stroke="#666666" points="323,-37 224,-37 224,-18 323,-18 323,-37"/>
<text text-anchor="middle" x="273.5" y="-25" font-family="Helvetica,sans-Serif" font-size="10.00">merge_sort_worker</text>
</a>
</g>
</g>
<!-- Node16&#45;&gt;Node17 -->
<g id="edge19_Node000016_Node000017" class="edge"><title>Node16&#45;&gt;Node17</title>
<g id="a_edge19_Node000016_Node000017"><a xlink:title=" ">
<path fill="none" stroke="#63b8ff" d="M353.143,-17.6696C343.7,-18.85 333.223,-20.1596 323.078,-21.4278"/>
<polygon fill="#63b8ff" stroke="#63b8ff" points="353.805,-21.1142 363.294,-16.4008 352.937,-14.1683 353.805,-21.1142"/>
</a>
</g>
</g>
<!-- Node17&#45;&gt;Node17 -->
<g id="edge22_Node000017_Node000017" class="edge"><title>Node17&#45;&gt;Node17</title>
<g id="a_edge22_Node000017_Node000017"><a xlink:title=" ">
<path fill="none" stroke="#63b8ff" d="M294.61,-46.5536C293.2,-51.3804 286.164,-55 273.5,-55 253.238,-55 247.381,-45.7337 255.929,-37.0828"/>
<polygon fill="#63b8ff" stroke="#63b8ff" points="297.85,-45.2248 291.071,-37.0828 291.293,-47.6753 297.85,-45.2248"/>
</a>
</g>
</g>
<!-- Node18 -->
<g id="Node000018" class="node"><title>Node18</title>
<g id="a_Node000018"><a xlink:href="group___powerful_sorts.html#ga879a216389959b8a25490288ba4e63dc" target="_top" xlink:title="Třídění pomocí metody slučováním (Merge sort) využívající rekurzivní rozklad a datový typ span.">
<polygon fill="white" stroke="#666666" points="188,-41 74,-41 74,-22 188,-22 188,-41"/>
<text text-anchor="middle" x="131" y="-29" font-family="Helvetica,sans-Serif" font-size="10.00">merge_sort_with_span</text>
</a>
</g>
</g>
<!-- Node17&#45;&gt;Node18 -->
<g id="edge20_Node000017_Node000018" class="edge"><title>Node17&#45;&gt;Node18</title>
<g id="a_edge20_Node000017_Node000018"><a xlink:title=" ">
<path fill="none" stroke="#63b8ff" d="M213.68,-29.1746C205.303,-29.4131 196.704,-29.6579 188.375,-29.895"/>
<polygon fill="#63b8ff" stroke="#63b8ff" points="213.858,-32.671 223.754,-28.8878 213.659,-25.6739 213.858,-32.671"/>
</a>
</g>
</g>
<!-- Node18&#45;&gt;Node8 -->
<g id="edge21_Node000018_Node000008" class="edge"><title>Node18&#45;&gt;Node8</title>
<g id="a_edge21_Node000018_Node000008"><a xlink:title=" ">
<path fill="none" stroke="#63b8ff" d="M104.987,-46.5078C83.7908,-59.2255 54.0364,-77.0782 35.9398,-87.9361"/>
<polygon fill="#63b8ff" stroke="#63b8ff" points="106.995,-49.3848 113.769,-41.2385 103.393,-43.3823 106.995,-49.3848"/>
</a>
</g>
</g>
</g>
</svg>
