<?xml version="1.0" encoding="UTF-8" standalone="no"?>
<!DOCTYPE svg PUBLIC "-//W3C//DTD SVG 1.1//EN"
 "http://www.w3.org/Graphics/SVG/1.1/DTD/svg11.dtd">
<!-- Generated by graphviz version 2.38.0 (20140413.2041)
 -->
<!-- Title: vector_swap_position_value Pages: 1 -->
<svg width="257pt" height="86pt"
 viewBox="0.00 0.00 257.00 86.00" xmlns="http://www.w3.org/2000/svg" xmlns:xlink="http://www.w3.org/1999/xlink">
<g id="graph0" class="graph" transform="scale(1 1) rotate(0) translate(4 82)">
<title>vector_swap_position_value</title>
<!-- Node1 -->
<g id="Node000001" class="node"><title>Node1</title>
<g id="a_Node000001"><a xlink:title="Výměna mezi hodnotou elementu vektoru a proměnnou typu VectorElement.">
<polygon fill="#999999" stroke="#666666" points="249,-54 140,-54 140,-24 249,-24 249,-54"/>
<text text-anchor="start" x="148" y="-42" font-family="Helvetica,sans-Serif" font-size="10.00">vector_swap_position</text>
<text text-anchor="middle" x="194.5" y="-31" font-family="Helvetica,sans-Serif" font-size="10.00">_value</text>
</a>
</g>
</g>
<!-- Node2 -->
<g id="Node000002" class="node"><title>Node2</title>
<g id="a_Node000002"><a xlink:href="group___t_heap.html#ga9e3ecb67eb7fd210b5154c661000ba16" target="_top" xlink:title="Vzájemná výměna hodnot mezi uzlem haldy a proměnnou typu HeapElement.">
<polygon fill="white" stroke="#666666" points="104,-78 0,-78 0,-48 104,-48 104,-78"/>
<text text-anchor="start" x="8" y="-66" font-family="Helvetica,sans-Serif" font-size="10.00">heap_swap_position</text>
<text text-anchor="middle" x="52" y="-55" font-family="Helvetica,sans-Serif" font-size="10.00">_value</text>
</a>
</g>
</g>
<!-- Node1&#45;&gt;Node2 -->
<g id="edge1_Node000001_Node000002" class="edge"><title>Node1&#45;&gt;Node2</title>
<g id="a_edge1_Node000001_Node000002"><a xlink:title=" ">
<path fill="none" stroke="#63b8ff" d="M129.91,-49.8623C121.25,-51.3417 112.453,-52.8443 104.053,-54.2792"/>
<polygon fill="#63b8ff" stroke="#63b8ff" points="130.714,-53.2757 139.982,-48.1418 129.536,-46.3757 130.714,-53.2757"/>
</a>
</g>
</g>
<!-- Node3 -->
<g id="Node000003" class="node"><title>Node3</title>
<g id="a_Node000003"><a xlink:href="group___t_span.html#ga2df4c39d49410db156d79f5d12c84f7e" target="_top" xlink:title="Výměna mezi hodnotou elementu Spanu a proměnnou typu VectorElement.">
<polygon fill="white" stroke="#666666" points="104,-30 0,-30 0,-0 104,-0 104,-30"/>
<text text-anchor="start" x="8" y="-18" font-family="Helvetica,sans-Serif" font-size="10.00">span_swap_position</text>
<text text-anchor="middle" x="52" y="-7" font-family="Helvetica,sans-Serif" font-size="10.00">_value</text>
</a>
</g>
</g>
<!-- Node1&#45;&gt;Node3 -->
<g id="edge2_Node000001_Node000003" class="edge"><title>Node1&#45;&gt;Node3</title>
<g id="a_edge2_Node000001_Node000003"><a xlink:title=" ">
<path fill="none" stroke="#63b8ff" d="M129.91,-28.1377C121.25,-26.6583 112.453,-25.1557 104.053,-23.7208"/>
<polygon fill="#63b8ff" stroke="#63b8ff" points="129.536,-31.6243 139.982,-29.8582 130.714,-24.7243 129.536,-31.6243"/>
</a>
</g>
</g>
</g>
</svg>
