<?xml version="1.0" encoding="UTF-8" standalone="no"?>
<!DOCTYPE svg PUBLIC "-//W3C//DTD SVG 1.1//EN"
 "http://www.w3.org/Graphics/SVG/1.1/DTD/svg11.dtd">
<!-- Generated by graphviz version 2.38.0 (20140413.2041)
 -->
<!-- Title: vector_element_comparator Pages: 1 -->
<svg width="1139pt" height="714pt"
 viewBox="0.00 0.00 1139.00 713.50" xmlns="http://www.w3.org/2000/svg" xmlns:xlink="http://www.w3.org/1999/xlink">
<g id="graph0" class="graph" transform="scale(1 1) rotate(0) translate(4 709.5)">
<title>vector_element_comparator</title>
<!-- Node1 -->
<g id="Node000001" class="node"><title>Node1</title>
<g id="a_Node000001"><a xlink:title="Porovnání dvou elementů">
<polygon fill="#999999" stroke="#666666" points="1131,-117.5 995,-117.5 995,-98.5 1131,-98.5 1131,-117.5"/>
<text text-anchor="middle" x="1063" y="-105.5" font-family="Helvetica,sans-Serif" font-size="10.00">vector_element_comparator</text>
</a>
</g>
</g>
<!-- Node2 -->
<g id="Node000002" class="node"><title>Node2</title>
<g id="a_Node000002"><a xlink:href="_t_vector_8c.html#a8254190a2b4fe570173cc77dba0ee7a4" target="_top" xlink:title=" ">
<polygon fill="white" stroke="#666666" points="955.5,-176 849.5,-176 849.5,-146 955.5,-146 955.5,-176"/>
<text text-anchor="start" x="857.5" y="-164" font-family="Helvetica,sans-Serif" font-size="10.00">vector_fast_compare</text>
<text text-anchor="middle" x="902.5" y="-153" font-family="Helvetica,sans-Serif" font-size="10.00">_position_value</text>
</a>
</g>
</g>
<!-- Node1&#45;&gt;Node2 -->
<g id="edge1_Node000001_Node000002" class="edge"><title>Node1&#45;&gt;Node2</title>
<g id="a_edge1_Node000001_Node000002"><a xlink:title=" ">
<path fill="none" stroke="#63b8ff" d="M1023.68,-120.814C1001.02,-128.392 972.204,-138.026 948.472,-145.962"/>
<polygon fill="#63b8ff" stroke="#63b8ff" points="1024.92,-124.089 1033.3,-117.598 1022.7,-117.45 1024.92,-124.089"/>
</a>
</g>
</g>
<!-- Node20 -->
<g id="Node000020" class="node"><title>Node20</title>
<g id="a_Node000020"><a xlink:href="_t_vector_8c.html#a188bab569c3ae8a25070f632a6f53e62" target="_top" xlink:title=" ">
<polygon fill="white" stroke="#666666" points="955.5,-123 849.5,-123 849.5,-93 955.5,-93 955.5,-123"/>
<text text-anchor="start" x="857.5" y="-111" font-family="Helvetica,sans-Serif" font-size="10.00">vector_fast_compare</text>
<text text-anchor="middle" x="902.5" y="-100" font-family="Helvetica,sans-Serif" font-size="10.00">_positions</text>
</a>
</g>
</g>
<!-- Node1&#45;&gt;Node20 -->
<g id="edge26_Node000001_Node000020" class="edge"><title>Node1&#45;&gt;Node20</title>
<g id="a_edge26_Node000001_Node000020"><a xlink:title=" ">
<path fill="none" stroke="#63b8ff" d="M984.669,-108C974.927,-108 965.147,-108 955.917,-108"/>
<polygon fill="#63b8ff" stroke="#63b8ff" points="984.782,-111.5 994.782,-108 984.782,-104.5 984.782,-111.5"/>
</a>
</g>
</g>
<!-- Node38 -->
<g id="Node000038" class="node"><title>Node38</title>
<g id="a_Node000038"><a xlink:href="group__sortable___t_vector.html#ga1b7a4850be6488c69c293bdd13f729a7" target="_top" xlink:title="Ověření korektního setřídění vektoru.">
<polygon fill="white" stroke="#666666" points="959,-65 846,-65 846,-35 959,-35 959,-65"/>
<text text-anchor="start" x="854" y="-53" font-family="Helvetica,sans-Serif" font-size="10.00">vector_is_ascendantly</text>
<text text-anchor="middle" x="902.5" y="-42" font-family="Helvetica,sans-Serif" font-size="10.00">_sorted</text>
</a>
</g>
</g>
<!-- Node1&#45;&gt;Node38 -->
<g id="edge50_Node000001_Node000038" class="edge"><title>Node1&#45;&gt;Node38</title>
<g id="a_edge50_Node000001_Node000038"><a xlink:title=" ">
<path fill="none" stroke="#63b8ff" d="M1026.29,-94.9338C1002.05,-86.062 969.92,-74.305 944.608,-65.0425"/>
<polygon fill="#63b8ff" stroke="#63b8ff" points="1025.23,-98.2728 1035.83,-98.4225 1027.64,-91.6991 1025.23,-98.2728"/>
</a>
</g>
</g>
<!-- Node3 -->
<g id="Node000003" class="node"><title>Node3</title>
<g id="a_Node000003"><a xlink:href="group__sortable___t_vector.html#ga09e150aa4cdd8faabf43474ab1dbe454" target="_top" xlink:title="Porovnání mezi hodnotou elementu vektoru a hodnotou typu VectorElement.">
<polygon fill="white" stroke="#666666" points="807.5,-595 683.5,-595 683.5,-565 807.5,-565 807.5,-595"/>
<text text-anchor="start" x="691.5" y="-583" font-family="Helvetica,sans-Serif" font-size="10.00">vector_compare_position</text>
<text text-anchor="middle" x="745.5" y="-572" font-family="Helvetica,sans-Serif" font-size="10.00">_value</text>
</a>
</g>
</g>
<!-- Node2&#45;&gt;Node3 -->
<g id="edge2_Node000002_Node000003" class="edge"><title>Node2&#45;&gt;Node3</title>
<g id="a_edge2_Node000002_Node000003"><a xlink:title=" ">
<path fill="none" stroke="#63b8ff" d="M892.278,-185.928C863.389,-264.021 775.193,-502.436 752.089,-564.892"/>
<polygon fill="#63b8ff" stroke="#63b8ff" points="895.613,-187.003 895.8,-176.409 889.047,-184.574 895.613,-187.003"/>
</a>
</g>
</g>
<!-- Node14 -->
<g id="Node000014" class="node"><title>Node14</title>
<g id="a_Node000014"><a xlink:href="group__sortable___t_vector_iterator.html#gaa359594c5556fb685473666fad583ddf" target="_top" xlink:title="Porovnání mezi hodnotou elementu vektoru určenou iterátorem a hodnotou typu VectorElement.">
<polygon fill="white" stroke="#666666" points="799,-176 692,-176 692,-146 799,-146 799,-176"/>
<text text-anchor="start" x="700" y="-164" font-family="Helvetica,sans-Serif" font-size="10.00">vector_compare_with</text>
<text text-anchor="middle" x="745.5" y="-153" font-family="Helvetica,sans-Serif" font-size="10.00">_iterator_value</text>
</a>
</g>
</g>
<!-- Node2&#45;&gt;Node14 -->
<g id="edge18_Node000002_Node000014" class="edge"><title>Node2&#45;&gt;Node14</title>
<g id="a_edge18_Node000002_Node000014"><a xlink:title=" ">
<path fill="none" stroke="#63b8ff" d="M839.416,-161C826.09,-161 812.13,-161 799.199,-161"/>
<polygon fill="#63b8ff" stroke="#63b8ff" points="839.456,-164.5 849.456,-161 839.456,-157.5 839.456,-164.5"/>
</a>
</g>
</g>
<!-- Node4 -->
<g id="Node000004" class="node"><title>Node4</title>
<g id="a_Node000004"><a xlink:href="group___t_heap.html#ga3651a742b0492e167a3be5db0183f896" target="_top" xlink:title="Porovnání mezi hodnotou v uzlu haldy a hodnotou typu HeapElement.">
<polygon fill="white" stroke="#666666" points="633,-574 514,-574 514,-544 633,-544 633,-574"/>
<text text-anchor="start" x="522" y="-562" font-family="Helvetica,sans-Serif" font-size="10.00">heap_compare_position</text>
<text text-anchor="middle" x="573.5" y="-551" font-family="Helvetica,sans-Serif" font-size="10.00">_value</text>
</a>
</g>
</g>
<!-- Node3&#45;&gt;Node4 -->
<g id="edge3_Node000003_Node000004" class="edge"><title>Node3&#45;&gt;Node4</title>
<g id="a_edge3_Node000003_Node000004"><a xlink:title=" ">
<path fill="none" stroke="#63b8ff" d="M673.083,-571.178C659.804,-569.538 646.072,-567.841 633.228,-566.255"/>
<polygon fill="#63b8ff" stroke="#63b8ff" points="672.772,-574.666 683.126,-572.419 673.631,-567.719 672.772,-574.666"/>
</a>
</g>
</g>
<!-- Node9 -->
<g id="Node000009" class="node"><title>Node9</title>
<g id="a_Node000009"><a xlink:href="group___basic_sorts.html#gac3903c3fd846908cd362e293ed40582e" target="_top" xlink:title="Třídění přímým vkládáním (Insert Sort)">
<polygon fill="white" stroke="#666666" points="166,-572.5 104,-572.5 104,-553.5 166,-553.5 166,-572.5"/>
<text text-anchor="middle" x="135" y="-560.5" font-family="Helvetica,sans-Serif" font-size="10.00">insert_sort</text>
</a>
</g>
</g>
<!-- Node3&#45;&gt;Node9 -->
<g id="edge9_Node000003_Node000009" class="edge"><title>Node3&#45;&gt;Node9</title>
<g id="a_edge9_Node000003_Node000009"><a xlink:title=" ">
<path fill="none" stroke="#63b8ff" d="M673.238,-582.409C663.744,-582.653 654.137,-582.862 645,-583 581.452,-583.958 565.532,-584.735 502,-583 377.319,-579.596 229.013,-569.681 166.344,-565.22"/>
<polygon fill="#63b8ff" stroke="#63b8ff" points="673.566,-585.901 683.467,-582.131 673.375,-578.904 673.566,-585.901"/>
</a>
</g>
</g>
<!-- Node10 -->
<g id="Node000010" class="node"><title>Node10</title>
<g id="a_Node000010"><a xlink:href="advanced__sorts_8c.html#a0ae77c9640aa821e5507079ec5d2eb1d" target="_top" xlink:title="Vnitřní a lokální funkce realizující rekurzivní funkci pro metodu (Quick Sort)">
<polygon fill="white" stroke="#666666" points="464,-687.5 369,-687.5 369,-668.5 464,-668.5 464,-687.5"/>
<text text-anchor="middle" x="416.5" y="-675.5" font-family="Helvetica,sans-Serif" font-size="10.00">quick_sort_worker</text>
</a>
</g>
</g>
<!-- Node3&#45;&gt;Node10 -->
<g id="edge11_Node000003_Node000010" class="edge"><title>Node3&#45;&gt;Node10</title>
<g id="a_edge11_Node000003_Node000010"><a xlink:title=" ">
<path fill="none" stroke="#63b8ff" d="M722.114,-602.254C703.249,-619.527 674.654,-642.42 645,-654 585.623,-677.187 511.276,-680.733 464.069,-680.152"/>
<polygon fill="#63b8ff" stroke="#63b8ff" points="724.684,-604.642 729.578,-595.245 719.892,-599.539 724.684,-604.642"/>
</a>
</g>
</g>
<!-- Node12 -->
<g id="Node000012" class="node"><title>Node12</title>
<g id="a_Node000012"><a xlink:href="group___advanced_sorts.html#gaee070b00692f425d83eaea28b37bab2b" target="_top" xlink:title="Shellovo třídění vkládáním s ubývajícím krokem (Shell Sort) dle Hibbardovy posloupnosti.">
<polygon fill="white" stroke="#666666" points="164.5,-629.5 105.5,-629.5 105.5,-610.5 164.5,-610.5 164.5,-629.5"/>
<text text-anchor="middle" x="135" y="-617.5" font-family="Helvetica,sans-Serif" font-size="10.00">shell_sort</text>
</a>
</g>
</g>
<!-- Node3&#45;&gt;Node12 -->
<g id="edge15_Node000003_Node000012" class="edge"><title>Node3&#45;&gt;Node12</title>
<g id="a_edge15_Node000003_Node000012"><a xlink:title=" ">
<path fill="none" stroke="#63b8ff" d="M673.507,-594.054C663.954,-595.589 654.258,-596.967 645,-598 462.816,-618.321 242.013,-620.158 164.525,-620.121"/>
<polygon fill="#63b8ff" stroke="#63b8ff" points="674.1,-597.503 683.387,-592.404 672.947,-590.599 674.1,-597.503"/>
</a>
</g>
</g>
<!-- Node13 -->
<g id="Node000013" class="node"><title>Node13</title>
<g id="a_Node000013"><a xlink:href="group___t_span.html#gad64d53738a4da90ef126cd73d84b5f52" target="_top" xlink:title="Porovnání mezi hodnotou elementu Span a hodnotou typu VectorElement.">
<polygon fill="white" stroke="#666666" points="633,-526 514,-526 514,-496 633,-496 633,-526"/>
<text text-anchor="start" x="522" y="-514" font-family="Helvetica,sans-Serif" font-size="10.00">span_compare_position</text>
<text text-anchor="middle" x="573.5" y="-503" font-family="Helvetica,sans-Serif" font-size="10.00">_value</text>
</a>
</g>
</g>
<!-- Node3&#45;&gt;Node13 -->
<g id="edge17_Node000003_Node000013" class="edge"><title>Node3&#45;&gt;Node13</title>
<g id="a_edge17_Node000003_Node000013"><a xlink:title=" ">
<path fill="none" stroke="#63b8ff" d="M703.507,-560.385C685.697,-552.143 664.488,-542.703 645,-535 637.305,-531.958 629.051,-528.937 620.998,-526.117"/>
<polygon fill="#63b8ff" stroke="#63b8ff" points="702.477,-563.766 713.019,-564.821 705.436,-557.422 702.477,-563.766"/>
</a>
</g>
</g>
<!-- Node5 -->
<g id="Node000005" class="node"><title>Node5</title>
<g id="a_Node000005"><a xlink:href="heap__sort_8c.html#a1572325ec24b4714bb9bbd64229d85d0" target="_top" xlink:title="Vnitřní a lokální funkce zajišťující vložení hodnoty do zvoleného uzlu haldy, při zachování podmínek ...">
<polygon fill="white" stroke="#666666" points="445,-515.5 388,-515.5 388,-496.5 445,-496.5 445,-515.5"/>
<text text-anchor="middle" x="416.5" y="-503.5" font-family="Helvetica,sans-Serif" font-size="10.00">sift_down</text>
</a>
</g>
</g>
<!-- Node4&#45;&gt;Node5 -->
<g id="edge4_Node000004_Node000005" class="edge"><title>Node4&#45;&gt;Node5</title>
<g id="a_edge4_Node000004_Node000005"><a xlink:title=" ">
<path fill="none" stroke="#63b8ff" d="M518.273,-540.555C512.775,-538.68 507.276,-536.803 502,-535 483.067,-528.529 461.759,-521.216 445.277,-515.552"/>
<polygon fill="#63b8ff" stroke="#63b8ff" points="517.523,-543.997 528.117,-543.91 519.781,-537.371 517.523,-543.997"/>
</a>
</g>
</g>
<!-- Node6 -->
<g id="Node000006" class="node"><title>Node6</title>
<g id="a_Node000006"><a xlink:href="group___powerful_sorts.html#gaf564949cc194e5feea63d6c2aaa3125a" target="_top" xlink:title="Třídění pomocí haldy (Heap Sort) využívající poziční API pro přístup k elementům vektoru.">
<polygon fill="white" stroke="#666666" points="164.5,-496.5 105.5,-496.5 105.5,-477.5 164.5,-477.5 164.5,-496.5"/>
<text text-anchor="middle" x="135" y="-484.5" font-family="Helvetica,sans-Serif" font-size="10.00">heap_sort</text>
</a>
</g>
</g>
<!-- Node5&#45;&gt;Node6 -->
<g id="edge5_Node000005_Node000006" class="edge"><title>Node5&#45;&gt;Node6</title>
<g id="a_edge5_Node000005_Node000006"><a xlink:title=" ">
<path fill="none" stroke="#63b8ff" d="M377.614,-503.425C320.932,-499.571 215.309,-492.391 164.605,-488.945"/>
<polygon fill="#63b8ff" stroke="#63b8ff" points="377.721,-506.94 387.936,-504.126 378.196,-499.956 377.721,-506.94"/>
</a>
</g>
</g>
<!-- Node8 -->
<g id="Node000008" class="node"><title>Node8</title>
<g id="a_Node000008"><a xlink:href="heap__sort_8c.html#aceaf0618c69440f1e439e224eb6945dc" target="_top" xlink:title="Vnitřní a lokální funkce realizující uspořádání elementů vektoru do haldy.">
<polygon fill="white" stroke="#666666" points="305,-534.5 258,-534.5 258,-515.5 305,-515.5 305,-534.5"/>
<text text-anchor="middle" x="281.5" y="-522.5" font-family="Helvetica,sans-Serif" font-size="10.00">heapify</text>
</a>
</g>
</g>
<!-- Node5&#45;&gt;Node8 -->
<g id="edge7_Node000005_Node000008" class="edge"><title>Node5&#45;&gt;Node8</title>
<g id="a_edge7_Node000005_Node000008"><a xlink:title=" ">
<path fill="none" stroke="#63b8ff" d="M377.975,-511.361C354.526,-514.711 325.103,-518.914 305.163,-521.762"/>
<polygon fill="#63b8ff" stroke="#63b8ff" points="378.538,-514.816 387.942,-509.937 377.548,-507.886 378.538,-514.816"/>
</a>
</g>
</g>
<!-- Node7 -->
<g id="Node000007" class="node"><title>Node7</title>
<g id="a_Node000007"><a xlink:href="group___main_program.html#ga0ddf1224851353fc92bfbff6f499fa97" target="_top" xlink:title=" ">
<polygon fill="white" stroke="#666666" points="38,-477.5 0,-477.5 0,-458.5 38,-458.5 38,-477.5"/>
<text text-anchor="middle" x="19" y="-465.5" font-family="Helvetica,sans-Serif" font-size="10.00">main</text>
</a>
</g>
</g>
<!-- Node6&#45;&gt;Node7 -->
<g id="edge6_Node000006_Node000007" class="edge"><title>Node6&#45;&gt;Node7</title>
<g id="a_edge6_Node000006_Node000007"><a xlink:title=" ">
<path fill="none" stroke="#63b8ff" d="M95.1649,-480.527C75.8207,-477.303 53.3594,-473.56 38.0636,-471.011"/>
<polygon fill="#63b8ff" stroke="#63b8ff" points="94.7936,-484.014 105.233,-482.205 95.9445,-477.109 94.7936,-484.014"/>
</a>
</g>
</g>
<!-- Node8&#45;&gt;Node6 -->
<g id="edge8_Node000008_Node000006" class="edge"><title>Node8&#45;&gt;Node6</title>
<g id="a_edge8_Node000008_Node000006"><a xlink:title=" ">
<path fill="none" stroke="#63b8ff" d="M248.147,-516.492C223.088,-509.902 188.702,-500.859 164.635,-494.53"/>
<polygon fill="#63b8ff" stroke="#63b8ff" points="247.361,-519.904 257.922,-519.063 249.141,-513.134 247.361,-519.904"/>
</a>
</g>
</g>
<!-- Node9&#45;&gt;Node7 -->
<g id="edge10_Node000009_Node000007" class="edge"><title>Node9&#45;&gt;Node7</title>
<g id="a_edge10_Node000009_Node000007"><a xlink:title=" ">
<path fill="none" stroke="#63b8ff" d="M114.506,-546.755C90.6462,-526.872 51.0198,-493.85 31.5368,-477.614"/>
<polygon fill="#63b8ff" stroke="#63b8ff" points="112.306,-549.478 122.229,-553.191 116.788,-544.1 112.306,-549.478"/>
</a>
</g>
</g>
<!-- Node10&#45;&gt;Node10 -->
<g id="edge14_Node000010_Node000010" class="edge"><title>Node10&#45;&gt;Node10</title>
<g id="a_edge14_Node000010_Node000010"><a xlink:title=" ">
<path fill="none" stroke="#63b8ff" d="M441.425,-696.689C440.066,-701.697 431.757,-705.5 416.5,-705.5 392.684,-705.5 385.799,-696.234 395.847,-687.583"/>
<polygon fill="#63b8ff" stroke="#63b8ff" points="444.569,-695.15 437.153,-687.583 438.232,-698.123 444.569,-695.15"/>
</a>
</g>
</g>
<!-- Node11 -->
<g id="Node000011" class="node"><title>Node11</title>
<g id="a_Node000011"><a xlink:href="group___advanced_sorts.html#gaa369b74c9050d30aa2416f9dba8cc8f5" target="_top" xlink:title="Rychlé třídění výměnou (Quick Sort) s volbou prostředního prvku jako pivota.">
<polygon fill="white" stroke="#666666" points="312.5,-687.5 250.5,-687.5 250.5,-668.5 312.5,-668.5 312.5,-687.5"/>
<text text-anchor="middle" x="281.5" y="-675.5" font-family="Helvetica,sans-Serif" font-size="10.00">quick_sort</text>
</a>
</g>
</g>
<!-- Node10&#45;&gt;Node11 -->
<g id="edge12_Node000010_Node000011" class="edge"><title>Node10&#45;&gt;Node11</title>
<g id="a_edge12_Node000010_Node000011"><a xlink:title=" ">
<path fill="none" stroke="#63b8ff" d="M358.701,-678C342.83,-678 326.206,-678 312.55,-678"/>
<polygon fill="#63b8ff" stroke="#63b8ff" points="358.983,-681.5 368.983,-678 358.983,-674.5 358.983,-681.5"/>
</a>
</g>
</g>
<!-- Node11&#45;&gt;Node7 -->
<g id="edge13_Node000011_Node000007" class="edge"><title>Node11&#45;&gt;Node7</title>
<g id="a_edge13_Node000011_Node000007"><a xlink:title=" ">
<path fill="none" stroke="#63b8ff" d="M240.26,-681.768C194.38,-683.761 119.824,-679.663 74,-639 24.6328,-595.193 19.9973,-506.671 19.8622,-477.536"/>
<polygon fill="#63b8ff" stroke="#63b8ff" points="240.64,-685.252 250.432,-681.205 240.254,-678.263 240.64,-685.252"/>
</a>
</g>
</g>
<!-- Node12&#45;&gt;Node7 -->
<g id="edge16_Node000012_Node000007" class="edge"><title>Node12&#45;&gt;Node7</title>
<g id="a_edge16_Node000012_Node000007"><a xlink:title=" ">
<path fill="none" stroke="#63b8ff" d="M104.563,-605.286C93.9413,-598.914 82.4913,-590.679 74,-581 45.6093,-548.637 28.8323,-498.738 22.6876,-477.789"/>
<polygon fill="#63b8ff" stroke="#63b8ff" points="103.162,-608.515 113.588,-610.397 106.611,-602.424 103.162,-608.515"/>
</a>
</g>
</g>
<!-- Node15 -->
<g id="Node000015" class="node"><title>Node15</title>
<g id="a_Node000015"><a xlink:href="group___t_heap.html#gad15335cb6b5e00a87655aa3f25fadc38" target="_top" xlink:title="Porovnání mezi hodnotou v uzlu haldy určenou iterátorem a hodnotou typu HeapElement.">
<polygon fill="white" stroke="#666666" points="642.5,-133 504.5,-133 504.5,-103 642.5,-103 642.5,-133"/>
<text text-anchor="start" x="512.5" y="-121" font-family="Helvetica,sans-Serif" font-size="10.00">heap_compare_with_iterator</text>
<text text-anchor="middle" x="573.5" y="-110" font-family="Helvetica,sans-Serif" font-size="10.00">_value</text>
</a>
</g>
</g>
<!-- Node14&#45;&gt;Node15 -->
<g id="edge19_Node000014_Node000015" class="edge"><title>Node14&#45;&gt;Node15</title>
<g id="a_edge19_Node000014_Node000015"><a xlink:title=" ">
<path fill="none" stroke="#63b8ff" d="M681.563,-145.081C665.953,-141.132 649.277,-136.914 633.846,-133.011"/>
<polygon fill="#63b8ff" stroke="#63b8ff" points="681.09,-148.571 691.643,-147.63 682.806,-141.785 681.09,-148.571"/>
</a>
</g>
</g>
<!-- Node19 -->
<g id="Node000019" class="node"><title>Node19</title>
<g id="a_Node000019"><a xlink:href="group___t_span.html#ga0b2e633085569b47c063161298794b98" target="_top" xlink:title="Porovnání mezi hodnotou elementu Spanu určenou iterátorem a hodnotou typu VectorElement.">
<polygon fill="white" stroke="#666666" points="642.5,-181 504.5,-181 504.5,-151 642.5,-151 642.5,-181"/>
<text text-anchor="start" x="512.5" y="-169" font-family="Helvetica,sans-Serif" font-size="10.00">span_compare_with_iterator</text>
<text text-anchor="middle" x="573.5" y="-158" font-family="Helvetica,sans-Serif" font-size="10.00">_value</text>
</a>
</g>
</g>
<!-- Node14&#45;&gt;Node19 -->
<g id="edge25_Node000014_Node000019" class="edge"><title>Node14&#45;&gt;Node19</title>
<g id="a_edge25_Node000014_Node000019"><a xlink:title=" ">
<path fill="none" stroke="#63b8ff" d="M681.636,-162.849C668.94,-163.222 655.536,-163.617 642.668,-163.995"/>
<polygon fill="#63b8ff" stroke="#63b8ff" points="681.75,-166.347 691.643,-162.555 681.544,-159.35 681.75,-166.347"/>
</a>
</g>
</g>
<!-- Node16 -->
<g id="Node000016" class="node"><title>Node16</title>
<g id="a_Node000016"><a xlink:href="heap__sort__with__iterators_8c.html#a7bf828c9c4eb35c2121c3f7d1177d19b" target="_top" xlink:title="Vnitřní a lokální funkce zajišťující vložení hodnoty do zvoleného uzlu haldy, při zachování podmínek ...">
<polygon fill="white" stroke="#666666" points="445,-127.5 388,-127.5 388,-108.5 445,-108.5 445,-127.5"/>
<text text-anchor="middle" x="416.5" y="-115.5" font-family="Helvetica,sans-Serif" font-size="10.00">sift_down</text>
</a>
</g>
</g>
<!-- Node15&#45;&gt;Node16 -->
<g id="edge20_Node000015_Node000016" class="edge"><title>Node15&#45;&gt;Node16</title>
<g id="a_edge20_Node000015_Node000016"><a xlink:title=" ">
<path fill="none" stroke="#63b8ff" d="M493.801,-118C476.341,-118 458.963,-118 445.211,-118"/>
<polygon fill="#63b8ff" stroke="#63b8ff" points="494.064,-121.5 504.064,-118 494.064,-114.5 494.064,-121.5"/>
</a>
</g>
</g>
<!-- Node17 -->
<g id="Node000017" class="node"><title>Node17</title>
<g id="a_Node000017"><a xlink:href="group___powerful_sorts.html#ga84762e575f9465881e13d17072186ddd" target="_top" xlink:title="Třídění pomocí haldy (Heap Sort) využívající iterátorové API pro přístup k elementům vektoru.">
<polygon fill="white" stroke="#666666" points="196,-165.5 74,-165.5 74,-146.5 196,-146.5 196,-165.5"/>
<text text-anchor="middle" x="135" y="-153.5" font-family="Helvetica,sans-Serif" font-size="10.00">heap_sort_with_iterators</text>
</a>
</g>
</g>
<!-- Node16&#45;&gt;Node17 -->
<g id="edge21_Node000016_Node000017" class="edge"><title>Node16&#45;&gt;Node17</title>
<g id="a_edge21_Node000016_Node000017"><a xlink:title=" ">
<path fill="none" stroke="#63b8ff" d="M377.722,-126.956C363.182,-130.163 346.381,-133.58 331,-136 286.12,-143.061 235.019,-148.196 196.39,-151.494"/>
<polygon fill="#63b8ff" stroke="#63b8ff" points="378.87,-130.285 387.857,-124.674 377.333,-123.456 378.87,-130.285"/>
</a>
</g>
</g>
<!-- Node18 -->
<g id="Node000018" class="node"><title>Node18</title>
<g id="a_Node000018"><a xlink:href="heap__sort__with__iterators_8c.html#aceaf0618c69440f1e439e224eb6945dc" target="_top" xlink:title="Vnitřní a lokální funkce realizující uspořádání elementů vektoru do haldy.">
<polygon fill="white" stroke="#666666" points="305,-127.5 258,-127.5 258,-108.5 305,-108.5 305,-127.5"/>
<text text-anchor="middle" x="281.5" y="-115.5" font-family="Helvetica,sans-Serif" font-size="10.00">heapify</text>
</a>
</g>
</g>
<!-- Node16&#45;&gt;Node18 -->
<g id="edge23_Node000016_Node000018" class="edge"><title>Node16&#45;&gt;Node18</title>
<g id="a_edge23_Node000016_Node000018"><a xlink:title=" ">
<path fill="none" stroke="#63b8ff" d="M377.659,-118C354.263,-118 325.014,-118 305.163,-118"/>
<polygon fill="#63b8ff" stroke="#63b8ff" points="377.942,-121.5 387.942,-118 377.942,-114.5 377.942,-121.5"/>
</a>
</g>
</g>
<!-- Node17&#45;&gt;Node7 -->
<g id="edge22_Node000017_Node000007" class="edge"><title>Node17&#45;&gt;Node7</title>
<g id="a_edge22_Node000017_Node000007"><a xlink:title=" ">
<path fill="none" stroke="#63b8ff" d="M126.922,-175.371C105.104,-235.083 39.4015,-414.901 23.4956,-458.433"/>
<polygon fill="#63b8ff" stroke="#63b8ff" points="130.319,-176.274 130.463,-165.68 123.744,-173.871 130.319,-176.274"/>
</a>
</g>
</g>
<!-- Node18&#45;&gt;Node17 -->
<g id="edge24_Node000018_Node000017" class="edge"><title>Node18&#45;&gt;Node17</title>
<g id="a_edge24_Node000018_Node000017"><a xlink:title=" ">
<path fill="none" stroke="#63b8ff" d="M248.148,-126.508C225.608,-132.435 195.52,-140.348 172.184,-146.485"/>
<polygon fill="#63b8ff" stroke="#63b8ff" points="249.141,-129.866 257.922,-123.938 247.361,-123.096 249.141,-129.866"/>
</a>
</g>
</g>
<!-- Node21 -->
<g id="Node000021" class="node"><title>Node21</title>
<g id="a_Node000021"><a xlink:href="group__sortable___t_vector.html#gaedaf9c79afa345e5e71e5c66ab25fa26" target="_top" xlink:title="Porovnání hodnot elementů vektorů">
<polygon fill="white" stroke="#666666" points="810,-329.5 681,-329.5 681,-310.5 810,-310.5 810,-329.5"/>
<text text-anchor="middle" x="745.5" y="-317.5" font-family="Helvetica,sans-Serif" font-size="10.00">vector_compare_positions</text>
</a>
</g>
</g>
<!-- Node20&#45;&gt;Node21 -->
<g id="edge27_Node000020_Node000021" class="edge"><title>Node20&#45;&gt;Node21</title>
<g id="a_edge27_Node000020_Node000021"><a xlink:title=" ">
<path fill="none" stroke="#63b8ff" d="M856.552,-128.384C852.769,-130.999 849.181,-133.871 846,-137 818.027,-164.515 765.984,-276.873 750.777,-310.468"/>
<polygon fill="#63b8ff" stroke="#63b8ff" points="858.436,-131.334 865.06,-123.065 854.726,-125.398 858.436,-131.334"/>
</a>
</g>
</g>
<!-- Node35 -->
<g id="Node000035" class="node"><title>Node35</title>
<g id="a_Node000035"><a xlink:href="group__sortable___t_vector_iterator.html#gadd8aded92ce2c6402742a57316412d39" target="_top" xlink:title="Porovnání hodnot elementů vektorů určených dvěma iterátory.">
<polygon fill="white" stroke="#666666" points="799,-90 692,-90 692,-60 799,-60 799,-90"/>
<text text-anchor="start" x="700" y="-78" font-family="Helvetica,sans-Serif" font-size="10.00">vector_compare_with</text>
<text text-anchor="middle" x="745.5" y="-67" font-family="Helvetica,sans-Serif" font-size="10.00">_iterators</text>
</a>
</g>
</g>
<!-- Node20&#45;&gt;Node35 -->
<g id="edge46_Node000020_Node000035" class="edge"><title>Node20&#45;&gt;Node35</title>
<g id="a_edge46_Node000020_Node000035"><a xlink:title=" ">
<path fill="none" stroke="#63b8ff" d="M839.416,-94.7822C826.09,-91.9449 812.13,-88.9727 799.199,-86.2198"/>
<polygon fill="#63b8ff" stroke="#63b8ff" points="838.946,-98.2605 849.456,-96.9197 840.404,-91.414 838.946,-98.2605"/>
</a>
</g>
</g>
<!-- Node22 -->
<g id="Node000022" class="node"><title>Node22</title>
<g id="a_Node000022"><a xlink:href="group___basic_sorts.html#gaa1ef093f5205f293df8303ac228452fc" target="_top" xlink:title="Třídění přímou výměnou (Bubble Sort)">
<polygon fill="white" stroke="#666666" points="607,-255.5 540,-255.5 540,-236.5 607,-236.5 607,-255.5"/>
<text text-anchor="middle" x="573.5" y="-243.5" font-family="Helvetica,sans-Serif" font-size="10.00">bubble_sort</text>
</a>
</g>
</g>
<!-- Node21&#45;&gt;Node22 -->
<g id="edge28_Node000021_Node000022" class="edge"><title>Node21&#45;&gt;Node22</title>
<g id="a_edge28_Node000021_Node000022"><a xlink:title=" ">
<path fill="none" stroke="#63b8ff" d="M721.727,-304.891C702.098,-292.438 672.637,-275.08 645,-264 632.923,-259.158 619.152,-255.299 607.005,-252.415"/>
<polygon fill="#63b8ff" stroke="#63b8ff" points="719.966,-307.92 730.268,-310.395 723.758,-302.036 719.966,-307.92"/>
</a>
</g>
</g>
<!-- Node23 -->
<g id="Node000023" class="node"><title>Node23</title>
<g id="a_Node000023"><a xlink:href="group___basic_sorts.html#ga62a36eb31bf0a873f7c027e145843b1a" target="_top" xlink:title="Třídění přímou výměnou včetně optimalizace s pomocným příznakem ukončení třídění (Bubble Sort Optimiz...">
<polygon fill="white" stroke="#666666" points="630.5,-218.5 516.5,-218.5 516.5,-199.5 630.5,-199.5 630.5,-218.5"/>
<text text-anchor="middle" x="573.5" y="-206.5" font-family="Helvetica,sans-Serif" font-size="10.00">bubble_sort_optimized</text>
</a>
</g>
</g>
<!-- Node21&#45;&gt;Node23 -->
<g id="edge29_Node000021_Node000023" class="edge"><title>Node21&#45;&gt;Node23</title>
<g id="a_edge29_Node000021_Node000023"><a xlink:title=" ">
<path fill="none" stroke="#63b8ff" d="M730.726,-302.614C713.095,-281.545 680.548,-246.457 645,-227 638.795,-223.603 631.931,-220.832 624.993,-218.574"/>
<polygon fill="#63b8ff" stroke="#63b8ff" points="728.093,-304.922 737.133,-310.446 733.511,-300.49 728.093,-304.922"/>
</a>
</g>
</g>
<!-- Node24 -->
<g id="Node000024" class="node"><title>Node24</title>
<g id="a_Node000024"><a xlink:href="group___basic_sorts.html#gaba41a68f00241f38f7864b4e1dacd086" target="_top" xlink:title="Třídění přímou výměnou včetně optimalizace s výpočtem indexu poslední změny (Bubble Sort Optimized2)">
<polygon fill="white" stroke="#666666" points="633,-366.5 514,-366.5 514,-347.5 633,-347.5 633,-366.5"/>
<text text-anchor="middle" x="573.5" y="-354.5" font-family="Helvetica,sans-Serif" font-size="10.00">bubble_sort_optimized2</text>
</a>
</g>
</g>
<!-- Node21&#45;&gt;Node24 -->
<g id="edge30_Node000021_Node000024" class="edge"><title>Node21&#45;&gt;Node24</title>
<g id="a_edge30_Node000021_Node000024"><a xlink:title=" ">
<path fill="none" stroke="#63b8ff" d="M690.651,-331.72C667.37,-336.787 640.472,-342.641 618.426,-347.44"/>
<polygon fill="#63b8ff" stroke="#63b8ff" points="691.694,-335.075 700.721,-329.528 690.205,-328.235 691.694,-335.075"/>
</a>
</g>
</g>
<!-- Node25 -->
<g id="Node000025" class="node"><title>Node25</title>
<g id="a_Node000025"><a xlink:href="group___t_heap.html#gad5c7d7699f71a4c30740204aba84f100" target="_top" xlink:title="Porovnání hodnot uzlů haldy.">
<polygon fill="white" stroke="#666666" points="636,-477.5 511,-477.5 511,-458.5 636,-458.5 636,-477.5"/>
<text text-anchor="middle" x="573.5" y="-465.5" font-family="Helvetica,sans-Serif" font-size="10.00">heap_compare_positions</text>
</a>
</g>
</g>
<!-- Node21&#45;&gt;Node25 -->
<g id="edge31_Node000021_Node000025" class="edge"><title>Node21&#45;&gt;Node25</title>
<g id="a_edge31_Node000021_Node000025"><a xlink:title=" ">
<path fill="none" stroke="#63b8ff" d="M735.02,-339.088C719.933,-367.461 687.743,-420.473 645,-449 639.201,-452.87 632.64,-455.955 625.911,-458.412"/>
<polygon fill="#63b8ff" stroke="#63b8ff" points="738.316,-340.332 739.792,-329.841 732.096,-337.122 738.316,-340.332"/>
</a>
</g>
</g>
<!-- Node26 -->
<g id="Node000026" class="node"><title>Node26</title>
<g id="a_Node000026"><a xlink:href="merge__sort_8c.html#a662181aab782eefc61f71886c9aa21ab" target="_top" xlink:title="Vnitřní a lokální funkce realizující sloučení dvou již setříděných rozsahů z vektoru aFromVector do v...">
<polygon fill="white" stroke="#666666" points="597.5,-440.5 549.5,-440.5 549.5,-421.5 597.5,-421.5 597.5,-440.5"/>
<text text-anchor="middle" x="573.5" y="-428.5" font-family="Helvetica,sans-Serif" font-size="10.00">mergify</text>
</a>
</g>
</g>
<!-- Node21&#45;&gt;Node26 -->
<g id="edge33_Node000021_Node000026" class="edge"><title>Node21&#45;&gt;Node26</title>
<g id="a_edge33_Node000021_Node000026"><a xlink:title=" ">
<path fill="none" stroke="#63b8ff" d="M730.369,-337.437C712.592,-358.23 680.113,-392.601 645,-412 630.354,-420.092 612.068,-424.89 597.789,-427.641"/>
<polygon fill="#63b8ff" stroke="#63b8ff" points="733.117,-339.607 736.848,-329.691 727.748,-335.116 733.117,-339.607"/>
</a>
</g>
</g>
<!-- Node29 -->
<g id="Node000029" class="node"><title>Node29</title>
<g id="a_Node000029"><a xlink:href="group___basic_sorts.html#ga3688a58781905ac2e518285b8bb711ec" target="_top" xlink:title="Třídění přímým výběrem (Select Sort)">
<polygon fill="white" stroke="#666666" points="606,-329.5 541,-329.5 541,-310.5 606,-310.5 606,-329.5"/>
<text text-anchor="middle" x="573.5" y="-317.5" font-family="Helvetica,sans-Serif" font-size="10.00">select_sort</text>
</a>
</g>
</g>
<!-- Node21&#45;&gt;Node29 -->
<g id="edge38_Node000021_Node000029" class="edge"><title>Node21&#45;&gt;Node29</title>
<g id="a_edge38_Node000021_Node000029"><a xlink:title=" ">
<path fill="none" stroke="#63b8ff" d="M670.459,-320C647.928,-320 624.351,-320 606.206,-320"/>
<polygon fill="#63b8ff" stroke="#63b8ff" points="670.715,-323.5 680.715,-320 670.715,-316.5 670.715,-323.5"/>
</a>
</g>
</g>
<!-- Node30 -->
<g id="Node000030" class="node"><title>Node30</title>
<g id="a_Node000030"><a xlink:href="group___basic_sorts.html#gaacee5d609500566a6ad1724486ab8bb2" target="_top" xlink:title="Třídění přímou výměnou se změnou postupu třídění (Shaker Sort)">
<polygon fill="white" stroke="#666666" points="607.5,-292.5 539.5,-292.5 539.5,-273.5 607.5,-273.5 607.5,-292.5"/>
<text text-anchor="middle" x="573.5" y="-280.5" font-family="Helvetica,sans-Serif" font-size="10.00">shaker_sort</text>
</a>
</g>
</g>
<!-- Node21&#45;&gt;Node30 -->
<g id="edge39_Node000021_Node000030" class="edge"><title>Node21&#45;&gt;Node30</title>
<g id="a_edge39_Node000021_Node000030"><a xlink:title=" ">
<path fill="none" stroke="#63b8ff" d="M690.92,-308.338C663.631,-302.399 631.314,-295.365 607.661,-290.217"/>
<polygon fill="#63b8ff" stroke="#63b8ff" points="690.205,-311.765 700.721,-310.472 691.694,-304.925 690.205,-311.765"/>
</a>
</g>
</g>
<!-- Node31 -->
<g id="Node000031" class="node"><title>Node31</title>
<g id="a_Node000031"><a xlink:href="group___t_span.html#gaffd3a758138012dac875ceda42a975db" target="_top" xlink:title="Porovnání hodnot elementů Spanů">
<polygon fill="white" stroke="#666666" points="636,-403.5 511,-403.5 511,-384.5 636,-384.5 636,-403.5"/>
<text text-anchor="middle" x="573.5" y="-391.5" font-family="Helvetica,sans-Serif" font-size="10.00">span_compare_positions</text>
</a>
</g>
</g>
<!-- Node21&#45;&gt;Node31 -->
<g id="edge40_Node000021_Node000031" class="edge"><title>Node21&#45;&gt;Node31</title>
<g id="a_edge40_Node000021_Node000031"><a xlink:title=" ">
<path fill="none" stroke="#63b8ff" d="M721.311,-334.932C701.636,-347.077 672.33,-363.954 645,-375 635.95,-378.658 625.967,-381.834 616.429,-384.487"/>
<polygon fill="#63b8ff" stroke="#63b8ff" points="723.271,-337.835 729.888,-329.56 719.555,-331.902 723.271,-337.835"/>
</a>
</g>
</g>
<!-- Node25&#45;&gt;Node5 -->
<g id="edge32_Node000025_Node000005" class="edge"><title>Node25&#45;&gt;Node5</title>
<g id="a_edge32_Node000025_Node000005"><a xlink:title=" ">
<path fill="none" stroke="#63b8ff" d="M523.417,-480.033C497.656,-486.349 467.033,-493.857 445.356,-499.171"/>
<polygon fill="#63b8ff" stroke="#63b8ff" points="524.508,-483.37 533.387,-477.589 522.841,-476.571 524.508,-483.37"/>
</a>
</g>
</g>
<!-- Node27 -->
<g id="Node000027" class="node"><title>Node27</title>
<g id="a_Node000027"><a xlink:href="merge__sort_8c.html#a41bfb4129631a73ffc60c10381af80c2" target="_top" xlink:title="Vnitřní a lokální funkce realizující rekurzivní funkci pro metodu (Merge Sort)">
<polygon fill="white" stroke="#666666" points="466,-440.5 367,-440.5 367,-421.5 466,-421.5 466,-440.5"/>
<text text-anchor="middle" x="416.5" y="-428.5" font-family="Helvetica,sans-Serif" font-size="10.00">merge_sort_worker</text>
</a>
</g>
</g>
<!-- Node26&#45;&gt;Node27 -->
<g id="edge34_Node000026_Node000027" class="edge"><title>Node26&#45;&gt;Node27</title>
<g id="a_edge34_Node000026_Node000027"><a xlink:title=" ">
<path fill="none" stroke="#63b8ff" d="M539.136,-431C517.867,-431 489.944,-431 466.216,-431"/>
<polygon fill="#63b8ff" stroke="#63b8ff" points="539.295,-434.5 549.295,-431 539.295,-427.5 539.295,-434.5"/>
</a>
</g>
</g>
<!-- Node27&#45;&gt;Node27 -->
<g id="edge37_Node000027_Node000027" class="edge"><title>Node27&#45;&gt;Node27</title>
<g id="a_edge37_Node000027_Node000027"><a xlink:title=" ">
<path fill="none" stroke="#63b8ff" d="M441.425,-449.689C440.066,-454.697 431.757,-458.5 416.5,-458.5 392.684,-458.5 385.799,-449.234 395.847,-440.583"/>
<polygon fill="#63b8ff" stroke="#63b8ff" points="444.569,-448.15 437.153,-440.583 438.232,-451.123 444.569,-448.15"/>
</a>
</g>
</g>
<!-- Node28 -->
<g id="Node000028" class="node"><title>Node28</title>
<g id="a_Node000028"><a xlink:href="group___powerful_sorts.html#gaca54b9dda831aa79008867770c96413e" target="_top" xlink:title="Třídění pomocí metody slučováním (Merge sort) využívající rekurzivní rozklad.">
<polygon fill="white" stroke="#666666" points="314,-458.5 249,-458.5 249,-439.5 314,-439.5 314,-458.5"/>
<text text-anchor="middle" x="281.5" y="-446.5" font-family="Helvetica,sans-Serif" font-size="10.00">merge_sort</text>
</a>
</g>
</g>
<!-- Node27&#45;&gt;Node28 -->
<g id="edge35_Node000027_Node000028" class="edge"><title>Node27&#45;&gt;Node28</title>
<g id="a_edge35_Node000027_Node000028"><a xlink:title=" ">
<path fill="none" stroke="#63b8ff" d="M356.738,-438.953C342.137,-440.929 327.031,-442.973 314.288,-444.698"/>
<polygon fill="#63b8ff" stroke="#63b8ff" points="357.291,-442.41 366.731,-437.6 356.352,-435.473 357.291,-442.41"/>
</a>
</g>
</g>
<!-- Node28&#45;&gt;Node7 -->
<g id="edge36_Node000028_Node000007" class="edge"><title>Node28&#45;&gt;Node7</title>
<g id="a_edge36_Node000028_Node000007"><a xlink:title=" ">
<path fill="none" stroke="#63b8ff" d="M238.583,-452.057C180.919,-456.263 79.573,-463.655 38.283,-466.666"/>
<polygon fill="#63b8ff" stroke="#63b8ff" points="239.099,-455.529 248.818,-451.311 238.59,-448.548 239.099,-455.529"/>
</a>
</g>
</g>
<!-- Node32 -->
<g id="Node000032" class="node"><title>Node32</title>
<g id="a_Node000032"><a xlink:href="merge__sort__with__span_8c.html#a8c83f4f60393434eff082ca19f5f14ad" target="_top" xlink:title="Vnitřní a lokální funkce realizující sloučení dvou již setříděných rozsahů (Spanů)">
<polygon fill="white" stroke="#666666" points="440.5,-403.5 392.5,-403.5 392.5,-384.5 440.5,-384.5 440.5,-403.5"/>
<text text-anchor="middle" x="416.5" y="-391.5" font-family="Helvetica,sans-Serif" font-size="10.00">mergify</text>
</a>
</g>
</g>
<!-- Node31&#45;&gt;Node32 -->
<g id="edge41_Node000031_Node000032" class="edge"><title>Node31&#45;&gt;Node32</title>
<g id="a_edge41_Node000031_Node000032"><a xlink:title=" ">
<path fill="none" stroke="#63b8ff" d="M500.586,-394C478.949,-394 456.729,-394 440.718,-394"/>
<polygon fill="#63b8ff" stroke="#63b8ff" points="500.795,-397.5 510.795,-394 500.794,-390.5 500.795,-397.5"/>
</a>
</g>
</g>
<!-- Node33 -->
<g id="Node000033" class="node"><title>Node33</title>
<g id="a_Node000033"><a xlink:href="merge__sort__with__span_8c.html#acfb719292b2ea89b714190280e0021b0" target="_top" xlink:title="Vnitřní a lokální funkce realizující rekurzivní funkci pro metodu (Merge Sort)">
<polygon fill="white" stroke="#666666" points="331,-403.5 232,-403.5 232,-384.5 331,-384.5 331,-403.5"/>
<text text-anchor="middle" x="281.5" y="-391.5" font-family="Helvetica,sans-Serif" font-size="10.00">merge_sort_worker</text>
</a>
</g>
</g>
<!-- Node32&#45;&gt;Node33 -->
<g id="edge42_Node000032_Node000033" class="edge"><title>Node32&#45;&gt;Node33</title>
<g id="a_edge42_Node000032_Node000033"><a xlink:title=" ">
<path fill="none" stroke="#63b8ff" d="M382.194,-394C366.715,-394 348.011,-394 331.004,-394"/>
<polygon fill="#63b8ff" stroke="#63b8ff" points="382.333,-397.5 392.333,-394 382.333,-390.5 382.333,-397.5"/>
</a>
</g>
</g>
<!-- Node33&#45;&gt;Node33 -->
<g id="edge45_Node000033_Node000033" class="edge"><title>Node33&#45;&gt;Node33</title>
<g id="a_edge45_Node000033_Node000033"><a xlink:title=" ">
<path fill="none" stroke="#63b8ff" d="M306.425,-412.689C305.066,-417.697 296.757,-421.5 281.5,-421.5 257.684,-421.5 250.799,-412.234 260.847,-403.583"/>
<polygon fill="#63b8ff" stroke="#63b8ff" points="309.569,-411.15 302.153,-403.583 303.232,-414.123 309.569,-411.15"/>
</a>
</g>
</g>
<!-- Node34 -->
<g id="Node000034" class="node"><title>Node34</title>
<g id="a_Node000034"><a xlink:href="group___powerful_sorts.html#ga879a216389959b8a25490288ba4e63dc" target="_top" xlink:title="Třídění pomocí metody slučováním (Merge sort) využívající rekurzivní rozklad a datový typ span.">
<polygon fill="white" stroke="#666666" points="192,-412.5 78,-412.5 78,-393.5 192,-393.5 192,-412.5"/>
<text text-anchor="middle" x="135" y="-400.5" font-family="Helvetica,sans-Serif" font-size="10.00">merge_sort_with_span</text>
</a>
</g>
</g>
<!-- Node33&#45;&gt;Node34 -->
<g id="edge43_Node000033_Node000034" class="edge"><title>Node33&#45;&gt;Node34</title>
<g id="a_edge43_Node000033_Node000034"><a xlink:title=" ">
<path fill="none" stroke="#63b8ff" d="M221.898,-397.65C212.071,-398.262 201.893,-398.896 192.129,-399.504"/>
<polygon fill="#63b8ff" stroke="#63b8ff" points="222.219,-401.137 231.982,-397.022 221.783,-394.15 222.219,-401.137"/>
</a>
</g>
</g>
<!-- Node34&#45;&gt;Node7 -->
<g id="edge44_Node000034_Node000007" class="edge"><title>Node34&#45;&gt;Node7</title>
<g id="a_edge44_Node000034_Node000007"><a xlink:title=" ">
<path fill="none" stroke="#63b8ff" d="M106.513,-417.226C96.2388,-422.657 84.5153,-428.99 74,-435 60.8365,-442.524 46.1731,-451.526 35.4521,-458.225"/>
<polygon fill="#63b8ff" stroke="#63b8ff" points="108.238,-420.274 115.465,-412.527 104.984,-414.076 108.238,-420.274"/>
</a>
</g>
</g>
<!-- Node36 -->
<g id="Node000036" class="node"><title>Node36</title>
<g id="a_Node000036"><a xlink:href="group___t_heap.html#ga33f604f94a11da32fdf681dd21186b87" target="_top" xlink:title="Porovnání hodnot uzlů haldy určených dvěma iterátory.">
<polygon fill="white" stroke="#666666" points="645,-84.5 502,-84.5 502,-65.5 645,-65.5 645,-84.5"/>
<text text-anchor="middle" x="573.5" y="-72.5" font-family="Helvetica,sans-Serif" font-size="10.00">heap_compare_with_iterators</text>
</a>
</g>
</g>
<!-- Node35&#45;&gt;Node36 -->
<g id="edge47_Node000035_Node000036" class="edge"><title>Node35&#45;&gt;Node36</title>
<g id="a_edge47_Node000035_Node000036"><a xlink:title=" ">
<path fill="none" stroke="#63b8ff" d="M681.432,-75C669.607,-75 657.173,-75 645.136,-75"/>
<polygon fill="#63b8ff" stroke="#63b8ff" points="681.643,-78.5001 691.643,-75 681.643,-71.5001 681.643,-78.5001"/>
</a>
</g>
</g>
<!-- Node37 -->
<g id="Node000037" class="node"><title>Node37</title>
<g id="a_Node000037"><a xlink:href="group___t_span.html#ga1b60dd9d2211c7cb07b066f19237b0ac" target="_top" xlink:title="Porovnání hodnot elementů Spanů určených dvěma iterátory.">
<polygon fill="white" stroke="#666666" points="645,-47.5 502,-47.5 502,-28.5 645,-28.5 645,-47.5"/>
<text text-anchor="middle" x="573.5" y="-35.5" font-family="Helvetica,sans-Serif" font-size="10.00">span_compare_with_iterators</text>
</a>
</g>
</g>
<!-- Node35&#45;&gt;Node37 -->
<g id="edge49_Node000035_Node000037" class="edge"><title>Node35&#45;&gt;Node37</title>
<g id="a_edge49_Node000035_Node000037"><a xlink:title=" ">
<path fill="none" stroke="#63b8ff" d="M681.774,-61.3479C660.641,-56.7484 637.533,-51.7188 618.193,-47.5096"/>
<polygon fill="#63b8ff" stroke="#63b8ff" points="681.127,-64.789 691.643,-63.4958 682.616,-57.9491 681.127,-64.789"/>
</a>
</g>
</g>
<!-- Node36&#45;&gt;Node16 -->
<g id="edge48_Node000036_Node000016" class="edge"><title>Node36&#45;&gt;Node16</title>
<g id="a_edge48_Node000036_Node000016"><a xlink:title=" ">
<path fill="none" stroke="#63b8ff" d="M526.742,-87.2357C518.5,-89.4669 509.991,-91.7886 502,-94 483.04,-99.2473 461.731,-105.3 445.256,-110.015"/>
<polygon fill="#63b8ff" stroke="#63b8ff" points="527.867,-90.5574 536.609,-84.5724 526.043,-83.7992 527.867,-90.5574"/>
</a>
</g>
</g>
<!-- Node39 -->
<g id="Node000039" class="node"><title>Node39</title>
<g id="a_Node000039"><a xlink:href="group___main_program.html#ga7343209645c93203da0a86613abfed04" target="_top" xlink:title="Testování třídicí metody.">
<polygon fill="white" stroke="#666666" points="779.5,-39.5 711.5,-39.5 711.5,-20.5 779.5,-20.5 779.5,-39.5"/>
<text text-anchor="middle" x="745.5" y="-27.5" font-family="Helvetica,sans-Serif" font-size="10.00">sort_testing</text>
</a>
</g>
</g>
<!-- Node38&#45;&gt;Node39 -->
<g id="edge51_Node000038_Node000039" class="edge"><title>Node38&#45;&gt;Node39</title>
<g id="a_edge51_Node000038_Node000039"><a xlink:title=" ">
<path fill="none" stroke="#63b8ff" d="M835.929,-41.5393C816.481,-39.0298 796.005,-36.3878 779.561,-34.266"/>
<polygon fill="#63b8ff" stroke="#63b8ff" points="835.614,-45.0275 845.979,-42.836 836.509,-38.085 835.614,-45.0275"/>
</a>
</g>
</g>
<!-- Node39&#45;&gt;Node7 -->
<g id="edge52_Node000039_Node000007" class="edge"><title>Node39&#45;&gt;Node7</title>
<g id="a_edge52_Node000039_Node000007"><a xlink:title=" ">
<path fill="none" stroke="#63b8ff" d="M700.89,-23.4407C638.313,-14.6122 519.355,-0 417.5,-0 417.5,-0 417.5,-0 280.5,-0 170.361,-0 133.747,-44.4749 74,-137 38.1507,-192.517 23.4193,-409.833 20.5418,-458.357"/>
<polygon fill="#63b8ff" stroke="#63b8ff" points="700.775,-26.9599 711.17,-24.9109 701.766,-20.0304 700.775,-26.9599"/>
</a>
</g>
</g>
</g>
</svg>
