<?xml version="1.0" encoding="UTF-8" standalone="no"?>
<!DOCTYPE svg PUBLIC "-//W3C//DTD SVG 1.1//EN"
 "http://www.w3.org/Graphics/SVG/1.1/DTD/svg11.dtd">
<!-- Generated by graphviz version 2.38.0 (20140413.2041)
 -->
<!-- Title: vector_destroy Pages: 1 -->
<svg width="416pt" height="166pt"
 viewBox="0.00 0.00 416.00 165.65" xmlns="http://www.w3.org/2000/svg" xmlns:xlink="http://www.w3.org/1999/xlink">
<g id="graph0" class="graph" transform="scale(1 1) rotate(0) translate(4 161.649)">
<title>vector_destroy</title>
<!-- Node1 -->
<g id="Node000001" class="node"><title>Node1</title>
<g id="a_Node000001"><a xlink:title="Dealokace vektoru.">
<polygon fill="#999999" stroke="#666666" points="408,-105.5 328,-105.5 328,-86.5 408,-86.5 408,-105.5"/>
<text text-anchor="middle" x="368" y="-93.5" font-family="Helvetica,sans-Serif" font-size="10.00">vector_destroy</text>
</a>
</g>
</g>
<!-- Node2 -->
<g id="Node000002" class="node"><title>Node2</title>
<g id="a_Node000002"><a xlink:href="group___main_program.html#ga0ddf1224851353fc92bfbff6f499fa97" target="_top" xlink:title=" ">
<polygon fill="white" stroke="#666666" points="38,-124.5 0,-124.5 0,-105.5 38,-105.5 38,-124.5"/>
<text text-anchor="middle" x="19" y="-112.5" font-family="Helvetica,sans-Serif" font-size="10.00">main</text>
</a>
</g>
</g>
<!-- Node1&#45;&gt;Node2 -->
<g id="edge1_Node000001_Node000002" class="edge"><title>Node1&#45;&gt;Node2</title>
<g id="a_edge1_Node000001_Node000002"><a xlink:title=" ">
<path fill="none" stroke="#63b8ff" d="M344.373,-110.979C329.981,-119.752 310.611,-130.214 292,-136 227.931,-155.917 208.987,-149.216 142,-153 111.826,-154.704 102.813,-162.122 74,-153 56.5136,-147.464 39.7915,-134.004 29.7089,-124.688"/>
<polygon fill="#63b8ff" stroke="#63b8ff" points="346.449,-113.808 353.054,-105.523 342.724,-107.881 346.449,-113.808"/>
</a>
</g>
</g>
<!-- Node3 -->
<g id="Node000003" class="node"><title>Node3</title>
<g id="a_Node000003"><a xlink:href="group___powerful_sorts.html#gaca54b9dda831aa79008867770c96413e" target="_top" xlink:title="Třídění pomocí metody slučováním (Merge sort) využívající rekurzivní rozklad.">
<polygon fill="white" stroke="#666666" points="140.5,-143.5 75.5,-143.5 75.5,-124.5 140.5,-124.5 140.5,-143.5"/>
<text text-anchor="middle" x="108" y="-131.5" font-family="Helvetica,sans-Serif" font-size="10.00">merge_sort</text>
</a>
</g>
</g>
<!-- Node1&#45;&gt;Node3 -->
<g id="edge2_Node000001_Node000003" class="edge"><title>Node1&#45;&gt;Node3</title>
<g id="a_edge2_Node000001_Node000003"><a xlink:title=" ">
<path fill="none" stroke="#63b8ff" d="M321.475,-107.901C311.793,-110.158 301.596,-112.331 292,-114 239.259,-123.173 177.191,-128.904 140.581,-131.771"/>
<polygon fill="#63b8ff" stroke="#63b8ff" points="322.424,-111.272 331.332,-105.537 320.792,-104.466 322.424,-111.272"/>
</a>
</g>
</g>
<!-- Node4 -->
<g id="Node000004" class="node"><title>Node4</title>
<g id="a_Node000004"><a xlink:href="group___powerful_sorts.html#ga879a216389959b8a25490288ba4e63dc" target="_top" xlink:title="Třídění pomocí metody slučováním (Merge sort) využívající rekurzivní rozklad a datový typ span.">
<polygon fill="white" stroke="#666666" points="292,-105.5 178,-105.5 178,-86.5 292,-86.5 292,-105.5"/>
<text text-anchor="middle" x="235" y="-93.5" font-family="Helvetica,sans-Serif" font-size="10.00">merge_sort_with_span</text>
</a>
</g>
</g>
<!-- Node1&#45;&gt;Node4 -->
<g id="edge4_Node000001_Node000004" class="edge"><title>Node1&#45;&gt;Node4</title>
<g id="a_edge4_Node000001_Node000004"><a xlink:title=" ">
<path fill="none" stroke="#63b8ff" d="M317.484,-96C309.236,-96 300.627,-96 292.227,-96"/>
<polygon fill="#63b8ff" stroke="#63b8ff" points="317.696,-99.5001 327.696,-96 317.696,-92.5001 317.696,-99.5001"/>
</a>
</g>
</g>
<!-- Node5 -->
<g id="Node000005" class="node"><title>Node5</title>
<g id="a_Node000005"><a xlink:href="group___main_program.html#ga7343209645c93203da0a86613abfed04" target="_top" xlink:title="Testování třídicí metody.">
<polygon fill="white" stroke="#666666" points="142,-67.5 74,-67.5 74,-48.5 142,-48.5 142,-67.5"/>
<text text-anchor="middle" x="108" y="-55.5" font-family="Helvetica,sans-Serif" font-size="10.00">sort_testing</text>
</a>
</g>
</g>
<!-- Node1&#45;&gt;Node5 -->
<g id="edge6_Node000001_Node000005" class="edge"><title>Node1&#45;&gt;Node5</title>
<g id="a_edge6_Node000001_Node000005"><a xlink:title=" ">
<path fill="none" stroke="#63b8ff" d="M323.928,-83.9542C313.537,-81.3635 302.423,-78.8513 292,-77 240.109,-67.7832 179.086,-62.5544 142.26,-60.0017"/>
<polygon fill="#63b8ff" stroke="#63b8ff" points="323.067,-87.3466 333.623,-86.4432 324.808,-80.5665 323.067,-87.3466"/>
</a>
</g>
</g>
<!-- Node6 -->
<g id="Node000006" class="node"><title>Node6</title>
<g id="a_Node000006"><a xlink:href="group__sortable___t_vector.html#ga1b7a4850be6488c69c293bdd13f729a7" target="_top" xlink:title="Ověření korektního setřídění vektoru.">
<polygon fill="white" stroke="#666666" points="291.5,-30 178.5,-30 178.5,-0 291.5,-0 291.5,-30"/>
<text text-anchor="start" x="186.5" y="-18" font-family="Helvetica,sans-Serif" font-size="10.00">vector_is_ascendantly</text>
<text text-anchor="middle" x="235" y="-7" font-family="Helvetica,sans-Serif" font-size="10.00">_sorted</text>
</a>
</g>
</g>
<!-- Node1&#45;&gt;Node6 -->
<g id="edge8_Node000001_Node000006" class="edge"><title>Node1&#45;&gt;Node6</title>
<g id="a_edge8_Node000001_Node000006"><a xlink:title=" ">
<path fill="none" stroke="#63b8ff" d="M345.92,-80.2995C331.149,-69.5704 310.771,-55.3041 292,-44 284.028,-39.1991 275.176,-34.3892 266.907,-30.1055"/>
<polygon fill="#63b8ff" stroke="#63b8ff" points="344.193,-83.3737 354.327,-86.4646 348.333,-77.7287 344.193,-83.3737"/>
</a>
</g>
</g>
<!-- Node3&#45;&gt;Node2 -->
<g id="edge3_Node000003_Node000002" class="edge"><title>Node3&#45;&gt;Node2</title>
<g id="a_edge3_Node000003_Node000002"><a xlink:title=" ">
<path fill="none" stroke="#63b8ff" d="M65.3016,-124.893C55.7873,-122.816 46.1578,-120.713 38.2381,-118.983"/>
<polygon fill="#63b8ff" stroke="#63b8ff" points="64.5819,-128.319 75.0984,-127.033 66.0755,-121.48 64.5819,-128.319"/>
</a>
</g>
</g>
<!-- Node4&#45;&gt;Node2 -->
<g id="edge5_Node000004_Node000002" class="edge"><title>Node4&#45;&gt;Node2</title>
<g id="a_edge5_Node000004_Node000002"><a xlink:title=" ">
<path fill="none" stroke="#63b8ff" d="M167.776,-101.88C122.782,-105.874 66.4764,-110.874 38.1129,-113.392"/>
<polygon fill="#63b8ff" stroke="#63b8ff" points="168.123,-105.363 177.774,-100.992 167.504,-98.3902 168.123,-105.363"/>
</a>
</g>
</g>
<!-- Node5&#45;&gt;Node2 -->
<g id="edge7_Node000005_Node000002" class="edge"><title>Node5&#45;&gt;Node2</title>
<g id="a_edge7_Node000005_Node000002"><a xlink:title=" ">
<path fill="none" stroke="#63b8ff" d="M83.6368,-73.3069C68.0054,-83.5482 47.9227,-96.7058 34.5404,-105.474"/>
<polygon fill="#63b8ff" stroke="#63b8ff" points="85.7951,-76.0772 92.2416,-67.6693 81.9589,-70.222 85.7951,-76.0772"/>
</a>
</g>
</g>
<!-- Node6&#45;&gt;Node5 -->
<g id="edge9_Node000006_Node000005" class="edge"><title>Node6&#45;&gt;Node5</title>
<g id="a_edge9_Node000006_Node000005"><a xlink:title=" ">
<path fill="none" stroke="#63b8ff" d="M180.539,-33.3905C165.501,-38.5635 149.75,-43.9819 136.868,-48.4135"/>
<polygon fill="#63b8ff" stroke="#63b8ff" points="181.963,-36.6019 190.281,-30.0393 179.686,-29.9826 181.963,-36.6019"/>
</a>
</g>
</g>
</g>
</svg>
