<?xml version="1.0" encoding="UTF-8" standalone="no"?>
<!DOCTYPE svg PUBLIC "-//W3C//DTD SVG 1.1//EN"
 "http://www.w3.org/Graphics/SVG/1.1/DTD/svg11.dtd">
<!-- Generated by graphviz version 2.38.0 (20140413.2041)
 -->
<!-- Title: span_swap_with_iterator_value Pages: 1 -->
<svg width="461pt" height="86pt"
 viewBox="0.00 0.00 461.00 86.00" xmlns="http://www.w3.org/2000/svg" xmlns:xlink="http://www.w3.org/1999/xlink">
<g id="graph0" class="graph" transform="scale(1 1) rotate(0) translate(4 82)">
<title>span_swap_with_iterator_value</title>
<!-- Node1 -->
<g id="Node000001" class="node"><title>Node1</title>
<g id="a_Node000001"><a xlink:title="Výměna mezi hodnotou elementu Spanu určenou iterátorem a proměnnou typu SpanElement.">
<polygon fill="#999999" stroke="#666666" points="123,-54 0,-54 0,-24 123,-24 123,-54"/>
<text text-anchor="start" x="8" y="-42" font-family="Helvetica,sans-Serif" font-size="10.00">span_swap_with_iterator</text>
<text text-anchor="middle" x="61.5" y="-31" font-family="Helvetica,sans-Serif" font-size="10.00">_value</text>
</a>
</g>
</g>
<!-- Node2 -->
<g id="Node000002" class="node"><title>Node2</title>
<g id="a_Node000002"><a xlink:href="group__sortable___t_vector_iterator.html#ga015969daf209d461aaf0ba4391df4b5b" target="_top" xlink:title="Výměna mezi hodnotou elementu vektoru určenou iterátorem a proměnnou typu VectorElement.">
<polygon fill="white" stroke="#666666" points="287,-54 159,-54 159,-24 287,-24 287,-54"/>
<text text-anchor="start" x="167" y="-42" font-family="Helvetica,sans-Serif" font-size="10.00">vector_swap_with_iterator</text>
<text text-anchor="middle" x="223" y="-31" font-family="Helvetica,sans-Serif" font-size="10.00">_value</text>
</a>
</g>
</g>
<!-- Node1&#45;&gt;Node2 -->
<g id="edge1_Node000001_Node000002" class="edge"><title>Node1&#45;&gt;Node2</title>
<g id="a_edge1_Node000001_Node000002"><a xlink:title=" ">
<path fill="none" stroke="#63b8ff" d="M123.255,-39C131.517,-39 140.067,-39 148.523,-39"/>
<polygon fill="#63b8ff" stroke="#63b8ff" points="148.765,-42.5001 158.765,-39 148.764,-35.5001 148.765,-42.5001"/>
</a>
</g>
</g>
<!-- Node3 -->
<g id="Node000003" class="node"><title>Node3</title>
<g id="a_Node000003"><a xlink:href="_t_vector_8c.html#a3a2bca540c6a2f8081d51df2f70b0ebe" target="_top" xlink:title=" ">
<polygon fill="white" stroke="#666666" points="453,-78 323,-78 323,-48 453,-48 453,-78"/>
<text text-anchor="start" x="331" y="-66" font-family="Helvetica,sans-Serif" font-size="10.00">vector_fast_swap_position</text>
<text text-anchor="middle" x="388" y="-55" font-family="Helvetica,sans-Serif" font-size="10.00">_value</text>
</a>
</g>
</g>
<!-- Node2&#45;&gt;Node3 -->
<g id="edge2_Node000002_Node000003" class="edge"><title>Node2&#45;&gt;Node3</title>
<g id="a_edge2_Node000002_Node000003"><a xlink:title=" ">
<path fill="none" stroke="#63b8ff" d="M287.02,-48.279C295.455,-49.521 304.169,-50.804 312.774,-52.071"/>
<polygon fill="#63b8ff" stroke="#63b8ff" points="312.399,-55.5534 322.802,-53.5475 313.419,-48.6281 312.399,-55.5534"/>
</a>
</g>
</g>
<!-- Node4 -->
<g id="Node000004" class="node"><title>Node4</title>
<g id="a_Node000004"><a xlink:href="group___t_vector_iterator.html#ga3f8a97a63f887539e270f6845bf22b9a" target="_top" xlink:title="Zjištění platnosti iterátoru.">
<polygon fill="white" stroke="#666666" points="433,-30 343,-30 343,-0 433,-0 433,-30"/>
<text text-anchor="start" x="351" y="-18" font-family="Helvetica,sans-Serif" font-size="10.00">vector_iterator_is</text>
<text text-anchor="middle" x="388" y="-7" font-family="Helvetica,sans-Serif" font-size="10.00">_valid</text>
</a>
</g>
</g>
<!-- Node2&#45;&gt;Node4 -->
<g id="edge3_Node000002_Node000004" class="edge"><title>Node2&#45;&gt;Node4</title>
<g id="a_edge3_Node000002_Node000004"><a xlink:title=" ">
<path fill="none" stroke="#63b8ff" d="M287.02,-29.721C302.16,-27.4918 318.198,-25.1303 332.892,-22.9668"/>
<polygon fill="#63b8ff" stroke="#63b8ff" points="333.439,-26.4241 342.823,-21.5046 332.419,-19.4987 333.439,-26.4241"/>
</a>
</g>
</g>
</g>
</svg>
