<?xml version="1.0" encoding="UTF-8" standalone="no"?>
<!DOCTYPE svg PUBLIC "-//W3C//DTD SVG 1.1//EN"
 "http://www.w3.org/Graphics/SVG/1.1/DTD/svg11.dtd">
<!-- Generated by graphviz version 2.38.0 (20140413.2041)
 -->
<!-- Title: span_size Pages: 1 -->
<svg width="512pt" height="64pt"
 viewBox="0.00 0.00 512.00 64.00" xmlns="http://www.w3.org/2000/svg" xmlns:xlink="http://www.w3.org/1999/xlink">
<g id="graph0" class="graph" transform="scale(1 1) rotate(0) translate(4 60)">
<title>span_size</title>
<!-- Node1 -->
<g id="Node000001" class="node"><title>Node1</title>
<g id="a_Node000001"><a xlink:title="Přečtení počtu elementů Spanu.">
<polygon fill="#999999" stroke="#666666" points="504,-38 443,-38 443,-19 504,-19 504,-38"/>
<text text-anchor="middle" x="473.5" y="-26" font-family="Helvetica,sans-Serif" font-size="10.00">span_size</text>
</a>
</g>
</g>
<!-- Node2 -->
<g id="Node000002" class="node"><title>Node2</title>
<g id="a_Node000002"><a xlink:href="merge__sort__with__span_8c.html#acfb719292b2ea89b714190280e0021b0" target="_top" xlink:title="Vnitřní a lokální funkce realizující rekurzivní funkci pro metodu (Merge Sort)">
<polygon fill="white" stroke="#666666" points="323,-38 224,-38 224,-19 323,-19 323,-38"/>
<text text-anchor="middle" x="273.5" y="-26" font-family="Helvetica,sans-Serif" font-size="10.00">merge_sort_worker</text>
</a>
</g>
</g>
<!-- Node1&#45;&gt;Node2 -->
<g id="edge1_Node000001_Node000002" class="edge"><title>Node1&#45;&gt;Node2</title>
<g id="a_edge1_Node000001_Node000002"><a xlink:title=" ">
<path fill="none" stroke="#63b8ff" d="M432.673,-28.5C401.112,-28.5 356.876,-28.5 323.207,-28.5"/>
<polygon fill="#63b8ff" stroke="#63b8ff" points="432.857,-32.0001 442.857,-28.5 432.857,-25.0001 432.857,-32.0001"/>
</a>
</g>
</g>
<!-- Node5 -->
<g id="Node000005" class="node"><title>Node5</title>
<g id="a_Node000005"><a xlink:href="merge__sort__with__span_8c.html#a8c83f4f60393434eff082ca19f5f14ad" target="_top" xlink:title="Vnitřní a lokální funkce realizující sloučení dvou již setříděných rozsahů (Spanů)">
<polygon fill="white" stroke="#666666" points="407,-19 359,-19 359,-0 407,-0 407,-19"/>
<text text-anchor="middle" x="383" y="-7" font-family="Helvetica,sans-Serif" font-size="10.00">mergify</text>
</a>
</g>
</g>
<!-- Node1&#45;&gt;Node5 -->
<g id="edge5_Node000001_Node000005" class="edge"><title>Node1&#45;&gt;Node5</title>
<g id="a_edge5_Node000001_Node000005"><a xlink:title=" ">
<path fill="none" stroke="#63b8ff" d="M432.543,-19.9217C423.873,-18.0604 414.982,-16.1514 407.216,-14.4843"/>
<polygon fill="#63b8ff" stroke="#63b8ff" points="432.026,-23.3904 442.538,-22.0675 433.495,-16.5463 432.026,-23.3904"/>
</a>
</g>
</g>
<!-- Node2&#45;&gt;Node2 -->
<g id="edge4_Node000002_Node000002" class="edge"><title>Node2&#45;&gt;Node2</title>
<g id="a_edge4_Node000002_Node000002"><a xlink:title=" ">
<path fill="none" stroke="#63b8ff" d="M293.499,-47.5536C292.163,-52.3804 285.497,-56 273.5,-56 254.305,-56 248.756,-46.7337 256.854,-38.0828"/>
<polygon fill="#63b8ff" stroke="#63b8ff" points="296.783,-46.3413 290.146,-38.0828 290.184,-48.6776 296.783,-46.3413"/>
</a>
</g>
</g>
<!-- Node3 -->
<g id="Node000003" class="node"><title>Node3</title>
<g id="a_Node000003"><a xlink:href="group___powerful_sorts.html#ga879a216389959b8a25490288ba4e63dc" target="_top" xlink:title="Třídění pomocí metody slučováním (Merge sort) využívající rekurzivní rozklad a datový typ span.">
<polygon fill="white" stroke="#666666" points="188,-38 74,-38 74,-19 188,-19 188,-38"/>
<text text-anchor="middle" x="131" y="-26" font-family="Helvetica,sans-Serif" font-size="10.00">merge_sort_with_span</text>
</a>
</g>
</g>
<!-- Node2&#45;&gt;Node3 -->
<g id="edge2_Node000002_Node000003" class="edge"><title>Node2&#45;&gt;Node3</title>
<g id="a_edge2_Node000002_Node000003"><a xlink:title=" ">
<path fill="none" stroke="#63b8ff" d="M213.68,-28.5C205.303,-28.5 196.704,-28.5 188.375,-28.5"/>
<polygon fill="#63b8ff" stroke="#63b8ff" points="213.754,-32.0001 223.754,-28.5 213.754,-25.0001 213.754,-32.0001"/>
</a>
</g>
</g>
<!-- Node4 -->
<g id="Node000004" class="node"><title>Node4</title>
<g id="a_Node000004"><a xlink:href="group___main_program.html#ga0ddf1224851353fc92bfbff6f499fa97" target="_top" xlink:title=" ">
<polygon fill="white" stroke="#666666" points="38,-38 0,-38 0,-19 38,-19 38,-38"/>
<text text-anchor="middle" x="19" y="-26" font-family="Helvetica,sans-Serif" font-size="10.00">main</text>
</a>
</g>
</g>
<!-- Node3&#45;&gt;Node4 -->
<g id="edge3_Node000003_Node000004" class="edge"><title>Node3&#45;&gt;Node4</title>
<g id="a_edge3_Node000003_Node000004"><a xlink:title=" ">
<path fill="none" stroke="#63b8ff" d="M63.5065,-28.5C54.2189,-28.5 45.389,-28.5 38.1411,-28.5"/>
<polygon fill="#63b8ff" stroke="#63b8ff" points="63.7111,-32.0001 73.711,-28.5 63.711,-25.0001 63.7111,-32.0001"/>
</a>
</g>
</g>
<!-- Node5&#45;&gt;Node2 -->
<g id="edge6_Node000005_Node000002" class="edge"><title>Node5&#45;&gt;Node2</title>
<g id="a_edge6_Node000005_Node000002"><a xlink:title=" ">
<path fill="none" stroke="#63b8ff" d="M349.049,-15.3239C340.864,-16.7705 331.918,-18.3516 323.155,-19.9005"/>
<polygon fill="#63b8ff" stroke="#63b8ff" points="349.7,-18.7631 358.939,-13.576 348.482,-11.8699 349.7,-18.7631"/>
</a>
</g>
</g>
</g>
</svg>
