<?xml version="1.0" encoding="UTF-8" standalone="no"?>
<!DOCTYPE svg PUBLIC "-//W3C//DTD SVG 1.1//EN"
 "http://www.w3.org/Graphics/SVG/1.1/DTD/svg11.dtd">
<!-- Generated by graphviz version 2.38.0 (20140413.2041)
 -->
<!-- Title: vector_attach_sortstats Pages: 1 -->
<svg width="350pt" height="64pt"
 viewBox="0.00 0.00 350.00 64.00" xmlns="http://www.w3.org/2000/svg" xmlns:xlink="http://www.w3.org/1999/xlink">
<g id="graph0" class="graph" transform="scale(1 1) rotate(0) translate(4 60)">
<title>vector_attach_sortstats</title>
<!-- Node1 -->
<g id="Node000001" class="node"><title>Node1</title>
<g id="a_Node000001"><a xlink:title="Napojení statistik o počtu operací s elementy jednoho vektoru na statistiky jiného vektoru.">
<polygon fill="#999999" stroke="#666666" points="342,-37 224,-37 224,-18 342,-18 342,-37"/>
<text text-anchor="middle" x="283" y="-25" font-family="Helvetica,sans-Serif" font-size="10.00">vector_attach_sortstats</text>
</a>
</g>
</g>
<!-- Node2 -->
<g id="Node000002" class="node"><title>Node2</title>
<g id="a_Node000002"><a xlink:href="group___powerful_sorts.html#gaca54b9dda831aa79008867770c96413e" target="_top" xlink:title="Třídění pomocí metody slučováním (Merge sort) využívající rekurzivní rozklad.">
<polygon fill="white" stroke="#666666" points="163.5,-56 98.5,-56 98.5,-37 163.5,-37 163.5,-56"/>
<text text-anchor="middle" x="131" y="-44" font-family="Helvetica,sans-Serif" font-size="10.00">merge_sort</text>
</a>
</g>
</g>
<!-- Node1&#45;&gt;Node2 -->
<g id="edge1_Node000001_Node000002" class="edge"><title>Node1&#45;&gt;Node2</title>
<g id="a_edge1_Node000001_Node000002"><a xlink:title=" ">
<path fill="none" stroke="#63b8ff" d="M213.425,-36.1862C196.044,-38.3877 178.2,-40.648 163.662,-42.4895"/>
<polygon fill="#63b8ff" stroke="#63b8ff" points="214.096,-39.6293 223.577,-34.9003 213.216,-32.6848 214.096,-39.6293"/>
</a>
</g>
</g>
<!-- Node4 -->
<g id="Node000004" class="node"><title>Node4</title>
<g id="a_Node000004"><a xlink:href="group___powerful_sorts.html#ga879a216389959b8a25490288ba4e63dc" target="_top" xlink:title="Třídění pomocí metody slučováním (Merge sort) využívající rekurzivní rozklad a datový typ span.">
<polygon fill="white" stroke="#666666" points="188,-19 74,-19 74,-0 188,-0 188,-19"/>
<text text-anchor="middle" x="131" y="-7" font-family="Helvetica,sans-Serif" font-size="10.00">merge_sort_with_span</text>
</a>
</g>
</g>
<!-- Node1&#45;&gt;Node4 -->
<g id="edge3_Node000001_Node000004" class="edge"><title>Node1&#45;&gt;Node4</title>
<g id="a_edge3_Node000001_Node000004"><a xlink:title=" ">
<path fill="none" stroke="#63b8ff" d="M213.614,-19.2936C205.059,-18.267 196.388,-17.2265 188.051,-16.2261"/>
<polygon fill="#63b8ff" stroke="#63b8ff" points="213.231,-22.7727 223.577,-20.4892 214.065,-15.8226 213.231,-22.7727"/>
</a>
</g>
</g>
<!-- Node3 -->
<g id="Node000003" class="node"><title>Node3</title>
<g id="a_Node000003"><a xlink:href="group___main_program.html#ga0ddf1224851353fc92bfbff6f499fa97" target="_top" xlink:title=" ">
<polygon fill="white" stroke="#666666" points="38,-37 0,-37 0,-18 38,-18 38,-37"/>
<text text-anchor="middle" x="19" y="-25" font-family="Helvetica,sans-Serif" font-size="10.00">main</text>
</a>
</g>
</g>
<!-- Node2&#45;&gt;Node3 -->
<g id="edge2_Node000002_Node000003" class="edge"><title>Node2&#45;&gt;Node3</title>
<g id="a_edge2_Node000002_Node000003"><a xlink:title=" ">
<path fill="none" stroke="#63b8ff" d="M88.5179,-39.3349C71.1265,-36.3309 51.8127,-32.9949 38.1354,-30.6325"/>
<polygon fill="#63b8ff" stroke="#63b8ff" points="88.0286,-42.8021 98.4784,-41.0554 89.2201,-35.9043 88.0286,-42.8021"/>
</a>
</g>
</g>
<!-- Node4&#45;&gt;Node3 -->
<g id="edge4_Node000004_Node000003" class="edge"><title>Node4&#45;&gt;Node3</title>
<g id="a_edge4_Node000004_Node000003"><a xlink:title=" ">
<path fill="none" stroke="#63b8ff" d="M63.8031,-20.3322C54.4069,-21.8698 45.4661,-23.3328 38.1411,-24.5314"/>
<polygon fill="#63b8ff" stroke="#63b8ff" points="64.4075,-23.78 73.711,-18.7109 63.2771,-16.8718 64.4075,-23.78"/>
</a>
</g>
</g>
</g>
</svg>
