<?xml version="1.0" encoding="UTF-8" standalone="no"?>
<!DOCTYPE svg PUBLIC "-//W3C//DTD SVG 1.1//EN"
 "http://www.w3.org/Graphics/SVG/1.1/DTD/svg11.dtd">
<!-- Generated by graphviz version 2.38.0 (20140413.2041)
 -->
<!-- Title: vector_set_value Pages: 1 -->
<svg width="577pt" height="153pt"
 viewBox="0.00 0.00 577.00 153.29" xmlns="http://www.w3.org/2000/svg" xmlns:xlink="http://www.w3.org/1999/xlink">
<g id="graph0" class="graph" transform="scale(1 1) rotate(0) translate(4 149.287)">
<title>vector_set_value</title>
<!-- Node1 -->
<g id="Node000001" class="node"><title>Node1</title>
<g id="a_Node000001"><a xlink:title="Zapsání hodnoty elementu do vektoru na požadovanou pozici.">
<polygon fill="#999999" stroke="#666666" points="569,-76 481,-76 481,-57 569,-57 569,-76"/>
<text text-anchor="middle" x="525" y="-64" font-family="Helvetica,sans-Serif" font-size="10.00">vector_set_value</text>
</a>
</g>
</g>
<!-- Node2 -->
<g id="Node000002" class="node"><title>Node2</title>
<g id="a_Node000002"><a xlink:href="group___t_heap.html#gac522fe67b5a330d6289f4566a2f1aff4" target="_top" xlink:title="Zapsání hodnoty do uzlu haldy na požadovanou pozici.">
<polygon fill="white" stroke="#666666" points="445,-133 362,-133 362,-114 445,-114 445,-133"/>
<text text-anchor="middle" x="403.5" y="-121" font-family="Helvetica,sans-Serif" font-size="10.00">heap_set_value</text>
</a>
</g>
</g>
<!-- Node1&#45;&gt;Node2 -->
<g id="edge1_Node000001_Node000002" class="edge"><title>Node1&#45;&gt;Node2</title>
<g id="a_edge1_Node000001_Node000002"><a xlink:title=" ">
<path fill="none" stroke="#63b8ff" d="M494.865,-80.3971C473.061,-90.7972 443.805,-104.752 424.567,-113.928"/>
<polygon fill="#63b8ff" stroke="#63b8ff" points="496.479,-83.5048 503.998,-76.0405 493.466,-77.1867 496.479,-83.5048"/>
</a>
</g>
</g>
<!-- Node7 -->
<g id="Node000007" class="node"><title>Node7</title>
<g id="a_Node000007"><a xlink:href="group___basic_sorts.html#gac3903c3fd846908cd362e293ed40582e" target="_top" xlink:title="Třídění přímým vkládáním (Insert Sort)">
<polygon fill="white" stroke="#666666" points="326,-95 264,-95 264,-76 326,-76 326,-95"/>
<text text-anchor="middle" x="295" y="-83" font-family="Helvetica,sans-Serif" font-size="10.00">insert_sort</text>
</a>
</g>
</g>
<!-- Node1&#45;&gt;Node7 -->
<g id="edge7_Node000001_Node000007" class="edge"><title>Node1&#45;&gt;Node7</title>
<g id="a_edge7_Node000001_Node000007"><a xlink:title=" ">
<path fill="none" stroke="#63b8ff" d="M470.686,-70.9428C425.733,-74.6889 363.01,-79.9159 326.235,-82.9804"/>
<polygon fill="#63b8ff" stroke="#63b8ff" points="471.172,-74.4145 480.847,-70.0961 470.591,-67.4387 471.172,-74.4145"/>
</a>
</g>
</g>
<!-- Node8 -->
<g id="Node000008" class="node"><title>Node8</title>
<g id="a_Node000008"><a xlink:href="group___advanced_sorts.html#gaee070b00692f425d83eaea28b37bab2b" target="_top" xlink:title="Shellovo třídění vkládáním s ubývajícím krokem (Shell Sort) dle Hibbardovy posloupnosti.">
<polygon fill="white" stroke="#666666" points="228,-57 169,-57 169,-38 228,-38 228,-57"/>
<text text-anchor="middle" x="198.5" y="-45" font-family="Helvetica,sans-Serif" font-size="10.00">shell_sort</text>
</a>
</g>
</g>
<!-- Node1&#45;&gt;Node8 -->
<g id="edge9_Node000001_Node000008" class="edge"><title>Node1&#45;&gt;Node8</title>
<g id="a_edge9_Node000001_Node000008"><a xlink:title=" ">
<path fill="none" stroke="#63b8ff" d="M470.64,-63.3757C401.333,-59.3176 282.794,-52.377 228.366,-49.1902"/>
<polygon fill="#63b8ff" stroke="#63b8ff" points="470.721,-66.8864 480.909,-63.9769 471.131,-59.8983 470.721,-66.8864"/>
</a>
</g>
</g>
<!-- Node9 -->
<g id="Node000009" class="node"><title>Node9</title>
<g id="a_Node000009"><a xlink:href="group___t_span.html#ga56e402bae9f24dffb084212da636a128" target="_top" xlink:title="Zapsání hodnoty elementu do Spanu na požadovanou pozici.">
<polygon fill="white" stroke="#666666" points="445,-19 362,-19 362,-0 445,-0 445,-19"/>
<text text-anchor="middle" x="403.5" y="-7" font-family="Helvetica,sans-Serif" font-size="10.00">span_set_value</text>
</a>
</g>
</g>
<!-- Node1&#45;&gt;Node9 -->
<g id="edge11_Node000001_Node000009" class="edge"><title>Node1&#45;&gt;Node9</title>
<g id="a_edge11_Node000001_Node000009"><a xlink:title=" ">
<path fill="none" stroke="#63b8ff" d="M494.865,-52.6029C473.061,-42.2028 443.805,-28.248 424.567,-19.0716"/>
<polygon fill="#63b8ff" stroke="#63b8ff" points="493.466,-55.8133 503.998,-56.9595 496.479,-49.4952 493.466,-55.8133"/>
</a>
</g>
</g>
<!-- Node3 -->
<g id="Node000003" class="node"><title>Node3</title>
<g id="a_Node000003"><a xlink:href="heap__sort_8c.html#a1572325ec24b4714bb9bbd64229d85d0" target="_top" xlink:title="Vnitřní a lokální funkce zajišťující vložení hodnoty do zvoleného uzlu haldy, při zachování podmínek ...">
<polygon fill="white" stroke="#666666" points="323.5,-133 266.5,-133 266.5,-114 323.5,-114 323.5,-133"/>
<text text-anchor="middle" x="295" y="-121" font-family="Helvetica,sans-Serif" font-size="10.00">sift_down</text>
</a>
</g>
</g>
<!-- Node2&#45;&gt;Node3 -->
<g id="edge2_Node000002_Node000003" class="edge"><title>Node2&#45;&gt;Node3</title>
<g id="a_edge2_Node000002_Node000003"><a xlink:title=" ">
<path fill="none" stroke="#63b8ff" d="M351.869,-123.5C342.119,-123.5 332.25,-123.5 323.577,-123.5"/>
<polygon fill="#63b8ff" stroke="#63b8ff" points="351.933,-127 361.933,-123.5 351.933,-120 351.933,-127"/>
</a>
</g>
</g>
<!-- Node4 -->
<g id="Node000004" class="node"><title>Node4</title>
<g id="a_Node000004"><a xlink:href="group___powerful_sorts.html#gaf564949cc194e5feea63d6c2aaa3125a" target="_top" xlink:title="Třídění pomocí haldy (Heap Sort) využívající poziční API pro přístup k elementům vektoru.">
<polygon fill="white" stroke="#666666" points="133,-133 74,-133 74,-114 133,-114 133,-133"/>
<text text-anchor="middle" x="103.5" y="-121" font-family="Helvetica,sans-Serif" font-size="10.00">heap_sort</text>
</a>
</g>
</g>
<!-- Node3&#45;&gt;Node4 -->
<g id="edge3_Node000003_Node000004" class="edge"><title>Node3&#45;&gt;Node4</title>
<g id="a_edge3_Node000003_Node000004"><a xlink:title=" ">
<path fill="none" stroke="#63b8ff" d="M257.784,-135.897C248.214,-138.627 237.814,-141.115 228,-142.5 202.035,-146.163 194.954,-146.243 169,-142.5 156.059,-140.634 142.096,-136.764 130.482,-133"/>
<polygon fill="#63b8ff" stroke="#63b8ff" points="258.831,-139.237 267.397,-133.001 256.812,-132.534 258.831,-139.237"/>
</a>
</g>
</g>
<!-- Node6 -->
<g id="Node000006" class="node"><title>Node6</title>
<g id="a_Node000006"><a xlink:href="heap__sort_8c.html#aceaf0618c69440f1e439e224eb6945dc" target="_top" xlink:title="Vnitřní a lokální funkce realizující uspořádání elementů vektoru do haldy.">
<polygon fill="white" stroke="#666666" points="222,-133 175,-133 175,-114 222,-114 222,-133"/>
<text text-anchor="middle" x="198.5" y="-121" font-family="Helvetica,sans-Serif" font-size="10.00">heapify</text>
</a>
</g>
</g>
<!-- Node3&#45;&gt;Node6 -->
<g id="edge5_Node000003_Node000006" class="edge"><title>Node3&#45;&gt;Node6</title>
<g id="a_edge5_Node000003_Node000006"><a xlink:title=" ">
<path fill="none" stroke="#63b8ff" d="M256.147,-123.5C244.642,-123.5 232.362,-123.5 222.187,-123.5"/>
<polygon fill="#63b8ff" stroke="#63b8ff" points="256.413,-127 266.413,-123.5 256.413,-120 256.413,-127"/>
</a>
</g>
</g>
<!-- Node5 -->
<g id="Node000005" class="node"><title>Node5</title>
<g id="a_Node000005"><a xlink:href="group___main_program.html#ga0ddf1224851353fc92bfbff6f499fa97" target="_top" xlink:title=" ">
<polygon fill="white" stroke="#666666" points="38,-95 0,-95 0,-76 38,-76 38,-95"/>
<text text-anchor="middle" x="19" y="-83" font-family="Helvetica,sans-Serif" font-size="10.00">main</text>
</a>
</g>
</g>
<!-- Node4&#45;&gt;Node5 -->
<g id="edge4_Node000004_Node000005" class="edge"><title>Node4&#45;&gt;Node5</title>
<g id="a_edge4_Node000004_Node000005"><a xlink:title=" ">
<path fill="none" stroke="#63b8ff" d="M72.378,-109.626C60.8467,-104.314 48.0615,-98.4253 38.0094,-93.7952"/>
<polygon fill="#63b8ff" stroke="#63b8ff" points="71.1347,-112.906 81.6818,-113.911 74.0632,-106.548 71.1347,-112.906"/>
</a>
</g>
</g>
<!-- Node6&#45;&gt;Node4 -->
<g id="edge6_Node000006_Node000004" class="edge"><title>Node6&#45;&gt;Node4</title>
<g id="a_edge6_Node000006_Node000004"><a xlink:title=" ">
<path fill="none" stroke="#63b8ff" d="M164.711,-123.5C154.415,-123.5 143.135,-123.5 133.15,-123.5"/>
<polygon fill="#63b8ff" stroke="#63b8ff" points="164.987,-127 174.987,-123.5 164.987,-120 164.987,-127"/>
</a>
</g>
</g>
<!-- Node7&#45;&gt;Node5 -->
<g id="edge8_Node000007_Node000005" class="edge"><title>Node7&#45;&gt;Node5</title>
<g id="a_edge8_Node000007_Node000005"><a xlink:title=" ">
<path fill="none" stroke="#63b8ff" d="M253.581,-85.5C193.117,-85.5 81.5775,-85.5 38.0578,-85.5"/>
<polygon fill="#63b8ff" stroke="#63b8ff" points="253.893,-89.0001 263.893,-85.5 253.893,-82.0001 253.893,-89.0001"/>
</a>
</g>
</g>
<!-- Node8&#45;&gt;Node5 -->
<g id="edge10_Node000008_Node000005" class="edge"><title>Node8&#45;&gt;Node5</title>
<g id="a_edge10_Node000008_Node000005"><a xlink:title=" ">
<path fill="none" stroke="#63b8ff" d="M158.988,-54.3517C134.559,-58.8537 102.332,-65.0809 74,-71.5 62.0986,-74.1965 48.8312,-77.6301 38.4256,-80.422"/>
<polygon fill="#63b8ff" stroke="#63b8ff" points="159.737,-57.7727 168.945,-52.5323 158.479,-50.8867 159.737,-57.7727"/>
</a>
</g>
</g>
</g>
</svg>
