<?xml version="1.0" encoding="UTF-8" standalone="no"?>
<!DOCTYPE svg PUBLIC "-//W3C//DTD SVG 1.1//EN"
 "http://www.w3.org/Graphics/SVG/1.1/DTD/svg11.dtd">
<!-- Generated by graphviz version 2.38.0 (20140413.2041)
 -->
<!-- Title: vector_compare_position_value Pages: 1 -->
<svg width="688pt" height="208pt"
 viewBox="0.00 0.00 688.00 208.00" xmlns="http://www.w3.org/2000/svg" xmlns:xlink="http://www.w3.org/1999/xlink">
<g id="graph0" class="graph" transform="scale(1 1) rotate(0) translate(4 204)">
<title>vector_compare_position_value</title>
<!-- Node1 -->
<g id="Node000001" class="node"><title>Node1</title>
<g id="a_Node000001"><a xlink:title="Porovnání mezi hodnotou elementu vektoru a hodnotou typu VectorElement.">
<polygon fill="#999999" stroke="#666666" points="680,-111 556,-111 556,-81 680,-81 680,-111"/>
<text text-anchor="start" x="564" y="-99" font-family="Helvetica,sans-Serif" font-size="10.00">vector_compare_position</text>
<text text-anchor="middle" x="618" y="-88" font-family="Helvetica,sans-Serif" font-size="10.00">_value</text>
</a>
</g>
</g>
<!-- Node2 -->
<g id="Node000002" class="node"><title>Node2</title>
<g id="a_Node000002"><a xlink:href="group___t_heap.html#ga3651a742b0492e167a3be5db0183f896" target="_top" xlink:title="Porovnání mezi hodnotou v uzlu haldy a hodnotou typu HeapElement.">
<polygon fill="white" stroke="#666666" points="520,-200 401,-200 401,-170 520,-170 520,-200"/>
<text text-anchor="start" x="409" y="-188" font-family="Helvetica,sans-Serif" font-size="10.00">heap_compare_position</text>
<text text-anchor="middle" x="460.5" y="-177" font-family="Helvetica,sans-Serif" font-size="10.00">_value</text>
</a>
</g>
</g>
<!-- Node1&#45;&gt;Node2 -->
<g id="edge1_Node000001_Node000002" class="edge"><title>Node1&#45;&gt;Node2</title>
<g id="a_edge1_Node000001_Node000002"><a xlink:title=" ">
<path fill="none" stroke="#63b8ff" d="M585.393,-116.593C566.645,-128.544 542.265,-143.631 520,-156 511.478,-160.734 502.08,-165.56 493.356,-169.883"/>
<polygon fill="#63b8ff" stroke="#63b8ff" points="587.316,-119.517 593.846,-111.174 583.538,-113.624 587.316,-119.517"/>
</a>
</g>
</g>
<!-- Node7 -->
<g id="Node000007" class="node"><title>Node7</title>
<g id="a_Node000007"><a xlink:href="group___basic_sorts.html#gac3903c3fd846908cd362e293ed40582e" target="_top" xlink:title="Třídění přímým vkládáním (Insert Sort)">
<polygon fill="white" stroke="#666666" points="234,-134.5 172,-134.5 172,-115.5 234,-115.5 234,-134.5"/>
<text text-anchor="middle" x="203" y="-122.5" font-family="Helvetica,sans-Serif" font-size="10.00">insert_sort</text>
</a>
</g>
</g>
<!-- Node1&#45;&gt;Node7 -->
<g id="edge7_Node000001_Node000007" class="edge"><title>Node1&#45;&gt;Node7</title>
<g id="a_edge7_Node000001_Node000007"><a xlink:title=" ">
<path fill="none" stroke="#63b8ff" d="M545.636,-105.46C495.26,-111.693 426.123,-119.354 365,-123 319.377,-125.721 266.358,-125.782 234,-125.471"/>
<polygon fill="#63b8ff" stroke="#63b8ff" points="546.283,-108.907 555.772,-104.194 545.415,-101.961 546.283,-108.907"/>
</a>
</g>
</g>
<!-- Node8 -->
<g id="Node000008" class="node"><title>Node8</title>
<g id="a_Node000008"><a xlink:href="advanced__sorts_8c.html#a0ae77c9640aa821e5507079ec5d2eb1d" target="_top" xlink:title="Vnitřní a lokální funkce realizující rekurzivní funkci pro metodu (Quick Sort)">
<polygon fill="white" stroke="#666666" points="365,-95.5 270,-95.5 270,-76.5 365,-76.5 365,-95.5"/>
<text text-anchor="middle" x="317.5" y="-83.5" font-family="Helvetica,sans-Serif" font-size="10.00">quick_sort_worker</text>
</a>
</g>
</g>
<!-- Node1&#45;&gt;Node8 -->
<g id="edge9_Node000001_Node000008" class="edge"><title>Node1&#45;&gt;Node8</title>
<g id="a_edge9_Node000001_Node000008"><a xlink:title=" ">
<path fill="none" stroke="#63b8ff" d="M545.691,-93.6111C489.836,-91.7399 413.737,-89.1905 365.355,-87.5697"/>
<polygon fill="#63b8ff" stroke="#63b8ff" points="545.762,-97.1153 555.874,-93.9522 545.997,-90.1193 545.762,-97.1153"/>
</a>
</g>
</g>
<!-- Node10 -->
<g id="Node000010" class="node"><title>Node10</title>
<g id="a_Node000010"><a xlink:href="group___advanced_sorts.html#gaee070b00692f425d83eaea28b37bab2b" target="_top" xlink:title="Shellovo třídění vkládáním s ubývajícím krokem (Shell Sort) dle Hibbardovy posloupnosti.">
<polygon fill="white" stroke="#666666" points="347,-58.5 288,-58.5 288,-39.5 347,-39.5 347,-58.5"/>
<text text-anchor="middle" x="317.5" y="-46.5" font-family="Helvetica,sans-Serif" font-size="10.00">shell_sort</text>
</a>
</g>
</g>
<!-- Node1&#45;&gt;Node10 -->
<g id="edge13_Node000001_Node000010" class="edge"><title>Node1&#45;&gt;Node10</title>
<g id="a_edge13_Node000001_Node000010"><a xlink:title=" ">
<path fill="none" stroke="#63b8ff" d="M545.907,-84.8062C482.332,-74.796 392.4,-60.6358 347.035,-53.4929"/>
<polygon fill="#63b8ff" stroke="#63b8ff" points="545.451,-88.2774 555.874,-86.3754 546.54,-81.3626 545.451,-88.2774"/>
</a>
</g>
</g>
<!-- Node11 -->
<g id="Node000011" class="node"><title>Node11</title>
<g id="a_Node000011"><a xlink:href="group___t_span.html#gad64d53738a4da90ef126cd73d84b5f52" target="_top" xlink:title="Porovnání mezi hodnotou elementu Span a hodnotou typu VectorElement.">
<polygon fill="white" stroke="#666666" points="520,-30 401,-30 401,-0 520,-0 520,-30"/>
<text text-anchor="start" x="409" y="-18" font-family="Helvetica,sans-Serif" font-size="10.00">span_compare_position</text>
<text text-anchor="middle" x="460.5" y="-7" font-family="Helvetica,sans-Serif" font-size="10.00">_value</text>
</a>
</g>
</g>
<!-- Node1&#45;&gt;Node11 -->
<g id="edge15_Node000001_Node000011" class="edge"><title>Node1&#45;&gt;Node11</title>
<g id="a_edge15_Node000001_Node000011"><a xlink:title=" ">
<path fill="none" stroke="#63b8ff" d="M580.466,-76.06C562.351,-66.2641 540.101,-54.3669 520,-44 511.033,-39.3756 501.231,-34.4616 492.257,-30.0181"/>
<polygon fill="#63b8ff" stroke="#63b8ff" points="579.069,-79.2838 589.528,-80.9719 582.404,-73.1297 579.069,-79.2838"/>
</a>
</g>
</g>
<!-- Node3 -->
<g id="Node000003" class="node"><title>Node3</title>
<g id="a_Node000003"><a xlink:href="heap__sort_8c.html#a1572325ec24b4714bb9bbd64229d85d0" target="_top" xlink:title="Vnitřní a lokální funkce zajišťující vložení hodnoty do zvoleného uzlu haldy, při zachování podmínek ...">
<polygon fill="white" stroke="#666666" points="346,-194.5 289,-194.5 289,-175.5 346,-175.5 346,-194.5"/>
<text text-anchor="middle" x="317.5" y="-182.5" font-family="Helvetica,sans-Serif" font-size="10.00">sift_down</text>
</a>
</g>
</g>
<!-- Node2&#45;&gt;Node3 -->
<g id="edge2_Node000002_Node000003" class="edge"><title>Node2&#45;&gt;Node3</title>
<g id="a_edge2_Node000002_Node000003"><a xlink:title=" ">
<path fill="none" stroke="#63b8ff" d="M390.65,-185C374.935,-185 359.111,-185 346.303,-185"/>
<polygon fill="#63b8ff" stroke="#63b8ff" points="390.928,-188.5 400.928,-185 390.928,-181.5 390.928,-188.5"/>
</a>
</g>
</g>
<!-- Node4 -->
<g id="Node000004" class="node"><title>Node4</title>
<g id="a_Node000004"><a xlink:href="group___powerful_sorts.html#gaf564949cc194e5feea63d6c2aaa3125a" target="_top" xlink:title="Třídění pomocí haldy (Heap Sort) využívající poziční API pro přístup k elementům vektoru.">
<polygon fill="white" stroke="#666666" points="134.5,-172.5 75.5,-172.5 75.5,-153.5 134.5,-153.5 134.5,-172.5"/>
<text text-anchor="middle" x="105" y="-160.5" font-family="Helvetica,sans-Serif" font-size="10.00">heap_sort</text>
</a>
</g>
</g>
<!-- Node3&#45;&gt;Node4 -->
<g id="edge3_Node000003_Node000004" class="edge"><title>Node3&#45;&gt;Node4</title>
<g id="a_edge3_Node000003_Node000004"><a xlink:title=" ">
<path fill="none" stroke="#63b8ff" d="M278.696,-186.404C249.418,-186.902 207.93,-186.319 172,-181 159.546,-179.156 146.09,-175.754 134.597,-172.399"/>
<polygon fill="#63b8ff" stroke="#63b8ff" points="278.977,-189.899 288.898,-186.179 278.823,-182.901 278.977,-189.899"/>
</a>
</g>
</g>
<!-- Node6 -->
<g id="Node000006" class="node"><title>Node6</title>
<g id="a_Node000006"><a xlink:href="heap__sort_8c.html#aceaf0618c69440f1e439e224eb6945dc" target="_top" xlink:title="Vnitřní a lokální funkce realizující uspořádání elementů vektoru do haldy.">
<polygon fill="white" stroke="#666666" points="226.5,-171.5 179.5,-171.5 179.5,-152.5 226.5,-152.5 226.5,-171.5"/>
<text text-anchor="middle" x="203" y="-159.5" font-family="Helvetica,sans-Serif" font-size="10.00">heapify</text>
</a>
</g>
</g>
<!-- Node3&#45;&gt;Node6 -->
<g id="edge5_Node000003_Node000006" class="edge"><title>Node3&#45;&gt;Node6</title>
<g id="a_edge5_Node000003_Node000006"><a xlink:title=" ">
<path fill="none" stroke="#63b8ff" d="M279.136,-177.361C261.786,-173.814 241.724,-169.713 226.697,-166.64"/>
<polygon fill="#63b8ff" stroke="#63b8ff" points="278.481,-180.8 288.979,-179.374 279.883,-173.941 278.481,-180.8"/>
</a>
</g>
</g>
<!-- Node5 -->
<g id="Node000005" class="node"><title>Node5</title>
<g id="a_Node000005"><a xlink:href="group___main_program.html#ga0ddf1224851353fc92bfbff6f499fa97" target="_top" xlink:title=" ">
<polygon fill="white" stroke="#666666" points="38,-115.5 0,-115.5 0,-96.5 38,-96.5 38,-115.5"/>
<text text-anchor="middle" x="19" y="-103.5" font-family="Helvetica,sans-Serif" font-size="10.00">main</text>
</a>
</g>
</g>
<!-- Node4&#45;&gt;Node5 -->
<g id="edge4_Node000004_Node000005" class="edge"><title>Node4&#45;&gt;Node5</title>
<g id="a_edge4_Node000004_Node000005"><a xlink:title=" ">
<path fill="none" stroke="#63b8ff" d="M81.4424,-147.693C66.3501,-137.452 46.9599,-124.294 34.039,-115.526"/>
<polygon fill="#63b8ff" stroke="#63b8ff" points="79.5105,-150.612 89.7505,-153.331 83.441,-144.819 79.5105,-150.612"/>
</a>
</g>
</g>
<!-- Node6&#45;&gt;Node4 -->
<g id="edge6_Node000006_Node000004" class="edge"><title>Node6&#45;&gt;Node4</title>
<g id="a_edge6_Node000006_Node000004"><a xlink:title=" ">
<path fill="none" stroke="#63b8ff" d="M169.034,-162.343C157.902,-162.459 145.57,-162.588 134.787,-162.7"/>
<polygon fill="#63b8ff" stroke="#63b8ff" points="169.286,-165.841 179.249,-162.237 169.213,-158.841 169.286,-165.841"/>
</a>
</g>
</g>
<!-- Node7&#45;&gt;Node5 -->
<g id="edge8_Node000007_Node000005" class="edge"><title>Node7&#45;&gt;Node5</title>
<g id="a_edge8_Node000007_Node000005"><a xlink:title=" ">
<path fill="none" stroke="#63b8ff" d="M161.616,-120.784C123.2,-116.774 67.1347,-110.921 38.4316,-107.924"/>
<polygon fill="#63b8ff" stroke="#63b8ff" points="161.637,-124.305 171.946,-121.863 162.364,-117.343 161.637,-124.305"/>
</a>
</g>
</g>
<!-- Node8&#45;&gt;Node8 -->
<g id="edge12_Node000008_Node000008" class="edge"><title>Node8&#45;&gt;Node8</title>
<g id="a_edge12_Node000008_Node000008"><a xlink:title=" ">
<path fill="none" stroke="#63b8ff" d="M338.61,-105.054C337.2,-109.88 330.164,-113.5 317.5,-113.5 297.238,-113.5 291.381,-104.234 299.929,-95.5828"/>
<polygon fill="#63b8ff" stroke="#63b8ff" points="341.85,-103.725 335.071,-95.5828 335.293,-106.175 341.85,-103.725"/>
</a>
</g>
</g>
<!-- Node9 -->
<g id="Node000009" class="node"><title>Node9</title>
<g id="a_Node000009"><a xlink:href="group___advanced_sorts.html#gaa369b74c9050d30aa2416f9dba8cc8f5" target="_top" xlink:title="Rychlé třídění výměnou (Quick Sort) s volbou prostředního prvku jako pivota.">
<polygon fill="white" stroke="#666666" points="136,-96.5 74,-96.5 74,-77.5 136,-77.5 136,-96.5"/>
<text text-anchor="middle" x="105" y="-84.5" font-family="Helvetica,sans-Serif" font-size="10.00">quick_sort</text>
</a>
</g>
</g>
<!-- Node8&#45;&gt;Node9 -->
<g id="edge10_Node000008_Node000009" class="edge"><title>Node8&#45;&gt;Node9</title>
<g id="a_edge10_Node000008_Node000009"><a xlink:title=" ">
<path fill="none" stroke="#63b8ff" d="M259.667,-86.27C219.817,-86.4593 168.129,-86.7049 136.016,-86.8574"/>
<polygon fill="#63b8ff" stroke="#63b8ff" points="259.8,-89.7695 269.783,-86.2219 259.767,-82.7696 259.8,-89.7695"/>
</a>
</g>
</g>
<!-- Node9&#45;&gt;Node5 -->
<g id="edge11_Node000009_Node000005" class="edge"><title>Node9&#45;&gt;Node5</title>
<g id="a_edge11_Node000009_Node000005"><a xlink:title=" ">
<path fill="none" stroke="#63b8ff" d="M63.7436,-96.1056C54.8327,-98.1212 45.8169,-100.16 38.3044,-101.86"/>
<polygon fill="#63b8ff" stroke="#63b8ff" points="64.6927,-99.4794 73.6741,-93.8594 63.1483,-92.6519 64.6927,-99.4794"/>
</a>
</g>
</g>
<!-- Node10&#45;&gt;Node5 -->
<g id="edge14_Node000010_Node000005" class="edge"><title>Node10&#45;&gt;Node5</title>
<g id="a_edge14_Node000010_Node000005"><a xlink:title=" ">
<path fill="none" stroke="#63b8ff" d="M277.722,-46.2006C228.751,-44.0001 142.604,-44.6163 74,-69 57.2951,-74.9374 40.897,-87.3781 30.635,-96.1914"/>
<polygon fill="#63b8ff" stroke="#63b8ff" points="277.714,-49.7047 287.88,-46.7222 278.073,-42.7139 277.714,-49.7047"/>
</a>
</g>
</g>
</g>
</svg>
