<?xml version="1.0" encoding="UTF-8" standalone="no"?>
<!DOCTYPE svg PUBLIC "-//W3C//DTD SVG 1.1//EN"
 "http://www.w3.org/Graphics/SVG/1.1/DTD/svg11.dtd">
<!-- Generated by graphviz version 2.38.0 (20140413.2041)
 -->
<!-- Title: vector_size Pages: 1 -->
<svg width="305pt" height="397pt"
 viewBox="0.00 0.00 305.00 397.00" xmlns="http://www.w3.org/2000/svg" xmlns:xlink="http://www.w3.org/1999/xlink">
<g id="graph0" class="graph" transform="scale(1 1) rotate(0) translate(4 393)">
<title>vector_size</title>
<!-- Node1 -->
<g id="Node000001" class="node"><title>Node1</title>
<g id="a_Node000001"><a xlink:title="Přečtení počtu elementů vektoru.">
<polygon fill="#999999" stroke="#666666" points="297,-204 232,-204 232,-185 297,-185 297,-204"/>
<text text-anchor="middle" x="264.5" y="-192" font-family="Helvetica,sans-Serif" font-size="10.00">vector_size</text>
</a>
</g>
</g>
<!-- Node2 -->
<g id="Node000002" class="node"><title>Node2</title>
<g id="a_Node000002"><a xlink:href="group___basic_sorts.html#gaa1ef093f5205f293df8303ac228452fc" target="_top" xlink:title="Třídění přímou výměnou (Bubble Sort)">
<polygon fill="white" stroke="#666666" points="168.5,-389 101.5,-389 101.5,-370 168.5,-370 168.5,-389"/>
<text text-anchor="middle" x="135" y="-377" font-family="Helvetica,sans-Serif" font-size="10.00">bubble_sort</text>
</a>
</g>
</g>
<!-- Node1&#45;&gt;Node2 -->
<g id="edge1_Node000001_Node000002" class="edge"><title>Node1&#45;&gt;Node2</title>
<g id="a_edge1_Node000001_Node000002"><a xlink:title=" ">
<path fill="none" stroke="#63b8ff" d="M261.074,-214.333C255.753,-249.201 239.815,-321.568 196,-361.5 188.444,-368.386 178.348,-372.642 168.595,-375.271"/>
<polygon fill="#63b8ff" stroke="#63b8ff" points="264.594,-214.431 262.497,-204.046 257.66,-213.472 264.594,-214.431"/>
</a>
</g>
</g>
<!-- Node3 -->
<g id="Node000003" class="node"><title>Node3</title>
<g id="a_Node000003"><a xlink:href="group___basic_sorts.html#ga62a36eb31bf0a873f7c027e145843b1a" target="_top" xlink:title="Třídění přímou výměnou včetně optimalizace s pomocným příznakem ukončení třídění (Bubble Sort Optimiz...">
<polygon fill="white" stroke="#666666" points="192,-352 78,-352 78,-333 192,-333 192,-352"/>
<text text-anchor="middle" x="135" y="-340" font-family="Helvetica,sans-Serif" font-size="10.00">bubble_sort_optimized</text>
</a>
</g>
</g>
<!-- Node1&#45;&gt;Node3 -->
<g id="edge2_Node000001_Node000003" class="edge"><title>Node1&#45;&gt;Node3</title>
<g id="a_edge2_Node000001_Node000003"><a xlink:title=" ">
<path fill="none" stroke="#63b8ff" d="M258.519,-214.305C250.323,-242.84 231.273,-295.288 196,-324.5 191.896,-327.899 187.165,-330.656 182.197,-332.893"/>
<polygon fill="#63b8ff" stroke="#63b8ff" points="261.989,-214.884 261.222,-204.317 255.232,-213.055 261.989,-214.884"/>
</a>
</g>
</g>
<!-- Node4 -->
<g id="Node000004" class="node"><title>Node4</title>
<g id="a_Node000004"><a xlink:href="group___basic_sorts.html#gaba41a68f00241f38f7864b4e1dacd086" target="_top" xlink:title="Třídění přímou výměnou včetně optimalizace s výpočtem indexu poslední změny (Bubble Sort Optimized2)">
<polygon fill="white" stroke="#666666" points="194.5,-315 75.5,-315 75.5,-296 194.5,-296 194.5,-315"/>
<text text-anchor="middle" x="135" y="-303" font-family="Helvetica,sans-Serif" font-size="10.00">bubble_sort_optimized2</text>
</a>
</g>
</g>
<!-- Node1&#45;&gt;Node4 -->
<g id="edge3_Node000001_Node000004" class="edge"><title>Node1&#45;&gt;Node4</title>
<g id="a_edge3_Node000001_Node000004"><a xlink:title=" ">
<path fill="none" stroke="#63b8ff" d="M254.494,-213.521C243.548,-234.63 223.124,-268.25 196,-287.5 191.211,-290.899 185.772,-293.665 180.172,-295.913"/>
<polygon fill="#63b8ff" stroke="#63b8ff" points="257.77,-214.793 259.094,-204.281 251.504,-211.673 257.77,-214.793"/>
</a>
</g>
</g>
<!-- Node5 -->
<g id="Node000005" class="node"><title>Node5</title>
<g id="a_Node000005"><a xlink:href="group___powerful_sorts.html#gaf564949cc194e5feea63d6c2aaa3125a" target="_top" xlink:title="Třídění pomocí haldy (Heap Sort) využívající poziční API pro přístup k elementům vektoru.">
<polygon fill="white" stroke="#666666" points="164.5,-278 105.5,-278 105.5,-259 164.5,-259 164.5,-278"/>
<text text-anchor="middle" x="135" y="-266" font-family="Helvetica,sans-Serif" font-size="10.00">heap_sort</text>
</a>
</g>
</g>
<!-- Node1&#45;&gt;Node5 -->
<g id="edge4_Node000001_Node000005" class="edge"><title>Node1&#45;&gt;Node5</title>
<g id="a_edge4_Node000001_Node000005"><a xlink:title=" ">
<path fill="none" stroke="#63b8ff" d="M247.167,-211.305C234.292,-223.697 215.338,-240.135 196,-250.5 186.319,-255.689 174.937,-259.585 164.704,-262.401"/>
<polygon fill="#63b8ff" stroke="#63b8ff" points="249.699,-213.724 254.348,-204.204 244.777,-208.747 249.699,-213.724"/>
</a>
</g>
</g>
<!-- Node7 -->
<g id="Node000007" class="node"><title>Node7</title>
<g id="a_Node000007"><a xlink:href="group___powerful_sorts.html#ga84762e575f9465881e13d17072186ddd" target="_top" xlink:title="Třídění pomocí haldy (Heap Sort) využívající iterátorové API pro přístup k elementům vektoru.">
<polygon fill="white" stroke="#666666" points="196,-241 74,-241 74,-222 196,-222 196,-241"/>
<text text-anchor="middle" x="135" y="-229" font-family="Helvetica,sans-Serif" font-size="10.00">heap_sort_with_iterators</text>
</a>
</g>
</g>
<!-- Node1&#45;&gt;Node7 -->
<g id="edge6_Node000001_Node000007" class="edge"><title>Node1&#45;&gt;Node7</title>
<g id="a_edge6_Node000001_Node000007"><a xlink:title=" ">
<path fill="none" stroke="#63b8ff" d="M222.166,-206.495C204.922,-211.499 185.171,-217.231 168.933,-221.943"/>
<polygon fill="#63b8ff" stroke="#63b8ff" points="223.355,-209.794 231.983,-203.646 221.404,-203.072 223.355,-209.794"/>
</a>
</g>
</g>
<!-- Node8 -->
<g id="Node000008" class="node"><title>Node8</title>
<g id="a_Node000008"><a xlink:href="group___powerful_sorts.html#gaca54b9dda831aa79008867770c96413e" target="_top" xlink:title="Třídění pomocí metody slučováním (Merge sort) využívající rekurzivní rozklad.">
<polygon fill="white" stroke="#666666" points="167.5,-204 102.5,-204 102.5,-185 167.5,-185 167.5,-204"/>
<text text-anchor="middle" x="135" y="-192" font-family="Helvetica,sans-Serif" font-size="10.00">merge_sort</text>
</a>
</g>
</g>
<!-- Node1&#45;&gt;Node8 -->
<g id="edge8_Node000001_Node000008" class="edge"><title>Node1&#45;&gt;Node8</title>
<g id="a_edge8_Node000001_Node000008"><a xlink:title=" ">
<path fill="none" stroke="#63b8ff" d="M221.931,-194.5C204.266,-194.5 184.006,-194.5 167.596,-194.5"/>
<polygon fill="#63b8ff" stroke="#63b8ff" points="221.983,-198 231.983,-194.5 221.983,-191 221.983,-198"/>
</a>
</g>
</g>
<!-- Node9 -->
<g id="Node000009" class="node"><title>Node9</title>
<g id="a_Node000009"><a xlink:href="group___powerful_sorts.html#ga879a216389959b8a25490288ba4e63dc" target="_top" xlink:title="Třídění pomocí metody slučováním (Merge sort) využívající rekurzivní rozklad a datový typ span.">
<polygon fill="white" stroke="#666666" points="192,-167 78,-167 78,-148 192,-148 192,-167"/>
<text text-anchor="middle" x="135" y="-155" font-family="Helvetica,sans-Serif" font-size="10.00">merge_sort_with_span</text>
</a>
</g>
</g>
<!-- Node1&#45;&gt;Node9 -->
<g id="edge10_Node000001_Node000009" class="edge"><title>Node1&#45;&gt;Node9</title>
<g id="a_edge10_Node000001_Node000009"><a xlink:title=" ">
<path fill="none" stroke="#63b8ff" d="M222.166,-182.505C204.922,-177.501 185.171,-171.769 168.933,-167.057"/>
<polygon fill="#63b8ff" stroke="#63b8ff" points="221.404,-185.928 231.983,-185.354 223.355,-179.206 221.404,-185.928"/>
</a>
</g>
</g>
<!-- Node10 -->
<g id="Node000010" class="node"><title>Node10</title>
<g id="a_Node000010"><a xlink:href="group___advanced_sorts.html#gaa369b74c9050d30aa2416f9dba8cc8f5" target="_top" xlink:title="Rychlé třídění výměnou (Quick Sort) s volbou prostředního prvku jako pivota.">
<polygon fill="white" stroke="#666666" points="166,-130 104,-130 104,-111 166,-111 166,-130"/>
<text text-anchor="middle" x="135" y="-118" font-family="Helvetica,sans-Serif" font-size="10.00">quick_sort</text>
</a>
</g>
</g>
<!-- Node1&#45;&gt;Node10 -->
<g id="edge12_Node000001_Node000010" class="edge"><title>Node1&#45;&gt;Node10</title>
<g id="a_edge12_Node000001_Node000010"><a xlink:title=" ">
<path fill="none" stroke="#63b8ff" d="M246.62,-177.673C233.705,-165.604 214.945,-149.732 196,-139.5 186.771,-134.515 176.026,-130.597 166.2,-127.647"/>
<polygon fill="#63b8ff" stroke="#63b8ff" points="244.216,-180.217 253.856,-184.612 249.061,-175.164 244.216,-180.217"/>
</a>
</g>
</g>
<!-- Node11 -->
<g id="Node000011" class="node"><title>Node11</title>
<g id="a_Node000011"><a xlink:href="group___basic_sorts.html#ga3688a58781905ac2e518285b8bb711ec" target="_top" xlink:title="Třídění přímým výběrem (Select Sort)">
<polygon fill="white" stroke="#666666" points="167.5,-93 102.5,-93 102.5,-74 167.5,-74 167.5,-93"/>
<text text-anchor="middle" x="135" y="-81" font-family="Helvetica,sans-Serif" font-size="10.00">select_sort</text>
</a>
</g>
</g>
<!-- Node1&#45;&gt;Node11 -->
<g id="edge14_Node000001_Node000011" class="edge"><title>Node1&#45;&gt;Node11</title>
<g id="a_edge14_Node000001_Node000011"><a xlink:title=" ">
<path fill="none" stroke="#63b8ff" d="M254.389,-175.759C243.347,-154.946 222.837,-121.75 196,-102.5 187.654,-96.5135 177.348,-92.3616 167.646,-89.5042"/>
<polygon fill="#63b8ff" stroke="#63b8ff" points="251.373,-177.55 259.035,-184.867 257.609,-174.368 251.373,-177.55"/>
</a>
</g>
</g>
<!-- Node12 -->
<g id="Node000012" class="node"><title>Node12</title>
<g id="a_Node000012"><a xlink:href="group___basic_sorts.html#gaacee5d609500566a6ad1724486ab8bb2" target="_top" xlink:title="Třídění přímou výměnou se změnou postupu třídění (Shaker Sort)">
<polygon fill="white" stroke="#666666" points="169,-56 101,-56 101,-37 169,-37 169,-56"/>
<text text-anchor="middle" x="135" y="-44" font-family="Helvetica,sans-Serif" font-size="10.00">shaker_sort</text>
</a>
</g>
</g>
<!-- Node1&#45;&gt;Node12 -->
<g id="edge15_Node000001_Node000012" class="edge"><title>Node1&#45;&gt;Node12</title>
<g id="a_edge15_Node000001_Node000012"><a xlink:title=" ">
<path fill="none" stroke="#63b8ff" d="M258.417,-174.915C250.093,-146.685 230.884,-94.7455 196,-65.5 188.38,-59.112 178.596,-54.8647 169.149,-52.0433"/>
<polygon fill="#63b8ff" stroke="#63b8ff" points="255.114,-176.1 261.167,-184.795 261.857,-174.223 255.114,-176.1"/>
</a>
</g>
</g>
<!-- Node13 -->
<g id="Node000013" class="node"><title>Node13</title>
<g id="a_Node000013"><a xlink:href="group___t_span.html#ga5b310d0b45f3dc6cc58b4ade80379cf5" target="_top" xlink:title="Test platnosti Spanu.">
<polygon fill="white" stroke="#666666" points="172,-19 98,-19 98,-0 172,-0 172,-19"/>
<text text-anchor="middle" x="135" y="-7" font-family="Helvetica,sans-Serif" font-size="10.00">span_is_valid</text>
</a>
</g>
</g>
<!-- Node1&#45;&gt;Node13 -->
<g id="edge16_Node000001_Node000013" class="edge"><title>Node1&#45;&gt;Node13</title>
<g id="a_edge16_Node000001_Node000013"><a xlink:title=" ">
<path fill="none" stroke="#63b8ff" d="M260.897,-174.357C255.346,-139.613 239.123,-68.3226 196,-28.5 189.337,-22.3473 180.688,-18.187 172.041,-15.3739"/>
<polygon fill="#63b8ff" stroke="#63b8ff" points="257.49,-175.249 262.394,-184.64 264.417,-174.24 257.49,-175.249"/>
</a>
</g>
</g>
<!-- Node6 -->
<g id="Node000006" class="node"><title>Node6</title>
<g id="a_Node000006"><a xlink:href="group___main_program.html#ga0ddf1224851353fc92bfbff6f499fa97" target="_top" xlink:title=" ">
<polygon fill="white" stroke="#666666" points="38,-204 0,-204 0,-185 38,-185 38,-204"/>
<text text-anchor="middle" x="19" y="-192" font-family="Helvetica,sans-Serif" font-size="10.00">main</text>
</a>
</g>
</g>
<!-- Node5&#45;&gt;Node6 -->
<g id="edge5_Node000005_Node000006" class="edge"><title>Node5&#45;&gt;Node6</title>
<g id="a_edge5_Node000005_Node000006"><a xlink:title=" ">
<path fill="none" stroke="#63b8ff" d="M95.5897,-260.175C88.1271,-257.687 80.5855,-254.515 74,-250.5 53.9349,-238.266 36.1991,-216.792 26.8958,-204.291"/>
<polygon fill="#63b8ff" stroke="#63b8ff" points="94.684,-263.557 105.267,-263.065 96.6869,-256.85 94.684,-263.557"/>
</a>
</g>
</g>
<!-- Node7&#45;&gt;Node6 -->
<g id="edge7_Node000007_Node000006" class="edge"><title>Node7&#45;&gt;Node6</title>
<g id="a_edge7_Node000007_Node000006"><a xlink:title=" ">
<path fill="none" stroke="#63b8ff" d="M91.4595,-219.007C85.5808,-217.202 79.6308,-215.334 74,-213.5 62.0934,-209.622 48.8259,-204.958 38.4215,-201.222"/>
<polygon fill="#63b8ff" stroke="#63b8ff" points="90.6312,-222.413 101.217,-221.968 92.6636,-215.715 90.6312,-222.413"/>
</a>
</g>
</g>
<!-- Node8&#45;&gt;Node6 -->
<g id="edge9_Node000008_Node000006" class="edge"><title>Node8&#45;&gt;Node6</title>
<g id="a_edge9_Node000008_Node000006"><a xlink:title=" ">
<path fill="none" stroke="#63b8ff" d="M92.1961,-194.5C73.5763,-194.5 52.6227,-194.5 38.105,-194.5"/>
<polygon fill="#63b8ff" stroke="#63b8ff" points="92.2447,-198 102.245,-194.5 92.2446,-191 92.2447,-198"/>
</a>
</g>
</g>
<!-- Node9&#45;&gt;Node6 -->
<g id="edge11_Node000009_Node000006" class="edge"><title>Node9&#45;&gt;Node6</title>
<g id="a_edge11_Node000009_Node000006"><a xlink:title=" ">
<path fill="none" stroke="#63b8ff" d="M93.8925,-170.109C87.2427,-172.225 80.4233,-174.413 74,-176.5 62.1582,-180.348 48.8917,-184.769 38.4717,-188.266"/>
<polygon fill="#63b8ff" stroke="#63b8ff" points="94.9746,-173.437 103.448,-167.077 92.8577,-166.765 94.9746,-173.437"/>
</a>
</g>
</g>
<!-- Node10&#45;&gt;Node6 -->
<g id="edge13_Node000010_Node000006" class="edge"><title>Node10&#45;&gt;Node6</title>
<g id="a_edge13_Node000010_Node000006"><a xlink:title=" ">
<path fill="none" stroke="#63b8ff" d="M93.8018,-130.222C86.9358,-132.714 80.0685,-135.774 74,-139.5 54.1575,-151.683 36.3417,-172.713 26.9644,-184.936"/>
<polygon fill="#63b8ff" stroke="#63b8ff" points="95.3488,-133.399 103.767,-126.966 93.1748,-126.745 95.3488,-133.399"/>
</a>
</g>
</g>
</g>
</svg>
