<?xml version="1.0" encoding="UTF-8" standalone="no"?>
<!DOCTYPE svg PUBLIC "-//W3C//DTD SVG 1.1//EN"
 "http://www.w3.org/Graphics/SVG/1.1/DTD/svg11.dtd">
<!-- Generated by graphviz version 2.38.0 (20140413.2041)
 -->
<!-- Title: vector_iterators_are_same Pages: 1 -->
<svg width="301pt" height="64pt"
 viewBox="0.00 0.00 301.00 64.00" xmlns="http://www.w3.org/2000/svg" xmlns:xlink="http://www.w3.org/1999/xlink">
<g id="graph0" class="graph" transform="scale(1 1) rotate(0) translate(4 60)">
<title>vector_iterators_are_same</title>
<!-- Node1 -->
<g id="Node000001" class="node"><title>Node1</title>
<g id="a_Node000001"><a xlink:title="Test shodnosti dvou iterátorů">
<polygon fill="#999999" stroke="#666666" points="293,-37 162,-37 162,-18 293,-18 293,-37"/>
<text text-anchor="middle" x="227.5" y="-25" font-family="Helvetica,sans-Serif" font-size="10.00">vector_iterators_are_same</text>
</a>
</g>
</g>
<!-- Node2 -->
<g id="Node000002" class="node"><title>Node2</title>
<g id="a_Node000002"><a xlink:href="group__sortable___t_vector__with__shareable__sortstats.html#ga1e5a9731214337073162d3bb238639e1" target="_top" xlink:title="Test shodnosti dvou iterátorů">
<polygon fill="white" stroke="#666666" points="126,-56 0,-56 0,-37 126,-37 126,-56"/>
<text text-anchor="middle" x="63" y="-44" font-family="Helvetica,sans-Serif" font-size="10.00">heap_iterators_are_same</text>
</a>
</g>
</g>
<!-- Node1&#45;&gt;Node2 -->
<g id="edge1_Node000001_Node000002" class="edge"><title>Node1&#45;&gt;Node2</title>
<g id="a_edge1_Node000001_Node000002"><a xlink:title=" ">
<path fill="none" stroke="#63b8ff" d="M151.785,-36.2359C143.188,-37.2411 134.492,-38.2578 126.087,-39.2406"/>
<polygon fill="#63b8ff" stroke="#63b8ff" points="152.283,-39.7016 161.809,-35.0639 151.47,-32.749 152.283,-39.7016"/>
</a>
</g>
</g>
<!-- Node3 -->
<g id="Node000003" class="node"><title>Node3</title>
<g id="a_Node000003"><a xlink:href="group___t_span.html#gabda724224638fb2f6016b6f8eba08263" target="_top" xlink:title="Test shodnosti dvou iterátorů">
<polygon fill="white" stroke="#666666" points="126,-19 0,-19 0,-0 126,-0 126,-19"/>
<text text-anchor="middle" x="63" y="-7" font-family="Helvetica,sans-Serif" font-size="10.00">span_iterators_are_same</text>
</a>
</g>
</g>
<!-- Node1&#45;&gt;Node3 -->
<g id="edge2_Node000001_Node000003" class="edge"><title>Node1&#45;&gt;Node3</title>
<g id="a_edge2_Node000001_Node000003"><a xlink:title=" ">
<path fill="none" stroke="#63b8ff" d="M151.785,-19.2239C143.188,-18.2716 134.492,-17.3084 126.087,-16.3774"/>
<polygon fill="#63b8ff" stroke="#63b8ff" points="151.484,-22.7119 161.809,-20.3342 152.255,-15.7544 151.484,-22.7119"/>
</a>
</g>
</g>
</g>
</svg>
