<?xml version="1.0" encoding="UTF-8" standalone="no"?>
<!DOCTYPE svg PUBLIC "-//W3C//DTD SVG 1.1//EN"
 "http://www.w3.org/Graphics/SVG/1.1/DTD/svg11.dtd">
<!-- Generated by graphviz version 2.38.0 (20140413.2041)
 -->
<!-- Title: vector_iterator_last Pages: 1 -->
<svg width="551pt" height="64pt"
 viewBox="0.00 0.00 551.00 64.00" xmlns="http://www.w3.org/2000/svg" xmlns:xlink="http://www.w3.org/1999/xlink">
<g id="graph0" class="graph" transform="scale(1 1) rotate(0) translate(4 60)">
<title>vector_iterator_last</title>
<!-- Node1 -->
<g id="Node000001" class="node"><title>Node1</title>
<g id="a_Node000001"><a xlink:title="Vytvoření nového iterátoru ukazujícího na poslední element.">
<polygon fill="#999999" stroke="#666666" points="543,-37 445,-37 445,-18 543,-18 543,-37"/>
<text text-anchor="middle" x="494" y="-25" font-family="Helvetica,sans-Serif" font-size="10.00">vector_iterator_last</text>
</a>
</g>
</g>
<!-- Node2 -->
<g id="Node000002" class="node"><title>Node2</title>
<g id="a_Node000002"><a xlink:href="group___t_heap.html#gaad26057e7e2deea467b61eb79d73a1da" target="_top" xlink:title="Vytvoření nového iterátoru ukazujícího na nejpravější listový uzel haldy.">
<polygon fill="white" stroke="#666666" points="409,-56 315,-56 315,-37 409,-37 409,-56"/>
<text text-anchor="middle" x="362" y="-44" font-family="Helvetica,sans-Serif" font-size="10.00">heap_iterator_last</text>
</a>
</g>
</g>
<!-- Node1&#45;&gt;Node2 -->
<g id="edge1_Node000001_Node000002" class="edge"><title>Node1&#45;&gt;Node2</title>
<g id="a_edge1_Node000001_Node000002"><a xlink:title=" ">
<path fill="none" stroke="#63b8ff" d="M434.925,-35.9878C426.279,-37.2515 417.467,-38.5394 409.112,-39.7606"/>
<polygon fill="#63b8ff" stroke="#63b8ff" points="435.573,-39.4304 444.962,-34.5209 434.561,-32.504 435.573,-39.4304"/>
</a>
</g>
</g>
<!-- Node6 -->
<g id="Node000006" class="node"><title>Node6</title>
<g id="a_Node000006"><a xlink:href="group___t_span.html#ga3222b38985d1fad571989c9be2d66243" target="_top" xlink:title="Vytvoření nového iterátoru ukazujícího na poslední element.">
<polygon fill="white" stroke="#666666" points="409,-19 315,-19 315,-0 409,-0 409,-19"/>
<text text-anchor="middle" x="362" y="-7" font-family="Helvetica,sans-Serif" font-size="10.00">span_iterator_last</text>
</a>
</g>
</g>
<!-- Node1&#45;&gt;Node6 -->
<g id="edge6_Node000001_Node000006" class="edge"><title>Node1&#45;&gt;Node6</title>
<g id="a_edge6_Node000001_Node000006"><a xlink:title=" ">
<path fill="none" stroke="#63b8ff" d="M434.925,-19.4589C426.279,-18.2617 417.467,-17.0417 409.112,-15.8847"/>
<polygon fill="#63b8ff" stroke="#63b8ff" points="434.577,-22.9439 444.962,-20.8486 435.537,-16.0101 434.577,-22.9439"/>
</a>
</g>
</g>
<!-- Node3 -->
<g id="Node000003" class="node"><title>Node3</title>
<g id="a_Node000003"><a xlink:href="group___powerful_sorts.html#ga84762e575f9465881e13d17072186ddd" target="_top" xlink:title="Třídění pomocí haldy (Heap Sort) využívající iterátorové API pro přístup k elementům vektoru.">
<polygon fill="white" stroke="#666666" points="196,-56 74,-56 74,-37 196,-37 196,-56"/>
<text text-anchor="middle" x="135" y="-44" font-family="Helvetica,sans-Serif" font-size="10.00">heap_sort_with_iterators</text>
</a>
</g>
</g>
<!-- Node2&#45;&gt;Node3 -->
<g id="edge2_Node000002_Node000003" class="edge"><title>Node2&#45;&gt;Node3</title>
<g id="a_edge2_Node000002_Node000003"><a xlink:title=" ">
<path fill="none" stroke="#63b8ff" d="M304.521,-46.5C271.476,-46.5 229.772,-46.5 196.119,-46.5"/>
<polygon fill="#63b8ff" stroke="#63b8ff" points="304.925,-50.0001 314.925,-46.5 304.925,-43.0001 304.925,-50.0001"/>
</a>
</g>
</g>
<!-- Node5 -->
<g id="Node000005" class="node"><title>Node5</title>
<g id="a_Node000005"><a xlink:href="heap__sort__with__iterators_8c.html#aceaf0618c69440f1e439e224eb6945dc" target="_top" xlink:title="Vnitřní a lokální funkce realizující uspořádání elementů vektoru do haldy.">
<polygon fill="white" stroke="#666666" points="279,-37 232,-37 232,-18 279,-18 279,-37"/>
<text text-anchor="middle" x="255.5" y="-25" font-family="Helvetica,sans-Serif" font-size="10.00">heapify</text>
</a>
</g>
</g>
<!-- Node2&#45;&gt;Node5 -->
<g id="edge4_Node000002_Node000005" class="edge"><title>Node2&#45;&gt;Node5</title>
<g id="a_edge4_Node000002_Node000005"><a xlink:title=" ">
<path fill="none" stroke="#63b8ff" d="M304.969,-36.3125C295.86,-34.6563 286.905,-33.0282 279.219,-31.6308"/>
<polygon fill="#63b8ff" stroke="#63b8ff" points="304.396,-39.7656 314.861,-38.111 305.648,-32.8785 304.396,-39.7656"/>
</a>
</g>
</g>
<!-- Node4 -->
<g id="Node000004" class="node"><title>Node4</title>
<g id="a_Node000004"><a xlink:href="group___main_program.html#ga0ddf1224851353fc92bfbff6f499fa97" target="_top" xlink:title=" ">
<polygon fill="white" stroke="#666666" points="38,-56 0,-56 0,-37 38,-37 38,-56"/>
<text text-anchor="middle" x="19" y="-44" font-family="Helvetica,sans-Serif" font-size="10.00">main</text>
</a>
</g>
</g>
<!-- Node3&#45;&gt;Node4 -->
<g id="edge3_Node000003_Node000004" class="edge"><title>Node3&#45;&gt;Node4</title>
<g id="a_edge3_Node000003_Node000004"><a xlink:title=" ">
<path fill="none" stroke="#63b8ff" d="M63.9621,-46.5C54.4658,-46.5 45.4797,-46.5 38.1365,-46.5"/>
<polygon fill="#63b8ff" stroke="#63b8ff" points="63.9954,-50.0001 73.9954,-46.5 63.9953,-43.0001 63.9954,-50.0001"/>
</a>
</g>
</g>
<!-- Node5&#45;&gt;Node3 -->
<g id="edge5_Node000005_Node000003" class="edge"><title>Node5&#45;&gt;Node3</title>
<g id="a_edge5_Node000005_Node000003"><a xlink:title=" ">
<path fill="none" stroke="#63b8ff" d="M222.001,-32.7108C213.738,-34.0357 204.596,-35.5015 195.448,-36.9683"/>
<polygon fill="#63b8ff" stroke="#63b8ff" points="222.612,-36.1576 231.932,-31.1185 221.504,-29.2459 222.612,-36.1576"/>
</a>
</g>
</g>
</g>
</svg>
