<?xml version="1.0" encoding="UTF-8" standalone="no"?>
<!DOCTYPE svg PUBLIC "-//W3C//DTD SVG 1.1//EN"
 "http://www.w3.org/Graphics/SVG/1.1/DTD/svg11.dtd">
<!-- Generated by graphviz version 2.38.0 (20140413.2041)
 -->
<!-- Title: vector_move_positions Pages: 1 -->
<svg width="762pt" height="230pt"
 viewBox="0.00 0.00 762.00 230.42" xmlns="http://www.w3.org/2000/svg" xmlns:xlink="http://www.w3.org/1999/xlink">
<g id="graph0" class="graph" transform="scale(1 1) rotate(0) translate(4 226.416)">
<title>vector_move_positions</title>
<!-- Node1 -->
<g id="Node000001" class="node"><title>Node1</title>
<g id="a_Node000001"><a xlink:title="Přesun hodnoty elementu vektoru.">
<polygon fill="#999999" stroke="#666666" points="754,-96 640,-96 640,-77 754,-77 754,-96"/>
<text text-anchor="middle" x="697" y="-84" font-family="Helvetica,sans-Serif" font-size="10.00">vector_move_positions</text>
</a>
</g>
</g>
<!-- Node2 -->
<g id="Node000002" class="node"><title>Node2</title>
<g id="a_Node000002"><a xlink:href="group___t_heap.html#ga5189745928eb05b31e28d37a79d9017f" target="_top" xlink:title="Přesun hodnot mezi uzly haldy.">
<polygon fill="white" stroke="#666666" points="604,-208 494,-208 494,-189 604,-189 604,-208"/>
<text text-anchor="middle" x="549" y="-196" font-family="Helvetica,sans-Serif" font-size="10.00">heap_move_positions</text>
</a>
</g>
</g>
<!-- Node1&#45;&gt;Node2 -->
<g id="edge1_Node000001_Node000002" class="edge"><title>Node1&#45;&gt;Node2</title>
<g id="a_edge1_Node000001_Node000002"><a xlink:title=" ">
<path fill="none" stroke="#63b8ff" d="M675.243,-102.423C644.42,-126.068 587.495,-169.737 562.416,-188.975"/>
<polygon fill="#63b8ff" stroke="#63b8ff" points="677.748,-104.913 683.552,-96.0491 673.487,-99.3587 677.748,-104.913"/>
</a>
</g>
</g>
<!-- Node7 -->
<g id="Node000007" class="node"><title>Node7</title>
<g id="a_Node000007"><a xlink:href="group___basic_sorts.html#gac3903c3fd846908cd362e293ed40582e" target="_top" xlink:title="Třídění přímým vkládáním (Insert Sort)">
<polygon fill="white" stroke="#666666" points="162,-151 100,-151 100,-132 162,-132 162,-151"/>
<text text-anchor="middle" x="131" y="-139" font-family="Helvetica,sans-Serif" font-size="10.00">insert_sort</text>
</a>
</g>
</g>
<!-- Node1&#45;&gt;Node7 -->
<g id="edge8_Node000001_Node000007" class="edge"><title>Node1&#45;&gt;Node7</title>
<g id="a_edge8_Node000001_Node000007"><a xlink:title=" ">
<path fill="none" stroke="#63b8ff" d="M640.768,-98.0256C628.683,-100.346 615.935,-102.64 604,-104.5 438.319,-130.314 236.968,-138.482 162.004,-140.736"/>
<polygon fill="#63b8ff" stroke="#63b8ff" points="641.589,-101.432 650.732,-96.079 640.247,-94.5614 641.589,-101.432"/>
</a>
</g>
</g>
<!-- Node8 -->
<g id="Node000008" class="node"><title>Node8</title>
<g id="a_Node000008"><a xlink:href="merge__sort_8c.html#a662181aab782eefc61f71886c9aa21ab" target="_top" xlink:title="Vnitřní a lokální funkce realizující sloučení dvou již setříděných rozsahů z vektoru aFromVector do v...">
<polygon fill="white" stroke="#666666" points="573,-96 525,-96 525,-77 573,-77 573,-96"/>
<text text-anchor="middle" x="549" y="-84" font-family="Helvetica,sans-Serif" font-size="10.00">mergify</text>
</a>
</g>
</g>
<!-- Node1&#45;&gt;Node8 -->
<g id="edge10_Node000001_Node000008" class="edge"><title>Node1&#45;&gt;Node8</title>
<g id="a_edge10_Node000001_Node000008"><a xlink:title=" ">
<path fill="none" stroke="#63b8ff" d="M629.807,-86.5C609.578,-86.5 588.645,-86.5 573.296,-86.5"/>
<polygon fill="#63b8ff" stroke="#63b8ff" points="629.97,-90.0001 639.97,-86.5 629.97,-83.0001 629.97,-90.0001"/>
</a>
</g>
</g>
<!-- Node11 -->
<g id="Node000011" class="node"><title>Node11</title>
<g id="a_Node000011"><a xlink:href="group___advanced_sorts.html#gaee070b00692f425d83eaea28b37bab2b" target="_top" xlink:title="Shellovo třídění vkládáním s ubývajícím krokem (Shell Sort) dle Hibbardovy posloupnosti.">
<polygon fill="white" stroke="#666666" points="438,-58 379,-58 379,-39 438,-39 438,-58"/>
<text text-anchor="middle" x="408.5" y="-46" font-family="Helvetica,sans-Serif" font-size="10.00">shell_sort</text>
</a>
</g>
</g>
<!-- Node1&#45;&gt;Node11 -->
<g id="edge15_Node000001_Node000011" class="edge"><title>Node1&#45;&gt;Node11</title>
<g id="a_edge15_Node000001_Node000011"><a xlink:title=" ">
<path fill="none" stroke="#63b8ff" d="M644.634,-74.8864C631.44,-72.1805 617.235,-69.5073 604,-67.5 545.465,-58.6223 476.358,-53.0193 438.29,-50.3516"/>
<polygon fill="#63b8ff" stroke="#63b8ff" points="643.987,-78.3269 654.492,-76.9514 645.422,-71.4756 643.987,-78.3269"/>
</a>
</g>
</g>
<!-- Node12 -->
<g id="Node000012" class="node"><title>Node12</title>
<g id="a_Node000012"><a xlink:href="group___t_span.html#ga8efc8ea3e4f239b6c154cdae03258740" target="_top" xlink:title="Přesun hodnoty elementu Spanu.">
<polygon fill="white" stroke="#666666" points="604,-20 494,-20 494,-1 604,-1 604,-20"/>
<text text-anchor="middle" x="549" y="-8" font-family="Helvetica,sans-Serif" font-size="10.00">span_move_positions</text>
</a>
</g>
</g>
<!-- Node1&#45;&gt;Node12 -->
<g id="edge17_Node000001_Node000012" class="edge"><title>Node1&#45;&gt;Node12</title>
<g id="a_edge17_Node000001_Node000012"><a xlink:title=" ">
<path fill="none" stroke="#63b8ff" d="M671.364,-71.719C653.035,-60.9335 627.272,-46.2144 604,-34.5 593.92,-29.426 582.532,-24.2813 572.822,-20.0635"/>
<polygon fill="#63b8ff" stroke="#63b8ff" points="669.582,-74.7313 679.969,-76.8154 673.149,-68.7082 669.582,-74.7313"/>
</a>
</g>
</g>
<!-- Node3 -->
<g id="Node000003" class="node"><title>Node3</title>
<g id="a_Node000003"><a xlink:href="group___powerful_sorts.html#gaf564949cc194e5feea63d6c2aaa3125a" target="_top" xlink:title="Třídění pomocí haldy (Heap Sort) využívající poziční API pro přístup k elementům vektoru.">
<polygon fill="white" stroke="#666666" points="160.5,-208 101.5,-208 101.5,-189 160.5,-189 160.5,-208"/>
<text text-anchor="middle" x="131" y="-196" font-family="Helvetica,sans-Serif" font-size="10.00">heap_sort</text>
</a>
</g>
</g>
<!-- Node2&#45;&gt;Node3 -->
<g id="edge2_Node000002_Node000003" class="edge"><title>Node2&#45;&gt;Node3</title>
<g id="a_edge2_Node000002_Node000003"><a xlink:title=" ">
<path fill="none" stroke="#63b8ff" d="M498.969,-210.128C485.748,-212.763 471.394,-215.174 458,-216.5 354.491,-226.749 327.591,-221.882 224,-212.5 202.761,-210.576 178.965,-206.914 160.895,-203.818"/>
<polygon fill="#63b8ff" stroke="#63b8ff" points="499.744,-213.542 508.825,-208.083 498.322,-206.688 499.744,-213.542"/>
</a>
</g>
</g>
<!-- Node5 -->
<g id="Node000005" class="node"><title>Node5</title>
<g id="a_Node000005"><a xlink:href="heap__sort_8c.html#a1572325ec24b4714bb9bbd64229d85d0" target="_top" xlink:title="Vnitřní a lokální funkce zajišťující vložení hodnoty do zvoleného uzlu haldy, při zachování podmínek ...">
<polygon fill="white" stroke="#666666" points="437,-208 380,-208 380,-189 437,-189 437,-208"/>
<text text-anchor="middle" x="408.5" y="-196" font-family="Helvetica,sans-Serif" font-size="10.00">sift_down</text>
</a>
</g>
</g>
<!-- Node2&#45;&gt;Node5 -->
<g id="edge4_Node000002_Node000005" class="edge"><title>Node2&#45;&gt;Node5</title>
<g id="a_edge4_Node000002_Node000005"><a xlink:title=" ">
<path fill="none" stroke="#63b8ff" d="M483.543,-198.5C467.169,-198.5 450.436,-198.5 437.029,-198.5"/>
<polygon fill="#63b8ff" stroke="#63b8ff" points="483.659,-202 493.659,-198.5 483.659,-195 483.659,-202"/>
</a>
</g>
</g>
<!-- Node4 -->
<g id="Node000004" class="node"><title>Node4</title>
<g id="a_Node000004"><a xlink:href="group___main_program.html#ga0ddf1224851353fc92bfbff6f499fa97" target="_top" xlink:title=" ">
<polygon fill="white" stroke="#666666" points="38,-113 0,-113 0,-94 38,-94 38,-113"/>
<text text-anchor="middle" x="19" y="-101" font-family="Helvetica,sans-Serif" font-size="10.00">main</text>
</a>
</g>
</g>
<!-- Node3&#45;&gt;Node4 -->
<g id="edge3_Node000003_Node000004" class="edge"><title>Node3&#45;&gt;Node4</title>
<g id="a_edge3_Node000003_Node000004"><a xlink:title=" ">
<path fill="none" stroke="#63b8ff" d="M106.19,-183.419C95.9452,-176.554 84.0415,-168.061 74,-159.5 56.5274,-144.604 38.4477,-124.797 28.2723,-113.17"/>
<polygon fill="#63b8ff" stroke="#63b8ff" points="104.398,-186.429 114.678,-188.993 108.24,-180.578 104.398,-186.429"/>
</a>
</g>
</g>
<!-- Node5&#45;&gt;Node3 -->
<g id="edge5_Node000005_Node000003" class="edge"><title>Node5&#45;&gt;Node3</title>
<g id="a_edge5_Node000005_Node000003"><a xlink:title=" ">
<path fill="none" stroke="#63b8ff" d="M369.663,-198.5C313.937,-198.5 210.995,-198.5 160.898,-198.5"/>
<polygon fill="#63b8ff" stroke="#63b8ff" points="369.823,-202 379.823,-198.5 369.823,-195 369.823,-202"/>
</a>
</g>
</g>
<!-- Node6 -->
<g id="Node000006" class="node"><title>Node6</title>
<g id="a_Node000006"><a xlink:href="heap__sort_8c.html#aceaf0618c69440f1e439e224eb6945dc" target="_top" xlink:title="Vnitřní a lokální funkce realizující uspořádání elementů vektoru do haldy.">
<polygon fill="white" stroke="#666666" points="297,-189 250,-189 250,-170 297,-170 297,-189"/>
<text text-anchor="middle" x="273.5" y="-177" font-family="Helvetica,sans-Serif" font-size="10.00">heapify</text>
</a>
</g>
</g>
<!-- Node5&#45;&gt;Node6 -->
<g id="edge6_Node000005_Node000006" class="edge"><title>Node5&#45;&gt;Node6</title>
<g id="a_edge6_Node000005_Node000006"><a xlink:title=" ">
<path fill="none" stroke="#63b8ff" d="M369.975,-193.139C346.526,-189.789 317.103,-185.586 297.163,-182.738"/>
<polygon fill="#63b8ff" stroke="#63b8ff" points="369.548,-196.614 379.942,-194.563 370.538,-189.684 369.548,-196.614"/>
</a>
</g>
</g>
<!-- Node6&#45;&gt;Node3 -->
<g id="edge7_Node000006_Node000003" class="edge"><title>Node6&#45;&gt;Node3</title>
<g id="a_edge7_Node000006_Node000003"><a xlink:title=" ">
<path fill="none" stroke="#63b8ff" d="M239.877,-183.912C215.882,-187.156 183.579,-191.525 160.592,-194.633"/>
<polygon fill="#63b8ff" stroke="#63b8ff" points="240.486,-187.361 249.926,-182.553 239.547,-180.424 240.486,-187.361"/>
</a>
</g>
</g>
<!-- Node7&#45;&gt;Node4 -->
<g id="edge9_Node000007_Node000004" class="edge"><title>Node7&#45;&gt;Node4</title>
<g id="a_edge9_Node000007_Node000004"><a xlink:title=" ">
<path fill="none" stroke="#63b8ff" d="M92.6533,-128.598C74.2345,-122.236 52.8611,-114.852 38.0872,-109.748"/>
<polygon fill="#63b8ff" stroke="#63b8ff" points="91.6476,-131.954 102.242,-131.911 93.9333,-125.338 91.6476,-131.954"/>
</a>
</g>
</g>
<!-- Node9 -->
<g id="Node000009" class="node"><title>Node9</title>
<g id="a_Node000009"><a xlink:href="merge__sort_8c.html#a41bfb4129631a73ffc60c10381af80c2" target="_top" xlink:title="Vnitřní a lokální funkce realizující rekurzivní funkci pro metodu (Merge Sort)">
<polygon fill="white" stroke="#666666" points="458,-95 359,-95 359,-76 458,-76 458,-95"/>
<text text-anchor="middle" x="408.5" y="-83" font-family="Helvetica,sans-Serif" font-size="10.00">merge_sort_worker</text>
</a>
</g>
</g>
<!-- Node8&#45;&gt;Node9 -->
<g id="edge11_Node000008_Node000009" class="edge"><title>Node8&#45;&gt;Node9</title>
<g id="a_edge11_Node000008_Node000009"><a xlink:title=" ">
<path fill="none" stroke="#63b8ff" d="M514.817,-86.2604C497.831,-86.1378 476.828,-85.9861 458.059,-85.8506"/>
<polygon fill="#63b8ff" stroke="#63b8ff" points="514.793,-89.7602 524.818,-86.3326 514.844,-82.7604 514.793,-89.7602"/>
</a>
</g>
</g>
<!-- Node9&#45;&gt;Node9 -->
<g id="edge14_Node000009_Node000009" class="edge"><title>Node9&#45;&gt;Node9</title>
<g id="a_edge14_Node000009_Node000009"><a xlink:title=" ">
<path fill="none" stroke="#63b8ff" d="M433.425,-104.189C432.066,-109.197 423.757,-113 408.5,-113 384.684,-113 377.799,-103.734 387.847,-95.0828"/>
<polygon fill="#63b8ff" stroke="#63b8ff" points="436.569,-102.65 429.153,-95.0828 430.232,-105.623 436.569,-102.65"/>
</a>
</g>
</g>
<!-- Node10 -->
<g id="Node000010" class="node"><title>Node10</title>
<g id="a_Node000010"><a xlink:href="group___powerful_sorts.html#gaca54b9dda831aa79008867770c96413e" target="_top" xlink:title="Třídění pomocí metody slučováním (Merge sort) využívající rekurzivní rozklad.">
<polygon fill="white" stroke="#666666" points="306,-113 241,-113 241,-94 306,-94 306,-113"/>
<text text-anchor="middle" x="273.5" y="-101" font-family="Helvetica,sans-Serif" font-size="10.00">merge_sort</text>
</a>
</g>
</g>
<!-- Node9&#45;&gt;Node10 -->
<g id="edge12_Node000009_Node000010" class="edge"><title>Node9&#45;&gt;Node10</title>
<g id="a_edge12_Node000009_Node000010"><a xlink:title=" ">
<path fill="none" stroke="#63b8ff" d="M348.738,-93.4527C334.137,-95.4288 319.031,-97.4732 306.288,-99.1978"/>
<polygon fill="#63b8ff" stroke="#63b8ff" points="349.291,-96.9099 358.731,-92.1003 348.352,-89.9732 349.291,-96.9099"/>
</a>
</g>
</g>
<!-- Node10&#45;&gt;Node4 -->
<g id="edge13_Node000010_Node000004" class="edge"><title>Node10&#45;&gt;Node4</title>
<g id="a_edge13_Node000010_Node000004"><a xlink:title=" ">
<path fill="none" stroke="#63b8ff" d="M230.499,-103.5C174.6,-103.5 78.1648,-103.5 38.183,-103.5"/>
<polygon fill="#63b8ff" stroke="#63b8ff" points="230.776,-107 240.776,-103.5 230.776,-100 230.776,-107"/>
</a>
</g>
</g>
<!-- Node11&#45;&gt;Node4 -->
<g id="edge16_Node000011_Node000004" class="edge"><title>Node11&#45;&gt;Node4</title>
<g id="a_edge16_Node000011_Node000004"><a xlink:title=" ">
<path fill="none" stroke="#63b8ff" d="M368.767,-53.9976C286.719,-65.6431 98.0451,-92.4226 38.4155,-100.886"/>
<polygon fill="#63b8ff" stroke="#63b8ff" points="369.282,-57.4596 378.691,-52.589 368.298,-50.5291 369.282,-57.4596"/>
</a>
</g>
</g>
<!-- Node13 -->
<g id="Node000013" class="node"><title>Node13</title>
<g id="a_Node000013"><a xlink:href="merge__sort__with__span_8c.html#a8c83f4f60393434eff082ca19f5f14ad" target="_top" xlink:title="Vnitřní a lokální funkce realizující sloučení dvou již setříděných rozsahů (Spanů)">
<polygon fill="white" stroke="#666666" points="432.5,-20 384.5,-20 384.5,-1 432.5,-1 432.5,-20"/>
<text text-anchor="middle" x="408.5" y="-8" font-family="Helvetica,sans-Serif" font-size="10.00">mergify</text>
</a>
</g>
</g>
<!-- Node12&#45;&gt;Node13 -->
<g id="edge18_Node000012_Node000013" class="edge"><title>Node12&#45;&gt;Node13</title>
<g id="a_edge18_Node000012_Node000013"><a xlink:title=" ">
<path fill="none" stroke="#63b8ff" d="M483.601,-10.5C465.355,-10.5 446.657,-10.5 432.609,-10.5"/>
<polygon fill="#63b8ff" stroke="#63b8ff" points="483.659,-14.0001 493.659,-10.5 483.659,-7.0001 483.659,-14.0001"/>
</a>
</g>
</g>
<!-- Node14 -->
<g id="Node000014" class="node"><title>Node14</title>
<g id="a_Node000014"><a xlink:href="merge__sort__with__span_8c.html#acfb719292b2ea89b714190280e0021b0" target="_top" xlink:title="Vnitřní a lokální funkce realizující rekurzivní funkci pro metodu (Merge Sort)">
<polygon fill="white" stroke="#666666" points="323,-19 224,-19 224,-0 323,-0 323,-19"/>
<text text-anchor="middle" x="273.5" y="-7" font-family="Helvetica,sans-Serif" font-size="10.00">merge_sort_worker</text>
</a>
</g>
</g>
<!-- Node13&#45;&gt;Node14 -->
<g id="edge19_Node000013_Node000014" class="edge"><title>Node13&#45;&gt;Node14</title>
<g id="a_edge19_Node000013_Node000014"><a xlink:title=" ">
<path fill="none" stroke="#63b8ff" d="M374.194,-10.2496C358.715,-10.1332 340.011,-9.99256 323.004,-9.86469"/>
<polygon fill="#63b8ff" stroke="#63b8ff" points="374.307,-13.7504 384.333,-10.3258 374.36,-6.75063 374.307,-13.7504"/>
</a>
</g>
</g>
<!-- Node14&#45;&gt;Node14 -->
<g id="edge22_Node000014_Node000014" class="edge"><title>Node14&#45;&gt;Node14</title>
<g id="a_edge22_Node000014_Node000014"><a xlink:title=" ">
<path fill="none" stroke="#63b8ff" d="M298.425,-28.1894C297.066,-33.1971 288.757,-37 273.5,-37 249.684,-37 242.799,-27.7337 252.847,-19.0828"/>
<polygon fill="#63b8ff" stroke="#63b8ff" points="301.569,-26.6495 294.153,-19.0828 295.232,-29.6226 301.569,-26.6495"/>
</a>
</g>
</g>
<!-- Node15 -->
<g id="Node000015" class="node"><title>Node15</title>
<g id="a_Node000015"><a xlink:href="group___powerful_sorts.html#ga879a216389959b8a25490288ba4e63dc" target="_top" xlink:title="Třídění pomocí metody slučováním (Merge sort) využívající rekurzivní rozklad a datový typ span.">
<polygon fill="white" stroke="#666666" points="188,-28 74,-28 74,-9 188,-9 188,-28"/>
<text text-anchor="middle" x="131" y="-16" font-family="Helvetica,sans-Serif" font-size="10.00">merge_sort_with_span</text>
</a>
</g>
</g>
<!-- Node14&#45;&gt;Node15 -->
<g id="edge20_Node000014_Node000015" class="edge"><title>Node14&#45;&gt;Node15</title>
<g id="a_edge20_Node000014_Node000015"><a xlink:title=" ">
<path fill="none" stroke="#63b8ff" d="M213.68,-13.2678C205.303,-13.8044 196.704,-14.3553 188.375,-14.8888"/>
<polygon fill="#63b8ff" stroke="#63b8ff" points="213.998,-16.7547 223.754,-12.6225 213.551,-9.76902 213.998,-16.7547"/>
</a>
</g>
</g>
<!-- Node15&#45;&gt;Node4 -->
<g id="edge21_Node000015_Node000004" class="edge"><title>Node15&#45;&gt;Node4</title>
<g id="a_edge21_Node000015_Node000004"><a xlink:title=" ">
<path fill="none" stroke="#63b8ff" d="M102.472,-33.0102C93.1303,-38.3752 82.8296,-44.7944 74,-51.5 56.587,-64.7242 38.7727,-82.9862 28.583,-93.9786"/>
<polygon fill="#63b8ff" stroke="#63b8ff" points="104.378,-35.9547 111.405,-28.0251 100.967,-29.8422 104.378,-35.9547"/>
</a>
</g>
</g>
</g>
</svg>
