<?xml version="1.0" encoding="UTF-8" standalone="no"?>
<!DOCTYPE svg PUBLIC "-//W3C//DTD SVG 1.1//EN"
 "http://www.w3.org/Graphics/SVG/1.1/DTD/svg11.dtd">
<!-- Generated by graphviz version 2.38.0 (20140413.2041)
 -->
<!-- Title: vector_value Pages: 1 -->
<svg width="478pt" height="209pt"
 viewBox="0.00 0.00 478.00 209.20" xmlns="http://www.w3.org/2000/svg" xmlns:xlink="http://www.w3.org/1999/xlink">
<g id="graph0" class="graph" transform="scale(1 1) rotate(0) translate(4 205.203)">
<title>vector_value</title>
<!-- Node1 -->
<g id="Node000001" class="node"><title>Node1</title>
<g id="a_Node000001"><a xlink:title="Přečtení hodnoty elementu z vektoru na požadované pozici.">
<polygon fill="#999999" stroke="#666666" points="470,-95 401,-95 401,-76 470,-76 470,-95"/>
<text text-anchor="middle" x="435.5" y="-83" font-family="Helvetica,sans-Serif" font-size="10.00">vector_value</text>
</a>
</g>
</g>
<!-- Node2 -->
<g id="Node000002" class="node"><title>Node2</title>
<g id="a_Node000002"><a xlink:href="group___t_heap.html#gaf0369d757c7569adb9ddb0d5f3530c07" target="_top" xlink:title="Přečtení hodnoty z uzlu haldy dle požadované pozice.">
<polygon fill="white" stroke="#666666" points="350,-189 285,-189 285,-170 350,-170 350,-189"/>
<text text-anchor="middle" x="317.5" y="-177" font-family="Helvetica,sans-Serif" font-size="10.00">heap_value</text>
</a>
</g>
</g>
<!-- Node1&#45;&gt;Node2 -->
<g id="edge1_Node000001_Node000002" class="edge"><title>Node1&#45;&gt;Node2</title>
<g id="a_edge1_Node000001_Node000002"><a xlink:title=" ">
<path fill="none" stroke="#63b8ff" d="M420.208,-102.685C406.98,-117.867 386.207,-139.949 365,-155.5 357.527,-160.98 348.627,-165.903 340.624,-169.843"/>
<polygon fill="#63b8ff" stroke="#63b8ff" points="422.901,-104.922 426.736,-95.0454 417.579,-100.374 422.901,-104.922"/>
</a>
</g>
</g>
<!-- Node6 -->
<g id="Node000006" class="node"><title>Node6</title>
<g id="a_Node000006"><a xlink:href="group___basic_sorts.html#gac3903c3fd846908cd362e293ed40582e" target="_top" xlink:title="Třídění přímým vkládáním (Insert Sort)">
<polygon fill="white" stroke="#666666" points="136,-149 74,-149 74,-130 136,-130 136,-149"/>
<text text-anchor="middle" x="105" y="-137" font-family="Helvetica,sans-Serif" font-size="10.00">insert_sort</text>
</a>
</g>
</g>
<!-- Node1&#45;&gt;Node6 -->
<g id="edge6_Node000001_Node000006" class="edge"><title>Node1&#45;&gt;Node6</title>
<g id="a_edge6_Node000001_Node000006"><a xlink:title=" ">
<path fill="none" stroke="#63b8ff" d="M412.105,-100.569C398.97,-108.583 381.715,-117.741 365,-122.5 284.822,-145.328 185.268,-144.04 136.214,-141.57"/>
<polygon fill="#63b8ff" stroke="#63b8ff" points="414.299,-103.322 420.875,-95.0151 410.554,-97.4084 414.299,-103.322"/>
</a>
</g>
</g>
<!-- Node7 -->
<g id="Node000007" class="node"><title>Node7</title>
<g id="a_Node000007"><a xlink:href="advanced__sorts_8c.html#a0ae77c9640aa821e5507079ec5d2eb1d" target="_top" xlink:title="Vnitřní a lokální funkce realizující rekurzivní funkci pro metodu (Quick Sort)">
<polygon fill="white" stroke="#666666" points="365,-95 270,-95 270,-76 365,-76 365,-95"/>
<text text-anchor="middle" x="317.5" y="-83" font-family="Helvetica,sans-Serif" font-size="10.00">quick_sort_worker</text>
</a>
</g>
</g>
<!-- Node1&#45;&gt;Node7 -->
<g id="edge8_Node000001_Node000007" class="edge"><title>Node1&#45;&gt;Node7</title>
<g id="a_edge8_Node000001_Node000007"><a xlink:title=" ">
<path fill="none" stroke="#63b8ff" d="M390.724,-85.5C382.434,-85.5 373.73,-85.5 365.35,-85.5"/>
<polygon fill="#63b8ff" stroke="#63b8ff" points="390.948,-89.0001 400.948,-85.5 390.948,-82.0001 390.948,-89.0001"/>
</a>
</g>
</g>
<!-- Node9 -->
<g id="Node000009" class="node"><title>Node9</title>
<g id="a_Node000009"><a xlink:href="group___advanced_sorts.html#gaee070b00692f425d83eaea28b37bab2b" target="_top" xlink:title="Shellovo třídění vkládáním s ubývajícím krokem (Shell Sort) dle Hibbardovy posloupnosti.">
<polygon fill="white" stroke="#666666" points="232.5,-57 173.5,-57 173.5,-38 232.5,-38 232.5,-57"/>
<text text-anchor="middle" x="203" y="-45" font-family="Helvetica,sans-Serif" font-size="10.00">shell_sort</text>
</a>
</g>
</g>
<!-- Node1&#45;&gt;Node9 -->
<g id="edge12_Node000001_Node000009" class="edge"><title>Node1&#45;&gt;Node9</title>
<g id="a_edge12_Node000001_Node000009"><a xlink:title=" ">
<path fill="none" stroke="#63b8ff" d="M391.215,-73.3646C382.577,-71.2049 373.536,-69.1284 365,-67.5 319.072,-58.7383 265.011,-52.93 232.676,-49.9289"/>
<polygon fill="#63b8ff" stroke="#63b8ff" points="390.559,-76.8099 401.117,-75.9163 392.306,-70.0313 390.559,-76.8099"/>
</a>
</g>
</g>
<!-- Node10 -->
<g id="Node000010" class="node"><title>Node10</title>
<g id="a_Node000010"><a xlink:href="group___t_span.html#ga4c772b349af71b9066651285a90ee21e" target="_top" xlink:title="Přečtení hodnoty elementu Spanu na požadované pozici.">
<polygon fill="white" stroke="#666666" points="350,-19 285,-19 285,-0 350,-0 350,-19"/>
<text text-anchor="middle" x="317.5" y="-7" font-family="Helvetica,sans-Serif" font-size="10.00">span_value</text>
</a>
</g>
</g>
<!-- Node1&#45;&gt;Node10 -->
<g id="edge14_Node000001_Node000010" class="edge"><title>Node1&#45;&gt;Node10</title>
<g id="a_edge14_Node000001_Node000010"><a xlink:title=" ">
<path fill="none" stroke="#63b8ff" d="M414.505,-69.1443C400.946,-58.4075 382.392,-44.3898 365,-33.5 356.684,-28.2932 347.109,-23.2081 338.817,-19.0688"/>
<polygon fill="#63b8ff" stroke="#63b8ff" points="412.64,-72.1352 422.632,-75.6603 417.019,-66.674 412.64,-72.1352"/>
</a>
</g>
</g>
<!-- Node3 -->
<g id="Node000003" class="node"><title>Node3</title>
<g id="a_Node000003"><a xlink:href="group___powerful_sorts.html#gaf564949cc194e5feea63d6c2aaa3125a" target="_top" xlink:title="Třídění pomocí haldy (Heap Sort) využívající poziční API pro přístup k elementům vektoru.">
<polygon fill="white" stroke="#666666" points="134.5,-189 75.5,-189 75.5,-170 134.5,-170 134.5,-189"/>
<text text-anchor="middle" x="105" y="-177" font-family="Helvetica,sans-Serif" font-size="10.00">heap_sort</text>
</a>
</g>
</g>
<!-- Node2&#45;&gt;Node3 -->
<g id="edge2_Node000002_Node000003" class="edge"><title>Node2&#45;&gt;Node3</title>
<g id="a_edge2_Node000002_Node000003"><a xlink:title=" ">
<path fill="none" stroke="#63b8ff" d="M274.65,-191.069C261.722,-194.119 247.367,-196.981 234,-198.5 206.621,-201.612 199.285,-202.349 172,-198.5 158.776,-196.634 144.491,-192.765 132.603,-189.001"/>
<polygon fill="#63b8ff" stroke="#63b8ff" points="275.791,-194.392 284.665,-188.604 274.119,-187.595 275.791,-194.392"/>
</a>
</g>
</g>
<!-- Node5 -->
<g id="Node000005" class="node"><title>Node5</title>
<g id="a_Node000005"><a xlink:href="heap__sort_8c.html#aceaf0618c69440f1e439e224eb6945dc" target="_top" xlink:title="Vnitřní a lokální funkce realizující uspořádání elementů vektoru do haldy.">
<polygon fill="white" stroke="#666666" points="226.5,-189 179.5,-189 179.5,-170 226.5,-170 226.5,-189"/>
<text text-anchor="middle" x="203" y="-177" font-family="Helvetica,sans-Serif" font-size="10.00">heapify</text>
</a>
</g>
</g>
<!-- Node2&#45;&gt;Node5 -->
<g id="edge4_Node000002_Node000005" class="edge"><title>Node2&#45;&gt;Node5</title>
<g id="a_edge4_Node000002_Node000005"><a xlink:title=" ">
<path fill="none" stroke="#63b8ff" d="M274.548,-179.5C258.389,-179.5 240.544,-179.5 226.844,-179.5"/>
<polygon fill="#63b8ff" stroke="#63b8ff" points="274.863,-183 284.863,-179.5 274.863,-176 274.863,-183"/>
</a>
</g>
</g>
<!-- Node4 -->
<g id="Node000004" class="node"><title>Node4</title>
<g id="a_Node000004"><a xlink:href="group___main_program.html#ga0ddf1224851353fc92bfbff6f499fa97" target="_top" xlink:title=" ">
<polygon fill="white" stroke="#666666" points="38,-128 0,-128 0,-109 38,-109 38,-128"/>
<text text-anchor="middle" x="19" y="-116" font-family="Helvetica,sans-Serif" font-size="10.00">main</text>
</a>
</g>
</g>
<!-- Node3&#45;&gt;Node4 -->
<g id="edge3_Node000003_Node000004" class="edge"><title>Node3&#45;&gt;Node4</title>
<g id="a_edge3_Node000003_Node000004"><a xlink:title=" ">
<path fill="none" stroke="#63b8ff" d="M81.9008,-164.131C79.2313,-162.245 76.5489,-160.336 74,-158.5 59.7991,-148.273 43.7004,-136.298 32.8035,-128.134"/>
<polygon fill="#63b8ff" stroke="#63b8ff" points="80.0093,-167.079 90.2053,-169.959 84.0304,-161.35 80.0093,-167.079"/>
</a>
</g>
</g>
<!-- Node5&#45;&gt;Node3 -->
<g id="edge5_Node000005_Node000003" class="edge"><title>Node5&#45;&gt;Node3</title>
<g id="a_edge5_Node000005_Node000003"><a xlink:title=" ">
<path fill="none" stroke="#63b8ff" d="M169.034,-179.5C157.902,-179.5 145.57,-179.5 134.787,-179.5"/>
<polygon fill="#63b8ff" stroke="#63b8ff" points="169.249,-183 179.249,-179.5 169.249,-176 169.249,-183"/>
</a>
</g>
</g>
<!-- Node6&#45;&gt;Node4 -->
<g id="edge7_Node000006_Node000004" class="edge"><title>Node6&#45;&gt;Node4</title>
<g id="a_edge7_Node000006_Node000004"><a xlink:title=" ">
<path fill="none" stroke="#63b8ff" d="M63.7436,-129.436C54.8327,-127.208 45.8169,-124.954 38.3044,-123.076"/>
<polygon fill="#63b8ff" stroke="#63b8ff" points="63.1237,-132.889 73.6741,-131.919 64.8215,-126.098 63.1237,-132.889"/>
</a>
</g>
</g>
<!-- Node7&#45;&gt;Node7 -->
<g id="edge11_Node000007_Node000007" class="edge"><title>Node7&#45;&gt;Node7</title>
<g id="a_edge11_Node000007_Node000007"><a xlink:title=" ">
<path fill="none" stroke="#63b8ff" d="M338.61,-104.554C337.2,-109.38 330.164,-113 317.5,-113 297.238,-113 291.381,-103.734 299.929,-95.0828"/>
<polygon fill="#63b8ff" stroke="#63b8ff" points="341.85,-103.225 335.071,-95.0828 335.293,-105.675 341.85,-103.225"/>
</a>
</g>
</g>
<!-- Node8 -->
<g id="Node000008" class="node"><title>Node8</title>
<g id="a_Node000008"><a xlink:href="group___advanced_sorts.html#gaa369b74c9050d30aa2416f9dba8cc8f5" target="_top" xlink:title="Rychlé třídění výměnou (Quick Sort) s volbou prostředního prvku jako pivota.">
<polygon fill="white" stroke="#666666" points="234,-102 172,-102 172,-83 234,-83 234,-102"/>
<text text-anchor="middle" x="203" y="-90" font-family="Helvetica,sans-Serif" font-size="10.00">quick_sort</text>
</a>
</g>
</g>
<!-- Node7&#45;&gt;Node8 -->
<g id="edge9_Node000007_Node000008" class="edge"><title>Node7&#45;&gt;Node8</title>
<g id="a_edge9_Node000007_Node000008"><a xlink:title=" ">
<path fill="none" stroke="#63b8ff" d="M259.775,-89.0296C250.889,-89.5825 242.018,-90.1344 234.051,-90.6302"/>
<polygon fill="#63b8ff" stroke="#63b8ff" points="260.004,-92.5222 269.767,-88.4078 259.569,-85.5357 260.004,-92.5222"/>
</a>
</g>
</g>
<!-- Node8&#45;&gt;Node4 -->
<g id="edge10_Node000008_Node000004" class="edge"><title>Node8&#45;&gt;Node4</title>
<g id="a_edge10_Node000008_Node000004"><a xlink:title=" ">
<path fill="none" stroke="#63b8ff" d="M161.616,-98.2691C123.2,-103.757 67.1347,-111.766 38.4316,-115.867"/>
<polygon fill="#63b8ff" stroke="#63b8ff" points="162.542,-101.672 171.946,-96.7934 161.552,-94.7428 162.542,-101.672"/>
</a>
</g>
</g>
<!-- Node9&#45;&gt;Node4 -->
<g id="edge13_Node000009_Node000004" class="edge"><title>Node9&#45;&gt;Node4</title>
<g id="a_edge13_Node000009_Node000004"><a xlink:title=" ">
<path fill="none" stroke="#63b8ff" d="M167.718,-60.8736C129.249,-75.8808 68.2896,-99.6618 38.1293,-111.428"/>
<polygon fill="#63b8ff" stroke="#63b8ff" points="169.411,-63.9705 177.455,-57.0754 166.866,-57.4491 169.411,-63.9705"/>
</a>
</g>
</g>
</g>
</svg>
