<?xml version="1.0" encoding="UTF-8" standalone="no"?>
<!DOCTYPE svg PUBLIC "-//W3C//DTD SVG 1.1//EN"
 "http://www.w3.org/Graphics/SVG/1.1/DTD/svg11.dtd">
<!-- Generated by graphviz version 2.38.0 (20140413.2041)
 -->
<!-- Title: heap_compare_with_iterators Pages: 1 -->
<svg width="559pt" height="46pt"
 viewBox="0.00 0.00 559.00 46.00" xmlns="http://www.w3.org/2000/svg" xmlns:xlink="http://www.w3.org/1999/xlink">
<g id="graph0" class="graph" transform="scale(1 1) rotate(0) translate(4 42)">
<title>heap_compare_with_iterators</title>
<!-- Node1 -->
<g id="Node000001" class="node"><title>Node1</title>
<g id="a_Node000001"><a xlink:title="Porovnání hodnot uzlů haldy určených dvěma iterátory.">
<polygon fill="#999999" stroke="#666666" points="551,-38 408,-38 408,-19 551,-19 551,-38"/>
<text text-anchor="middle" x="479.5" y="-26" font-family="Helvetica,sans-Serif" font-size="10.00">heap_compare_with_iterators</text>
</a>
</g>
</g>
<!-- Node2 -->
<g id="Node000002" class="node"><title>Node2</title>
<g id="a_Node000002"><a xlink:href="heap__sort__with__iterators_8c.html#a7bf828c9c4eb35c2121c3f7d1177d19b" target="_top" xlink:title="Vnitřní a lokální funkce zajišťující vložení hodnoty do zvoleného uzlu haldy, při zachování podmínek ...">
<polygon fill="white" stroke="#666666" points="372,-38 315,-38 315,-19 372,-19 372,-38"/>
<text text-anchor="middle" x="343.5" y="-26" font-family="Helvetica,sans-Serif" font-size="10.00">sift_down</text>
</a>
</g>
</g>
<!-- Node1&#45;&gt;Node2 -->
<g id="edge1_Node000001_Node000002" class="edge"><title>Node1&#45;&gt;Node2</title>
<g id="a_edge1_Node000001_Node000002"><a xlink:title=" ">
<path fill="none" stroke="#63b8ff" d="M397.89,-28.5C388.699,-28.5 379.865,-28.5 372.119,-28.5"/>
<polygon fill="#63b8ff" stroke="#63b8ff" points="397.968,-32.0001 407.968,-28.5 397.968,-25.0001 397.968,-32.0001"/>
</a>
</g>
</g>
<!-- Node3 -->
<g id="Node000003" class="node"><title>Node3</title>
<g id="a_Node000003"><a xlink:href="group___powerful_sorts.html#ga84762e575f9465881e13d17072186ddd" target="_top" xlink:title="Třídění pomocí haldy (Heap Sort) využívající iterátorové API pro přístup k elementům vektoru.">
<polygon fill="white" stroke="#666666" points="196,-38 74,-38 74,-19 196,-19 196,-38"/>
<text text-anchor="middle" x="135" y="-26" font-family="Helvetica,sans-Serif" font-size="10.00">heap_sort_with_iterators</text>
</a>
</g>
</g>
<!-- Node2&#45;&gt;Node3 -->
<g id="edge2_Node000002_Node000003" class="edge"><title>Node2&#45;&gt;Node3</title>
<g id="a_edge2_Node000002_Node000003"><a xlink:title=" ">
<path fill="none" stroke="#63b8ff" d="M304.51,-28.5C274.252,-28.5 231.321,-28.5 196.366,-28.5"/>
<polygon fill="#63b8ff" stroke="#63b8ff" points="304.651,-32.0001 314.65,-28.5 304.65,-25.0001 304.651,-32.0001"/>
</a>
</g>
</g>
<!-- Node5 -->
<g id="Node000005" class="node"><title>Node5</title>
<g id="a_Node000005"><a xlink:href="heap__sort__with__iterators_8c.html#aceaf0618c69440f1e439e224eb6945dc" target="_top" xlink:title="Vnitřní a lokální funkce realizující uspořádání elementů vektoru do haldy.">
<polygon fill="white" stroke="#666666" points="279,-19 232,-19 232,-0 279,-0 279,-19"/>
<text text-anchor="middle" x="255.5" y="-7" font-family="Helvetica,sans-Serif" font-size="10.00">heapify</text>
</a>
</g>
</g>
<!-- Node2&#45;&gt;Node5 -->
<g id="edge4_Node000002_Node000005" class="edge"><title>Node2&#45;&gt;Node5</title>
<g id="a_edge4_Node000002_Node000005"><a xlink:title=" ">
<path fill="none" stroke="#63b8ff" d="M304.81,-20.1732C296.097,-18.2482 287.088,-16.2579 279.245,-14.525"/>
<polygon fill="#63b8ff" stroke="#63b8ff" points="304.296,-23.6439 314.816,-22.3837 305.806,-16.8088 304.296,-23.6439"/>
</a>
</g>
</g>
<!-- Node4 -->
<g id="Node000004" class="node"><title>Node4</title>
<g id="a_Node000004"><a xlink:href="group___main_program.html#ga0ddf1224851353fc92bfbff6f499fa97" target="_top" xlink:title=" ">
<polygon fill="white" stroke="#666666" points="38,-38 0,-38 0,-19 38,-19 38,-38"/>
<text text-anchor="middle" x="19" y="-26" font-family="Helvetica,sans-Serif" font-size="10.00">main</text>
</a>
</g>
</g>
<!-- Node3&#45;&gt;Node4 -->
<g id="edge3_Node000003_Node000004" class="edge"><title>Node3&#45;&gt;Node4</title>
<g id="a_edge3_Node000003_Node000004"><a xlink:title=" ">
<path fill="none" stroke="#63b8ff" d="M63.9621,-28.5C54.4658,-28.5 45.4797,-28.5 38.1365,-28.5"/>
<polygon fill="#63b8ff" stroke="#63b8ff" points="63.9954,-32.0001 73.9954,-28.5 63.9953,-25.0001 63.9954,-32.0001"/>
</a>
</g>
</g>
<!-- Node5&#45;&gt;Node3 -->
<g id="edge5_Node000005_Node000003" class="edge"><title>Node5&#45;&gt;Node3</title>
<g id="a_edge5_Node000005_Node000003"><a xlink:title=" ">
<path fill="none" stroke="#63b8ff" d="M222.001,-14.7108C213.738,-16.0357 204.596,-17.5015 195.448,-18.9683"/>
<polygon fill="#63b8ff" stroke="#63b8ff" points="222.612,-18.1576 231.932,-13.1185 221.504,-11.2459 222.612,-18.1576"/>
</a>
</g>
</g>
</g>
</svg>
