<?xml version="1.0" encoding="UTF-8" standalone="no"?>
<!DOCTYPE svg PUBLIC "-//W3C//DTD SVG 1.1//EN"
 "http://www.w3.org/Graphics/SVG/1.1/DTD/svg11.dtd">
<!-- Generated by graphviz version 2.38.0 (20140413.2041)
 -->
<!-- Title: heap_move_positions Pages: 1 -->
<svg width="463pt" height="84pt"
 viewBox="0.00 0.00 463.00 84.00" xmlns="http://www.w3.org/2000/svg" xmlns:xlink="http://www.w3.org/1999/xlink">
<g id="graph0" class="graph" transform="scale(1 1) rotate(0) translate(4 80)">
<title>heap_move_positions</title>
<!-- Node1 -->
<g id="Node000001" class="node"><title>Node1</title>
<g id="a_Node000001"><a xlink:title="Přesun hodnot mezi uzly haldy.">
<polygon fill="#999999" stroke="#666666" points="455,-76 345,-76 345,-57 455,-57 455,-76"/>
<text text-anchor="middle" x="400" y="-64" font-family="Helvetica,sans-Serif" font-size="10.00">heap_move_positions</text>
</a>
</g>
</g>
<!-- Node2 -->
<g id="Node000002" class="node"><title>Node2</title>
<g id="a_Node000002"><a xlink:href="group___powerful_sorts.html#gaf564949cc194e5feea63d6c2aaa3125a" target="_top" xlink:title="Třídění pomocí haldy (Heap Sort) využívající poziční API pro přístup k elementům vektoru.">
<polygon fill="white" stroke="#666666" points="133,-57 74,-57 74,-38 133,-38 133,-57"/>
<text text-anchor="middle" x="103.5" y="-45" font-family="Helvetica,sans-Serif" font-size="10.00">heap_sort</text>
</a>
</g>
</g>
<!-- Node1&#45;&gt;Node2 -->
<g id="edge1_Node000001_Node000002" class="edge"><title>Node1&#45;&gt;Node2</title>
<g id="a_edge1_Node000001_Node000002"><a xlink:title=" ">
<path fill="none" stroke="#63b8ff" d="M334.623,-69.0457C288.334,-69.9179 224.544,-69.1548 169,-61.5 157.195,-59.873 144.336,-57.2574 133.228,-54.725"/>
<polygon fill="#63b8ff" stroke="#63b8ff" points="334.894,-72.5407 344.815,-68.822 334.74,-65.5424 334.894,-72.5407"/>
</a>
</g>
</g>
<!-- Node4 -->
<g id="Node000004" class="node"><title>Node4</title>
<g id="a_Node000004"><a xlink:href="heap__sort_8c.html#a1572325ec24b4714bb9bbd64229d85d0" target="_top" xlink:title="Vnitřní a lokální funkce zajišťující vložení hodnoty do zvoleného uzlu haldy, při zachování podmínek ...">
<polygon fill="white" stroke="#666666" points="309,-57 252,-57 252,-38 309,-38 309,-57"/>
<text text-anchor="middle" x="280.5" y="-45" font-family="Helvetica,sans-Serif" font-size="10.00">sift_down</text>
</a>
</g>
</g>
<!-- Node1&#45;&gt;Node4 -->
<g id="edge3_Node000001_Node000004" class="edge"><title>Node1&#45;&gt;Node4</title>
<g id="a_edge3_Node000001_Node000004"><a xlink:title=" ">
<path fill="none" stroke="#63b8ff" d="M334.644,-56.0935C325.745,-54.6545 317.019,-53.2434 309.292,-51.9941"/>
<polygon fill="#63b8ff" stroke="#63b8ff" points="334.291,-59.5818 344.721,-57.723 335.408,-52.6715 334.291,-59.5818"/>
</a>
</g>
</g>
<!-- Node3 -->
<g id="Node000003" class="node"><title>Node3</title>
<g id="a_Node000003"><a xlink:href="group___main_program.html#ga0ddf1224851353fc92bfbff6f499fa97" target="_top" xlink:title=" ">
<polygon fill="white" stroke="#666666" points="38,-57 0,-57 0,-38 38,-38 38,-57"/>
<text text-anchor="middle" x="19" y="-45" font-family="Helvetica,sans-Serif" font-size="10.00">main</text>
</a>
</g>
</g>
<!-- Node2&#45;&gt;Node3 -->
<g id="edge2_Node000002_Node000003" class="edge"><title>Node2&#45;&gt;Node3</title>
<g id="a_edge2_Node000002_Node000003"><a xlink:title=" ">
<path fill="none" stroke="#63b8ff" d="M63.5123,-47.5C54.7457,-47.5 45.8424,-47.5 38.3927,-47.5"/>
<polygon fill="#63b8ff" stroke="#63b8ff" points="63.6455,-51.0001 73.6455,-47.5 63.6455,-44.0001 63.6455,-51.0001"/>
</a>
</g>
</g>
<!-- Node4&#45;&gt;Node2 -->
<g id="edge4_Node000004_Node000002" class="edge"><title>Node4&#45;&gt;Node2</title>
<g id="a_edge4_Node000004_Node000002"><a xlink:title=" ">
<path fill="none" stroke="#63b8ff" d="M241.724,-47.5C209.172,-47.5 162.878,-47.5 133.263,-47.5"/>
<polygon fill="#63b8ff" stroke="#63b8ff" points="241.771,-51.0001 251.771,-47.5 241.771,-44.0001 241.771,-51.0001"/>
</a>
</g>
</g>
<!-- Node5 -->
<g id="Node000005" class="node"><title>Node5</title>
<g id="a_Node000005"><a xlink:href="heap__sort_8c.html#aceaf0618c69440f1e439e224eb6945dc" target="_top" xlink:title="Vnitřní a lokální funkce realizující uspořádání elementů vektoru do haldy.">
<polygon fill="white" stroke="#666666" points="216,-19 169,-19 169,-0 216,-0 216,-19"/>
<text text-anchor="middle" x="192.5" y="-7" font-family="Helvetica,sans-Serif" font-size="10.00">heapify</text>
</a>
</g>
</g>
<!-- Node4&#45;&gt;Node5 -->
<g id="edge5_Node000004_Node000005" class="edge"><title>Node4&#45;&gt;Node5</title>
<g id="a_edge5_Node000004_Node000005"><a xlink:title=" ">
<path fill="none" stroke="#63b8ff" d="M248.481,-33.7938C237.45,-28.9199 225.277,-23.5409 215.194,-19.0859"/>
<polygon fill="#63b8ff" stroke="#63b8ff" points="247.237,-37.0707 257.799,-37.911 250.066,-30.6679 247.237,-37.0707"/>
</a>
</g>
</g>
<!-- Node5&#45;&gt;Node2 -->
<g id="edge6_Node000005_Node000002" class="edge"><title>Node5&#45;&gt;Node2</title>
<g id="a_edge6_Node000005_Node000002"><a xlink:title=" ">
<path fill="none" stroke="#63b8ff" d="M160.12,-23.2062C148.961,-28.0801 136.646,-33.4591 126.447,-37.9141"/>
<polygon fill="#63b8ff" stroke="#63b8ff" points="161.783,-26.2991 169.546,-19.089 158.981,-19.8843 161.783,-26.2991"/>
</a>
</g>
</g>
</g>
</svg>
