<?xml version="1.0" encoding="UTF-8" standalone="no"?>
<!DOCTYPE svg PUBLIC "-//W3C//DTD SVG 1.1//EN"
 "http://www.w3.org/Graphics/SVG/1.1/DTD/svg11.dtd">
<!-- Generated by graphviz version 2.38.0 (20140413.2041)
 -->
<!-- Title: heap_iterator_is_valid Pages: 1 -->
<svg width="734pt" height="102pt"
 viewBox="0.00 0.00 734.00 102.00" xmlns="http://www.w3.org/2000/svg" xmlns:xlink="http://www.w3.org/1999/xlink">
<g id="graph0" class="graph" transform="scale(1 1) rotate(0) translate(4 98)">
<title>heap_iterator_is_valid</title>
<!-- Node1 -->
<g id="Node000001" class="node"><title>Node1</title>
<g id="a_Node000001"><a xlink:title="Zjištění platnosti iterátoru.">
<polygon fill="#999999" stroke="#666666" points="726,-57 616,-57 616,-38 726,-38 726,-57"/>
<text text-anchor="middle" x="671" y="-45" font-family="Helvetica,sans-Serif" font-size="10.00">heap_iterator_is_valid</text>
</a>
</g>
</g>
<!-- Node2 -->
<g id="Node000002" class="node"><title>Node2</title>
<g id="a_Node000002"><a xlink:href="group___t_heap.html#ga974f2e71745d48caecb94896f5e9b1c5" target="_top" xlink:title="Posunutí iterátoru na levého následníka.">
<polygon fill="white" stroke="#666666" points="577,-94 473,-94 473,-75 577,-75 577,-94"/>
<text text-anchor="middle" x="525" y="-82" font-family="Helvetica,sans-Serif" font-size="10.00">heap_iterator_to_left</text>
</a>
</g>
</g>
<!-- Node1&#45;&gt;Node2 -->
<g id="edge1_Node000001_Node000002" class="edge"><title>Node1&#45;&gt;Node2</title>
<g id="a_edge1_Node000001_Node000002"><a xlink:title=" ">
<path fill="none" stroke="#63b8ff" d="M623.095,-59.552C603.766,-64.5186 581.678,-70.1938 563.458,-74.8753"/>
<polygon fill="#63b8ff" stroke="#63b8ff" points="624.102,-62.907 632.916,-57.0284 622.36,-56.1272 624.102,-62.907"/>
</a>
</g>
</g>
<!-- Node7 -->
<g id="Node000007" class="node"><title>Node7</title>
<g id="a_Node000007"><a xlink:href="group___t_heap.html#ga30a2c6e90b0e73d8a4f682c4a89accc6" target="_top" xlink:title="Posunutí iterátoru na rodičovský uzel.">
<polygon fill="white" stroke="#666666" points="434,-19 315,-19 315,-0 434,-0 434,-19"/>
<text text-anchor="middle" x="374.5" y="-7" font-family="Helvetica,sans-Serif" font-size="10.00">heap_iterator_to_parent</text>
</a>
</g>
</g>
<!-- Node1&#45;&gt;Node7 -->
<g id="edge7_Node000001_Node000007" class="edge"><title>Node1&#45;&gt;Node7</title>
<g id="a_edge7_Node000001_Node000007"><a xlink:title=" ">
<path fill="none" stroke="#63b8ff" d="M619.76,-35.8239C606.855,-33.1197 592.957,-30.4629 580,-28.5 531.173,-21.1031 475.322,-16.1486 434.338,-13.1588"/>
<polygon fill="#63b8ff" stroke="#63b8ff" points="619.347,-39.315 629.859,-37.9904 620.816,-32.4707 619.347,-39.315"/>
</a>
</g>
</g>
<!-- Node8 -->
<g id="Node000008" class="node"><title>Node8</title>
<g id="a_Node000008"><a xlink:href="group___t_heap.html#ga1b612baefabca4177116615280539790" target="_top" xlink:title="Posunutí iterátoru na pravého následníka.">
<polygon fill="white" stroke="#666666" points="580,-57 470,-57 470,-38 580,-38 580,-57"/>
<text text-anchor="middle" x="525" y="-45" font-family="Helvetica,sans-Serif" font-size="10.00">heap_iterator_to_right</text>
</a>
</g>
</g>
<!-- Node1&#45;&gt;Node8 -->
<g id="edge9_Node000001_Node000008" class="edge"><title>Node1&#45;&gt;Node8</title>
<g id="a_edge9_Node000001_Node000008"><a xlink:title=" ">
<path fill="none" stroke="#63b8ff" d="M605.73,-47.5C597.25,-47.5 588.625,-47.5 580.333,-47.5"/>
<polygon fill="#63b8ff" stroke="#63b8ff" points="605.97,-51.0001 615.97,-47.5 605.97,-44.0001 605.97,-51.0001"/>
</a>
</g>
</g>
<!-- Node3 -->
<g id="Node000003" class="node"><title>Node3</title>
<g id="a_Node000003"><a xlink:href="heap__sort__with__iterators_8c.html#a7bf828c9c4eb35c2121c3f7d1177d19b" target="_top" xlink:title="Vnitřní a lokální funkce zajišťující vložení hodnoty do zvoleného uzlu haldy, při zachování podmínek ...">
<polygon fill="white" stroke="#666666" points="403,-57 346,-57 346,-38 403,-38 403,-57"/>
<text text-anchor="middle" x="374.5" y="-45" font-family="Helvetica,sans-Serif" font-size="10.00">sift_down</text>
</a>
</g>
</g>
<!-- Node2&#45;&gt;Node3 -->
<g id="edge2_Node000002_Node000003" class="edge"><title>Node2&#45;&gt;Node3</title>
<g id="a_edge2_Node000002_Node000003"><a xlink:title=" ">
<path fill="none" stroke="#63b8ff" d="M475.766,-72.4822C451.78,-66.5057 423.647,-59.4961 403.296,-54.4255"/>
<polygon fill="#63b8ff" stroke="#63b8ff" points="475.208,-75.95 485.758,-74.9716 476.9,-69.1577 475.208,-75.95"/>
</a>
</g>
</g>
<!-- Node4 -->
<g id="Node000004" class="node"><title>Node4</title>
<g id="a_Node000004"><a xlink:href="group___powerful_sorts.html#ga84762e575f9465881e13d17072186ddd" target="_top" xlink:title="Třídění pomocí haldy (Heap Sort) využívající iterátorové API pro přístup k elementům vektoru.">
<polygon fill="white" stroke="#666666" points="196,-38 74,-38 74,-19 196,-19 196,-38"/>
<text text-anchor="middle" x="135" y="-26" font-family="Helvetica,sans-Serif" font-size="10.00">heap_sort_with_iterators</text>
</a>
</g>
</g>
<!-- Node3&#45;&gt;Node4 -->
<g id="edge3_Node000003_Node000004" class="edge"><title>Node3&#45;&gt;Node4</title>
<g id="a_edge3_Node000003_Node000004"><a xlink:title=" ">
<path fill="none" stroke="#63b8ff" d="M335.785,-44.4828C298.266,-41.4813 240.112,-36.829 196.202,-33.3162"/>
<polygon fill="#63b8ff" stroke="#63b8ff" points="335.544,-47.9746 345.791,-45.2833 336.102,-40.9969 335.544,-47.9746"/>
</a>
</g>
</g>
<!-- Node6 -->
<g id="Node000006" class="node"><title>Node6</title>
<g id="a_Node000006"><a xlink:href="heap__sort__with__iterators_8c.html#aceaf0618c69440f1e439e224eb6945dc" target="_top" xlink:title="Vnitřní a lokální funkce realizující uspořádání elementů vektoru do haldy.">
<polygon fill="white" stroke="#666666" points="279,-19 232,-19 232,-0 279,-0 279,-19"/>
<text text-anchor="middle" x="255.5" y="-7" font-family="Helvetica,sans-Serif" font-size="10.00">heapify</text>
</a>
</g>
</g>
<!-- Node3&#45;&gt;Node6 -->
<g id="edge5_Node000003_Node000006" class="edge"><title>Node3&#45;&gt;Node6</title>
<g id="a_edge5_Node000003_Node000006"><a xlink:title=" ">
<path fill="none" stroke="#63b8ff" d="M336.081,-35.3467C317.412,-29.2835 295.437,-22.1464 279.315,-16.9099"/>
<polygon fill="#63b8ff" stroke="#63b8ff" points="335.181,-38.7343 345.773,-38.4945 337.343,-32.0766 335.181,-38.7343"/>
</a>
</g>
</g>
<!-- Node5 -->
<g id="Node000005" class="node"><title>Node5</title>
<g id="a_Node000005"><a xlink:href="group___main_program.html#ga0ddf1224851353fc92bfbff6f499fa97" target="_top" xlink:title=" ">
<polygon fill="white" stroke="#666666" points="38,-38 0,-38 0,-19 38,-19 38,-38"/>
<text text-anchor="middle" x="19" y="-26" font-family="Helvetica,sans-Serif" font-size="10.00">main</text>
</a>
</g>
</g>
<!-- Node4&#45;&gt;Node5 -->
<g id="edge4_Node000004_Node000005" class="edge"><title>Node4&#45;&gt;Node5</title>
<g id="a_edge4_Node000004_Node000005"><a xlink:title=" ">
<path fill="none" stroke="#63b8ff" d="M63.9621,-28.5C54.4658,-28.5 45.4797,-28.5 38.1365,-28.5"/>
<polygon fill="#63b8ff" stroke="#63b8ff" points="63.9954,-32.0001 73.9954,-28.5 63.9953,-25.0001 63.9954,-32.0001"/>
</a>
</g>
</g>
<!-- Node6&#45;&gt;Node4 -->
<g id="edge6_Node000006_Node000004" class="edge"><title>Node6&#45;&gt;Node4</title>
<g id="a_edge6_Node000006_Node000004"><a xlink:title=" ">
<path fill="none" stroke="#63b8ff" d="M222.001,-14.7108C213.738,-16.0357 204.596,-17.5015 195.448,-18.9683"/>
<polygon fill="#63b8ff" stroke="#63b8ff" points="222.612,-18.1576 231.932,-13.1185 221.504,-11.2459 222.612,-18.1576"/>
</a>
</g>
</g>
<!-- Node7&#45;&gt;Node6 -->
<g id="edge8_Node000007_Node000006" class="edge"><title>Node7&#45;&gt;Node6</title>
<g id="a_edge8_Node000007_Node000006"><a xlink:title=" ">
<path fill="none" stroke="#63b8ff" d="M304.639,-9.5C295.492,-9.5 286.694,-9.5 279.179,-9.5"/>
<polygon fill="#63b8ff" stroke="#63b8ff" points="304.657,-13.0001 314.657,-9.5 304.657,-6.0001 304.657,-13.0001"/>
</a>
</g>
</g>
<!-- Node8&#45;&gt;Node3 -->
<g id="edge10_Node000008_Node000003" class="edge"><title>Node8&#45;&gt;Node3</title>
<g id="a_edge10_Node000008_Node000003"><a xlink:title=" ">
<path fill="none" stroke="#63b8ff" d="M459.699,-47.5C439.835,-47.5 419.004,-47.5 403.031,-47.5"/>
<polygon fill="#63b8ff" stroke="#63b8ff" points="459.968,-51.0001 469.968,-47.5 459.968,-44.0001 459.968,-51.0001"/>
</a>
</g>
</g>
</g>
</svg>
