<?xml version="1.0" encoding="UTF-8" standalone="no"?>
<!DOCTYPE svg PUBLIC "-//W3C//DTD SVG 1.1//EN"
 "http://www.w3.org/Graphics/SVG/1.1/DTD/svg11.dtd">
<!-- Generated by graphviz version 2.38.0 (20140413.2041)
 -->
<!-- Title: heap_sort Pages: 1 -->
<svg width="1024pt" height="298pt"
 viewBox="0.00 0.00 1024.00 298.00" xmlns="http://www.w3.org/2000/svg" xmlns:xlink="http://www.w3.org/1999/xlink">
<g id="graph0" class="graph" transform="scale(1 1) rotate(0) translate(4 294)">
<title>heap_sort</title>
<!-- Node1 -->
<g id="Node000001" class="node"><title>Node1</title>
<g id="a_Node000001"><a xlink:title="Třídění pomocí haldy (Heap Sort) využívající poziční API pro přístup k elementům vektoru.">
<polygon fill="#999999" stroke="#666666" points="59,-152 0,-152 0,-133 59,-133 59,-152"/>
<text text-anchor="middle" x="29.5" y="-140" font-family="Helvetica,sans-Serif" font-size="10.00">heap_sort</text>
</a>
</g>
</g>
<!-- Node2 -->
<g id="Node000002" class="node"><title>Node2</title>
<g id="a_Node000002"><a xlink:href="group___t_heap.html#ga5c6b9b9c85c8d3d56ae9d8b7c9efcb0f" target="_top" xlink:title="Vytvoření Heap pro celý vektor.">
<polygon fill="white" stroke="#666666" points="186,-284 116,-284 116,-265 186,-265 186,-284"/>
<text text-anchor="middle" x="151" y="-272" font-family="Helvetica,sans-Serif" font-size="10.00">heap_create</text>
</a>
</g>
</g>
<!-- Node1&#45;&gt;Node2 -->
<g id="edge1_Node000001_Node000002" class="edge"><title>Node1&#45;&gt;Node2</title>
<g id="a_edge1_Node000001_Node000002"><a xlink:title=" ">
<path fill="none" stroke="#63b8ff" d="M33.2552,-152.015C40.0419,-173.78 59.6353,-227.543 95,-256.5 98.3669,-259.257 102.169,-261.596 106.162,-263.58"/>
<polygon fill="#63b8ff" stroke="#63b8ff" points="105.138,-266.946 115.713,-267.594 107.851,-260.493 105.138,-266.946"/>
</a>
</g>
</g>
<!-- Node3 -->
<g id="Node000003" class="node"><title>Node3</title>
<g id="a_Node000003"><a xlink:href="group___t_heap.html#ga949d1c5fea06774f24e6d63f13cadb56" target="_top" xlink:title="Dekrementace počtu uzlů haldy.">
<polygon fill="white" stroke="#666666" points="207,-247 95,-247 95,-228 207,-228 207,-247"/>
<text text-anchor="middle" x="151" y="-235" font-family="Helvetica,sans-Serif" font-size="10.00">heap_decrement_size</text>
</a>
</g>
</g>
<!-- Node1&#45;&gt;Node3 -->
<g id="edge2_Node000001_Node000003" class="edge"><title>Node1&#45;&gt;Node3</title>
<g id="a_edge2_Node000001_Node000003"><a xlink:title=" ">
<path fill="none" stroke="#63b8ff" d="M37.3796,-152.439C48.1629,-167.399 70.3743,-195.83 95,-213.5 100.333,-217.326 106.372,-220.723 112.446,-223.669"/>
<polygon fill="#63b8ff" stroke="#63b8ff" points="111.369,-227.022 121.925,-227.927 114.237,-220.637 111.369,-227.022"/>
</a>
</g>
</g>
<!-- Node4 -->
<g id="Node000004" class="node"><title>Node4</title>
<g id="a_Node000004"><a xlink:href="group___t_heap.html#ga5189745928eb05b31e28d37a79d9017f" target="_top" xlink:title="Přesun hodnot mezi uzly haldy.">
<polygon fill="white" stroke="#666666" points="500.5,-290 390.5,-290 390.5,-271 500.5,-271 500.5,-290"/>
<text text-anchor="middle" x="445.5" y="-278" font-family="Helvetica,sans-Serif" font-size="10.00">heap_move_positions</text>
</a>
</g>
</g>
<!-- Node1&#45;&gt;Node4 -->
<g id="edge3_Node000001_Node000004" class="edge"><title>Node1&#45;&gt;Node4</title>
<g id="a_edge3_Node000001_Node000004"><a xlink:title=" ">
<path fill="none" stroke="#63b8ff" d="M58.437,-152.034C69.7827,-155.904 83.0168,-160.418 95,-164.5 222.984,-208.102 254.088,-221.723 383,-262.5 388.776,-264.327 394.877,-266.191 400.904,-267.994"/>
<polygon fill="#63b8ff" stroke="#63b8ff" points="400.324,-271.472 410.906,-270.953 402.31,-264.76 400.324,-271.472"/>
</a>
</g>
</g>
<!-- Node7 -->
<g id="Node000007" class="node"><title>Node7</title>
<g id="a_Node000007"><a xlink:href="group___t_heap.html#gafaf85f5864f8cc9b2f6203a99e41ccc8" target="_top" xlink:title="Přečtení počtu uzlů haldy.">
<polygon fill="white" stroke="#666666" points="476,-56 415,-56 415,-37 476,-37 476,-56"/>
<text text-anchor="middle" x="445.5" y="-44" font-family="Helvetica,sans-Serif" font-size="10.00">heap_size</text>
</a>
</g>
</g>
<!-- Node1&#45;&gt;Node7 -->
<g id="edge6_Node000001_Node000007" class="edge"><title>Node1&#45;&gt;Node7</title>
<g id="a_edge6_Node000001_Node000007"><a xlink:title=" ">
<path fill="none" stroke="#63b8ff" d="M59.1693,-141.615C127.341,-139.109 297.142,-130.376 347,-104.5 368.229,-93.4822 362.753,-77.2321 383,-64.5 389.754,-60.2527 397.551,-56.9724 405.276,-54.4507"/>
<polygon fill="#63b8ff" stroke="#63b8ff" points="406.31,-57.795 414.938,-51.6465 404.359,-51.0724 406.31,-57.795"/>
</a>
</g>
</g>
<!-- Node8 -->
<g id="Node000008" class="node"><title>Node8</title>
<g id="a_Node000008"><a xlink:href="group___t_heap.html#gaf0369d757c7569adb9ddb0d5f3530c07" target="_top" xlink:title="Přečtení hodnoty z uzlu haldy dle požadované pozice.">
<polygon fill="white" stroke="#666666" points="327.5,-19 262.5,-19 262.5,-0 327.5,-0 327.5,-19"/>
<text text-anchor="middle" x="295" y="-7" font-family="Helvetica,sans-Serif" font-size="10.00">heap_value</text>
</a>
</g>
</g>
<!-- Node1&#45;&gt;Node8 -->
<g id="edge7_Node000001_Node000008" class="edge"><title>Node1&#45;&gt;Node8</title>
<g id="a_edge7_Node000001_Node000008"><a xlink:title=" ">
<path fill="none" stroke="#63b8ff" d="M35.9484,-132.996C45.6914,-116.858 67.6621,-84.1393 95,-66.5 120.991,-49.7297 202.007,-29.7401 252.295,-18.4435"/>
<polygon fill="#63b8ff" stroke="#63b8ff" points="253.221,-21.8231 262.224,-16.2363 251.702,-14.99 253.221,-21.8231"/>
</a>
</g>
</g>
<!-- Node11 -->
<g id="Node000011" class="node"><title>Node11</title>
<g id="a_Node000011"><a xlink:href="heap__sort_8c.html#aceaf0618c69440f1e439e224eb6945dc" target="_top" xlink:title="Vnitřní a lokální funkce realizující uspořádání elementů vektoru do haldy.">
<polygon fill="white" stroke="#666666" points="174.5,-95 127.5,-95 127.5,-76 174.5,-76 174.5,-95"/>
<text text-anchor="middle" x="151" y="-83" font-family="Helvetica,sans-Serif" font-size="10.00">heapify</text>
</a>
</g>
</g>
<!-- Node1&#45;&gt;Node11 -->
<g id="edge10_Node000001_Node000011" class="edge"><title>Node1&#45;&gt;Node11</title>
<g id="a_edge10_Node000001_Node000011"><a xlink:title=" ">
<path fill="none" stroke="#63b8ff" d="M48.4243,-132.955C61.2859,-126.198 79.0839,-117.035 95,-109.5 102.415,-105.989 110.473,-102.367 118.076,-99.035"/>
<polygon fill="#63b8ff" stroke="#63b8ff" points="119.6,-102.189 127.381,-94.9988 116.814,-95.7673 119.6,-102.189"/>
</a>
</g>
</g>
<!-- Node13 -->
<g id="Node000013" class="node"><title>Node13</title>
<g id="a_Node000013"><a xlink:href="heap__sort_8c.html#a1572325ec24b4714bb9bbd64229d85d0" target="_top" xlink:title="Vnitřní a lokální funkce zajišťující vložení hodnoty do zvoleného uzlu haldy, při zachování podmínek ...">
<polygon fill="white" stroke="#666666" points="323.5,-171 266.5,-171 266.5,-152 323.5,-152 323.5,-171"/>
<text text-anchor="middle" x="295" y="-159" font-family="Helvetica,sans-Serif" font-size="10.00">sift_down</text>
</a>
</g>
</g>
<!-- Node1&#45;&gt;Node13 -->
<g id="edge30_Node000001_Node000013" class="edge"><title>Node1&#45;&gt;Node13</title>
<g id="a_edge30_Node000001_Node000013"><a xlink:title=" ">
<path fill="none" stroke="#63b8ff" d="M59.2007,-144.57C106.969,-148.014 202.788,-154.923 256.068,-158.765"/>
<polygon fill="#63b8ff" stroke="#63b8ff" points="255.904,-162.262 266.13,-159.49 256.408,-155.28 255.904,-162.262"/>
</a>
</g>
</g>
<!-- Node26 -->
<g id="Node000026" class="node"><title>Node26</title>
<g id="a_Node000026"><a xlink:href="group___t_vector.html#ga2502e6ec116dbac5e49f5b62b07dc898" target="_top" xlink:title="Přečtení počtu elementů vektoru.">
<polygon fill="white" stroke="#666666" points="183.5,-19 118.5,-19 118.5,-0 183.5,-0 183.5,-19"/>
<text text-anchor="middle" x="151" y="-7" font-family="Helvetica,sans-Serif" font-size="10.00">vector_size</text>
</a>
</g>
</g>
<!-- Node1&#45;&gt;Node26 -->
<g id="edge31_Node000001_Node000026" class="edge"><title>Node1&#45;&gt;Node26</title>
<g id="a_edge31_Node000001_Node000026"><a xlink:title=" ">
<path fill="none" stroke="#63b8ff" d="M33.9094,-132.691C41.6359,-111.771 62.3824,-62.3373 95,-33.5 99.4001,-29.6098 104.53,-26.2691 109.854,-23.4246"/>
<polygon fill="#63b8ff" stroke="#63b8ff" points="111.392,-26.5686 118.903,-19.0963 108.372,-20.2537 111.392,-26.5686"/>
</a>
</g>
</g>
<!-- Node5 -->
<g id="Node000005" class="node"><title>Node5</title>
<g id="a_Node000005"><a xlink:href="group__sortable___t_vector.html#ga16623c06371077674f5d4d31e38e42a4" target="_top" xlink:title="Přesun hodnoty elementu vektoru.">
<polygon fill="white" stroke="#666666" points="665.5,-290 551.5,-290 551.5,-271 665.5,-271 665.5,-290"/>
<text text-anchor="middle" x="608.5" y="-278" font-family="Helvetica,sans-Serif" font-size="10.00">vector_move_positions</text>
</a>
</g>
</g>
<!-- Node4&#45;&gt;Node5 -->
<g id="edge4_Node000004_Node000005" class="edge"><title>Node4&#45;&gt;Node5</title>
<g id="a_edge4_Node000004_Node000005"><a xlink:title=" ">
<path fill="none" stroke="#63b8ff" d="M500.559,-280.5C513.589,-280.5 527.659,-280.5 541.179,-280.5"/>
<polygon fill="#63b8ff" stroke="#63b8ff" points="541.383,-284 551.383,-280.5 541.383,-277 541.383,-284"/>
</a>
</g>
</g>
<!-- Node6 -->
<g id="Node000006" class="node"><title>Node6</title>
<g id="a_Node000006"><a xlink:href="_t_vector_8c.html#a0e3151269c65b7033ddecb4c3aee6566" target="_top" xlink:title=" ">
<polygon fill="white" stroke="#666666" points="844,-290 709,-290 709,-271 844,-271 844,-290"/>
<text text-anchor="middle" x="776.5" y="-278" font-family="Helvetica,sans-Serif" font-size="10.00">vector_fast_move_positions</text>
</a>
</g>
</g>
<!-- Node5&#45;&gt;Node6 -->
<g id="edge5_Node000005_Node000006" class="edge"><title>Node5&#45;&gt;Node6</title>
<g id="a_edge5_Node000005_Node000006"><a xlink:title=" ">
<path fill="none" stroke="#63b8ff" d="M665.7,-280.5C676.286,-280.5 687.524,-280.5 698.615,-280.5"/>
<polygon fill="#63b8ff" stroke="#63b8ff" points="698.736,-284 708.736,-280.5 698.736,-277 698.736,-284"/>
</a>
</g>
</g>
<!-- Node9 -->
<g id="Node000009" class="node"><title>Node9</title>
<g id="a_Node000009"><a xlink:href="group___t_vector.html#ga2b08236d9825632cd96bcc89faed929c" target="_top" xlink:title="Přečtení hodnoty elementu z vektoru na požadované pozici.">
<polygon fill="white" stroke="#666666" points="480,-19 411,-19 411,-0 480,-0 480,-19"/>
<text text-anchor="middle" x="445.5" y="-7" font-family="Helvetica,sans-Serif" font-size="10.00">vector_value</text>
</a>
</g>
</g>
<!-- Node8&#45;&gt;Node9 -->
<g id="edge8_Node000008_Node000009" class="edge"><title>Node8&#45;&gt;Node9</title>
<g id="a_edge8_Node000008_Node000009"><a xlink:title=" ">
<path fill="none" stroke="#63b8ff" d="M327.857,-9.5C349.163,-9.5 377.473,-9.5 400.867,-9.5"/>
<polygon fill="#63b8ff" stroke="#63b8ff" points="400.891,-13.0001 410.891,-9.5 400.891,-6.0001 400.891,-13.0001"/>
</a>
</g>
</g>
<!-- Node10 -->
<g id="Node000010" class="node"><title>Node10</title>
<g id="a_Node000010"><a xlink:href="_t_vector_8c.html#a0fe5f1145e51f154b5470d640c5d682c" target="_top" xlink:title=" ">
<polygon fill="white" stroke="#666666" points="653.5,-19 563.5,-19 563.5,-0 653.5,-0 653.5,-19"/>
<text text-anchor="middle" x="608.5" y="-7" font-family="Helvetica,sans-Serif" font-size="10.00">vector_fast_value</text>
</a>
</g>
</g>
<!-- Node9&#45;&gt;Node10 -->
<g id="edge9_Node000009_Node000010" class="edge"><title>Node9&#45;&gt;Node10</title>
<g id="a_edge9_Node000009_Node000010"><a xlink:title=" ">
<path fill="none" stroke="#63b8ff" d="M480.251,-9.5C501.39,-9.5 529.11,-9.5 553.28,-9.5"/>
<polygon fill="#63b8ff" stroke="#63b8ff" points="553.391,-13.0001 563.391,-9.5 553.391,-6.0001 553.391,-13.0001"/>
</a>
</g>
</g>
<!-- Node11&#45;&gt;Node7 -->
<g id="edge12_Node000011_Node000007" class="edge"><title>Node11&#45;&gt;Node7</title>
<g id="a_edge12_Node000011_Node000007"><a xlink:title=" ">
<path fill="none" stroke="#63b8ff" d="M174.69,-80.0583C193.026,-75.8315 219.55,-70.1013 243,-66.5 298.778,-57.9339 363.834,-52.2467 404.6,-49.1961"/>
<polygon fill="#63b8ff" stroke="#63b8ff" points="404.954,-52.6796 414.672,-48.4592 404.443,-45.6983 404.954,-52.6796"/>
</a>
</g>
</g>
<!-- Node11&#45;&gt;Node8 -->
<g id="edge13_Node000011_Node000008" class="edge"><title>Node11&#45;&gt;Node8</title>
<g id="a_edge13_Node000011_Node000008"><a xlink:title=" ">
<path fill="none" stroke="#63b8ff" d="M174.57,-77.14C184.767,-72.9909 196.79,-67.568 207,-61.5 224.425,-51.1438 225.724,-44.1024 243,-33.5 248.884,-29.8891 255.398,-26.4457 261.748,-23.3518"/>
<polygon fill="#63b8ff" stroke="#63b8ff" points="263.272,-26.5029 270.841,-19.09 260.301,-20.1645 263.272,-26.5029"/>
</a>
</g>
</g>
<!-- Node12 -->
<g id="Node000012" class="node"><title>Node12</title>
<g id="a_Node000012"><a xlink:href="group___t_heap.html#ga397a260a81bbd6910ca1464638722510" target="_top" xlink:title="Vypočte pozici rodičovského uzlu.">
<polygon fill="white" stroke="#666666" points="347,-95 243,-95 243,-76 347,-76 347,-95"/>
<text text-anchor="middle" x="295" y="-83" font-family="Helvetica,sans-Serif" font-size="10.00">heap_pos_to_parent</text>
</a>
</g>
</g>
<!-- Node11&#45;&gt;Node12 -->
<g id="edge11_Node000011_Node000012" class="edge"><title>Node11&#45;&gt;Node12</title>
<g id="a_edge11_Node000011_Node000012"><a xlink:title=" ">
<path fill="none" stroke="#63b8ff" d="M174.5,-85.5C190.227,-85.5 212.034,-85.5 232.719,-85.5"/>
<polygon fill="#63b8ff" stroke="#63b8ff" points="232.752,-89.0001 242.752,-85.5 232.752,-82.0001 232.752,-89.0001"/>
</a>
</g>
</g>
<!-- Node11&#45;&gt;Node13 -->
<g id="edge14_Node000011_Node000013" class="edge"><title>Node11&#45;&gt;Node13</title>
<g id="a_edge14_Node000011_Node000013"><a xlink:title=" ">
<path fill="none" stroke="#63b8ff" d="M169.984,-95.1255C194.525,-108.26 238.697,-131.901 267.162,-147.136"/>
<polygon fill="#63b8ff" stroke="#63b8ff" points="265.693,-150.32 276.162,-151.953 268.997,-144.148 265.693,-150.32"/>
</a>
</g>
</g>
<!-- Node13&#45;&gt;Node4 -->
<g id="edge23_Node000013_Node000004" class="edge"><title>Node13&#45;&gt;Node4</title>
<g id="a_edge23_Node000013_Node000004"><a xlink:title=" ">
<path fill="none" stroke="#63b8ff" d="M323.617,-170.345C331.902,-174.022 340.504,-178.988 347,-185.5 373.679,-212.246 354.328,-237.901 383,-262.5 384.364,-263.67 385.801,-264.765 387.296,-265.788"/>
<polygon fill="#63b8ff" stroke="#63b8ff" points="385.961,-269.053 396.393,-270.905 389.393,-262.952 385.961,-269.053"/>
</a>
</g>
</g>
<!-- Node13&#45;&gt;Node7 -->
<g id="edge29_Node000013_Node000007" class="edge"><title>Node13&#45;&gt;Node7</title>
<g id="a_edge29_Node000013_Node000007"><a xlink:title=" ">
<path fill="none" stroke="#63b8ff" d="M323.536,-152.573C331.817,-148.892 340.436,-143.944 347,-137.5 372.813,-112.156 355.301,-87.7683 383,-64.5 389.359,-59.1583 397.238,-55.4014 405.211,-52.7592"/>
<polygon fill="#63b8ff" stroke="#63b8ff" points="406.196,-56.118 414.887,-50.0574 404.314,-49.3759 406.196,-56.118"/>
</a>
</g>
</g>
<!-- Node14 -->
<g id="Node000014" class="node"><title>Node14</title>
<g id="a_Node000014"><a xlink:href="group___t_heap.html#ga3651a742b0492e167a3be5db0183f896" target="_top" xlink:title="Porovnání mezi hodnotou v uzlu haldy a hodnotou typu HeapElement.">
<polygon fill="white" stroke="#666666" points="505,-141.5 386,-141.5 386,-111.5 505,-111.5 505,-141.5"/>
<text text-anchor="start" x="394" y="-129.5" font-family="Helvetica,sans-Serif" font-size="10.00">heap_compare_position</text>
<text text-anchor="middle" x="445.5" y="-118.5" font-family="Helvetica,sans-Serif" font-size="10.00">_value</text>
</a>
</g>
</g>
<!-- Node13&#45;&gt;Node14 -->
<g id="edge15_Node000013_Node000014" class="edge"><title>Node13&#45;&gt;Node14</title>
<g id="a_edge15_Node000013_Node000014"><a xlink:title=" ">
<path fill="none" stroke="#63b8ff" d="M323.584,-154.999C338.443,-151.497 357.497,-147.006 376.062,-142.63"/>
<polygon fill="#63b8ff" stroke="#63b8ff" points="377.068,-145.989 385.998,-140.288 375.462,-139.176 377.068,-145.989"/>
</a>
</g>
</g>
<!-- Node18 -->
<g id="Node000018" class="node"><title>Node18</title>
<g id="a_Node000018"><a xlink:href="group___t_heap.html#gad5c7d7699f71a4c30740204aba84f100" target="_top" xlink:title="Porovnání hodnot uzlů haldy.">
<polygon fill="white" stroke="#666666" points="508,-93 383,-93 383,-74 508,-74 508,-93"/>
<text text-anchor="middle" x="445.5" y="-81" font-family="Helvetica,sans-Serif" font-size="10.00">heap_compare_positions</text>
</a>
</g>
</g>
<!-- Node13&#45;&gt;Node18 -->
<g id="edge19_Node000013_Node000018" class="edge"><title>Node13&#45;&gt;Node18</title>
<g id="a_edge19_Node000013_Node000018"><a xlink:title=" ">
<path fill="none" stroke="#63b8ff" d="M320.512,-151.947C329.222,-148.048 338.874,-143.126 347,-137.5 365.347,-124.797 363.808,-113.886 383,-102.5 386.622,-100.351 390.511,-98.423 394.509,-96.6975"/>
<polygon fill="#63b8ff" stroke="#63b8ff" points="395.905,-99.9099 403.962,-93.0299 393.373,-93.3839 395.905,-99.9099"/>
</a>
</g>
</g>
<!-- Node21 -->
<g id="Node000021" class="node"><title>Node21</title>
<g id="a_Node000021"><a xlink:href="group___t_heap.html#gaeb9b613cb82e8946a4c37bb1145780f4" target="_top" xlink:title="Vypočte pozici uzlu levého následníka.">
<polygon fill="white" stroke="#666666" points="490.5,-253 400.5,-253 400.5,-234 490.5,-234 490.5,-253"/>
<text text-anchor="middle" x="445.5" y="-241" font-family="Helvetica,sans-Serif" font-size="10.00">heap_pos_to_left</text>
</a>
</g>
</g>
<!-- Node13&#45;&gt;Node21 -->
<g id="edge24_Node000013_Node000021" class="edge"><title>Node13&#45;&gt;Node21</title>
<g id="a_edge24_Node000013_Node000021"><a xlink:title=" ">
<path fill="none" stroke="#63b8ff" d="M321.503,-171.106C330.024,-174.924 339.302,-179.781 347,-185.5 366.2,-199.763 362.753,-212.768 383,-225.5 385.6,-227.135 388.355,-228.627 391.2,-229.987"/>
<polygon fill="#63b8ff" stroke="#63b8ff" points="389.945,-233.256 400.52,-233.899 392.654,-226.802 389.945,-233.256"/>
</a>
</g>
</g>
<!-- Node22 -->
<g id="Node000022" class="node"><title>Node22</title>
<g id="a_Node000022"><a xlink:href="group___t_heap.html#ga1272b4f692f5ec34abaeecde82899bfb" target="_top" xlink:title="Vypočte pozici uzlu pravého následníka.">
<polygon fill="white" stroke="#666666" points="493.5,-216 397.5,-216 397.5,-197 493.5,-197 493.5,-216"/>
<text text-anchor="middle" x="445.5" y="-204" font-family="Helvetica,sans-Serif" font-size="10.00">heap_pos_to_right</text>
</a>
</g>
</g>
<!-- Node13&#45;&gt;Node22 -->
<g id="edge25_Node000013_Node000022" class="edge"><title>Node13&#45;&gt;Node22</title>
<g id="a_edge25_Node000013_Node000022"><a xlink:title=" ">
<path fill="none" stroke="#63b8ff" d="M323.784,-170.248C340.848,-175.59 363.164,-182.52 383,-188.5 389.081,-190.333 395.509,-192.244 401.826,-194.107"/>
<polygon fill="#63b8ff" stroke="#63b8ff" points="401.015,-197.517 411.596,-196.976 402.988,-190.8 401.015,-197.517"/>
</a>
</g>
</g>
<!-- Node23 -->
<g id="Node000023" class="node"><title>Node23</title>
<g id="a_Node000023"><a xlink:href="group___t_heap.html#gac522fe67b5a330d6289f4566a2f1aff4" target="_top" xlink:title="Zapsání hodnoty do uzlu haldy na požadovanou pozici.">
<polygon fill="white" stroke="#666666" points="487,-179 404,-179 404,-160 487,-160 487,-179"/>
<text text-anchor="middle" x="445.5" y="-167" font-family="Helvetica,sans-Serif" font-size="10.00">heap_set_value</text>
</a>
</g>
</g>
<!-- Node13&#45;&gt;Node23 -->
<g id="edge26_Node000013_Node000023" class="edge"><title>Node13&#45;&gt;Node23</title>
<g id="a_edge26_Node000013_Node000023"><a xlink:title=" ">
<path fill="none" stroke="#63b8ff" d="M323.584,-162.986C343.238,-164.045 370.229,-165.499 393.724,-166.765"/>
<polygon fill="#63b8ff" stroke="#63b8ff" points="393.716,-170.269 403.89,-167.312 394.093,-163.279 393.716,-170.269"/>
</a>
</g>
</g>
<!-- Node15 -->
<g id="Node000015" class="node"><title>Node15</title>
<g id="a_Node000015"><a xlink:href="group__sortable___t_vector.html#ga09e150aa4cdd8faabf43474ab1dbe454" target="_top" xlink:title="Porovnání mezi hodnotou elementu vektoru a hodnotou typu VectorElement.">
<polygon fill="white" stroke="#666666" points="670.5,-141.5 546.5,-141.5 546.5,-111.5 670.5,-111.5 670.5,-141.5"/>
<text text-anchor="start" x="554.5" y="-129.5" font-family="Helvetica,sans-Serif" font-size="10.00">vector_compare_position</text>
<text text-anchor="middle" x="608.5" y="-118.5" font-family="Helvetica,sans-Serif" font-size="10.00">_value</text>
</a>
</g>
</g>
<!-- Node14&#45;&gt;Node15 -->
<g id="edge16_Node000014_Node000015" class="edge"><title>Node14&#45;&gt;Node15</title>
<g id="a_edge16_Node000014_Node000015"><a xlink:title=" ">
<path fill="none" stroke="#63b8ff" d="M505.08,-126.5C515.128,-126.5 525.668,-126.5 536.008,-126.5"/>
<polygon fill="#63b8ff" stroke="#63b8ff" points="536.255,-130 546.255,-126.5 536.255,-123 536.255,-130"/>
</a>
</g>
</g>
<!-- Node16 -->
<g id="Node000016" class="node"><title>Node16</title>
<g id="a_Node000016"><a xlink:href="_t_vector_8c.html#a8254190a2b4fe570173cc77dba0ee7a4" target="_top" xlink:title=" ">
<polygon fill="white" stroke="#666666" points="829.5,-141.5 723.5,-141.5 723.5,-111.5 829.5,-111.5 829.5,-141.5"/>
<text text-anchor="start" x="731.5" y="-129.5" font-family="Helvetica,sans-Serif" font-size="10.00">vector_fast_compare</text>
<text text-anchor="middle" x="776.5" y="-118.5" font-family="Helvetica,sans-Serif" font-size="10.00">_position_value</text>
</a>
</g>
</g>
<!-- Node15&#45;&gt;Node16 -->
<g id="edge17_Node000015_Node000016" class="edge"><title>Node15&#45;&gt;Node16</title>
<g id="a_edge17_Node000015_Node000016"><a xlink:title=" ">
<path fill="none" stroke="#63b8ff" d="M670.841,-126.5C684.603,-126.5 699.22,-126.5 713.029,-126.5"/>
<polygon fill="#63b8ff" stroke="#63b8ff" points="713.403,-130 723.403,-126.5 713.403,-123 713.403,-130"/>
</a>
</g>
</g>
<!-- Node17 -->
<g id="Node000017" class="node"><title>Node17</title>
<g id="a_Node000017"><a xlink:href="group___t_vector_element.html#ga82e527836fce12c93af896f65e9f701d" target="_top" xlink:title="Porovnání dvou elementů">
<polygon fill="white" stroke="#666666" points="1016,-112 880,-112 880,-93 1016,-93 1016,-112"/>
<text text-anchor="middle" x="948" y="-100" font-family="Helvetica,sans-Serif" font-size="10.00">vector_element_comparator</text>
</a>
</g>
</g>
<!-- Node16&#45;&gt;Node17 -->
<g id="edge18_Node000016_Node000017" class="edge"><title>Node16&#45;&gt;Node17</title>
<g id="a_edge18_Node000016_Node000017"><a xlink:title=" ">
<path fill="none" stroke="#63b8ff" d="M829.739,-119.103C842.373,-117.314 856.144,-115.365 869.662,-113.451"/>
<polygon fill="#63b8ff" stroke="#63b8ff" points="870.516,-116.865 879.926,-111.997 869.534,-109.934 870.516,-116.865"/>
</a>
</g>
</g>
<!-- Node19 -->
<g id="Node000019" class="node"><title>Node19</title>
<g id="a_Node000019"><a xlink:href="group__sortable___t_vector.html#gaedaf9c79afa345e5e71e5c66ab25fa26" target="_top" xlink:title="Porovnání hodnot elementů vektorů">
<polygon fill="white" stroke="#666666" points="673,-90 544,-90 544,-71 673,-71 673,-90"/>
<text text-anchor="middle" x="608.5" y="-78" font-family="Helvetica,sans-Serif" font-size="10.00">vector_compare_positions</text>
</a>
</g>
</g>
<!-- Node18&#45;&gt;Node19 -->
<g id="edge20_Node000018_Node000019" class="edge"><title>Node18&#45;&gt;Node19</title>
<g id="a_edge20_Node000018_Node000019"><a xlink:title=" ">
<path fill="none" stroke="#63b8ff" d="M508.286,-82.3487C516.545,-82.1948 525.082,-82.0357 533.523,-81.8785"/>
<polygon fill="#63b8ff" stroke="#63b8ff" points="533.813,-85.3738 543.746,-81.688 533.682,-78.375 533.813,-85.3738"/>
</a>
</g>
</g>
<!-- Node20 -->
<g id="Node000020" class="node"><title>Node20</title>
<g id="a_Node000020"><a xlink:href="_t_vector_8c.html#a188bab569c3ae8a25070f632a6f53e62" target="_top" xlink:title=" ">
<polygon fill="white" stroke="#666666" points="829.5,-93.5 723.5,-93.5 723.5,-63.5 829.5,-63.5 829.5,-93.5"/>
<text text-anchor="start" x="731.5" y="-81.5" font-family="Helvetica,sans-Serif" font-size="10.00">vector_fast_compare</text>
<text text-anchor="middle" x="776.5" y="-70.5" font-family="Helvetica,sans-Serif" font-size="10.00">_positions</text>
</a>
</g>
</g>
<!-- Node19&#45;&gt;Node20 -->
<g id="edge21_Node000019_Node000020" class="edge"><title>Node19&#45;&gt;Node20</title>
<g id="a_edge21_Node000019_Node000020"><a xlink:title=" ">
<path fill="none" stroke="#63b8ff" d="M673.205,-79.7325C686.263,-79.5751 699.996,-79.4097 713.011,-79.2529"/>
<polygon fill="#63b8ff" stroke="#63b8ff" points="713.311,-82.7496 723.268,-79.1293 713.227,-75.7501 713.311,-82.7496"/>
</a>
</g>
</g>
<!-- Node20&#45;&gt;Node17 -->
<g id="edge22_Node000020_Node000017" class="edge"><title>Node20&#45;&gt;Node17</title>
<g id="a_edge22_Node000020_Node000017"><a xlink:title=" ">
<path fill="none" stroke="#63b8ff" d="M829.739,-85.8966C842.373,-87.6856 856.144,-89.6355 869.662,-91.5495"/>
<polygon fill="#63b8ff" stroke="#63b8ff" points="869.534,-95.0663 879.926,-93.0029 870.516,-88.1354 869.534,-95.0663"/>
</a>
</g>
</g>
<!-- Node24 -->
<g id="Node000024" class="node"><title>Node24</title>
<g id="a_Node000024"><a xlink:href="group___t_vector.html#gabd5ba54950295545d27b1286234ead39" target="_top" xlink:title="Zapsání hodnoty elementu do vektoru na požadovanou pozici.">
<polygon fill="white" stroke="#666666" points="652.5,-179 564.5,-179 564.5,-160 652.5,-160 652.5,-179"/>
<text text-anchor="middle" x="608.5" y="-167" font-family="Helvetica,sans-Serif" font-size="10.00">vector_set_value</text>
</a>
</g>
</g>
<!-- Node23&#45;&gt;Node24 -->
<g id="edge27_Node000023_Node000024" class="edge"><title>Node23&#45;&gt;Node24</title>
<g id="a_edge27_Node000023_Node000024"><a xlink:title=" ">
<path fill="none" stroke="#63b8ff" d="M487.127,-169.5C507.473,-169.5 532.365,-169.5 554.222,-169.5"/>
<polygon fill="#63b8ff" stroke="#63b8ff" points="554.348,-173 564.348,-169.5 554.348,-166 554.348,-173"/>
</a>
</g>
</g>
<!-- Node25 -->
<g id="Node000025" class="node"><title>Node25</title>
<g id="a_Node000025"><a xlink:href="_t_vector_8c.html#a689bf71829922c70ca1964e125e94217" target="_top" xlink:title=" ">
<polygon fill="white" stroke="#666666" points="831,-179 722,-179 722,-160 831,-160 831,-179"/>
<text text-anchor="middle" x="776.5" y="-167" font-family="Helvetica,sans-Serif" font-size="10.00">vector_fast_set_value</text>
</a>
</g>
</g>
<!-- Node24&#45;&gt;Node25 -->
<g id="edge28_Node000024_Node000025" class="edge"><title>Node24&#45;&gt;Node25</title>
<g id="a_edge28_Node000024_Node000025"><a xlink:title=" ">
<path fill="none" stroke="#63b8ff" d="M652.681,-169.5C670.678,-169.5 691.949,-169.5 711.688,-169.5"/>
<polygon fill="#63b8ff" stroke="#63b8ff" points="711.845,-173 721.845,-169.5 711.845,-166 711.845,-173"/>
</a>
</g>
</g>
</g>
</svg>
