<?xml version="1.0" encoding="UTF-8" standalone="no"?>
<!DOCTYPE svg PUBLIC "-//W3C//DTD SVG 1.1//EN"
 "http://www.w3.org/Graphics/SVG/1.1/DTD/svg11.dtd">
<!-- Generated by graphviz version 2.38.0 (20140413.2041)
 -->
<!-- Title: 2.2. Doplnění pro Sortable Vector o vlastnost sdílení statistik třídění Pages: 1 -->
<svg width="398pt" height="120pt"
 viewBox="0.00 0.00 398.00 119.50" xmlns="http://www.w3.org/2000/svg" xmlns:xlink="http://www.w3.org/1999/xlink">
<g id="graph0" class="graph" transform="scale(1 1) rotate(0) translate(4 115.5)">
<title>2.2. Doplnění pro Sortable Vector o vlastnost sdílení statistik třídění</title>
<!-- Node4 -->
<g id="Node000004" class="node"><title>Node4</title>
<g id="a_Node000004"><a xlink:href="group___t_heap.html" target="_top" xlink:title="Definice typu Heap, který umožňuje přístup k elementům vektoru jako k uzlům haldy (vyžaduje Sortable ...">
<polygon fill="white" stroke="#666666" points="382.5,-111.5 272.5,-111.5 272.5,-59.5 382.5,-59.5 382.5,-111.5"/>
<text text-anchor="start" x="280.5" y="-99.5" font-family="Helvetica,sans-Serif" font-size="10.00">2.2.2. Datový typ</text>
<text text-anchor="start" x="280.5" y="-88.5" font-family="Helvetica,sans-Serif" font-size="10.00"> Heap pro přístup</text>
<text text-anchor="start" x="280.5" y="-77.5" font-family="Helvetica,sans-Serif" font-size="10.00"> k elementům vektoru</text>
<text text-anchor="middle" x="327.5" y="-66.5" font-family="Helvetica,sans-Serif" font-size="10.00"> jako k uzlům haldy</text>
</a>
</g>
</g>
<!-- Node3 -->
<g id="Node000003" class="node"><title>Node3</title>
<g id="a_Node000003"><a xlink:href="group___t_span.html" target="_top" xlink:title="Definice typu Span, který umožňuje přístup k omezené části vektoru (vyžaduje Sortable Vector s vlastn...">
<polygon fill="white" stroke="#666666" points="390,-41 265,-41 265,-0 390,-0 390,-41"/>
<text text-anchor="start" x="273" y="-29" font-family="Helvetica,sans-Serif" font-size="10.00">2.2.1. Datový typ</text>
<text text-anchor="start" x="273" y="-18" font-family="Helvetica,sans-Serif" font-size="10.00"> Span pro přístup</text>
<text text-anchor="middle" x="327.5" y="-7" font-family="Helvetica,sans-Serif" font-size="10.00"> k omezené části vektoru</text>
</a>
</g>
</g>
<!-- Node2 -->
<g id="Node000002" class="node"><title>Node2</title>
<g id="a_Node000002"><a xlink:href="group___t_vector.html" target="_top" xlink:title="Definice datového typu Vector a jeho funkcí">
<polygon fill="white" stroke="#666666" points="56,-62 3.55271e-015,-62 3.55271e-015,-43 56,-43 56,-62"/>
<text text-anchor="middle" x="28" y="-50" font-family="Helvetica,sans-Serif" font-size="10.00">2. Vector</text>
</a>
</g>
</g>
<!-- Node1 -->
<g id="Node000001" class="node"><title>Node1</title>
<g id="a_Node000001"><a xlink:title="Definice typu Vector (sortable_with_shareable_sortstats), popis jeho nově doplněných vlastností a fun...">
<polygon fill="#999999" stroke="#666666" points="229,-73 92,-73 92,-32 229,-32 229,-73"/>
<text text-anchor="start" x="100" y="-61" font-family="Helvetica,sans-Serif" font-size="10.00">2.2. Doplnění pro</text>
<text text-anchor="start" x="100" y="-50" font-family="Helvetica,sans-Serif" font-size="10.00"> Sortable Vector o vlastnost</text>
<text text-anchor="middle" x="160.5" y="-39" font-family="Helvetica,sans-Serif" font-size="10.00"> sdílení statistik třídění</text>
</a>
</g>
</g>
<!-- Node2&#45;&gt;Node1 -->
<g id="edge1" class="edge"><title>Node2&#45;&gt;Node1</title>
<path fill="none" stroke="black" d="M66.1777,-52.5C74.2406,-52.5 83.0101,-52.5 91.8386,-52.5"/>
<polygon fill="black" stroke="black" points="66.0397,-49.0001 56.0397,-52.5 66.0396,-56.0001 66.0397,-49.0001"/>
</g>
<!-- Node1&#45;&gt;Node4 -->
<g id="edge3" class="edge"><title>Node1&#45;&gt;Node4</title>
<path fill="none" stroke="black" d="M238.963,-67.9926C250.261,-70.2522 261.686,-72.5372 272.385,-74.6771"/>
<polygon fill="black" stroke="black" points="239.58,-64.5468 229.088,-66.0176 238.207,-71.4109 239.58,-64.5468"/>
</g>
<!-- Node1&#45;&gt;Node3 -->
<g id="edge2" class="edge"><title>Node1&#45;&gt;Node3</title>
<path fill="none" stroke="black" d="M239.153,-37.44C247.774,-35.7681 256.466,-34.0824 264.85,-32.4563"/>
<polygon fill="black" stroke="black" points="238.239,-34.0521 229.088,-39.392 239.571,-40.924 238.239,-34.0521"/>
</g>
</g>
</svg>
