<?xml version="1.0" encoding="UTF-8" standalone="no"?>
<!DOCTYPE svg PUBLIC "-//W3C//DTD SVG 1.1//EN"
 "http://www.w3.org/Graphics/SVG/1.1/DTD/svg11.dtd">
<!-- Generated by graphviz version 2.38.0 (20140413.2041)
 -->
<!-- Title: vector_iterator_value Pages: 1 -->
<svg width="591pt" height="114pt"
 viewBox="0.00 0.00 591.00 114.05" xmlns="http://www.w3.org/2000/svg" xmlns:xlink="http://www.w3.org/1999/xlink">
<g id="graph0" class="graph" transform="scale(1 1) rotate(0) translate(4 110.049)">
<title>vector_iterator_value</title>
<!-- Node1 -->
<g id="Node000001" class="node"><title>Node1</title>
<g id="a_Node000001"><a xlink:title="Přečtení hodnoty elementu z vektoru pomocí iterátoru.">
<polygon fill="#999999" stroke="#666666" points="583,-57 479,-57 479,-38 583,-38 583,-57"/>
<text text-anchor="middle" x="531" y="-45" font-family="Helvetica,sans-Serif" font-size="10.00">vector_iterator_value</text>
</a>
</g>
</g>
<!-- Node2 -->
<g id="Node000002" class="node"><title>Node2</title>
<g id="a_Node000002"><a xlink:href="group___t_heap.html#gac645f0bf424be39230e2472e55ad4f6e" target="_top" xlink:title="Přečtení hodnoty uzlu haldy pomocí iterátoru.">
<polygon fill="white" stroke="#666666" points="443,-95 343,-95 343,-76 443,-76 443,-95"/>
<text text-anchor="middle" x="393" y="-83" font-family="Helvetica,sans-Serif" font-size="10.00">heap_iterator_value</text>
</a>
</g>
</g>
<!-- Node1&#45;&gt;Node2 -->
<g id="edge1_Node000001_Node000002" class="edge"><title>Node1&#45;&gt;Node2</title>
<g id="a_edge1_Node000001_Node000002"><a xlink:title=" ">
<path fill="none" stroke="#63b8ff" d="M485.913,-59.8183C467.228,-65.0393 445.782,-71.0316 428.308,-75.9141"/>
<polygon fill="#63b8ff" stroke="#63b8ff" points="486.992,-63.151 495.681,-57.089 485.108,-56.4092 486.992,-63.151"/>
</a>
</g>
</g>
<!-- Node6 -->
<g id="Node000006" class="node"><title>Node6</title>
<g id="a_Node000006"><a xlink:href="group___basic_sorts.html#ga25c7ac8991c266d71b75cf20c14b67cf" target="_top" xlink:title="Vytisknutí elementu vektoru pomocí iterátoru.">
<polygon fill="white" stroke="#666666" points="307,-57 232,-57 232,-38 307,-38 307,-57"/>
<text text-anchor="middle" x="269.5" y="-45" font-family="Helvetica,sans-Serif" font-size="10.00">print_element</text>
</a>
</g>
</g>
<!-- Node1&#45;&gt;Node6 -->
<g id="edge6_Node000001_Node000006" class="edge"><title>Node1&#45;&gt;Node6</title>
<g id="a_edge6_Node000001_Node000006"><a xlink:title=" ">
<path fill="none" stroke="#63b8ff" d="M468.631,-47.5C418.371,-47.5 348.944,-47.5 307.025,-47.5"/>
<polygon fill="#63b8ff" stroke="#63b8ff" points="468.731,-51.0001 478.731,-47.5 468.731,-44.0001 468.731,-51.0001"/>
</a>
</g>
</g>
<!-- Node8 -->
<g id="Node000008" class="node"><title>Node8</title>
<g id="a_Node000008"><a xlink:href="group___t_span.html#ga8796ef08880befbf07bda987120a58cb" target="_top" xlink:title="Přečtení hodnoty elementu z Spanu pomocí iterátoru.">
<polygon fill="white" stroke="#666666" points="443,-19 343,-19 343,-0 443,-0 443,-19"/>
<text text-anchor="middle" x="393" y="-7" font-family="Helvetica,sans-Serif" font-size="10.00">span_iterator_value</text>
</a>
</g>
</g>
<!-- Node1&#45;&gt;Node8 -->
<g id="edge9_Node000001_Node000008" class="edge"><title>Node1&#45;&gt;Node8</title>
<g id="a_edge9_Node000001_Node000008"><a xlink:title=" ">
<path fill="none" stroke="#63b8ff" d="M485.913,-35.1817C467.228,-29.9607 445.782,-23.9684 428.308,-19.0859"/>
<polygon fill="#63b8ff" stroke="#63b8ff" points="485.108,-38.5908 495.681,-37.911 486.992,-31.849 485.108,-38.5908"/>
</a>
</g>
</g>
<!-- Node3 -->
<g id="Node000003" class="node"><title>Node3</title>
<g id="a_Node000003"><a xlink:href="group___powerful_sorts.html#ga84762e575f9465881e13d17072186ddd" target="_top" xlink:title="Třídění pomocí haldy (Heap Sort) využívající iterátorové API pro přístup k elementům vektoru.">
<polygon fill="white" stroke="#666666" points="196,-94 74,-94 74,-75 196,-75 196,-94"/>
<text text-anchor="middle" x="135" y="-82" font-family="Helvetica,sans-Serif" font-size="10.00">heap_sort_with_iterators</text>
</a>
</g>
</g>
<!-- Node2&#45;&gt;Node3 -->
<g id="edge2_Node000002_Node000003" class="edge"><title>Node2&#45;&gt;Node3</title>
<g id="a_edge2_Node000002_Node000003"><a xlink:title=" ">
<path fill="none" stroke="#63b8ff" d="M344.987,-97.2816C332.704,-99.8561 319.424,-102.199 307,-103.5 273.848,-106.972 265.174,-106.751 232,-103.5 213.062,-101.644 192.32,-97.7752 174.977,-94.0102"/>
<polygon fill="#63b8ff" stroke="#63b8ff" points="346.01,-100.641 355.03,-95.0823 344.512,-93.8027 346.01,-100.641"/>
</a>
</g>
</g>
<!-- Node5 -->
<g id="Node000005" class="node"><title>Node5</title>
<g id="a_Node000005"><a xlink:href="heap__sort__with__iterators_8c.html#aceaf0618c69440f1e439e224eb6945dc" target="_top" xlink:title="Vnitřní a lokální funkce realizující uspořádání elementů vektoru do haldy.">
<polygon fill="white" stroke="#666666" points="293,-94 246,-94 246,-75 293,-75 293,-94"/>
<text text-anchor="middle" x="269.5" y="-82" font-family="Helvetica,sans-Serif" font-size="10.00">heapify</text>
</a>
</g>
</g>
<!-- Node2&#45;&gt;Node5 -->
<g id="edge4_Node000002_Node000005" class="edge"><title>Node2&#45;&gt;Node5</title>
<g id="a_edge4_Node000002_Node000005"><a xlink:title=" ">
<path fill="none" stroke="#63b8ff" d="M332.715,-85.0121C318.599,-84.8959 304.377,-84.7788 293.101,-84.686"/>
<polygon fill="#63b8ff" stroke="#63b8ff" points="332.903,-88.5136 342.932,-85.0961 332.961,-81.5139 332.903,-88.5136"/>
</a>
</g>
</g>
<!-- Node4 -->
<g id="Node000004" class="node"><title>Node4</title>
<g id="a_Node000004"><a xlink:href="group___main_program.html#ga0ddf1224851353fc92bfbff6f499fa97" target="_top" xlink:title=" ">
<polygon fill="white" stroke="#666666" points="38,-75 0,-75 0,-56 38,-56 38,-75"/>
<text text-anchor="middle" x="19" y="-63" font-family="Helvetica,sans-Serif" font-size="10.00">main</text>
</a>
</g>
</g>
<!-- Node3&#45;&gt;Node4 -->
<g id="edge3_Node000003_Node000004" class="edge"><title>Node3&#45;&gt;Node4</title>
<g id="a_edge3_Node000003_Node000004"><a xlink:title=" ">
<path fill="none" stroke="#63b8ff" d="M66.5667,-73.2611C56.1373,-71.5229 46.1905,-69.8651 38.1877,-68.5313"/>
<polygon fill="#63b8ff" stroke="#63b8ff" points="66.2267,-76.7526 76.666,-74.9443 67.3775,-69.8479 66.2267,-76.7526"/>
</a>
</g>
</g>
<!-- Node5&#45;&gt;Node3 -->
<g id="edge5_Node000005_Node000003" class="edge"><title>Node5&#45;&gt;Node3</title>
<g id="a_edge5_Node000005_Node000003"><a xlink:title=" ">
<path fill="none" stroke="#63b8ff" d="M235.373,-84.5C223.441,-84.5 209.579,-84.5 196.064,-84.5"/>
<polygon fill="#63b8ff" stroke="#63b8ff" points="235.722,-88.0001 245.722,-84.5 235.722,-81.0001 235.722,-88.0001"/>
</a>
</g>
</g>
<!-- Node7 -->
<g id="Node000007" class="node"><title>Node7</title>
<g id="a_Node000007"><a xlink:href="group___main_program.html#ga7343209645c93203da0a86613abfed04" target="_top" xlink:title="Testování třídicí metody.">
<polygon fill="white" stroke="#666666" points="169,-57 101,-57 101,-38 169,-38 169,-57"/>
<text text-anchor="middle" x="135" y="-45" font-family="Helvetica,sans-Serif" font-size="10.00">sort_testing</text>
</a>
</g>
</g>
<!-- Node6&#45;&gt;Node7 -->
<g id="edge7_Node000006_Node000007" class="edge"><title>Node6&#45;&gt;Node7</title>
<g id="a_edge7_Node000006_Node000007"><a xlink:title=" ">
<path fill="none" stroke="#63b8ff" d="M221.491,-47.5C204.233,-47.5 185.068,-47.5 169.264,-47.5"/>
<polygon fill="#63b8ff" stroke="#63b8ff" points="221.943,-51.0001 231.943,-47.5 221.943,-44.0001 221.943,-51.0001"/>
</a>
</g>
</g>
<!-- Node7&#45;&gt;Node4 -->
<g id="edge8_Node000007_Node000004" class="edge"><title>Node7&#45;&gt;Node4</title>
<g id="a_edge8_Node000007_Node000004"><a xlink:title=" ">
<path fill="none" stroke="#63b8ff" d="M90.6078,-54.3514C72.4631,-57.2164 52.3644,-60.3898 38.2657,-62.6159"/>
<polygon fill="#63b8ff" stroke="#63b8ff" points="91.3883,-57.7716 100.72,-52.7547 90.2965,-50.8573 91.3883,-57.7716"/>
</a>
</g>
</g>
</g>
</svg>
