<?xml version="1.0" encoding="UTF-8" standalone="no"?>
<!DOCTYPE svg PUBLIC "-//W3C//DTD SVG 1.1//EN"
 "http://www.w3.org/Graphics/SVG/1.1/DTD/svg11.dtd">
<!-- Generated by graphviz version 2.38.0 (20140413.2041)
 -->
<!-- Title: heap_iterator_last Pages: 1 -->
<svg width="417pt" height="46pt"
 viewBox="0.00 0.00 417.00 46.00" xmlns="http://www.w3.org/2000/svg" xmlns:xlink="http://www.w3.org/1999/xlink">
<g id="graph0" class="graph" transform="scale(1 1) rotate(0) translate(4 42)">
<title>heap_iterator_last</title>
<!-- Node1 -->
<g id="Node000001" class="node"><title>Node1</title>
<g id="a_Node000001"><a xlink:title="Vytvoření nového iterátoru ukazujícího na nejpravější listový uzel haldy.">
<polygon fill="#999999" stroke="#666666" points="409,-38 315,-38 315,-19 409,-19 409,-38"/>
<text text-anchor="middle" x="362" y="-26" font-family="Helvetica,sans-Serif" font-size="10.00">heap_iterator_last</text>
</a>
</g>
</g>
<!-- Node2 -->
<g id="Node000002" class="node"><title>Node2</title>
<g id="a_Node000002"><a xlink:href="group___powerful_sorts.html#ga84762e575f9465881e13d17072186ddd" target="_top" xlink:title="Třídění pomocí haldy (Heap Sort) využívající iterátorové API pro přístup k elementům vektoru.">
<polygon fill="white" stroke="#666666" points="196,-38 74,-38 74,-19 196,-19 196,-38"/>
<text text-anchor="middle" x="135" y="-26" font-family="Helvetica,sans-Serif" font-size="10.00">heap_sort_with_iterators</text>
</a>
</g>
</g>
<!-- Node1&#45;&gt;Node2 -->
<g id="edge1_Node000001_Node000002" class="edge"><title>Node1&#45;&gt;Node2</title>
<g id="a_edge1_Node000001_Node000002"><a xlink:title=" ">
<path fill="none" stroke="#63b8ff" d="M304.521,-28.5C271.476,-28.5 229.772,-28.5 196.119,-28.5"/>
<polygon fill="#63b8ff" stroke="#63b8ff" points="304.925,-32.0001 314.925,-28.5 304.925,-25.0001 304.925,-32.0001"/>
</a>
</g>
</g>
<!-- Node4 -->
<g id="Node000004" class="node"><title>Node4</title>
<g id="a_Node000004"><a xlink:href="heap__sort__with__iterators_8c.html#aceaf0618c69440f1e439e224eb6945dc" target="_top" xlink:title="Vnitřní a lokální funkce realizující uspořádání elementů vektoru do haldy.">
<polygon fill="white" stroke="#666666" points="279,-19 232,-19 232,-0 279,-0 279,-19"/>
<text text-anchor="middle" x="255.5" y="-7" font-family="Helvetica,sans-Serif" font-size="10.00">heapify</text>
</a>
</g>
</g>
<!-- Node1&#45;&gt;Node4 -->
<g id="edge3_Node000001_Node000004" class="edge"><title>Node1&#45;&gt;Node4</title>
<g id="a_edge3_Node000001_Node000004"><a xlink:title=" ">
<path fill="none" stroke="#63b8ff" d="M304.969,-18.3125C295.86,-16.6563 286.905,-15.0282 279.219,-13.6308"/>
<polygon fill="#63b8ff" stroke="#63b8ff" points="304.396,-21.7656 314.861,-20.111 305.648,-14.8785 304.396,-21.7656"/>
</a>
</g>
</g>
<!-- Node3 -->
<g id="Node000003" class="node"><title>Node3</title>
<g id="a_Node000003"><a xlink:href="group___main_program.html#ga0ddf1224851353fc92bfbff6f499fa97" target="_top" xlink:title=" ">
<polygon fill="white" stroke="#666666" points="38,-38 0,-38 0,-19 38,-19 38,-38"/>
<text text-anchor="middle" x="19" y="-26" font-family="Helvetica,sans-Serif" font-size="10.00">main</text>
</a>
</g>
</g>
<!-- Node2&#45;&gt;Node3 -->
<g id="edge2_Node000002_Node000003" class="edge"><title>Node2&#45;&gt;Node3</title>
<g id="a_edge2_Node000002_Node000003"><a xlink:title=" ">
<path fill="none" stroke="#63b8ff" d="M63.9621,-28.5C54.4658,-28.5 45.4797,-28.5 38.1365,-28.5"/>
<polygon fill="#63b8ff" stroke="#63b8ff" points="63.9954,-32.0001 73.9954,-28.5 63.9953,-25.0001 63.9954,-32.0001"/>
</a>
</g>
</g>
<!-- Node4&#45;&gt;Node2 -->
<g id="edge4_Node000004_Node000002" class="edge"><title>Node4&#45;&gt;Node2</title>
<g id="a_edge4_Node000004_Node000002"><a xlink:title=" ">
<path fill="none" stroke="#63b8ff" d="M222.001,-14.7108C213.738,-16.0357 204.596,-17.5015 195.448,-18.9683"/>
<polygon fill="#63b8ff" stroke="#63b8ff" points="222.612,-18.1576 231.932,-13.1185 221.504,-11.2459 222.612,-18.1576"/>
</a>
</g>
</g>
</g>
</svg>
