<?xml version="1.0" encoding="UTF-8" standalone="no"?>
<!DOCTYPE svg PUBLIC "-//W3C//DTD SVG 1.1//EN"
 "http://www.w3.org/Graphics/SVG/1.1/DTD/svg11.dtd">
<!-- Generated by graphviz version 2.38.0 (20140413.2041)
 -->
<!-- Title: vector_iterator_begin Pages: 1 -->
<svg width="483pt" height="103pt"
 viewBox="0.00 0.00 483.00 103.00" xmlns="http://www.w3.org/2000/svg" xmlns:xlink="http://www.w3.org/1999/xlink">
<g id="graph0" class="graph" transform="scale(1 1) rotate(0) translate(4 99)">
<title>vector_iterator_begin</title>
<!-- Node1 -->
<g id="Node000001" class="node"><title>Node1</title>
<g id="a_Node000001"><a xlink:title="Vytvoření nového iterátoru ukazujícího na počáteční element.">
<polygon fill="#999999" stroke="#666666" points="475,-57 369,-57 369,-38 475,-38 475,-57"/>
<text text-anchor="middle" x="422" y="-45" font-family="Helvetica,sans-Serif" font-size="10.00">vector_iterator_begin</text>
</a>
</g>
</g>
<!-- Node2 -->
<g id="Node000002" class="node"><title>Node2</title>
<g id="a_Node000002"><a xlink:href="group___t_heap.html#ga53d2e1b9cb5058280bbea769d0f1ec0d" target="_top" xlink:title="Vytvoření nového iterátoru ukazujícího na kořenový uzel haldy.">
<polygon fill="white" stroke="#666666" points="333,-95 232,-95 232,-76 333,-76 333,-95"/>
<text text-anchor="middle" x="282.5" y="-83" font-family="Helvetica,sans-Serif" font-size="10.00">heap_iterator_begin</text>
</a>
</g>
</g>
<!-- Node1&#45;&gt;Node2 -->
<g id="edge1_Node000001_Node000002" class="edge"><title>Node1&#45;&gt;Node2</title>
<g id="a_edge1_Node000001_Node000002"><a xlink:title=" ">
<path fill="none" stroke="#63b8ff" d="M376.427,-59.8183C357.535,-65.0393 335.853,-71.0316 318.186,-75.9141"/>
<polygon fill="#63b8ff" stroke="#63b8ff" points="377.597,-63.1264 386.303,-57.089 375.732,-56.3793 377.597,-63.1264"/>
</a>
</g>
</g>
<!-- Node5 -->
<g id="Node000005" class="node"><title>Node5</title>
<g id="a_Node000005"><a xlink:href="group___main_program.html#ga7343209645c93203da0a86613abfed04" target="_top" xlink:title="Testování třídicí metody.">
<polygon fill="white" stroke="#666666" points="169,-57 101,-57 101,-38 169,-38 169,-57"/>
<text text-anchor="middle" x="135" y="-45" font-family="Helvetica,sans-Serif" font-size="10.00">sort_testing</text>
</a>
</g>
</g>
<!-- Node1&#45;&gt;Node5 -->
<g id="edge4_Node000001_Node000005" class="edge"><title>Node1&#45;&gt;Node5</title>
<g id="a_edge4_Node000001_Node000005"><a xlink:title=" ">
<path fill="none" stroke="#63b8ff" d="M358.528,-47.5C300.242,-47.5 215.524,-47.5 169.242,-47.5"/>
<polygon fill="#63b8ff" stroke="#63b8ff" points="358.727,-51.0001 368.727,-47.5 358.727,-44.0001 358.727,-51.0001"/>
</a>
</g>
</g>
<!-- Node6 -->
<g id="Node000006" class="node"><title>Node6</title>
<g id="a_Node000006"><a xlink:href="group___t_span.html#ga3877c7871ce8eb1c42a322fa9fd86a41" target="_top" xlink:title="Vytvoření nového iterátoru ukazujícího na počáteční element.">
<polygon fill="white" stroke="#666666" points="333,-19 232,-19 232,-0 333,-0 333,-19"/>
<text text-anchor="middle" x="282.5" y="-7" font-family="Helvetica,sans-Serif" font-size="10.00">span_iterator_begin</text>
</a>
</g>
</g>
<!-- Node1&#45;&gt;Node6 -->
<g id="edge6_Node000001_Node000006" class="edge"><title>Node1&#45;&gt;Node6</title>
<g id="a_edge6_Node000001_Node000006"><a xlink:title=" ">
<path fill="none" stroke="#63b8ff" d="M376.427,-35.1817C357.535,-29.9607 335.853,-23.9684 318.186,-19.0859"/>
<polygon fill="#63b8ff" stroke="#63b8ff" points="375.732,-38.6207 386.303,-37.911 377.597,-31.8736 375.732,-38.6207"/>
</a>
</g>
</g>
<!-- Node3 -->
<g id="Node000003" class="node"><title>Node3</title>
<g id="a_Node000003"><a xlink:href="group___powerful_sorts.html#ga84762e575f9465881e13d17072186ddd" target="_top" xlink:title="Třídění pomocí haldy (Heap Sort) využívající iterátorové API pro přístup k elementům vektoru.">
<polygon fill="white" stroke="#666666" points="196,-94 74,-94 74,-75 196,-75 196,-94"/>
<text text-anchor="middle" x="135" y="-82" font-family="Helvetica,sans-Serif" font-size="10.00">heap_sort_with_iterators</text>
</a>
</g>
</g>
<!-- Node2&#45;&gt;Node3 -->
<g id="edge2_Node000002_Node000003" class="edge"><title>Node2&#45;&gt;Node3</title>
<g id="a_edge2_Node000002_Node000003"><a xlink:title=" ">
<path fill="none" stroke="#63b8ff" d="M221.655,-85.0887C213.186,-85.0305 204.476,-84.9706 196.004,-84.9124"/>
<polygon fill="#63b8ff" stroke="#63b8ff" points="221.81,-88.5897 231.834,-85.1587 221.858,-81.5899 221.81,-88.5897"/>
</a>
</g>
</g>
<!-- Node4 -->
<g id="Node000004" class="node"><title>Node4</title>
<g id="a_Node000004"><a xlink:href="group___main_program.html#ga0ddf1224851353fc92bfbff6f499fa97" target="_top" xlink:title=" ">
<polygon fill="white" stroke="#666666" points="38,-75 0,-75 0,-56 38,-56 38,-75"/>
<text text-anchor="middle" x="19" y="-63" font-family="Helvetica,sans-Serif" font-size="10.00">main</text>
</a>
</g>
</g>
<!-- Node3&#45;&gt;Node4 -->
<g id="edge3_Node000003_Node000004" class="edge"><title>Node3&#45;&gt;Node4</title>
<g id="a_edge3_Node000003_Node000004"><a xlink:title=" ">
<path fill="none" stroke="#63b8ff" d="M66.5667,-73.2611C56.1373,-71.5229 46.1905,-69.8651 38.1877,-68.5313"/>
<polygon fill="#63b8ff" stroke="#63b8ff" points="66.2267,-76.7526 76.666,-74.9443 67.3775,-69.8479 66.2267,-76.7526"/>
</a>
</g>
</g>
<!-- Node5&#45;&gt;Node4 -->
<g id="edge5_Node000005_Node000004" class="edge"><title>Node5&#45;&gt;Node4</title>
<g id="a_edge5_Node000005_Node000004"><a xlink:title=" ">
<path fill="none" stroke="#63b8ff" d="M90.6078,-54.3514C72.4631,-57.2164 52.3644,-60.3898 38.2657,-62.6159"/>
<polygon fill="#63b8ff" stroke="#63b8ff" points="91.3883,-57.7716 100.72,-52.7547 90.2965,-50.8573 91.3883,-57.7716"/>
</a>
</g>
</g>
</g>
</svg>
