<?xml version="1.0" encoding="UTF-8" standalone="no"?>
<!DOCTYPE svg PUBLIC "-//W3C//DTD SVG 1.1//EN"
 "http://www.w3.org/Graphics/SVG/1.1/DTD/svg11.dtd">
<!-- Generated by graphviz version 2.38.0 (20140413.2041)
 -->
<!-- Title: heap_iterator_to_parent Pages: 1 -->
<svg width="399pt" height="70pt"
 viewBox="0.00 0.00 399.00 69.50" xmlns="http://www.w3.org/2000/svg" xmlns:xlink="http://www.w3.org/1999/xlink">
<g id="graph0" class="graph" transform="scale(1 1) rotate(0) translate(4 65.5)">
<title>heap_iterator_to_parent</title>
<!-- Node1 -->
<g id="Node000001" class="node"><title>Node1</title>
<g id="a_Node000001"><a xlink:title="Posunutí iterátoru na rodičovský uzel.">
<polygon fill="#999999" stroke="#666666" points="119,-37 -7.10543e-015,-37 -7.10543e-015,-18 119,-18 119,-37"/>
<text text-anchor="middle" x="59.5" y="-25" font-family="Helvetica,sans-Serif" font-size="10.00">heap_iterator_to_parent</text>
</a>
</g>
</g>
<!-- Node2 -->
<g id="Node000002" class="node"><title>Node2</title>
<g id="a_Node000002"><a xlink:href="group___t_heap.html#gae40d23edaede152d035bcf8828ef37d9" target="_top" xlink:title="Zjištění platnosti iterátoru.">
<polygon fill="white" stroke="#666666" points="265,-56 155,-56 155,-37 265,-37 265,-56"/>
<text text-anchor="middle" x="210" y="-44" font-family="Helvetica,sans-Serif" font-size="10.00">heap_iterator_is_valid</text>
</a>
</g>
</g>
<!-- Node1&#45;&gt;Node2 -->
<g id="edge1_Node000001_Node000002" class="edge"><title>Node1&#45;&gt;Node2</title>
<g id="a_edge1_Node000001_Node000002"><a xlink:title=" ">
<path fill="none" stroke="#63b8ff" d="M119.191,-35.0093C127.491,-36.0712 136.062,-37.1679 144.464,-38.2429"/>
<polygon fill="#63b8ff" stroke="#63b8ff" points="144.237,-41.7422 154.6,-39.5397 145.125,-34.7988 144.237,-41.7422"/>
</a>
</g>
</g>
<!-- Node4 -->
<g id="Node000004" class="node"><title>Node4</title>
<g id="a_Node000004"><a xlink:href="group___t_heap.html#ga397a260a81bbd6910ca1464638722510" target="_top" xlink:title="Vypočte pozici rodičovského uzlu.">
<polygon fill="white" stroke="#666666" points="262,-19 158,-19 158,-0 262,-0 262,-19"/>
<text text-anchor="middle" x="210" y="-7" font-family="Helvetica,sans-Serif" font-size="10.00">heap_pos_to_parent</text>
</a>
</g>
</g>
<!-- Node1&#45;&gt;Node4 -->
<g id="edge3_Node000001_Node000004" class="edge"><title>Node1&#45;&gt;Node4</title>
<g id="a_edge3_Node000001_Node000004"><a xlink:title=" ">
<path fill="none" stroke="#63b8ff" d="M119.191,-20.3859C128.598,-19.2457 138.353,-18.0632 147.817,-16.9162"/>
<polygon fill="#63b8ff" stroke="#63b8ff" points="148.434,-20.367 157.94,-15.6891 147.592,-13.4179 148.434,-20.367"/>
</a>
</g>
</g>
<!-- Node3 -->
<g id="Node000003" class="node"><title>Node3</title>
<g id="a_Node000003"><a xlink:href="group___t_vector_iterator.html#ga3f8a97a63f887539e270f6845bf22b9a" target="_top" xlink:title="Zjištění platnosti iterátoru.">
<polygon fill="white" stroke="#666666" points="391,-61.5 301,-61.5 301,-31.5 391,-31.5 391,-61.5"/>
<text text-anchor="start" x="309" y="-49.5" font-family="Helvetica,sans-Serif" font-size="10.00">vector_iterator_is</text>
<text text-anchor="middle" x="346" y="-38.5" font-family="Helvetica,sans-Serif" font-size="10.00">_valid</text>
</a>
</g>
</g>
<!-- Node2&#45;&gt;Node3 -->
<g id="edge2_Node000002_Node000003" class="edge"><title>Node2&#45;&gt;Node3</title>
<g id="a_edge2_Node000002_Node000003"><a xlink:title=" ">
<path fill="none" stroke="#63b8ff" d="M265.117,-46.5C273.586,-46.5 282.34,-46.5 290.811,-46.5"/>
<polygon fill="#63b8ff" stroke="#63b8ff" points="290.964,-50.0001 300.964,-46.5 290.964,-43.0001 290.964,-50.0001"/>
</a>
</g>
</g>
</g>
</svg>
