<?xml version="1.0" encoding="UTF-8" standalone="no"?>
<!DOCTYPE svg PUBLIC "-//W3C//DTD SVG 1.1//EN"
 "http://www.w3.org/Graphics/SVG/1.1/DTD/svg11.dtd">
<!-- Generated by graphviz version 2.38.0 (20140413.2041)
 -->
<!-- Title: heap_size Pages: 1 -->
<svg width="489pt" height="141pt"
 viewBox="0.00 0.00 489.00 141.00" xmlns="http://www.w3.org/2000/svg" xmlns:xlink="http://www.w3.org/1999/xlink">
<g id="graph0" class="graph" transform="scale(1 1) rotate(0) translate(4 137)">
<title>heap_size</title>
<!-- Node1 -->
<g id="Node000001" class="node"><title>Node1</title>
<g id="a_Node000001"><a xlink:title="Přečtení počtu uzlů haldy.">
<polygon fill="#999999" stroke="#666666" points="481,-76 420,-76 420,-57 481,-57 481,-76"/>
<text text-anchor="middle" x="450.5" y="-64" font-family="Helvetica,sans-Serif" font-size="10.00">heap_size</text>
</a>
</g>
</g>
<!-- Node2 -->
<g id="Node000002" class="node"><title>Node2</title>
<g id="a_Node000002"><a xlink:href="group___powerful_sorts.html#gaf564949cc194e5feea63d6c2aaa3125a" target="_top" xlink:title="Třídění pomocí haldy (Heap Sort) využívající poziční API pro přístup k elementům vektoru.">
<polygon fill="white" stroke="#666666" points="133,-76 74,-76 74,-57 133,-57 133,-76"/>
<text text-anchor="middle" x="103.5" y="-64" font-family="Helvetica,sans-Serif" font-size="10.00">heap_sort</text>
</a>
</g>
</g>
<!-- Node1&#45;&gt;Node2 -->
<g id="edge1_Node000001_Node000002" class="edge"><title>Node1&#45;&gt;Node2</title>
<g id="a_edge1_Node000001_Node000002"><a xlink:title=" ">
<path fill="none" stroke="#63b8ff" d="M409.335,-68.6405C354.867,-71.2176 254.551,-74.811 169,-71.5 157.216,-71.0439 144.248,-70.1208 133.049,-69.1906"/>
<polygon fill="#63b8ff" stroke="#63b8ff" points="409.781,-72.123 419.599,-68.141 409.441,-65.1313 409.781,-72.123"/>
</a>
</g>
</g>
<!-- Node4 -->
<g id="Node000004" class="node"><title>Node4</title>
<g id="a_Node000004"><a xlink:href="group___powerful_sorts.html#ga84762e575f9465881e13d17072186ddd" target="_top" xlink:title="Třídění pomocí haldy (Heap Sort) využívající iterátorové API pro přístup k elementům vektoru.">
<polygon fill="white" stroke="#666666" points="291,-133 169,-133 169,-114 291,-114 291,-133"/>
<text text-anchor="middle" x="230" y="-121" font-family="Helvetica,sans-Serif" font-size="10.00">heap_sort_with_iterators</text>
</a>
</g>
</g>
<!-- Node1&#45;&gt;Node4 -->
<g id="edge3_Node000001_Node000004" class="edge"><title>Node1&#45;&gt;Node4</title>
<g id="a_edge3_Node000001_Node000004"><a xlink:title=" ">
<path fill="none" stroke="#63b8ff" d="M425.015,-81.1246C413.027,-87.6813 398.156,-94.9476 384,-99.5 354.18,-109.09 319.816,-114.922 291.218,-118.43"/>
<polygon fill="#63b8ff" stroke="#63b8ff" points="426.955,-84.0484 433.942,-76.0838 423.514,-77.953 426.955,-84.0484"/>
</a>
</g>
</g>
<!-- Node5 -->
<g id="Node000005" class="node"><title>Node5</title>
<g id="a_Node000005"><a xlink:href="heap__sort_8c.html#aceaf0618c69440f1e439e224eb6945dc" target="_top" xlink:title="Vnitřní a lokální funkce realizující uspořádání elementů vektoru do haldy.">
<polygon fill="white" stroke="#666666" points="253.5,-19 206.5,-19 206.5,-0 253.5,-0 253.5,-19"/>
<text text-anchor="middle" x="230" y="-7" font-family="Helvetica,sans-Serif" font-size="10.00">heapify</text>
</a>
</g>
</g>
<!-- Node1&#45;&gt;Node5 -->
<g id="edge5_Node000001_Node000005" class="edge"><title>Node1&#45;&gt;Node5</title>
<g id="a_edge5_Node000001_Node000005"><a xlink:title=" ">
<path fill="none" stroke="#63b8ff" d="M428.101,-51.124C415.788,-43.0576 399.688,-33.7795 384,-28.5 339.478,-13.5171 284.094,-10.1477 253.665,-9.5101"/>
<polygon fill="#63b8ff" stroke="#63b8ff" points="426.469,-54.2468 436.708,-56.9701 430.402,-48.4562 426.469,-54.2468"/>
</a>
</g>
</g>
<!-- Node6 -->
<g id="Node000006" class="node"><title>Node6</title>
<g id="a_Node000006"><a xlink:href="heap__sort_8c.html#a1572325ec24b4714bb9bbd64229d85d0" target="_top" xlink:title="Vnitřní a lokální funkce zajišťující vložení hodnoty do zvoleného uzlu haldy, při zachování podmínek ...">
<polygon fill="white" stroke="#666666" points="384,-57 327,-57 327,-38 384,-38 384,-57"/>
<text text-anchor="middle" x="355.5" y="-45" font-family="Helvetica,sans-Serif" font-size="10.00">sift_down</text>
</a>
</g>
</g>
<!-- Node1&#45;&gt;Node6 -->
<g id="edge7_Node000001_Node000006" class="edge"><title>Node1&#45;&gt;Node6</title>
<g id="a_edge7_Node000001_Node000006"><a xlink:title=" ">
<path fill="none" stroke="#63b8ff" d="M409.83,-58.3954C401.13,-56.618 392.104,-54.7739 384.006,-53.1195"/>
<polygon fill="#63b8ff" stroke="#63b8ff" points="409.32,-61.8635 419.819,-60.436 410.722,-55.0051 409.32,-61.8635"/>
</a>
</g>
</g>
<!-- Node3 -->
<g id="Node000003" class="node"><title>Node3</title>
<g id="a_Node000003"><a xlink:href="group___main_program.html#ga0ddf1224851353fc92bfbff6f499fa97" target="_top" xlink:title=" ">
<polygon fill="white" stroke="#666666" points="38,-99 0,-99 0,-80 38,-80 38,-99"/>
<text text-anchor="middle" x="19" y="-87" font-family="Helvetica,sans-Serif" font-size="10.00">main</text>
</a>
</g>
</g>
<!-- Node2&#45;&gt;Node3 -->
<g id="edge2_Node000002_Node000003" class="edge"><title>Node2&#45;&gt;Node3</title>
<g id="a_edge2_Node000002_Node000003"><a xlink:title=" ">
<path fill="none" stroke="#63b8ff" d="M63.7981,-77.2896C54.9394,-79.7593 45.9234,-82.2729 38.3927,-84.3723"/>
<polygon fill="#63b8ff" stroke="#63b8ff" points="64.9528,-80.6013 73.6455,-74.5443 63.0729,-73.8584 64.9528,-80.6013"/>
</a>
</g>
</g>
<!-- Node4&#45;&gt;Node3 -->
<g id="edge4_Node000004_Node000003" class="edge"><title>Node4&#45;&gt;Node3</title>
<g id="a_edge4_Node000004_Node000003"><a xlink:title=" ">
<path fill="none" stroke="#63b8ff" d="M160.397,-112.34C117.569,-105.372 65.5825,-96.9153 38.4728,-92.5052"/>
<polygon fill="#63b8ff" stroke="#63b8ff" points="160.072,-115.833 170.504,-113.984 161.196,-108.924 160.072,-115.833"/>
</a>
</g>
</g>
<!-- Node5&#45;&gt;Node2 -->
<g id="edge6_Node000005_Node000002" class="edge"><title>Node5&#45;&gt;Node2</title>
<g id="a_edge6_Node000005_Node000002"><a xlink:title=" ">
<path fill="none" stroke="#63b8ff" d="M196.818,-21.7383C187.749,-25.358 177.925,-29.4422 169,-33.5 152.855,-40.8403 134.928,-50.1057 122.08,-56.9488"/>
<polygon fill="#63b8ff" stroke="#63b8ff" points="198.258,-24.9329 206.283,-18.0161 195.696,-18.4185 198.258,-24.9329"/>
</a>
</g>
</g>
<!-- Node6&#45;&gt;Node2 -->
<g id="edge8_Node000006_Node000002" class="edge"><title>Node6&#45;&gt;Node2</title>
<g id="a_edge8_Node000006_Node000002"><a xlink:title=" ">
<path fill="none" stroke="#63b8ff" d="M316.639,-50.3774C266.26,-54.2062 178.299,-60.8913 133.102,-64.3262"/>
<polygon fill="#63b8ff" stroke="#63b8ff" points="317.084,-53.8538 326.79,-49.6059 316.554,-46.8739 317.084,-53.8538"/>
</a>
</g>
</g>
<!-- Node6&#45;&gt;Node5 -->
<g id="edge9_Node000006_Node000005" class="edge"><title>Node6&#45;&gt;Node5</title>
<g id="a_edge9_Node000006_Node000005"><a xlink:title=" ">
<path fill="none" stroke="#63b8ff" d="M317.035,-35.9723C296.365,-29.6123 271.377,-21.9236 253.669,-16.475"/>
<polygon fill="#63b8ff" stroke="#63b8ff" points="316.197,-39.3764 326.784,-38.9721 318.256,-32.6859 316.197,-39.3764"/>
</a>
</g>
</g>
</g>
</svg>
