<?xml version="1.0" encoding="UTF-8" standalone="no"?>
<!DOCTYPE svg PUBLIC "-//W3C//DTD SVG 1.1//EN"
 "http://www.w3.org/Graphics/SVG/1.1/DTD/svg11.dtd">
<!-- Generated by graphviz version 2.38.0 (20140413.2041)
 -->
<!-- Title: heap_pos_to_left Pages: 1 -->
<svg width="658pt" height="103pt"
 viewBox="0.00 0.00 658.00 103.00" xmlns="http://www.w3.org/2000/svg" xmlns:xlink="http://www.w3.org/1999/xlink">
<g id="graph0" class="graph" transform="scale(1 1) rotate(0) translate(4 99)">
<title>heap_pos_to_left</title>
<!-- Node1 -->
<g id="Node000001" class="node"><title>Node1</title>
<g id="a_Node000001"><a xlink:title="Vypočte pozici uzlu levého následníka.">
<polygon fill="#999999" stroke="#666666" points="650,-75 560,-75 560,-56 650,-56 650,-75"/>
<text text-anchor="middle" x="605" y="-63" font-family="Helvetica,sans-Serif" font-size="10.00">heap_pos_to_left</text>
</a>
</g>
</g>
<!-- Node2 -->
<g id="Node000002" class="node"><title>Node2</title>
<g id="a_Node000002"><a xlink:href="group___t_heap.html#ga974f2e71745d48caecb94896f5e9b1c5" target="_top" xlink:title="Posunutí iterátoru na levého následníka.">
<polygon fill="white" stroke="#666666" points="524,-94 420,-94 420,-75 524,-75 524,-94"/>
<text text-anchor="middle" x="472" y="-82" font-family="Helvetica,sans-Serif" font-size="10.00">heap_iterator_to_left</text>
</a>
</g>
</g>
<!-- Node1&#45;&gt;Node2 -->
<g id="edge1_Node000001_Node000002" class="edge"><title>Node1&#45;&gt;Node2</title>
<g id="a_edge1_Node000001_Node000002"><a xlink:title=" ">
<path fill="none" stroke="#63b8ff" d="M549.534,-73.3996C541.108,-74.6218 532.43,-75.8803 524.082,-77.0912"/>
<polygon fill="#63b8ff" stroke="#63b8ff" points="550.255,-76.8317 559.649,-71.9325 549.251,-69.9042 550.255,-76.8317"/>
</a>
</g>
</g>
<!-- Node7 -->
<g id="Node000007" class="node"><title>Node7</title>
<g id="a_Node000007"><a xlink:href="heap__sort_8c.html#a1572325ec24b4714bb9bbd64229d85d0" target="_top" xlink:title="Vnitřní a lokální funkce zajišťující vložení hodnoty do zvoleného uzlu haldy, při zachování podmínek ...">
<polygon fill="white" stroke="#666666" points="500.5,-57 443.5,-57 443.5,-38 500.5,-38 500.5,-57"/>
<text text-anchor="middle" x="472" y="-45" font-family="Helvetica,sans-Serif" font-size="10.00">sift_down</text>
</a>
</g>
</g>
<!-- Node1&#45;&gt;Node7 -->
<g id="edge7_Node000001_Node000007" class="edge"><title>Node1&#45;&gt;Node7</title>
<g id="a_edge7_Node000001_Node000007"><a xlink:title=" ">
<path fill="none" stroke="#63b8ff" d="M549.336,-57.9889C532.501,-55.6758 514.685,-53.2277 500.502,-51.2789"/>
<polygon fill="#63b8ff" stroke="#63b8ff" points="549.266,-61.5121 559.649,-59.406 550.219,-54.5773 549.266,-61.5121"/>
</a>
</g>
</g>
<!-- Node3 -->
<g id="Node000003" class="node"><title>Node3</title>
<g id="a_Node000003"><a xlink:href="heap__sort__with__iterators_8c.html#a7bf828c9c4eb35c2121c3f7d1177d19b" target="_top" xlink:title="Vnitřní a lokální funkce zajišťující vložení hodnoty do zvoleného uzlu haldy, při zachování podmínek ...">
<polygon fill="white" stroke="#666666" points="384,-95 327,-95 327,-76 384,-76 384,-95"/>
<text text-anchor="middle" x="355.5" y="-83" font-family="Helvetica,sans-Serif" font-size="10.00">sift_down</text>
</a>
</g>
</g>
<!-- Node2&#45;&gt;Node3 -->
<g id="edge2_Node000002_Node000003" class="edge"><title>Node2&#45;&gt;Node3</title>
<g id="a_edge2_Node000002_Node000003"><a xlink:title=" ">
<path fill="none" stroke="#63b8ff" d="M409.679,-85.0356C400.743,-85.1136 391.94,-85.1905 384.147,-85.2585"/>
<polygon fill="#63b8ff" stroke="#63b8ff" points="409.809,-88.5347 419.778,-84.9474 409.748,-81.5349 409.809,-88.5347"/>
</a>
</g>
</g>
<!-- Node4 -->
<g id="Node000004" class="node"><title>Node4</title>
<g id="a_Node000004"><a xlink:href="group___powerful_sorts.html#ga84762e575f9465881e13d17072186ddd" target="_top" xlink:title="Třídění pomocí haldy (Heap Sort) využívající iterátorové API pro přístup k elementům vektoru.">
<polygon fill="white" stroke="#666666" points="196,-76 74,-76 74,-57 196,-57 196,-76"/>
<text text-anchor="middle" x="135" y="-64" font-family="Helvetica,sans-Serif" font-size="10.00">heap_sort_with_iterators</text>
</a>
</g>
</g>
<!-- Node3&#45;&gt;Node4 -->
<g id="edge3_Node000003_Node000004" class="edge"><title>Node3&#45;&gt;Node4</title>
<g id="a_edge3_Node000003_Node000004"><a xlink:title=" ">
<path fill="none" stroke="#63b8ff" d="M316.487,-86.9188C292.252,-87.3964 260.213,-87.2383 232,-84.5 214.11,-82.7636 194.576,-79.3791 177.827,-76.009"/>
<polygon fill="#63b8ff" stroke="#63b8ff" points="316.783,-90.4127 326.695,-86.6712 316.613,-83.4148 316.783,-90.4127"/>
</a>
</g>
</g>
<!-- Node6 -->
<g id="Node000006" class="node"><title>Node6</title>
<g id="a_Node000006"><a xlink:href="heap__sort__with__iterators_8c.html#aceaf0618c69440f1e439e224eb6945dc" target="_top" xlink:title="Vnitřní a lokální funkce realizující uspořádání elementů vektoru do haldy.">
<polygon fill="white" stroke="#666666" points="285,-76 238,-76 238,-57 285,-57 285,-76"/>
<text text-anchor="middle" x="261.5" y="-64" font-family="Helvetica,sans-Serif" font-size="10.00">heapify</text>
</a>
</g>
</g>
<!-- Node3&#45;&gt;Node6 -->
<g id="edge5_Node000003_Node000006" class="edge"><title>Node3&#45;&gt;Node6</title>
<g id="a_edge5_Node000003_Node000006"><a xlink:title=" ">
<path fill="none" stroke="#63b8ff" d="M316.852,-77.7248C306.089,-75.5021 294.695,-73.149 285.135,-71.1745"/>
<polygon fill="#63b8ff" stroke="#63b8ff" points="316.396,-81.2044 326.897,-79.7994 317.812,-74.3491 316.396,-81.2044"/>
</a>
</g>
</g>
<!-- Node5 -->
<g id="Node000005" class="node"><title>Node5</title>
<g id="a_Node000005"><a xlink:href="group___main_program.html#ga0ddf1224851353fc92bfbff6f499fa97" target="_top" xlink:title=" ">
<polygon fill="white" stroke="#666666" points="38,-57 0,-57 0,-38 38,-38 38,-57"/>
<text text-anchor="middle" x="19" y="-45" font-family="Helvetica,sans-Serif" font-size="10.00">main</text>
</a>
</g>
</g>
<!-- Node4&#45;&gt;Node5 -->
<g id="edge4_Node000004_Node000005" class="edge"><title>Node4&#45;&gt;Node5</title>
<g id="a_edge4_Node000004_Node000005"><a xlink:title=" ">
<path fill="none" stroke="#63b8ff" d="M66.5667,-55.2611C56.1373,-53.5229 46.1905,-51.8651 38.1877,-50.5313"/>
<polygon fill="#63b8ff" stroke="#63b8ff" points="66.2267,-58.7526 76.666,-56.9443 67.3775,-51.8479 66.2267,-58.7526"/>
</a>
</g>
</g>
<!-- Node6&#45;&gt;Node4 -->
<g id="edge6_Node000006_Node000004" class="edge"><title>Node6&#45;&gt;Node4</title>
<g id="a_edge6_Node000006_Node000004"><a xlink:title=" ">
<path fill="none" stroke="#63b8ff" d="M227.886,-66.5C218.085,-66.5 207.005,-66.5 196.018,-66.5"/>
<polygon fill="#63b8ff" stroke="#63b8ff" points="227.954,-70.0001 237.954,-66.5 227.954,-63.0001 227.954,-70.0001"/>
</a>
</g>
</g>
<!-- Node8 -->
<g id="Node000008" class="node"><title>Node8</title>
<g id="a_Node000008"><a xlink:href="group___powerful_sorts.html#gaf564949cc194e5feea63d6c2aaa3125a" target="_top" xlink:title="Třídění pomocí haldy (Heap Sort) využívající poziční API pro přístup k elementům vektoru.">
<polygon fill="white" stroke="#666666" points="291,-38 232,-38 232,-19 291,-19 291,-38"/>
<text text-anchor="middle" x="261.5" y="-26" font-family="Helvetica,sans-Serif" font-size="10.00">heap_sort</text>
</a>
</g>
</g>
<!-- Node7&#45;&gt;Node8 -->
<g id="edge8_Node000007_Node000008" class="edge"><title>Node7&#45;&gt;Node8</title>
<g id="a_edge8_Node000007_Node000008"><a xlink:title=" ">
<path fill="none" stroke="#63b8ff" d="M433.216,-44.0568C392.393,-40.3367 328.246,-34.4912 291.307,-31.1251"/>
<polygon fill="#63b8ff" stroke="#63b8ff" points="433.036,-47.5549 443.313,-44.9769 433.672,-40.5838 433.036,-47.5549"/>
</a>
</g>
</g>
<!-- Node9 -->
<g id="Node000009" class="node"><title>Node9</title>
<g id="a_Node000009"><a xlink:href="heap__sort_8c.html#aceaf0618c69440f1e439e224eb6945dc" target="_top" xlink:title="Vnitřní a lokální funkce realizující uspořádání elementů vektoru do haldy.">
<polygon fill="white" stroke="#666666" points="379,-19 332,-19 332,-0 379,-0 379,-19"/>
<text text-anchor="middle" x="355.5" y="-7" font-family="Helvetica,sans-Serif" font-size="10.00">heapify</text>
</a>
</g>
</g>
<!-- Node7&#45;&gt;Node9 -->
<g id="edge10_Node000007_Node000009" class="edge"><title>Node7&#45;&gt;Node9</title>
<g id="a_edge10_Node000007_Node000009"><a xlink:title=" ">
<path fill="none" stroke="#63b8ff" d="M433.687,-35.1167C415.769,-29.1699 394.872,-22.2349 379.344,-17.0815"/>
<polygon fill="#63b8ff" stroke="#63b8ff" points="432.689,-38.4732 443.283,-38.3013 434.894,-31.8295 432.689,-38.4732"/>
</a>
</g>
</g>
<!-- Node8&#45;&gt;Node5 -->
<g id="edge9_Node000008_Node000005" class="edge"><title>Node8&#45;&gt;Node5</title>
<g id="a_edge9_Node000008_Node000005"><a xlink:title=" ">
<path fill="none" stroke="#63b8ff" d="M221.676,-31.5672C169.032,-35.7261 77.123,-42.9872 38.2215,-46.0605"/>
<polygon fill="#63b8ff" stroke="#63b8ff" points="222.274,-35.0309 231.967,-30.7542 221.722,-28.0527 222.274,-35.0309"/>
</a>
</g>
</g>
<!-- Node9&#45;&gt;Node8 -->
<g id="edge11_Node000009_Node000008" class="edge"><title>Node9&#45;&gt;Node8</title>
<g id="a_edge11_Node000009_Node000008"><a xlink:title=" ">
<path fill="none" stroke="#63b8ff" d="M321.787,-16.256C311.817,-18.315 300.936,-20.5622 291.249,-22.5628"/>
<polygon fill="#63b8ff" stroke="#63b8ff" points="322.673,-19.6469 331.758,-14.1966 321.257,-12.7916 322.673,-19.6469"/>
</a>
</g>
</g>
</g>
</svg>
