<?xml version="1.0" encoding="UTF-8" standalone="no"?>
<!DOCTYPE svg PUBLIC "-//W3C//DTD SVG 1.1//EN"
 "http://www.w3.org/Graphics/SVG/1.1/DTD/svg11.dtd">
<!-- Generated by graphviz version 2.38.0 (20140413.2041)
 -->
<!-- Title: heap_swap_with_iterators Pages: 1 -->
<svg width="476pt" height="76pt"
 viewBox="0.00 0.00 476.00 75.50" xmlns="http://www.w3.org/2000/svg" xmlns:xlink="http://www.w3.org/1999/xlink">
<g id="graph0" class="graph" transform="scale(1 1) rotate(0) translate(4 71.5)">
<title>heap_swap_with_iterators</title>
<!-- Node1 -->
<g id="Node000001" class="node"><title>Node1</title>
<g id="a_Node000001"><a xlink:title="Výměna hodnot uzlů haldy určených dvěma iterátory.">
<polygon fill="#999999" stroke="#666666" points="128,-45.5 0,-45.5 0,-26.5 128,-26.5 128,-45.5"/>
<text text-anchor="middle" x="64" y="-33.5" font-family="Helvetica,sans-Serif" font-size="10.00">heap_swap_with_iterators</text>
</a>
</g>
</g>
<!-- Node2 -->
<g id="Node000002" class="node"><title>Node2</title>
<g id="a_Node000002"><a xlink:href="group__sortable___t_vector_iterator.html#gac16589d02c81c789a7fa6cd323a49013" target="_top" xlink:title="Výměna hodnot elementů vektorů určených dvěma iterátory.">
<polygon fill="white" stroke="#666666" points="297,-45.5 164,-45.5 164,-26.5 297,-26.5 297,-45.5"/>
<text text-anchor="middle" x="230.5" y="-33.5" font-family="Helvetica,sans-Serif" font-size="10.00">vector_swap_with_iterators</text>
</a>
</g>
</g>
<!-- Node1&#45;&gt;Node2 -->
<g id="edge1_Node000001_Node000002" class="edge"><title>Node1&#45;&gt;Node2</title>
<g id="a_edge1_Node000001_Node000002"><a xlink:title=" ">
<path fill="none" stroke="#63b8ff" d="M128.13,-36C136.53,-36 145.213,-36 153.8,-36"/>
<polygon fill="#63b8ff" stroke="#63b8ff" points="153.813,-39.5001 163.813,-36 153.813,-32.5001 153.813,-39.5001"/>
</a>
</g>
</g>
<!-- Node3 -->
<g id="Node000003" class="node"><title>Node3</title>
<g id="a_Node000003"><a xlink:href="_t_vector_8c.html#ac70bbb23ab1ec16b867b3e33d40ae1c4" target="_top" xlink:title=" ">
<polygon fill="white" stroke="#666666" points="468,-67.5 333,-67.5 333,-48.5 468,-48.5 468,-67.5"/>
<text text-anchor="middle" x="400.5" y="-55.5" font-family="Helvetica,sans-Serif" font-size="10.00">vector_fast_swap_positions</text>
</a>
</g>
</g>
<!-- Node2&#45;&gt;Node3 -->
<g id="edge2_Node000002_Node000003" class="edge"><title>Node2&#45;&gt;Node3</title>
<g id="a_edge2_Node000002_Node000003"><a xlink:title=" ">
<path fill="none" stroke="#63b8ff" d="M297.416,-44.6318C305.807,-45.7307 314.451,-46.8626 322.991,-47.9809"/>
<polygon fill="#63b8ff" stroke="#63b8ff" points="322.577,-51.4565 332.946,-49.2847 323.486,-44.5158 322.577,-51.4565"/>
</a>
</g>
</g>
<!-- Node4 -->
<g id="Node000004" class="node"><title>Node4</title>
<g id="a_Node000004"><a xlink:href="group___t_vector_iterator.html#ga3f8a97a63f887539e270f6845bf22b9a" target="_top" xlink:title="Zjištění platnosti iterátoru.">
<polygon fill="white" stroke="#666666" points="445.5,-30 355.5,-30 355.5,-0 445.5,-0 445.5,-30"/>
<text text-anchor="start" x="363.5" y="-18" font-family="Helvetica,sans-Serif" font-size="10.00">vector_iterator_is</text>
<text text-anchor="middle" x="400.5" y="-7" font-family="Helvetica,sans-Serif" font-size="10.00">_valid</text>
</a>
</g>
</g>
<!-- Node2&#45;&gt;Node4 -->
<g id="edge3_Node000002_Node000004" class="edge"><title>Node2&#45;&gt;Node4</title>
<g id="a_edge3_Node000002_Node000004"><a xlink:title=" ">
<path fill="none" stroke="#63b8ff" d="M297.416,-27.7605C313.175,-25.7906 329.827,-23.7092 345.005,-21.8118"/>
<polygon fill="#63b8ff" stroke="#63b8ff" points="345.761,-25.2447 355.249,-20.5313 344.892,-18.2988 345.761,-25.2447"/>
</a>
</g>
</g>
</g>
</svg>
