<?xml version="1.0" encoding="UTF-8" standalone="no"?>
<!DOCTYPE svg PUBLIC "-//W3C//DTD SVG 1.1//EN"
 "http://www.w3.org/Graphics/SVG/1.1/DTD/svg11.dtd">
<!-- Generated by graphviz version 2.38.0 (20140413.2041)
 -->
<!-- Title: vector_move_with_iterators Pages: 1 -->
<svg width="713pt" height="84pt"
 viewBox="0.00 0.00 713.00 84.00" xmlns="http://www.w3.org/2000/svg" xmlns:xlink="http://www.w3.org/1999/xlink">
<g id="graph0" class="graph" transform="scale(1 1) rotate(0) translate(4 80)">
<title>vector_move_with_iterators</title>
<!-- Node1 -->
<g id="Node000001" class="node"><title>Node1</title>
<g id="a_Node000001"><a xlink:title="Přesun hodnoty elementu vektoru určené dvěma iterátory.">
<polygon fill="#999999" stroke="#666666" points="705,-57 572,-57 572,-38 705,-38 705,-57"/>
<text text-anchor="middle" x="638.5" y="-45" font-family="Helvetica,sans-Serif" font-size="10.00">vector_move_with_iterators</text>
</a>
</g>
</g>
<!-- Node2 -->
<g id="Node000002" class="node"><title>Node2</title>
<g id="a_Node000002"><a xlink:href="group___t_heap.html#gaa7548708d4ee2e6afd1366cccc135f6a" target="_top" xlink:title="Přesun hodnoty uzlu haldy určené dvěma iterátory.">
<polygon fill="white" stroke="#666666" points="536,-76 408,-76 408,-57 536,-57 536,-76"/>
<text text-anchor="middle" x="472" y="-64" font-family="Helvetica,sans-Serif" font-size="10.00">heap_move_with_iterators</text>
</a>
</g>
</g>
<!-- Node1&#45;&gt;Node2 -->
<g id="edge1_Node000001_Node000002" class="edge"><title>Node1&#45;&gt;Node2</title>
<g id="a_edge1_Node000001_Node000002"><a xlink:title=" ">
<path fill="none" stroke="#63b8ff" d="M561.573,-56.2697C553.028,-57.2566 544.392,-58.2541 536.036,-59.2193"/>
<polygon fill="#63b8ff" stroke="#63b8ff" points="562.007,-59.7429 571.539,-55.1185 561.204,-52.7891 562.007,-59.7429"/>
</a>
</g>
</g>
<!-- Node7 -->
<g id="Node000007" class="node"><title>Node7</title>
<g id="a_Node000007"><a xlink:href="group___t_span.html#ga972048723036512595f461c3ba0a9d21" target="_top" xlink:title="Přesun hodnoty elementu Spanu určené dvěma iterátory.">
<polygon fill="white" stroke="#666666" points="536,-39 408,-39 408,-20 536,-20 536,-39"/>
<text text-anchor="middle" x="472" y="-27" font-family="Helvetica,sans-Serif" font-size="10.00">span_move_with_iterators</text>
</a>
</g>
</g>
<!-- Node1&#45;&gt;Node7 -->
<g id="edge8_Node000001_Node000007" class="edge"><title>Node1&#45;&gt;Node7</title>
<g id="a_edge8_Node000001_Node000007"><a xlink:title=" ">
<path fill="none" stroke="#63b8ff" d="M561.573,-39.1919C553.028,-38.2569 544.392,-37.3119 536.036,-36.3975"/>
<polygon fill="#63b8ff" stroke="#63b8ff" points="561.218,-42.6738 571.539,-40.2824 561.979,-35.7154 561.218,-42.6738"/>
</a>
</g>
</g>
<!-- Node3 -->
<g id="Node000003" class="node"><title>Node3</title>
<g id="a_Node000003"><a xlink:href="group___powerful_sorts.html#ga84762e575f9465881e13d17072186ddd" target="_top" xlink:title="Třídění pomocí haldy (Heap Sort) využívající iterátorové API pro přístup k elementům vektoru.">
<polygon fill="white" stroke="#666666" points="196,-57 74,-57 74,-38 196,-38 196,-57"/>
<text text-anchor="middle" x="135" y="-45" font-family="Helvetica,sans-Serif" font-size="10.00">heap_sort_with_iterators</text>
</a>
</g>
</g>
<!-- Node2&#45;&gt;Node3 -->
<g id="edge2_Node000002_Node000003" class="edge"><title>Node2&#45;&gt;Node3</title>
<g id="a_edge2_Node000002_Node000003"><a xlink:title=" ">
<path fill="none" stroke="#63b8ff" d="M397.754,-68.0515C350.357,-68.2956 287.386,-67.1964 232,-61.5 220.272,-60.2937 207.78,-58.7004 195.818,-57.0219"/>
<polygon fill="#63b8ff" stroke="#63b8ff" points="397.952,-71.5502 407.927,-67.9773 397.901,-64.5504 397.952,-71.5502"/>
</a>
</g>
</g>
<!-- Node5 -->
<g id="Node000005" class="node"><title>Node5</title>
<g id="a_Node000005"><a xlink:href="heap__sort__with__iterators_8c.html#a7bf828c9c4eb35c2121c3f7d1177d19b" target="_top" xlink:title="Vnitřní a lokální funkce zajišťující vložení hodnoty do zvoleného uzlu haldy, při zachování podmínek ...">
<polygon fill="white" stroke="#666666" points="372,-57 315,-57 315,-38 372,-38 372,-57"/>
<text text-anchor="middle" x="343.5" y="-45" font-family="Helvetica,sans-Serif" font-size="10.00">sift_down</text>
</a>
</g>
</g>
<!-- Node2&#45;&gt;Node5 -->
<g id="edge4_Node000002_Node000005" class="edge"><title>Node2&#45;&gt;Node5</title>
<g id="a_edge4_Node000002_Node000005"><a xlink:title=" ">
<path fill="none" stroke="#63b8ff" d="M397.844,-55.5121C388.782,-54.151 379.998,-52.8316 372.261,-51.6696"/>
<polygon fill="#63b8ff" stroke="#63b8ff" points="397.341,-58.9758 407.75,-57 398.381,-52.0534 397.341,-58.9758"/>
</a>
</g>
</g>
<!-- Node4 -->
<g id="Node000004" class="node"><title>Node4</title>
<g id="a_Node000004"><a xlink:href="group___main_program.html#ga0ddf1224851353fc92bfbff6f499fa97" target="_top" xlink:title=" ">
<polygon fill="white" stroke="#666666" points="38,-57 0,-57 0,-38 38,-38 38,-57"/>
<text text-anchor="middle" x="19" y="-45" font-family="Helvetica,sans-Serif" font-size="10.00">main</text>
</a>
</g>
</g>
<!-- Node3&#45;&gt;Node4 -->
<g id="edge3_Node000003_Node000004" class="edge"><title>Node3&#45;&gt;Node4</title>
<g id="a_edge3_Node000003_Node000004"><a xlink:title=" ">
<path fill="none" stroke="#63b8ff" d="M63.9621,-47.5C54.4658,-47.5 45.4797,-47.5 38.1365,-47.5"/>
<polygon fill="#63b8ff" stroke="#63b8ff" points="63.9954,-51.0001 73.9954,-47.5 63.9953,-44.0001 63.9954,-51.0001"/>
</a>
</g>
</g>
<!-- Node5&#45;&gt;Node3 -->
<g id="edge5_Node000005_Node000003" class="edge"><title>Node5&#45;&gt;Node3</title>
<g id="a_edge5_Node000005_Node000003"><a xlink:title=" ">
<path fill="none" stroke="#63b8ff" d="M304.51,-47.5C274.252,-47.5 231.321,-47.5 196.366,-47.5"/>
<polygon fill="#63b8ff" stroke="#63b8ff" points="304.651,-51.0001 314.65,-47.5 304.65,-44.0001 304.651,-51.0001"/>
</a>
</g>
</g>
<!-- Node6 -->
<g id="Node000006" class="node"><title>Node6</title>
<g id="a_Node000006"><a xlink:href="heap__sort__with__iterators_8c.html#aceaf0618c69440f1e439e224eb6945dc" target="_top" xlink:title="Vnitřní a lokální funkce realizující uspořádání elementů vektoru do haldy.">
<polygon fill="white" stroke="#666666" points="279,-19 232,-19 232,-0 279,-0 279,-19"/>
<text text-anchor="middle" x="255.5" y="-7" font-family="Helvetica,sans-Serif" font-size="10.00">heapify</text>
</a>
</g>
</g>
<!-- Node5&#45;&gt;Node6 -->
<g id="edge6_Node000005_Node000006" class="edge"><title>Node5&#45;&gt;Node6</title>
<g id="a_edge6_Node000005_Node000006"><a xlink:title=" ">
<path fill="none" stroke="#63b8ff" d="M311.481,-33.7938C300.45,-28.9199 288.277,-23.5409 278.194,-19.0859"/>
<polygon fill="#63b8ff" stroke="#63b8ff" points="310.237,-37.0707 320.799,-37.911 313.066,-30.6679 310.237,-37.0707"/>
</a>
</g>
</g>
<!-- Node6&#45;&gt;Node3 -->
<g id="edge7_Node000006_Node000003" class="edge"><title>Node6&#45;&gt;Node3</title>
<g id="a_edge7_Node000006_Node000003"><a xlink:title=" ">
<path fill="none" stroke="#63b8ff" d="M222.086,-19.8944C204.466,-25.5447 182.831,-32.4823 165.659,-37.9891"/>
<polygon fill="#63b8ff" stroke="#63b8ff" points="223.479,-23.1234 231.932,-16.737 221.341,-16.4578 223.479,-23.1234"/>
</a>
</g>
</g>
</g>
</svg>
