<?xml version="1.0" encoding="UTF-8" standalone="no"?>
<!DOCTYPE svg PUBLIC "-//W3C//DTD SVG 1.1//EN"
 "http://www.w3.org/Graphics/SVG/1.1/DTD/svg11.dtd">
<!-- Generated by graphviz version 2.38.0 (20140413.2041)
 -->
<!-- Title: heap_iterator_set_value Pages: 1 -->
<svg width="404pt" height="76pt"
 viewBox="0.00 0.00 404.00 75.50" xmlns="http://www.w3.org/2000/svg" xmlns:xlink="http://www.w3.org/1999/xlink">
<g id="graph0" class="graph" transform="scale(1 1) rotate(0) translate(4 71.5)">
<title>heap_iterator_set_value</title>
<!-- Node1 -->
<g id="Node000001" class="node"><title>Node1</title>
<g id="a_Node000001"><a xlink:title="Zapsání hodnoty uzlu haldy pomocí iterátoru.">
<polygon fill="#999999" stroke="#666666" points="119,-45.5 -7.10543e-015,-45.5 -7.10543e-015,-26.5 119,-26.5 119,-45.5"/>
<text text-anchor="middle" x="59.5" y="-33.5" font-family="Helvetica,sans-Serif" font-size="10.00">heap_iterator_set_value</text>
</a>
</g>
</g>
<!-- Node2 -->
<g id="Node000002" class="node"><title>Node2</title>
<g id="a_Node000002"><a xlink:href="group___t_vector_iterator.html#ga66f6b96e416a7e593b1cf703f58be7ca" target="_top" xlink:title="Zapsání hodnoty elementu do vektoru pomocí iterátoru.">
<polygon fill="white" stroke="#666666" points="251,-51 155,-51 155,-21 251,-21 251,-51"/>
<text text-anchor="start" x="163" y="-39" font-family="Helvetica,sans-Serif" font-size="10.00">vector_iterator_set</text>
<text text-anchor="middle" x="203" y="-28" font-family="Helvetica,sans-Serif" font-size="10.00">_value</text>
</a>
</g>
</g>
<!-- Node1&#45;&gt;Node2 -->
<g id="edge1_Node000001_Node000002" class="edge"><title>Node1&#45;&gt;Node2</title>
<g id="a_edge1_Node000001_Node000002"><a xlink:title=" ">
<path fill="none" stroke="#63b8ff" d="M119.279,-36C127.701,-36 136.355,-36 144.746,-36"/>
<polygon fill="#63b8ff" stroke="#63b8ff" points="144.818,-39.5001 154.818,-36 144.818,-32.5001 144.818,-39.5001"/>
</a>
</g>
</g>
<!-- Node3 -->
<g id="Node000003" class="node"><title>Node3</title>
<g id="a_Node000003"><a xlink:href="_t_vector_8c.html#a689bf71829922c70ca1964e125e94217" target="_top" xlink:title=" ">
<polygon fill="white" stroke="#666666" points="396,-67.5 287,-67.5 287,-48.5 396,-48.5 396,-67.5"/>
<text text-anchor="middle" x="341.5" y="-55.5" font-family="Helvetica,sans-Serif" font-size="10.00">vector_fast_set_value</text>
</a>
</g>
</g>
<!-- Node2&#45;&gt;Node3 -->
<g id="edge2_Node000002_Node000003" class="edge"><title>Node2&#45;&gt;Node3</title>
<g id="a_edge2_Node000002_Node000003"><a xlink:title=" ">
<path fill="none" stroke="#63b8ff" d="M251.358,-43.6328C259.549,-44.9529 268.184,-46.3447 276.726,-47.7213"/>
<polygon fill="#63b8ff" stroke="#63b8ff" points="276.248,-51.1894 286.677,-49.3253 277.361,-44.2786 276.248,-51.1894"/>
</a>
</g>
</g>
<!-- Node4 -->
<g id="Node000004" class="node"><title>Node4</title>
<g id="a_Node000004"><a xlink:href="group___t_vector_iterator.html#ga3f8a97a63f887539e270f6845bf22b9a" target="_top" xlink:title="Zjištění platnosti iterátoru.">
<polygon fill="white" stroke="#666666" points="386.5,-30 296.5,-30 296.5,-0 386.5,-0 386.5,-30"/>
<text text-anchor="start" x="304.5" y="-18" font-family="Helvetica,sans-Serif" font-size="10.00">vector_iterator_is</text>
<text text-anchor="middle" x="341.5" y="-7" font-family="Helvetica,sans-Serif" font-size="10.00">_valid</text>
</a>
</g>
</g>
<!-- Node2&#45;&gt;Node4 -->
<g id="edge3_Node000002_Node000004" class="edge"><title>Node2&#45;&gt;Node4</title>
<g id="a_edge3_Node000002_Node000004"><a xlink:title=" ">
<path fill="none" stroke="#63b8ff" d="M251.358,-28.7142C262.674,-26.9733 274.837,-25.102 286.429,-23.3185"/>
<polygon fill="#63b8ff" stroke="#63b8ff" points="287.083,-26.7593 296.434,-21.7794 286.018,-19.8407 287.083,-26.7593"/>
</a>
</g>
</g>
</g>
</svg>
