<?xml version="1.0" encoding="UTF-8" standalone="no"?>
<!DOCTYPE svg PUBLIC "-//W3C//DTD SVG 1.1//EN"
 "http://www.w3.org/Graphics/SVG/1.1/DTD/svg11.dtd">
<!-- Generated by graphviz version 2.38.0 (20140413.2041)
 -->
<!-- Title: span_create_right_subspan Pages: 1 -->
<svg width="503pt" height="45pt"
 viewBox="0.00 0.00 503.00 45.00" xmlns="http://www.w3.org/2000/svg" xmlns:xlink="http://www.w3.org/1999/xlink">
<g id="graph0" class="graph" transform="scale(1 1) rotate(0) translate(4 41)">
<title>span_create_right_subspan</title>
<!-- Node1 -->
<g id="Node000001" class="node"><title>Node1</title>
<g id="a_Node000001"><a xlink:title="Vytvoření SubSpanu jako části od definované pozice až do konce původního Spanu.">
<polygon fill="#999999" stroke="#666666" points="495,-19 359,-19 359,-0 495,-0 495,-19"/>
<text text-anchor="middle" x="427" y="-7" font-family="Helvetica,sans-Serif" font-size="10.00">span_create_right_subspan</text>
</a>
</g>
</g>
<!-- Node2 -->
<g id="Node000002" class="node"><title>Node2</title>
<g id="a_Node000002"><a xlink:href="merge__sort__with__span_8c.html#acfb719292b2ea89b714190280e0021b0" target="_top" xlink:title="Vnitřní a lokální funkce realizující rekurzivní funkci pro metodu (Merge Sort)">
<polygon fill="white" stroke="#666666" points="323,-19 224,-19 224,-0 323,-0 323,-19"/>
<text text-anchor="middle" x="273.5" y="-7" font-family="Helvetica,sans-Serif" font-size="10.00">merge_sort_worker</text>
</a>
</g>
</g>
<!-- Node1&#45;&gt;Node2 -->
<g id="edge1_Node000001_Node000002" class="edge"><title>Node1&#45;&gt;Node2</title>
<g id="a_edge1_Node000001_Node000002"><a xlink:title=" ">
<path fill="none" stroke="#63b8ff" d="M348.492,-9.5C339.812,-9.5 331.164,-9.5 323.002,-9.5"/>
<polygon fill="#63b8ff" stroke="#63b8ff" points="348.668,-13.0001 358.668,-9.5 348.668,-6.0001 348.668,-13.0001"/>
</a>
</g>
</g>
<!-- Node2&#45;&gt;Node2 -->
<g id="edge4_Node000002_Node000002" class="edge"><title>Node2&#45;&gt;Node2</title>
<g id="a_edge4_Node000002_Node000002"><a xlink:title=" ">
<path fill="none" stroke="#63b8ff" d="M299.914,-28.1894C298.473,-33.1971 289.668,-37 273.5,-37 248.262,-37 240.966,-27.7337 251.614,-19.0828"/>
<polygon fill="#63b8ff" stroke="#63b8ff" points="302.972,-26.4792 295.386,-19.0828 296.704,-29.5954 302.972,-26.4792"/>
</a>
</g>
</g>
<!-- Node3 -->
<g id="Node000003" class="node"><title>Node3</title>
<g id="a_Node000003"><a xlink:href="group___powerful_sorts.html#ga879a216389959b8a25490288ba4e63dc" target="_top" xlink:title="Třídění pomocí metody slučováním (Merge sort) využívající rekurzivní rozklad a datový typ span.">
<polygon fill="white" stroke="#666666" points="188,-19 74,-19 74,-0 188,-0 188,-19"/>
<text text-anchor="middle" x="131" y="-7" font-family="Helvetica,sans-Serif" font-size="10.00">merge_sort_with_span</text>
</a>
</g>
</g>
<!-- Node2&#45;&gt;Node3 -->
<g id="edge2_Node000002_Node000003" class="edge"><title>Node2&#45;&gt;Node3</title>
<g id="a_edge2_Node000002_Node000003"><a xlink:title=" ">
<path fill="none" stroke="#63b8ff" d="M213.68,-9.5C205.303,-9.5 196.704,-9.5 188.375,-9.5"/>
<polygon fill="#63b8ff" stroke="#63b8ff" points="213.754,-13.0001 223.754,-9.5 213.754,-6.0001 213.754,-13.0001"/>
</a>
</g>
</g>
<!-- Node4 -->
<g id="Node000004" class="node"><title>Node4</title>
<g id="a_Node000004"><a xlink:href="group___main_program.html#ga0ddf1224851353fc92bfbff6f499fa97" target="_top" xlink:title=" ">
<polygon fill="white" stroke="#666666" points="38,-19 0,-19 0,-0 38,-0 38,-19"/>
<text text-anchor="middle" x="19" y="-7" font-family="Helvetica,sans-Serif" font-size="10.00">main</text>
</a>
</g>
</g>
<!-- Node3&#45;&gt;Node4 -->
<g id="edge3_Node000003_Node000004" class="edge"><title>Node3&#45;&gt;Node4</title>
<g id="a_edge3_Node000003_Node000004"><a xlink:title=" ">
<path fill="none" stroke="#63b8ff" d="M63.5065,-9.5C54.2189,-9.5 45.389,-9.5 38.1411,-9.5"/>
<polygon fill="#63b8ff" stroke="#63b8ff" points="63.7111,-13.0001 73.711,-9.5 63.711,-6.0001 63.7111,-13.0001"/>
</a>
</g>
</g>
</g>
</svg>
