<?xml version="1.0" encoding="UTF-8" standalone="no"?>
<!DOCTYPE svg PUBLIC "-//W3C//DTD SVG 1.1//EN"
 "http://www.w3.org/Graphics/SVG/1.1/DTD/svg11.dtd">
<!-- Generated by graphviz version 2.38.0 (20140413.2041)
 -->
<!-- Title: vector_swap_with_iterator_value Pages: 1 -->
<svg width="295pt" height="86pt"
 viewBox="0.00 0.00 295.00 86.00" xmlns="http://www.w3.org/2000/svg" xmlns:xlink="http://www.w3.org/1999/xlink">
<g id="graph0" class="graph" transform="scale(1 1) rotate(0) translate(4 82)">
<title>vector_swap_with_iterator_value</title>
<!-- Node1 -->
<g id="Node000001" class="node"><title>Node1</title>
<g id="a_Node000001"><a xlink:title="Výměna mezi hodnotou elementu vektoru určenou iterátorem a proměnnou typu VectorElement.">
<polygon fill="#999999" stroke="#666666" points="287,-54 159,-54 159,-24 287,-24 287,-54"/>
<text text-anchor="start" x="167" y="-42" font-family="Helvetica,sans-Serif" font-size="10.00">vector_swap_with_iterator</text>
<text text-anchor="middle" x="223" y="-31" font-family="Helvetica,sans-Serif" font-size="10.00">_value</text>
</a>
</g>
</g>
<!-- Node2 -->
<g id="Node000002" class="node"><title>Node2</title>
<g id="a_Node000002"><a xlink:href="group___t_heap.html#gada6619039c74de7852ababa894ff4029" target="_top" xlink:title="Výměna mezi hodnotou v uzlu haldy určenou iterátorem a proměnnou typu HeapElement.">
<polygon fill="white" stroke="#666666" points="123,-78 0,-78 0,-48 123,-48 123,-78"/>
<text text-anchor="start" x="8" y="-66" font-family="Helvetica,sans-Serif" font-size="10.00">heap_swap_with_iterator</text>
<text text-anchor="middle" x="61.5" y="-55" font-family="Helvetica,sans-Serif" font-size="10.00">_value</text>
</a>
</g>
</g>
<!-- Node1&#45;&gt;Node2 -->
<g id="edge1_Node000001_Node000002" class="edge"><title>Node1&#45;&gt;Node2</title>
<g id="a_edge1_Node000001_Node000002"><a xlink:title=" ">
<path fill="none" stroke="#63b8ff" d="M148.947,-49.9924C140.354,-51.2853 131.657,-52.5939 123.259,-53.8576"/>
<polygon fill="#63b8ff" stroke="#63b8ff" points="149.594,-53.4345 158.961,-48.4854 148.552,-46.5124 149.594,-53.4345"/>
</a>
</g>
</g>
<!-- Node3 -->
<g id="Node000003" class="node"><title>Node3</title>
<g id="a_Node000003"><a xlink:href="group___t_span.html#ga87439f0c5045aa7f177a37558b60d397" target="_top" xlink:title="Výměna mezi hodnotou elementu Spanu určenou iterátorem a proměnnou typu SpanElement.">
<polygon fill="white" stroke="#666666" points="123,-30 0,-30 0,-0 123,-0 123,-30"/>
<text text-anchor="start" x="8" y="-18" font-family="Helvetica,sans-Serif" font-size="10.00">span_swap_with_iterator</text>
<text text-anchor="middle" x="61.5" y="-7" font-family="Helvetica,sans-Serif" font-size="10.00">_value</text>
</a>
</g>
</g>
<!-- Node1&#45;&gt;Node3 -->
<g id="edge2_Node000001_Node000003" class="edge"><title>Node1&#45;&gt;Node3</title>
<g id="a_edge2_Node000001_Node000003"><a xlink:title=" ">
<path fill="none" stroke="#63b8ff" d="M148.947,-28.0076C140.354,-26.7147 131.657,-25.4061 123.259,-24.1424"/>
<polygon fill="#63b8ff" stroke="#63b8ff" points="148.552,-31.4876 158.961,-29.5146 149.594,-24.5655 148.552,-31.4876"/>
</a>
</g>
</g>
</g>
</svg>
