<?xml version="1.0" encoding="UTF-8" standalone="no"?>
<!DOCTYPE svg PUBLIC "-//W3C//DTD SVG 1.1//EN"
 "http://www.w3.org/Graphics/SVG/1.1/DTD/svg11.dtd">
<!-- Generated by graphviz version 2.38.0 (20140413.2041)
 -->
<!-- Title: vector_clone Pages: 1 -->
<svg width="407pt" height="152pt"
 viewBox="0.00 0.00 407.00 151.50" xmlns="http://www.w3.org/2000/svg" xmlns:xlink="http://www.w3.org/1999/xlink">
<g id="graph0" class="graph" transform="scale(1 1) rotate(0) translate(4 147.5)">
<title>vector_clone</title>
<!-- Node1 -->
<g id="Node000001" class="node"><title>Node1</title>
<g id="a_Node000001"><a xlink:title="Vytvoření úplné kopie vektoru.">
<polygon fill="#999999" stroke="#666666" points="399,-86.5 328,-86.5 328,-67.5 399,-67.5 399,-86.5"/>
<text text-anchor="middle" x="363.5" y="-74.5" font-family="Helvetica,sans-Serif" font-size="10.00">vector_clone</text>
</a>
</g>
</g>
<!-- Node2 -->
<g id="Node000002" class="node"><title>Node2</title>
<g id="a_Node000002"><a xlink:href="group___powerful_sorts.html#gaca54b9dda831aa79008867770c96413e" target="_top" xlink:title="Třídění pomocí metody slučováním (Merge sort) využívající rekurzivní rozklad.">
<polygon fill="white" stroke="#666666" points="140.5,-143.5 75.5,-143.5 75.5,-124.5 140.5,-124.5 140.5,-143.5"/>
<text text-anchor="middle" x="108" y="-131.5" font-family="Helvetica,sans-Serif" font-size="10.00">merge_sort</text>
</a>
</g>
</g>
<!-- Node1&#45;&gt;Node2 -->
<g id="edge1_Node000001_Node000002" class="edge"><title>Node1&#45;&gt;Node2</title>
<g id="a_edge1_Node000001_Node000002"><a xlink:title=" ">
<path fill="none" stroke="#63b8ff" d="M340.124,-91.9973C326.737,-100.203 309.058,-109.744 292,-115 240.718,-130.802 177.932,-134.047 140.826,-134.41"/>
<polygon fill="#63b8ff" stroke="#63b8ff" points="342.071,-94.9068 348.646,-86.5985 338.325,-88.9935 342.071,-94.9068"/>
</a>
</g>
</g>
<!-- Node4 -->
<g id="Node000004" class="node"><title>Node4</title>
<g id="a_Node000004"><a xlink:href="group___powerful_sorts.html#ga879a216389959b8a25490288ba4e63dc" target="_top" xlink:title="Třídění pomocí metody slučováním (Merge sort) využívající rekurzivní rozklad a datový typ span.">
<polygon fill="white" stroke="#666666" points="292,-105.5 178,-105.5 178,-86.5 292,-86.5 292,-105.5"/>
<text text-anchor="middle" x="235" y="-93.5" font-family="Helvetica,sans-Serif" font-size="10.00">merge_sort_with_span</text>
</a>
</g>
</g>
<!-- Node1&#45;&gt;Node4 -->
<g id="edge3_Node000001_Node000004" class="edge"><title>Node1&#45;&gt;Node4</title>
<g id="a_edge3_Node000001_Node000004"><a xlink:title=" ">
<path fill="none" stroke="#63b8ff" d="M317.821,-83.7106C309.607,-84.9444 300.935,-86.247 292.429,-87.5245"/>
<polygon fill="#63b8ff" stroke="#63b8ff" points="318.564,-87.1384 327.933,-82.1918 317.524,-80.2161 318.564,-87.1384"/>
</a>
</g>
</g>
<!-- Node5 -->
<g id="Node000005" class="node"><title>Node5</title>
<g id="a_Node000005"><a xlink:href="group___main_program.html#ga7343209645c93203da0a86613abfed04" target="_top" xlink:title="Testování třídicí metody.">
<polygon fill="white" stroke="#666666" points="142,-67.5 74,-67.5 74,-48.5 142,-48.5 142,-67.5"/>
<text text-anchor="middle" x="108" y="-55.5" font-family="Helvetica,sans-Serif" font-size="10.00">sort_testing</text>
</a>
</g>
</g>
<!-- Node1&#45;&gt;Node5 -->
<g id="edge5_Node000001_Node000005" class="edge"><title>Node1&#45;&gt;Node5</title>
<g id="a_edge5_Node000001_Node000005"><a xlink:title=" ">
<path fill="none" stroke="#63b8ff" d="M317.529,-73.6294C267.232,-69.8596 186.954,-63.8427 142.091,-60.4802"/>
<polygon fill="#63b8ff" stroke="#63b8ff" points="317.55,-77.1407 327.783,-74.398 318.073,-70.1603 317.55,-77.1407"/>
</a>
</g>
</g>
<!-- Node6 -->
<g id="Node000006" class="node"><title>Node6</title>
<g id="a_Node000006"><a xlink:href="group__sortable___t_vector.html#ga1b7a4850be6488c69c293bdd13f729a7" target="_top" xlink:title="Ověření korektního setřídění vektoru.">
<polygon fill="white" stroke="#666666" points="291.5,-30 178.5,-30 178.5,-0 291.5,-0 291.5,-30"/>
<text text-anchor="start" x="186.5" y="-18" font-family="Helvetica,sans-Serif" font-size="10.00">vector_is_ascendantly</text>
<text text-anchor="middle" x="235" y="-7" font-family="Helvetica,sans-Serif" font-size="10.00">_sorted</text>
</a>
</g>
</g>
<!-- Node1&#45;&gt;Node6 -->
<g id="edge7_Node000001_Node000006" class="edge"><title>Node1&#45;&gt;Node6</title>
<g id="a_edge7_Node000001_Node000006"><a xlink:title=" ">
<path fill="none" stroke="#63b8ff" d="M333.834,-62.9503C313.948,-53.204 287.477,-40.2299 267.085,-30.2351"/>
<polygon fill="#63b8ff" stroke="#63b8ff" points="332.492,-66.1901 343.012,-67.4484 335.572,-59.9045 332.492,-66.1901"/>
</a>
</g>
</g>
<!-- Node3 -->
<g id="Node000003" class="node"><title>Node3</title>
<g id="a_Node000003"><a xlink:href="group___main_program.html#ga0ddf1224851353fc92bfbff6f499fa97" target="_top" xlink:title=" ">
<polygon fill="white" stroke="#666666" points="38,-105.5 0,-105.5 0,-86.5 38,-86.5 38,-105.5"/>
<text text-anchor="middle" x="19" y="-93.5" font-family="Helvetica,sans-Serif" font-size="10.00">main</text>
</a>
</g>
</g>
<!-- Node2&#45;&gt;Node3 -->
<g id="edge2_Node000002_Node000003" class="edge"><title>Node2&#45;&gt;Node3</title>
<g id="a_edge2_Node000002_Node000003"><a xlink:title=" ">
<path fill="none" stroke="#63b8ff" d="M75.7619,-120.356C63.1353,-114.841 49.0078,-108.67 38.1322,-103.92"/>
<polygon fill="#63b8ff" stroke="#63b8ff" points="74.4813,-123.616 85.0462,-124.411 77.2832,-117.201 74.4813,-123.616"/>
</a>
</g>
</g>
<!-- Node4&#45;&gt;Node3 -->
<g id="edge4_Node000004_Node000003" class="edge"><title>Node4&#45;&gt;Node3</title>
<g id="a_edge4_Node000004_Node000003"><a xlink:title=" ">
<path fill="none" stroke="#63b8ff" d="M167.493,-96C122.546,-96 66.4168,-96 38.1129,-96"/>
<polygon fill="#63b8ff" stroke="#63b8ff" points="167.774,-99.5001 177.774,-96 167.774,-92.5001 167.774,-99.5001"/>
</a>
</g>
</g>
<!-- Node5&#45;&gt;Node3 -->
<g id="edge6_Node000005_Node000003" class="edge"><title>Node5&#45;&gt;Node3</title>
<g id="a_edge6_Node000005_Node000003"><a xlink:title=" ">
<path fill="none" stroke="#63b8ff" d="M75.7619,-71.6442C63.1353,-77.1593 49.0078,-83.3299 38.1322,-88.0802"/>
<polygon fill="#63b8ff" stroke="#63b8ff" points="77.2832,-74.7991 85.0462,-67.589 74.4813,-68.3843 77.2832,-74.7991"/>
</a>
</g>
</g>
<!-- Node6&#45;&gt;Node5 -->
<g id="edge8_Node000006_Node000005" class="edge"><title>Node6&#45;&gt;Node5</title>
<g id="a_edge8_Node000006_Node000005"><a xlink:title=" ">
<path fill="none" stroke="#63b8ff" d="M180.539,-33.3905C165.501,-38.5635 149.75,-43.9819 136.868,-48.4135"/>
<polygon fill="#63b8ff" stroke="#63b8ff" points="181.963,-36.6019 190.281,-30.0393 179.686,-29.9826 181.963,-36.6019"/>
</a>
</g>
</g>
</g>
</svg>
