<?xml version="1.0" encoding="UTF-8" standalone="no"?>
<!DOCTYPE svg PUBLIC "-//W3C//DTD SVG 1.1//EN"
 "http://www.w3.org/Graphics/SVG/1.1/DTD/svg11.dtd">
<!-- Generated by graphviz version 2.38.0 (20140413.2041)
 -->
<!-- Title: heap_pos_to_parent Pages: 1 -->
<svg width="582pt" height="65pt"
 viewBox="0.00 0.00 582.00 65.00" xmlns="http://www.w3.org/2000/svg" xmlns:xlink="http://www.w3.org/1999/xlink">
<g id="graph0" class="graph" transform="scale(1 1) rotate(0) translate(4 61)">
<title>heap_pos_to_parent</title>
<!-- Node1 -->
<g id="Node000001" class="node"><title>Node1</title>
<g id="a_Node000001"><a xlink:title="Vypočte pozici rodičovského uzlu.">
<polygon fill="#999999" stroke="#666666" points="574,-38 470,-38 470,-19 574,-19 574,-38"/>
<text text-anchor="middle" x="522" y="-26" font-family="Helvetica,sans-Serif" font-size="10.00">heap_pos_to_parent</text>
</a>
</g>
</g>
<!-- Node2 -->
<g id="Node000002" class="node"><title>Node2</title>
<g id="a_Node000002"><a xlink:href="group___t_heap.html#ga30a2c6e90b0e73d8a4f682c4a89accc6" target="_top" xlink:title="Posunutí iterátoru na rodičovský uzel.">
<polygon fill="white" stroke="#666666" points="434,-57 315,-57 315,-38 434,-38 434,-57"/>
<text text-anchor="middle" x="374.5" y="-45" font-family="Helvetica,sans-Serif" font-size="10.00">heap_iterator_to_parent</text>
</a>
</g>
</g>
<!-- Node1&#45;&gt;Node2 -->
<g id="edge1_Node000001_Node000002" class="edge"><title>Node1&#45;&gt;Node2</title>
<g id="a_edge1_Node000001_Node000002"><a xlink:title=" ">
<path fill="none" stroke="#63b8ff" d="M459.532,-36.5268C451.083,-37.63 442.426,-38.7605 434.033,-39.8566"/>
<polygon fill="#63b8ff" stroke="#63b8ff" points="460.24,-39.9642 469.702,-35.1987 459.333,-33.0231 460.24,-39.9642"/>
</a>
</g>
</g>
<!-- Node6 -->
<g id="Node000006" class="node"><title>Node6</title>
<g id="a_Node000006"><a xlink:href="heap__sort_8c.html#aceaf0618c69440f1e439e224eb6945dc" target="_top" xlink:title="Vnitřní a lokální funkce realizující uspořádání elementů vektoru do haldy.">
<polygon fill="white" stroke="#666666" points="279,-19 232,-19 232,-0 279,-0 279,-19"/>
<text text-anchor="middle" x="255.5" y="-7" font-family="Helvetica,sans-Serif" font-size="10.00">heapify</text>
</a>
</g>
</g>
<!-- Node1&#45;&gt;Node6 -->
<g id="edge5_Node000001_Node000006" class="edge"><title>Node1&#45;&gt;Node6</title>
<g id="a_edge5_Node000001_Node000006"><a xlink:title=" ">
<path fill="none" stroke="#63b8ff" d="M459.606,-24.0899C402.026,-19.9536 319.016,-13.9908 279.323,-11.1394"/>
<polygon fill="#63b8ff" stroke="#63b8ff" points="459.463,-27.5885 469.688,-24.8141 459.965,-20.6065 459.463,-27.5885"/>
</a>
</g>
</g>
<!-- Node3 -->
<g id="Node000003" class="node"><title>Node3</title>
<g id="a_Node000003"><a xlink:href="heap__sort__with__iterators_8c.html#aceaf0618c69440f1e439e224eb6945dc" target="_top" xlink:title="Vnitřní a lokální funkce realizující uspořádání elementů vektoru do haldy.">
<polygon fill="white" stroke="#666666" points="279,-56 232,-56 232,-37 279,-37 279,-56"/>
<text text-anchor="middle" x="255.5" y="-44" font-family="Helvetica,sans-Serif" font-size="10.00">heapify</text>
</a>
</g>
</g>
<!-- Node2&#45;&gt;Node3 -->
<g id="edge2_Node000002_Node000003" class="edge"><title>Node2&#45;&gt;Node3</title>
<g id="a_edge2_Node000002_Node000003"><a xlink:title=" ">
<path fill="none" stroke="#63b8ff" d="M304.639,-46.9114C295.492,-46.8333 286.694,-46.7581 279.179,-46.6938"/>
<polygon fill="#63b8ff" stroke="#63b8ff" points="304.628,-50.4114 314.657,-46.9971 304.688,-43.4116 304.628,-50.4114"/>
</a>
</g>
</g>
<!-- Node4 -->
<g id="Node000004" class="node"><title>Node4</title>
<g id="a_Node000004"><a xlink:href="group___powerful_sorts.html#ga84762e575f9465881e13d17072186ddd" target="_top" xlink:title="Třídění pomocí haldy (Heap Sort) využívající iterátorové API pro přístup k elementům vektoru.">
<polygon fill="white" stroke="#666666" points="196,-56 74,-56 74,-37 196,-37 196,-56"/>
<text text-anchor="middle" x="135" y="-44" font-family="Helvetica,sans-Serif" font-size="10.00">heap_sort_with_iterators</text>
</a>
</g>
</g>
<!-- Node3&#45;&gt;Node4 -->
<g id="edge3_Node000003_Node000004" class="edge"><title>Node3&#45;&gt;Node4</title>
<g id="a_edge3_Node000003_Node000004"><a xlink:title=" ">
<path fill="none" stroke="#63b8ff" d="M221.662,-46.5C213.714,-46.5 204.97,-46.5 196.199,-46.5"/>
<polygon fill="#63b8ff" stroke="#63b8ff" points="221.932,-50.0001 231.932,-46.5 221.932,-43.0001 221.932,-50.0001"/>
</a>
</g>
</g>
<!-- Node5 -->
<g id="Node000005" class="node"><title>Node5</title>
<g id="a_Node000005"><a xlink:href="group___main_program.html#ga0ddf1224851353fc92bfbff6f499fa97" target="_top" xlink:title=" ">
<polygon fill="white" stroke="#666666" points="38,-37 0,-37 0,-18 38,-18 38,-37"/>
<text text-anchor="middle" x="19" y="-25" font-family="Helvetica,sans-Serif" font-size="10.00">main</text>
</a>
</g>
</g>
<!-- Node4&#45;&gt;Node5 -->
<g id="edge4_Node000004_Node000005" class="edge"><title>Node4&#45;&gt;Node5</title>
<g id="a_edge4_Node000004_Node000005"><a xlink:title=" ">
<path fill="none" stroke="#63b8ff" d="M66.5667,-35.2611C56.1373,-33.5229 46.1905,-31.8651 38.1877,-30.5313"/>
<polygon fill="#63b8ff" stroke="#63b8ff" points="66.2267,-38.7526 76.666,-36.9443 67.3775,-31.8479 66.2267,-38.7526"/>
</a>
</g>
</g>
<!-- Node7 -->
<g id="Node000007" class="node"><title>Node7</title>
<g id="a_Node000007"><a xlink:href="group___powerful_sorts.html#gaf564949cc194e5feea63d6c2aaa3125a" target="_top" xlink:title="Třídění pomocí haldy (Heap Sort) využívající poziční API pro přístup k elementům vektoru.">
<polygon fill="white" stroke="#666666" points="164.5,-19 105.5,-19 105.5,-0 164.5,-0 164.5,-19"/>
<text text-anchor="middle" x="135" y="-7" font-family="Helvetica,sans-Serif" font-size="10.00">heap_sort</text>
</a>
</g>
</g>
<!-- Node6&#45;&gt;Node7 -->
<g id="edge6_Node000006_Node000007" class="edge"><title>Node6&#45;&gt;Node7</title>
<g id="a_edge6_Node000006_Node000007"><a xlink:title=" ">
<path fill="none" stroke="#63b8ff" d="M221.686,-9.5C203.838,-9.5 181.962,-9.5 164.782,-9.5"/>
<polygon fill="#63b8ff" stroke="#63b8ff" points="221.932,-13.0001 231.932,-9.5 221.932,-6.0001 221.932,-13.0001"/>
</a>
</g>
</g>
<!-- Node7&#45;&gt;Node5 -->
<g id="edge7_Node000007_Node000005" class="edge"><title>Node7&#45;&gt;Node5</title>
<g id="a_edge7_Node000007_Node000005"><a xlink:title=" ">
<path fill="none" stroke="#63b8ff" d="M95.1649,-15.6319C75.8207,-18.6862 53.3594,-22.2327 38.0636,-24.6478"/>
<polygon fill="#63b8ff" stroke="#63b8ff" points="95.9013,-19.059 105.233,-14.0422 94.8095,-12.1447 95.9013,-19.059"/>
</a>
</g>
</g>
</g>
</svg>
