<?xml version="1.0" encoding="UTF-8" standalone="no"?>
<!DOCTYPE svg PUBLIC "-//W3C//DTD SVG 1.1//EN"
 "http://www.w3.org/Graphics/SVG/1.1/DTD/svg11.dtd">
<!-- Generated by graphviz version 2.38.0 (20140413.2041)
 -->
<!-- Title: heap_iterator_to_prev Pages: 1 -->
<svg width="392pt" height="38pt"
 viewBox="0.00 0.00 392.00 38.00" xmlns="http://www.w3.org/2000/svg" xmlns:xlink="http://www.w3.org/1999/xlink">
<g id="graph0" class="graph" transform="scale(1 1) rotate(0) translate(4 34)">
<title>heap_iterator_to_prev</title>
<!-- Node1 -->
<g id="Node000001" class="node"><title>Node1</title>
<g id="a_Node000001"><a xlink:title="Posunutí iterátoru vzad.">
<polygon fill="#999999" stroke="#666666" points="109,-24.5 0,-24.5 0,-5.5 109,-5.5 109,-24.5"/>
<text text-anchor="middle" x="54.5" y="-12.5" font-family="Helvetica,sans-Serif" font-size="10.00">heap_iterator_to_prev</text>
</a>
</g>
</g>
<!-- Node2 -->
<g id="Node000002" class="node"><title>Node2</title>
<g id="a_Node000002"><a xlink:href="group___t_vector_iterator.html#ga8e1e1cc570f8a1c2bf1fb73c0d3c8826" target="_top" xlink:title="Posunutí iterátoru vzad.">
<polygon fill="white" stroke="#666666" points="258,-24.5 145,-24.5 145,-5.5 258,-5.5 258,-24.5"/>
<text text-anchor="middle" x="201.5" y="-12.5" font-family="Helvetica,sans-Serif" font-size="10.00">vector_iterator_to_prev</text>
</a>
</g>
</g>
<!-- Node1&#45;&gt;Node2 -->
<g id="edge1_Node000001_Node000002" class="edge"><title>Node1&#45;&gt;Node2</title>
<g id="a_edge1_Node000001_Node000002"><a xlink:title=" ">
<path fill="none" stroke="#63b8ff" d="M109.081,-15C117.34,-15 125.951,-15 134.443,-15"/>
<polygon fill="#63b8ff" stroke="#63b8ff" points="134.711,-18.5001 144.711,-15 134.711,-11.5001 134.711,-18.5001"/>
</a>
</g>
</g>
<!-- Node3 -->
<g id="Node000003" class="node"><title>Node3</title>
<g id="a_Node000003"><a xlink:href="group___t_vector_iterator.html#ga3f8a97a63f887539e270f6845bf22b9a" target="_top" xlink:title="Zjištění platnosti iterátoru.">
<polygon fill="white" stroke="#666666" points="384,-30 294,-30 294,-0 384,-0 384,-30"/>
<text text-anchor="start" x="302" y="-18" font-family="Helvetica,sans-Serif" font-size="10.00">vector_iterator_is</text>
<text text-anchor="middle" x="339" y="-7" font-family="Helvetica,sans-Serif" font-size="10.00">_valid</text>
</a>
</g>
</g>
<!-- Node2&#45;&gt;Node3 -->
<g id="edge2_Node000002_Node000003" class="edge"><title>Node2&#45;&gt;Node3</title>
<g id="a_edge2_Node000002_Node000003"><a xlink:title=" ">
<path fill="none" stroke="#63b8ff" d="M258.004,-15C266.525,-15 275.314,-15 283.807,-15"/>
<polygon fill="#63b8ff" stroke="#63b8ff" points="283.981,-18.5001 293.981,-15 283.981,-11.5001 283.981,-18.5001"/>
</a>
</g>
</g>
</g>
</svg>
