<?xml version="1.0" encoding="UTF-8" standalone="no"?>
<!DOCTYPE svg PUBLIC "-//W3C//DTD SVG 1.1//EN"
 "http://www.w3.org/Graphics/SVG/1.1/DTD/svg11.dtd">
<!-- Generated by graphviz version 2.38.0 (20140413.2041)
 -->
<!-- Title: print_element Pages: 1 -->
<svg width="371pt" height="91pt"
 viewBox="0.00 0.00 371.00 90.50" xmlns="http://www.w3.org/2000/svg" xmlns:xlink="http://www.w3.org/1999/xlink">
<g id="graph0" class="graph" transform="scale(1 1) rotate(0) translate(4 86.5)">
<title>print_element</title>
<!-- Node1 -->
<g id="Node000001" class="node"><title>Node1</title>
<g id="a_Node000001"><a xlink:title="Vytisknutí elementu vektoru pomocí iterátoru.">
<polygon fill="#999999" stroke="#666666" points="75,-63.5 0,-63.5 0,-44.5 75,-44.5 75,-63.5"/>
<text text-anchor="middle" x="37.5" y="-51.5" font-family="Helvetica,sans-Serif" font-size="10.00">print_element</text>
</a>
</g>
</g>
<!-- Node2 -->
<g id="Node000002" class="node"><title>Node2</title>
<g id="a_Node000002"><a xlink:href="group___t_vector_element.html#gaaae5b52d7f1d155134792f040f00a385" target="_top" xlink:title="Uložení elementu do souboru.">
<polygon fill="white" stroke="#666666" points="237,-82.5 111,-82.5 111,-63.5 237,-63.5 237,-82.5"/>
<text text-anchor="middle" x="174" y="-70.5" font-family="Helvetica,sans-Serif" font-size="10.00">vector_element_store_file</text>
</a>
</g>
</g>
<!-- Node1&#45;&gt;Node2 -->
<g id="edge1_Node000001_Node000002" class="edge"><title>Node1&#45;&gt;Node2</title>
<g id="a_edge1_Node000001_Node000002"><a xlink:title=" ">
<path fill="none" stroke="#63b8ff" d="M75.2527,-59.1918C83.2773,-60.3254 92.037,-61.5628 100.91,-62.8162"/>
<polygon fill="#63b8ff" stroke="#63b8ff" points="100.551,-66.3002 110.942,-64.2334 101.53,-59.369 100.551,-66.3002"/>
</a>
</g>
</g>
<!-- Node3 -->
<g id="Node000003" class="node"><title>Node3</title>
<g id="a_Node000003"><a xlink:href="group___t_vector_iterator.html#ga4d8032eb9dbbdccf794611f2b0c9821c" target="_top" xlink:title="Přečtení hodnoty elementu z vektoru pomocí iterátoru.">
<polygon fill="white" stroke="#666666" points="226,-45.5 122,-45.5 122,-26.5 226,-26.5 226,-45.5"/>
<text text-anchor="middle" x="174" y="-33.5" font-family="Helvetica,sans-Serif" font-size="10.00">vector_iterator_value</text>
</a>
</g>
</g>
<!-- Node1&#45;&gt;Node3 -->
<g id="edge2_Node000001_Node000003" class="edge"><title>Node1&#45;&gt;Node3</title>
<g id="a_edge2_Node000001_Node000003"><a xlink:title=" ">
<path fill="none" stroke="#63b8ff" d="M75.2527,-49.0814C86.6067,-47.5619 99.432,-45.8455 111.967,-44.168"/>
<polygon fill="#63b8ff" stroke="#63b8ff" points="112.476,-47.6311 121.924,-42.8355 111.548,-40.693 112.476,-47.6311"/>
</a>
</g>
</g>
<!-- Node4 -->
<g id="Node000004" class="node"><title>Node4</title>
<g id="a_Node000004"><a xlink:href="_t_vector_8c.html#a0fe5f1145e51f154b5470d640c5d682c" target="_top" xlink:title=" ">
<polygon fill="white" stroke="#666666" points="363,-67.5 273,-67.5 273,-48.5 363,-48.5 363,-67.5"/>
<text text-anchor="middle" x="318" y="-55.5" font-family="Helvetica,sans-Serif" font-size="10.00">vector_fast_value</text>
</a>
</g>
</g>
<!-- Node3&#45;&gt;Node4 -->
<g id="edge3_Node000003_Node000004" class="edge"><title>Node3&#45;&gt;Node4</title>
<g id="a_edge3_Node000003_Node000004"><a xlink:title=" ">
<path fill="none" stroke="#63b8ff" d="M226.265,-43.9425C238.182,-45.7887 250.903,-47.7597 262.936,-49.6239"/>
<polygon fill="#63b8ff" stroke="#63b8ff" points="262.431,-53.0873 272.849,-51.1597 263.502,-46.1698 262.431,-53.0873"/>
</a>
</g>
</g>
<!-- Node5 -->
<g id="Node000005" class="node"><title>Node5</title>
<g id="a_Node000005"><a xlink:href="group___t_vector_iterator.html#ga3f8a97a63f887539e270f6845bf22b9a" target="_top" xlink:title="Zjištění platnosti iterátoru.">
<polygon fill="white" stroke="#666666" points="363,-30 273,-30 273,-0 363,-0 363,-30"/>
<text text-anchor="start" x="281" y="-18" font-family="Helvetica,sans-Serif" font-size="10.00">vector_iterator_is</text>
<text text-anchor="middle" x="318" y="-7" font-family="Helvetica,sans-Serif" font-size="10.00">_valid</text>
</a>
</g>
</g>
<!-- Node3&#45;&gt;Node5 -->
<g id="edge4_Node000003_Node000005" class="edge"><title>Node3&#45;&gt;Node5</title>
<g id="a_edge4_Node000003_Node000005"><a xlink:title=" ">
<path fill="none" stroke="#63b8ff" d="M226.265,-28.4185C238.182,-26.6563 250.903,-24.7748 262.936,-22.9954"/>
<polygon fill="#63b8ff" stroke="#63b8ff" points="263.468,-26.4548 272.849,-21.5294 262.444,-19.5301 263.468,-26.4548"/>
</a>
</g>
</g>
</g>
</svg>
