<?xml version="1.0" encoding="UTF-8" standalone="no"?>
<!DOCTYPE svg PUBLIC "-//W3C//DTD SVG 1.1//EN"
 "http://www.w3.org/Graphics/SVG/1.1/DTD/svg11.dtd">
<!-- Generated by graphviz version 2.38.0 (20140413.2041)
 -->
<!-- Title: vector_iterator_to_next Pages: 1 -->
<svg width="447pt" height="138pt"
 viewBox="0.00 0.00 447.00 138.00" xmlns="http://www.w3.org/2000/svg" xmlns:xlink="http://www.w3.org/1999/xlink">
<g id="graph0" class="graph" transform="scale(1 1) rotate(0) translate(4 134)">
<title>vector_iterator_to_next</title>
<!-- Node1 -->
<g id="Node000001" class="node"><title>Node1</title>
<g id="a_Node000001"><a xlink:title="Posunutí iterátoru vpřed.">
<polygon fill="#999999" stroke="#666666" points="439,-74 324,-74 324,-55 439,-55 439,-74"/>
<text text-anchor="middle" x="381.5" y="-62" font-family="Helvetica,sans-Serif" font-size="10.00">vector_iterator_to_next</text>
</a>
</g>
</g>
<!-- Node2 -->
<g id="Node000002" class="node"><title>Node2</title>
<g id="a_Node000002"><a xlink:href="group___t_heap.html#ga4397746eb5a963292cbbc0b291cde6a9" target="_top" xlink:title="Posunutí iterátoru vpřed.">
<polygon fill="white" stroke="#666666" points="288,-130 178,-130 178,-111 288,-111 288,-130"/>
<text text-anchor="middle" x="233" y="-118" font-family="Helvetica,sans-Serif" font-size="10.00">heap_iterator_to_next</text>
</a>
</g>
</g>
<!-- Node1&#45;&gt;Node2 -->
<g id="edge1_Node000001_Node000002" class="edge"><title>Node1&#45;&gt;Node2</title>
<g id="a_edge1_Node000001_Node000002"><a xlink:title=" ">
<path fill="none" stroke="#63b8ff" d="M348.91,-78.101C331.132,-85.5977 308.46,-94.8976 288,-102.5 280.219,-105.391 271.73,-108.323 263.836,-110.958"/>
<polygon fill="#63b8ff" stroke="#63b8ff" points="350.399,-81.2714 358.238,-74.1439 347.665,-74.8272 350.399,-81.2714"/>
</a>
</g>
</g>
<!-- Node3 -->
<g id="Node000003" class="node"><title>Node3</title>
<g id="a_Node000003"><a xlink:href="group___t_span.html#gaee1f79d544008f32cf2030c0d2156c04" target="_top" xlink:title="Posunutí iterátoru vpřed.">
<polygon fill="white" stroke="#666666" points="288,-93 178,-93 178,-74 288,-74 288,-93"/>
<text text-anchor="middle" x="233" y="-81" font-family="Helvetica,sans-Serif" font-size="10.00">span_iterator_to_next</text>
</a>
</g>
</g>
<!-- Node1&#45;&gt;Node3 -->
<g id="edge2_Node000001_Node000003" class="edge"><title>Node1&#45;&gt;Node3</title>
<g id="a_edge2_Node000001_Node000003"><a xlink:title=" ">
<path fill="none" stroke="#63b8ff" d="M313.826,-73.1471C305.207,-74.2649 296.466,-75.3986 288.085,-76.4856"/>
<polygon fill="#63b8ff" stroke="#63b8ff" points="314.393,-76.6031 323.859,-71.8459 313.492,-69.6612 314.393,-76.6031"/>
</a>
</g>
</g>
<!-- Node4 -->
<g id="Node000004" class="node"><title>Node4</title>
<g id="a_Node000004"><a xlink:href="group___iterator_algorithms.html#gad9872ced82843c0e0864a8e2547ca579" target="_top" xlink:title="Zavolání zvolené funkce na každý element vektoru od pozice určené iterátorem až do konce vektoru.">
<polygon fill="white" stroke="#666666" points="275,-56 191,-56 191,-37 275,-37 275,-56"/>
<text text-anchor="middle" x="233" y="-44" font-family="Helvetica,sans-Serif" font-size="10.00">vector_for_each</text>
</a>
</g>
</g>
<!-- Node1&#45;&gt;Node4 -->
<g id="edge3_Node000001_Node000004" class="edge"><title>Node1&#45;&gt;Node4</title>
<g id="a_edge3_Node000001_Node000004"><a xlink:title=" ">
<path fill="none" stroke="#63b8ff" d="M313.834,-56.309C300.613,-54.6845 287.104,-53.0247 275.047,-51.5434"/>
<polygon fill="#63b8ff" stroke="#63b8ff" points="313.507,-59.795 323.859,-57.5407 314.361,-52.8473 313.507,-59.795"/>
</a>
</g>
</g>
<!-- Node5 -->
<g id="Node000005" class="node"><title>Node5</title>
<g id="a_Node000005"><a xlink:href="group___iterator_algorithms.html#gac5ae89ba507530f7c51c45447efbe4ac" target="_top" xlink:title="Zavolání zvolené funkce na prvních N elementů vektoru od pozice určené iterátorem.">
<polygon fill="white" stroke="#666666" points="267,-19 199,-19 199,-0 267,-0 267,-19"/>
<text text-anchor="middle" x="233" y="-7" font-family="Helvetica,sans-Serif" font-size="10.00">vector_for_n</text>
</a>
</g>
</g>
<!-- Node1&#45;&gt;Node5 -->
<g id="edge4_Node000001_Node000005" class="edge"><title>Node1&#45;&gt;Node5</title>
<g id="a_edge4_Node000001_Node000005"><a xlink:title=" ">
<path fill="none" stroke="#63b8ff" d="M346.864,-51.1032C329.363,-44.2106 307.587,-35.7552 288,-28.5 279.519,-25.3586 270.244,-22.0498 261.812,-19.0895"/>
<polygon fill="#63b8ff" stroke="#63b8ff" points="346.039,-54.5404 356.625,-54.9599 348.611,-48.0301 346.039,-54.5404"/>
</a>
</g>
</g>
<!-- Node6 -->
<g id="Node000006" class="node"><title>Node6</title>
<g id="a_Node000006"><a xlink:href="group___main_program.html#ga7343209645c93203da0a86613abfed04" target="_top" xlink:title="Testování třídicí metody.">
<polygon fill="white" stroke="#666666" points="142,-19 74,-19 74,-0 142,-0 142,-19"/>
<text text-anchor="middle" x="108" y="-7" font-family="Helvetica,sans-Serif" font-size="10.00">sort_testing</text>
</a>
</g>
</g>
<!-- Node5&#45;&gt;Node6 -->
<g id="edge5_Node000005_Node000006" class="edge"><title>Node5&#45;&gt;Node6</title>
<g id="a_edge5_Node000005_Node000006"><a xlink:title=" ">
<path fill="none" stroke="#63b8ff" d="M188.51,-9.5C173.326,-9.5 156.536,-9.5 142.312,-9.5"/>
<polygon fill="#63b8ff" stroke="#63b8ff" points="188.714,-13.0001 198.714,-9.5 188.714,-6.0001 188.714,-13.0001"/>
</a>
</g>
</g>
<!-- Node7 -->
<g id="Node000007" class="node"><title>Node7</title>
<g id="a_Node000007"><a xlink:href="group___main_program.html#ga0ddf1224851353fc92bfbff6f499fa97" target="_top" xlink:title=" ">
<polygon fill="white" stroke="#666666" points="38,-19 0,-19 0,-0 38,-0 38,-19"/>
<text text-anchor="middle" x="19" y="-7" font-family="Helvetica,sans-Serif" font-size="10.00">main</text>
</a>
</g>
</g>
<!-- Node6&#45;&gt;Node7 -->
<g id="edge6_Node000006_Node000007" class="edge"><title>Node6&#45;&gt;Node7</title>
<g id="a_edge6_Node000006_Node000007"><a xlink:title=" ">
<path fill="none" stroke="#63b8ff" d="M63.5417,-9.5C54.5485,-9.5 45.5529,-9.5 38.0925,-9.5"/>
<polygon fill="#63b8ff" stroke="#63b8ff" points="63.6124,-13.0001 73.6123,-9.5 63.6123,-6.0001 63.6124,-13.0001"/>
</a>
</g>
</g>
</g>
</svg>
