<?xml version="1.0" encoding="UTF-8" standalone="no"?>
<!DOCTYPE svg PUBLIC "-//W3C//DTD SVG 1.1//EN"
 "http://www.w3.org/Graphics/SVG/1.1/DTD/svg11.dtd">
<!-- Generated by graphviz version 2.38.0 (20140413.2041)
 -->
<!-- Title: vector_iterator_is_valid Pages: 1 -->
<svg width="916pt" height="1042pt"
 viewBox="0.00 0.00 916.00 1042.00" xmlns="http://www.w3.org/2000/svg" xmlns:xlink="http://www.w3.org/1999/xlink">
<g id="graph0" class="graph" transform="scale(1 1) rotate(0) translate(4 1038)">
<title>vector_iterator_is_valid</title>
<!-- Node1 -->
<g id="Node000001" class="node"><title>Node1</title>
<g id="a_Node000001"><a xlink:title="Zjištění platnosti iterátoru.">
<polygon fill="#999999" stroke="#666666" points="908,-420.5 818,-420.5 818,-390.5 908,-390.5 908,-420.5"/>
<text text-anchor="start" x="826" y="-408.5" font-family="Helvetica,sans-Serif" font-size="10.00">vector_iterator_is</text>
<text text-anchor="middle" x="863" y="-397.5" font-family="Helvetica,sans-Serif" font-size="10.00">_valid</text>
</a>
</g>
</g>
<!-- Node2 -->
<g id="Node000002" class="node"><title>Node2</title>
<g id="a_Node000002"><a xlink:href="group___t_heap.html#gae40d23edaede152d035bcf8828ef37d9" target="_top" xlink:title="Zjištění platnosti iterátoru.">
<polygon fill="white" stroke="#666666" points="770.5,-733 660.5,-733 660.5,-714 770.5,-714 770.5,-733"/>
<text text-anchor="middle" x="715.5" y="-721" font-family="Helvetica,sans-Serif" font-size="10.00">heap_iterator_is_valid</text>
</a>
</g>
</g>
<!-- Node1&#45;&gt;Node2 -->
<g id="edge1_Node000001_Node000002" class="edge"><title>Node1&#45;&gt;Node2</title>
<g id="a_edge1_Node000001_Node000002"><a xlink:title=" ">
<path fill="none" stroke="#63b8ff" d="M857.159,-430.364C847.61,-475.742 823.587,-574.069 782,-647.5 766.893,-674.176 741.599,-700.094 727.266,-713.688"/>
<polygon fill="#63b8ff" stroke="#63b8ff" points="860.599,-431.01 859.178,-420.511 853.741,-429.605 860.599,-431.01"/>
</a>
</g>
</g>
<!-- Node10 -->
<g id="Node000010" class="node"><title>Node10</title>
<g id="a_Node000010"><a xlink:href="group___main_program.html#ga7343209645c93203da0a86613abfed04" target="_top" xlink:title="Testování třídicí metody.">
<polygon fill="white" stroke="#666666" points="408.5,-432 340.5,-432 340.5,-413 408.5,-413 408.5,-432"/>
<text text-anchor="middle" x="374.5" y="-420" font-family="Helvetica,sans-Serif" font-size="10.00">sort_testing</text>
</a>
</g>
</g>
<!-- Node1&#45;&gt;Node10 -->
<g id="edge12_Node000001_Node000010" class="edge"><title>Node1&#45;&gt;Node10</title>
<g id="a_edge12_Node000001_Node000010"><a xlink:title=" ">
<path fill="none" stroke="#63b8ff" d="M807.945,-407.389C706.633,-410.929 490.985,-418.465 408.515,-421.346"/>
<polygon fill="#63b8ff" stroke="#63b8ff" points="808.097,-410.886 817.968,-407.039 807.852,-403.89 808.097,-410.886"/>
</a>
</g>
</g>
<!-- Node11 -->
<g id="Node000011" class="node"><title>Node11</title>
<g id="a_Node000011"><a xlink:href="group___t_span.html#ga67166afe9d2ba03b5db6208b2dcd2787" target="_top" xlink:title="Zjištění platnosti iterátoru.">
<polygon fill="white" stroke="#666666" points="770.5,-264 660.5,-264 660.5,-245 770.5,-245 770.5,-264"/>
<text text-anchor="middle" x="715.5" y="-252" font-family="Helvetica,sans-Serif" font-size="10.00">span_iterator_is_valid</text>
</a>
</g>
</g>
<!-- Node1&#45;&gt;Node11 -->
<g id="edge14_Node000001_Node000011" class="edge"><title>Node1&#45;&gt;Node11</title>
<g id="a_edge14_Node000001_Node000011"><a xlink:title=" ">
<path fill="none" stroke="#63b8ff" d="M853.512,-380.38C842.037,-350.244 818.685,-300.315 782,-272.5 777.489,-269.08 772.367,-266.31 767.022,-264.066"/>
<polygon fill="#63b8ff" stroke="#63b8ff" points="850.36,-381.952 857.078,-390.145 856.936,-379.551 850.36,-381.952"/>
</a>
</g>
</g>
<!-- Node12 -->
<g id="Node000012" class="node"><title>Node12</title>
<g id="a_Node000012"><a xlink:href="group__sortable___t_vector_iterator.html#gaa359594c5556fb685473666fad583ddf" target="_top" xlink:title="Porovnání mezi hodnotou elementu vektoru určenou iterátorem a hodnotou typu VectorElement.">
<polygon fill="white" stroke="#666666" points="769,-837.5 662,-837.5 662,-807.5 769,-807.5 769,-837.5"/>
<text text-anchor="start" x="670" y="-825.5" font-family="Helvetica,sans-Serif" font-size="10.00">vector_compare_with</text>
<text text-anchor="middle" x="715.5" y="-814.5" font-family="Helvetica,sans-Serif" font-size="10.00">_iterator_value</text>
</a>
</g>
</g>
<!-- Node1&#45;&gt;Node12 -->
<g id="edge15_Node000001_Node000012" class="edge"><title>Node1&#45;&gt;Node12</title>
<g id="a_edge15_Node000001_Node000012"><a xlink:title=" ">
<path fill="none" stroke="#63b8ff" d="M859.897,-430.85C854.274,-488.823 835.499,-634.404 782,-742.5 769.42,-767.919 747.418,-792.435 732.416,-807.48"/>
<polygon fill="#63b8ff" stroke="#63b8ff" points="863.394,-431.046 860.826,-420.767 856.423,-430.403 863.394,-431.046"/>
</a>
</g>
</g>
<!-- Node15 -->
<g id="Node000015" class="node"><title>Node15</title>
<g id="a_Node000015"><a xlink:href="group__sortable___t_vector_iterator.html#gadd8aded92ce2c6402742a57316412d39" target="_top" xlink:title="Porovnání hodnot elementů vektorů určených dvěma iterátory.">
<polygon fill="white" stroke="#666666" points="769,-928.5 662,-928.5 662,-898.5 769,-898.5 769,-928.5"/>
<text text-anchor="start" x="670" y="-916.5" font-family="Helvetica,sans-Serif" font-size="10.00">vector_compare_with</text>
<text text-anchor="middle" x="715.5" y="-905.5" font-family="Helvetica,sans-Serif" font-size="10.00">_iterators</text>
</a>
</g>
</g>
<!-- Node1&#45;&gt;Node15 -->
<g id="edge19_Node000001_Node000015" class="edge"><title>Node1&#45;&gt;Node15</title>
<g id="a_edge19_Node000001_Node000015"><a xlink:title=" ">
<path fill="none" stroke="#63b8ff" d="M862.45,-430.673C862.687,-500.762 856.4,-702.455 782,-846.5 771.176,-867.457 751.6,-886.168 736.659,-898.454"/>
<polygon fill="#63b8ff" stroke="#63b8ff" points="865.949,-430.554 862.365,-420.584 858.949,-430.613 865.949,-430.554"/>
</a>
</g>
</g>
<!-- Node18 -->
<g id="Node000018" class="node"><title>Node18</title>
<g id="a_Node000018"><a xlink:href="group___iterator_algorithms.html#gad9872ced82843c0e0864a8e2547ca579" target="_top" xlink:title="Zavolání zvolené funkce na každý element vektoru od pozice určené iterátorem až do konce vektoru.">
<polygon fill="white" stroke="#666666" points="583.5,-338 499.5,-338 499.5,-319 583.5,-319 583.5,-338"/>
<text text-anchor="middle" x="541.5" y="-326" font-family="Helvetica,sans-Serif" font-size="10.00">vector_for_each</text>
</a>
</g>
</g>
<!-- Node1&#45;&gt;Node18 -->
<g id="edge23_Node000001_Node000018" class="edge"><title>Node1&#45;&gt;Node18</title>
<g id="a_edge23_Node000001_Node000018"><a xlink:title=" ">
<path fill="none" stroke="#63b8ff" d="M820.401,-386.408C808.213,-381.346 794.737,-376.252 782,-372.5 713.871,-352.432 632.017,-339.754 583.793,-333.409"/>
<polygon fill="#63b8ff" stroke="#63b8ff" points="819.289,-389.739 829.861,-390.436 822.031,-383.298 819.289,-389.739"/>
</a>
</g>
</g>
<!-- Node19 -->
<g id="Node000019" class="node"><title>Node19</title>
<g id="a_Node000019"><a xlink:href="group___iterator_algorithms.html#gac5ae89ba507530f7c51c45447efbe4ac" target="_top" xlink:title="Zavolání zvolené funkce na prvních N elementů vektoru od pozice určené iterátorem.">
<polygon fill="white" stroke="#666666" points="575.5,-375 507.5,-375 507.5,-356 575.5,-356 575.5,-375"/>
<text text-anchor="middle" x="541.5" y="-363" font-family="Helvetica,sans-Serif" font-size="10.00">vector_for_n</text>
</a>
</g>
</g>
<!-- Node1&#45;&gt;Node19 -->
<g id="edge24_Node000001_Node000019" class="edge"><title>Node1&#45;&gt;Node19</title>
<g id="a_edge24_Node000001_Node000019"><a xlink:title=" ">
<path fill="none" stroke="#63b8ff" d="M807.706,-395.508C799.12,-394.07 790.328,-392.68 782,-391.5 708.496,-381.09 621.782,-372.616 575.514,-368.398"/>
<polygon fill="#63b8ff" stroke="#63b8ff" points="807.203,-398.973 817.65,-397.209 808.384,-392.073 807.203,-398.973"/>
</a>
</g>
</g>
<!-- Node20 -->
<g id="Node000020" class="node"><title>Node20</title>
<g id="a_Node000020"><a xlink:href="group___t_vector_iterator.html#ga66f6b96e416a7e593b1cf703f58be7ca" target="_top" xlink:title="Zapsání hodnoty elementu do vektoru pomocí iterátoru.">
<polygon fill="white" stroke="#666666" points="763.5,-1002.5 667.5,-1002.5 667.5,-972.5 763.5,-972.5 763.5,-1002.5"/>
<text text-anchor="start" x="675.5" y="-990.5" font-family="Helvetica,sans-Serif" font-size="10.00">vector_iterator_set</text>
<text text-anchor="middle" x="715.5" y="-979.5" font-family="Helvetica,sans-Serif" font-size="10.00">_value</text>
</a>
</g>
</g>
<!-- Node1&#45;&gt;Node20 -->
<g id="edge26_Node000001_Node000020" class="edge"><title>Node1&#45;&gt;Node20</title>
<g id="a_edge26_Node000001_Node000020"><a xlink:title=" ">
<path fill="none" stroke="#63b8ff" d="M860.687,-430.911C855.47,-524.59 833.908,-849.72 782,-937.5 773.335,-952.154 758.572,-963.988 745.253,-972.458"/>
<polygon fill="#63b8ff" stroke="#63b8ff" points="864.196,-430.841 861.244,-420.666 857.207,-430.461 864.196,-430.841"/>
</a>
</g>
</g>
<!-- Node23 -->
<g id="Node000023" class="node"><title>Node23</title>
<g id="a_Node000023"><a xlink:href="group___t_vector_iterator.html#ga7ce07cda016d67e3ca891125613ece56" target="_top" xlink:title="Posunutí iterátoru vpřed.">
<polygon fill="white" stroke="#666666" points="773,-301 658,-301 658,-282 773,-282 773,-301"/>
<text text-anchor="middle" x="715.5" y="-289" font-family="Helvetica,sans-Serif" font-size="10.00">vector_iterator_to_next</text>
</a>
</g>
</g>
<!-- Node1&#45;&gt;Node23 -->
<g id="edge30_Node000001_Node000023" class="edge"><title>Node1&#45;&gt;Node23</title>
<g id="a_edge30_Node000001_Node000023"><a xlink:title=" ">
<path fill="none" stroke="#63b8ff" d="M846.251,-382.036C831.681,-361.922 808.344,-333.434 782,-315.5 773.09,-309.435 762.459,-304.686 752.38,-301.071"/>
<polygon fill="#63b8ff" stroke="#63b8ff" points="843.497,-384.205 852.124,-390.354 849.215,-380.167 843.497,-384.205"/>
</a>
</g>
</g>
<!-- Node26 -->
<g id="Node000026" class="node"><title>Node26</title>
<g id="a_Node000026"><a xlink:href="group___t_vector_iterator.html#ga8e1e1cc570f8a1c2bf1fb73c0d3c8826" target="_top" xlink:title="Posunutí iterátoru vzad.">
<polygon fill="white" stroke="#666666" points="772,-638 659,-638 659,-619 772,-619 772,-638"/>
<text text-anchor="middle" x="715.5" y="-626" font-family="Helvetica,sans-Serif" font-size="10.00">vector_iterator_to_prev</text>
</a>
</g>
</g>
<!-- Node1&#45;&gt;Node26 -->
<g id="edge35_Node000001_Node000026" class="edge"><title>Node1&#45;&gt;Node26</title>
<g id="a_edge35_Node000001_Node000026"><a xlink:title=" ">
<path fill="none" stroke="#63b8ff" d="M853.693,-430.667C841.56,-465.016 816.611,-527.449 782,-572.5 767.325,-591.601 745.202,-608.826 730.803,-618.98"/>
<polygon fill="#63b8ff" stroke="#63b8ff" points="857.089,-431.554 857.043,-420.959 850.472,-429.27 857.089,-431.554"/>
</a>
</g>
</g>
<!-- Node29 -->
<g id="Node000029" class="node"><title>Node29</title>
<g id="a_Node000029"><a xlink:href="group___t_vector_iterator.html#ga4d8032eb9dbbdccf794611f2b0c9821c" target="_top" xlink:title="Přečtení hodnoty elementu z vektoru pomocí iterátoru.">
<polygon fill="white" stroke="#666666" points="767.5,-471 663.5,-471 663.5,-452 767.5,-452 767.5,-471"/>
<text text-anchor="middle" x="715.5" y="-459" font-family="Helvetica,sans-Serif" font-size="10.00">vector_iterator_value</text>
</a>
</g>
</g>
<!-- Node1&#45;&gt;Node29 -->
<g id="edge39_Node000001_Node000029" class="edge"><title>Node1&#45;&gt;Node29</title>
<g id="a_edge39_Node000001_Node000029"><a xlink:title=" ">
<path fill="none" stroke="#63b8ff" d="M813.62,-424.12C789.432,-433.43 761.18,-444.304 741.404,-451.915"/>
<polygon fill="#63b8ff" stroke="#63b8ff" points="814.933,-427.365 823.009,-420.507 812.419,-420.833 814.933,-427.365"/>
</a>
</g>
</g>
<!-- Node33 -->
<g id="Node000033" class="node"><title>Node33</title>
<g id="a_Node000033"><a xlink:href="group__sortable___t_vector__with__shareable__sortstats.html#ga6c48fdc01e22389dff6202955542499a" target="_top" xlink:title="Test shodnosti dvou iterátorů">
<polygon fill="white" stroke="#666666" points="781,-227 650,-227 650,-208 781,-208 781,-227"/>
<text text-anchor="middle" x="715.5" y="-215" font-family="Helvetica,sans-Serif" font-size="10.00">vector_iterators_are_same</text>
</a>
</g>
</g>
<!-- Node1&#45;&gt;Node33 -->
<g id="edge46_Node000001_Node000033" class="edge"><title>Node1&#45;&gt;Node33</title>
<g id="a_edge46_Node000001_Node000033"><a xlink:title=" ">
<path fill="none" stroke="#63b8ff" d="M857.137,-380.42C848.595,-343.197 827.316,-273.636 782,-235.5 777.94,-232.083 773.283,-229.311 768.365,-227.063"/>
<polygon fill="#63b8ff" stroke="#63b8ff" points="853.769,-381.403 859.305,-390.436 860.61,-379.922 853.769,-381.403"/>
</a>
</g>
</g>
<!-- Node36 -->
<g id="Node000036" class="node"><title>Node36</title>
<g id="a_Node000036"><a xlink:href="group__sortable___t_vector_iterator.html#gaa3e549d3e67e2168311acc8f4a494cc5" target="_top" xlink:title="Přesun hodnoty elementu vektoru určené dvěma iterátory.">
<polygon fill="white" stroke="#666666" points="782,-564 649,-564 649,-545 782,-545 782,-564"/>
<text text-anchor="middle" x="715.5" y="-552" font-family="Helvetica,sans-Serif" font-size="10.00">vector_move_with_iterators</text>
</a>
</g>
</g>
<!-- Node1&#45;&gt;Node36 -->
<g id="edge49_Node000001_Node000036" class="edge"><title>Node1&#45;&gt;Node36</title>
<g id="a_edge49_Node000001_Node000036"><a xlink:title=" ">
<path fill="none" stroke="#63b8ff" d="M840.045,-427.983C807.837,-460.966 749.114,-521.101 726.108,-544.661"/>
<polygon fill="#63b8ff" stroke="#63b8ff" points="842.766,-430.207 847.248,-420.607 837.757,-425.316 842.766,-430.207"/>
</a>
</g>
</g>
<!-- Node39 -->
<g id="Node000039" class="node"><title>Node39</title>
<g id="a_Node000039"><a xlink:href="group__sortable___t_vector_iterator.html#ga015969daf209d461aaf0ba4391df4b5b" target="_top" xlink:title="Výměna mezi hodnotou elementu vektoru určenou iterátorem a proměnnou typu VectorElement.">
<polygon fill="white" stroke="#666666" points="779.5,-152.5 651.5,-152.5 651.5,-122.5 779.5,-122.5 779.5,-152.5"/>
<text text-anchor="start" x="659.5" y="-140.5" font-family="Helvetica,sans-Serif" font-size="10.00">vector_swap_with_iterator</text>
<text text-anchor="middle" x="715.5" y="-129.5" font-family="Helvetica,sans-Serif" font-size="10.00">_value</text>
</a>
</g>
</g>
<!-- Node1&#45;&gt;Node39 -->
<g id="edge54_Node000001_Node000039" class="edge"><title>Node1&#45;&gt;Node39</title>
<g id="a_edge54_Node000001_Node000039"><a xlink:title=" ">
<path fill="none" stroke="#63b8ff" d="M856.241,-380.471C846.046,-339.727 822.037,-257.67 782,-198.5 769.808,-180.482 751.362,-163.928 737.148,-152.625"/>
<polygon fill="#63b8ff" stroke="#63b8ff" points="852.881,-381.468 858.645,-390.358 859.683,-379.815 852.881,-381.468"/>
</a>
</g>
</g>
<!-- Node42 -->
<g id="Node000042" class="node"><title>Node42</title>
<g id="a_Node000042"><a xlink:href="group__sortable___t_vector_iterator.html#gac16589d02c81c789a7fa6cd323a49013" target="_top" xlink:title="Výměna hodnot elementů vektorů určených dvěma iterátory.">
<polygon fill="white" stroke="#666666" points="782,-56 649,-56 649,-37 782,-37 782,-56"/>
<text text-anchor="middle" x="715.5" y="-44" font-family="Helvetica,sans-Serif" font-size="10.00">vector_swap_with_iterators</text>
</a>
</g>
</g>
<!-- Node1&#45;&gt;Node42 -->
<g id="edge57_Node000001_Node000042" class="edge"><title>Node1&#45;&gt;Node42</title>
<g id="a_edge57_Node000001_Node000042"><a xlink:title=" ">
<path fill="none" stroke="#63b8ff" d="M859.374,-380.048C853.025,-327.214 833.393,-203.105 782,-113.5 768.322,-89.6528 744.158,-68.0924 729.314,-56.1922"/>
<polygon fill="#63b8ff" stroke="#63b8ff" points="855.921,-380.664 860.534,-390.202 862.876,-379.87 855.921,-380.664"/>
</a>
</g>
</g>
<!-- Node3 -->
<g id="Node000003" class="node"><title>Node3</title>
<g id="a_Node000003"><a xlink:href="group___t_heap.html#ga974f2e71745d48caecb94896f5e9b1c5" target="_top" xlink:title="Posunutí iterátoru na levého následníka.">
<polygon fill="white" stroke="#666666" points="593.5,-789 489.5,-789 489.5,-770 593.5,-770 593.5,-789"/>
<text text-anchor="middle" x="541.5" y="-777" font-family="Helvetica,sans-Serif" font-size="10.00">heap_iterator_to_left</text>
</a>
</g>
</g>
<!-- Node2&#45;&gt;Node3 -->
<g id="edge2_Node000002_Node000003" class="edge"><title>Node2&#45;&gt;Node3</title>
<g id="a_edge2_Node000002_Node000003"><a xlink:title=" ">
<path fill="none" stroke="#63b8ff" d="M681.524,-736.879C661.821,-744.613 636.19,-754.222 613,-761.5 603.358,-764.526 592.857,-767.419 582.977,-769.966"/>
<polygon fill="#63b8ff" stroke="#63b8ff" points="682.955,-740.077 690.963,-733.14 680.377,-733.569 682.955,-740.077"/>
</a>
</g>
</g>
<!-- Node8 -->
<g id="Node000008" class="node"><title>Node8</title>
<g id="a_Node000008"><a xlink:href="group___t_heap.html#ga30a2c6e90b0e73d8a4f682c4a89accc6" target="_top" xlink:title="Posunutí iterátoru na rodičovský uzel.">
<polygon fill="white" stroke="#666666" points="434,-714 315,-714 315,-695 434,-695 434,-714"/>
<text text-anchor="middle" x="374.5" y="-702" font-family="Helvetica,sans-Serif" font-size="10.00">heap_iterator_to_parent</text>
</a>
</g>
</g>
<!-- Node2&#45;&gt;Node8 -->
<g id="edge8_Node000002_Node000008" class="edge"><title>Node2&#45;&gt;Node8</title>
<g id="a_edge8_Node000002_Node000008"><a xlink:title=" ">
<path fill="none" stroke="#63b8ff" d="M650.322,-719.903C588.107,-716.416 494.535,-711.172 434.234,-707.792"/>
<polygon fill="#63b8ff" stroke="#63b8ff" points="650.229,-723.403 660.41,-720.468 650.621,-716.414 650.229,-723.403"/>
</a>
</g>
</g>
<!-- Node9 -->
<g id="Node000009" class="node"><title>Node9</title>
<g id="a_Node000009"><a xlink:href="group___t_heap.html#ga1b612baefabca4177116615280539790" target="_top" xlink:title="Posunutí iterátoru na pravého následníka.">
<polygon fill="white" stroke="#666666" points="596.5,-752 486.5,-752 486.5,-733 596.5,-733 596.5,-752"/>
<text text-anchor="middle" x="541.5" y="-740" font-family="Helvetica,sans-Serif" font-size="10.00">heap_iterator_to_right</text>
</a>
</g>
</g>
<!-- Node2&#45;&gt;Node9 -->
<g id="edge10_Node000002_Node000009" class="edge"><title>Node2&#45;&gt;Node9</title>
<g id="a_edge10_Node000002_Node000009"><a xlink:title=" ">
<path fill="none" stroke="#63b8ff" d="M649.904,-730.636C632.333,-732.577 613.489,-734.658 596.568,-736.527"/>
<polygon fill="#63b8ff" stroke="#63b8ff" points="650.523,-734.089 660.078,-729.512 649.754,-727.131 650.523,-734.089"/>
</a>
</g>
</g>
<!-- Node4 -->
<g id="Node000004" class="node"><title>Node4</title>
<g id="a_Node000004"><a xlink:href="heap__sort__with__iterators_8c.html#a7bf828c9c4eb35c2121c3f7d1177d19b" target="_top" xlink:title="Vnitřní a lokální funkce zajišťující vložení hodnoty do zvoleného uzlu haldy, při zachování podmínek ...">
<polygon fill="white" stroke="#666666" points="403,-770 346,-770 346,-751 403,-751 403,-770"/>
<text text-anchor="middle" x="374.5" y="-758" font-family="Helvetica,sans-Serif" font-size="10.00">sift_down</text>
</a>
</g>
</g>
<!-- Node3&#45;&gt;Node4 -->
<g id="edge3_Node000003_Node000004" class="edge"><title>Node3&#45;&gt;Node4</title>
<g id="a_edge3_Node000003_Node000004"><a xlink:title=" ">
<path fill="none" stroke="#63b8ff" d="M479.008,-772.419C452.959,-769.419 423.915,-766.075 403.239,-763.694"/>
<polygon fill="#63b8ff" stroke="#63b8ff" points="478.863,-775.925 489.197,-773.592 479.663,-768.971 478.863,-775.925"/>
</a>
</g>
</g>
<!-- Node5 -->
<g id="Node000005" class="node"><title>Node5</title>
<g id="a_Node000005"><a xlink:href="group___powerful_sorts.html#ga84762e575f9465881e13d17072186ddd" target="_top" xlink:title="Třídění pomocí haldy (Heap Sort) využívající iterátorové API pro přístup k elementům vektoru.">
<polygon fill="white" stroke="#666666" points="196,-601 74,-601 74,-582 196,-582 196,-601"/>
<text text-anchor="middle" x="135" y="-589" font-family="Helvetica,sans-Serif" font-size="10.00">heap_sort_with_iterators</text>
</a>
</g>
</g>
<!-- Node4&#45;&gt;Node5 -->
<g id="edge4_Node000004_Node000005" class="edge"><title>Node4&#45;&gt;Node5</title>
<g id="a_edge4_Node000004_Node000005"><a xlink:title=" ">
<path fill="none" stroke="#63b8ff" d="M341.298,-746.676C311.574,-733.182 266.89,-710.999 232,-685.5 195.842,-659.074 159.921,-619.412 144.22,-601.233"/>
<polygon fill="#63b8ff" stroke="#63b8ff" points="340.211,-750.024 350.769,-750.911 343.069,-743.634 340.211,-750.024"/>
</a>
</g>
</g>
<!-- Node7 -->
<g id="Node000007" class="node"><title>Node7</title>
<g id="a_Node000007"><a xlink:href="heap__sort__with__iterators_8c.html#aceaf0618c69440f1e439e224eb6945dc" target="_top" xlink:title="Vnitřní a lokální funkce realizující uspořádání elementů vektoru do haldy.">
<polygon fill="white" stroke="#666666" points="279,-676 232,-676 232,-657 279,-657 279,-676"/>
<text text-anchor="middle" x="255.5" y="-664" font-family="Helvetica,sans-Serif" font-size="10.00">heapify</text>
</a>
</g>
</g>
<!-- Node4&#45;&gt;Node7 -->
<g id="edge6_Node000004_Node000007" class="edge"><title>Node4&#45;&gt;Node7</title>
<g id="a_edge6_Node000004_Node000007"><a xlink:title=" ">
<path fill="none" stroke="#63b8ff" d="M347.522,-745.675C337.082,-739.311 325.141,-731.504 315,-723.5 295.855,-708.389 276.028,-687.853 265.078,-676.003"/>
<polygon fill="#63b8ff" stroke="#63b8ff" points="345.846,-748.75 356.227,-750.864 349.43,-742.737 345.846,-748.75"/>
</a>
</g>
</g>
<!-- Node6 -->
<g id="Node000006" class="node"><title>Node6</title>
<g id="a_Node000006"><a xlink:href="group___main_program.html#ga0ddf1224851353fc92bfbff6f499fa97" target="_top" xlink:title=" ">
<polygon fill="white" stroke="#666666" points="38,-535 0,-535 0,-516 38,-516 38,-535"/>
<text text-anchor="middle" x="19" y="-523" font-family="Helvetica,sans-Serif" font-size="10.00">main</text>
</a>
</g>
</g>
<!-- Node5&#45;&gt;Node6 -->
<g id="edge5_Node000005_Node000006" class="edge"><title>Node5&#45;&gt;Node6</title>
<g id="a_edge5_Node000005_Node000006"><a xlink:title=" ">
<path fill="none" stroke="#63b8ff" d="M108.372,-576.663C86.3872,-563.935 55.3582,-545.971 36.5195,-535.064"/>
<polygon fill="#63b8ff" stroke="#63b8ff" points="106.771,-579.78 117.179,-581.761 110.278,-573.722 106.771,-579.78"/>
</a>
</g>
</g>
<!-- Node7&#45;&gt;Node5 -->
<g id="edge7_Node000007_Node000005" class="edge"><title>Node7&#45;&gt;Node5</title>
<g id="a_edge7_Node000007_Node000005"><a xlink:title=" ">
<path fill="none" stroke="#63b8ff" d="M230.551,-651.342C206.813,-636.319 171.18,-613.766 151.121,-601.07"/>
<polygon fill="#63b8ff" stroke="#63b8ff" points="228.687,-654.304 239.008,-656.695 232.43,-648.39 228.687,-654.304"/>
</a>
</g>
</g>
<!-- Node8&#45;&gt;Node7 -->
<g id="edge9_Node000008_Node000007" class="edge"><title>Node8&#45;&gt;Node7</title>
<g id="a_edge9_Node000008_Node000007"><a xlink:title=" ">
<path fill="none" stroke="#63b8ff" d="M334.444,-691.815C316.161,-685.877 295.02,-679.011 279.371,-673.928"/>
<polygon fill="#63b8ff" stroke="#63b8ff" points="333.384,-695.151 343.976,-694.911 335.546,-688.493 333.384,-695.151"/>
</a>
</g>
</g>
<!-- Node9&#45;&gt;Node4 -->
<g id="edge11_Node000009_Node000004" class="edge"><title>Node9&#45;&gt;Node4</title>
<g id="a_edge11_Node000009_Node000004"><a xlink:title=" ">
<path fill="none" stroke="#63b8ff" d="M476.514,-749.48C451.117,-752.251 423.252,-755.291 403.234,-757.475"/>
<polygon fill="#63b8ff" stroke="#63b8ff" points="476.911,-752.958 486.473,-748.394 476.152,-745.999 476.911,-752.958"/>
</a>
</g>
</g>
<!-- Node10&#45;&gt;Node6 -->
<g id="edge13_Node000010_Node000006" class="edge"><title>Node10&#45;&gt;Node6</title>
<g id="a_edge13_Node000010_Node000006"><a xlink:title=" ">
<path fill="none" stroke="#63b8ff" d="M330.974,-434.891C253.571,-457.444 92.6583,-504.329 38.3536,-520.152"/>
<polygon fill="#63b8ff" stroke="#63b8ff" points="332.256,-438.163 340.877,-432.005 330.297,-431.443 332.256,-438.163"/>
</a>
</g>
</g>
<!-- Node13 -->
<g id="Node000013" class="node"><title>Node13</title>
<g id="a_Node000013"><a xlink:href="group___t_heap.html#gad15335cb6b5e00a87655aa3f25fadc38" target="_top" xlink:title="Porovnání mezi hodnotou v uzlu haldy určenou iterátorem a hodnotou typu HeapElement.">
<polygon fill="white" stroke="#666666" points="610.5,-837.5 472.5,-837.5 472.5,-807.5 610.5,-807.5 610.5,-837.5"/>
<text text-anchor="start" x="480.5" y="-825.5" font-family="Helvetica,sans-Serif" font-size="10.00">heap_compare_with_iterator</text>
<text text-anchor="middle" x="541.5" y="-814.5" font-family="Helvetica,sans-Serif" font-size="10.00">_value</text>
</a>
</g>
</g>
<!-- Node12&#45;&gt;Node13 -->
<g id="edge16_Node000012_Node000013" class="edge"><title>Node12&#45;&gt;Node13</title>
<g id="a_edge16_Node000012_Node000013"><a xlink:title=" ">
<path fill="none" stroke="#63b8ff" d="M651.878,-822.5C638.454,-822.5 624.207,-822.5 610.587,-822.5"/>
<polygon fill="#63b8ff" stroke="#63b8ff" points="651.96,-826 661.96,-822.5 651.96,-819 651.96,-826"/>
</a>
</g>
</g>
<!-- Node14 -->
<g id="Node000014" class="node"><title>Node14</title>
<g id="a_Node000014"><a xlink:href="group___t_span.html#ga0b2e633085569b47c063161298794b98" target="_top" xlink:title="Porovnání mezi hodnotou elementu Spanu určenou iterátorem a hodnotou typu VectorElement.">
<polygon fill="white" stroke="#666666" points="610.5,-885.5 472.5,-885.5 472.5,-855.5 610.5,-855.5 610.5,-885.5"/>
<text text-anchor="start" x="480.5" y="-873.5" font-family="Helvetica,sans-Serif" font-size="10.00">span_compare_with_iterator</text>
<text text-anchor="middle" x="541.5" y="-862.5" font-family="Helvetica,sans-Serif" font-size="10.00">_value</text>
</a>
</g>
</g>
<!-- Node12&#45;&gt;Node14 -->
<g id="edge18_Node000012_Node000014" class="edge"><title>Node12&#45;&gt;Node14</title>
<g id="a_edge18_Node000012_Node000014"><a xlink:title=" ">
<path fill="none" stroke="#63b8ff" d="M652.285,-839.862C634.022,-844.959 614.207,-850.489 596.502,-855.43"/>
<polygon fill="#63b8ff" stroke="#63b8ff" points="653.269,-843.222 661.96,-837.162 651.387,-836.479 653.269,-843.222"/>
</a>
</g>
</g>
<!-- Node13&#45;&gt;Node4 -->
<g id="edge17_Node000013_Node000004" class="edge"><title>Node13&#45;&gt;Node4</title>
<g id="a_edge17_Node000013_Node000004"><a xlink:title=" ">
<path fill="none" stroke="#63b8ff" d="M485.696,-804.169C480.378,-802.292 475.076,-800.383 470,-798.5 445.297,-789.336 417.337,-777.967 398.28,-770.064"/>
<polygon fill="#63b8ff" stroke="#63b8ff" points="484.645,-807.509 495.24,-807.498 486.951,-800.899 484.645,-807.509"/>
</a>
</g>
</g>
<!-- Node16 -->
<g id="Node000016" class="node"><title>Node16</title>
<g id="a_Node000016"><a xlink:href="group___t_heap.html#ga33f604f94a11da32fdf681dd21186b87" target="_top" xlink:title="Porovnání hodnot uzlů haldy určených dvěma iterátory.">
<polygon fill="white" stroke="#666666" points="613,-923 470,-923 470,-904 613,-904 613,-923"/>
<text text-anchor="middle" x="541.5" y="-911" font-family="Helvetica,sans-Serif" font-size="10.00">heap_compare_with_iterators</text>
</a>
</g>
</g>
<!-- Node15&#45;&gt;Node16 -->
<g id="edge20_Node000015_Node000016" class="edge"><title>Node15&#45;&gt;Node16</title>
<g id="a_edge20_Node000015_Node000016"><a xlink:title=" ">
<path fill="none" stroke="#63b8ff" d="M651.628,-913.5C639.099,-913.5 625.863,-913.5 613.095,-913.5"/>
<polygon fill="#63b8ff" stroke="#63b8ff" points="651.96,-917 661.96,-913.5 651.96,-910 651.96,-917"/>
</a>
</g>
</g>
<!-- Node17 -->
<g id="Node000017" class="node"><title>Node17</title>
<g id="a_Node000017"><a xlink:href="group___t_span.html#ga1b60dd9d2211c7cb07b066f19237b0ac" target="_top" xlink:title="Porovnání hodnot elementů Spanů určených dvěma iterátory.">
<polygon fill="white" stroke="#666666" points="613,-960 470,-960 470,-941 613,-941 613,-960"/>
<text text-anchor="middle" x="541.5" y="-948" font-family="Helvetica,sans-Serif" font-size="10.00">span_compare_with_iterators</text>
</a>
</g>
</g>
<!-- Node15&#45;&gt;Node17 -->
<g id="edge22_Node000015_Node000017" class="edge"><title>Node15&#45;&gt;Node17</title>
<g id="a_edge22_Node000015_Node000017"><a xlink:title=" ">
<path fill="none" stroke="#63b8ff" d="M651.906,-926.965C630.359,-931.6 606.69,-936.692 586.896,-940.95"/>
<polygon fill="#63b8ff" stroke="#63b8ff" points="652.919,-930.327 661.96,-924.802 651.447,-923.484 652.919,-930.327"/>
</a>
</g>
</g>
<!-- Node16&#45;&gt;Node4 -->
<g id="edge21_Node000016_Node000004" class="edge"><title>Node16&#45;&gt;Node4</title>
<g id="a_edge21_Node000016_Node000004"><a xlink:title=" ">
<path fill="none" stroke="#63b8ff" d="M479.036,-899.853C475.876,-898.261 472.84,-896.484 470,-894.5 422.164,-861.073 390.342,-795.254 379.562,-770.356"/>
<polygon fill="#63b8ff" stroke="#63b8ff" points="477.638,-903.062 488.203,-903.865 480.445,-896.649 477.638,-903.062"/>
</a>
</g>
</g>
<!-- Node19&#45;&gt;Node10 -->
<g id="edge25_Node000019_Node000010" class="edge"><title>Node19&#45;&gt;Node10</title>
<g id="a_edge25_Node000019_Node000010"><a xlink:title=" ">
<path fill="none" stroke="#63b8ff" d="M502.573,-378.35C492.021,-381.942 480.56,-385.859 470,-389.5 447.329,-397.317 421.639,-406.296 402.774,-412.912"/>
<polygon fill="#63b8ff" stroke="#63b8ff" points="504.01,-381.558 512.352,-375.026 501.757,-374.931 504.01,-381.558"/>
</a>
</g>
</g>
<!-- Node21 -->
<g id="Node000021" class="node"><title>Node21</title>
<g id="a_Node000021"><a xlink:href="group___t_heap.html#gad1c0b47027aa5f072c7275f86b8b2c2a" target="_top" xlink:title="Zapsání hodnoty uzlu haldy pomocí iterátoru.">
<polygon fill="white" stroke="#666666" points="601,-997 482,-997 482,-978 601,-978 601,-997"/>
<text text-anchor="middle" x="541.5" y="-985" font-family="Helvetica,sans-Serif" font-size="10.00">heap_iterator_set_value</text>
</a>
</g>
</g>
<!-- Node20&#45;&gt;Node21 -->
<g id="edge27_Node000020_Node000021" class="edge"><title>Node20&#45;&gt;Node21</title>
<g id="a_edge27_Node000020_Node000021"><a xlink:title=" ">
<path fill="none" stroke="#63b8ff" d="M656.996,-987.5C639.03,-987.5 619.193,-987.5 601.149,-987.5"/>
<polygon fill="#63b8ff" stroke="#63b8ff" points="657.045,-991 667.045,-987.5 657.045,-984 657.045,-991"/>
</a>
</g>
</g>
<!-- Node22 -->
<g id="Node000022" class="node"><title>Node22</title>
<g id="a_Node000022"><a xlink:href="group___t_span.html#gad7325743f683c214db12e5f7070569a7" target="_top" xlink:title="Zapsání hodnoty elementu do Spanu pomocí iterátoru.">
<polygon fill="white" stroke="#666666" points="601,-1034 482,-1034 482,-1015 601,-1015 601,-1034"/>
<text text-anchor="middle" x="541.5" y="-1022" font-family="Helvetica,sans-Serif" font-size="10.00">span_iterator_set_value</text>
</a>
</g>
</g>
<!-- Node20&#45;&gt;Node22 -->
<g id="edge29_Node000020_Node000022" class="edge"><title>Node20&#45;&gt;Node22</title>
<g id="a_edge29_Node000020_Node000022"><a xlink:title=" ">
<path fill="none" stroke="#63b8ff" d="M657.105,-999.847C634.207,-1004.77 608.257,-1010.35 586.847,-1014.96"/>
<polygon fill="#63b8ff" stroke="#63b8ff" points="658.005,-1003.23 667.045,-997.708 656.532,-996.39 658.005,-1003.23"/>
</a>
</g>
</g>
<!-- Node21&#45;&gt;Node4 -->
<g id="edge28_Node000021_Node000004" class="edge"><title>Node21&#45;&gt;Node4</title>
<g id="a_edge28_Node000021_Node000004"><a xlink:title=" ">
<path fill="none" stroke="#63b8ff" d="M474.795,-973.075C473.128,-971.968 471.524,-970.779 470,-969.5 404.106,-914.215 382.132,-803.434 376.874,-770.164"/>
<polygon fill="#63b8ff" stroke="#63b8ff" points="473.147,-976.163 483.591,-977.943 476.537,-970.038 473.147,-976.163"/>
</a>
</g>
</g>
<!-- Node23&#45;&gt;Node18 -->
<g id="edge33_Node000023_Node000018" class="edge"><title>Node23&#45;&gt;Node18</title>
<g id="a_edge33_Node000023_Node000018"><a xlink:title=" ">
<path fill="none" stroke="#63b8ff" d="M660.23,-303.174C635.471,-308.5 606.63,-314.705 583.691,-319.639"/>
<polygon fill="#63b8ff" stroke="#63b8ff" points="661.165,-306.553 670.206,-301.028 659.693,-299.71 661.165,-306.553"/>
</a>
</g>
</g>
<!-- Node23&#45;&gt;Node19 -->
<g id="edge34_Node000023_Node000019" class="edge"><title>Node23&#45;&gt;Node19</title>
<g id="a_edge34_Node000023_Node000019"><a xlink:title=" ">
<path fill="none" stroke="#63b8ff" d="M690.803,-306.404C670.707,-318.532 640.798,-335.4 613,-346.5 601.11,-351.248 587.628,-355.207 575.661,-358.26"/>
<polygon fill="#63b8ff" stroke="#63b8ff" points="692.863,-309.247 699.565,-301.041 689.209,-303.277 692.863,-309.247"/>
</a>
</g>
</g>
<!-- Node24 -->
<g id="Node000024" class="node"><title>Node24</title>
<g id="a_Node000024"><a xlink:href="group___t_heap.html#ga4397746eb5a963292cbbc0b291cde6a9" target="_top" xlink:title="Posunutí iterátoru vpřed.">
<polygon fill="white" stroke="#666666" points="596.5,-264 486.5,-264 486.5,-245 596.5,-245 596.5,-264"/>
<text text-anchor="middle" x="541.5" y="-252" font-family="Helvetica,sans-Serif" font-size="10.00">heap_iterator_to_next</text>
</a>
</g>
</g>
<!-- Node23&#45;&gt;Node24 -->
<g id="edge31_Node000023_Node000024" class="edge"><title>Node23&#45;&gt;Node24</title>
<g id="a_edge31_Node000023_Node000024"><a xlink:title=" ">
<path fill="none" stroke="#63b8ff" d="M660.334,-279.848C636.707,-274.765 609.348,-268.88 586.943,-264.06"/>
<polygon fill="#63b8ff" stroke="#63b8ff" points="659.693,-283.29 670.206,-281.972 661.165,-276.447 659.693,-283.29"/>
</a>
</g>
</g>
<!-- Node25 -->
<g id="Node000025" class="node"><title>Node25</title>
<g id="a_Node000025"><a xlink:href="group___t_span.html#gaee1f79d544008f32cf2030c0d2156c04" target="_top" xlink:title="Posunutí iterátoru vpřed.">
<polygon fill="white" stroke="#666666" points="596.5,-301 486.5,-301 486.5,-282 596.5,-282 596.5,-301"/>
<text text-anchor="middle" x="541.5" y="-289" font-family="Helvetica,sans-Serif" font-size="10.00">span_iterator_to_next</text>
</a>
</g>
</g>
<!-- Node23&#45;&gt;Node25 -->
<g id="edge32_Node000023_Node000025" class="edge"><title>Node23&#45;&gt;Node25</title>
<g id="a_edge32_Node000023_Node000025"><a xlink:title=" ">
<path fill="none" stroke="#63b8ff" d="M647.382,-291.5C630.555,-291.5 612.713,-291.5 596.609,-291.5"/>
<polygon fill="#63b8ff" stroke="#63b8ff" points="647.704,-295 657.704,-291.5 647.704,-288 647.704,-295"/>
</a>
</g>
</g>
<!-- Node27 -->
<g id="Node000027" class="node"><title>Node27</title>
<g id="a_Node000027"><a xlink:href="group___t_heap.html#ga459d729f98a06d26d4cab4dee469ce9a" target="_top" xlink:title="Posunutí iterátoru vzad.">
<polygon fill="white" stroke="#666666" points="429,-676 320,-676 320,-657 429,-657 429,-676"/>
<text text-anchor="middle" x="374.5" y="-664" font-family="Helvetica,sans-Serif" font-size="10.00">heap_iterator_to_prev</text>
</a>
</g>
</g>
<!-- Node26&#45;&gt;Node27 -->
<g id="edge36_Node000026_Node000027" class="edge"><title>Node26&#45;&gt;Node27</title>
<g id="a_edge36_Node000026_Node000027"><a xlink:title=" ">
<path fill="none" stroke="#63b8ff" d="M659.093,-639.963C644.178,-642.75 628.016,-645.5 613,-647.5 550.267,-655.857 477.686,-661.012 429.436,-663.806"/>
<polygon fill="#63b8ff" stroke="#63b8ff" points="660.023,-643.349 669.19,-638.037 658.711,-636.473 660.023,-643.349"/>
</a>
</g>
</g>
<!-- Node28 -->
<g id="Node000028" class="node"><title>Node28</title>
<g id="a_Node000028"><a xlink:href="group___t_span.html#gaba2bf18029ccee38147943a1176f1673" target="_top" xlink:title="Posunutí iterátoru vzad.">
<polygon fill="white" stroke="#666666" points="596,-638 487,-638 487,-619 596,-619 596,-638"/>
<text text-anchor="middle" x="541.5" y="-626" font-family="Helvetica,sans-Serif" font-size="10.00">span_iterator_to_prev</text>
</a>
</g>
</g>
<!-- Node26&#45;&gt;Node28 -->
<g id="edge38_Node000026_Node000028" class="edge"><title>Node26&#45;&gt;Node28</title>
<g id="a_edge38_Node000026_Node000028"><a xlink:title=" ">
<path fill="none" stroke="#63b8ff" d="M648.579,-628.5C631.196,-628.5 612.655,-628.5 596.015,-628.5"/>
<polygon fill="#63b8ff" stroke="#63b8ff" points="648.657,-632 658.657,-628.5 648.656,-625 648.657,-632"/>
</a>
</g>
</g>
<!-- Node27&#45;&gt;Node7 -->
<g id="edge37_Node000027_Node000007" class="edge"><title>Node27&#45;&gt;Node7</title>
<g id="a_edge37_Node000027_Node000007"><a xlink:title=" ">
<path fill="none" stroke="#63b8ff" d="M309.722,-666.5C298.783,-666.5 288.092,-666.5 279.195,-666.5"/>
<polygon fill="#63b8ff" stroke="#63b8ff" points="309.794,-670 319.794,-666.5 309.794,-663 309.794,-670"/>
</a>
</g>
</g>
<!-- Node30 -->
<g id="Node000030" class="node"><title>Node30</title>
<g id="a_Node000030"><a xlink:href="group___t_heap.html#gac645f0bf424be39230e2472e55ad4f6e" target="_top" xlink:title="Přečtení hodnoty uzlu haldy pomocí iterátoru.">
<polygon fill="white" stroke="#666666" points="424.5,-563 324.5,-563 324.5,-544 424.5,-544 424.5,-563"/>
<text text-anchor="middle" x="374.5" y="-551" font-family="Helvetica,sans-Serif" font-size="10.00">heap_iterator_value</text>
</a>
</g>
</g>
<!-- Node29&#45;&gt;Node30 -->
<g id="edge40_Node000029_Node000030" class="edge"><title>Node29&#45;&gt;Node30</title>
<g id="a_edge40_Node000029_Node000030"><a xlink:title=" ">
<path fill="none" stroke="#63b8ff" d="M679.223,-474.603C659.826,-481.57 635.247,-490.011 613,-496.5 546.851,-515.794 468.985,-533.561 420.93,-543.965"/>
<polygon fill="#63b8ff" stroke="#63b8ff" points="680.646,-477.81 688.855,-471.112 678.261,-471.229 680.646,-477.81"/>
</a>
</g>
</g>
<!-- Node31 -->
<g id="Node000031" class="node"><title>Node31</title>
<g id="a_Node000031"><a xlink:href="group___basic_sorts.html#ga25c7ac8991c266d71b75cf20c14b67cf" target="_top" xlink:title="Vytisknutí elementu vektoru pomocí iterátoru.">
<polygon fill="white" stroke="#666666" points="579,-451 504,-451 504,-432 579,-432 579,-451"/>
<text text-anchor="middle" x="541.5" y="-439" font-family="Helvetica,sans-Serif" font-size="10.00">print_element</text>
</a>
</g>
</g>
<!-- Node29&#45;&gt;Node31 -->
<g id="edge43_Node000029_Node000031" class="edge"><title>Node29&#45;&gt;Node31</title>
<g id="a_edge43_Node000029_Node000031"><a xlink:title=" ">
<path fill="none" stroke="#63b8ff" d="M653.32,-454.386C628.557,-451.507 600.792,-448.278 579.247,-445.773"/>
<polygon fill="#63b8ff" stroke="#63b8ff" points="653.023,-457.875 663.36,-455.553 653.831,-450.922 653.023,-457.875"/>
</a>
</g>
</g>
<!-- Node32 -->
<g id="Node000032" class="node"><title>Node32</title>
<g id="a_Node000032"><a xlink:href="group___t_span.html#ga8796ef08880befbf07bda987120a58cb" target="_top" xlink:title="Přečtení hodnoty elementu z Spanu pomocí iterátoru.">
<polygon fill="white" stroke="#666666" points="591.5,-488 491.5,-488 491.5,-469 591.5,-469 591.5,-488"/>
<text text-anchor="middle" x="541.5" y="-476" font-family="Helvetica,sans-Serif" font-size="10.00">span_iterator_value</text>
</a>
</g>
</g>
<!-- Node29&#45;&gt;Node32 -->
<g id="edge45_Node000029_Node000032" class="edge"><title>Node29&#45;&gt;Node32</title>
<g id="a_edge45_Node000029_Node000032"><a xlink:title=" ">
<path fill="none" stroke="#63b8ff" d="M653.308,-467.548C633.089,-469.546 610.87,-471.742 591.67,-473.64"/>
<polygon fill="#63b8ff" stroke="#63b8ff" points="653.753,-471.021 663.36,-466.555 653.064,-464.055 653.753,-471.021"/>
</a>
</g>
</g>
<!-- Node30&#45;&gt;Node5 -->
<g id="edge41_Node000030_Node000005" class="edge"><title>Node30&#45;&gt;Node5</title>
<g id="a_edge41_Node000030_Node000005"><a xlink:title=" ">
<path fill="none" stroke="#63b8ff" d="M314.359,-562.963C278.154,-568.755 231.967,-576.145 195.665,-581.954"/>
<polygon fill="#63b8ff" stroke="#63b8ff" points="314.968,-566.41 324.29,-561.374 313.862,-559.498 314.968,-566.41"/>
</a>
</g>
</g>
<!-- Node30&#45;&gt;Node7 -->
<g id="edge42_Node000030_Node000007" class="edge"><title>Node30&#45;&gt;Node7</title>
<g id="a_edge42_Node000030_Node000007"><a xlink:title=" ">
<path fill="none" stroke="#63b8ff" d="M356.225,-570.184C331.384,-594.176 286.375,-637.646 266.45,-656.89"/>
<polygon fill="#63b8ff" stroke="#63b8ff" points="358.763,-572.599 363.525,-563.134 353.9,-567.564 358.763,-572.599"/>
</a>
</g>
</g>
<!-- Node31&#45;&gt;Node10 -->
<g id="edge44_Node000031_Node000010" class="edge"><title>Node31&#45;&gt;Node10</title>
<g id="a_edge44_Node000031_Node000010"><a xlink:title=" ">
<path fill="none" stroke="#63b8ff" d="M493.822,-436.125C466.671,-432.998 433.095,-429.132 408.655,-426.318"/>
<polygon fill="#63b8ff" stroke="#63b8ff" points="493.546,-439.616 503.881,-437.283 494.347,-432.662 493.546,-439.616"/>
</a>
</g>
</g>
<!-- Node34 -->
<g id="Node000034" class="node"><title>Node34</title>
<g id="a_Node000034"><a xlink:href="group__sortable___t_vector__with__shareable__sortstats.html#ga1e5a9731214337073162d3bb238639e1" target="_top" xlink:title="Test shodnosti dvou iterátorů">
<polygon fill="white" stroke="#666666" points="604.5,-190 478.5,-190 478.5,-171 604.5,-171 604.5,-190"/>
<text text-anchor="middle" x="541.5" y="-178" font-family="Helvetica,sans-Serif" font-size="10.00">heap_iterators_are_same</text>
</a>
</g>
</g>
<!-- Node33&#45;&gt;Node34 -->
<g id="edge47_Node000033_Node000034" class="edge"><title>Node33&#45;&gt;Node34</title>
<g id="a_edge47_Node000033_Node000034"><a xlink:title=" ">
<path fill="none" stroke="#63b8ff" d="M660.334,-205.848C636.707,-200.765 609.348,-194.88 586.943,-190.06"/>
<polygon fill="#63b8ff" stroke="#63b8ff" points="659.693,-209.29 670.206,-207.972 661.165,-202.447 659.693,-209.29"/>
</a>
</g>
</g>
<!-- Node35 -->
<g id="Node000035" class="node"><title>Node35</title>
<g id="a_Node000035"><a xlink:href="group___t_span.html#gabda724224638fb2f6016b6f8eba08263" target="_top" xlink:title="Test shodnosti dvou iterátorů">
<polygon fill="white" stroke="#666666" points="604.5,-227 478.5,-227 478.5,-208 604.5,-208 604.5,-227"/>
<text text-anchor="middle" x="541.5" y="-215" font-family="Helvetica,sans-Serif" font-size="10.00">span_iterators_are_same</text>
</a>
</g>
</g>
<!-- Node33&#45;&gt;Node35 -->
<g id="edge48_Node000033_Node000035" class="edge"><title>Node33&#45;&gt;Node35</title>
<g id="a_edge48_Node000033_Node000035"><a xlink:title=" ">
<path fill="none" stroke="#63b8ff" d="M639.739,-217.5C627.994,-217.5 615.964,-217.5 604.547,-217.5"/>
<polygon fill="#63b8ff" stroke="#63b8ff" points="639.964,-221 649.964,-217.5 639.964,-214 639.964,-221"/>
</a>
</g>
</g>
<!-- Node37 -->
<g id="Node000037" class="node"><title>Node37</title>
<g id="a_Node000037"><a xlink:href="group___t_heap.html#gaa7548708d4ee2e6afd1366cccc135f6a" target="_top" xlink:title="Přesun hodnoty uzlu haldy určené dvěma iterátory.">
<polygon fill="white" stroke="#666666" points="605.5,-564 477.5,-564 477.5,-545 605.5,-545 605.5,-564"/>
<text text-anchor="middle" x="541.5" y="-552" font-family="Helvetica,sans-Serif" font-size="10.00">heap_move_with_iterators</text>
</a>
</g>
</g>
<!-- Node36&#45;&gt;Node37 -->
<g id="edge50_Node000036_Node000037" class="edge"><title>Node36&#45;&gt;Node37</title>
<g id="a_edge50_Node000036_Node000037"><a xlink:title=" ">
<path fill="none" stroke="#63b8ff" d="M638.861,-554.5C627.744,-554.5 616.392,-554.5 605.564,-554.5"/>
<polygon fill="#63b8ff" stroke="#63b8ff" points="638.984,-558 648.984,-554.5 638.983,-551 638.984,-558"/>
</a>
</g>
</g>
<!-- Node38 -->
<g id="Node000038" class="node"><title>Node38</title>
<g id="a_Node000038"><a xlink:href="group___t_span.html#ga972048723036512595f461c3ba0a9d21" target="_top" xlink:title="Přesun hodnoty elementu Spanu určené dvěma iterátory.">
<polygon fill="white" stroke="#666666" points="605.5,-601 477.5,-601 477.5,-582 605.5,-582 605.5,-601"/>
<text text-anchor="middle" x="541.5" y="-589" font-family="Helvetica,sans-Serif" font-size="10.00">span_move_with_iterators</text>
</a>
</g>
</g>
<!-- Node36&#45;&gt;Node38 -->
<g id="edge53_Node000036_Node000038" class="edge"><title>Node36&#45;&gt;Node38</title>
<g id="a_edge53_Node000036_Node000038"><a xlink:title=" ">
<path fill="none" stroke="#63b8ff" d="M660.334,-566.152C636.707,-571.235 609.348,-577.12 586.943,-581.94"/>
<polygon fill="#63b8ff" stroke="#63b8ff" points="661.165,-569.553 670.206,-564.028 659.693,-562.71 661.165,-569.553"/>
</a>
</g>
</g>
<!-- Node37&#45;&gt;Node4 -->
<g id="edge52_Node000037_Node000004" class="edge"><title>Node37&#45;&gt;Node4</title>
<g id="a_edge52_Node000037_Node000004"><a xlink:title=" ">
<path fill="none" stroke="#63b8ff" d="M472.886,-569.826C471.886,-570.673 470.922,-571.563 470,-572.5 421.606,-621.672 474.111,-667.366 434,-723.5 425.267,-735.722 411.114,-744.83 398.917,-750.951"/>
<polygon fill="#63b8ff" stroke="#63b8ff" points="474.898,-572.691 481.19,-564.167 470.956,-566.906 474.898,-572.691"/>
</a>
</g>
</g>
<!-- Node37&#45;&gt;Node5 -->
<g id="edge51_Node000037_Node000005" class="edge"><title>Node37&#45;&gt;Node5</title>
<g id="a_edge51_Node000037_Node000005"><a xlink:title=" ">
<path fill="none" stroke="#63b8ff" d="M476.9,-565.625C462.807,-567.818 447.923,-569.925 434,-571.5 351.819,-580.797 256.364,-586.273 196.076,-589.08"/>
<polygon fill="#63b8ff" stroke="#63b8ff" points="477.671,-569.046 486.998,-564.019 476.572,-562.133 477.671,-569.046"/>
</a>
</g>
</g>
<!-- Node40 -->
<g id="Node000040" class="node"><title>Node40</title>
<g id="a_Node000040"><a xlink:href="group___t_heap.html#gada6619039c74de7852ababa894ff4029" target="_top" xlink:title="Výměna mezi hodnotou v uzlu haldy určenou iterátorem a proměnnou typu HeapElement.">
<polygon fill="white" stroke="#666666" points="603,-104.5 480,-104.5 480,-74.5 603,-74.5 603,-104.5"/>
<text text-anchor="start" x="488" y="-92.5" font-family="Helvetica,sans-Serif" font-size="10.00">heap_swap_with_iterator</text>
<text text-anchor="middle" x="541.5" y="-81.5" font-family="Helvetica,sans-Serif" font-size="10.00">_value</text>
</a>
</g>
</g>
<!-- Node39&#45;&gt;Node40 -->
<g id="edge55_Node000039_Node000040" class="edge"><title>Node39&#45;&gt;Node40</title>
<g id="a_edge55_Node000039_Node000040"><a xlink:title=" ">
<path fill="none" stroke="#63b8ff" d="M650.759,-119.712C632.838,-114.711 613.534,-109.323 596.259,-104.502"/>
<polygon fill="#63b8ff" stroke="#63b8ff" points="649.977,-123.127 660.55,-122.444 651.859,-116.385 649.977,-123.127"/>
</a>
</g>
</g>
<!-- Node41 -->
<g id="Node000041" class="node"><title>Node41</title>
<g id="a_Node000041"><a xlink:href="group___t_span.html#ga87439f0c5045aa7f177a37558b60d397" target="_top" xlink:title="Výměna mezi hodnotou elementu Spanu určenou iterátorem a proměnnou typu SpanElement.">
<polygon fill="white" stroke="#666666" points="603,-152.5 480,-152.5 480,-122.5 603,-122.5 603,-152.5"/>
<text text-anchor="start" x="488" y="-140.5" font-family="Helvetica,sans-Serif" font-size="10.00">span_swap_with_iterator</text>
<text text-anchor="middle" x="541.5" y="-129.5" font-family="Helvetica,sans-Serif" font-size="10.00">_value</text>
</a>
</g>
</g>
<!-- Node39&#45;&gt;Node41 -->
<g id="edge56_Node000039_Node000041" class="edge"><title>Node39&#45;&gt;Node41</title>
<g id="a_edge56_Node000039_Node000041"><a xlink:title=" ">
<path fill="none" stroke="#63b8ff" d="M641.355,-137.5C628.662,-137.5 615.587,-137.5 603.269,-137.5"/>
<polygon fill="#63b8ff" stroke="#63b8ff" points="641.43,-141 651.43,-137.5 641.43,-134 641.43,-141"/>
</a>
</g>
</g>
<!-- Node43 -->
<g id="Node000043" class="node"><title>Node43</title>
<g id="a_Node000043"><a xlink:href="group___t_heap.html#ga03d48bdfc99322c0e16fd502820ce43d" target="_top" xlink:title="Výměna hodnot uzlů haldy určených dvěma iterátory.">
<polygon fill="white" stroke="#666666" points="605.5,-19 477.5,-19 477.5,-0 605.5,-0 605.5,-19"/>
<text text-anchor="middle" x="541.5" y="-7" font-family="Helvetica,sans-Serif" font-size="10.00">heap_swap_with_iterators</text>
</a>
</g>
</g>
<!-- Node42&#45;&gt;Node43 -->
<g id="edge58_Node000042_Node000043" class="edge"><title>Node42&#45;&gt;Node43</title>
<g id="a_edge58_Node000042_Node000043"><a xlink:title=" ">
<path fill="none" stroke="#63b8ff" d="M660.334,-34.848C636.707,-29.7655 609.348,-23.8801 586.943,-19.0604"/>
<polygon fill="#63b8ff" stroke="#63b8ff" points="659.693,-38.2902 670.206,-36.9716 661.165,-31.4467 659.693,-38.2902"/>
</a>
</g>
</g>
<!-- Node44 -->
<g id="Node000044" class="node"><title>Node44</title>
<g id="a_Node000044"><a xlink:href="group___t_span.html#ga2bc9c4a1a22d533a1a01ddb8cb57cfca" target="_top" xlink:title="Výměna hodnot elementů Spanů určených dvěma iterátory.">
<polygon fill="white" stroke="#666666" points="605.5,-56 477.5,-56 477.5,-37 605.5,-37 605.5,-56"/>
<text text-anchor="middle" x="541.5" y="-44" font-family="Helvetica,sans-Serif" font-size="10.00">span_swap_with_iterators</text>
</a>
</g>
</g>
<!-- Node42&#45;&gt;Node44 -->
<g id="edge59_Node000042_Node000044" class="edge"><title>Node42&#45;&gt;Node44</title>
<g id="a_edge59_Node000042_Node000044"><a xlink:title=" ">
<path fill="none" stroke="#63b8ff" d="M638.861,-46.5C627.744,-46.5 616.392,-46.5 605.564,-46.5"/>
<polygon fill="#63b8ff" stroke="#63b8ff" points="638.984,-50.0001 648.984,-46.5 638.983,-43.0001 638.984,-50.0001"/>
</a>
</g>
</g>
</g>
</svg>
