<?xml version="1.0" encoding="UTF-8" standalone="no"?>
<!DOCTYPE svg PUBLIC "-//W3C//DTD SVG 1.1//EN"
 "http://www.w3.org/Graphics/SVG/1.1/DTD/svg11.dtd">
<!-- Generated by graphviz version 2.38.0 (20140413.2041)
 -->
<!-- Title: merge_sort Pages: 1 -->
<svg width="819pt" height="202pt"
 viewBox="0.00 0.00 819.00 201.50" xmlns="http://www.w3.org/2000/svg" xmlns:xlink="http://www.w3.org/1999/xlink">
<g id="graph0" class="graph" transform="scale(1 1) rotate(0) translate(4 197.5)">
<title>merge_sort</title>
<!-- Node1 -->
<g id="Node000001" class="node"><title>Node1</title>
<g id="a_Node000001"><a xlink:title="Třídění pomocí metody slučováním (Merge sort) využívající rekurzivní rozklad.">
<polygon fill="#999999" stroke="#666666" points="65,-93 0,-93 0,-74 65,-74 65,-93"/>
<text text-anchor="middle" x="32.5" y="-81" font-family="Helvetica,sans-Serif" font-size="10.00">merge_sort</text>
</a>
</g>
</g>
<!-- Node2 -->
<g id="Node000002" class="node"><title>Node2</title>
<g id="a_Node000002"><a xlink:href="merge__sort_8c.html#a41bfb4129631a73ffc60c10381af80c2" target="_top" xlink:title="Vnitřní a lokální funkce realizující rekurzivní funkci pro metodu (Merge Sort)">
<polygon fill="white" stroke="#666666" points="209.5,-167 110.5,-167 110.5,-148 209.5,-148 209.5,-167"/>
<text text-anchor="middle" x="160" y="-155" font-family="Helvetica,sans-Serif" font-size="10.00">merge_sort_worker</text>
</a>
</g>
</g>
<!-- Node1&#45;&gt;Node2 -->
<g id="edge1_Node000001_Node000002" class="edge"><title>Node1&#45;&gt;Node2</title>
<g id="a_edge1_Node000001_Node000002"><a xlink:title=" ">
<path fill="none" stroke="#63b8ff" d="M42.6705,-93.1697C54.895,-105.541 77.7077,-126.874 101,-139.5 104.25,-141.262 107.698,-142.878 111.228,-144.357"/>
<polygon fill="#63b8ff" stroke="#63b8ff" points="110.096,-147.671 120.687,-147.952 112.583,-141.128 110.096,-147.671"/>
</a>
</g>
</g>
<!-- Node9 -->
<g id="Node000009" class="node"><title>Node9</title>
<g id="a_Node000009"><a xlink:href="group__sortable___t_vector__with__shareable__sortstats.html#gad8dab56657c4e8504ecdfef34ca91f19" target="_top" xlink:title="Napojení statistik o počtu operací s elementy jednoho vektoru na statistiky jiného vektoru.">
<polygon fill="white" stroke="#666666" points="219,-130 101,-130 101,-111 219,-111 219,-130"/>
<text text-anchor="middle" x="160" y="-118" font-family="Helvetica,sans-Serif" font-size="10.00">vector_attach_sortstats</text>
</a>
</g>
</g>
<!-- Node1&#45;&gt;Node9 -->
<g id="edge9_Node000001_Node000009" class="edge"><title>Node1&#45;&gt;Node9</title>
<g id="a_edge9_Node000001_Node000009"><a xlink:title=" ">
<path fill="none" stroke="#63b8ff" d="M65.1689,-92.8367C80.8297,-97.4538 99.946,-103.09 116.828,-108.067"/>
<polygon fill="#63b8ff" stroke="#63b8ff" points="115.885,-111.438 126.466,-110.908 117.864,-104.723 115.885,-111.438"/>
</a>
</g>
</g>
<!-- Node10 -->
<g id="Node000010" class="node"><title>Node10</title>
<g id="a_Node000010"><a xlink:href="group___t_vector.html#ga6b0b8780d60dad02b8569be119769548" target="_top" xlink:title="Vytvoření úplné kopie vektoru.">
<polygon fill="white" stroke="#666666" points="195.5,-93 124.5,-93 124.5,-74 195.5,-74 195.5,-93"/>
<text text-anchor="middle" x="160" y="-81" font-family="Helvetica,sans-Serif" font-size="10.00">vector_clone</text>
</a>
</g>
</g>
<!-- Node1&#45;&gt;Node10 -->
<g id="edge10_Node000001_Node000010" class="edge"><title>Node1&#45;&gt;Node10</title>
<g id="a_edge10_Node000001_Node000010"><a xlink:title=" ">
<path fill="none" stroke="#63b8ff" d="M65.1689,-83.5C79.9413,-83.5 97.7883,-83.5 113.934,-83.5"/>
<polygon fill="#63b8ff" stroke="#63b8ff" points="114.25,-87.0001 124.25,-83.5 114.25,-80.0001 114.25,-87.0001"/>
</a>
</g>
</g>
<!-- Node11 -->
<g id="Node000011" class="node"><title>Node11</title>
<g id="a_Node000011"><a xlink:href="group___t_vector.html#ga41fcff5418fe213f2caaa586f521bcd6" target="_top" xlink:title="Dealokace vektoru.">
<polygon fill="white" stroke="#666666" points="200,-56 120,-56 120,-37 200,-37 200,-56"/>
<text text-anchor="middle" x="160" y="-44" font-family="Helvetica,sans-Serif" font-size="10.00">vector_destroy</text>
</a>
</g>
</g>
<!-- Node1&#45;&gt;Node11 -->
<g id="edge11_Node000001_Node000011" class="edge"><title>Node1&#45;&gt;Node11</title>
<g id="a_edge11_Node000001_Node000011"><a xlink:title=" ">
<path fill="none" stroke="#63b8ff" d="M65.1689,-74.1633C80.8297,-69.5462 99.946,-63.9103 116.828,-58.9332"/>
<polygon fill="#63b8ff" stroke="#63b8ff" points="117.864,-62.2767 126.466,-56.0916 115.885,-55.5624 117.864,-62.2767"/>
</a>
</g>
</g>
<!-- Node12 -->
<g id="Node000012" class="node"><title>Node12</title>
<g id="a_Node000012"><a xlink:href="group___t_vector.html#ga2502e6ec116dbac5e49f5b62b07dc898" target="_top" xlink:title="Přečtení počtu elementů vektoru.">
<polygon fill="white" stroke="#666666" points="192.5,-19 127.5,-19 127.5,-0 192.5,-0 192.5,-19"/>
<text text-anchor="middle" x="160" y="-7" font-family="Helvetica,sans-Serif" font-size="10.00">vector_size</text>
</a>
</g>
</g>
<!-- Node1&#45;&gt;Node12 -->
<g id="edge12_Node000001_Node000012" class="edge"><title>Node1&#45;&gt;Node12</title>
<g id="a_edge12_Node000001_Node000012"><a xlink:title=" ">
<path fill="none" stroke="#63b8ff" d="M43.1637,-73.6484C55.5567,-61.5102 78.1844,-40.9683 101,-28.5 106.242,-25.6354 111.988,-23.1111 117.761,-20.9161"/>
<polygon fill="#63b8ff" stroke="#63b8ff" points="119.141,-24.1415 127.42,-17.531 116.825,-17.5354 119.141,-24.1415"/>
</a>
</g>
</g>
<!-- Node2&#45;&gt;Node2 -->
<g id="edge2_Node000002_Node000002" class="edge"><title>Node2&#45;&gt;Node2</title>
<g id="a_edge2_Node000002_Node000002"><a xlink:title=" ">
<path fill="none" stroke="#63b8ff" d="M141.813,-167.083C132.965,-175.734 139.027,-185 160,-185 173.108,-185 180.392,-181.38 181.851,-176.554"/>
<polygon fill="#63b8ff" stroke="#63b8ff" points="185.059,-175.147 178.187,-167.083 178.531,-177.672 185.059,-175.147"/>
</a>
</g>
</g>
<!-- Node3 -->
<g id="Node000003" class="node"><title>Node3</title>
<g id="a_Node000003"><a xlink:href="merge__sort_8c.html#a662181aab782eefc61f71886c9aa21ab" target="_top" xlink:title="Vnitřní a lokální funkce realizující sloučení dvou již setříděných rozsahů z vektoru aFromVector do v...">
<polygon fill="white" stroke="#666666" points="303,-167 255,-167 255,-148 303,-148 303,-167"/>
<text text-anchor="middle" x="279" y="-155" font-family="Helvetica,sans-Serif" font-size="10.00">mergify</text>
</a>
</g>
</g>
<!-- Node2&#45;&gt;Node3 -->
<g id="edge3_Node000002_Node000003" class="edge"><title>Node2&#45;&gt;Node3</title>
<g id="a_edge3_Node000002_Node000003"><a xlink:title=" ">
<path fill="none" stroke="#63b8ff" d="M209.602,-157.5C221.497,-157.5 233.954,-157.5 244.928,-157.5"/>
<polygon fill="#63b8ff" stroke="#63b8ff" points="244.929,-161 254.929,-157.5 244.929,-154 244.929,-161"/>
</a>
</g>
</g>
<!-- Node4 -->
<g id="Node000004" class="node"><title>Node4</title>
<g id="a_Node000004"><a xlink:href="group__sortable___t_vector.html#gaedaf9c79afa345e5e71e5c66ab25fa26" target="_top" xlink:title="Porovnání hodnot elementů vektorů">
<polygon fill="white" stroke="#666666" points="468,-186 339,-186 339,-167 468,-167 468,-186"/>
<text text-anchor="middle" x="403.5" y="-174" font-family="Helvetica,sans-Serif" font-size="10.00">vector_compare_positions</text>
</a>
</g>
</g>
<!-- Node3&#45;&gt;Node4 -->
<g id="edge4_Node000003_Node000004" class="edge"><title>Node3&#45;&gt;Node4</title>
<g id="a_edge4_Node000003_Node000004"><a xlink:title=" ">
<path fill="none" stroke="#63b8ff" d="M303.041,-161.074C311.202,-162.34 320.87,-163.839 330.92,-165.398"/>
<polygon fill="#63b8ff" stroke="#63b8ff" points="330.637,-168.896 341.055,-166.97 331.71,-161.978 330.637,-168.896"/>
</a>
</g>
</g>
<!-- Node7 -->
<g id="Node000007" class="node"><title>Node7</title>
<g id="a_Node000007"><a xlink:href="group__sortable___t_vector.html#ga16623c06371077674f5d4d31e38e42a4" target="_top" xlink:title="Přesun hodnoty elementu vektoru.">
<polygon fill="white" stroke="#666666" points="460.5,-148 346.5,-148 346.5,-129 460.5,-129 460.5,-148"/>
<text text-anchor="middle" x="403.5" y="-136" font-family="Helvetica,sans-Serif" font-size="10.00">vector_move_positions</text>
</a>
</g>
</g>
<!-- Node3&#45;&gt;Node7 -->
<g id="edge7_Node000003_Node000007" class="edge"><title>Node3&#45;&gt;Node7</title>
<g id="a_edge7_Node000003_Node000007"><a xlink:title=" ">
<path fill="none" stroke="#63b8ff" d="M303.041,-153.926C312.679,-152.431 324.419,-150.611 336.408,-148.751"/>
<polygon fill="#63b8ff" stroke="#63b8ff" points="337.15,-152.178 346.496,-147.186 336.077,-145.26 337.15,-152.178"/>
</a>
</g>
</g>
<!-- Node5 -->
<g id="Node000005" class="node"><title>Node5</title>
<g id="a_Node000005"><a xlink:href="_t_vector_8c.html#a188bab569c3ae8a25070f632a6f53e62" target="_top" xlink:title=" ">
<polygon fill="white" stroke="#666666" points="624.5,-193.5 518.5,-193.5 518.5,-163.5 624.5,-163.5 624.5,-193.5"/>
<text text-anchor="start" x="526.5" y="-181.5" font-family="Helvetica,sans-Serif" font-size="10.00">vector_fast_compare</text>
<text text-anchor="middle" x="571.5" y="-170.5" font-family="Helvetica,sans-Serif" font-size="10.00">_positions</text>
</a>
</g>
</g>
<!-- Node4&#45;&gt;Node5 -->
<g id="edge5_Node000004_Node000005" class="edge"><title>Node4&#45;&gt;Node5</title>
<g id="a_edge5_Node000004_Node000005"><a xlink:title=" ">
<path fill="none" stroke="#63b8ff" d="M468.205,-177.268C481.263,-177.425 494.996,-177.59 508.011,-177.747"/>
<polygon fill="#63b8ff" stroke="#63b8ff" points="508.227,-181.25 518.268,-177.871 508.311,-174.25 508.227,-181.25"/>
</a>
</g>
</g>
<!-- Node6 -->
<g id="Node000006" class="node"><title>Node6</title>
<g id="a_Node000006"><a xlink:href="group___t_vector_element.html#ga82e527836fce12c93af896f65e9f701d" target="_top" xlink:title="Porovnání dvou elementů">
<polygon fill="white" stroke="#666666" points="811,-188 675,-188 675,-169 811,-169 811,-188"/>
<text text-anchor="middle" x="743" y="-176" font-family="Helvetica,sans-Serif" font-size="10.00">vector_element_comparator</text>
</a>
</g>
</g>
<!-- Node5&#45;&gt;Node6 -->
<g id="edge6_Node000005_Node000006" class="edge"><title>Node5&#45;&gt;Node6</title>
<g id="a_edge6_Node000005_Node000006"><a xlink:title=" ">
<path fill="none" stroke="#63b8ff" d="M624.739,-178.5C637.373,-178.5 651.144,-178.5 664.662,-178.5"/>
<polygon fill="#63b8ff" stroke="#63b8ff" points="664.926,-182 674.926,-178.5 664.926,-175 664.926,-182"/>
</a>
</g>
</g>
<!-- Node8 -->
<g id="Node000008" class="node"><title>Node8</title>
<g id="a_Node000008"><a xlink:href="_t_vector_8c.html#a0e3151269c65b7033ddecb4c3aee6566" target="_top" xlink:title=" ">
<polygon fill="white" stroke="#666666" points="639,-145 504,-145 504,-126 639,-126 639,-145"/>
<text text-anchor="middle" x="571.5" y="-133" font-family="Helvetica,sans-Serif" font-size="10.00">vector_fast_move_positions</text>
</a>
</g>
</g>
<!-- Node7&#45;&gt;Node8 -->
<g id="edge8_Node000007_Node000008" class="edge"><title>Node7&#45;&gt;Node8</title>
<g id="a_edge8_Node000007_Node000008"><a xlink:title=" ">
<path fill="none" stroke="#63b8ff" d="M460.7,-137.484C471.286,-137.293 482.524,-137.09 493.615,-136.889"/>
<polygon fill="#63b8ff" stroke="#63b8ff" points="493.801,-140.387 503.736,-136.707 493.675,-133.388 493.801,-140.387"/>
</a>
</g>
</g>
</g>
</svg>
