<?xml version="1.0" encoding="UTF-8" standalone="no"?>
<!DOCTYPE svg PUBLIC "-//W3C//DTD SVG 1.1//EN"
 "http://www.w3.org/Graphics/SVG/1.1/DTD/svg11.dtd">
<!-- Generated by graphviz version 2.38.0 (20140413.2041)
 -->
<!-- Title: heap_value Pages: 1 -->
<svg width="325pt" height="46pt"
 viewBox="0.00 0.00 325.00 46.00" xmlns="http://www.w3.org/2000/svg" xmlns:xlink="http://www.w3.org/1999/xlink">
<g id="graph0" class="graph" transform="scale(1 1) rotate(0) translate(4 42)">
<title>heap_value</title>
<!-- Node1 -->
<g id="Node000001" class="node"><title>Node1</title>
<g id="a_Node000001"><a xlink:title="Přečtení hodnoty z uzlu haldy dle požadované pozice.">
<polygon fill="#999999" stroke="#666666" points="317,-38 252,-38 252,-19 317,-19 317,-38"/>
<text text-anchor="middle" x="284.5" y="-26" font-family="Helvetica,sans-Serif" font-size="10.00">heap_value</text>
</a>
</g>
</g>
<!-- Node2 -->
<g id="Node000002" class="node"><title>Node2</title>
<g id="a_Node000002"><a xlink:href="group___powerful_sorts.html#gaf564949cc194e5feea63d6c2aaa3125a" target="_top" xlink:title="Třídění pomocí haldy (Heap Sort) využívající poziční API pro přístup k elementům vektoru.">
<polygon fill="white" stroke="#666666" points="133,-38 74,-38 74,-19 133,-19 133,-38"/>
<text text-anchor="middle" x="103.5" y="-26" font-family="Helvetica,sans-Serif" font-size="10.00">heap_sort</text>
</a>
</g>
</g>
<!-- Node1&#45;&gt;Node2 -->
<g id="edge1_Node000001_Node000002" class="edge"><title>Node1&#45;&gt;Node2</title>
<g id="a_edge1_Node000001_Node000002"><a xlink:title=" ">
<path fill="none" stroke="#63b8ff" d="M241.55,-28.5C208.182,-28.5 162.388,-28.5 133.116,-28.5"/>
<polygon fill="#63b8ff" stroke="#63b8ff" points="241.91,-32.0001 251.91,-28.5 241.91,-25.0001 241.91,-32.0001"/>
</a>
</g>
</g>
<!-- Node4 -->
<g id="Node000004" class="node"><title>Node4</title>
<g id="a_Node000004"><a xlink:href="heap__sort_8c.html#aceaf0618c69440f1e439e224eb6945dc" target="_top" xlink:title="Vnitřní a lokální funkce realizující uspořádání elementů vektoru do haldy.">
<polygon fill="white" stroke="#666666" points="216,-19 169,-19 169,-0 216,-0 216,-19"/>
<text text-anchor="middle" x="192.5" y="-7" font-family="Helvetica,sans-Serif" font-size="10.00">heapify</text>
</a>
</g>
</g>
<!-- Node1&#45;&gt;Node4 -->
<g id="edge3_Node000001_Node000004" class="edge"><title>Node1&#45;&gt;Node4</title>
<g id="a_edge3_Node000001_Node000004"><a xlink:title=" ">
<path fill="none" stroke="#63b8ff" d="M241.915,-19.7209C233.054,-17.8504 224.016,-15.9423 216.185,-14.2891"/>
<polygon fill="#63b8ff" stroke="#63b8ff" points="241.262,-23.1602 251.769,-21.8013 242.708,-16.3111 241.262,-23.1602"/>
</a>
</g>
</g>
<!-- Node3 -->
<g id="Node000003" class="node"><title>Node3</title>
<g id="a_Node000003"><a xlink:href="group___main_program.html#ga0ddf1224851353fc92bfbff6f499fa97" target="_top" xlink:title=" ">
<polygon fill="white" stroke="#666666" points="38,-38 0,-38 0,-19 38,-19 38,-38"/>
<text text-anchor="middle" x="19" y="-26" font-family="Helvetica,sans-Serif" font-size="10.00">main</text>
</a>
</g>
</g>
<!-- Node2&#45;&gt;Node3 -->
<g id="edge2_Node000002_Node000003" class="edge"><title>Node2&#45;&gt;Node3</title>
<g id="a_edge2_Node000002_Node000003"><a xlink:title=" ">
<path fill="none" stroke="#63b8ff" d="M63.5123,-28.5C54.7457,-28.5 45.8424,-28.5 38.3927,-28.5"/>
<polygon fill="#63b8ff" stroke="#63b8ff" points="63.6455,-32.0001 73.6455,-28.5 63.6455,-25.0001 63.6455,-32.0001"/>
</a>
</g>
</g>
<!-- Node4&#45;&gt;Node2 -->
<g id="edge4_Node000004_Node000002" class="edge"><title>Node4&#45;&gt;Node2</title>
<g id="a_edge4_Node000004_Node000002"><a xlink:title=" ">
<path fill="none" stroke="#63b8ff" d="M158.742,-16.654C150.318,-18.4939 141.319,-20.459 133.123,-22.2491"/>
<polygon fill="#63b8ff" stroke="#63b8ff" points="159.619,-20.0451 168.642,-14.492 158.125,-13.2063 159.619,-20.0451"/>
</a>
</g>
</g>
</g>
</svg>
