<?xml version="1.0" encoding="UTF-8" standalone="no"?>
<!DOCTYPE svg PUBLIC "-//W3C//DTD SVG 1.1//EN"
 "http://www.w3.org/Graphics/SVG/1.1/DTD/svg11.dtd">
<!-- Generated by graphviz version 2.38.0 (20140413.2041)
 -->
<!-- Title: heap_sort_with_iterators Pages: 1 -->
<svg width="1124pt" height="546pt"
 viewBox="0.00 0.00 1124.00 545.50" xmlns="http://www.w3.org/2000/svg" xmlns:xlink="http://www.w3.org/1999/xlink">
<g id="graph0" class="graph" transform="scale(1 1) rotate(0) translate(4 541.5)">
<title>heap_sort_with_iterators</title>
<!-- Node1 -->
<g id="Node000001" class="node"><title>Node1</title>
<g id="a_Node000001"><a xlink:title="Třídění pomocí haldy (Heap Sort) využívající iterátorové API pro přístup k elementům vektoru.">
<polygon fill="#999999" stroke="#666666" points="122,-368.5 7.10543e-015,-368.5 7.10543e-015,-349.5 122,-349.5 122,-368.5"/>
<text text-anchor="middle" x="61" y="-356.5" font-family="Helvetica,sans-Serif" font-size="10.00">heap_sort_with_iterators</text>
</a>
</g>
</g>
<!-- Node2 -->
<g id="Node000002" class="node"><title>Node2</title>
<g id="a_Node000002"><a xlink:href="group___t_heap.html#ga5c6b9b9c85c8d3d56ae9d8b7c9efcb0f" target="_top" xlink:title="Vytvoření Heap pro celý vektor.">
<polygon fill="white" stroke="#666666" points="249,-537.5 179,-537.5 179,-518.5 249,-518.5 249,-537.5"/>
<text text-anchor="middle" x="214" y="-525.5" font-family="Helvetica,sans-Serif" font-size="10.00">heap_create</text>
</a>
</g>
</g>
<!-- Node1&#45;&gt;Node2 -->
<g id="edge1_Node000001_Node000002" class="edge"><title>Node1&#45;&gt;Node2</title>
<g id="a_edge1_Node000001_Node000002"><a xlink:title=" ">
<path fill="none" stroke="#63b8ff" d="M65.4773,-368.755C75.4889,-395.453 106.97,-470.364 158,-510 161.532,-512.744 165.499,-515.077 169.642,-517.061"/>
<polygon fill="#63b8ff" stroke="#63b8ff" points="168.316,-520.299 178.895,-520.866 170.978,-513.825 168.316,-520.299"/>
</a>
</g>
</g>
<!-- Node3 -->
<g id="Node000003" class="node"><title>Node3</title>
<g id="a_Node000003"><a xlink:href="group___t_heap.html#ga949d1c5fea06774f24e6d63f13cadb56" target="_top" xlink:title="Dekrementace počtu uzlů haldy.">
<polygon fill="white" stroke="#666666" points="270,-500.5 158,-500.5 158,-481.5 270,-481.5 270,-500.5"/>
<text text-anchor="middle" x="214" y="-488.5" font-family="Helvetica,sans-Serif" font-size="10.00">heap_decrement_size</text>
</a>
</g>
</g>
<!-- Node1&#45;&gt;Node3 -->
<g id="edge2_Node000001_Node000003" class="edge"><title>Node1&#45;&gt;Node3</title>
<g id="a_edge2_Node000001_Node000003"><a xlink:title=" ">
<path fill="none" stroke="#63b8ff" d="M67.6135,-368.823C80.639,-390.756 115.103,-444.055 158,-473 160.264,-474.528 162.668,-475.934 165.156,-477.228"/>
<polygon fill="#63b8ff" stroke="#63b8ff" points="163.882,-480.493 174.435,-481.432 166.771,-474.117 163.882,-480.493"/>
</a>
</g>
</g>
<!-- Node4 -->
<g id="Node000004" class="node"><title>Node4</title>
<g id="a_Node000004"><a xlink:href="group___t_heap.html#ga53d2e1b9cb5058280bbea769d0f1ec0d" target="_top" xlink:title="Vytvoření nového iterátoru ukazujícího na kořenový uzel haldy.">
<polygon fill="white" stroke="#666666" points="264.5,-463.5 163.5,-463.5 163.5,-444.5 264.5,-444.5 264.5,-463.5"/>
<text text-anchor="middle" x="214" y="-451.5" font-family="Helvetica,sans-Serif" font-size="10.00">heap_iterator_begin</text>
</a>
</g>
</g>
<!-- Node1&#45;&gt;Node4 -->
<g id="edge3_Node000001_Node000004" class="edge"><title>Node1&#45;&gt;Node4</title>
<g id="a_edge3_Node000001_Node000004"><a xlink:title=" ">
<path fill="none" stroke="#63b8ff" d="M73.2393,-368.635C90.595,-383.199 125.337,-411.119 158,-430 164.449,-433.728 171.586,-437.246 178.524,-440.38"/>
<polygon fill="#63b8ff" stroke="#63b8ff" points="177.211,-443.625 187.777,-444.399 180,-437.205 177.211,-443.625"/>
</a>
</g>
</g>
<!-- Node6 -->
<g id="Node000006" class="node"><title>Node6</title>
<g id="a_Node000006"><a xlink:href="group___t_heap.html#gaad26057e7e2deea467b61eb79d73a1da" target="_top" xlink:title="Vytvoření nového iterátoru ukazujícího na nejpravější listový uzel haldy.">
<polygon fill="white" stroke="#666666" points="412.5,-425.5 318.5,-425.5 318.5,-406.5 412.5,-406.5 412.5,-425.5"/>
<text text-anchor="middle" x="365.5" y="-413.5" font-family="Helvetica,sans-Serif" font-size="10.00">heap_iterator_last</text>
</a>
</g>
</g>
<!-- Node1&#45;&gt;Node6 -->
<g id="edge5_Node000001_Node000006" class="edge"><title>Node1&#45;&gt;Node6</title>
<g id="a_edge5_Node000001_Node000006"><a xlink:title=" ">
<path fill="none" stroke="#63b8ff" d="M85.2608,-368.579C104.453,-376.095 132.565,-386.221 158,-392 208.235,-403.413 266.645,-409.56 308.499,-412.765"/>
<polygon fill="#63b8ff" stroke="#63b8ff" points="308.27,-416.258 318.5,-413.499 308.783,-409.277 308.27,-416.258"/>
</a>
</g>
</g>
<!-- Node8 -->
<g id="Node000008" class="node"><title>Node8</title>
<g id="a_Node000008"><a xlink:href="group___t_heap.html#gac645f0bf424be39230e2472e55ad4f6e" target="_top" xlink:title="Přečtení hodnoty uzlu haldy pomocí iterátoru.">
<polygon fill="white" stroke="#666666" points="415.5,-349.5 315.5,-349.5 315.5,-330.5 415.5,-330.5 415.5,-349.5"/>
<text text-anchor="middle" x="365.5" y="-337.5" font-family="Helvetica,sans-Serif" font-size="10.00">heap_iterator_value</text>
</a>
</g>
</g>
<!-- Node1&#45;&gt;Node8 -->
<g id="edge7_Node000001_Node000008" class="edge"><title>Node1&#45;&gt;Node8</title>
<g id="a_edge7_Node000001_Node000008"><a xlink:title=" ">
<path fill="none" stroke="#63b8ff" d="M122.126,-355.223C175.27,-351.886 252.343,-347.045 305.229,-343.723"/>
<polygon fill="#63b8ff" stroke="#63b8ff" points="305.708,-347.2 315.469,-343.08 305.269,-340.213 305.708,-347.2"/>
</a>
</g>
</g>
<!-- Node12 -->
<g id="Node000012" class="node"><title>Node12</title>
<g id="a_Node000012"><a xlink:href="group___t_heap.html#gaa7548708d4ee2e6afd1366cccc135f6a" target="_top" xlink:title="Přesun hodnoty uzlu haldy určené dvěma iterátory.">
<polygon fill="white" stroke="#666666" points="596.5,-387.5 468.5,-387.5 468.5,-368.5 596.5,-368.5 596.5,-387.5"/>
<text text-anchor="middle" x="532.5" y="-375.5" font-family="Helvetica,sans-Serif" font-size="10.00">heap_move_with_iterators</text>
</a>
</g>
</g>
<!-- Node1&#45;&gt;Node12 -->
<g id="edge11_Node000001_Node000012" class="edge"><title>Node1&#45;&gt;Node12</title>
<g id="a_edge11_Node000001_Node000012"><a xlink:title=" ">
<path fill="none" stroke="#63b8ff" d="M122.172,-361.521C134.047,-362.015 146.416,-362.526 158,-363 262.195,-367.263 382.746,-372.084 458.066,-375.083"/>
<polygon fill="#63b8ff" stroke="#63b8ff" points="458.256,-378.594 468.387,-375.494 458.534,-371.599 458.256,-378.594"/>
</a>
</g>
</g>
<!-- Node15 -->
<g id="Node000015" class="node"><title>Node15</title>
<g id="a_Node000015"><a xlink:href="group___t_heap.html#gafaf85f5864f8cc9b2f6203a99e41ccc8" target="_top" xlink:title="Přečtení počtu uzlů haldy.">
<polygon fill="white" stroke="#666666" points="244.5,-235.5 183.5,-235.5 183.5,-216.5 244.5,-216.5 244.5,-235.5"/>
<text text-anchor="middle" x="214" y="-223.5" font-family="Helvetica,sans-Serif" font-size="10.00">heap_size</text>
</a>
</g>
</g>
<!-- Node1&#45;&gt;Node15 -->
<g id="edge15_Node000001_Node000015" class="edge"><title>Node1&#45;&gt;Node15</title>
<g id="a_edge15_Node000001_Node000015"><a xlink:title=" ">
<path fill="none" stroke="#63b8ff" d="M68.3381,-349.28C82.2926,-328.535 117.659,-279.419 158,-250 163.303,-246.133 169.327,-242.715 175.396,-239.761"/>
<polygon fill="#63b8ff" stroke="#63b8ff" points="177.187,-242.793 184.872,-235.5 174.316,-236.409 177.187,-242.793"/>
</a>
</g>
</g>
<!-- Node16 -->
<g id="Node000016" class="node"><title>Node16</title>
<g id="a_Node000016"><a xlink:href="heap__sort__with__iterators_8c.html#aceaf0618c69440f1e439e224eb6945dc" target="_top" xlink:title="Vnitřní a lokální funkce realizující uspořádání elementů vektoru do haldy.">
<polygon fill="white" stroke="#666666" points="237.5,-311.5 190.5,-311.5 190.5,-292.5 237.5,-292.5 237.5,-311.5"/>
<text text-anchor="middle" x="214" y="-299.5" font-family="Helvetica,sans-Serif" font-size="10.00">heapify</text>
</a>
</g>
</g>
<!-- Node1&#45;&gt;Node16 -->
<g id="edge16_Node000001_Node000016" class="edge"><title>Node1&#45;&gt;Node16</title>
<g id="a_edge16_Node000001_Node000016"><a xlink:title=" ">
<path fill="none" stroke="#63b8ff" d="M87.274,-349.459C112.847,-339.806 152.489,-324.842 180.41,-314.302"/>
<polygon fill="#63b8ff" stroke="#63b8ff" points="181.999,-317.443 190.119,-310.637 179.527,-310.894 181.999,-317.443"/>
</a>
</g>
</g>
<!-- Node22 -->
<g id="Node000022" class="node"><title>Node22</title>
<g id="a_Node000022"><a xlink:href="heap__sort__with__iterators_8c.html#a7bf828c9c4eb35c2121c3f7d1177d19b" target="_top" xlink:title="Vnitřní a lokální funkce zajišťující vložení hodnoty do zvoleného uzlu haldy, při zachování podmínek ...">
<polygon fill="white" stroke="#666666" points="394,-179.5 337,-179.5 337,-160.5 394,-160.5 394,-179.5"/>
<text text-anchor="middle" x="365.5" y="-167.5" font-family="Helvetica,sans-Serif" font-size="10.00">sift_down</text>
</a>
</g>
</g>
<!-- Node1&#45;&gt;Node22 -->
<g id="edge48_Node000001_Node000022" class="edge"><title>Node1&#45;&gt;Node22</title>
<g id="a_edge48_Node000001_Node000022"><a xlink:title=" ">
<path fill="none" stroke="#63b8ff" d="M71.835,-349.331C88.3712,-333.531 123.347,-302.038 158,-283 204.197,-257.621 223.736,-269.257 270,-244 299.342,-227.981 329.021,-202.978 347.091,-186.542"/>
<polygon fill="#63b8ff" stroke="#63b8ff" points="349.57,-189.017 354.533,-179.656 344.816,-183.878 349.57,-189.017"/>
</a>
</g>
</g>
<!-- Node37 -->
<g id="Node000037" class="node"><title>Node37</title>
<g id="a_Node000037"><a xlink:href="group___t_vector.html#ga2502e6ec116dbac5e49f5b62b07dc898" target="_top" xlink:title="Přečtení počtu elementů vektoru.">
<polygon fill="white" stroke="#666666" points="246.5,-198.5 181.5,-198.5 181.5,-179.5 246.5,-179.5 246.5,-198.5"/>
<text text-anchor="middle" x="214" y="-186.5" font-family="Helvetica,sans-Serif" font-size="10.00">vector_size</text>
</a>
</g>
</g>
<!-- Node1&#45;&gt;Node37 -->
<g id="edge49_Node000001_Node000037" class="edge"><title>Node1&#45;&gt;Node37</title>
<g id="a_edge49_Node000001_Node000037"><a xlink:title=" ">
<path fill="none" stroke="#63b8ff" d="M65.4582,-349.181C75.4209,-322.306 106.789,-246.9 158,-207 162.153,-203.764 166.911,-201.099 171.852,-198.906"/>
<polygon fill="#63b8ff" stroke="#63b8ff" points="173.367,-202.074 181.468,-195.245 170.877,-195.532 173.367,-202.074"/>
</a>
</g>
</g>
<!-- Node5 -->
<g id="Node000005" class="node"><title>Node5</title>
<g id="a_Node000005"><a xlink:href="group___t_vector_iterator.html#ga40d7eff2ece0eb356d27cdcdef255560" target="_top" xlink:title="Vytvoření nového iterátoru ukazujícího na počáteční element.">
<polygon fill="white" stroke="#666666" points="418.5,-463.5 312.5,-463.5 312.5,-444.5 418.5,-444.5 418.5,-463.5"/>
<text text-anchor="middle" x="365.5" y="-451.5" font-family="Helvetica,sans-Serif" font-size="10.00">vector_iterator_begin</text>
</a>
</g>
</g>
<!-- Node4&#45;&gt;Node5 -->
<g id="edge4_Node000004_Node000005" class="edge"><title>Node4&#45;&gt;Node5</title>
<g id="a_edge4_Node000004_Node000005"><a xlink:title=" ">
<path fill="none" stroke="#63b8ff" d="M264.781,-454C276.726,-454 289.632,-454 302.07,-454"/>
<polygon fill="#63b8ff" stroke="#63b8ff" points="302.376,-457.5 312.376,-454 302.376,-450.5 302.376,-457.5"/>
</a>
</g>
</g>
<!-- Node7 -->
<g id="Node000007" class="node"><title>Node7</title>
<g id="a_Node000007"><a xlink:href="group___t_vector_iterator.html#ga6c42552246c50cfa270c3eb0f58c239a" target="_top" xlink:title="Vytvoření nového iterátoru ukazujícího na poslední element.">
<polygon fill="white" stroke="#666666" points="581.5,-425.5 483.5,-425.5 483.5,-406.5 581.5,-406.5 581.5,-425.5"/>
<text text-anchor="middle" x="532.5" y="-413.5" font-family="Helvetica,sans-Serif" font-size="10.00">vector_iterator_last</text>
</a>
</g>
</g>
<!-- Node6&#45;&gt;Node7 -->
<g id="edge6_Node000006_Node000007" class="edge"><title>Node6&#45;&gt;Node7</title>
<g id="a_edge6_Node000006_Node000007"><a xlink:title=" ">
<path fill="none" stroke="#63b8ff" d="M412.901,-416C431.651,-416 453.5,-416 473.299,-416"/>
<polygon fill="#63b8ff" stroke="#63b8ff" points="473.438,-419.5 483.438,-416 473.438,-412.5 473.438,-419.5"/>
</a>
</g>
</g>
<!-- Node9 -->
<g id="Node000009" class="node"><title>Node9</title>
<g id="a_Node000009"><a xlink:href="group___t_vector_iterator.html#ga4d8032eb9dbbdccf794611f2b0c9821c" target="_top" xlink:title="Přečtení hodnoty elementu z vektoru pomocí iterátoru.">
<polygon fill="white" stroke="#666666" points="584.5,-350.5 480.5,-350.5 480.5,-331.5 584.5,-331.5 584.5,-350.5"/>
<text text-anchor="middle" x="532.5" y="-338.5" font-family="Helvetica,sans-Serif" font-size="10.00">vector_iterator_value</text>
</a>
</g>
</g>
<!-- Node8&#45;&gt;Node9 -->
<g id="edge8_Node000008_Node000009" class="edge"><title>Node8&#45;&gt;Node9</title>
<g id="a_edge8_Node000008_Node000009"><a xlink:title=" ">
<path fill="none" stroke="#63b8ff" d="M415.559,-340.297C432.712,-340.401 452.186,-340.519 470.211,-340.629"/>
<polygon fill="#63b8ff" stroke="#63b8ff" points="470.318,-344.129 480.339,-340.69 470.361,-337.129 470.318,-344.129"/>
</a>
</g>
</g>
<!-- Node10 -->
<g id="Node000010" class="node"><title>Node10</title>
<g id="a_Node000010"><a xlink:href="_t_vector_8c.html#a0fe5f1145e51f154b5470d640c5d682c" target="_top" xlink:title=" ">
<polygon fill="white" stroke="#666666" points="751.5,-350.5 661.5,-350.5 661.5,-331.5 751.5,-331.5 751.5,-350.5"/>
<text text-anchor="middle" x="706.5" y="-338.5" font-family="Helvetica,sans-Serif" font-size="10.00">vector_fast_value</text>
</a>
</g>
</g>
<!-- Node9&#45;&gt;Node10 -->
<g id="edge9_Node000009_Node000010" class="edge"><title>Node9&#45;&gt;Node10</title>
<g id="a_edge9_Node000009_Node000010"><a xlink:title=" ">
<path fill="none" stroke="#63b8ff" d="M584.64,-341C605.575,-341 629.826,-341 651.087,-341"/>
<polygon fill="#63b8ff" stroke="#63b8ff" points="651.256,-344.5 661.256,-341 651.256,-337.5 651.256,-344.5"/>
</a>
</g>
</g>
<!-- Node11 -->
<g id="Node000011" class="node"><title>Node11</title>
<g id="a_Node000011"><a xlink:href="group___t_vector_iterator.html#ga3f8a97a63f887539e270f6845bf22b9a" target="_top" xlink:title="Zjištění platnosti iterátoru.">
<polygon fill="white" stroke="#666666" points="921.5,-243 831.5,-243 831.5,-213 921.5,-213 921.5,-243"/>
<text text-anchor="start" x="839.5" y="-231" font-family="Helvetica,sans-Serif" font-size="10.00">vector_iterator_is</text>
<text text-anchor="middle" x="876.5" y="-220" font-family="Helvetica,sans-Serif" font-size="10.00">_valid</text>
</a>
</g>
</g>
<!-- Node9&#45;&gt;Node11 -->
<g id="edge10_Node000009_Node000011" class="edge"><title>Node9&#45;&gt;Node11</title>
<g id="a_edge10_Node000009_Node000011"><a xlink:title=" ">
<path fill="none" stroke="#63b8ff" d="M584.631,-332.531C633.911,-323.464 710.059,-307.054 773,-283 797.265,-273.727 823.023,-259.887 842.648,-248.41"/>
<polygon fill="#63b8ff" stroke="#63b8ff" points="844.671,-251.28 851.48,-243.163 841.095,-245.262 844.671,-251.28"/>
</a>
</g>
</g>
<!-- Node13 -->
<g id="Node000013" class="node"><title>Node13</title>
<g id="a_Node000013"><a xlink:href="group__sortable___t_vector_iterator.html#gaa3e549d3e67e2168311acc8f4a494cc5" target="_top" xlink:title="Přesun hodnoty elementu vektoru určené dvěma iterátory.">
<polygon fill="white" stroke="#666666" points="773,-387.5 640,-387.5 640,-368.5 773,-368.5 773,-387.5"/>
<text text-anchor="middle" x="706.5" y="-375.5" font-family="Helvetica,sans-Serif" font-size="10.00">vector_move_with_iterators</text>
</a>
</g>
</g>
<!-- Node12&#45;&gt;Node13 -->
<g id="edge12_Node000012_Node000013" class="edge"><title>Node12&#45;&gt;Node13</title>
<g id="a_edge12_Node000012_Node000013"><a xlink:title=" ">
<path fill="none" stroke="#63b8ff" d="M596.57,-378C607.36,-378 618.671,-378 629.75,-378"/>
<polygon fill="#63b8ff" stroke="#63b8ff" points="629.84,-381.5 639.84,-378 629.84,-374.5 629.84,-381.5"/>
</a>
</g>
</g>
<!-- Node13&#45;&gt;Node11 -->
<g id="edge14_Node000013_Node000011" class="edge"><title>Node13&#45;&gt;Node11</title>
<g id="a_edge14_Node000013_Node000011"><a xlink:title=" ">
<path fill="none" stroke="#63b8ff" d="M756.279,-368.42C762.173,-366.175 767.902,-363.409 773,-360 814.57,-332.205 846.624,-282.007 863.135,-252.169"/>
<polygon fill="#63b8ff" stroke="#63b8ff" points="866.278,-253.714 867.941,-243.251 860.116,-250.393 866.278,-253.714"/>
</a>
</g>
</g>
<!-- Node14 -->
<g id="Node000014" class="node"><title>Node14</title>
<g id="a_Node000014"><a xlink:href="_t_vector_8c.html#a0e3151269c65b7033ddecb4c3aee6566" target="_top" xlink:title=" ">
<polygon fill="white" stroke="#666666" points="944,-387.5 809,-387.5 809,-368.5 944,-368.5 944,-387.5"/>
<text text-anchor="middle" x="876.5" y="-375.5" font-family="Helvetica,sans-Serif" font-size="10.00">vector_fast_move_positions</text>
</a>
</g>
</g>
<!-- Node13&#45;&gt;Node14 -->
<g id="edge13_Node000013_Node000014" class="edge"><title>Node13&#45;&gt;Node14</title>
<g id="a_edge13_Node000013_Node000014"><a xlink:title=" ">
<path fill="none" stroke="#63b8ff" d="M773.416,-378C781.716,-378 790.263,-378 798.712,-378"/>
<polygon fill="#63b8ff" stroke="#63b8ff" points="798.946,-381.5 808.946,-378 798.946,-374.5 798.946,-381.5"/>
</a>
</g>
</g>
<!-- Node16&#45;&gt;Node6 -->
<g id="edge17_Node000016_Node000006" class="edge"><title>Node16&#45;&gt;Node6</title>
<g id="a_edge17_Node000016_Node000006"><a xlink:title=" ">
<path fill="none" stroke="#63b8ff" d="M227.489,-311.523C253.148,-331.089 312.03,-375.989 343.6,-400.063"/>
<polygon fill="#63b8ff" stroke="#63b8ff" points="341.655,-402.981 351.729,-406.262 345.9,-397.415 341.655,-402.981"/>
</a>
</g>
</g>
<!-- Node16&#45;&gt;Node8 -->
<g id="edge25_Node000016_Node000008" class="edge"><title>Node16&#45;&gt;Node8</title>
<g id="a_edge25_Node000016_Node000008"><a xlink:title=" ">
<path fill="none" stroke="#63b8ff" d="M237.706,-307.771C258.711,-313.11 290.6,-321.216 317.142,-327.963"/>
<polygon fill="#63b8ff" stroke="#63b8ff" points="316.465,-331.402 327.019,-330.473 318.189,-324.617 316.465,-331.402"/>
</a>
</g>
</g>
<!-- Node17 -->
<g id="Node000017" class="node"><title>Node17</title>
<g id="a_Node000017"><a xlink:href="group___t_heap.html#ga30a2c6e90b0e73d8a4f682c4a89accc6" target="_top" xlink:title="Posunutí iterátoru na rodičovský uzel.">
<polygon fill="white" stroke="#666666" points="425,-274.5 306,-274.5 306,-255.5 425,-255.5 425,-274.5"/>
<text text-anchor="middle" x="365.5" y="-262.5" font-family="Helvetica,sans-Serif" font-size="10.00">heap_iterator_to_parent</text>
</a>
</g>
</g>
<!-- Node16&#45;&gt;Node17 -->
<g id="edge18_Node000016_Node000017" class="edge"><title>Node16&#45;&gt;Node17</title>
<g id="a_edge18_Node000016_Node000017"><a xlink:title=" ">
<path fill="none" stroke="#63b8ff" d="M237.706,-296.38C258.421,-291.254 289.722,-283.507 316.041,-276.993"/>
<polygon fill="#63b8ff" stroke="#63b8ff" points="316.985,-280.365 325.851,-274.565 315.303,-273.57 316.985,-280.365"/>
</a>
</g>
</g>
<!-- Node20 -->
<g id="Node000020" class="node"><title>Node20</title>
<g id="a_Node000020"><a xlink:href="group___t_heap.html#ga459d729f98a06d26d4cab4dee469ce9a" target="_top" xlink:title="Posunutí iterátoru vzad.">
<polygon fill="white" stroke="#666666" points="420,-311.5 311,-311.5 311,-292.5 420,-292.5 420,-311.5"/>
<text text-anchor="middle" x="365.5" y="-299.5" font-family="Helvetica,sans-Serif" font-size="10.00">heap_iterator_to_prev</text>
</a>
</g>
</g>
<!-- Node16&#45;&gt;Node20 -->
<g id="edge22_Node000016_Node000020" class="edge"><title>Node16&#45;&gt;Node20</title>
<g id="a_edge22_Node000016_Node000020"><a xlink:title=" ">
<path fill="none" stroke="#63b8ff" d="M237.706,-302C254.494,-302 278.235,-302 300.641,-302"/>
<polygon fill="#63b8ff" stroke="#63b8ff" points="300.813,-305.5 310.813,-302 300.812,-298.5 300.813,-305.5"/>
</a>
</g>
</g>
<!-- Node16&#45;&gt;Node22 -->
<g id="edge26_Node000016_Node000022" class="edge"><title>Node16&#45;&gt;Node22</title>
<g id="a_edge26_Node000016_Node000022"><a xlink:title=" ">
<path fill="none" stroke="#63b8ff" d="M237.605,-294.72C248.04,-290.733 260.247,-285.137 270,-278 305.145,-252.283 336.354,-211.334 352.616,-187.943"/>
<polygon fill="#63b8ff" stroke="#63b8ff" points="355.539,-189.868 358.276,-179.633 349.754,-185.928 355.539,-189.868"/>
</a>
</g>
</g>
<!-- Node18 -->
<g id="Node000018" class="node"><title>Node18</title>
<g id="a_Node000018"><a xlink:href="group___t_heap.html#gae40d23edaede152d035bcf8828ef37d9" target="_top" xlink:title="Zjištění platnosti iterátoru.">
<polygon fill="white" stroke="#666666" points="761.5,-237.5 651.5,-237.5 651.5,-218.5 761.5,-218.5 761.5,-237.5"/>
<text text-anchor="middle" x="706.5" y="-225.5" font-family="Helvetica,sans-Serif" font-size="10.00">heap_iterator_is_valid</text>
</a>
</g>
</g>
<!-- Node17&#45;&gt;Node18 -->
<g id="edge19_Node000017_Node000018" class="edge"><title>Node17&#45;&gt;Node18</title>
<g id="a_edge19_Node000017_Node000018"><a xlink:title=" ">
<path fill="none" stroke="#63b8ff" d="M408.178,-255.453C424.565,-252.006 443.591,-248.381 461,-246 521.826,-237.679 591.728,-233.021 641.169,-230.539"/>
<polygon fill="#63b8ff" stroke="#63b8ff" points="641.58,-234.023 651.398,-230.042 641.24,-227.031 641.58,-234.023"/>
</a>
</g>
</g>
<!-- Node19 -->
<g id="Node000019" class="node"><title>Node19</title>
<g id="a_Node000019"><a xlink:href="group___t_heap.html#ga397a260a81bbd6910ca1464638722510" target="_top" xlink:title="Vypočte pozici rodičovského uzlu.">
<polygon fill="white" stroke="#666666" points="584.5,-274.5 480.5,-274.5 480.5,-255.5 584.5,-255.5 584.5,-274.5"/>
<text text-anchor="middle" x="532.5" y="-262.5" font-family="Helvetica,sans-Serif" font-size="10.00">heap_pos_to_parent</text>
</a>
</g>
</g>
<!-- Node17&#45;&gt;Node19 -->
<g id="edge21_Node000017_Node000019" class="edge"><title>Node17&#45;&gt;Node19</title>
<g id="a_edge21_Node000017_Node000019"><a xlink:title=" ">
<path fill="none" stroke="#63b8ff" d="M425.137,-265C439.813,-265 455.591,-265 470.384,-265"/>
<polygon fill="#63b8ff" stroke="#63b8ff" points="470.442,-268.5 480.442,-265 470.442,-261.5 470.442,-268.5"/>
</a>
</g>
</g>
<!-- Node18&#45;&gt;Node11 -->
<g id="edge20_Node000018_Node000011" class="edge"><title>Node18&#45;&gt;Node11</title>
<g id="a_edge20_Node000018_Node000011"><a xlink:title=" ">
<path fill="none" stroke="#63b8ff" d="M761.581,-228C780.688,-228 802.172,-228 821.29,-228"/>
<polygon fill="#63b8ff" stroke="#63b8ff" points="821.341,-231.5 831.341,-228 821.341,-224.5 821.341,-231.5"/>
</a>
</g>
</g>
<!-- Node21 -->
<g id="Node000021" class="node"><title>Node21</title>
<g id="a_Node000021"><a xlink:href="group___t_vector_iterator.html#ga8e1e1cc570f8a1c2bf1fb73c0d3c8826" target="_top" xlink:title="Posunutí iterátoru vzad.">
<polygon fill="white" stroke="#666666" points="763,-274.5 650,-274.5 650,-255.5 763,-255.5 763,-274.5"/>
<text text-anchor="middle" x="706.5" y="-262.5" font-family="Helvetica,sans-Serif" font-size="10.00">vector_iterator_to_prev</text>
</a>
</g>
</g>
<!-- Node20&#45;&gt;Node21 -->
<g id="edge23_Node000020_Node000021" class="edge"><title>Node20&#45;&gt;Node21</title>
<g id="a_edge23_Node000020_Node000021"><a xlink:title=" ">
<path fill="none" stroke="#63b8ff" d="M420.417,-299.161C468.655,-296.271 541.228,-291.058 604,-283 618.07,-281.194 633.157,-278.781 647.283,-276.309"/>
<polygon fill="#63b8ff" stroke="#63b8ff" points="648.142,-279.711 657.371,-274.508 646.911,-272.82 648.142,-279.711"/>
</a>
</g>
</g>
<!-- Node21&#45;&gt;Node11 -->
<g id="edge24_Node000021_Node000011" class="edge"><title>Node21&#45;&gt;Node11</title>
<g id="a_edge24_Node000021_Node000011"><a xlink:title=" ">
<path fill="none" stroke="#63b8ff" d="M750.764,-255.472C772.275,-250.734 798.489,-244.961 821.323,-239.932"/>
<polygon fill="#63b8ff" stroke="#63b8ff" points="822.199,-243.323 831.212,-237.754 820.694,-236.487 822.199,-243.323"/>
</a>
</g>
</g>
<!-- Node22&#45;&gt;Node12 -->
<g id="edge47_Node000022_Node000012" class="edge"><title>Node22&#45;&gt;Node12</title>
<g id="a_edge47_Node000022_Node000012"><a xlink:title=" ">
<path fill="none" stroke="#63b8ff" d="M375.664,-179.549C388.362,-193.245 411.289,-219.724 425,-246 449.58,-293.105 422.394,-323.494 461,-360 462.119,-361.058 463.291,-362.056 464.508,-362.997"/>
<polygon fill="#63b8ff" stroke="#63b8ff" points="462.799,-366.057 473.126,-368.422 466.528,-360.133 462.799,-366.057"/>
</a>
</g>
</g>
<!-- Node23 -->
<g id="Node000023" class="node"><title>Node23</title>
<g id="a_Node000023"><a xlink:href="group___t_heap.html#gad15335cb6b5e00a87655aa3f25fadc38" target="_top" xlink:title="Porovnání mezi hodnotou v uzlu haldy určenou iterátorem a hodnotou typu HeapElement.">
<polygon fill="white" stroke="#666666" points="601.5,-35 463.5,-35 463.5,-5 601.5,-5 601.5,-35"/>
<text text-anchor="start" x="471.5" y="-23" font-family="Helvetica,sans-Serif" font-size="10.00">heap_compare_with_iterator</text>
<text text-anchor="middle" x="532.5" y="-12" font-family="Helvetica,sans-Serif" font-size="10.00">_value</text>
</a>
</g>
</g>
<!-- Node22&#45;&gt;Node23 -->
<g id="edge27_Node000022_Node000023" class="edge"><title>Node22&#45;&gt;Node23</title>
<g id="a_edge27_Node000022_Node000023"><a xlink:title=" ">
<path fill="none" stroke="#63b8ff" d="M371.849,-160.248C384.553,-137.892 418.666,-82.385 461,-50 466.061,-46.1282 471.697,-42.655 477.515,-39.5667"/>
<polygon fill="#63b8ff" stroke="#63b8ff" points="479.32,-42.5797 486.752,-35.0285 476.233,-36.297 479.32,-42.5797"/>
</a>
</g>
</g>
<!-- Node27 -->
<g id="Node000027" class="node"><title>Node27</title>
<g id="a_Node000027"><a xlink:href="group___t_heap.html#ga33f604f94a11da32fdf681dd21186b87" target="_top" xlink:title="Porovnání hodnot uzlů haldy určených dvěma iterátory.">
<polygon fill="white" stroke="#666666" points="604,-78.5 461,-78.5 461,-59.5 604,-59.5 604,-78.5"/>
<text text-anchor="middle" x="532.5" y="-66.5" font-family="Helvetica,sans-Serif" font-size="10.00">heap_compare_with_iterators</text>
</a>
</g>
</g>
<!-- Node22&#45;&gt;Node27 -->
<g id="edge32_Node000022_Node000027" class="edge"><title>Node22&#45;&gt;Node27</title>
<g id="a_edge32_Node000022_Node000027"><a xlink:title=" ">
<path fill="none" stroke="#63b8ff" d="M376.163,-160.341C392.414,-144.557 426.805,-113.084 461,-94 469.244,-89.3987 478.492,-85.3946 487.508,-82.0196"/>
<polygon fill="#63b8ff" stroke="#63b8ff" points="488.886,-85.2447 497.143,-78.6057 486.548,-78.6467 488.886,-85.2447"/>
</a>
</g>
</g>
<!-- Node30 -->
<g id="Node000030" class="node"><title>Node30</title>
<g id="a_Node000030"><a xlink:href="group___t_heap.html#gad1c0b47027aa5f072c7275f86b8b2c2a" target="_top" xlink:title="Zapsání hodnoty uzlu haldy pomocí iterátoru.">
<polygon fill="white" stroke="#666666" points="592,-122.5 473,-122.5 473,-103.5 592,-103.5 592,-122.5"/>
<text text-anchor="middle" x="532.5" y="-110.5" font-family="Helvetica,sans-Serif" font-size="10.00">heap_iterator_set_value</text>
</a>
</g>
</g>
<!-- Node22&#45;&gt;Node30 -->
<g id="edge37_Node000022_Node000030" class="edge"><title>Node22&#45;&gt;Node30</title>
<g id="a_edge37_Node000022_Node000030"><a xlink:title=" ">
<path fill="none" stroke="#63b8ff" d="M389.187,-160.403C408.189,-152.537 436.12,-141.378 461,-133 468.886,-130.344 477.345,-127.74 485.568,-125.335"/>
<polygon fill="#63b8ff" stroke="#63b8ff" points="486.78,-128.628 495.428,-122.509 484.851,-121.899 486.78,-128.628"/>
</a>
</g>
</g>
<!-- Node33 -->
<g id="Node000033" class="node"><title>Node33</title>
<g id="a_Node000033"><a xlink:href="group___t_heap.html#ga974f2e71745d48caecb94896f5e9b1c5" target="_top" xlink:title="Posunutí iterátoru na levého následníka.">
<polygon fill="white" stroke="#666666" points="584.5,-198.5 480.5,-198.5 480.5,-179.5 584.5,-179.5 584.5,-198.5"/>
<text text-anchor="middle" x="532.5" y="-186.5" font-family="Helvetica,sans-Serif" font-size="10.00">heap_iterator_to_left</text>
</a>
</g>
</g>
<!-- Node22&#45;&gt;Node33 -->
<g id="edge41_Node000022_Node000033" class="edge"><title>Node22&#45;&gt;Node33</title>
<g id="a_edge41_Node000022_Node000033"><a xlink:title=" ">
<path fill="none" stroke="#63b8ff" d="M394.117,-173.18C414.851,-175.568 444.048,-178.93 470.197,-181.941"/>
<polygon fill="#63b8ff" stroke="#63b8ff" points="470.088,-185.451 480.423,-183.118 470.889,-178.497 470.088,-185.451"/>
</a>
</g>
</g>
<!-- Node35 -->
<g id="Node000035" class="node"><title>Node35</title>
<g id="a_Node000035"><a xlink:href="group___t_heap.html#ga1b612baefabca4177116615280539790" target="_top" xlink:title="Posunutí iterátoru na pravého následníka.">
<polygon fill="white" stroke="#666666" points="587.5,-161.5 477.5,-161.5 477.5,-142.5 587.5,-142.5 587.5,-161.5"/>
<text text-anchor="middle" x="532.5" y="-149.5" font-family="Helvetica,sans-Serif" font-size="10.00">heap_iterator_to_right</text>
</a>
</g>
</g>
<!-- Node22&#45;&gt;Node35 -->
<g id="edge44_Node000022_Node000035" class="edge"><title>Node22&#45;&gt;Node35</title>
<g id="a_edge44_Node000022_Node000035"><a xlink:title=" ">
<path fill="none" stroke="#63b8ff" d="M394.117,-166.987C414.122,-164.805 442.006,-161.763 467.429,-158.99"/>
<polygon fill="#63b8ff" stroke="#63b8ff" points="467.837,-162.466 477.399,-157.902 467.078,-155.507 467.837,-162.466"/>
</a>
</g>
</g>
<!-- Node24 -->
<g id="Node000024" class="node"><title>Node24</title>
<g id="a_Node000024"><a xlink:href="group__sortable___t_vector_iterator.html#gaa359594c5556fb685473666fad583ddf" target="_top" xlink:title="Porovnání mezi hodnotou elementu vektoru určenou iterátorem a hodnotou typu VectorElement.">
<polygon fill="white" stroke="#666666" points="760,-30 653,-30 653,-0 760,-0 760,-30"/>
<text text-anchor="start" x="661" y="-18" font-family="Helvetica,sans-Serif" font-size="10.00">vector_compare_with</text>
<text text-anchor="middle" x="706.5" y="-7" font-family="Helvetica,sans-Serif" font-size="10.00">_iterator_value</text>
</a>
</g>
</g>
<!-- Node23&#45;&gt;Node24 -->
<g id="edge28_Node000023_Node000024" class="edge"><title>Node23&#45;&gt;Node24</title>
<g id="a_edge28_Node000023_Node000024"><a xlink:title=" ">
<path fill="none" stroke="#63b8ff" d="M601.973,-18.0095C615.353,-17.6206 629.324,-17.2144 642.515,-16.831"/>
<polygon fill="#63b8ff" stroke="#63b8ff" points="643.006,-20.3183 652.9,-16.5291 642.803,-13.3212 643.006,-20.3183"/>
</a>
</g>
</g>
<!-- Node24&#45;&gt;Node11 -->
<g id="edge31_Node000024_Node000011" class="edge"><title>Node24&#45;&gt;Node11</title>
<g id="a_edge31_Node000024_Node000011"><a xlink:title=" ">
<path fill="none" stroke="#63b8ff" d="M760.318,-29.6612C764.935,-32.2856 769.264,-35.3719 773,-39 803.906,-69.0138 788.877,-90.9071 809,-129 823.341,-156.148 843.381,-185.063 857.706,-204.589"/>
<polygon fill="#63b8ff" stroke="#63b8ff" points="855.074,-206.915 863.844,-212.859 860.695,-202.743 855.074,-206.915"/>
</a>
</g>
</g>
<!-- Node25 -->
<g id="Node000025" class="node"><title>Node25</title>
<g id="a_Node000025"><a xlink:href="_t_vector_8c.html#a8254190a2b4fe570173cc77dba0ee7a4" target="_top" xlink:title=" ">
<polygon fill="white" stroke="#666666" points="929.5,-30 823.5,-30 823.5,-0 929.5,-0 929.5,-30"/>
<text text-anchor="start" x="831.5" y="-18" font-family="Helvetica,sans-Serif" font-size="10.00">vector_fast_compare</text>
<text text-anchor="middle" x="876.5" y="-7" font-family="Helvetica,sans-Serif" font-size="10.00">_position_value</text>
</a>
</g>
</g>
<!-- Node24&#45;&gt;Node25 -->
<g id="edge29_Node000024_Node000025" class="edge"><title>Node24&#45;&gt;Node25</title>
<g id="a_edge29_Node000024_Node000025"><a xlink:title=" ">
<path fill="none" stroke="#63b8ff" d="M760.195,-15C777.007,-15 795.772,-15 813.199,-15"/>
<polygon fill="#63b8ff" stroke="#63b8ff" points="813.28,-18.5001 823.28,-15 813.28,-11.5001 813.28,-18.5001"/>
</a>
</g>
</g>
<!-- Node26 -->
<g id="Node000026" class="node"><title>Node26</title>
<g id="a_Node000026"><a xlink:href="group___t_vector_element.html#ga82e527836fce12c93af896f65e9f701d" target="_top" xlink:title="Porovnání dvou elementů">
<polygon fill="white" stroke="#666666" points="1116,-48.5 980,-48.5 980,-29.5 1116,-29.5 1116,-48.5"/>
<text text-anchor="middle" x="1048" y="-36.5" font-family="Helvetica,sans-Serif" font-size="10.00">vector_element_comparator</text>
</a>
</g>
</g>
<!-- Node25&#45;&gt;Node26 -->
<g id="edge30_Node000025_Node000026" class="edge"><title>Node25&#45;&gt;Node26</title>
<g id="a_edge30_Node000025_Node000026"><a xlink:title=" ">
<path fill="none" stroke="#63b8ff" d="M929.739,-22.3966C942.373,-24.1856 956.144,-26.1355 969.662,-28.0495"/>
<polygon fill="#63b8ff" stroke="#63b8ff" points="969.534,-31.5663 979.926,-29.5029 970.516,-24.6354 969.534,-31.5663"/>
</a>
</g>
</g>
<!-- Node28 -->
<g id="Node000028" class="node"><title>Node28</title>
<g id="a_Node000028"><a xlink:href="group__sortable___t_vector_iterator.html#gadd8aded92ce2c6402742a57316412d39" target="_top" xlink:title="Porovnání hodnot elementů vektorů určených dvěma iterátory.">
<polygon fill="white" stroke="#666666" points="760,-78 653,-78 653,-48 760,-48 760,-78"/>
<text text-anchor="start" x="661" y="-66" font-family="Helvetica,sans-Serif" font-size="10.00">vector_compare_with</text>
<text text-anchor="middle" x="706.5" y="-55" font-family="Helvetica,sans-Serif" font-size="10.00">_iterators</text>
</a>
</g>
</g>
<!-- Node27&#45;&gt;Node28 -->
<g id="edge33_Node000027_Node000028" class="edge"><title>Node27&#45;&gt;Node28</title>
<g id="a_edge33_Node000027_Node000028"><a xlink:title=" ">
<path fill="none" stroke="#63b8ff" d="M604.452,-66.5249C617.104,-66.0836 630.204,-65.6266 642.611,-65.1938"/>
<polygon fill="#63b8ff" stroke="#63b8ff" points="642.973,-68.6834 652.844,-64.8368 642.728,-61.6877 642.973,-68.6834"/>
</a>
</g>
</g>
<!-- Node28&#45;&gt;Node11 -->
<g id="edge36_Node000028_Node000011" class="edge"><title>Node28&#45;&gt;Node11</title>
<g id="a_edge36_Node000028_Node000011"><a xlink:title=" ">
<path fill="none" stroke="#63b8ff" d="M758.104,-78.0119C763.375,-80.5907 768.457,-83.5701 773,-87 784.264,-95.5046 833.539,-166.484 859.447,-204.373"/>
<polygon fill="#63b8ff" stroke="#63b8ff" points="856.668,-206.511 865.196,-212.799 862.45,-202.566 856.668,-206.511"/>
</a>
</g>
</g>
<!-- Node29 -->
<g id="Node000029" class="node"><title>Node29</title>
<g id="a_Node000029"><a xlink:href="_t_vector_8c.html#a188bab569c3ae8a25070f632a6f53e62" target="_top" xlink:title=" ">
<polygon fill="white" stroke="#666666" points="929.5,-78 823.5,-78 823.5,-48 929.5,-48 929.5,-78"/>
<text text-anchor="start" x="831.5" y="-66" font-family="Helvetica,sans-Serif" font-size="10.00">vector_fast_compare</text>
<text text-anchor="middle" x="876.5" y="-55" font-family="Helvetica,sans-Serif" font-size="10.00">_positions</text>
</a>
</g>
</g>
<!-- Node28&#45;&gt;Node29 -->
<g id="edge34_Node000028_Node000029" class="edge"><title>Node28&#45;&gt;Node29</title>
<g id="a_edge34_Node000028_Node000029"><a xlink:title=" ">
<path fill="none" stroke="#63b8ff" d="M760.195,-63C777.007,-63 795.772,-63 813.199,-63"/>
<polygon fill="#63b8ff" stroke="#63b8ff" points="813.28,-66.5001 823.28,-63 813.28,-59.5001 813.28,-66.5001"/>
</a>
</g>
</g>
<!-- Node29&#45;&gt;Node26 -->
<g id="edge35_Node000029_Node000026" class="edge"><title>Node29&#45;&gt;Node26</title>
<g id="a_edge35_Node000029_Node000026"><a xlink:title=" ">
<path fill="none" stroke="#63b8ff" d="M929.739,-55.6034C942.373,-53.8144 956.144,-51.8645 969.662,-49.9505"/>
<polygon fill="#63b8ff" stroke="#63b8ff" points="970.516,-53.3646 979.926,-48.4971 969.534,-46.4337 970.516,-53.3646"/>
</a>
</g>
</g>
<!-- Node31 -->
<g id="Node000031" class="node"><title>Node31</title>
<g id="a_Node000031"><a xlink:href="group___t_vector_iterator.html#ga66f6b96e416a7e593b1cf703f58be7ca" target="_top" xlink:title="Zapsání hodnoty elementu do vektoru pomocí iterátoru.">
<polygon fill="white" stroke="#666666" points="754.5,-126 658.5,-126 658.5,-96 754.5,-96 754.5,-126"/>
<text text-anchor="start" x="666.5" y="-114" font-family="Helvetica,sans-Serif" font-size="10.00">vector_iterator_set</text>
<text text-anchor="middle" x="706.5" y="-103" font-family="Helvetica,sans-Serif" font-size="10.00">_value</text>
</a>
</g>
</g>
<!-- Node30&#45;&gt;Node31 -->
<g id="edge38_Node000030_Node000031" class="edge"><title>Node30&#45;&gt;Node31</title>
<g id="a_edge38_Node000030_Node000031"><a xlink:title=" ">
<path fill="none" stroke="#63b8ff" d="M592.212,-112.317C610.356,-112.106 630.309,-111.874 648.346,-111.665"/>
<polygon fill="#63b8ff" stroke="#63b8ff" points="648.472,-115.163 658.431,-111.547 648.391,-108.164 648.472,-115.163"/>
</a>
</g>
</g>
<!-- Node31&#45;&gt;Node11 -->
<g id="edge40_Node000031_Node000011" class="edge"><title>Node31&#45;&gt;Node11</title>
<g id="a_edge40_Node000031_Node000011"><a xlink:title=" ">
<path fill="none" stroke="#63b8ff" d="M754.689,-125.777C761.027,-128.478 767.301,-131.552 773,-135 805.085,-154.409 836.144,-184.716 855.503,-205.421"/>
<polygon fill="#63b8ff" stroke="#63b8ff" points="852.983,-207.851 862.328,-212.843 858.136,-203.113 852.983,-207.851"/>
</a>
</g>
</g>
<!-- Node32 -->
<g id="Node000032" class="node"><title>Node32</title>
<g id="a_Node000032"><a xlink:href="_t_vector_8c.html#a689bf71829922c70ca1964e125e94217" target="_top" xlink:title=" ">
<polygon fill="white" stroke="#666666" points="931,-120.5 822,-120.5 822,-101.5 931,-101.5 931,-120.5"/>
<text text-anchor="middle" x="876.5" y="-108.5" font-family="Helvetica,sans-Serif" font-size="10.00">vector_fast_set_value</text>
</a>
</g>
</g>
<!-- Node31&#45;&gt;Node32 -->
<g id="edge39_Node000031_Node000032" class="edge"><title>Node31&#45;&gt;Node32</title>
<g id="a_edge39_Node000031_Node000032"><a xlink:title=" ">
<path fill="none" stroke="#63b8ff" d="M754.744,-111C772.432,-111 792.827,-111 811.762,-111"/>
<polygon fill="#63b8ff" stroke="#63b8ff" points="811.805,-114.5 821.805,-111 811.805,-107.5 811.805,-114.5"/>
</a>
</g>
</g>
<!-- Node33&#45;&gt;Node18 -->
<g id="edge42_Node000033_Node000018" class="edge"><title>Node33&#45;&gt;Node18</title>
<g id="a_edge42_Node000033_Node000018"><a xlink:title=" ">
<path fill="none" stroke="#63b8ff" d="M575.576,-198.54C599.089,-203.872 628.591,-210.561 653.537,-216.218"/>
<polygon fill="#63b8ff" stroke="#63b8ff" points="653.034,-219.692 663.561,-218.491 654.582,-212.866 653.034,-219.692"/>
</a>
</g>
</g>
<!-- Node34 -->
<g id="Node000034" class="node"><title>Node34</title>
<g id="a_Node000034"><a xlink:href="group___t_heap.html#gaeb9b613cb82e8946a4c37bb1145780f4" target="_top" xlink:title="Vypočte pozici uzlu levého následníka.">
<polygon fill="white" stroke="#666666" points="751.5,-200.5 661.5,-200.5 661.5,-181.5 751.5,-181.5 751.5,-200.5"/>
<text text-anchor="middle" x="706.5" y="-188.5" font-family="Helvetica,sans-Serif" font-size="10.00">heap_pos_to_left</text>
</a>
</g>
</g>
<!-- Node33&#45;&gt;Node34 -->
<g id="edge43_Node000033_Node000034" class="edge"><title>Node33&#45;&gt;Node34</title>
<g id="a_edge43_Node000033_Node000034"><a xlink:title=" ">
<path fill="none" stroke="#63b8ff" d="M584.64,-189.595C605.575,-189.838 629.826,-190.12 651.087,-190.367"/>
<polygon fill="#63b8ff" stroke="#63b8ff" points="651.216,-193.869 661.256,-190.486 651.298,-186.869 651.216,-193.869"/>
</a>
</g>
</g>
<!-- Node35&#45;&gt;Node18 -->
<g id="edge45_Node000035_Node000018" class="edge"><title>Node35&#45;&gt;Node18</title>
<g id="a_edge45_Node000035_Node000018"><a xlink:title=" ">
<path fill="none" stroke="#63b8ff" d="M585.338,-161.537C591.858,-163.791 598.25,-166.571 604,-170 624.261,-182.081 619.937,-196.593 640,-209 643.414,-211.112 647.073,-212.997 650.852,-214.679"/>
<polygon fill="#63b8ff" stroke="#63b8ff" points="649.835,-218.04 660.421,-218.456 652.404,-211.529 649.835,-218.04"/>
</a>
</g>
</g>
<!-- Node36 -->
<g id="Node000036" class="node"><title>Node36</title>
<g id="a_Node000036"><a xlink:href="group___t_heap.html#ga1272b4f692f5ec34abaeecde82899bfb" target="_top" xlink:title="Vypočte pozici uzlu pravého následníka.">
<polygon fill="white" stroke="#666666" points="754.5,-163.5 658.5,-163.5 658.5,-144.5 754.5,-144.5 754.5,-163.5"/>
<text text-anchor="middle" x="706.5" y="-151.5" font-family="Helvetica,sans-Serif" font-size="10.00">heap_pos_to_right</text>
</a>
</g>
</g>
<!-- Node35&#45;&gt;Node36 -->
<g id="edge46_Node000035_Node000036" class="edge"><title>Node35&#45;&gt;Node36</title>
<g id="a_edge46_Node000035_Node000036"><a xlink:title=" ">
<path fill="none" stroke="#63b8ff" d="M587.922,-152.633C607.11,-152.856 628.733,-153.107 648.155,-153.333"/>
<polygon fill="#63b8ff" stroke="#63b8ff" points="648.346,-156.836 658.387,-153.452 648.428,-149.836 648.346,-156.836"/>
</a>
</g>
</g>
</g>
</svg>
