<?xml version="1.0" encoding="UTF-8" standalone="no"?>
<!DOCTYPE svg PUBLIC "-//W3C//DTD SVG 1.1//EN"
 "http://www.w3.org/Graphics/SVG/1.1/DTD/svg11.dtd">
<!-- Generated by graphviz version 2.38.0 (20140413.2041)
 -->
<!-- Title: heap_swap_position_value Pages: 1 -->
<svg width="423pt" height="38pt"
 viewBox="0.00 0.00 423.00 38.00" xmlns="http://www.w3.org/2000/svg" xmlns:xlink="http://www.w3.org/1999/xlink">
<g id="graph0" class="graph" transform="scale(1 1) rotate(0) translate(4 34)">
<title>heap_swap_position_value</title>
<!-- Node1 -->
<g id="Node000001" class="node"><title>Node1</title>
<g id="a_Node000001"><a xlink:title="Vzájemná výměna hodnot mezi uzlem haldy a proměnnou typu HeapElement.">
<polygon fill="#999999" stroke="#666666" points="104,-30 0,-30 0,-0 104,-0 104,-30"/>
<text text-anchor="start" x="8" y="-18" font-family="Helvetica,sans-Serif" font-size="10.00">heap_swap_position</text>
<text text-anchor="middle" x="52" y="-7" font-family="Helvetica,sans-Serif" font-size="10.00">_value</text>
</a>
</g>
</g>
<!-- Node2 -->
<g id="Node000002" class="node"><title>Node2</title>
<g id="a_Node000002"><a xlink:href="group__sortable___t_vector.html#gabdff161479b4c497204dc32fd2202e6f" target="_top" xlink:title="Výměna mezi hodnotou elementu vektoru a proměnnou typu VectorElement.">
<polygon fill="white" stroke="#666666" points="249,-30 140,-30 140,-0 249,-0 249,-30"/>
<text text-anchor="start" x="148" y="-18" font-family="Helvetica,sans-Serif" font-size="10.00">vector_swap_position</text>
<text text-anchor="middle" x="194.5" y="-7" font-family="Helvetica,sans-Serif" font-size="10.00">_value</text>
</a>
</g>
</g>
<!-- Node1&#45;&gt;Node2 -->
<g id="edge1_Node000001_Node000002" class="edge"><title>Node1&#45;&gt;Node2</title>
<g id="a_edge1_Node000001_Node000002"><a xlink:title=" ">
<path fill="none" stroke="#63b8ff" d="M104.121,-15C112.468,-15 121.204,-15 129.808,-15"/>
<polygon fill="#63b8ff" stroke="#63b8ff" points="129.816,-18.5001 139.816,-15 129.816,-11.5001 129.816,-18.5001"/>
</a>
</g>
</g>
<!-- Node3 -->
<g id="Node000003" class="node"><title>Node3</title>
<g id="a_Node000003"><a xlink:href="_t_vector_8c.html#a3a2bca540c6a2f8081d51df2f70b0ebe" target="_top" xlink:title=" ">
<polygon fill="white" stroke="#666666" points="415,-30 285,-30 285,-0 415,-0 415,-30"/>
<text text-anchor="start" x="293" y="-18" font-family="Helvetica,sans-Serif" font-size="10.00">vector_fast_swap_position</text>
<text text-anchor="middle" x="350" y="-7" font-family="Helvetica,sans-Serif" font-size="10.00">_value</text>
</a>
</g>
</g>
<!-- Node2&#45;&gt;Node3 -->
<g id="edge2_Node000002_Node000003" class="edge"><title>Node2&#45;&gt;Node3</title>
<g id="a_edge2_Node000002_Node000003"><a xlink:title=" ">
<path fill="none" stroke="#63b8ff" d="M249.187,-15C257.451,-15 266.109,-15 274.726,-15"/>
<polygon fill="#63b8ff" stroke="#63b8ff" points="274.795,-18.5001 284.795,-15 274.795,-11.5001 274.795,-18.5001"/>
</a>
</g>
</g>
</g>
</svg>
