<?xml version="1.0" encoding="UTF-8" standalone="no"?>
<!DOCTYPE svg PUBLIC "-//W3C//DTD SVG 1.1//EN"
 "http://www.w3.org/Graphics/SVG/1.1/DTD/svg11.dtd">
<!-- Generated by graphviz version 2.38.0 (20140413.2041)
 -->
<!-- Title: heapify Pages: 1 -->
<svg width="901pt" height="435pt"
 viewBox="0.00 0.00 901.00 434.50" xmlns="http://www.w3.org/2000/svg" xmlns:xlink="http://www.w3.org/1999/xlink">
<g id="graph0" class="graph" transform="scale(1 1) rotate(0) translate(4 430.5)">
<title>heapify</title>
<!-- Node1 -->
<g id="Node000001" class="node"><title>Node1</title>
<g id="a_Node000001"><a xlink:title="Vnitřní a lokální funkce realizující uspořádání elementů vektoru do haldy.">
<polygon fill="#999999" stroke="#666666" points="47,-350.5 -3.55271e-015,-350.5 -3.55271e-015,-331.5 47,-331.5 47,-350.5"/>
<text text-anchor="middle" x="23.5" y="-338.5" font-family="Helvetica,sans-Serif" font-size="10.00">heapify</text>
</a>
</g>
</g>
<!-- Node2 -->
<g id="Node000002" class="node"><title>Node2</title>
<g id="a_Node000002"><a xlink:href="group___t_heap.html#gaad26057e7e2deea467b61eb79d73a1da" target="_top" xlink:title="Vytvoření nového iterátoru ukazujícího na nejpravější listový uzel haldy.">
<polygon fill="white" stroke="#666666" points="189.5,-425.5 95.5,-425.5 95.5,-406.5 189.5,-406.5 189.5,-425.5"/>
<text text-anchor="middle" x="142.5" y="-413.5" font-family="Helvetica,sans-Serif" font-size="10.00">heap_iterator_last</text>
</a>
</g>
</g>
<!-- Node1&#45;&gt;Node2 -->
<g id="edge1_Node000001_Node000002" class="edge"><title>Node1&#45;&gt;Node2</title>
<g id="a_edge1_Node000001_Node000002"><a xlink:title=" ">
<path fill="none" stroke="#63b8ff" d="M32.1981,-350.692C42.5228,-363.088 62.0023,-384.447 83,-397 86.4586,-399.068 90.1686,-400.938 93.9808,-402.626"/>
<polygon fill="#63b8ff" stroke="#63b8ff" points="92.9968,-406.001 103.582,-406.449 95.5864,-399.498 92.9968,-406.001"/>
</a>
</g>
</g>
<!-- Node4 -->
<g id="Node000004" class="node"><title>Node4</title>
<g id="a_Node000004"><a xlink:href="group___t_heap.html#ga30a2c6e90b0e73d8a4f682c4a89accc6" target="_top" xlink:title="Posunutí iterátoru na rodičovský uzel.">
<polygon fill="white" stroke="#666666" points="202,-313.5 83,-313.5 83,-294.5 202,-294.5 202,-313.5"/>
<text text-anchor="middle" x="142.5" y="-301.5" font-family="Helvetica,sans-Serif" font-size="10.00">heap_iterator_to_parent</text>
</a>
</g>
</g>
<!-- Node1&#45;&gt;Node4 -->
<g id="edge3_Node000001_Node000004" class="edge"><title>Node1&#45;&gt;Node4</title>
<g id="a_edge3_Node000001_Node000004"><a xlink:title=" ">
<path fill="none" stroke="#63b8ff" d="M47.2545,-333.519C58.0708,-329.986 71.1894,-325.735 83,-322 88.6468,-320.214 94.6077,-318.353 100.478,-316.534"/>
<polygon fill="#63b8ff" stroke="#63b8ff" points="101.679,-319.826 110.201,-313.532 99.6137,-313.138 101.679,-319.826"/>
</a>
</g>
</g>
<!-- Node8 -->
<g id="Node000008" class="node"><title>Node8</title>
<g id="a_Node000008"><a xlink:href="group___t_heap.html#ga459d729f98a06d26d4cab4dee469ce9a" target="_top" xlink:title="Posunutí iterátoru vzad.">
<polygon fill="white" stroke="#666666" points="197,-387.5 88,-387.5 88,-368.5 197,-368.5 197,-387.5"/>
<text text-anchor="middle" x="142.5" y="-375.5" font-family="Helvetica,sans-Serif" font-size="10.00">heap_iterator_to_prev</text>
</a>
</g>
</g>
<!-- Node1&#45;&gt;Node8 -->
<g id="edge7_Node000001_Node000008" class="edge"><title>Node1&#45;&gt;Node8</title>
<g id="a_edge7_Node000001_Node000008"><a xlink:title=" ">
<path fill="none" stroke="#63b8ff" d="M47.0588,-348.134C62.4105,-352.989 83.1538,-359.549 101.29,-365.284"/>
<polygon fill="#63b8ff" stroke="#63b8ff" points="100.456,-368.691 111.046,-368.369 102.567,-362.017 100.456,-368.691"/>
</a>
</g>
</g>
<!-- Node10 -->
<g id="Node000010" class="node"><title>Node10</title>
<g id="a_Node000010"><a xlink:href="group___t_heap.html#gac645f0bf424be39230e2472e55ad4f6e" target="_top" xlink:title="Přečtení hodnoty uzlu haldy pomocí iterátoru.">
<polygon fill="white" stroke="#666666" points="192.5,-350.5 92.5,-350.5 92.5,-331.5 192.5,-331.5 192.5,-350.5"/>
<text text-anchor="middle" x="142.5" y="-338.5" font-family="Helvetica,sans-Serif" font-size="10.00">heap_iterator_value</text>
</a>
</g>
</g>
<!-- Node1&#45;&gt;Node10 -->
<g id="edge10_Node000001_Node000010" class="edge"><title>Node1&#45;&gt;Node10</title>
<g id="a_edge10_Node000001_Node000010"><a xlink:title=" ">
<path fill="none" stroke="#63b8ff" d="M47.0588,-341C57.2238,-341 69.7525,-341 82.323,-341"/>
<polygon fill="#63b8ff" stroke="#63b8ff" points="82.3689,-344.5 92.3688,-341 82.3688,-337.5 82.3689,-344.5"/>
</a>
</g>
</g>
<!-- Node13 -->
<g id="Node000013" class="node"><title>Node13</title>
<g id="a_Node000013"><a xlink:href="heap__sort__with__iterators_8c.html#a7bf828c9c4eb35c2121c3f7d1177d19b" target="_top" xlink:title="Vnitřní a lokální funkce zajišťující vložení hodnoty do zvoleného uzlu haldy, při zachování podmínek ...">
<polygon fill="white" stroke="#666666" points="171,-163.5 114,-163.5 114,-144.5 171,-144.5 171,-163.5"/>
<text text-anchor="middle" x="142.5" y="-151.5" font-family="Helvetica,sans-Serif" font-size="10.00">sift_down</text>
</a>
</g>
</g>
<!-- Node1&#45;&gt;Node13 -->
<g id="edge14_Node000001_Node000013" class="edge"><title>Node1&#45;&gt;Node13</title>
<g id="a_edge14_Node000001_Node000013"><a xlink:title=" ">
<path fill="none" stroke="#63b8ff" d="M30.4629,-331.47C48.9224,-301.966 105.357,-211.766 129.899,-172.542"/>
<polygon fill="#63b8ff" stroke="#63b8ff" points="133.072,-174.069 135.409,-163.735 127.138,-170.357 133.072,-174.069"/>
</a>
</g>
</g>
<!-- Node3 -->
<g id="Node000003" class="node"><title>Node3</title>
<g id="a_Node000003"><a xlink:href="group___t_vector_iterator.html#ga6c42552246c50cfa270c3eb0f58c239a" target="_top" xlink:title="Vytvoření nového iterátoru ukazujícího na poslední element.">
<polygon fill="white" stroke="#666666" points="358.5,-426.5 260.5,-426.5 260.5,-407.5 358.5,-407.5 358.5,-426.5"/>
<text text-anchor="middle" x="309.5" y="-414.5" font-family="Helvetica,sans-Serif" font-size="10.00">vector_iterator_last</text>
</a>
</g>
</g>
<!-- Node2&#45;&gt;Node3 -->
<g id="edge2_Node000002_Node000003" class="edge"><title>Node2&#45;&gt;Node3</title>
<g id="a_edge2_Node000002_Node000003"><a xlink:title=" ">
<path fill="none" stroke="#63b8ff" d="M189.901,-416.281C208.651,-416.395 230.5,-416.527 250.299,-416.647"/>
<polygon fill="#63b8ff" stroke="#63b8ff" points="250.417,-420.148 260.438,-416.709 250.46,-413.148 250.417,-420.148"/>
</a>
</g>
</g>
<!-- Node5 -->
<g id="Node000005" class="node"><title>Node5</title>
<g id="a_Node000005"><a xlink:href="group___t_heap.html#gae40d23edaede152d035bcf8828ef37d9" target="_top" xlink:title="Zjištění platnosti iterátoru.">
<polygon fill="white" stroke="#666666" points="538.5,-274.5 428.5,-274.5 428.5,-255.5 538.5,-255.5 538.5,-274.5"/>
<text text-anchor="middle" x="483.5" y="-262.5" font-family="Helvetica,sans-Serif" font-size="10.00">heap_iterator_is_valid</text>
</a>
</g>
</g>
<!-- Node4&#45;&gt;Node5 -->
<g id="edge4_Node000004_Node000005" class="edge"><title>Node4&#45;&gt;Node5</title>
<g id="a_edge4_Node000004_Node000005"><a xlink:title=" ">
<path fill="none" stroke="#63b8ff" d="M185.657,-294.428C201.939,-291.02 220.766,-287.429 238,-285 298.83,-276.427 368.732,-271.165 418.171,-268.205"/>
<polygon fill="#63b8ff" stroke="#63b8ff" points="418.621,-271.685 428.4,-267.608 418.213,-264.697 418.621,-271.685"/>
</a>
</g>
</g>
<!-- Node7 -->
<g id="Node000007" class="node"><title>Node7</title>
<g id="a_Node000007"><a xlink:href="group___t_heap.html#ga397a260a81bbd6910ca1464638722510" target="_top" xlink:title="Vypočte pozici rodičovského uzlu.">
<polygon fill="white" stroke="#666666" points="361.5,-313.5 257.5,-313.5 257.5,-294.5 361.5,-294.5 361.5,-313.5"/>
<text text-anchor="middle" x="309.5" y="-301.5" font-family="Helvetica,sans-Serif" font-size="10.00">heap_pos_to_parent</text>
</a>
</g>
</g>
<!-- Node4&#45;&gt;Node7 -->
<g id="edge6_Node000004_Node000007" class="edge"><title>Node4&#45;&gt;Node7</title>
<g id="a_edge6_Node000004_Node000007"><a xlink:title=" ">
<path fill="none" stroke="#63b8ff" d="M202.137,-304C216.813,-304 232.591,-304 247.384,-304"/>
<polygon fill="#63b8ff" stroke="#63b8ff" points="247.442,-307.5 257.442,-304 247.442,-300.5 247.442,-307.5"/>
</a>
</g>
</g>
<!-- Node6 -->
<g id="Node000006" class="node"><title>Node6</title>
<g id="a_Node000006"><a xlink:href="group___t_vector_iterator.html#ga3f8a97a63f887539e270f6845bf22b9a" target="_top" xlink:title="Zjištění platnosti iterátoru.">
<polygon fill="white" stroke="#666666" points="698.5,-171 608.5,-171 608.5,-141 698.5,-141 698.5,-171"/>
<text text-anchor="start" x="616.5" y="-159" font-family="Helvetica,sans-Serif" font-size="10.00">vector_iterator_is</text>
<text text-anchor="middle" x="653.5" y="-148" font-family="Helvetica,sans-Serif" font-size="10.00">_valid</text>
</a>
</g>
</g>
<!-- Node5&#45;&gt;Node6 -->
<g id="edge5_Node000005_Node000006" class="edge"><title>Node5&#45;&gt;Node6</title>
<g id="a_edge5_Node000005_Node000006"><a xlink:title=" ">
<path fill="none" stroke="#63b8ff" d="M533.847,-255.38C539.648,-252.93 545.201,-249.857 550,-246 576.046,-225.071 560.637,-201.752 586,-180 589.917,-176.64 594.342,-173.737 599.001,-171.23"/>
<polygon fill="#63b8ff" stroke="#63b8ff" points="600.64,-174.327 608.18,-166.884 597.644,-168.001 600.64,-174.327"/>
</a>
</g>
</g>
<!-- Node9 -->
<g id="Node000009" class="node"><title>Node9</title>
<g id="a_Node000009"><a xlink:href="group___t_vector_iterator.html#ga8e1e1cc570f8a1c2bf1fb73c0d3c8826" target="_top" xlink:title="Posunutí iterátoru vzad.">
<polygon fill="white" stroke="#666666" points="540,-388.5 427,-388.5 427,-369.5 540,-369.5 540,-388.5"/>
<text text-anchor="middle" x="483.5" y="-376.5" font-family="Helvetica,sans-Serif" font-size="10.00">vector_iterator_to_prev</text>
</a>
</g>
</g>
<!-- Node8&#45;&gt;Node9 -->
<g id="edge8_Node000008_Node000009" class="edge"><title>Node8&#45;&gt;Node9</title>
<g id="a_edge8_Node000008_Node000009"><a xlink:title=" ">
<path fill="none" stroke="#63b8ff" d="M197.216,-378.158C256.638,-378.334 352.426,-378.616 416.405,-378.805"/>
<polygon fill="#63b8ff" stroke="#63b8ff" points="416.772,-382.306 426.782,-378.836 416.793,-375.306 416.772,-382.306"/>
</a>
</g>
</g>
<!-- Node9&#45;&gt;Node6 -->
<g id="edge9_Node000009_Node000006" class="edge"><title>Node9&#45;&gt;Node6</title>
<g id="a_edge9_Node000009_Node000006"><a xlink:title=" ">
<path fill="none" stroke="#63b8ff" d="M536.044,-369.384C541.272,-366.713 546.087,-363.316 550,-359 604.505,-298.881 533.015,-241.463 586,-180 589.707,-175.7 594.244,-172.171 599.192,-169.274"/>
<polygon fill="#63b8ff" stroke="#63b8ff" points="601.027,-172.272 608.45,-164.712 597.932,-165.993 601.027,-172.272"/>
</a>
</g>
</g>
<!-- Node11 -->
<g id="Node000011" class="node"><title>Node11</title>
<g id="a_Node000011"><a xlink:href="group___t_vector_iterator.html#ga4d8032eb9dbbdccf794611f2b0c9821c" target="_top" xlink:title="Přečtení hodnoty elementu z vektoru pomocí iterátoru.">
<polygon fill="white" stroke="#666666" points="361.5,-350.5 257.5,-350.5 257.5,-331.5 361.5,-331.5 361.5,-350.5"/>
<text text-anchor="middle" x="309.5" y="-338.5" font-family="Helvetica,sans-Serif" font-size="10.00">vector_iterator_value</text>
</a>
</g>
</g>
<!-- Node10&#45;&gt;Node11 -->
<g id="edge11_Node000010_Node000011" class="edge"><title>Node10&#45;&gt;Node11</title>
<g id="a_edge11_Node000010_Node000011"><a xlink:title=" ">
<path fill="none" stroke="#63b8ff" d="M192.559,-341C209.712,-341 229.186,-341 247.211,-341"/>
<polygon fill="#63b8ff" stroke="#63b8ff" points="247.339,-344.5 257.339,-341 247.339,-337.5 247.339,-344.5"/>
</a>
</g>
</g>
<!-- Node11&#45;&gt;Node6 -->
<g id="edge13_Node000011_Node000006" class="edge"><title>Node11&#45;&gt;Node6</title>
<g id="a_edge13_Node000011_Node000006"><a xlink:title=" ">
<path fill="none" stroke="#63b8ff" d="M360.838,-331.47C426.85,-318.571 535.97,-295.71 550,-283 585.939,-250.442 551.884,-214.463 586,-180 589.886,-176.075 594.46,-172.788 599.361,-170.036"/>
<polygon fill="#63b8ff" stroke="#63b8ff" points="600.977,-173.143 608.457,-165.639 597.931,-166.84 600.977,-173.143"/>
</a>
</g>
</g>
<!-- Node12 -->
<g id="Node000012" class="node"><title>Node12</title>
<g id="a_Node000012"><a xlink:href="_t_vector_8c.html#a0fe5f1145e51f154b5470d640c5d682c" target="_top" xlink:title=" ">
<polygon fill="white" stroke="#666666" points="528.5,-350.5 438.5,-350.5 438.5,-331.5 528.5,-331.5 528.5,-350.5"/>
<text text-anchor="middle" x="483.5" y="-338.5" font-family="Helvetica,sans-Serif" font-size="10.00">vector_fast_value</text>
</a>
</g>
</g>
<!-- Node11&#45;&gt;Node12 -->
<g id="edge12_Node000011_Node000012" class="edge"><title>Node11&#45;&gt;Node12</title>
<g id="a_edge12_Node000011_Node000012"><a xlink:title=" ">
<path fill="none" stroke="#63b8ff" d="M361.64,-341C382.575,-341 406.826,-341 428.087,-341"/>
<polygon fill="#63b8ff" stroke="#63b8ff" points="428.256,-344.5 438.256,-341 428.256,-337.5 428.256,-344.5"/>
</a>
</g>
</g>
<!-- Node14 -->
<g id="Node000014" class="node"><title>Node14</title>
<g id="a_Node000014"><a xlink:href="group___t_heap.html#gad15335cb6b5e00a87655aa3f25fadc38" target="_top" xlink:title="Porovnání mezi hodnotou v uzlu haldy určenou iterátorem a hodnotou typu HeapElement.">
<polygon fill="white" stroke="#666666" points="378.5,-126 240.5,-126 240.5,-96 378.5,-96 378.5,-126"/>
<text text-anchor="start" x="248.5" y="-114" font-family="Helvetica,sans-Serif" font-size="10.00">heap_compare_with_iterator</text>
<text text-anchor="middle" x="309.5" y="-103" font-family="Helvetica,sans-Serif" font-size="10.00">_value</text>
</a>
</g>
</g>
<!-- Node13&#45;&gt;Node14 -->
<g id="edge15_Node000013_Node000014" class="edge"><title>Node13&#45;&gt;Node14</title>
<g id="a_edge15_Node000013_Node000014"><a xlink:title=" ">
<path fill="none" stroke="#63b8ff" d="M171.117,-146.803C190.146,-141.844 216.305,-135.027 240.693,-128.671"/>
<polygon fill="#63b8ff" stroke="#63b8ff" points="241.856,-131.985 250.65,-126.076 240.09,-125.211 241.856,-131.985"/>
</a>
</g>
</g>
<!-- Node18 -->
<g id="Node000018" class="node"><title>Node18</title>
<g id="a_Node000018"><a xlink:href="group___t_heap.html#ga33f604f94a11da32fdf681dd21186b87" target="_top" xlink:title="Porovnání hodnot uzlů haldy určených dvěma iterátory.">
<polygon fill="white" stroke="#666666" points="381,-74.5 238,-74.5 238,-55.5 381,-55.5 381,-74.5"/>
<text text-anchor="middle" x="309.5" y="-62.5" font-family="Helvetica,sans-Serif" font-size="10.00">heap_compare_with_iterators</text>
</a>
</g>
</g>
<!-- Node13&#45;&gt;Node18 -->
<g id="edge20_Node000013_Node000018" class="edge"><title>Node13&#45;&gt;Node18</title>
<g id="a_edge20_Node000013_Node000018"><a xlink:title=" ">
<path fill="none" stroke="#63b8ff" d="M154.68,-144.275C171.644,-129.954 205.376,-103.148 238,-87 245.11,-83.4808 252.902,-80.3775 260.63,-77.6947"/>
<polygon fill="#63b8ff" stroke="#63b8ff" points="261.913,-80.9576 270.329,-74.5218 259.737,-74.3045 261.913,-80.9576"/>
</a>
</g>
</g>
<!-- Node21 -->
<g id="Node000021" class="node"><title>Node21</title>
<g id="a_Node000021"><a xlink:href="group___t_heap.html#gad1c0b47027aa5f072c7275f86b8b2c2a" target="_top" xlink:title="Zapsání hodnoty uzlu haldy pomocí iterátoru.">
<polygon fill="white" stroke="#666666" points="369,-32.5 250,-32.5 250,-13.5 369,-13.5 369,-32.5"/>
<text text-anchor="middle" x="309.5" y="-20.5" font-family="Helvetica,sans-Serif" font-size="10.00">heap_iterator_set_value</text>
</a>
</g>
</g>
<!-- Node13&#45;&gt;Node21 -->
<g id="edge25_Node000013_Node000021" class="edge"><title>Node13&#45;&gt;Node21</title>
<g id="a_edge25_Node000013_Node000021"><a xlink:title=" ">
<path fill="none" stroke="#63b8ff" d="M149.315,-144.385C162.474,-123.427 196.628,-73.3225 238,-46 243.774,-42.1865 250.232,-38.9604 256.831,-36.2433"/>
<polygon fill="#63b8ff" stroke="#63b8ff" points="258.395,-39.3954 266.538,-32.6173 255.945,-32.8379 258.395,-39.3954"/>
</a>
</g>
</g>
<!-- Node24 -->
<g id="Node000024" class="node"><title>Node24</title>
<g id="a_Node000024"><a xlink:href="group___t_heap.html#ga974f2e71745d48caecb94896f5e9b1c5" target="_top" xlink:title="Posunutí iterátoru na levého následníka.">
<polygon fill="white" stroke="#666666" points="361.5,-237.5 257.5,-237.5 257.5,-218.5 361.5,-218.5 361.5,-237.5"/>
<text text-anchor="middle" x="309.5" y="-225.5" font-family="Helvetica,sans-Serif" font-size="10.00">heap_iterator_to_left</text>
</a>
</g>
</g>
<!-- Node13&#45;&gt;Node24 -->
<g id="edge29_Node000013_Node000024" class="edge"><title>Node13&#45;&gt;Node24</title>
<g id="a_edge29_Node000013_Node000024"><a xlink:title=" ">
<path fill="none" stroke="#63b8ff" d="M157.301,-163.609C175.19,-175.685 207.691,-196.358 238,-209 243.758,-211.402 249.908,-213.582 256.087,-215.538"/>
<polygon fill="#63b8ff" stroke="#63b8ff" points="255.183,-218.921 265.767,-218.426 257.184,-212.213 255.183,-218.921"/>
</a>
</g>
</g>
<!-- Node26 -->
<g id="Node000026" class="node"><title>Node26</title>
<g id="a_Node000026"><a xlink:href="group___t_heap.html#ga1b612baefabca4177116615280539790" target="_top" xlink:title="Posunutí iterátoru na pravého následníka.">
<polygon fill="white" stroke="#666666" points="364.5,-200.5 254.5,-200.5 254.5,-181.5 364.5,-181.5 364.5,-200.5"/>
<text text-anchor="middle" x="309.5" y="-188.5" font-family="Helvetica,sans-Serif" font-size="10.00">heap_iterator_to_right</text>
</a>
</g>
</g>
<!-- Node13&#45;&gt;Node26 -->
<g id="edge32_Node000013_Node000026" class="edge"><title>Node13&#45;&gt;Node26</title>
<g id="a_edge32_Node000013_Node000026"><a xlink:title=" ">
<path fill="none" stroke="#63b8ff" d="M171.117,-160.193C194.159,-165.36 227.653,-172.871 255.8,-179.183"/>
<polygon fill="#63b8ff" stroke="#63b8ff" points="255.376,-182.674 265.899,-181.447 256.908,-175.844 255.376,-182.674"/>
</a>
</g>
</g>
<!-- Node28 -->
<g id="Node000028" class="node"><title>Node28</title>
<g id="a_Node000028"><a xlink:href="group___t_heap.html#gaa7548708d4ee2e6afd1366cccc135f6a" target="_top" xlink:title="Přesun hodnoty uzlu haldy určené dvěma iterátory.">
<polygon fill="white" stroke="#666666" points="373.5,-163.5 245.5,-163.5 245.5,-144.5 373.5,-144.5 373.5,-163.5"/>
<text text-anchor="middle" x="309.5" y="-151.5" font-family="Helvetica,sans-Serif" font-size="10.00">heap_move_with_iterators</text>
</a>
</g>
</g>
<!-- Node13&#45;&gt;Node28 -->
<g id="edge35_Node000013_Node000028" class="edge"><title>Node13&#45;&gt;Node28</title>
<g id="a_edge35_Node000013_Node000028"><a xlink:title=" ">
<path fill="none" stroke="#63b8ff" d="M171.117,-154C188.779,-154 212.581,-154 235.41,-154"/>
<polygon fill="#63b8ff" stroke="#63b8ff" points="235.458,-157.5 245.458,-154 235.458,-150.5 235.458,-157.5"/>
</a>
</g>
</g>
<!-- Node15 -->
<g id="Node000015" class="node"><title>Node15</title>
<g id="a_Node000015"><a xlink:href="group__sortable___t_vector_iterator.html#gaa359594c5556fb685473666fad583ddf" target="_top" xlink:title="Porovnání mezi hodnotou elementu vektoru určenou iterátorem a hodnotou typu VectorElement.">
<polygon fill="white" stroke="#666666" points="537,-126 430,-126 430,-96 537,-96 537,-126"/>
<text text-anchor="start" x="438" y="-114" font-family="Helvetica,sans-Serif" font-size="10.00">vector_compare_with</text>
<text text-anchor="middle" x="483.5" y="-103" font-family="Helvetica,sans-Serif" font-size="10.00">_iterator_value</text>
</a>
</g>
</g>
<!-- Node14&#45;&gt;Node15 -->
<g id="edge16_Node000014_Node000015" class="edge"><title>Node14&#45;&gt;Node15</title>
<g id="a_edge16_Node000014_Node000015"><a xlink:title=" ">
<path fill="none" stroke="#63b8ff" d="M378.973,-111C392.353,-111 406.324,-111 419.515,-111"/>
<polygon fill="#63b8ff" stroke="#63b8ff" points="419.9,-114.5 429.9,-111 419.9,-107.5 419.9,-114.5"/>
</a>
</g>
</g>
<!-- Node15&#45;&gt;Node6 -->
<g id="edge19_Node000015_Node000006" class="edge"><title>Node15&#45;&gt;Node6</title>
<g id="a_edge19_Node000015_Node000006"><a xlink:title=" ">
<path fill="none" stroke="#63b8ff" d="M537.195,-125.115C556.788,-130.363 579.031,-136.321 598.719,-141.594"/>
<polygon fill="#63b8ff" stroke="#63b8ff" points="597.889,-144.995 608.454,-144.202 599.7,-138.234 597.889,-144.995"/>
</a>
</g>
</g>
<!-- Node16 -->
<g id="Node000016" class="node"><title>Node16</title>
<g id="a_Node000016"><a xlink:href="_t_vector_8c.html#a8254190a2b4fe570173cc77dba0ee7a4" target="_top" xlink:title=" ">
<polygon fill="white" stroke="#666666" points="706.5,-123 600.5,-123 600.5,-93 706.5,-93 706.5,-123"/>
<text text-anchor="start" x="608.5" y="-111" font-family="Helvetica,sans-Serif" font-size="10.00">vector_fast_compare</text>
<text text-anchor="middle" x="653.5" y="-100" font-family="Helvetica,sans-Serif" font-size="10.00">_position_value</text>
</a>
</g>
</g>
<!-- Node15&#45;&gt;Node16 -->
<g id="edge17_Node000015_Node000016" class="edge"><title>Node15&#45;&gt;Node16</title>
<g id="a_edge17_Node000015_Node000016"><a xlink:title=" ">
<path fill="none" stroke="#63b8ff" d="M537.195,-110.059C554.007,-109.759 572.772,-109.424 590.199,-109.113"/>
<polygon fill="#63b8ff" stroke="#63b8ff" points="590.344,-112.611 600.28,-108.933 590.219,-105.612 590.344,-112.611"/>
</a>
</g>
</g>
<!-- Node17 -->
<g id="Node000017" class="node"><title>Node17</title>
<g id="a_Node000017"><a xlink:href="group___t_vector_element.html#ga82e527836fce12c93af896f65e9f701d" target="_top" xlink:title="Porovnání dvou elementů">
<polygon fill="white" stroke="#666666" points="893,-93.5 757,-93.5 757,-74.5 893,-74.5 893,-93.5"/>
<text text-anchor="middle" x="825" y="-81.5" font-family="Helvetica,sans-Serif" font-size="10.00">vector_element_comparator</text>
</a>
</g>
</g>
<!-- Node16&#45;&gt;Node17 -->
<g id="edge18_Node000016_Node000017" class="edge"><title>Node16&#45;&gt;Node17</title>
<g id="a_edge18_Node000016_Node000017"><a xlink:title=" ">
<path fill="none" stroke="#63b8ff" d="M706.739,-100.603C719.373,-98.8144 733.144,-96.8645 746.662,-94.9505"/>
<polygon fill="#63b8ff" stroke="#63b8ff" points="747.516,-98.3646 756.926,-93.4971 746.534,-91.4337 747.516,-98.3646"/>
</a>
</g>
</g>
<!-- Node19 -->
<g id="Node000019" class="node"><title>Node19</title>
<g id="a_Node000019"><a xlink:href="group__sortable___t_vector_iterator.html#gadd8aded92ce2c6402742a57316412d39" target="_top" xlink:title="Porovnání hodnot elementů vektorů určených dvěma iterátory.">
<polygon fill="white" stroke="#666666" points="537,-78 430,-78 430,-48 537,-48 537,-78"/>
<text text-anchor="start" x="438" y="-66" font-family="Helvetica,sans-Serif" font-size="10.00">vector_compare_with</text>
<text text-anchor="middle" x="483.5" y="-55" font-family="Helvetica,sans-Serif" font-size="10.00">_iterators</text>
</a>
</g>
</g>
<!-- Node18&#45;&gt;Node19 -->
<g id="edge21_Node000018_Node000019" class="edge"><title>Node18&#45;&gt;Node19</title>
<g id="a_edge21_Node000018_Node000019"><a xlink:title=" ">
<path fill="none" stroke="#63b8ff" d="M381.452,-64.175C394.104,-64.0279 407.204,-63.8755 419.611,-63.7313"/>
<polygon fill="#63b8ff" stroke="#63b8ff" points="419.886,-67.2284 429.844,-63.6123 419.804,-60.2289 419.886,-67.2284"/>
</a>
</g>
</g>
<!-- Node19&#45;&gt;Node6 -->
<g id="edge24_Node000019_Node000006" class="edge"><title>Node19&#45;&gt;Node6</title>
<g id="a_edge24_Node000019_Node000006"><a xlink:title=" ">
<path fill="none" stroke="#63b8ff" d="M534.61,-78.0617C540.029,-80.6396 545.281,-83.6051 550,-87 570.791,-101.957 565.172,-117.093 586,-132 589.971,-134.842 594.313,-137.38 598.816,-139.64"/>
<polygon fill="#63b8ff" stroke="#63b8ff" points="597.662,-142.96 608.216,-143.898 600.55,-136.584 597.662,-142.96"/>
</a>
</g>
</g>
<!-- Node20 -->
<g id="Node000020" class="node"><title>Node20</title>
<g id="a_Node000020"><a xlink:href="_t_vector_8c.html#a188bab569c3ae8a25070f632a6f53e62" target="_top" xlink:title=" ">
<polygon fill="white" stroke="#666666" points="706.5,-75 600.5,-75 600.5,-45 706.5,-45 706.5,-75"/>
<text text-anchor="start" x="608.5" y="-63" font-family="Helvetica,sans-Serif" font-size="10.00">vector_fast_compare</text>
<text text-anchor="middle" x="653.5" y="-52" font-family="Helvetica,sans-Serif" font-size="10.00">_positions</text>
</a>
</g>
</g>
<!-- Node19&#45;&gt;Node20 -->
<g id="edge22_Node000019_Node000020" class="edge"><title>Node19&#45;&gt;Node20</title>
<g id="a_edge22_Node000019_Node000020"><a xlink:title=" ">
<path fill="none" stroke="#63b8ff" d="M537.195,-62.059C554.007,-61.7588 572.772,-61.4237 590.199,-61.1125"/>
<polygon fill="#63b8ff" stroke="#63b8ff" points="590.344,-64.6106 600.28,-60.9325 590.219,-57.6117 590.344,-64.6106"/>
</a>
</g>
</g>
<!-- Node20&#45;&gt;Node17 -->
<g id="edge23_Node000020_Node000017" class="edge"><title>Node20&#45;&gt;Node17</title>
<g id="a_edge23_Node000020_Node000017"><a xlink:title=" ">
<path fill="none" stroke="#63b8ff" d="M706.739,-67.3966C719.373,-69.1856 733.144,-71.1355 746.662,-73.0495"/>
<polygon fill="#63b8ff" stroke="#63b8ff" points="746.534,-76.5663 756.926,-74.5029 747.516,-69.6354 746.534,-76.5663"/>
</a>
</g>
</g>
<!-- Node22 -->
<g id="Node000022" class="node"><title>Node22</title>
<g id="a_Node000022"><a xlink:href="group___t_vector_iterator.html#ga66f6b96e416a7e593b1cf703f58be7ca" target="_top" xlink:title="Zapsání hodnoty elementu do vektoru pomocí iterátoru.">
<polygon fill="white" stroke="#666666" points="531.5,-30 435.5,-30 435.5,-0 531.5,-0 531.5,-30"/>
<text text-anchor="start" x="443.5" y="-18" font-family="Helvetica,sans-Serif" font-size="10.00">vector_iterator_set</text>
<text text-anchor="middle" x="483.5" y="-7" font-family="Helvetica,sans-Serif" font-size="10.00">_value</text>
</a>
</g>
</g>
<!-- Node21&#45;&gt;Node22 -->
<g id="edge26_Node000021_Node000022" class="edge"><title>Node21&#45;&gt;Node22</title>
<g id="a_edge26_Node000021_Node000022"><a xlink:title=" ">
<path fill="none" stroke="#63b8ff" d="M369.212,-20.2692C387.356,-19.4253 407.309,-18.4973 425.346,-17.6583"/>
<polygon fill="#63b8ff" stroke="#63b8ff" points="425.604,-21.1502 435.431,-17.1893 425.279,-14.1577 425.604,-21.1502"/>
</a>
</g>
</g>
<!-- Node22&#45;&gt;Node6 -->
<g id="edge28_Node000022_Node000006" class="edge"><title>Node22&#45;&gt;Node6</title>
<g id="a_edge28_Node000022_Node000006"><a xlink:title=" ">
<path fill="none" stroke="#63b8ff" d="M531.775,-26.7094C538.463,-29.8854 544.815,-33.9085 550,-39 581.623,-70.0553 554.302,-101.022 586,-132 589.798,-135.712 594.212,-138.854 598.924,-141.514"/>
<polygon fill="#63b8ff" stroke="#63b8ff" points="597.749,-144.834 608.273,-146.057 600.808,-138.538 597.749,-144.834"/>
</a>
</g>
</g>
<!-- Node23 -->
<g id="Node000023" class="node"><title>Node23</title>
<g id="a_Node000023"><a xlink:href="_t_vector_8c.html#a689bf71829922c70ca1964e125e94217" target="_top" xlink:title=" ">
<polygon fill="white" stroke="#666666" points="708,-24.5 599,-24.5 599,-5.5 708,-5.5 708,-24.5"/>
<text text-anchor="middle" x="653.5" y="-12.5" font-family="Helvetica,sans-Serif" font-size="10.00">vector_fast_set_value</text>
</a>
</g>
</g>
<!-- Node22&#45;&gt;Node23 -->
<g id="edge27_Node000022_Node000023" class="edge"><title>Node22&#45;&gt;Node23</title>
<g id="a_edge27_Node000022_Node000023"><a xlink:title=" ">
<path fill="none" stroke="#63b8ff" d="M531.744,-15C549.432,-15 569.827,-15 588.762,-15"/>
<polygon fill="#63b8ff" stroke="#63b8ff" points="588.805,-18.5001 598.805,-15 588.805,-11.5001 588.805,-18.5001"/>
</a>
</g>
</g>
<!-- Node24&#45;&gt;Node5 -->
<g id="edge30_Node000024_Node000005" class="edge"><title>Node24&#45;&gt;Node5</title>
<g id="a_edge30_Node000024_Node000005"><a xlink:title=" ">
<path fill="none" stroke="#63b8ff" d="M354.794,-237.528C377.177,-242.343 404.534,-248.228 428.177,-253.314"/>
<polygon fill="#63b8ff" stroke="#63b8ff" points="427.545,-256.758 438.057,-255.44 429.017,-249.915 427.545,-256.758"/>
</a>
</g>
</g>
<!-- Node25 -->
<g id="Node000025" class="node"><title>Node25</title>
<g id="a_Node000025"><a xlink:href="group___t_heap.html#gaeb9b613cb82e8946a4c37bb1145780f4" target="_top" xlink:title="Vypočte pozici uzlu levého následníka.">
<polygon fill="white" stroke="#666666" points="528.5,-237.5 438.5,-237.5 438.5,-218.5 528.5,-218.5 528.5,-237.5"/>
<text text-anchor="middle" x="483.5" y="-225.5" font-family="Helvetica,sans-Serif" font-size="10.00">heap_pos_to_left</text>
</a>
</g>
</g>
<!-- Node24&#45;&gt;Node25 -->
<g id="edge31_Node000024_Node000025" class="edge"><title>Node24&#45;&gt;Node25</title>
<g id="a_edge31_Node000024_Node000025"><a xlink:title=" ">
<path fill="none" stroke="#63b8ff" d="M361.64,-228C382.575,-228 406.826,-228 428.087,-228"/>
<polygon fill="#63b8ff" stroke="#63b8ff" points="428.256,-231.5 438.256,-228 428.256,-224.5 428.256,-231.5"/>
</a>
</g>
</g>
<!-- Node26&#45;&gt;Node5 -->
<g id="edge33_Node000026_Node000005" class="edge"><title>Node26&#45;&gt;Node5</title>
<g id="a_edge33_Node000026_Node000005"><a xlink:title=" ">
<path fill="none" stroke="#63b8ff" d="M361.884,-200.554C368.545,-202.808 375.096,-205.584 381,-209 400.859,-220.491 397.329,-234.19 417,-246 420.597,-248.16 424.454,-250.086 428.429,-251.801"/>
<polygon fill="#63b8ff" stroke="#63b8ff" points="427.263,-255.103 437.853,-255.433 429.78,-248.571 427.263,-255.103"/>
</a>
</g>
</g>
<!-- Node27 -->
<g id="Node000027" class="node"><title>Node27</title>
<g id="a_Node000027"><a xlink:href="group___t_heap.html#ga1272b4f692f5ec34abaeecde82899bfb" target="_top" xlink:title="Vypočte pozici uzlu pravého následníka.">
<polygon fill="white" stroke="#666666" points="531.5,-200.5 435.5,-200.5 435.5,-181.5 531.5,-181.5 531.5,-200.5"/>
<text text-anchor="middle" x="483.5" y="-188.5" font-family="Helvetica,sans-Serif" font-size="10.00">heap_pos_to_right</text>
</a>
</g>
</g>
<!-- Node26&#45;&gt;Node27 -->
<g id="edge34_Node000026_Node000027" class="edge"><title>Node26&#45;&gt;Node27</title>
<g id="a_edge34_Node000026_Node000027"><a xlink:title=" ">
<path fill="none" stroke="#63b8ff" d="M364.922,-191C384.11,-191 405.733,-191 425.155,-191"/>
<polygon fill="#63b8ff" stroke="#63b8ff" points="425.387,-194.5 435.387,-191 425.386,-187.5 425.387,-194.5"/>
</a>
</g>
</g>
<!-- Node29 -->
<g id="Node000029" class="node"><title>Node29</title>
<g id="a_Node000029"><a xlink:href="group__sortable___t_vector_iterator.html#gaa3e549d3e67e2168311acc8f4a494cc5" target="_top" xlink:title="Přesun hodnoty elementu vektoru určené dvěma iterátory.">
<polygon fill="white" stroke="#666666" points="550,-163.5 417,-163.5 417,-144.5 550,-144.5 550,-163.5"/>
<text text-anchor="middle" x="483.5" y="-151.5" font-family="Helvetica,sans-Serif" font-size="10.00">vector_move_with_iterators</text>
</a>
</g>
</g>
<!-- Node28&#45;&gt;Node29 -->
<g id="edge36_Node000028_Node000029" class="edge"><title>Node28&#45;&gt;Node29</title>
<g id="a_edge36_Node000028_Node000029"><a xlink:title=" ">
<path fill="none" stroke="#63b8ff" d="M373.57,-154C384.36,-154 395.671,-154 406.75,-154"/>
<polygon fill="#63b8ff" stroke="#63b8ff" points="406.84,-157.5 416.84,-154 406.84,-150.5 406.84,-157.5"/>
</a>
</g>
</g>
<!-- Node29&#45;&gt;Node6 -->
<g id="edge38_Node000029_Node000006" class="edge"><title>Node29&#45;&gt;Node6</title>
<g id="a_edge38_Node000029_Node000006"><a xlink:title=" ">
<path fill="none" stroke="#63b8ff" d="M550.416,-154.785C566.175,-154.972 582.827,-155.171 598.005,-155.351"/>
<polygon fill="#63b8ff" stroke="#63b8ff" points="598.208,-158.854 608.249,-155.473 598.292,-151.854 598.208,-158.854"/>
</a>
</g>
</g>
<!-- Node30 -->
<g id="Node000030" class="node"><title>Node30</title>
<g id="a_Node000030"><a xlink:href="_t_vector_8c.html#a0e3151269c65b7033ddecb4c3aee6566" target="_top" xlink:title=" ">
<polygon fill="white" stroke="#666666" points="721,-208.5 586,-208.5 586,-189.5 721,-189.5 721,-208.5"/>
<text text-anchor="middle" x="653.5" y="-196.5" font-family="Helvetica,sans-Serif" font-size="10.00">vector_fast_move_positions</text>
</a>
</g>
</g>
<!-- Node29&#45;&gt;Node30 -->
<g id="edge37_Node000029_Node000030" class="edge"><title>Node29&#45;&gt;Node30</title>
<g id="a_edge37_Node000029_Node000030"><a xlink:title=" ">
<path fill="none" stroke="#63b8ff" d="M520.128,-163.543C545.52,-170.345 579.858,-179.542 607.197,-186.865"/>
<polygon fill="#63b8ff" stroke="#63b8ff" points="606.358,-190.264 616.923,-189.47 608.169,-183.502 606.358,-190.264"/>
</a>
</g>
</g>
</g>
</svg>
