<?xml version="1.0" encoding="UTF-8" standalone="no"?>
<!DOCTYPE svg PUBLIC "-//W3C//DTD SVG 1.1//EN"
 "http://www.w3.org/Graphics/SVG/1.1/DTD/svg11.dtd">
<!-- Generated by graphviz version 2.38.0 (20140413.2041)
 -->
<!-- Title: heap_sort_with_iterators.h Pages: 1 -->
<svg width="244pt" height="137pt"
 viewBox="0.00 0.00 244.00 137.00" xmlns="http://www.w3.org/2000/svg" xmlns:xlink="http://www.w3.org/1999/xlink">
<g id="graph0" class="graph" transform="scale(1 1) rotate(0) translate(4 133)">
<title>heap_sort_with_iterators.h</title>
<!-- Node1 -->
<g id="Node000001" class="node"><title>Node1</title>
<g id="a_Node000001"><a xlink:title="Deklarace API výkonnější metody třídění (Heap sort), využívající iterátorové API pro přístup k uzlům ...">
<polygon fill="#999999" stroke="#666666" points="194,-129 63,-129 63,-110 194,-110 194,-129"/>
<text text-anchor="middle" x="128.5" y="-117" font-family="Helvetica,sans-Serif" font-size="10.00">heap_sort_with_iterators.h</text>
</a>
</g>
</g>
<!-- Node2 -->
<g id="Node000002" class="node"><title>Node2</title>
<g id="a_Node000002"><a xlink:href="heap__sort__with__iterators_8c.html" target="_top" xlink:title="Implementace API výkonnější metody třídění (Heap sort), využívající iterátorové API pro přístup k uzl...">
<polygon fill="white" stroke="#666666" points="131,-74 0,-74 0,-55 131,-55 131,-74"/>
<text text-anchor="middle" x="65.5" y="-62" font-family="Helvetica,sans-Serif" font-size="10.00">heap_sort_with_iterators.c</text>
</a>
</g>
</g>
<!-- Node1&#45;&gt;Node2 -->
<g id="edge1_Node000001_Node000002" class="edge"><title>Node1&#45;&gt;Node2</title>
<g id="a_edge1_Node000001_Node000002"><a xlink:title=" ">
<path fill="none" stroke="#63b8ff" d="M110.46,-103.324C99.2269,-93.8734 85.1809,-82.057 75.8062,-74.1703"/>
<polygon fill="#63b8ff" stroke="#63b8ff" points="108.472,-106.225 118.378,-109.985 112.979,-100.869 108.472,-106.225"/>
</a>
</g>
</g>
<!-- Node3 -->
<g id="Node000003" class="node"><title>Node3</title>
<g id="a_Node000003"><a xlink:href="powerful__sorts_8h.html" target="_top" xlink:title="Deklarace API výkonnějších metod třídění">
<polygon fill="white" stroke="#666666" points="236,-74 149,-74 149,-55 236,-55 236,-74"/>
<text text-anchor="middle" x="192.5" y="-62" font-family="Helvetica,sans-Serif" font-size="10.00">powerful_sorts.h</text>
</a>
</g>
</g>
<!-- Node1&#45;&gt;Node3 -->
<g id="edge2_Node000001_Node000003" class="edge"><title>Node1&#45;&gt;Node3</title>
<g id="a_edge2_Node000001_Node000003"><a xlink:title=" ">
<path fill="none" stroke="#63b8ff" d="M146.491,-103.601C157.958,-94.1055 172.413,-82.1343 182.03,-74.1703"/>
<polygon fill="#63b8ff" stroke="#63b8ff" points="144.252,-100.911 138.783,-109.985 148.717,-106.302 144.252,-100.911"/>
</a>
</g>
</g>
<!-- Node4 -->
<g id="Node000004" class="node"><title>Node4</title>
<g id="a_Node000004"><a xlink:href="main_8c.html" target="_top" xlink:title="Hlavní program testující API výkonnějších metod třídění">
<polygon fill="white" stroke="#666666" points="215.5,-19 169.5,-19 169.5,-0 215.5,-0 215.5,-19"/>
<text text-anchor="middle" x="192.5" y="-7" font-family="Helvetica,sans-Serif" font-size="10.00">main.c</text>
</a>
</g>
</g>
<!-- Node3&#45;&gt;Node4 -->
<g id="edge3_Node000003_Node000004" class="edge"><title>Node3&#45;&gt;Node4</title>
<g id="a_edge3_Node000003_Node000004"><a xlink:title=" ">
<path fill="none" stroke="#63b8ff" d="M192.5,-44.66C192.5,-35.9304 192.5,-25.9876 192.5,-19.089"/>
<polygon fill="#63b8ff" stroke="#63b8ff" points="189,-44.7481 192.5,-54.7481 196,-44.7482 189,-44.7481"/>
</a>
</g>
</g>
</g>
</svg>
