<?xml version="1.0" encoding="UTF-8" standalone="no"?>
<!DOCTYPE svg PUBLIC "-//W3C//DTD SVG 1.1//EN"
 "http://www.w3.org/Graphics/SVG/1.1/DTD/svg11.dtd">
<!-- Generated by graphviz version 2.38.0 (20140413.2041)
 -->
<!-- Title: heap_sort.c Pages: 1 -->
<svg width="349pt" height="247pt"
 viewBox="0.00 0.00 349.00 247.00" xmlns="http://www.w3.org/2000/svg" xmlns:xlink="http://www.w3.org/1999/xlink">
<g id="graph0" class="graph" transform="scale(1 1) rotate(0) translate(4 243)">
<title>heap_sort.c</title>
<!-- Node1 -->
<g id="Node000001" class="node"><title>Node1</title>
<g id="a_Node000001"><a xlink:title="Implementace API výkonnější metody třídění (Heap sort), využívající poziční API pro přístup k uzlům h...">
<polygon fill="#999999" stroke="#666666" points="255,-239 187,-239 187,-220 255,-220 255,-239"/>
<text text-anchor="middle" x="221" y="-227" font-family="Helvetica,sans-Serif" font-size="10.00">heap_sort.c</text>
</a>
</g>
</g>
<!-- Node2 -->
<g id="Node000002" class="node"><title>Node2</title>
<g id="a_Node000002"><a xlink:href="heap__sort_8h.html" target="_top" xlink:title="Deklarace API výkonnější metody třídění (Heap sort), využívající poziční API pro přístup k uzlům hald...">
<polygon fill="white" stroke="#666666" points="216,-184 148,-184 148,-165 216,-165 216,-184"/>
<text text-anchor="middle" x="182" y="-172" font-family="Helvetica,sans-Serif" font-size="10.00">heap_sort.h</text>
</a>
</g>
</g>
<!-- Node1&#45;&gt;Node2 -->
<g id="edge1_Node000001_Node000002" class="edge"><title>Node1&#45;&gt;Node2</title>
<g id="a_edge1_Node000001_Node000002"><a xlink:title=" ">
<path fill="none" stroke="#63b8ff" d="M214.56,-219.748C209.108,-212.339 201.135,-201.504 194.444,-192.411"/>
<polygon fill="#63b8ff" stroke="#63b8ff" points="197.066,-190.069 188.32,-184.089 191.428,-194.218 197.066,-190.069"/>
</a>
</g>
</g>
<!-- Node11 -->
<g id="Node000011" class="node"><title>Node11</title>
<g id="a_Node000011"><a xlink:href="_t_heap_8h.html" target="_top" xlink:title="Definice typu Heap pro přístup k elementům vektoru jako k uzlům haldy (vyžaduje Sortable Vector with ...">
<polygon fill="white" stroke="#666666" points="287.5,-184 234.5,-184 234.5,-165 287.5,-165 287.5,-184"/>
<text text-anchor="middle" x="261" y="-172" font-family="Helvetica,sans-Serif" font-size="10.00">THeap.h</text>
</a>
</g>
</g>
<!-- Node1&#45;&gt;Node11 -->
<g id="edge13_Node000001_Node000011" class="edge"><title>Node1&#45;&gt;Node11</title>
<g id="a_edge13_Node000001_Node000011"><a xlink:title=" ">
<path fill="none" stroke="#63b8ff" d="M227.605,-219.748C233.255,-212.262 241.545,-201.278 248.451,-192.127"/>
<polygon fill="#63b8ff" stroke="#63b8ff" points="251.287,-194.179 254.518,-184.089 245.7,-189.962 251.287,-194.179"/>
</a>
</g>
</g>
<!-- Node3 -->
<g id="Node000003" class="node"><title>Node3</title>
<g id="a_Node000003"><a xlink:href="_t_vector_8h.html" target="_top" xlink:title="Definice typu Sortable Vector with shareable sortstats.">
<polygon fill="white" stroke="#666666" points="211.5,-129 152.5,-129 152.5,-110 211.5,-110 211.5,-129"/>
<text text-anchor="middle" x="182" y="-117" font-family="Helvetica,sans-Serif" font-size="10.00">TVector.h</text>
</a>
</g>
</g>
<!-- Node2&#45;&gt;Node3 -->
<g id="edge2_Node000002_Node000003" class="edge"><title>Node2&#45;&gt;Node3</title>
<g id="a_edge2_Node000002_Node000003"><a xlink:title=" ">
<path fill="none" stroke="#63b8ff" d="M182,-164.748C182,-157.802 182,-147.845 182,-139.135"/>
<polygon fill="#63b8ff" stroke="#63b8ff" points="185.5,-139.089 182,-129.089 178.5,-139.089 185.5,-139.089"/>
</a>
</g>
</g>
<!-- Node4 -->
<g id="Node000004" class="node"><title>Node4</title>
<g id="a_Node000004"><a xlink:title=" ">
<polygon fill="#e0e0e0" stroke="#999999" points="46,-19 0,-19 0,-0 46,-0 46,-19"/>
<text text-anchor="middle" x="23" y="-7" font-family="Helvetica,sans-Serif" font-size="10.00">stdio.h</text>
</a>
</g>
</g>
<!-- Node3&#45;&gt;Node4 -->
<g id="edge3_Node000003_Node000004" class="edge"><title>Node3&#45;&gt;Node4</title>
<g id="a_edge3_Node000003_Node000004"><a xlink:title=" ">
<path fill="none" stroke="#63b8ff" d="M152.439,-111.383C128.701,-104.613 95.4168,-92.6546 71,-74 54.5828,-61.4572 40.9706,-41.9081 32.4861,-27.8134"/>
<polygon fill="#63b8ff" stroke="#63b8ff" points="35.4816,-26.0014 27.46,-19.0801 29.4146,-29.4931 35.4816,-26.0014"/>
</a>
</g>
</g>
<!-- Node5 -->
<g id="Node000005" class="node"><title>Node5</title>
<g id="a_Node000005"><a xlink:title=" ">
<polygon fill="#e0e0e0" stroke="#999999" points="266,-19 210,-19 210,-0 266,-0 266,-19"/>
<text text-anchor="middle" x="238" y="-7" font-family="Helvetica,sans-Serif" font-size="10.00">stdbool.h</text>
</a>
</g>
</g>
<!-- Node3&#45;&gt;Node5 -->
<g id="edge4_Node000003_Node000005" class="edge"><title>Node3&#45;&gt;Node5</title>
<g id="a_edge4_Node000003_Node000005"><a xlink:title=" ">
<path fill="none" stroke="#63b8ff" d="M211.834,-110.321C229.792,-103.69 251.205,-92.3578 262,-74 270.737,-59.1423 261.658,-40.5361 252.268,-27.3135"/>
<polygon fill="#63b8ff" stroke="#63b8ff" points="254.823,-24.8956 245.933,-19.1317 249.288,-29.1813 254.823,-24.8956"/>
</a>
</g>
</g>
<!-- Node6 -->
<g id="Node000006" class="node"><title>Node6</title>
<g id="a_Node000006"><a xlink:title=" ">
<polygon fill="#e0e0e0" stroke="#999999" points="253.5,-74 202.5,-74 202.5,-55 253.5,-55 253.5,-74"/>
<text text-anchor="middle" x="228" y="-62" font-family="Helvetica,sans-Serif" font-size="10.00">stddef.h</text>
</a>
</g>
</g>
<!-- Node3&#45;&gt;Node6 -->
<g id="edge5_Node000003_Node000006" class="edge"><title>Node3&#45;&gt;Node6</title>
<g id="a_edge5_Node000003_Node000006"><a xlink:title=" ">
<path fill="none" stroke="#63b8ff" d="M189.596,-109.748C196.161,-102.185 205.823,-91.0512 213.814,-81.8447"/>
<polygon fill="#63b8ff" stroke="#63b8ff" points="216.634,-83.9354 220.545,-74.089 211.347,-79.3471 216.634,-83.9354"/>
</a>
</g>
</g>
<!-- Node7 -->
<g id="Node000007" class="node"><title>Node7</title>
<g id="a_Node000007"><a xlink:href="_t_vector_element_8h.html" target="_top" xlink:title="Definice typu Basic VectorElement a implementace API.">
<polygon fill="white" stroke="#666666" points="184.5,-74 89.5,-74 89.5,-55 184.5,-55 184.5,-74"/>
<text text-anchor="middle" x="137" y="-62" font-family="Helvetica,sans-Serif" font-size="10.00">TVectorElement.h</text>
</a>
</g>
</g>
<!-- Node3&#45;&gt;Node7 -->
<g id="edge6_Node000003_Node000007" class="edge"><title>Node3&#45;&gt;Node7</title>
<g id="a_edge6_Node000003_Node000007"><a xlink:title=" ">
<path fill="none" stroke="#63b8ff" d="M174.569,-109.748C168.147,-102.185 158.694,-91.0512 150.878,-81.8447"/>
<polygon fill="#63b8ff" stroke="#63b8ff" points="153.433,-79.4467 144.293,-74.089 148.097,-83.9773 153.433,-79.4467"/>
</a>
</g>
</g>
<!-- Node10 -->
<g id="Node000010" class="node"><title>Node10</title>
<g id="a_Node000010"><a xlink:title=" ">
<polygon fill="#e0e0e0" stroke="#999999" points="115.5,-19 64.5,-19 64.5,-0 115.5,-0 115.5,-19"/>
<text text-anchor="middle" x="90" y="-7" font-family="Helvetica,sans-Serif" font-size="10.00">check.h</text>
</a>
</g>
</g>
<!-- Node3&#45;&gt;Node10 -->
<g id="edge12_Node000003_Node000010" class="edge"><title>Node3&#45;&gt;Node10</title>
<g id="a_edge12_Node000003_Node000010"><a xlink:title=" ">
<path fill="none" stroke="#63b8ff" d="M152.184,-114.4C128.165,-109.356 95.8748,-98.2456 80,-74 71.1338,-60.4586 75.523,-41.8798 80.9942,-28.3174"/>
<polygon fill="#63b8ff" stroke="#63b8ff" points="84.2364,-29.6426 85.1873,-19.0905 77.8636,-26.7465 84.2364,-29.6426"/>
</a>
</g>
</g>
<!-- Node7&#45;&gt;Node4 -->
<g id="edge7_Node000007_Node000004" class="edge"><title>Node7&#45;&gt;Node4</title>
<g id="a_edge7_Node000007_Node000004"><a xlink:title=" ">
<path fill="none" stroke="#63b8ff" d="M118.684,-54.9846C100.345,-46.4586 71.8903,-33.2297 50.7729,-23.412"/>
<polygon fill="#63b8ff" stroke="#63b8ff" points="52.1928,-20.2124 41.6493,-19.1703 49.2417,-26.5599 52.1928,-20.2124"/>
</a>
</g>
</g>
<!-- Node7&#45;&gt;Node5 -->
<g id="edge9_Node000007_Node000005" class="edge"><title>Node7&#45;&gt;Node5</title>
<g id="a_edge9_Node000007_Node000005"><a xlink:title=" ">
<path fill="none" stroke="#63b8ff" d="M153.227,-54.9846C169.182,-46.6122 193.779,-33.7049 212.377,-23.9459"/>
<polygon fill="#63b8ff" stroke="#63b8ff" points="214.249,-26.9162 221.477,-19.1703 210.996,-20.7178 214.249,-26.9162"/>
</a>
</g>
</g>
<!-- Node8 -->
<g id="Node000008" class="node"><title>Node8</title>
<g id="a_Node000008"><a xlink:title=" ">
<polygon fill="#e0e0e0" stroke="#999999" points="182,-19 134,-19 134,-0 182,-0 182,-19"/>
<text text-anchor="middle" x="158" y="-7" font-family="Helvetica,sans-Serif" font-size="10.00">stdlib.h</text>
</a>
</g>
</g>
<!-- Node7&#45;&gt;Node8 -->
<g id="edge8_Node000007_Node000008" class="edge"><title>Node7&#45;&gt;Node8</title>
<g id="a_edge8_Node000007_Node000008"><a xlink:title=" ">
<path fill="none" stroke="#63b8ff" d="M140.468,-54.7481C143.281,-47.6477 147.341,-37.4011 150.846,-28.5561"/>
<polygon fill="#63b8ff" stroke="#63b8ff" points="154.167,-29.6751 154.597,-19.089 147.659,-27.0965 154.167,-29.6751"/>
</a>
</g>
</g>
<!-- Node9 -->
<g id="Node000009" class="node"><title>Node9</title>
<g id="a_Node000009"><a xlink:title=" ">
<polygon fill="#e0e0e0" stroke="#999999" points="341,-19 289,-19 289,-0 341,-0 341,-19"/>
<text text-anchor="middle" x="315" y="-7" font-family="Helvetica,sans-Serif" font-size="10.00">assert.h</text>
</a>
</g>
</g>
<!-- Node7&#45;&gt;Node9 -->
<g id="edge10_Node000007_Node000009" class="edge"><title>Node7&#45;&gt;Node9</title>
<g id="a_edge10_Node000007_Node000009"><a xlink:title=" ">
<path fill="none" stroke="#63b8ff" d="M165.599,-54.9846C196.414,-45.8093 245.52,-31.1877 278.956,-21.2321"/>
<polygon fill="#63b8ff" stroke="#63b8ff" points="280.207,-24.5117 288.792,-18.3034 278.209,-17.8027 280.207,-24.5117"/>
</a>
</g>
</g>
<!-- Node7&#45;&gt;Node10 -->
<g id="edge11_Node000007_Node000010" class="edge"><title>Node7&#45;&gt;Node10</title>
<g id="a_edge11_Node000007_Node000010"><a xlink:title=" ">
<path fill="none" stroke="#63b8ff" d="M129.239,-54.7481C122.532,-47.1846 112.659,-36.0512 104.494,-26.8447"/>
<polygon fill="#63b8ff" stroke="#63b8ff" points="106.87,-24.2487 97.6167,-19.089 101.633,-28.8931 106.87,-24.2487"/>
</a>
</g>
</g>
<!-- Node11&#45;&gt;Node3 -->
<g id="edge15_Node000011_Node000003" class="edge"><title>Node11&#45;&gt;Node3</title>
<g id="a_edge15_Node000011_Node000003"><a xlink:title=" ">
<path fill="none" stroke="#63b8ff" d="M248.307,-164.985C236.171,-156.843 217.642,-144.412 203.254,-134.759"/>
<polygon fill="#63b8ff" stroke="#63b8ff" points="205.178,-131.835 194.924,-129.17 201.278,-137.648 205.178,-131.835"/>
</a>
</g>
</g>
<!-- Node11&#45;&gt;Node9 -->
<g id="edge14_Node000011_Node000009" class="edge"><title>Node11&#45;&gt;Node9</title>
<g id="a_edge14_Node000011_Node000009"><a xlink:title=" ">
<path fill="none" stroke="#63b8ff" d="M263.903,-164.736C272.364,-139.198 297.133,-64.4307 308.794,-29.2321"/>
<polygon fill="#63b8ff" stroke="#63b8ff" points="312.26,-29.9003 312.082,-19.3069 305.615,-27.6989 312.26,-29.9003"/>
</a>
</g>
</g>
</g>
</svg>
