<?xml version="1.0" encoding="UTF-8" standalone="no"?>
<!DOCTYPE svg PUBLIC "-//W3C//DTD SVG 1.1//EN"
 "http://www.w3.org/Graphics/SVG/1.1/DTD/svg11.dtd">
<!-- Generated by graphviz version 2.38.0 (20140413.2041)
 -->
<!-- Title: heap_sort.h Pages: 1 -->
<svg width="182pt" height="137pt"
 viewBox="0.00 0.00 181.50 137.00" xmlns="http://www.w3.org/2000/svg" xmlns:xlink="http://www.w3.org/1999/xlink">
<g id="graph0" class="graph" transform="scale(1 1) rotate(0) translate(4 133)">
<title>heap_sort.h</title>
<!-- Node1 -->
<g id="Node000001" class="node"><title>Node1</title>
<g id="a_Node000001"><a xlink:title="Deklarace API výkonnější metody třídění (Heap sort), využívající poziční API pro přístup k uzlům hald...">
<polygon fill="#999999" stroke="#666666" points="116,-129 48,-129 48,-110 116,-110 116,-129"/>
<text text-anchor="middle" x="82" y="-117" font-family="Helvetica,sans-Serif" font-size="10.00">heap_sort.h</text>
</a>
</g>
</g>
<!-- Node2 -->
<g id="Node000002" class="node"><title>Node2</title>
<g id="a_Node000002"><a xlink:href="heap__sort_8c.html" target="_top" xlink:title="Implementace API výkonnější metody třídění (Heap sort), využívající poziční API pro přístup k uzlům h...">
<polygon fill="white" stroke="#666666" points="68,-74 0,-74 0,-55 68,-55 68,-74"/>
<text text-anchor="middle" x="34" y="-62" font-family="Helvetica,sans-Serif" font-size="10.00">heap_sort.c</text>
</a>
</g>
</g>
<!-- Node1&#45;&gt;Node2 -->
<g id="edge1_Node000001_Node000002" class="edge"><title>Node1&#45;&gt;Node2</title>
<g id="a_edge1_Node000001_Node000002"><a xlink:title=" ">
<path fill="none" stroke="#63b8ff" d="M67.2723,-102.238C58.8599,-92.9494 48.6513,-81.6775 41.7787,-74.089"/>
<polygon fill="#63b8ff" stroke="#63b8ff" points="64.7667,-104.686 74.0738,-109.748 69.9552,-99.9866 64.7667,-104.686"/>
</a>
</g>
</g>
<!-- Node3 -->
<g id="Node000003" class="node"><title>Node3</title>
<g id="a_Node000003"><a xlink:href="powerful__sorts_8h.html" target="_top" xlink:title="Deklarace API výkonnějších metod třídění">
<polygon fill="white" stroke="#666666" points="173.5,-74 86.5,-74 86.5,-55 173.5,-55 173.5,-74"/>
<text text-anchor="middle" x="130" y="-62" font-family="Helvetica,sans-Serif" font-size="10.00">powerful_sorts.h</text>
</a>
</g>
</g>
<!-- Node1&#45;&gt;Node3 -->
<g id="edge2_Node000001_Node000003" class="edge"><title>Node1&#45;&gt;Node3</title>
<g id="a_edge2_Node000001_Node000003"><a xlink:title=" ">
<path fill="none" stroke="#63b8ff" d="M96.7277,-102.238C105.14,-92.9494 115.349,-81.6775 122.221,-74.089"/>
<polygon fill="#63b8ff" stroke="#63b8ff" points="94.0448,-99.9866 89.9262,-109.748 99.2333,-104.686 94.0448,-99.9866"/>
</a>
</g>
</g>
<!-- Node4 -->
<g id="Node000004" class="node"><title>Node4</title>
<g id="a_Node000004"><a xlink:href="main_8c.html" target="_top" xlink:title="Hlavní program testující API výkonnějších metod třídění">
<polygon fill="white" stroke="#666666" points="153,-19 107,-19 107,-0 153,-0 153,-19"/>
<text text-anchor="middle" x="130" y="-7" font-family="Helvetica,sans-Serif" font-size="10.00">main.c</text>
</a>
</g>
</g>
<!-- Node3&#45;&gt;Node4 -->
<g id="edge3_Node000003_Node000004" class="edge"><title>Node3&#45;&gt;Node4</title>
<g id="a_edge3_Node000003_Node000004"><a xlink:title=" ">
<path fill="none" stroke="#63b8ff" d="M130,-44.66C130,-35.9304 130,-25.9876 130,-19.089"/>
<polygon fill="#63b8ff" stroke="#63b8ff" points="126.5,-44.7481 130,-54.7481 133.5,-44.7482 126.5,-44.7481"/>
</a>
</g>
</g>
</g>
</svg>
