<?xml version="1.0" encoding="UTF-8" standalone="no"?>
<!DOCTYPE svg PUBLIC "-//W3C//DTD SVG 1.1//EN"
 "http://www.w3.org/Graphics/SVG/1.1/DTD/svg11.dtd">
<!-- Generated by graphviz version 2.38.0 (20140413.2041)
 -->
<!-- Title: sift_down Pages: 1 -->
<svg width="756pt" height="284pt"
 viewBox="0.00 0.00 756.00 283.50" xmlns="http://www.w3.org/2000/svg" xmlns:xlink="http://www.w3.org/1999/xlink">
<g id="graph0" class="graph" transform="scale(1 1) rotate(0) translate(4 279.5)">
<title>sift_down</title>
<!-- Node1 -->
<g id="Node000001" class="node"><title>Node1</title>
<g id="a_Node000001"><a xlink:title="Vnitřní a lokální funkce zajišťující vložení hodnoty do zvoleného uzlu haldy, při zachování podmínek ...">
<polygon fill="#999999" stroke="#666666" points="57,-128 0,-128 0,-109 57,-109 57,-128"/>
<text text-anchor="middle" x="28.5" y="-116" font-family="Helvetica,sans-Serif" font-size="10.00">sift_down</text>
</a>
</g>
</g>
<!-- Node2 -->
<g id="Node000002" class="node"><title>Node2</title>
<g id="a_Node000002"><a xlink:href="group___t_heap.html#gad15335cb6b5e00a87655aa3f25fadc38" target="_top" xlink:title="Porovnání mezi hodnotou v uzlu haldy určenou iterátorem a hodnotou typu HeapElement.">
<polygon fill="white" stroke="#666666" points="233.5,-205.5 95.5,-205.5 95.5,-175.5 233.5,-175.5 233.5,-205.5"/>
<text text-anchor="start" x="103.5" y="-193.5" font-family="Helvetica,sans-Serif" font-size="10.00">heap_compare_with_iterator</text>
<text text-anchor="middle" x="164.5" y="-182.5" font-family="Helvetica,sans-Serif" font-size="10.00">_value</text>
</a>
</g>
</g>
<!-- Node1&#45;&gt;Node2 -->
<g id="edge1_Node000001_Node000002" class="edge"><title>Node1&#45;&gt;Node2</title>
<g id="a_edge1_Node000001_Node000002"><a xlink:title=" ">
<path fill="none" stroke="#63b8ff" d="M45.2523,-128.073C58.0014,-135.724 76.4881,-146.604 93,-155.5 102.572,-160.657 113.005,-165.99 122.838,-170.891"/>
<polygon fill="#63b8ff" stroke="#63b8ff" points="121.52,-174.143 132.035,-175.437 124.622,-167.868 121.52,-174.143"/>
</a>
</g>
</g>
<!-- Node7 -->
<g id="Node000007" class="node"><title>Node7</title>
<g id="a_Node000007"><a xlink:href="group___t_heap.html#ga33f604f94a11da32fdf681dd21186b87" target="_top" xlink:title="Porovnání hodnot uzlů haldy určených dvěma iterátory.">
<polygon fill="white" stroke="#666666" points="236,-264 93,-264 93,-245 236,-245 236,-264"/>
<text text-anchor="middle" x="164.5" y="-252" font-family="Helvetica,sans-Serif" font-size="10.00">heap_compare_with_iterators</text>
</a>
</g>
</g>
<!-- Node1&#45;&gt;Node7 -->
<g id="edge6_Node000001_Node000007" class="edge"><title>Node1&#45;&gt;Node7</title>
<g id="a_edge6_Node000001_Node000007"><a xlink:title=" ">
<path fill="none" stroke="#63b8ff" d="M33.8842,-128.009C42.8098,-146.552 64.6678,-188.04 93,-214.5 104.255,-225.012 118.771,-233.846 131.703,-240.516"/>
<polygon fill="#63b8ff" stroke="#63b8ff" points="130.253,-243.703 140.77,-244.983 133.347,-237.424 130.253,-243.703"/>
</a>
</g>
</g>
<!-- Node10 -->
<g id="Node000010" class="node"><title>Node10</title>
<g id="a_Node000010"><a xlink:href="group___t_heap.html#gad1c0b47027aa5f072c7275f86b8b2c2a" target="_top" xlink:title="Zapsání hodnoty uzlu haldy pomocí iterátoru.">
<polygon fill="white" stroke="#666666" points="224,-70 105,-70 105,-51 224,-51 224,-70"/>
<text text-anchor="middle" x="164.5" y="-58" font-family="Helvetica,sans-Serif" font-size="10.00">heap_iterator_set_value</text>
</a>
</g>
</g>
<!-- Node1&#45;&gt;Node10 -->
<g id="edge11_Node000001_Node000010" class="edge"><title>Node1&#45;&gt;Node10</title>
<g id="a_edge11_Node000001_Node000010"><a xlink:title=" ">
<path fill="none" stroke="#63b8ff" d="M43.6129,-108.957C56.153,-100.804 75.2021,-89.2047 93,-81.5 100.169,-78.3964 107.938,-75.5769 115.61,-73.0831"/>
<polygon fill="#63b8ff" stroke="#63b8ff" points="116.709,-76.4066 125.224,-70.1014 114.636,-69.7208 116.709,-76.4066"/>
</a>
</g>
</g>
<!-- Node13 -->
<g id="Node000013" class="node"><title>Node13</title>
<g id="a_Node000013"><a xlink:href="group___t_heap.html#ga974f2e71745d48caecb94896f5e9b1c5" target="_top" xlink:title="Posunutí iterátoru na levého následníka.">
<polygon fill="white" stroke="#666666" points="216.5,-147 112.5,-147 112.5,-128 216.5,-128 216.5,-147"/>
<text text-anchor="middle" x="164.5" y="-135" font-family="Helvetica,sans-Serif" font-size="10.00">heap_iterator_to_left</text>
</a>
</g>
</g>
<!-- Node1&#45;&gt;Node13 -->
<g id="edge15_Node000001_Node000013" class="edge"><title>Node1&#45;&gt;Node13</title>
<g id="a_edge15_Node000001_Node000013"><a xlink:title=" ">
<path fill="none" stroke="#63b8ff" d="M57.2649,-122.437C70.3448,-124.291 86.5051,-126.583 102.24,-128.814"/>
<polygon fill="#63b8ff" stroke="#63b8ff" points="102.09,-132.327 112.482,-130.266 103.072,-125.397 102.09,-132.327"/>
</a>
</g>
</g>
<!-- Node16 -->
<g id="Node000016" class="node"><title>Node16</title>
<g id="a_Node000016"><a xlink:href="group___t_heap.html#ga1b612baefabca4177116615280539790" target="_top" xlink:title="Posunutí iterátoru na pravého následníka.">
<polygon fill="white" stroke="#666666" points="219.5,-110 109.5,-110 109.5,-91 219.5,-91 219.5,-110"/>
<text text-anchor="middle" x="164.5" y="-98" font-family="Helvetica,sans-Serif" font-size="10.00">heap_iterator_to_right</text>
</a>
</g>
</g>
<!-- Node1&#45;&gt;Node16 -->
<g id="edge19_Node000001_Node000016" class="edge"><title>Node1&#45;&gt;Node16</title>
<g id="a_edge19_Node000001_Node000016"><a xlink:title=" ">
<path fill="none" stroke="#63b8ff" d="M57.2649,-114.77C69.5351,-113.122 84.5161,-111.11 99.3137,-109.122"/>
<polygon fill="#63b8ff" stroke="#63b8ff" points="100.048,-112.555 109.493,-107.755 99.1164,-105.617 100.048,-112.555"/>
</a>
</g>
</g>
<!-- Node18 -->
<g id="Node000018" class="node"><title>Node18</title>
<g id="a_Node000018"><a xlink:href="group___t_heap.html#gaa7548708d4ee2e6afd1366cccc135f6a" target="_top" xlink:title="Přesun hodnoty uzlu haldy určené dvěma iterátory.">
<polygon fill="white" stroke="#666666" points="228.5,-29 100.5,-29 100.5,-10 228.5,-10 228.5,-29"/>
<text text-anchor="middle" x="164.5" y="-17" font-family="Helvetica,sans-Serif" font-size="10.00">heap_move_with_iterators</text>
</a>
</g>
</g>
<!-- Node1&#45;&gt;Node18 -->
<g id="edge22_Node000001_Node000018" class="edge"><title>Node1&#45;&gt;Node18</title>
<g id="a_edge22_Node000001_Node000018"><a xlink:title=" ">
<path fill="none" stroke="#63b8ff" d="M34.8383,-108.934C44.3916,-92.6812 65.9649,-59.6734 93,-41.5 98.1675,-38.0263 103.911,-35.0789 109.827,-32.583"/>
<polygon fill="#63b8ff" stroke="#63b8ff" points="111.1,-35.8435 119.207,-29.0219 108.615,-29.2994 111.1,-35.8435"/>
</a>
</g>
</g>
<!-- Node3 -->
<g id="Node000003" class="node"><title>Node3</title>
<g id="a_Node000003"><a xlink:href="group__sortable___t_vector_iterator.html#gaa359594c5556fb685473666fad583ddf" target="_top" xlink:title="Porovnání mezi hodnotou elementu vektoru určenou iterátorem a hodnotou typu VectorElement.">
<polygon fill="white" stroke="#666666" points="392,-227.5 285,-227.5 285,-197.5 392,-197.5 392,-227.5"/>
<text text-anchor="start" x="293" y="-215.5" font-family="Helvetica,sans-Serif" font-size="10.00">vector_compare_with</text>
<text text-anchor="middle" x="338.5" y="-204.5" font-family="Helvetica,sans-Serif" font-size="10.00">_iterator_value</text>
</a>
</g>
</g>
<!-- Node2&#45;&gt;Node3 -->
<g id="edge2_Node000002_Node000003" class="edge"><title>Node2&#45;&gt;Node3</title>
<g id="a_edge2_Node000002_Node000003"><a xlink:title=" ">
<path fill="none" stroke="#63b8ff" d="M233.973,-199.258C247.485,-200.986 261.6,-202.792 274.906,-204.494"/>
<polygon fill="#63b8ff" stroke="#63b8ff" points="274.537,-207.975 284.9,-205.772 275.425,-201.032 274.537,-207.975"/>
</a>
</g>
</g>
<!-- Node4 -->
<g id="Node000004" class="node"><title>Node4</title>
<g id="a_Node000004"><a xlink:href="_t_vector_8c.html#a8254190a2b4fe570173cc77dba0ee7a4" target="_top" xlink:title=" ">
<polygon fill="white" stroke="#666666" points="561.5,-227.5 455.5,-227.5 455.5,-197.5 561.5,-197.5 561.5,-227.5"/>
<text text-anchor="start" x="463.5" y="-215.5" font-family="Helvetica,sans-Serif" font-size="10.00">vector_fast_compare</text>
<text text-anchor="middle" x="508.5" y="-204.5" font-family="Helvetica,sans-Serif" font-size="10.00">_position_value</text>
</a>
</g>
</g>
<!-- Node3&#45;&gt;Node4 -->
<g id="edge3_Node000003_Node000004" class="edge"><title>Node3&#45;&gt;Node4</title>
<g id="a_edge3_Node000003_Node000004"><a xlink:title=" ">
<path fill="none" stroke="#63b8ff" d="M392.195,-212.5C409.007,-212.5 427.772,-212.5 445.199,-212.5"/>
<polygon fill="#63b8ff" stroke="#63b8ff" points="445.28,-216 455.28,-212.5 445.28,-209 445.28,-216"/>
</a>
</g>
</g>
<!-- Node6 -->
<g id="Node000006" class="node"><title>Node6</title>
<g id="a_Node000006"><a xlink:href="group___t_vector_iterator.html#ga3f8a97a63f887539e270f6845bf22b9a" target="_top" xlink:title="Zjištění platnosti iterátoru.">
<polygon fill="white" stroke="#666666" points="553.5,-147.5 463.5,-147.5 463.5,-117.5 553.5,-117.5 553.5,-147.5"/>
<text text-anchor="start" x="471.5" y="-135.5" font-family="Helvetica,sans-Serif" font-size="10.00">vector_iterator_is</text>
<text text-anchor="middle" x="508.5" y="-124.5" font-family="Helvetica,sans-Serif" font-size="10.00">_valid</text>
</a>
</g>
</g>
<!-- Node3&#45;&gt;Node6 -->
<g id="edge5_Node000003_Node000006" class="edge"><title>Node3&#45;&gt;Node6</title>
<g id="a_edge5_Node000003_Node000006"><a xlink:title=" ">
<path fill="none" stroke="#63b8ff" d="M381.411,-197.419C389.321,-194.316 397.472,-190.939 405,-187.5 427.993,-176.995 453.007,-163.613 472.569,-152.68"/>
<polygon fill="#63b8ff" stroke="#63b8ff" points="474.429,-155.649 481.422,-147.69 470.992,-149.551 474.429,-155.649"/>
</a>
</g>
</g>
<!-- Node5 -->
<g id="Node000005" class="node"><title>Node5</title>
<g id="a_Node000005"><a xlink:href="group___t_vector_element.html#ga82e527836fce12c93af896f65e9f701d" target="_top" xlink:title="Porovnání dvou elementů">
<polygon fill="white" stroke="#666666" points="748,-246 612,-246 612,-227 748,-227 748,-246"/>
<text text-anchor="middle" x="680" y="-234" font-family="Helvetica,sans-Serif" font-size="10.00">vector_element_comparator</text>
</a>
</g>
</g>
<!-- Node4&#45;&gt;Node5 -->
<g id="edge4_Node000004_Node000005" class="edge"><title>Node4&#45;&gt;Node5</title>
<g id="a_edge4_Node000004_Node000005"><a xlink:title=" ">
<path fill="none" stroke="#63b8ff" d="M561.739,-219.897C574.373,-221.686 588.144,-223.635 601.662,-225.549"/>
<polygon fill="#63b8ff" stroke="#63b8ff" points="601.534,-229.066 611.926,-227.003 602.516,-222.135 601.534,-229.066"/>
</a>
</g>
</g>
<!-- Node8 -->
<g id="Node000008" class="node"><title>Node8</title>
<g id="a_Node000008"><a xlink:href="group__sortable___t_vector_iterator.html#gadd8aded92ce2c6402742a57316412d39" target="_top" xlink:title="Porovnání hodnot elementů vektorů určených dvěma iterátory.">
<polygon fill="white" stroke="#666666" points="392,-275.5 285,-275.5 285,-245.5 392,-245.5 392,-275.5"/>
<text text-anchor="start" x="293" y="-263.5" font-family="Helvetica,sans-Serif" font-size="10.00">vector_compare_with</text>
<text text-anchor="middle" x="338.5" y="-252.5" font-family="Helvetica,sans-Serif" font-size="10.00">_iterators</text>
</a>
</g>
</g>
<!-- Node7&#45;&gt;Node8 -->
<g id="edge7_Node000007_Node000008" class="edge"><title>Node7&#45;&gt;Node8</title>
<g id="a_edge7_Node000007_Node000008"><a xlink:title=" ">
<path fill="none" stroke="#63b8ff" d="M236.452,-256.975C249.104,-257.416 262.204,-257.873 274.611,-258.306"/>
<polygon fill="#63b8ff" stroke="#63b8ff" points="274.728,-261.812 284.844,-258.663 274.973,-254.817 274.728,-261.812"/>
</a>
</g>
</g>
<!-- Node8&#45;&gt;Node6 -->
<g id="edge10_Node000008_Node000006" class="edge"><title>Node8&#45;&gt;Node6</title>
<g id="a_edge10_Node000008_Node000006"><a xlink:title=" ">
<path fill="none" stroke="#63b8ff" d="M390.053,-245.42C395.333,-242.854 400.432,-239.896 405,-236.5 426.401,-220.591 422.683,-207.88 441,-188.5 452.625,-176.201 466.823,-163.933 479.111,-154.028"/>
<polygon fill="#63b8ff" stroke="#63b8ff" points="481.591,-156.529 487.258,-147.577 477.245,-151.041 481.591,-156.529"/>
</a>
</g>
</g>
<!-- Node9 -->
<g id="Node000009" class="node"><title>Node9</title>
<g id="a_Node000009"><a xlink:href="_t_vector_8c.html#a188bab569c3ae8a25070f632a6f53e62" target="_top" xlink:title=" ">
<polygon fill="white" stroke="#666666" points="561.5,-275.5 455.5,-275.5 455.5,-245.5 561.5,-245.5 561.5,-275.5"/>
<text text-anchor="start" x="463.5" y="-263.5" font-family="Helvetica,sans-Serif" font-size="10.00">vector_fast_compare</text>
<text text-anchor="middle" x="508.5" y="-252.5" font-family="Helvetica,sans-Serif" font-size="10.00">_positions</text>
</a>
</g>
</g>
<!-- Node8&#45;&gt;Node9 -->
<g id="edge8_Node000008_Node000009" class="edge"><title>Node8&#45;&gt;Node9</title>
<g id="a_edge8_Node000008_Node000009"><a xlink:title=" ">
<path fill="none" stroke="#63b8ff" d="M392.195,-260.5C409.007,-260.5 427.772,-260.5 445.199,-260.5"/>
<polygon fill="#63b8ff" stroke="#63b8ff" points="445.28,-264 455.28,-260.5 445.28,-257 445.28,-264"/>
</a>
</g>
</g>
<!-- Node9&#45;&gt;Node5 -->
<g id="edge9_Node000009_Node000005" class="edge"><title>Node9&#45;&gt;Node5</title>
<g id="a_edge9_Node000009_Node000005"><a xlink:title=" ">
<path fill="none" stroke="#63b8ff" d="M561.739,-253.103C574.373,-251.314 588.144,-249.365 601.662,-247.451"/>
<polygon fill="#63b8ff" stroke="#63b8ff" points="602.516,-250.865 611.926,-245.997 601.534,-243.934 602.516,-250.865"/>
</a>
</g>
</g>
<!-- Node11 -->
<g id="Node000011" class="node"><title>Node11</title>
<g id="a_Node000011"><a xlink:href="group___t_vector_iterator.html#ga66f6b96e416a7e593b1cf703f58be7ca" target="_top" xlink:title="Zapsání hodnoty elementu do vektoru pomocí iterátoru.">
<polygon fill="white" stroke="#666666" points="386.5,-67.5 290.5,-67.5 290.5,-37.5 386.5,-37.5 386.5,-67.5"/>
<text text-anchor="start" x="298.5" y="-55.5" font-family="Helvetica,sans-Serif" font-size="10.00">vector_iterator_set</text>
<text text-anchor="middle" x="338.5" y="-44.5" font-family="Helvetica,sans-Serif" font-size="10.00">_value</text>
</a>
</g>
</g>
<!-- Node10&#45;&gt;Node11 -->
<g id="edge12_Node000010_Node000011" class="edge"><title>Node10&#45;&gt;Node11</title>
<g id="a_edge12_Node000010_Node000011"><a xlink:title=" ">
<path fill="none" stroke="#63b8ff" d="M224.212,-57.7692C242.356,-56.9253 262.309,-55.9973 280.346,-55.1583"/>
<polygon fill="#63b8ff" stroke="#63b8ff" points="280.604,-58.6502 290.431,-54.6893 280.279,-51.6577 280.604,-58.6502"/>
</a>
</g>
</g>
<!-- Node11&#45;&gt;Node6 -->
<g id="edge14_Node000011_Node000006" class="edge"><title>Node11&#45;&gt;Node6</title>
<g id="a_edge14_Node000011_Node000006"><a xlink:title=" ">
<path fill="none" stroke="#63b8ff" d="M383.553,-67.6174C390.793,-70.3934 398.161,-73.3997 405,-76.5 428.437,-87.1249 453.825,-100.977 473.471,-112.246"/>
<polygon fill="#63b8ff" stroke="#63b8ff" points="471.935,-115.4 482.343,-117.382 475.442,-109.343 471.935,-115.4"/>
</a>
</g>
</g>
<!-- Node12 -->
<g id="Node000012" class="node"><title>Node12</title>
<g id="a_Node000012"><a xlink:href="_t_vector_8c.html#a689bf71829922c70ca1964e125e94217" target="_top" xlink:title=" ">
<polygon fill="white" stroke="#666666" points="563,-62 454,-62 454,-43 563,-43 563,-62"/>
<text text-anchor="middle" x="508.5" y="-50" font-family="Helvetica,sans-Serif" font-size="10.00">vector_fast_set_value</text>
</a>
</g>
</g>
<!-- Node11&#45;&gt;Node12 -->
<g id="edge13_Node000011_Node000012" class="edge"><title>Node11&#45;&gt;Node12</title>
<g id="a_edge13_Node000011_Node000012"><a xlink:title=" ">
<path fill="none" stroke="#63b8ff" d="M386.744,-52.5C404.432,-52.5 424.827,-52.5 443.762,-52.5"/>
<polygon fill="#63b8ff" stroke="#63b8ff" points="443.805,-56.0001 453.805,-52.5 443.805,-49.0001 443.805,-56.0001"/>
</a>
</g>
</g>
<!-- Node14 -->
<g id="Node000014" class="node"><title>Node14</title>
<g id="a_Node000014"><a xlink:href="group___t_heap.html#gae40d23edaede152d035bcf8828ef37d9" target="_top" xlink:title="Zjištění platnosti iterátoru.">
<polygon fill="white" stroke="#666666" points="393.5,-142 283.5,-142 283.5,-123 393.5,-123 393.5,-142"/>
<text text-anchor="middle" x="338.5" y="-130" font-family="Helvetica,sans-Serif" font-size="10.00">heap_iterator_is_valid</text>
</a>
</g>
</g>
<!-- Node13&#45;&gt;Node14 -->
<g id="edge16_Node000013_Node000014" class="edge"><title>Node13&#45;&gt;Node14</title>
<g id="a_edge16_Node000013_Node000014"><a xlink:title=" ">
<path fill="none" stroke="#63b8ff" d="M216.64,-136.013C234.353,-135.498 254.441,-134.914 273.083,-134.373"/>
<polygon fill="#63b8ff" stroke="#63b8ff" points="273.372,-137.866 283.266,-134.077 273.169,-130.869 273.372,-137.866"/>
</a>
</g>
</g>
<!-- Node15 -->
<g id="Node000015" class="node"><title>Node15</title>
<g id="a_Node000015"><a xlink:href="group___t_heap.html#gaeb9b613cb82e8946a4c37bb1145780f4" target="_top" xlink:title="Vypočte pozici uzlu levého následníka.">
<polygon fill="white" stroke="#666666" points="383.5,-179 293.5,-179 293.5,-160 383.5,-160 383.5,-179"/>
<text text-anchor="middle" x="338.5" y="-167" font-family="Helvetica,sans-Serif" font-size="10.00">heap_pos_to_left</text>
</a>
</g>
</g>
<!-- Node13&#45;&gt;Node15 -->
<g id="edge18_Node000013_Node000015" class="edge"><title>Node13&#45;&gt;Node15</title>
<g id="a_edge18_Node000013_Node000015"><a xlink:title=" ">
<path fill="none" stroke="#63b8ff" d="M216.64,-147.014C237.67,-150.927 262.047,-155.462 283.377,-159.431"/>
<polygon fill="#63b8ff" stroke="#63b8ff" points="282.785,-162.88 293.256,-161.269 284.065,-155.999 282.785,-162.88"/>
</a>
</g>
</g>
<!-- Node14&#45;&gt;Node6 -->
<g id="edge17_Node000014_Node000006" class="edge"><title>Node14&#45;&gt;Node6</title>
<g id="a_edge17_Node000014_Node000006"><a xlink:title=" ">
<path fill="none" stroke="#63b8ff" d="M393.581,-132.5C412.688,-132.5 434.172,-132.5 453.29,-132.5"/>
<polygon fill="#63b8ff" stroke="#63b8ff" points="453.341,-136 463.341,-132.5 453.341,-129 453.341,-136"/>
</a>
</g>
</g>
<!-- Node16&#45;&gt;Node14 -->
<g id="edge20_Node000016_Node000014" class="edge"><title>Node16&#45;&gt;Node14</title>
<g id="a_edge20_Node000016_Node000014"><a xlink:title=" ">
<path fill="none" stroke="#63b8ff" d="M216.64,-110.014C235.36,-113.497 256.734,-117.474 276.248,-121.104"/>
<polygon fill="#63b8ff" stroke="#63b8ff" points="275.789,-124.579 286.26,-122.967 277.069,-117.697 275.789,-124.579"/>
</a>
</g>
</g>
<!-- Node17 -->
<g id="Node000017" class="node"><title>Node17</title>
<g id="a_Node000017"><a xlink:href="group___t_heap.html#ga1272b4f692f5ec34abaeecde82899bfb" target="_top" xlink:title="Vypočte pozici uzlu pravého následníka.">
<polygon fill="white" stroke="#666666" points="386.5,-105 290.5,-105 290.5,-86 386.5,-86 386.5,-105"/>
<text text-anchor="middle" x="338.5" y="-93" font-family="Helvetica,sans-Serif" font-size="10.00">heap_pos_to_right</text>
</a>
</g>
</g>
<!-- Node16&#45;&gt;Node17 -->
<g id="edge21_Node000016_Node000017" class="edge"><title>Node16&#45;&gt;Node17</title>
<g id="a_edge21_Node000016_Node000017"><a xlink:title=" ">
<path fill="none" stroke="#63b8ff" d="M219.922,-98.918C239.11,-98.3602 260.733,-97.7316 280.155,-97.167"/>
<polygon fill="#63b8ff" stroke="#63b8ff" points="280.492,-100.659 290.387,-96.8696 280.289,-93.6617 280.492,-100.659"/>
</a>
</g>
</g>
<!-- Node19 -->
<g id="Node000019" class="node"><title>Node19</title>
<g id="a_Node000019"><a xlink:href="group__sortable___t_vector_iterator.html#gaa3e549d3e67e2168311acc8f4a494cc5" target="_top" xlink:title="Přesun hodnoty elementu vektoru určené dvěma iterátory.">
<polygon fill="white" stroke="#666666" points="405,-19 272,-19 272,-0 405,-0 405,-19"/>
<text text-anchor="middle" x="338.5" y="-7" font-family="Helvetica,sans-Serif" font-size="10.00">vector_move_with_iterators</text>
</a>
</g>
</g>
<!-- Node18&#45;&gt;Node19 -->
<g id="edge23_Node000018_Node000019" class="edge"><title>Node18&#45;&gt;Node19</title>
<g id="a_edge23_Node000018_Node000019"><a xlink:title=" ">
<path fill="none" stroke="#63b8ff" d="M228.57,-15.8332C239.36,-15.2058 250.671,-14.5482 261.75,-13.904"/>
<polygon fill="#63b8ff" stroke="#63b8ff" points="262.06,-17.3921 271.84,-13.3175 261.653,-10.4039 262.06,-17.3921"/>
</a>
</g>
</g>
<!-- Node19&#45;&gt;Node6 -->
<g id="edge25_Node000019_Node000006" class="edge"><title>Node19&#45;&gt;Node6</title>
<g id="a_edge25_Node000019_Node000006"><a xlink:title=" ">
<path fill="none" stroke="#63b8ff" d="M385.39,-19.0929C392.257,-21.5655 399.028,-24.6529 405,-28.5 425.669,-41.8136 423.982,-52.7562 441,-70.5 454.301,-84.368 469.989,-99.0665 482.786,-110.67"/>
<polygon fill="#63b8ff" stroke="#63b8ff" points="480.559,-113.374 490.334,-117.459 485.24,-108.169 480.559,-113.374"/>
</a>
</g>
</g>
<!-- Node20 -->
<g id="Node000020" class="node"><title>Node20</title>
<g id="a_Node000020"><a xlink:href="_t_vector_8c.html#a0e3151269c65b7033ddecb4c3aee6566" target="_top" xlink:title=" ">
<polygon fill="white" stroke="#666666" points="576,-19 441,-19 441,-0 576,-0 576,-19"/>
<text text-anchor="middle" x="508.5" y="-7" font-family="Helvetica,sans-Serif" font-size="10.00">vector_fast_move_positions</text>
</a>
</g>
</g>
<!-- Node19&#45;&gt;Node20 -->
<g id="edge24_Node000019_Node000020" class="edge"><title>Node19&#45;&gt;Node20</title>
<g id="a_edge24_Node000019_Node000020"><a xlink:title=" ">
<path fill="none" stroke="#63b8ff" d="M405.416,-9.5C413.716,-9.5 422.263,-9.5 430.712,-9.5"/>
<polygon fill="#63b8ff" stroke="#63b8ff" points="430.946,-13.0001 440.946,-9.5 430.946,-6.0001 430.946,-13.0001"/>
</a>
</g>
</g>
</g>
</svg>
