<?xml version="1.0" encoding="UTF-8" standalone="no"?>
<!DOCTYPE svg PUBLIC "-//W3C//DTD SVG 1.1//EN"
 "http://www.w3.org/Graphics/SVG/1.1/DTD/svg11.dtd">
<!-- Generated by graphviz version 2.38.0 (20140413.2041)
 -->
<!-- Title: sift_down Pages: 1 -->
<svg width="734pt" height="266pt"
 viewBox="0.00 0.00 734.00 265.50" xmlns="http://www.w3.org/2000/svg" xmlns:xlink="http://www.w3.org/1999/xlink">
<g id="graph0" class="graph" transform="scale(1 1) rotate(0) translate(4 261.5)">
<title>sift_down</title>
<!-- Node1 -->
<g id="Node000001" class="node"><title>Node1</title>
<g id="a_Node000001"><a xlink:title="Vnitřní a lokální funkce zajišťující vložení hodnoty do zvoleného uzlu haldy, při zachování podmínek ...">
<polygon fill="#999999" stroke="#666666" points="57,-130 0,-130 0,-111 57,-111 57,-130"/>
<text text-anchor="middle" x="28.5" y="-118" font-family="Helvetica,sans-Serif" font-size="10.00">sift_down</text>
</a>
</g>
</g>
<!-- Node2 -->
<g id="Node000002" class="node"><title>Node2</title>
<g id="a_Node000002"><a xlink:href="group___t_heap.html#ga3651a742b0492e167a3be5db0183f896" target="_top" xlink:title="Porovnání mezi hodnotou v uzlu haldy a hodnotou typu HeapElement.">
<polygon fill="white" stroke="#666666" points="215,-253.5 96,-253.5 96,-223.5 215,-223.5 215,-253.5"/>
<text text-anchor="start" x="104" y="-241.5" font-family="Helvetica,sans-Serif" font-size="10.00">heap_compare_position</text>
<text text-anchor="middle" x="155.5" y="-230.5" font-family="Helvetica,sans-Serif" font-size="10.00">_value</text>
</a>
</g>
</g>
<!-- Node1&#45;&gt;Node2 -->
<g id="edge1_Node000001_Node000002" class="edge"><title>Node1&#45;&gt;Node2</title>
<g id="a_edge1_Node000001_Node000002"><a xlink:title=" ">
<path fill="none" stroke="#63b8ff" d="M33.6755,-130.032C42.2355,-148.556 63.4821,-189.683 93,-213.5 95.0406,-215.147 97.2043,-216.698 99.4529,-218.158"/>
<polygon fill="#63b8ff" stroke="#63b8ff" points="98.0542,-221.391 108.467,-223.345 101.545,-215.324 98.0542,-221.391"/>
</a>
</g>
</g>
<!-- Node6 -->
<g id="Node000006" class="node"><title>Node6</title>
<g id="a_Node000006"><a xlink:href="group___t_heap.html#gad5c7d7699f71a4c30740204aba84f100" target="_top" xlink:title="Porovnání hodnot uzlů haldy.">
<polygon fill="white" stroke="#666666" points="218,-204 93,-204 93,-185 218,-185 218,-204"/>
<text text-anchor="middle" x="155.5" y="-192" font-family="Helvetica,sans-Serif" font-size="10.00">heap_compare_positions</text>
</a>
</g>
</g>
<!-- Node1&#45;&gt;Node6 -->
<g id="edge5_Node000001_Node000006" class="edge"><title>Node1&#45;&gt;Node6</title>
<g id="a_edge5_Node000001_Node000006"><a xlink:title=" ">
<path fill="none" stroke="#63b8ff" d="M37.9771,-130.256C49.3151,-142.721 70.6007,-164.155 93,-176.5 96.2092,-178.269 99.6106,-179.88 103.102,-181.346"/>
<polygon fill="#63b8ff" stroke="#63b8ff" points="101.89,-184.63 112.482,-184.892 104.366,-178.082 101.89,-184.63"/>
</a>
</g>
</g>
<!-- Node9 -->
<g id="Node000009" class="node"><title>Node9</title>
<g id="a_Node000009"><a xlink:href="group___t_heap.html#ga5189745928eb05b31e28d37a79d9017f" target="_top" xlink:title="Přesun hodnot mezi uzly haldy.">
<polygon fill="white" stroke="#666666" points="210.5,-167 100.5,-167 100.5,-148 210.5,-148 210.5,-167"/>
<text text-anchor="middle" x="155.5" y="-155" font-family="Helvetica,sans-Serif" font-size="10.00">heap_move_positions</text>
</a>
</g>
</g>
<!-- Node1&#45;&gt;Node9 -->
<g id="edge9_Node000001_Node000009" class="edge"><title>Node1&#45;&gt;Node9</title>
<g id="a_edge9_Node000001_Node000009"><a xlink:title=" ">
<path fill="none" stroke="#63b8ff" d="M57.2416,-128.711C73.3844,-133.49 94.0633,-139.611 112.2,-144.979"/>
<polygon fill="#63b8ff" stroke="#63b8ff" points="111.387,-148.388 121.969,-147.871 113.373,-141.676 111.387,-148.388"/>
</a>
</g>
</g>
<!-- Node12 -->
<g id="Node000012" class="node"><title>Node12</title>
<g id="a_Node000012"><a xlink:href="group___t_heap.html#gaeb9b613cb82e8946a4c37bb1145780f4" target="_top" xlink:title="Vypočte pozici uzlu levého následníka.">
<polygon fill="white" stroke="#666666" points="200.5,-130 110.5,-130 110.5,-111 200.5,-111 200.5,-130"/>
<text text-anchor="middle" x="155.5" y="-118" font-family="Helvetica,sans-Serif" font-size="10.00">heap_pos_to_left</text>
</a>
</g>
</g>
<!-- Node1&#45;&gt;Node12 -->
<g id="edge12_Node000001_Node000012" class="edge"><title>Node1&#45;&gt;Node12</title>
<g id="a_edge12_Node000001_Node000012"><a xlink:title=" ">
<path fill="none" stroke="#63b8ff" d="M57.2416,-120.5C69.8645,-120.5 85.2611,-120.5 100.047,-120.5"/>
<polygon fill="#63b8ff" stroke="#63b8ff" points="100.144,-124 110.144,-120.5 100.144,-117 100.144,-124"/>
</a>
</g>
</g>
<!-- Node13 -->
<g id="Node000013" class="node"><title>Node13</title>
<g id="a_Node000013"><a xlink:href="group___t_heap.html#ga1272b4f692f5ec34abaeecde82899bfb" target="_top" xlink:title="Vypočte pozici uzlu pravého následníka.">
<polygon fill="white" stroke="#666666" points="203.5,-93 107.5,-93 107.5,-74 203.5,-74 203.5,-93"/>
<text text-anchor="middle" x="155.5" y="-81" font-family="Helvetica,sans-Serif" font-size="10.00">heap_pos_to_right</text>
</a>
</g>
</g>
<!-- Node1&#45;&gt;Node13 -->
<g id="edge13_Node000001_Node000013" class="edge"><title>Node1&#45;&gt;Node13</title>
<g id="a_edge13_Node000001_Node000013"><a xlink:title=" ">
<path fill="none" stroke="#63b8ff" d="M57.3082,-112.14C68.4066,-108.814 81.3038,-104.961 93,-101.5 99.0906,-99.6975 105.523,-97.8037 111.843,-95.949"/>
<polygon fill="#63b8ff" stroke="#63b8ff" points="113.003,-99.2564 121.615,-93.0853 111.034,-92.5389 113.003,-99.2564"/>
</a>
</g>
</g>
<!-- Node14 -->
<g id="Node000014" class="node"><title>Node14</title>
<g id="a_Node000014"><a xlink:href="group___t_heap.html#gac522fe67b5a330d6289f4566a2f1aff4" target="_top" xlink:title="Zapsání hodnoty do uzlu haldy na požadovanou pozici.">
<polygon fill="white" stroke="#666666" points="197,-56 114,-56 114,-37 197,-37 197,-56"/>
<text text-anchor="middle" x="155.5" y="-44" font-family="Helvetica,sans-Serif" font-size="10.00">heap_set_value</text>
</a>
</g>
</g>
<!-- Node1&#45;&gt;Node14 -->
<g id="edge14_Node000001_Node000014" class="edge"><title>Node1&#45;&gt;Node14</title>
<g id="a_edge14_Node000001_Node000014"><a xlink:title=" ">
<path fill="none" stroke="#63b8ff" d="M37.9771,-110.744C49.3151,-98.2793 70.6007,-76.8453 93,-64.5 96.5167,-62.5618 100.264,-60.8123 104.108,-59.2369"/>
<polygon fill="#63b8ff" stroke="#63b8ff" points="105.61,-62.4135 113.782,-55.6708 103.189,-55.8455 105.61,-62.4135"/>
</a>
</g>
</g>
<!-- Node17 -->
<g id="Node000017" class="node"><title>Node17</title>
<g id="a_Node000017"><a xlink:href="group___t_heap.html#gafaf85f5864f8cc9b2f6203a99e41ccc8" target="_top" xlink:title="Přečtení počtu uzlů haldy.">
<polygon fill="white" stroke="#666666" points="186,-19 125,-19 125,-0 186,-0 186,-19"/>
<text text-anchor="middle" x="155.5" y="-7" font-family="Helvetica,sans-Serif" font-size="10.00">heap_size</text>
</a>
</g>
</g>
<!-- Node1&#45;&gt;Node17 -->
<g id="edge17_Node000001_Node000017" class="edge"><title>Node1&#45;&gt;Node17</title>
<g id="a_edge17_Node000001_Node000017"><a xlink:title=" ">
<path fill="none" stroke="#63b8ff" d="M33.3441,-110.992C41.4569,-92.1376 62.1552,-49.9054 93,-27.5 99.5187,-22.7649 107.271,-19.2683 115.037,-16.6885"/>
<polygon fill="#63b8ff" stroke="#63b8ff" points="116.145,-20.0118 124.79,-13.8868 114.213,-13.2839 116.145,-20.0118"/>
</a>
</g>
</g>
<!-- Node3 -->
<g id="Node000003" class="node"><title>Node3</title>
<g id="a_Node000003"><a xlink:href="group__sortable___t_vector.html#ga09e150aa4cdd8faabf43474ab1dbe454" target="_top" xlink:title="Porovnání mezi hodnotou elementu vektoru a hodnotou typu VectorElement.">
<polygon fill="white" stroke="#666666" points="380.5,-254.5 256.5,-254.5 256.5,-224.5 380.5,-224.5 380.5,-254.5"/>
<text text-anchor="start" x="264.5" y="-242.5" font-family="Helvetica,sans-Serif" font-size="10.00">vector_compare_position</text>
<text text-anchor="middle" x="318.5" y="-231.5" font-family="Helvetica,sans-Serif" font-size="10.00">_value</text>
</a>
</g>
</g>
<!-- Node2&#45;&gt;Node3 -->
<g id="edge2_Node000002_Node000003" class="edge"><title>Node2&#45;&gt;Node3</title>
<g id="a_edge2_Node000002_Node000003"><a xlink:title=" ">
<path fill="none" stroke="#63b8ff" d="M215.08,-238.864C225.128,-238.926 235.668,-238.992 246.008,-239.056"/>
<polygon fill="#63b8ff" stroke="#63b8ff" points="246.234,-242.557 256.255,-239.12 246.277,-235.557 246.234,-242.557"/>
</a>
</g>
</g>
<!-- Node4 -->
<g id="Node000004" class="node"><title>Node4</title>
<g id="a_Node000004"><a xlink:href="_t_vector_8c.html#a8254190a2b4fe570173cc77dba0ee7a4" target="_top" xlink:title=" ">
<polygon fill="white" stroke="#666666" points="539.5,-257.5 433.5,-257.5 433.5,-227.5 539.5,-227.5 539.5,-257.5"/>
<text text-anchor="start" x="441.5" y="-245.5" font-family="Helvetica,sans-Serif" font-size="10.00">vector_fast_compare</text>
<text text-anchor="middle" x="486.5" y="-234.5" font-family="Helvetica,sans-Serif" font-size="10.00">_position_value</text>
</a>
</g>
</g>
<!-- Node3&#45;&gt;Node4 -->
<g id="edge3_Node000003_Node000004" class="edge"><title>Node3&#45;&gt;Node4</title>
<g id="a_edge3_Node000003_Node000004"><a xlink:title=" ">
<path fill="none" stroke="#63b8ff" d="M380.841,-240.609C394.603,-240.857 409.22,-241.121 423.029,-241.371"/>
<polygon fill="#63b8ff" stroke="#63b8ff" points="423.341,-244.877 433.403,-241.558 423.468,-237.878 423.341,-244.877"/>
</a>
</g>
</g>
<!-- Node5 -->
<g id="Node000005" class="node"><title>Node5</title>
<g id="a_Node000005"><a xlink:href="group___t_vector_element.html#ga82e527836fce12c93af896f65e9f701d" target="_top" xlink:title="Porovnání dvou elementů">
<polygon fill="white" stroke="#666666" points="726,-228 590,-228 590,-209 726,-209 726,-228"/>
<text text-anchor="middle" x="658" y="-216" font-family="Helvetica,sans-Serif" font-size="10.00">vector_element_comparator</text>
</a>
</g>
</g>
<!-- Node4&#45;&gt;Node5 -->
<g id="edge4_Node000004_Node000005" class="edge"><title>Node4&#45;&gt;Node5</title>
<g id="a_edge4_Node000004_Node000005"><a xlink:title=" ">
<path fill="none" stroke="#63b8ff" d="M539.739,-235.103C552.373,-233.314 566.144,-231.365 579.662,-229.451"/>
<polygon fill="#63b8ff" stroke="#63b8ff" points="580.516,-232.865 589.926,-227.997 579.534,-225.934 580.516,-232.865"/>
</a>
</g>
</g>
<!-- Node7 -->
<g id="Node000007" class="node"><title>Node7</title>
<g id="a_Node000007"><a xlink:href="group__sortable___t_vector.html#gaedaf9c79afa345e5e71e5c66ab25fa26" target="_top" xlink:title="Porovnání hodnot elementů vektorů">
<polygon fill="white" stroke="#666666" points="383,-204 254,-204 254,-185 383,-185 383,-204"/>
<text text-anchor="middle" x="318.5" y="-192" font-family="Helvetica,sans-Serif" font-size="10.00">vector_compare_positions</text>
</a>
</g>
</g>
<!-- Node6&#45;&gt;Node7 -->
<g id="edge6_Node000006_Node000007" class="edge"><title>Node6&#45;&gt;Node7</title>
<g id="a_edge6_Node000006_Node000007"><a xlink:title=" ">
<path fill="none" stroke="#63b8ff" d="M218.286,-194.5C226.545,-194.5 235.082,-194.5 243.523,-194.5"/>
<polygon fill="#63b8ff" stroke="#63b8ff" points="243.746,-198 253.746,-194.5 243.746,-191 243.746,-198"/>
</a>
</g>
</g>
<!-- Node8 -->
<g id="Node000008" class="node"><title>Node8</title>
<g id="a_Node000008"><a xlink:href="_t_vector_8c.html#a188bab569c3ae8a25070f632a6f53e62" target="_top" xlink:title=" ">
<polygon fill="white" stroke="#666666" points="539.5,-209.5 433.5,-209.5 433.5,-179.5 539.5,-179.5 539.5,-209.5"/>
<text text-anchor="start" x="441.5" y="-197.5" font-family="Helvetica,sans-Serif" font-size="10.00">vector_fast_compare</text>
<text text-anchor="middle" x="486.5" y="-186.5" font-family="Helvetica,sans-Serif" font-size="10.00">_positions</text>
</a>
</g>
</g>
<!-- Node7&#45;&gt;Node8 -->
<g id="edge7_Node000007_Node000008" class="edge"><title>Node7&#45;&gt;Node8</title>
<g id="a_edge7_Node000007_Node000008"><a xlink:title=" ">
<path fill="none" stroke="#63b8ff" d="M383.205,-194.5C396.263,-194.5 409.996,-194.5 423.011,-194.5"/>
<polygon fill="#63b8ff" stroke="#63b8ff" points="423.268,-198 433.268,-194.5 423.268,-191 423.268,-198"/>
</a>
</g>
</g>
<!-- Node8&#45;&gt;Node5 -->
<g id="edge8_Node000008_Node000005" class="edge"><title>Node8&#45;&gt;Node5</title>
<g id="a_edge8_Node000008_Node000005"><a xlink:title=" ">
<path fill="none" stroke="#63b8ff" d="M539.739,-201.897C552.373,-203.686 566.144,-205.635 579.662,-207.549"/>
<polygon fill="#63b8ff" stroke="#63b8ff" points="579.534,-211.066 589.926,-209.003 580.516,-204.135 579.534,-211.066"/>
</a>
</g>
</g>
<!-- Node10 -->
<g id="Node000010" class="node"><title>Node10</title>
<g id="a_Node000010"><a xlink:href="group__sortable___t_vector.html#ga16623c06371077674f5d4d31e38e42a4" target="_top" xlink:title="Přesun hodnoty elementu vektoru.">
<polygon fill="white" stroke="#666666" points="375.5,-164 261.5,-164 261.5,-145 375.5,-145 375.5,-164"/>
<text text-anchor="middle" x="318.5" y="-152" font-family="Helvetica,sans-Serif" font-size="10.00">vector_move_positions</text>
</a>
</g>
</g>
<!-- Node9&#45;&gt;Node10 -->
<g id="edge10_Node000009_Node000010" class="edge"><title>Node9&#45;&gt;Node10</title>
<g id="a_edge10_Node000009_Node000010"><a xlink:title=" ">
<path fill="none" stroke="#63b8ff" d="M210.559,-156.493C223.589,-156.25 237.659,-155.988 251.179,-155.736"/>
<polygon fill="#63b8ff" stroke="#63b8ff" points="251.45,-159.231 261.383,-155.546 251.32,-152.233 251.45,-159.231"/>
</a>
</g>
</g>
<!-- Node11 -->
<g id="Node000011" class="node"><title>Node11</title>
<g id="a_Node000011"><a xlink:href="_t_vector_8c.html#a0e3151269c65b7033ddecb4c3aee6566" target="_top" xlink:title=" ">
<polygon fill="white" stroke="#666666" points="554,-161 419,-161 419,-142 554,-142 554,-161"/>
<text text-anchor="middle" x="486.5" y="-149" font-family="Helvetica,sans-Serif" font-size="10.00">vector_fast_move_positions</text>
</a>
</g>
</g>
<!-- Node10&#45;&gt;Node11 -->
<g id="edge11_Node000010_Node000011" class="edge"><title>Node10&#45;&gt;Node11</title>
<g id="a_edge11_Node000010_Node000011"><a xlink:title=" ">
<path fill="none" stroke="#63b8ff" d="M375.7,-153.484C386.286,-153.293 397.524,-153.09 408.615,-152.889"/>
<polygon fill="#63b8ff" stroke="#63b8ff" points="408.801,-156.387 418.736,-152.707 408.675,-149.388 408.801,-156.387"/>
</a>
</g>
</g>
<!-- Node15 -->
<g id="Node000015" class="node"><title>Node15</title>
<g id="a_Node000015"><a xlink:href="group___t_vector.html#gabd5ba54950295545d27b1286234ead39" target="_top" xlink:title="Zapsání hodnoty elementu do vektoru na požadovanou pozici.">
<polygon fill="white" stroke="#666666" points="362.5,-56 274.5,-56 274.5,-37 362.5,-37 362.5,-56"/>
<text text-anchor="middle" x="318.5" y="-44" font-family="Helvetica,sans-Serif" font-size="10.00">vector_set_value</text>
</a>
</g>
</g>
<!-- Node14&#45;&gt;Node15 -->
<g id="edge15_Node000014_Node000015" class="edge"><title>Node14&#45;&gt;Node15</title>
<g id="a_edge15_Node000014_Node000015"><a xlink:title=" ">
<path fill="none" stroke="#63b8ff" d="M197.127,-46.5C217.473,-46.5 242.365,-46.5 264.222,-46.5"/>
<polygon fill="#63b8ff" stroke="#63b8ff" points="264.348,-50.0001 274.348,-46.5 264.348,-43.0001 264.348,-50.0001"/>
</a>
</g>
</g>
<!-- Node16 -->
<g id="Node000016" class="node"><title>Node16</title>
<g id="a_Node000016"><a xlink:href="_t_vector_8c.html#a689bf71829922c70ca1964e125e94217" target="_top" xlink:title=" ">
<polygon fill="white" stroke="#666666" points="541,-56 432,-56 432,-37 541,-37 541,-56"/>
<text text-anchor="middle" x="486.5" y="-44" font-family="Helvetica,sans-Serif" font-size="10.00">vector_fast_set_value</text>
</a>
</g>
</g>
<!-- Node15&#45;&gt;Node16 -->
<g id="edge16_Node000015_Node000016" class="edge"><title>Node15&#45;&gt;Node16</title>
<g id="a_edge16_Node000015_Node000016"><a xlink:title=" ">
<path fill="none" stroke="#63b8ff" d="M362.681,-46.5C380.678,-46.5 401.949,-46.5 421.688,-46.5"/>
<polygon fill="#63b8ff" stroke="#63b8ff" points="421.845,-50.0001 431.845,-46.5 421.845,-43.0001 421.845,-50.0001"/>
</a>
</g>
</g>
</g>
</svg>
