<?xml version="1.0" encoding="UTF-8" standalone="no"?>
<!DOCTYPE svg PUBLIC "-//W3C//DTD SVG 1.1//EN"
 "http://www.w3.org/Graphics/SVG/1.1/DTD/svg11.dtd">
<!-- Generated by graphviz version 2.38.0 (20140413.2041)
 -->
<!-- Title: heapify Pages: 1 -->
<svg width="864pt" height="335pt"
 viewBox="0.00 0.00 864.00 335.00" xmlns="http://www.w3.org/2000/svg" xmlns:xlink="http://www.w3.org/1999/xlink">
<g id="graph0" class="graph" transform="scale(1 1) rotate(0) translate(4 331)">
<title>heapify</title>
<!-- Node1 -->
<g id="Node000001" class="node"><title>Node1</title>
<g id="a_Node000001"><a xlink:title="Vnitřní a lokální funkce realizující uspořádání elementů vektoru do haldy.">
<polygon fill="#999999" stroke="#666666" points="47,-271 -3.55271e-015,-271 -3.55271e-015,-252 47,-252 47,-271"/>
<text text-anchor="middle" x="23.5" y="-259" font-family="Helvetica,sans-Serif" font-size="10.00">heapify</text>
</a>
</g>
</g>
<!-- Node2 -->
<g id="Node000002" class="node"><title>Node2</title>
<g id="a_Node000002"><a xlink:href="group___t_heap.html#ga397a260a81bbd6910ca1464638722510" target="_top" xlink:title="Vypočte pozici rodičovského uzlu.">
<polygon fill="white" stroke="#666666" points="187,-327 83,-327 83,-308 187,-308 187,-327"/>
<text text-anchor="middle" x="135" y="-315" font-family="Helvetica,sans-Serif" font-size="10.00">heap_pos_to_parent</text>
</a>
</g>
</g>
<!-- Node1&#45;&gt;Node2 -->
<g id="edge1_Node000001_Node000002" class="edge"><title>Node1&#45;&gt;Node2</title>
<g id="a_edge1_Node000001_Node000002"><a xlink:title=" ">
<path fill="none" stroke="#63b8ff" d="M37.4435,-271.191C48.9589,-279.494 66.4861,-291.366 83,-299.5 86.5008,-301.224 90.2092,-302.863 93.9655,-304.399"/>
<polygon fill="#63b8ff" stroke="#63b8ff" points="92.7204,-307.67 103.31,-307.994 95.2337,-301.137 92.7204,-307.67"/>
</a>
</g>
</g>
<!-- Node3 -->
<g id="Node000003" class="node"><title>Node3</title>
<g id="a_Node000003"><a xlink:href="group___t_heap.html#gafaf85f5864f8cc9b2f6203a99e41ccc8" target="_top" xlink:title="Přečtení počtu uzlů haldy.">
<polygon fill="white" stroke="#666666" points="316,-253 255,-253 255,-234 316,-234 316,-253"/>
<text text-anchor="middle" x="285.5" y="-241" font-family="Helvetica,sans-Serif" font-size="10.00">heap_size</text>
</a>
</g>
</g>
<!-- Node1&#45;&gt;Node3 -->
<g id="edge2_Node000001_Node000003" class="edge"><title>Node1&#45;&gt;Node3</title>
<g id="a_edge2_Node000001_Node000003"><a xlink:title=" ">
<path fill="none" stroke="#63b8ff" d="M47.1185,-259.934C91.224,-256.881 189.229,-250.096 244.529,-246.267"/>
<polygon fill="#63b8ff" stroke="#63b8ff" points="244.928,-249.748 254.663,-245.566 244.445,-242.765 244.928,-249.748"/>
</a>
</g>
</g>
<!-- Node4 -->
<g id="Node000004" class="node"><title>Node4</title>
<g id="a_Node000004"><a xlink:href="group___t_heap.html#gaf0369d757c7569adb9ddb0d5f3530c07" target="_top" xlink:title="Přečtení hodnoty z uzlu haldy dle požadované pozice.">
<polygon fill="white" stroke="#666666" points="167.5,-290 102.5,-290 102.5,-271 167.5,-271 167.5,-290"/>
<text text-anchor="middle" x="135" y="-278" font-family="Helvetica,sans-Serif" font-size="10.00">heap_value</text>
</a>
</g>
</g>
<!-- Node1&#45;&gt;Node4 -->
<g id="edge3_Node000001_Node000004" class="edge"><title>Node1&#45;&gt;Node4</title>
<g id="a_edge3_Node000001_Node000004"><a xlink:title=" ">
<path fill="none" stroke="#63b8ff" d="M47.1885,-265.437C60.1164,-267.68 76.7268,-270.562 91.9506,-273.204"/>
<polygon fill="#63b8ff" stroke="#63b8ff" points="91.7551,-276.722 102.206,-274.983 92.9519,-269.825 91.7551,-276.722"/>
</a>
</g>
</g>
<!-- Node7 -->
<g id="Node000007" class="node"><title>Node7</title>
<g id="a_Node000007"><a xlink:href="heap__sort_8c.html#a1572325ec24b4714bb9bbd64229d85d0" target="_top" xlink:title="Vnitřní a lokální funkce zajišťující vložení hodnoty do zvoleného uzlu haldy, při zachování podmínek ...">
<polygon fill="white" stroke="#666666" points="163.5,-157 106.5,-157 106.5,-138 163.5,-138 163.5,-157"/>
<text text-anchor="middle" x="135" y="-145" font-family="Helvetica,sans-Serif" font-size="10.00">sift_down</text>
</a>
</g>
</g>
<!-- Node1&#45;&gt;Node7 -->
<g id="edge6_Node000001_Node000007" class="edge"><title>Node1&#45;&gt;Node7</title>
<g id="a_edge6_Node000001_Node000007"><a xlink:title=" ">
<path fill="none" stroke="#63b8ff" d="M33.8359,-251.78C52.4224,-232.43 94.2649,-188.868 117.559,-164.616"/>
<polygon fill="#63b8ff" stroke="#63b8ff" points="120.285,-166.832 124.688,-157.195 115.236,-161.982 120.285,-166.832"/>
</a>
</g>
</g>
<!-- Node5 -->
<g id="Node000005" class="node"><title>Node5</title>
<g id="a_Node000005"><a xlink:href="group___t_vector.html#ga2b08236d9825632cd96bcc89faed929c" target="_top" xlink:title="Přečtení hodnoty elementu z vektoru na požadované pozici.">
<polygon fill="white" stroke="#666666" points="320,-290 251,-290 251,-271 320,-271 320,-290"/>
<text text-anchor="middle" x="285.5" y="-278" font-family="Helvetica,sans-Serif" font-size="10.00">vector_value</text>
</a>
</g>
</g>
<!-- Node4&#45;&gt;Node5 -->
<g id="edge4_Node000004_Node000005" class="edge"><title>Node4&#45;&gt;Node5</title>
<g id="a_edge4_Node000004_Node000005"><a xlink:title=" ">
<path fill="none" stroke="#63b8ff" d="M167.857,-280.5C189.163,-280.5 217.473,-280.5 240.867,-280.5"/>
<polygon fill="#63b8ff" stroke="#63b8ff" points="240.891,-284 250.891,-280.5 240.891,-277 240.891,-284"/>
</a>
</g>
</g>
<!-- Node6 -->
<g id="Node000006" class="node"><title>Node6</title>
<g id="a_Node000006"><a xlink:href="_t_vector_8c.html#a0fe5f1145e51f154b5470d640c5d682c" target="_top" xlink:title=" ">
<polygon fill="white" stroke="#666666" points="493.5,-290 403.5,-290 403.5,-271 493.5,-271 493.5,-290"/>
<text text-anchor="middle" x="448.5" y="-278" font-family="Helvetica,sans-Serif" font-size="10.00">vector_fast_value</text>
</a>
</g>
</g>
<!-- Node5&#45;&gt;Node6 -->
<g id="edge5_Node000005_Node000006" class="edge"><title>Node5&#45;&gt;Node6</title>
<g id="a_edge5_Node000005_Node000006"><a xlink:title=" ">
<path fill="none" stroke="#63b8ff" d="M320.251,-280.5C341.39,-280.5 369.11,-280.5 393.28,-280.5"/>
<polygon fill="#63b8ff" stroke="#63b8ff" points="393.391,-284 403.391,-280.5 393.391,-277 393.391,-284"/>
</a>
</g>
</g>
<!-- Node7&#45;&gt;Node3 -->
<g id="edge23_Node000007_Node000003" class="edge"><title>Node7&#45;&gt;Node3</title>
<g id="a_edge23_Node000007_Node000003"><a xlink:title=" ">
<path fill="none" stroke="#63b8ff" d="M144.388,-157.238C158.854,-173.451 190.12,-206.019 223,-224.5 229.918,-228.389 237.731,-231.582 245.409,-234.166"/>
<polygon fill="#63b8ff" stroke="#63b8ff" points="244.398,-237.517 254.986,-237.121 246.462,-230.828 244.398,-237.517"/>
</a>
</g>
</g>
<!-- Node8 -->
<g id="Node000008" class="node"><title>Node8</title>
<g id="a_Node000008"><a xlink:href="group___t_heap.html#ga3651a742b0492e167a3be5db0183f896" target="_top" xlink:title="Porovnání mezi hodnotou v uzlu haldy a hodnotou typu HeapElement.">
<polygon fill="white" stroke="#666666" points="345,-141.5 226,-141.5 226,-111.5 345,-111.5 345,-141.5"/>
<text text-anchor="start" x="234" y="-129.5" font-family="Helvetica,sans-Serif" font-size="10.00">heap_compare_position</text>
<text text-anchor="middle" x="285.5" y="-118.5" font-family="Helvetica,sans-Serif" font-size="10.00">_value</text>
</a>
</g>
</g>
<!-- Node7&#45;&gt;Node8 -->
<g id="edge7_Node000007_Node000008" class="edge"><title>Node7&#45;&gt;Node8</title>
<g id="a_edge7_Node000007_Node000008"><a xlink:title=" ">
<path fill="none" stroke="#63b8ff" d="M163.584,-143.599C178.443,-141.498 197.497,-138.804 216.062,-136.178"/>
<polygon fill="#63b8ff" stroke="#63b8ff" points="216.587,-139.639 225.998,-134.773 215.606,-132.708 216.587,-139.639"/>
</a>
</g>
</g>
<!-- Node12 -->
<g id="Node000012" class="node"><title>Node12</title>
<g id="a_Node000012"><a xlink:href="group___t_heap.html#gad5c7d7699f71a4c30740204aba84f100" target="_top" xlink:title="Porovnání hodnot uzlů haldy.">
<polygon fill="white" stroke="#666666" points="348,-93 223,-93 223,-74 348,-74 348,-93"/>
<text text-anchor="middle" x="285.5" y="-81" font-family="Helvetica,sans-Serif" font-size="10.00">heap_compare_positions</text>
</a>
</g>
</g>
<!-- Node7&#45;&gt;Node12 -->
<g id="edge11_Node000007_Node000012" class="edge"><title>Node7&#45;&gt;Node12</title>
<g id="a_edge11_Node000007_Node000012"><a xlink:title=" ">
<path fill="none" stroke="#63b8ff" d="M152.263,-137.975C169.438,-128.184 197.505,-112.935 223,-102.5 228.433,-100.276 234.226,-98.1652 240.002,-96.2141"/>
<polygon fill="#63b8ff" stroke="#63b8ff" points="241.207,-99.5028 249.641,-93.09 239.049,-92.8438 241.207,-99.5028"/>
</a>
</g>
</g>
<!-- Node15 -->
<g id="Node000015" class="node"><title>Node15</title>
<g id="a_Node000015"><a xlink:href="group___t_heap.html#ga5189745928eb05b31e28d37a79d9017f" target="_top" xlink:title="Přesun hodnot mezi uzly haldy.">
<polygon fill="white" stroke="#666666" points="340.5,-56 230.5,-56 230.5,-37 340.5,-37 340.5,-56"/>
<text text-anchor="middle" x="285.5" y="-44" font-family="Helvetica,sans-Serif" font-size="10.00">heap_move_positions</text>
</a>
</g>
</g>
<!-- Node7&#45;&gt;Node15 -->
<g id="edge15_Node000007_Node000015" class="edge"><title>Node7&#45;&gt;Node15</title>
<g id="a_edge15_Node000007_Node000015"><a xlink:title=" ">
<path fill="none" stroke="#63b8ff" d="M143.516,-137.747C157.362,-120.44 188.645,-84.3213 223,-64.5 226.031,-62.7513 229.245,-61.1606 232.553,-59.7155"/>
<polygon fill="#63b8ff" stroke="#63b8ff" points="233.996,-62.9095 242.043,-56.0178 231.455,-56.387 233.996,-62.9095"/>
</a>
</g>
</g>
<!-- Node18 -->
<g id="Node000018" class="node"><title>Node18</title>
<g id="a_Node000018"><a xlink:href="group___t_heap.html#gaeb9b613cb82e8946a4c37bb1145780f4" target="_top" xlink:title="Vypočte pozici uzlu levého následníka.">
<polygon fill="white" stroke="#666666" points="330.5,-19 240.5,-19 240.5,-0 330.5,-0 330.5,-19"/>
<text text-anchor="middle" x="285.5" y="-7" font-family="Helvetica,sans-Serif" font-size="10.00">heap_pos_to_left</text>
</a>
</g>
</g>
<!-- Node7&#45;&gt;Node18 -->
<g id="edge18_Node000007_Node000018" class="edge"><title>Node7&#45;&gt;Node18</title>
<g id="a_edge18_Node000007_Node000018"><a xlink:title=" ">
<path fill="none" stroke="#63b8ff" d="M140.309,-137.733C150.91,-114.85 180.518,-57.4523 223,-27.5 225.51,-25.7301 228.195,-24.1326 230.986,-22.6909"/>
<polygon fill="#63b8ff" stroke="#63b8ff" points="232.472,-25.8606 240.184,-18.5963 229.625,-19.4656 232.472,-25.8606"/>
</a>
</g>
</g>
<!-- Node19 -->
<g id="Node000019" class="node"><title>Node19</title>
<g id="a_Node000019"><a xlink:href="group___t_heap.html#ga1272b4f692f5ec34abaeecde82899bfb" target="_top" xlink:title="Vypočte pozici uzlu pravého následníka.">
<polygon fill="white" stroke="#666666" points="333.5,-216 237.5,-216 237.5,-197 333.5,-197 333.5,-216"/>
<text text-anchor="middle" x="285.5" y="-204" font-family="Helvetica,sans-Serif" font-size="10.00">heap_pos_to_right</text>
</a>
</g>
</g>
<!-- Node7&#45;&gt;Node19 -->
<g id="edge19_Node000007_Node000019" class="edge"><title>Node7&#45;&gt;Node19</title>
<g id="a_edge19_Node000007_Node000019"><a xlink:title=" ">
<path fill="none" stroke="#63b8ff" d="M155.04,-157.135C172.462,-165.737 199.088,-178.355 223,-187.5 228.822,-189.727 235.027,-191.885 241.172,-193.899"/>
<polygon fill="#63b8ff" stroke="#63b8ff" points="240.123,-197.239 250.713,-196.935 242.245,-190.568 240.123,-197.239"/>
</a>
</g>
</g>
<!-- Node20 -->
<g id="Node000020" class="node"><title>Node20</title>
<g id="a_Node000020"><a xlink:href="group___t_heap.html#gac522fe67b5a330d6289f4566a2f1aff4" target="_top" xlink:title="Zapsání hodnoty do uzlu haldy na požadovanou pozici.">
<polygon fill="white" stroke="#666666" points="327,-179 244,-179 244,-160 327,-160 327,-179"/>
<text text-anchor="middle" x="285.5" y="-167" font-family="Helvetica,sans-Serif" font-size="10.00">heap_set_value</text>
</a>
</g>
</g>
<!-- Node7&#45;&gt;Node20 -->
<g id="edge20_Node000007_Node000020" class="edge"><title>Node7&#45;&gt;Node20</title>
<g id="a_edge20_Node000007_Node000020"><a xlink:title=" ">
<path fill="none" stroke="#63b8ff" d="M163.584,-151.586C183.238,-154.498 210.229,-158.497 233.724,-161.978"/>
<polygon fill="#63b8ff" stroke="#63b8ff" points="233.485,-165.48 243.89,-163.484 234.511,-158.556 233.485,-165.48"/>
</a>
</g>
</g>
<!-- Node9 -->
<g id="Node000009" class="node"><title>Node9</title>
<g id="a_Node000009"><a xlink:href="group__sortable___t_vector.html#ga09e150aa4cdd8faabf43474ab1dbe454" target="_top" xlink:title="Porovnání mezi hodnotou elementu vektoru a hodnotou typu VectorElement.">
<polygon fill="white" stroke="#666666" points="510.5,-142.5 386.5,-142.5 386.5,-112.5 510.5,-112.5 510.5,-142.5"/>
<text text-anchor="start" x="394.5" y="-130.5" font-family="Helvetica,sans-Serif" font-size="10.00">vector_compare_position</text>
<text text-anchor="middle" x="448.5" y="-119.5" font-family="Helvetica,sans-Serif" font-size="10.00">_value</text>
</a>
</g>
</g>
<!-- Node8&#45;&gt;Node9 -->
<g id="edge8_Node000008_Node000009" class="edge"><title>Node8&#45;&gt;Node9</title>
<g id="a_edge8_Node000008_Node000009"><a xlink:title=" ">
<path fill="none" stroke="#63b8ff" d="M345.08,-126.864C355.128,-126.926 365.668,-126.992 376.008,-127.056"/>
<polygon fill="#63b8ff" stroke="#63b8ff" points="376.234,-130.557 386.255,-127.12 376.277,-123.557 376.234,-130.557"/>
</a>
</g>
</g>
<!-- Node10 -->
<g id="Node000010" class="node"><title>Node10</title>
<g id="a_Node000010"><a xlink:href="_t_vector_8c.html#a8254190a2b4fe570173cc77dba0ee7a4" target="_top" xlink:title=" ">
<polygon fill="white" stroke="#666666" points="669.5,-145.5 563.5,-145.5 563.5,-115.5 669.5,-115.5 669.5,-145.5"/>
<text text-anchor="start" x="571.5" y="-133.5" font-family="Helvetica,sans-Serif" font-size="10.00">vector_fast_compare</text>
<text text-anchor="middle" x="616.5" y="-122.5" font-family="Helvetica,sans-Serif" font-size="10.00">_position_value</text>
</a>
</g>
</g>
<!-- Node9&#45;&gt;Node10 -->
<g id="edge9_Node000009_Node000010" class="edge"><title>Node9&#45;&gt;Node10</title>
<g id="a_edge9_Node000009_Node000010"><a xlink:title=" ">
<path fill="none" stroke="#63b8ff" d="M510.841,-128.609C524.603,-128.857 539.22,-129.121 553.029,-129.371"/>
<polygon fill="#63b8ff" stroke="#63b8ff" points="553.341,-132.877 563.403,-129.558 553.468,-125.878 553.341,-132.877"/>
</a>
</g>
</g>
<!-- Node11 -->
<g id="Node000011" class="node"><title>Node11</title>
<g id="a_Node000011"><a xlink:href="group___t_vector_element.html#ga82e527836fce12c93af896f65e9f701d" target="_top" xlink:title="Porovnání dvou elementů">
<polygon fill="white" stroke="#666666" points="856,-116 720,-116 720,-97 856,-97 856,-116"/>
<text text-anchor="middle" x="788" y="-104" font-family="Helvetica,sans-Serif" font-size="10.00">vector_element_comparator</text>
</a>
</g>
</g>
<!-- Node10&#45;&gt;Node11 -->
<g id="edge10_Node000010_Node000011" class="edge"><title>Node10&#45;&gt;Node11</title>
<g id="a_edge10_Node000010_Node000011"><a xlink:title=" ">
<path fill="none" stroke="#63b8ff" d="M669.739,-123.103C682.373,-121.314 696.144,-119.365 709.662,-117.451"/>
<polygon fill="#63b8ff" stroke="#63b8ff" points="710.516,-120.865 719.926,-115.997 709.534,-113.934 710.516,-120.865"/>
</a>
</g>
</g>
<!-- Node13 -->
<g id="Node000013" class="node"><title>Node13</title>
<g id="a_Node000013"><a xlink:href="group__sortable___t_vector.html#gaedaf9c79afa345e5e71e5c66ab25fa26" target="_top" xlink:title="Porovnání hodnot elementů vektorů">
<polygon fill="white" stroke="#666666" points="513,-93 384,-93 384,-74 513,-74 513,-93"/>
<text text-anchor="middle" x="448.5" y="-81" font-family="Helvetica,sans-Serif" font-size="10.00">vector_compare_positions</text>
</a>
</g>
</g>
<!-- Node12&#45;&gt;Node13 -->
<g id="edge12_Node000012_Node000013" class="edge"><title>Node12&#45;&gt;Node13</title>
<g id="a_edge12_Node000012_Node000013"><a xlink:title=" ">
<path fill="none" stroke="#63b8ff" d="M348.286,-83.5C356.545,-83.5 365.082,-83.5 373.523,-83.5"/>
<polygon fill="#63b8ff" stroke="#63b8ff" points="373.746,-87.0001 383.746,-83.5 373.746,-80.0001 373.746,-87.0001"/>
</a>
</g>
</g>
<!-- Node14 -->
<g id="Node000014" class="node"><title>Node14</title>
<g id="a_Node000014"><a xlink:href="_t_vector_8c.html#a188bab569c3ae8a25070f632a6f53e62" target="_top" xlink:title=" ">
<polygon fill="white" stroke="#666666" points="669.5,-97.5 563.5,-97.5 563.5,-67.5 669.5,-67.5 669.5,-97.5"/>
<text text-anchor="start" x="571.5" y="-85.5" font-family="Helvetica,sans-Serif" font-size="10.00">vector_fast_compare</text>
<text text-anchor="middle" x="616.5" y="-74.5" font-family="Helvetica,sans-Serif" font-size="10.00">_positions</text>
</a>
</g>
</g>
<!-- Node13&#45;&gt;Node14 -->
<g id="edge13_Node000013_Node000014" class="edge"><title>Node13&#45;&gt;Node14</title>
<g id="a_edge13_Node000013_Node000014"><a xlink:title=" ">
<path fill="none" stroke="#63b8ff" d="M513.205,-83.1162C526.263,-83.0376 539.996,-82.9548 553.011,-82.8764"/>
<polygon fill="#63b8ff" stroke="#63b8ff" points="553.29,-86.3749 563.268,-82.8146 553.248,-79.375 553.29,-86.3749"/>
</a>
</g>
</g>
<!-- Node14&#45;&gt;Node11 -->
<g id="edge14_Node000014_Node000011" class="edge"><title>Node14&#45;&gt;Node11</title>
<g id="a_edge14_Node000014_Node000011"><a xlink:title=" ">
<path fill="none" stroke="#63b8ff" d="M669.739,-89.8966C682.373,-91.6856 696.144,-93.6355 709.662,-95.5495"/>
<polygon fill="#63b8ff" stroke="#63b8ff" points="709.534,-99.0663 719.926,-97.0029 710.516,-92.1354 709.534,-99.0663"/>
</a>
</g>
</g>
<!-- Node16 -->
<g id="Node000016" class="node"><title>Node16</title>
<g id="a_Node000016"><a xlink:href="group__sortable___t_vector.html#ga16623c06371077674f5d4d31e38e42a4" target="_top" xlink:title="Přesun hodnoty elementu vektoru.">
<polygon fill="white" stroke="#666666" points="505.5,-53 391.5,-53 391.5,-34 505.5,-34 505.5,-53"/>
<text text-anchor="middle" x="448.5" y="-41" font-family="Helvetica,sans-Serif" font-size="10.00">vector_move_positions</text>
</a>
</g>
</g>
<!-- Node15&#45;&gt;Node16 -->
<g id="edge16_Node000015_Node000016" class="edge"><title>Node15&#45;&gt;Node16</title>
<g id="a_edge16_Node000015_Node000016"><a xlink:title=" ">
<path fill="none" stroke="#63b8ff" d="M340.559,-45.4927C353.589,-45.2499 367.659,-44.9877 381.179,-44.7358"/>
<polygon fill="#63b8ff" stroke="#63b8ff" points="381.45,-48.2314 391.383,-44.5457 381.32,-41.2327 381.45,-48.2314"/>
</a>
</g>
</g>
<!-- Node17 -->
<g id="Node000017" class="node"><title>Node17</title>
<g id="a_Node000017"><a xlink:href="_t_vector_8c.html#a0e3151269c65b7033ddecb4c3aee6566" target="_top" xlink:title=" ">
<polygon fill="white" stroke="#666666" points="684,-49 549,-49 549,-30 684,-30 684,-49"/>
<text text-anchor="middle" x="616.5" y="-37" font-family="Helvetica,sans-Serif" font-size="10.00">vector_fast_move_positions</text>
</a>
</g>
</g>
<!-- Node16&#45;&gt;Node17 -->
<g id="edge17_Node000016_Node000017" class="edge"><title>Node16&#45;&gt;Node17</title>
<g id="a_edge17_Node000016_Node000017"><a xlink:title=" ">
<path fill="none" stroke="#63b8ff" d="M505.7,-42.1458C516.286,-41.8907 527.524,-41.6199 538.615,-41.3527"/>
<polygon fill="#63b8ff" stroke="#63b8ff" points="538.824,-44.8487 548.736,-41.1088 538.655,-37.8508 538.824,-44.8487"/>
</a>
</g>
</g>
<!-- Node21 -->
<g id="Node000021" class="node"><title>Node21</title>
<g id="a_Node000021"><a xlink:href="group___t_vector.html#gabd5ba54950295545d27b1286234ead39" target="_top" xlink:title="Zapsání hodnoty elementu do vektoru na požadovanou pozici.">
<polygon fill="white" stroke="#666666" points="492.5,-182 404.5,-182 404.5,-163 492.5,-163 492.5,-182"/>
<text text-anchor="middle" x="448.5" y="-170" font-family="Helvetica,sans-Serif" font-size="10.00">vector_set_value</text>
</a>
</g>
</g>
<!-- Node20&#45;&gt;Node21 -->
<g id="edge21_Node000020_Node000021" class="edge"><title>Node20&#45;&gt;Node21</title>
<g id="a_edge21_Node000020_Node000021"><a xlink:title=" ">
<path fill="none" stroke="#63b8ff" d="M327.127,-170.257C347.473,-170.636 372.365,-171.1 394.222,-171.507"/>
<polygon fill="#63b8ff" stroke="#63b8ff" points="394.285,-175.009 404.348,-171.696 394.415,-168.01 394.285,-175.009"/>
</a>
</g>
</g>
<!-- Node22 -->
<g id="Node000022" class="node"><title>Node22</title>
<g id="a_Node000022"><a xlink:href="_t_vector_8c.html#a689bf71829922c70ca1964e125e94217" target="_top" xlink:title=" ">
<polygon fill="white" stroke="#666666" points="671,-183 562,-183 562,-164 671,-164 671,-183"/>
<text text-anchor="middle" x="616.5" y="-171" font-family="Helvetica,sans-Serif" font-size="10.00">vector_fast_set_value</text>
</a>
</g>
</g>
<!-- Node21&#45;&gt;Node22 -->
<g id="edge22_Node000021_Node000022" class="edge"><title>Node21&#45;&gt;Node22</title>
<g id="a_edge22_Node000021_Node000022"><a xlink:title=" ">
<path fill="none" stroke="#63b8ff" d="M492.681,-172.76C510.678,-172.869 531.949,-172.997 551.688,-173.116"/>
<polygon fill="#63b8ff" stroke="#63b8ff" points="551.824,-176.616 561.845,-173.177 551.866,-169.617 551.824,-176.616"/>
</a>
</g>
</g>
</g>
</svg>
