<?xml version="1.0" encoding="UTF-8" standalone="no"?>
<!DOCTYPE svg PUBLIC "-//W3C//DTD SVG 1.1//EN"
 "http://www.w3.org/Graphics/SVG/1.1/DTD/svg11.dtd">
<!-- Generated by graphviz version 2.38.0 (20140413.2041)
 -->
<!-- Title: heap_sort_with_iterators.c Pages: 1 -->
<svg width="349pt" height="247pt"
 viewBox="0.00 0.00 349.00 247.00" xmlns="http://www.w3.org/2000/svg" xmlns:xlink="http://www.w3.org/1999/xlink">
<g id="graph0" class="graph" transform="scale(1 1) rotate(0) translate(4 243)">
<title>heap_sort_with_iterators.c</title>
<!-- Node1 -->
<g id="Node000001" class="node"><title>Node1</title>
<g id="a_Node000001"><a xlink:title="Implementace API výkonnější metody třídění (Heap sort), využívající iterátorové API pro přístup k uzl...">
<polygon fill="#999999" stroke="#666666" points="293.5,-239 162.5,-239 162.5,-220 293.5,-220 293.5,-239"/>
<text text-anchor="middle" x="228" y="-227" font-family="Helvetica,sans-Serif" font-size="10.00">heap_sort_with_iterators.c</text>
</a>
</g>
</g>
<!-- Node2 -->
<g id="Node000002" class="node"><title>Node2</title>
<g id="a_Node000002"><a xlink:href="heap__sort__with__iterators_8h.html" target="_top" xlink:title="Deklarace API výkonnější metody třídění (Heap sort), využívající iterátorové API pro přístup k uzlům ...">
<polygon fill="white" stroke="#666666" points="238.5,-184 107.5,-184 107.5,-165 238.5,-165 238.5,-184"/>
<text text-anchor="middle" x="173" y="-172" font-family="Helvetica,sans-Serif" font-size="10.00">heap_sort_with_iterators.h</text>
</a>
</g>
</g>
<!-- Node1&#45;&gt;Node2 -->
<g id="edge1_Node000001_Node000002" class="edge"><title>Node1&#45;&gt;Node2</title>
<g id="a_edge1_Node000001_Node000002"><a xlink:title=" ">
<path fill="none" stroke="#63b8ff" d="M218.918,-219.748C210.909,-212.03 199.042,-200.595 189.379,-191.283"/>
<polygon fill="#63b8ff" stroke="#63b8ff" points="191.543,-188.508 181.913,-184.089 186.685,-193.548 191.543,-188.508"/>
</a>
</g>
</g>
<!-- Node11 -->
<g id="Node000011" class="node"><title>Node11</title>
<g id="a_Node000011"><a xlink:href="_t_heap_8h.html" target="_top" xlink:title="Definice typu Heap pro přístup k elementům vektoru jako k uzlům haldy (vyžaduje Sortable Vector with ...">
<polygon fill="white" stroke="#666666" points="309.5,-184 256.5,-184 256.5,-165 309.5,-165 309.5,-184"/>
<text text-anchor="middle" x="283" y="-172" font-family="Helvetica,sans-Serif" font-size="10.00">THeap.h</text>
</a>
</g>
</g>
<!-- Node1&#45;&gt;Node11 -->
<g id="edge13_Node000001_Node000011" class="edge"><title>Node1&#45;&gt;Node11</title>
<g id="a_edge13_Node000001_Node000011"><a xlink:title=" ">
<path fill="none" stroke="#63b8ff" d="M237.082,-219.748C245.091,-212.03 256.958,-200.595 266.621,-191.283"/>
<polygon fill="#63b8ff" stroke="#63b8ff" points="269.315,-193.548 274.087,-184.089 264.457,-188.508 269.315,-193.548"/>
</a>
</g>
</g>
<!-- Node3 -->
<g id="Node000003" class="node"><title>Node3</title>
<g id="a_Node000003"><a xlink:href="_t_vector_8h.html" target="_top" xlink:title="Definice typu Sortable Vector with shareable sortstats.">
<polygon fill="white" stroke="#666666" points="202.5,-129 143.5,-129 143.5,-110 202.5,-110 202.5,-129"/>
<text text-anchor="middle" x="173" y="-117" font-family="Helvetica,sans-Serif" font-size="10.00">TVector.h</text>
</a>
</g>
</g>
<!-- Node2&#45;&gt;Node3 -->
<g id="edge2_Node000002_Node000003" class="edge"><title>Node2&#45;&gt;Node3</title>
<g id="a_edge2_Node000002_Node000003"><a xlink:title=" ">
<path fill="none" stroke="#63b8ff" d="M173,-164.748C173,-157.802 173,-147.845 173,-139.135"/>
<polygon fill="#63b8ff" stroke="#63b8ff" points="176.5,-139.089 173,-129.089 169.5,-139.089 176.5,-139.089"/>
</a>
</g>
</g>
<!-- Node4 -->
<g id="Node000004" class="node"><title>Node4</title>
<g id="a_Node000004"><a xlink:title=" ">
<polygon fill="#e0e0e0" stroke="#999999" points="46,-19 0,-19 0,-0 46,-0 46,-19"/>
<text text-anchor="middle" x="23" y="-7" font-family="Helvetica,sans-Serif" font-size="10.00">stdio.h</text>
</a>
</g>
</g>
<!-- Node3&#45;&gt;Node4 -->
<g id="edge3_Node000003_Node000004" class="edge"><title>Node3&#45;&gt;Node4</title>
<g id="a_edge3_Node000003_Node000004"><a xlink:title=" ">
<path fill="none" stroke="#63b8ff" d="M143.497,-109.865C122.155,-102.631 93.4231,-90.7744 72,-74 55.7872,-61.3053 41.9551,-42.0888 33.1629,-28.1207"/>
<polygon fill="#63b8ff" stroke="#63b8ff" points="36.0812,-26.1825 27.9139,-19.4336 30.0899,-29.8026 36.0812,-26.1825"/>
</a>
</g>
</g>
<!-- Node5 -->
<g id="Node000005" class="node"><title>Node5</title>
<g id="a_Node000005"><a xlink:title=" ">
<polygon fill="#e0e0e0" stroke="#999999" points="266,-19 210,-19 210,-0 266,-0 266,-19"/>
<text text-anchor="middle" x="238" y="-7" font-family="Helvetica,sans-Serif" font-size="10.00">stdbool.h</text>
</a>
</g>
</g>
<!-- Node3&#45;&gt;Node5 -->
<g id="edge4_Node000003_Node000005" class="edge"><title>Node3&#45;&gt;Node5</title>
<g id="a_edge4_Node000003_Node000005"><a xlink:title=" ">
<path fill="none" stroke="#63b8ff" d="M202.556,-112.3C223.131,-106.276 249.103,-94.8671 262,-74 271.062,-59.338 261.937,-40.7039 252.447,-27.4214"/>
<polygon fill="#63b8ff" stroke="#63b8ff" points="254.945,-24.9329 246.039,-19.1954 249.423,-29.235 254.945,-24.9329"/>
</a>
</g>
</g>
<!-- Node6 -->
<g id="Node000006" class="node"><title>Node6</title>
<g id="a_Node000006"><a xlink:title=" ">
<polygon fill="#e0e0e0" stroke="#999999" points="253.5,-74 202.5,-74 202.5,-55 253.5,-55 253.5,-74"/>
<text text-anchor="middle" x="228" y="-62" font-family="Helvetica,sans-Serif" font-size="10.00">stddef.h</text>
</a>
</g>
</g>
<!-- Node3&#45;&gt;Node6 -->
<g id="edge5_Node000003_Node000006" class="edge"><title>Node3&#45;&gt;Node6</title>
<g id="a_edge5_Node000003_Node000006"><a xlink:title=" ">
<path fill="none" stroke="#63b8ff" d="M182.082,-109.748C190.091,-102.03 201.958,-90.5953 211.621,-81.2835"/>
<polygon fill="#63b8ff" stroke="#63b8ff" points="214.315,-83.5483 219.087,-74.089 209.457,-78.5077 214.315,-83.5483"/>
</a>
</g>
</g>
<!-- Node7 -->
<g id="Node000007" class="node"><title>Node7</title>
<g id="a_Node000007"><a xlink:href="_t_vector_element_8h.html" target="_top" xlink:title="Definice typu Basic VectorElement a implementace API.">
<polygon fill="white" stroke="#666666" points="184.5,-74 89.5,-74 89.5,-55 184.5,-55 184.5,-74"/>
<text text-anchor="middle" x="137" y="-62" font-family="Helvetica,sans-Serif" font-size="10.00">TVectorElement.h</text>
</a>
</g>
</g>
<!-- Node3&#45;&gt;Node7 -->
<g id="edge6_Node000003_Node000007" class="edge"><title>Node3&#45;&gt;Node7</title>
<g id="a_edge6_Node000003_Node000007"><a xlink:title=" ">
<path fill="none" stroke="#63b8ff" d="M167.055,-109.748C162.023,-102.339 154.663,-91.5042 148.487,-82.4107"/>
<polygon fill="#63b8ff" stroke="#63b8ff" points="151.348,-80.3946 142.834,-74.089 145.558,-84.3278 151.348,-80.3946"/>
</a>
</g>
</g>
<!-- Node10 -->
<g id="Node000010" class="node"><title>Node10</title>
<g id="a_Node000010"><a xlink:title=" ">
<polygon fill="#e0e0e0" stroke="#999999" points="115.5,-19 64.5,-19 64.5,-0 115.5,-0 115.5,-19"/>
<text text-anchor="middle" x="90" y="-7" font-family="Helvetica,sans-Serif" font-size="10.00">check.h</text>
</a>
</g>
</g>
<!-- Node3&#45;&gt;Node10 -->
<g id="edge12_Node000003_Node000010" class="edge"><title>Node3&#45;&gt;Node10</title>
<g id="a_edge12_Node000003_Node000010"><a xlink:title=" ">
<path fill="none" stroke="#63b8ff" d="M143.063,-112.922C121.448,-107.161 93.7402,-95.8068 80,-74 71.3715,-60.3059 75.7291,-41.7474 81.1282,-28.2313"/>
<polygon fill="#63b8ff" stroke="#63b8ff" points="84.3512,-29.5981 85.2621,-19.0425 77.9674,-26.7261 84.3512,-29.5981"/>
</a>
</g>
</g>
<!-- Node7&#45;&gt;Node4 -->
<g id="edge7_Node000007_Node000004" class="edge"><title>Node7&#45;&gt;Node4</title>
<g id="a_edge7_Node000007_Node000004"><a xlink:title=" ">
<path fill="none" stroke="#63b8ff" d="M118.684,-54.9846C100.345,-46.4586 71.8903,-33.2297 50.7729,-23.412"/>
<polygon fill="#63b8ff" stroke="#63b8ff" points="52.1928,-20.2124 41.6493,-19.1703 49.2417,-26.5599 52.1928,-20.2124"/>
</a>
</g>
</g>
<!-- Node7&#45;&gt;Node5 -->
<g id="edge9_Node000007_Node000005" class="edge"><title>Node7&#45;&gt;Node5</title>
<g id="a_edge9_Node000007_Node000005"><a xlink:title=" ">
<path fill="none" stroke="#63b8ff" d="M153.227,-54.9846C169.182,-46.6122 193.779,-33.7049 212.377,-23.9459"/>
<polygon fill="#63b8ff" stroke="#63b8ff" points="214.249,-26.9162 221.477,-19.1703 210.996,-20.7178 214.249,-26.9162"/>
</a>
</g>
</g>
<!-- Node8 -->
<g id="Node000008" class="node"><title>Node8</title>
<g id="a_Node000008"><a xlink:title=" ">
<polygon fill="#e0e0e0" stroke="#999999" points="182,-19 134,-19 134,-0 182,-0 182,-19"/>
<text text-anchor="middle" x="158" y="-7" font-family="Helvetica,sans-Serif" font-size="10.00">stdlib.h</text>
</a>
</g>
</g>
<!-- Node7&#45;&gt;Node8 -->
<g id="edge8_Node000007_Node000008" class="edge"><title>Node7&#45;&gt;Node8</title>
<g id="a_edge8_Node000007_Node000008"><a xlink:title=" ">
<path fill="none" stroke="#63b8ff" d="M140.468,-54.7481C143.281,-47.6477 147.341,-37.4011 150.846,-28.5561"/>
<polygon fill="#63b8ff" stroke="#63b8ff" points="154.167,-29.6751 154.597,-19.089 147.659,-27.0965 154.167,-29.6751"/>
</a>
</g>
</g>
<!-- Node9 -->
<g id="Node000009" class="node"><title>Node9</title>
<g id="a_Node000009"><a xlink:title=" ">
<polygon fill="#e0e0e0" stroke="#999999" points="341,-19 289,-19 289,-0 341,-0 341,-19"/>
<text text-anchor="middle" x="315" y="-7" font-family="Helvetica,sans-Serif" font-size="10.00">assert.h</text>
</a>
</g>
</g>
<!-- Node7&#45;&gt;Node9 -->
<g id="edge10_Node000007_Node000009" class="edge"><title>Node7&#45;&gt;Node9</title>
<g id="a_edge10_Node000007_Node000009"><a xlink:title=" ">
<path fill="none" stroke="#63b8ff" d="M165.599,-54.9846C196.414,-45.8093 245.52,-31.1877 278.956,-21.2321"/>
<polygon fill="#63b8ff" stroke="#63b8ff" points="280.207,-24.5117 288.792,-18.3034 278.209,-17.8027 280.207,-24.5117"/>
</a>
</g>
</g>
<!-- Node7&#45;&gt;Node10 -->
<g id="edge11_Node000007_Node000010" class="edge"><title>Node7&#45;&gt;Node10</title>
<g id="a_edge11_Node000007_Node000010"><a xlink:title=" ">
<path fill="none" stroke="#63b8ff" d="M129.239,-54.7481C122.532,-47.1846 112.659,-36.0512 104.494,-26.8447"/>
<polygon fill="#63b8ff" stroke="#63b8ff" points="106.87,-24.2487 97.6167,-19.089 101.633,-28.8931 106.87,-24.2487"/>
</a>
</g>
</g>
<!-- Node11&#45;&gt;Node3 -->
<g id="edge15_Node000011_Node000003" class="edge"><title>Node11&#45;&gt;Node3</title>
<g id="a_edge15_Node000011_Node000003"><a xlink:title=" ">
<path fill="none" stroke="#63b8ff" d="M265.327,-164.985C247.711,-156.497 220.422,-143.349 200.074,-133.545"/>
<polygon fill="#63b8ff" stroke="#63b8ff" points="201.523,-130.358 190.995,-129.17 198.485,-136.664 201.523,-130.358"/>
</a>
</g>
</g>
<!-- Node11&#45;&gt;Node9 -->
<g id="edge14_Node000011_Node000009" class="edge"><title>Node11&#45;&gt;Node9</title>
<g id="a_edge14_Node000011_Node000009"><a xlink:title=" ">
<path fill="none" stroke="#63b8ff" d="M284.72,-164.736C289.734,-139.198 304.412,-64.4307 311.323,-29.2321"/>
<polygon fill="#63b8ff" stroke="#63b8ff" points="314.779,-29.7939 313.271,-19.3069 307.91,-28.4453 314.779,-29.7939"/>
</a>
</g>
</g>
</g>
</svg>
