<?xml version="1.0" encoding="UTF-8" standalone="no"?>
<!DOCTYPE svg PUBLIC "-//W3C//DTD SVG 1.1//EN"
 "http://www.w3.org/Graphics/SVG/1.1/DTD/svg11.dtd">
<!-- Generated by graphviz version 2.38.0 (20140413.2041)
 -->
<!-- Title: main.c Pages: 1 -->
<svg width="740pt" height="302pt"
 viewBox="0.00 0.00 739.50 302.00" xmlns="http://www.w3.org/2000/svg" xmlns:xlink="http://www.w3.org/1999/xlink">
<g id="graph0" class="graph" transform="scale(1 1) rotate(0) translate(4 298)">
<title>main.c</title>
<!-- Node1 -->
<g id="Node000001" class="node"><title>Node1</title>
<g id="a_Node000001"><a xlink:title="Hlavní program testující API výkonnějších metod třídění">
<polygon fill="#999999" stroke="#666666" points="381,-294 335,-294 335,-275 381,-275 381,-294"/>
<text text-anchor="middle" x="358" y="-282" font-family="Helvetica,sans-Serif" font-size="10.00">main.c</text>
</a>
</g>
</g>
<!-- Node2 -->
<g id="Node000002" class="node"><title>Node2</title>
<g id="a_Node000002"><a xlink:title=" ">
<polygon fill="#e0e0e0" stroke="#999999" points="117,-19 71,-19 71,-0 117,-0 117,-19"/>
<text text-anchor="middle" x="94" y="-7" font-family="Helvetica,sans-Serif" font-size="10.00">stdio.h</text>
</a>
</g>
</g>
<!-- Node1&#45;&gt;Node2 -->
<g id="edge1_Node000001_Node000002" class="edge"><title>Node1&#45;&gt;Node2</title>
<g id="a_edge1_Node000001_Node000002"><a xlink:title=" ">
<path fill="none" stroke="#63b8ff" d="M334.843,-283.12C268.563,-281.611 79.7532,-274.245 31,-239 5.54854,-220.6 0,-206.906 0,-175.5 0,-175.5 0,-175.5 0,-118.5 0,-76.2911 41.3568,-42.5601 69.2066,-24.6308"/>
<polygon fill="#63b8ff" stroke="#63b8ff" points="71.385,-27.3991 78.0542,-19.1667 67.7068,-21.4433 71.385,-27.3991"/>
</a>
</g>
</g>
<!-- Node3 -->
<g id="Node000003" class="node"><title>Node3</title>
<g id="a_Node000003"><a xlink:title=" ">
<polygon fill="#e0e0e0" stroke="#999999" points="683,-184 639,-184 639,-165 683,-165 683,-184"/>
<text text-anchor="middle" x="661" y="-172" font-family="Helvetica,sans-Serif" font-size="10.00">time.h</text>
</a>
</g>
</g>
<!-- Node1&#45;&gt;Node3 -->
<g id="edge2_Node000001_Node000003" class="edge"><title>Node1&#45;&gt;Node3</title>
<g id="a_edge2_Node000001_Node000003"><a xlink:title=" ">
<path fill="none" stroke="#63b8ff" d="M381.068,-283.539C425.296,-282.706 524.013,-276.412 596,-239 617.562,-227.794 636.708,-207.085 648.54,-192.365"/>
<polygon fill="#63b8ff" stroke="#63b8ff" points="651.573,-194.164 654.918,-184.112 646.034,-189.884 651.573,-194.164"/>
</a>
</g>
</g>
<!-- Node4 -->
<g id="Node000004" class="node"><title>Node4</title>
<g id="a_Node000004"><a xlink:href="basic__sorts_8h.html" target="_top" xlink:title="Deklarace API přímých metod třídění">
<polygon fill="white" stroke="#666666" points="115.5,-239 40.5,-239 40.5,-220 115.5,-220 115.5,-239"/>
<text text-anchor="middle" x="78" y="-227" font-family="Helvetica,sans-Serif" font-size="10.00">basic_sorts.h</text>
</a>
</g>
</g>
<!-- Node1&#45;&gt;Node4 -->
<g id="edge3_Node000001_Node000004" class="edge"><title>Node1&#45;&gt;Node4</title>
<g id="a_edge3_Node000001_Node000004"><a xlink:title=" ">
<path fill="none" stroke="#63b8ff" d="M334.609,-279.072C288.761,-270.394 186.278,-250.996 125.61,-239.512"/>
<polygon fill="#63b8ff" stroke="#63b8ff" points="125.997,-236.023 115.52,-237.602 124.695,-242.901 125.997,-236.023"/>
</a>
</g>
</g>
<!-- Node11 -->
<g id="Node000011" class="node"><title>Node11</title>
<g id="a_Node000011"><a xlink:title=" ">
<polygon fill="#e0e0e0" stroke="#999999" points="435.5,-19 384.5,-19 384.5,-0 435.5,-0 435.5,-19"/>
<text text-anchor="middle" x="410" y="-7" font-family="Helvetica,sans-Serif" font-size="10.00">check.h</text>
</a>
</g>
</g>
<!-- Node1&#45;&gt;Node11 -->
<g id="edge28_Node000001_Node000011" class="edge"><title>Node1&#45;&gt;Node11</title>
<g id="a_edge28_Node000001_Node000011"><a xlink:title=" ">
<path fill="none" stroke="#63b8ff" d="M381.128,-282.887C438.36,-280.019 582,-264.005 582,-175.5 582,-175.5 582,-175.5 582,-118.5 582,-54.6699 495.991,-27.1083 445.615,-16.4395"/>
<polygon fill="#63b8ff" stroke="#63b8ff" points="446.242,-12.9957 435.75,-14.4687 444.871,-19.8601 446.242,-12.9957"/>
</a>
</g>
</g>
<!-- Node12 -->
<g id="Node000012" class="node"><title>Node12</title>
<g id="a_Node000012"><a xlink:href="advanced__sorts_8h.html" target="_top" xlink:title="Deklarace API účinnějších metod třídění">
<polygon fill="white" stroke="#666666" points="249,-239 157,-239 157,-220 249,-220 249,-239"/>
<text text-anchor="middle" x="203" y="-227" font-family="Helvetica,sans-Serif" font-size="10.00">advanced_sorts.h</text>
</a>
</g>
</g>
<!-- Node1&#45;&gt;Node12 -->
<g id="edge15_Node000001_Node000012" class="edge"><title>Node1&#45;&gt;Node12</title>
<g id="a_edge15_Node000001_Node000012"><a xlink:title=" ">
<path fill="none" stroke="#63b8ff" d="M334.795,-275.565C308.997,-266.744 267.069,-252.408 237.441,-242.277"/>
<polygon fill="#63b8ff" stroke="#63b8ff" points="238.501,-238.94 227.906,-239.016 236.236,-245.564 238.501,-238.94"/>
</a>
</g>
</g>
<!-- Node13 -->
<g id="Node000013" class="node"><title>Node13</title>
<g id="a_Node000013"><a xlink:href="powerful__sorts_8h.html" target="_top" xlink:title="Deklarace API výkonnějších metod třídění">
<polygon fill="white" stroke="#666666" points="401.5,-239 314.5,-239 314.5,-220 401.5,-220 401.5,-239"/>
<text text-anchor="middle" x="358" y="-227" font-family="Helvetica,sans-Serif" font-size="10.00">powerful_sorts.h</text>
</a>
</g>
</g>
<!-- Node1&#45;&gt;Node13 -->
<g id="edge17_Node000001_Node000013" class="edge"><title>Node1&#45;&gt;Node13</title>
<g id="a_edge17_Node000001_Node000013"><a xlink:title=" ">
<path fill="none" stroke="#63b8ff" d="M358,-274.748C358,-267.802 358,-257.845 358,-249.135"/>
<polygon fill="#63b8ff" stroke="#63b8ff" points="361.5,-249.089 358,-239.089 354.5,-249.089 361.5,-249.089"/>
</a>
</g>
</g>
<!-- Node18 -->
<g id="Node000018" class="node"><title>Node18</title>
<g id="a_Node000018"><a xlink:href="main__support_8h.html" target="_top" xlink:title="Soubor pro multiplatformní podporu programu v různých OS.">
<polygon fill="white" stroke="#666666" points="731.5,-239 648.5,-239 648.5,-220 731.5,-220 731.5,-239"/>
<text text-anchor="middle" x="690" y="-227" font-family="Helvetica,sans-Serif" font-size="10.00">main_support.h</text>
</a>
</g>
</g>
<!-- Node1&#45;&gt;Node18 -->
<g id="edge26_Node000001_Node000018" class="edge"><title>Node1&#45;&gt;Node18</title>
<g id="a_edge26_Node000001_Node000018"><a xlink:title=" ">
<path fill="none" stroke="#63b8ff" d="M381.082,-279.815C434.03,-271.363 565.286,-250.409 638.523,-238.718"/>
<polygon fill="#63b8ff" stroke="#63b8ff" points="639.135,-242.164 648.458,-237.132 638.031,-235.252 639.135,-242.164"/>
</a>
</g>
</g>
<!-- Node5 -->
<g id="Node000005" class="node"><title>Node5</title>
<g id="a_Node000005"><a xlink:href="_t_vector_8h.html" target="_top" xlink:title="Definice typu Sortable Vector with shareable sortstats.">
<polygon fill="white" stroke="#666666" points="231.5,-129 172.5,-129 172.5,-110 231.5,-110 231.5,-129"/>
<text text-anchor="middle" x="202" y="-117" font-family="Helvetica,sans-Serif" font-size="10.00">TVector.h</text>
</a>
</g>
</g>
<!-- Node4&#45;&gt;Node5 -->
<g id="edge4_Node000004_Node000005" class="edge"><title>Node4&#45;&gt;Node5</title>
<g id="a_edge4_Node000004_Node000005"><a xlink:title=" ">
<path fill="none" stroke="#63b8ff" d="M76.6621,-219.628C75.165,-206.269 74.397,-180.869 87,-165 105.196,-142.088 136.74,-130.957 162.194,-125.558"/>
<polygon fill="#63b8ff" stroke="#63b8ff" points="163.145,-128.94 172.317,-123.637 161.84,-122.063 163.145,-128.94"/>
</a>
</g>
</g>
<!-- Node5&#45;&gt;Node2 -->
<g id="edge5_Node000005_Node000002" class="edge"><title>Node5&#45;&gt;Node2</title>
<g id="a_edge5_Node000005_Node000002"><a xlink:title=" ">
<path fill="none" stroke="#63b8ff" d="M172.481,-110.484C153.003,-103.755 128.339,-92.2499 113,-74 102.473,-61.4746 97.7782,-43.2737 95.6848,-29.5659"/>
<polygon fill="#63b8ff" stroke="#63b8ff" points="99.1241,-28.8477 94.4671,-19.3313 92.1731,-29.6748 99.1241,-28.8477"/>
</a>
</g>
</g>
<!-- Node6 -->
<g id="Node000006" class="node"><title>Node6</title>
<g id="a_Node000006"><a xlink:title=" ">
<polygon fill="#e0e0e0" stroke="#999999" points="230,-19 174,-19 174,-0 230,-0 230,-19"/>
<text text-anchor="middle" x="202" y="-7" font-family="Helvetica,sans-Serif" font-size="10.00">stdbool.h</text>
</a>
</g>
</g>
<!-- Node5&#45;&gt;Node6 -->
<g id="edge6_Node000005_Node000006" class="edge"><title>Node5&#45;&gt;Node6</title>
<g id="a_edge6_Node000005_Node000006"><a xlink:title=" ">
<path fill="none" stroke="#63b8ff" d="M202,-109.662C202,-92.1713 202,-52.8048 202,-29.2731"/>
<polygon fill="#63b8ff" stroke="#63b8ff" points="205.5,-29.1583 202,-19.1584 198.5,-29.1584 205.5,-29.1583"/>
</a>
</g>
</g>
<!-- Node7 -->
<g id="Node000007" class="node"><title>Node7</title>
<g id="a_Node000007"><a xlink:title=" ">
<polygon fill="#e0e0e0" stroke="#999999" points="173.5,-74 122.5,-74 122.5,-55 173.5,-55 173.5,-74"/>
<text text-anchor="middle" x="148" y="-62" font-family="Helvetica,sans-Serif" font-size="10.00">stddef.h</text>
</a>
</g>
</g>
<!-- Node5&#45;&gt;Node7 -->
<g id="edge7_Node000005_Node000007" class="edge"><title>Node5&#45;&gt;Node7</title>
<g id="a_edge7_Node000005_Node000007"><a xlink:title=" ">
<path fill="none" stroke="#63b8ff" d="M193.083,-109.748C185.22,-102.03 173.569,-90.5953 164.081,-81.2835"/>
<polygon fill="#63b8ff" stroke="#63b8ff" points="166.34,-78.5958 156.751,-74.089 161.436,-83.5916 166.34,-78.5958"/>
</a>
</g>
</g>
<!-- Node8 -->
<g id="Node000008" class="node"><title>Node8</title>
<g id="a_Node000008"><a xlink:href="_t_vector_element_8h.html" target="_top" xlink:title="Definice typu Basic VectorElement a implementace API.">
<polygon fill="white" stroke="#666666" points="325.5,-74 230.5,-74 230.5,-55 325.5,-55 325.5,-74"/>
<text text-anchor="middle" x="278" y="-62" font-family="Helvetica,sans-Serif" font-size="10.00">TVectorElement.h</text>
</a>
</g>
</g>
<!-- Node5&#45;&gt;Node8 -->
<g id="edge8_Node000005_Node000008" class="edge"><title>Node5&#45;&gt;Node8</title>
<g id="a_edge8_Node000005_Node000008"><a xlink:title=" ">
<path fill="none" stroke="#63b8ff" d="M214.211,-109.985C225.776,-101.919 243.375,-89.6461 257.161,-80.0327"/>
<polygon fill="#63b8ff" stroke="#63b8ff" points="259.367,-82.7613 265.567,-74.1703 255.363,-77.0196 259.367,-82.7613"/>
</a>
</g>
</g>
<!-- Node5&#45;&gt;Node11 -->
<g id="edge14_Node000005_Node000011" class="edge"><title>Node5&#45;&gt;Node11</title>
<g id="a_edge14_Node000005_Node000011"><a xlink:title=" ">
<path fill="none" stroke="#63b8ff" d="M231.622,-111.874C259.269,-104.928 301.085,-92.4369 334,-74 357.289,-60.955 380.282,-40.3784 394.773,-26.2028"/>
<polygon fill="#63b8ff" stroke="#63b8ff" points="397.303,-28.622 401.896,-19.0745 392.352,-23.6738 397.303,-28.622"/>
</a>
</g>
</g>
<!-- Node8&#45;&gt;Node2 -->
<g id="edge9_Node000008_Node000002" class="edge"><title>Node8&#45;&gt;Node2</title>
<g id="a_edge9_Node000008_Node000002"><a xlink:title=" ">
<path fill="none" stroke="#63b8ff" d="M248.437,-54.9846C215.152,-45.3969 161.22,-29.8623 126.699,-19.9189"/>
<polygon fill="#63b8ff" stroke="#63b8ff" points="127.661,-16.5535 117.083,-17.1488 125.723,-23.28 127.661,-16.5535"/>
</a>
</g>
</g>
<!-- Node8&#45;&gt;Node6 -->
<g id="edge11_Node000008_Node000006" class="edge"><title>Node8&#45;&gt;Node6</title>
<g id="a_edge11_Node000008_Node000006"><a xlink:title=" ">
<path fill="none" stroke="#63b8ff" d="M265.789,-54.9846C254.224,-46.9194 236.625,-34.6461 222.839,-25.0327"/>
<polygon fill="#63b8ff" stroke="#63b8ff" points="224.637,-22.0196 214.433,-19.1703 220.633,-27.7613 224.637,-22.0196"/>
</a>
</g>
</g>
<!-- Node9 -->
<g id="Node000009" class="node"><title>Node9</title>
<g id="a_Node000009"><a xlink:title=" ">
<polygon fill="#e0e0e0" stroke="#999999" points="296,-19 248,-19 248,-0 296,-0 296,-19"/>
<text text-anchor="middle" x="272" y="-7" font-family="Helvetica,sans-Serif" font-size="10.00">stdlib.h</text>
</a>
</g>
</g>
<!-- Node8&#45;&gt;Node9 -->
<g id="edge10_Node000008_Node000009" class="edge"><title>Node8&#45;&gt;Node9</title>
<g id="a_edge10_Node000008_Node000009"><a xlink:title=" ">
<path fill="none" stroke="#63b8ff" d="M277.009,-54.7481C276.223,-47.8021 275.096,-37.8451 274.11,-29.1349"/>
<polygon fill="#63b8ff" stroke="#63b8ff" points="277.575,-28.6318 272.972,-19.089 270.62,-29.4193 277.575,-28.6318"/>
</a>
</g>
</g>
<!-- Node10 -->
<g id="Node000010" class="node"><title>Node10</title>
<g id="a_Node000010"><a xlink:title=" ">
<polygon fill="#e0e0e0" stroke="#999999" points="366,-19 314,-19 314,-0 366,-0 366,-19"/>
<text text-anchor="middle" x="340" y="-7" font-family="Helvetica,sans-Serif" font-size="10.00">assert.h</text>
</a>
</g>
</g>
<!-- Node8&#45;&gt;Node10 -->
<g id="edge12_Node000008_Node000010" class="edge"><title>Node8&#45;&gt;Node10</title>
<g id="a_edge12_Node000008_Node000010"><a xlink:title=" ">
<path fill="none" stroke="#63b8ff" d="M287.961,-54.9846C297.127,-47.1499 310.937,-35.344 322.028,-25.863"/>
<polygon fill="#63b8ff" stroke="#63b8ff" points="324.53,-28.3286 329.857,-19.1703 319.982,-23.0077 324.53,-28.3286"/>
</a>
</g>
</g>
<!-- Node8&#45;&gt;Node11 -->
<g id="edge13_Node000008_Node000011" class="edge"><title>Node8&#45;&gt;Node11</title>
<g id="a_edge13_Node000008_Node000011"><a xlink:title=" ">
<path fill="none" stroke="#63b8ff" d="M299.208,-54.9846C320.73,-46.3434 354.283,-32.8713 378.828,-23.0158"/>
<polygon fill="#63b8ff" stroke="#63b8ff" points="380.43,-26.1444 388.406,-19.1703 377.822,-19.6484 380.43,-26.1444"/>
</a>
</g>
</g>
<!-- Node12&#45;&gt;Node5 -->
<g id="edge16_Node000012_Node000005" class="edge"><title>Node12&#45;&gt;Node5</title>
<g id="a_edge16_Node000012_Node000005"><a xlink:title=" ">
<path fill="none" stroke="#63b8ff" d="M156.797,-221.658C134.144,-215.719 108.821,-204.643 95,-184 75.3632,-154.67 124.385,-136.912 162.419,-127.902"/>
<polygon fill="#63b8ff" stroke="#63b8ff" points="163.3,-131.292 172.296,-125.694 161.773,-124.46 163.3,-131.292"/>
</a>
</g>
</g>
<!-- Node14 -->
<g id="Node000014" class="node"><title>Node14</title>
<g id="a_Node000014"><a xlink:href="heap__sort_8h.html" target="_top" xlink:title="Deklarace API výkonnější metody třídění (Heap sort), využívající poziční API pro přístup k uzlům hald...">
<polygon fill="white" stroke="#666666" points="404,-184 336,-184 336,-165 404,-165 404,-184"/>
<text text-anchor="middle" x="370" y="-172" font-family="Helvetica,sans-Serif" font-size="10.00">heap_sort.h</text>
</a>
</g>
</g>
<!-- Node13&#45;&gt;Node14 -->
<g id="edge18_Node000013_Node000014" class="edge"><title>Node13&#45;&gt;Node14</title>
<g id="a_edge18_Node000013_Node000014"><a xlink:title=" ">
<path fill="none" stroke="#63b8ff" d="M359.982,-219.748C361.572,-212.725 363.859,-202.624 365.846,-193.845"/>
<polygon fill="#63b8ff" stroke="#63b8ff" points="369.261,-194.615 368.055,-184.089 362.433,-193.069 369.261,-194.615"/>
</a>
</g>
</g>
<!-- Node15 -->
<g id="Node000015" class="node"><title>Node15</title>
<g id="a_Node000015"><a xlink:href="heap__sort__with__iterators_8h.html" target="_top" xlink:title="Deklarace API výkonnější metody třídění (Heap sort), využívající iterátorové API pro přístup k uzlům ...">
<polygon fill="white" stroke="#666666" points="553.5,-184 422.5,-184 422.5,-165 553.5,-165 553.5,-184"/>
<text text-anchor="middle" x="488" y="-172" font-family="Helvetica,sans-Serif" font-size="10.00">heap_sort_with_iterators.h</text>
</a>
</g>
</g>
<!-- Node13&#45;&gt;Node15 -->
<g id="edge20_Node000013_Node000015" class="edge"><title>Node13&#45;&gt;Node15</title>
<g id="a_edge20_Node000013_Node000015"><a xlink:title=" ">
<path fill="none" stroke="#63b8ff" d="M378.887,-219.985C400.082,-211.343 433.127,-197.871 457.301,-188.016"/>
<polygon fill="#63b8ff" stroke="#63b8ff" points="458.795,-191.187 466.733,-184.17 456.152,-184.705 458.795,-191.187"/>
</a>
</g>
</g>
<!-- Node16 -->
<g id="Node000016" class="node"><title>Node16</title>
<g id="a_Node000016"><a xlink:href="merge__sort_8h.html" target="_top" xlink:title="Deklarace API výkonnější metody třídění slučováním (Merge sort), využívající rekurzi.">
<polygon fill="white" stroke="#666666" points="178,-184 104,-184 104,-165 178,-165 178,-184"/>
<text text-anchor="middle" x="141" y="-172" font-family="Helvetica,sans-Serif" font-size="10.00">merge_sort.h</text>
</a>
</g>
</g>
<!-- Node13&#45;&gt;Node16 -->
<g id="edge22_Node000013_Node000016" class="edge"><title>Node13&#45;&gt;Node16</title>
<g id="a_edge22_Node000013_Node000016"><a xlink:title=" ">
<path fill="none" stroke="#63b8ff" d="M323.135,-219.985C285.915,-210.894 226.804,-196.457 186.073,-186.509"/>
<polygon fill="#63b8ff" stroke="#63b8ff" points="186.683,-183.055 176.138,-184.082 185.022,-189.855 186.683,-183.055"/>
</a>
</g>
</g>
<!-- Node17 -->
<g id="Node000017" class="node"><title>Node17</title>
<g id="a_Node000017"><a xlink:href="merge__sort__with__span_8h.html" target="_top" xlink:title="Deklarace API výkonnější metody třídění slučováním (Merge sort), využívající rekurzi a datový typ Spa...">
<polygon fill="white" stroke="#666666" points="318,-184 196,-184 196,-165 318,-165 318,-184"/>
<text text-anchor="middle" x="257" y="-172" font-family="Helvetica,sans-Serif" font-size="10.00">merge_sort_with_span.h</text>
</a>
</g>
</g>
<!-- Node13&#45;&gt;Node17 -->
<g id="edge24_Node000013_Node000017" class="edge"><title>Node13&#45;&gt;Node17</title>
<g id="a_edge24_Node000013_Node000017"><a xlink:title=" ">
<path fill="none" stroke="#63b8ff" d="M341.773,-219.985C325.818,-211.612 301.221,-198.705 282.623,-188.946"/>
<polygon fill="#63b8ff" stroke="#63b8ff" points="284.004,-185.718 273.523,-184.17 280.751,-191.916 284.004,-185.718"/>
</a>
</g>
</g>
<!-- Node14&#45;&gt;Node5 -->
<g id="edge19_Node000014_Node000005" class="edge"><title>Node14&#45;&gt;Node5</title>
<g id="a_edge19_Node000014_Node000005"><a xlink:title=" ">
<path fill="none" stroke="#63b8ff" d="M343.008,-164.985C314.803,-156.087 270.361,-142.066 238.918,-132.147"/>
<polygon fill="#63b8ff" stroke="#63b8ff" points="239.793,-128.753 229.204,-129.082 237.687,-135.429 239.793,-128.753"/>
</a>
</g>
</g>
<!-- Node15&#45;&gt;Node5 -->
<g id="edge21_Node000015_Node000005" class="edge"><title>Node15&#45;&gt;Node5</title>
<g id="a_edge21_Node000015_Node000005"><a xlink:title=" ">
<path fill="none" stroke="#63b8ff" d="M442.049,-164.985C386.537,-154.697 294.08,-137.564 241.588,-127.836"/>
<polygon fill="#63b8ff" stroke="#63b8ff" points="242.115,-124.374 231.645,-125.994 240.84,-131.257 242.115,-124.374"/>
</a>
</g>
</g>
<!-- Node16&#45;&gt;Node5 -->
<g id="edge23_Node000016_Node000005" class="edge"><title>Node16&#45;&gt;Node5</title>
<g id="a_edge23_Node000016_Node000005"><a xlink:title=" ">
<path fill="none" stroke="#63b8ff" d="M150.801,-164.985C159.818,-157.15 173.406,-145.344 184.318,-135.863"/>
<polygon fill="#63b8ff" stroke="#63b8ff" points="186.768,-138.371 192.021,-129.17 182.177,-133.087 186.768,-138.371"/>
</a>
</g>
</g>
<!-- Node17&#45;&gt;Node5 -->
<g id="edge25_Node000017_Node000005" class="edge"><title>Node17&#45;&gt;Node5</title>
<g id="a_edge25_Node000017_Node000005"><a xlink:title=" ">
<path fill="none" stroke="#63b8ff" d="M247.918,-164.748C239.909,-157.03 228.042,-145.595 218.379,-136.283"/>
<polygon fill="#63b8ff" stroke="#63b8ff" points="220.543,-133.508 210.913,-129.089 215.685,-138.548 220.543,-133.508"/>
</a>
</g>
</g>
<!-- Node18&#45;&gt;Node3 -->
<g id="edge27_Node000018_Node000003" class="edge"><title>Node18&#45;&gt;Node3</title>
<g id="a_edge27_Node000018_Node000003"><a xlink:title=" ">
<path fill="none" stroke="#63b8ff" d="M685.211,-219.748C681.242,-212.493 675.475,-201.954 670.565,-192.981"/>
<polygon fill="#63b8ff" stroke="#63b8ff" points="673.57,-191.182 665.7,-184.089 667.429,-194.542 673.57,-191.182"/>
</a>
</g>
</g>
</g>
</svg>
