<?xml version="1.0" encoding="UTF-8" standalone="no"?>
<!DOCTYPE svg PUBLIC "-//W3C//DTD SVG 1.1//EN"
 "http://www.w3.org/Graphics/SVG/1.1/DTD/svg11.dtd">
<!-- Generated by graphviz version 2.38.0 (20140413.2041)
 -->
<!-- Title: merge_sort_worker Pages: 1 -->
<svg width="948pt" height="184pt"
 viewBox="0.00 0.00 948.00 183.50" xmlns="http://www.w3.org/2000/svg" xmlns:xlink="http://www.w3.org/1999/xlink">
<g id="graph0" class="graph" transform="scale(1 1) rotate(0) translate(4 179.5)">
<title>merge_sort_worker</title>
<!-- Node1 -->
<g id="Node000001" class="node"><title>Node1</title>
<g id="a_Node000001"><a xlink:title="Vnitřní a lokální funkce realizující rekurzivní funkci pro metodu (Merge Sort)">
<polygon fill="#999999" stroke="#666666" points="99,-75 0,-75 0,-56 99,-56 99,-75"/>
<text text-anchor="middle" x="49.5" y="-63" font-family="Helvetica,sans-Serif" font-size="10.00">merge_sort_worker</text>
</a>
</g>
</g>
<!-- Node1&#45;&gt;Node1 -->
<g id="edge1_Node000001_Node000001" class="edge"><title>Node1&#45;&gt;Node1</title>
<g id="a_edge1_Node000001_Node000001"><a xlink:title=" ">
<path fill="none" stroke="#63b8ff" d="M26.0724,-75.0828C14.6752,-83.7337 22.4844,-93 49.5,-93 67.229,-93 76.6865,-89.0094 77.8725,-83.8208"/>
<polygon fill="#63b8ff" stroke="#63b8ff" points="80.8988,-82.0621 72.9276,-75.0828 74.8067,-85.5097 80.8988,-82.0621"/>
</a>
</g>
</g>
<!-- Node2 -->
<g id="Node000002" class="node"><title>Node2</title>
<g id="a_Node000002"><a xlink:href="merge__sort__with__span_8c.html#a8c83f4f60393434eff082ca19f5f14ad" target="_top" xlink:title="Vnitřní a lokální funkce realizující sloučení dvou již setříděných rozsahů (Spanů)">
<polygon fill="white" stroke="#666666" points="227,-132 179,-132 179,-113 227,-113 227,-132"/>
<text text-anchor="middle" x="203" y="-120" font-family="Helvetica,sans-Serif" font-size="10.00">mergify</text>
</a>
</g>
</g>
<!-- Node1&#45;&gt;Node2 -->
<g id="edge2_Node000001_Node000002" class="edge"><title>Node1&#45;&gt;Node2</title>
<g id="a_edge2_Node000001_Node000002"><a xlink:title=" ">
<path fill="none" stroke="#63b8ff" d="M74.4697,-75.0697C91.3477,-81.7569 114.498,-90.8263 135,-98.5 146.163,-102.678 158.427,-107.115 169.377,-111.023"/>
<polygon fill="#63b8ff" stroke="#63b8ff" points="168.4,-114.39 178.995,-114.441 170.744,-107.794 168.4,-114.39"/>
</a>
</g>
</g>
<!-- Node10 -->
<g id="Node000010" class="node"><title>Node10</title>
<g id="a_Node000010"><a xlink:href="group___t_span.html#ga873f8813d9a78c9b43e8a6b2b2a4c9d1" target="_top" xlink:title="Přečtení počtu elementů Spanu.">
<polygon fill="white" stroke="#666666" points="400,-94 339,-94 339,-75 400,-75 400,-94"/>
<text text-anchor="middle" x="369.5" y="-82" font-family="Helvetica,sans-Serif" font-size="10.00">span_size</text>
</a>
</g>
</g>
<!-- Node1&#45;&gt;Node10 -->
<g id="edge13_Node000001_Node000010" class="edge"><title>Node1&#45;&gt;Node10</title>
<g id="a_edge13_Node000001_Node000010"><a xlink:title=" ">
<path fill="none" stroke="#63b8ff" d="M99.1435,-68.4064C162.04,-72.1643 270.397,-78.6385 328.665,-82.1199"/>
<polygon fill="#63b8ff" stroke="#63b8ff" points="328.749,-85.6311 338.94,-82.7338 329.167,-78.6436 328.749,-85.6311"/>
</a>
</g>
</g>
<!-- Node11 -->
<g id="Node000011" class="node"><title>Node11</title>
<g id="a_Node000011"><a xlink:href="group___t_span.html#ga95663322132016bbaf40e6281480e122" target="_top" xlink:title="Vytvoření SubSpanu jako části od počátku a definované délce původního Spanu.">
<polygon fill="white" stroke="#666666" points="268,-56 138,-56 138,-37 268,-37 268,-56"/>
<text text-anchor="middle" x="203" y="-44" font-family="Helvetica,sans-Serif" font-size="10.00">span_create_left_subspan</text>
</a>
</g>
</g>
<!-- Node1&#45;&gt;Node11 -->
<g id="edge11_Node000001_Node000011" class="edge"><title>Node1&#45;&gt;Node11</title>
<g id="a_edge11_Node000001_Node000011"><a xlink:title=" ">
<path fill="none" stroke="#63b8ff" d="M99.2695,-59.3837C108.386,-58.2404 118.102,-57.0219 127.784,-55.8076"/>
<polygon fill="#63b8ff" stroke="#63b8ff" points="128.349,-59.2642 137.836,-54.547 127.478,-52.3186 128.349,-59.2642"/>
</a>
</g>
</g>
<!-- Node12 -->
<g id="Node000012" class="node"><title>Node12</title>
<g id="a_Node000012"><a xlink:href="group___t_span.html#ga6270a02d3bfd6fa1fdbf37ca62276687" target="_top" xlink:title="Vytvoření SubSpanu jako části od definované pozice až do konce původního Spanu.">
<polygon fill="white" stroke="#666666" points="271,-19 135,-19 135,-0 271,-0 271,-19"/>
<text text-anchor="middle" x="203" y="-7" font-family="Helvetica,sans-Serif" font-size="10.00">span_create_right_subspan</text>
</a>
</g>
</g>
<!-- Node1&#45;&gt;Node12 -->
<g id="edge12_Node000001_Node000012" class="edge"><title>Node1&#45;&gt;Node12</title>
<g id="a_edge12_Node000001_Node000012"><a xlink:title=" ">
<path fill="none" stroke="#63b8ff" d="M69.6043,-55.847C86.4992,-47.5687 111.971,-35.712 135,-27.5 140.596,-25.5045 146.523,-23.6097 152.446,-21.8508"/>
<polygon fill="#63b8ff" stroke="#63b8ff" points="153.694,-25.1345 162.35,-19.0255 151.774,-18.403 153.694,-25.1345"/>
</a>
</g>
</g>
<!-- Node3 -->
<g id="Node000003" class="node"><title>Node3</title>
<g id="a_Node000003"><a xlink:href="group___t_span.html#gaffd3a758138012dac875ceda42a975db" target="_top" xlink:title="Porovnání hodnot elementů Spanů">
<polygon fill="white" stroke="#666666" points="432,-168 307,-168 307,-149 432,-149 432,-168"/>
<text text-anchor="middle" x="369.5" y="-156" font-family="Helvetica,sans-Serif" font-size="10.00">span_compare_positions</text>
</a>
</g>
</g>
<!-- Node2&#45;&gt;Node3 -->
<g id="edge3_Node000002_Node000003" class="edge"><title>Node2&#45;&gt;Node3</title>
<g id="a_edge3_Node000002_Node000003"><a xlink:title=" ">
<path fill="none" stroke="#63b8ff" d="M227.22,-127.582C249.977,-132.562 285.475,-140.33 315.195,-146.834"/>
<polygon fill="#63b8ff" stroke="#63b8ff" points="314.509,-150.267 325.026,-148.986 316.005,-143.429 314.509,-150.267"/>
</a>
</g>
</g>
<!-- Node7 -->
<g id="Node000007" class="node"><title>Node7</title>
<g id="a_Node000007"><a xlink:href="group___t_span.html#ga8efc8ea3e4f239b6c154cdae03258740" target="_top" xlink:title="Přesun hodnoty elementu Spanu.">
<polygon fill="white" stroke="#666666" points="424.5,-131 314.5,-131 314.5,-112 424.5,-112 424.5,-131"/>
<text text-anchor="middle" x="369.5" y="-119" font-family="Helvetica,sans-Serif" font-size="10.00">span_move_positions</text>
</a>
</g>
</g>
<!-- Node2&#45;&gt;Node7 -->
<g id="edge7_Node000002_Node000007" class="edge"><title>Node2&#45;&gt;Node7</title>
<g id="a_edge7_Node000002_Node000007"><a xlink:title=" ">
<path fill="none" stroke="#63b8ff" d="M227.22,-122.359C247.167,-122.238 276.903,-122.057 303.957,-121.892"/>
<polygon fill="#63b8ff" stroke="#63b8ff" points="304.19,-125.391 314.168,-121.83 304.147,-118.391 304.19,-125.391"/>
</a>
</g>
</g>
<!-- Node2&#45;&gt;Node10 -->
<g id="edge10_Node000002_Node000010" class="edge"><title>Node2&#45;&gt;Node10</title>
<g id="a_edge10_Node000002_Node000010"><a xlink:title=" ">
<path fill="none" stroke="#63b8ff" d="M227.22,-117.136C253.592,-111.044 297.076,-100.999 328.847,-93.6599"/>
<polygon fill="#63b8ff" stroke="#63b8ff" points="329.759,-97.0415 338.715,-91.3805 328.184,-90.2211 329.759,-97.0415"/>
</a>
</g>
</g>
<!-- Node4 -->
<g id="Node000004" class="node"><title>Node4</title>
<g id="a_Node000004"><a xlink:href="group__sortable___t_vector.html#gaedaf9c79afa345e5e71e5c66ab25fa26" target="_top" xlink:title="Porovnání hodnot elementů vektorů">
<polygon fill="white" stroke="#666666" points="597,-168 468,-168 468,-149 597,-149 597,-168"/>
<text text-anchor="middle" x="532.5" y="-156" font-family="Helvetica,sans-Serif" font-size="10.00">vector_compare_positions</text>
</a>
</g>
</g>
<!-- Node3&#45;&gt;Node4 -->
<g id="edge4_Node000003_Node000004" class="edge"><title>Node3&#45;&gt;Node4</title>
<g id="a_edge4_Node000003_Node000004"><a xlink:title=" ">
<path fill="none" stroke="#63b8ff" d="M432.286,-158.5C440.545,-158.5 449.082,-158.5 457.523,-158.5"/>
<polygon fill="#63b8ff" stroke="#63b8ff" points="457.746,-162 467.746,-158.5 457.746,-155 457.746,-162"/>
</a>
</g>
</g>
<!-- Node5 -->
<g id="Node000005" class="node"><title>Node5</title>
<g id="a_Node000005"><a xlink:href="_t_vector_8c.html#a188bab569c3ae8a25070f632a6f53e62" target="_top" xlink:title=" ">
<polygon fill="white" stroke="#666666" points="753.5,-175.5 647.5,-175.5 647.5,-145.5 753.5,-145.5 753.5,-175.5"/>
<text text-anchor="start" x="655.5" y="-163.5" font-family="Helvetica,sans-Serif" font-size="10.00">vector_fast_compare</text>
<text text-anchor="middle" x="700.5" y="-152.5" font-family="Helvetica,sans-Serif" font-size="10.00">_positions</text>
</a>
</g>
</g>
<!-- Node4&#45;&gt;Node5 -->
<g id="edge5_Node000004_Node000005" class="edge"><title>Node4&#45;&gt;Node5</title>
<g id="a_edge5_Node000004_Node000005"><a xlink:title=" ">
<path fill="none" stroke="#63b8ff" d="M597.205,-159.268C610.263,-159.425 623.996,-159.59 637.011,-159.747"/>
<polygon fill="#63b8ff" stroke="#63b8ff" points="637.227,-163.25 647.268,-159.871 637.311,-156.25 637.227,-163.25"/>
</a>
</g>
</g>
<!-- Node6 -->
<g id="Node000006" class="node"><title>Node6</title>
<g id="a_Node000006"><a xlink:href="group___t_vector_element.html#ga82e527836fce12c93af896f65e9f701d" target="_top" xlink:title="Porovnání dvou elementů">
<polygon fill="white" stroke="#666666" points="940,-170 804,-170 804,-151 940,-151 940,-170"/>
<text text-anchor="middle" x="872" y="-158" font-family="Helvetica,sans-Serif" font-size="10.00">vector_element_comparator</text>
</a>
</g>
</g>
<!-- Node5&#45;&gt;Node6 -->
<g id="edge6_Node000005_Node000006" class="edge"><title>Node5&#45;&gt;Node6</title>
<g id="a_edge6_Node000005_Node000006"><a xlink:title=" ">
<path fill="none" stroke="#63b8ff" d="M753.739,-160.5C766.373,-160.5 780.144,-160.5 793.662,-160.5"/>
<polygon fill="#63b8ff" stroke="#63b8ff" points="793.926,-164 803.926,-160.5 793.926,-157 793.926,-164"/>
</a>
</g>
</g>
<!-- Node8 -->
<g id="Node000008" class="node"><title>Node8</title>
<g id="a_Node000008"><a xlink:href="group__sortable___t_vector.html#ga16623c06371077674f5d4d31e38e42a4" target="_top" xlink:title="Přesun hodnoty elementu vektoru.">
<polygon fill="white" stroke="#666666" points="589.5,-128 475.5,-128 475.5,-109 589.5,-109 589.5,-128"/>
<text text-anchor="middle" x="532.5" y="-116" font-family="Helvetica,sans-Serif" font-size="10.00">vector_move_positions</text>
</a>
</g>
</g>
<!-- Node7&#45;&gt;Node8 -->
<g id="edge8_Node000007_Node000008" class="edge"><title>Node7&#45;&gt;Node8</title>
<g id="a_edge8_Node000007_Node000008"><a xlink:title=" ">
<path fill="none" stroke="#63b8ff" d="M424.559,-120.493C437.589,-120.25 451.659,-119.988 465.179,-119.736"/>
<polygon fill="#63b8ff" stroke="#63b8ff" points="465.45,-123.231 475.383,-119.546 465.32,-116.233 465.45,-123.231"/>
</a>
</g>
</g>
<!-- Node9 -->
<g id="Node000009" class="node"><title>Node9</title>
<g id="a_Node000009"><a xlink:href="_t_vector_8c.html#a0e3151269c65b7033ddecb4c3aee6566" target="_top" xlink:title=" ">
<polygon fill="white" stroke="#666666" points="768,-127 633,-127 633,-108 768,-108 768,-127"/>
<text text-anchor="middle" x="700.5" y="-115" font-family="Helvetica,sans-Serif" font-size="10.00">vector_fast_move_positions</text>
</a>
</g>
</g>
<!-- Node8&#45;&gt;Node9 -->
<g id="edge9_Node000008_Node000009" class="edge"><title>Node8&#45;&gt;Node9</title>
<g id="a_edge9_Node000008_Node000009"><a xlink:title=" ">
<path fill="none" stroke="#63b8ff" d="M589.7,-118.161C600.286,-118.098 611.524,-118.03 622.615,-117.963"/>
<polygon fill="#63b8ff" stroke="#63b8ff" points="622.758,-121.462 632.736,-117.902 622.715,-114.463 622.758,-121.462"/>
</a>
</g>
</g>
</g>
</svg>
