<?xml version="1.0" encoding="UTF-8" standalone="no"?>
<!DOCTYPE svg PUBLIC "-//W3C//DTD SVG 1.1//EN"
 "http://www.w3.org/Graphics/SVG/1.1/DTD/svg11.dtd">
<!-- Generated by graphviz version 2.38.0 (20140413.2041)
 -->
<!-- Title: mergify Pages: 1 -->
<svg width="725pt" height="110pt"
 viewBox="0.00 0.00 725.00 109.50" xmlns="http://www.w3.org/2000/svg" xmlns:xlink="http://www.w3.org/1999/xlink">
<g id="graph0" class="graph" transform="scale(1 1) rotate(0) translate(4 105.5)">
<title>mergify</title>
<!-- Node1 -->
<g id="Node000001" class="node"><title>Node1</title>
<g id="a_Node000001"><a xlink:title="Vnitřní a lokální funkce realizující sloučení dvou již setříděných rozsahů (Spanů)">
<polygon fill="#999999" stroke="#666666" points="48,-56 0,-56 0,-37 48,-37 48,-56"/>
<text text-anchor="middle" x="24" y="-44" font-family="Helvetica,sans-Serif" font-size="10.00">mergify</text>
</a>
</g>
</g>
<!-- Node2 -->
<g id="Node000002" class="node"><title>Node2</title>
<g id="a_Node000002"><a xlink:href="group___t_span.html#gaffd3a758138012dac875ceda42a975db" target="_top" xlink:title="Porovnání hodnot elementů Spanů">
<polygon fill="white" stroke="#666666" points="209,-94 84,-94 84,-75 209,-75 209,-94"/>
<text text-anchor="middle" x="146.5" y="-82" font-family="Helvetica,sans-Serif" font-size="10.00">span_compare_positions</text>
</a>
</g>
</g>
<!-- Node1&#45;&gt;Node2 -->
<g id="edge1_Node000001_Node000002" class="edge"><title>Node1&#45;&gt;Node2</title>
<g id="a_edge1_Node000001_Node000002"><a xlink:title=" ">
<path fill="none" stroke="#63b8ff" d="M48.2336,-53.8268C64.424,-58.9325 86.4368,-65.8742 105.426,-71.8627"/>
<polygon fill="#63b8ff" stroke="#63b8ff" points="104.445,-75.2229 115.034,-74.8926 106.55,-68.547 104.445,-75.2229"/>
</a>
</g>
</g>
<!-- Node6 -->
<g id="Node000006" class="node"><title>Node6</title>
<g id="a_Node000006"><a xlink:href="group___t_span.html#ga8efc8ea3e4f239b6c154cdae03258740" target="_top" xlink:title="Přesun hodnoty elementu Spanu.">
<polygon fill="white" stroke="#666666" points="201.5,-56 91.5,-56 91.5,-37 201.5,-37 201.5,-56"/>
<text text-anchor="middle" x="146.5" y="-44" font-family="Helvetica,sans-Serif" font-size="10.00">span_move_positions</text>
</a>
</g>
</g>
<!-- Node1&#45;&gt;Node6 -->
<g id="edge5_Node000001_Node000006" class="edge"><title>Node1&#45;&gt;Node6</title>
<g id="a_edge5_Node000001_Node000006"><a xlink:title=" ">
<path fill="none" stroke="#63b8ff" d="M48.2336,-46.5C57.7548,-46.5 69.2897,-46.5 81.0391,-46.5"/>
<polygon fill="#63b8ff" stroke="#63b8ff" points="81.3745,-50.0001 91.3744,-46.5 81.3744,-43.0001 81.3745,-50.0001"/>
</a>
</g>
</g>
<!-- Node9 -->
<g id="Node000009" class="node"><title>Node9</title>
<g id="a_Node000009"><a xlink:href="group___t_span.html#ga873f8813d9a78c9b43e8a6b2b2a4c9d1" target="_top" xlink:title="Přečtení počtu elementů Spanu.">
<polygon fill="white" stroke="#666666" points="177,-19 116,-19 116,-0 177,-0 177,-19"/>
<text text-anchor="middle" x="146.5" y="-7" font-family="Helvetica,sans-Serif" font-size="10.00">span_size</text>
</a>
</g>
</g>
<!-- Node1&#45;&gt;Node9 -->
<g id="edge8_Node000001_Node000009" class="edge"><title>Node1&#45;&gt;Node9</title>
<g id="a_edge8_Node000001_Node000009"><a xlink:title=" ">
<path fill="none" stroke="#63b8ff" d="M48.2131,-38.866C59.0632,-35.3385 72.1707,-31.1351 84,-27.5 91.0917,-25.3207 98.662,-23.0554 105.98,-20.8967"/>
<polygon fill="#63b8ff" stroke="#63b8ff" points="107.123,-24.209 115.735,-18.0372 105.154,-17.4916 107.123,-24.209"/>
</a>
</g>
</g>
<!-- Node3 -->
<g id="Node000003" class="node"><title>Node3</title>
<g id="a_Node000003"><a xlink:href="group__sortable___t_vector.html#gaedaf9c79afa345e5e71e5c66ab25fa26" target="_top" xlink:title="Porovnání hodnot elementů vektorů">
<polygon fill="white" stroke="#666666" points="374,-95 245,-95 245,-76 374,-76 374,-95"/>
<text text-anchor="middle" x="309.5" y="-83" font-family="Helvetica,sans-Serif" font-size="10.00">vector_compare_positions</text>
</a>
</g>
</g>
<!-- Node2&#45;&gt;Node3 -->
<g id="edge2_Node000002_Node000003" class="edge"><title>Node2&#45;&gt;Node3</title>
<g id="a_edge2_Node000002_Node000003"><a xlink:title=" ">
<path fill="none" stroke="#63b8ff" d="M209.286,-84.8838C217.545,-84.9351 226.082,-84.9881 234.523,-85.0405"/>
<polygon fill="#63b8ff" stroke="#63b8ff" points="234.724,-88.5417 244.746,-85.104 234.768,-81.5419 234.724,-88.5417"/>
</a>
</g>
</g>
<!-- Node4 -->
<g id="Node000004" class="node"><title>Node4</title>
<g id="a_Node000004"><a xlink:href="_t_vector_8c.html#a188bab569c3ae8a25070f632a6f53e62" target="_top" xlink:title=" ">
<polygon fill="white" stroke="#666666" points="530.5,-101.5 424.5,-101.5 424.5,-71.5 530.5,-71.5 530.5,-101.5"/>
<text text-anchor="start" x="432.5" y="-89.5" font-family="Helvetica,sans-Serif" font-size="10.00">vector_fast_compare</text>
<text text-anchor="middle" x="477.5" y="-78.5" font-family="Helvetica,sans-Serif" font-size="10.00">_positions</text>
</a>
</g>
</g>
<!-- Node3&#45;&gt;Node4 -->
<g id="edge3_Node000003_Node000004" class="edge"><title>Node3&#45;&gt;Node4</title>
<g id="a_edge3_Node000003_Node000004"><a xlink:title=" ">
<path fill="none" stroke="#63b8ff" d="M374.205,-85.8838C387.263,-85.9624 400.996,-86.0452 414.011,-86.1236"/>
<polygon fill="#63b8ff" stroke="#63b8ff" points="414.248,-89.625 424.268,-86.1854 414.29,-82.6251 414.248,-89.625"/>
</a>
</g>
</g>
<!-- Node5 -->
<g id="Node000005" class="node"><title>Node5</title>
<g id="a_Node000005"><a xlink:href="group___t_vector_element.html#ga82e527836fce12c93af896f65e9f701d" target="_top" xlink:title="Porovnání dvou elementů">
<polygon fill="white" stroke="#666666" points="717,-96 581,-96 581,-77 717,-77 717,-96"/>
<text text-anchor="middle" x="649" y="-84" font-family="Helvetica,sans-Serif" font-size="10.00">vector_element_comparator</text>
</a>
</g>
</g>
<!-- Node4&#45;&gt;Node5 -->
<g id="edge4_Node000004_Node000005" class="edge"><title>Node4&#45;&gt;Node5</title>
<g id="a_edge4_Node000004_Node000005"><a xlink:title=" ">
<path fill="none" stroke="#63b8ff" d="M530.739,-86.5C543.373,-86.5 557.144,-86.5 570.662,-86.5"/>
<polygon fill="#63b8ff" stroke="#63b8ff" points="570.926,-90.0001 580.926,-86.5 570.926,-83.0001 570.926,-90.0001"/>
</a>
</g>
</g>
<!-- Node7 -->
<g id="Node000007" class="node"><title>Node7</title>
<g id="a_Node000007"><a xlink:href="group__sortable___t_vector.html#ga16623c06371077674f5d4d31e38e42a4" target="_top" xlink:title="Přesun hodnoty elementu vektoru.">
<polygon fill="white" stroke="#666666" points="366.5,-56 252.5,-56 252.5,-37 366.5,-37 366.5,-56"/>
<text text-anchor="middle" x="309.5" y="-44" font-family="Helvetica,sans-Serif" font-size="10.00">vector_move_positions</text>
</a>
</g>
</g>
<!-- Node6&#45;&gt;Node7 -->
<g id="edge6_Node000006_Node000007" class="edge"><title>Node6&#45;&gt;Node7</title>
<g id="a_edge6_Node000006_Node000007"><a xlink:title=" ">
<path fill="none" stroke="#63b8ff" d="M201.559,-46.5C214.589,-46.5 228.659,-46.5 242.179,-46.5"/>
<polygon fill="#63b8ff" stroke="#63b8ff" points="242.383,-50.0001 252.383,-46.5 242.383,-43.0001 242.383,-50.0001"/>
</a>
</g>
</g>
<!-- Node8 -->
<g id="Node000008" class="node"><title>Node8</title>
<g id="a_Node000008"><a xlink:href="_t_vector_8c.html#a0e3151269c65b7033ddecb4c3aee6566" target="_top" xlink:title=" ">
<polygon fill="white" stroke="#666666" points="545,-53 410,-53 410,-34 545,-34 545,-53"/>
<text text-anchor="middle" x="477.5" y="-41" font-family="Helvetica,sans-Serif" font-size="10.00">vector_fast_move_positions</text>
</a>
</g>
</g>
<!-- Node7&#45;&gt;Node8 -->
<g id="edge7_Node000007_Node000008" class="edge"><title>Node7&#45;&gt;Node8</title>
<g id="a_edge7_Node000007_Node000008"><a xlink:title=" ">
<path fill="none" stroke="#63b8ff" d="M366.7,-45.4843C377.286,-45.293 388.524,-45.0899 399.615,-44.8895"/>
<polygon fill="#63b8ff" stroke="#63b8ff" points="399.801,-48.3868 409.736,-44.7066 399.675,-41.3879 399.801,-48.3868"/>
</a>
</g>
</g>
</g>
</svg>
