<?xml version="1.0" encoding="UTF-8" standalone="no"?>
<!DOCTYPE svg PUBLIC "-//W3C//DTD SVG 1.1//EN"
 "http://www.w3.org/Graphics/SVG/1.1/DTD/svg11.dtd">
<!-- Generated by graphviz version 2.38.0 (20140413.2041)
 -->
<!-- Title: mergify Pages: 1 -->
<svg width="564pt" height="76pt"
 viewBox="0.00 0.00 564.00 75.50" xmlns="http://www.w3.org/2000/svg" xmlns:xlink="http://www.w3.org/1999/xlink">
<g id="graph0" class="graph" transform="scale(1 1) rotate(0) translate(4 71.5)">
<title>mergify</title>
<!-- Node1 -->
<g id="Node000001" class="node"><title>Node1</title>
<g id="a_Node000001"><a xlink:title="Vnitřní a lokální funkce realizující sloučení dvou již setříděných rozsahů z vektoru aFromVector do v...">
<polygon fill="#999999" stroke="#666666" points="48,-41 0,-41 0,-22 48,-22 48,-41"/>
<text text-anchor="middle" x="24" y="-29" font-family="Helvetica,sans-Serif" font-size="10.00">mergify</text>
</a>
</g>
</g>
<!-- Node2 -->
<g id="Node000002" class="node"><title>Node2</title>
<g id="a_Node000002"><a xlink:href="group__sortable___t_vector.html#gaedaf9c79afa345e5e71e5c66ab25fa26" target="_top" xlink:title="Porovnání hodnot elementů vektorů">
<polygon fill="white" stroke="#666666" points="213,-60 84,-60 84,-41 213,-41 213,-60"/>
<text text-anchor="middle" x="148.5" y="-48" font-family="Helvetica,sans-Serif" font-size="10.00">vector_compare_positions</text>
</a>
</g>
</g>
<!-- Node1&#45;&gt;Node2 -->
<g id="edge1_Node000001_Node000002" class="edge"><title>Node1&#45;&gt;Node2</title>
<g id="a_edge1_Node000001_Node000002"><a xlink:title=" ">
<path fill="none" stroke="#63b8ff" d="M48.0413,-35.0738C56.2022,-36.3395 65.8699,-37.839 75.9197,-39.3977"/>
<polygon fill="#63b8ff" stroke="#63b8ff" points="75.6368,-42.8956 86.0551,-40.9698 76.7098,-35.9784 75.6368,-42.8956"/>
</a>
</g>
</g>
<!-- Node5 -->
<g id="Node000005" class="node"><title>Node5</title>
<g id="a_Node000005"><a xlink:href="group__sortable___t_vector.html#ga16623c06371077674f5d4d31e38e42a4" target="_top" xlink:title="Přesun hodnoty elementu vektoru.">
<polygon fill="white" stroke="#666666" points="205.5,-22 91.5,-22 91.5,-3 205.5,-3 205.5,-22"/>
<text text-anchor="middle" x="148.5" y="-10" font-family="Helvetica,sans-Serif" font-size="10.00">vector_move_positions</text>
</a>
</g>
</g>
<!-- Node1&#45;&gt;Node5 -->
<g id="edge4_Node000001_Node000005" class="edge"><title>Node1&#45;&gt;Node5</title>
<g id="a_edge4_Node000001_Node000005"><a xlink:title=" ">
<path fill="none" stroke="#63b8ff" d="M48.0413,-27.9262C57.6793,-26.4314 69.4189,-24.6105 81.4075,-22.7511"/>
<polygon fill="#63b8ff" stroke="#63b8ff" points="82.1504,-26.1778 91.4958,-21.1864 81.0775,-19.2605 82.1504,-26.1778"/>
</a>
</g>
</g>
<!-- Node3 -->
<g id="Node000003" class="node"><title>Node3</title>
<g id="a_Node000003"><a xlink:href="_t_vector_8c.html#a188bab569c3ae8a25070f632a6f53e62" target="_top" xlink:title=" ">
<polygon fill="white" stroke="#666666" points="369.5,-67.5 263.5,-67.5 263.5,-37.5 369.5,-37.5 369.5,-67.5"/>
<text text-anchor="start" x="271.5" y="-55.5" font-family="Helvetica,sans-Serif" font-size="10.00">vector_fast_compare</text>
<text text-anchor="middle" x="316.5" y="-44.5" font-family="Helvetica,sans-Serif" font-size="10.00">_positions</text>
</a>
</g>
</g>
<!-- Node2&#45;&gt;Node3 -->
<g id="edge2_Node000002_Node000003" class="edge"><title>Node2&#45;&gt;Node3</title>
<g id="a_edge2_Node000002_Node000003"><a xlink:title=" ">
<path fill="none" stroke="#63b8ff" d="M213.205,-51.2675C226.263,-51.4249 239.996,-51.5903 253.011,-51.7471"/>
<polygon fill="#63b8ff" stroke="#63b8ff" points="253.227,-55.2499 263.268,-51.8707 253.311,-48.2504 253.227,-55.2499"/>
</a>
</g>
</g>
<!-- Node4 -->
<g id="Node000004" class="node"><title>Node4</title>
<g id="a_Node000004"><a xlink:href="group___t_vector_element.html#ga82e527836fce12c93af896f65e9f701d" target="_top" xlink:title="Porovnání dvou elementů">
<polygon fill="white" stroke="#666666" points="556,-62 420,-62 420,-43 556,-43 556,-62"/>
<text text-anchor="middle" x="488" y="-50" font-family="Helvetica,sans-Serif" font-size="10.00">vector_element_comparator</text>
</a>
</g>
</g>
<!-- Node3&#45;&gt;Node4 -->
<g id="edge3_Node000003_Node000004" class="edge"><title>Node3&#45;&gt;Node4</title>
<g id="a_edge3_Node000003_Node000004"><a xlink:title=" ">
<path fill="none" stroke="#63b8ff" d="M369.739,-52.5C382.373,-52.5 396.144,-52.5 409.662,-52.5"/>
<polygon fill="#63b8ff" stroke="#63b8ff" points="409.926,-56.0001 419.926,-52.5 409.926,-49.0001 409.926,-56.0001"/>
</a>
</g>
</g>
<!-- Node6 -->
<g id="Node000006" class="node"><title>Node6</title>
<g id="a_Node000006"><a xlink:href="_t_vector_8c.html#a0e3151269c65b7033ddecb4c3aee6566" target="_top" xlink:title=" ">
<polygon fill="white" stroke="#666666" points="384,-19 249,-19 249,-0 384,-0 384,-19"/>
<text text-anchor="middle" x="316.5" y="-7" font-family="Helvetica,sans-Serif" font-size="10.00">vector_fast_move_positions</text>
</a>
</g>
</g>
<!-- Node5&#45;&gt;Node6 -->
<g id="edge5_Node000005_Node000006" class="edge"><title>Node5&#45;&gt;Node6</title>
<g id="a_edge5_Node000005_Node000006"><a xlink:title=" ">
<path fill="none" stroke="#63b8ff" d="M205.7,-11.4843C216.286,-11.293 227.524,-11.0899 238.615,-10.8895"/>
<polygon fill="#63b8ff" stroke="#63b8ff" points="238.801,-14.3868 248.736,-10.7066 238.675,-7.38793 238.801,-14.3868"/>
</a>
</g>
</g>
</g>
</svg>
