<?xml version="1.0" encoding="UTF-8" standalone="no"?>
<!DOCTYPE svg PUBLIC "-//W3C//DTD SVG 1.1//EN"
 "http://www.w3.org/Graphics/SVG/1.1/DTD/svg11.dtd">
<!-- Generated by graphviz version 2.38.0 (20140413.2041)
 -->
<!-- Title: mergify Pages: 1 -->
<svg width="366pt" height="45pt"
 viewBox="0.00 0.00 366.00 45.00" xmlns="http://www.w3.org/2000/svg" xmlns:xlink="http://www.w3.org/1999/xlink">
<g id="graph0" class="graph" transform="scale(1 1) rotate(0) translate(4 41)">
<title>mergify</title>
<!-- Node1 -->
<g id="Node000001" class="node"><title>Node1</title>
<g id="a_Node000001"><a xlink:title="Vnitřní a lokální funkce realizující sloučení dvou již setříděných rozsahů z vektoru aFromVector do v...">
<polygon fill="#999999" stroke="#666666" points="358,-19 310,-19 310,-0 358,-0 358,-19"/>
<text text-anchor="middle" x="334" y="-7" font-family="Helvetica,sans-Serif" font-size="10.00">mergify</text>
</a>
</g>
</g>
<!-- Node2 -->
<g id="Node000002" class="node"><title>Node2</title>
<g id="a_Node000002"><a xlink:href="merge__sort_8c.html#a41bfb4129631a73ffc60c10381af80c2" target="_top" xlink:title="Vnitřní a lokální funkce realizující rekurzivní funkci pro metodu (Merge Sort)">
<polygon fill="white" stroke="#666666" points="274,-19 175,-19 175,-0 274,-0 274,-19"/>
<text text-anchor="middle" x="224.5" y="-7" font-family="Helvetica,sans-Serif" font-size="10.00">merge_sort_worker</text>
</a>
</g>
</g>
<!-- Node1&#45;&gt;Node2 -->
<g id="edge1_Node000001_Node000002" class="edge"><title>Node1&#45;&gt;Node2</title>
<g id="a_edge1_Node000001_Node000002"><a xlink:title=" ">
<path fill="none" stroke="#63b8ff" d="M299.776,-9.5C291.665,-9.5 282.821,-9.5 274.155,-9.5"/>
<polygon fill="#63b8ff" stroke="#63b8ff" points="299.939,-13.0001 309.939,-9.5 299.939,-6.0001 299.939,-13.0001"/>
</a>
</g>
</g>
<!-- Node2&#45;&gt;Node2 -->
<g id="edge4_Node000002_Node000002" class="edge"><title>Node2&#45;&gt;Node2</title>
<g id="a_edge4_Node000002_Node000002"><a xlink:title=" ">
<path fill="none" stroke="#63b8ff" d="M244.499,-28.5536C243.163,-33.3804 236.497,-37 224.5,-37 205.305,-37 199.756,-27.7337 207.854,-19.0828"/>
<polygon fill="#63b8ff" stroke="#63b8ff" points="247.783,-27.3413 241.146,-19.0828 241.184,-29.6776 247.783,-27.3413"/>
</a>
</g>
</g>
<!-- Node3 -->
<g id="Node000003" class="node"><title>Node3</title>
<g id="a_Node000003"><a xlink:href="group___powerful_sorts.html#gaca54b9dda831aa79008867770c96413e" target="_top" xlink:title="Třídění pomocí metody slučováním (Merge sort) využívající rekurzivní rozklad.">
<polygon fill="white" stroke="#666666" points="139,-19 74,-19 74,-0 139,-0 139,-19"/>
<text text-anchor="middle" x="106.5" y="-7" font-family="Helvetica,sans-Serif" font-size="10.00">merge_sort</text>
</a>
</g>
</g>
<!-- Node2&#45;&gt;Node3 -->
<g id="edge2_Node000002_Node000003" class="edge"><title>Node2&#45;&gt;Node3</title>
<g id="a_edge2_Node000002_Node000003"><a xlink:title=" ">
<path fill="none" stroke="#63b8ff" d="M164.73,-9.5C155.969,-9.5 147.232,-9.5 139.317,-9.5"/>
<polygon fill="#63b8ff" stroke="#63b8ff" points="164.978,-13.0001 174.978,-9.5 164.978,-6.0001 164.978,-13.0001"/>
</a>
</g>
</g>
<!-- Node4 -->
<g id="Node000004" class="node"><title>Node4</title>
<g id="a_Node000004"><a xlink:href="group___main_program.html#ga0ddf1224851353fc92bfbff6f499fa97" target="_top" xlink:title=" ">
<polygon fill="white" stroke="#666666" points="38,-19 0,-19 0,-0 38,-0 38,-19"/>
<text text-anchor="middle" x="19" y="-7" font-family="Helvetica,sans-Serif" font-size="10.00">main</text>
</a>
</g>
</g>
<!-- Node3&#45;&gt;Node4 -->
<g id="edge3_Node000003_Node000004" class="edge"><title>Node3&#45;&gt;Node4</title>
<g id="a_edge3_Node000003_Node000004"><a xlink:title=" ">
<path fill="none" stroke="#63b8ff" d="M63.658,-9.5C54.7022,-9.5 45.6933,-9.5 38.2043,-9.5"/>
<polygon fill="#63b8ff" stroke="#63b8ff" points="63.663,-13.0001 73.663,-9.5 63.6629,-6.0001 63.663,-13.0001"/>
</a>
</g>
</g>
</g>
</svg>
