<?xml version="1.0" encoding="UTF-8" standalone="no"?>
<!DOCTYPE svg PUBLIC "-//W3C//DTD SVG 1.1//EN"
 "http://www.w3.org/Graphics/SVG/1.1/DTD/svg11.dtd">
<!-- Generated by graphviz version 2.38.0 (20140413.2041)
 -->
<!-- Title: merge_sort_worker Pages: 1 -->
<svg width="699pt" height="76pt"
 viewBox="0.00 0.00 699.00 75.50" xmlns="http://www.w3.org/2000/svg" xmlns:xlink="http://www.w3.org/1999/xlink">
<g id="graph0" class="graph" transform="scale(1 1) rotate(0) translate(4 71.5)">
<title>merge_sort_worker</title>
<!-- Node1 -->
<g id="Node000001" class="node"><title>Node1</title>
<g id="a_Node000001"><a xlink:title="Vnitřní a lokální funkce realizující rekurzivní funkci pro metodu (Merge Sort)">
<polygon fill="#999999" stroke="#666666" points="99,-41 0,-41 0,-22 99,-22 99,-41"/>
<text text-anchor="middle" x="49.5" y="-29" font-family="Helvetica,sans-Serif" font-size="10.00">merge_sort_worker</text>
</a>
</g>
</g>
<!-- Node1&#45;&gt;Node1 -->
<g id="edge1_Node000001_Node000001" class="edge"><title>Node1&#45;&gt;Node1</title>
<g id="a_edge1_Node000001_Node000001"><a xlink:title=" ">
<path fill="none" stroke="#63b8ff" d="M32.8541,-41.0828C24.756,-49.7337 30.3047,-59 49.5,-59 61.4971,-59 68.1634,-55.3804 69.499,-50.5536"/>
<polygon fill="#63b8ff" stroke="#63b8ff" points="72.7828,-49.3413 66.1459,-41.0828 66.1841,-51.6776 72.7828,-49.3413"/>
</a>
</g>
</g>
<!-- Node2 -->
<g id="Node000002" class="node"><title>Node2</title>
<g id="a_Node000002"><a xlink:href="merge__sort_8c.html#a662181aab782eefc61f71886c9aa21ab" target="_top" xlink:title="Vnitřní a lokální funkce realizující sloučení dvou již setříděných rozsahů z vektoru aFromVector do v...">
<polygon fill="white" stroke="#666666" points="183,-41 135,-41 135,-22 183,-22 183,-41"/>
<text text-anchor="middle" x="159" y="-29" font-family="Helvetica,sans-Serif" font-size="10.00">mergify</text>
</a>
</g>
</g>
<!-- Node1&#45;&gt;Node2 -->
<g id="edge2_Node000001_Node000002" class="edge"><title>Node1&#45;&gt;Node2</title>
<g id="a_edge2_Node000001_Node000002"><a xlink:title=" ">
<path fill="none" stroke="#63b8ff" d="M99.2175,-31.5C107.87,-31.5 116.698,-31.5 124.794,-31.5"/>
<polygon fill="#63b8ff" stroke="#63b8ff" points="124.939,-35.0001 134.939,-31.5 124.939,-28.0001 124.939,-35.0001"/>
</a>
</g>
</g>
<!-- Node3 -->
<g id="Node000003" class="node"><title>Node3</title>
<g id="a_Node000003"><a xlink:href="group__sortable___t_vector.html#gaedaf9c79afa345e5e71e5c66ab25fa26" target="_top" xlink:title="Porovnání hodnot elementů vektorů">
<polygon fill="white" stroke="#666666" points="348,-60 219,-60 219,-41 348,-41 348,-60"/>
<text text-anchor="middle" x="283.5" y="-48" font-family="Helvetica,sans-Serif" font-size="10.00">vector_compare_positions</text>
</a>
</g>
</g>
<!-- Node2&#45;&gt;Node3 -->
<g id="edge3_Node000002_Node000003" class="edge"><title>Node2&#45;&gt;Node3</title>
<g id="a_edge3_Node000002_Node000003"><a xlink:title=" ">
<path fill="none" stroke="#63b8ff" d="M183.041,-35.0738C191.202,-36.3395 200.87,-37.839 210.92,-39.3977"/>
<polygon fill="#63b8ff" stroke="#63b8ff" points="210.637,-42.8956 221.055,-40.9698 211.71,-35.9784 210.637,-42.8956"/>
</a>
</g>
</g>
<!-- Node6 -->
<g id="Node000006" class="node"><title>Node6</title>
<g id="a_Node000006"><a xlink:href="group__sortable___t_vector.html#ga16623c06371077674f5d4d31e38e42a4" target="_top" xlink:title="Přesun hodnoty elementu vektoru.">
<polygon fill="white" stroke="#666666" points="340.5,-22 226.5,-22 226.5,-3 340.5,-3 340.5,-22"/>
<text text-anchor="middle" x="283.5" y="-10" font-family="Helvetica,sans-Serif" font-size="10.00">vector_move_positions</text>
</a>
</g>
</g>
<!-- Node2&#45;&gt;Node6 -->
<g id="edge6_Node000002_Node000006" class="edge"><title>Node2&#45;&gt;Node6</title>
<g id="a_edge6_Node000002_Node000006"><a xlink:title=" ">
<path fill="none" stroke="#63b8ff" d="M183.041,-27.9262C192.679,-26.4314 204.419,-24.6105 216.408,-22.7511"/>
<polygon fill="#63b8ff" stroke="#63b8ff" points="217.15,-26.1778 226.496,-21.1864 216.077,-19.2605 217.15,-26.1778"/>
</a>
</g>
</g>
<!-- Node4 -->
<g id="Node000004" class="node"><title>Node4</title>
<g id="a_Node000004"><a xlink:href="_t_vector_8c.html#a188bab569c3ae8a25070f632a6f53e62" target="_top" xlink:title=" ">
<polygon fill="white" stroke="#666666" points="504.5,-67.5 398.5,-67.5 398.5,-37.5 504.5,-37.5 504.5,-67.5"/>
<text text-anchor="start" x="406.5" y="-55.5" font-family="Helvetica,sans-Serif" font-size="10.00">vector_fast_compare</text>
<text text-anchor="middle" x="451.5" y="-44.5" font-family="Helvetica,sans-Serif" font-size="10.00">_positions</text>
</a>
</g>
</g>
<!-- Node3&#45;&gt;Node4 -->
<g id="edge4_Node000003_Node000004" class="edge"><title>Node3&#45;&gt;Node4</title>
<g id="a_edge4_Node000003_Node000004"><a xlink:title=" ">
<path fill="none" stroke="#63b8ff" d="M348.205,-51.2675C361.263,-51.4249 374.996,-51.5903 388.011,-51.7471"/>
<polygon fill="#63b8ff" stroke="#63b8ff" points="388.227,-55.2499 398.268,-51.8707 388.311,-48.2504 388.227,-55.2499"/>
</a>
</g>
</g>
<!-- Node5 -->
<g id="Node000005" class="node"><title>Node5</title>
<g id="a_Node000005"><a xlink:href="group___t_vector_element.html#ga82e527836fce12c93af896f65e9f701d" target="_top" xlink:title="Porovnání dvou elementů">
<polygon fill="white" stroke="#666666" points="691,-62 555,-62 555,-43 691,-43 691,-62"/>
<text text-anchor="middle" x="623" y="-50" font-family="Helvetica,sans-Serif" font-size="10.00">vector_element_comparator</text>
</a>
</g>
</g>
<!-- Node4&#45;&gt;Node5 -->
<g id="edge5_Node000004_Node000005" class="edge"><title>Node4&#45;&gt;Node5</title>
<g id="a_edge5_Node000004_Node000005"><a xlink:title=" ">
<path fill="none" stroke="#63b8ff" d="M504.739,-52.5C517.373,-52.5 531.144,-52.5 544.662,-52.5"/>
<polygon fill="#63b8ff" stroke="#63b8ff" points="544.926,-56.0001 554.926,-52.5 544.926,-49.0001 544.926,-56.0001"/>
</a>
</g>
</g>
<!-- Node7 -->
<g id="Node000007" class="node"><title>Node7</title>
<g id="a_Node000007"><a xlink:href="_t_vector_8c.html#a0e3151269c65b7033ddecb4c3aee6566" target="_top" xlink:title=" ">
<polygon fill="white" stroke="#666666" points="519,-19 384,-19 384,-0 519,-0 519,-19"/>
<text text-anchor="middle" x="451.5" y="-7" font-family="Helvetica,sans-Serif" font-size="10.00">vector_fast_move_positions</text>
</a>
</g>
</g>
<!-- Node6&#45;&gt;Node7 -->
<g id="edge7_Node000006_Node000007" class="edge"><title>Node6&#45;&gt;Node7</title>
<g id="a_edge7_Node000006_Node000007"><a xlink:title=" ">
<path fill="none" stroke="#63b8ff" d="M340.7,-11.4843C351.286,-11.293 362.524,-11.0899 373.615,-10.8895"/>
<polygon fill="#63b8ff" stroke="#63b8ff" points="373.801,-14.3868 383.736,-10.7066 373.675,-7.38793 373.801,-14.3868"/>
</a>
</g>
</g>
</g>
</svg>
