<?xml version="1.0" encoding="UTF-8" standalone="no"?>
<!DOCTYPE svg PUBLIC "-//W3C//DTD SVG 1.1//EN"
 "http://www.w3.org/Graphics/SVG/1.1/DTD/svg11.dtd">
<!-- Generated by graphviz version 2.38.0 (20140413.2041)
 -->
<!-- Title: merge_sort.h Pages: 1 -->
<svg width="188pt" height="137pt"
 viewBox="0.00 0.00 187.50 137.00" xmlns="http://www.w3.org/2000/svg" xmlns:xlink="http://www.w3.org/1999/xlink">
<g id="graph0" class="graph" transform="scale(1 1) rotate(0) translate(4 133)">
<title>merge_sort.h</title>
<!-- Node1 -->
<g id="Node000001" class="node"><title>Node1</title>
<g id="a_Node000001"><a xlink:title="Deklarace API výkonnější metody třídění slučováním (Merge sort), využívající rekurzi.">
<polygon fill="#999999" stroke="#666666" points="123,-129 49,-129 49,-110 123,-110 123,-129"/>
<text text-anchor="middle" x="86" y="-117" font-family="Helvetica,sans-Serif" font-size="10.00">merge_sort.h</text>
</a>
</g>
</g>
<!-- Node2 -->
<g id="Node000002" class="node"><title>Node2</title>
<g id="a_Node000002"><a xlink:href="merge__sort_8c.html" target="_top" xlink:title="Implementace API výkonnější metody třídění slučováním (Merge sort), využívající rekurzi.">
<polygon fill="white" stroke="#666666" points="74,-74 0,-74 0,-55 74,-55 74,-74"/>
<text text-anchor="middle" x="37" y="-62" font-family="Helvetica,sans-Serif" font-size="10.00">merge_sort.c</text>
</a>
</g>
</g>
<!-- Node1&#45;&gt;Node2 -->
<g id="edge1_Node000001_Node000002" class="edge"><title>Node1&#45;&gt;Node2</title>
<g id="a_edge1_Node000001_Node000002"><a xlink:title=" ">
<path fill="none" stroke="#63b8ff" d="M70.9655,-102.238C62.3778,-92.9494 51.9565,-81.6775 44.9408,-74.089"/>
<polygon fill="#63b8ff" stroke="#63b8ff" points="68.5501,-104.781 77.9086,-109.748 73.69,-100.029 68.5501,-104.781"/>
</a>
</g>
</g>
<!-- Node3 -->
<g id="Node000003" class="node"><title>Node3</title>
<g id="a_Node000003"><a xlink:href="powerful__sorts_8h.html" target="_top" xlink:title="Deklarace API výkonnějších metod třídění">
<polygon fill="white" stroke="#666666" points="179.5,-74 92.5,-74 92.5,-55 179.5,-55 179.5,-74"/>
<text text-anchor="middle" x="136" y="-62" font-family="Helvetica,sans-Serif" font-size="10.00">powerful_sorts.h</text>
</a>
</g>
</g>
<!-- Node1&#45;&gt;Node3 -->
<g id="edge2_Node000001_Node000003" class="edge"><title>Node1&#45;&gt;Node3</title>
<g id="a_edge2_Node000001_Node000003"><a xlink:title=" ">
<path fill="none" stroke="#63b8ff" d="M101.341,-102.238C110.104,-92.9494 120.738,-81.6775 127.897,-74.089"/>
<polygon fill="#63b8ff" stroke="#63b8ff" points="98.5728,-100.072 94.2565,-109.748 103.665,-104.876 98.5728,-100.072"/>
</a>
</g>
</g>
<!-- Node4 -->
<g id="Node000004" class="node"><title>Node4</title>
<g id="a_Node000004"><a xlink:href="main_8c.html" target="_top" xlink:title="Hlavní program testující API výkonnějších metod třídění">
<polygon fill="white" stroke="#666666" points="159,-19 113,-19 113,-0 159,-0 159,-19"/>
<text text-anchor="middle" x="136" y="-7" font-family="Helvetica,sans-Serif" font-size="10.00">main.c</text>
</a>
</g>
</g>
<!-- Node3&#45;&gt;Node4 -->
<g id="edge3_Node000003_Node000004" class="edge"><title>Node3&#45;&gt;Node4</title>
<g id="a_edge3_Node000003_Node000004"><a xlink:title=" ">
<path fill="none" stroke="#63b8ff" d="M136,-44.66C136,-35.9304 136,-25.9876 136,-19.089"/>
<polygon fill="#63b8ff" stroke="#63b8ff" points="132.5,-44.7481 136,-54.7481 139.5,-44.7482 132.5,-44.7481"/>
</a>
</g>
</g>
</g>
</svg>
