<?xml version="1.0" encoding="UTF-8" standalone="no"?>
<!DOCTYPE svg PUBLIC "-//W3C//DTD SVG 1.1//EN"
 "http://www.w3.org/Graphics/SVG/1.1/DTD/svg11.dtd">
<!-- Generated by graphviz version 2.38.0 (20140413.2041)
 -->
<!-- Title: merge_sort_with_span.h Pages: 1 -->
<svg width="236pt" height="137pt"
 viewBox="0.00 0.00 235.50 137.00" xmlns="http://www.w3.org/2000/svg" xmlns:xlink="http://www.w3.org/1999/xlink">
<g id="graph0" class="graph" transform="scale(1 1) rotate(0) translate(4 133)">
<title>merge_sort_with_span.h</title>
<!-- Node1 -->
<g id="Node000001" class="node"><title>Node1</title>
<g id="a_Node000001"><a xlink:title="Deklarace API výkonnější metody třídění slučováním (Merge sort), využívající rekurzi a datový typ Spa...">
<polygon fill="#999999" stroke="#666666" points="183,-129 61,-129 61,-110 183,-110 183,-129"/>
<text text-anchor="middle" x="122" y="-117" font-family="Helvetica,sans-Serif" font-size="10.00">merge_sort_with_span.h</text>
</a>
</g>
</g>
<!-- Node2 -->
<g id="Node000002" class="node"><title>Node2</title>
<g id="a_Node000002"><a xlink:href="merge__sort__with__span_8c.html" target="_top" xlink:title="Implementace API výkonnější metody třídění slučováním (Merge sort), využívající rekurzi a datový typ ...">
<polygon fill="white" stroke="#666666" points="122,-74 7.10543e-015,-74 7.10543e-015,-55 122,-55 122,-74"/>
<text text-anchor="middle" x="61" y="-62" font-family="Helvetica,sans-Serif" font-size="10.00">merge_sort_with_span.c</text>
</a>
</g>
</g>
<!-- Node1&#45;&gt;Node2 -->
<g id="edge1_Node000001_Node000002" class="edge"><title>Node1&#45;&gt;Node2</title>
<g id="a_edge1_Node000001_Node000002"><a xlink:title=" ">
<path fill="none" stroke="#63b8ff" d="M104.533,-103.324C93.6562,-93.8734 80.0561,-82.057 70.979,-74.1703"/>
<polygon fill="#63b8ff" stroke="#63b8ff" points="102.355,-106.068 112.199,-109.985 106.946,-100.784 102.355,-106.068"/>
</a>
</g>
</g>
<!-- Node3 -->
<g id="Node000003" class="node"><title>Node3</title>
<g id="a_Node000003"><a xlink:href="powerful__sorts_8h.html" target="_top" xlink:title="Deklarace API výkonnějších metod třídění">
<polygon fill="white" stroke="#666666" points="227.5,-74 140.5,-74 140.5,-55 227.5,-55 227.5,-74"/>
<text text-anchor="middle" x="184" y="-62" font-family="Helvetica,sans-Serif" font-size="10.00">powerful_sorts.h</text>
</a>
</g>
</g>
<!-- Node1&#45;&gt;Node3 -->
<g id="edge2_Node000001_Node000003" class="edge"><title>Node1&#45;&gt;Node3</title>
<g id="a_edge2_Node000001_Node000003"><a xlink:title=" ">
<path fill="none" stroke="#63b8ff" d="M139.754,-103.324C150.808,-93.8734 164.631,-82.057 173.857,-74.1703"/>
<polygon fill="#63b8ff" stroke="#63b8ff" points="137.288,-100.826 131.961,-109.985 141.837,-106.147 137.288,-100.826"/>
</a>
</g>
</g>
<!-- Node4 -->
<g id="Node000004" class="node"><title>Node4</title>
<g id="a_Node000004"><a xlink:href="main_8c.html" target="_top" xlink:title="Hlavní program testující API výkonnějších metod třídění">
<polygon fill="white" stroke="#666666" points="207,-19 161,-19 161,-0 207,-0 207,-19"/>
<text text-anchor="middle" x="184" y="-7" font-family="Helvetica,sans-Serif" font-size="10.00">main.c</text>
</a>
</g>
</g>
<!-- Node3&#45;&gt;Node4 -->
<g id="edge3_Node000003_Node000004" class="edge"><title>Node3&#45;&gt;Node4</title>
<g id="a_edge3_Node000003_Node000004"><a xlink:title=" ">
<path fill="none" stroke="#63b8ff" d="M184,-44.66C184,-35.9304 184,-25.9876 184,-19.089"/>
<polygon fill="#63b8ff" stroke="#63b8ff" points="180.5,-44.7481 184,-54.7481 187.5,-44.7482 180.5,-44.7481"/>
</a>
</g>
</g>
</g>
</svg>
