<?xml version="1.0" encoding="UTF-8" standalone="no"?>
<!DOCTYPE svg PUBLIC "-//W3C//DTD SVG 1.1//EN"
 "http://www.w3.org/Graphics/SVG/1.1/DTD/svg11.dtd">
<!-- Generated by graphviz version 2.38.0 (20140413.2041)
 -->
<!-- Title: powerful_sorts.h Pages: 1 -->
<svg width="458pt" height="247pt"
 viewBox="0.00 0.00 458.00 247.00" xmlns="http://www.w3.org/2000/svg" xmlns:xlink="http://www.w3.org/1999/xlink">
<g id="graph0" class="graph" transform="scale(1 1) rotate(0) translate(4 243)">
<title>powerful_sorts.h</title>
<!-- Node1 -->
<g id="Node000001" class="node"><title>Node1</title>
<g id="a_Node000001"><a xlink:title="Deklarace API výkonnějších metod třídění">
<polygon fill="#999999" stroke="#666666" points="255.5,-239 168.5,-239 168.5,-220 255.5,-220 255.5,-239"/>
<text text-anchor="middle" x="212" y="-227" font-family="Helvetica,sans-Serif" font-size="10.00">powerful_sorts.h</text>
</a>
</g>
</g>
<!-- Node2 -->
<g id="Node000002" class="node"><title>Node2</title>
<g id="a_Node000002"><a xlink:href="heap__sort_8h.html" target="_top" xlink:title="Deklarace API výkonnější metody třídění (Heap sort), využívající poziční API pro přístup k uzlům hald...">
<polygon fill="white" stroke="#666666" points="68,-184 0,-184 0,-165 68,-165 68,-184"/>
<text text-anchor="middle" x="34" y="-172" font-family="Helvetica,sans-Serif" font-size="10.00">heap_sort.h</text>
</a>
</g>
</g>
<!-- Node1&#45;&gt;Node2 -->
<g id="edge1_Node000001_Node000002" class="edge"><title>Node1&#45;&gt;Node2</title>
<g id="a_edge1_Node000001_Node000002"><a xlink:title=" ">
<path fill="none" stroke="#63b8ff" d="M183.401,-219.985C153.388,-211.048 106.022,-196.945 72.684,-187.018"/>
<polygon fill="#63b8ff" stroke="#63b8ff" points="73.4059,-183.581 62.8229,-184.082 71.4083,-190.29 73.4059,-183.581"/>
</a>
</g>
</g>
<!-- Node11 -->
<g id="Node000011" class="node"><title>Node11</title>
<g id="a_Node000011"><a xlink:href="heap__sort__with__iterators_8h.html" target="_top" xlink:title="Deklarace API výkonnější metody třídění (Heap sort), využívající iterátorové API pro přístup k uzlům ...">
<polygon fill="white" stroke="#666666" points="217.5,-184 86.5,-184 86.5,-165 217.5,-165 217.5,-184"/>
<text text-anchor="middle" x="152" y="-172" font-family="Helvetica,sans-Serif" font-size="10.00">heap_sort_with_iterators.h</text>
</a>
</g>
</g>
<!-- Node1&#45;&gt;Node11 -->
<g id="edge13_Node000001_Node000011" class="edge"><title>Node1&#45;&gt;Node11</title>
<g id="a_edge13_Node000001_Node000011"><a xlink:title=" ">
<path fill="none" stroke="#63b8ff" d="M202.36,-219.985C193.49,-212.15 180.125,-200.344 169.392,-190.863"/>
<polygon fill="#63b8ff" stroke="#63b8ff" points="171.627,-188.168 161.815,-184.17 166.993,-193.414 171.627,-188.168"/>
</a>
</g>
</g>
<!-- Node12 -->
<g id="Node000012" class="node"><title>Node12</title>
<g id="a_Node000012"><a xlink:href="merge__sort_8h.html" target="_top" xlink:title="Deklarace API výkonnější metody třídění slučováním (Merge sort), využívající rekurzi.">
<polygon fill="white" stroke="#666666" points="310,-184 236,-184 236,-165 310,-165 310,-184"/>
<text text-anchor="middle" x="273" y="-172" font-family="Helvetica,sans-Serif" font-size="10.00">merge_sort.h</text>
</a>
</g>
</g>
<!-- Node1&#45;&gt;Node12 -->
<g id="edge15_Node000001_Node000012" class="edge"><title>Node1&#45;&gt;Node12</title>
<g id="a_edge15_Node000001_Node000012"><a xlink:title=" ">
<path fill="none" stroke="#63b8ff" d="M221.801,-219.985C230.818,-212.15 244.406,-200.344 255.318,-190.863"/>
<polygon fill="#63b8ff" stroke="#63b8ff" points="257.768,-193.371 263.021,-184.17 253.177,-188.087 257.768,-193.371"/>
</a>
</g>
</g>
<!-- Node13 -->
<g id="Node000013" class="node"><title>Node13</title>
<g id="a_Node000013"><a xlink:href="merge__sort__with__span_8h.html" target="_top" xlink:title="Deklarace API výkonnější metody třídění slučováním (Merge sort), využívající rekurzi a datový typ Spa...">
<polygon fill="white" stroke="#666666" points="450,-184 328,-184 328,-165 450,-165 450,-184"/>
<text text-anchor="middle" x="389" y="-172" font-family="Helvetica,sans-Serif" font-size="10.00">merge_sort_with_span.h</text>
</a>
</g>
</g>
<!-- Node1&#45;&gt;Node13 -->
<g id="edge17_Node000001_Node000013" class="edge"><title>Node1&#45;&gt;Node13</title>
<g id="a_edge17_Node000001_Node000013"><a xlink:title=" ">
<path fill="none" stroke="#63b8ff" d="M240.438,-219.985C270.283,-211.048 317.383,-196.945 350.533,-187.018"/>
<polygon fill="#63b8ff" stroke="#63b8ff" points="351.763,-190.304 360.339,-184.082 349.755,-183.598 351.763,-190.304"/>
</a>
</g>
</g>
<!-- Node3 -->
<g id="Node000003" class="node"><title>Node3</title>
<g id="a_Node000003"><a xlink:href="_t_vector_8h.html" target="_top" xlink:title="Definice typu Sortable Vector with shareable sortstats.">
<polygon fill="white" stroke="#666666" points="241.5,-129 182.5,-129 182.5,-110 241.5,-110 241.5,-129"/>
<text text-anchor="middle" x="212" y="-117" font-family="Helvetica,sans-Serif" font-size="10.00">TVector.h</text>
</a>
</g>
</g>
<!-- Node2&#45;&gt;Node3 -->
<g id="edge2_Node000002_Node000003" class="edge"><title>Node2&#45;&gt;Node3</title>
<g id="a_edge2_Node000002_Node000003"><a xlink:title=" ">
<path fill="none" stroke="#63b8ff" d="M62.5988,-164.985C92.6124,-156.048 139.978,-141.945 173.316,-132.018"/>
<polygon fill="#63b8ff" stroke="#63b8ff" points="174.592,-135.29 183.177,-129.082 172.594,-128.581 174.592,-135.29"/>
</a>
</g>
</g>
<!-- Node4 -->
<g id="Node000004" class="node"><title>Node4</title>
<g id="a_Node000004"><a xlink:title=" ">
<polygon fill="#e0e0e0" stroke="#999999" points="92,-19 46,-19 46,-0 92,-0 92,-19"/>
<text text-anchor="middle" x="69" y="-7" font-family="Helvetica,sans-Serif" font-size="10.00">stdio.h</text>
</a>
</g>
</g>
<!-- Node3&#45;&gt;Node4 -->
<g id="edge3_Node000003_Node000004" class="edge"><title>Node3&#45;&gt;Node4</title>
<g id="a_edge3_Node000003_Node000004"><a xlink:title=" ">
<path fill="none" stroke="#63b8ff" d="M197.343,-109.85C183.104,-101.262 161.051,-87.4679 143,-74 122.584,-58.7676 100.603,-39.504 85.9494,-26.2104"/>
<polygon fill="#63b8ff" stroke="#63b8ff" points="87.9752,-23.3197 78.2359,-19.1488 83.2484,-28.4829 87.9752,-23.3197"/>
</a>
</g>
</g>
<!-- Node5 -->
<g id="Node000005" class="node"><title>Node5</title>
<g id="a_Node000005"><a xlink:title=" ">
<polygon fill="#e0e0e0" stroke="#999999" points="166,-19 110,-19 110,-0 166,-0 166,-19"/>
<text text-anchor="middle" x="138" y="-7" font-family="Helvetica,sans-Serif" font-size="10.00">stdbool.h</text>
</a>
</g>
</g>
<!-- Node3&#45;&gt;Node5 -->
<g id="edge4_Node000003_Node000005" class="edge"><title>Node3&#45;&gt;Node5</title>
<g id="a_edge4_Node000003_Node000005"><a xlink:title=" ">
<path fill="none" stroke="#63b8ff" d="M195.862,-109.851C182.941,-102.114 165.326,-89.598 155,-74 146.043,-60.469 141.791,-42.3796 139.781,-28.9696"/>
<polygon fill="#63b8ff" stroke="#63b8ff" points="143.251,-28.5112 138.566,-19.0086 136.303,-29.3589 143.251,-28.5112"/>
</a>
</g>
</g>
<!-- Node6 -->
<g id="Node000006" class="node"><title>Node6</title>
<g id="a_Node000006"><a xlink:title=" ">
<polygon fill="#e0e0e0" stroke="#999999" points="367.5,-74 316.5,-74 316.5,-55 367.5,-55 367.5,-74"/>
<text text-anchor="middle" x="342" y="-62" font-family="Helvetica,sans-Serif" font-size="10.00">stddef.h</text>
</a>
</g>
</g>
<!-- Node3&#45;&gt;Node6 -->
<g id="edge5_Node000003_Node000006" class="edge"><title>Node3&#45;&gt;Node6</title>
<g id="a_edge5_Node000003_Node000006"><a xlink:title=" ">
<path fill="none" stroke="#63b8ff" d="M232.887,-109.985C254.082,-101.343 287.127,-87.8713 311.301,-78.0158"/>
<polygon fill="#63b8ff" stroke="#63b8ff" points="312.795,-81.1866 320.733,-74.1703 310.152,-74.7046 312.795,-81.1866"/>
</a>
</g>
</g>
<!-- Node7 -->
<g id="Node000007" class="node"><title>Node7</title>
<g id="a_Node000007"><a xlink:href="_t_vector_element_8h.html" target="_top" xlink:title="Definice typu Basic VectorElement a implementace API.">
<polygon fill="white" stroke="#666666" points="259.5,-74 164.5,-74 164.5,-55 259.5,-55 259.5,-74"/>
<text text-anchor="middle" x="212" y="-62" font-family="Helvetica,sans-Serif" font-size="10.00">TVectorElement.h</text>
</a>
</g>
</g>
<!-- Node3&#45;&gt;Node7 -->
<g id="edge6_Node000003_Node000007" class="edge"><title>Node3&#45;&gt;Node7</title>
<g id="a_edge6_Node000003_Node000007"><a xlink:title=" ">
<path fill="none" stroke="#63b8ff" d="M212,-109.748C212,-102.802 212,-92.8451 212,-84.1349"/>
<polygon fill="#63b8ff" stroke="#63b8ff" points="215.5,-84.089 212,-74.089 208.5,-84.0891 215.5,-84.089"/>
</a>
</g>
</g>
<!-- Node10 -->
<g id="Node000010" class="node"><title>Node10</title>
<g id="a_Node000010"><a xlink:title=" ">
<polygon fill="#e0e0e0" stroke="#999999" points="371.5,-19 320.5,-19 320.5,-0 371.5,-0 371.5,-19"/>
<text text-anchor="middle" x="346" y="-7" font-family="Helvetica,sans-Serif" font-size="10.00">check.h</text>
</a>
</g>
</g>
<!-- Node3&#45;&gt;Node10 -->
<g id="edge12_Node000003_Node000010" class="edge"><title>Node3&#45;&gt;Node10</title>
<g id="a_edge12_Node000003_Node000010"><a xlink:title=" ">
<path fill="none" stroke="#63b8ff" d="M223.187,-109.673C234.513,-100.722 252.518,-86.4528 268,-74 288.435,-57.5633 311.739,-38.5569 327.512,-25.6532"/>
<polygon fill="#63b8ff" stroke="#63b8ff" points="329.914,-28.2103 335.435,-19.1673 325.48,-22.794 329.914,-28.2103"/>
</a>
</g>
</g>
<!-- Node7&#45;&gt;Node4 -->
<g id="edge7_Node000007_Node000004" class="edge"><title>Node7&#45;&gt;Node4</title>
<g id="a_edge7_Node000007_Node000004"><a xlink:title=" ">
<path fill="none" stroke="#63b8ff" d="M189.025,-54.9846C165.502,-46.2665 128.713,-32.6314 102.062,-22.7539"/>
<polygon fill="#63b8ff" stroke="#63b8ff" points="102.987,-19.3638 92.3935,-19.1703 100.554,-25.9275 102.987,-19.3638"/>
</a>
</g>
</g>
<!-- Node7&#45;&gt;Node5 -->
<g id="edge9_Node000007_Node000005" class="edge"><title>Node7&#45;&gt;Node5</title>
<g id="a_edge9_Node000007_Node000005"><a xlink:title=" ">
<path fill="none" stroke="#63b8ff" d="M200.111,-54.9846C188.85,-46.9194 171.713,-34.6461 158.291,-25.0327"/>
<polygon fill="#63b8ff" stroke="#63b8ff" points="160.274,-22.1476 150.106,-19.1703 156.198,-27.8386 160.274,-22.1476"/>
</a>
</g>
</g>
<!-- Node8 -->
<g id="Node000008" class="node"><title>Node8</title>
<g id="a_Node000008"><a xlink:title=" ">
<polygon fill="#e0e0e0" stroke="#999999" points="302,-19 254,-19 254,-0 302,-0 302,-19"/>
<text text-anchor="middle" x="278" y="-7" font-family="Helvetica,sans-Serif" font-size="10.00">stdlib.h</text>
</a>
</g>
</g>
<!-- Node7&#45;&gt;Node8 -->
<g id="edge8_Node000007_Node000008" class="edge"><title>Node7&#45;&gt;Node8</title>
<g id="a_edge8_Node000007_Node000008"><a xlink:title=" ">
<path fill="none" stroke="#63b8ff" d="M222.604,-54.9846C232.456,-47.0731 247.351,-35.1121 259.215,-25.5848"/>
<polygon fill="#63b8ff" stroke="#63b8ff" points="261.597,-28.1607 267.203,-19.1703 257.214,-22.7027 261.597,-28.1607"/>
</a>
</g>
</g>
<!-- Node9 -->
<g id="Node000009" class="node"><title>Node9</title>
<g id="a_Node000009"><a xlink:title=" ">
<polygon fill="#e0e0e0" stroke="#999999" points="236,-19 184,-19 184,-0 236,-0 236,-19"/>
<text text-anchor="middle" x="210" y="-7" font-family="Helvetica,sans-Serif" font-size="10.00">assert.h</text>
</a>
</g>
</g>
<!-- Node7&#45;&gt;Node9 -->
<g id="edge10_Node000007_Node000009" class="edge"><title>Node7&#45;&gt;Node9</title>
<g id="a_edge10_Node000007_Node000009"><a xlink:title=" ">
<path fill="none" stroke="#63b8ff" d="M211.67,-54.7481C211.408,-47.8021 211.032,-37.8451 210.703,-29.1349"/>
<polygon fill="#63b8ff" stroke="#63b8ff" points="214.199,-28.9499 210.324,-19.089 207.204,-29.2139 214.199,-28.9499"/>
</a>
</g>
</g>
<!-- Node7&#45;&gt;Node10 -->
<g id="edge11_Node000007_Node000010" class="edge"><title>Node7&#45;&gt;Node10</title>
<g id="a_edge11_Node000007_Node000010"><a xlink:title=" ">
<path fill="none" stroke="#63b8ff" d="M233.529,-54.9846C255.474,-46.305 289.742,-32.7515 314.688,-22.8847"/>
<polygon fill="#63b8ff" stroke="#63b8ff" points="316.067,-26.103 324.079,-19.1703 313.492,-19.5937 316.067,-26.103"/>
</a>
</g>
</g>
<!-- Node11&#45;&gt;Node3 -->
<g id="edge14_Node000011_Node000003" class="edge"><title>Node11&#45;&gt;Node3</title>
<g id="a_edge14_Node000011_Node000003"><a xlink:title=" ">
<path fill="none" stroke="#63b8ff" d="M161.64,-164.985C170.51,-157.15 183.875,-145.344 194.608,-135.863"/>
<polygon fill="#63b8ff" stroke="#63b8ff" points="197.007,-138.414 202.185,-129.17 192.373,-133.168 197.007,-138.414"/>
</a>
</g>
</g>
<!-- Node12&#45;&gt;Node3 -->
<g id="edge16_Node000012_Node000003" class="edge"><title>Node12&#45;&gt;Node3</title>
<g id="a_edge16_Node000012_Node000003"><a xlink:title=" ">
<path fill="none" stroke="#63b8ff" d="M263.199,-164.985C254.182,-157.15 240.594,-145.344 229.682,-135.863"/>
<polygon fill="#63b8ff" stroke="#63b8ff" points="231.823,-133.087 221.979,-129.17 227.232,-138.371 231.823,-133.087"/>
</a>
</g>
</g>
<!-- Node13&#45;&gt;Node3 -->
<g id="edge18_Node000013_Node000003" class="edge"><title>Node13&#45;&gt;Node3</title>
<g id="a_edge18_Node000013_Node000003"><a xlink:title=" ">
<path fill="none" stroke="#63b8ff" d="M360.562,-164.985C330.717,-156.048 283.617,-141.945 250.467,-132.018"/>
<polygon fill="#63b8ff" stroke="#63b8ff" points="251.245,-128.598 240.661,-129.082 249.237,-135.304 251.245,-128.598"/>
</a>
</g>
</g>
</g>
</svg>
