<?xml version="1.0" encoding="UTF-8" standalone="no"?>
<!DOCTYPE svg PUBLIC "-//W3C//DTD SVG 1.1//EN"
 "http://www.w3.org/Graphics/SVG/1.1/DTD/svg11.dtd">
<!-- Generated by graphviz version 2.38.0 (20140413.2041)
 -->
<!-- Title: TVectorSortStats Pages: 1 -->
<svg width="132pt" height="240pt"
 viewBox="0.00 0.00 132.00 240.00" xmlns="http://www.w3.org/2000/svg" xmlns:xlink="http://www.w3.org/1999/xlink">
<g id="graph0" class="graph" transform="scale(1 1) rotate(0) translate(4 236)">
<title>TVectorSortStats</title>
<!-- Node1 -->
<g id="Node000001" class="node"><title>Node1</title>
<g id="a_Node000001"><a xlink:title="Definice typu VectorSortStats.">
<polygon fill="#999999" stroke="#666666" points="113,-57 11,-57 11,-0 113,-0 113,-57"/>
<text text-anchor="start" x="24" y="-40.5" font-family="Helvetica,sans-Serif" font-size="10.00">TVectorSortStats</text>
<text text-anchor="start" x="60" y="-25.5" font-family="Helvetica,sans-Serif" font-size="10.00"> </text>
<text text-anchor="start" x="60" y="-10.5" font-family="Helvetica,sans-Serif" font-size="10.00"> </text>
<polygon fill="#666666" stroke="#666666" points="19,-35.5 19,-35.5 105,-35.5 105,-35.5 19,-35.5"/>
<polygon fill="#666666" stroke="#666666" points="19,-20.5 19,-20.5 105,-20.5 105,-20.5 19,-20.5"/>
<polygon fill="none" stroke="#666666" points="19,-4 19,-53 105,-53 105,-4 19,-4"/>
</a>
</g>
</g>
<!-- Node2 -->
<g id="Node000002" class="node"><title>Node2</title>
<g id="a_Node000002"><a xlink:href="group__sortable___t_vector.html#struct_t_vector_sort_stats_item" target="_top" xlink:title="Definice typu VectorSortStatItem.">
<polygon fill="white" stroke="#666666" points="124,-232 0,-232 0,-115 124,-115 124,-232"/>
<text text-anchor="start" x="15" y="-215.5" font-family="Helvetica,sans-Serif" font-size="10.00">TVectorSortStatsItem</text>
<text text-anchor="start" x="12" y="-200.5" font-family="Helvetica,sans-Serif" font-size="10.00">+</text>
<text text-anchor="start" x="23" y="-200.5" font-family="Helvetica,sans-Serif" font-size="10.00">size_t iComparisons</text>
<text text-anchor="start" x="12" y="-185.5" font-family="Helvetica,sans-Serif" font-size="10.00">+</text>
<text text-anchor="start" x="23" y="-185.5" font-family="Helvetica,sans-Serif" font-size="10.00">size_t iSwaps</text>
<text text-anchor="start" x="12" y="-170.5" font-family="Helvetica,sans-Serif" font-size="10.00">+</text>
<text text-anchor="start" x="23" y="-170.5" font-family="Helvetica,sans-Serif" font-size="10.00">size_t iMoves</text>
<text text-anchor="start" x="12" y="-155.5" font-family="Helvetica,sans-Serif" font-size="10.00">+</text>
<text text-anchor="start" x="23" y="-155.5" font-family="Helvetica,sans-Serif" font-size="10.00">size_t iGets</text>
<text text-anchor="start" x="12" y="-140.5" font-family="Helvetica,sans-Serif" font-size="10.00">+</text>
<text text-anchor="start" x="23" y="-140.5" font-family="Helvetica,sans-Serif" font-size="10.00">size_t iSets</text>
<text text-anchor="start" x="60" y="-125.5" font-family="Helvetica,sans-Serif" font-size="10.00"> </text>
<polygon fill="#666666" stroke="#666666" points="8,-210.5 8,-210.5 116,-210.5 116,-210.5 8,-210.5"/>
<polygon fill="#666666" stroke="#666666" points="8,-135.5 8,-135.5 21,-135.5 21,-135.5 8,-135.5"/>
<polygon fill="#666666" stroke="#666666" points="21,-135.5 21,-135.5 116,-135.5 116,-135.5 21,-135.5"/>
<polygon fill="none" stroke="#666666" points="8,-119 8,-228 116,-228 116,-119 8,-119"/>
</a>
</g>
</g>
<!-- Node2&#45;&gt;Node1 -->
<g id="edge1_Node000001_Node000002" class="edge"><title>Node2&#45;&gt;Node1</title>
<g id="a_edge1_Node000001_Node000002"><a xlink:title=" ">
<path fill="none" stroke="#63b8ff" d="M62,-114.749C62,-99.5556 62,-83.502 62,-69.4731"/>
<polygon fill="none" stroke="#63b8ff" points="62.0001,-69.2414 58,-63.2414 62,-57.2414 66,-63.2414 62.0001,-69.2414"/>
</a>
</g>
<text text-anchor="middle" x="90" y="-89" font-family="Helvetica,sans-Serif" font-size="10.00" fill="grey"> +iByIterator</text>
<text text-anchor="middle" x="90" y="-78" font-family="Helvetica,sans-Serif" font-size="10.00" fill="grey">+iByPosition</text>
</g>
</g>
</svg>
