<?xml version="1.0" encoding="UTF-8" standalone="no"?>
<!DOCTYPE svg PUBLIC "-//W3C//DTD SVG 1.1//EN"
 "http://www.w3.org/Graphics/SVG/1.1/DTD/svg11.dtd">
<!-- Generated by graphviz version 2.38.0 (20140413.2041)
 -->
<!-- Title: THeap Pages: 1 -->
<svg width="155pt" height="478pt"
 viewBox="0.00 0.00 155.00 478.00" xmlns="http://www.w3.org/2000/svg" xmlns:xlink="http://www.w3.org/1999/xlink">
<g id="graph0" class="graph" transform="scale(1 1) rotate(0) translate(4 474)">
<title>THeap</title>
<!-- Node1 -->
<g id="Node000001" class="node"><title>Node1</title>
<g id="a_Node000001"><a xlink:title="Definice typu Heap.">
<polygon fill="#999999" stroke="#666666" points="133.5,-57 13.5,-57 13.5,-0 133.5,-0 133.5,-57"/>
<text text-anchor="start" x="59.5" y="-40.5" font-family="Helvetica,sans-Serif" font-size="10.00">THeap</text>
<text text-anchor="start" x="25.5" y="-25.5" font-family="Helvetica,sans-Serif" font-size="10.00">+</text>
<text text-anchor="start" x="36.5" y="-25.5" font-family="Helvetica,sans-Serif" font-size="10.00">size_t iOriginalSize</text>
<text text-anchor="start" x="71.5" y="-10.5" font-family="Helvetica,sans-Serif" font-size="10.00"> </text>
<polygon fill="#666666" stroke="#666666" points="21.5,-35.5 21.5,-35.5 125.5,-35.5 125.5,-35.5 21.5,-35.5"/>
<polygon fill="#666666" stroke="#666666" points="21.5,-20.5 21.5,-20.5 34.5,-20.5 34.5,-20.5 21.5,-20.5"/>
<polygon fill="#666666" stroke="#666666" points="34.5,-20.5 34.5,-20.5 125.5,-20.5 125.5,-20.5 34.5,-20.5"/>
<polygon fill="none" stroke="#666666" points="21.5,-4 21.5,-53 125.5,-53 125.5,-4 21.5,-4"/>
</a>
</g>
</g>
<!-- Node2 -->
<g id="Node000002" class="node"><title>Node2</title>
<g id="a_Node000002"><a xlink:href="group___t_vector.html#struct_t_vector" target="_top" xlink:title="Definice typu Vector.">
<polygon fill="white" stroke="#666666" points="147,-191 0,-191 0,-104 147,-104 147,-191"/>
<text text-anchor="start" x="57" y="-174.5" font-family="Helvetica,sans-Serif" font-size="10.00">TVector</text>
<text text-anchor="start" x="12.5" y="-159.5" font-family="Helvetica,sans-Serif" font-size="10.00">+</text>
<text text-anchor="start" x="23.5" y="-159.5" font-family="Helvetica,sans-Serif" font-size="10.00">TVectorElement * iValues</text>
<text text-anchor="start" x="12.5" y="-144.5" font-family="Helvetica,sans-Serif" font-size="10.00">+</text>
<text text-anchor="start" x="23.5" y="-144.5" font-family="Helvetica,sans-Serif" font-size="10.00">size_t iSize</text>
<text text-anchor="start" x="12.5" y="-129.5" font-family="Helvetica,sans-Serif" font-size="10.00">+</text>
<text text-anchor="start" x="23.5" y="-129.5" font-family="Helvetica,sans-Serif" font-size="10.00">bool iStatsAttached</text>
<text text-anchor="start" x="72" y="-114.5" font-family="Helvetica,sans-Serif" font-size="10.00"> </text>
<polygon fill="#666666" stroke="#666666" points="8.5,-169.5 8.5,-169.5 139.5,-169.5 139.5,-169.5 8.5,-169.5"/>
<polygon fill="#666666" stroke="#666666" points="8.5,-124.5 8.5,-124.5 21.5,-124.5 21.5,-124.5 8.5,-124.5"/>
<polygon fill="#666666" stroke="#666666" points="21.5,-124.5 21.5,-124.5 139.5,-124.5 139.5,-124.5 21.5,-124.5"/>
<polygon fill="none" stroke="#666666" points="8,-108 8,-187 139,-187 139,-108 8,-108"/>
</a>
</g>
</g>
<!-- Node2&#45;&gt;Node1 -->
<g id="edge1_Node000001_Node000002" class="edge"><title>Node2&#45;&gt;Node1</title>
<g id="a_edge1_Node000001_Node000002"><a xlink:title=" ">
<path fill="none" stroke="#63b8ff" d="M73.5,-103.929C73.5,-92.6309 73.5,-80.4744 73.5,-69.3282"/>
<polygon fill="none" stroke="#63b8ff" points="73.5001,-69.2726 69.5,-63.2726 73.5,-57.2726 77.5,-63.2725 73.5001,-69.2726"/>
</a>
</g>
<text text-anchor="middle" x="93.5" y="-78" font-family="Helvetica,sans-Serif" font-size="10.00" fill="grey"> +iVector</text>
</g>
<!-- Node3 -->
<g id="Node000003" class="node"><title>Node3</title>
<g id="a_Node000003"><a xlink:href="group__sortable___t_vector.html#struct_t_vector_sort_stats" target="_top" xlink:title="Definice typu VectorSortStats.">
<polygon fill="white" stroke="#666666" points="124.5,-295 22.5,-295 22.5,-238 124.5,-238 124.5,-295"/>
<text text-anchor="start" x="35.5" y="-278.5" font-family="Helvetica,sans-Serif" font-size="10.00">TVectorSortStats</text>
<text text-anchor="start" x="71.5" y="-263.5" font-family="Helvetica,sans-Serif" font-size="10.00"> </text>
<text text-anchor="start" x="71.5" y="-248.5" font-family="Helvetica,sans-Serif" font-size="10.00"> </text>
<polygon fill="#666666" stroke="#666666" points="30.5,-273.5 30.5,-273.5 116.5,-273.5 116.5,-273.5 30.5,-273.5"/>
<polygon fill="#666666" stroke="#666666" points="30.5,-258.5 30.5,-258.5 116.5,-258.5 116.5,-258.5 30.5,-258.5"/>
<polygon fill="none" stroke="#666666" points="30.5,-242 30.5,-291 116.5,-291 116.5,-242 30.5,-242"/>
</a>
</g>
</g>
<!-- Node3&#45;&gt;Node2 -->
<g id="edge2_Node000002_Node000003" class="edge"><title>Node3&#45;&gt;Node2</title>
<g id="a_edge2_Node000002_Node000003"><a xlink:title=" ">
<path fill="none" stroke="#63b8ff" d="M73.5,-237.773C73.5,-227.441 73.5,-215.319 73.5,-203.398"/>
<polygon fill="none" stroke="#63b8ff" points="73.5001,-203.13 69.5,-197.13 73.5,-191.13 77.5,-197.13 73.5001,-203.13"/>
</a>
</g>
<text text-anchor="middle" x="91" y="-212" font-family="Helvetica,sans-Serif" font-size="10.00" fill="grey"> +iStats</text>
</g>
<!-- Node4 -->
<g id="Node000004" class="node"><title>Node4</title>
<g id="a_Node000004"><a xlink:href="group__sortable___t_vector.html#struct_t_vector_sort_stats_item" target="_top" xlink:title="Definice typu VectorSortStatItem.">
<polygon fill="white" stroke="#666666" points="135.5,-470 11.5,-470 11.5,-353 135.5,-353 135.5,-470"/>
<text text-anchor="start" x="26.5" y="-453.5" font-family="Helvetica,sans-Serif" font-size="10.00">TVectorSortStatsItem</text>
<text text-anchor="start" x="23.5" y="-438.5" font-family="Helvetica,sans-Serif" font-size="10.00">+</text>
<text text-anchor="start" x="34.5" y="-438.5" font-family="Helvetica,sans-Serif" font-size="10.00">size_t iComparisons</text>
<text text-anchor="start" x="23.5" y="-423.5" font-family="Helvetica,sans-Serif" font-size="10.00">+</text>
<text text-anchor="start" x="34.5" y="-423.5" font-family="Helvetica,sans-Serif" font-size="10.00">size_t iSwaps</text>
<text text-anchor="start" x="23.5" y="-408.5" font-family="Helvetica,sans-Serif" font-size="10.00">+</text>
<text text-anchor="start" x="34.5" y="-408.5" font-family="Helvetica,sans-Serif" font-size="10.00">size_t iMoves</text>
<text text-anchor="start" x="23.5" y="-393.5" font-family="Helvetica,sans-Serif" font-size="10.00">+</text>
<text text-anchor="start" x="34.5" y="-393.5" font-family="Helvetica,sans-Serif" font-size="10.00">size_t iGets</text>
<text text-anchor="start" x="23.5" y="-378.5" font-family="Helvetica,sans-Serif" font-size="10.00">+</text>
<text text-anchor="start" x="34.5" y="-378.5" font-family="Helvetica,sans-Serif" font-size="10.00">size_t iSets</text>
<text text-anchor="start" x="71.5" y="-363.5" font-family="Helvetica,sans-Serif" font-size="10.00"> </text>
<polygon fill="#666666" stroke="#666666" points="19.5,-448.5 19.5,-448.5 127.5,-448.5 127.5,-448.5 19.5,-448.5"/>
<polygon fill="#666666" stroke="#666666" points="19.5,-373.5 19.5,-373.5 32.5,-373.5 32.5,-373.5 19.5,-373.5"/>
<polygon fill="#666666" stroke="#666666" points="32.5,-373.5 32.5,-373.5 127.5,-373.5 127.5,-373.5 32.5,-373.5"/>
<polygon fill="none" stroke="#666666" points="19.5,-357 19.5,-466 127.5,-466 127.5,-357 19.5,-357"/>
</a>
</g>
</g>
<!-- Node4&#45;&gt;Node3 -->
<g id="edge3_Node000003_Node000004" class="edge"><title>Node4&#45;&gt;Node3</title>
<g id="a_edge3_Node000003_Node000004"><a xlink:title=" ">
<path fill="none" stroke="#63b8ff" d="M73.5,-352.749C73.5,-337.556 73.5,-321.502 73.5,-307.473"/>
<polygon fill="none" stroke="#63b8ff" points="73.5001,-307.241 69.5,-301.241 73.5,-295.241 77.5,-301.241 73.5001,-307.241"/>
</a>
</g>
<text text-anchor="middle" x="101.5" y="-327" font-family="Helvetica,sans-Serif" font-size="10.00" fill="grey"> +iByIterator</text>
<text text-anchor="middle" x="101.5" y="-316" font-family="Helvetica,sans-Serif" font-size="10.00" fill="grey">+iByPosition</text>
</g>
</g>
</svg>
