<?xml version="1.0" encoding="UTF-8" standalone="no"?>
<!DOCTYPE svg PUBLIC "-//W3C//DTD SVG 1.1//EN"
 "http://www.w3.org/Graphics/SVG/1.1/DTD/svg11.dtd">
<!-- Generated by graphviz version 2.38.0 (20140413.2041)
 -->
<!-- Title: main Pages: 1 -->
<svg width="494pt" height="428pt"
 viewBox="0.00 0.00 494.00 428.17" xmlns="http://www.w3.org/2000/svg" xmlns:xlink="http://www.w3.org/1999/xlink">
<g id="graph0" class="graph" transform="scale(1 1) rotate(0) translate(4 424.168)">
<title>main</title>
<!-- Node1 -->
<g id="Node000001" class="node"><title>Node1</title>
<g id="a_Node000001"><a xlink:title=" ">
<polygon fill="#999999" stroke="#666666" points="38,-202.59 0,-202.59 0,-183.59 38,-183.59 38,-202.59"/>
<text text-anchor="middle" x="19" y="-190.59" font-family="Helvetica,sans-Serif" font-size="10.00">main</text>
</a>
</g>
</g>
<!-- Node2 -->
<g id="Node000002" class="node"><title>Node2</title>
<g id="a_Node000002"><a xlink:href="group___main_program.html#ga367aadf6f2e33e86efe4a50daff32e81" target="_top" xlink:title="Testování API Stack.">
<polygon fill="white" stroke="#666666" points="215,-278.59 74,-278.59 74,-259.59 215,-259.59 215,-278.59"/>
<text text-anchor="middle" x="144.5" y="-266.59" font-family="Helvetica,sans-Serif" font-size="10.00">demo_tiskni_slova_pozpatku</text>
</a>
</g>
</g>
<!-- Node1&#45;&gt;Node2 -->
<g id="edge1_Node000001_Node000002" class="edge"><title>Node1&#45;&gt;Node2</title>
<g id="a_edge1_Node000001_Node000002"><a xlink:title=" ">
<path fill="none" stroke="#63b8ff" d="M27.7998,-202.84C37.5101,-214.395 55.1318,-233.534 74,-245.09 80.9652,-249.355 88.7903,-252.988 96.6103,-256.038"/>
<polygon fill="#63b8ff" stroke="#63b8ff" points="95.4942,-259.356 106.088,-259.472 97.8787,-252.774 95.4942,-259.356"/>
</a>
</g>
</g>
<!-- Node3 -->
<g id="Node000003" class="node"><title>Node3</title>
<g id="a_Node000003"><a xlink:href="group___t_stack.html#ga543615a4df26ed863b9e92228b69d04a" target="_top" xlink:title="Deinicializace zásobníku.">
<polygon fill="white" stroke="#666666" points="346.5,-390.59 268.5,-390.59 268.5,-371.59 346.5,-371.59 346.5,-390.59"/>
<text text-anchor="middle" x="307.5" y="-378.59" font-family="Helvetica,sans-Serif" font-size="10.00">stack_destroy</text>
</a>
</g>
</g>
<!-- Node1&#45;&gt;Node3 -->
<g id="edge11_Node000001_Node000003" class="edge"><title>Node1&#45;&gt;Node3</title>
<g id="a_edge11_Node000001_Node000003"><a xlink:title=" ">
<path fill="none" stroke="#63b8ff" d="M20.9247,-202.944C23.8089,-227.84 34.9386,-293.653 74,-327.09 125.688,-371.334 206.712,-381.038 258.181,-382.307"/>
<polygon fill="#63b8ff" stroke="#63b8ff" points="258.327,-385.81 268.378,-382.458 258.431,-378.81 258.327,-385.81"/>
</a>
</g>
</g>
<!-- Node4 -->
<g id="Node000004" class="node"><title>Node4</title>
<g id="a_Node000004"><a xlink:href="group___t_stack.html#ga22a9f4ad0c450cdbbfb7546493b1f781" target="_top" xlink:title="Inicializace prázdného zásobníku.">
<polygon fill="white" stroke="#666666" points="472.5,-390.59 413.5,-390.59 413.5,-371.59 472.5,-371.59 472.5,-390.59"/>
<text text-anchor="middle" x="443" y="-378.59" font-family="Helvetica,sans-Serif" font-size="10.00">stack_init</text>
</a>
</g>
</g>
<!-- Node1&#45;&gt;Node4 -->
<g id="edge12_Node000001_Node000004" class="edge"><title>Node1&#45;&gt;Node4</title>
<g id="a_edge12_Node000001_Node000004"><a xlink:title=" ">
<path fill="none" stroke="#63b8ff" d="M19.7666,-202.859C19.6265,-232.708 23.5542,-323.381 74,-368.09 166.873,-450.4 330.494,-415.357 404.169,-393.606"/>
<polygon fill="#63b8ff" stroke="#63b8ff" points="405.398,-396.891 413.951,-390.639 403.366,-390.192 405.398,-396.891"/>
</a>
</g>
</g>
<!-- Node5 -->
<g id="Node000005" class="node"><title>Node5</title>
<g id="a_Node000005"><a xlink:href="group___t_stack.html#gab2a53c66f9bb439a8749c97f9c9d9f2d" target="_top" xlink:title="Zjištění, zda je zásobník prázdný">
<polygon fill="white" stroke="#666666" points="486,-202.59 400,-202.59 400,-183.59 486,-183.59 486,-202.59"/>
<text text-anchor="middle" x="443" y="-190.59" font-family="Helvetica,sans-Serif" font-size="10.00">stack_is_empty</text>
</a>
</g>
</g>
<!-- Node1&#45;&gt;Node5 -->
<g id="edge13_Node000001_Node000005" class="edge"><title>Node1&#45;&gt;Node5</title>
<g id="a_edge13_Node000001_Node000005"><a xlink:title=" ">
<path fill="none" stroke="#63b8ff" d="M25.4923,-183.565C33.9201,-170.026 51.4599,-145.785 74,-136.09 192.711,-85.0283 240.031,-120.606 364,-157.09 382.075,-162.409 401.305,-171.245 416.148,-178.831"/>
<polygon fill="#63b8ff" stroke="#63b8ff" points="414.732,-182.04 425.213,-183.587 417.984,-175.842 414.732,-182.04"/>
</a>
</g>
</g>
<!-- Node6 -->
<g id="Node000006" class="node"><title>Node6</title>
<g id="a_Node000006"><a xlink:href="group___t_stack.html#ga480af197cbd84970291358c870ec9b90" target="_top" xlink:title="Odstranění elementu na vrcholu zásobníku.">
<polygon fill="white" stroke="#666666" points="338.5,-353.59 276.5,-353.59 276.5,-334.59 338.5,-334.59 338.5,-353.59"/>
<text text-anchor="middle" x="307.5" y="-341.59" font-family="Helvetica,sans-Serif" font-size="10.00">stack_pop</text>
</a>
</g>
</g>
<!-- Node1&#45;&gt;Node6 -->
<g id="edge20_Node000001_Node000006" class="edge"><title>Node1&#45;&gt;Node6</title>
<g id="a_edge20_Node000001_Node000006"><a xlink:title=" ">
<path fill="none" stroke="#63b8ff" d="M22.7411,-202.8C28.691,-222.036 44.6705,-265.029 74,-287.09 131.054,-330.004 216.227,-340.991 266.092,-343.575"/>
<polygon fill="#63b8ff" stroke="#63b8ff" points="266.033,-347.076 276.174,-344.008 266.333,-340.082 266.033,-347.076"/>
</a>
</g>
</g>
<!-- Node7 -->
<g id="Node000007" class="node"><title>Node7</title>
<g id="a_Node000007"><a xlink:href="group___t_stack.html#ga8ee1e96ca9c6c84eb97fea0a3506938c" target="_top" xlink:title="Vložení elementu na vrchol zásobníku.">
<polygon fill="white" stroke="#666666" points="341,-239.59 274,-239.59 274,-220.59 341,-220.59 341,-239.59"/>
<text text-anchor="middle" x="307.5" y="-227.59" font-family="Helvetica,sans-Serif" font-size="10.00">stack_push</text>
</a>
</g>
</g>
<!-- Node1&#45;&gt;Node7 -->
<g id="edge21_Node000001_Node000007" class="edge"><title>Node1&#45;&gt;Node7</title>
<g id="a_edge21_Node000001_Node000007"><a xlink:title=" ">
<path fill="none" stroke="#63b8ff" d="M38.3383,-198.599C48.7166,-201.526 61.9858,-204.951 74,-207.09 139.713,-218.785 217.011,-224.948 263.849,-227.859"/>
<polygon fill="#63b8ff" stroke="#63b8ff" points="263.744,-231.359 273.936,-228.465 264.163,-224.371 263.744,-231.359"/>
</a>
</g>
</g>
<!-- Node8 -->
<g id="Node000008" class="node"><title>Node8</title>
<g id="a_Node000008"><a xlink:href="group___t_stack.html#gac84fd2f3c38113a7d9d4cf5123b581f3" target="_top" xlink:title="Získání hodnoty elementu na vrcholu zásobníku.">
<polygon fill="white" stroke="#666666" points="337,-202.59 278,-202.59 278,-183.59 337,-183.59 337,-202.59"/>
<text text-anchor="middle" x="307.5" y="-190.59" font-family="Helvetica,sans-Serif" font-size="10.00">stack_top</text>
</a>
</g>
</g>
<!-- Node1&#45;&gt;Node8 -->
<g id="edge22_Node000001_Node000008" class="edge"><title>Node1&#45;&gt;Node8</title>
<g id="a_edge22_Node000001_Node000008"><a xlink:title=" ">
<path fill="none" stroke="#63b8ff" d="M38.3577,-193.09C84.24,-193.09 204.714,-193.09 267.375,-193.09"/>
<polygon fill="#63b8ff" stroke="#63b8ff" points="267.644,-196.59 277.644,-193.09 267.644,-189.59 267.644,-196.59"/>
</a>
</g>
</g>
<!-- Node9 -->
<g id="Node000009" class="node"><title>Node9</title>
<g id="a_Node000009"><a xlink:href="group___t_stack_iterator.html#gaa3bbe9fce0de463850601e23ebc552ff" target="_top" xlink:title="Vytvoření nového iterátoru ukazujícího na vrchol zásobníku.">
<polygon fill="white" stroke="#666666" points="196.5,-164.59 92.5,-164.59 92.5,-145.59 196.5,-145.59 196.5,-164.59"/>
<text text-anchor="middle" x="144.5" y="-152.59" font-family="Helvetica,sans-Serif" font-size="10.00">stack_iterator_begin</text>
</a>
</g>
</g>
<!-- Node1&#45;&gt;Node9 -->
<g id="edge14_Node000001_Node000009" class="edge"><title>Node1&#45;&gt;Node9</title>
<g id="a_edge14_Node000001_Node000009"><a xlink:title=" ">
<path fill="none" stroke="#63b8ff" d="M38.2229,-187.483C55.0967,-182.291 80.7933,-174.384 102.575,-167.682"/>
<polygon fill="#63b8ff" stroke="#63b8ff" points="103.732,-170.988 112.261,-164.702 101.674,-164.297 103.732,-170.988"/>
</a>
</g>
</g>
<!-- Node10 -->
<g id="Node000010" class="node"><title>Node10</title>
<g id="a_Node000010"><a xlink:href="group___t_stack_iterator.html#gad5a597d5a1e8f27eaac18d9a030997e3" target="_top" xlink:title="Zjištění platnosti iterátoru.">
<polygon fill="white" stroke="#666666" points="364,-51.5895 251,-51.5895 251,-32.5895 364,-32.5895 364,-51.5895"/>
<text text-anchor="middle" x="307.5" y="-39.5895" font-family="Helvetica,sans-Serif" font-size="10.00">stack_iterator_is_valid</text>
</a>
</g>
</g>
<!-- Node1&#45;&gt;Node10 -->
<g id="edge16_Node000001_Node000010" class="edge"><title>Node1&#45;&gt;Node10</title>
<g id="a_edge16_Node000001_Node000010"><a xlink:title=" ">
<path fill="none" stroke="#63b8ff" d="M19.5416,-183.185C18.7538,-152.999 21.0153,-61.8526 74,-23.0895 134.573,21.225 229.286,-8.57563 276.968,-28.4097"/>
<polygon fill="#63b8ff" stroke="#63b8ff" points="275.831,-31.7302 286.4,-32.4605 278.593,-25.2983 275.831,-31.7302"/>
</a>
</g>
</g>
<!-- Node11 -->
<g id="Node000011" class="node"><title>Node11</title>
<g id="a_Node000011"><a xlink:href="group___t_stack_iterator.html#gaa94902ad8202ccc9fdfe08aa660e3903" target="_top" xlink:title="Posunutí iterátoru vpřed.">
<polygon fill="white" stroke="#666666" points="201,-51.5895 88,-51.5895 88,-32.5895 201,-32.5895 201,-51.5895"/>
<text text-anchor="middle" x="144.5" y="-39.5895" font-family="Helvetica,sans-Serif" font-size="10.00">stack_iterator_to_next</text>
</a>
</g>
</g>
<!-- Node1&#45;&gt;Node11 -->
<g id="edge17_Node000001_Node000011" class="edge"><title>Node1&#45;&gt;Node11</title>
<g id="a_edge17_Node000001_Node000011"><a xlink:title=" ">
<path fill="none" stroke="#63b8ff" d="M20.9996,-183.365C24.0594,-158.787 35.5673,-93.748 74,-60.0895 75.5471,-58.7346 77.1835,-57.4795 78.8913,-56.3171"/>
<polygon fill="#63b8ff" stroke="#63b8ff" points="80.9304,-59.1866 87.9416,-51.2435 77.5073,-53.0806 80.9304,-59.1866"/>
</a>
</g>
</g>
<!-- Node12 -->
<g id="Node000012" class="node"><title>Node12</title>
<g id="a_Node000012"><a xlink:href="group___t_stack_iterator.html#ga1e006b0649df0fac42315afb488f283e" target="_top" xlink:title="Přečtení hodnoty elementu ze zásobníku pomocí iterátoru.">
<polygon fill="white" stroke="#666666" points="196,-88.5895 93,-88.5895 93,-69.5895 196,-69.5895 196,-88.5895"/>
<text text-anchor="middle" x="144.5" y="-76.5895" font-family="Helvetica,sans-Serif" font-size="10.00">stack_iterator_value</text>
</a>
</g>
</g>
<!-- Node1&#45;&gt;Node12 -->
<g id="edge18_Node000001_Node000012" class="edge"><title>Node1&#45;&gt;Node12</title>
<g id="a_edge18_Node000001_Node000012"><a xlink:title=" ">
<path fill="none" stroke="#63b8ff" d="M23.2389,-183.445C29.8643,-165.147 46.6862,-125.242 74,-103.09 79.0749,-98.9736 84.8989,-95.5441 90.9697,-92.6911"/>
<polygon fill="#63b8ff" stroke="#63b8ff" points="92.7526,-95.7401 100.64,-88.6665 90.063,-89.2775 92.7526,-95.7401"/>
</a>
</g>
</g>
<!-- Node2&#45;&gt;Node3 -->
<g id="edge2_Node000002_Node000003" class="edge"><title>Node2&#45;&gt;Node3</title>
<g id="a_edge2_Node000002_Node000003"><a xlink:title=" ">
<path fill="none" stroke="#63b8ff" d="M153.859,-278.626C170.573,-297.159 210.039,-338.3 251,-362.09 254.616,-364.19 258.5,-366.105 262.473,-367.841"/>
<polygon fill="#63b8ff" stroke="#63b8ff" points="261.235,-371.115 271.821,-371.567 263.828,-364.613 261.235,-371.115"/>
</a>
</g>
</g>
<!-- Node2&#45;&gt;Node4 -->
<g id="edge4_Node000002_Node000004" class="edge"><title>Node2&#45;&gt;Node4</title>
<g id="a_edge4_Node000002_Node000004"><a xlink:title=" ">
<path fill="none" stroke="#63b8ff" d="M207.398,-278.609C252.331,-287.012 313.791,-301.649 364,-325.09 385.971,-335.347 408.156,-352.026 423.218,-364.519"/>
<polygon fill="#63b8ff" stroke="#63b8ff" points="421.322,-367.501 431.208,-371.31 425.856,-362.167 421.322,-367.501"/>
</a>
</g>
</g>
<!-- Node2&#45;&gt;Node5 -->
<g id="edge5_Node000002_Node000005" class="edge"><title>Node2&#45;&gt;Node5</title>
<g id="a_edge5_Node000002_Node000005"><a xlink:title=" ">
<path fill="none" stroke="#63b8ff" d="M215.439,-271.405C259.356,-270.686 316.475,-265.706 364,-248.09 386.858,-239.616 409.205,-222.716 424.079,-209.874"/>
<polygon fill="#63b8ff" stroke="#63b8ff" points="426.79,-212.146 431.92,-202.876 422.129,-206.924 426.79,-212.146"/>
</a>
</g>
</g>
<!-- Node2&#45;&gt;Node6 -->
<g id="edge6_Node000002_Node000006" class="edge"><title>Node2&#45;&gt;Node6</title>
<g id="a_edge6_Node000002_Node000006"><a xlink:title=" ">
<path fill="none" stroke="#63b8ff" d="M165.928,-278.655C179.803,-285.186 198.55,-294.073 215,-302.09 231.081,-309.926 234.784,-312.537 251,-320.09 258.494,-323.58 266.629,-327.194 274.302,-330.526"/>
<polygon fill="#63b8ff" stroke="#63b8ff" points="273.122,-333.828 283.691,-334.563 275.887,-327.397 273.122,-333.828"/>
</a>
</g>
</g>
<!-- Node2&#45;&gt;Node7 -->
<g id="edge8_Node000002_Node000007" class="edge"><title>Node2&#45;&gt;Node7</title>
<g id="a_edge8_Node000002_Node000007"><a xlink:title=" ">
<path fill="none" stroke="#63b8ff" d="M184.885,-259.549C208.858,-253.742 239.482,-246.324 264.001,-240.384"/>
<polygon fill="#63b8ff" stroke="#63b8ff" points="264.86,-243.778 273.755,-238.022 263.212,-236.974 264.86,-243.778"/>
</a>
</g>
</g>
<!-- Node2&#45;&gt;Node8 -->
<g id="edge9_Node000002_Node000008" class="edge"><title>Node2&#45;&gt;Node8</title>
<g id="a_edge9_Node000002_Node000008"><a xlink:title=" ">
<path fill="none" stroke="#63b8ff" d="M160.764,-259.492C180.877,-247.131 217.619,-225.524 251,-211.09 256.48,-208.72 262.378,-206.487 268.212,-204.454"/>
<polygon fill="#63b8ff" stroke="#63b8ff" points="269.502,-207.714 277.883,-201.232 267.289,-201.073 269.502,-207.714"/>
</a>
</g>
</g>
<!-- Node3&#45;&gt;Node4 -->
<g id="edge3_Node000003_Node000004" class="edge"><title>Node3&#45;&gt;Node4</title>
<g id="a_edge3_Node000003_Node000004"><a xlink:title=" ">
<path fill="none" stroke="#63b8ff" d="M346.756,-381.09C364.404,-381.09 385.323,-381.09 403.054,-381.09"/>
<polygon fill="#63b8ff" stroke="#63b8ff" points="403.077,-384.59 413.077,-381.09 403.077,-377.59 403.077,-384.59"/>
</a>
</g>
</g>
<!-- Node6&#45;&gt;Node5 -->
<g id="edge7_Node000006_Node000005" class="edge"><title>Node6&#45;&gt;Node5</title>
<g id="a_edge7_Node000006_Node000005"><a xlink:title=" ">
<path fill="none" stroke="#63b8ff" d="M317.183,-334.452C328.134,-322.284 347.525,-300.69 364,-282.09 385.892,-257.373 411.036,-228.616 426.722,-210.632"/>
<polygon fill="#63b8ff" stroke="#63b8ff" points="429.675,-212.571 433.607,-202.733 424.398,-207.971 429.675,-212.571"/>
</a>
</g>
</g>
<!-- Node8&#45;&gt;Node5 -->
<g id="edge10_Node000008_Node000005" class="edge"><title>Node8&#45;&gt;Node5</title>
<g id="a_edge10_Node000008_Node000005"><a xlink:title=" ">
<path fill="none" stroke="#63b8ff" d="M337.139,-193.09C352.517,-193.09 371.954,-193.09 389.904,-193.09"/>
<polygon fill="#63b8ff" stroke="#63b8ff" points="389.972,-196.59 399.972,-193.09 389.972,-189.59 389.972,-196.59"/>
</a>
</g>
</g>
<!-- Node9&#45;&gt;Node5 -->
<g id="edge15_Node000009_Node000005" class="edge"><title>Node9&#45;&gt;Node5</title>
<g id="a_edge15_Node000009_Node000005"><a xlink:title=" ">
<path fill="none" stroke="#63b8ff" d="M196.546,-157.328C241.003,-159.8 307.076,-164.737 364,-174.09 375.056,-175.906 386.86,-178.455 397.852,-181.098"/>
<polygon fill="#63b8ff" stroke="#63b8ff" points="397.126,-184.524 407.674,-183.533 398.81,-177.729 397.126,-184.524"/>
</a>
</g>
</g>
<!-- Node12&#45;&gt;Node10 -->
<g id="edge19_Node000012_Node000010" class="edge"><title>Node12&#45;&gt;Node10</title>
<g id="a_edge19_Node000012_Node000010"><a xlink:title=" ">
<path fill="none" stroke="#63b8ff" d="M186.962,-69.5611C207.726,-64.7891 233.063,-58.9663 255.058,-53.9117"/>
<polygon fill="#63b8ff" stroke="#63b8ff" points="255.937,-57.3008 264.899,-51.6499 254.37,-50.4787 255.937,-57.3008"/>
</a>
</g>
</g>
</g>
</svg>
