<?xml version="1.0" encoding="UTF-8" standalone="no"?>
<!DOCTYPE svg PUBLIC "-//W3C//DTD SVG 1.1//EN"
 "http://www.w3.org/Graphics/SVG/1.1/DTD/svg11.dtd">
<!-- Generated by graphviz version 2.38.0 (20140413.2041)
 -->
<!-- Title: stack_is_empty Pages: 1 -->
<svg width="443pt" height="165pt"
 viewBox="0.00 0.00 443.00 165.30" xmlns="http://www.w3.org/2000/svg" xmlns:xlink="http://www.w3.org/1999/xlink">
<g id="graph0" class="graph" transform="scale(1 1) rotate(0) translate(4 161.303)">
<title>stack_is_empty</title>
<!-- Node1 -->
<g id="Node000001" class="node"><title>Node1</title>
<g id="a_Node000001"><a xlink:title="Zjištění, zda je zásobník prázdný">
<polygon fill="#999999" stroke="#666666" points="435,-95 349,-95 349,-76 435,-76 435,-95"/>
<text text-anchor="middle" x="392" y="-83" font-family="Helvetica,sans-Serif" font-size="10.00">stack_is_empty</text>
</a>
</g>
</g>
<!-- Node2 -->
<g id="Node000002" class="node"><title>Node2</title>
<g id="a_Node000002"><a xlink:href="group___main_program.html#ga367aadf6f2e33e86efe4a50daff32e81" target="_top" xlink:title="Testování API Stack.">
<polygon fill="white" stroke="#666666" points="215,-57 74,-57 74,-38 215,-38 215,-57"/>
<text text-anchor="middle" x="144.5" y="-45" font-family="Helvetica,sans-Serif" font-size="10.00">demo_tiskni_slova_pozpatku</text>
</a>
</g>
</g>
<!-- Node1&#45;&gt;Node2 -->
<g id="edge1_Node000001_Node000002" class="edge"><title>Node1&#45;&gt;Node2</title>
<g id="a_edge1_Node000001_Node000002"><a xlink:title=" ">
<path fill="none" stroke="#63b8ff" d="M345.857,-73.482C335.142,-70.9136 323.711,-68.4042 313,-66.5 281.016,-60.8138 245.277,-56.4865 215.053,-53.4088"/>
<polygon fill="#63b8ff" stroke="#63b8ff" points="345.319,-76.9538 355.865,-75.9448 346.991,-70.1566 345.319,-76.9538"/>
</a>
</g>
</g>
<!-- Node3 -->
<g id="Node000003" class="node"><title>Node3</title>
<g id="a_Node000003"><a xlink:href="group___main_program.html#gae66f6b31b5ad750f1fe042a706a4e3d4" target="_top" xlink:title=" ">
<polygon fill="white" stroke="#666666" points="38,-95 0,-95 0,-76 38,-76 38,-95"/>
<text text-anchor="middle" x="19" y="-83" font-family="Helvetica,sans-Serif" font-size="10.00">main</text>
</a>
</g>
</g>
<!-- Node1&#45;&gt;Node3 -->
<g id="edge3_Node000001_Node000003" class="edge"><title>Node1&#45;&gt;Node3</title>
<g id="a_edge3_Node000001_Node000003"><a xlink:title=" ">
<path fill="none" stroke="#63b8ff" d="M364.533,-99.8434C308.646,-128.091 175.413,-184.591 74,-141.5 51.8738,-132.099 34.4101,-108.697 25.8221,-95.3099"/>
<polygon fill="#63b8ff" stroke="#63b8ff" points="366.46,-102.787 373.739,-95.0886 363.248,-96.5677 366.46,-102.787"/>
</a>
</g>
</g>
<!-- Node4 -->
<g id="Node000004" class="node"><title>Node4</title>
<g id="a_Node000004"><a xlink:href="group___t_stack_iterator.html#gaa3bbe9fce0de463850601e23ebc552ff" target="_top" xlink:title="Vytvoření nového iterátoru ukazujícího na vrchol zásobníku.">
<polygon fill="white" stroke="#666666" points="196.5,-133 92.5,-133 92.5,-114 196.5,-114 196.5,-133"/>
<text text-anchor="middle" x="144.5" y="-121" font-family="Helvetica,sans-Serif" font-size="10.00">stack_iterator_begin</text>
</a>
</g>
</g>
<!-- Node1&#45;&gt;Node4 -->
<g id="edge4_Node000001_Node000004" class="edge"><title>Node1&#45;&gt;Node4</title>
<g id="a_edge4_Node000001_Node000004"><a xlink:title=" ">
<path fill="none" stroke="#63b8ff" d="M343.628,-97.2927C333.558,-99.5573 322.96,-101.761 313,-103.5 274.197,-110.274 229.931,-115.45 196.654,-118.838"/>
<polygon fill="#63b8ff" stroke="#63b8ff" points="344.519,-100.679 353.477,-95.0229 342.947,-93.8579 344.519,-100.679"/>
</a>
</g>
</g>
<!-- Node5 -->
<g id="Node000005" class="node"><title>Node5</title>
<g id="a_Node000005"><a xlink:href="group___t_stack.html#ga480af197cbd84970291358c870ec9b90" target="_top" xlink:title="Odstranění elementu na vrcholu zásobníku.">
<polygon fill="white" stroke="#666666" points="313,-95 251,-95 251,-76 313,-76 313,-95"/>
<text text-anchor="middle" x="282" y="-83" font-family="Helvetica,sans-Serif" font-size="10.00">stack_pop</text>
</a>
</g>
</g>
<!-- Node1&#45;&gt;Node5 -->
<g id="edge6_Node000001_Node000005" class="edge"><title>Node1&#45;&gt;Node5</title>
<g id="a_edge6_Node000001_Node000005"><a xlink:title=" ">
<path fill="none" stroke="#63b8ff" d="M338.701,-85.5C329.912,-85.5 321.063,-85.5 313.086,-85.5"/>
<polygon fill="#63b8ff" stroke="#63b8ff" points="338.935,-89.0001 348.935,-85.5 338.935,-82.0001 338.935,-89.0001"/>
</a>
</g>
</g>
<!-- Node6 -->
<g id="Node000006" class="node"><title>Node6</title>
<g id="a_Node000006"><a xlink:href="group___t_stack.html#gac84fd2f3c38113a7d9d4cf5123b581f3" target="_top" xlink:title="Získání hodnoty elementu na vrcholu zásobníku.">
<polygon fill="white" stroke="#666666" points="311.5,-19 252.5,-19 252.5,-0 311.5,-0 311.5,-19"/>
<text text-anchor="middle" x="282" y="-7" font-family="Helvetica,sans-Serif" font-size="10.00">stack_top</text>
</a>
</g>
</g>
<!-- Node1&#45;&gt;Node6 -->
<g id="edge9_Node000001_Node000006" class="edge"><title>Node1&#45;&gt;Node6</title>
<g id="a_edge9_Node000001_Node000006"><a xlink:title=" ">
<path fill="none" stroke="#63b8ff" d="M369.027,-70.0374C347.308,-54.7541 314.768,-31.8551 296.567,-19.0473"/>
<polygon fill="#63b8ff" stroke="#63b8ff" points="367.129,-72.9819 377.322,-75.8745 371.158,-67.2572 367.129,-72.9819"/>
</a>
</g>
</g>
<!-- Node2&#45;&gt;Node3 -->
<g id="edge2_Node000002_Node000003" class="edge"><title>Node2&#45;&gt;Node3</title>
<g id="a_edge2_Node000002_Node000003"><a xlink:title=" ">
<path fill="none" stroke="#63b8ff" d="M102.627,-60.0763C80.7918,-66.7948 55.0091,-74.728 38.1233,-79.9236"/>
<polygon fill="#63b8ff" stroke="#63b8ff" points="103.807,-63.3752 112.336,-57.089 101.749,-56.6847 103.807,-63.3752"/>
</a>
</g>
</g>
<!-- Node4&#45;&gt;Node3 -->
<g id="edge5_Node000004_Node000003" class="edge"><title>Node4&#45;&gt;Node3</title>
<g id="a_edge5_Node000004_Node000003"><a xlink:title=" ">
<path fill="none" stroke="#63b8ff" d="M102.627,-110.924C80.7918,-104.205 55.0091,-96.272 38.1233,-91.0764"/>
<polygon fill="#63b8ff" stroke="#63b8ff" points="101.749,-114.315 112.336,-113.911 103.807,-107.625 101.749,-114.315"/>
</a>
</g>
</g>
<!-- Node5&#45;&gt;Node2 -->
<g id="edge7_Node000005_Node000002" class="edge"><title>Node5&#45;&gt;Node2</title>
<g id="a_edge7_Node000005_Node000002"><a xlink:title=" ">
<path fill="none" stroke="#63b8ff" d="M241.127,-74.3179C221.652,-68.8564 198.455,-62.3509 179.785,-57.1151"/>
<polygon fill="#63b8ff" stroke="#63b8ff" points="240.355,-77.7362 250.928,-77.0666 242.245,-70.9963 240.355,-77.7362"/>
</a>
</g>
</g>
<!-- Node5&#45;&gt;Node3 -->
<g id="edge8_Node000005_Node000003" class="edge"><title>Node5&#45;&gt;Node3</title>
<g id="a_edge8_Node000005_Node000003"><a xlink:title=" ">
<path fill="none" stroke="#63b8ff" d="M240.623,-85.5C183.113,-85.5 79.9627,-85.5 38.2489,-85.5"/>
<polygon fill="#63b8ff" stroke="#63b8ff" points="240.805,-89.0001 250.805,-85.5 240.805,-82.0001 240.805,-89.0001"/>
</a>
</g>
</g>
<!-- Node6&#45;&gt;Node2 -->
<g id="edge10_Node000006_Node000002" class="edge"><title>Node6&#45;&gt;Node2</title>
<g id="a_edge10_Node000006_Node000002"><a xlink:title=" ">
<path fill="none" stroke="#63b8ff" d="M242.59,-20.2719C222.711,-25.8467 198.656,-32.5928 179.463,-37.9754"/>
<polygon fill="#63b8ff" stroke="#63b8ff" points="243.581,-23.6291 252.264,-17.5588 241.69,-16.8892 243.581,-23.6291"/>
</a>
</g>
</g>
<!-- Node6&#45;&gt;Node3 -->
<g id="edge11_Node000006_Node000003" class="edge"><title>Node6&#45;&gt;Node3</title>
<g id="a_edge11_Node000006_Node000003"><a xlink:title=" ">
<path fill="none" stroke="#63b8ff" d="M242.083,-5.18291C198.782,-2.115 127.835,-2.36328 74,-28.5 52.1724,-39.0972 34.592,-62.5148 25.9053,-75.8012"/>
<polygon fill="#63b8ff" stroke="#63b8ff" points="241.956,-8.68394 252.205,-5.99676 242.517,-1.70646 241.956,-8.68394"/>
</a>
</g>
</g>
</g>
</svg>
