<?xml version="1.0" encoding="UTF-8" standalone="no"?>
<!DOCTYPE svg PUBLIC "-//W3C//DTD SVG 1.1//EN"
 "http://www.w3.org/Graphics/SVG/1.1/DTD/svg11.dtd">
<!-- Generated by graphviz version 2.38.0 (20140413.2041)
 -->
<!-- Title: demo_tiskni_slova_pozpatku Pages: 1 -->
<svg width="385pt" height="215pt"
 viewBox="0.00 0.00 385.00 215.00" xmlns="http://www.w3.org/2000/svg" xmlns:xlink="http://www.w3.org/1999/xlink">
<g id="graph0" class="graph" transform="scale(1 1) rotate(0) translate(4 211)">
<title>demo_tiskni_slova_pozpatku</title>
<!-- Node1 -->
<g id="Node000001" class="node"><title>Node1</title>
<g id="a_Node000001"><a xlink:title="Testování API Stack.">
<polygon fill="#999999" stroke="#666666" points="141,-112 0,-112 0,-93 141,-93 141,-112"/>
<text text-anchor="middle" x="70.5" y="-100" font-family="Helvetica,sans-Serif" font-size="10.00">demo_tiskni_slova_pozpatku</text>
</a>
</g>
</g>
<!-- Node2 -->
<g id="Node000002" class="node"><title>Node2</title>
<g id="a_Node000002"><a xlink:href="group___t_stack.html#ga543615a4df26ed863b9e92228b69d04a" target="_top" xlink:title="Deinicializace zásobníku.">
<polygon fill="white" stroke="#666666" points="255,-207 177,-207 177,-188 255,-188 255,-207"/>
<text text-anchor="middle" x="216" y="-195" font-family="Helvetica,sans-Serif" font-size="10.00">stack_destroy</text>
</a>
</g>
</g>
<!-- Node1&#45;&gt;Node2 -->
<g id="edge1_Node000001_Node000002" class="edge"><title>Node1&#45;&gt;Node2</title>
<g id="a_edge1_Node000001_Node000002"><a xlink:title=" ">
<path fill="none" stroke="#63b8ff" d="M85.4076,-112.047C105.507,-125.802 143.897,-151.914 177,-173.5 181.461,-176.409 186.244,-179.473 190.861,-182.402"/>
<polygon fill="#63b8ff" stroke="#63b8ff" points="189.08,-185.416 199.405,-187.793 192.815,-179.496 189.08,-185.416"/>
</a>
</g>
</g>
<!-- Node3 -->
<g id="Node000003" class="node"><title>Node3</title>
<g id="a_Node000003"><a xlink:href="group___t_stack.html#ga22a9f4ad0c450cdbbfb7546493b1f781" target="_top" xlink:title="Inicializace prázdného zásobníku.">
<polygon fill="white" stroke="#666666" points="363.5,-188 304.5,-188 304.5,-169 363.5,-169 363.5,-188"/>
<text text-anchor="middle" x="334" y="-176" font-family="Helvetica,sans-Serif" font-size="10.00">stack_init</text>
</a>
</g>
</g>
<!-- Node1&#45;&gt;Node3 -->
<g id="edge3_Node000001_Node000003" class="edge"><title>Node1&#45;&gt;Node3</title>
<g id="a_edge3_Node000001_Node000003"><a xlink:title=" ">
<path fill="none" stroke="#63b8ff" d="M104.354,-112.048C152.837,-126.139 243.339,-152.442 294.745,-167.382"/>
<polygon fill="#63b8ff" stroke="#63b8ff" points="293.901,-170.781 304.481,-170.211 295.855,-164.06 293.901,-170.781"/>
</a>
</g>
</g>
<!-- Node4 -->
<g id="Node000004" class="node"><title>Node4</title>
<g id="a_Node000004"><a xlink:href="group___t_stack.html#gab2a53c66f9bb439a8749c97f9c9d9f2d" target="_top" xlink:title="Zjištění, zda je zásobník prázdný">
<polygon fill="white" stroke="#666666" points="377,-93 291,-93 291,-74 377,-74 377,-93"/>
<text text-anchor="middle" x="334" y="-81" font-family="Helvetica,sans-Serif" font-size="10.00">stack_is_empty</text>
</a>
</g>
</g>
<!-- Node1&#45;&gt;Node4 -->
<g id="edge4_Node000001_Node000004" class="edge"><title>Node1&#45;&gt;Node4</title>
<g id="a_edge4_Node000001_Node000004"><a xlink:title=" ">
<path fill="none" stroke="#63b8ff" d="M141.006,-106.394C175.418,-107.333 217.518,-106.999 255,-102.5 266.987,-101.061 279.793,-98.4204 291.491,-95.5561"/>
<polygon fill="#63b8ff" stroke="#63b8ff" points="292.62,-98.8799 301.437,-93.006 290.881,-92.0993 292.62,-98.8799"/>
</a>
</g>
</g>
<!-- Node5 -->
<g id="Node000005" class="node"><title>Node5</title>
<g id="a_Node000005"><a xlink:href="group___t_stack.html#ga480af197cbd84970291358c870ec9b90" target="_top" xlink:title="Odstranění elementu na vrcholu zásobníku.">
<polygon fill="white" stroke="#666666" points="247,-93 185,-93 185,-74 247,-74 247,-93"/>
<text text-anchor="middle" x="216" y="-81" font-family="Helvetica,sans-Serif" font-size="10.00">stack_pop</text>
</a>
</g>
</g>
<!-- Node1&#45;&gt;Node5 -->
<g id="edge5_Node000001_Node000005" class="edge"><title>Node1&#45;&gt;Node5</title>
<g id="a_edge5_Node000001_Node000005"><a xlink:title=" ">
<path fill="none" stroke="#63b8ff" d="M141.148,-93.2783C152.717,-91.7466 164.358,-90.2052 174.868,-88.8137"/>
<polygon fill="#63b8ff" stroke="#63b8ff" points="175.502,-92.2604 184.956,-87.478 174.583,-85.3209 175.502,-92.2604"/>
</a>
</g>
</g>
<!-- Node6 -->
<g id="Node000006" class="node"><title>Node6</title>
<g id="a_Node000006"><a xlink:href="group___t_stack.html#ga8ee1e96ca9c6c84eb97fea0a3506938c" target="_top" xlink:title="Vložení elementu na vrchol zásobníku.">
<polygon fill="white" stroke="#666666" points="249.5,-56 182.5,-56 182.5,-37 249.5,-37 249.5,-56"/>
<text text-anchor="middle" x="216" y="-44" font-family="Helvetica,sans-Serif" font-size="10.00">stack_push</text>
</a>
</g>
</g>
<!-- Node1&#45;&gt;Node6 -->
<g id="edge7_Node000001_Node000006" class="edge"><title>Node1&#45;&gt;Node6</title>
<g id="a_edge7_Node000001_Node000006"><a xlink:title=" ">
<path fill="none" stroke="#63b8ff" d="M96.1685,-92.8733C119.617,-83.7226 155.077,-69.8844 181.161,-59.7057"/>
<polygon fill="#63b8ff" stroke="#63b8ff" points="182.61,-62.8971 190.653,-56.0011 180.065,-56.3761 182.61,-62.8971"/>
</a>
</g>
</g>
<!-- Node7 -->
<g id="Node000007" class="node"><title>Node7</title>
<g id="a_Node000007"><a xlink:href="group___t_stack.html#gac84fd2f3c38113a7d9d4cf5123b581f3" target="_top" xlink:title="Získání hodnoty elementu na vrcholu zásobníku.">
<polygon fill="white" stroke="#666666" points="245.5,-19 186.5,-19 186.5,-0 245.5,-0 245.5,-19"/>
<text text-anchor="middle" x="216" y="-7" font-family="Helvetica,sans-Serif" font-size="10.00">stack_top</text>
</a>
</g>
</g>
<!-- Node1&#45;&gt;Node7 -->
<g id="edge8_Node000001_Node000007" class="edge"><title>Node1&#45;&gt;Node7</title>
<g id="a_edge8_Node000001_Node000007"><a xlink:title=" ">
<path fill="none" stroke="#63b8ff" d="M83.6886,-92.7556C102.855,-77.6857 141.521,-48.2967 177,-27.5 179.204,-26.208 181.516,-24.9328 183.865,-23.6939"/>
<polygon fill="#63b8ff" stroke="#63b8ff" points="185.585,-26.7468 192.957,-19.1376 182.449,-20.4885 185.585,-26.7468"/>
</a>
</g>
</g>
<!-- Node2&#45;&gt;Node3 -->
<g id="edge2_Node000002_Node000003" class="edge"><title>Node2&#45;&gt;Node3</title>
<g id="a_edge2_Node000002_Node000003"><a xlink:title=" ">
<path fill="none" stroke="#63b8ff" d="M255.304,-191.226C267.781,-189.182 281.638,-186.913 294.154,-184.863"/>
<polygon fill="#63b8ff" stroke="#63b8ff" points="294.989,-188.273 304.292,-183.202 293.858,-181.365 294.989,-188.273"/>
</a>
</g>
</g>
<!-- Node5&#45;&gt;Node4 -->
<g id="edge6_Node000005_Node000004" class="edge"><title>Node5&#45;&gt;Node4</title>
<g id="a_edge6_Node000005_Node000004"><a xlink:title=" ">
<path fill="none" stroke="#63b8ff" d="M247.175,-83.5C257.351,-83.5 269.025,-83.5 280.418,-83.5"/>
<polygon fill="#63b8ff" stroke="#63b8ff" points="280.751,-87.0001 290.751,-83.5 280.751,-80.0001 280.751,-87.0001"/>
</a>
</g>
</g>
<!-- Node7&#45;&gt;Node4 -->
<g id="edge9_Node000007_Node000004" class="edge"><title>Node7&#45;&gt;Node4</title>
<g id="a_edge9_Node000007_Node000004"><a xlink:title=" ">
<path fill="none" stroke="#63b8ff" d="M239.052,-19.1209C244.371,-21.6653 249.969,-24.535 255,-27.5 275.53,-39.5984 297.452,-55.6459 312.811,-67.4602"/>
<polygon fill="#63b8ff" stroke="#63b8ff" points="310.995,-70.4823 321.036,-73.8653 315.296,-64.9595 310.995,-70.4823"/>
</a>
</g>
</g>
</g>
</svg>
