<?xml version="1.0" encoding="UTF-8" standalone="no"?>
<!DOCTYPE svg PUBLIC "-//W3C//DTD SVG 1.1//EN"
 "http://www.w3.org/Graphics/SVG/1.1/DTD/svg11.dtd">
<!-- Generated by graphviz version 2.38.0 (20140413.2041)
 -->
<!-- Title: TVectorElement.c Pages: 1 -->
<svg width="402pt" height="137pt"
 viewBox="0.00 0.00 401.50 137.00" xmlns="http://www.w3.org/2000/svg" xmlns:xlink="http://www.w3.org/1999/xlink">
<g id="graph0" class="graph" transform="scale(1 1) rotate(0) translate(4 133)">
<title>TVectorElement.c</title>
<!-- Node1 -->
<g id="Node000001" class="node"><title>Node1</title>
<g id="a_Node000001"><a xlink:title="Definice proměnné určující položku podle které budou porovnávány dvě proměnné strukturovaného typu Ve...">
<polygon fill="#999999" stroke="#666666" points="237.5,-129 142.5,-129 142.5,-110 237.5,-110 237.5,-129"/>
<text text-anchor="middle" x="190" y="-117" font-family="Helvetica,sans-Serif" font-size="10.00">TVectorElement.c</text>
</a>
</g>
</g>
<!-- Node2 -->
<g id="Node000002" class="node"><title>Node2</title>
<g id="a_Node000002"><a xlink:href="_t_vector_element_8h.html" target="_top" xlink:title="Definice strukturovaného typu VectorElement a implementace API.">
<polygon fill="white" stroke="#666666" points="237.5,-74 142.5,-74 142.5,-55 237.5,-55 237.5,-74"/>
<text text-anchor="middle" x="190" y="-62" font-family="Helvetica,sans-Serif" font-size="10.00">TVectorElement.h</text>
</a>
</g>
</g>
<!-- Node1&#45;&gt;Node2 -->
<g id="edge1_Node000001_Node000002" class="edge"><title>Node1&#45;&gt;Node2</title>
<g id="a_edge1_Node000001_Node000002"><a xlink:title=" ">
<path fill="none" stroke="#63b8ff" d="M190,-109.748C190,-102.802 190,-92.8451 190,-84.1349"/>
<polygon fill="#63b8ff" stroke="#63b8ff" points="193.5,-84.089 190,-74.089 186.5,-84.0891 193.5,-84.089"/>
</a>
</g>
</g>
<!-- Node3 -->
<g id="Node000003" class="node"><title>Node3</title>
<g id="a_Node000003"><a xlink:title=" ">
<polygon fill="#e0e0e0" stroke="#999999" points="46,-19 0,-19 0,-0 46,-0 46,-19"/>
<text text-anchor="middle" x="23" y="-7" font-family="Helvetica,sans-Serif" font-size="10.00">stdio.h</text>
</a>
</g>
</g>
<!-- Node2&#45;&gt;Node3 -->
<g id="edge2_Node000002_Node000003" class="edge"><title>Node2&#45;&gt;Node3</title>
<g id="a_edge2_Node000002_Node000003"><a xlink:title=" ">
<path fill="none" stroke="#63b8ff" d="M163.169,-54.9846C133.883,-45.6905 86.9892,-30.8079 55.6045,-20.8475"/>
<polygon fill="#63b8ff" stroke="#63b8ff" points="56.5918,-17.4889 46.0015,-17.7999 54.4743,-24.161 56.5918,-17.4889"/>
</a>
</g>
</g>
<!-- Node4 -->
<g id="Node000004" class="node"><title>Node4</title>
<g id="a_Node000004"><a xlink:title=" ">
<polygon fill="#e0e0e0" stroke="#999999" points="112,-19 64,-19 64,-0 112,-0 112,-19"/>
<text text-anchor="middle" x="88" y="-7" font-family="Helvetica,sans-Serif" font-size="10.00">stdlib.h</text>
</a>
</g>
</g>
<!-- Node2&#45;&gt;Node4 -->
<g id="edge3_Node000002_Node000004" class="edge"><title>Node2&#45;&gt;Node4</title>
<g id="a_edge3_Node000002_Node000004"><a xlink:title=" ">
<path fill="none" stroke="#63b8ff" d="M173.612,-54.9846C157.425,-46.5738 132.43,-33.5864 113.619,-23.8118"/>
<polygon fill="#63b8ff" stroke="#63b8ff" points="115.174,-20.6754 104.686,-19.1703 111.946,-26.8869 115.174,-20.6754"/>
</a>
</g>
</g>
<!-- Node5 -->
<g id="Node000005" class="node"><title>Node5</title>
<g id="a_Node000005"><a xlink:title=" ">
<polygon fill="#e0e0e0" stroke="#999999" points="179.5,-19 130.5,-19 130.5,-0 179.5,-0 179.5,-19"/>
<text text-anchor="middle" x="155" y="-7" font-family="Helvetica,sans-Serif" font-size="10.00">string.h</text>
</a>
</g>
</g>
<!-- Node2&#45;&gt;Node5 -->
<g id="edge4_Node000002_Node000005" class="edge"><title>Node2&#45;&gt;Node5</title>
<g id="a_edge4_Node000002_Node000005"><a xlink:title=" ">
<path fill="none" stroke="#63b8ff" d="M184.22,-54.7481C179.379,-47.4162 172.321,-36.7295 166.355,-27.6954"/>
<polygon fill="#63b8ff" stroke="#63b8ff" points="169.103,-25.505 160.672,-19.089 163.262,-29.3624 169.103,-25.505"/>
</a>
</g>
</g>
<!-- Node6 -->
<g id="Node000006" class="node"><title>Node6</title>
<g id="a_Node000006"><a xlink:title=" ">
<polygon fill="#e0e0e0" stroke="#999999" points="254,-19 198,-19 198,-0 254,-0 254,-19"/>
<text text-anchor="middle" x="226" y="-7" font-family="Helvetica,sans-Serif" font-size="10.00">stdbool.h</text>
</a>
</g>
</g>
<!-- Node2&#45;&gt;Node6 -->
<g id="edge5_Node000002_Node000006" class="edge"><title>Node2&#45;&gt;Node6</title>
<g id="a_edge5_Node000002_Node000006"><a xlink:title=" ">
<path fill="none" stroke="#63b8ff" d="M195.945,-54.7481C200.977,-47.339 208.337,-36.5042 214.513,-27.4107"/>
<polygon fill="#63b8ff" stroke="#63b8ff" points="217.442,-29.3278 220.166,-19.089 211.652,-25.3946 217.442,-29.3278"/>
</a>
</g>
</g>
<!-- Node7 -->
<g id="Node000007" class="node"><title>Node7</title>
<g id="a_Node000007"><a xlink:title=" ">
<polygon fill="#e0e0e0" stroke="#999999" points="324,-19 272,-19 272,-0 324,-0 324,-19"/>
<text text-anchor="middle" x="298" y="-7" font-family="Helvetica,sans-Serif" font-size="10.00">assert.h</text>
</a>
</g>
</g>
<!-- Node2&#45;&gt;Node7 -->
<g id="edge6_Node000002_Node000007" class="edge"><title>Node2&#45;&gt;Node7</title>
<g id="a_edge6_Node000002_Node000007"><a xlink:title=" ">
<path fill="none" stroke="#63b8ff" d="M207.352,-54.9846C224.569,-46.5354 251.198,-33.4677 271.146,-23.6781"/>
<polygon fill="#63b8ff" stroke="#63b8ff" points="272.897,-26.7179 280.332,-19.1703 269.813,-20.4338 272.897,-26.7179"/>
</a>
</g>
</g>
<!-- Node8 -->
<g id="Node000008" class="node"><title>Node8</title>
<g id="a_Node000008"><a xlink:title=" ">
<polygon fill="#e0e0e0" stroke="#999999" points="393.5,-19 342.5,-19 342.5,-0 393.5,-0 393.5,-19"/>
<text text-anchor="middle" x="368" y="-7" font-family="Helvetica,sans-Serif" font-size="10.00">check.h</text>
</a>
</g>
</g>
<!-- Node2&#45;&gt;Node8 -->
<g id="edge7_Node000002_Node000008" class="edge"><title>Node2&#45;&gt;Node8</title>
<g id="a_edge7_Node000002_Node000008"><a xlink:title=" ">
<path fill="none" stroke="#63b8ff" d="M218.599,-54.9846C249.592,-45.7563 299.089,-31.0185 332.535,-21.0599"/>
<polygon fill="#63b8ff" stroke="#63b8ff" points="333.775,-24.3424 342.361,-18.1342 331.778,-17.6335 333.775,-24.3424"/>
</a>
</g>
</g>
</g>
</svg>
