<?xml version="1.0" encoding="UTF-8" standalone="no"?>
<!DOCTYPE svg PUBLIC "-//W3C//DTD SVG 1.1//EN"
 "http://www.w3.org/Graphics/SVG/1.1/DTD/svg11.dtd">
<!-- Generated by graphviz version 2.38.0 (20140413.2041)
 -->
<!-- Title: basic_sorts.c Pages: 1 -->
<svg width="402pt" height="247pt"
 viewBox="0.00 0.00 401.50 247.00" xmlns="http://www.w3.org/2000/svg" xmlns:xlink="http://www.w3.org/1999/xlink">
<g id="graph0" class="graph" transform="scale(1 1) rotate(0) translate(4 243)">
<title>basic_sorts.c</title>
<!-- Node1 -->
<g id="Node000001" class="node"><title>Node1</title>
<g id="a_Node000001"><a xlink:title="Implementace API přímých metod třídění">
<polygon fill="#999999" stroke="#666666" points="205.5,-239 130.5,-239 130.5,-220 205.5,-220 205.5,-239"/>
<text text-anchor="middle" x="168" y="-227" font-family="Helvetica,sans-Serif" font-size="10.00">basic_sorts.c</text>
</a>
</g>
</g>
<!-- Node2 -->
<g id="Node000002" class="node"><title>Node2</title>
<g id="a_Node000002"><a xlink:href="basic__sorts_8h.html" target="_top" xlink:title="Deklarace API přímých metod třídění">
<polygon fill="white" stroke="#666666" points="205.5,-184 130.5,-184 130.5,-165 205.5,-165 205.5,-184"/>
<text text-anchor="middle" x="168" y="-172" font-family="Helvetica,sans-Serif" font-size="10.00">basic_sorts.h</text>
</a>
</g>
</g>
<!-- Node1&#45;&gt;Node2 -->
<g id="edge1_Node000001_Node000002" class="edge"><title>Node1&#45;&gt;Node2</title>
<g id="a_edge1_Node000001_Node000002"><a xlink:title=" ">
<path fill="none" stroke="#63b8ff" d="M168,-219.748C168,-212.802 168,-202.845 168,-194.135"/>
<polygon fill="#63b8ff" stroke="#63b8ff" points="171.5,-194.089 168,-184.089 164.5,-194.089 171.5,-194.089"/>
</a>
</g>
</g>
<!-- Node3 -->
<g id="Node000003" class="node"><title>Node3</title>
<g id="a_Node000003"><a xlink:href="_t_vector_8h.html" target="_top" xlink:title="Definice typu Sortable Vector.">
<polygon fill="white" stroke="#666666" points="197.5,-129 138.5,-129 138.5,-110 197.5,-110 197.5,-129"/>
<text text-anchor="middle" x="168" y="-117" font-family="Helvetica,sans-Serif" font-size="10.00">TVector.h</text>
</a>
</g>
</g>
<!-- Node2&#45;&gt;Node3 -->
<g id="edge2_Node000002_Node000003" class="edge"><title>Node2&#45;&gt;Node3</title>
<g id="a_edge2_Node000002_Node000003"><a xlink:title=" ">
<path fill="none" stroke="#63b8ff" d="M168,-164.748C168,-157.802 168,-147.845 168,-139.135"/>
<polygon fill="#63b8ff" stroke="#63b8ff" points="171.5,-139.089 168,-129.089 164.5,-139.089 171.5,-139.089"/>
</a>
</g>
</g>
<!-- Node4 -->
<g id="Node000004" class="node"><title>Node4</title>
<g id="a_Node000004"><a xlink:title=" ">
<polygon fill="#e0e0e0" stroke="#999999" points="46,-19 0,-19 0,-0 46,-0 46,-19"/>
<text text-anchor="middle" x="23" y="-7" font-family="Helvetica,sans-Serif" font-size="10.00">stdio.h</text>
</a>
</g>
</g>
<!-- Node3&#45;&gt;Node4 -->
<g id="edge3_Node000003_Node000004" class="edge"><title>Node3&#45;&gt;Node4</title>
<g id="a_edge3_Node000003_Node000004"><a xlink:title=" ">
<path fill="none" stroke="#63b8ff" d="M153.136,-109.858C138.695,-101.276 116.326,-87.4857 98,-74 77.3237,-58.7844 55.0427,-39.5179 40.1866,-26.219"/>
<polygon fill="#63b8ff" stroke="#63b8ff" points="42.1325,-23.2602 32.3657,-19.1541 37.4402,-28.4547 42.1325,-23.2602"/>
</a>
</g>
</g>
<!-- Node5 -->
<g id="Node000005" class="node"><title>Node5</title>
<g id="a_Node000005"><a xlink:title=" ">
<polygon fill="#e0e0e0" stroke="#999999" points="120,-19 64,-19 64,-0 120,-0 120,-19"/>
<text text-anchor="middle" x="92" y="-7" font-family="Helvetica,sans-Serif" font-size="10.00">stdbool.h</text>
</a>
</g>
</g>
<!-- Node3&#45;&gt;Node5 -->
<g id="edge4_Node000003_Node000005" class="edge"><title>Node3&#45;&gt;Node5</title>
<g id="a_edge4_Node000003_Node000005"><a xlink:title=" ">
<path fill="none" stroke="#63b8ff" d="M152.239,-109.928C139.366,-102.155 121.623,-89.5495 111,-74 101.77,-60.4898 96.9321,-42.3981 94.4543,-28.982"/>
<polygon fill="#63b8ff" stroke="#63b8ff" points="97.8977,-28.3485 92.8835,-19.0153 90.9831,-29.4383 97.8977,-28.3485"/>
</a>
</g>
</g>
<!-- Node6 -->
<g id="Node000006" class="node"><title>Node6</title>
<g id="a_Node000006"><a xlink:title=" ">
<polygon fill="#e0e0e0" stroke="#999999" points="323.5,-74 272.5,-74 272.5,-55 323.5,-55 323.5,-74"/>
<text text-anchor="middle" x="298" y="-62" font-family="Helvetica,sans-Serif" font-size="10.00">stddef.h</text>
</a>
</g>
</g>
<!-- Node3&#45;&gt;Node6 -->
<g id="edge5_Node000003_Node000006" class="edge"><title>Node3&#45;&gt;Node6</title>
<g id="a_edge5_Node000003_Node000006"><a xlink:title=" ">
<path fill="none" stroke="#63b8ff" d="M188.887,-109.985C210.082,-101.343 243.127,-87.8713 267.301,-78.0158"/>
<polygon fill="#63b8ff" stroke="#63b8ff" points="268.795,-81.1866 276.733,-74.1703 266.152,-74.7046 268.795,-81.1866"/>
</a>
</g>
</g>
<!-- Node7 -->
<g id="Node000007" class="node"><title>Node7</title>
<g id="a_Node000007"><a xlink:href="_t_vector_element_8h.html" target="_top" xlink:title="Definice strukturovaného typu VectorElement a implementace API.">
<polygon fill="white" stroke="#666666" points="215.5,-74 120.5,-74 120.5,-55 215.5,-55 215.5,-74"/>
<text text-anchor="middle" x="168" y="-62" font-family="Helvetica,sans-Serif" font-size="10.00">TVectorElement.h</text>
</a>
</g>
</g>
<!-- Node3&#45;&gt;Node7 -->
<g id="edge6_Node000003_Node000007" class="edge"><title>Node3&#45;&gt;Node7</title>
<g id="a_edge6_Node000003_Node000007"><a xlink:title=" ">
<path fill="none" stroke="#63b8ff" d="M168,-109.748C168,-102.802 168,-92.8451 168,-84.1349"/>
<polygon fill="#63b8ff" stroke="#63b8ff" points="171.5,-84.089 168,-74.089 164.5,-84.0891 171.5,-84.089"/>
</a>
</g>
</g>
<!-- Node11 -->
<g id="Node000011" class="node"><title>Node11</title>
<g id="a_Node000011"><a xlink:title=" ">
<polygon fill="#e0e0e0" stroke="#999999" points="393.5,-19 342.5,-19 342.5,-0 393.5,-0 393.5,-19"/>
<text text-anchor="middle" x="368" y="-7" font-family="Helvetica,sans-Serif" font-size="10.00">check.h</text>
</a>
</g>
</g>
<!-- Node3&#45;&gt;Node11 -->
<g id="edge13_Node000003_Node000011" class="edge"><title>Node3&#45;&gt;Node11</title>
<g id="a_edge13_Node000003_Node000011"><a xlink:title=" ">
<path fill="none" stroke="#63b8ff" d="M179.402,-109.975C196.97,-97.0708 231.985,-72.2555 264,-55 287.132,-42.5319 314.496,-30.94 335.348,-22.7148"/>
<polygon fill="#63b8ff" stroke="#63b8ff" points="336.67,-25.956 344.722,-19.0701 334.133,-19.4318 336.67,-25.956"/>
</a>
</g>
</g>
<!-- Node7&#45;&gt;Node4 -->
<g id="edge7_Node000007_Node000004" class="edge"><title>Node7&#45;&gt;Node4</title>
<g id="a_edge7_Node000007_Node000004"><a xlink:title=" ">
<path fill="none" stroke="#63b8ff" d="M144.703,-54.9846C120.604,-46.176 82.7721,-32.3477 55.6863,-22.4474"/>
<polygon fill="#63b8ff" stroke="#63b8ff" points="56.8328,-19.14 46.2389,-18.9942 54.4296,-25.7146 56.8328,-19.14"/>
</a>
</g>
</g>
<!-- Node7&#45;&gt;Node5 -->
<g id="edge10_Node000007_Node000005" class="edge"><title>Node7&#45;&gt;Node5</title>
<g id="a_edge10_Node000007_Node000005"><a xlink:title=" ">
<path fill="none" stroke="#63b8ff" d="M155.789,-54.9846C144.224,-46.9194 126.625,-34.6461 112.839,-25.0327"/>
<polygon fill="#63b8ff" stroke="#63b8ff" points="114.637,-22.0196 104.433,-19.1703 110.633,-27.7613 114.637,-22.0196"/>
</a>
</g>
</g>
<!-- Node8 -->
<g id="Node000008" class="node"><title>Node8</title>
<g id="a_Node000008"><a xlink:title=" ">
<polygon fill="#e0e0e0" stroke="#999999" points="186,-19 138,-19 138,-0 186,-0 186,-19"/>
<text text-anchor="middle" x="162" y="-7" font-family="Helvetica,sans-Serif" font-size="10.00">stdlib.h</text>
</a>
</g>
</g>
<!-- Node7&#45;&gt;Node8 -->
<g id="edge8_Node000007_Node000008" class="edge"><title>Node7&#45;&gt;Node8</title>
<g id="a_edge8_Node000007_Node000008"><a xlink:title=" ">
<path fill="none" stroke="#63b8ff" d="M167.009,-54.7481C166.223,-47.8021 165.096,-37.8451 164.11,-29.1349"/>
<polygon fill="#63b8ff" stroke="#63b8ff" points="167.575,-28.6318 162.972,-19.089 160.62,-29.4193 167.575,-28.6318"/>
</a>
</g>
</g>
<!-- Node9 -->
<g id="Node000009" class="node"><title>Node9</title>
<g id="a_Node000009"><a xlink:title=" ">
<polygon fill="#e0e0e0" stroke="#999999" points="253.5,-19 204.5,-19 204.5,-0 253.5,-0 253.5,-19"/>
<text text-anchor="middle" x="229" y="-7" font-family="Helvetica,sans-Serif" font-size="10.00">string.h</text>
</a>
</g>
</g>
<!-- Node7&#45;&gt;Node9 -->
<g id="edge9_Node000007_Node000009" class="edge"><title>Node7&#45;&gt;Node9</title>
<g id="a_edge9_Node000007_Node000009"><a xlink:title=" ">
<path fill="none" stroke="#63b8ff" d="M177.801,-54.9846C186.818,-47.1499 200.406,-35.344 211.318,-25.863"/>
<polygon fill="#63b8ff" stroke="#63b8ff" points="213.768,-28.3711 219.021,-19.1703 209.177,-23.087 213.768,-28.3711"/>
</a>
</g>
</g>
<!-- Node10 -->
<g id="Node000010" class="node"><title>Node10</title>
<g id="a_Node000010"><a xlink:title=" ">
<polygon fill="#e0e0e0" stroke="#999999" points="324,-19 272,-19 272,-0 324,-0 324,-19"/>
<text text-anchor="middle" x="298" y="-7" font-family="Helvetica,sans-Serif" font-size="10.00">assert.h</text>
</a>
</g>
</g>
<!-- Node7&#45;&gt;Node10 -->
<g id="edge11_Node000007_Node000010" class="edge"><title>Node7&#45;&gt;Node10</title>
<g id="a_edge11_Node000007_Node000010"><a xlink:title=" ">
<path fill="none" stroke="#63b8ff" d="M188.887,-54.9846C210.082,-46.3434 243.127,-32.8713 267.301,-23.0158"/>
<polygon fill="#63b8ff" stroke="#63b8ff" points="268.795,-26.1866 276.733,-19.1703 266.152,-19.7046 268.795,-26.1866"/>
</a>
</g>
</g>
<!-- Node7&#45;&gt;Node11 -->
<g id="edge12_Node000007_Node000011" class="edge"><title>Node7&#45;&gt;Node11</title>
<g id="a_edge12_Node000007_Node000011"><a xlink:title=" ">
<path fill="none" stroke="#63b8ff" d="M200.133,-54.9846C236.267,-45.4093 294.784,-29.9023 332.312,-19.9573"/>
<polygon fill="#63b8ff" stroke="#63b8ff" points="333.535,-23.2542 342.304,-17.3093 331.741,-16.4878 333.535,-23.2542"/>
</a>
</g>
</g>
</g>
</svg>
