<?xml version="1.0" encoding="UTF-8" standalone="no"?>
<!DOCTYPE svg PUBLIC "-//W3C//DTD SVG 1.1//EN"
 "http://www.w3.org/Graphics/SVG/1.1/DTD/svg11.dtd">
<!-- Generated by graphviz version 2.38.0 (20140413.2041)
 -->
<!-- Title: vector_compare_with_iterators Pages: 1 -->
<svg width="452pt" height="76pt"
 viewBox="0.00 0.00 452.00 75.50" xmlns="http://www.w3.org/2000/svg" xmlns:xlink="http://www.w3.org/1999/xlink">
<g id="graph0" class="graph" transform="scale(1 1) rotate(0) translate(4 71.5)">
<title>vector_compare_with_iterators</title>
<!-- Node1 -->
<g id="Node000001" class="node"><title>Node1</title>
<g id="a_Node000001"><a xlink:title="Porovnání hodnot elementů vektorů určených dvěma iterátory.">
<polygon fill="#999999" stroke="#666666" points="107,-51 0,-51 0,-21 107,-21 107,-51"/>
<text text-anchor="start" x="8" y="-39" font-family="Helvetica,sans-Serif" font-size="10.00">vector_compare_with</text>
<text text-anchor="middle" x="53.5" y="-28" font-family="Helvetica,sans-Serif" font-size="10.00">_iterators</text>
</a>
</g>
</g>
<!-- Node2 -->
<g id="Node000002" class="node"><title>Node2</title>
<g id="a_Node000002"><a xlink:href="group__sortable___t_vector.html#gaedaf9c79afa345e5e71e5c66ab25fa26" target="_top" xlink:title="Porovnání hodnot elementů vektorů">
<polygon fill="white" stroke="#666666" points="272,-67.5 143,-67.5 143,-48.5 272,-48.5 272,-67.5"/>
<text text-anchor="middle" x="207.5" y="-55.5" font-family="Helvetica,sans-Serif" font-size="10.00">vector_compare_positions</text>
</a>
</g>
</g>
<!-- Node1&#45;&gt;Node2 -->
<g id="edge1_Node000001_Node000002" class="edge"><title>Node1&#45;&gt;Node2</title>
<g id="a_edge1_Node000001_Node000002"><a xlink:title=" ">
<path fill="none" stroke="#63b8ff" d="M107.236,-43.6328C115.494,-44.8281 124.158,-46.082 132.782,-47.3303"/>
<polygon fill="#63b8ff" stroke="#63b8ff" points="132.464,-50.8207 142.862,-48.7893 133.467,-43.8928 132.464,-50.8207"/>
</a>
</g>
</g>
<!-- Node4 -->
<g id="Node000004" class="node"><title>Node4</title>
<g id="a_Node000004"><a xlink:href="group___t_vector_iterator.html#ga3f8a97a63f887539e270f6845bf22b9a" target="_top" xlink:title="Zjištění platnosti iterátoru.">
<polygon fill="white" stroke="#666666" points="252.5,-30 162.5,-30 162.5,-0 252.5,-0 252.5,-30"/>
<text text-anchor="start" x="170.5" y="-18" font-family="Helvetica,sans-Serif" font-size="10.00">vector_iterator_is</text>
<text text-anchor="middle" x="207.5" y="-7" font-family="Helvetica,sans-Serif" font-size="10.00">_valid</text>
</a>
</g>
</g>
<!-- Node1&#45;&gt;Node4 -->
<g id="edge3_Node000001_Node000004" class="edge"><title>Node1&#45;&gt;Node4</title>
<g id="a_edge3_Node000001_Node000004"><a xlink:title=" ">
<path fill="none" stroke="#63b8ff" d="M107.236,-28.7142C121.866,-26.6929 137.769,-24.4957 152.472,-22.4644"/>
<polygon fill="#63b8ff" stroke="#63b8ff" points="153.002,-25.9246 162.428,-21.0888 152.044,-18.9904 153.002,-25.9246"/>
</a>
</g>
</g>
<!-- Node3 -->
<g id="Node000003" class="node"><title>Node3</title>
<g id="a_Node000003"><a xlink:href="group___t_vector_element.html#ga82e527836fce12c93af896f65e9f701d" target="_top" xlink:title="Porovnání dvou elementů">
<polygon fill="white" stroke="#666666" points="444,-67.5 308,-67.5 308,-48.5 444,-48.5 444,-67.5"/>
<text text-anchor="middle" x="376" y="-55.5" font-family="Helvetica,sans-Serif" font-size="10.00">vector_element_comparator</text>
</a>
</g>
</g>
<!-- Node2&#45;&gt;Node3 -->
<g id="edge2_Node000002_Node000003" class="edge"><title>Node2&#45;&gt;Node3</title>
<g id="a_edge2_Node000002_Node000003"><a xlink:title=" ">
<path fill="none" stroke="#63b8ff" d="M272.397,-58C280.677,-58 289.228,-58 297.696,-58"/>
<polygon fill="#63b8ff" stroke="#63b8ff" points="297.96,-61.5001 307.96,-58 297.96,-54.5001 297.96,-61.5001"/>
</a>
</g>
</g>
</g>
</svg>
