<?xml version="1.0" encoding="UTF-8" standalone="no"?>
<!DOCTYPE svg PUBLIC "-//W3C//DTD SVG 1.1//EN"
 "http://www.w3.org/Graphics/SVG/1.1/DTD/svg11.dtd">
<!-- Generated by graphviz version 2.38.0 (20140413.2041)
 -->
<!-- Title: vector_element_store_file Pages: 1 -->
<svg width="330pt" height="64pt"
 viewBox="0.00 0.00 330.00 64.00" xmlns="http://www.w3.org/2000/svg" xmlns:xlink="http://www.w3.org/1999/xlink">
<g id="graph0" class="graph" transform="scale(1 1) rotate(0) translate(4 60)">
<title>vector_element_store_file</title>
<!-- Node1 -->
<g id="Node000001" class="node"><title>Node1</title>
<g id="a_Node000001"><a xlink:title="Uložení elementu do souboru.">
<polygon fill="#999999" stroke="#666666" points="322,-37 196,-37 196,-18 322,-18 322,-37"/>
<text text-anchor="middle" x="259" y="-25" font-family="Helvetica,sans-Serif" font-size="10.00">vector_element_store_file</text>
</a>
</g>
</g>
<!-- Node2 -->
<g id="Node000002" class="node"><title>Node2</title>
<g id="a_Node000002"><a xlink:href="group___basic_sorts.html#ga25c7ac8991c266d71b75cf20c14b67cf" target="_top" xlink:title="Vytisknutí elementu vektoru pomocí iterátoru.">
<polygon fill="white" stroke="#666666" points="154.5,-56 79.5,-56 79.5,-37 154.5,-37 154.5,-56"/>
<text text-anchor="middle" x="117" y="-44" font-family="Helvetica,sans-Serif" font-size="10.00">print_element</text>
</a>
</g>
</g>
<!-- Node1&#45;&gt;Node2 -->
<g id="edge1_Node000001_Node000002" class="edge"><title>Node1&#45;&gt;Node2</title>
<g id="a_edge1_Node000001_Node000002"><a xlink:title=" ">
<path fill="none" stroke="#63b8ff" d="M185.55,-37.3326C174.871,-38.7818 164.268,-40.2207 154.738,-41.5142"/>
<polygon fill="#63b8ff" stroke="#63b8ff" points="186.34,-40.7574 195.779,-35.9443 185.399,-33.821 186.34,-40.7574"/>
</a>
</g>
</g>
<!-- Node4 -->
<g id="Node000004" class="node"><title>Node4</title>
<g id="a_Node000004"><a xlink:href="group___t_vector.html#gabc5c4a8f6f5f38932380f5e475ce862f" target="_top" xlink:title="Uložení vektoru a jeho elementů do souboru.">
<polygon fill="white" stroke="#666666" points="160,-19 74,-19 74,-0 160,-0 160,-19"/>
<text text-anchor="middle" x="117" y="-7" font-family="Helvetica,sans-Serif" font-size="10.00">vector_store_file</text>
</a>
</g>
</g>
<!-- Node1&#45;&gt;Node4 -->
<g id="edge3_Node000001_Node000004" class="edge"><title>Node1&#45;&gt;Node4</title>
<g id="a_edge3_Node000001_Node000004"><a xlink:title=" ">
<path fill="none" stroke="#63b8ff" d="M185.632,-18.1956C176.981,-17.0832 168.377,-15.9771 160.352,-14.9452"/>
<polygon fill="#63b8ff" stroke="#63b8ff" points="185.414,-21.6962 195.779,-19.5001 186.307,-14.7534 185.414,-21.6962"/>
</a>
</g>
</g>
<!-- Node3 -->
<g id="Node000003" class="node"><title>Node3</title>
<g id="a_Node000003"><a xlink:href="group___main_program.html#ga0ddf1224851353fc92bfbff6f499fa97" target="_top" xlink:title=" ">
<polygon fill="white" stroke="#666666" points="38,-56 0,-56 0,-37 38,-37 38,-56"/>
<text text-anchor="middle" x="19" y="-44" font-family="Helvetica,sans-Serif" font-size="10.00">main</text>
</a>
</g>
</g>
<!-- Node2&#45;&gt;Node3 -->
<g id="edge2_Node000002_Node000003" class="edge"><title>Node2&#45;&gt;Node3</title>
<g id="a_edge2_Node000002_Node000003"><a xlink:title=" ">
<path fill="none" stroke="#63b8ff" d="M69.3599,-46.5C58.2885,-46.5 47.1207,-46.5 38.2148,-46.5"/>
<polygon fill="#63b8ff" stroke="#63b8ff" points="69.4327,-50.0001 79.4327,-46.5 69.4326,-43.0001 69.4327,-50.0001"/>
</a>
</g>
</g>
</g>
</svg>
