<?xml version="1.0" encoding="UTF-8" standalone="no"?>
<!DOCTYPE svg PUBLIC "-//W3C//DTD SVG 1.1//EN"
 "http://www.w3.org/Graphics/SVG/1.1/DTD/svg11.dtd">
<!-- Generated by graphviz version 2.38.0 (20140413.2041)
 -->
<!-- Title: TVectorSortStats Pages: 1 -->
<svg width="132pt" height="125pt"
 viewBox="0.00 0.00 132.00 125.00" xmlns="http://www.w3.org/2000/svg" xmlns:xlink="http://www.w3.org/1999/xlink">
<g id="graph0" class="graph" transform="scale(1 1) rotate(0) translate(4 121)">
<title>TVectorSortStats</title>
<!-- Node1 -->
<g id="Node000001" class="node"><title>Node1</title>
<g id="a_Node000001"><a xlink:title="Definice typu VectorSortStats.">
<polygon fill="#999999" stroke="#666666" points="124,-117 0,-117 0,7.10543e-015 124,7.10543e-015 124,-117"/>
<text text-anchor="start" x="24" y="-100.5" font-family="Helvetica,sans-Serif" font-size="10.00">TVectorSortStats</text>
<text text-anchor="start" x="12" y="-85.5" font-family="Helvetica,sans-Serif" font-size="10.00">+</text>
<text text-anchor="start" x="23" y="-85.5" font-family="Helvetica,sans-Serif" font-size="10.00">size_t iComparisons</text>
<text text-anchor="start" x="12" y="-70.5" font-family="Helvetica,sans-Serif" font-size="10.00">+</text>
<text text-anchor="start" x="23" y="-70.5" font-family="Helvetica,sans-Serif" font-size="10.00">size_t iSwaps</text>
<text text-anchor="start" x="12" y="-55.5" font-family="Helvetica,sans-Serif" font-size="10.00">+</text>
<text text-anchor="start" x="23" y="-55.5" font-family="Helvetica,sans-Serif" font-size="10.00">size_t iMoves</text>
<text text-anchor="start" x="12" y="-40.5" font-family="Helvetica,sans-Serif" font-size="10.00">+</text>
<text text-anchor="start" x="23" y="-40.5" font-family="Helvetica,sans-Serif" font-size="10.00">size_t iGets</text>
<text text-anchor="start" x="12" y="-25.5" font-family="Helvetica,sans-Serif" font-size="10.00">+</text>
<text text-anchor="start" x="23" y="-25.5" font-family="Helvetica,sans-Serif" font-size="10.00">size_t iSets</text>
<text text-anchor="start" x="60" y="-10.5" font-family="Helvetica,sans-Serif" font-size="10.00"> </text>
<polygon fill="#666666" stroke="#666666" points="8,-95.5 8,-95.5 116,-95.5 116,-95.5 8,-95.5"/>
<polygon fill="#666666" stroke="#666666" points="8,-20.5 8,-20.5 21,-20.5 21,-20.5 8,-20.5"/>
<polygon fill="#666666" stroke="#666666" points="21,-20.5 21,-20.5 116,-20.5 116,-20.5 21,-20.5"/>
<polygon fill="none" stroke="#666666" points="8,-4 8,-113 116,-113 116,-4 8,-4"/>
</a>
</g>
</g>
</g>
</svg>
