<?xml version="1.0" encoding="UTF-8" standalone="no"?>
<!DOCTYPE svg PUBLIC "-//W3C//DTD SVG 1.1//EN"
 "http://www.w3.org/Graphics/SVG/1.1/DTD/svg11.dtd">
<!-- Generated by graphviz version 2.38.0 (20140413.2041)
 -->
<!-- Title: TStudent Pages: 1 -->
<svg width="140pt" height="110pt"
 viewBox="0.00 0.00 140.00 110.00" xmlns="http://www.w3.org/2000/svg" xmlns:xlink="http://www.w3.org/1999/xlink">
<g id="graph0" class="graph" transform="scale(1 1) rotate(0) translate(4 106)">
<title>TStudent</title>
<!-- Node1 -->
<g id="Node000001" class="node"><title>Node1</title>
<g id="a_Node000001"><a xlink:title="Definice typu TStudent.">
<polygon fill="#999999" stroke="#666666" points="132,-102 0,-102 0,-0 132,-0 132,-102"/>
<text text-anchor="start" x="46" y="-86" font-family="Helvetica,sans-Serif" font-size="10.00">TStudent</text>
<text text-anchor="start" x="12" y="-71" font-family="Helvetica,sans-Serif" font-size="10.00">+</text>
<text text-anchor="start" x="23" y="-71" font-family="Helvetica,sans-Serif" font-size="10.00">char iFirstName</text>
<text text-anchor="start" x="12" y="-56" font-family="Helvetica,sans-Serif" font-size="10.00">+</text>
<text text-anchor="start" x="23" y="-56" font-family="Helvetica,sans-Serif" font-size="10.00">char iLastName</text>
<text text-anchor="start" x="12" y="-41" font-family="Helvetica,sans-Serif" font-size="10.00">+</text>
<text text-anchor="start" x="23" y="-41" font-family="Helvetica,sans-Serif" font-size="10.00">size_t iId</text>
<text text-anchor="start" x="12" y="-26" font-family="Helvetica,sans-Serif" font-size="10.00">+</text>
<text text-anchor="start" x="23" y="-26" font-family="Helvetica,sans-Serif" font-size="10.00">unsigned short iPoints</text>
<text text-anchor="start" x="64" y="-11" font-family="Helvetica,sans-Serif" font-size="10.00"> </text>
<polygon fill="#666666" stroke="#666666" points="8,-81 8,-81 124,-81 124,-81 8,-81"/>
<polygon fill="#666666" stroke="#666666" points="8,-21 8,-21 21,-21 21,-21 8,-21"/>
<polygon fill="#666666" stroke="#666666" points="21,-21 21,-21 124,-21 124,-21 21,-21"/>
<polygon fill="none" stroke="#666666" points="8,-4 8,-98 124,-98 124,-4 8,-4"/>
</a>
</g>
</g>
</g>
</svg>
