<?xml version="1.0" encoding="UTF-8" standalone="no"?>
<!DOCTYPE svg PUBLIC "-//W3C//DTD SVG 1.1//EN"
 "http://www.w3.org/Graphics/SVG/1.1/DTD/svg11.dtd">
<!-- Generated by graphviz version 2.38.0 (20140413.2041)
 -->
<!-- Title: TVectorIterator Pages: 1 -->
<svg width="282pt" height="333pt"
 viewBox="0.00 0.00 282.00 333.00" xmlns="http://www.w3.org/2000/svg" xmlns:xlink="http://www.w3.org/1999/xlink">
<g id="graph0" class="graph" transform="scale(1 1) rotate(0) translate(4 329)">
<title>TVectorIterator</title>
<!-- Node1 -->
<g id="Node000001" class="node"><title>Node1</title>
<g id="a_Node000001"><a xlink:title="Definice typu VectorIterator.">
<polygon fill="#999999" stroke="#666666" points="184,-57 94,-57 94,-0 184,-0 184,-57"/>
<text text-anchor="start" x="107" y="-40.5" font-family="Helvetica,sans-Serif" font-size="10.00">TVectorIterator</text>
<text text-anchor="start" x="107.5" y="-25.5" font-family="Helvetica,sans-Serif" font-size="10.00">+</text>
<text text-anchor="start" x="120" y="-25.5" font-family="Helvetica,sans-Serif" font-size="10.00">size_t iPos</text>
<text text-anchor="start" x="137" y="-10.5" font-family="Helvetica,sans-Serif" font-size="10.00"> </text>
<polygon fill="#666666" stroke="#666666" points="102,-35.5 102,-35.5 176,-35.5 176,-35.5 102,-35.5"/>
<polygon fill="#666666" stroke="#666666" points="102,-20.5 102,-20.5 118,-20.5 118,-20.5 102,-20.5"/>
<polygon fill="#666666" stroke="#666666" points="118,-20.5 118,-20.5 176,-20.5 176,-20.5 118,-20.5"/>
<polygon fill="none" stroke="#666666" points="102,-4 102,-53 176,-53 176,-4 102,-4"/>
</a>
</g>
</g>
<!-- Node2 -->
<g id="Node000002" class="node"><title>Node2</title>
<g id="a_Node000002"><a xlink:href="group___t_vector.html#struct_t_vector" target="_top" xlink:title="Definice typu Vector.">
<polygon fill="white" stroke="#666666" points="182.5,-161 95.5,-161 95.5,-104 182.5,-104 182.5,-161"/>
<text text-anchor="start" x="122.5" y="-144.5" font-family="Helvetica,sans-Serif" font-size="10.00">TVector</text>
<text text-anchor="start" x="108" y="-129.5" font-family="Helvetica,sans-Serif" font-size="10.00">+</text>
<text text-anchor="start" x="119" y="-129.5" font-family="Helvetica,sans-Serif" font-size="10.00">size_t iSize</text>
<text text-anchor="start" x="137.5" y="-114.5" font-family="Helvetica,sans-Serif" font-size="10.00"> </text>
<polygon fill="#666666" stroke="#666666" points="104,-139.5 104,-139.5 175,-139.5 175,-139.5 104,-139.5"/>
<polygon fill="#666666" stroke="#666666" points="104,-124.5 104,-124.5 117,-124.5 117,-124.5 104,-124.5"/>
<polygon fill="#666666" stroke="#666666" points="117,-124.5 117,-124.5 175,-124.5 175,-124.5 117,-124.5"/>
<polygon fill="none" stroke="#666666" points="103.5,-108 103.5,-157 174.5,-157 174.5,-108 103.5,-108"/>
</a>
</g>
</g>
<!-- Node2&#45;&gt;Node1 -->
<g id="edge1_Node000001_Node000002" class="edge"><title>Node2&#45;&gt;Node1</title>
<g id="a_edge1_Node000001_Node000002"><a xlink:title=" ">
<path fill="none" stroke="#63b8ff" d="M139,-103.897C139,-93.2387 139,-80.8394 139,-69.2547"/>
<polygon fill="none" stroke="#63b8ff" points="139,-69.1247 135,-63.1248 139,-57.1247 143,-63.1247 139,-69.1247"/>
</a>
</g>
<text text-anchor="middle" x="159" y="-78" font-family="Helvetica,sans-Serif" font-size="10.00" fill="grey"> +iVector</text>
</g>
<!-- Node3 -->
<g id="Node000003" class="node"><title>Node3</title>
<g id="a_Node000003"><a xlink:href="group___t_vector_element.html#struct_t_student" target="_top" xlink:title="Definice typu TStudent.">
<polygon fill="white" stroke="#666666" points="132,-317.5 0,-317.5 0,-215.5 132,-215.5 132,-317.5"/>
<text text-anchor="start" x="46" y="-301.5" font-family="Helvetica,sans-Serif" font-size="10.00">TStudent</text>
<text text-anchor="start" x="12" y="-286.5" font-family="Helvetica,sans-Serif" font-size="10.00">+</text>
<text text-anchor="start" x="23" y="-286.5" font-family="Helvetica,sans-Serif" font-size="10.00">char iFirstName</text>
<text text-anchor="start" x="12" y="-271.5" font-family="Helvetica,sans-Serif" font-size="10.00">+</text>
<text text-anchor="start" x="23" y="-271.5" font-family="Helvetica,sans-Serif" font-size="10.00">char iLastName</text>
<text text-anchor="start" x="12" y="-256.5" font-family="Helvetica,sans-Serif" font-size="10.00">+</text>
<text text-anchor="start" x="23" y="-256.5" font-family="Helvetica,sans-Serif" font-size="10.00">size_t iId</text>
<text text-anchor="start" x="12" y="-241.5" font-family="Helvetica,sans-Serif" font-size="10.00">+</text>
<text text-anchor="start" x="23" y="-241.5" font-family="Helvetica,sans-Serif" font-size="10.00">unsigned short iPoints</text>
<text text-anchor="start" x="64" y="-226.5" font-family="Helvetica,sans-Serif" font-size="10.00"> </text>
<polygon fill="#666666" stroke="#666666" points="8,-296.5 8,-296.5 124,-296.5 124,-296.5 8,-296.5"/>
<polygon fill="#666666" stroke="#666666" points="8,-236.5 8,-236.5 21,-236.5 21,-236.5 8,-236.5"/>
<polygon fill="#666666" stroke="#666666" points="21,-236.5 21,-236.5 124,-236.5 124,-236.5 21,-236.5"/>
<polygon fill="none" stroke="#666666" points="8,-219.5 8,-313.5 124,-313.5 124,-219.5 8,-219.5"/>
</a>
</g>
</g>
<!-- Node3&#45;&gt;Node2 -->
<g id="edge2_Node000002_Node000003" class="edge"><title>Node3&#45;&gt;Node2</title>
<g id="a_edge2_Node000002_Node000003"><a xlink:title=" ">
<path fill="none" stroke="#63b8ff" d="M93.8064,-215.22C101.739,-200.876 110.253,-185.48 117.729,-171.963"/>
<polygon fill="none" stroke="#63b8ff" points="117.921,-171.615 117.325,-164.428 123.729,-161.114 124.325,-168.3 117.921,-171.615"/>
</a>
</g>
<text text-anchor="middle" x="135" y="-182" font-family="Helvetica,sans-Serif" font-size="10.00" fill="grey"> +iValues</text>
</g>
<!-- Node4 -->
<g id="Node000004" class="node"><title>Node4</title>
<g id="a_Node000004"><a xlink:href="group__sortable___t_vector.html#struct_t_vector_sort_stats" target="_top" xlink:title="Definice typu VectorSortStats.">
<polygon fill="white" stroke="#666666" points="274,-325 150,-325 150,-208 274,-208 274,-325"/>
<text text-anchor="start" x="174" y="-308.5" font-family="Helvetica,sans-Serif" font-size="10.00">TVectorSortStats</text>
<text text-anchor="start" x="162" y="-293.5" font-family="Helvetica,sans-Serif" font-size="10.00">+</text>
<text text-anchor="start" x="173" y="-293.5" font-family="Helvetica,sans-Serif" font-size="10.00">size_t iComparisons</text>
<text text-anchor="start" x="162" y="-278.5" font-family="Helvetica,sans-Serif" font-size="10.00">+</text>
<text text-anchor="start" x="173" y="-278.5" font-family="Helvetica,sans-Serif" font-size="10.00">size_t iSwaps</text>
<text text-anchor="start" x="162" y="-263.5" font-family="Helvetica,sans-Serif" font-size="10.00">+</text>
<text text-anchor="start" x="173" y="-263.5" font-family="Helvetica,sans-Serif" font-size="10.00">size_t iMoves</text>
<text text-anchor="start" x="162" y="-248.5" font-family="Helvetica,sans-Serif" font-size="10.00">+</text>
<text text-anchor="start" x="173" y="-248.5" font-family="Helvetica,sans-Serif" font-size="10.00">size_t iGets</text>
<text text-anchor="start" x="162" y="-233.5" font-family="Helvetica,sans-Serif" font-size="10.00">+</text>
<text text-anchor="start" x="173" y="-233.5" font-family="Helvetica,sans-Serif" font-size="10.00">size_t iSets</text>
<text text-anchor="start" x="210" y="-218.5" font-family="Helvetica,sans-Serif" font-size="10.00"> </text>
<polygon fill="#666666" stroke="#666666" points="158,-303.5 158,-303.5 266,-303.5 266,-303.5 158,-303.5"/>
<polygon fill="#666666" stroke="#666666" points="158,-228.5 158,-228.5 171,-228.5 171,-228.5 158,-228.5"/>
<polygon fill="#666666" stroke="#666666" points="171,-228.5 171,-228.5 266,-228.5 266,-228.5 171,-228.5"/>
<polygon fill="none" stroke="#666666" points="158,-212 158,-321 266,-321 266,-212 158,-212"/>
</a>
</g>
</g>
<!-- Node4&#45;&gt;Node2 -->
<g id="edge3_Node000002_Node000004" class="edge"><title>Node4&#45;&gt;Node2</title>
<g id="a_edge3_Node000002_Node000004"><a xlink:title=" ">
<path fill="none" stroke="#63b8ff" d="M180.193,-207.987C173.45,-195.794 166.49,-183.208 160.254,-171.931"/>
<polygon fill="none" stroke="#63b8ff" points="160.101,-171.655 153.697,-168.34 154.293,-161.154 160.698,-164.469 160.101,-171.655"/>
</a>
</g>
<text text-anchor="middle" x="185.5" y="-182" font-family="Helvetica,sans-Serif" font-size="10.00" fill="grey"> +iStats</text>
</g>
</g>
</svg>
