<?xml version="1.0" encoding="UTF-8" standalone="no"?>
<!DOCTYPE svg PUBLIC "-//W3C//DTD SVG 1.1//EN"
 "http://www.w3.org/Graphics/SVG/1.1/DTD/svg11.dtd">
<!-- Generated by graphviz version 2.38.0 (20140413.2041)
 -->
<!-- Title: TVector Pages: 1 -->
<svg width="282pt" height="229pt"
 viewBox="0.00 0.00 282.00 229.00" xmlns="http://www.w3.org/2000/svg" xmlns:xlink="http://www.w3.org/1999/xlink">
<g id="graph0" class="graph" transform="scale(1 1) rotate(0) translate(4 225)">
<title>TVector</title>
<!-- Node1 -->
<g id="Node000001" class="node"><title>Node1</title>
<g id="a_Node000001"><a xlink:title="Definice typu Vector.">
<polygon fill="#999999" stroke="#666666" points="182.5,-57 95.5,-57 95.5,-0 182.5,-0 182.5,-57"/>
<text text-anchor="start" x="122.5" y="-40.5" font-family="Helvetica,sans-Serif" font-size="10.00">TVector</text>
<text text-anchor="start" x="108" y="-25.5" font-family="Helvetica,sans-Serif" font-size="10.00">+</text>
<text text-anchor="start" x="119" y="-25.5" font-family="Helvetica,sans-Serif" font-size="10.00">size_t iSize</text>
<text text-anchor="start" x="137.5" y="-10.5" font-family="Helvetica,sans-Serif" font-size="10.00"> </text>
<polygon fill="#666666" stroke="#666666" points="104,-35.5 104,-35.5 175,-35.5 175,-35.5 104,-35.5"/>
<polygon fill="#666666" stroke="#666666" points="104,-20.5 104,-20.5 117,-20.5 117,-20.5 104,-20.5"/>
<polygon fill="#666666" stroke="#666666" points="117,-20.5 117,-20.5 175,-20.5 175,-20.5 117,-20.5"/>
<polygon fill="none" stroke="#666666" points="103.5,-4 103.5,-53 174.5,-53 174.5,-4 103.5,-4"/>
</a>
</g>
</g>
<!-- Node2 -->
<g id="Node000002" class="node"><title>Node2</title>
<g id="a_Node000002"><a xlink:href="group___t_vector_element.html#struct_t_student" target="_top" xlink:title="Definice typu TStudent.">
<polygon fill="white" stroke="#666666" points="132,-213.5 0,-213.5 0,-111.5 132,-111.5 132,-213.5"/>
<text text-anchor="start" x="46" y="-197.5" font-family="Helvetica,sans-Serif" font-size="10.00">TStudent</text>
<text text-anchor="start" x="12" y="-182.5" font-family="Helvetica,sans-Serif" font-size="10.00">+</text>
<text text-anchor="start" x="23" y="-182.5" font-family="Helvetica,sans-Serif" font-size="10.00">char iFirstName</text>
<text text-anchor="start" x="12" y="-167.5" font-family="Helvetica,sans-Serif" font-size="10.00">+</text>
<text text-anchor="start" x="23" y="-167.5" font-family="Helvetica,sans-Serif" font-size="10.00">char iLastName</text>
<text text-anchor="start" x="12" y="-152.5" font-family="Helvetica,sans-Serif" font-size="10.00">+</text>
<text text-anchor="start" x="23" y="-152.5" font-family="Helvetica,sans-Serif" font-size="10.00">size_t iId</text>
<text text-anchor="start" x="12" y="-137.5" font-family="Helvetica,sans-Serif" font-size="10.00">+</text>
<text text-anchor="start" x="23" y="-137.5" font-family="Helvetica,sans-Serif" font-size="10.00">unsigned short iPoints</text>
<text text-anchor="start" x="64" y="-122.5" font-family="Helvetica,sans-Serif" font-size="10.00"> </text>
<polygon fill="#666666" stroke="#666666" points="8,-192.5 8,-192.5 124,-192.5 124,-192.5 8,-192.5"/>
<polygon fill="#666666" stroke="#666666" points="8,-132.5 8,-132.5 21,-132.5 21,-132.5 8,-132.5"/>
<polygon fill="#666666" stroke="#666666" points="21,-132.5 21,-132.5 124,-132.5 124,-132.5 21,-132.5"/>
<polygon fill="none" stroke="#666666" points="8,-115.5 8,-209.5 124,-209.5 124,-115.5 8,-115.5"/>
</a>
</g>
</g>
<!-- Node2&#45;&gt;Node1 -->
<g id="edge1_Node000001_Node000002" class="edge"><title>Node2&#45;&gt;Node1</title>
<g id="a_edge1_Node000001_Node000002"><a xlink:title=" ">
<path fill="none" stroke="#63b8ff" d="M93.8064,-111.22C101.739,-96.876 110.253,-81.4804 117.729,-67.9626"/>
<polygon fill="none" stroke="#63b8ff" points="117.921,-67.6149 117.325,-60.4285 123.729,-57.1137 124.325,-64.3001 117.921,-67.6149"/>
</a>
</g>
<text text-anchor="middle" x="135" y="-78" font-family="Helvetica,sans-Serif" font-size="10.00" fill="grey"> +iValues</text>
</g>
<!-- Node3 -->
<g id="Node000003" class="node"><title>Node3</title>
<g id="a_Node000003"><a xlink:href="group__sortable___t_vector.html#struct_t_vector_sort_stats" target="_top" xlink:title="Definice typu VectorSortStats.">
<polygon fill="white" stroke="#666666" points="274,-221 150,-221 150,-104 274,-104 274,-221"/>
<text text-anchor="start" x="174" y="-204.5" font-family="Helvetica,sans-Serif" font-size="10.00">TVectorSortStats</text>
<text text-anchor="start" x="162" y="-189.5" font-family="Helvetica,sans-Serif" font-size="10.00">+</text>
<text text-anchor="start" x="173" y="-189.5" font-family="Helvetica,sans-Serif" font-size="10.00">size_t iComparisons</text>
<text text-anchor="start" x="162" y="-174.5" font-family="Helvetica,sans-Serif" font-size="10.00">+</text>
<text text-anchor="start" x="173" y="-174.5" font-family="Helvetica,sans-Serif" font-size="10.00">size_t iSwaps</text>
<text text-anchor="start" x="162" y="-159.5" font-family="Helvetica,sans-Serif" font-size="10.00">+</text>
<text text-anchor="start" x="173" y="-159.5" font-family="Helvetica,sans-Serif" font-size="10.00">size_t iMoves</text>
<text text-anchor="start" x="162" y="-144.5" font-family="Helvetica,sans-Serif" font-size="10.00">+</text>
<text text-anchor="start" x="173" y="-144.5" font-family="Helvetica,sans-Serif" font-size="10.00">size_t iGets</text>
<text text-anchor="start" x="162" y="-129.5" font-family="Helvetica,sans-Serif" font-size="10.00">+</text>
<text text-anchor="start" x="173" y="-129.5" font-family="Helvetica,sans-Serif" font-size="10.00">size_t iSets</text>
<text text-anchor="start" x="210" y="-114.5" font-family="Helvetica,sans-Serif" font-size="10.00"> </text>
<polygon fill="#666666" stroke="#666666" points="158,-199.5 158,-199.5 266,-199.5 266,-199.5 158,-199.5"/>
<polygon fill="#666666" stroke="#666666" points="158,-124.5 158,-124.5 171,-124.5 171,-124.5 158,-124.5"/>
<polygon fill="#666666" stroke="#666666" points="171,-124.5 171,-124.5 266,-124.5 266,-124.5 171,-124.5"/>
<polygon fill="none" stroke="#666666" points="158,-108 158,-217 266,-217 266,-108 158,-108"/>
</a>
</g>
</g>
<!-- Node3&#45;&gt;Node1 -->
<g id="edge2_Node000001_Node000003" class="edge"><title>Node3&#45;&gt;Node1</title>
<g id="a_edge2_Node000001_Node000003"><a xlink:title=" ">
<path fill="none" stroke="#63b8ff" d="M180.193,-103.987C173.45,-91.794 166.49,-79.2082 160.254,-67.9314"/>
<polygon fill="none" stroke="#63b8ff" points="160.101,-67.6551 153.697,-64.3403 154.293,-57.1539 160.698,-60.4687 160.101,-67.6551"/>
</a>
</g>
<text text-anchor="middle" x="185.5" y="-78" font-family="Helvetica,sans-Serif" font-size="10.00" fill="grey"> +iStats</text>
</g>
</g>
</svg>
