<?xml version="1.0" encoding="UTF-8" standalone="no"?>
<!DOCTYPE svg PUBLIC "-//W3C//DTD SVG 1.1//EN"
 "http://www.w3.org/Graphics/SVG/1.1/DTD/svg11.dtd">
<!-- Generated by graphviz version 2.38.0 (20140413.2041)
 -->
<!-- Title: queue_iterator_value Pages: 1 -->
<svg width="352pt" height="103pt"
 viewBox="0.00 0.00 352.00 103.00" xmlns="http://www.w3.org/2000/svg" xmlns:xlink="http://www.w3.org/1999/xlink">
<g id="graph0" class="graph" transform="scale(1 1) rotate(0) translate(4 99)">
<title>queue_iterator_value</title>
<!-- Node1 -->
<g id="Node000001" class="node"><title>Node1</title>
<g id="a_Node000001"><a xlink:title="Přečtení hodnoty elementu z fronty pomocí iterátoru.">
<polygon fill="#999999" stroke="#666666" points="344,-57 239,-57 239,-38 344,-38 344,-57"/>
<text text-anchor="middle" x="291.5" y="-45" font-family="Helvetica,sans-Serif" font-size="10.00">queue_iterator_value</text>
</a>
</g>
</g>
<!-- Node2 -->
<g id="Node000002" class="node"><title>Node2</title>
<g id="a_Node000002"><a xlink:href="group___main_program.html#ga5ec1bf27394ea27ffb0109783ddf69ff" target="_top" xlink:title="Porovnání hodnoty elementu fronty pomocí iterátoru s hodnotou 43.">
<polygon fill="white" stroke="#666666" points="203,-95 74,-95 74,-76 203,-76 203,-95"/>
<text text-anchor="middle" x="138.5" y="-83" font-family="Helvetica,sans-Serif" font-size="10.00">is_element_with_value_43</text>
</a>
</g>
</g>
<!-- Node1&#45;&gt;Node2 -->
<g id="edge1_Node000001_Node000002" class="edge"><title>Node1&#45;&gt;Node2</title>
<g id="a_edge1_Node000001_Node000002"><a xlink:title=" ">
<path fill="none" stroke="#63b8ff" d="M242.657,-59.54C221.561,-64.8488 197.123,-70.9988 177.33,-75.9799"/>
<polygon fill="#63b8ff" stroke="#63b8ff" points="243.553,-62.9237 252.396,-57.089 241.844,-56.1354 243.553,-62.9237"/>
</a>
</g>
</g>
<!-- Node3 -->
<g id="Node000003" class="node"><title>Node3</title>
<g id="a_Node000003"><a xlink:href="group___main_program.html#gae66f6b31b5ad750f1fe042a706a4e3d4" target="_top" xlink:title=" ">
<polygon fill="white" stroke="#666666" points="38,-57 0,-57 0,-38 38,-38 38,-57"/>
<text text-anchor="middle" x="19" y="-45" font-family="Helvetica,sans-Serif" font-size="10.00">main</text>
</a>
</g>
</g>
<!-- Node1&#45;&gt;Node3 -->
<g id="edge3_Node000001_Node000003" class="edge"><title>Node1&#45;&gt;Node3</title>
<g id="a_edge3_Node000001_Node000003"><a xlink:title=" ">
<path fill="none" stroke="#63b8ff" d="M228.982,-47.5C167.374,-47.5 76.3684,-47.5 38.0497,-47.5"/>
<polygon fill="#63b8ff" stroke="#63b8ff" points="228.984,-51.0001 238.984,-47.5 228.984,-44.0001 228.984,-51.0001"/>
</a>
</g>
</g>
<!-- Node4 -->
<g id="Node000004" class="node"><title>Node4</title>
<g id="a_Node000004"><a xlink:href="group___main_program.html#ga46eef449f9e5694614f26704628baf7d" target="_top" xlink:title="Vytisknutí elementu fronty pomocí iterátoru.">
<polygon fill="white" stroke="#666666" points="176,-19 101,-19 101,-0 176,-0 176,-19"/>
<text text-anchor="middle" x="138.5" y="-7" font-family="Helvetica,sans-Serif" font-size="10.00">print_element</text>
</a>
</g>
</g>
<!-- Node1&#45;&gt;Node4 -->
<g id="edge4_Node000001_Node000004" class="edge"><title>Node1&#45;&gt;Node4</title>
<g id="a_edge4_Node000001_Node000004"><a xlink:title=" ">
<path fill="none" stroke="#63b8ff" d="M242.466,-35.412C220.949,-29.9972 195.986,-23.7151 176.029,-18.6927"/>
<polygon fill="#63b8ff" stroke="#63b8ff" points="241.844,-38.8646 252.396,-37.911 243.553,-32.0763 241.844,-38.8646"/>
</a>
</g>
</g>
<!-- Node2&#45;&gt;Node3 -->
<g id="edge2_Node000002_Node000003" class="edge"><title>Node2&#45;&gt;Node3</title>
<g id="a_edge2_Node000002_Node000003"><a xlink:title=" ">
<path fill="none" stroke="#63b8ff" d="M98.2359,-72.8018C77.9814,-66.2514 54.2423,-58.5741 38.2707,-53.4088"/>
<polygon fill="#63b8ff" stroke="#63b8ff" points="97.258,-76.164 107.85,-75.911 99.412,-69.5036 97.258,-76.164"/>
</a>
</g>
</g>
<!-- Node4&#45;&gt;Node3 -->
<g id="edge5_Node000004_Node000003" class="edge"><title>Node4&#45;&gt;Node3</title>
<g id="a_edge5_Node000004_Node000003"><a xlink:title=" ">
<path fill="none" stroke="#63b8ff" d="M98.2359,-22.1982C77.9814,-28.7486 54.2423,-36.4259 38.2707,-41.5912"/>
<polygon fill="#63b8ff" stroke="#63b8ff" points="99.412,-25.4964 107.85,-19.089 97.258,-18.836 99.412,-25.4964"/>
</a>
</g>
</g>
</g>
</svg>
