<?xml version="1.0" encoding="UTF-8" standalone="no"?>
<!DOCTYPE svg PUBLIC "-//W3C//DTD SVG 1.1//EN"
 "http://www.w3.org/Graphics/SVG/1.1/DTD/svg11.dtd">
<!-- Generated by graphviz version 2.38.0 (20140413.2041)
 -->
<!-- Title: print_element Pages: 1 -->
<svg width="499pt" height="27pt"
 viewBox="0.00 0.00 499.00 27.00" xmlns="http://www.w3.org/2000/svg" xmlns:xlink="http://www.w3.org/1999/xlink">
<g id="graph0" class="graph" transform="scale(1 1) rotate(0) translate(4 23)">
<title>print_element</title>
<!-- Node1 -->
<g id="Node000001" class="node"><title>Node1</title>
<g id="a_Node000001"><a xlink:title="Vytisknutí elementu fronty pomocí iterátoru.">
<polygon fill="#999999" stroke="#666666" points="75,-19 0,-19 0,-0 75,-0 75,-19"/>
<text text-anchor="middle" x="37.5" y="-7" font-family="Helvetica,sans-Serif" font-size="10.00">print_element</text>
</a>
</g>
</g>
<!-- Node2 -->
<g id="Node000002" class="node"><title>Node2</title>
<g id="a_Node000002"><a xlink:href="group___t_queue_iterator.html#ga30db60bf663f58b83b1181d5406ec879" target="_top" xlink:title="Přečtení hodnoty elementu z fronty pomocí iterátoru.">
<polygon fill="white" stroke="#666666" points="216,-19 111,-19 111,-0 216,-0 216,-19"/>
<text text-anchor="middle" x="163.5" y="-7" font-family="Helvetica,sans-Serif" font-size="10.00">queue_iterator_value</text>
</a>
</g>
</g>
<!-- Node1&#45;&gt;Node2 -->
<g id="edge1_Node000001_Node000002" class="edge"><title>Node1&#45;&gt;Node2</title>
<g id="a_edge1_Node000001_Node000002"><a xlink:title=" ">
<path fill="none" stroke="#63b8ff" d="M75.0334,-9.5C83.0436,-9.5 91.7401,-9.5 100.438,-9.5"/>
<polygon fill="#63b8ff" stroke="#63b8ff" points="100.609,-13.0001 110.609,-9.5 100.609,-6.0001 100.609,-13.0001"/>
</a>
</g>
</g>
<!-- Node3 -->
<g id="Node000003" class="node"><title>Node3</title>
<g id="a_Node000003"><a xlink:href="group___t_queue_iterator.html#ga6cbf7aa3d466d2bf585fe988b8bc9593" target="_top" xlink:title="Zjištění platnosti iterátoru.">
<polygon fill="white" stroke="#666666" points="367,-19 252,-19 252,-0 367,-0 367,-19"/>
<text text-anchor="middle" x="309.5" y="-7" font-family="Helvetica,sans-Serif" font-size="10.00">queue_iterator_is_valid</text>
</a>
</g>
</g>
<!-- Node2&#45;&gt;Node3 -->
<g id="edge2_Node000002_Node000003" class="edge"><title>Node2&#45;&gt;Node3</title>
<g id="a_edge2_Node000002_Node000003"><a xlink:title=" ">
<path fill="none" stroke="#63b8ff" d="M216.081,-9.5C224.433,-9.5 233.186,-9.5 241.835,-9.5"/>
<polygon fill="#63b8ff" stroke="#63b8ff" points="241.91,-13.0001 251.91,-9.5 241.91,-6.0001 241.91,-13.0001"/>
</a>
</g>
</g>
<!-- Node4 -->
<g id="Node000004" class="node"><title>Node4</title>
<g id="a_Node000004"><a xlink:href="group___t_queue.html#gaa9812b8f3c1b0707450f91283f97384c" target="_top" xlink:title="Zjištění, zda je fronta prázdná">
<polygon fill="white" stroke="#666666" points="491,-19 403,-19 403,-0 491,-0 491,-19"/>
<text text-anchor="middle" x="447" y="-7" font-family="Helvetica,sans-Serif" font-size="10.00">queue_is_empty</text>
</a>
</g>
</g>
<!-- Node3&#45;&gt;Node4 -->
<g id="edge3_Node000003_Node000004" class="edge"><title>Node3&#45;&gt;Node4</title>
<g id="a_edge3_Node000003_Node000004"><a xlink:title=" ">
<path fill="none" stroke="#63b8ff" d="M367.179,-9.5C375.635,-9.5 384.326,-9.5 392.709,-9.5"/>
<polygon fill="#63b8ff" stroke="#63b8ff" points="392.743,-13.0001 402.743,-9.5 392.743,-6.0001 392.743,-13.0001"/>
</a>
</g>
</g>
</g>
</svg>
