<?xml version="1.0" encoding="UTF-8" standalone="no"?>
<!DOCTYPE svg PUBLIC "-//W3C//DTD SVG 1.1//EN"
 "http://www.w3.org/Graphics/SVG/1.1/DTD/svg11.dtd">
<!-- Generated by graphviz version 2.38.0 (20140413.2041)
 -->
<!-- Title: fibonacci.h Pages: 1 -->
<svg width="264pt" height="137pt"
 viewBox="0.00 0.00 264.00 137.00" xmlns="http://www.w3.org/2000/svg" xmlns:xlink="http://www.w3.org/1999/xlink">
<g id="graph0" class="graph" transform="scale(1 1) rotate(0) translate(4 133)">
<title>fibonacci.h</title>
<!-- Node1 -->
<g id="Node000001" class="node"><title>Node1</title>
<g id="a_Node000001"><a xlink:title="Deklarace různých variant implementace výpočtu hodnot Fibonacciho posloupnosti.">
<polygon fill="#999999" stroke="#666666" points="154.5,-129 91.5,-129 91.5,-110 154.5,-110 154.5,-129"/>
<text text-anchor="middle" x="123" y="-117" font-family="Helvetica,sans-Serif" font-size="10.00">fibonacci.h</text>
</a>
</g>
</g>
<!-- Node2 -->
<g id="Node000002" class="node"><title>Node2</title>
<g id="a_Node000002"><a xlink:href="memoizer_8h.html" target="_top" xlink:title="Definice typu reprezentující memoizační funktor.">
<polygon fill="white" stroke="#666666" points="157,-74 89,-74 89,-55 157,-55 157,-74"/>
<text text-anchor="middle" x="123" y="-62" font-family="Helvetica,sans-Serif" font-size="10.00">memoizer.h</text>
</a>
</g>
</g>
<!-- Node1&#45;&gt;Node2 -->
<g id="edge1_Node000001_Node000002" class="edge"><title>Node1&#45;&gt;Node2</title>
<g id="a_edge1_Node000001_Node000002"><a xlink:title=" ">
<path fill="none" stroke="#63b8ff" d="M123,-109.748C123,-102.802 123,-92.8451 123,-84.1349"/>
<polygon fill="#63b8ff" stroke="#63b8ff" points="126.5,-84.089 123,-74.089 119.5,-84.0891 126.5,-84.089"/>
</a>
</g>
</g>
<!-- Node3 -->
<g id="Node000003" class="node"><title>Node3</title>
<g id="a_Node000003"><a xlink:title=" ">
<polygon fill="#e0e0e0" stroke="#999999" points="46,-19 0,-19 0,-0 46,-0 46,-19"/>
<text text-anchor="middle" x="23" y="-7" font-family="Helvetica,sans-Serif" font-size="10.00">stdio.h</text>
</a>
</g>
</g>
<!-- Node2&#45;&gt;Node3 -->
<g id="edge2_Node000002_Node000003" class="edge"><title>Node2&#45;&gt;Node3</title>
<g id="a_edge2_Node000002_Node000003"><a xlink:title=" ">
<path fill="none" stroke="#63b8ff" d="M106.933,-54.9846C91.1362,-46.6122 66.7828,-33.7049 48.3697,-23.9459"/>
<polygon fill="#63b8ff" stroke="#63b8ff" points="49.8339,-20.7608 39.3591,-19.1703 46.5558,-26.9458 49.8339,-20.7608"/>
</a>
</g>
</g>
<!-- Node4 -->
<g id="Node000004" class="node"><title>Node4</title>
<g id="a_Node000004"><a xlink:title=" ">
<polygon fill="#e0e0e0" stroke="#999999" points="112,-19 64,-19 64,-0 112,-0 112,-19"/>
<text text-anchor="middle" x="88" y="-7" font-family="Helvetica,sans-Serif" font-size="10.00">stdlib.h</text>
</a>
</g>
</g>
<!-- Node2&#45;&gt;Node4 -->
<g id="edge3_Node000002_Node000004" class="edge"><title>Node2&#45;&gt;Node4</title>
<g id="a_edge3_Node000002_Node000004"><a xlink:title=" ">
<path fill="none" stroke="#63b8ff" d="M117.22,-54.7481C112.379,-47.4162 105.321,-36.7295 99.3555,-27.6954"/>
<polygon fill="#63b8ff" stroke="#63b8ff" points="102.103,-25.505 93.672,-19.089 96.262,-29.3624 102.103,-25.505"/>
</a>
</g>
</g>
<!-- Node5 -->
<g id="Node000005" class="node"><title>Node5</title>
<g id="a_Node000005"><a xlink:title=" ">
<polygon fill="#e0e0e0" stroke="#999999" points="186,-19 130,-19 130,-0 186,-0 186,-19"/>
<text text-anchor="middle" x="158" y="-7" font-family="Helvetica,sans-Serif" font-size="10.00">stdbool.h</text>
</a>
</g>
</g>
<!-- Node2&#45;&gt;Node5 -->
<g id="edge4_Node000002_Node000005" class="edge"><title>Node2&#45;&gt;Node5</title>
<g id="a_edge4_Node000002_Node000005"><a xlink:title=" ">
<path fill="none" stroke="#63b8ff" d="M128.78,-54.7481C133.621,-47.4162 140.679,-36.7295 146.645,-27.6954"/>
<polygon fill="#63b8ff" stroke="#63b8ff" points="149.738,-29.3624 152.328,-19.089 143.897,-25.505 149.738,-29.3624"/>
</a>
</g>
</g>
<!-- Node6 -->
<g id="Node000006" class="node"><title>Node6</title>
<g id="a_Node000006"><a xlink:title=" ">
<polygon fill="#e0e0e0" stroke="#999999" points="256,-19 204,-19 204,-0 256,-0 256,-19"/>
<text text-anchor="middle" x="230" y="-7" font-family="Helvetica,sans-Serif" font-size="10.00">assert.h</text>
</a>
</g>
</g>
<!-- Node2&#45;&gt;Node6 -->
<g id="edge5_Node000002_Node000006" class="edge"><title>Node2&#45;&gt;Node6</title>
<g id="a_edge5_Node000002_Node000006"><a xlink:title=" ">
<path fill="none" stroke="#63b8ff" d="M140.191,-54.9846C157.249,-46.5354 183.631,-33.4677 203.395,-23.6781"/>
<polygon fill="#63b8ff" stroke="#63b8ff" points="205.088,-26.7453 212.496,-19.1703 201.981,-20.4726 205.088,-26.7453"/>
</a>
</g>
</g>
</g>
</svg>
