<?xml version="1.0" encoding="UTF-8" standalone="no"?>
<!DOCTYPE svg PUBLIC "-//W3C//DTD SVG 1.1//EN"
 "http://www.w3.org/Graphics/SVG/1.1/DTD/svg11.dtd">
<!-- Generated by graphviz version 2.38.0 (20140413.2041)
 -->
<!-- Title: fibonacci1 Pages: 1 -->
<svg width="142pt" height="45pt"
 viewBox="0.00 0.00 142.00 45.00" xmlns="http://www.w3.org/2000/svg" xmlns:xlink="http://www.w3.org/1999/xlink">
<g id="graph0" class="graph" transform="scale(1 1) rotate(0) translate(4 41)">
<title>fibonacci1</title>
<!-- Node1 -->
<g id="Node000001" class="node"><title>Node1</title>
<g id="a_Node000001"><a xlink:title="Implementace výpočtu Fibonacciho čísla pomocí stromové rekurze.">
<polygon fill="#999999" stroke="#666666" points="134,-19 74,-19 74,-0 134,-0 134,-19"/>
<text text-anchor="middle" x="104" y="-7" font-family="Helvetica,sans-Serif" font-size="10.00">fibonacci1</text>
</a>
</g>
</g>
<!-- Node1&#45;&gt;Node1 -->
<g id="edge1_Node000001_Node000001" class="edge"><title>Node1&#45;&gt;Node1</title>
<g id="a_edge1_Node000001_Node000001"><a xlink:title=" ">
<path fill="none" stroke="#63b8ff" d="M119.469,-28.9133C118.254,-33.5591 113.098,-37 104,-37 89.0703,-37 84.7547,-27.7337 91.0532,-19.0828"/>
<polygon fill="#63b8ff" stroke="#63b8ff" points="122.822,-27.8992 116.947,-19.0828 116.042,-29.6389 122.822,-27.8992"/>
</a>
</g>
</g>
<!-- Node2 -->
<g id="Node000002" class="node"><title>Node2</title>
<g id="a_Node000002"><a xlink:href="group___main_program.html#ga0ddf1224851353fc92bfbff6f499fa97" target="_top" xlink:title=" ">
<polygon fill="white" stroke="#666666" points="38,-19 0,-19 0,-0 38,-0 38,-19"/>
<text text-anchor="middle" x="19" y="-7" font-family="Helvetica,sans-Serif" font-size="10.00">main</text>
</a>
</g>
</g>
<!-- Node1&#45;&gt;Node2 -->
<g id="edge2_Node000001_Node000002" class="edge"><title>Node1&#45;&gt;Node2</title>
<g id="a_edge2_Node000001_Node000002"><a xlink:title=" ">
<path fill="none" stroke="#63b8ff" d="M63.9038,-9.5C54.8481,-9.5 45.6393,-9.5 38.0098,-9.5"/>
<polygon fill="#63b8ff" stroke="#63b8ff" points="63.9707,-13.0001 73.9706,-9.5 63.9706,-6.0001 63.9707,-13.0001"/>
</a>
</g>
</g>
</g>
</svg>
