<?xml version="1.0" encoding="UTF-8" standalone="no"?>
<!DOCTYPE svg PUBLIC "-//W3C//DTD SVG 1.1//EN"
 "http://www.w3.org/Graphics/SVG/1.1/DTD/svg11.dtd">
<!-- Generated by graphviz version 2.38.0 (20140413.2041)
 -->
<!-- Title: main Pages: 1 -->
<svg width="322pt" height="378pt"
 viewBox="0.00 0.00 322.00 378.00" xmlns="http://www.w3.org/2000/svg" xmlns:xlink="http://www.w3.org/1999/xlink">
<g id="graph0" class="graph" transform="scale(1 1) rotate(0) translate(4 374)">
<title>main</title>
<!-- Node1 -->
<g id="Node000001" class="node"><title>Node1</title>
<g id="a_Node000001"><a xlink:title=" ">
<polygon fill="#999999" stroke="#666666" points="38,-185 0,-185 0,-166 38,-166 38,-185"/>
<text text-anchor="middle" x="19" y="-173" font-family="Helvetica,sans-Serif" font-size="10.00">main</text>
</a>
</g>
</g>
<!-- Node2 -->
<g id="Node000002" class="node"><title>Node2</title>
<g id="a_Node000002"><a xlink:href="group___fibonacci__recursion.html#gaf07a76ad6b1e0083c161055bac707795" target="_top" xlink:title="Implementace výpočtu Fibonacciho čísla pomocí stromové rekurze.">
<polygon fill="white" stroke="#666666" points="159,-352 99,-352 99,-333 159,-333 159,-352"/>
<text text-anchor="middle" x="129" y="-340" font-family="Helvetica,sans-Serif" font-size="10.00">fibonacci1</text>
</a>
</g>
</g>
<!-- Node1&#45;&gt;Node2 -->
<g id="edge1_Node000001_Node000002" class="edge"><title>Node1&#45;&gt;Node2</title>
<g id="a_edge1_Node000001_Node000002"><a xlink:title=" ">
<path fill="none" stroke="#63b8ff" d="M20.6603,-185.038C22.9806,-211.159 33.0107,-284.56 74,-324.5 78.3075,-328.697 83.6188,-331.916 89.2132,-334.385"/>
<polygon fill="#63b8ff" stroke="#63b8ff" points="88.1744,-337.731 98.7683,-337.871 90.5736,-331.155 88.1744,-337.731"/>
</a>
</g>
</g>
<!-- Node3 -->
<g id="Node000003" class="node"><title>Node3</title>
<g id="a_Node000003"><a xlink:href="group___fibonacci__iteration.html#gaf0bff30a2b6ec37a67dac2b6cec2662d" target="_top" xlink:title="Implementace výpočtu Fibonacciho čísla pomocí iterace (cyklu)">
<polygon fill="white" stroke="#666666" points="159,-315 99,-315 99,-296 159,-296 159,-315"/>
<text text-anchor="middle" x="129" y="-303" font-family="Helvetica,sans-Serif" font-size="10.00">fibonacci2</text>
</a>
</g>
</g>
<!-- Node1&#45;&gt;Node3 -->
<g id="edge3_Node000001_Node000003" class="edge"><title>Node1&#45;&gt;Node3</title>
<g id="a_edge3_Node000001_Node000003"><a xlink:title=" ">
<path fill="none" stroke="#63b8ff" d="M21.9687,-185.139C26.8613,-206.663 41.5891,-258.979 74,-287.5 78.4675,-291.431 83.8211,-294.509 89.3969,-296.917"/>
<polygon fill="#63b8ff" stroke="#63b8ff" points="88.279,-300.235 98.873,-300.371 90.6758,-293.658 88.279,-300.235"/>
</a>
</g>
</g>
<!-- Node4 -->
<g id="Node000004" class="node"><title>Node4</title>
<g id="a_Node000004"><a xlink:href="group___fibonacci__recursion__memoize.html#ga719efe552f8fecbc8e8b0f1e6c1cce50" target="_top" xlink:title="Implementace výpočtu Fibonacciho čísla pomocí stromové rekurze s využitím memoizace.">
<polygon fill="white" stroke="#666666" points="159,-278 99,-278 99,-259 159,-259 159,-278"/>
<text text-anchor="middle" x="129" y="-266" font-family="Helvetica,sans-Serif" font-size="10.00">fibonacci3</text>
</a>
</g>
</g>
<!-- Node1&#45;&gt;Node4 -->
<g id="edge4_Node000001_Node000004" class="edge"><title>Node1&#45;&gt;Node4</title>
<g id="a_edge4_Node000001_Node000004"><a xlink:title=" ">
<path fill="none" stroke="#63b8ff" d="M24.3869,-185.034C32.1583,-200.897 49.8318,-232.72 74,-250.5 78.5771,-253.867 83.8223,-256.63 89.2046,-258.89"/>
<polygon fill="#63b8ff" stroke="#63b8ff" points="88.3323,-262.297 98.9262,-262.436 90.7314,-255.721 88.3323,-262.297"/>
</a>
</g>
</g>
<!-- Node6 -->
<g id="Node000006" class="node"><title>Node6</title>
<g id="a_Node000006"><a xlink:href="group___fibonacci__recursion__memoize.html#ga7038381d3a82a541aa892899347446f4" target="_top" xlink:title="Funkce výpočtu Fibonacciho čísla pomocí stromové rekurze s využitím memoizace volaná z main() jako tz...">
<polygon fill="white" stroke="#666666" points="178.5,-241 79.5,-241 79.5,-222 178.5,-222 178.5,-241"/>
<text text-anchor="middle" x="129" y="-229" font-family="Helvetica,sans-Serif" font-size="10.00">fibonacci3_wrapper</text>
</a>
</g>
</g>
<!-- Node1&#45;&gt;Node6 -->
<g id="edge6_Node000001_Node000006" class="edge"><title>Node1&#45;&gt;Node6</title>
<g id="a_edge6_Node000001_Node000006"><a xlink:title=" ">
<path fill="none" stroke="#63b8ff" d="M31.3809,-185.002C41.9,-193.409 58.2402,-205.544 74,-213.5 77.3744,-215.203 80.9459,-216.8 84.5803,-218.283"/>
<polygon fill="#63b8ff" stroke="#63b8ff" points="83.6641,-221.678 94.2557,-221.94 86.1391,-215.13 83.6641,-221.678"/>
</a>
</g>
</g>
<!-- Node7 -->
<g id="Node000007" class="node"><title>Node7</title>
<g id="a_Node000007"><a xlink:href="group___fibonacci__recursion__tail__call.html#ga2176ac33f9dd8338fb49db64d3dc0fae" target="_top" xlink:title="Implementace výpočtu Fibonacciho čísla pomocí koncové rekurze.">
<polygon fill="white" stroke="#666666" points="159,-204 99,-204 99,-185 159,-185 159,-204"/>
<text text-anchor="middle" x="129" y="-192" font-family="Helvetica,sans-Serif" font-size="10.00">fibonacci4</text>
</a>
</g>
</g>
<!-- Node1&#45;&gt;Node7 -->
<g id="edge8_Node000001_Node000007" class="edge"><title>Node1&#45;&gt;Node7</title>
<g id="a_edge8_Node000001_Node000007"><a xlink:title=" ">
<path fill="none" stroke="#63b8ff" d="M38.3207,-178.723C52.2057,-181.166 71.7873,-184.611 89.1119,-187.659"/>
<polygon fill="#63b8ff" stroke="#63b8ff" points="88.5362,-191.111 98.9914,-189.397 89.7491,-184.217 88.5362,-191.111"/>
</a>
</g>
</g>
<!-- Node9 -->
<g id="Node000009" class="node"><title>Node9</title>
<g id="a_Node000009"><a xlink:href="group___main_program.html#gacddcd824577bbc488d7c8c67a2f5a6fa" target="_top" xlink:title="Testování funkcí fibonacciX()">
<polygon fill="white" stroke="#666666" points="173.5,-167 84.5,-167 84.5,-148 173.5,-148 173.5,-167"/>
<text text-anchor="middle" x="129" y="-155" font-family="Helvetica,sans-Serif" font-size="10.00">fibonacci_testing</text>
</a>
</g>
</g>
<!-- Node1&#45;&gt;Node9 -->
<g id="edge11_Node000001_Node000009" class="edge"><title>Node1&#45;&gt;Node9</title>
<g id="a_edge11_Node000001_Node000009"><a xlink:title=" ">
<path fill="none" stroke="#63b8ff" d="M38.3207,-172.447C48.3917,-170.768 61.4596,-168.59 74.4894,-166.418"/>
<polygon fill="#63b8ff" stroke="#63b8ff" points="75.1072,-169.864 84.3957,-164.767 73.9564,-162.959 75.1072,-169.864"/>
</a>
</g>
</g>
<!-- Node11 -->
<g id="Node000011" class="node"><title>Node11</title>
<g id="a_Node000011"><a xlink:href="group___t_memoizer.html#gac3b680c64e6cdba34bd7bfab1bd68d66" target="_top" xlink:title="Smazání archivovaných hodnot v memoizeru, vynulování statistik o počty volání memoizeru.">
<polygon fill="white" stroke="#666666" points="172,-130 86,-130 86,-111 172,-111 172,-130"/>
<text text-anchor="middle" x="129" y="-118" font-family="Helvetica,sans-Serif" font-size="10.00">memoizer_clear</text>
</a>
</g>
</g>
<!-- Node1&#45;&gt;Node11 -->
<g id="edge13_Node000001_Node000011" class="edge"><title>Node1&#45;&gt;Node11</title>
<g id="a_edge13_Node000001_Node000011"><a xlink:title=" ">
<path fill="none" stroke="#63b8ff" d="M32.3305,-165.979C42.939,-158.113 58.8796,-147.051 74,-139.5 78.1122,-137.446 82.5011,-135.515 86.9325,-133.728"/>
<polygon fill="#63b8ff" stroke="#63b8ff" points="88.5021,-136.876 96.6105,-130.056 86.0192,-130.331 88.5021,-136.876"/>
</a>
</g>
</g>
<!-- Node12 -->
<g id="Node000012" class="node"><title>Node12</title>
<g id="a_Node000012"><a xlink:href="group___t_memoizer.html#gae130deba979f5244c43be229606bf163" target="_top" xlink:title="Deinicializace memoizeru.">
<polygon fill="white" stroke="#666666" points="177.5,-93 80.5,-93 80.5,-74 177.5,-74 177.5,-93"/>
<text text-anchor="middle" x="129" y="-81" font-family="Helvetica,sans-Serif" font-size="10.00">memoizer_destroy</text>
</a>
</g>
</g>
<!-- Node1&#45;&gt;Node12 -->
<g id="edge14_Node000001_Node000012" class="edge"><title>Node1&#45;&gt;Node12</title>
<g id="a_edge14_Node000001_Node000012"><a xlink:title=" ">
<path fill="none" stroke="#63b8ff" d="M24.8747,-165.514C32.9788,-149.905 50.6671,-119.732 74,-102.5 76.517,-100.641 79.2317,-98.9521 82.0574,-97.4192"/>
<polygon fill="#63b8ff" stroke="#63b8ff" points="83.7999,-100.467 91.3539,-93.0385 80.816,-94.1351 83.7999,-100.467"/>
</a>
</g>
</g>
<!-- Node13 -->
<g id="Node000013" class="node"><title>Node13</title>
<g id="a_Node000013"><a xlink:href="group___t_memoizer.html#ga7fd4a076d3b98ab7b0f67fcdb797b67c" target="_top" xlink:title="Inicializace memoizeru, asociace s memoizovanou funkcí, alokace vnitřního pole pro pár hodnot vstup a...">
<polygon fill="white" stroke="#666666" points="167.5,-56 90.5,-56 90.5,-37 167.5,-37 167.5,-56"/>
<text text-anchor="middle" x="129" y="-44" font-family="Helvetica,sans-Serif" font-size="10.00">memoizer_init</text>
</a>
</g>
</g>
<!-- Node1&#45;&gt;Node13 -->
<g id="edge15_Node000001_Node000013" class="edge"><title>Node1&#45;&gt;Node13</title>
<g id="a_edge15_Node000001_Node000013"><a xlink:title=" ">
<path fill="none" stroke="#63b8ff" d="M22.132,-165.75C27.2759,-144.49 42.3506,-93.6183 74,-65.5 76.3032,-63.4538 78.8405,-61.6245 81.5213,-59.9896"/>
<polygon fill="#63b8ff" stroke="#63b8ff" points="83.1622,-63.0816 90.4616,-55.4024 79.9666,-56.8535 83.1622,-63.0816"/>
</a>
</g>
</g>
<!-- Node14 -->
<g id="Node000014" class="node"><title>Node14</title>
<g id="a_Node000014"><a xlink:href="group___t_memoizer.html#ga0bbdcccd8a7105b3113829fd80f2cada" target="_top" xlink:title="Zobrazení hodnoty statistik počtu volání memoizeru.">
<polygon fill="white" stroke="#666666" points="184,-19 74,-19 74,-0 184,-0 184,-19"/>
<text text-anchor="middle" x="129" y="-7" font-family="Helvetica,sans-Serif" font-size="10.00">memoizer_print_stats</text>
</a>
</g>
</g>
<!-- Node1&#45;&gt;Node14 -->
<g id="edge16_Node000001_Node000014" class="edge"><title>Node1&#45;&gt;Node14</title>
<g id="a_edge16_Node000001_Node000014"><a xlink:title=" ">
<path fill="none" stroke="#63b8ff" d="M20.7739,-165.749C23.355,-139.742 33.9321,-68.0219 74,-28.5 75.6097,-26.9122 77.3597,-25.4566 79.2125,-24.1222"/>
<polygon fill="#63b8ff" stroke="#63b8ff" points="81.04,-27.1078 87.8767,-19.0139 77.4848,-21.0779 81.04,-27.1078"/>
</a>
</g>
</g>
<!-- Node2&#45;&gt;Node2 -->
<g id="edge2_Node000002_Node000002" class="edge"><title>Node2&#45;&gt;Node2</title>
<g id="a_edge2_Node000002_Node000002"><a xlink:title=" ">
<path fill="none" stroke="#63b8ff" d="M112.046,-352.083C103.798,-360.734 109.449,-370 129,-370 141.219,-370 148.009,-366.38 149.369,-361.554"/>
<polygon fill="#63b8ff" stroke="#63b8ff" points="152.639,-360.303 145.954,-352.083 146.054,-362.677 152.639,-360.303"/>
</a>
</g>
</g>
<!-- Node5 -->
<g id="Node000005" class="node"><title>Node5</title>
<g id="a_Node000005"><a xlink:href="group___t_memoizer.html#ga3cdbc39bcc445c7d6d8c6afd9376a632" target="_top" xlink:title="Volání memoizeru zajišťující získání výsledku asociované funkce pro zadaný parametr.">
<polygon fill="white" stroke="#666666" points="307.5,-268 226.5,-268 226.5,-249 307.5,-249 307.5,-268"/>
<text text-anchor="middle" x="267" y="-256" font-family="Helvetica,sans-Serif" font-size="10.00">memoizer_eval</text>
</a>
</g>
</g>
<!-- Node4&#45;&gt;Node5 -->
<g id="edge5_Node000004_Node000005" class="edge"><title>Node4&#45;&gt;Node5</title>
<g id="a_edge5_Node000004_Node000005"><a xlink:title=" ">
<path fill="none" stroke="#63b8ff" d="M159.175,-266.355C175.781,-265.134 197.033,-263.571 216.201,-262.162"/>
<polygon fill="#63b8ff" stroke="#63b8ff" points="216.579,-265.643 226.295,-261.419 216.066,-258.662 216.579,-265.643"/>
</a>
</g>
</g>
<!-- Node6&#45;&gt;Node5 -->
<g id="edge7_Node000006_Node000005" class="edge"><title>Node6&#45;&gt;Node5</title>
<g id="a_edge7_Node000006_Node000005"><a xlink:title=" ">
<path fill="none" stroke="#63b8ff" d="M177.949,-241.019C190.379,-243.487 203.792,-246.15 216.31,-248.635"/>
<polygon fill="#63b8ff" stroke="#63b8ff" points="215.631,-252.069 226.122,-250.583 216.995,-245.203 215.631,-252.069"/>
</a>
</g>
</g>
<!-- Node8 -->
<g id="Node000008" class="node"><title>Node8</title>
<g id="a_Node000008"><a xlink:href="fibonacci_8c.html#af2184aa6e303b330889d2f15fd124348" target="_top" xlink:title="Vnitřní a lokální funkce realizující koncovou rekurzi.">
<polygon fill="white" stroke="#666666" points="314,-204 220,-204 220,-185 314,-185 314,-204"/>
<text text-anchor="middle" x="267" y="-192" font-family="Helvetica,sans-Serif" font-size="10.00">fibonacci4_worker</text>
</a>
</g>
</g>
<!-- Node7&#45;&gt;Node8 -->
<g id="edge9_Node000007_Node000008" class="edge"><title>Node7&#45;&gt;Node8</title>
<g id="a_edge9_Node000007_Node000008"><a xlink:title=" ">
<path fill="none" stroke="#63b8ff" d="M159.175,-194.5C173.921,-194.5 192.329,-194.5 209.689,-194.5"/>
<polygon fill="#63b8ff" stroke="#63b8ff" points="209.754,-198 219.753,-194.5 209.753,-191 209.754,-198"/>
</a>
</g>
</g>
<!-- Node8&#45;&gt;Node8 -->
<g id="edge10_Node000008_Node000008" class="edge"><title>Node8&#45;&gt;Node8</title>
<g id="a_edge10_Node000008_Node000008"><a xlink:title=" ">
<path fill="none" stroke="#63b8ff" d="M245.73,-204.083C235.383,-212.734 242.473,-222 267,-222 282.713,-222 291.269,-218.197 292.67,-213.189"/>
<polygon fill="#63b8ff" stroke="#63b8ff" points="295.772,-211.564 288.27,-204.083 289.469,-214.61 295.772,-211.564"/>
</a>
</g>
</g>
<!-- Node10 -->
<g id="Node000010" class="node"><title>Node10</title>
<g id="a_Node000010"><a xlink:href="main__support_8h.html#aa291195ad453d2b1e29004cc2e043c01" target="_top" xlink:title="Výpočet doby trvání časového intervalu.">
<polygon fill="white" stroke="#666666" points="301,-167 233,-167 233,-148 301,-148 301,-167"/>
<text text-anchor="middle" x="267" y="-155" font-family="Helvetica,sans-Serif" font-size="10.00">difftimespec</text>
</a>
</g>
</g>
<!-- Node9&#45;&gt;Node10 -->
<g id="edge12_Node000009_Node000010" class="edge"><title>Node9&#45;&gt;Node10</title>
<g id="a_edge12_Node000009_Node000010"><a xlink:title=" ">
<path fill="none" stroke="#63b8ff" d="M173.78,-157.5C189.3,-157.5 206.757,-157.5 222.273,-157.5"/>
<polygon fill="#63b8ff" stroke="#63b8ff" points="222.657,-161 232.657,-157.5 222.657,-154 222.657,-161"/>
</a>
</g>
</g>
</g>
</svg>
