<?xml version="1.0" encoding="UTF-8" standalone="no"?>
<!DOCTYPE svg PUBLIC "-//W3C//DTD SVG 1.1//EN"
 "http://www.w3.org/Graphics/SVG/1.1/DTD/svg11.dtd">
<!-- Generated by graphviz version 2.38.0 (20140413.2041)
 -->
<!-- Title: 1. Fibonacci Pages: 1 -->
<svg width="269pt" height="182pt"
 viewBox="0.00 0.00 269.00 182.00" xmlns="http://www.w3.org/2000/svg" xmlns:xlink="http://www.w3.org/1999/xlink">
<g id="graph0" class="graph" transform="scale(1 1) rotate(0) translate(4 178)">
<title>1. Fibonacci</title>
<!-- Node1 -->
<g id="Node000001" class="node"><title>Node1</title>
<g id="a_Node000001"><a xlink:title="Implementace funkcí pro výpočet Fibonacciho čísel.">
<polygon fill="#999999" stroke="#666666" points="70,-96.5 0,-96.5 0,-77.5 70,-77.5 70,-96.5"/>
<text text-anchor="middle" x="35" y="-84.5" font-family="Helvetica,sans-Serif" font-size="10.00">1. Fibonacci</text>
</a>
</g>
</g>
<!-- Node3 -->
<g id="Node000003" class="node"><title>Node3</title>
<g id="a_Node000003"><a xlink:href="group___fibonacci__iteration.html" target="_top" xlink:title="Implementace funkce pro výpočet Fibonacciho čísel pomocí iterace.">
<polygon fill="white" stroke="#666666" points="257.5,-174 109.5,-174 109.5,-144 257.5,-144 257.5,-174"/>
<text text-anchor="start" x="117.5" y="-162" font-family="Helvetica,sans-Serif" font-size="10.00">1.2. Fibonacci &#45; Implementace</text>
<text text-anchor="middle" x="183.5" y="-151" font-family="Helvetica,sans-Serif" font-size="10.00"> pomocí iterace</text>
</a>
</g>
</g>
<!-- Node1&#45;&gt;Node3 -->
<g id="edge2" class="edge"><title>Node1&#45;&gt;Node3</title>
<path fill="none" stroke="black" d="M55.7914,-102.938C69.3005,-113.205 87.9542,-126.226 106,-135 112.76,-138.287 120.072,-141.255 127.402,-143.892"/>
<polygon fill="black" stroke="black" points="57.7586,-100.034 47.7151,-96.6607 53.4628,-105.561 57.7586,-100.034"/>
</g>
<!-- Node2 -->
<g id="Node000002" class="node"><title>Node2</title>
<g id="a_Node000002"><a xlink:href="group___fibonacci__recursion.html" target="_top" xlink:title="Implementace funkce pro výpočet Fibonacciho čísel pomocí stromové rekurze.">
<polygon fill="white" stroke="#666666" points="257.5,-126 109.5,-126 109.5,-96 257.5,-96 257.5,-126"/>
<text text-anchor="start" x="117.5" y="-114" font-family="Helvetica,sans-Serif" font-size="10.00">1.1. Fibonacci &#45; Implementace</text>
<text text-anchor="middle" x="183.5" y="-103" font-family="Helvetica,sans-Serif" font-size="10.00"> stromovou rekurzí</text>
</a>
</g>
</g>
<!-- Node1&#45;&gt;Node2 -->
<g id="edge1" class="edge"><title>Node1&#45;&gt;Node2</title>
<path fill="none" stroke="black" d="M80.3747,-94.2696C89.5615,-95.7746 99.4697,-97.3978 109.375,-99.0205"/>
<polygon fill="black" stroke="black" points="80.7821,-90.7897 70.3477,-92.6269 79.6503,-97.6977 80.7821,-90.7897"/>
</g>
<!-- Node4 -->
<g id="Node000004" class="node"><title>Node4</title>
<g id="a_Node000004"><a xlink:href="group___fibonacci__recursion__memoize.html" target="_top" xlink:title="Implementace funkce pro výpočet Fibonacciho čísel pomocí stromové rekurze s využitím memoizace.">
<polygon fill="white" stroke="#666666" points="261,-78 106,-78 106,-48 261,-48 261,-78"/>
<text text-anchor="start" x="114" y="-66" font-family="Helvetica,sans-Serif" font-size="10.00">1.3. Fibonacci &#45; Implementace</text>
<text text-anchor="middle" x="183.5" y="-55" font-family="Helvetica,sans-Serif" font-size="10.00"> stromovou rekurzí s memoizací</text>
</a>
</g>
</g>
<!-- Node1&#45;&gt;Node4 -->
<g id="edge3" class="edge"><title>Node1&#45;&gt;Node4</title>
<path fill="none" stroke="black" d="M80.2916,-79.744C88.4107,-78.414 97.0955,-76.9912 105.845,-75.5578"/>
<polygon fill="black" stroke="black" points="79.6503,-76.3023 70.3477,-81.3731 80.7821,-83.2103 79.6503,-76.3023"/>
</g>
<!-- Node5 -->
<g id="Node000005" class="node"><title>Node5</title>
<g id="a_Node000005"><a xlink:href="group___fibonacci__recursion__tail__call.html" target="_top" xlink:title="Implementace funkce pro výpočet Fibonacciho čísel pomocí koncové rekurze.">
<polygon fill="white" stroke="#666666" points="257.5,-30 109.5,-30 109.5,-0 257.5,-0 257.5,-30"/>
<text text-anchor="start" x="117.5" y="-18" font-family="Helvetica,sans-Serif" font-size="10.00">1.4. Fibonacci &#45; Implementace</text>
<text text-anchor="middle" x="183.5" y="-7" font-family="Helvetica,sans-Serif" font-size="10.00"> s koncovou rekurzí</text>
</a>
</g>
</g>
<!-- Node1&#45;&gt;Node5 -->
<g id="edge4" class="edge"><title>Node1&#45;&gt;Node5</title>
<path fill="none" stroke="black" d="M55.7914,-71.0621C69.3005,-60.7947 87.9542,-47.7737 106,-39 112.76,-35.7134 120.072,-32.7455 127.402,-30.108"/>
<polygon fill="black" stroke="black" points="53.4628,-68.4391 47.7151,-77.3393 57.7586,-73.966 53.4628,-68.4391"/>
</g>
</g>
</svg>
