<?xml version="1.0" encoding="UTF-8" standalone="no"?>
<!DOCTYPE svg PUBLIC "-//W3C//DTD SVG 1.1//EN"
 "http://www.w3.org/Graphics/SVG/1.1/DTD/svg11.dtd">
<!-- Generated by graphviz version 2.38.0 (20140413.2041)
 -->
<!-- Title: memoizer_eval Pages: 1 -->
<svg width="298pt" height="64pt"
 viewBox="0.00 0.00 298.00 64.00" xmlns="http://www.w3.org/2000/svg" xmlns:xlink="http://www.w3.org/1999/xlink">
<g id="graph0" class="graph" transform="scale(1 1) rotate(0) translate(4 60)">
<title>memoizer_eval</title>
<!-- Node1 -->
<g id="Node000001" class="node"><title>Node1</title>
<g id="a_Node000001"><a xlink:title="Volání memoizeru zajišťující získání výsledku asociované funkce pro zadaný parametr.">
<polygon fill="#999999" stroke="#666666" points="290,-37 209,-37 209,-18 290,-18 290,-37"/>
<text text-anchor="middle" x="249.5" y="-25" font-family="Helvetica,sans-Serif" font-size="10.00">memoizer_eval</text>
</a>
</g>
</g>
<!-- Node2 -->
<g id="Node000002" class="node"><title>Node2</title>
<g id="a_Node000002"><a xlink:href="group___fibonacci__recursion__memoize.html#ga719efe552f8fecbc8e8b0f1e6c1cce50" target="_top" xlink:title="Implementace výpočtu Fibonacciho čísla pomocí stromové rekurze s využitím memoizace.">
<polygon fill="white" stroke="#666666" points="153.5,-56 93.5,-56 93.5,-37 153.5,-37 153.5,-56"/>
<text text-anchor="middle" x="123.5" y="-44" font-family="Helvetica,sans-Serif" font-size="10.00">fibonacci3</text>
</a>
</g>
</g>
<!-- Node1&#45;&gt;Node2 -->
<g id="edge1_Node000001_Node000002" class="edge"><title>Node1&#45;&gt;Node2</title>
<g id="a_edge1_Node000001_Node000002"><a xlink:title=" ">
<path fill="none" stroke="#63b8ff" d="M198.622,-35.1426C183.44,-37.4689 167.248,-39.9498 153.884,-41.9976"/>
<polygon fill="#63b8ff" stroke="#63b8ff" points="199.57,-38.5382 208.925,-33.564 198.51,-31.619 199.57,-38.5382"/>
</a>
</g>
</g>
<!-- Node4 -->
<g id="Node000004" class="node"><title>Node4</title>
<g id="a_Node000004"><a xlink:href="group___fibonacci__recursion__memoize.html#ga7038381d3a82a541aa892899347446f4" target="_top" xlink:title="Funkce výpočtu Fibonacciho čísla pomocí stromové rekurze s využitím memoizace volaná z main() jako tz...">
<polygon fill="white" stroke="#666666" points="173,-19 74,-19 74,-0 173,-0 173,-19"/>
<text text-anchor="middle" x="123.5" y="-7" font-family="Helvetica,sans-Serif" font-size="10.00">fibonacci3_wrapper</text>
</a>
</g>
</g>
<!-- Node1&#45;&gt;Node4 -->
<g id="edge3_Node000001_Node000004" class="edge"><title>Node1&#45;&gt;Node4</title>
<g id="a_edge3_Node000001_Node000004"><a xlink:title=" ">
<path fill="none" stroke="#63b8ff" d="M198.845,-20.292C190.416,-19.0684 181.669,-17.7988 173.263,-16.5786"/>
<polygon fill="#63b8ff" stroke="#63b8ff" points="198.526,-23.7823 208.925,-21.7552 199.531,-16.8549 198.526,-23.7823"/>
</a>
</g>
</g>
<!-- Node3 -->
<g id="Node000003" class="node"><title>Node3</title>
<g id="a_Node000003"><a xlink:href="group___main_program.html#ga0ddf1224851353fc92bfbff6f499fa97" target="_top" xlink:title=" ">
<polygon fill="white" stroke="#666666" points="38,-37 0,-37 0,-18 38,-18 38,-37"/>
<text text-anchor="middle" x="19" y="-25" font-family="Helvetica,sans-Serif" font-size="10.00">main</text>
</a>
</g>
</g>
<!-- Node2&#45;&gt;Node3 -->
<g id="edge2_Node000002_Node000003" class="edge"><title>Node2&#45;&gt;Node3</title>
<g id="a_edge2_Node000002_Node000003"><a xlink:title=" ">
<path fill="none" stroke="#63b8ff" d="M83.47,-39.2652C67.9074,-36.3804 50.7483,-33.1997 38.1995,-30.8736"/>
<polygon fill="#63b8ff" stroke="#63b8ff" points="82.9313,-42.7249 93.4018,-41.1062 84.2072,-35.8421 82.9313,-42.7249"/>
</a>
</g>
</g>
<!-- Node4&#45;&gt;Node3 -->
<g id="edge4_Node000004_Node000003" class="edge"><title>Node4&#45;&gt;Node3</title>
<g id="a_edge4_Node000004_Node000003"><a xlink:title=" ">
<path fill="none" stroke="#63b8ff" d="M64.0365,-19.7668C54.585,-21.4265 45.4674,-23.0277 38.0045,-24.3382"/>
<polygon fill="#63b8ff" stroke="#63b8ff" points="64.7076,-23.2025 73.9515,-18.0256 63.4968,-16.308 64.7076,-23.2025"/>
</a>
</g>
</g>
</g>
</svg>
