<?xml version="1.0" encoding="UTF-8" standalone="no"?>
<!DOCTYPE svg PUBLIC "-//W3C//DTD SVG 1.1//EN"
 "http://www.w3.org/Graphics/SVG/1.1/DTD/svg11.dtd">
<!-- Generated by graphviz version 2.38.0 (20140413.2041)
 -->
<!-- Title: fibonacci4 Pages: 1 -->
<svg width="198pt" height="45pt"
 viewBox="0.00 0.00 198.00 45.00" xmlns="http://www.w3.org/2000/svg" xmlns:xlink="http://www.w3.org/1999/xlink">
<g id="graph0" class="graph" transform="scale(1 1) rotate(0) translate(4 41)">
<title>fibonacci4</title>
<!-- Node1 -->
<g id="Node000001" class="node"><title>Node1</title>
<g id="a_Node000001"><a xlink:title="Implementace výpočtu Fibonacciho čísla pomocí koncové rekurze.">
<polygon fill="#999999" stroke="#666666" points="60,-19 0,-19 0,-0 60,-0 60,-19"/>
<text text-anchor="middle" x="30" y="-7" font-family="Helvetica,sans-Serif" font-size="10.00">fibonacci4</text>
</a>
</g>
</g>
<!-- Node2 -->
<g id="Node000002" class="node"><title>Node2</title>
<g id="a_Node000002"><a xlink:href="fibonacci_8c.html#af2184aa6e303b330889d2f15fd124348" target="_top" xlink:title="Vnitřní a lokální funkce realizující koncovou rekurzi.">
<polygon fill="white" stroke="#666666" points="190,-19 96,-19 96,-0 190,-0 190,-19"/>
<text text-anchor="middle" x="143" y="-7" font-family="Helvetica,sans-Serif" font-size="10.00">fibonacci4_worker</text>
</a>
</g>
</g>
<!-- Node1&#45;&gt;Node2 -->
<g id="edge1_Node000001_Node000002" class="edge"><title>Node1&#45;&gt;Node2</title>
<g id="a_edge1_Node000001_Node000002"><a xlink:title=" ">
<path fill="none" stroke="#63b8ff" d="M60.1639,-9.5C68.0124,-9.5 76.7757,-9.5 85.57,-9.5"/>
<polygon fill="#63b8ff" stroke="#63b8ff" points="85.8552,-13.0001 95.8552,-9.5 85.8552,-6.0001 85.8552,-13.0001"/>
</a>
</g>
</g>
<!-- Node2&#45;&gt;Node2 -->
<g id="edge2_Node000002_Node000002" class="edge"><title>Node2&#45;&gt;Node2</title>
<g id="a_edge2_Node000002_Node000002"><a xlink:title=" ">
<path fill="none" stroke="#63b8ff" d="M125.738,-19.0828C117.34,-27.7337 123.094,-37 143,-37 155.441,-37 162.355,-33.3804 163.74,-28.5536"/>
<polygon fill="#63b8ff" stroke="#63b8ff" points="166.995,-27.2638 160.262,-19.0828 160.424,-29.6764 166.995,-27.2638"/>
</a>
</g>
</g>
</g>
</svg>
