<?xml version="1.0" encoding="UTF-8" standalone="no"?>
<!DOCTYPE svg PUBLIC "-//W3C//DTD SVG 1.1//EN"
 "http://www.w3.org/Graphics/SVG/1.1/DTD/svg11.dtd">
<!-- Generated by graphviz version 2.38.0 (20140413.2041)
 -->
<!-- Title: main.c Pages: 1 -->
<svg width="299pt" height="192pt"
 viewBox="0.00 0.00 298.50 192.00" xmlns="http://www.w3.org/2000/svg" xmlns:xlink="http://www.w3.org/1999/xlink">
<g id="graph0" class="graph" transform="scale(1 1) rotate(0) translate(4 188)">
<title>main.c</title>
<!-- Node1 -->
<g id="Node000001" class="node"><title>Node1</title>
<g id="a_Node000001"><a xlink:title="Hlavní program (testbench) testující různé implementace výpočtu hodnot Fibonacciho posloupnosti.">
<polygon fill="#999999" stroke="#666666" points="122,-184 76,-184 76,-165 122,-165 122,-184"/>
<text text-anchor="middle" x="99" y="-172" font-family="Helvetica,sans-Serif" font-size="10.00">main.c</text>
</a>
</g>
</g>
<!-- Node2 -->
<g id="Node000002" class="node"><title>Node2</title>
<g id="a_Node000002"><a xlink:title=" ">
<polygon fill="#e0e0e0" stroke="#999999" points="46,-19 0,-19 0,-0 46,-0 46,-19"/>
<text text-anchor="middle" x="23" y="-7" font-family="Helvetica,sans-Serif" font-size="10.00">stdio.h</text>
</a>
</g>
</g>
<!-- Node1&#45;&gt;Node2 -->
<g id="edge1_Node000001_Node000002" class="edge"><title>Node1&#45;&gt;Node2</title>
<g id="a_edge1_Node000001_Node000002"><a xlink:title=" ">
<path fill="none" stroke="#63b8ff" d="M83.1522,-164.917C69.8764,-157.053 51.1923,-144.325 39,-129 17.4736,-101.943 11.929,-89.4387 15,-55 15.7582,-46.4974 17.3159,-37.1882 18.857,-29.2922"/>
<polygon fill="#63b8ff" stroke="#63b8ff" points="22.325,-29.8064 20.9394,-19.3026 15.4723,-28.3779 22.325,-29.8064"/>
</a>
</g>
</g>
<!-- Node3 -->
<g id="Node000003" class="node"><title>Node3</title>
<g id="a_Node000003"><a xlink:title=" ">
<polygon fill="#e0e0e0" stroke="#999999" points="68,-74 24,-74 24,-55 68,-55 68,-74"/>
<text text-anchor="middle" x="46" y="-62" font-family="Helvetica,sans-Serif" font-size="10.00">time.h</text>
</a>
</g>
</g>
<!-- Node1&#45;&gt;Node3 -->
<g id="edge2_Node000001_Node000003" class="edge"><title>Node1&#45;&gt;Node3</title>
<g id="a_edge2_Node000001_Node000003"><a xlink:title=" ">
<path fill="none" stroke="#63b8ff" d="M83.4034,-164.814C71.328,-157.134 55.4457,-144.717 48,-129 41.4259,-115.123 41.4106,-97.5595 42.7647,-84.4232"/>
<polygon fill="#63b8ff" stroke="#63b8ff" points="46.2724,-84.6083 44.1767,-74.2228 39.3385,-83.6483 46.2724,-84.6083"/>
</a>
</g>
</g>
<!-- Node4 -->
<g id="Node000004" class="node"><title>Node4</title>
<g id="a_Node000004"><a xlink:href="main__support_8h.html" target="_top" xlink:title="Soubor pro multiplatformní podporu programu v různých OS.">
<polygon fill="white" stroke="#666666" points="140.5,-129 57.5,-129 57.5,-110 140.5,-110 140.5,-129"/>
<text text-anchor="middle" x="99" y="-117" font-family="Helvetica,sans-Serif" font-size="10.00">main_support.h</text>
</a>
</g>
</g>
<!-- Node1&#45;&gt;Node4 -->
<g id="edge3_Node000001_Node000004" class="edge"><title>Node1&#45;&gt;Node4</title>
<g id="a_edge3_Node000001_Node000004"><a xlink:title=" ">
<path fill="none" stroke="#63b8ff" d="M99,-164.748C99,-157.802 99,-147.845 99,-139.135"/>
<polygon fill="#63b8ff" stroke="#63b8ff" points="102.5,-139.089 99,-129.089 95.5001,-139.089 102.5,-139.089"/>
</a>
</g>
</g>
<!-- Node5 -->
<g id="Node000005" class="node"><title>Node5</title>
<g id="a_Node000005"><a xlink:href="fibonacci_8h.html" target="_top" xlink:title="Deklarace různých variant implementace výpočtu hodnot Fibonacciho posloupnosti.">
<polygon fill="white" stroke="#666666" points="221.5,-129 158.5,-129 158.5,-110 221.5,-110 221.5,-129"/>
<text text-anchor="middle" x="190" y="-117" font-family="Helvetica,sans-Serif" font-size="10.00">fibonacci.h</text>
</a>
</g>
</g>
<!-- Node1&#45;&gt;Node5 -->
<g id="edge5_Node000001_Node000005" class="edge"><title>Node1&#45;&gt;Node5</title>
<g id="a_edge5_Node000001_Node000005"><a xlink:title=" ">
<path fill="none" stroke="#63b8ff" d="M113.621,-164.985C127.864,-156.689 149.752,-143.941 166.451,-134.215"/>
<polygon fill="#63b8ff" stroke="#63b8ff" points="168.234,-137.228 175.113,-129.17 164.711,-131.179 168.234,-137.228"/>
</a>
</g>
</g>
<!-- Node10 -->
<g id="Node000010" class="node"><title>Node10</title>
<g id="a_Node000010"><a xlink:title=" ">
<polygon fill="#e0e0e0" stroke="#999999" points="290.5,-129 239.5,-129 239.5,-110 290.5,-110 290.5,-129"/>
<text text-anchor="middle" x="265" y="-117" font-family="Helvetica,sans-Serif" font-size="10.00">check.h</text>
</a>
</g>
</g>
<!-- Node1&#45;&gt;Node10 -->
<g id="edge11_Node000001_Node000010" class="edge"><title>Node1&#45;&gt;Node10</title>
<g id="a_edge11_Node000001_Node000010"><a xlink:title=" ">
<path fill="none" stroke="#63b8ff" d="M122.082,-166.131C150.016,-157.212 197.339,-142.103 229.825,-131.731"/>
<polygon fill="#63b8ff" stroke="#63b8ff" points="230.931,-135.052 239.392,-128.676 228.801,-128.383 230.931,-135.052"/>
</a>
</g>
</g>
<!-- Node4&#45;&gt;Node3 -->
<g id="edge4_Node000004_Node000003" class="edge"><title>Node4&#45;&gt;Node3</title>
<g id="a_edge4_Node000004_Node000003"><a xlink:title=" ">
<path fill="none" stroke="#63b8ff" d="M90.2481,-109.748C82.5303,-102.03 71.0953,-90.5953 61.7835,-81.2835"/>
<polygon fill="#63b8ff" stroke="#63b8ff" points="64.135,-78.6852 54.589,-74.089 59.1852,-83.635 64.135,-78.6852"/>
</a>
</g>
</g>
<!-- Node6 -->
<g id="Node000006" class="node"><title>Node6</title>
<g id="a_Node000006"><a xlink:href="memoizer_8h.html" target="_top" xlink:title="Definice typu reprezentující memoizační funktor.">
<polygon fill="white" stroke="#666666" points="208,-74 140,-74 140,-55 208,-55 208,-74"/>
<text text-anchor="middle" x="174" y="-62" font-family="Helvetica,sans-Serif" font-size="10.00">memoizer.h</text>
</a>
</g>
</g>
<!-- Node5&#45;&gt;Node6 -->
<g id="edge6_Node000005_Node000006" class="edge"><title>Node5&#45;&gt;Node6</title>
<g id="a_edge6_Node000005_Node000006"><a xlink:title=" ">
<path fill="none" stroke="#63b8ff" d="M187.358,-109.748C185.238,-102.725 182.188,-92.6235 179.538,-83.845"/>
<polygon fill="#63b8ff" stroke="#63b8ff" points="182.834,-82.6508 176.593,-74.089 176.132,-84.6738 182.834,-82.6508"/>
</a>
</g>
</g>
<!-- Node6&#45;&gt;Node2 -->
<g id="edge7_Node000006_Node000002" class="edge"><title>Node6&#45;&gt;Node2</title>
<g id="a_edge7_Node000006_Node000002"><a xlink:title=" ">
<path fill="none" stroke="#63b8ff" d="M149.739,-54.9846C124.235,-46.0327 83.9594,-31.8964 55.6709,-21.9673"/>
<polygon fill="#63b8ff" stroke="#63b8ff" points="56.8035,-18.6555 46.2087,-18.6461 54.4852,-25.2605 56.8035,-18.6555"/>
</a>
</g>
</g>
<!-- Node7 -->
<g id="Node000007" class="node"><title>Node7</title>
<g id="a_Node000007"><a xlink:title=" ">
<polygon fill="#e0e0e0" stroke="#999999" points="128,-19 80,-19 80,-0 128,-0 128,-19"/>
<text text-anchor="middle" x="104" y="-7" font-family="Helvetica,sans-Serif" font-size="10.00">stdlib.h</text>
</a>
</g>
</g>
<!-- Node6&#45;&gt;Node7 -->
<g id="edge8_Node000006_Node000007" class="edge"><title>Node6&#45;&gt;Node7</title>
<g id="a_edge8_Node000006_Node000007"><a xlink:title=" ">
<path fill="none" stroke="#63b8ff" d="M162.753,-54.9846C152.203,-46.9963 136.199,-34.8795 123.558,-25.308"/>
<polygon fill="#63b8ff" stroke="#63b8ff" points="125.537,-22.4163 115.451,-19.1703 121.311,-27.9971 125.537,-22.4163"/>
</a>
</g>
</g>
<!-- Node8 -->
<g id="Node000008" class="node"><title>Node8</title>
<g id="a_Node000008"><a xlink:title=" ">
<polygon fill="#e0e0e0" stroke="#999999" points="202,-19 146,-19 146,-0 202,-0 202,-19"/>
<text text-anchor="middle" x="174" y="-7" font-family="Helvetica,sans-Serif" font-size="10.00">stdbool.h</text>
</a>
</g>
</g>
<!-- Node6&#45;&gt;Node8 -->
<g id="edge9_Node000006_Node000008" class="edge"><title>Node6&#45;&gt;Node8</title>
<g id="a_edge9_Node000006_Node000008"><a xlink:title=" ">
<path fill="none" stroke="#63b8ff" d="M174,-54.7481C174,-47.8021 174,-37.8451 174,-29.1349"/>
<polygon fill="#63b8ff" stroke="#63b8ff" points="177.5,-29.089 174,-19.089 170.5,-29.0891 177.5,-29.089"/>
</a>
</g>
</g>
<!-- Node9 -->
<g id="Node000009" class="node"><title>Node9</title>
<g id="a_Node000009"><a xlink:title=" ">
<polygon fill="#e0e0e0" stroke="#999999" points="272,-19 220,-19 220,-0 272,-0 272,-19"/>
<text text-anchor="middle" x="246" y="-7" font-family="Helvetica,sans-Serif" font-size="10.00">assert.h</text>
</a>
</g>
</g>
<!-- Node6&#45;&gt;Node9 -->
<g id="edge10_Node000006_Node000009" class="edge"><title>Node6&#45;&gt;Node9</title>
<g id="a_edge10_Node000006_Node000009"><a xlink:title=" ">
<path fill="none" stroke="#63b8ff" d="M185.568,-54.9846C196.42,-46.9963 212.881,-34.8795 225.883,-25.308"/>
<polygon fill="#63b8ff" stroke="#63b8ff" points="228.243,-27.9172 234.221,-19.1703 224.093,-22.2798 228.243,-27.9172"/>
</a>
</g>
</g>
</g>
</svg>
