<?xml version="1.0" encoding="UTF-8" standalone="no"?>
<!DOCTYPE svg PUBLIC "-//W3C//DTD SVG 1.1//EN"
 "http://www.w3.org/Graphics/SVG/1.1/DTD/svg11.dtd">
<!-- Generated by graphviz version 2.38.0 (20140413.2041)
 -->
<!-- Title: memoizer.h Pages: 1 -->
<svg width="136pt" height="137pt"
 viewBox="0.00 0.00 135.50 137.00" xmlns="http://www.w3.org/2000/svg" xmlns:xlink="http://www.w3.org/1999/xlink">
<g id="graph0" class="graph" transform="scale(1 1) rotate(0) translate(4 133)">
<title>memoizer.h</title>
<!-- Node1 -->
<g id="Node000001" class="node"><title>Node1</title>
<g id="a_Node000001"><a xlink:title="Definice typu reprezentující memoizační funktor.">
<polygon fill="#999999" stroke="#666666" points="101.5,-129 33.5,-129 33.5,-110 101.5,-110 101.5,-129"/>
<text text-anchor="middle" x="67.5" y="-117" font-family="Helvetica,sans-Serif" font-size="10.00">memoizer.h</text>
</a>
</g>
</g>
<!-- Node2 -->
<g id="Node000002" class="node"><title>Node2</title>
<g id="a_Node000002"><a xlink:href="fibonacci_8h.html" target="_top" xlink:title="Deklarace různých variant implementace výpočtu hodnot Fibonacciho posloupnosti.">
<polygon fill="white" stroke="#666666" points="99,-74 36,-74 36,-55 99,-55 99,-74"/>
<text text-anchor="middle" x="67.5" y="-62" font-family="Helvetica,sans-Serif" font-size="10.00">fibonacci.h</text>
</a>
</g>
</g>
<!-- Node1&#45;&gt;Node2 -->
<g id="edge1_Node000001_Node000002" class="edge"><title>Node1&#45;&gt;Node2</title>
<g id="a_edge1_Node000001_Node000002"><a xlink:title=" ">
<path fill="none" stroke="#63b8ff" d="M67.5,-99.66C67.5,-90.9304 67.5,-80.9876 67.5,-74.089"/>
<polygon fill="#63b8ff" stroke="#63b8ff" points="64.0001,-99.7481 67.5,-109.748 71.0001,-99.7482 64.0001,-99.7481"/>
</a>
</g>
</g>
<!-- Node3 -->
<g id="Node000003" class="node"><title>Node3</title>
<g id="a_Node000003"><a xlink:href="fibonacci_8c.html" target="_top" xlink:title="Definice různých variant implementace výpočtu hodnot Fibonacciho posloupnosti.">
<polygon fill="white" stroke="#666666" points="63,-19 0,-19 0,-0 63,-0 63,-19"/>
<text text-anchor="middle" x="31.5" y="-7" font-family="Helvetica,sans-Serif" font-size="10.00">fibonacci.c</text>
</a>
</g>
</g>
<!-- Node2&#45;&gt;Node3 -->
<g id="edge2_Node000002_Node000003" class="edge"><title>Node2&#45;&gt;Node3</title>
<g id="a_edge2_Node000002_Node000003"><a xlink:title=" ">
<path fill="none" stroke="#63b8ff" d="M55.8771,-46.3885C49.6832,-37.2697 42.3323,-26.4475 37.3341,-19.089"/>
<polygon fill="#63b8ff" stroke="#63b8ff" points="53.0412,-48.4425 61.5553,-54.7481 58.8317,-44.5093 53.0412,-48.4425"/>
</a>
</g>
</g>
<!-- Node4 -->
<g id="Node000004" class="node"><title>Node4</title>
<g id="a_Node000004"><a xlink:href="main_8c.html" target="_top" xlink:title="Hlavní program (testbench) testující různé implementace výpočtu hodnot Fibonacciho posloupnosti.">
<polygon fill="white" stroke="#666666" points="127.5,-19 81.5,-19 81.5,-0 127.5,-0 127.5,-19"/>
<text text-anchor="middle" x="104.5" y="-7" font-family="Helvetica,sans-Serif" font-size="10.00">main.c</text>
</a>
</g>
</g>
<!-- Node2&#45;&gt;Node4 -->
<g id="edge3_Node000002_Node000004" class="edge"><title>Node2&#45;&gt;Node4</title>
<g id="a_edge3_Node000002_Node000004"><a xlink:title=" ">
<path fill="none" stroke="#63b8ff" d="M79.4458,-46.3885C85.8117,-37.2697 93.3668,-26.4475 98.5039,-19.089"/>
<polygon fill="#63b8ff" stroke="#63b8ff" points="76.4642,-44.545 73.6098,-54.7481 82.2039,-48.552 76.4642,-44.545"/>
</a>
</g>
</g>
</g>
</svg>
