<?xml version="1.0" encoding="UTF-8" standalone="no"?>
<!DOCTYPE svg PUBLIC "-//W3C//DTD SVG 1.1//EN"
 "http://www.w3.org/Graphics/SVG/1.1/DTD/svg11.dtd">
<!-- Generated by graphviz version 2.38.0 (20140413.2041)
 -->
<!-- Title: TMemoizerStats Pages: 1 -->
<svg width="136pt" height="80pt"
 viewBox="0.00 0.00 136.00 80.00" xmlns="http://www.w3.org/2000/svg" xmlns:xlink="http://www.w3.org/1999/xlink">
<g id="graph0" class="graph" transform="scale(1 1) rotate(0) translate(4 76)">
<title>TMemoizerStats</title>
<!-- Node1 -->
<g id="Node000001" class="node"><title>Node1</title>
<g id="a_Node000001"><a xlink:title="Definice typu MemoizerStats.">
<polygon fill="#999999" stroke="#666666" points="128,-72 0,-72 0,-0 128,-0 128,-72"/>
<text text-anchor="start" x="28" y="-56" font-family="Helvetica,sans-Serif" font-size="10.00">TMemoizerStats</text>
<text text-anchor="start" x="12" y="-41" font-family="Helvetica,sans-Serif" font-size="10.00">+</text>
<text text-anchor="start" x="23" y="-41" font-family="Helvetica,sans-Serif" font-size="10.00">size_t iMemoizations</text>
<text text-anchor="start" x="12" y="-26" font-family="Helvetica,sans-Serif" font-size="10.00">+</text>
<text text-anchor="start" x="23" y="-26" font-family="Helvetica,sans-Serif" font-size="10.00">size_t iCalculations</text>
<text text-anchor="start" x="62" y="-11" font-family="Helvetica,sans-Serif" font-size="10.00"> </text>
<polygon fill="#666666" stroke="#666666" points="8,-51 8,-51 120,-51 120,-51 8,-51"/>
<polygon fill="#666666" stroke="#666666" points="8,-21 8,-21 21,-21 21,-21 8,-21"/>
<polygon fill="#666666" stroke="#666666" points="21,-21 21,-21 120,-21 120,-21 21,-21"/>
<polygon fill="none" stroke="#666666" points="8,-4 8,-68 120,-68 120,-4 8,-4"/>
</a>
</g>
</g>
</g>
</svg>
