<?xml version="1.0" encoding="UTF-8" standalone="no"?>
<!DOCTYPE svg PUBLIC "-//W3C//DTD SVG 1.1//EN"
 "http://www.w3.org/Graphics/SVG/1.1/DTD/svg11.dtd">
<!-- Generated by graphviz version 2.38.0 (20140413.2041)
 -->
<!-- Title: TMemoizer Pages: 1 -->
<svg width="292pt" height="277pt"
 viewBox="0.00 0.00 291.50 277.00" xmlns="http://www.w3.org/2000/svg" xmlns:xlink="http://www.w3.org/1999/xlink">
<g id="graph0" class="graph" transform="scale(1 1) rotate(0) translate(4 273)">
<title>TMemoizer</title>
<!-- Node1 -->
<g id="Node000001" class="node"><title>Node1</title>
<g id="a_Node000001"><a xlink:title="Definice typu TMemoizer.">
<polygon fill="#999999" stroke="#666666" points="236.5,-128 50.5,-128 50.5,-0 236.5,-0 236.5,-128"/>
<text text-anchor="start" x="119" y="-112" font-family="Helvetica,sans-Serif" font-size="10.00">TMemoizer</text>
<text text-anchor="start" x="62.5" y="-97" font-family="Helvetica,sans-Serif" font-size="10.00">+</text>
<text text-anchor="start" x="73.5" y="-97" font-family="Helvetica,sans-Serif" font-size="10.00">TMemoizedFunc * iMemoizedFunc</text>
<text text-anchor="start" x="62.5" y="-82" font-family="Helvetica,sans-Serif" font-size="10.00">+</text>
<text text-anchor="start" x="73.5" y="-82" font-family="Helvetica,sans-Serif" font-size="10.00">size_t iCapacity</text>
<text text-anchor="start" x="62.5" y="-67" font-family="Helvetica,sans-Serif" font-size="10.00">+</text>
<text text-anchor="start" x="73.5" y="-67" font-family="Helvetica,sans-Serif" font-size="10.00">size_t iPos</text>
<text text-anchor="start" x="62.5" y="-52" font-family="Helvetica,sans-Serif" font-size="10.00">+</text>
<text text-anchor="start" x="73.5" y="-52" font-family="Helvetica,sans-Serif" font-size="10.00">size_t iSize</text>
<text text-anchor="start" x="62.5" y="-37" font-family="Helvetica,sans-Serif" font-size="10.00">+</text>
<text text-anchor="start" x="73.5" y="-37" font-family="Helvetica,sans-Serif" font-size="10.00">TMemoizedFuncOutput</text>
<text text-anchor="start" x="73.5" y="-26" font-family="Helvetica,sans-Serif" font-size="10.00"> iTmpOutput</text>
<text text-anchor="start" x="141.5" y="-11" font-family="Helvetica,sans-Serif" font-size="10.00"> </text>
<polygon fill="#666666" stroke="#666666" points="58.5,-107 58.5,-107 228.5,-107 228.5,-107 58.5,-107"/>
<polygon fill="#666666" stroke="#666666" points="58.5,-21 58.5,-21 71.5,-21 71.5,-21 58.5,-21"/>
<polygon fill="#666666" stroke="#666666" points="71.5,-21 71.5,-21 228.5,-21 228.5,-21 71.5,-21"/>
<polygon fill="none" stroke="#666666" points="58.5,-4 58.5,-124 228.5,-124 228.5,-4 58.5,-4"/>
</a>
</g>
</g>
<!-- Node2 -->
<g id="Node000002" class="node"><title>Node2</title>
<g id="a_Node000002"><a xlink:href="group___t_memoizer.html#struct_t_memoizer_item" target="_top" xlink:title="Definice typu TMemoizerItem.">
<polygon fill="white" stroke="#666666" points="137,-269 0,-269 0,-175 137,-175 137,-269"/>
<text text-anchor="start" x="35.5" y="-253" font-family="Helvetica,sans-Serif" font-size="10.00">TMemoizerItem</text>
<text text-anchor="start" x="12.5" y="-238" font-family="Helvetica,sans-Serif" font-size="10.00">+</text>
<text text-anchor="start" x="23.5" y="-238" font-family="Helvetica,sans-Serif" font-size="10.00">TMemoizedFuncInput</text>
<text text-anchor="start" x="23.5" y="-227" font-family="Helvetica,sans-Serif" font-size="10.00"> iInput</text>
<text text-anchor="start" x="12.5" y="-212" font-family="Helvetica,sans-Serif" font-size="10.00">+</text>
<text text-anchor="start" x="23.5" y="-212" font-family="Helvetica,sans-Serif" font-size="10.00">TMemoizedFuncOutput</text>
<text text-anchor="start" x="23.5" y="-201" font-family="Helvetica,sans-Serif" font-size="10.00"> iOutput</text>
<text text-anchor="start" x="67" y="-186" font-family="Helvetica,sans-Serif" font-size="10.00"> </text>
<polygon fill="#666666" stroke="#666666" points="8.5,-248 8.5,-248 129.5,-248 129.5,-248 8.5,-248"/>
<polygon fill="#666666" stroke="#666666" points="8.5,-196 8.5,-196 21.5,-196 21.5,-196 8.5,-196"/>
<polygon fill="#666666" stroke="#666666" points="21.5,-196 21.5,-196 129.5,-196 129.5,-196 21.5,-196"/>
<polygon fill="none" stroke="#666666" points="8,-179 8,-265 129,-265 129,-179 8,-179"/>
</a>
</g>
</g>
<!-- Node2&#45;&gt;Node1 -->
<g id="edge1_Node000001_Node000002" class="edge"><title>Node2&#45;&gt;Node1</title>
<g id="a_edge1_Node000001_Node000002"><a xlink:title=" ">
<path fill="none" stroke="#63b8ff" d="M90.7994,-174.617C96.155,-163.478 102.009,-151.302 107.804,-139.247"/>
<polygon fill="none" stroke="#63b8ff" points="107.896,-139.057 106.89,-131.916 113.095,-128.242 114.1,-135.383 107.896,-139.057"/>
</a>
</g>
<text text-anchor="middle" x="126" y="-149" font-family="Helvetica,sans-Serif" font-size="10.00" fill="grey"> +iArchive</text>
</g>
<!-- Node3 -->
<g id="Node000003" class="node"><title>Node3</title>
<g id="a_Node000003"><a xlink:href="group___t_memoizer.html#struct_t_memoizer_stats" target="_top" xlink:title="Definice typu MemoizerStats.">
<polygon fill="white" stroke="#666666" points="283.5,-258 155.5,-258 155.5,-186 283.5,-186 283.5,-258"/>
<text text-anchor="start" x="183.5" y="-242" font-family="Helvetica,sans-Serif" font-size="10.00">TMemoizerStats</text>
<text text-anchor="start" x="167.5" y="-227" font-family="Helvetica,sans-Serif" font-size="10.00">+</text>
<text text-anchor="start" x="178.5" y="-227" font-family="Helvetica,sans-Serif" font-size="10.00">size_t iMemoizations</text>
<text text-anchor="start" x="167.5" y="-212" font-family="Helvetica,sans-Serif" font-size="10.00">+</text>
<text text-anchor="start" x="178.5" y="-212" font-family="Helvetica,sans-Serif" font-size="10.00">size_t iCalculations</text>
<text text-anchor="start" x="217.5" y="-197" font-family="Helvetica,sans-Serif" font-size="10.00"> </text>
<polygon fill="#666666" stroke="#666666" points="163.5,-237 163.5,-237 275.5,-237 275.5,-237 163.5,-237"/>
<polygon fill="#666666" stroke="#666666" points="163.5,-207 163.5,-207 176.5,-207 176.5,-207 163.5,-207"/>
<polygon fill="#666666" stroke="#666666" points="176.5,-207 176.5,-207 275.5,-207 275.5,-207 176.5,-207"/>
<polygon fill="none" stroke="#666666" points="163.5,-190 163.5,-254 275.5,-254 275.5,-190 163.5,-190"/>
</a>
</g>
</g>
<!-- Node3&#45;&gt;Node1 -->
<g id="edge2_Node000001_Node000003" class="edge"><title>Node3&#45;&gt;Node1</title>
<g id="a_edge2_Node000001_Node000003"><a xlink:title=" ">
<path fill="none" stroke="#63b8ff" d="M202.444,-185.991C195.688,-172.123 187.647,-155.618 179.711,-139.328"/>
<polygon fill="none" stroke="#63b8ff" points="179.506,-138.907 173.282,-135.265 174.25,-128.119 180.474,-131.761 179.506,-138.907"/>
</a>
</g>
<text text-anchor="middle" x="206" y="-149" font-family="Helvetica,sans-Serif" font-size="10.00" fill="grey"> +iStats</text>
</g>
</g>
</svg>
