<?xml version="1.0" encoding="UTF-8" standalone="no"?>
<!DOCTYPE svg PUBLIC "-//W3C//DTD SVG 1.1//EN"
 "http://www.w3.org/Graphics/SVG/1.1/DTD/svg11.dtd">
<!-- Generated by graphviz version 2.38.0 (20140413.2041)
 -->
<!-- Title: TMemoizerItem Pages: 1 -->
<svg width="145pt" height="102pt"
 viewBox="0.00 0.00 145.00 102.00" xmlns="http://www.w3.org/2000/svg" xmlns:xlink="http://www.w3.org/1999/xlink">
<g id="graph0" class="graph" transform="scale(1 1) rotate(0) translate(4 98)">
<title>TMemoizerItem</title>
<!-- Node1 -->
<g id="Node000001" class="node"><title>Node1</title>
<g id="a_Node000001"><a xlink:title="Definice typu TMemoizerItem.">
<polygon fill="#999999" stroke="#666666" points="137,-94 0,-94 0,7.10543e-015 137,7.10543e-015 137,-94"/>
<text text-anchor="start" x="35.5" y="-78" font-family="Helvetica,sans-Serif" font-size="10.00">TMemoizerItem</text>
<text text-anchor="start" x="12.5" y="-63" font-family="Helvetica,sans-Serif" font-size="10.00">+</text>
<text text-anchor="start" x="23.5" y="-63" font-family="Helvetica,sans-Serif" font-size="10.00">TMemoizedFuncInput</text>
<text text-anchor="start" x="23.5" y="-52" font-family="Helvetica,sans-Serif" font-size="10.00"> iInput</text>
<text text-anchor="start" x="12.5" y="-37" font-family="Helvetica,sans-Serif" font-size="10.00">+</text>
<text text-anchor="start" x="23.5" y="-37" font-family="Helvetica,sans-Serif" font-size="10.00">TMemoizedFuncOutput</text>
<text text-anchor="start" x="23.5" y="-26" font-family="Helvetica,sans-Serif" font-size="10.00"> iOutput</text>
<text text-anchor="start" x="67" y="-11" font-family="Helvetica,sans-Serif" font-size="10.00"> </text>
<polygon fill="#666666" stroke="#666666" points="8.5,-73 8.5,-73 129.5,-73 129.5,-73 8.5,-73"/>
<polygon fill="#666666" stroke="#666666" points="8.5,-21 8.5,-21 21.5,-21 21.5,-21 8.5,-21"/>
<polygon fill="#666666" stroke="#666666" points="21.5,-21 21.5,-21 129.5,-21 129.5,-21 21.5,-21"/>
<polygon fill="none" stroke="#666666" points="8,-4 8,-90 129,-90 129,-4 8,-4"/>
</a>
</g>
</g>
</g>
</svg>
