<?xml version="1.0" encoding="UTF-8" standalone="no"?>
<!DOCTYPE svg PUBLIC "-//W3C//DTD SVG 1.1//EN"
 "http://www.w3.org/Graphics/SVG/1.1/DTD/svg11.dtd">
<!-- Generated by graphviz version 2.38.0 (20140413.2041)
 -->
<!-- Title: main Pages: 1 -->
<svg width="166pt" height="45pt"
 viewBox="0.00 0.00 166.00 45.00" xmlns="http://www.w3.org/2000/svg" xmlns:xlink="http://www.w3.org/1999/xlink">
<g id="graph0" class="graph" transform="scale(1 1) rotate(0) translate(4 41)">
<title>main</title>
<!-- Node1 -->
<g id="Node000001" class="node"><title>Node1</title>
<g id="a_Node000001"><a xlink:title=" ">
<polygon fill="#999999" stroke="#666666" points="38,-19 0,-19 0,-0 38,-0 38,-19"/>
<text text-anchor="middle" x="19" y="-7" font-family="Helvetica,sans-Serif" font-size="10.00">main</text>
</a>
</g>
</g>
<!-- Node2 -->
<g id="Node000002" class="node"><title>Node2</title>
<g id="a_Node000002"><a xlink:href="group___wildcard__matching.html#gad9e22c13e3865398e2e951469482b622" target="_top" xlink:title="Implementace funkce pro ověření shody řetězců z nichž jeden obsahuje žolíkové znaky.">
<polygon fill="white" stroke="#666666" points="158,-19 74,-19 74,-0 158,-0 158,-19"/>
<text text-anchor="middle" x="116" y="-7" font-family="Helvetica,sans-Serif" font-size="10.00">wildcard_match</text>
</a>
</g>
</g>
<!-- Node1&#45;&gt;Node2 -->
<g id="edge1_Node000001_Node000002" class="edge"><title>Node1&#45;&gt;Node2</title>
<g id="a_edge1_Node000001_Node000002"><a xlink:title=" ">
<path fill="none" stroke="#63b8ff" d="M38.317,-9.5C45.6818,-9.5 54.5748,-9.5 63.6565,-9.5"/>
<polygon fill="#63b8ff" stroke="#63b8ff" points="63.9187,-13.0001 73.9187,-9.5 63.9186,-6.0001 63.9187,-13.0001"/>
</a>
</g>
</g>
<!-- Node2&#45;&gt;Node2 -->
<g id="edge2_Node000002_Node000002" class="edge"><title>Node2&#45;&gt;Node2</title>
<g id="a_edge2_Node000002_Node000002"><a xlink:title=" ">
<path fill="none" stroke="#63b8ff" d="M101.204,-19.0828C94.0054,-27.7337 98.9375,-37 116,-37 126.397,-37 132.29,-33.5591 133.679,-28.9133"/>
<polygon fill="#63b8ff" stroke="#63b8ff" points="136.969,-27.6939 130.796,-19.0828 130.252,-29.6637 136.969,-27.6939"/>
</a>
</g>
</g>
</g>
</svg>
