<?xml version="1.0" encoding="UTF-8" standalone="no"?>
<!DOCTYPE svg PUBLIC "-//W3C//DTD SVG 1.1//EN"
 "http://www.w3.org/Graphics/SVG/1.1/DTD/svg11.dtd">
<!-- Generated by graphviz version 2.38.0 (20140413.2041)
 -->
<!-- Title: wildcard_match Pages: 1 -->
<svg width="315pt" height="1228pt"
 viewBox="0.00 0.00 315.00 1227.50" xmlns="http://www.w3.org/2000/svg" xmlns:xlink="http://www.w3.org/1999/xlink">
<g id="graph0" class="graph" transform="scale(1 1) rotate(0) translate(4 1223.5)">
<title>wildcard_match</title>
<!-- Node1 -->
<g id="Node000001" class="node"><title>Node1</title>
<g id="a_Node000001"><a xlink:title="Implementace funkce pro ověření shody řetězců z nichž jeden obsahuje žolíkové znaky.">
<polygon fill="#999999" stroke="#666666" points="307,-624.5 223,-624.5 223,-605.5 307,-605.5 307,-624.5"/>
<text text-anchor="middle" x="265" y="-612.5" font-family="Helvetica,sans-Serif" font-size="10.00">wildcard_match</text>
</a>
</g>
</g>
<!-- Node1&#45;&gt;Node1 -->
<g id="edge27_Node000001_Node000001" class="edge"><title>Node1&#45;&gt;Node1</title>
<g id="a_edge27_Node000001_Node000001"><a xlink:title=" ">
<path fill="none" stroke="#63b8ff" d="M296.811,-632.948C295.904,-638.317 285.301,-642.5 265,-642.5 234.785,-642.5 226.051,-633.234 238.798,-624.583"/>
<polygon fill="#63b8ff" stroke="#63b8ff" points="299.678,-630.939 291.202,-624.583 293.864,-634.838 299.678,-630.939"/>
</a>
</g>
</g>
<!-- Node2 -->
<g id="Node000002" class="node"><title>Node2</title>
<g id="a_Node000002"><a xlink:href="group___main_program.html#ga0ddf1224851353fc92bfbff6f499fa97" target="_top" xlink:title=" ">
<polygon fill="white" stroke="#666666" points="112.5,-1219.5 74.5,-1219.5 74.5,-1200.5 112.5,-1200.5 112.5,-1219.5"/>
<text text-anchor="middle" x="93.5" y="-1207.5" font-family="Helvetica,sans-Serif" font-size="10.00">main</text>
</a>
</g>
</g>
<!-- Node1&#45;&gt;Node2 -->
<g id="edge1_Node000001_Node000002" class="edge"><title>Node1&#45;&gt;Node2</title>
<g id="a_edge1_Node000001_Node000002"><a xlink:title=" ">
<path fill="none" stroke="#63b8ff" d="M264.293,-634.786C265.228,-726.352 264.372,-1108.04 187,-1191 168.103,-1211.26 133.844,-1213.05 112.741,-1211.93"/>
<polygon fill="#63b8ff" stroke="#63b8ff" points="267.792,-634.632 264.169,-624.675 260.792,-634.717 267.792,-634.632"/>
</a>
</g>
</g>
<!-- Node3 -->
<g id="Node000003" class="node"><title>Node3</title>
<g id="a_Node000003"><a xlink:href="class_string_match_test.html#a13df43b861e11512fed69827f1b5cf6a" target="_top" xlink:title=" ">
<polygon fill="white" stroke="#666666" points="159.5,-1182 27.5,-1182 27.5,-1152 159.5,-1152 159.5,-1182"/>
<text text-anchor="start" x="35.5" y="-1170" font-family="Helvetica,sans-Serif" font-size="10.00">StringMatchTest::testDiffer</text>
<text text-anchor="middle" x="93.5" y="-1159" font-family="Helvetica,sans-Serif" font-size="10.00">Chars</text>
</a>
</g>
</g>
<!-- Node1&#45;&gt;Node3 -->
<g id="edge2_Node000001_Node000003" class="edge"><title>Node1&#45;&gt;Node3</title>
<g id="a_edge2_Node000001_Node000003"><a xlink:title=" ">
<path fill="none" stroke="#63b8ff" d="M263.933,-634.68C263.234,-721.084 256.092,-1065.93 187,-1143 179.691,-1151.15 170.002,-1156.7 159.647,-1160.44"/>
<polygon fill="#63b8ff" stroke="#63b8ff" points="267.433,-634.674 263.993,-624.653 260.433,-634.632 267.433,-634.674"/>
</a>
</g>
</g>
<!-- Node4 -->
<g id="Node000004" class="node"><title>Node4</title>
<g id="a_Node000004"><a xlink:href="class_string_match_test.html#ad9d0ae566141e667fd56f84d6b97ef91" target="_top" xlink:title=" ">
<polygon fill="white" stroke="#666666" points="159.5,-1134 27.5,-1134 27.5,-1104 159.5,-1104 159.5,-1134"/>
<text text-anchor="start" x="35.5" y="-1122" font-family="Helvetica,sans-Serif" font-size="10.00">StringMatchTest::testDiffer</text>
<text text-anchor="middle" x="93.5" y="-1111" font-family="Helvetica,sans-Serif" font-size="10.00">String</text>
</a>
</g>
</g>
<!-- Node1&#45;&gt;Node4 -->
<g id="edge3_Node000001_Node000004" class="edge"><title>Node1&#45;&gt;Node4</title>
<g id="a_edge3_Node000001_Node000004"><a xlink:title=" ">
<path fill="none" stroke="#63b8ff" d="M263.611,-634.923C261.606,-716.735 249.917,-1025.82 187,-1095 179.633,-1103.1 169.916,-1108.62 159.551,-1112.35"/>
<polygon fill="#63b8ff" stroke="#63b8ff" points="267.118,-634.632 263.841,-624.557 260.12,-634.477 267.118,-634.632"/>
</a>
</g>
</g>
<!-- Node5 -->
<g id="Node000005" class="node"><title>Node5</title>
<g id="a_Node000005"><a xlink:href="class_string_match_test.html#a90de716f6e2dbc4dbbe99b8020ae81ed" target="_top" xlink:title=" ">
<polygon fill="white" stroke="#666666" points="163,-1086 24,-1086 24,-1056 163,-1056 163,-1086"/>
<text text-anchor="start" x="32" y="-1074" font-family="Helvetica,sans-Serif" font-size="10.00">StringMatchTest::testEmpty</text>
<text text-anchor="middle" x="93.5" y="-1063" font-family="Helvetica,sans-Serif" font-size="10.00">Strings</text>
</a>
</g>
</g>
<!-- Node1&#45;&gt;Node5 -->
<g id="edge4_Node000001_Node000005" class="edge"><title>Node1&#45;&gt;Node5</title>
<g id="a_edge4_Node000001_Node000005"><a xlink:title=" ">
<path fill="none" stroke="#63b8ff" d="M263.224,-634.868C259.834,-711.356 243.844,-985.572 187,-1047 180.464,-1054.06 172.142,-1059.16 163.178,-1062.81"/>
<polygon fill="#63b8ff" stroke="#63b8ff" points="266.728,-634.845 263.65,-624.707 259.734,-634.552 266.728,-634.845"/>
</a>
</g>
</g>
<!-- Node6 -->
<g id="Node000006" class="node"><title>Node6</title>
<g id="a_Node000006"><a xlink:href="class_star_wildcard_match_test.html#a96739c0a96e844df415fc281e6aa0ee1" target="_top" xlink:title=" ">
<polygon fill="white" stroke="#666666" points="154,-1038 33,-1038 33,-1008 154,-1008 154,-1038"/>
<text text-anchor="start" x="41" y="-1026" font-family="Helvetica,sans-Serif" font-size="10.00">StarWildcardMatchTest</text>
<text text-anchor="middle" x="93.5" y="-1015" font-family="Helvetica,sans-Serif" font-size="10.00">::testMatchLongerString</text>
</a>
</g>
</g>
<!-- Node1&#45;&gt;Node6 -->
<g id="edge5_Node000001_Node000006" class="edge"><title>Node1&#45;&gt;Node6</title>
<g id="a_edge5_Node000001_Node000006"><a xlink:title=" ">
<path fill="none" stroke="#63b8ff" d="M262.739,-634.898C257.843,-705.88 237.778,-945.297 187,-999 178.223,-1008.28 166.358,-1014.15 154.056,-1017.82"/>
<polygon fill="#63b8ff" stroke="#63b8ff" points="266.248,-634.88 263.419,-624.67 259.264,-634.416 266.248,-634.88"/>
</a>
</g>
</g>
<!-- Node7 -->
<g id="Node000007" class="node"><title>Node7</title>
<g id="a_Node000007"><a xlink:href="class_star_wildcard_match_test.html#a3901368dca871df82802b9db2656a26e" target="_top" xlink:title=" ">
<polygon fill="white" stroke="#666666" points="157.5,-990 29.5,-990 29.5,-960 157.5,-960 157.5,-990"/>
<text text-anchor="start" x="37.5" y="-978" font-family="Helvetica,sans-Serif" font-size="10.00">StarWildcardMatchTest</text>
<text text-anchor="middle" x="93.5" y="-967" font-family="Helvetica,sans-Serif" font-size="10.00">::testNotMatchDifferString</text>
</a>
</g>
</g>
<!-- Node1&#45;&gt;Node7 -->
<g id="edge6_Node000001_Node000007" class="edge"><title>Node1&#45;&gt;Node7</title>
<g id="a_edge6_Node000001_Node000007"><a xlink:title=" ">
<path fill="none" stroke="#63b8ff" d="M262.123,-634.894C255.587,-699.966 231.756,-904.946 187,-951 179.022,-959.21 168.625,-964.737 157.692,-968.432"/>
<polygon fill="#63b8ff" stroke="#63b8ff" points="265.625,-635.044 263.114,-624.751 258.658,-634.363 265.625,-635.044"/>
</a>
</g>
</g>
<!-- Node8 -->
<g id="Node000008" class="node"><title>Node8</title>
<g id="a_Node000008"><a xlink:href="class_star_wildcard_match_test.html#ab20a9b97145c7c6881da57d368fa8488" target="_top" xlink:title=" ">
<polygon fill="white" stroke="#666666" points="161.5,-942 25.5,-942 25.5,-912 161.5,-912 161.5,-942"/>
<text text-anchor="start" x="33.5" y="-930" font-family="Helvetica,sans-Serif" font-size="10.00">StarWildcardMatchTest</text>
<text text-anchor="middle" x="93.5" y="-919" font-family="Helvetica,sans-Serif" font-size="10.00">::testNotMatchLongerString</text>
</a>
</g>
</g>
<!-- Node1&#45;&gt;Node8 -->
<g id="edge7_Node000001_Node000008" class="edge"><title>Node1&#45;&gt;Node8</title>
<g id="a_edge7_Node000001_Node000008"><a xlink:title=" ">
<path fill="none" stroke="#63b8ff" d="M261.339,-634.664C253.037,-693.17 225.827,-864.459 187,-903 179.935,-910.013 171.101,-915.057 161.714,-918.669"/>
<polygon fill="#63b8ff" stroke="#63b8ff" points="264.836,-634.926 262.745,-624.539 257.903,-633.963 264.836,-634.926"/>
</a>
</g>
</g>
<!-- Node9 -->
<g id="Node000009" class="node"><title>Node9</title>
<g id="a_Node000009"><a xlink:href="class_advanced_wildcard_match_test.html#a1f84b83aed937cc3a3398b41e6005033" target="_top" xlink:title=" ">
<polygon fill="white" stroke="#666666" points="177,-894 10,-894 10,-864 177,-864 177,-894"/>
<text text-anchor="start" x="18" y="-882" font-family="Helvetica,sans-Serif" font-size="10.00">AdvancedWildcardMatchTest</text>
<text text-anchor="middle" x="93.5" y="-871" font-family="Helvetica,sans-Serif" font-size="10.00">::testQuestionAndStarAtEndMatch</text>
</a>
</g>
</g>
<!-- Node1&#45;&gt;Node9 -->
<g id="edge8_Node000001_Node000009" class="edge"><title>Node1&#45;&gt;Node9</title>
<g id="a_edge8_Node000001_Node000009"><a xlink:title=" ">
<path fill="none" stroke="#63b8ff" d="M263.716,-635.13C261.934,-681.126 250.918,-794.601 187,-855 183.382,-858.418 179.342,-861.365 175.029,-863.904"/>
<polygon fill="#63b8ff" stroke="#63b8ff" points="267.22,-635.056 263.997,-624.964 260.222,-634.863 267.22,-635.056"/>
</a>
</g>
</g>
<!-- Node10 -->
<g id="Node000010" class="node"><title>Node10</title>
<g id="a_Node000010"><a xlink:href="class_question_wildcard_match_test.html#ad353cfcda80201ef27d8859b73da13ac" target="_top" xlink:title=" ">
<polygon fill="white" stroke="#666666" points="174,-846 13,-846 13,-816 174,-816 174,-846"/>
<text text-anchor="start" x="21" y="-834" font-family="Helvetica,sans-Serif" font-size="10.00">QuestionWildcardMatchTest</text>
<text text-anchor="middle" x="93.5" y="-823" font-family="Helvetica,sans-Serif" font-size="10.00">::testQuestionWildcardMatchAny</text>
</a>
</g>
</g>
<!-- Node1&#45;&gt;Node10 -->
<g id="edge9_Node000001_Node000010" class="edge"><title>Node1&#45;&gt;Node10</title>
<g id="a_edge9_Node000001_Node000010"><a xlink:title=" ">
<path fill="none" stroke="#63b8ff" d="M261.905,-634.764C256.692,-673.754 239.514,-760.79 187,-807 183.139,-810.398 178.856,-813.324 174.311,-815.844"/>
<polygon fill="#63b8ff" stroke="#63b8ff" points="265.395,-635.056 263.121,-624.708 258.446,-634.216 265.395,-635.056"/>
</a>
</g>
</g>
<!-- Node11 -->
<g id="Node000011" class="node"><title>Node11</title>
<g id="a_Node000011"><a xlink:href="class_question_wildcard_match_test.html#a8e2d9e4fcbfe0daa73a89059ca02bd09" target="_top" xlink:title=" ">
<polygon fill="white" stroke="#666666" points="187,-798 0,-798 0,-768 187,-768 187,-798"/>
<text text-anchor="start" x="8" y="-786" font-family="Helvetica,sans-Serif" font-size="10.00">QuestionWildcardMatchTest</text>
<text text-anchor="middle" x="93.5" y="-775" font-family="Helvetica,sans-Serif" font-size="10.00">::testQuestionWildcardNotMatchEmpty</text>
</a>
</g>
</g>
<!-- Node1&#45;&gt;Node11 -->
<g id="edge10_Node000001_Node000011" class="edge"><title>Node1&#45;&gt;Node11</title>
<g id="a_edge10_Node000001_Node000011"><a xlink:title=" ">
<path fill="none" stroke="#63b8ff" d="M259.051,-634.515C250.112,-665.696 228.25,-726.533 187,-759 182.698,-762.386 177.968,-765.298 172.991,-767.802"/>
<polygon fill="#63b8ff" stroke="#63b8ff" points="262.442,-635.386 261.685,-624.818 255.686,-633.551 262.442,-635.386"/>
</a>
</g>
</g>
<!-- Node12 -->
<g id="Node000012" class="node"><title>Node12</title>
<g id="a_Node000012"><a xlink:href="class_string_match_test.html#a5a354ed6a7987fd272dcc0c002fd49b2" target="_top" xlink:title=" ">
<polygon fill="white" stroke="#666666" points="161.5,-750 25.5,-750 25.5,-720 161.5,-720 161.5,-750"/>
<text text-anchor="start" x="33.5" y="-738" font-family="Helvetica,sans-Serif" font-size="10.00">StringMatchTest::testSame</text>
<text text-anchor="middle" x="93.5" y="-727" font-family="Helvetica,sans-Serif" font-size="10.00">Chars</text>
</a>
</g>
</g>
<!-- Node1&#45;&gt;Node12 -->
<g id="edge11_Node000001_Node000012" class="edge"><title>Node1&#45;&gt;Node12</title>
<g id="a_edge11_Node000001_Node000012"><a xlink:title=" ">
<path fill="none" stroke="#63b8ff" d="M254.086,-633.554C241.435,-655.422 217.488,-691.271 187,-711 179.339,-715.957 170.7,-719.892 161.858,-723.015"/>
<polygon fill="#63b8ff" stroke="#63b8ff" points="257.267,-635.037 259.087,-624.599 251.156,-631.624 257.267,-635.037"/>
</a>
</g>
</g>
<!-- Node13 -->
<g id="Node000013" class="node"><title>Node13</title>
<g id="a_Node000013"><a xlink:href="class_string_match_test.html#aea960a1b1d06ec05b13cf4013f64f581" target="_top" xlink:title=" ">
<polygon fill="white" stroke="#666666" points="161.5,-702 25.5,-702 25.5,-672 161.5,-672 161.5,-702"/>
<text text-anchor="start" x="33.5" y="-690" font-family="Helvetica,sans-Serif" font-size="10.00">StringMatchTest::testSame</text>
<text text-anchor="middle" x="93.5" y="-679" font-family="Helvetica,sans-Serif" font-size="10.00">Strings</text>
</a>
</g>
</g>
<!-- Node1&#45;&gt;Node13 -->
<g id="edge12_Node000001_Node000013" class="edge"><title>Node1&#45;&gt;Node13</title>
<g id="a_edge12_Node000001_Node000013"><a xlink:title=" ">
<path fill="none" stroke="#63b8ff" d="M242.831,-630.658C227.879,-641.086 207.018,-654.403 187,-663 178.92,-666.47 170.222,-669.532 161.506,-672.206"/>
<polygon fill="#63b8ff" stroke="#63b8ff" points="245.207,-633.263 251.316,-624.607 241.142,-627.564 245.207,-633.263"/>
</a>
</g>
</g>
<!-- Node14 -->
<g id="Node000014" class="node"><title>Node14</title>
<g id="a_Node000014"><a xlink:href="class_advanced_wildcard_match_test.html#a9987bb9bde26c3d8ec7568cc2fef6057" target="_top" xlink:title=" ">
<polygon fill="white" stroke="#666666" points="172.5,-654 14.5,-654 14.5,-624 172.5,-624 172.5,-654"/>
<text text-anchor="start" x="22.5" y="-642" font-family="Helvetica,sans-Serif" font-size="10.00">AdvancedWildcardMatchTest</text>
<text text-anchor="middle" x="93.5" y="-631" font-family="Helvetica,sans-Serif" font-size="10.00">::testStarCharQuestionNotMatch</text>
</a>
</g>
</g>
<!-- Node1&#45;&gt;Node14 -->
<g id="edge13_Node000001_Node000014" class="edge"><title>Node1&#45;&gt;Node14</title>
<g id="a_edge13_Node000001_Node000014"><a xlink:title=" ">
<path fill="none" stroke="#63b8ff" d="M213.042,-622.215C200.304,-624.019 186.349,-625.995 172.626,-627.938"/>
<polygon fill="#63b8ff" stroke="#63b8ff" points="213.558,-625.677 222.969,-620.81 212.577,-618.746 213.558,-625.677"/>
</a>
</g>
</g>
<!-- Node15 -->
<g id="Node000015" class="node"><title>Node15</title>
<g id="a_Node000015"><a xlink:href="class_star_wildcard_match_test.html#a4d6c195dcb8c8309af338514a646d55c" target="_top" xlink:title=" ">
<polygon fill="white" stroke="#666666" points="165,-606 22,-606 22,-576 165,-576 165,-606"/>
<text text-anchor="start" x="30" y="-594" font-family="Helvetica,sans-Serif" font-size="10.00">StarWildcardMatchTest</text>
<text text-anchor="middle" x="93.5" y="-583" font-family="Helvetica,sans-Serif" font-size="10.00">::testStarCharStarCharMatch</text>
</a>
</g>
</g>
<!-- Node1&#45;&gt;Node15 -->
<g id="edge14_Node000001_Node000015" class="edge"><title>Node1&#45;&gt;Node15</title>
<g id="a_edge14_Node000001_Node000015"><a xlink:title=" ">
<path fill="none" stroke="#63b8ff" d="M212.888,-607.763C197.899,-605.641 181.234,-603.281 165.252,-601.018"/>
<polygon fill="#63b8ff" stroke="#63b8ff" points="212.577,-611.254 222.969,-609.19 213.558,-604.323 212.577,-611.254"/>
</a>
</g>
</g>
<!-- Node16 -->
<g id="Node000016" class="node"><title>Node16</title>
<g id="a_Node000016"><a xlink:href="class_star_wildcard_match_test.html#a90d1e31631e4a0e81c42566aca392d63" target="_top" xlink:title=" ">
<polygon fill="white" stroke="#666666" points="165,-558 22,-558 22,-528 165,-528 165,-558"/>
<text text-anchor="start" x="30" y="-546" font-family="Helvetica,sans-Serif" font-size="10.00">StarWildcardMatchTest</text>
<text text-anchor="middle" x="93.5" y="-535" font-family="Helvetica,sans-Serif" font-size="10.00">::testStarCharStarMatchChar</text>
</a>
</g>
</g>
<!-- Node1&#45;&gt;Node16 -->
<g id="edge15_Node000001_Node000016" class="edge"><title>Node1&#45;&gt;Node16</title>
<g id="a_edge15_Node000001_Node000016"><a xlink:title=" ">
<path fill="none" stroke="#63b8ff" d="M242.831,-599.342C227.879,-588.914 207.018,-575.597 187,-567 179.225,-563.661 170.877,-560.7 162.493,-558.099"/>
<polygon fill="#63b8ff" stroke="#63b8ff" points="241.142,-602.436 251.316,-605.393 245.207,-596.737 241.142,-602.436"/>
</a>
</g>
</g>
<!-- Node17 -->
<g id="Node000017" class="node"><title>Node17</title>
<g id="a_Node000017"><a xlink:href="class_star_wildcard_match_test.html#a6b8e01cb29c30134929dc26b3357e627" target="_top" xlink:title=" ">
<polygon fill="white" stroke="#666666" points="154,-510 33,-510 33,-480 154,-480 154,-510"/>
<text text-anchor="start" x="41" y="-498" font-family="Helvetica,sans-Serif" font-size="10.00">StarWildcardMatchTest</text>
<text text-anchor="middle" x="93.5" y="-487" font-family="Helvetica,sans-Serif" font-size="10.00">::testStarMatchAllString</text>
</a>
</g>
</g>
<!-- Node1&#45;&gt;Node17 -->
<g id="edge16_Node000001_Node000017" class="edge"><title>Node1&#45;&gt;Node17</title>
<g id="a_edge16_Node000001_Node000017"><a xlink:title=" ">
<path fill="none" stroke="#63b8ff" d="M254.086,-596.446C241.435,-574.578 217.488,-538.729 187,-519 177.11,-512.601 165.591,-507.905 154.108,-504.46"/>
<polygon fill="#63b8ff" stroke="#63b8ff" points="251.156,-598.376 259.087,-605.401 257.267,-594.963 251.156,-598.376"/>
</a>
</g>
</g>
<!-- Node18 -->
<g id="Node000018" class="node"><title>Node18</title>
<g id="a_Node000018"><a xlink:href="class_star_wildcard_match_test.html#af77593932f74c9ced8b18cc12940c665" target="_top" xlink:title=" ">
<polygon fill="white" stroke="#666666" points="153,-462 34,-462 34,-432 153,-432 153,-462"/>
<text text-anchor="start" x="42" y="-450" font-family="Helvetica,sans-Serif" font-size="10.00">StarWildcardMatchTest</text>
<text text-anchor="middle" x="93.5" y="-439" font-family="Helvetica,sans-Serif" font-size="10.00">::testStarMatchEmpty</text>
</a>
</g>
</g>
<!-- Node1&#45;&gt;Node18 -->
<g id="edge17_Node000001_Node000018" class="edge"><title>Node1&#45;&gt;Node18</title>
<g id="a_edge17_Node000001_Node000018"><a xlink:title=" ">
<path fill="none" stroke="#63b8ff" d="M259.051,-595.485C250.112,-564.304 228.25,-503.467 187,-471 177.222,-463.304 165.234,-458.058 153.17,-454.486"/>
<polygon fill="#63b8ff" stroke="#63b8ff" points="255.686,-596.449 261.685,-605.182 262.442,-594.614 255.686,-596.449"/>
</a>
</g>
</g>
<!-- Node19 -->
<g id="Node000019" class="node"><title>Node19</title>
<g id="a_Node000019"><a xlink:href="class_star_wildcard_match_test.html#a8f4f7cdf271d671e4e3fda33c7a2c61c" target="_top" xlink:title=" ">
<polygon fill="white" stroke="#666666" points="154.5,-414 32.5,-414 32.5,-384 154.5,-384 154.5,-414"/>
<text text-anchor="start" x="40.5" y="-402" font-family="Helvetica,sans-Serif" font-size="10.00">StarWildcardMatchTest</text>
<text text-anchor="middle" x="93.5" y="-391" font-family="Helvetica,sans-Serif" font-size="10.00">::testStarMatchOneChar</text>
</a>
</g>
</g>
<!-- Node1&#45;&gt;Node19 -->
<g id="edge18_Node000001_Node000019" class="edge"><title>Node1&#45;&gt;Node19</title>
<g id="a_edge18_Node000001_Node000019"><a xlink:title=" ">
<path fill="none" stroke="#63b8ff" d="M261.905,-595.236C256.692,-556.246 239.514,-469.21 187,-423 177.908,-414.999 166.479,-409.61 154.786,-405.993"/>
<polygon fill="#63b8ff" stroke="#63b8ff" points="258.446,-595.784 263.121,-605.292 265.395,-594.944 258.446,-595.784"/>
</a>
</g>
</g>
<!-- Node20 -->
<g id="Node000020" class="node"><title>Node20</title>
<g id="a_Node000020"><a xlink:href="class_star_wildcard_match_test.html#a882700254eca863f91e0fc51fe160c6e" target="_top" xlink:title=" ">
<polygon fill="white" stroke="#666666" points="172.5,-366 14.5,-366 14.5,-336 172.5,-336 172.5,-366"/>
<text text-anchor="start" x="22.5" y="-354" font-family="Helvetica,sans-Serif" font-size="10.00">StarWildcardMatchTest</text>
<text text-anchor="middle" x="93.5" y="-343" font-family="Helvetica,sans-Serif" font-size="10.00">::testStarMatchOneCharInMiddle</text>
</a>
</g>
</g>
<!-- Node1&#45;&gt;Node20 -->
<g id="edge19_Node000001_Node000020" class="edge"><title>Node1&#45;&gt;Node20</title>
<g id="a_edge19_Node000001_Node000020"><a xlink:title=" ">
<path fill="none" stroke="#63b8ff" d="M263.716,-594.87C261.934,-548.874 250.918,-435.399 187,-375 182.779,-371.012 177.984,-367.666 172.85,-364.86"/>
<polygon fill="#63b8ff" stroke="#63b8ff" points="260.222,-595.137 263.997,-605.036 267.22,-594.944 260.222,-595.137"/>
</a>
</g>
</g>
<!-- Node21 -->
<g id="Node000021" class="node"><title>Node21</title>
<g id="a_Node000021"><a xlink:href="class_star_wildcard_match_test.html#ad7a130b787846ecc25bf0aa680ff5e4b" target="_top" xlink:title=" ">
<polygon fill="white" stroke="#666666" points="166.5,-318 20.5,-318 20.5,-288 166.5,-288 166.5,-318"/>
<text text-anchor="start" x="28.5" y="-306" font-family="Helvetica,sans-Serif" font-size="10.00">StarWildcardMatchTest</text>
<text text-anchor="middle" x="93.5" y="-295" font-family="Helvetica,sans-Serif" font-size="10.00">::testStarMatchStringInMiddle</text>
</a>
</g>
</g>
<!-- Node1&#45;&gt;Node21 -->
<g id="edge20_Node000001_Node000021" class="edge"><title>Node1&#45;&gt;Node21</title>
<g id="a_edge20_Node000001_Node000021"><a xlink:title=" ">
<path fill="none" stroke="#63b8ff" d="M261.339,-595.336C253.037,-536.83 225.827,-365.541 187,-327 181.23,-321.273 174.281,-316.859 166.814,-313.465"/>
<polygon fill="#63b8ff" stroke="#63b8ff" points="257.903,-596.037 262.745,-605.461 264.836,-595.074 257.903,-596.037"/>
</a>
</g>
</g>
<!-- Node22 -->
<g id="Node000022" class="node"><title>Node22</title>
<g id="a_Node000022"><a xlink:href="class_advanced_wildcard_match_test.html#a744add3a616a8eb39360f9a10ce20033" target="_top" xlink:title=" ">
<polygon fill="white" stroke="#666666" points="174,-270 13,-270 13,-240 174,-240 174,-270"/>
<text text-anchor="start" x="21" y="-258" font-family="Helvetica,sans-Serif" font-size="10.00">AdvancedWildcardMatchTest</text>
<text text-anchor="middle" x="93.5" y="-247" font-family="Helvetica,sans-Serif" font-size="10.00">::testStarQuestionCharStarMatch</text>
</a>
</g>
</g>
<!-- Node1&#45;&gt;Node22 -->
<g id="edge21_Node000001_Node000022" class="edge"><title>Node1&#45;&gt;Node22</title>
<g id="a_edge21_Node000001_Node000022"><a xlink:title=" ">
<path fill="none" stroke="#63b8ff" d="M262.123,-595.106C255.587,-530.034 231.756,-325.054 187,-279 183.184,-275.074 178.815,-271.761 174.099,-268.969"/>
<polygon fill="#63b8ff" stroke="#63b8ff" points="258.658,-595.637 263.114,-605.249 265.625,-594.956 258.658,-595.637"/>
</a>
</g>
</g>
<!-- Node23 -->
<g id="Node000023" class="node"><title>Node23</title>
<g id="a_Node000023"><a xlink:href="class_advanced_wildcard_match_test.html#a66592688e3b026d69fbbd829cefd901f" target="_top" xlink:title=" ">
<polygon fill="white" stroke="#666666" points="174,-222 13,-222 13,-192 174,-192 174,-222"/>
<text text-anchor="start" x="21" y="-210" font-family="Helvetica,sans-Serif" font-size="10.00">AdvancedWildcardMatchTest</text>
<text text-anchor="middle" x="93.5" y="-199" font-family="Helvetica,sans-Serif" font-size="10.00">::testStarQuestionStarMatchChar</text>
</a>
</g>
</g>
<!-- Node1&#45;&gt;Node23 -->
<g id="edge22_Node000001_Node000023" class="edge"><title>Node1&#45;&gt;Node23</title>
<g id="a_edge22_Node000001_Node000023"><a xlink:title=" ">
<path fill="none" stroke="#63b8ff" d="M262.739,-595.102C257.843,-524.12 237.778,-284.703 187,-231 183.238,-227.022 178.91,-223.67 174.222,-220.85"/>
<polygon fill="#63b8ff" stroke="#63b8ff" points="259.264,-595.584 263.419,-605.33 266.248,-595.12 259.264,-595.584"/>
</a>
</g>
</g>
<!-- Node24 -->
<g id="Node000024" class="node"><title>Node24</title>
<g id="a_Node000024"><a xlink:href="class_advanced_wildcard_match_test.html#aca46915cd7a86f4dc14438de7dc85173" target="_top" xlink:title=" ">
<polygon fill="white" stroke="#666666" points="186,-174 1,-174 1,-144 186,-144 186,-174"/>
<text text-anchor="start" x="9" y="-162" font-family="Helvetica,sans-Serif" font-size="10.00">AdvancedWildcardMatchTest</text>
<text text-anchor="middle" x="93.5" y="-151" font-family="Helvetica,sans-Serif" font-size="10.00">::testStarQuestionStarNotMatchEmpty</text>
</a>
</g>
</g>
<!-- Node1&#45;&gt;Node24 -->
<g id="edge23_Node000001_Node000024" class="edge"><title>Node1&#45;&gt;Node24</title>
<g id="a_edge23_Node000001_Node000024"><a xlink:title=" ">
<path fill="none" stroke="#63b8ff" d="M263.224,-595.132C259.834,-518.644 243.844,-244.428 187,-183 183.845,-179.59 180.273,-176.64 176.414,-174.088"/>
<polygon fill="#63b8ff" stroke="#63b8ff" points="259.734,-595.448 263.65,-605.293 266.728,-595.155 259.734,-595.448"/>
</a>
</g>
</g>
<!-- Node25 -->
<g id="Node000025" class="node"><title>Node25</title>
<g id="a_Node000025"><a xlink:href="class_star_wildcard_match_test.html#a2b44f3332756c23c80b2541148370776" target="_top" xlink:title=" ">
<polygon fill="white" stroke="#666666" points="153,-126 34,-126 34,-96 153,-96 153,-126"/>
<text text-anchor="start" x="42" y="-114" font-family="Helvetica,sans-Serif" font-size="10.00">StarWildcardMatchTest</text>
<text text-anchor="middle" x="93.5" y="-103" font-family="Helvetica,sans-Serif" font-size="10.00">::testTwoStarMatchAny</text>
</a>
</g>
</g>
<!-- Node1&#45;&gt;Node25 -->
<g id="edge24_Node000001_Node000025" class="edge"><title>Node1&#45;&gt;Node25</title>
<g id="a_edge24_Node000001_Node000025"><a xlink:title=" ">
<path fill="none" stroke="#63b8ff" d="M263.611,-595.077C261.606,-513.265 249.917,-204.184 187,-135 178.182,-125.303 165.997,-119.306 153.364,-115.648"/>
<polygon fill="#63b8ff" stroke="#63b8ff" points="260.12,-595.523 263.841,-605.443 267.118,-595.368 260.12,-595.523"/>
</a>
</g>
</g>
<!-- Node26 -->
<g id="Node000026" class="node"><title>Node26</title>
<g id="a_Node000026"><a xlink:href="class_star_wildcard_match_test.html#a9f5b82fcf9cb04a95a87db69f87d60ec" target="_top" xlink:title=" ">
<polygon fill="white" stroke="#666666" points="154.5,-78 32.5,-78 32.5,-48 154.5,-48 154.5,-78"/>
<text text-anchor="start" x="40.5" y="-66" font-family="Helvetica,sans-Serif" font-size="10.00">StarWildcardMatchTest</text>
<text text-anchor="middle" x="93.5" y="-55" font-family="Helvetica,sans-Serif" font-size="10.00">::testTwoStarMatchChar</text>
</a>
</g>
</g>
<!-- Node1&#45;&gt;Node26 -->
<g id="edge25_Node000001_Node000026" class="edge"><title>Node1&#45;&gt;Node26</title>
<g id="a_edge25_Node000001_Node000026"><a xlink:title=" ">
<path fill="none" stroke="#63b8ff" d="M263.933,-595.32C263.234,-508.916 256.092,-164.069 187,-87 178.583,-77.6115 167.011,-71.6821 154.9,-67.9856"/>
<polygon fill="#63b8ff" stroke="#63b8ff" points="260.433,-595.368 263.993,-605.347 267.433,-595.326 260.433,-595.368"/>
</a>
</g>
</g>
<!-- Node27 -->
<g id="Node000027" class="node"><title>Node27</title>
<g id="a_Node000027"><a xlink:href="class_star_wildcard_match_test.html#a97faccbac8772fcd06724770d82b0768" target="_top" xlink:title=" ">
<polygon fill="white" stroke="#666666" points="158.5,-30 28.5,-30 28.5,-0 158.5,-0 158.5,-30"/>
<text text-anchor="start" x="36.5" y="-18" font-family="Helvetica,sans-Serif" font-size="10.00">StarWildcardMatchTest</text>
<text text-anchor="middle" x="93.5" y="-7" font-family="Helvetica,sans-Serif" font-size="10.00">::testTwoStarMatchEmpty</text>
</a>
</g>
</g>
<!-- Node1&#45;&gt;Node27 -->
<g id="edge26_Node000001_Node000027" class="edge"><title>Node1&#45;&gt;Node27</title>
<g id="a_edge26_Node000001_Node000027"><a xlink:title=" ">
<path fill="none" stroke="#63b8ff" d="M264.198,-595.301C264.705,-504.123 262.22,-123.917 187,-39 179.519,-30.555 169.486,-24.903 158.785,-21.1562"/>
<polygon fill="#63b8ff" stroke="#63b8ff" points="260.697,-595.342 264.122,-605.368 267.697,-595.395 260.697,-595.342"/>
</a>
</g>
</g>
</g>
</svg>
