<?xml version="1.0" encoding="UTF-8" standalone="no"?>
<!DOCTYPE svg PUBLIC "-//W3C//DTD SVG 1.1//EN"
 "http://www.w3.org/Graphics/SVG/1.1/DTD/svg11.dtd">
<!-- Generated by graphviz version 2.38.0 (20140413.2041)
 -->
<!-- Title: wildcard_match_ut.cpp Pages: 1 -->
<svg width="190pt" height="137pt"
 viewBox="0.00 0.00 189.50 137.00" xmlns="http://www.w3.org/2000/svg" xmlns:xlink="http://www.w3.org/1999/xlink">
<g id="graph0" class="graph" transform="scale(1 1) rotate(0) translate(4 133)">
<title>wildcard_match_ut.cpp</title>
<!-- Node1 -->
<g id="Node000001" class="node"><title>Node1</title>
<g id="a_Node000001"><a xlink:title="Definice metod pro automatizované testování správnosti implementace funkce wildcard_match() v prostře...">
<polygon fill="#999999" stroke="#666666" points="143.5,-129 27.5,-129 27.5,-110 143.5,-110 143.5,-129"/>
<text text-anchor="middle" x="85.5" y="-117" font-family="Helvetica,sans-Serif" font-size="10.00">wildcard_match_ut.cpp</text>
</a>
</g>
</g>
<!-- Node2 -->
<g id="Node000002" class="node"><title>Node2</title>
<g id="a_Node000002"><a xlink:title=" ">
<polygon fill="#e0e0e0" stroke="#999999" points="71,-74 0,-74 0,-55 71,-55 71,-74"/>
<text text-anchor="middle" x="35.5" y="-62" font-family="Helvetica,sans-Serif" font-size="10.00">ut_adapter.h</text>
</a>
</g>
</g>
<!-- Node1&#45;&gt;Node2 -->
<g id="edge1_Node000001_Node000002" class="edge"><title>Node1&#45;&gt;Node2</title>
<g id="a_edge1_Node000001_Node000002"><a xlink:title=" ">
<path fill="none" stroke="#63b8ff" d="M77.2435,-109.748C70.0353,-102.107 59.3902,-90.8237 50.6542,-81.5634"/>
<polygon fill="#63b8ff" stroke="#63b8ff" points="53.011,-78.9612 43.6028,-74.089 47.9192,-83.7648 53.011,-78.9612"/>
</a>
</g>
</g>
<!-- Node3 -->
<g id="Node000003" class="node"><title>Node3</title>
<g id="a_Node000003"><a xlink:href="wildcard__match_8h.html" target="_top" xlink:title="Deklarace funkce wildcard_match() realizující test na shodu řetězců z nichž jeden obsahuje žolíkové z...">
<polygon fill="white" stroke="#666666" points="181.5,-74 89.5,-74 89.5,-55 181.5,-55 181.5,-74"/>
<text text-anchor="middle" x="135.5" y="-62" font-family="Helvetica,sans-Serif" font-size="10.00">wildcard_match.h</text>
</a>
</g>
</g>
<!-- Node1&#45;&gt;Node3 -->
<g id="edge2_Node000001_Node000003" class="edge"><title>Node1&#45;&gt;Node3</title>
<g id="a_edge2_Node000001_Node000003"><a xlink:title=" ">
<path fill="none" stroke="#63b8ff" d="M93.7565,-109.748C100.965,-102.107 111.61,-90.8237 120.346,-81.5634"/>
<polygon fill="#63b8ff" stroke="#63b8ff" points="123.081,-83.7648 127.397,-74.089 117.989,-78.9612 123.081,-83.7648"/>
</a>
</g>
</g>
<!-- Node4 -->
<g id="Node000004" class="node"><title>Node4</title>
<g id="a_Node000004"><a xlink:title=" ">
<polygon fill="#e0e0e0" stroke="#999999" points="163.5,-19 107.5,-19 107.5,-0 163.5,-0 163.5,-19"/>
<text text-anchor="middle" x="135.5" y="-7" font-family="Helvetica,sans-Serif" font-size="10.00">stdbool.h</text>
</a>
</g>
</g>
<!-- Node3&#45;&gt;Node4 -->
<g id="edge3_Node000003_Node000004" class="edge"><title>Node3&#45;&gt;Node4</title>
<g id="a_edge3_Node000003_Node000004"><a xlink:title=" ">
<path fill="none" stroke="#63b8ff" d="M135.5,-54.7481C135.5,-47.8021 135.5,-37.8451 135.5,-29.1349"/>
<polygon fill="#63b8ff" stroke="#63b8ff" points="139,-29.089 135.5,-19.089 132,-29.0891 139,-29.089"/>
</a>
</g>
</g>
</g>
</svg>
