<?xml version="1.0" encoding="UTF-8" standalone="no"?>
<!DOCTYPE svg PUBLIC "-//W3C//DTD SVG 1.1//EN"
 "http://www.w3.org/Graphics/SVG/1.1/DTD/svg11.dtd">
<!-- Generated by graphviz version 2.38.0 (20140413.2041)
 -->
<!-- Title: wildcard_match.h Pages: 1 -->
<svg width="298pt" height="82pt"
 viewBox="0.00 0.00 298.00 82.00" xmlns="http://www.w3.org/2000/svg" xmlns:xlink="http://www.w3.org/1999/xlink">
<g id="graph0" class="graph" transform="scale(1 1) rotate(0) translate(4 78)">
<title>wildcard_match.h</title>
<!-- Node1 -->
<g id="Node000001" class="node"><title>Node1</title>
<g id="a_Node000001"><a xlink:title="Deklarace funkce wildcard_match() realizující test na shodu řetězců z nichž jeden obsahuje žolíkové z...">
<polygon fill="#999999" stroke="#666666" points="156,-74 64,-74 64,-55 156,-55 156,-74"/>
<text text-anchor="middle" x="110" y="-62" font-family="Helvetica,sans-Serif" font-size="10.00">wildcard_match.h</text>
</a>
</g>
</g>
<!-- Node2 -->
<g id="Node000002" class="node"><title>Node2</title>
<g id="a_Node000002"><a xlink:href="main_8c.html" target="_top" xlink:title="Hlavní program (testbench) pro manuální testování spravnosti implementace funkce wildcard_match.">
<polygon fill="white" stroke="#666666" points="46,-19 0,-19 0,-0 46,-0 46,-19"/>
<text text-anchor="middle" x="23" y="-7" font-family="Helvetica,sans-Serif" font-size="10.00">main.c</text>
</a>
</g>
</g>
<!-- Node1&#45;&gt;Node2 -->
<g id="edge1_Node000001_Node000002" class="edge"><title>Node1&#45;&gt;Node2</title>
<g id="a_edge1_Node000001_Node000002"><a xlink:title=" ">
<path fill="none" stroke="#63b8ff" d="M87.3398,-49.6955C71.4923,-40.0413 50.813,-27.4436 37.2324,-19.1703"/>
<polygon fill="#63b8ff" stroke="#63b8ff" points="85.6609,-52.771 96.0219,-54.9846 89.3028,-46.793 85.6609,-52.771"/>
</a>
</g>
</g>
<!-- Node3 -->
<g id="Node000003" class="node"><title>Node3</title>
<g id="a_Node000003"><a xlink:href="wildcard__match_8c.html" target="_top" xlink:title="Definice funkce wildcard_match() realizující test na shodu řetězců z nichž jeden obsahuje žolíkové zn...">
<polygon fill="white" stroke="#666666" points="156,-19 64,-19 64,-0 156,-0 156,-19"/>
<text text-anchor="middle" x="110" y="-7" font-family="Helvetica,sans-Serif" font-size="10.00">wildcard_match.c</text>
</a>
</g>
</g>
<!-- Node1&#45;&gt;Node3 -->
<g id="edge2_Node000001_Node000003" class="edge"><title>Node1&#45;&gt;Node3</title>
<g id="a_edge2_Node000001_Node000003"><a xlink:title=" ">
<path fill="none" stroke="#63b8ff" d="M110,-44.66C110,-35.9304 110,-25.9876 110,-19.089"/>
<polygon fill="#63b8ff" stroke="#63b8ff" points="106.5,-44.7481 110,-54.7481 113.5,-44.7482 106.5,-44.7481"/>
</a>
</g>
</g>
<!-- Node4 -->
<g id="Node000004" class="node"><title>Node4</title>
<g id="a_Node000004"><a xlink:href="wildcard__match__ut_8cpp.html" target="_top" xlink:title="Definice metod pro automatizované testování správnosti implementace funkce wildcard_match() v prostře...">
<polygon fill="white" stroke="#666666" points="290,-19 174,-19 174,-0 290,-0 290,-19"/>
<text text-anchor="middle" x="232" y="-7" font-family="Helvetica,sans-Serif" font-size="10.00">wildcard_match_ut.cpp</text>
</a>
</g>
</g>
<!-- Node1&#45;&gt;Node4 -->
<g id="edge3_Node000001_Node000004" class="edge"><title>Node1&#45;&gt;Node4</title>
<g id="a_edge3_Node000001_Node000004"><a xlink:title=" ">
<path fill="none" stroke="#63b8ff" d="M139.01,-50.8974C161.543,-41.1086 192.197,-27.7915 212.042,-19.1703"/>
<polygon fill="#63b8ff" stroke="#63b8ff" points="137.379,-47.7899 129.601,-54.9846 140.168,-54.2102 137.379,-47.7899"/>
</a>
</g>
</g>
</g>
</svg>
