<?xml version="1.0" encoding="UTF-8" standalone="no"?>
<!DOCTYPE svg PUBLIC "-//W3C//DTD SVG 1.1//EN"
 "http://www.w3.org/Graphics/SVG/1.1/DTD/svg11.dtd">
<!-- Generated by graphviz version 2.38.0 (20140413.2041)
 -->
<!-- Title: vector_fast_compare_positions Pages: 1 -->
<svg width="458pt" height="249pt"
 viewBox="0.00 0.00 458.00 249.00" xmlns="http://www.w3.org/2000/svg" xmlns:xlink="http://www.w3.org/1999/xlink">
<g id="graph0" class="graph" transform="scale(1 1) rotate(0) translate(4 245)">
<title>vector_fast_compare_positions</title>
<!-- Node1 -->
<g id="Node000001" class="node"><title>Node1</title>
<g id="a_Node000001"><a xlink:title=" ">
<polygon fill="#999999" stroke="#666666" points="450,-96.5 344,-96.5 344,-66.5 450,-66.5 450,-96.5"/>
<text text-anchor="start" x="352" y="-84.5" font-family="Helvetica,sans-Serif" font-size="10.00">vector_fast_compare</text>
<text text-anchor="middle" x="397" y="-73.5" font-family="Helvetica,sans-Serif" font-size="10.00">_positions</text>
</a>
</g>
</g>
<!-- Node2 -->
<g id="Node000002" class="node"><title>Node2</title>
<g id="a_Node000002"><a xlink:href="group__sortable___t_vector.html#gaedaf9c79afa345e5e71e5c66ab25fa26" target="_top" xlink:title="Porovnání hodnot elementů vektorů">
<polygon fill="white" stroke="#666666" points="308,-130 179,-130 179,-111 308,-111 308,-130"/>
<text text-anchor="middle" x="243.5" y="-118" font-family="Helvetica,sans-Serif" font-size="10.00">vector_compare_positions</text>
</a>
</g>
</g>
<!-- Node1&#45;&gt;Node2 -->
<g id="edge1_Node000001_Node000002" class="edge"><title>Node1&#45;&gt;Node2</title>
<g id="a_edge1_Node000001_Node000002"><a xlink:title=" ">
<path fill="none" stroke="#63b8ff" d="M334.071,-97.4421C316.202,-102.042 297.272,-106.915 281.44,-110.991"/>
<polygon fill="#63b8ff" stroke="#63b8ff" points="335.051,-100.804 343.862,-94.9216 333.305,-94.0251 335.051,-100.804"/>
</a>
</g>
</g>
<!-- Node9 -->
<g id="Node000009" class="node"><title>Node9</title>
<g id="a_Node000009"><a xlink:href="group__sortable___t_vector_iterator.html#gadd8aded92ce2c6402742a57316412d39" target="_top" xlink:title="Porovnání hodnot elementů vektorů určených dvěma iterátory.">
<polygon fill="white" stroke="#666666" points="297,-58.5 190,-58.5 190,-28.5 297,-28.5 297,-58.5"/>
<text text-anchor="start" x="198" y="-46.5" font-family="Helvetica,sans-Serif" font-size="10.00">vector_compare_with</text>
<text text-anchor="middle" x="243.5" y="-35.5" font-family="Helvetica,sans-Serif" font-size="10.00">_iterators</text>
</a>
</g>
</g>
<!-- Node1&#45;&gt;Node9 -->
<g id="edge8_Node000001_Node000009" class="edge"><title>Node1&#45;&gt;Node9</title>
<g id="a_edge8_Node000001_Node000009"><a xlink:title=" ">
<path fill="none" stroke="#63b8ff" d="M333.806,-65.9002C321.666,-62.8552 309.046,-59.6897 297.248,-56.7305"/>
<polygon fill="#63b8ff" stroke="#63b8ff" points="333.311,-69.3844 343.862,-68.4226 335.014,-62.5948 333.311,-69.3844"/>
</a>
</g>
</g>
<!-- Node3 -->
<g id="Node000003" class="node"><title>Node3</title>
<g id="a_Node000003"><a xlink:href="group___basic_sorts.html#gaa1ef093f5205f293df8303ac228452fc" target="_top" xlink:title="Třídění přímou výměnou (Bubble Sort)">
<polygon fill="white" stroke="#666666" points="105,-241 38,-241 38,-222 105,-222 105,-241"/>
<text text-anchor="middle" x="71.5" y="-229" font-family="Helvetica,sans-Serif" font-size="10.00">bubble_sort</text>
</a>
</g>
</g>
<!-- Node2&#45;&gt;Node3 -->
<g id="edge2_Node000002_Node000003" class="edge"><title>Node2&#45;&gt;Node3</title>
<g id="a_edge2_Node000002_Node000003"><a xlink:title=" ">
<path fill="none" stroke="#63b8ff" d="M228.726,-137.886C211.095,-158.955 178.548,-194.043 143,-213.5 131.365,-219.868 117.414,-224.041 105.005,-226.747"/>
<polygon fill="#63b8ff" stroke="#63b8ff" points="231.511,-140.01 235.133,-130.054 226.093,-135.578 231.511,-140.01"/>
</a>
</g>
</g>
<!-- Node4 -->
<g id="Node000004" class="node"><title>Node4</title>
<g id="a_Node000004"><a xlink:href="group___basic_sorts.html#ga62a36eb31bf0a873f7c027e145843b1a" target="_top" xlink:title="Třídění přímou výměnou včetně optimalizace s pomocným příznakem ukončení třídění (Bubble Sort Optimiz...">
<polygon fill="white" stroke="#666666" points="128.5,-204 14.5,-204 14.5,-185 128.5,-185 128.5,-204"/>
<text text-anchor="middle" x="71.5" y="-192" font-family="Helvetica,sans-Serif" font-size="10.00">bubble_sort_optimized</text>
</a>
</g>
</g>
<!-- Node2&#45;&gt;Node4 -->
<g id="edge3_Node000002_Node000004" class="edge"><title>Node2&#45;&gt;Node4</title>
<g id="a_edge3_Node000002_Node000004"><a xlink:title=" ">
<path fill="none" stroke="#63b8ff" d="M219.727,-135.609C200.098,-148.062 170.637,-165.42 143,-176.5 134.91,-179.744 126.059,-182.546 117.446,-184.91"/>
<polygon fill="#63b8ff" stroke="#63b8ff" points="221.758,-138.464 228.268,-130.105 217.966,-132.58 221.758,-138.464"/>
</a>
</g>
</g>
<!-- Node5 -->
<g id="Node000005" class="node"><title>Node5</title>
<g id="a_Node000005"><a xlink:href="group___basic_sorts.html#gaba41a68f00241f38f7864b4e1dacd086" target="_top" xlink:title="Třídění přímou výměnou včetně optimalizace s výpočtem indexu poslední změny (Bubble Sort Optimized2)">
<polygon fill="white" stroke="#666666" points="131,-167 12,-167 12,-148 131,-148 131,-167"/>
<text text-anchor="middle" x="71.5" y="-155" font-family="Helvetica,sans-Serif" font-size="10.00">bubble_sort_optimized2</text>
</a>
</g>
</g>
<!-- Node2&#45;&gt;Node5 -->
<g id="edge4_Node000002_Node000005" class="edge"><title>Node2&#45;&gt;Node5</title>
<g id="a_edge4_Node000002_Node000005"><a xlink:title=" ">
<path fill="none" stroke="#63b8ff" d="M188.651,-132.22C165.37,-137.287 138.472,-143.141 116.426,-147.94"/>
<polygon fill="#63b8ff" stroke="#63b8ff" points="189.694,-135.575 198.721,-130.028 188.205,-128.735 189.694,-135.575"/>
</a>
</g>
</g>
<!-- Node6 -->
<g id="Node000006" class="node"><title>Node6</title>
<g id="a_Node000006"><a xlink:href="group___basic_sorts.html#ga3688a58781905ac2e518285b8bb711ec" target="_top" xlink:title="Třídění přímým výběrem (Select Sort)">
<polygon fill="white" stroke="#666666" points="104,-130 39,-130 39,-111 104,-111 104,-130"/>
<text text-anchor="middle" x="71.5" y="-118" font-family="Helvetica,sans-Serif" font-size="10.00">select_sort</text>
</a>
</g>
</g>
<!-- Node2&#45;&gt;Node6 -->
<g id="edge5_Node000002_Node000006" class="edge"><title>Node2&#45;&gt;Node6</title>
<g id="a_edge5_Node000002_Node000006"><a xlink:title=" ">
<path fill="none" stroke="#63b8ff" d="M168.459,-120.5C145.928,-120.5 122.351,-120.5 104.206,-120.5"/>
<polygon fill="#63b8ff" stroke="#63b8ff" points="168.715,-124 178.715,-120.5 168.715,-117 168.715,-124"/>
</a>
</g>
</g>
<!-- Node7 -->
<g id="Node000007" class="node"><title>Node7</title>
<g id="a_Node000007"><a xlink:href="group___basic_sorts.html#gaacee5d609500566a6ad1724486ab8bb2" target="_top" xlink:title="Třídění přímou výměnou se změnou postupu třídění (Shaker Sort)">
<polygon fill="white" stroke="#666666" points="105.5,-93 37.5,-93 37.5,-74 105.5,-74 105.5,-93"/>
<text text-anchor="middle" x="71.5" y="-81" font-family="Helvetica,sans-Serif" font-size="10.00">shaker_sort</text>
</a>
</g>
</g>
<!-- Node2&#45;&gt;Node7 -->
<g id="edge6_Node000002_Node000007" class="edge"><title>Node2&#45;&gt;Node7</title>
<g id="a_edge6_Node000002_Node000007"><a xlink:title=" ">
<path fill="none" stroke="#63b8ff" d="M188.92,-108.838C161.631,-102.899 129.314,-95.8653 105.661,-90.7173"/>
<polygon fill="#63b8ff" stroke="#63b8ff" points="188.205,-112.265 198.721,-110.972 189.694,-105.425 188.205,-112.265"/>
</a>
</g>
</g>
<!-- Node8 -->
<g id="Node000008" class="node"><title>Node8</title>
<g id="a_Node000008"><a xlink:href="group___t_span.html#gaffd3a758138012dac875ceda42a975db" target="_top" xlink:title="Porovnání hodnot elementů Spanů">
<polygon fill="white" stroke="#666666" points="134,-56 9,-56 9,-37 134,-37 134,-56"/>
<text text-anchor="middle" x="71.5" y="-44" font-family="Helvetica,sans-Serif" font-size="10.00">span_compare_positions</text>
</a>
</g>
</g>
<!-- Node2&#45;&gt;Node8 -->
<g id="edge7_Node000002_Node000008" class="edge"><title>Node2&#45;&gt;Node8</title>
<g id="a_edge7_Node000002_Node000008"><a xlink:title=" ">
<path fill="none" stroke="#63b8ff" d="M219.311,-105.568C199.636,-93.4228 170.33,-76.5462 143,-65.5 133.95,-61.8424 123.967,-58.6661 114.429,-56.0125"/>
<polygon fill="#63b8ff" stroke="#63b8ff" points="217.555,-108.598 227.888,-110.94 221.271,-102.665 217.555,-108.598"/>
</a>
</g>
</g>
<!-- Node10 -->
<g id="Node000010" class="node"><title>Node10</title>
<g id="a_Node000010"><a xlink:href="group___t_span.html#ga1b60dd9d2211c7cb07b066f19237b0ac" target="_top" xlink:title="Porovnání hodnot elementů Spanů určených dvěma iterátory.">
<polygon fill="white" stroke="#666666" points="143,-19 0,-19 0,-0 143,-0 143,-19"/>
<text text-anchor="middle" x="71.5" y="-7" font-family="Helvetica,sans-Serif" font-size="10.00">span_compare_with_iterators</text>
</a>
</g>
</g>
<!-- Node9&#45;&gt;Node10 -->
<g id="edge9_Node000009_Node000010" class="edge"><title>Node9&#45;&gt;Node10</title>
<g id="a_edge9_Node000009_Node000010"><a xlink:title=" ">
<path fill="none" stroke="#63b8ff" d="M179.814,-30.9629C160.087,-27.0173 138.633,-22.7267 120.13,-19.026"/>
<polygon fill="#63b8ff" stroke="#63b8ff" points="179.151,-34.3994 189.643,-32.9286 180.523,-27.5353 179.151,-34.3994"/>
</a>
</g>
</g>
</g>
</svg>
