<?xml version="1.0" encoding="UTF-8" standalone="no"?>
<!DOCTYPE svg PUBLIC "-//W3C//DTD SVG 1.1//EN"
 "http://www.w3.org/Graphics/SVG/1.1/DTD/svg11.dtd">
<!-- Generated by graphviz version 2.38.0 (20140413.2041)
 -->
<!-- Title: vector_fast_swap_positions Pages: 1 -->
<svg width="842pt" height="304pt"
 viewBox="0.00 0.00 842.00 304.00" xmlns="http://www.w3.org/2000/svg" xmlns:xlink="http://www.w3.org/1999/xlink">
<g id="graph0" class="graph" transform="scale(1 1) rotate(0) translate(4 300)">
<title>vector_fast_swap_positions</title>
<!-- Node1 -->
<g id="Node000001" class="node"><title>Node1</title>
<g id="a_Node000001"><a xlink:title=" ">
<polygon fill="#999999" stroke="#666666" points="834,-111 699,-111 699,-92 834,-92 834,-111"/>
<text text-anchor="middle" x="766.5" y="-99" font-family="Helvetica,sans-Serif" font-size="10.00">vector_fast_swap_positions</text>
</a>
</g>
</g>
<!-- Node2 -->
<g id="Node000002" class="node"><title>Node2</title>
<g id="a_Node000002"><a xlink:href="group__sortable___t_vector.html#gac1982d8a0e5f66f933dc6a0413f2d23e" target="_top" xlink:title="Výměna hodnot elementů vektorů">
<polygon fill="white" stroke="#666666" points="653.5,-148 539.5,-148 539.5,-129 653.5,-129 653.5,-148"/>
<text text-anchor="middle" x="596.5" y="-136" font-family="Helvetica,sans-Serif" font-size="10.00">vector_swap_positions</text>
</a>
</g>
</g>
<!-- Node1&#45;&gt;Node2 -->
<g id="edge1_Node000001_Node000002" class="edge"><title>Node1&#45;&gt;Node2</title>
<g id="a_edge1_Node000001_Node000002"><a xlink:title=" ">
<path fill="none" stroke="#63b8ff" d="M712.284,-113.22C689.278,-118.287 662.696,-124.141 640.909,-128.94"/>
<polygon fill="#63b8ff" stroke="#63b8ff" points="713.223,-116.597 722.236,-111.028 711.717,-109.761 713.223,-116.597"/>
</a>
</g>
</g>
<!-- Node14 -->
<g id="Node000014" class="node"><title>Node14</title>
<g id="a_Node000014"><a xlink:href="group__sortable___t_vector_iterator.html#gac16589d02c81c789a7fa6cd323a49013" target="_top" xlink:title="Výměna hodnot elementů vektorů určených dvěma iterátory.">
<polygon fill="white" stroke="#666666" points="663,-74 530,-74 530,-55 663,-55 663,-74"/>
<text text-anchor="middle" x="596.5" y="-62" font-family="Helvetica,sans-Serif" font-size="10.00">vector_swap_with_iterators</text>
</a>
</g>
</g>
<!-- Node1&#45;&gt;Node14 -->
<g id="edge16_Node000001_Node000014" class="edge"><title>Node1&#45;&gt;Node14</title>
<g id="a_edge16_Node000001_Node000014"><a xlink:title=" ">
<path fill="none" stroke="#63b8ff" d="M712.284,-89.7799C689.278,-84.7129 662.696,-78.8585 640.909,-74.0604"/>
<polygon fill="#63b8ff" stroke="#63b8ff" points="711.717,-93.2388 722.236,-91.9716 713.223,-86.4026 711.717,-93.2388"/>
</a>
</g>
</g>
<!-- Node3 -->
<g id="Node000003" class="node"><title>Node3</title>
<g id="a_Node000003"><a xlink:href="group___basic_sorts.html#gaa1ef093f5205f293df8303ac228452fc" target="_top" xlink:title="Třídění přímou výměnou (Bubble Sort)">
<polygon fill="white" stroke="#666666" points="463.5,-296 396.5,-296 396.5,-277 463.5,-277 463.5,-296"/>
<text text-anchor="middle" x="430" y="-284" font-family="Helvetica,sans-Serif" font-size="10.00">bubble_sort</text>
</a>
</g>
</g>
<!-- Node2&#45;&gt;Node3 -->
<g id="edge2_Node000002_Node000003" class="edge"><title>Node2&#45;&gt;Node3</title>
<g id="a_edge2_Node000002_Node000003"><a xlink:title=" ">
<path fill="none" stroke="#63b8ff" d="M586.142,-156.864C570.785,-185.143 537.541,-239.151 494,-268.5 485.039,-274.54 474.053,-278.576 463.779,-281.264"/>
<polygon fill="#63b8ff" stroke="#63b8ff" points="589.239,-158.493 590.815,-148.016 583.05,-155.224 589.239,-158.493"/>
</a>
</g>
</g>
<!-- Node4 -->
<g id="Node000004" class="node"><title>Node4</title>
<g id="a_Node000004"><a xlink:href="group___basic_sorts.html#ga62a36eb31bf0a873f7c027e145843b1a" target="_top" xlink:title="Třídění přímou výměnou včetně optimalizace s pomocným příznakem ukončení třídění (Bubble Sort Optimiz...">
<polygon fill="white" stroke="#666666" points="487,-259 373,-259 373,-240 487,-240 487,-259"/>
<text text-anchor="middle" x="430" y="-247" font-family="Helvetica,sans-Serif" font-size="10.00">bubble_sort_optimized</text>
</a>
</g>
</g>
<!-- Node2&#45;&gt;Node4 -->
<g id="edge3_Node000002_Node000004" class="edge"><title>Node2&#45;&gt;Node4</title>
<g id="a_edge3_Node000002_Node000004"><a xlink:title=" ">
<path fill="none" stroke="#63b8ff" d="M581,-156.032C562.781,-176.956 529.565,-211.606 494,-231.5 487.944,-234.887 481.197,-237.683 474.433,-239.975"/>
<polygon fill="#63b8ff" stroke="#63b8ff" points="583.82,-158.12 587.644,-148.239 578.493,-153.579 583.82,-158.12"/>
</a>
</g>
</g>
<!-- Node5 -->
<g id="Node000005" class="node"><title>Node5</title>
<g id="a_Node000005"><a xlink:href="group___basic_sorts.html#gaba41a68f00241f38f7864b4e1dacd086" target="_top" xlink:title="Třídění přímou výměnou včetně optimalizace s výpočtem indexu poslední změny (Bubble Sort Optimized2)">
<polygon fill="white" stroke="#666666" points="489.5,-222 370.5,-222 370.5,-203 489.5,-203 489.5,-222"/>
<text text-anchor="middle" x="430" y="-210" font-family="Helvetica,sans-Serif" font-size="10.00">bubble_sort_optimized2</text>
</a>
</g>
</g>
<!-- Node2&#45;&gt;Node5 -->
<g id="edge4_Node000002_Node000005" class="edge"><title>Node2&#45;&gt;Node5</title>
<g id="a_edge4_Node000002_Node000005"><a xlink:title=" ">
<path fill="none" stroke="#63b8ff" d="M571.796,-153.592C551.697,-165.891 521.786,-183.038 494,-194.5 486.324,-197.667 477.902,-200.491 469.785,-202.91"/>
<polygon fill="#63b8ff" stroke="#63b8ff" points="573.907,-156.401 580.56,-148.156 570.217,-150.453 573.907,-156.401"/>
</a>
</g>
</g>
<!-- Node6 -->
<g id="Node000006" class="node"><title>Node6</title>
<g id="a_Node000006"><a xlink:href="advanced__sorts_8c.html#a0ae77c9640aa821e5507079ec5d2eb1d" target="_top" xlink:title="Vnitřní a lokální funkce realizující rekurzivní funkci pro metodu (Quick Sort)">
<polygon fill="white" stroke="#666666" points="477.5,-167 382.5,-167 382.5,-148 477.5,-148 477.5,-167"/>
<text text-anchor="middle" x="430" y="-155" font-family="Helvetica,sans-Serif" font-size="10.00">quick_sort_worker</text>
</a>
</g>
</g>
<!-- Node2&#45;&gt;Node6 -->
<g id="edge5_Node000002_Node000006" class="edge"><title>Node2&#45;&gt;Node6</title>
<g id="a_edge5_Node000002_Node000006"><a xlink:title=" ">
<path fill="none" stroke="#63b8ff" d="M529.291,-146.147C511.973,-148.148 493.668,-150.262 477.61,-152.116"/>
<polygon fill="#63b8ff" stroke="#63b8ff" points="529.816,-149.61 539.349,-144.986 529.013,-142.656 529.816,-149.61"/>
</a>
</g>
</g>
<!-- Node9 -->
<g id="Node000009" class="node"><title>Node9</title>
<g id="a_Node000009"><a xlink:href="group___basic_sorts.html#ga3688a58781905ac2e518285b8bb711ec" target="_top" xlink:title="Třídění přímým výběrem (Select Sort)">
<polygon fill="white" stroke="#666666" points="462.5,-130 397.5,-130 397.5,-111 462.5,-111 462.5,-130"/>
<text text-anchor="middle" x="430" y="-118" font-family="Helvetica,sans-Serif" font-size="10.00">select_sort</text>
</a>
</g>
</g>
<!-- Node2&#45;&gt;Node9 -->
<g id="edge9_Node000002_Node000009" class="edge"><title>Node2&#45;&gt;Node9</title>
<g id="a_edge9_Node000002_Node000009"><a xlink:title=" ">
<path fill="none" stroke="#63b8ff" d="M529.324,-131.259C506.434,-128.754 481.815,-126.06 462.938,-123.995"/>
<polygon fill="#63b8ff" stroke="#63b8ff" points="529.027,-134.747 539.349,-132.356 529.789,-127.789 529.027,-134.747"/>
</a>
</g>
</g>
<!-- Node10 -->
<g id="Node000010" class="node"><title>Node10</title>
<g id="a_Node000010"><a xlink:href="group___basic_sorts.html#gaacee5d609500566a6ad1724486ab8bb2" target="_top" xlink:title="Třídění přímou výměnou se změnou postupu třídění (Shaker Sort)">
<polygon fill="white" stroke="#666666" points="464,-93 396,-93 396,-74 464,-74 464,-93"/>
<text text-anchor="middle" x="430" y="-81" font-family="Helvetica,sans-Serif" font-size="10.00">shaker_sort</text>
</a>
</g>
</g>
<!-- Node2&#45;&gt;Node10 -->
<g id="edge10_Node000002_Node000010" class="edge"><title>Node2&#45;&gt;Node10</title>
<g id="a_edge10_Node000002_Node000010"><a xlink:title=" ">
<path fill="none" stroke="#63b8ff" d="M560.097,-125.474C540.662,-118.442 516.088,-109.743 494,-102.5 484.23,-99.2962 473.543,-95.9968 463.791,-93.0649"/>
<polygon fill="#63b8ff" stroke="#63b8ff" points="559.158,-128.857 569.752,-128.983 561.549,-122.278 559.158,-128.857"/>
</a>
</g>
</g>
<!-- Node11 -->
<g id="Node000011" class="node"><title>Node11</title>
<g id="a_Node000011"><a xlink:href="group___t_span.html#gae81c37610069e0d3c8d3182ca4964c1a" target="_top" xlink:title="Výměna hodnot elementů Spanů">
<polygon fill="white" stroke="#666666" points="485,-56 375,-56 375,-37 485,-37 485,-56"/>
<text text-anchor="middle" x="430" y="-44" font-family="Helvetica,sans-Serif" font-size="10.00">span_swap_positions</text>
</a>
</g>
</g>
<!-- Node2&#45;&gt;Node11 -->
<g id="edge11_Node000002_Node000011" class="edge"><title>Node2&#45;&gt;Node11</title>
<g id="a_edge11_Node000002_Node000011"><a xlink:title=" ">
<path fill="none" stroke="#63b8ff" d="M576.945,-122.235C557.467,-105.893 525.371,-80.9728 494,-65.5 486.521,-61.8111 478.184,-58.681 470.087,-56.091"/>
<polygon fill="#63b8ff" stroke="#63b8ff" points="574.84,-125.04 584.719,-128.868 579.383,-119.715 574.84,-125.04"/>
</a>
</g>
</g>
<!-- Node6&#45;&gt;Node6 -->
<g id="edge8_Node000006_Node000006" class="edge"><title>Node6&#45;&gt;Node6</title>
<g id="a_edge8_Node000006_Node000006"><a xlink:title=" ">
<path fill="none" stroke="#63b8ff" d="M458.746,-175.821C457.544,-181.009 447.962,-185 430,-185 402.629,-185 394.717,-175.734 406.264,-167.083"/>
<polygon fill="#63b8ff" stroke="#63b8ff" points="461.746,-174.017 453.736,-167.083 455.674,-177.499 461.746,-174.017"/>
</a>
</g>
</g>
<!-- Node7 -->
<g id="Node000007" class="node"><title>Node7</title>
<g id="a_Node000007"><a xlink:href="group___advanced_sorts.html#gaa369b74c9050d30aa2416f9dba8cc8f5" target="_top" xlink:title="Rychlé třídění výměnou (Quick Sort) s volbou prostředního prvku jako pivota.">
<polygon fill="white" stroke="#666666" points="160,-145 98,-145 98,-126 160,-126 160,-145"/>
<text text-anchor="middle" x="129" y="-133" font-family="Helvetica,sans-Serif" font-size="10.00">quick_sort</text>
</a>
</g>
</g>
<!-- Node6&#45;&gt;Node7 -->
<g id="edge6_Node000006_Node000007" class="edge"><title>Node6&#45;&gt;Node7</title>
<g id="a_edge6_Node000006_Node000007"><a xlink:title=" ">
<path fill="none" stroke="#63b8ff" d="M372.092,-153.313C308.969,-148.668 209.521,-141.351 160.038,-137.71"/>
<polygon fill="#63b8ff" stroke="#63b8ff" points="372.051,-156.819 382.281,-154.063 372.565,-149.838 372.051,-156.819"/>
</a>
</g>
</g>
<!-- Node8 -->
<g id="Node000008" class="node"><title>Node8</title>
<g id="a_Node000008"><a xlink:href="group___main_program.html#ga0ddf1224851353fc92bfbff6f499fa97" target="_top" xlink:title=" ">
<polygon fill="white" stroke="#666666" points="38,-122 0,-122 0,-103 38,-103 38,-122"/>
<text text-anchor="middle" x="19" y="-110" font-family="Helvetica,sans-Serif" font-size="10.00">main</text>
</a>
</g>
</g>
<!-- Node7&#45;&gt;Node8 -->
<g id="edge7_Node000007_Node000008" class="edge"><title>Node7&#45;&gt;Node8</title>
<g id="a_edge7_Node000007_Node000008"><a xlink:title=" ">
<path fill="none" stroke="#63b8ff" d="M88.1027,-127.003C70.9367,-123.348 51.726,-119.256 38.0958,-116.354"/>
<polygon fill="#63b8ff" stroke="#63b8ff" points="87.4063,-130.433 97.916,-129.093 88.8644,-123.587 87.4063,-130.433"/>
</a>
</g>
</g>
<!-- Node12 -->
<g id="Node000012" class="node"><title>Node12</title>
<g id="a_Node000012"><a xlink:href="advanced__sorts__with__span_8c.html#a1526ecf4371ecb71f2bc68954f16681f" target="_top" xlink:title="Vnitřní a lokální funkce realizující rekurzivní funkci pro metodu (Quick Sort)">
<polygon fill="white" stroke="#666666" points="330,-86.5 220,-86.5 220,-56.5 330,-56.5 330,-86.5"/>
<text text-anchor="start" x="228" y="-74.5" font-family="Helvetica,sans-Serif" font-size="10.00">quick_sort_with_span</text>
<text text-anchor="middle" x="275" y="-63.5" font-family="Helvetica,sans-Serif" font-size="10.00">_worker</text>
</a>
</g>
</g>
<!-- Node11&#45;&gt;Node12 -->
<g id="edge12_Node000011_Node000012" class="edge"><title>Node11&#45;&gt;Node12</title>
<g id="a_edge12_Node000011_Node000012"><a xlink:title=" ">
<path fill="none" stroke="#63b8ff" d="M364.669,-57.0116C353.198,-58.886 341.351,-60.8217 330.198,-62.6442"/>
<polygon fill="#63b8ff" stroke="#63b8ff" points="365.322,-60.4513 374.627,-55.3845 364.194,-53.5429 365.322,-60.4513"/>
</a>
</g>
</g>
<!-- Node12&#45;&gt;Node12 -->
<g id="edge15_Node000012_Node000012" class="edge"><title>Node12&#45;&gt;Node12</title>
<g id="a_edge15_Node000012_Node000012"><a xlink:title=" ">
<path fill="none" stroke="#63b8ff" d="M300.555,-97.0975C297.063,-101.47 288.545,-104.5 275,-104.5 252.188,-104.5 243.633,-95.9063 249.336,-86.7754"/>
<polygon fill="#63b8ff" stroke="#63b8ff" points="304.059,-96.8117 300.664,-86.7754 297.059,-96.738 304.059,-96.8117"/>
</a>
</g>
</g>
<!-- Node13 -->
<g id="Node000013" class="node"><title>Node13</title>
<g id="a_Node000013"><a xlink:href="group___advanced_sorts_with_span.html#ga451c79ea7ae3de87d73ed333460ea2d5" target="_top" xlink:title="Rychlé třídění výměnou (Quick Sort with span) s volbou prostředního prvku jako pivota a využívající t...">
<polygon fill="white" stroke="#666666" points="184,-99 74,-99 74,-80 184,-80 184,-99"/>
<text text-anchor="middle" x="129" y="-87" font-family="Helvetica,sans-Serif" font-size="10.00">quick_sort_with_span</text>
</a>
</g>
</g>
<!-- Node12&#45;&gt;Node13 -->
<g id="edge13_Node000012_Node000013" class="edge"><title>Node12&#45;&gt;Node13</title>
<g id="a_edge13_Node000012_Node000013"><a xlink:title=" ">
<path fill="none" stroke="#63b8ff" d="M210.009,-79.4988C201.439,-80.5701 192.716,-81.6605 184.333,-82.7084"/>
<polygon fill="#63b8ff" stroke="#63b8ff" points="210.481,-82.9672 219.97,-78.2537 209.613,-76.0212 210.481,-82.9672"/>
</a>
</g>
</g>
<!-- Node13&#45;&gt;Node8 -->
<g id="edge14_Node000013_Node000008" class="edge"><title>Node13&#45;&gt;Node8</title>
<g id="a_edge14_Node000013_Node000008"><a xlink:title=" ">
<path fill="none" stroke="#63b8ff" d="M73.0707,-101.198C60.4721,-103.881 47.941,-106.55 38.2215,-108.62"/>
<polygon fill="#63b8ff" stroke="#63b8ff" points="74.0849,-104.56 83.1365,-99.0543 72.6268,-97.714 74.0849,-104.56"/>
</a>
</g>
</g>
<!-- Node15 -->
<g id="Node000015" class="node"><title>Node15</title>
<g id="a_Node000015"><a xlink:href="group___t_span.html#ga2bc9c4a1a22d533a1a01ddb8cb57cfca" target="_top" xlink:title="Výměna hodnot elementů Spanů určených dvěma iterátory.">
<polygon fill="white" stroke="#666666" points="494,-19 366,-19 366,-0 494,-0 494,-19"/>
<text text-anchor="middle" x="430" y="-7" font-family="Helvetica,sans-Serif" font-size="10.00">span_swap_with_iterators</text>
</a>
</g>
</g>
<!-- Node14&#45;&gt;Node15 -->
<g id="edge17_Node000014_Node000015" class="edge"><title>Node14&#45;&gt;Node15</title>
<g id="a_edge17_Node000014_Node000015"><a xlink:title=" ">
<path fill="none" stroke="#63b8ff" d="M561.233,-51.3184C541.658,-43.9627 516.586,-34.833 494,-27.5 485.02,-24.5845 475.241,-21.6674 466.124,-19.0562"/>
<polygon fill="#63b8ff" stroke="#63b8ff" points="560.053,-54.6142 570.645,-54.8775 562.529,-48.0667 560.053,-54.6142"/>
</a>
</g>
</g>
</g>
</svg>
