<?xml version="1.0" encoding="UTF-8" standalone="no"?>
<!DOCTYPE svg PUBLIC "-//W3C//DTD SVG 1.1//EN"
 "http://www.w3.org/Graphics/SVG/1.1/DTD/svg11.dtd">
<!-- Generated by graphviz version 2.38.0 (20140413.2041)
 -->
<!-- Title: vector_fast_set_value Pages: 1 -->
<svg width="478pt" height="138pt"
 viewBox="0.00 0.00 478.00 138.00" xmlns="http://www.w3.org/2000/svg" xmlns:xlink="http://www.w3.org/1999/xlink">
<g id="graph0" class="graph" transform="scale(1 1) rotate(0) translate(4 134)">
<title>vector_fast_set_value</title>
<!-- Node1 -->
<g id="Node000001" class="node"><title>Node1</title>
<g id="a_Node000001"><a xlink:title=" ">
<polygon fill="#999999" stroke="#666666" points="470,-93 361,-93 361,-74 470,-74 470,-93"/>
<text text-anchor="middle" x="415.5" y="-81" font-family="Helvetica,sans-Serif" font-size="10.00">vector_fast_set_value</text>
</a>
</g>
</g>
<!-- Node2 -->
<g id="Node000002" class="node"><title>Node2</title>
<g id="a_Node000002"><a xlink:href="group___t_vector_iterator.html#ga66f6b96e416a7e593b1cf703f58be7ca" target="_top" xlink:title="Zapsání hodnoty elementu do vektoru pomocí iterátoru.">
<polygon fill="white" stroke="#666666" points="325,-127.5 229,-127.5 229,-97.5 325,-97.5 325,-127.5"/>
<text text-anchor="start" x="237" y="-115.5" font-family="Helvetica,sans-Serif" font-size="10.00">vector_iterator_set</text>
<text text-anchor="middle" x="277" y="-104.5" font-family="Helvetica,sans-Serif" font-size="10.00">_value</text>
</a>
</g>
</g>
<!-- Node1&#45;&gt;Node2 -->
<g id="edge1_Node000001_Node000002" class="edge"><title>Node1&#45;&gt;Node2</title>
<g id="a_edge1_Node000001_Node000002"><a xlink:title=" ">
<path fill="none" stroke="#63b8ff" d="M359.622,-95.1591C348.277,-97.5694 336.419,-100.089 325.368,-102.436"/>
<polygon fill="#63b8ff" stroke="#63b8ff" points="360.372,-98.5779 369.426,-93.0761 358.917,-91.7307 360.372,-98.5779"/>
</a>
</g>
</g>
<!-- Node4 -->
<g id="Node000004" class="node"><title>Node4</title>
<g id="a_Node000004"><a xlink:href="group___t_vector.html#gabd5ba54950295545d27b1286234ead39" target="_top" xlink:title="Zapsání hodnoty elementu do vektoru na požadovanou pozici.">
<polygon fill="white" stroke="#666666" points="321,-64 233,-64 233,-45 321,-45 321,-64"/>
<text text-anchor="middle" x="277" y="-52" font-family="Helvetica,sans-Serif" font-size="10.00">vector_set_value</text>
</a>
</g>
</g>
<!-- Node1&#45;&gt;Node4 -->
<g id="edge3_Node000001_Node000004" class="edge"><title>Node1&#45;&gt;Node4</title>
<g id="a_edge3_Node000001_Node000004"><a xlink:title=" ">
<path fill="none" stroke="#63b8ff" d="M359.391,-71.7919C346.665,-69.0881 333.304,-66.2496 321.172,-63.672"/>
<polygon fill="#63b8ff" stroke="#63b8ff" points="358.917,-75.2693 369.426,-73.9239 360.372,-68.4221 358.917,-75.2693"/>
</a>
</g>
</g>
<!-- Node3 -->
<g id="Node000003" class="node"><title>Node3</title>
<g id="a_Node000003"><a xlink:href="group___t_span.html#gad7325743f683c214db12e5f7070569a7" target="_top" xlink:title="Zapsání hodnoty elementu do Spanu pomocí iterátoru.">
<polygon fill="white" stroke="#666666" points="193,-130 74,-130 74,-111 193,-111 193,-130"/>
<text text-anchor="middle" x="133.5" y="-118" font-family="Helvetica,sans-Serif" font-size="10.00">span_iterator_set_value</text>
</a>
</g>
</g>
<!-- Node2&#45;&gt;Node3 -->
<g id="edge2_Node000002_Node000003" class="edge"><title>Node2&#45;&gt;Node3</title>
<g id="a_edge2_Node000002_Node000003"><a xlink:title=" ">
<path fill="none" stroke="#63b8ff" d="M218.784,-115.735C210.369,-116.211 201.689,-116.701 193.244,-117.179"/>
<polygon fill="#63b8ff" stroke="#63b8ff" points="219.096,-119.223 228.883,-115.164 218.701,-112.234 219.096,-119.223"/>
</a>
</g>
</g>
<!-- Node5 -->
<g id="Node000005" class="node"><title>Node5</title>
<g id="a_Node000005"><a xlink:href="group___basic_sorts.html#gac3903c3fd846908cd362e293ed40582e" target="_top" xlink:title="Třídění přímým vkládáním (Insert Sort)">
<polygon fill="white" stroke="#666666" points="164.5,-93 102.5,-93 102.5,-74 164.5,-74 164.5,-93"/>
<text text-anchor="middle" x="133.5" y="-81" font-family="Helvetica,sans-Serif" font-size="10.00">insert_sort</text>
</a>
</g>
</g>
<!-- Node4&#45;&gt;Node5 -->
<g id="edge4_Node000004_Node000005" class="edge"><title>Node4&#45;&gt;Node5</title>
<g id="a_edge4_Node000004_Node000005"><a xlink:title=" ">
<path fill="none" stroke="#63b8ff" d="M222.762,-65.4109C203.215,-69.4172 181.764,-73.8134 164.904,-77.2688"/>
<polygon fill="#63b8ff" stroke="#63b8ff" points="223.683,-68.7951 232.776,-63.3585 222.277,-61.9376 223.683,-68.7951"/>
</a>
</g>
</g>
<!-- Node7 -->
<g id="Node000007" class="node"><title>Node7</title>
<g id="a_Node000007"><a xlink:href="group___advanced_sorts.html#gaee070b00692f425d83eaea28b37bab2b" target="_top" xlink:title="Shellovo třídění vkládáním s ubývajícím krokem (Shell Sort) dle Hibbardovy posloupnosti.">
<polygon fill="white" stroke="#666666" points="163,-56 104,-56 104,-37 163,-37 163,-56"/>
<text text-anchor="middle" x="133.5" y="-44" font-family="Helvetica,sans-Serif" font-size="10.00">shell_sort</text>
</a>
</g>
</g>
<!-- Node4&#45;&gt;Node7 -->
<g id="edge6_Node000004_Node000007" class="edge"><title>Node4&#45;&gt;Node7</title>
<g id="a_edge6_Node000004_Node000007"><a xlink:title=" ">
<path fill="none" stroke="#63b8ff" d="M222.736,-51.4886C202.515,-50.3454 180.261,-49.0872 163.161,-48.1204"/>
<polygon fill="#63b8ff" stroke="#63b8ff" points="222.595,-54.9861 232.776,-52.0563 222.99,-47.9973 222.595,-54.9861"/>
</a>
</g>
</g>
<!-- Node8 -->
<g id="Node000008" class="node"><title>Node8</title>
<g id="a_Node000008"><a xlink:href="group___t_span.html#ga56e402bae9f24dffb084212da636a128" target="_top" xlink:title="Zapsání hodnoty elementu do Spanu na požadovanou pozici.">
<polygon fill="white" stroke="#666666" points="175,-19 92,-19 92,-0 175,-0 175,-19"/>
<text text-anchor="middle" x="133.5" y="-7" font-family="Helvetica,sans-Serif" font-size="10.00">span_set_value</text>
</a>
</g>
</g>
<!-- Node4&#45;&gt;Node8 -->
<g id="edge8_Node000004_Node000008" class="edge"><title>Node4&#45;&gt;Node8</title>
<g id="a_edge8_Node000004_Node000008"><a xlink:title=" ">
<path fill="none" stroke="#63b8ff" d="M237.103,-41.7045C223.203,-37.1696 207.415,-32.062 193,-27.5 184.186,-24.7106 174.607,-21.7383 165.8,-19.0295"/>
<polygon fill="#63b8ff" stroke="#63b8ff" points="236.251,-45.1083 246.844,-44.8893 238.426,-38.4549 236.251,-45.1083"/>
</a>
</g>
</g>
<!-- Node6 -->
<g id="Node000006" class="node"><title>Node6</title>
<g id="a_Node000006"><a xlink:href="group___main_program.html#ga0ddf1224851353fc92bfbff6f499fa97" target="_top" xlink:title=" ">
<polygon fill="white" stroke="#666666" points="38,-74 0,-74 0,-55 38,-55 38,-74"/>
<text text-anchor="middle" x="19" y="-62" font-family="Helvetica,sans-Serif" font-size="10.00">main</text>
</a>
</g>
</g>
<!-- Node5&#45;&gt;Node6 -->
<g id="edge5_Node000005_Node000006" class="edge"><title>Node5&#45;&gt;Node6</title>
<g id="a_edge5_Node000005_Node000006"><a xlink:title=" ">
<path fill="none" stroke="#63b8ff" d="M92.3966,-76.727C73.9031,-73.6036 52.8656,-70.0506 38.2529,-67.5827"/>
<polygon fill="#63b8ff" stroke="#63b8ff" points="91.9088,-80.1941 102.352,-78.4083 93.0746,-73.2918 91.9088,-80.1941"/>
</a>
</g>
</g>
<!-- Node7&#45;&gt;Node6 -->
<g id="edge7_Node000007_Node000006" class="edge"><title>Node7&#45;&gt;Node6</title>
<g id="a_edge7_Node000007_Node000006"><a xlink:title=" ">
<path fill="none" stroke="#63b8ff" d="M93.6936,-52.709C74.8152,-55.7296 53.0275,-59.2156 38.0663,-61.6094"/>
<polygon fill="#63b8ff" stroke="#63b8ff" points="94.499,-56.1248 103.82,-51.0887 93.393,-49.2127 94.499,-56.1248"/>
</a>
</g>
</g>
</g>
</svg>
