<?xml version="1.0" encoding="UTF-8" standalone="no"?>
<!DOCTYPE svg PUBLIC "-//W3C//DTD SVG 1.1//EN"
 "http://www.w3.org/Graphics/SVG/1.1/DTD/svg11.dtd">
<!-- Generated by graphviz version 2.38.0 (20140413.2041)
 -->
<!-- Title: vector_fast_compare_position_value Pages: 1 -->
<svg width="814pt" height="218pt"
 viewBox="0.00 0.00 814.00 217.91" xmlns="http://www.w3.org/2000/svg" xmlns:xlink="http://www.w3.org/1999/xlink">
<g id="graph0" class="graph" transform="scale(1 1) rotate(0) translate(4 213.91)">
<title>vector_fast_compare_position_value</title>
<!-- Node1 -->
<g id="Node000001" class="node"><title>Node1</title>
<g id="a_Node000001"><a xlink:title=" ">
<polygon fill="#999999" stroke="#666666" points="806,-86 700,-86 700,-56 806,-56 806,-86"/>
<text text-anchor="start" x="708" y="-74" font-family="Helvetica,sans-Serif" font-size="10.00">vector_fast_compare</text>
<text text-anchor="middle" x="753" y="-63" font-family="Helvetica,sans-Serif" font-size="10.00">_position_value</text>
</a>
</g>
</g>
<!-- Node2 -->
<g id="Node000002" class="node"><title>Node2</title>
<g id="a_Node000002"><a xlink:href="group__sortable___t_vector.html#ga09e150aa4cdd8faabf43474ab1dbe454" target="_top" xlink:title="Porovnání mezi hodnotou elementu vektoru a hodnotou typu VectorElement.">
<polygon fill="white" stroke="#666666" points="664,-121 540,-121 540,-91 664,-91 664,-121"/>
<text text-anchor="start" x="548" y="-109" font-family="Helvetica,sans-Serif" font-size="10.00">vector_compare_position</text>
<text text-anchor="middle" x="602" y="-98" font-family="Helvetica,sans-Serif" font-size="10.00">_value</text>
</a>
</g>
</g>
<!-- Node1&#45;&gt;Node2 -->
<g id="edge1_Node000001_Node000002" class="edge"><title>Node1&#45;&gt;Node2</title>
<g id="a_edge1_Node000001_Node000002"><a xlink:title=" ">
<path fill="none" stroke="#63b8ff" d="M689.955,-85.5743C681.382,-87.5882 672.582,-89.6553 664.027,-91.6648"/>
<polygon fill="#63b8ff" stroke="#63b8ff" points="690.952,-88.9354 699.887,-83.2413 689.352,-82.1209 690.952,-88.9354"/>
</a>
</g>
</g>
<!-- Node11 -->
<g id="Node000011" class="node"><title>Node11</title>
<g id="a_Node000011"><a xlink:href="group__sortable___t_vector_iterator.html#gaa359594c5556fb685473666fad583ddf" target="_top" xlink:title="Porovnání mezi hodnotou elementu vektoru určenou iterátorem a hodnotou typu VectorElement.">
<polygon fill="white" stroke="#666666" points="655.5,-52 548.5,-52 548.5,-22 655.5,-22 655.5,-52"/>
<text text-anchor="start" x="556.5" y="-40" font-family="Helvetica,sans-Serif" font-size="10.00">vector_compare_with</text>
<text text-anchor="middle" x="602" y="-29" font-family="Helvetica,sans-Serif" font-size="10.00">_iterator_value</text>
</a>
</g>
</g>
<!-- Node1&#45;&gt;Node11 -->
<g id="edge15_Node000001_Node000011" class="edge"><title>Node1&#45;&gt;Node11</title>
<g id="a_edge15_Node000001_Node000011"><a xlink:title=" ">
<path fill="none" stroke="#63b8ff" d="M689.973,-56.8462C678.542,-54.2377 666.707,-51.5372 655.588,-48.9998"/>
<polygon fill="#63b8ff" stroke="#63b8ff" points="689.359,-60.296 699.887,-59.1084 690.916,-53.4714 689.359,-60.296"/>
</a>
</g>
</g>
<!-- Node3 -->
<g id="Node000003" class="node"><title>Node3</title>
<g id="a_Node000003"><a xlink:href="group___basic_sorts.html#gac3903c3fd846908cd362e293ed40582e" target="_top" xlink:title="Třídění přímým vkládáním (Insert Sort)">
<polygon fill="white" stroke="#666666" points="160,-204.5 98,-204.5 98,-185.5 160,-185.5 160,-204.5"/>
<text text-anchor="middle" x="129" y="-192.5" font-family="Helvetica,sans-Serif" font-size="10.00">insert_sort</text>
</a>
</g>
</g>
<!-- Node2&#45;&gt;Node3 -->
<g id="edge2_Node000002_Node000003" class="edge"><title>Node2&#45;&gt;Node3</title>
<g id="a_edge2_Node000002_Node000003"><a xlink:title=" ">
<path fill="none" stroke="#63b8ff" d="M579.798,-128.457C561.586,-146.065 533.641,-169.318 504,-180 382.955,-223.622 225.422,-208.739 160.254,-199.756"/>
<polygon fill="#63b8ff" stroke="#63b8ff" points="582.362,-130.843 586.983,-121.309 577.425,-125.88 582.362,-130.843"/>
</a>
</g>
</g>
<!-- Node5 -->
<g id="Node000005" class="node"><title>Node5</title>
<g id="a_Node000005"><a xlink:href="advanced__sorts_8c.html#a0ae77c9640aa821e5507079ec5d2eb1d" target="_top" xlink:title="Vnitřní a lokální funkce realizující rekurzivní funkci pro metodu (Quick Sort)">
<polygon fill="white" stroke="#666666" points="482.5,-153.5 387.5,-153.5 387.5,-134.5 482.5,-134.5 482.5,-153.5"/>
<text text-anchor="middle" x="435" y="-141.5" font-family="Helvetica,sans-Serif" font-size="10.00">quick_sort_worker</text>
</a>
</g>
</g>
<!-- Node2&#45;&gt;Node5 -->
<g id="edge4_Node000002_Node000005" class="edge"><title>Node2&#45;&gt;Node5</title>
<g id="a_edge4_Node000002_Node000005"><a xlink:title=" ">
<path fill="none" stroke="#63b8ff" d="M529.736,-122.412C511.882,-126.524 493.312,-130.801 477.457,-134.452"/>
<polygon fill="#63b8ff" stroke="#63b8ff" points="530.601,-125.805 539.56,-120.15 529.03,-118.983 530.601,-125.805"/>
</a>
</g>
</g>
<!-- Node7 -->
<g id="Node000007" class="node"><title>Node7</title>
<g id="a_Node000007"><a xlink:href="group___advanced_sorts.html#gaee070b00692f425d83eaea28b37bab2b" target="_top" xlink:title="Shellovo třídění vkládáním s ubývajícím krokem (Shell Sort) dle Hibbardovy posloupnosti.">
<polygon fill="white" stroke="#666666" points="304.5,-125.5 245.5,-125.5 245.5,-106.5 304.5,-106.5 304.5,-125.5"/>
<text text-anchor="middle" x="275" y="-113.5" font-family="Helvetica,sans-Serif" font-size="10.00">shell_sort</text>
</a>
</g>
</g>
<!-- Node2&#45;&gt;Node7 -->
<g id="edge8_Node000002_Node000007" class="edge"><title>Node2&#45;&gt;Node7</title>
<g id="a_edge8_Node000002_Node000007"><a xlink:title=" ">
<path fill="none" stroke="#63b8ff" d="M529.726,-108.193C459.231,-110.362 354.855,-113.574 304.81,-115.114"/>
<polygon fill="#63b8ff" stroke="#63b8ff" points="529.982,-111.687 539.87,-107.881 529.767,-104.69 529.982,-111.687"/>
</a>
</g>
</g>
<!-- Node8 -->
<g id="Node000008" class="node"><title>Node8</title>
<g id="a_Node000008"><a xlink:href="group___t_span.html#gad64d53738a4da90ef126cd73d84b5f52" target="_top" xlink:title="Porovnání mezi hodnotou elementu Span a hodnotou typu VectorElement.">
<polygon fill="white" stroke="#666666" points="494.5,-78 375.5,-78 375.5,-48 494.5,-48 494.5,-78"/>
<text text-anchor="start" x="383.5" y="-66" font-family="Helvetica,sans-Serif" font-size="10.00">span_compare_position</text>
<text text-anchor="middle" x="435" y="-55" font-family="Helvetica,sans-Serif" font-size="10.00">_value</text>
</a>
</g>
</g>
<!-- Node2&#45;&gt;Node8 -->
<g id="edge10_Node000002_Node000008" class="edge"><title>Node2&#45;&gt;Node8</title>
<g id="a_edge10_Node000002_Node000008"><a xlink:title=" ">
<path fill="none" stroke="#63b8ff" d="M533.346,-88.3689C520.177,-84.937 506.486,-81.3692 493.676,-78.0308"/>
<polygon fill="#63b8ff" stroke="#63b8ff" points="532.732,-91.8257 543.291,-90.9607 534.497,-85.0519 532.732,-91.8257"/>
</a>
</g>
</g>
<!-- Node4 -->
<g id="Node000004" class="node"><title>Node4</title>
<g id="a_Node000004"><a xlink:href="group___main_program.html#ga0ddf1224851353fc92bfbff6f499fa97" target="_top" xlink:title=" ">
<polygon fill="white" stroke="#666666" points="38,-143.5 0,-143.5 0,-124.5 38,-124.5 38,-143.5"/>
<text text-anchor="middle" x="19" y="-131.5" font-family="Helvetica,sans-Serif" font-size="10.00">main</text>
</a>
</g>
</g>
<!-- Node3&#45;&gt;Node4 -->
<g id="edge3_Node000003_Node000004" class="edge"><title>Node3&#45;&gt;Node4</title>
<g id="a_edge3_Node000003_Node000004"><a xlink:title=" ">
<path fill="none" stroke="#63b8ff" d="M99.7989,-180.851C91.4298,-176.525 82.2874,-171.673 74,-167 60.6016,-159.445 45.7078,-150.284 34.9613,-143.533"/>
<polygon fill="#63b8ff" stroke="#63b8ff" points="98.336,-184.034 108.833,-185.474 101.525,-177.803 98.336,-184.034"/>
</a>
</g>
</g>
<!-- Node5&#45;&gt;Node5 -->
<g id="edge7_Node000005_Node000005" class="edge"><title>Node5&#45;&gt;Node5</title>
<g id="a_edge7_Node000005_Node000005"><a xlink:title=" ">
<path fill="none" stroke="#63b8ff" d="M464.866,-162.321C463.617,-167.509 453.662,-171.5 435,-171.5 406.563,-171.5 398.342,-162.234 410.339,-153.583"/>
<polygon fill="#63b8ff" stroke="#63b8ff" points="467.785,-160.383 459.661,-153.583 461.771,-163.965 467.785,-160.383"/>
</a>
</g>
</g>
<!-- Node6 -->
<g id="Node000006" class="node"><title>Node6</title>
<g id="a_Node000006"><a xlink:href="group___advanced_sorts.html#gaa369b74c9050d30aa2416f9dba8cc8f5" target="_top" xlink:title="Rychlé třídění výměnou (Quick Sort) s volbou prostředního prvku jako pivota.">
<polygon fill="white" stroke="#666666" points="306,-162.5 244,-162.5 244,-143.5 306,-143.5 306,-162.5"/>
<text text-anchor="middle" x="275" y="-150.5" font-family="Helvetica,sans-Serif" font-size="10.00">quick_sort</text>
</a>
</g>
</g>
<!-- Node5&#45;&gt;Node6 -->
<g id="edge5_Node000005_Node000006" class="edge"><title>Node5&#45;&gt;Node6</title>
<g id="a_edge5_Node000005_Node000006"><a xlink:title=" ">
<path fill="none" stroke="#63b8ff" d="M377.377,-147.225C353.378,-148.592 326.376,-150.13 306.277,-151.275"/>
<polygon fill="#63b8ff" stroke="#63b8ff" points="377.665,-150.715 387.449,-146.652 377.266,-143.726 377.665,-150.715"/>
</a>
</g>
</g>
<!-- Node6&#45;&gt;Node4 -->
<g id="edge6_Node000006_Node000004" class="edge"><title>Node6&#45;&gt;Node4</title>
<g id="a_edge6_Node000006_Node000004"><a xlink:title=" ">
<path fill="none" stroke="#63b8ff" d="M233.838,-150.454C193.44,-147.831 129.372,-143.501 74,-139 62.176,-138.039 48.9098,-136.813 38.4854,-135.815"/>
<polygon fill="#63b8ff" stroke="#63b8ff" points="233.623,-153.948 243.828,-151.1 234.075,-146.962 233.623,-153.948"/>
</a>
</g>
</g>
<!-- Node7&#45;&gt;Node4 -->
<g id="edge9_Node000007_Node000004" class="edge"><title>Node7&#45;&gt;Node4</title>
<g id="a_edge9_Node000007_Node000004"><a xlink:title=" ">
<path fill="none" stroke="#63b8ff" d="M235.177,-118.751C179.506,-122.696 79.1998,-129.805 38.2049,-132.71"/>
<polygon fill="#63b8ff" stroke="#63b8ff" points="235.629,-122.228 245.357,-118.03 235.134,-115.246 235.629,-122.228"/>
</a>
</g>
</g>
<!-- Node9 -->
<g id="Node000009" class="node"><title>Node9</title>
<g id="a_Node000009"><a xlink:href="advanced__sorts__with__span_8c.html#a1526ecf4371ecb71f2bc68954f16681f" target="_top" xlink:title="Vnitřní a lokální funkce realizující rekurzivní funkci pro metodu (Quick Sort)">
<polygon fill="white" stroke="#666666" points="330,-70 220,-70 220,-40 330,-40 330,-70"/>
<text text-anchor="start" x="228" y="-58" font-family="Helvetica,sans-Serif" font-size="10.00">quick_sort_with_span</text>
<text text-anchor="middle" x="275" y="-47" font-family="Helvetica,sans-Serif" font-size="10.00">_worker</text>
</a>
</g>
</g>
<!-- Node8&#45;&gt;Node9 -->
<g id="edge11_Node000008_Node000009" class="edge"><title>Node8&#45;&gt;Node9</title>
<g id="a_edge11_Node000008_Node000009"><a xlink:title=" ">
<path fill="none" stroke="#63b8ff" d="M365.02,-59.5073C353.357,-58.9168 341.397,-58.3113 330.181,-57.7434"/>
<polygon fill="#63b8ff" stroke="#63b8ff" points="365.002,-63.0108 375.167,-60.0211 365.356,-56.0198 365.002,-63.0108"/>
</a>
</g>
</g>
<!-- Node9&#45;&gt;Node9 -->
<g id="edge14_Node000009_Node000009" class="edge"><title>Node9&#45;&gt;Node9</title>
<g id="a_edge14_Node000009_Node000009"><a xlink:title=" ">
<path fill="none" stroke="#63b8ff" d="M300.555,-80.5975C297.063,-84.9704 288.545,-88 275,-88 252.188,-88 243.633,-79.4063 249.336,-70.2754"/>
<polygon fill="#63b8ff" stroke="#63b8ff" points="304.059,-80.3117 300.664,-70.2754 297.059,-80.238 304.059,-80.3117"/>
</a>
</g>
</g>
<!-- Node10 -->
<g id="Node000010" class="node"><title>Node10</title>
<g id="a_Node000010"><a xlink:href="group___advanced_sorts_with_span.html#ga451c79ea7ae3de87d73ed333460ea2d5" target="_top" xlink:title="Rychlé třídění výměnou (Quick Sort with span) s volbou prostředního prvku jako pivota a využívající t...">
<polygon fill="white" stroke="#666666" points="184,-75.5 74,-75.5 74,-56.5 184,-56.5 184,-75.5"/>
<text text-anchor="middle" x="129" y="-63.5" font-family="Helvetica,sans-Serif" font-size="10.00">quick_sort_with_span</text>
</a>
</g>
</g>
<!-- Node9&#45;&gt;Node10 -->
<g id="edge12_Node000009_Node000010" class="edge"><title>Node9&#45;&gt;Node10</title>
<g id="a_edge12_Node000009_Node000010"><a xlink:title=" ">
<path fill="none" stroke="#63b8ff" d="M209.73,-59.9095C201.25,-60.5573 192.625,-61.2162 184.333,-61.8496"/>
<polygon fill="#63b8ff" stroke="#63b8ff" points="210.266,-63.3789 219.97,-59.1273 209.732,-56.3992 210.266,-63.3789"/>
</a>
</g>
</g>
<!-- Node10&#45;&gt;Node4 -->
<g id="edge13_Node000010_Node000004" class="edge"><title>Node10&#45;&gt;Node4</title>
<g id="a_edge13_Node000010_Node000004"><a xlink:title=" ">
<path fill="none" stroke="#63b8ff" d="M103.827,-81.2198C82.7769,-94.4738 52.9147,-113.276 35.0969,-124.495"/>
<polygon fill="#63b8ff" stroke="#63b8ff" points="105.929,-84.0327 112.526,-75.7427 102.199,-78.1091 105.929,-84.0327"/>
</a>
</g>
</g>
<!-- Node12 -->
<g id="Node000012" class="node"><title>Node12</title>
<g id="a_Node000012"><a xlink:href="group___t_span.html#ga0b2e633085569b47c063161298794b98" target="_top" xlink:title="Porovnání mezi hodnotou elementu Spanu určenou iterátorem a hodnotou typu VectorElement.">
<polygon fill="white" stroke="#666666" points="504,-30 366,-30 366,-0 504,-0 504,-30"/>
<text text-anchor="start" x="374" y="-18" font-family="Helvetica,sans-Serif" font-size="10.00">span_compare_with_iterator</text>
<text text-anchor="middle" x="435" y="-7" font-family="Helvetica,sans-Serif" font-size="10.00">_value</text>
</a>
</g>
</g>
<!-- Node11&#45;&gt;Node12 -->
<g id="edge16_Node000011_Node000012" class="edge"><title>Node11&#45;&gt;Node12</title>
<g id="a_edge16_Node000011_Node000012"><a xlink:title=" ">
<path fill="none" stroke="#63b8ff" d="M538.264,-28.6352C527.108,-27.1478 515.441,-25.5921 504.144,-24.0858"/>
<polygon fill="#63b8ff" stroke="#63b8ff" points="537.964,-32.1262 548.339,-29.9786 538.89,-25.1876 537.964,-32.1262"/>
</a>
</g>
</g>
</g>
</svg>
