<?xml version="1.0" encoding="UTF-8" standalone="no"?>
<!DOCTYPE svg PUBLIC "-//W3C//DTD SVG 1.1//EN"
 "http://www.w3.org/Graphics/SVG/1.1/DTD/svg11.dtd">
<!-- Generated by graphviz version 2.38.0 (20140413.2041)
 -->
<!-- Title: TVector.c Pages: 1 -->
<svg width="390pt" height="192pt"
 viewBox="0.00 0.00 389.96 192.00" xmlns="http://www.w3.org/2000/svg" xmlns:xlink="http://www.w3.org/1999/xlink">
<g id="graph0" class="graph" transform="scale(1 1) rotate(0) translate(4 188)">
<title>TVector.c</title>
<!-- Node1 -->
<g id="Node000001" class="node"><title>Node1</title>
<g id="a_Node000001"><a xlink:title="Implementace API typu Sortable Vector with shareable sortstats.">
<polygon fill="#999999" stroke="#666666" points="148.5,-184 89.5,-184 89.5,-165 148.5,-165 148.5,-184"/>
<text text-anchor="middle" x="119" y="-172" font-family="Helvetica,sans-Serif" font-size="10.00">TVector.c</text>
</a>
</g>
</g>
<!-- Node2 -->
<g id="Node000002" class="node"><title>Node2</title>
<g id="a_Node000002"><a xlink:title=" ">
<polygon fill="#e0e0e0" stroke="#999999" points="48,-19 0,-19 0,-0 48,-0 48,-19"/>
<text text-anchor="middle" x="24" y="-7" font-family="Helvetica,sans-Serif" font-size="10.00">stdlib.h</text>
</a>
</g>
</g>
<!-- Node1&#45;&gt;Node2 -->
<g id="edge1_Node000001_Node000002" class="edge"><title>Node1&#45;&gt;Node2</title>
<g id="a_edge1_Node000001_Node000002"><a xlink:title=" ">
<path fill="none" stroke="#63b8ff" d="M113.892,-164.736C98.8793,-138.977 54.6753,-63.1323 34.3899,-28.3268"/>
<polygon fill="#63b8ff" stroke="#63b8ff" points="37.1922,-26.1842 29.1329,-19.3069 31.1444,-29.7091 37.1922,-26.1842"/>
</a>
</g>
</g>
<!-- Node3 -->
<g id="Node000003" class="node"><title>Node3</title>
<g id="a_Node000003"><a xlink:title=" ">
<polygon fill="#e0e0e0" stroke="#999999" points="118,-19 66,-19 66,-0 118,-0 118,-19"/>
<text text-anchor="middle" x="92" y="-7" font-family="Helvetica,sans-Serif" font-size="10.00">assert.h</text>
</a>
</g>
</g>
<!-- Node1&#45;&gt;Node3 -->
<g id="edge2_Node000001_Node000003" class="edge"><title>Node1&#45;&gt;Node3</title>
<g id="a_edge2_Node000001_Node000003"><a xlink:title=" ">
<path fill="none" stroke="#63b8ff" d="M117.548,-164.736C113.318,-139.198 100.933,-64.4307 95.1029,-29.2321"/>
<polygon fill="#63b8ff" stroke="#63b8ff" points="98.546,-28.6005 93.4588,-19.3069 91.6401,-29.7445 98.546,-28.6005"/>
</a>
</g>
</g>
<!-- Node4 -->
<g id="Node000004" class="node"><title>Node4</title>
<g id="a_Node000004"><a xlink:href="_t_vector_8h.html" target="_top" xlink:title="Definice typu Sortable Vector with shareable sortstats.">
<polygon fill="white" stroke="#666666" points="243.5,-129 184.5,-129 184.5,-110 243.5,-110 243.5,-129"/>
<text text-anchor="middle" x="214" y="-117" font-family="Helvetica,sans-Serif" font-size="10.00">TVector.h</text>
</a>
</g>
</g>
<!-- Node1&#45;&gt;Node4 -->
<g id="edge3_Node000001_Node000004" class="edge"><title>Node1&#45;&gt;Node4</title>
<g id="a_edge3_Node000001_Node000004"><a xlink:title=" ">
<path fill="none" stroke="#63b8ff" d="M134.263,-164.985C149.133,-156.689 171.983,-143.941 189.416,-134.215"/>
<polygon fill="#63b8ff" stroke="#63b8ff" points="191.431,-137.099 198.459,-129.17 188.021,-130.986 191.431,-137.099"/>
</a>
</g>
</g>
<!-- Node9 -->
<g id="Node000009" class="node"><title>Node9</title>
<g id="a_Node000009"><a xlink:title=" ">
<polygon fill="#e0e0e0" stroke="#999999" points="325.5,-19 274.5,-19 274.5,-0 325.5,-0 325.5,-19"/>
<text text-anchor="middle" x="300" y="-7" font-family="Helvetica,sans-Serif" font-size="10.00">check.h</text>
</a>
</g>
</g>
<!-- Node1&#45;&gt;Node9 -->
<g id="edge14_Node000001_Node000009" class="edge"><title>Node1&#45;&gt;Node9</title>
<g id="a_edge14_Node000001_Node000009"><a xlink:title=" ">
<path fill="none" stroke="#63b8ff" d="M148.647,-172.549C205.101,-168.925 326.951,-151.985 378,-74 392.586,-51.7175 362.107,-33.4466 335.082,-22.3164"/>
<polygon fill="#63b8ff" stroke="#63b8ff" points="336.335,-19.0484 325.747,-18.6824 333.796,-25.5716 336.335,-19.0484"/>
</a>
</g>
</g>
<!-- Node5 -->
<g id="Node000005" class="node"><title>Node5</title>
<g id="a_Node000005"><a xlink:title=" ">
<polygon fill="#e0e0e0" stroke="#999999" points="182,-19 136,-19 136,-0 182,-0 182,-19"/>
<text text-anchor="middle" x="159" y="-7" font-family="Helvetica,sans-Serif" font-size="10.00">stdio.h</text>
</a>
</g>
</g>
<!-- Node4&#45;&gt;Node5 -->
<g id="edge4_Node000004_Node000005" class="edge"><title>Node4&#45;&gt;Node5</title>
<g id="a_edge4_Node000004_Node000005"><a xlink:title=" ">
<path fill="none" stroke="#63b8ff" d="M184.356,-113.341C162.161,-107.757 133.268,-96.4388 119,-74 108.5,-57.4872 124.088,-38.494 138.767,-25.6141"/>
<polygon fill="#63b8ff" stroke="#63b8ff" points="141.145,-28.1903 146.657,-19.1422 136.706,-22.7781 141.145,-28.1903"/>
</a>
</g>
</g>
<!-- Node6 -->
<g id="Node000006" class="node"><title>Node6</title>
<g id="a_Node000006"><a xlink:title=" ">
<polygon fill="#e0e0e0" stroke="#999999" points="256,-19 200,-19 200,-0 256,-0 256,-19"/>
<text text-anchor="middle" x="228" y="-7" font-family="Helvetica,sans-Serif" font-size="10.00">stdbool.h</text>
</a>
</g>
</g>
<!-- Node4&#45;&gt;Node6 -->
<g id="edge5_Node000004_Node000006" class="edge"><title>Node4&#45;&gt;Node6</title>
<g id="a_edge5_Node000004_Node000006"><a xlink:title=" ">
<path fill="none" stroke="#63b8ff" d="M218.621,-109.942C223.059,-101.199 229.453,-87.0886 232,-74 234.905,-59.0725 233.528,-41.8358 231.635,-29.0906"/>
<polygon fill="#63b8ff" stroke="#63b8ff" points="235.082,-28.4777 229.934,-19.2175 228.183,-29.6668 235.082,-28.4777"/>
</a>
</g>
</g>
<!-- Node7 -->
<g id="Node000007" class="node"><title>Node7</title>
<g id="a_Node000007"><a xlink:title=" ">
<polygon fill="#e0e0e0" stroke="#999999" points="369.5,-74 318.5,-74 318.5,-55 369.5,-55 369.5,-74"/>
<text text-anchor="middle" x="344" y="-62" font-family="Helvetica,sans-Serif" font-size="10.00">stddef.h</text>
</a>
</g>
</g>
<!-- Node4&#45;&gt;Node7 -->
<g id="edge6_Node000004_Node000007" class="edge"><title>Node4&#45;&gt;Node7</title>
<g id="a_edge6_Node000004_Node000007"><a xlink:title=" ">
<path fill="none" stroke="#63b8ff" d="M234.887,-109.985C256.082,-101.343 289.127,-87.8713 313.301,-78.0158"/>
<polygon fill="#63b8ff" stroke="#63b8ff" points="314.795,-81.1866 322.733,-74.1703 312.152,-74.7046 314.795,-81.1866"/>
</a>
</g>
</g>
<!-- Node8 -->
<g id="Node000008" class="node"><title>Node8</title>
<g id="a_Node000008"><a xlink:href="_t_vector_element_8h.html" target="_top" xlink:title="Definice typu Basic VectorElement a implementace API.">
<polygon fill="white" stroke="#666666" points="223.5,-74 128.5,-74 128.5,-55 223.5,-55 223.5,-74"/>
<text text-anchor="middle" x="176" y="-62" font-family="Helvetica,sans-Serif" font-size="10.00">TVectorElement.h</text>
</a>
</g>
</g>
<!-- Node4&#45;&gt;Node8 -->
<g id="edge7_Node000004_Node000008" class="edge"><title>Node4&#45;&gt;Node8</title>
<g id="a_edge7_Node000004_Node000008"><a xlink:title=" ">
<path fill="none" stroke="#63b8ff" d="M207.725,-109.748C202.413,-102.339 194.645,-91.5042 188.125,-82.4107"/>
<polygon fill="#63b8ff" stroke="#63b8ff" points="190.83,-80.1766 182.158,-74.089 185.141,-84.2554 190.83,-80.1766"/>
</a>
</g>
</g>
<!-- Node4&#45;&gt;Node9 -->
<g id="edge13_Node000004_Node000009" class="edge"><title>Node4&#45;&gt;Node9</title>
<g id="a_edge13_Node000004_Node000009"><a xlink:title=" ">
<path fill="none" stroke="#63b8ff" d="M221.038,-109.662C235.409,-91.6148 268.325,-50.2775 286.8,-27.0762"/>
<polygon fill="#63b8ff" stroke="#63b8ff" points="289.614,-29.1614 293.105,-19.1584 284.138,-24.8009 289.614,-29.1614"/>
</a>
</g>
</g>
<!-- Node8&#45;&gt;Node2 -->
<g id="edge9_Node000008_Node000002" class="edge"><title>Node8&#45;&gt;Node2</title>
<g id="a_edge9_Node000008_Node000002"><a xlink:title=" ">
<path fill="none" stroke="#63b8ff" d="M151.579,-54.9846C126.13,-46.1112 86.0732,-32.144 57.6394,-22.2295"/>
<polygon fill="#63b8ff" stroke="#63b8ff" points="58.7046,-18.8943 48.1098,-18.9067 56.3999,-25.5041 58.7046,-18.8943"/>
</a>
</g>
</g>
<!-- Node8&#45;&gt;Node3 -->
<g id="edge11_Node000008_Node000003" class="edge"><title>Node8&#45;&gt;Node3</title>
<g id="a_edge11_Node000008_Node000003"><a xlink:title=" ">
<path fill="none" stroke="#63b8ff" d="M162.504,-54.9846C149.6,-46.8426 129.898,-34.4119 114.599,-24.7587"/>
<polygon fill="#63b8ff" stroke="#63b8ff" points="116.067,-21.5464 105.742,-19.1703 112.331,-27.4665 116.067,-21.5464"/>
</a>
</g>
</g>
<!-- Node8&#45;&gt;Node5 -->
<g id="edge8_Node000008_Node000005" class="edge"><title>Node8&#45;&gt;Node5</title>
<g id="a_edge8_Node000008_Node000005"><a xlink:title=" ">
<path fill="none" stroke="#63b8ff" d="M173.193,-54.7481C170.94,-47.7249 167.7,-37.6235 164.884,-28.845"/>
<polygon fill="#63b8ff" stroke="#63b8ff" points="168.142,-27.5422 161.755,-19.089 161.477,-29.6802 168.142,-27.5422"/>
</a>
</g>
</g>
<!-- Node8&#45;&gt;Node6 -->
<g id="edge10_Node000008_Node000006" class="edge"><title>Node8&#45;&gt;Node6</title>
<g id="a_edge10_Node000008_Node000006"><a xlink:title=" ">
<path fill="none" stroke="#63b8ff" d="M184.587,-54.7481C192.159,-47.0303 203.378,-35.5953 212.514,-26.2835"/>
<polygon fill="#63b8ff" stroke="#63b8ff" points="215.068,-28.6783 219.573,-19.089 210.071,-23.7759 215.068,-28.6783"/>
</a>
</g>
</g>
<!-- Node8&#45;&gt;Node9 -->
<g id="edge12_Node000008_Node000009" class="edge"><title>Node8&#45;&gt;Node9</title>
<g id="a_edge12_Node000008_Node000009"><a xlink:title=" ">
<path fill="none" stroke="#63b8ff" d="M195.923,-54.9846C216.05,-46.3818 247.38,-32.991 270.41,-23.1475"/>
<polygon fill="#63b8ff" stroke="#63b8ff" points="271.895,-26.319 279.715,-19.1703 269.144,-19.8823 271.895,-26.319"/>
</a>
</g>
</g>
</g>
</svg>
