<?xml version="1.0" encoding="UTF-8" standalone="no"?>
<!DOCTYPE svg PUBLIC "-//W3C//DTD SVG 1.1//EN"
 "http://www.w3.org/Graphics/SVG/1.1/DTD/svg11.dtd">
<!-- Generated by graphviz version 2.38.0 (20140413.2041)
 -->
<!-- Title: TVector.h Pages: 1 -->
<svg width="477pt" height="159pt"
 viewBox="0.00 0.00 477.00 159.00" xmlns="http://www.w3.org/2000/svg" xmlns:xlink="http://www.w3.org/1999/xlink">
<g id="graph0" class="graph" transform="scale(1 1) rotate(0) translate(4 155)">
<title>TVector.h</title>
<!-- Node1 -->
<g id="Node000001" class="node"><title>Node1</title>
<g id="a_Node000001"><a xlink:title="Definice typu Sortable Vector with shareable sortstats.">
<polygon fill="#999999" stroke="#666666" points="282,-151 223,-151 223,-132 282,-132 282,-151"/>
<text text-anchor="middle" x="252.5" y="-139" font-family="Helvetica,sans-Serif" font-size="10.00">TVector.h</text>
</a>
</g>
</g>
<!-- Node2 -->
<g id="Node000002" class="node"><title>Node2</title>
<g id="a_Node000002"><a xlink:href="_t_span_8h.html" target="_top" xlink:title="Definice typu Span zajišťující přístup k omezené části vektoru (vyžaduje Sortable Vector with shareab...">
<polygon fill="white" stroke="#666666" points="63,-90.5 10,-90.5 10,-71.5 63,-71.5 63,-90.5"/>
<text text-anchor="middle" x="36.5" y="-78.5" font-family="Helvetica,sans-Serif" font-size="10.00">TSpan.h</text>
</a>
</g>
</g>
<!-- Node1&#45;&gt;Node2 -->
<g id="edge1_Node000001_Node000002" class="edge"><title>Node1&#45;&gt;Node2</title>
<g id="a_edge1_Node000001_Node000002"><a xlink:title=" ">
<path fill="none" stroke="#63b8ff" d="M213.114,-132.478C176.15,-124.559 119.515,-111.422 71.5,-96 66.6399,-94.4389 61.4922,-92.5295 56.6833,-90.6288"/>
<polygon fill="#63b8ff" stroke="#63b8ff" points="212.487,-135.923 222.995,-134.57 213.937,-129.074 212.487,-135.923"/>
</a>
</g>
</g>
<!-- Node4 -->
<g id="Node000004" class="node"><title>Node4</title>
<g id="a_Node000004"><a xlink:href="_t_vector_8c.html" target="_top" xlink:title="Implementace API typu Sortable Vector with shareable sortstats.">
<polygon fill="white" stroke="#666666" points="469,-90.5 410,-90.5 410,-71.5 469,-71.5 469,-90.5"/>
<text text-anchor="middle" x="439.5" y="-78.5" font-family="Helvetica,sans-Serif" font-size="10.00">TVector.c</text>
</a>
</g>
</g>
<!-- Node1&#45;&gt;Node4 -->
<g id="edge3_Node000001_Node000004" class="edge"><title>Node1&#45;&gt;Node4</title>
<g id="a_edge3_Node000001_Node000004"><a xlink:title=" ">
<path fill="none" stroke="#63b8ff" d="M291.8,-129.492C321.966,-120.867 364.566,-108.305 401.5,-96 406.569,-94.311 411.978,-92.391 417.077,-90.5259"/>
<polygon fill="#63b8ff" stroke="#63b8ff" points="290.733,-126.157 282.073,-132.26 292.649,-132.889 290.733,-126.157"/>
</a>
</g>
</g>
<!-- Node5 -->
<g id="Node000005" class="node"><title>Node5</title>
<g id="a_Node000005"><a xlink:href="advanced__sorts_8h.html" target="_top" xlink:title="Deklarace API účinnějších metod třídění">
<polygon fill="white" stroke="#666666" points="298.5,-90.5 206.5,-90.5 206.5,-71.5 298.5,-71.5 298.5,-90.5"/>
<text text-anchor="middle" x="252.5" y="-78.5" font-family="Helvetica,sans-Serif" font-size="10.00">advanced_sorts.h</text>
</a>
</g>
</g>
<!-- Node1&#45;&gt;Node5 -->
<g id="edge4_Node000001_Node000005" class="edge"><title>Node1&#45;&gt;Node5</title>
<g id="a_edge4_Node000001_Node000005"><a xlink:title=" ">
<path fill="none" stroke="#63b8ff" d="M252.5,-121.66C252.5,-111.244 252.5,-98.8023 252.5,-90.6673"/>
<polygon fill="#63b8ff" stroke="#63b8ff" points="249,-121.868 252.5,-131.868 256,-121.868 249,-121.868"/>
</a>
</g>
</g>
<!-- Node8 -->
<g id="Node000008" class="node"><title>Node8</title>
<g id="a_Node000008"><a xlink:href="advanced__sorts__with__span_8h.html" target="_top" xlink:title="Deklarace API účinnějších metod třídění využívající typ Span.">
<polygon fill="white" stroke="#666666" points="188,-96 81,-96 81,-66 188,-66 188,-96"/>
<text text-anchor="start" x="89" y="-84" font-family="Helvetica,sans-Serif" font-size="10.00">advanced_sorts_with</text>
<text text-anchor="middle" x="134.5" y="-73" font-family="Helvetica,sans-Serif" font-size="10.00">_span.h</text>
</a>
</g>
</g>
<!-- Node1&#45;&gt;Node8 -->
<g id="edge7_Node000001_Node000008" class="edge"><title>Node1&#45;&gt;Node8</title>
<g id="a_edge7_Node000001_Node000008"><a xlink:title=" ">
<path fill="none" stroke="#63b8ff" d="M226.2,-127.461C207.473,-118.177 182.322,-105.709 163.097,-96.1775"/>
<polygon fill="#63b8ff" stroke="#63b8ff" points="224.828,-130.688 235.342,-131.994 227.937,-124.416 224.828,-130.688"/>
</a>
</g>
</g>
<!-- Node9 -->
<g id="Node000009" class="node"><title>Node9</title>
<g id="a_Node000009"><a xlink:href="basic__sorts_8h.html" target="_top" xlink:title="Deklarace API přímých metod třídění">
<polygon fill="white" stroke="#666666" points="392,-90.5 317,-90.5 317,-71.5 392,-71.5 392,-90.5"/>
<text text-anchor="middle" x="354.5" y="-78.5" font-family="Helvetica,sans-Serif" font-size="10.00">basic_sorts.h</text>
</a>
</g>
</g>
<!-- Node1&#45;&gt;Node9 -->
<g id="edge10_Node000001_Node000009" class="edge"><title>Node1&#45;&gt;Node9</title>
<g id="a_edge10_Node000001_Node000009"><a xlink:title=" ">
<path fill="none" stroke="#63b8ff" d="M276.436,-126.772C295.908,-115.604 322.789,-100.187 339.388,-90.6673"/>
<polygon fill="#63b8ff" stroke="#63b8ff" points="274.484,-123.857 267.55,-131.868 277.966,-129.929 274.484,-123.857"/>
</a>
</g>
</g>
<!-- Node3 -->
<g id="Node000003" class="node"><title>Node3</title>
<g id="a_Node000003"><a xlink:href="advanced__sorts__with__span_8c.html" target="_top" xlink:title="Implementace API účinnějších metod třídění využívající typ Span.">
<polygon fill="white" stroke="#666666" points="107,-30 0,-30 0,-0 107,-0 107,-30"/>
<text text-anchor="start" x="8" y="-18" font-family="Helvetica,sans-Serif" font-size="10.00">advanced_sorts_with</text>
<text text-anchor="middle" x="53.5" y="-7" font-family="Helvetica,sans-Serif" font-size="10.00">_span.c</text>
</a>
</g>
</g>
<!-- Node2&#45;&gt;Node3 -->
<g id="edge2_Node000002_Node000003" class="edge"><title>Node2&#45;&gt;Node3</title>
<g id="a_edge2_Node000002_Node000003"><a xlink:title=" ">
<path fill="none" stroke="#63b8ff" d="M41.3696,-61.6675C44.0109,-51.7236 47.2282,-39.6116 49.6855,-30.3604"/>
<polygon fill="#63b8ff" stroke="#63b8ff" points="37.9773,-60.8053 38.7927,-71.3687 44.7427,-62.6024 37.9773,-60.8053"/>
</a>
</g>
</g>
<!-- Node6 -->
<g id="Node000006" class="node"><title>Node6</title>
<g id="a_Node000006"><a xlink:href="advanced__sorts_8c.html" target="_top" xlink:title="Implementace API účinnějších metod třídění">
<polygon fill="white" stroke="#666666" points="298.5,-24.5 206.5,-24.5 206.5,-5.5 298.5,-5.5 298.5,-24.5"/>
<text text-anchor="middle" x="252.5" y="-12.5" font-family="Helvetica,sans-Serif" font-size="10.00">advanced_sorts.c</text>
</a>
</g>
</g>
<!-- Node5&#45;&gt;Node6 -->
<g id="edge5_Node000005_Node000006" class="edge"><title>Node5&#45;&gt;Node6</title>
<g id="a_edge5_Node000005_Node000006"><a xlink:title=" ">
<path fill="none" stroke="#63b8ff" d="M252.5,-61.0839C252.5,-49.1251 252.5,-34.2211 252.5,-24.9052"/>
<polygon fill="#63b8ff" stroke="#63b8ff" points="249,-61.3686 252.5,-71.3687 256,-61.3687 249,-61.3686"/>
</a>
</g>
</g>
<!-- Node7 -->
<g id="Node000007" class="node"><title>Node7</title>
<g id="a_Node000007"><a xlink:href="main_8c.html" target="_top" xlink:title="Hlavní program testující API účinnějších metod třídění">
<polygon fill="white" stroke="#666666" points="188.5,-24.5 142.5,-24.5 142.5,-5.5 188.5,-5.5 188.5,-24.5"/>
<text text-anchor="middle" x="165.5" y="-12.5" font-family="Helvetica,sans-Serif" font-size="10.00">main.c</text>
</a>
</g>
</g>
<!-- Node5&#45;&gt;Node7 -->
<g id="edge6_Node000005_Node000007" class="edge"><title>Node5&#45;&gt;Node7</title>
<g id="a_edge6_Node000005_Node000007"><a xlink:title=" ">
<path fill="none" stroke="#63b8ff" d="M232.564,-65.3342C215.5,-52.7815 191.508,-35.132 177.325,-24.699"/>
<polygon fill="#63b8ff" stroke="#63b8ff" points="230.638,-68.2623 240.767,-71.3687 234.786,-62.6236 230.638,-68.2623"/>
</a>
</g>
</g>
<!-- Node8&#45;&gt;Node3 -->
<g id="edge8_Node000008_Node000003" class="edge"><title>Node8&#45;&gt;Node3</title>
<g id="a_edge8_Node000008_Node000003"><a xlink:title=" ">
<path fill="none" stroke="#63b8ff" d="M108.526,-59.4777C96.4223,-49.9139 82.3227,-38.7735 71.4263,-30.164"/>
<polygon fill="#63b8ff" stroke="#63b8ff" points="106.507,-62.3429 116.523,-65.7963 110.847,-56.8505 106.507,-62.3429"/>
</a>
</g>
</g>
<!-- Node8&#45;&gt;Node7 -->
<g id="edge9_Node000008_Node000007" class="edge"><title>Node8&#45;&gt;Node7</title>
<g id="a_edge9_Node000008_Node000007"><a xlink:title=" ">
<path fill="none" stroke="#63b8ff" d="M145.829,-56.6118C151.182,-45.5601 157.252,-33.0276 161.216,-24.8443"/>
<polygon fill="#63b8ff" stroke="#63b8ff" points="142.589,-55.2707 141.38,-65.7963 148.889,-58.3223 142.589,-55.2707"/>
</a>
</g>
</g>
<!-- Node9&#45;&gt;Node7 -->
<g id="edge12_Node000009_Node000007" class="edge"><title>Node9&#45;&gt;Node7</title>
<g id="a_edge12_Node000009_Node000007"><a xlink:title=" ">
<path fill="none" stroke="#63b8ff" d="M316.318,-68.3411C277.283,-56.3316 219.37,-38.2408 197.5,-30 193.187,-28.3749 188.615,-26.4809 184.317,-24.6207"/>
<polygon fill="#63b8ff" stroke="#63b8ff" points="315.705,-71.8139 326.292,-71.4036 317.76,-65.1223 315.705,-71.8139"/>
</a>
</g>
</g>
<!-- Node10 -->
<g id="Node000010" class="node"><title>Node10</title>
<g id="a_Node000010"><a xlink:href="basic__sorts_8c.html" target="_top" xlink:title="Implementace API přímých metod třídění">
<polygon fill="white" stroke="#666666" points="392,-24.5 317,-24.5 317,-5.5 392,-5.5 392,-24.5"/>
<text text-anchor="middle" x="354.5" y="-12.5" font-family="Helvetica,sans-Serif" font-size="10.00">basic_sorts.c</text>
</a>
</g>
</g>
<!-- Node9&#45;&gt;Node10 -->
<g id="edge11_Node000009_Node000010" class="edge"><title>Node9&#45;&gt;Node10</title>
<g id="a_edge11_Node000009_Node000010"><a xlink:title=" ">
<path fill="none" stroke="#63b8ff" d="M354.5,-61.0839C354.5,-49.1251 354.5,-34.2211 354.5,-24.9052"/>
<polygon fill="#63b8ff" stroke="#63b8ff" points="351,-61.3686 354.5,-71.3687 358,-61.3687 351,-61.3686"/>
</a>
</g>
</g>
</g>
</svg>
