<?xml version="1.0" encoding="UTF-8" standalone="no"?>
<!DOCTYPE svg PUBLIC "-//W3C//DTD SVG 1.1//EN"
 "http://www.w3.org/Graphics/SVG/1.1/DTD/svg11.dtd">
<!-- Generated by graphviz version 2.38.0 (20140413.2041)
 -->
<!-- Title: vector_fast_value Pages: 1 -->
<svg width="740pt" height="282pt"
 viewBox="0.00 0.00 740.00 281.50" xmlns="http://www.w3.org/2000/svg" xmlns:xlink="http://www.w3.org/1999/xlink">
<g id="graph0" class="graph" transform="scale(1 1) rotate(0) translate(4 277.5)">
<title>vector_fast_value</title>
<!-- Node1 -->
<g id="Node000001" class="node"><title>Node1</title>
<g id="a_Node000001"><a xlink:title=" ">
<polygon fill="#999999" stroke="#666666" points="732,-161.5 642,-161.5 642,-142.5 732,-142.5 732,-161.5"/>
<text text-anchor="middle" x="687" y="-149.5" font-family="Helvetica,sans-Serif" font-size="10.00">vector_fast_value</text>
</a>
</g>
</g>
<!-- Node2 -->
<g id="Node000002" class="node"><title>Node2</title>
<g id="a_Node000002"><a xlink:href="group___t_vector_iterator.html#ga4d8032eb9dbbdccf794611f2b0c9821c" target="_top" xlink:title="Přečtení hodnoty elementu z vektoru pomocí iterátoru.">
<polygon fill="white" stroke="#666666" points="606,-217.5 502,-217.5 502,-198.5 606,-198.5 606,-217.5"/>
<text text-anchor="middle" x="554" y="-205.5" font-family="Helvetica,sans-Serif" font-size="10.00">vector_iterator_value</text>
</a>
</g>
</g>
<!-- Node1&#45;&gt;Node2 -->
<g id="edge1_Node000001_Node000002" class="edge"><title>Node1&#45;&gt;Node2</title>
<g id="a_edge1_Node000001_Node000002"><a xlink:title=" ">
<path fill="none" stroke="#63b8ff" d="M654.147,-165.617C630.322,-175.801 598.343,-189.472 577.226,-198.499"/>
<polygon fill="#63b8ff" stroke="#63b8ff" points="655.661,-168.776 663.48,-161.627 652.909,-162.339 655.661,-168.776"/>
</a>
</g>
</g>
<!-- Node8 -->
<g id="Node000008" class="node"><title>Node8</title>
<g id="a_Node000008"><a xlink:href="group___t_vector.html#ga2b08236d9825632cd96bcc89faed929c" target="_top" xlink:title="Přečtení hodnoty elementu z vektoru na požadované pozici.">
<polygon fill="white" stroke="#666666" points="588.5,-105.5 519.5,-105.5 519.5,-86.5 588.5,-86.5 588.5,-105.5"/>
<text text-anchor="middle" x="554" y="-93.5" font-family="Helvetica,sans-Serif" font-size="10.00">vector_value</text>
</a>
</g>
</g>
<!-- Node1&#45;&gt;Node8 -->
<g id="edge7_Node000001_Node000008" class="edge"><title>Node1&#45;&gt;Node8</title>
<g id="a_edge7_Node000001_Node000008"><a xlink:title=" ">
<path fill="none" stroke="#63b8ff" d="M654.147,-138.383C630.322,-128.199 598.343,-114.528 577.226,-105.501"/>
<polygon fill="#63b8ff" stroke="#63b8ff" points="652.909,-141.661 663.48,-142.373 655.661,-135.224 652.909,-141.661"/>
</a>
</g>
</g>
<!-- Node3 -->
<g id="Node000003" class="node"><title>Node3</title>
<g id="a_Node000003"><a xlink:href="group___basic_sorts.html#ga25c7ac8991c266d71b75cf20c14b67cf" target="_top" xlink:title="Vytisknutí elementu vektoru pomocí iterátoru.">
<polygon fill="white" stroke="#666666" points="453.5,-273.5 378.5,-273.5 378.5,-254.5 453.5,-254.5 453.5,-273.5"/>
<text text-anchor="middle" x="416" y="-261.5" font-family="Helvetica,sans-Serif" font-size="10.00">print_element</text>
</a>
</g>
</g>
<!-- Node2&#45;&gt;Node3 -->
<g id="edge2_Node000002_Node000003" class="edge"><title>Node2&#45;&gt;Node3</title>
<g id="a_edge2_Node000002_Node000003"><a xlink:title=" ">
<path fill="none" stroke="#63b8ff" d="M522.811,-221.715C506.158,-229.147 485.05,-238.349 466,-246 458.852,-248.871 451.048,-251.82 443.813,-254.479"/>
<polygon fill="#63b8ff" stroke="#63b8ff" points="524.361,-224.856 532.053,-217.569 521.496,-218.469 524.361,-224.856"/>
</a>
</g>
</g>
<!-- Node6 -->
<g id="Node000006" class="node"><title>Node6</title>
<g id="a_Node000006"><a xlink:href="advanced__sorts__with__span_8c.html#a9efda83f1182fe5f74ed8ce11b2ddfca" target="_top" xlink:title="Formátovaný tisk hodnoty elementu za předpokladu platné hodnoty.">
<polygon fill="white" stroke="#666666" points="458.5,-236.5 373.5,-236.5 373.5,-217.5 458.5,-217.5 458.5,-236.5"/>
<text text-anchor="middle" x="416" y="-224.5" font-family="Helvetica,sans-Serif" font-size="10.00">print_element_if</text>
</a>
</g>
</g>
<!-- Node2&#45;&gt;Node6 -->
<g id="edge5_Node000002_Node000006" class="edge"><title>Node2&#45;&gt;Node6</title>
<g id="a_edge5_Node000002_Node000006"><a xlink:title=" ">
<path fill="none" stroke="#63b8ff" d="M491.761,-216.555C480.528,-218.125 469.047,-219.729 458.559,-221.194"/>
<polygon fill="#63b8ff" stroke="#63b8ff" points="492.552,-219.979 501.972,-215.129 491.584,-213.046 492.552,-219.979"/>
</a>
</g>
</g>
<!-- Node7 -->
<g id="Node000007" class="node"><title>Node7</title>
<g id="a_Node000007"><a xlink:href="group___t_span.html#ga8796ef08880befbf07bda987120a58cb" target="_top" xlink:title="Přečtení hodnoty elementu z Spanu pomocí iterátoru.">
<polygon fill="white" stroke="#666666" points="466,-199.5 366,-199.5 366,-180.5 466,-180.5 466,-199.5"/>
<text text-anchor="middle" x="416" y="-187.5" font-family="Helvetica,sans-Serif" font-size="10.00">span_iterator_value</text>
</a>
</g>
</g>
<!-- Node2&#45;&gt;Node7 -->
<g id="edge6_Node000002_Node000007" class="edge"><title>Node2&#45;&gt;Node7</title>
<g id="a_edge6_Node000002_Node000007"><a xlink:title=" ">
<path fill="none" stroke="#63b8ff" d="M491.913,-199.915C483.257,-198.769 474.45,-197.604 466.06,-196.493"/>
<polygon fill="#63b8ff" stroke="#63b8ff" points="491.599,-203.404 501.972,-201.246 492.517,-196.464 491.599,-203.404"/>
</a>
</g>
</g>
<!-- Node4 -->
<g id="Node000004" class="node"><title>Node4</title>
<g id="a_Node000004"><a xlink:href="group___main_program.html#ga7343209645c93203da0a86613abfed04" target="_top" xlink:title="Testování třídicí metody.">
<polygon fill="white" stroke="#666666" points="163,-199.5 95,-199.5 95,-180.5 163,-180.5 163,-199.5"/>
<text text-anchor="middle" x="129" y="-187.5" font-family="Helvetica,sans-Serif" font-size="10.00">sort_testing</text>
</a>
</g>
</g>
<!-- Node3&#45;&gt;Node4 -->
<g id="edge3_Node000003_Node000004" class="edge"><title>Node3&#45;&gt;Node4</title>
<g id="a_edge3_Node000003_Node000004"><a xlink:title=" ">
<path fill="none" stroke="#63b8ff" d="M368.361,-251.89C310.586,-236.889 213.612,-211.71 163.002,-198.569"/>
<polygon fill="#63b8ff" stroke="#63b8ff" points="367.766,-255.352 378.325,-254.477 369.525,-248.576 367.766,-255.352"/>
</a>
</g>
</g>
<!-- Node5 -->
<g id="Node000005" class="node"><title>Node5</title>
<g id="a_Node000005"><a xlink:href="group___main_program.html#ga0ddf1224851353fc92bfbff6f499fa97" target="_top" xlink:title=" ">
<polygon fill="white" stroke="#666666" points="38,-123.5 0,-123.5 0,-104.5 38,-104.5 38,-123.5"/>
<text text-anchor="middle" x="19" y="-111.5" font-family="Helvetica,sans-Serif" font-size="10.00">main</text>
</a>
</g>
</g>
<!-- Node4&#45;&gt;Node5 -->
<g id="edge4_Node000004_Node000005" class="edge"><title>Node4&#45;&gt;Node5</title>
<g id="a_edge4_Node000004_Node000005"><a xlink:title=" ">
<path fill="none" stroke="#63b8ff" d="M92.3469,-176.281C86.0262,-173.26 79.6613,-169.81 74,-166 55.8602,-153.792 38.2731,-135.212 28.3253,-123.882"/>
<polygon fill="#63b8ff" stroke="#63b8ff" points="90.9328,-179.483 101.489,-180.39 93.8029,-173.098 90.9328,-179.483"/>
</a>
</g>
</g>
<!-- Node9 -->
<g id="Node000009" class="node"><title>Node9</title>
<g id="a_Node000009"><a xlink:href="group___basic_sorts.html#gac3903c3fd846908cd362e293ed40582e" target="_top" xlink:title="Třídění přímým vkládáním (Insert Sort)">
<polygon fill="white" stroke="#666666" points="306,-161.5 244,-161.5 244,-142.5 306,-142.5 306,-161.5"/>
<text text-anchor="middle" x="275" y="-149.5" font-family="Helvetica,sans-Serif" font-size="10.00">insert_sort</text>
</a>
</g>
</g>
<!-- Node8&#45;&gt;Node9 -->
<g id="edge8_Node000008_Node000009" class="edge"><title>Node8&#45;&gt;Node9</title>
<g id="a_edge8_Node000008_Node000009"><a xlink:title=" ">
<path fill="none" stroke="#63b8ff" d="M524.996,-110.006C508.279,-117.748 486.396,-126.822 466,-132 410.704,-146.037 343.943,-150.24 306.085,-151.487"/>
<polygon fill="#63b8ff" stroke="#63b8ff" points="526.659,-113.091 534.192,-105.641 523.657,-106.768 526.659,-113.091"/>
</a>
</g>
</g>
<!-- Node10 -->
<g id="Node000010" class="node"><title>Node10</title>
<g id="a_Node000010"><a xlink:href="advanced__sorts_8c.html#a0ae77c9640aa821e5507079ec5d2eb1d" target="_top" xlink:title="Vnitřní a lokální funkce realizující rekurzivní funkci pro metodu (Quick Sort)">
<polygon fill="white" stroke="#666666" points="463.5,-105.5 368.5,-105.5 368.5,-86.5 463.5,-86.5 463.5,-105.5"/>
<text text-anchor="middle" x="416" y="-93.5" font-family="Helvetica,sans-Serif" font-size="10.00">quick_sort_worker</text>
</a>
</g>
</g>
<!-- Node8&#45;&gt;Node10 -->
<g id="edge10_Node000008_Node000010" class="edge"><title>Node8&#45;&gt;Node10</title>
<g id="a_edge10_Node000008_Node000010"><a xlink:title=" ">
<path fill="none" stroke="#63b8ff" d="M509.128,-96C494.572,-96 478.321,-96 463.569,-96"/>
<polygon fill="#63b8ff" stroke="#63b8ff" points="509.382,-99.5001 519.382,-96 509.382,-92.5001 509.382,-99.5001"/>
</a>
</g>
</g>
<!-- Node12 -->
<g id="Node000012" class="node"><title>Node12</title>
<g id="a_Node000012"><a xlink:href="group___advanced_sorts.html#gaee070b00692f425d83eaea28b37bab2b" target="_top" xlink:title="Shellovo třídění vkládáním s ubývajícím krokem (Shell Sort) dle Hibbardovy posloupnosti.">
<polygon fill="white" stroke="#666666" points="304.5,-85.5 245.5,-85.5 245.5,-66.5 304.5,-66.5 304.5,-85.5"/>
<text text-anchor="middle" x="275" y="-73.5" font-family="Helvetica,sans-Serif" font-size="10.00">shell_sort</text>
</a>
</g>
</g>
<!-- Node8&#45;&gt;Node12 -->
<g id="edge14_Node000008_Node000012" class="edge"><title>Node8&#45;&gt;Node12</title>
<g id="a_edge14_Node000008_Node000012"><a xlink:title=" ">
<path fill="none" stroke="#63b8ff" d="M509.637,-84.6571C495.794,-81.5417 480.344,-78.5862 466,-77 409.115,-70.7093 342.064,-72.4861 304.756,-74.2847"/>
<polygon fill="#63b8ff" stroke="#63b8ff" points="508.86,-88.0698 519.394,-86.9366 510.452,-81.2533 508.86,-88.0698"/>
</a>
</g>
</g>
<!-- Node13 -->
<g id="Node000013" class="node"><title>Node13</title>
<g id="a_Node000013"><a xlink:href="group___t_span.html#ga4c772b349af71b9066651285a90ee21e" target="_top" xlink:title="Přečtení hodnoty elementu Spanu na požadované pozici.">
<polygon fill="white" stroke="#666666" points="448.5,-27.5 383.5,-27.5 383.5,-8.5 448.5,-8.5 448.5,-27.5"/>
<text text-anchor="middle" x="416" y="-15.5" font-family="Helvetica,sans-Serif" font-size="10.00">span_value</text>
</a>
</g>
</g>
<!-- Node8&#45;&gt;Node13 -->
<g id="edge16_Node000008_Node000013" class="edge"><title>Node8&#45;&gt;Node13</title>
<g id="a_edge16_Node000008_Node000013"><a xlink:title=" ">
<path fill="none" stroke="#63b8ff" d="M528.527,-80.9192C511.2,-70.3536 487.341,-56.0293 466,-44 456.101,-38.4199 444.916,-32.4599 435.735,-27.6558"/>
<polygon fill="#63b8ff" stroke="#63b8ff" points="527.067,-84.1292 537.424,-86.3639 530.721,-78.1586 527.067,-84.1292"/>
</a>
</g>
</g>
<!-- Node9&#45;&gt;Node5 -->
<g id="edge9_Node000009_Node000005" class="edge"><title>Node9&#45;&gt;Node5</title>
<g id="a_edge9_Node000009_Node000005"><a xlink:title=" ">
<path fill="none" stroke="#63b8ff" d="M233.803,-150.601C193.127,-148.575 128.62,-143.682 74,-132 61.8239,-129.396 48.5523,-124.995 38.2131,-121.196"/>
<polygon fill="#63b8ff" stroke="#63b8ff" points="233.71,-154.1 243.861,-151.067 234.034,-147.108 233.71,-154.1"/>
</a>
</g>
</g>
<!-- Node10&#45;&gt;Node10 -->
<g id="edge13_Node000010_Node000010" class="edge"><title>Node10&#45;&gt;Node10</title>
<g id="a_edge13_Node000010_Node000010"><a xlink:title=" ">
<path fill="none" stroke="#63b8ff" d="M441.67,-114.689C440.269,-119.697 431.713,-123.5 416,-123.5 391.473,-123.5 384.383,-114.234 394.73,-105.583"/>
<polygon fill="#63b8ff" stroke="#63b8ff" points="444.772,-113.064 437.27,-105.583 438.469,-116.11 444.772,-113.064"/>
</a>
</g>
</g>
<!-- Node11 -->
<g id="Node000011" class="node"><title>Node11</title>
<g id="a_Node000011"><a xlink:href="group___advanced_sorts.html#gaa369b74c9050d30aa2416f9dba8cc8f5" target="_top" xlink:title="Rychlé třídění výměnou (Quick Sort) s volbou prostředního prvku jako pivota.">
<polygon fill="white" stroke="#666666" points="160,-123.5 98,-123.5 98,-104.5 160,-104.5 160,-123.5"/>
<text text-anchor="middle" x="129" y="-111.5" font-family="Helvetica,sans-Serif" font-size="10.00">quick_sort</text>
</a>
</g>
</g>
<!-- Node10&#45;&gt;Node11 -->
<g id="edge11_Node000010_Node000011" class="edge"><title>Node10&#45;&gt;Node11</title>
<g id="a_edge11_Node000010_Node000011"><a xlink:title=" ">
<path fill="none" stroke="#63b8ff" d="M358.244,-99.5846C298.617,-103.351 207.105,-109.13 160.122,-112.098"/>
<polygon fill="#63b8ff" stroke="#63b8ff" points="358.498,-103.076 368.257,-98.9522 358.056,-96.0896 358.498,-103.076"/>
</a>
</g>
</g>
<!-- Node11&#45;&gt;Node5 -->
<g id="edge12_Node000011_Node000005" class="edge"><title>Node11&#45;&gt;Node5</title>
<g id="a_edge12_Node000011_Node000005"><a xlink:title=" ">
<path fill="none" stroke="#63b8ff" d="M87.6209,-114C70.5781,-114 51.5986,-114 38.0958,-114"/>
<polygon fill="#63b8ff" stroke="#63b8ff" points="87.916,-117.5 97.916,-114 87.9159,-110.5 87.916,-117.5"/>
</a>
</g>
</g>
<!-- Node12&#45;&gt;Node5 -->
<g id="edge15_Node000012_Node000005" class="edge"><title>Node12&#45;&gt;Node5</title>
<g id="a_edge15_Node000012_Node000005"><a xlink:title=" ">
<path fill="none" stroke="#63b8ff" d="M235.157,-76.8968C194.54,-78.4821 129.152,-82.8683 74,-95 61.77,-97.6902 48.4975,-102.335 38.1714,-106.359"/>
<polygon fill="#63b8ff" stroke="#63b8ff" points="235.307,-80.3937 245.178,-76.5431 235.06,-73.3981 235.307,-80.3937"/>
</a>
</g>
</g>
<!-- Node14 -->
<g id="Node000014" class="node"><title>Node14</title>
<g id="a_Node000014"><a xlink:href="advanced__sorts__with__span_8c.html#a1526ecf4371ecb71f2bc68954f16681f" target="_top" xlink:title="Vnitřní a lokální funkce realizující rekurzivní funkci pro metodu (Quick Sort)">
<polygon fill="white" stroke="#666666" points="330,-30 220,-30 220,-0 330,-0 330,-30"/>
<text text-anchor="start" x="228" y="-18" font-family="Helvetica,sans-Serif" font-size="10.00">quick_sort_with_span</text>
<text text-anchor="middle" x="275" y="-7" font-family="Helvetica,sans-Serif" font-size="10.00">_worker</text>
</a>
</g>
</g>
<!-- Node13&#45;&gt;Node14 -->
<g id="edge17_Node000013_Node000014" class="edge"><title>Node13&#45;&gt;Node14</title>
<g id="a_edge17_Node000013_Node000014"><a xlink:title=" ">
<path fill="none" stroke="#63b8ff" d="M373.421,-17.1026C359.799,-16.8086 344.462,-16.4776 330.057,-16.1667"/>
<polygon fill="#63b8ff" stroke="#63b8ff" points="373.386,-20.6026 383.459,-17.3193 373.537,-13.6042 373.386,-20.6026"/>
</a>
</g>
</g>
<!-- Node14&#45;&gt;Node14 -->
<g id="edge20_Node000014_Node000014" class="edge"><title>Node14&#45;&gt;Node14</title>
<g id="a_edge20_Node000014_Node000014"><a xlink:title=" ">
<path fill="none" stroke="#63b8ff" d="M299.505,-40.5975C296.157,-44.9704 287.988,-48 275,-48 253.125,-48 244.922,-39.4063 250.391,-30.2754"/>
<polygon fill="#63b8ff" stroke="#63b8ff" points="303.008,-40.3102 299.609,-30.2754 296.009,-40.2395 303.008,-40.3102"/>
</a>
</g>
</g>
<!-- Node15 -->
<g id="Node000015" class="node"><title>Node15</title>
<g id="a_Node000015"><a xlink:href="group___advanced_sorts_with_span.html#ga451c79ea7ae3de87d73ed333460ea2d5" target="_top" xlink:title="Rychlé třídění výměnou (Quick Sort with span) s volbou prostředního prvku jako pivota a využívající t...">
<polygon fill="white" stroke="#666666" points="184,-36.5 74,-36.5 74,-17.5 184,-17.5 184,-36.5"/>
<text text-anchor="middle" x="129" y="-24.5" font-family="Helvetica,sans-Serif" font-size="10.00">quick_sort_with_span</text>
</a>
</g>
</g>
<!-- Node14&#45;&gt;Node15 -->
<g id="edge18_Node000014_Node000015" class="edge"><title>Node14&#45;&gt;Node15</title>
<g id="a_edge18_Node000014_Node000015"><a xlink:title=" ">
<path fill="none" stroke="#63b8ff" d="M209.73,-20.3558C201.25,-21.0625 192.625,-21.7813 184.333,-22.4723"/>
<polygon fill="#63b8ff" stroke="#63b8ff" points="210.295,-23.821 219.97,-19.5025 209.714,-16.8451 210.295,-23.821"/>
</a>
</g>
</g>
<!-- Node15&#45;&gt;Node5 -->
<g id="edge19_Node000015_Node000005" class="edge"><title>Node15&#45;&gt;Node5</title>
<g id="a_edge19_Node000015_Node000005"><a xlink:title=" ">
<path fill="none" stroke="#63b8ff" d="M102.577,-42.0686C93.3121,-47.9213 82.9263,-54.9164 74,-62 57.0763,-75.43 39.3951,-93.3074 29.0547,-104.218"/>
<polygon fill="#63b8ff" stroke="#63b8ff" points="104.705,-44.8685 111.373,-36.6357 101.026,-38.9129 104.705,-44.8685"/>
</a>
</g>
</g>
</g>
</svg>
