<?xml version="1.0" encoding="UTF-8" standalone="no"?>
<!DOCTYPE svg PUBLIC "-//W3C//DTD SVG 1.1//EN"
 "http://www.w3.org/Graphics/SVG/1.1/DTD/svg11.dtd">
<!-- Generated by graphviz version 2.38.0 (20140413.2041)
 -->
<!-- Title: vector_fast_swap_position_value Pages: 1 -->
<svg width="461pt" height="86pt"
 viewBox="0.00 0.00 461.00 86.00" xmlns="http://www.w3.org/2000/svg" xmlns:xlink="http://www.w3.org/1999/xlink">
<g id="graph0" class="graph" transform="scale(1 1) rotate(0) translate(4 82)">
<title>vector_fast_swap_position_value</title>
<!-- Node1 -->
<g id="Node000001" class="node"><title>Node1</title>
<g id="a_Node000001"><a xlink:title=" ">
<polygon fill="#999999" stroke="#666666" points="453,-54 323,-54 323,-24 453,-24 453,-54"/>
<text text-anchor="start" x="331" y="-42" font-family="Helvetica,sans-Serif" font-size="10.00">vector_fast_swap_position</text>
<text text-anchor="middle" x="388" y="-31" font-family="Helvetica,sans-Serif" font-size="10.00">_value</text>
</a>
</g>
</g>
<!-- Node2 -->
<g id="Node000002" class="node"><title>Node2</title>
<g id="a_Node000002"><a xlink:href="group__sortable___t_vector.html#gabdff161479b4c497204dc32fd2202e6f" target="_top" xlink:title="Výměna mezi hodnotou elementu vektoru a proměnnou typu VectorElement.">
<polygon fill="white" stroke="#666666" points="277.5,-78 168.5,-78 168.5,-48 277.5,-48 277.5,-78"/>
<text text-anchor="start" x="176.5" y="-66" font-family="Helvetica,sans-Serif" font-size="10.00">vector_swap_position</text>
<text text-anchor="middle" x="223" y="-55" font-family="Helvetica,sans-Serif" font-size="10.00">_value</text>
</a>
</g>
</g>
<!-- Node1&#45;&gt;Node2 -->
<g id="edge1_Node000001_Node000002" class="edge"><title>Node1&#45;&gt;Node2</title>
<g id="a_edge1_Node000001_Node000002"><a xlink:title=" ">
<path fill="none" stroke="#63b8ff" d="M312.38,-49.987C300.691,-51.7081 288.812,-53.4571 277.715,-55.0911"/>
<polygon fill="#63b8ff" stroke="#63b8ff" points="313.195,-53.4049 322.578,-48.4854 312.175,-46.4795 313.195,-53.4049"/>
</a>
</g>
</g>
<!-- Node4 -->
<g id="Node000004" class="node"><title>Node4</title>
<g id="a_Node000004"><a xlink:href="group__sortable___t_vector_iterator.html#ga015969daf209d461aaf0ba4391df4b5b" target="_top" xlink:title="Výměna mezi hodnotou elementu vektoru určenou iterátorem a proměnnou typu VectorElement.">
<polygon fill="white" stroke="#666666" points="287,-30 159,-30 159,-0 287,-0 287,-30"/>
<text text-anchor="start" x="167" y="-18" font-family="Helvetica,sans-Serif" font-size="10.00">vector_swap_with_iterator</text>
<text text-anchor="middle" x="223" y="-7" font-family="Helvetica,sans-Serif" font-size="10.00">_value</text>
</a>
</g>
</g>
<!-- Node1&#45;&gt;Node4 -->
<g id="edge3_Node000001_Node000004" class="edge"><title>Node1&#45;&gt;Node4</title>
<g id="a_edge3_Node000001_Node000004"><a xlink:title=" ">
<path fill="none" stroke="#63b8ff" d="M312.649,-28.0526C304.131,-26.7984 295.507,-25.5287 287.155,-24.2989"/>
<polygon fill="#63b8ff" stroke="#63b8ff" points="312.175,-31.5205 322.578,-29.5146 313.195,-24.5951 312.175,-31.5205"/>
</a>
</g>
</g>
<!-- Node3 -->
<g id="Node000003" class="node"><title>Node3</title>
<g id="a_Node000003"><a xlink:href="group___t_span.html#ga2df4c39d49410db156d79f5d12c84f7e" target="_top" xlink:title="Výměna mezi hodnotou elementu Spanu a proměnnou typu VectorElement.">
<polygon fill="white" stroke="#666666" points="113.5,-78 9.5,-78 9.5,-48 113.5,-48 113.5,-78"/>
<text text-anchor="start" x="17.5" y="-66" font-family="Helvetica,sans-Serif" font-size="10.00">span_swap_position</text>
<text text-anchor="middle" x="61.5" y="-55" font-family="Helvetica,sans-Serif" font-size="10.00">_value</text>
</a>
</g>
</g>
<!-- Node2&#45;&gt;Node3 -->
<g id="edge2_Node000002_Node000003" class="edge"><title>Node2&#45;&gt;Node3</title>
<g id="a_edge2_Node000002_Node000003"><a xlink:title=" ">
<path fill="none" stroke="#63b8ff" d="M158.342,-63C143.531,-63 127.949,-63 113.753,-63"/>
<polygon fill="#63b8ff" stroke="#63b8ff" points="158.445,-66.5001 168.445,-63 158.445,-59.5001 158.445,-66.5001"/>
</a>
</g>
</g>
<!-- Node5 -->
<g id="Node000005" class="node"><title>Node5</title>
<g id="a_Node000005"><a xlink:href="group___t_span.html#ga87439f0c5045aa7f177a37558b60d397" target="_top" xlink:title="Výměna mezi hodnotou elementu Spanu určenou iterátorem a proměnnou typu SpanElement.">
<polygon fill="white" stroke="#666666" points="123,-30 0,-30 0,-0 123,-0 123,-30"/>
<text text-anchor="start" x="8" y="-18" font-family="Helvetica,sans-Serif" font-size="10.00">span_swap_with_iterator</text>
<text text-anchor="middle" x="61.5" y="-7" font-family="Helvetica,sans-Serif" font-size="10.00">_value</text>
</a>
</g>
</g>
<!-- Node4&#45;&gt;Node5 -->
<g id="edge4_Node000004_Node000005" class="edge"><title>Node4&#45;&gt;Node5</title>
<g id="a_edge4_Node000004_Node000005"><a xlink:title=" ">
<path fill="none" stroke="#63b8ff" d="M148.947,-15C140.354,-15 131.657,-15 123.259,-15"/>
<polygon fill="#63b8ff" stroke="#63b8ff" points="148.961,-18.5001 158.961,-15 148.961,-11.5001 148.961,-18.5001"/>
</a>
</g>
</g>
</g>
</svg>
