<?xml version="1.0" encoding="UTF-8" standalone="no"?>
<!DOCTYPE svg PUBLIC "-//W3C//DTD SVG 1.1//EN"
 "http://www.w3.org/Graphics/SVG/1.1/DTD/svg11.dtd">
<!-- Generated by graphviz version 2.38.0 (20140413.2041)
 -->
<!-- Title: vector_fast_move_positions Pages: 1 -->
<svg width="550pt" height="138pt"
 viewBox="0.00 0.00 550.00 138.00" xmlns="http://www.w3.org/2000/svg" xmlns:xlink="http://www.w3.org/1999/xlink">
<g id="graph0" class="graph" transform="scale(1 1) rotate(0) translate(4 134)">
<title>vector_fast_move_positions</title>
<!-- Node1 -->
<g id="Node000001" class="node"><title>Node1</title>
<g id="a_Node000001"><a xlink:title=" ">
<polygon fill="#999999" stroke="#666666" points="542,-60 407,-60 407,-41 542,-41 542,-60"/>
<text text-anchor="middle" x="474.5" y="-48" font-family="Helvetica,sans-Serif" font-size="10.00">vector_fast_move_positions</text>
</a>
</g>
</g>
<!-- Node2 -->
<g id="Node000002" class="node"><title>Node2</title>
<g id="a_Node000002"><a xlink:href="group__sortable___t_vector.html#ga16623c06371077674f5d4d31e38e42a4" target="_top" xlink:title="Přesun hodnoty elementu vektoru.">
<polygon fill="white" stroke="#666666" points="361.5,-83 247.5,-83 247.5,-64 361.5,-64 361.5,-83"/>
<text text-anchor="middle" x="304.5" y="-71" font-family="Helvetica,sans-Serif" font-size="10.00">vector_move_positions</text>
</a>
</g>
</g>
<!-- Node1&#45;&gt;Node2 -->
<g id="edge1_Node000001_Node000002" class="edge"><title>Node1&#45;&gt;Node2</title>
<g id="a_edge1_Node000001_Node000002"><a xlink:title=" ">
<path fill="none" stroke="#63b8ff" d="M396.389,-61.0569C384.669,-62.6614 372.768,-64.2907 361.609,-65.8185"/>
<polygon fill="#63b8ff" stroke="#63b8ff" points="397.186,-64.4804 406.619,-59.6563 396.237,-57.5451 397.186,-64.4804"/>
</a>
</g>
</g>
<!-- Node7 -->
<g id="Node000007" class="node"><title>Node7</title>
<g id="a_Node000007"><a xlink:href="group__sortable___t_vector_iterator.html#gaa3e549d3e67e2168311acc8f4a494cc5" target="_top" xlink:title="Přesun hodnoty elementu vektoru určené dvěma iterátory.">
<polygon fill="white" stroke="#666666" points="371,-37 238,-37 238,-18 371,-18 371,-37"/>
<text text-anchor="middle" x="304.5" y="-25" font-family="Helvetica,sans-Serif" font-size="10.00">vector_move_with_iterators</text>
</a>
</g>
</g>
<!-- Node1&#45;&gt;Node7 -->
<g id="edge7_Node000001_Node000007" class="edge"><title>Node1&#45;&gt;Node7</title>
<g id="a_edge7_Node000001_Node000007"><a xlink:title=" ">
<path fill="none" stroke="#63b8ff" d="M396.648,-39.9786C388.097,-38.808 379.447,-37.6237 371.055,-36.4747"/>
<polygon fill="#63b8ff" stroke="#63b8ff" points="396.237,-43.4549 406.619,-41.3437 397.186,-36.5196 396.237,-43.4549"/>
</a>
</g>
</g>
<!-- Node3 -->
<g id="Node000003" class="node"><title>Node3</title>
<g id="a_Node000003"><a xlink:href="group___basic_sorts.html#gac3903c3fd846908cd362e293ed40582e" target="_top" xlink:title="Třídění přímým vkládáním (Insert Sort)">
<polygon fill="white" stroke="#666666" points="169,-130 107,-130 107,-111 169,-111 169,-130"/>
<text text-anchor="middle" x="138" y="-118" font-family="Helvetica,sans-Serif" font-size="10.00">insert_sort</text>
</a>
</g>
</g>
<!-- Node2&#45;&gt;Node3 -->
<g id="edge2_Node000002_Node000003" class="edge"><title>Node2&#45;&gt;Node3</title>
<g id="a_edge2_Node000002_Node000003"><a xlink:title=" ">
<path fill="none" stroke="#63b8ff" d="M260.443,-85.8019C231.758,-93.9976 194.773,-104.565 169.193,-111.873"/>
<polygon fill="#63b8ff" stroke="#63b8ff" points="261.557,-89.1238 270.211,-83.0112 259.634,-82.3931 261.557,-89.1238"/>
</a>
</g>
</g>
<!-- Node5 -->
<g id="Node000005" class="node"><title>Node5</title>
<g id="a_Node000005"><a xlink:href="group___advanced_sorts.html#gaee070b00692f425d83eaea28b37bab2b" target="_top" xlink:title="Shellovo třídění vkládáním s ubývajícím krokem (Shell Sort) dle Hibbardovy posloupnosti.">
<polygon fill="white" stroke="#666666" points="167.5,-93 108.5,-93 108.5,-74 167.5,-74 167.5,-93"/>
<text text-anchor="middle" x="138" y="-81" font-family="Helvetica,sans-Serif" font-size="10.00">shell_sort</text>
</a>
</g>
</g>
<!-- Node2&#45;&gt;Node5 -->
<g id="edge4_Node000002_Node000005" class="edge"><title>Node2&#45;&gt;Node5</title>
<g id="a_edge4_Node000002_Node000005"><a xlink:title=" ">
<path fill="none" stroke="#63b8ff" d="M237.129,-77.5347C212.951,-79.0045 186.87,-80.59 167.677,-81.7567"/>
<polygon fill="#63b8ff" stroke="#63b8ff" points="237.579,-81.0139 247.349,-76.9135 237.155,-74.0268 237.579,-81.0139"/>
</a>
</g>
</g>
<!-- Node6 -->
<g id="Node000006" class="node"><title>Node6</title>
<g id="a_Node000006"><a xlink:href="group___t_span.html#ga8efc8ea3e4f239b6c154cdae03258740" target="_top" xlink:title="Přesun hodnoty elementu Spanu.">
<polygon fill="white" stroke="#666666" points="193,-56 83,-56 83,-37 193,-37 193,-56"/>
<text text-anchor="middle" x="138" y="-44" font-family="Helvetica,sans-Serif" font-size="10.00">span_move_positions</text>
</a>
</g>
</g>
<!-- Node2&#45;&gt;Node6 -->
<g id="edge6_Node000002_Node000006" class="edge"><title>Node2&#45;&gt;Node6</title>
<g id="a_edge6_Node000002_Node000006"><a xlink:title=" ">
<path fill="none" stroke="#63b8ff" d="M237.344,-62.6416C222.696,-60.2373 207.338,-57.7167 193.23,-55.401"/>
<polygon fill="#63b8ff" stroke="#63b8ff" points="236.914,-66.1177 247.349,-64.2836 238.047,-59.2101 236.914,-66.1177"/>
</a>
</g>
</g>
<!-- Node4 -->
<g id="Node000004" class="node"><title>Node4</title>
<g id="a_Node000004"><a xlink:href="group___main_program.html#ga0ddf1224851353fc92bfbff6f499fa97" target="_top" xlink:title=" ">
<polygon fill="white" stroke="#666666" points="38,-111 0,-111 0,-92 38,-92 38,-111"/>
<text text-anchor="middle" x="19" y="-99" font-family="Helvetica,sans-Serif" font-size="10.00">main</text>
</a>
</g>
</g>
<!-- Node3&#45;&gt;Node4 -->
<g id="edge3_Node000003_Node000004" class="edge"><title>Node3&#45;&gt;Node4</title>
<g id="a_edge3_Node000003_Node000004"><a xlink:title=" ">
<path fill="none" stroke="#63b8ff" d="M96.7592,-113.965C76.7655,-110.718 53.6092,-106.958 38.0029,-104.424"/>
<polygon fill="#63b8ff" stroke="#63b8ff" points="96.4378,-117.459 106.87,-115.607 97.56,-110.549 96.4378,-117.459"/>
</a>
</g>
</g>
<!-- Node5&#45;&gt;Node4 -->
<g id="edge5_Node000005_Node000004" class="edge"><title>Node5&#45;&gt;Node4</title>
<g id="a_edge5_Node000005_Node000004"><a xlink:title=" ">
<path fill="none" stroke="#63b8ff" d="M98.4509,-89.4306C78.1379,-92.5557 54.179,-96.2417 38.1308,-98.7106"/>
<polygon fill="#63b8ff" stroke="#63b8ff" points="99.0271,-92.8833 108.379,-87.9033 97.9626,-85.9647 99.0271,-92.8833"/>
</a>
</g>
</g>
<!-- Node8 -->
<g id="Node000008" class="node"><title>Node8</title>
<g id="a_Node000008"><a xlink:href="group___t_span.html#ga972048723036512595f461c3ba0a9d21" target="_top" xlink:title="Přesun hodnoty elementu Spanu určené dvěma iterátory.">
<polygon fill="white" stroke="#666666" points="202,-19 74,-19 74,-0 202,-0 202,-19"/>
<text text-anchor="middle" x="138" y="-7" font-family="Helvetica,sans-Serif" font-size="10.00">span_move_with_iterators</text>
</a>
</g>
</g>
<!-- Node7&#45;&gt;Node8 -->
<g id="edge8_Node000007_Node000008" class="edge"><title>Node7&#45;&gt;Node8</title>
<g id="a_edge8_Node000007_Node000008"><a xlink:title=" ">
<path fill="none" stroke="#63b8ff" d="M227.573,-19.1919C219.028,-18.2569 210.392,-17.3119 202.036,-16.3975"/>
<polygon fill="#63b8ff" stroke="#63b8ff" points="227.218,-22.6738 237.539,-20.2824 227.979,-15.7154 227.218,-22.6738"/>
</a>
</g>
</g>
</g>
</svg>
