<?xml version="1.0" encoding="UTF-8" standalone="no"?>
<!DOCTYPE svg PUBLIC "-//W3C//DTD SVG 1.1//EN"
 "http://www.w3.org/Graphics/SVG/1.1/DTD/svg11.dtd">
<!-- Generated by graphviz version 2.38.0 (20140413.2041)
 -->
<!-- Title: print_element_if Pages: 1 -->
<svg width="381pt" height="91pt"
 viewBox="0.00 0.00 381.00 90.50" xmlns="http://www.w3.org/2000/svg" xmlns:xlink="http://www.w3.org/1999/xlink">
<g id="graph0" class="graph" transform="scale(1 1) rotate(0) translate(4 86.5)">
<title>print_element_if</title>
<!-- Node1 -->
<g id="Node000001" class="node"><title>Node1</title>
<g id="a_Node000001"><a xlink:title="Formátovaný tisk hodnoty elementu za předpokladu platné hodnoty.">
<polygon fill="#999999" stroke="#666666" points="85,-63.5 0,-63.5 0,-44.5 85,-44.5 85,-63.5"/>
<text text-anchor="middle" x="42.5" y="-51.5" font-family="Helvetica,sans-Serif" font-size="10.00">print_element_if</text>
</a>
</g>
</g>
<!-- Node2 -->
<g id="Node000002" class="node"><title>Node2</title>
<g id="a_Node000002"><a xlink:href="group___t_vector_element.html#gaaae5b52d7f1d155134792f040f00a385" target="_top" xlink:title="Uložení elementu do souboru.">
<polygon fill="white" stroke="#666666" points="247,-82.5 121,-82.5 121,-63.5 247,-63.5 247,-82.5"/>
<text text-anchor="middle" x="184" y="-70.5" font-family="Helvetica,sans-Serif" font-size="10.00">vector_element_store_file</text>
</a>
</g>
</g>
<!-- Node1&#45;&gt;Node2 -->
<g id="edge1_Node000001_Node000002" class="edge"><title>Node1&#45;&gt;Node2</title>
<g id="a_edge1_Node000001_Node000002"><a xlink:title=" ">
<path fill="none" stroke="#63b8ff" d="M85.3546,-59.7006C93.3726,-60.7927 101.979,-61.9649 110.64,-63.1445"/>
<polygon fill="#63b8ff" stroke="#63b8ff" points="110.418,-66.6466 120.799,-64.5282 111.363,-59.7106 110.418,-66.6466"/>
</a>
</g>
</g>
<!-- Node3 -->
<g id="Node000003" class="node"><title>Node3</title>
<g id="a_Node000003"><a xlink:href="group___t_vector_iterator.html#ga4d8032eb9dbbdccf794611f2b0c9821c" target="_top" xlink:title="Přečtení hodnoty elementu z vektoru pomocí iterátoru.">
<polygon fill="white" stroke="#666666" points="236,-45.5 132,-45.5 132,-26.5 236,-26.5 236,-45.5"/>
<text text-anchor="middle" x="184" y="-33.5" font-family="Helvetica,sans-Serif" font-size="10.00">vector_iterator_value</text>
</a>
</g>
</g>
<!-- Node1&#45;&gt;Node3 -->
<g id="edge2_Node000001_Node000003" class="edge"><title>Node1&#45;&gt;Node3</title>
<g id="a_edge2_Node000001_Node000003"><a xlink:title=" ">
<path fill="none" stroke="#63b8ff" d="M85.3546,-48.5994C96.7659,-47.127 109.37,-45.5007 121.624,-43.9195"/>
<polygon fill="#63b8ff" stroke="#63b8ff" points="122.331,-47.3573 131.801,-42.6063 121.435,-40.4149 122.331,-47.3573"/>
</a>
</g>
</g>
<!-- Node4 -->
<g id="Node000004" class="node"><title>Node4</title>
<g id="a_Node000004"><a xlink:href="_t_vector_8c.html#a0fe5f1145e51f154b5470d640c5d682c" target="_top" xlink:title=" ">
<polygon fill="white" stroke="#666666" points="373,-67.5 283,-67.5 283,-48.5 373,-48.5 373,-67.5"/>
<text text-anchor="middle" x="328" y="-55.5" font-family="Helvetica,sans-Serif" font-size="10.00">vector_fast_value</text>
</a>
</g>
</g>
<!-- Node3&#45;&gt;Node4 -->
<g id="edge3_Node000003_Node000004" class="edge"><title>Node3&#45;&gt;Node4</title>
<g id="a_edge3_Node000003_Node000004"><a xlink:title=" ">
<path fill="none" stroke="#63b8ff" d="M236.265,-43.9425C248.182,-45.7887 260.903,-47.7597 272.936,-49.6239"/>
<polygon fill="#63b8ff" stroke="#63b8ff" points="272.431,-53.0873 282.849,-51.1597 273.502,-46.1698 272.431,-53.0873"/>
</a>
</g>
</g>
<!-- Node5 -->
<g id="Node000005" class="node"><title>Node5</title>
<g id="a_Node000005"><a xlink:href="group___t_vector_iterator.html#ga3f8a97a63f887539e270f6845bf22b9a" target="_top" xlink:title="Zjištění platnosti iterátoru.">
<polygon fill="white" stroke="#666666" points="373,-30 283,-30 283,-0 373,-0 373,-30"/>
<text text-anchor="start" x="291" y="-18" font-family="Helvetica,sans-Serif" font-size="10.00">vector_iterator_is</text>
<text text-anchor="middle" x="328" y="-7" font-family="Helvetica,sans-Serif" font-size="10.00">_valid</text>
</a>
</g>
</g>
<!-- Node3&#45;&gt;Node5 -->
<g id="edge4_Node000003_Node000005" class="edge"><title>Node3&#45;&gt;Node5</title>
<g id="a_edge4_Node000003_Node000005"><a xlink:title=" ">
<path fill="none" stroke="#63b8ff" d="M236.265,-28.4185C248.182,-26.6563 260.903,-24.7748 272.936,-22.9954"/>
<polygon fill="#63b8ff" stroke="#63b8ff" points="273.468,-26.4548 282.849,-21.5294 272.444,-19.5301 273.468,-26.4548"/>
</a>
</g>
</g>
</g>
</svg>
