<?xml version="1.0" encoding="UTF-8" standalone="no"?>
<!DOCTYPE svg PUBLIC "-//W3C//DTD SVG 1.1//EN"
 "http://www.w3.org/Graphics/SVG/1.1/DTD/svg11.dtd">
<!-- Generated by graphviz version 2.38.0 (20140413.2041)
 -->
<!-- Title: quick_sort_with_span_worker Pages: 1 -->
<svg width="793pt" height="224pt"
 viewBox="0.00 0.00 793.00 223.50" xmlns="http://www.w3.org/2000/svg" xmlns:xlink="http://www.w3.org/1999/xlink">
<g id="graph0" class="graph" transform="scale(1 1) rotate(0) translate(4 219.5)">
<title>quick_sort_with_span_worker</title>
<!-- Node1 -->
<g id="Node000001" class="node"><title>Node1</title>
<g id="a_Node000001"><a xlink:title="Vnitřní a lokální funkce realizující rekurzivní funkci pro metodu (Quick Sort)">
<polygon fill="#999999" stroke="#666666" points="110,-116.5 0,-116.5 0,-86.5 110,-86.5 110,-116.5"/>
<text text-anchor="start" x="8" y="-104.5" font-family="Helvetica,sans-Serif" font-size="10.00">quick_sort_with_span</text>
<text text-anchor="middle" x="55" y="-93.5" font-family="Helvetica,sans-Serif" font-size="10.00">_worker</text>
</a>
</g>
</g>
<!-- Node1&#45;&gt;Node1 -->
<g id="edge1_Node000001_Node000001" class="edge"><title>Node1&#45;&gt;Node1</title>
<g id="a_edge1_Node000001_Node000001"><a xlink:title=" ">
<path fill="none" stroke="#63b8ff" d="M27.2266,-116.775C21.0547,-125.906 30.3125,-134.5 55,-134.5 69.6582,-134.5 78.8768,-131.47 82.6559,-127.098"/>
<polygon fill="#63b8ff" stroke="#63b8ff" points="86.1593,-126.815 82.7734,-116.775 79.1597,-126.735 86.1593,-126.815"/>
</a>
</g>
</g>
<!-- Node2 -->
<g id="Node000002" class="node"><title>Node2</title>
<g id="a_Node000002"><a xlink:href="group___t_span.html#gad64d53738a4da90ef126cd73d84b5f52" target="_top" xlink:title="Porovnání mezi hodnotou elementu Span a hodnotou typu VectorElement.">
<polygon fill="white" stroke="#666666" points="273.5,-215.5 154.5,-215.5 154.5,-185.5 273.5,-185.5 273.5,-215.5"/>
<text text-anchor="start" x="162.5" y="-203.5" font-family="Helvetica,sans-Serif" font-size="10.00">span_compare_position</text>
<text text-anchor="middle" x="214" y="-192.5" font-family="Helvetica,sans-Serif" font-size="10.00">_value</text>
</a>
</g>
</g>
<!-- Node1&#45;&gt;Node2 -->
<g id="edge2_Node000001_Node000002" class="edge"><title>Node1&#45;&gt;Node2</title>
<g id="a_edge2_Node000001_Node000002"><a xlink:title=" ">
<path fill="none" stroke="#63b8ff" d="M70.6814,-116.578C87.5482,-133.182 116.689,-159.743 146,-176.5 148.987,-178.207 152.116,-179.827 155.322,-181.359"/>
<polygon fill="#63b8ff" stroke="#63b8ff" points="153.945,-184.577 164.505,-185.438 156.787,-178.18 153.945,-184.577"/>
</a>
</g>
</g>
<!-- Node6 -->
<g id="Node000006" class="node"><title>Node6</title>
<g id="a_Node000006"><a xlink:href="group___t_span.html#ga95663322132016bbaf40e6281480e122" target="_top" xlink:title="Vytvoření SubSpanu jako části od počátku a definované délce původního Spanu.">
<polygon fill="white" stroke="#666666" points="279,-167 149,-167 149,-148 279,-148 279,-167"/>
<text text-anchor="middle" x="214" y="-155" font-family="Helvetica,sans-Serif" font-size="10.00">span_create_left_subspan</text>
</a>
</g>
</g>
<!-- Node1&#45;&gt;Node6 -->
<g id="edge6_Node000001_Node000006" class="edge"><title>Node1&#45;&gt;Node6</title>
<g id="a_edge6_Node000001_Node000006"><a xlink:title=" ">
<path fill="none" stroke="#63b8ff" d="M88.9163,-116.679C105.774,-124.123 126.752,-132.886 146,-139.5 151.692,-141.456 157.714,-143.334 163.721,-145.09"/>
<polygon fill="#63b8ff" stroke="#63b8ff" points="163.181,-148.574 173.756,-147.923 165.083,-141.838 163.181,-148.574"/>
</a>
</g>
</g>
<!-- Node7 -->
<g id="Node000007" class="node"><title>Node7</title>
<g id="a_Node000007"><a xlink:href="group___t_span.html#ga6270a02d3bfd6fa1fdbf37ca62276687" target="_top" xlink:title="Vytvoření SubSpanu jako části od definované pozice až do konce původního Spanu.">
<polygon fill="white" stroke="#666666" points="282,-130 146,-130 146,-111 282,-111 282,-130"/>
<text text-anchor="middle" x="214" y="-118" font-family="Helvetica,sans-Serif" font-size="10.00">span_create_right_subspan</text>
</a>
</g>
</g>
<!-- Node1&#45;&gt;Node7 -->
<g id="edge7_Node000001_Node000007" class="edge"><title>Node1&#45;&gt;Node7</title>
<g id="a_edge7_Node000001_Node000007"><a xlink:title=" ">
<path fill="none" stroke="#63b8ff" d="M110.03,-108.039C118.318,-109.042 127.011,-110.094 135.684,-111.143"/>
<polygon fill="#63b8ff" stroke="#63b8ff" points="135.483,-114.644 145.831,-112.371 136.324,-107.695 135.483,-114.644"/>
</a>
</g>
</g>
<!-- Node8 -->
<g id="Node000008" class="node"><title>Node8</title>
<g id="a_Node000008"><a xlink:href="group___t_span.html#ga873f8813d9a78c9b43e8a6b2b2a4c9d1" target="_top" xlink:title="Přečtení počtu elementů Spanu.">
<polygon fill="white" stroke="#666666" points="244.5,-93 183.5,-93 183.5,-74 244.5,-74 244.5,-93"/>
<text text-anchor="middle" x="214" y="-81" font-family="Helvetica,sans-Serif" font-size="10.00">span_size</text>
</a>
</g>
</g>
<!-- Node1&#45;&gt;Node8 -->
<g id="edge8_Node000001_Node000008" class="edge"><title>Node1&#45;&gt;Node8</title>
<g id="a_edge8_Node000001_Node000008"><a xlink:title=" ">
<path fill="none" stroke="#63b8ff" d="M110.03,-95.3054C130.687,-92.9372 153.854,-90.2811 172.975,-88.0888"/>
<polygon fill="#63b8ff" stroke="#63b8ff" points="173.604,-91.5397 183.14,-86.9234 172.807,-84.5853 173.604,-91.5397"/>
</a>
</g>
</g>
<!-- Node9 -->
<g id="Node000009" class="node"><title>Node9</title>
<g id="a_Node000009"><a xlink:href="group___t_span.html#gae81c37610069e0d3c8d3182ca4964c1a" target="_top" xlink:title="Výměna hodnot elementů Spanů">
<polygon fill="white" stroke="#666666" points="269,-56 159,-56 159,-37 269,-37 269,-56"/>
<text text-anchor="middle" x="214" y="-44" font-family="Helvetica,sans-Serif" font-size="10.00">span_swap_positions</text>
</a>
</g>
</g>
<!-- Node1&#45;&gt;Node9 -->
<g id="edge9_Node000001_Node000009" class="edge"><title>Node1&#45;&gt;Node9</title>
<g id="a_edge9_Node000001_Node000009"><a xlink:title=" ">
<path fill="none" stroke="#63b8ff" d="M89.801,-86.4062C106.52,-79.2493 127.117,-70.889 146,-64.5 151.915,-62.4987 158.182,-60.5698 164.416,-58.766"/>
<polygon fill="#63b8ff" stroke="#63b8ff" points="165.446,-62.1123 174.129,-56.0421 163.556,-55.3723 165.446,-62.1123"/>
</a>
</g>
</g>
<!-- Node12 -->
<g id="Node000012" class="node"><title>Node12</title>
<g id="a_Node000012"><a xlink:href="group___t_span.html#ga4c772b349af71b9066651285a90ee21e" target="_top" xlink:title="Přečtení hodnoty elementu Spanu na požadované pozici.">
<polygon fill="white" stroke="#666666" points="246.5,-19 181.5,-19 181.5,-0 246.5,-0 246.5,-19"/>
<text text-anchor="middle" x="214" y="-7" font-family="Helvetica,sans-Serif" font-size="10.00">span_value</text>
</a>
</g>
</g>
<!-- Node1&#45;&gt;Node12 -->
<g id="edge12_Node000001_Node000012" class="edge"><title>Node1&#45;&gt;Node12</title>
<g id="a_edge12_Node000001_Node000012"><a xlink:title=" ">
<path fill="none" stroke="#63b8ff" d="M70.1787,-86.4921C86.8152,-69.7395 115.963,-42.9587 146,-27.5 153.937,-23.4154 162.893,-20.1872 171.614,-17.6619"/>
<polygon fill="#63b8ff" stroke="#63b8ff" points="172.52,-21.0426 181.292,-15.1012 170.73,-14.2754 172.52,-21.0426"/>
</a>
</g>
</g>
<!-- Node3 -->
<g id="Node000003" class="node"><title>Node3</title>
<g id="a_Node000003"><a xlink:href="group__sortable___t_vector.html#ga09e150aa4cdd8faabf43474ab1dbe454" target="_top" xlink:title="Porovnání mezi hodnotou elementu vektoru a hodnotou typu VectorElement.">
<polygon fill="white" stroke="#666666" points="442,-215.5 318,-215.5 318,-185.5 442,-185.5 442,-215.5"/>
<text text-anchor="start" x="326" y="-203.5" font-family="Helvetica,sans-Serif" font-size="10.00">vector_compare_position</text>
<text text-anchor="middle" x="380" y="-192.5" font-family="Helvetica,sans-Serif" font-size="10.00">_value</text>
</a>
</g>
</g>
<!-- Node2&#45;&gt;Node3 -->
<g id="edge3_Node000002_Node000003" class="edge"><title>Node2&#45;&gt;Node3</title>
<g id="a_edge3_Node000002_Node000003"><a xlink:title=" ">
<path fill="none" stroke="#63b8ff" d="M273.745,-200.5C284.722,-200.5 296.306,-200.5 307.615,-200.5"/>
<polygon fill="#63b8ff" stroke="#63b8ff" points="307.9,-204 317.9,-200.5 307.9,-197 307.9,-204"/>
</a>
</g>
</g>
<!-- Node4 -->
<g id="Node000004" class="node"><title>Node4</title>
<g id="a_Node000004"><a xlink:href="_t_vector_8c.html#a8254190a2b4fe570173cc77dba0ee7a4" target="_top" xlink:title=" ">
<polygon fill="white" stroke="#666666" points="598.5,-215.5 492.5,-215.5 492.5,-185.5 598.5,-185.5 598.5,-215.5"/>
<text text-anchor="start" x="500.5" y="-203.5" font-family="Helvetica,sans-Serif" font-size="10.00">vector_fast_compare</text>
<text text-anchor="middle" x="545.5" y="-192.5" font-family="Helvetica,sans-Serif" font-size="10.00">_position_value</text>
</a>
</g>
</g>
<!-- Node3&#45;&gt;Node4 -->
<g id="edge4_Node000003_Node000004" class="edge"><title>Node3&#45;&gt;Node4</title>
<g id="a_edge4_Node000003_Node000004"><a xlink:title=" ">
<path fill="none" stroke="#63b8ff" d="M442.347,-200.5C455.359,-200.5 469.109,-200.5 482.159,-200.5"/>
<polygon fill="#63b8ff" stroke="#63b8ff" points="482.446,-204 492.446,-200.5 482.446,-197 482.446,-204"/>
</a>
</g>
</g>
<!-- Node5 -->
<g id="Node000005" class="node"><title>Node5</title>
<g id="a_Node000005"><a xlink:href="group___t_vector_element.html#ga82e527836fce12c93af896f65e9f701d" target="_top" xlink:title="Porovnání dvou elementů">
<polygon fill="white" stroke="#666666" points="785,-210 649,-210 649,-191 785,-191 785,-210"/>
<text text-anchor="middle" x="717" y="-198" font-family="Helvetica,sans-Serif" font-size="10.00">vector_element_comparator</text>
</a>
</g>
</g>
<!-- Node4&#45;&gt;Node5 -->
<g id="edge5_Node000004_Node000005" class="edge"><title>Node4&#45;&gt;Node5</title>
<g id="a_edge5_Node000004_Node000005"><a xlink:title=" ">
<path fill="none" stroke="#63b8ff" d="M598.739,-200.5C611.373,-200.5 625.144,-200.5 638.662,-200.5"/>
<polygon fill="#63b8ff" stroke="#63b8ff" points="638.926,-204 648.926,-200.5 638.926,-197 638.926,-204"/>
</a>
</g>
</g>
<!-- Node10 -->
<g id="Node000010" class="node"><title>Node10</title>
<g id="a_Node000010"><a xlink:href="group__sortable___t_vector.html#gac1982d8a0e5f66f933dc6a0413f2d23e" target="_top" xlink:title="Výměna hodnot elementů vektorů">
<polygon fill="white" stroke="#666666" points="437,-56 323,-56 323,-37 437,-37 437,-56"/>
<text text-anchor="middle" x="380" y="-44" font-family="Helvetica,sans-Serif" font-size="10.00">vector_swap_positions</text>
</a>
</g>
</g>
<!-- Node9&#45;&gt;Node10 -->
<g id="edge10_Node000009_Node000010" class="edge"><title>Node9&#45;&gt;Node10</title>
<g id="a_edge10_Node000009_Node000010"><a xlink:title=" ">
<path fill="none" stroke="#63b8ff" d="M269.154,-46.5C283.044,-46.5 298.142,-46.5 312.573,-46.5"/>
<polygon fill="#63b8ff" stroke="#63b8ff" points="312.936,-50.0001 322.936,-46.5 312.936,-43.0001 312.936,-50.0001"/>
</a>
</g>
</g>
<!-- Node11 -->
<g id="Node000011" class="node"><title>Node11</title>
<g id="a_Node000011"><a xlink:href="_t_vector_8c.html#ac70bbb23ab1ec16b867b3e33d40ae1c4" target="_top" xlink:title=" ">
<polygon fill="white" stroke="#666666" points="613,-56 478,-56 478,-37 613,-37 613,-56"/>
<text text-anchor="middle" x="545.5" y="-44" font-family="Helvetica,sans-Serif" font-size="10.00">vector_fast_swap_positions</text>
</a>
</g>
</g>
<!-- Node10&#45;&gt;Node11 -->
<g id="edge11_Node000010_Node000011" class="edge"><title>Node10&#45;&gt;Node11</title>
<g id="a_edge11_Node000010_Node000011"><a xlink:title=" ">
<path fill="none" stroke="#63b8ff" d="M437.267,-46.5C447.105,-46.5 457.49,-46.5 467.768,-46.5"/>
<polygon fill="#63b8ff" stroke="#63b8ff" points="467.987,-50.0001 477.987,-46.5 467.987,-43.0001 467.987,-50.0001"/>
</a>
</g>
</g>
<!-- Node13 -->
<g id="Node000013" class="node"><title>Node13</title>
<g id="a_Node000013"><a xlink:href="group___t_vector.html#ga2b08236d9825632cd96bcc89faed929c" target="_top" xlink:title="Přečtení hodnoty elementu z vektoru na požadované pozici.">
<polygon fill="white" stroke="#666666" points="414.5,-19 345.5,-19 345.5,-0 414.5,-0 414.5,-19"/>
<text text-anchor="middle" x="380" y="-7" font-family="Helvetica,sans-Serif" font-size="10.00">vector_value</text>
</a>
</g>
</g>
<!-- Node12&#45;&gt;Node13 -->
<g id="edge13_Node000012_Node000013" class="edge"><title>Node12&#45;&gt;Node13</title>
<g id="a_edge13_Node000012_Node000013"><a xlink:title=" ">
<path fill="none" stroke="#63b8ff" d="M246.621,-9.5C271.711,-9.5 307.077,-9.5 334.942,-9.5"/>
<polygon fill="#63b8ff" stroke="#63b8ff" points="335.218,-13.0001 345.218,-9.5 335.218,-6.0001 335.218,-13.0001"/>
</a>
</g>
</g>
<!-- Node14 -->
<g id="Node000014" class="node"><title>Node14</title>
<g id="a_Node000014"><a xlink:href="_t_vector_8c.html#a0fe5f1145e51f154b5470d640c5d682c" target="_top" xlink:title=" ">
<polygon fill="white" stroke="#666666" points="590.5,-19 500.5,-19 500.5,-0 590.5,-0 590.5,-19"/>
<text text-anchor="middle" x="545.5" y="-7" font-family="Helvetica,sans-Serif" font-size="10.00">vector_fast_value</text>
</a>
</g>
</g>
<!-- Node13&#45;&gt;Node14 -->
<g id="edge14_Node000013_Node000014" class="edge"><title>Node13&#45;&gt;Node14</title>
<g id="a_edge14_Node000013_Node000014"><a xlink:title=" ">
<path fill="none" stroke="#63b8ff" d="M414.877,-9.5C436.663,-9.5 465.451,-9.5 490.363,-9.5"/>
<polygon fill="#63b8ff" stroke="#63b8ff" points="490.411,-13.0001 500.411,-9.5 490.411,-6.0001 490.411,-13.0001"/>
</a>
</g>
</g>
</g>
</svg>
