<?xml version="1.0" encoding="UTF-8" standalone="no"?>
<!DOCTYPE svg PUBLIC "-//W3C//DTD SVG 1.1//EN"
 "http://www.w3.org/Graphics/SVG/1.1/DTD/svg11.dtd">
<!-- Generated by graphviz version 2.38.0 (20140413.2041)
 -->
<!-- Title: advanced_sorts_with_span.h Pages: 1 -->
<svg width="180pt" height="104pt"
 viewBox="0.00 0.00 179.50 104.00" xmlns="http://www.w3.org/2000/svg" xmlns:xlink="http://www.w3.org/1999/xlink">
<g id="graph0" class="graph" transform="scale(1 1) rotate(0) translate(4 100)">
<title>advanced_sorts_with_span.h</title>
<!-- Node1 -->
<g id="Node000001" class="node"><title>Node1</title>
<g id="a_Node000001"><a xlink:title="Deklarace API účinnějších metod třídění využívající typ Span.">
<polygon fill="#999999" stroke="#666666" points="154,-96 47,-96 47,-66 154,-66 154,-96"/>
<text text-anchor="start" x="55" y="-84" font-family="Helvetica,sans-Serif" font-size="10.00">advanced_sorts_with</text>
<text text-anchor="middle" x="100.5" y="-73" font-family="Helvetica,sans-Serif" font-size="10.00">_span.h</text>
</a>
</g>
</g>
<!-- Node2 -->
<g id="Node000002" class="node"><title>Node2</title>
<g id="a_Node000002"><a xlink:href="advanced__sorts__with__span_8c.html" target="_top" xlink:title="Implementace API účinnějších metod třídění využívající typ Span.">
<polygon fill="white" stroke="#666666" points="107,-30 0,-30 0,-0 107,-0 107,-30"/>
<text text-anchor="start" x="8" y="-18" font-family="Helvetica,sans-Serif" font-size="10.00">advanced_sorts_with</text>
<text text-anchor="middle" x="53.5" y="-7" font-family="Helvetica,sans-Serif" font-size="10.00">_span.c</text>
</a>
</g>
</g>
<!-- Node1&#45;&gt;Node2 -->
<g id="edge1_Node000001_Node000002" class="edge"><title>Node1&#45;&gt;Node2</title>
<g id="a_edge1_Node000001_Node000002"><a xlink:title=" ">
<path fill="none" stroke="#63b8ff" d="M83.9959,-57.5263C77.3126,-48.4257 69.7987,-38.194 63.9017,-30.164"/>
<polygon fill="#63b8ff" stroke="#63b8ff" points="81.329,-59.808 90.0692,-65.7963 86.9711,-55.6646 81.329,-59.808"/>
</a>
</g>
</g>
<!-- Node3 -->
<g id="Node000003" class="node"><title>Node3</title>
<g id="a_Node000003"><a xlink:href="main_8c.html" target="_top" xlink:title="Hlavní program testující API účinnějších metod třídění">
<polygon fill="white" stroke="#666666" points="171.5,-24.5 125.5,-24.5 125.5,-5.5 171.5,-5.5 171.5,-24.5"/>
<text text-anchor="middle" x="148.5" y="-12.5" font-family="Helvetica,sans-Serif" font-size="10.00">main.c</text>
</a>
</g>
</g>
<!-- Node1&#45;&gt;Node3 -->
<g id="edge2_Node000001_Node000003" class="edge"><title>Node1&#45;&gt;Node3</title>
<g id="a_edge2_Node000001_Node000003"><a xlink:title=" ">
<path fill="none" stroke="#63b8ff" d="M117.291,-57.6123C125.757,-46.3236 135.543,-33.2756 141.867,-24.8443"/>
<polygon fill="#63b8ff" stroke="#63b8ff" points="114.353,-55.6963 111.153,-65.7963 119.953,-59.8963 114.353,-55.6963"/>
</a>
</g>
</g>
</g>
</svg>
