<?xml version="1.0" encoding="UTF-8" standalone="no"?>
<!DOCTYPE svg PUBLIC "-//W3C//DTD SVG 1.1//EN"
 "http://www.w3.org/Graphics/SVG/1.1/DTD/svg11.dtd">
<!-- Generated by graphviz version 2.38.0 (20140413.2041)
 -->
<!-- Title: advanced_sorts.c Pages: 1 -->
<svg width="334pt" height="247pt"
 viewBox="0.00 0.00 333.50 247.00" xmlns="http://www.w3.org/2000/svg" xmlns:xlink="http://www.w3.org/1999/xlink">
<g id="graph0" class="graph" transform="scale(1 1) rotate(0) translate(4 243)">
<title>advanced_sorts.c</title>
<!-- Node1 -->
<g id="Node000001" class="node"><title>Node1</title>
<g id="a_Node000001"><a xlink:title="Implementace API účinnějších metod třídění">
<polygon fill="#999999" stroke="#666666" points="212,-239 120,-239 120,-220 212,-220 212,-239"/>
<text text-anchor="middle" x="166" y="-227" font-family="Helvetica,sans-Serif" font-size="10.00">advanced_sorts.c</text>
</a>
</g>
</g>
<!-- Node2 -->
<g id="Node000002" class="node"><title>Node2</title>
<g id="a_Node000002"><a xlink:href="advanced__sorts_8h.html" target="_top" xlink:title="Deklarace API účinnějších metod třídění">
<polygon fill="white" stroke="#666666" points="212,-184 120,-184 120,-165 212,-165 212,-184"/>
<text text-anchor="middle" x="166" y="-172" font-family="Helvetica,sans-Serif" font-size="10.00">advanced_sorts.h</text>
</a>
</g>
</g>
<!-- Node1&#45;&gt;Node2 -->
<g id="edge1_Node000001_Node000002" class="edge"><title>Node1&#45;&gt;Node2</title>
<g id="a_edge1_Node000001_Node000002"><a xlink:title=" ">
<path fill="none" stroke="#63b8ff" d="M166,-219.748C166,-212.802 166,-202.845 166,-194.135"/>
<polygon fill="#63b8ff" stroke="#63b8ff" points="169.5,-194.089 166,-184.089 162.5,-194.089 169.5,-194.089"/>
</a>
</g>
</g>
<!-- Node3 -->
<g id="Node000003" class="node"><title>Node3</title>
<g id="a_Node000003"><a xlink:href="_t_vector_8h.html" target="_top" xlink:title="Definice typu Sortable Vector with shareable sortstats.">
<polygon fill="white" stroke="#666666" points="195.5,-129 136.5,-129 136.5,-110 195.5,-110 195.5,-129"/>
<text text-anchor="middle" x="166" y="-117" font-family="Helvetica,sans-Serif" font-size="10.00">TVector.h</text>
</a>
</g>
</g>
<!-- Node2&#45;&gt;Node3 -->
<g id="edge2_Node000002_Node000003" class="edge"><title>Node2&#45;&gt;Node3</title>
<g id="a_edge2_Node000002_Node000003"><a xlink:title=" ">
<path fill="none" stroke="#63b8ff" d="M166,-164.748C166,-157.802 166,-147.845 166,-139.135"/>
<polygon fill="#63b8ff" stroke="#63b8ff" points="169.5,-139.089 166,-129.089 162.5,-139.089 169.5,-139.089"/>
</a>
</g>
</g>
<!-- Node4 -->
<g id="Node000004" class="node"><title>Node4</title>
<g id="a_Node000004"><a xlink:title=" ">
<polygon fill="#e0e0e0" stroke="#999999" points="46,-19 0,-19 0,-0 46,-0 46,-19"/>
<text text-anchor="middle" x="23" y="-7" font-family="Helvetica,sans-Serif" font-size="10.00">stdio.h</text>
</a>
</g>
</g>
<!-- Node3&#45;&gt;Node4 -->
<g id="edge3_Node000003_Node000004" class="edge"><title>Node3&#45;&gt;Node4</title>
<g id="a_edge3_Node000003_Node000004"><a xlink:title=" ">
<path fill="none" stroke="#63b8ff" d="M151.343,-109.85C137.104,-101.262 115.051,-87.4679 97,-74 76.5836,-58.7676 54.6025,-39.504 39.9494,-26.2104"/>
<polygon fill="#63b8ff" stroke="#63b8ff" points="41.9752,-23.3197 32.2359,-19.1488 37.2484,-28.4829 41.9752,-23.3197"/>
</a>
</g>
</g>
<!-- Node5 -->
<g id="Node000005" class="node"><title>Node5</title>
<g id="a_Node000005"><a xlink:title=" ">
<polygon fill="#e0e0e0" stroke="#999999" points="120,-19 64,-19 64,-0 120,-0 120,-19"/>
<text text-anchor="middle" x="92" y="-7" font-family="Helvetica,sans-Serif" font-size="10.00">stdbool.h</text>
</a>
</g>
</g>
<!-- Node3&#45;&gt;Node5 -->
<g id="edge4_Node000003_Node000005" class="edge"><title>Node3&#45;&gt;Node5</title>
<g id="a_edge4_Node000003_Node000005"><a xlink:title=" ">
<path fill="none" stroke="#63b8ff" d="M149.862,-109.851C136.941,-102.114 119.326,-89.598 109,-74 100.043,-60.469 95.7911,-42.3796 93.7813,-28.9696"/>
<polygon fill="#63b8ff" stroke="#63b8ff" points="97.2514,-28.5112 92.5661,-19.0086 90.3029,-29.3589 97.2514,-28.5112"/>
</a>
</g>
</g>
<!-- Node6 -->
<g id="Node000006" class="node"><title>Node6</title>
<g id="a_Node000006"><a xlink:title=" ">
<polygon fill="#e0e0e0" stroke="#999999" points="321.5,-74 270.5,-74 270.5,-55 321.5,-55 321.5,-74"/>
<text text-anchor="middle" x="296" y="-62" font-family="Helvetica,sans-Serif" font-size="10.00">stddef.h</text>
</a>
</g>
</g>
<!-- Node3&#45;&gt;Node6 -->
<g id="edge5_Node000003_Node000006" class="edge"><title>Node3&#45;&gt;Node6</title>
<g id="a_edge5_Node000003_Node000006"><a xlink:title=" ">
<path fill="none" stroke="#63b8ff" d="M186.887,-109.985C208.082,-101.343 241.127,-87.8713 265.301,-78.0158"/>
<polygon fill="#63b8ff" stroke="#63b8ff" points="266.795,-81.1866 274.733,-74.1703 264.152,-74.7046 266.795,-81.1866"/>
</a>
</g>
</g>
<!-- Node7 -->
<g id="Node000007" class="node"><title>Node7</title>
<g id="a_Node000007"><a xlink:href="_t_vector_element_8h.html" target="_top" xlink:title="Definice typu Basic VectorElement a implementace API.">
<polygon fill="white" stroke="#666666" points="213.5,-74 118.5,-74 118.5,-55 213.5,-55 213.5,-74"/>
<text text-anchor="middle" x="166" y="-62" font-family="Helvetica,sans-Serif" font-size="10.00">TVectorElement.h</text>
</a>
</g>
</g>
<!-- Node3&#45;&gt;Node7 -->
<g id="edge6_Node000003_Node000007" class="edge"><title>Node3&#45;&gt;Node7</title>
<g id="a_edge6_Node000003_Node000007"><a xlink:title=" ">
<path fill="none" stroke="#63b8ff" d="M166,-109.748C166,-102.802 166,-92.8451 166,-84.1349"/>
<polygon fill="#63b8ff" stroke="#63b8ff" points="169.5,-84.089 166,-74.089 162.5,-84.0891 169.5,-84.089"/>
</a>
</g>
</g>
<!-- Node10 -->
<g id="Node000010" class="node"><title>Node10</title>
<g id="a_Node000010"><a xlink:title=" ">
<polygon fill="#e0e0e0" stroke="#999999" points="325.5,-19 274.5,-19 274.5,-0 325.5,-0 325.5,-19"/>
<text text-anchor="middle" x="300" y="-7" font-family="Helvetica,sans-Serif" font-size="10.00">check.h</text>
</a>
</g>
</g>
<!-- Node3&#45;&gt;Node10 -->
<g id="edge12_Node000003_Node000010" class="edge"><title>Node3&#45;&gt;Node10</title>
<g id="a_edge12_Node000003_Node000010"><a xlink:title=" ">
<path fill="none" stroke="#63b8ff" d="M177.187,-109.673C188.513,-100.722 206.518,-86.4528 222,-74 242.435,-57.5633 265.739,-38.5569 281.512,-25.6532"/>
<polygon fill="#63b8ff" stroke="#63b8ff" points="283.914,-28.2103 289.435,-19.1673 279.48,-22.794 283.914,-28.2103"/>
</a>
</g>
</g>
<!-- Node7&#45;&gt;Node4 -->
<g id="edge7_Node000007_Node000004" class="edge"><title>Node7&#45;&gt;Node4</title>
<g id="a_edge7_Node000007_Node000004"><a xlink:title=" ">
<path fill="none" stroke="#63b8ff" d="M143.025,-54.9846C119.502,-46.2665 82.7131,-32.6314 56.0624,-22.7539"/>
<polygon fill="#63b8ff" stroke="#63b8ff" points="56.9865,-19.3638 46.3935,-19.1703 54.5538,-25.9275 56.9865,-19.3638"/>
</a>
</g>
</g>
<!-- Node7&#45;&gt;Node5 -->
<g id="edge9_Node000007_Node000005" class="edge"><title>Node7&#45;&gt;Node5</title>
<g id="a_edge9_Node000007_Node000005"><a xlink:title=" ">
<path fill="none" stroke="#63b8ff" d="M154.111,-54.9846C142.85,-46.9194 125.713,-34.6461 112.291,-25.0327"/>
<polygon fill="#63b8ff" stroke="#63b8ff" points="114.274,-22.1476 104.106,-19.1703 110.198,-27.8386 114.274,-22.1476"/>
</a>
</g>
</g>
<!-- Node8 -->
<g id="Node000008" class="node"><title>Node8</title>
<g id="a_Node000008"><a xlink:title=" ">
<polygon fill="#e0e0e0" stroke="#999999" points="256,-19 208,-19 208,-0 256,-0 256,-19"/>
<text text-anchor="middle" x="232" y="-7" font-family="Helvetica,sans-Serif" font-size="10.00">stdlib.h</text>
</a>
</g>
</g>
<!-- Node7&#45;&gt;Node8 -->
<g id="edge8_Node000007_Node000008" class="edge"><title>Node7&#45;&gt;Node8</title>
<g id="a_edge8_Node000007_Node000008"><a xlink:title=" ">
<path fill="none" stroke="#63b8ff" d="M176.604,-54.9846C186.456,-47.0731 201.351,-35.1121 213.215,-25.5848"/>
<polygon fill="#63b8ff" stroke="#63b8ff" points="215.597,-28.1607 221.203,-19.1703 211.214,-22.7027 215.597,-28.1607"/>
</a>
</g>
</g>
<!-- Node9 -->
<g id="Node000009" class="node"><title>Node9</title>
<g id="a_Node000009"><a xlink:title=" ">
<polygon fill="#e0e0e0" stroke="#999999" points="190,-19 138,-19 138,-0 190,-0 190,-19"/>
<text text-anchor="middle" x="164" y="-7" font-family="Helvetica,sans-Serif" font-size="10.00">assert.h</text>
</a>
</g>
</g>
<!-- Node7&#45;&gt;Node9 -->
<g id="edge10_Node000007_Node000009" class="edge"><title>Node7&#45;&gt;Node9</title>
<g id="a_edge10_Node000007_Node000009"><a xlink:title=" ">
<path fill="none" stroke="#63b8ff" d="M165.67,-54.7481C165.408,-47.8021 165.032,-37.8451 164.703,-29.1349"/>
<polygon fill="#63b8ff" stroke="#63b8ff" points="168.199,-28.9499 164.324,-19.089 161.204,-29.2139 168.199,-28.9499"/>
</a>
</g>
</g>
<!-- Node7&#45;&gt;Node10 -->
<g id="edge11_Node000007_Node000010" class="edge"><title>Node7&#45;&gt;Node10</title>
<g id="a_edge11_Node000007_Node000010"><a xlink:title=" ">
<path fill="none" stroke="#63b8ff" d="M187.529,-54.9846C209.474,-46.305 243.742,-32.7515 268.688,-22.8847"/>
<polygon fill="#63b8ff" stroke="#63b8ff" points="270.067,-26.103 278.079,-19.1703 267.492,-19.5937 270.067,-26.103"/>
</a>
</g>
</g>
</g>
</svg>
