<?xml version="1.0" encoding="UTF-8" standalone="no"?>
<!DOCTYPE svg PUBLIC "-//W3C//DTD SVG 1.1//EN"
 "http://www.w3.org/Graphics/SVG/1.1/DTD/svg11.dtd">
<!-- Generated by graphviz version 2.38.0 (20140413.2041)
 -->
<!-- Title: vector_size Pages: 1 -->
<svg width="302pt" height="286pt"
 viewBox="0.00 0.00 302.00 286.00" xmlns="http://www.w3.org/2000/svg" xmlns:xlink="http://www.w3.org/1999/xlink">
<g id="graph0" class="graph" transform="scale(1 1) rotate(0) translate(4 282)">
<title>vector_size</title>
<!-- Node1 -->
<g id="Node000001" class="node"><title>Node1</title>
<g id="a_Node000001"><a xlink:title="Přečtení počtu elementů vektoru.">
<polygon fill="#999999" stroke="#666666" points="294,-148 229,-148 229,-129 294,-129 294,-148"/>
<text text-anchor="middle" x="261.5" y="-136" font-family="Helvetica,sans-Serif" font-size="10.00">vector_size</text>
</a>
</g>
</g>
<!-- Node2 -->
<g id="Node000002" class="node"><title>Node2</title>
<g id="a_Node000002"><a xlink:href="group___basic_sorts.html#gaa1ef093f5205f293df8303ac228452fc" target="_top" xlink:title="Třídění přímou výměnou (Bubble Sort)">
<polygon fill="white" stroke="#666666" points="167,-278 100,-278 100,-259 167,-259 167,-278"/>
<text text-anchor="middle" x="133.5" y="-266" font-family="Helvetica,sans-Serif" font-size="10.00">bubble_sort</text>
</a>
</g>
</g>
<!-- Node1&#45;&gt;Node2 -->
<g id="edge1_Node000001_Node000002" class="edge"><title>Node1&#45;&gt;Node2</title>
<g id="a_edge1_Node000001_Node000002"><a xlink:title=" ">
<path fill="none" stroke="#63b8ff" d="M253.905,-157.694C244.351,-182.679 224.302,-226.033 193,-250.5 185.549,-256.324 176.208,-260.274 167.192,-262.949"/>
<polygon fill="#63b8ff" stroke="#63b8ff" points="257.222,-158.813 257.359,-148.219 250.645,-156.416 257.222,-158.813"/>
</a>
</g>
</g>
<!-- Node3 -->
<g id="Node000003" class="node"><title>Node3</title>
<g id="a_Node000003"><a xlink:href="group___basic_sorts.html#ga62a36eb31bf0a873f7c027e145843b1a" target="_top" xlink:title="Třídění přímou výměnou včetně optimalizace s pomocným příznakem ukončení třídění (Bubble Sort Optimiz...">
<polygon fill="white" stroke="#666666" points="190.5,-241 76.5,-241 76.5,-222 190.5,-222 190.5,-241"/>
<text text-anchor="middle" x="133.5" y="-229" font-family="Helvetica,sans-Serif" font-size="10.00">bubble_sort_optimized</text>
</a>
</g>
</g>
<!-- Node1&#45;&gt;Node3 -->
<g id="edge2_Node000001_Node000003" class="edge"><title>Node1&#45;&gt;Node3</title>
<g id="a_edge2_Node000001_Node000003"><a xlink:title=" ">
<path fill="none" stroke="#63b8ff" d="M248.604,-156.58C236.517,-173.596 216.296,-198.626 193,-213.5 187.716,-216.874 181.76,-219.649 175.723,-221.921"/>
<polygon fill="#63b8ff" stroke="#63b8ff" points="251.674,-158.291 254.45,-148.066 245.904,-154.329 251.674,-158.291"/>
</a>
</g>
</g>
<!-- Node4 -->
<g id="Node000004" class="node"><title>Node4</title>
<g id="a_Node000004"><a xlink:href="group___basic_sorts.html#gaba41a68f00241f38f7864b4e1dacd086" target="_top" xlink:title="Třídění přímou výměnou včetně optimalizace s výpočtem indexu poslední změny (Bubble Sort Optimized2)">
<polygon fill="white" stroke="#666666" points="193,-204 74,-204 74,-185 193,-185 193,-204"/>
<text text-anchor="middle" x="133.5" y="-192" font-family="Helvetica,sans-Serif" font-size="10.00">bubble_sort_optimized2</text>
</a>
</g>
</g>
<!-- Node1&#45;&gt;Node4 -->
<g id="edge3_Node000001_Node000004" class="edge"><title>Node1&#45;&gt;Node4</title>
<g id="a_edge3_Node000001_Node000004"><a xlink:title=" ">
<path fill="none" stroke="#63b8ff" d="M237.117,-153.306C224.406,-160.929 208.214,-169.967 193,-176.5 185.677,-179.645 177.624,-182.492 169.897,-184.946"/>
<polygon fill="#63b8ff" stroke="#63b8ff" points="238.988,-156.264 245.694,-148.061 235.336,-150.292 238.988,-156.264"/>
</a>
</g>
</g>
<!-- Node5 -->
<g id="Node000005" class="node"><title>Node5</title>
<g id="a_Node000005"><a xlink:href="group___advanced_sorts.html#gaa369b74c9050d30aa2416f9dba8cc8f5" target="_top" xlink:title="Rychlé třídění výměnou (Quick Sort) s volbou prostředního prvku jako pivota.">
<polygon fill="white" stroke="#666666" points="164.5,-167 102.5,-167 102.5,-148 164.5,-148 164.5,-167"/>
<text text-anchor="middle" x="133.5" y="-155" font-family="Helvetica,sans-Serif" font-size="10.00">quick_sort</text>
</a>
</g>
</g>
<!-- Node1&#45;&gt;Node5 -->
<g id="edge4_Node000001_Node000005" class="edge"><title>Node1&#45;&gt;Node5</title>
<g id="a_edge4_Node000001_Node000005"><a xlink:title=" ">
<path fill="none" stroke="#63b8ff" d="M218.627,-144.814C200.933,-147.482 180.725,-150.53 164.55,-152.969"/>
<polygon fill="#63b8ff" stroke="#63b8ff" points="219.339,-148.247 228.705,-143.295 218.295,-141.325 219.339,-148.247"/>
</a>
</g>
</g>
<!-- Node7 -->
<g id="Node000007" class="node"><title>Node7</title>
<g id="a_Node000007"><a xlink:href="group___advanced_sorts_with_span.html#ga451c79ea7ae3de87d73ed333460ea2d5" target="_top" xlink:title="Rychlé třídění výměnou (Quick Sort with span) s volbou prostředního prvku jako pivota a využívající t...">
<polygon fill="white" stroke="#666666" points="188.5,-130 78.5,-130 78.5,-111 188.5,-111 188.5,-130"/>
<text text-anchor="middle" x="133.5" y="-118" font-family="Helvetica,sans-Serif" font-size="10.00">quick_sort_with_span</text>
</a>
</g>
</g>
<!-- Node1&#45;&gt;Node7 -->
<g id="edge6_Node000001_Node000007" class="edge"><title>Node1&#45;&gt;Node7</title>
<g id="a_edge6_Node000001_Node000007"><a xlink:title=" ">
<path fill="none" stroke="#63b8ff" d="M218.675,-132.525C209.121,-131.16 198.831,-129.69 188.838,-128.263"/>
<polygon fill="#63b8ff" stroke="#63b8ff" points="218.31,-136.008 228.705,-133.958 219.3,-129.079 218.31,-136.008"/>
</a>
</g>
</g>
<!-- Node8 -->
<g id="Node000008" class="node"><title>Node8</title>
<g id="a_Node000008"><a xlink:href="group___basic_sorts.html#ga3688a58781905ac2e518285b8bb711ec" target="_top" xlink:title="Třídění přímým výběrem (Select Sort)">
<polygon fill="white" stroke="#666666" points="166,-93 101,-93 101,-74 166,-74 166,-93"/>
<text text-anchor="middle" x="133.5" y="-81" font-family="Helvetica,sans-Serif" font-size="10.00">select_sort</text>
</a>
</g>
</g>
<!-- Node1&#45;&gt;Node8 -->
<g id="edge8_Node000001_Node000008" class="edge"><title>Node1&#45;&gt;Node8</title>
<g id="a_edge8_Node000001_Node000008"><a xlink:title=" ">
<path fill="none" stroke="#63b8ff" d="M235.609,-123.871C223.083,-116.861 207.512,-108.67 193,-102.5 184.45,-98.8651 174.955,-95.5064 166.145,-92.656"/>
<polygon fill="#63b8ff" stroke="#63b8ff" points="234.104,-127.041 244.526,-128.948 237.567,-120.958 234.104,-127.041"/>
</a>
</g>
</g>
<!-- Node9 -->
<g id="Node000009" class="node"><title>Node9</title>
<g id="a_Node000009"><a xlink:href="group___basic_sorts.html#gaacee5d609500566a6ad1724486ab8bb2" target="_top" xlink:title="Třídění přímou výměnou se změnou postupu třídění (Shaker Sort)">
<polygon fill="white" stroke="#666666" points="167.5,-56 99.5,-56 99.5,-37 167.5,-37 167.5,-56"/>
<text text-anchor="middle" x="133.5" y="-44" font-family="Helvetica,sans-Serif" font-size="10.00">shaker_sort</text>
</a>
</g>
</g>
<!-- Node1&#45;&gt;Node9 -->
<g id="edge9_Node000001_Node000009" class="edge"><title>Node1&#45;&gt;Node9</title>
<g id="a_edge9_Node000001_Node000009"><a xlink:title=" ">
<path fill="none" stroke="#63b8ff" d="M248.25,-120.726C236.026,-104.235 215.817,-80.1019 193,-65.5 185.355,-60.6074 176.337,-56.8691 167.701,-54.0581"/>
<polygon fill="#63b8ff" stroke="#63b8ff" points="245.51,-122.911 254.185,-128.992 251.196,-118.828 245.51,-122.911"/>
</a>
</g>
</g>
<!-- Node10 -->
<g id="Node000010" class="node"><title>Node10</title>
<g id="a_Node000010"><a xlink:href="group___t_span.html#ga5b310d0b45f3dc6cc58b4ade80379cf5" target="_top" xlink:title="Test platnosti Spanu.">
<polygon fill="white" stroke="#666666" points="170.5,-19 96.5,-19 96.5,-0 170.5,-0 170.5,-19"/>
<text text-anchor="middle" x="133.5" y="-7" font-family="Helvetica,sans-Serif" font-size="10.00">span_is_valid</text>
</a>
</g>
</g>
<!-- Node1&#45;&gt;Node10 -->
<g id="edge10_Node000001_Node000010" class="edge"><title>Node1&#45;&gt;Node10</title>
<g id="a_edge10_Node000001_Node000010"><a xlink:title=" ">
<path fill="none" stroke="#63b8ff" d="M253.624,-119.39C243.854,-94.8785 223.664,-52.6556 193,-28.5 186.457,-23.3458 178.47,-19.5686 170.527,-16.8078"/>
<polygon fill="#63b8ff" stroke="#63b8ff" points="250.45,-120.891 257.277,-128.993 256.992,-118.402 250.45,-120.891"/>
</a>
</g>
</g>
<!-- Node6 -->
<g id="Node000006" class="node"><title>Node6</title>
<g id="a_Node000006"><a xlink:href="group___main_program.html#ga0ddf1224851353fc92bfbff6f499fa97" target="_top" xlink:title=" ">
<polygon fill="white" stroke="#666666" points="38,-148 0,-148 0,-129 38,-129 38,-148"/>
<text text-anchor="middle" x="19" y="-136" font-family="Helvetica,sans-Serif" font-size="10.00">main</text>
</a>
</g>
</g>
<!-- Node5&#45;&gt;Node6 -->
<g id="edge5_Node000005_Node000006" class="edge"><title>Node5&#45;&gt;Node6</title>
<g id="a_edge5_Node000005_Node000006"><a xlink:title=" ">
<path fill="none" stroke="#63b8ff" d="M92.3966,-150.727C73.9031,-147.604 52.8656,-144.051 38.2529,-141.583"/>
<polygon fill="#63b8ff" stroke="#63b8ff" points="91.9088,-154.194 102.352,-152.408 93.0746,-147.292 91.9088,-154.194"/>
</a>
</g>
</g>
<!-- Node7&#45;&gt;Node6 -->
<g id="edge7_Node000007_Node000006" class="edge"><title>Node7&#45;&gt;Node6</title>
<g id="a_edge7_Node000007_Node000006"><a xlink:title=" ">
<path fill="none" stroke="#63b8ff" d="M68.0551,-130.811C57.0555,-132.571 46.4831,-134.263 38.0692,-135.609"/>
<polygon fill="#63b8ff" stroke="#63b8ff" points="68.9058,-134.22 78.2272,-129.184 67.7998,-127.308 68.9058,-134.22"/>
</a>
</g>
</g>
</g>
</svg>
