<?xml version="1.0" encoding="UTF-8" standalone="no"?>
<!DOCTYPE svg PUBLIC "-//W3C//DTD SVG 1.1//EN"
 "http://www.w3.org/Graphics/SVG/1.1/DTD/svg11.dtd">
<!-- Generated by graphviz version 2.38.0 (20140413.2041)
 -->
<!-- Title: shell_sort Pages: 1 -->
<svg width="570pt" height="150pt"
 viewBox="0.00 0.00 570.00 149.50" xmlns="http://www.w3.org/2000/svg" xmlns:xlink="http://www.w3.org/1999/xlink">
<g id="graph0" class="graph" transform="scale(1 1) rotate(0) translate(4 145.5)">
<title>shell_sort</title>
<!-- Node1 -->
<g id="Node000001" class="node"><title>Node1</title>
<g id="a_Node000001"><a xlink:title="Shellovo třídění vkládáním s ubývajícím krokem (Shell Sort) dle Hibbardovy posloupnosti.">
<polygon fill="#999999" stroke="#666666" points="59,-74 0,-74 0,-55 59,-55 59,-74"/>
<text text-anchor="middle" x="29.5" y="-62" font-family="Helvetica,sans-Serif" font-size="10.00">shell_sort</text>
</a>
</g>
</g>
<!-- Node2 -->
<g id="Node000002" class="node"><title>Node2</title>
<g id="a_Node000002"><a xlink:href="group__sortable___t_vector.html#ga09e150aa4cdd8faabf43474ab1dbe454" target="_top" xlink:title="Porovnání mezi hodnotou elementu vektoru a hodnotou typu VectorElement.">
<polygon fill="white" stroke="#666666" points="219,-141.5 95,-141.5 95,-111.5 219,-111.5 219,-141.5"/>
<text text-anchor="start" x="103" y="-129.5" font-family="Helvetica,sans-Serif" font-size="10.00">vector_compare_position</text>
<text text-anchor="middle" x="157" y="-118.5" font-family="Helvetica,sans-Serif" font-size="10.00">_value</text>
</a>
</g>
</g>
<!-- Node1&#45;&gt;Node2 -->
<g id="edge1_Node000001_Node000002" class="edge"><title>Node1&#45;&gt;Node2</title>
<g id="a_edge1_Node000001_Node000002"><a xlink:title=" ">
<path fill="none" stroke="#63b8ff" d="M45.8288,-74.0589C58.7056,-81.9012 77.7208,-93.0488 95,-101.5 99.0418,-103.477 103.281,-105.436 107.561,-107.337"/>
<polygon fill="#63b8ff" stroke="#63b8ff" points="106.369,-110.634 116.937,-111.387 109.145,-104.208 106.369,-110.634"/>
</a>
</g>
</g>
<!-- Node5 -->
<g id="Node000005" class="node"><title>Node5</title>
<g id="a_Node000005"><a xlink:href="group__sortable___t_vector.html#ga16623c06371077674f5d4d31e38e42a4" target="_top" xlink:title="Přesun hodnoty elementu vektoru.">
<polygon fill="white" stroke="#666666" points="214,-93 100,-93 100,-74 214,-74 214,-93"/>
<text text-anchor="middle" x="157" y="-81" font-family="Helvetica,sans-Serif" font-size="10.00">vector_move_positions</text>
</a>
</g>
</g>
<!-- Node1&#45;&gt;Node5 -->
<g id="edge4_Node000001_Node000005" class="edge"><title>Node1&#45;&gt;Node5</title>
<g id="a_edge4_Node000001_Node000005"><a xlink:title=" ">
<path fill="none" stroke="#63b8ff" d="M59.2922,-68.859C68.545,-70.2598 79.2075,-71.874 89.9985,-73.5077"/>
<polygon fill="#63b8ff" stroke="#63b8ff" points="89.4967,-76.9716 99.908,-75.008 90.5446,-70.0504 89.4967,-76.9716"/>
</a>
</g>
</g>
<!-- Node7 -->
<g id="Node000007" class="node"><title>Node7</title>
<g id="a_Node000007"><a xlink:href="group___t_vector.html#gabd5ba54950295545d27b1286234ead39" target="_top" xlink:title="Zapsání hodnoty elementu do vektoru na požadovanou pozici.">
<polygon fill="white" stroke="#666666" points="201,-56 113,-56 113,-37 201,-37 201,-56"/>
<text text-anchor="middle" x="157" y="-44" font-family="Helvetica,sans-Serif" font-size="10.00">vector_set_value</text>
</a>
</g>
</g>
<!-- Node1&#45;&gt;Node7 -->
<g id="edge6_Node000001_Node000007" class="edge"><title>Node1&#45;&gt;Node7</title>
<g id="a_edge6_Node000001_Node000007"><a xlink:title=" ">
<path fill="none" stroke="#63b8ff" d="M59.2922,-60.3704C72.1102,-58.532 87.6335,-56.3056 102.456,-54.1796"/>
<polygon fill="#63b8ff" stroke="#63b8ff" points="103.162,-57.6142 112.564,-52.7298 102.169,-50.6851 103.162,-57.6142"/>
</a>
</g>
</g>
<!-- Node9 -->
<g id="Node000009" class="node"><title>Node9</title>
<g id="a_Node000009"><a xlink:href="group___t_vector.html#ga2b08236d9825632cd96bcc89faed929c" target="_top" xlink:title="Přečtení hodnoty elementu z vektoru na požadované pozici.">
<polygon fill="white" stroke="#666666" points="191.5,-19 122.5,-19 122.5,-0 191.5,-0 191.5,-19"/>
<text text-anchor="middle" x="157" y="-7" font-family="Helvetica,sans-Serif" font-size="10.00">vector_value</text>
</a>
</g>
</g>
<!-- Node1&#45;&gt;Node9 -->
<g id="edge8_Node000001_Node000009" class="edge"><title>Node1&#45;&gt;Node9</title>
<g id="a_edge8_Node000001_Node000009"><a xlink:title=" ">
<path fill="none" stroke="#63b8ff" d="M44.8522,-54.9602C57.6007,-46.8094 76.9562,-35.2114 95,-27.5 100.529,-25.1371 106.466,-22.9651 112.386,-21.0096"/>
<polygon fill="#63b8ff" stroke="#63b8ff" points="113.758,-24.248 122.261,-17.9275 111.672,-17.5659 113.758,-24.248"/>
</a>
</g>
</g>
<!-- Node3 -->
<g id="Node000003" class="node"><title>Node3</title>
<g id="a_Node000003"><a xlink:href="_t_vector_8c.html#a8254190a2b4fe570173cc77dba0ee7a4" target="_top" xlink:title=" ">
<polygon fill="white" stroke="#666666" points="375.5,-141.5 269.5,-141.5 269.5,-111.5 375.5,-111.5 375.5,-141.5"/>
<text text-anchor="start" x="277.5" y="-129.5" font-family="Helvetica,sans-Serif" font-size="10.00">vector_fast_compare</text>
<text text-anchor="middle" x="322.5" y="-118.5" font-family="Helvetica,sans-Serif" font-size="10.00">_position_value</text>
</a>
</g>
</g>
<!-- Node2&#45;&gt;Node3 -->
<g id="edge2_Node000002_Node000003" class="edge"><title>Node2&#45;&gt;Node3</title>
<g id="a_edge2_Node000002_Node000003"><a xlink:title=" ">
<path fill="none" stroke="#63b8ff" d="M219.347,-126.5C232.359,-126.5 246.109,-126.5 259.159,-126.5"/>
<polygon fill="#63b8ff" stroke="#63b8ff" points="259.446,-130 269.446,-126.5 259.446,-123 259.446,-130"/>
</a>
</g>
</g>
<!-- Node4 -->
<g id="Node000004" class="node"><title>Node4</title>
<g id="a_Node000004"><a xlink:href="group___t_vector_element.html#ga82e527836fce12c93af896f65e9f701d" target="_top" xlink:title="Porovnání dvou elementů">
<polygon fill="white" stroke="#666666" points="562,-136 426,-136 426,-117 562,-117 562,-136"/>
<text text-anchor="middle" x="494" y="-124" font-family="Helvetica,sans-Serif" font-size="10.00">vector_element_comparator</text>
</a>
</g>
</g>
<!-- Node3&#45;&gt;Node4 -->
<g id="edge3_Node000003_Node000004" class="edge"><title>Node3&#45;&gt;Node4</title>
<g id="a_edge3_Node000003_Node000004"><a xlink:title=" ">
<path fill="none" stroke="#63b8ff" d="M375.739,-126.5C388.373,-126.5 402.144,-126.5 415.662,-126.5"/>
<polygon fill="#63b8ff" stroke="#63b8ff" points="415.926,-130 425.926,-126.5 415.926,-123 415.926,-130"/>
</a>
</g>
</g>
<!-- Node6 -->
<g id="Node000006" class="node"><title>Node6</title>
<g id="a_Node000006"><a xlink:href="_t_vector_8c.html#a0e3151269c65b7033ddecb4c3aee6566" target="_top" xlink:title=" ">
<polygon fill="white" stroke="#666666" points="390,-93 255,-93 255,-74 390,-74 390,-93"/>
<text text-anchor="middle" x="322.5" y="-81" font-family="Helvetica,sans-Serif" font-size="10.00">vector_fast_move_positions</text>
</a>
</g>
</g>
<!-- Node5&#45;&gt;Node6 -->
<g id="edge5_Node000005_Node000006" class="edge"><title>Node5&#45;&gt;Node6</title>
<g id="a_edge5_Node000005_Node000006"><a xlink:title=" ">
<path fill="none" stroke="#63b8ff" d="M214.267,-83.5C224.105,-83.5 234.49,-83.5 244.768,-83.5"/>
<polygon fill="#63b8ff" stroke="#63b8ff" points="244.987,-87.0001 254.987,-83.5 244.987,-80.0001 244.987,-87.0001"/>
</a>
</g>
</g>
<!-- Node8 -->
<g id="Node000008" class="node"><title>Node8</title>
<g id="a_Node000008"><a xlink:href="_t_vector_8c.html#a689bf71829922c70ca1964e125e94217" target="_top" xlink:title=" ">
<polygon fill="white" stroke="#666666" points="377,-56 268,-56 268,-37 377,-37 377,-56"/>
<text text-anchor="middle" x="322.5" y="-44" font-family="Helvetica,sans-Serif" font-size="10.00">vector_fast_set_value</text>
</a>
</g>
</g>
<!-- Node7&#45;&gt;Node8 -->
<g id="edge7_Node000007_Node000008" class="edge"><title>Node7&#45;&gt;Node8</title>
<g id="a_edge7_Node000007_Node000008"><a xlink:title=" ">
<path fill="none" stroke="#63b8ff" d="M201.386,-46.5C218.707,-46.5 239.001,-46.5 257.925,-46.5"/>
<polygon fill="#63b8ff" stroke="#63b8ff" points="257.971,-50.0001 267.971,-46.5 257.971,-43.0001 257.971,-50.0001"/>
</a>
</g>
</g>
<!-- Node10 -->
<g id="Node000010" class="node"><title>Node10</title>
<g id="a_Node000010"><a xlink:href="_t_vector_8c.html#a0fe5f1145e51f154b5470d640c5d682c" target="_top" xlink:title=" ">
<polygon fill="white" stroke="#666666" points="367.5,-19 277.5,-19 277.5,-0 367.5,-0 367.5,-19"/>
<text text-anchor="middle" x="322.5" y="-7" font-family="Helvetica,sans-Serif" font-size="10.00">vector_fast_value</text>
</a>
</g>
</g>
<!-- Node9&#45;&gt;Node10 -->
<g id="edge9_Node000009_Node000010" class="edge"><title>Node9&#45;&gt;Node10</title>
<g id="a_edge9_Node000009_Node000010"><a xlink:title=" ">
<path fill="none" stroke="#63b8ff" d="M191.877,-9.5C213.663,-9.5 242.451,-9.5 267.363,-9.5"/>
<polygon fill="#63b8ff" stroke="#63b8ff" points="267.411,-13.0001 277.411,-9.5 267.411,-6.0001 267.411,-13.0001"/>
</a>
</g>
</g>
</g>
</svg>
