<?xml version="1.0" encoding="UTF-8" standalone="no"?>
<!DOCTYPE svg PUBLIC "-//W3C//DTD SVG 1.1//EN"
 "http://www.w3.org/Graphics/SVG/1.1/DTD/svg11.dtd">
<!-- Generated by graphviz version 2.38.0 (20140413.2041)
 -->
<!-- Title: vector_compare_with_iterators Pages: 1 -->
<svg width="429pt" height="86pt"
 viewBox="0.00 0.00 429.00 86.00" xmlns="http://www.w3.org/2000/svg" xmlns:xlink="http://www.w3.org/1999/xlink">
<g id="graph0" class="graph" transform="scale(1 1) rotate(0) translate(4 82)">
<title>vector_compare_with_iterators</title>
<!-- Node1 -->
<g id="Node000001" class="node"><title>Node1</title>
<g id="a_Node000001"><a xlink:title="Porovnání hodnot elementů vektorů určených dvěma iterátory.">
<polygon fill="#999999" stroke="#666666" points="107,-54 0,-54 0,-24 107,-24 107,-54"/>
<text text-anchor="start" x="8" y="-42" font-family="Helvetica,sans-Serif" font-size="10.00">vector_compare_with</text>
<text text-anchor="middle" x="53.5" y="-31" font-family="Helvetica,sans-Serif" font-size="10.00">_iterators</text>
</a>
</g>
</g>
<!-- Node2 -->
<g id="Node000002" class="node"><title>Node2</title>
<g id="a_Node000002"><a xlink:href="_t_vector_8c.html#a188bab569c3ae8a25070f632a6f53e62" target="_top" xlink:title=" ">
<polygon fill="white" stroke="#666666" points="249,-78 143,-78 143,-48 249,-48 249,-78"/>
<text text-anchor="start" x="151" y="-66" font-family="Helvetica,sans-Serif" font-size="10.00">vector_fast_compare</text>
<text text-anchor="middle" x="196" y="-55" font-family="Helvetica,sans-Serif" font-size="10.00">_positions</text>
</a>
</g>
</g>
<!-- Node1&#45;&gt;Node2 -->
<g id="edge1_Node000001_Node000002" class="edge"><title>Node1&#45;&gt;Node2</title>
<g id="a_edge1_Node000001_Node000002"><a xlink:title=" ">
<path fill="none" stroke="#63b8ff" d="M107.217,-48.005C115.612,-49.439 124.363,-50.934 132.95,-52.4007"/>
<polygon fill="#63b8ff" stroke="#63b8ff" points="132.475,-55.8702 142.922,-54.1041 133.654,-48.9701 132.475,-55.8702"/>
</a>
</g>
</g>
<!-- Node4 -->
<g id="Node000004" class="node"><title>Node4</title>
<g id="a_Node000004"><a xlink:href="group___t_vector_iterator.html#ga3f8a97a63f887539e270f6845bf22b9a" target="_top" xlink:title="Zjištění platnosti iterátoru.">
<polygon fill="white" stroke="#666666" points="241,-30 151,-30 151,-0 241,-0 241,-30"/>
<text text-anchor="start" x="159" y="-18" font-family="Helvetica,sans-Serif" font-size="10.00">vector_iterator_is</text>
<text text-anchor="middle" x="196" y="-7" font-family="Helvetica,sans-Serif" font-size="10.00">_valid</text>
</a>
</g>
</g>
<!-- Node1&#45;&gt;Node4 -->
<g id="edge3_Node000001_Node000004" class="edge"><title>Node1&#45;&gt;Node4</title>
<g id="a_edge3_Node000001_Node000004"><a xlink:title=" ">
<path fill="none" stroke="#63b8ff" d="M107.217,-29.995C118.186,-28.1212 129.765,-26.1434 140.787,-24.2606"/>
<polygon fill="#63b8ff" stroke="#63b8ff" points="141.452,-27.6978 150.72,-22.5639 140.273,-20.7977 141.452,-27.6978"/>
</a>
</g>
</g>
<!-- Node3 -->
<g id="Node000003" class="node"><title>Node3</title>
<g id="a_Node000003"><a xlink:href="group___t_vector_element.html#ga82e527836fce12c93af896f65e9f701d" target="_top" xlink:title="Porovnání dvou elementů">
<polygon fill="white" stroke="#666666" points="421,-72.5 285,-72.5 285,-53.5 421,-53.5 421,-72.5"/>
<text text-anchor="middle" x="353" y="-60.5" font-family="Helvetica,sans-Serif" font-size="10.00">vector_element_comparator</text>
</a>
</g>
</g>
<!-- Node2&#45;&gt;Node3 -->
<g id="edge2_Node000002_Node000003" class="edge"><title>Node2&#45;&gt;Node3</title>
<g id="a_edge2_Node000002_Node000003"><a xlink:title=" ">
<path fill="none" stroke="#63b8ff" d="M249.044,-63C257.325,-63 266.042,-63 274.754,-63"/>
<polygon fill="#63b8ff" stroke="#63b8ff" points="274.954,-66.5001 284.954,-63 274.954,-59.5001 274.954,-66.5001"/>
</a>
</g>
</g>
</g>
</svg>
