<?xml version="1.0" encoding="UTF-8" standalone="no"?>
<!DOCTYPE svg PUBLIC "-//W3C//DTD SVG 1.1//EN"
 "http://www.w3.org/Graphics/SVG/1.1/DTD/svg11.dtd">
<!-- Generated by graphviz version 2.38.0 (20140413.2041)
 -->
<!-- Title: vector_move_with_iterators Pages: 1 -->
<svg width="312pt" height="76pt"
 viewBox="0.00 0.00 312.00 75.50" xmlns="http://www.w3.org/2000/svg" xmlns:xlink="http://www.w3.org/1999/xlink">
<g id="graph0" class="graph" transform="scale(1 1) rotate(0) translate(4 71.5)">
<title>vector_move_with_iterators</title>
<!-- Node1 -->
<g id="Node000001" class="node"><title>Node1</title>
<g id="a_Node000001"><a xlink:title="Přesun hodnoty elementu vektoru určené dvěma iterátory.">
<polygon fill="#999999" stroke="#666666" points="133,-45.5 0,-45.5 0,-26.5 133,-26.5 133,-45.5"/>
<text text-anchor="middle" x="66.5" y="-33.5" font-family="Helvetica,sans-Serif" font-size="10.00">vector_move_with_iterators</text>
</a>
</g>
</g>
<!-- Node2 -->
<g id="Node000002" class="node"><title>Node2</title>
<g id="a_Node000002"><a xlink:href="_t_vector_8c.html#a0e3151269c65b7033ddecb4c3aee6566" target="_top" xlink:title=" ">
<polygon fill="white" stroke="#666666" points="304,-67.5 169,-67.5 169,-48.5 304,-48.5 304,-67.5"/>
<text text-anchor="middle" x="236.5" y="-55.5" font-family="Helvetica,sans-Serif" font-size="10.00">vector_fast_move_positions</text>
</a>
</g>
</g>
<!-- Node1&#45;&gt;Node2 -->
<g id="edge1_Node000001_Node000002" class="edge"><title>Node1&#45;&gt;Node2</title>
<g id="a_edge1_Node000001_Node000002"><a xlink:title=" ">
<path fill="none" stroke="#63b8ff" d="M133.416,-44.6318C141.807,-45.7307 150.451,-46.8626 158.991,-47.9809"/>
<polygon fill="#63b8ff" stroke="#63b8ff" points="158.577,-51.4565 168.946,-49.2847 159.486,-44.5158 158.577,-51.4565"/>
</a>
</g>
</g>
<!-- Node3 -->
<g id="Node000003" class="node"><title>Node3</title>
<g id="a_Node000003"><a xlink:href="group___t_vector_iterator.html#ga3f8a97a63f887539e270f6845bf22b9a" target="_top" xlink:title="Zjištění platnosti iterátoru.">
<polygon fill="white" stroke="#666666" points="281.5,-30 191.5,-30 191.5,-0 281.5,-0 281.5,-30"/>
<text text-anchor="start" x="199.5" y="-18" font-family="Helvetica,sans-Serif" font-size="10.00">vector_iterator_is</text>
<text text-anchor="middle" x="236.5" y="-7" font-family="Helvetica,sans-Serif" font-size="10.00">_valid</text>
</a>
</g>
</g>
<!-- Node1&#45;&gt;Node3 -->
<g id="edge2_Node000001_Node000003" class="edge"><title>Node1&#45;&gt;Node3</title>
<g id="a_edge2_Node000001_Node000003"><a xlink:title=" ">
<path fill="none" stroke="#63b8ff" d="M133.416,-27.7605C149.175,-25.7906 165.827,-23.7092 181.005,-21.8118"/>
<polygon fill="#63b8ff" stroke="#63b8ff" points="181.761,-25.2447 191.249,-20.5313 180.892,-18.2988 181.761,-25.2447"/>
</a>
</g>
</g>
</g>
</svg>
