<?xml version="1.0" encoding="UTF-8" standalone="no"?>
<!DOCTYPE svg PUBLIC "-//W3C//DTD SVG 1.1//EN"
 "http://www.w3.org/Graphics/SVG/1.1/DTD/svg11.dtd">
<!-- Generated by graphviz version 2.38.0 (20140413.2041)
 -->
<!-- Title: vector_compare_positions Pages: 1 -->
<svg width="298pt" height="212pt"
 viewBox="0.00 0.00 298.00 212.00" xmlns="http://www.w3.org/2000/svg" xmlns:xlink="http://www.w3.org/1999/xlink">
<g id="graph0" class="graph" transform="scale(1 1) rotate(0) translate(4 208)">
<title>vector_compare_positions</title>
<!-- Node1 -->
<g id="Node000001" class="node"><title>Node1</title>
<g id="a_Node000001"><a xlink:title="Porovnání hodnot elementů vektorů">
<polygon fill="#999999" stroke="#666666" points="290,-111 161,-111 161,-92 290,-92 290,-111"/>
<text text-anchor="middle" x="225.5" y="-99" font-family="Helvetica,sans-Serif" font-size="10.00">vector_compare_positions</text>
</a>
</g>
</g>
<!-- Node2 -->
<g id="Node000002" class="node"><title>Node2</title>
<g id="a_Node000002"><a xlink:href="group___basic_sorts.html#gaa1ef093f5205f293df8303ac228452fc" target="_top" xlink:title="Třídění přímou výměnou (Bubble Sort)">
<polygon fill="white" stroke="#666666" points="96,-204 29,-204 29,-185 96,-185 96,-204"/>
<text text-anchor="middle" x="62.5" y="-192" font-family="Helvetica,sans-Serif" font-size="10.00">bubble_sort</text>
</a>
</g>
</g>
<!-- Node1&#45;&gt;Node2 -->
<g id="edge1_Node000001_Node000002" class="edge"><title>Node1&#45;&gt;Node2</title>
<g id="a_edge1_Node000001_Node000002"><a xlink:title=" ">
<path fill="none" stroke="#63b8ff" d="M206.782,-118.042C187.853,-134.911 156.322,-160.773 125,-176.5 116.052,-180.993 105.794,-184.551 96.254,-187.277"/>
<polygon fill="#63b8ff" stroke="#63b8ff" points="209.262,-120.518 214.316,-111.207 204.558,-115.334 209.262,-120.518"/>
</a>
</g>
</g>
<!-- Node3 -->
<g id="Node000003" class="node"><title>Node3</title>
<g id="a_Node000003"><a xlink:href="group___basic_sorts.html#ga62a36eb31bf0a873f7c027e145843b1a" target="_top" xlink:title="Třídění přímou výměnou včetně optimalizace s pomocným příznakem ukončení třídění (Bubble Sort Optimiz...">
<polygon fill="white" stroke="#666666" points="119.5,-167 5.5,-167 5.5,-148 119.5,-148 119.5,-167"/>
<text text-anchor="middle" x="62.5" y="-155" font-family="Helvetica,sans-Serif" font-size="10.00">bubble_sort_optimized</text>
</a>
</g>
</g>
<!-- Node1&#45;&gt;Node3 -->
<g id="edge2_Node000001_Node000003" class="edge"><title>Node1&#45;&gt;Node3</title>
<g id="a_edge2_Node000001_Node000003"><a xlink:title=" ">
<path fill="none" stroke="#63b8ff" d="M191.454,-114.883C172.203,-122.487 147.385,-131.963 125,-139.5 116.249,-142.446 106.708,-145.374 97.8085,-147.986"/>
<polygon fill="#63b8ff" stroke="#63b8ff" points="192.972,-118.046 200.97,-111.098 190.385,-111.541 192.972,-118.046"/>
</a>
</g>
</g>
<!-- Node4 -->
<g id="Node000004" class="node"><title>Node4</title>
<g id="a_Node000004"><a xlink:href="group___basic_sorts.html#gaba41a68f00241f38f7864b4e1dacd086" target="_top" xlink:title="Třídění přímou výměnou včetně optimalizace s výpočtem indexu poslední změny (Bubble Sort Optimized2)">
<polygon fill="white" stroke="#666666" points="122,-130 3,-130 3,-111 122,-111 122,-130"/>
<text text-anchor="middle" x="62.5" y="-118" font-family="Helvetica,sans-Serif" font-size="10.00">bubble_sort_optimized2</text>
</a>
</g>
</g>
<!-- Node1&#45;&gt;Node4 -->
<g id="edge3_Node000001_Node000004" class="edge"><title>Node1&#45;&gt;Node4</title>
<g id="a_edge3_Node000001_Node000004"><a xlink:title=" ">
<path fill="none" stroke="#63b8ff" d="M150.917,-110.184C141.299,-111.319 131.548,-112.47 122.219,-113.57"/>
<polygon fill="#63b8ff" stroke="#63b8ff" points="151.348,-113.657 160.869,-109.009 150.527,-106.706 151.348,-113.657"/>
</a>
</g>
</g>
<!-- Node5 -->
<g id="Node000005" class="node"><title>Node5</title>
<g id="a_Node000005"><a xlink:href="group___basic_sorts.html#ga3688a58781905ac2e518285b8bb711ec" target="_top" xlink:title="Třídění přímým výběrem (Select Sort)">
<polygon fill="white" stroke="#666666" points="95,-93 30,-93 30,-74 95,-74 95,-93"/>
<text text-anchor="middle" x="62.5" y="-81" font-family="Helvetica,sans-Serif" font-size="10.00">select_sort</text>
</a>
</g>
</g>
<!-- Node1&#45;&gt;Node5 -->
<g id="edge4_Node000001_Node000005" class="edge"><title>Node1&#45;&gt;Node5</title>
<g id="a_edge4_Node000001_Node000005"><a xlink:title=" ">
<path fill="none" stroke="#63b8ff" d="M150.751,-93.2548C131.265,-91.0762 111.247,-88.8382 95.3084,-87.0562"/>
<polygon fill="#63b8ff" stroke="#63b8ff" points="150.542,-96.7531 160.869,-94.3859 151.319,-89.7964 150.542,-96.7531"/>
</a>
</g>
</g>
<!-- Node6 -->
<g id="Node000006" class="node"><title>Node6</title>
<g id="a_Node000006"><a xlink:href="group___basic_sorts.html#gaacee5d609500566a6ad1724486ab8bb2" target="_top" xlink:title="Třídění přímou výměnou se změnou postupu třídění (Shaker Sort)">
<polygon fill="white" stroke="#666666" points="96.5,-56 28.5,-56 28.5,-37 96.5,-37 96.5,-56"/>
<text text-anchor="middle" x="62.5" y="-44" font-family="Helvetica,sans-Serif" font-size="10.00">shaker_sort</text>
</a>
</g>
</g>
<!-- Node1&#45;&gt;Node6 -->
<g id="edge5_Node000001_Node000006" class="edge"><title>Node1&#45;&gt;Node6</title>
<g id="a_edge5_Node000001_Node000006"><a xlink:title=" ">
<path fill="none" stroke="#63b8ff" d="M189.797,-88.4861C170.745,-81.4574 146.655,-72.7581 125,-65.5 115.464,-62.3038 105.032,-59.0066 95.5121,-56.0745"/>
<polygon fill="#63b8ff" stroke="#63b8ff" points="188.667,-91.8002 199.261,-91.9929 191.1,-85.2363 188.667,-91.8002"/>
</a>
</g>
</g>
<!-- Node7 -->
<g id="Node000007" class="node"><title>Node7</title>
<g id="a_Node000007"><a xlink:href="group___t_span.html#gaffd3a758138012dac875ceda42a975db" target="_top" xlink:title="Porovnání hodnot elementů Spanů">
<polygon fill="white" stroke="#666666" points="125,-19 0,-19 0,-0 125,-0 125,-19"/>
<text text-anchor="middle" x="62.5" y="-7" font-family="Helvetica,sans-Serif" font-size="10.00">span_compare_positions</text>
</a>
</g>
</g>
<!-- Node1&#45;&gt;Node7 -->
<g id="edge6_Node000001_Node000007" class="edge"><title>Node1&#45;&gt;Node7</title>
<g id="a_edge6_Node000001_Node000007"><a xlink:title=" ">
<path fill="none" stroke="#63b8ff" d="M206.346,-85.2557C187.282,-68.9301 155.84,-44.0227 125,-28.5 117.613,-24.7821 109.358,-21.6261 101.354,-19.0177"/>
<polygon fill="#63b8ff" stroke="#63b8ff" points="204.115,-87.9536 213.955,-91.8813 208.712,-82.6746 204.115,-87.9536"/>
</a>
</g>
</g>
</g>
</svg>
