<?xml version="1.0" encoding="UTF-8" standalone="no"?>
<!DOCTYPE svg PUBLIC "-//W3C//DTD SVG 1.1//EN"
 "http://www.w3.org/Graphics/SVG/1.1/DTD/svg11.dtd">
<!-- Generated by graphviz version 2.38.0 (20140413.2041)
 -->
<!-- Title: vector_iterator_value Pages: 1 -->
<svg width="238pt" height="76pt"
 viewBox="0.00 0.00 238.00 75.50" xmlns="http://www.w3.org/2000/svg" xmlns:xlink="http://www.w3.org/1999/xlink">
<g id="graph0" class="graph" transform="scale(1 1) rotate(0) translate(4 71.5)">
<title>vector_iterator_value</title>
<!-- Node1 -->
<g id="Node000001" class="node"><title>Node1</title>
<g id="a_Node000001"><a xlink:title="Přečtení hodnoty elementu z vektoru pomocí iterátoru.">
<polygon fill="#999999" stroke="#666666" points="104,-45.5 0,-45.5 0,-26.5 104,-26.5 104,-45.5"/>
<text text-anchor="middle" x="52" y="-33.5" font-family="Helvetica,sans-Serif" font-size="10.00">vector_iterator_value</text>
</a>
</g>
</g>
<!-- Node2 -->
<g id="Node000002" class="node"><title>Node2</title>
<g id="a_Node000002"><a xlink:href="_t_vector_8c.html#a0fe5f1145e51f154b5470d640c5d682c" target="_top" xlink:title=" ">
<polygon fill="white" stroke="#666666" points="230,-67.5 140,-67.5 140,-48.5 230,-48.5 230,-67.5"/>
<text text-anchor="middle" x="185" y="-55.5" font-family="Helvetica,sans-Serif" font-size="10.00">vector_fast_value</text>
</a>
</g>
</g>
<!-- Node1&#45;&gt;Node2 -->
<g id="edge1_Node000001_Node000002" class="edge"><title>Node1&#45;&gt;Node2</title>
<g id="a_edge1_Node000001_Node000002"><a xlink:title=" ">
<path fill="none" stroke="#63b8ff" d="M104.023,-44.5688C112.491,-45.9909 121.299,-47.4701 129.842,-48.9048"/>
<polygon fill="#63b8ff" stroke="#63b8ff" points="129.271,-52.3577 139.712,-50.5623 130.43,-45.4544 129.271,-52.3577"/>
</a>
</g>
</g>
<!-- Node3 -->
<g id="Node000003" class="node"><title>Node3</title>
<g id="a_Node000003"><a xlink:href="group___t_vector_iterator.html#ga3f8a97a63f887539e270f6845bf22b9a" target="_top" xlink:title="Zjištění platnosti iterátoru.">
<polygon fill="white" stroke="#666666" points="230,-30 140,-30 140,-0 230,-0 230,-30"/>
<text text-anchor="start" x="148" y="-18" font-family="Helvetica,sans-Serif" font-size="10.00">vector_iterator_is</text>
<text text-anchor="middle" x="185" y="-7" font-family="Helvetica,sans-Serif" font-size="10.00">_valid</text>
</a>
</g>
</g>
<!-- Node1&#45;&gt;Node3 -->
<g id="edge2_Node000001_Node000003" class="edge"><title>Node1&#45;&gt;Node3</title>
<g id="a_edge2_Node000001_Node000003"><a xlink:title=" ">
<path fill="none" stroke="#63b8ff" d="M104.023,-27.8207C112.399,-26.478 121.108,-25.0819 129.563,-23.7265"/>
<polygon fill="#63b8ff" stroke="#63b8ff" points="130.392,-27.1384 139.712,-22.0996 129.284,-20.2266 130.392,-27.1384"/>
</a>
</g>
</g>
</g>
</svg>
