<?xml version="1.0" encoding="UTF-8" standalone="no"?>
<!DOCTYPE svg PUBLIC "-//W3C//DTD SVG 1.1//EN"
 "http://www.w3.org/Graphics/SVG/1.1/DTD/svg11.dtd">
<!-- Generated by graphviz version 2.38.0 (20140413.2041)
 -->
<!-- Title: bubble_sort_optimized2 Pages: 1 -->
<svg width="635pt" height="107pt"
 viewBox="0.00 0.00 635.00 106.50" xmlns="http://www.w3.org/2000/svg" xmlns:xlink="http://www.w3.org/1999/xlink">
<g id="graph0" class="graph" transform="scale(1 1) rotate(0) translate(4 102.5)">
<title>bubble_sort_optimized2</title>
<!-- Node1 -->
<g id="Node000001" class="node"><title>Node1</title>
<g id="a_Node000001"><a xlink:title="Třídění přímou výměnou včetně optimalizace s výpočtem indexu poslední změny (Bubble Sort Optimized2)">
<polygon fill="#999999" stroke="#666666" points="119,-56 -7.10543e-015,-56 -7.10543e-015,-37 119,-37 119,-56"/>
<text text-anchor="middle" x="59.5" y="-44" font-family="Helvetica,sans-Serif" font-size="10.00">bubble_sort_optimized2</text>
</a>
</g>
</g>
<!-- Node2 -->
<g id="Node000002" class="node"><title>Node2</title>
<g id="a_Node000002"><a xlink:href="group__sortable___t_vector.html#gaedaf9c79afa345e5e71e5c66ab25fa26" target="_top" xlink:title="Porovnání hodnot elementů vektorů">
<polygon fill="white" stroke="#666666" points="284,-93 155,-93 155,-74 284,-74 284,-93"/>
<text text-anchor="middle" x="219.5" y="-81" font-family="Helvetica,sans-Serif" font-size="10.00">vector_compare_positions</text>
</a>
</g>
</g>
<!-- Node1&#45;&gt;Node2 -->
<g id="edge1_Node000001_Node000002" class="edge"><title>Node1&#45;&gt;Node2</title>
<g id="a_edge1_Node000001_Node000002"><a xlink:title=" ">
<path fill="none" stroke="#63b8ff" d="M101.189,-56.0284C121.475,-60.7789 146.208,-66.5708 167.724,-71.6095"/>
<polygon fill="#63b8ff" stroke="#63b8ff" points="167.14,-75.0673 177.675,-73.9396 168.736,-68.2517 167.14,-75.0673"/>
</a>
</g>
</g>
<!-- Node5 -->
<g id="Node000005" class="node"><title>Node5</title>
<g id="a_Node000005"><a xlink:href="group___t_vector.html#ga2502e6ec116dbac5e49f5b62b07dc898" target="_top" xlink:title="Přečtení počtu elementů vektoru.">
<polygon fill="white" stroke="#666666" points="252,-56 187,-56 187,-37 252,-37 252,-56"/>
<text text-anchor="middle" x="219.5" y="-44" font-family="Helvetica,sans-Serif" font-size="10.00">vector_size</text>
</a>
</g>
</g>
<!-- Node1&#45;&gt;Node5 -->
<g id="edge4_Node000001_Node000005" class="edge"><title>Node1&#45;&gt;Node5</title>
<g id="a_edge4_Node000001_Node000005"><a xlink:title=" ">
<path fill="none" stroke="#63b8ff" d="M119.333,-46.5C138.224,-46.5 158.764,-46.5 176.225,-46.5"/>
<polygon fill="#63b8ff" stroke="#63b8ff" points="176.657,-50.0001 186.657,-46.5 176.657,-43.0001 176.657,-50.0001"/>
</a>
</g>
</g>
<!-- Node6 -->
<g id="Node000006" class="node"><title>Node6</title>
<g id="a_Node000006"><a xlink:href="group__sortable___t_vector.html#gac1982d8a0e5f66f933dc6a0413f2d23e" target="_top" xlink:title="Výměna hodnot elementů vektorů">
<polygon fill="white" stroke="#666666" points="276.5,-19 162.5,-19 162.5,-0 276.5,-0 276.5,-19"/>
<text text-anchor="middle" x="219.5" y="-7" font-family="Helvetica,sans-Serif" font-size="10.00">vector_swap_positions</text>
</a>
</g>
</g>
<!-- Node1&#45;&gt;Node6 -->
<g id="edge5_Node000001_Node000006" class="edge"><title>Node1&#45;&gt;Node6</title>
<g id="a_edge5_Node000001_Node000006"><a xlink:title=" ">
<path fill="none" stroke="#63b8ff" d="M101.189,-36.9716C121.475,-32.2211 146.208,-26.4292 167.724,-21.3905"/>
<polygon fill="#63b8ff" stroke="#63b8ff" points="168.736,-24.7483 177.675,-19.0604 167.14,-17.9327 168.736,-24.7483"/>
</a>
</g>
</g>
<!-- Node3 -->
<g id="Node000003" class="node"><title>Node3</title>
<g id="a_Node000003"><a xlink:href="_t_vector_8c.html#a188bab569c3ae8a25070f632a6f53e62" target="_top" xlink:title=" ">
<polygon fill="white" stroke="#666666" points="440.5,-98.5 334.5,-98.5 334.5,-68.5 440.5,-68.5 440.5,-98.5"/>
<text text-anchor="start" x="342.5" y="-86.5" font-family="Helvetica,sans-Serif" font-size="10.00">vector_fast_compare</text>
<text text-anchor="middle" x="387.5" y="-75.5" font-family="Helvetica,sans-Serif" font-size="10.00">_positions</text>
</a>
</g>
</g>
<!-- Node2&#45;&gt;Node3 -->
<g id="edge2_Node000002_Node000003" class="edge"><title>Node2&#45;&gt;Node3</title>
<g id="a_edge2_Node000002_Node000003"><a xlink:title=" ">
<path fill="none" stroke="#63b8ff" d="M284.205,-83.5C297.263,-83.5 310.996,-83.5 324.011,-83.5"/>
<polygon fill="#63b8ff" stroke="#63b8ff" points="324.268,-87.0001 334.268,-83.5 324.268,-80.0001 324.268,-87.0001"/>
</a>
</g>
</g>
<!-- Node4 -->
<g id="Node000004" class="node"><title>Node4</title>
<g id="a_Node000004"><a xlink:href="group___t_vector_element.html#ga82e527836fce12c93af896f65e9f701d" target="_top" xlink:title="Porovnání dvou elementů">
<polygon fill="white" stroke="#666666" points="627,-93 491,-93 491,-74 627,-74 627,-93"/>
<text text-anchor="middle" x="559" y="-81" font-family="Helvetica,sans-Serif" font-size="10.00">vector_element_comparator</text>
</a>
</g>
</g>
<!-- Node3&#45;&gt;Node4 -->
<g id="edge3_Node000003_Node000004" class="edge"><title>Node3&#45;&gt;Node4</title>
<g id="a_edge3_Node000003_Node000004"><a xlink:title=" ">
<path fill="none" stroke="#63b8ff" d="M440.739,-83.5C453.373,-83.5 467.144,-83.5 480.662,-83.5"/>
<polygon fill="#63b8ff" stroke="#63b8ff" points="480.926,-87.0001 490.926,-83.5 480.926,-80.0001 480.926,-87.0001"/>
</a>
</g>
</g>
<!-- Node7 -->
<g id="Node000007" class="node"><title>Node7</title>
<g id="a_Node000007"><a xlink:href="_t_vector_8c.html#ac70bbb23ab1ec16b867b3e33d40ae1c4" target="_top" xlink:title=" ">
<polygon fill="white" stroke="#666666" points="455,-19 320,-19 320,-0 455,-0 455,-19"/>
<text text-anchor="middle" x="387.5" y="-7" font-family="Helvetica,sans-Serif" font-size="10.00">vector_fast_swap_positions</text>
</a>
</g>
</g>
<!-- Node6&#45;&gt;Node7 -->
<g id="edge6_Node000006_Node000007" class="edge"><title>Node6&#45;&gt;Node7</title>
<g id="a_edge6_Node000006_Node000007"><a xlink:title=" ">
<path fill="none" stroke="#63b8ff" d="M276.7,-9.5C287.286,-9.5 298.524,-9.5 309.615,-9.5"/>
<polygon fill="#63b8ff" stroke="#63b8ff" points="309.736,-13.0001 319.736,-9.5 309.736,-6.0001 309.736,-13.0001"/>
</a>
</g>
</g>
</g>
</svg>
