<?xml version="1.0" encoding="UTF-8" standalone="no"?>
<!DOCTYPE svg PUBLIC "-//W3C//DTD SVG 1.1//EN"
 "http://www.w3.org/Graphics/SVG/1.1/DTD/svg11.dtd">
<!-- Generated by graphviz version 2.38.0 (20140413.2041)
 -->
<!-- Title: vector_iterator_begin Pages: 1 -->
<svg width="334pt" height="101pt"
 viewBox="0.00 0.00 334.00 101.00" xmlns="http://www.w3.org/2000/svg" xmlns:xlink="http://www.w3.org/1999/xlink">
<g id="graph0" class="graph" transform="scale(1 1) rotate(0) translate(4 97)">
<title>vector_iterator_begin</title>
<!-- Node1 -->
<g id="Node000001" class="node"><title>Node1</title>
<g id="a_Node000001"><a xlink:title="Vytvoření nového iterátoru ukazujícího na počáteční element.">
<polygon fill="#999999" stroke="#666666" points="326,-56 220,-56 220,-37 326,-37 326,-56"/>
<text text-anchor="middle" x="273" y="-44" font-family="Helvetica,sans-Serif" font-size="10.00">vector_iterator_begin</text>
</a>
</g>
</g>
<!-- Node2 -->
<g id="Node000002" class="node"><title>Node2</title>
<g id="a_Node000002"><a xlink:href="group___advanced_sorts_with_span.html#ga451c79ea7ae3de87d73ed333460ea2d5" target="_top" xlink:title="Rychlé třídění výměnou (Quick Sort with span) s volbou prostředního prvku jako pivota a využívající t...">
<polygon fill="white" stroke="#666666" points="184,-93 74,-93 74,-74 184,-74 184,-93"/>
<text text-anchor="middle" x="129" y="-81" font-family="Helvetica,sans-Serif" font-size="10.00">quick_sort_with_span</text>
</a>
</g>
</g>
<!-- Node1&#45;&gt;Node2 -->
<g id="edge1_Node000001_Node000002" class="edge"><title>Node1&#45;&gt;Node2</title>
<g id="a_edge1_Node000001_Node000002"><a xlink:title=" ">
<path fill="none" stroke="#63b8ff" d="M225.746,-58.552C206.686,-63.5186 184.905,-69.1938 166.938,-73.8753"/>
<polygon fill="#63b8ff" stroke="#63b8ff" points="226.637,-61.9369 235.431,-56.0284 224.872,-55.163 226.637,-61.9369"/>
</a>
</g>
</g>
<!-- Node4 -->
<g id="Node000004" class="node"><title>Node4</title>
<g id="a_Node000004"><a xlink:href="group___main_program.html#ga7343209645c93203da0a86613abfed04" target="_top" xlink:title="Testování třídicí metody.">
<polygon fill="white" stroke="#666666" points="163,-56 95,-56 95,-37 163,-37 163,-56"/>
<text text-anchor="middle" x="129" y="-44" font-family="Helvetica,sans-Serif" font-size="10.00">sort_testing</text>
</a>
</g>
</g>
<!-- Node1&#45;&gt;Node4 -->
<g id="edge3_Node000001_Node000004" class="edge"><title>Node1&#45;&gt;Node4</title>
<g id="a_edge3_Node000001_Node000004"><a xlink:title=" ">
<path fill="none" stroke="#63b8ff" d="M209.536,-46.5C193.537,-46.5 176.95,-46.5 163.091,-46.5"/>
<polygon fill="#63b8ff" stroke="#63b8ff" points="209.931,-50.0001 219.931,-46.5 209.931,-43.0001 209.931,-50.0001"/>
</a>
</g>
</g>
<!-- Node5 -->
<g id="Node000005" class="node"><title>Node5</title>
<g id="a_Node000005"><a xlink:href="group___t_span.html#ga3877c7871ce8eb1c42a322fa9fd86a41" target="_top" xlink:title="Vytvoření nového iterátoru ukazujícího na počáteční element.">
<polygon fill="white" stroke="#666666" points="179.5,-19 78.5,-19 78.5,-0 179.5,-0 179.5,-19"/>
<text text-anchor="middle" x="129" y="-7" font-family="Helvetica,sans-Serif" font-size="10.00">span_iterator_begin</text>
</a>
</g>
</g>
<!-- Node1&#45;&gt;Node5 -->
<g id="edge5_Node000001_Node000005" class="edge"><title>Node1&#45;&gt;Node5</title>
<g id="a_edge5_Node000001_Node000005"><a xlink:title=" ">
<path fill="none" stroke="#63b8ff" d="M225.746,-34.448C206.686,-29.4814 184.905,-23.8062 166.938,-19.1247"/>
<polygon fill="#63b8ff" stroke="#63b8ff" points="224.872,-37.837 235.431,-36.9716 226.637,-31.0631 224.872,-37.837"/>
</a>
</g>
</g>
<!-- Node3 -->
<g id="Node000003" class="node"><title>Node3</title>
<g id="a_Node000003"><a xlink:href="group___main_program.html#ga0ddf1224851353fc92bfbff6f499fa97" target="_top" xlink:title=" ">
<polygon fill="white" stroke="#666666" points="38,-74 0,-74 0,-55 38,-55 38,-74"/>
<text text-anchor="middle" x="19" y="-62" font-family="Helvetica,sans-Serif" font-size="10.00">main</text>
</a>
</g>
</g>
<!-- Node2&#45;&gt;Node3 -->
<g id="edge2_Node000002_Node000003" class="edge"><title>Node2&#45;&gt;Node3</title>
<g id="a_edge2_Node000002_Node000003"><a xlink:title=" ">
<path fill="none" stroke="#63b8ff" d="M63.8249,-72.2099C54.464,-70.5631 45.5265,-68.9908 38.1929,-67.7006"/>
<polygon fill="#63b8ff" stroke="#63b8ff" points="63.2284,-75.6587 73.6836,-73.9443 64.4413,-68.7645 63.2284,-75.6587"/>
</a>
</g>
</g>
<!-- Node4&#45;&gt;Node3 -->
<g id="edge4_Node000004_Node000003" class="edge"><title>Node4&#45;&gt;Node3</title>
<g id="a_edge4_Node000004_Node000003"><a xlink:title=" ">
<path fill="none" stroke="#63b8ff" d="M84.841,-53.6932C68.6107,-56.3982 51.0177,-59.3304 38.2577,-61.457"/>
<polygon fill="#63b8ff" stroke="#63b8ff" points="85.4267,-57.1439 94.7152,-52.0475 84.2758,-50.2392 85.4267,-57.1439"/>
</a>
</g>
</g>
</g>
</svg>
