<?xml version="1.0" encoding="UTF-8" standalone="no"?>
<!DOCTYPE svg PUBLIC "-//W3C//DTD SVG 1.1//EN"
 "http://www.w3.org/Graphics/SVG/1.1/DTD/svg11.dtd">
<!-- Generated by graphviz version 2.38.0 (20140413.2041)
 -->
<!-- Title: vector_value Pages: 1 -->
<svg width="574pt" height="178pt"
 viewBox="0.00 0.00 574.00 177.92" xmlns="http://www.w3.org/2000/svg" xmlns:xlink="http://www.w3.org/1999/xlink">
<g id="graph0" class="graph" transform="scale(1 1) rotate(0) translate(4 173.92)">
<title>vector_value</title>
<!-- Node1 -->
<g id="Node000001" class="node"><title>Node1</title>
<g id="a_Node000001"><a xlink:title="Přečtení hodnoty elementu z vektoru na požadované pozici.">
<polygon fill="#999999" stroke="#666666" points="566,-98.5 497,-98.5 497,-79.5 566,-79.5 566,-98.5"/>
<text text-anchor="middle" x="531.5" y="-86.5" font-family="Helvetica,sans-Serif" font-size="10.00">vector_value</text>
</a>
</g>
</g>
<!-- Node2 -->
<g id="Node000002" class="node"><title>Node2</title>
<g id="a_Node000002"><a xlink:href="group___basic_sorts.html#gac3903c3fd846908cd362e293ed40582e" target="_top" xlink:title="Třídění přímým vkládáním (Insert Sort)">
<polygon fill="white" stroke="#666666" points="160,-164.5 98,-164.5 98,-145.5 160,-145.5 160,-164.5"/>
<text text-anchor="middle" x="129" y="-152.5" font-family="Helvetica,sans-Serif" font-size="10.00">insert_sort</text>
</a>
</g>
</g>
<!-- Node1&#45;&gt;Node2 -->
<g id="edge1_Node000001_Node000002" class="edge"><title>Node1&#45;&gt;Node2</title>
<g id="a_edge1_Node000001_Node000002"><a xlink:title=" ">
<path fill="none" stroke="#63b8ff" d="M515.088,-106.08C502.11,-119.142 482.296,-136.194 461,-144 356.27,-182.388 220.185,-168.911 160.411,-160.132"/>
<polygon fill="#63b8ff" stroke="#63b8ff" points="517.871,-108.234 522.238,-98.5811 512.804,-103.404 517.871,-108.234"/>
</a>
</g>
</g>
<!-- Node4 -->
<g id="Node000004" class="node"><title>Node4</title>
<g id="a_Node000004"><a xlink:href="advanced__sorts_8c.html#a0ae77c9640aa821e5507079ec5d2eb1d" target="_top" xlink:title="Vnitřní a lokální funkce realizující rekurzivní funkci pro metodu (Quick Sort)">
<polygon fill="white" stroke="#666666" points="461,-117.5 366,-117.5 366,-98.5 461,-98.5 461,-117.5"/>
<text text-anchor="middle" x="413.5" y="-105.5" font-family="Helvetica,sans-Serif" font-size="10.00">quick_sort_worker</text>
</a>
</g>
</g>
<!-- Node1&#45;&gt;Node4 -->
<g id="edge3_Node000001_Node000004" class="edge"><title>Node1&#45;&gt;Node4</title>
<g id="a_edge3_Node000001_Node000004"><a xlink:title=" ">
<path fill="none" stroke="#63b8ff" d="M487,-96.125C478.627,-97.4964 469.823,-98.9384 461.35,-100.326"/>
<polygon fill="#63b8ff" stroke="#63b8ff" points="487.645,-99.566 496.948,-94.4956 486.514,-92.6581 487.645,-99.566"/>
</a>
</g>
</g>
<!-- Node6 -->
<g id="Node000006" class="node"><title>Node6</title>
<g id="a_Node000006"><a xlink:href="group___advanced_sorts.html#gaee070b00692f425d83eaea28b37bab2b" target="_top" xlink:title="Shellovo třídění vkládáním s ubývajícím krokem (Shell Sort) dle Hibbardovy posloupnosti.">
<polygon fill="white" stroke="#666666" points="304.5,-85.5 245.5,-85.5 245.5,-66.5 304.5,-66.5 304.5,-85.5"/>
<text text-anchor="middle" x="275" y="-73.5" font-family="Helvetica,sans-Serif" font-size="10.00">shell_sort</text>
</a>
</g>
</g>
<!-- Node1&#45;&gt;Node6 -->
<g id="edge7_Node000001_Node000006" class="edge"><title>Node1&#45;&gt;Node6</title>
<g id="a_edge7_Node000001_Node000006"><a xlink:title=" ">
<path fill="none" stroke="#63b8ff" d="M486.68,-86.7617C434.483,-84.0954 348.798,-79.7186 304.503,-77.4559"/>
<polygon fill="#63b8ff" stroke="#63b8ff" points="486.801,-90.2723 496.967,-87.2871 487.158,-83.2814 486.801,-90.2723"/>
</a>
</g>
</g>
<!-- Node7 -->
<g id="Node000007" class="node"><title>Node7</title>
<g id="a_Node000007"><a xlink:href="group___t_span.html#ga4c772b349af71b9066651285a90ee21e" target="_top" xlink:title="Přečtení hodnoty elementu Spanu na požadované pozici.">
<polygon fill="white" stroke="#666666" points="446,-39.5 381,-39.5 381,-20.5 446,-20.5 446,-39.5"/>
<text text-anchor="middle" x="413.5" y="-27.5" font-family="Helvetica,sans-Serif" font-size="10.00">span_value</text>
</a>
</g>
</g>
<!-- Node1&#45;&gt;Node7 -->
<g id="edge9_Node000001_Node000007" class="edge"><title>Node1&#45;&gt;Node7</title>
<g id="a_edge9_Node000001_Node000007"><a xlink:title=" ">
<path fill="none" stroke="#63b8ff" d="M502.647,-74.8334C481.214,-63.9323 452.175,-49.1622 433.387,-39.6066"/>
<polygon fill="#63b8ff" stroke="#63b8ff" points="501.104,-77.9754 511.604,-79.3893 504.278,-71.7361 501.104,-77.9754"/>
</a>
</g>
</g>
<!-- Node3 -->
<g id="Node000003" class="node"><title>Node3</title>
<g id="a_Node000003"><a xlink:href="group___main_program.html#ga0ddf1224851353fc92bfbff6f499fa97" target="_top" xlink:title=" ">
<polygon fill="white" stroke="#666666" points="38,-103.5 0,-103.5 0,-84.5 38,-84.5 38,-103.5"/>
<text text-anchor="middle" x="19" y="-91.5" font-family="Helvetica,sans-Serif" font-size="10.00">main</text>
</a>
</g>
</g>
<!-- Node2&#45;&gt;Node3 -->
<g id="edge2_Node000002_Node000003" class="edge"><title>Node2&#45;&gt;Node3</title>
<g id="a_edge2_Node000002_Node000003"><a xlink:title=" ">
<path fill="none" stroke="#63b8ff" d="M99.7989,-140.851C91.4298,-136.525 82.2874,-131.673 74,-127 60.6016,-119.445 45.7078,-110.284 34.9613,-103.533"/>
<polygon fill="#63b8ff" stroke="#63b8ff" points="98.336,-144.034 108.833,-145.474 101.525,-137.803 98.336,-144.034"/>
</a>
</g>
</g>
<!-- Node4&#45;&gt;Node4 -->
<g id="edge6_Node000004_Node000004" class="edge"><title>Node4&#45;&gt;Node4</title>
<g id="a_edge6_Node000004_Node000004"><a xlink:title=" ">
<path fill="none" stroke="#63b8ff" d="M435.351,-127.054C433.892,-131.88 426.608,-135.5 413.5,-135.5 392.527,-135.5 386.465,-126.234 395.313,-117.583"/>
<polygon fill="#63b8ff" stroke="#63b8ff" points="438.559,-125.647 431.687,-117.583 432.031,-128.172 438.559,-125.647"/>
</a>
</g>
</g>
<!-- Node5 -->
<g id="Node000005" class="node"><title>Node5</title>
<g id="a_Node000005"><a xlink:href="group___advanced_sorts.html#gaa369b74c9050d30aa2416f9dba8cc8f5" target="_top" xlink:title="Rychlé třídění výměnou (Quick Sort) s volbou prostředního prvku jako pivota.">
<polygon fill="white" stroke="#666666" points="306,-122.5 244,-122.5 244,-103.5 306,-103.5 306,-122.5"/>
<text text-anchor="middle" x="275" y="-110.5" font-family="Helvetica,sans-Serif" font-size="10.00">quick_sort</text>
</a>
</g>
</g>
<!-- Node4&#45;&gt;Node5 -->
<g id="edge4_Node000004_Node000005" class="edge"><title>Node4&#45;&gt;Node5</title>
<g id="a_edge4_Node000004_Node000005"><a xlink:title=" ">
<path fill="none" stroke="#63b8ff" d="M355.511,-110.088C338.554,-110.709 320.645,-111.365 306.124,-111.897"/>
<polygon fill="#63b8ff" stroke="#63b8ff" points="356.041,-113.571 365.906,-109.707 355.785,-106.575 356.041,-113.571"/>
</a>
</g>
</g>
<!-- Node5&#45;&gt;Node3 -->
<g id="edge5_Node000005_Node000003" class="edge"><title>Node5&#45;&gt;Node3</title>
<g id="a_edge5_Node000005_Node000003"><a xlink:title=" ">
<path fill="none" stroke="#63b8ff" d="M233.838,-110.454C193.44,-107.831 129.372,-103.501 74,-99 62.176,-98.0389 48.9098,-96.8126 38.4854,-95.815"/>
<polygon fill="#63b8ff" stroke="#63b8ff" points="233.623,-113.948 243.828,-111.1 234.075,-106.962 233.623,-113.948"/>
</a>
</g>
</g>
<!-- Node6&#45;&gt;Node3 -->
<g id="edge8_Node000006_Node000003" class="edge"><title>Node6&#45;&gt;Node3</title>
<g id="a_edge8_Node000006_Node000003"><a xlink:title=" ">
<path fill="none" stroke="#63b8ff" d="M235.177,-78.7512C179.506,-82.6964 79.1998,-89.8047 38.2049,-92.7099"/>
<polygon fill="#63b8ff" stroke="#63b8ff" points="235.629,-82.2281 245.357,-78.0298 235.134,-75.2456 235.629,-82.2281"/>
</a>
</g>
</g>
<!-- Node8 -->
<g id="Node000008" class="node"><title>Node8</title>
<g id="a_Node000008"><a xlink:href="advanced__sorts__with__span_8c.html#a1526ecf4371ecb71f2bc68954f16681f" target="_top" xlink:title="Vnitřní a lokální funkce realizující rekurzivní funkci pro metodu (Quick Sort)">
<polygon fill="white" stroke="#666666" points="330,-30 220,-30 220,-0 330,-0 330,-30"/>
<text text-anchor="start" x="228" y="-18" font-family="Helvetica,sans-Serif" font-size="10.00">quick_sort_with_span</text>
<text text-anchor="middle" x="275" y="-7" font-family="Helvetica,sans-Serif" font-size="10.00">_worker</text>
</a>
</g>
</g>
<!-- Node7&#45;&gt;Node8 -->
<g id="edge10_Node000007_Node000008" class="edge"><title>Node7&#45;&gt;Node8</title>
<g id="a_edge10_Node000007_Node000008"><a xlink:title=" ">
<path fill="none" stroke="#63b8ff" d="M370.534,-25.3884C357.804,-23.9894 343.633,-22.4322 330.218,-20.958"/>
<polygon fill="#63b8ff" stroke="#63b8ff" points="370.519,-28.9076 380.841,-26.521 371.283,-21.9495 370.519,-28.9076"/>
</a>
</g>
</g>
<!-- Node8&#45;&gt;Node8 -->
<g id="edge13_Node000008_Node000008" class="edge"><title>Node8&#45;&gt;Node8</title>
<g id="a_edge13_Node000008_Node000008"><a xlink:title=" ">
<path fill="none" stroke="#63b8ff" d="M299.155,-40.5975C295.854,-44.9704 287.803,-48 275,-48 253.438,-48 245.352,-39.4063 250.742,-30.2754"/>
<polygon fill="#63b8ff" stroke="#63b8ff" points="302.658,-40.3097 299.258,-30.2754 295.658,-40.2401 302.658,-40.3097"/>
</a>
</g>
</g>
<!-- Node9 -->
<g id="Node000009" class="node"><title>Node9</title>
<g id="a_Node000009"><a xlink:href="group___advanced_sorts_with_span.html#ga451c79ea7ae3de87d73ed333460ea2d5" target="_top" xlink:title="Rychlé třídění výměnou (Quick Sort with span) s volbou prostředního prvku jako pivota a využívající t...">
<polygon fill="white" stroke="#666666" points="184,-35.5 74,-35.5 74,-16.5 184,-16.5 184,-35.5"/>
<text text-anchor="middle" x="129" y="-23.5" font-family="Helvetica,sans-Serif" font-size="10.00">quick_sort_with_span</text>
</a>
</g>
</g>
<!-- Node8&#45;&gt;Node9 -->
<g id="edge11_Node000008_Node000009" class="edge"><title>Node8&#45;&gt;Node9</title>
<g id="a_edge11_Node000008_Node000009"><a xlink:title=" ">
<path fill="none" stroke="#63b8ff" d="M209.73,-19.9095C201.25,-20.5573 192.625,-21.2162 184.333,-21.8496"/>
<polygon fill="#63b8ff" stroke="#63b8ff" points="210.266,-23.3789 219.97,-19.1273 209.732,-16.3992 210.266,-23.3789"/>
</a>
</g>
</g>
<!-- Node9&#45;&gt;Node3 -->
<g id="edge12_Node000009_Node000003" class="edge"><title>Node9&#45;&gt;Node3</title>
<g id="a_edge12_Node000009_Node000003"><a xlink:title=" ">
<path fill="none" stroke="#63b8ff" d="M103.827,-41.2198C82.7769,-54.4738 52.9147,-73.2759 35.0969,-84.4946"/>
<polygon fill="#63b8ff" stroke="#63b8ff" points="105.929,-44.0327 112.526,-35.7427 102.199,-38.1091 105.929,-44.0327"/>
</a>
</g>
</g>
</g>
</svg>
