<?xml version="1.0" encoding="UTF-8" standalone="no"?>
<!DOCTYPE svg PUBLIC "-//W3C//DTD SVG 1.1//EN"
 "http://www.w3.org/Graphics/SVG/1.1/DTD/svg11.dtd">
<!-- Generated by graphviz version 2.38.0 (20140413.2041)
 -->
<!-- Title: vector_swap_positions Pages: 1 -->
<svg width="643pt" height="267pt"
 viewBox="0.00 0.00 643.00 267.00" xmlns="http://www.w3.org/2000/svg" xmlns:xlink="http://www.w3.org/1999/xlink">
<g id="graph0" class="graph" transform="scale(1 1) rotate(0) translate(4 263)">
<title>vector_swap_positions</title>
<!-- Node1 -->
<g id="Node000001" class="node"><title>Node1</title>
<g id="a_Node000001"><a xlink:title="Výměna hodnot elementů vektorů">
<polygon fill="#999999" stroke="#666666" points="635,-130 521,-130 521,-111 635,-111 635,-130"/>
<text text-anchor="middle" x="578" y="-118" font-family="Helvetica,sans-Serif" font-size="10.00">vector_swap_positions</text>
</a>
</g>
</g>
<!-- Node2 -->
<g id="Node000002" class="node"><title>Node2</title>
<g id="a_Node000002"><a xlink:href="group___basic_sorts.html#gaa1ef093f5205f293df8303ac228452fc" target="_top" xlink:title="Třídění přímou výměnou (Bubble Sort)">
<polygon fill="white" stroke="#666666" points="459,-259 392,-259 392,-240 459,-240 459,-259"/>
<text text-anchor="middle" x="425.5" y="-247" font-family="Helvetica,sans-Serif" font-size="10.00">bubble_sort</text>
</a>
</g>
</g>
<!-- Node1&#45;&gt;Node2 -->
<g id="edge1_Node000001_Node000002" class="edge"><title>Node1&#45;&gt;Node2</title>
<g id="a_edge1_Node000001_Node000002"><a xlink:title=" ">
<path fill="none" stroke="#63b8ff" d="M566.54,-138.843C551.574,-163.472 521.756,-206.964 485,-231.5 477.311,-236.633 468.092,-240.356 459.27,-243.034"/>
<polygon fill="#63b8ff" stroke="#63b8ff" points="569.62,-140.51 571.696,-130.121 563.594,-136.948 569.62,-140.51"/>
</a>
</g>
</g>
<!-- Node3 -->
<g id="Node000003" class="node"><title>Node3</title>
<g id="a_Node000003"><a xlink:href="group___basic_sorts.html#ga62a36eb31bf0a873f7c027e145843b1a" target="_top" xlink:title="Třídění přímou výměnou včetně optimalizace s pomocným příznakem ukončení třídění (Bubble Sort Optimiz...">
<polygon fill="white" stroke="#666666" points="482.5,-222 368.5,-222 368.5,-203 482.5,-203 482.5,-222"/>
<text text-anchor="middle" x="425.5" y="-210" font-family="Helvetica,sans-Serif" font-size="10.00">bubble_sort_optimized</text>
</a>
</g>
</g>
<!-- Node1&#45;&gt;Node3 -->
<g id="edge2_Node000001_Node000003" class="edge"><title>Node1&#45;&gt;Node3</title>
<g id="a_edge2_Node000001_Node000003"><a xlink:title=" ">
<path fill="none" stroke="#63b8ff" d="M560.061,-137.476C542.608,-154.111 513.941,-179.14 485,-194.5 478.805,-197.788 471.916,-200.577 465.103,-202.906"/>
<polygon fill="#63b8ff" stroke="#63b8ff" points="562.953,-139.546 567.68,-130.064 558.072,-134.529 562.953,-139.546"/>
</a>
</g>
</g>
<!-- Node4 -->
<g id="Node000004" class="node"><title>Node4</title>
<g id="a_Node000004"><a xlink:href="group___basic_sorts.html#gaba41a68f00241f38f7864b4e1dacd086" target="_top" xlink:title="Třídění přímou výměnou včetně optimalizace s výpočtem indexu poslední změny (Bubble Sort Optimized2)">
<polygon fill="white" stroke="#666666" points="485,-185 366,-185 366,-166 485,-166 485,-185"/>
<text text-anchor="middle" x="425.5" y="-173" font-family="Helvetica,sans-Serif" font-size="10.00">bubble_sort_optimized2</text>
</a>
</g>
</g>
<!-- Node1&#45;&gt;Node4 -->
<g id="edge3_Node000001_Node000004" class="edge"><title>Node1&#45;&gt;Node4</title>
<g id="a_edge3_Node000001_Node000004"><a xlink:title=" ">
<path fill="none" stroke="#63b8ff" d="M545.265,-134.028C527.649,-141.343 505.264,-150.322 485,-157.5 476.686,-160.445 467.614,-163.372 459.149,-165.984"/>
<polygon fill="#63b8ff" stroke="#63b8ff" points="546.643,-137.245 554.517,-130.157 543.941,-130.788 546.643,-137.245"/>
</a>
</g>
</g>
<!-- Node5 -->
<g id="Node000005" class="node"><title>Node5</title>
<g id="a_Node000005"><a xlink:href="advanced__sorts_8c.html#a0ae77c9640aa821e5507079ec5d2eb1d" target="_top" xlink:title="Vnitřní a lokální funkce realizující rekurzivní funkci pro metodu (Quick Sort)">
<polygon fill="white" stroke="#666666" points="473,-130 378,-130 378,-111 473,-111 473,-130"/>
<text text-anchor="middle" x="425.5" y="-118" font-family="Helvetica,sans-Serif" font-size="10.00">quick_sort_worker</text>
</a>
</g>
</g>
<!-- Node1&#45;&gt;Node5 -->
<g id="edge4_Node000001_Node000005" class="edge"><title>Node1&#45;&gt;Node5</title>
<g id="a_edge4_Node000001_Node000005"><a xlink:title=" ">
<path fill="none" stroke="#63b8ff" d="M510.885,-120.5C498.194,-120.5 485.152,-120.5 473.23,-120.5"/>
<polygon fill="#63b8ff" stroke="#63b8ff" points="510.959,-124 520.959,-120.5 510.959,-117 510.959,-124"/>
</a>
</g>
</g>
<!-- Node8 -->
<g id="Node000008" class="node"><title>Node8</title>
<g id="a_Node000008"><a xlink:href="group___basic_sorts.html#ga3688a58781905ac2e518285b8bb711ec" target="_top" xlink:title="Třídění přímým výběrem (Select Sort)">
<polygon fill="white" stroke="#666666" points="458,-93 393,-93 393,-74 458,-74 458,-93"/>
<text text-anchor="middle" x="425.5" y="-81" font-family="Helvetica,sans-Serif" font-size="10.00">select_sort</text>
</a>
</g>
</g>
<!-- Node1&#45;&gt;Node8 -->
<g id="edge8_Node000001_Node000008" class="edge"><title>Node1&#45;&gt;Node8</title>
<g id="a_edge8_Node000001_Node000008"><a xlink:title=" ">
<path fill="none" stroke="#63b8ff" d="M528.292,-108.525C505.24,-102.858 478.376,-96.2536 458.035,-91.2529"/>
<polygon fill="#63b8ff" stroke="#63b8ff" points="527.696,-111.983 538.243,-110.972 529.367,-105.185 527.696,-111.983"/>
</a>
</g>
</g>
<!-- Node9 -->
<g id="Node000009" class="node"><title>Node9</title>
<g id="a_Node000009"><a xlink:href="group___basic_sorts.html#gaacee5d609500566a6ad1724486ab8bb2" target="_top" xlink:title="Třídění přímou výměnou se změnou postupu třídění (Shaker Sort)">
<polygon fill="white" stroke="#666666" points="459.5,-56 391.5,-56 391.5,-37 459.5,-37 459.5,-56"/>
<text text-anchor="middle" x="425.5" y="-44" font-family="Helvetica,sans-Serif" font-size="10.00">shaker_sort</text>
</a>
</g>
</g>
<!-- Node1&#45;&gt;Node9 -->
<g id="edge9_Node000001_Node000009" class="edge"><title>Node1&#45;&gt;Node9</title>
<g id="a_edge9_Node000001_Node000009"><a xlink:title=" ">
<path fill="none" stroke="#63b8ff" d="M554.515,-105.102C536.351,-93.1512 509.815,-76.7737 485,-65.5 477.028,-61.8782 468.161,-58.6272 459.79,-55.881"/>
<polygon fill="#63b8ff" stroke="#63b8ff" points="552.937,-108.256 563.197,-110.897 556.823,-102.434 552.937,-108.256"/>
</a>
</g>
</g>
<!-- Node10 -->
<g id="Node000010" class="node"><title>Node10</title>
<g id="a_Node000010"><a xlink:href="group___t_span.html#gae81c37610069e0d3c8d3182ca4964c1a" target="_top" xlink:title="Výměna hodnot elementů Spanů">
<polygon fill="white" stroke="#666666" points="480.5,-19 370.5,-19 370.5,-0 480.5,-0 480.5,-19"/>
<text text-anchor="middle" x="425.5" y="-7" font-family="Helvetica,sans-Serif" font-size="10.00">span_swap_positions</text>
</a>
</g>
</g>
<!-- Node1&#45;&gt;Node10 -->
<g id="edge10_Node000001_Node000010" class="edge"><title>Node1&#45;&gt;Node10</title>
<g id="a_edge10_Node000001_Node000010"><a xlink:title=" ">
<path fill="none" stroke="#63b8ff" d="M563.841,-103.029C547.481,-82.4492 517.694,-48.5324 485,-28.5 478.808,-24.7063 471.779,-21.5874 464.793,-19.0526"/>
<polygon fill="#63b8ff" stroke="#63b8ff" points="561.1,-105.206 570,-110.954 566.627,-100.91 561.1,-105.206"/>
</a>
</g>
</g>
<!-- Node5&#45;&gt;Node5 -->
<g id="edge7_Node000005_Node000005" class="edge"><title>Node5&#45;&gt;Node5</title>
<g id="a_edge7_Node000005_Node000005"><a xlink:title=" ">
<path fill="none" stroke="#63b8ff" d="M453.499,-138.821C452.329,-144.009 442.996,-148 425.5,-148 398.84,-148 391.133,-138.734 402.381,-130.083"/>
<polygon fill="#63b8ff" stroke="#63b8ff" points="456.551,-137.107 448.619,-130.083 450.439,-140.52 456.551,-137.107"/>
</a>
</g>
</g>
<!-- Node6 -->
<g id="Node000006" class="node"><title>Node6</title>
<g id="a_Node000006"><a xlink:href="group___advanced_sorts.html#gaa369b74c9050d30aa2416f9dba8cc8f5" target="_top" xlink:title="Rychlé třídění výměnou (Quick Sort) s volbou prostředního prvku jako pivota.">
<polygon fill="white" stroke="#666666" points="160,-108 98,-108 98,-89 160,-89 160,-108"/>
<text text-anchor="middle" x="129" y="-96" font-family="Helvetica,sans-Serif" font-size="10.00">quick_sort</text>
</a>
</g>
</g>
<!-- Node5&#45;&gt;Node6 -->
<g id="edge5_Node000005_Node000006" class="edge"><title>Node5&#45;&gt;Node6</title>
<g id="a_edge5_Node000005_Node000006"><a xlink:title=" ">
<path fill="none" stroke="#63b8ff" d="M367.834,-116.267C305.919,-111.642 209.062,-104.406 160.261,-100.761"/>
<polygon fill="#63b8ff" stroke="#63b8ff" points="367.603,-119.759 377.836,-117.014 368.124,-112.779 367.603,-119.759"/>
</a>
</g>
</g>
<!-- Node7 -->
<g id="Node000007" class="node"><title>Node7</title>
<g id="a_Node000007"><a xlink:href="group___main_program.html#ga0ddf1224851353fc92bfbff6f499fa97" target="_top" xlink:title=" ">
<polygon fill="white" stroke="#666666" points="38,-85 0,-85 0,-66 38,-66 38,-85"/>
<text text-anchor="middle" x="19" y="-73" font-family="Helvetica,sans-Serif" font-size="10.00">main</text>
</a>
</g>
</g>
<!-- Node6&#45;&gt;Node7 -->
<g id="edge6_Node000006_Node000007" class="edge"><title>Node6&#45;&gt;Node7</title>
<g id="a_edge6_Node000006_Node000007"><a xlink:title=" ">
<path fill="none" stroke="#63b8ff" d="M88.1027,-90.0034C70.9367,-86.3476 51.726,-82.2565 38.0958,-79.3537"/>
<polygon fill="#63b8ff" stroke="#63b8ff" points="87.4063,-93.4335 97.916,-92.0932 88.8644,-86.587 87.4063,-93.4335"/>
</a>
</g>
</g>
<!-- Node11 -->
<g id="Node000011" class="node"><title>Node11</title>
<g id="a_Node000011"><a xlink:href="advanced__sorts__with__span_8c.html#a1526ecf4371ecb71f2bc68954f16681f" target="_top" xlink:title="Vnitřní a lokální funkce realizující rekurzivní funkci pro metodu (Quick Sort)">
<polygon fill="white" stroke="#666666" points="330,-49.5 220,-49.5 220,-19.5 330,-19.5 330,-49.5"/>
<text text-anchor="start" x="228" y="-37.5" font-family="Helvetica,sans-Serif" font-size="10.00">quick_sort_with_span</text>
<text text-anchor="middle" x="275" y="-26.5" font-family="Helvetica,sans-Serif" font-size="10.00">_worker</text>
</a>
</g>
</g>
<!-- Node10&#45;&gt;Node11 -->
<g id="edge11_Node000010_Node000011" class="edge"><title>Node10&#45;&gt;Node11</title>
<g id="a_edge11_Node000010_Node000011"><a xlink:title=" ">
<path fill="none" stroke="#63b8ff" d="M360.499,-20.2746C350.415,-21.9722 340.075,-23.713 330.241,-25.3686"/>
<polygon fill="#63b8ff" stroke="#63b8ff" points="361.188,-23.7079 370.468,-18.5963 360.026,-16.8051 361.188,-23.7079"/>
</a>
</g>
</g>
<!-- Node11&#45;&gt;Node11 -->
<g id="edge14_Node000011_Node000011" class="edge"><title>Node11&#45;&gt;Node11</title>
<g id="a_edge14_Node000011_Node000011"><a xlink:title=" ">
<path fill="none" stroke="#63b8ff" d="M300.555,-60.0975C297.063,-64.4704 288.545,-67.5 275,-67.5 252.188,-67.5 243.633,-58.9063 249.336,-49.7754"/>
<polygon fill="#63b8ff" stroke="#63b8ff" points="304.059,-59.8117 300.664,-49.7754 297.059,-59.738 304.059,-59.8117"/>
</a>
</g>
</g>
<!-- Node12 -->
<g id="Node000012" class="node"><title>Node12</title>
<g id="a_Node000012"><a xlink:href="group___advanced_sorts_with_span.html#ga451c79ea7ae3de87d73ed333460ea2d5" target="_top" xlink:title="Rychlé třídění výměnou (Quick Sort with span) s volbou prostředního prvku jako pivota a využívající t...">
<polygon fill="white" stroke="#666666" points="184,-62 74,-62 74,-43 184,-43 184,-62"/>
<text text-anchor="middle" x="129" y="-50" font-family="Helvetica,sans-Serif" font-size="10.00">quick_sort_with_span</text>
</a>
</g>
</g>
<!-- Node11&#45;&gt;Node12 -->
<g id="edge12_Node000011_Node000012" class="edge"><title>Node11&#45;&gt;Node12</title>
<g id="a_edge12_Node000011_Node000012"><a xlink:title=" ">
<path fill="none" stroke="#63b8ff" d="M210.009,-42.4988C201.439,-43.5701 192.716,-44.6605 184.333,-45.7084"/>
<polygon fill="#63b8ff" stroke="#63b8ff" points="210.481,-45.9672 219.97,-41.2537 209.613,-39.0212 210.481,-45.9672"/>
</a>
</g>
</g>
<!-- Node12&#45;&gt;Node7 -->
<g id="edge13_Node000012_Node000007" class="edge"><title>Node12&#45;&gt;Node7</title>
<g id="a_edge13_Node000012_Node000007"><a xlink:title=" ">
<path fill="none" stroke="#63b8ff" d="M73.0707,-64.1979C60.4721,-66.8809 47.941,-69.5496 38.2215,-71.6195"/>
<polygon fill="#63b8ff" stroke="#63b8ff" points="74.0849,-67.5605 83.1365,-62.0543 72.6268,-60.714 74.0849,-67.5605"/>
</a>
</g>
</g>
</g>
</svg>
