<?xml version="1.0" encoding="UTF-8" standalone="no"?>
<!DOCTYPE svg PUBLIC "-//W3C//DTD SVG 1.1//EN"
 "http://www.w3.org/Graphics/SVG/1.1/DTD/svg11.dtd">
<!-- Generated by graphviz version 2.38.0 (20140413.2041)
 -->
<!-- Title: vector_element_store_file Pages: 1 -->
<svg width="434pt" height="138pt"
 viewBox="0.00 0.00 434.00 138.00" xmlns="http://www.w3.org/2000/svg" xmlns:xlink="http://www.w3.org/1999/xlink">
<g id="graph0" class="graph" transform="scale(1 1) rotate(0) translate(4 134)">
<title>vector_element_store_file</title>
<!-- Node1 -->
<g id="Node000001" class="node"><title>Node1</title>
<g id="a_Node000001"><a xlink:title="Uložení elementu do souboru.">
<polygon fill="#999999" stroke="#666666" points="426,-74 300,-74 300,-55 426,-55 426,-74"/>
<text text-anchor="middle" x="363" y="-62" font-family="Helvetica,sans-Serif" font-size="10.00">vector_element_store_file</text>
</a>
</g>
</g>
<!-- Node2 -->
<g id="Node000002" class="node"><title>Node2</title>
<g id="a_Node000002"><a xlink:href="group___basic_sorts.html#ga25c7ac8991c266d71b75cf20c14b67cf" target="_top" xlink:title="Vytisknutí elementu vektoru pomocí iterátoru.">
<polygon fill="white" stroke="#666666" points="258.5,-130 183.5,-130 183.5,-111 258.5,-111 258.5,-130"/>
<text text-anchor="middle" x="221" y="-118" font-family="Helvetica,sans-Serif" font-size="10.00">print_element</text>
</a>
</g>
</g>
<!-- Node1&#45;&gt;Node2 -->
<g id="edge1_Node000001_Node000002" class="edge"><title>Node1&#45;&gt;Node2</title>
<g id="a_edge1_Node000001_Node000002"><a xlink:title=" ">
<path fill="none" stroke="#63b8ff" d="M328.635,-77.8459C303.105,-88.0581 268.522,-101.891 245.753,-110.999"/>
<polygon fill="#63b8ff" stroke="#63b8ff" points="329.948,-81.0904 337.933,-74.1267 327.348,-74.591 329.948,-81.0904"/>
</a>
</g>
</g>
<!-- Node5 -->
<g id="Node000005" class="node"><title>Node5</title>
<g id="a_Node000005"><a xlink:href="advanced__sorts__with__span_8c.html#a9efda83f1182fe5f74ed8ce11b2ddfca" target="_top" xlink:title="Formátovaný tisk hodnoty elementu za předpokladu platné hodnoty.">
<polygon fill="white" stroke="#666666" points="263.5,-93 178.5,-93 178.5,-74 263.5,-74 263.5,-93"/>
<text text-anchor="middle" x="221" y="-81" font-family="Helvetica,sans-Serif" font-size="10.00">print_element_if</text>
</a>
</g>
</g>
<!-- Node1&#45;&gt;Node5 -->
<g id="edge4_Node000001_Node000005" class="edge"><title>Node1&#45;&gt;Node5</title>
<g id="a_edge4_Node000001_Node000005"><a xlink:title=" ">
<path fill="none" stroke="#63b8ff" d="M289.673,-74.3158C280.714,-75.5316 271.806,-76.7406 263.537,-77.8629"/>
<polygon fill="#63b8ff" stroke="#63b8ff" points="290.34,-77.7574 299.779,-72.9443 289.399,-70.821 290.34,-77.7574"/>
</a>
</g>
</g>
<!-- Node6 -->
<g id="Node000006" class="node"><title>Node6</title>
<g id="a_Node000006"><a xlink:href="advanced__sorts_8c.html#a4b9bbfb5712de6efbad32b8691e5cec6" target="_top" xlink:title="Formátovaný tisk hodnoty elementu za předpokladu platné hodnoty.">
<polygon fill="white" stroke="#666666" points="263.5,-56 178.5,-56 178.5,-37 263.5,-37 263.5,-56"/>
<text text-anchor="middle" x="221" y="-44" font-family="Helvetica,sans-Serif" font-size="10.00">print_element_if</text>
</a>
</g>
</g>
<!-- Node1&#45;&gt;Node6 -->
<g id="edge5_Node000001_Node000006" class="edge"><title>Node1&#45;&gt;Node6</title>
<g id="a_edge5_Node000001_Node000006"><a xlink:title=" ">
<path fill="none" stroke="#63b8ff" d="M289.673,-55.2009C280.714,-54.049 271.806,-52.9037 263.537,-51.8405"/>
<polygon fill="#63b8ff" stroke="#63b8ff" points="289.414,-58.6962 299.779,-56.5001 290.307,-51.7534 289.414,-58.6962"/>
</a>
</g>
</g>
<!-- Node7 -->
<g id="Node000007" class="node"><title>Node7</title>
<g id="a_Node000007"><a xlink:href="group___t_vector.html#gabc5c4a8f6f5f38932380f5e475ce862f" target="_top" xlink:title="Uložení vektoru a jeho elementů do souboru.">
<polygon fill="white" stroke="#666666" points="264,-19 178,-19 178,-0 264,-0 264,-19"/>
<text text-anchor="middle" x="221" y="-7" font-family="Helvetica,sans-Serif" font-size="10.00">vector_store_file</text>
</a>
</g>
</g>
<!-- Node1&#45;&gt;Node7 -->
<g id="edge6_Node000001_Node000007" class="edge"><title>Node1&#45;&gt;Node7</title>
<g id="a_edge6_Node000001_Node000007"><a xlink:title=" ">
<path fill="none" stroke="#63b8ff" d="M328.09,-51.1783C302.922,-41.2907 269.186,-28.0372 246.576,-19.155"/>
<polygon fill="#63b8ff" stroke="#63b8ff" points="327.027,-54.5208 337.614,-54.9197 329.586,-48.0055 327.027,-54.5208"/>
</a>
</g>
</g>
<!-- Node3 -->
<g id="Node000003" class="node"><title>Node3</title>
<g id="a_Node000003"><a xlink:href="group___main_program.html#ga7343209645c93203da0a86613abfed04" target="_top" xlink:title="Testování třídicí metody.">
<polygon fill="white" stroke="#666666" points="142,-130 74,-130 74,-111 142,-111 142,-130"/>
<text text-anchor="middle" x="108" y="-118" font-family="Helvetica,sans-Serif" font-size="10.00">sort_testing</text>
</a>
</g>
</g>
<!-- Node2&#45;&gt;Node3 -->
<g id="edge2_Node000002_Node000003" class="edge"><title>Node2&#45;&gt;Node3</title>
<g id="a_edge2_Node000002_Node000003"><a xlink:title=" ">
<path fill="none" stroke="#63b8ff" d="M173.151,-120.5C162.762,-120.5 151.958,-120.5 142.244,-120.5"/>
<polygon fill="#63b8ff" stroke="#63b8ff" points="173.347,-124 183.347,-120.5 173.347,-117 173.347,-124"/>
</a>
</g>
</g>
<!-- Node4 -->
<g id="Node000004" class="node"><title>Node4</title>
<g id="a_Node000004"><a xlink:href="group___main_program.html#ga0ddf1224851353fc92bfbff6f499fa97" target="_top" xlink:title=" ">
<polygon fill="white" stroke="#666666" points="38,-130 0,-130 0,-111 38,-111 38,-130"/>
<text text-anchor="middle" x="19" y="-118" font-family="Helvetica,sans-Serif" font-size="10.00">main</text>
</a>
</g>
</g>
<!-- Node3&#45;&gt;Node4 -->
<g id="edge3_Node000003_Node000004" class="edge"><title>Node3&#45;&gt;Node4</title>
<g id="a_edge3_Node000003_Node000004"><a xlink:title=" ">
<path fill="none" stroke="#63b8ff" d="M63.5417,-120.5C54.5485,-120.5 45.5529,-120.5 38.0925,-120.5"/>
<polygon fill="#63b8ff" stroke="#63b8ff" points="63.6124,-124 73.6123,-120.5 63.6123,-117 63.6124,-124"/>
</a>
</g>
</g>
</g>
</svg>
