<?xml version="1.0" encoding="UTF-8" standalone="no"?>
<!DOCTYPE svg PUBLIC "-//W3C//DTD SVG 1.1//EN"
 "http://www.w3.org/Graphics/SVG/1.1/DTD/svg11.dtd">
<!-- Generated by graphviz version 2.38.0 (20140413.2041)
 -->
<!-- Title: vector_clone Pages: 1 -->
<svg width="406pt" height="54pt"
 viewBox="0.00 0.00 406.00 53.50" xmlns="http://www.w3.org/2000/svg" xmlns:xlink="http://www.w3.org/1999/xlink">
<g id="graph0" class="graph" transform="scale(1 1) rotate(0) translate(4 49.5)">
<title>vector_clone</title>
<!-- Node1 -->
<g id="Node000001" class="node"><title>Node1</title>
<g id="a_Node000001"><a xlink:title="Vytvoření úplné kopie vektoru.">
<polygon fill="#999999" stroke="#666666" points="398,-45.5 327,-45.5 327,-26.5 398,-26.5 398,-45.5"/>
<text text-anchor="middle" x="362.5" y="-33.5" font-family="Helvetica,sans-Serif" font-size="10.00">vector_clone</text>
</a>
</g>
</g>
<!-- Node2 -->
<g id="Node000002" class="node"><title>Node2</title>
<g id="a_Node000002"><a xlink:href="group___main_program.html#ga7343209645c93203da0a86613abfed04" target="_top" xlink:title="Testování třídicí metody.">
<polygon fill="white" stroke="#666666" points="142,-45.5 74,-45.5 74,-26.5 142,-26.5 142,-45.5"/>
<text text-anchor="middle" x="108" y="-33.5" font-family="Helvetica,sans-Serif" font-size="10.00">sort_testing</text>
</a>
</g>
</g>
<!-- Node1&#45;&gt;Node2 -->
<g id="edge1_Node000001_Node000002" class="edge"><title>Node1&#45;&gt;Node2</title>
<g id="a_edge1_Node000001_Node000002"><a xlink:title=" ">
<path fill="none" stroke="#63b8ff" d="M316.581,-38.1977C308.086,-38.5322 299.272,-38.8241 291,-39 240.789,-40.0678 228.21,-40.091 178,-39 166.372,-38.7473 153.649,-38.2554 142.331,-37.7419"/>
<polygon fill="#63b8ff" stroke="#63b8ff" points="316.881,-41.6883 326.727,-37.7736 316.589,-34.6944 316.881,-41.6883"/>
</a>
</g>
</g>
<!-- Node4 -->
<g id="Node000004" class="node"><title>Node4</title>
<g id="a_Node000004"><a xlink:href="group__sortable___t_vector.html#ga1b7a4850be6488c69c293bdd13f729a7" target="_top" xlink:title="Ověření korektního setřídění vektoru.">
<polygon fill="white" stroke="#666666" points="291,-30 178,-30 178,-0 291,-0 291,-30"/>
<text text-anchor="start" x="186" y="-18" font-family="Helvetica,sans-Serif" font-size="10.00">vector_is_ascendantly</text>
<text text-anchor="middle" x="234.5" y="-7" font-family="Helvetica,sans-Serif" font-size="10.00">_sorted</text>
</a>
</g>
</g>
<!-- Node1&#45;&gt;Node4 -->
<g id="edge3_Node000001_Node000004" class="edge"><title>Node1&#45;&gt;Node4</title>
<g id="a_edge3_Node000001_Node000004"><a xlink:title=" ">
<path fill="none" stroke="#63b8ff" d="M316.674,-28.529C308.505,-27.1675 299.89,-25.7316 291.446,-24.3244"/>
<polygon fill="#63b8ff" stroke="#63b8ff" points="316.297,-32.0144 326.736,-30.2061 317.448,-25.1096 316.297,-32.0144"/>
</a>
</g>
</g>
<!-- Node3 -->
<g id="Node000003" class="node"><title>Node3</title>
<g id="a_Node000003"><a xlink:href="group___main_program.html#ga0ddf1224851353fc92bfbff6f499fa97" target="_top" xlink:title=" ">
<polygon fill="white" stroke="#666666" points="38,-45.5 0,-45.5 0,-26.5 38,-26.5 38,-45.5"/>
<text text-anchor="middle" x="19" y="-33.5" font-family="Helvetica,sans-Serif" font-size="10.00">main</text>
</a>
</g>
</g>
<!-- Node2&#45;&gt;Node3 -->
<g id="edge2_Node000002_Node000003" class="edge"><title>Node2&#45;&gt;Node3</title>
<g id="a_edge2_Node000002_Node000003"><a xlink:title=" ">
<path fill="none" stroke="#63b8ff" d="M63.5417,-36C54.5485,-36 45.5529,-36 38.0925,-36"/>
<polygon fill="#63b8ff" stroke="#63b8ff" points="63.6124,-39.5001 73.6123,-36 63.6123,-32.5001 63.6124,-39.5001"/>
</a>
</g>
</g>
<!-- Node4&#45;&gt;Node2 -->
<g id="edge4_Node000004_Node000002" class="edge"><title>Node4&#45;&gt;Node2</title>
<g id="a_edge4_Node000004_Node000002"><a xlink:title=" ">
<path fill="none" stroke="#63b8ff" d="M167.783,-26.0848C158.907,-27.5819 150.126,-29.063 142.164,-30.406"/>
<polygon fill="#63b8ff" stroke="#63b8ff" points="168.526,-29.509 177.805,-24.3944 167.362,-22.6065 168.526,-29.509"/>
</a>
</g>
</g>
</g>
</svg>
