<?xml version="1.0" encoding="UTF-8" standalone="no"?>
<!DOCTYPE svg PUBLIC "-//W3C//DTD SVG 1.1//EN"
 "http://www.w3.org/Graphics/SVG/1.1/DTD/svg11.dtd">
<!-- Generated by graphviz version 2.38.0 (20140413.2041)
 -->
<!-- Title: span_iterators_are_same Pages: 1 -->
<svg width="427pt" height="38pt"
 viewBox="0.00 0.00 427.00 38.00" xmlns="http://www.w3.org/2000/svg" xmlns:xlink="http://www.w3.org/1999/xlink">
<g id="graph0" class="graph" transform="scale(1 1) rotate(0) translate(4 34)">
<title>span_iterators_are_same</title>
<!-- Node1 -->
<g id="Node000001" class="node"><title>Node1</title>
<g id="a_Node000001"><a xlink:title="Test shodnosti dvou iterátorů">
<polygon fill="#999999" stroke="#666666" points="126,-24.5 0,-24.5 0,-5.5 126,-5.5 126,-24.5"/>
<text text-anchor="middle" x="63" y="-12.5" font-family="Helvetica,sans-Serif" font-size="10.00">span_iterators_are_same</text>
</a>
</g>
</g>
<!-- Node2 -->
<g id="Node000002" class="node"><title>Node2</title>
<g id="a_Node000002"><a xlink:href="group__sortable___t_vector__with__shareable__sortstats.html#ga6c48fdc01e22389dff6202955542499a" target="_top" xlink:title="Test shodnosti dvou iterátorů">
<polygon fill="white" stroke="#666666" points="293,-24.5 162,-24.5 162,-5.5 293,-5.5 293,-24.5"/>
<text text-anchor="middle" x="227.5" y="-12.5" font-family="Helvetica,sans-Serif" font-size="10.00">vector_iterators_are_same</text>
</a>
</g>
</g>
<!-- Node1&#45;&gt;Node2 -->
<g id="edge1_Node000001_Node000002" class="edge"><title>Node1&#45;&gt;Node2</title>
<g id="a_edge1_Node000001_Node000002"><a xlink:title=" ">
<path fill="none" stroke="#63b8ff" d="M126.362,-15C134.634,-15 143.183,-15 151.638,-15"/>
<polygon fill="#63b8ff" stroke="#63b8ff" points="151.882,-18.5001 161.882,-15 151.882,-11.5001 151.882,-18.5001"/>
</a>
</g>
</g>
<!-- Node3 -->
<g id="Node000003" class="node"><title>Node3</title>
<g id="a_Node000003"><a xlink:href="group___t_vector_iterator.html#ga3f8a97a63f887539e270f6845bf22b9a" target="_top" xlink:title="Zjištění platnosti iterátoru.">
<polygon fill="white" stroke="#666666" points="419,-30 329,-30 329,-0 419,-0 419,-30"/>
<text text-anchor="start" x="337" y="-18" font-family="Helvetica,sans-Serif" font-size="10.00">vector_iterator_is</text>
<text text-anchor="middle" x="374" y="-7" font-family="Helvetica,sans-Serif" font-size="10.00">_valid</text>
</a>
</g>
</g>
<!-- Node2&#45;&gt;Node3 -->
<g id="edge2_Node000002_Node000003" class="edge"><title>Node2&#45;&gt;Node3</title>
<g id="a_edge2_Node000002_Node000003"><a xlink:title=" ">
<path fill="none" stroke="#63b8ff" d="M293.142,-15C301.596,-15 310.19,-15 318.455,-15"/>
<polygon fill="#63b8ff" stroke="#63b8ff" points="318.712,-18.5001 328.712,-15 318.712,-11.5001 318.712,-18.5001"/>
</a>
</g>
</g>
</g>
</svg>
