<?xml version="1.0" encoding="UTF-8" standalone="no"?>
<!DOCTYPE svg PUBLIC "-//W3C//DTD SVG 1.1//EN"
 "http://www.w3.org/Graphics/SVG/1.1/DTD/svg11.dtd">
<!-- Generated by graphviz version 2.38.0 (20140413.2041)
 -->
<!-- Title: vector_iterator_value Pages: 1 -->
<svg width="426pt" height="101pt"
 viewBox="0.00 0.00 426.00 101.00" xmlns="http://www.w3.org/2000/svg" xmlns:xlink="http://www.w3.org/1999/xlink">
<g id="graph0" class="graph" transform="scale(1 1) rotate(0) translate(4 97)">
<title>vector_iterator_value</title>
<!-- Node1 -->
<g id="Node000001" class="node"><title>Node1</title>
<g id="a_Node000001"><a xlink:title="Přečtení hodnoty elementu z vektoru pomocí iterátoru.">
<polygon fill="#999999" stroke="#666666" points="418,-56 314,-56 314,-37 418,-37 418,-56"/>
<text text-anchor="middle" x="366" y="-44" font-family="Helvetica,sans-Serif" font-size="10.00">vector_iterator_value</text>
</a>
</g>
</g>
<!-- Node2 -->
<g id="Node000002" class="node"><title>Node2</title>
<g id="a_Node000002"><a xlink:href="group___basic_sorts.html#ga25c7ac8991c266d71b75cf20c14b67cf" target="_top" xlink:title="Vytisknutí elementu vektoru pomocí iterátoru.">
<polygon fill="white" stroke="#666666" points="265.5,-93 190.5,-93 190.5,-74 265.5,-74 265.5,-93"/>
<text text-anchor="middle" x="228" y="-81" font-family="Helvetica,sans-Serif" font-size="10.00">print_element</text>
</a>
</g>
</g>
<!-- Node1&#45;&gt;Node2 -->
<g id="edge1_Node000001_Node000002" class="edge"><title>Node1&#45;&gt;Node2</title>
<g id="a_edge1_Node000001_Node000002"><a xlink:title=" ">
<path fill="none" stroke="#63b8ff" d="M320.198,-58.6889C302.063,-63.6226 281.427,-69.2367 264.377,-73.8753"/>
<polygon fill="#63b8ff" stroke="#63b8ff" points="321.246,-62.0309 329.977,-56.0284 319.409,-55.2764 321.246,-62.0309"/>
</a>
</g>
</g>
<!-- Node5 -->
<g id="Node000005" class="node"><title>Node5</title>
<g id="a_Node000005"><a xlink:href="advanced__sorts__with__span_8c.html#a9efda83f1182fe5f74ed8ce11b2ddfca" target="_top" xlink:title="Formátovaný tisk hodnoty elementu za předpokladu platné hodnoty.">
<polygon fill="white" stroke="#666666" points="270.5,-56 185.5,-56 185.5,-37 270.5,-37 270.5,-56"/>
<text text-anchor="middle" x="228" y="-44" font-family="Helvetica,sans-Serif" font-size="10.00">print_element_if</text>
</a>
</g>
</g>
<!-- Node1&#45;&gt;Node5 -->
<g id="edge4_Node000001_Node000005" class="edge"><title>Node1&#45;&gt;Node5</title>
<g id="a_edge4_Node000001_Node000005"><a xlink:title=" ">
<path fill="none" stroke="#63b8ff" d="M303.761,-46.5C292.528,-46.5 281.047,-46.5 270.559,-46.5"/>
<polygon fill="#63b8ff" stroke="#63b8ff" points="303.972,-50.0001 313.972,-46.5 303.972,-43.0001 303.972,-50.0001"/>
</a>
</g>
</g>
<!-- Node6 -->
<g id="Node000006" class="node"><title>Node6</title>
<g id="a_Node000006"><a xlink:href="group___t_span.html#ga8796ef08880befbf07bda987120a58cb" target="_top" xlink:title="Přečtení hodnoty elementu z Spanu pomocí iterátoru.">
<polygon fill="white" stroke="#666666" points="278,-19 178,-19 178,-0 278,-0 278,-19"/>
<text text-anchor="middle" x="228" y="-7" font-family="Helvetica,sans-Serif" font-size="10.00">span_iterator_value</text>
</a>
</g>
</g>
<!-- Node1&#45;&gt;Node6 -->
<g id="edge5_Node000001_Node000006" class="edge"><title>Node1&#45;&gt;Node6</title>
<g id="a_edge5_Node000001_Node000006"><a xlink:title=" ">
<path fill="none" stroke="#63b8ff" d="M320.198,-34.3111C302.063,-29.3774 281.427,-23.7633 264.377,-19.1247"/>
<polygon fill="#63b8ff" stroke="#63b8ff" points="319.409,-37.7236 329.977,-36.9716 321.246,-30.9691 319.409,-37.7236"/>
</a>
</g>
</g>
<!-- Node3 -->
<g id="Node000003" class="node"><title>Node3</title>
<g id="a_Node000003"><a xlink:href="group___main_program.html#ga7343209645c93203da0a86613abfed04" target="_top" xlink:title="Testování třídicí metody.">
<polygon fill="white" stroke="#666666" points="142,-93 74,-93 74,-74 142,-74 142,-93"/>
<text text-anchor="middle" x="108" y="-81" font-family="Helvetica,sans-Serif" font-size="10.00">sort_testing</text>
</a>
</g>
</g>
<!-- Node2&#45;&gt;Node3 -->
<g id="edge2_Node000002_Node000003" class="edge"><title>Node2&#45;&gt;Node3</title>
<g id="a_edge2_Node000002_Node000003"><a xlink:title=" ">
<path fill="none" stroke="#63b8ff" d="M180.28,-83.5C167.496,-83.5 153.907,-83.5 142.061,-83.5"/>
<polygon fill="#63b8ff" stroke="#63b8ff" points="180.311,-87.0001 190.311,-83.5 180.311,-80.0001 180.311,-87.0001"/>
</a>
</g>
</g>
<!-- Node4 -->
<g id="Node000004" class="node"><title>Node4</title>
<g id="a_Node000004"><a xlink:href="group___main_program.html#ga0ddf1224851353fc92bfbff6f499fa97" target="_top" xlink:title=" ">
<polygon fill="white" stroke="#666666" points="38,-93 0,-93 0,-74 38,-74 38,-93"/>
<text text-anchor="middle" x="19" y="-81" font-family="Helvetica,sans-Serif" font-size="10.00">main</text>
</a>
</g>
</g>
<!-- Node3&#45;&gt;Node4 -->
<g id="edge3_Node000003_Node000004" class="edge"><title>Node3&#45;&gt;Node4</title>
<g id="a_edge3_Node000003_Node000004"><a xlink:title=" ">
<path fill="none" stroke="#63b8ff" d="M63.5417,-83.5C54.5485,-83.5 45.5529,-83.5 38.0925,-83.5"/>
<polygon fill="#63b8ff" stroke="#63b8ff" points="63.6124,-87.0001 73.6123,-83.5 63.6123,-80.0001 63.6124,-87.0001"/>
</a>
</g>
</g>
</g>
</svg>
