<?xml version="1.0" encoding="UTF-8" standalone="no"?>
<!DOCTYPE svg PUBLIC "-//W3C//DTD SVG 1.1//EN"
 "http://www.w3.org/Graphics/SVG/1.1/DTD/svg11.dtd">
<!-- Generated by graphviz version 2.38.0 (20140413.2041)
 -->
<!-- Title: main Pages: 1 -->
<svg width="1044pt" height="778pt"
 viewBox="0.00 0.00 1044.00 778.00" xmlns="http://www.w3.org/2000/svg" xmlns:xlink="http://www.w3.org/1999/xlink">
<g id="graph0" class="graph" transform="scale(1 1) rotate(0) translate(4 774)">
<title>main</title>
<!-- Node1 -->
<g id="Node000001" class="node"><title>Node1</title>
<g id="a_Node000001"><a xlink:title=" ">
<polygon fill="#999999" stroke="#666666" points="38,-523 0,-523 0,-504 38,-504 38,-523"/>
<text text-anchor="middle" x="19" y="-511" font-family="Helvetica,sans-Serif" font-size="10.00">main</text>
</a>
</g>
</g>
<!-- Node2 -->
<g id="Node000002" class="node"><title>Node2</title>
<g id="a_Node000002"><a xlink:href="group___basic_sorts.html#gac3903c3fd846908cd362e293ed40582e" target="_top" xlink:title="Třídění přímým vkládáním (Insert Sort)">
<polygon fill="white" stroke="#666666" points="486.5,-770 424.5,-770 424.5,-751 486.5,-751 486.5,-770"/>
<text text-anchor="middle" x="455.5" y="-758" font-family="Helvetica,sans-Serif" font-size="10.00">insert_sort</text>
</a>
</g>
</g>
<!-- Node1&#45;&gt;Node2 -->
<g id="edge1_Node000001_Node000002" class="edge"><title>Node1&#45;&gt;Node2</title>
<g id="a_edge1_Node000001_Node000002"><a xlink:title=" ">
<path fill="none" stroke="#63b8ff" d="M21.3972,-523.117C25.3282,-546.864 38.6,-608.931 74,-644.5 168.103,-739.053 336.831,-756.96 413.99,-760.054"/>
<polygon fill="#63b8ff" stroke="#63b8ff" points="414.141,-763.561 424.253,-760.399 414.376,-756.565 414.141,-763.561"/>
</a>
</g>
</g>
<!-- Node12 -->
<g id="Node000012" class="node"><title>Node12</title>
<g id="a_Node000012"><a xlink:href="group___advanced_sorts.html#gaa369b74c9050d30aa2416f9dba8cc8f5" target="_top" xlink:title="Rychlé třídění výměnou (Quick Sort) s volbou prostředního prvku jako pivota.">
<polygon fill="white" stroke="#666666" points="160,-591 98,-591 98,-572 160,-572 160,-591"/>
<text text-anchor="middle" x="129" y="-579" font-family="Helvetica,sans-Serif" font-size="10.00">quick_sort</text>
</a>
</g>
</g>
<!-- Node1&#45;&gt;Node12 -->
<g id="edge11_Node000001_Node000012" class="edge"><title>Node1&#45;&gt;Node12</title>
<g id="a_edge11_Node000001_Node000012"><a xlink:title=" ">
<path fill="none" stroke="#63b8ff" d="M35.4738,-523.243C53.4596,-534.567 83.3435,-553.383 104.269,-566.558"/>
<polygon fill="#63b8ff" stroke="#63b8ff" points="102.576,-569.628 112.903,-571.995 106.306,-563.705 102.576,-569.628"/>
</a>
</g>
</g>
<!-- Node17 -->
<g id="Node000017" class="node"><title>Node17</title>
<g id="a_Node000017"><a xlink:href="group___advanced_sorts_with_span.html#ga451c79ea7ae3de87d73ed333460ea2d5" target="_top" xlink:title="Rychlé třídění výměnou (Quick Sort with span) s volbou prostředního prvku jako pivota a využívající t...">
<polygon fill="white" stroke="#666666" points="184,-523 74,-523 74,-504 184,-504 184,-523"/>
<text text-anchor="middle" x="129" y="-511" font-family="Helvetica,sans-Serif" font-size="10.00">quick_sort_with_span</text>
</a>
</g>
</g>
<!-- Node1&#45;&gt;Node17 -->
<g id="edge19_Node000001_Node000017" class="edge"><title>Node1&#45;&gt;Node17</title>
<g id="a_edge19_Node000001_Node000017"><a xlink:title=" ">
<path fill="none" stroke="#63b8ff" d="M38.3207,-513.5C45.5688,-513.5 54.3692,-513.5 63.5905,-513.5"/>
<polygon fill="#63b8ff" stroke="#63b8ff" points="63.7083,-517 73.7083,-513.5 63.7083,-510 63.7083,-517"/>
</a>
</g>
</g>
<!-- Node27 -->
<g id="Node000027" class="node"><title>Node27</title>
<g id="a_Node000027"><a xlink:href="group___advanced_sorts.html#gaee070b00692f425d83eaea28b37bab2b" target="_top" xlink:title="Shellovo třídění vkládáním s ubývajícím krokem (Shell Sort) dle Hibbardovy posloupnosti.">
<polygon fill="white" stroke="#666666" points="485,-733 426,-733 426,-714 485,-714 485,-733"/>
<text text-anchor="middle" x="455.5" y="-721" font-family="Helvetica,sans-Serif" font-size="10.00">shell_sort</text>
</a>
</g>
</g>
<!-- Node1&#45;&gt;Node27 -->
<g id="edge34_Node000001_Node000027" class="edge"><title>Node1&#45;&gt;Node27</title>
<g id="a_edge34_Node000001_Node000027"><a xlink:title=" ">
<path fill="none" stroke="#63b8ff" d="M23.5768,-523.266C30.5518,-540.991 47.6343,-578.554 74,-599.5 178.868,-682.811 341.554,-710.965 415.521,-719.79"/>
<polygon fill="#63b8ff" stroke="#63b8ff" points="415.442,-723.304 425.773,-720.956 416.233,-716.348 415.442,-723.304"/>
</a>
</g>
</g>
<!-- Node28 -->
<g id="Node000028" class="node"><title>Node28</title>
<g id="a_Node000028"><a xlink:href="group___main_program.html#ga7343209645c93203da0a86613abfed04" target="_top" xlink:title="Testování třídicí metody.">
<polygon fill="white" stroke="#666666" points="163,-276 95,-276 95,-257 163,-257 163,-276"/>
<text text-anchor="middle" x="129" y="-264" font-family="Helvetica,sans-Serif" font-size="10.00">sort_testing</text>
</a>
</g>
</g>
<!-- Node1&#45;&gt;Node28 -->
<g id="edge39_Node000001_Node000028" class="edge"><title>Node1&#45;&gt;Node28</title>
<g id="a_edge39_Node000001_Node000028"><a xlink:title=" ">
<path fill="none" stroke="#63b8ff" d="M24.2337,-503.817C40.3631,-466.929 98.1425,-334.785 119.76,-285.346"/>
<polygon fill="#63b8ff" stroke="#63b8ff" points="122.996,-286.68 123.796,-276.116 116.582,-283.876 122.996,-286.68"/>
</a>
</g>
</g>
<!-- Node35 -->
<g id="Node000035" class="node"><title>Node35</title>
<g id="a_Node000035"><a xlink:href="group___t_vector.html#ga41fcff5418fe213f2caaa586f521bcd6" target="_top" xlink:title="Dealokace vektoru.">
<polygon fill="white" stroke="#666666" points="495.5,-95 415.5,-95 415.5,-76 495.5,-76 495.5,-95"/>
<text text-anchor="middle" x="455.5" y="-83" font-family="Helvetica,sans-Serif" font-size="10.00">vector_destroy</text>
</a>
</g>
</g>
<!-- Node1&#45;&gt;Node35 -->
<g id="edge60_Node000001_Node000035" class="edge"><title>Node1&#45;&gt;Node35</title>
<g id="a_edge60_Node000001_Node000035"><a xlink:title=" ">
<path fill="none" stroke="#63b8ff" d="M20.3146,-503.642C22.767,-446.056 43.85,-152.842 220,-69.5 284.913,-38.7875 371.395,-57.8615 419.117,-72.7859"/>
<polygon fill="#63b8ff" stroke="#63b8ff" points="418.098,-76.1349 428.69,-75.8882 420.256,-69.4758 418.098,-76.1349"/>
</a>
</g>
</g>
<!-- Node41 -->
<g id="Node000041" class="node"><title>Node41</title>
<g id="a_Node000041"><a xlink:href="group___t_vector.html#gac0009a6c19dd42237bbb6af9897f2e44" target="_top" xlink:title="Alokace vektoru a inicializace jeho elementů ze souboru.">
<polygon fill="white" stroke="#666666" points="167.5,-19 90.5,-19 90.5,-0 167.5,-0 167.5,-19"/>
<text text-anchor="middle" x="129" y="-7" font-family="Helvetica,sans-Serif" font-size="10.00">vector_init_file</text>
</a>
</g>
</g>
<!-- Node1&#45;&gt;Node41 -->
<g id="edge61_Node000001_Node000041" class="edge"><title>Node1&#45;&gt;Node41</title>
<g id="a_edge61_Node000001_Node000041"><a xlink:title=" ">
<path fill="none" stroke="#63b8ff" d="M19.819,-503.704C18.8709,-442.432 16.5094,-111.97 74,-33.5 76.592,-29.9621 79.8242,-26.9365 83.4105,-24.3508"/>
<polygon fill="#63b8ff" stroke="#63b8ff" points="85.4741,-27.1961 92.2865,-19.0817 81.9008,-21.1768 85.4741,-27.1961"/>
</a>
</g>
</g>
<!-- Node3 -->
<g id="Node000003" class="node"><title>Node3</title>
<g id="a_Node000003"><a xlink:href="group__sortable___t_vector.html#ga09e150aa4cdd8faabf43474ab1dbe454" target="_top" xlink:title="Porovnání mezi hodnotou elementu vektoru a hodnotou typu VectorElement.">
<polygon fill="white" stroke="#666666" points="693,-695.5 569,-695.5 569,-665.5 693,-665.5 693,-695.5"/>
<text text-anchor="start" x="577" y="-683.5" font-family="Helvetica,sans-Serif" font-size="10.00">vector_compare_position</text>
<text text-anchor="middle" x="631" y="-672.5" font-family="Helvetica,sans-Serif" font-size="10.00">_value</text>
</a>
</g>
</g>
<!-- Node2&#45;&gt;Node3 -->
<g id="edge2_Node000002_Node000003" class="edge"><title>Node2&#45;&gt;Node3</title>
<g id="a_edge2_Node000002_Node000003"><a xlink:title=" ">
<path fill="none" stroke="#63b8ff" d="M486.638,-757.424C501.347,-754.95 518.87,-750.498 533,-742.5 552.967,-731.197 549.987,-718.342 569,-705.5 571.751,-703.642 574.661,-701.885 577.659,-700.228"/>
<polygon fill="#63b8ff" stroke="#63b8ff" points="579.514,-703.212 586.847,-695.564 576.346,-696.97 579.514,-703.212"/>
</a>
</g>
</g>
<!-- Node6 -->
<g id="Node000006" class="node"><title>Node6</title>
<g id="a_Node000006"><a xlink:href="group__sortable___t_vector.html#ga16623c06371077674f5d4d31e38e42a4" target="_top" xlink:title="Přesun hodnoty elementu vektoru.">
<polygon fill="white" stroke="#666666" points="688,-770 574,-770 574,-751 688,-751 688,-770"/>
<text text-anchor="middle" x="631" y="-758" font-family="Helvetica,sans-Serif" font-size="10.00">vector_move_positions</text>
</a>
</g>
</g>
<!-- Node2&#45;&gt;Node6 -->
<g id="edge5_Node000002_Node000006" class="edge"><title>Node2&#45;&gt;Node6</title>
<g id="a_edge5_Node000002_Node000006"><a xlink:title=" ">
<path fill="none" stroke="#63b8ff" d="M486.721,-760.5C507.985,-760.5 537.276,-760.5 563.834,-760.5"/>
<polygon fill="#63b8ff" stroke="#63b8ff" points="563.857,-764 573.857,-760.5 563.857,-757 563.857,-764"/>
</a>
</g>
</g>
<!-- Node8 -->
<g id="Node000008" class="node"><title>Node8</title>
<g id="a_Node000008"><a xlink:href="group___t_vector.html#gabd5ba54950295545d27b1286234ead39" target="_top" xlink:title="Zapsání hodnoty elementu do vektoru na požadovanou pozici.">
<polygon fill="white" stroke="#666666" points="675,-733 587,-733 587,-714 675,-714 675,-733"/>
<text text-anchor="middle" x="631" y="-721" font-family="Helvetica,sans-Serif" font-size="10.00">vector_set_value</text>
</a>
</g>
</g>
<!-- Node2&#45;&gt;Node8 -->
<g id="edge7_Node000002_Node000008" class="edge"><title>Node2&#45;&gt;Node8</title>
<g id="a_edge7_Node000002_Node000008"><a xlink:title=" ">
<path fill="none" stroke="#63b8ff" d="M486.721,-754.055C511.473,-748.777 547.099,-741.179 576.634,-734.881"/>
<polygon fill="#63b8ff" stroke="#63b8ff" points="577.749,-738.222 586.799,-732.713 576.289,-731.376 577.749,-738.222"/>
</a>
</g>
</g>
<!-- Node10 -->
<g id="Node000010" class="node"><title>Node10</title>
<g id="a_Node000010"><a xlink:href="group___t_vector.html#ga2b08236d9825632cd96bcc89faed929c" target="_top" xlink:title="Přečtení hodnoty elementu z vektoru na požadované pozici.">
<polygon fill="white" stroke="#666666" points="665.5,-629 596.5,-629 596.5,-610 665.5,-610 665.5,-629"/>
<text text-anchor="middle" x="631" y="-617" font-family="Helvetica,sans-Serif" font-size="10.00">vector_value</text>
</a>
</g>
</g>
<!-- Node2&#45;&gt;Node10 -->
<g id="edge9_Node000002_Node000010" class="edge"><title>Node2&#45;&gt;Node10</title>
<g id="a_edge9_Node000002_Node000010"><a xlink:title=" ">
<path fill="none" stroke="#63b8ff" d="M486.62,-759.756C502.034,-757.925 520.194,-753.346 533,-742.5 564.619,-715.72 541.959,-687.896 569,-656.5 576.94,-647.281 587.767,-639.69 598.098,-633.834"/>
<polygon fill="#63b8ff" stroke="#63b8ff" points="599.765,-636.912 606.963,-629.137 596.488,-630.726 599.765,-636.912"/>
</a>
</g>
</g>
<!-- Node4 -->
<g id="Node000004" class="node"><title>Node4</title>
<g id="a_Node000004"><a xlink:href="_t_vector_8c.html#a8254190a2b4fe570173cc77dba0ee7a4" target="_top" xlink:title=" ">
<polygon fill="white" stroke="#666666" points="849.5,-668.5 743.5,-668.5 743.5,-638.5 849.5,-638.5 849.5,-668.5"/>
<text text-anchor="start" x="751.5" y="-656.5" font-family="Helvetica,sans-Serif" font-size="10.00">vector_fast_compare</text>
<text text-anchor="middle" x="796.5" y="-645.5" font-family="Helvetica,sans-Serif" font-size="10.00">_position_value</text>
</a>
</g>
</g>
<!-- Node3&#45;&gt;Node4 -->
<g id="edge3_Node000003_Node000004" class="edge"><title>Node3&#45;&gt;Node4</title>
<g id="a_edge3_Node000003_Node000004"><a xlink:title=" ">
<path fill="none" stroke="#63b8ff" d="M693.347,-670.369C706.488,-668.199 720.381,-665.905 733.546,-663.731"/>
<polygon fill="#63b8ff" stroke="#63b8ff" points="734.15,-667.179 743.446,-662.096 733.01,-660.272 734.15,-667.179"/>
</a>
</g>
</g>
<!-- Node5 -->
<g id="Node000005" class="node"><title>Node5</title>
<g id="a_Node000005"><a xlink:href="group___t_vector_element.html#ga82e527836fce12c93af896f65e9f701d" target="_top" xlink:title="Porovnání dvou elementů">
<polygon fill="white" stroke="#666666" points="1036,-403 900,-403 900,-384 1036,-384 1036,-403"/>
<text text-anchor="middle" x="968" y="-391" font-family="Helvetica,sans-Serif" font-size="10.00">vector_element_comparator</text>
</a>
</g>
</g>
<!-- Node4&#45;&gt;Node5 -->
<g id="edge4_Node000004_Node000005" class="edge"><title>Node4&#45;&gt;Node5</title>
<g id="a_edge4_Node000004_Node000005"><a xlink:title=" ">
<path fill="none" stroke="#63b8ff" d="M821.865,-638.409C835.529,-629.046 852.154,-616.046 864,-601.5 913.776,-540.382 947.621,-451.224 960.819,-412.56"/>
<polygon fill="#63b8ff" stroke="#63b8ff" points="964.144,-413.653 963.99,-403.06 957.504,-411.437 964.144,-413.653"/>
</a>
</g>
</g>
<!-- Node7 -->
<g id="Node000007" class="node"><title>Node7</title>
<g id="a_Node000007"><a xlink:href="_t_vector_8c.html#a0e3151269c65b7033ddecb4c3aee6566" target="_top" xlink:title=" ">
<polygon fill="white" stroke="#666666" points="864,-770 729,-770 729,-751 864,-751 864,-770"/>
<text text-anchor="middle" x="796.5" y="-758" font-family="Helvetica,sans-Serif" font-size="10.00">vector_fast_move_positions</text>
</a>
</g>
</g>
<!-- Node6&#45;&gt;Node7 -->
<g id="edge6_Node000006_Node000007" class="edge"><title>Node6&#45;&gt;Node7</title>
<g id="a_edge6_Node000006_Node000007"><a xlink:title=" ">
<path fill="none" stroke="#63b8ff" d="M688.267,-760.5C698.105,-760.5 708.49,-760.5 718.768,-760.5"/>
<polygon fill="#63b8ff" stroke="#63b8ff" points="718.987,-764 728.987,-760.5 718.987,-757 718.987,-764"/>
</a>
</g>
</g>
<!-- Node9 -->
<g id="Node000009" class="node"><title>Node9</title>
<g id="a_Node000009"><a xlink:href="_t_vector_8c.html#a689bf71829922c70ca1964e125e94217" target="_top" xlink:title=" ">
<polygon fill="white" stroke="#666666" points="851,-733 742,-733 742,-714 851,-714 851,-733"/>
<text text-anchor="middle" x="796.5" y="-721" font-family="Helvetica,sans-Serif" font-size="10.00">vector_fast_set_value</text>
</a>
</g>
</g>
<!-- Node8&#45;&gt;Node9 -->
<g id="edge8_Node000008_Node000009" class="edge"><title>Node8&#45;&gt;Node9</title>
<g id="a_edge8_Node000008_Node000009"><a xlink:title=" ">
<path fill="none" stroke="#63b8ff" d="M675.386,-723.5C692.707,-723.5 713.001,-723.5 731.925,-723.5"/>
<polygon fill="#63b8ff" stroke="#63b8ff" points="731.971,-727 741.971,-723.5 731.971,-720 731.971,-727"/>
</a>
</g>
</g>
<!-- Node11 -->
<g id="Node000011" class="node"><title>Node11</title>
<g id="a_Node000011"><a xlink:href="_t_vector_8c.html#a0fe5f1145e51f154b5470d640c5d682c" target="_top" xlink:title=" ">
<polygon fill="white" stroke="#666666" points="841.5,-593 751.5,-593 751.5,-574 841.5,-574 841.5,-593"/>
<text text-anchor="middle" x="796.5" y="-581" font-family="Helvetica,sans-Serif" font-size="10.00">vector_fast_value</text>
</a>
</g>
</g>
<!-- Node10&#45;&gt;Node11 -->
<g id="edge10_Node000010_Node000011" class="edge"><title>Node10&#45;&gt;Node11</title>
<g id="a_edge10_Node000010_Node000011"><a xlink:title=" ">
<path fill="none" stroke="#63b8ff" d="M665.877,-612.041C688.007,-607.168 717.364,-600.704 742.542,-595.16"/>
<polygon fill="#63b8ff" stroke="#63b8ff" points="743.308,-598.576 752.322,-593.007 741.803,-591.739 743.308,-598.576"/>
</a>
</g>
</g>
<!-- Node13 -->
<g id="Node000013" class="node"><title>Node13</title>
<g id="a_Node000013"><a xlink:href="advanced__sorts_8c.html#a0ae77c9640aa821e5507079ec5d2eb1d" target="_top" xlink:title="Vnitřní a lokální funkce realizující rekurzivní funkci pro metodu (Quick Sort)">
<polygon fill="white" stroke="#666666" points="503,-629 408,-629 408,-610 503,-610 503,-629"/>
<text text-anchor="middle" x="455.5" y="-617" font-family="Helvetica,sans-Serif" font-size="10.00">quick_sort_worker</text>
</a>
</g>
</g>
<!-- Node12&#45;&gt;Node13 -->
<g id="edge12_Node000012_Node000013" class="edge"><title>Node12&#45;&gt;Node13</title>
<g id="a_edge12_Node000012_Node000013"><a xlink:title=" ">
<path fill="none" stroke="#63b8ff" d="M160.265,-588.435C177.658,-592.199 199.965,-596.651 220,-599.5 280.3,-608.074 349.883,-613.444 397.495,-616.434"/>
<polygon fill="#63b8ff" stroke="#63b8ff" points="397.413,-619.936 407.608,-617.054 397.841,-612.949 397.413,-619.936"/>
</a>
</g>
</g>
<!-- Node16 -->
<g id="Node000016" class="node"><title>Node16</title>
<g id="a_Node000016"><a xlink:href="group___t_vector.html#ga2502e6ec116dbac5e49f5b62b07dc898" target="_top" xlink:title="Přečtení počtu elementů vektoru.">
<polygon fill="white" stroke="#666666" points="313.5,-591 248.5,-591 248.5,-572 313.5,-572 313.5,-591"/>
<text text-anchor="middle" x="281" y="-579" font-family="Helvetica,sans-Serif" font-size="10.00">vector_size</text>
</a>
</g>
</g>
<!-- Node12&#45;&gt;Node16 -->
<g id="edge18_Node000012_Node000016" class="edge"><title>Node12&#45;&gt;Node16</title>
<g id="a_edge18_Node000012_Node000016"><a xlink:title=" ">
<path fill="none" stroke="#63b8ff" d="M160.355,-581.5C182.751,-581.5 213.5,-581.5 238.216,-581.5"/>
<polygon fill="#63b8ff" stroke="#63b8ff" points="238.398,-585 248.398,-581.5 238.398,-578 238.398,-585"/>
</a>
</g>
</g>
<!-- Node13&#45;&gt;Node3 -->
<g id="edge14_Node000013_Node000003" class="edge"><title>Node13&#45;&gt;Node3</title>
<g id="a_edge14_Node000013_Node000003"><a xlink:title=" ">
<path fill="none" stroke="#63b8ff" d="M483.609,-629.031C508.635,-637.83 546.495,-651.141 577.444,-662.022"/>
<polygon fill="#63b8ff" stroke="#63b8ff" points="576.629,-665.445 587.224,-665.46 578.951,-658.842 576.629,-665.445"/>
</a>
</g>
</g>
<!-- Node13&#45;&gt;Node10 -->
<g id="edge17_Node000013_Node000010" class="edge"><title>Node13&#45;&gt;Node10</title>
<g id="a_edge17_Node000013_Node000010"><a xlink:title=" ">
<path fill="none" stroke="#63b8ff" d="M503.452,-619.5C529.295,-619.5 561.156,-619.5 586.443,-619.5"/>
<polygon fill="#63b8ff" stroke="#63b8ff" points="586.487,-623 596.487,-619.5 586.487,-616 586.487,-623"/>
</a>
</g>
</g>
<!-- Node13&#45;&gt;Node13 -->
<g id="edge13_Node000013_Node000013" class="edge"><title>Node13&#45;&gt;Node13</title>
<g id="a_edge13_Node000013_Node000013"><a xlink:title=" ">
<path fill="none" stroke="#63b8ff" d="M428.682,-629.083C415.635,-637.734 424.574,-647 455.5,-647 476.278,-647 487.132,-642.817 488.06,-637.448"/>
<polygon fill="#63b8ff" stroke="#63b8ff" points="490.863,-635.347 482.318,-629.083 485.092,-639.308 490.863,-635.347"/>
</a>
</g>
</g>
<!-- Node14 -->
<g id="Node000014" class="node"><title>Node14</title>
<g id="a_Node000014"><a xlink:href="group__sortable___t_vector.html#gac1982d8a0e5f66f933dc6a0413f2d23e" target="_top" xlink:title="Výměna hodnot elementů vektorů">
<polygon fill="white" stroke="#666666" points="688,-519 574,-519 574,-500 688,-500 688,-519"/>
<text text-anchor="middle" x="631" y="-507" font-family="Helvetica,sans-Serif" font-size="10.00">vector_swap_positions</text>
</a>
</g>
</g>
<!-- Node13&#45;&gt;Node14 -->
<g id="edge15_Node000013_Node000014" class="edge"><title>Node13&#45;&gt;Node14</title>
<g id="a_edge15_Node000013_Node000014"><a xlink:title=" ">
<path fill="none" stroke="#63b8ff" d="M503.228,-611.904C513.412,-609.167 523.865,-605.472 533,-600.5 567.427,-581.761 598.847,-547.862 616.111,-527.147"/>
<polygon fill="#63b8ff" stroke="#63b8ff" points="619.014,-529.125 622.611,-519.159 613.584,-524.707 619.014,-529.125"/>
</a>
</g>
</g>
<!-- Node15 -->
<g id="Node000015" class="node"><title>Node15</title>
<g id="a_Node000015"><a xlink:href="_t_vector_8c.html#ac70bbb23ab1ec16b867b3e33d40ae1c4" target="_top" xlink:title=" ">
<polygon fill="white" stroke="#666666" points="864,-519 729,-519 729,-500 864,-500 864,-519"/>
<text text-anchor="middle" x="796.5" y="-507" font-family="Helvetica,sans-Serif" font-size="10.00">vector_fast_swap_positions</text>
</a>
</g>
</g>
<!-- Node14&#45;&gt;Node15 -->
<g id="edge16_Node000014_Node000015" class="edge"><title>Node14&#45;&gt;Node15</title>
<g id="a_edge16_Node000014_Node000015"><a xlink:title=" ">
<path fill="none" stroke="#63b8ff" d="M688.267,-509.5C698.105,-509.5 708.49,-509.5 718.768,-509.5"/>
<polygon fill="#63b8ff" stroke="#63b8ff" points="718.987,-513 728.987,-509.5 718.987,-506 718.987,-513"/>
</a>
</g>
</g>
<!-- Node17&#45;&gt;Node16 -->
<g id="edge33_Node000017_Node000016" class="edge"><title>Node17&#45;&gt;Node16</title>
<g id="a_edge33_Node000017_Node000016"><a xlink:title=" ">
<path fill="none" stroke="#63b8ff" d="M145.475,-523.12C163.053,-533.76 192.829,-550.928 220,-562.5 225.937,-565.029 232.329,-567.402 238.649,-569.557"/>
<polygon fill="#63b8ff" stroke="#63b8ff" points="237.853,-572.979 248.446,-572.754 240.025,-566.324 237.853,-572.979"/>
</a>
</g>
</g>
<!-- Node18 -->
<g id="Node000018" class="node"><title>Node18</title>
<g id="a_Node000018"><a xlink:href="advanced__sorts__with__span_8c.html#a1526ecf4371ecb71f2bc68954f16681f" target="_top" xlink:title="Vnitřní a lokální funkce realizující rekurzivní funkci pro metodu (Quick Sort)">
<polygon fill="white" stroke="#666666" points="336,-498.5 226,-498.5 226,-468.5 336,-468.5 336,-498.5"/>
<text text-anchor="start" x="234" y="-486.5" font-family="Helvetica,sans-Serif" font-size="10.00">quick_sort_with_span</text>
<text text-anchor="middle" x="281" y="-475.5" font-family="Helvetica,sans-Serif" font-size="10.00">_worker</text>
</a>
</g>
</g>
<!-- Node17&#45;&gt;Node18 -->
<g id="edge20_Node000017_Node000018" class="edge"><title>Node17&#45;&gt;Node18</title>
<g id="a_edge20_Node000017_Node000018"><a xlink:title=" ">
<path fill="none" stroke="#63b8ff" d="M177.873,-503.925C189.916,-501.517 203.036,-498.893 215.738,-496.352"/>
<polygon fill="#63b8ff" stroke="#63b8ff" points="216.686,-499.732 225.805,-494.339 215.313,-492.868 216.686,-499.732"/>
</a>
</g>
</g>
<!-- Node25 -->
<g id="Node000025" class="node"><title>Node25</title>
<g id="a_Node000025"><a xlink:href="group___t_span.html#gac78c14bd69fa6a23ef2db50c75a51488" target="_top" xlink:title="Vytvoření Spanu pro celý vektor.">
<polygon fill="white" stroke="#666666" points="316,-554 246,-554 246,-535 316,-535 316,-554"/>
<text text-anchor="middle" x="281" y="-542" font-family="Helvetica,sans-Serif" font-size="10.00">span_create</text>
</a>
</g>
</g>
<!-- Node17&#45;&gt;Node25 -->
<g id="edge31_Node000017_Node000025" class="edge"><title>Node17&#45;&gt;Node25</title>
<g id="a_edge31_Node000017_Node000025"><a xlink:title=" ">
<path fill="none" stroke="#63b8ff" d="M176.229,-523.054C195.113,-526.957 216.865,-531.452 235.561,-535.316"/>
<polygon fill="#63b8ff" stroke="#63b8ff" points="235.094,-538.793 245.596,-537.39 236.511,-531.938 235.094,-538.793"/>
</a>
</g>
</g>
<!-- Node26 -->
<g id="Node000026" class="node"><title>Node26</title>
<g id="a_Node000026"><a xlink:href="group___t_vector_iterator.html#ga40d7eff2ece0eb356d27cdcdef255560" target="_top" xlink:title="Vytvoření nového iterátoru ukazujícího na počáteční element.">
<polygon fill="white" stroke="#666666" points="334,-429 228,-429 228,-410 334,-410 334,-429"/>
<text text-anchor="middle" x="281" y="-417" font-family="Helvetica,sans-Serif" font-size="10.00">vector_iterator_begin</text>
</a>
</g>
</g>
<!-- Node17&#45;&gt;Node26 -->
<g id="edge32_Node000017_Node000026" class="edge"><title>Node17&#45;&gt;Node26</title>
<g id="a_edge32_Node000017_Node000026"><a xlink:title=" ">
<path fill="none" stroke="#63b8ff" d="M145.208,-503.969C171.375,-487.572 225.096,-453.906 256.238,-434.391"/>
<polygon fill="#63b8ff" stroke="#63b8ff" points="258.136,-437.332 264.751,-429.056 254.419,-431.4 258.136,-437.332"/>
</a>
</g>
</g>
<!-- Node18&#45;&gt;Node18 -->
<g id="edge21_Node000018_Node000018" class="edge"><title>Node18&#45;&gt;Node18</title>
<g id="a_edge21_Node000018_Node000018"><a xlink:title=" ">
<path fill="none" stroke="#63b8ff" d="M254.281,-498.775C248.344,-507.906 257.25,-516.5 281,-516.5 295.102,-516.5 303.97,-513.47 307.606,-509.098"/>
<polygon fill="#63b8ff" stroke="#63b8ff" points="311.109,-508.813 307.719,-498.775 304.109,-508.736 311.109,-508.813"/>
</a>
</g>
</g>
<!-- Node19 -->
<g id="Node000019" class="node"><title>Node19</title>
<g id="a_Node000019"><a xlink:href="group___t_span.html#gad64d53738a4da90ef126cd73d84b5f52" target="_top" xlink:title="Porovnání mezi hodnotou elementu Span a hodnotou typu VectorElement.">
<polygon fill="white" stroke="#666666" points="515,-695.5 396,-695.5 396,-665.5 515,-665.5 515,-695.5"/>
<text text-anchor="start" x="404" y="-683.5" font-family="Helvetica,sans-Serif" font-size="10.00">span_compare_position</text>
<text text-anchor="middle" x="455.5" y="-672.5" font-family="Helvetica,sans-Serif" font-size="10.00">_value</text>
</a>
</g>
</g>
<!-- Node18&#45;&gt;Node19 -->
<g id="edge22_Node000018_Node000019" class="edge"><title>Node18&#45;&gt;Node19</title>
<g id="a_edge22_Node000018_Node000019"><a xlink:title=" ">
<path fill="none" stroke="#63b8ff" d="M311.659,-498.515C322.612,-505.391 334.233,-514.485 342,-525.5 376.794,-574.848 336.076,-613.047 378,-656.5 380.67,-659.267 383.654,-661.717 386.854,-663.885"/>
<polygon fill="#63b8ff" stroke="#63b8ff" points="385.345,-667.054 395.761,-668.992 388.827,-660.981 385.345,-667.054"/>
</a>
</g>
</g>
<!-- Node20 -->
<g id="Node000020" class="node"><title>Node20</title>
<g id="a_Node000020"><a xlink:href="group___t_span.html#ga95663322132016bbaf40e6281480e122" target="_top" xlink:title="Vytvoření SubSpanu jako části od počátku a definované délce původního Spanu.">
<polygon fill="white" stroke="#666666" points="520.5,-518 390.5,-518 390.5,-499 520.5,-499 520.5,-518"/>
<text text-anchor="middle" x="455.5" y="-506" font-family="Helvetica,sans-Serif" font-size="10.00">span_create_left_subspan</text>
</a>
</g>
</g>
<!-- Node18&#45;&gt;Node20 -->
<g id="edge24_Node000018_Node000020" class="edge"><title>Node18&#45;&gt;Node20</title>
<g id="a_edge24_Node000018_Node000020"><a xlink:title=" ">
<path fill="none" stroke="#63b8ff" d="M336.107,-491.342C350.075,-493.366 365.357,-495.581 380.161,-497.726"/>
<polygon fill="#63b8ff" stroke="#63b8ff" points="379.913,-501.227 390.311,-499.197 380.917,-494.299 379.913,-501.227"/>
</a>
</g>
</g>
<!-- Node21 -->
<g id="Node000021" class="node"><title>Node21</title>
<g id="a_Node000021"><a xlink:href="group___t_span.html#ga6270a02d3bfd6fa1fdbf37ca62276687" target="_top" xlink:title="Vytvoření SubSpanu jako části od definované pozice až do konce původního Spanu.">
<polygon fill="white" stroke="#666666" points="523.5,-481 387.5,-481 387.5,-462 523.5,-462 523.5,-481"/>
<text text-anchor="middle" x="455.5" y="-469" font-family="Helvetica,sans-Serif" font-size="10.00">span_create_right_subspan</text>
</a>
</g>
</g>
<!-- Node18&#45;&gt;Node21 -->
<g id="edge25_Node000018_Node000021" class="edge"><title>Node18&#45;&gt;Node21</title>
<g id="a_edge25_Node000018_Node000021"><a xlink:title=" ">
<path fill="none" stroke="#63b8ff" d="M336.107,-479.736C349.146,-478.829 363.329,-477.842 377.2,-476.877"/>
<polygon fill="#63b8ff" stroke="#63b8ff" points="377.491,-480.366 387.224,-476.18 377.005,-473.383 377.491,-480.366"/>
</a>
</g>
</g>
<!-- Node22 -->
<g id="Node000022" class="node"><title>Node22</title>
<g id="a_Node000022"><a xlink:href="group___t_span.html#ga873f8813d9a78c9b43e8a6b2b2a4c9d1" target="_top" xlink:title="Přečtení počtu elementů Spanu.">
<polygon fill="white" stroke="#666666" points="486,-555 425,-555 425,-536 486,-536 486,-555"/>
<text text-anchor="middle" x="455.5" y="-543" font-family="Helvetica,sans-Serif" font-size="10.00">span_size</text>
</a>
</g>
</g>
<!-- Node18&#45;&gt;Node22 -->
<g id="edge26_Node000018_Node000022" class="edge"><title>Node18&#45;&gt;Node22</title>
<g id="a_edge26_Node000018_Node000022"><a xlink:title=" ">
<path fill="none" stroke="#63b8ff" d="M312.137,-498.663C330.777,-507.619 355.385,-518.696 378,-526.5 389.825,-530.58 402.958,-534.169 414.958,-537.097"/>
<polygon fill="#63b8ff" stroke="#63b8ff" points="414.182,-540.51 424.718,-539.398 415.788,-533.697 414.182,-540.51"/>
</a>
</g>
</g>
<!-- Node23 -->
<g id="Node000023" class="node"><title>Node23</title>
<g id="a_Node000023"><a xlink:href="group___t_span.html#gae81c37610069e0d3c8d3182ca4964c1a" target="_top" xlink:title="Výměna hodnot elementů Spanů">
<polygon fill="white" stroke="#666666" points="510.5,-444 400.5,-444 400.5,-425 510.5,-425 510.5,-444"/>
<text text-anchor="middle" x="455.5" y="-432" font-family="Helvetica,sans-Serif" font-size="10.00">span_swap_positions</text>
</a>
</g>
</g>
<!-- Node18&#45;&gt;Node23 -->
<g id="edge27_Node000018_Node000023" class="edge"><title>Node18&#45;&gt;Node23</title>
<g id="a_edge27_Node000018_Node000023"><a xlink:title=" ">
<path fill="none" stroke="#63b8ff" d="M326.222,-468.39C342.422,-463.074 360.96,-457.248 378,-452.5 385.486,-450.414 393.427,-448.366 401.25,-446.441"/>
<polygon fill="#63b8ff" stroke="#63b8ff" points="402.154,-449.824 411.054,-444.076 400.512,-443.019 402.154,-449.824"/>
</a>
</g>
</g>
<!-- Node24 -->
<g id="Node000024" class="node"><title>Node24</title>
<g id="a_Node000024"><a xlink:href="group___t_span.html#ga4c772b349af71b9066651285a90ee21e" target="_top" xlink:title="Přečtení hodnoty elementu Spanu na požadované pozici.">
<polygon fill="white" stroke="#666666" points="488,-592 423,-592 423,-573 488,-573 488,-592"/>
<text text-anchor="middle" x="455.5" y="-580" font-family="Helvetica,sans-Serif" font-size="10.00">span_value</text>
</a>
</g>
</g>
<!-- Node18&#45;&gt;Node24 -->
<g id="edge29_Node000018_Node000024" class="edge"><title>Node18&#45;&gt;Node24</title>
<g id="a_edge29_Node000018_Node000024"><a xlink:title=" ">
<path fill="none" stroke="#63b8ff" d="M305.893,-498.608C317.232,-506.177 330.733,-515.785 342,-525.5 359.619,-540.692 357.903,-551.781 378,-563.5 388.515,-569.632 400.958,-573.796 412.72,-576.62"/>
<polygon fill="#63b8ff" stroke="#63b8ff" points="412.305,-580.11 422.815,-578.773 413.765,-573.264 412.305,-580.11"/>
</a>
</g>
</g>
<!-- Node19&#45;&gt;Node3 -->
<g id="edge23_Node000019_Node000003" class="edge"><title>Node19&#45;&gt;Node3</title>
<g id="a_edge23_Node000019_Node000003"><a xlink:title=" ">
<path fill="none" stroke="#63b8ff" d="M515.239,-680.5C529.162,-680.5 544.163,-680.5 558.581,-680.5"/>
<polygon fill="#63b8ff" stroke="#63b8ff" points="558.952,-684 568.952,-680.5 558.952,-677 558.952,-684"/>
</a>
</g>
</g>
<!-- Node23&#45;&gt;Node14 -->
<g id="edge28_Node000023_Node000014" class="edge"><title>Node23&#45;&gt;Node14</title>
<g id="a_edge28_Node000023_Node000014"><a xlink:title=" ">
<path fill="none" stroke="#63b8ff" d="M506.962,-444.098C515.784,-446.416 524.768,-449.201 533,-452.5 560.391,-463.478 589.234,-481.35 608.277,-494.155"/>
<polygon fill="#63b8ff" stroke="#63b8ff" points="606.312,-497.052 616.542,-499.811 610.265,-491.275 606.312,-497.052"/>
</a>
</g>
</g>
<!-- Node24&#45;&gt;Node10 -->
<g id="edge30_Node000024_Node000010" class="edge"><title>Node24&#45;&gt;Node10</title>
<g id="a_edge30_Node000024_Node000010"><a xlink:title=" ">
<path fill="none" stroke="#63b8ff" d="M488.323,-589.286C515.833,-595.153 555.863,-603.69 586.361,-610.194"/>
<polygon fill="#63b8ff" stroke="#63b8ff" points="585.796,-613.652 596.306,-612.315 587.256,-606.806 585.796,-613.652"/>
</a>
</g>
</g>
<!-- Node27&#45;&gt;Node3 -->
<g id="edge35_Node000027_Node000003" class="edge"><title>Node27&#45;&gt;Node3</title>
<g id="a_edge35_Node000027_Node000003"><a xlink:title=" ">
<path fill="none" stroke="#63b8ff" d="M485.15,-716.399C505.377,-711.386 533.402,-704.441 559.417,-697.993"/>
<polygon fill="#63b8ff" stroke="#63b8ff" points="560.404,-701.354 569.269,-695.552 558.72,-694.56 560.404,-701.354"/>
</a>
</g>
</g>
<!-- Node27&#45;&gt;Node6 -->
<g id="edge36_Node000027_Node000006" class="edge"><title>Node27&#45;&gt;Node6</title>
<g id="a_edge36_Node000027_Node000006"><a xlink:title=" ">
<path fill="none" stroke="#63b8ff" d="M485.15,-729.61C509.622,-734.829 545.51,-742.482 575.44,-748.865"/>
<polygon fill="#63b8ff" stroke="#63b8ff" points="574.827,-752.313 585.337,-750.975 576.287,-745.467 574.827,-752.313"/>
</a>
</g>
</g>
<!-- Node27&#45;&gt;Node8 -->
<g id="edge37_Node000027_Node000008" class="edge"><title>Node27&#45;&gt;Node8</title>
<g id="a_edge37_Node000027_Node000008"><a xlink:title=" ">
<path fill="none" stroke="#63b8ff" d="M485.15,-723.5C509.86,-723.5 546.209,-723.5 576.312,-723.5"/>
<polygon fill="#63b8ff" stroke="#63b8ff" points="576.67,-727 586.67,-723.5 576.67,-720 576.67,-727"/>
</a>
</g>
</g>
<!-- Node27&#45;&gt;Node10 -->
<g id="edge38_Node000027_Node000010" class="edge"><title>Node27&#45;&gt;Node10</title>
<g id="a_edge38_Node000027_Node000010"><a xlink:title=" ">
<path fill="none" stroke="#63b8ff" d="M485.261,-721.033C500.466,-718.626 518.856,-713.876 533,-704.5 555.227,-689.767 549.24,-674.407 569,-656.5 578.512,-647.88 590.32,-640.175 601.006,-634.057"/>
<polygon fill="#63b8ff" stroke="#63b8ff" points="602.941,-636.987 610.022,-629.106 599.572,-630.852 602.941,-636.987"/>
</a>
</g>
</g>
<!-- Node28&#45;&gt;Node26 -->
<g id="edge56_Node000028_Node000026" class="edge"><title>Node28&#45;&gt;Node26</title>
<g id="a_edge56_Node000028_Node000026"><a xlink:title=" ">
<path fill="none" stroke="#63b8ff" d="M136.391,-276.286C150.079,-296.792 183.933,-345.124 220,-378.5 230.522,-388.237 243.523,-397.407 254.731,-404.596"/>
<polygon fill="#63b8ff" stroke="#63b8ff" points="252.915,-407.588 263.252,-409.909 256.619,-401.648 252.915,-407.588"/>
</a>
</g>
</g>
<!-- Node29 -->
<g id="Node000029" class="node"><title>Node29</title>
<g id="a_Node000029"><a xlink:href="main__support_8h.html#aa291195ad453d2b1e29004cc2e043c01" target="_top" xlink:title="Výpočet doby trvání časového intervalu.">
<polygon fill="white" stroke="#666666" points="315,-133 247,-133 247,-114 315,-114 315,-133"/>
<text text-anchor="middle" x="281" y="-121" font-family="Helvetica,sans-Serif" font-size="10.00">difftimespec</text>
</a>
</g>
</g>
<!-- Node28&#45;&gt;Node29 -->
<g id="edge40_Node000028_Node000029" class="edge"><title>Node28&#45;&gt;Node29</title>
<g id="a_edge40_Node000028_Node000029"><a xlink:title=" ">
<path fill="none" stroke="#63b8ff" d="M134.344,-256.818C145.273,-233.55 176.203,-174.087 220,-142.5 225.176,-138.767 231.113,-135.748 237.195,-133.312"/>
<polygon fill="#63b8ff" stroke="#63b8ff" points="238.507,-136.561 246.783,-129.945 236.188,-129.957 238.507,-136.561"/>
</a>
</g>
</g>
<!-- Node30 -->
<g id="Node000030" class="node"><title>Node30</title>
<g id="a_Node000030"><a xlink:href="group___basic_sorts.html#ga25c7ac8991c266d71b75cf20c14b67cf" target="_top" xlink:title="Vytisknutí elementu vektoru pomocí iterátoru.">
<polygon fill="white" stroke="#666666" points="318.5,-370 243.5,-370 243.5,-351 318.5,-351 318.5,-370"/>
<text text-anchor="middle" x="281" y="-358" font-family="Helvetica,sans-Serif" font-size="10.00">print_element</text>
</a>
</g>
</g>
<!-- Node28&#45;&gt;Node30 -->
<g id="edge41_Node000028_Node000030" class="edge"><title>Node28&#45;&gt;Node30</title>
<g id="a_edge41_Node000028_Node000030"><a xlink:title=" ">
<path fill="none" stroke="#63b8ff" d="M140.379,-276.172C156.444,-290.757 188.749,-318.575 220,-336.5 226.911,-340.464 234.605,-344.076 242.116,-347.226"/>
<polygon fill="#63b8ff" stroke="#63b8ff" points="240.874,-350.498 251.458,-350.96 243.472,-343.998 240.874,-350.498"/>
</a>
</g>
</g>
<!-- Node33 -->
<g id="Node000033" class="node"><title>Node33</title>
<g id="a_Node000033"><a xlink:href="group___t_vector_iterator.html#ga3f8a97a63f887539e270f6845bf22b9a" target="_top" xlink:title="Zjištění platnosti iterátoru.">
<polygon fill="white" stroke="#666666" points="676,-318.5 586,-318.5 586,-288.5 676,-288.5 676,-318.5"/>
<text text-anchor="start" x="594" y="-306.5" font-family="Helvetica,sans-Serif" font-size="10.00">vector_iterator_is</text>
<text text-anchor="middle" x="631" y="-295.5" font-family="Helvetica,sans-Serif" font-size="10.00">_valid</text>
</a>
</g>
</g>
<!-- Node28&#45;&gt;Node33 -->
<g id="edge57_Node000028_Node000033" class="edge"><title>Node28&#45;&gt;Node33</title>
<g id="a_edge57_Node000028_Node000033"><a xlink:title=" ">
<path fill="none" stroke="#63b8ff" d="M147.993,-276.063C165.732,-284.913 193.897,-297.44 220,-302.5 345.395,-326.807 496.445,-317.53 575.573,-309.807"/>
<polygon fill="#63b8ff" stroke="#63b8ff" points="576.188,-313.263 585.787,-308.779 575.487,-306.298 576.188,-313.263"/>
</a>
</g>
</g>
<!-- Node34 -->
<g id="Node000034" class="node"><title>Node34</title>
<g id="a_Node000034"><a xlink:href="group___t_vector.html#ga6b0b8780d60dad02b8569be119769548" target="_top" xlink:title="Vytvoření úplné kopie vektoru.">
<polygon fill="white" stroke="#666666" points="491,-181 420,-181 420,-162 491,-162 491,-181"/>
<text text-anchor="middle" x="455.5" y="-169" font-family="Helvetica,sans-Serif" font-size="10.00">vector_clone</text>
</a>
</g>
</g>
<!-- Node28&#45;&gt;Node34 -->
<g id="edge46_Node000028_Node000034" class="edge"><title>Node28&#45;&gt;Node34</title>
<g id="a_edge46_Node000028_Node000034"><a xlink:title=" ">
<path fill="none" stroke="#63b8ff" d="M150.024,-256.969C168.036,-248.657 195.374,-236.682 220,-228.5 288.641,-205.696 307.684,-206.45 378,-189.5 388.353,-187.004 399.505,-184.357 410.005,-181.883"/>
<polygon fill="#63b8ff" stroke="#63b8ff" points="410.893,-185.27 419.826,-179.574 409.291,-178.456 410.893,-185.27"/>
</a>
</g>
</g>
<!-- Node28&#45;&gt;Node35 -->
<g id="edge47_Node000028_Node000035" class="edge"><title>Node28&#45;&gt;Node35</title>
<g id="a_edge47_Node000028_Node000035"><a xlink:title=" ">
<path fill="none" stroke="#63b8ff" d="M132.075,-256.651C138.796,-227.477 162.929,-141.264 220,-104.5 275.575,-68.6997 354.61,-70.5726 405.227,-76.7926"/>
<polygon fill="#63b8ff" stroke="#63b8ff" points="404.892,-80.2788 415.267,-78.1291 405.816,-73.34 404.892,-80.2788"/>
</a>
</g>
</g>
<!-- Node36 -->
<g id="Node000036" class="node"><title>Node36</title>
<g id="a_Node000036"><a xlink:href="group___iterator_algorithms.html#gac5ae89ba507530f7c51c45447efbe4ac" target="_top" xlink:title="Zavolání zvolené funkce na prvních N elementů vektoru od pozice určené iterátorem.">
<polygon fill="white" stroke="#666666" points="315,-294 247,-294 247,-275 315,-275 315,-294"/>
<text text-anchor="middle" x="281" y="-282" font-family="Helvetica,sans-Serif" font-size="10.00">vector_for_n</text>
</a>
</g>
</g>
<!-- Node28&#45;&gt;Node36 -->
<g id="edge48_Node000028_Node000036" class="edge"><title>Node28&#45;&gt;Node36</title>
<g id="a_edge48_Node000028_Node000036"><a xlink:title=" ">
<path fill="none" stroke="#63b8ff" d="M163.29,-270.495C184.943,-273.093 213.398,-276.508 236.789,-279.315"/>
<polygon fill="#63b8ff" stroke="#63b8ff" points="236.457,-282.8 246.803,-280.516 237.291,-275.85 236.457,-282.8"/>
</a>
</g>
</g>
<!-- Node38 -->
<g id="Node000038" class="node"><title>Node38</title>
<g id="a_Node000038"><a xlink:href="group__sortable___t_vector.html#ga1b7a4850be6488c69c293bdd13f729a7" target="_top" xlink:title="Ověření korektního setřídění vektoru.">
<polygon fill="white" stroke="#666666" points="337.5,-181.5 224.5,-181.5 224.5,-151.5 337.5,-151.5 337.5,-181.5"/>
<text text-anchor="start" x="232.5" y="-169.5" font-family="Helvetica,sans-Serif" font-size="10.00">vector_is_ascendantly</text>
<text text-anchor="middle" x="281" y="-158.5" font-family="Helvetica,sans-Serif" font-size="10.00">_sorted</text>
</a>
</g>
</g>
<!-- Node28&#45;&gt;Node38 -->
<g id="edge52_Node000028_Node000038" class="edge"><title>Node28&#45;&gt;Node38</title>
<g id="a_edge52_Node000028_Node000038"><a xlink:title=" ">
<path fill="none" stroke="#63b8ff" d="M140.516,-256.948C156.759,-242.493 189.294,-214.712 220,-195.5 225.278,-192.198 230.988,-189.002 236.716,-186.015"/>
<polygon fill="#63b8ff" stroke="#63b8ff" points="238.313,-189.129 245.671,-181.506 235.165,-182.877 238.313,-189.129"/>
</a>
</g>
</g>
<!-- Node39 -->
<g id="Node000039" class="node"><title>Node39</title>
<g id="a_Node000039"><a xlink:href="group__sortable___t_vector.html#gac0806530378fe49a3d61622ca8b9957e" target="_top" xlink:title="Zobrazení hodnoty statistik počtu operací s elementy vektoru.">
<polygon fill="white" stroke="#666666" points="336,-257 226,-257 226,-238 336,-238 336,-257"/>
<text text-anchor="middle" x="281" y="-245" font-family="Helvetica,sans-Serif" font-size="10.00">vector_print_sortstats</text>
</a>
</g>
</g>
<!-- Node28&#45;&gt;Node39 -->
<g id="edge58_Node000028_Node000039" class="edge"><title>Node28&#45;&gt;Node39</title>
<g id="a_edge58_Node000028_Node000039"><a xlink:title=" ">
<path fill="none" stroke="#63b8ff" d="M163.29,-262.283C178.802,-260.318 197.804,-257.912 215.934,-255.615"/>
<polygon fill="#63b8ff" stroke="#63b8ff" points="216.409,-259.083 225.89,-254.354 215.529,-252.138 216.409,-259.083"/>
</a>
</g>
</g>
<!-- Node31 -->
<g id="Node000031" class="node"><title>Node31</title>
<g id="a_Node000031"><a xlink:href="group___t_vector_element.html#gaaae5b52d7f1d155134792f040f00a385" target="_top" xlink:title="Uložení elementu do souboru.">
<polygon fill="white" stroke="#666666" points="518.5,-370 392.5,-370 392.5,-351 518.5,-351 518.5,-370"/>
<text text-anchor="middle" x="455.5" y="-358" font-family="Helvetica,sans-Serif" font-size="10.00">vector_element_store_file</text>
</a>
</g>
</g>
<!-- Node30&#45;&gt;Node31 -->
<g id="edge42_Node000030_Node000031" class="edge"><title>Node30&#45;&gt;Node31</title>
<g id="a_edge42_Node000030_Node000031"><a xlink:title=" ">
<path fill="none" stroke="#63b8ff" d="M318.583,-360.5C337.024,-360.5 360.061,-360.5 381.9,-360.5"/>
<polygon fill="#63b8ff" stroke="#63b8ff" points="382.163,-364 392.163,-360.5 382.163,-357 382.163,-364"/>
</a>
</g>
</g>
<!-- Node32 -->
<g id="Node000032" class="node"><title>Node32</title>
<g id="a_Node000032"><a xlink:href="group___t_vector_iterator.html#ga4d8032eb9dbbdccf794611f2b0c9821c" target="_top" xlink:title="Přečtení hodnoty elementu z vektoru pomocí iterátoru.">
<polygon fill="white" stroke="#666666" points="507.5,-407 403.5,-407 403.5,-388 507.5,-388 507.5,-407"/>
<text text-anchor="middle" x="455.5" y="-395" font-family="Helvetica,sans-Serif" font-size="10.00">vector_iterator_value</text>
</a>
</g>
</g>
<!-- Node30&#45;&gt;Node32 -->
<g id="edge43_Node000030_Node000032" class="edge"><title>Node30&#45;&gt;Node32</title>
<g id="a_edge43_Node000030_Node000032"><a xlink:title=" ">
<path fill="none" stroke="#63b8ff" d="M318.583,-368.347C342.26,-373.425 373.513,-380.129 400.08,-385.827"/>
<polygon fill="#63b8ff" stroke="#63b8ff" points="399.495,-389.281 410.007,-387.957 400.963,-382.437 399.495,-389.281"/>
</a>
</g>
</g>
<!-- Node32&#45;&gt;Node11 -->
<g id="edge44_Node000032_Node000011" class="edge"><title>Node32&#45;&gt;Node11</title>
<g id="a_edge44_Node000032_Node000011"><a xlink:title=" ">
<path fill="none" stroke="#63b8ff" d="M503.87,-407.028C513.611,-409.437 523.722,-412.273 533,-415.5 607.178,-441.299 629.023,-444.95 693,-490.5 711.691,-503.807 712.204,-511.869 729,-527.5 744.045,-541.502 761.9,-556.453 775.319,-567.381"/>
<polygon fill="#63b8ff" stroke="#63b8ff" points="773.445,-570.367 783.422,-573.932 777.846,-564.923 773.445,-570.367"/>
</a>
</g>
</g>
<!-- Node32&#45;&gt;Node33 -->
<g id="edge45_Node000032_Node000033" class="edge"><title>Node32&#45;&gt;Node33</title>
<g id="a_edge45_Node000032_Node000033"><a xlink:title=" ">
<path fill="none" stroke="#63b8ff" d="M507.744,-387.908C516.394,-385.411 525.117,-382.316 533,-378.5 560.998,-364.947 588.637,-342.43 607.205,-325.598"/>
<polygon fill="#63b8ff" stroke="#63b8ff" points="609.617,-328.135 614.582,-318.776 604.864,-322.996 609.617,-328.135"/>
</a>
</g>
</g>
<!-- Node36&#45;&gt;Node33 -->
<g id="edge49_Node000036_Node000033" class="edge"><title>Node36&#45;&gt;Node33</title>
<g id="a_edge49_Node000036_Node000033"><a xlink:title=" ">
<path fill="none" stroke="#63b8ff" d="M315.083,-276.293C333.48,-272.15 356.864,-267.572 378,-265.5 446.56,-258.781 465.308,-252.714 533,-265.5 552.644,-269.21 573.407,-276.801 590.662,-284.229"/>
<polygon fill="#63b8ff" stroke="#63b8ff" points="589.297,-287.452 599.857,-288.313 592.139,-281.055 589.297,-287.452"/>
</a>
</g>
</g>
<!-- Node37 -->
<g id="Node000037" class="node"><title>Node37</title>
<g id="a_Node000037"><a xlink:href="group___t_vector_iterator.html#ga7ce07cda016d67e3ca891125613ece56" target="_top" xlink:title="Posunutí iterátoru vpřed.">
<polygon fill="white" stroke="#666666" points="513,-294 398,-294 398,-275 513,-275 513,-294"/>
<text text-anchor="middle" x="455.5" y="-282" font-family="Helvetica,sans-Serif" font-size="10.00">vector_iterator_to_next</text>
</a>
</g>
</g>
<!-- Node36&#45;&gt;Node37 -->
<g id="edge50_Node000036_Node000037" class="edge"><title>Node36&#45;&gt;Node37</title>
<g id="a_edge50_Node000036_Node000037"><a xlink:title=" ">
<path fill="none" stroke="#63b8ff" d="M315.26,-284.5C335.825,-284.5 362.953,-284.5 387.797,-284.5"/>
<polygon fill="#63b8ff" stroke="#63b8ff" points="387.913,-288 397.913,-284.5 387.913,-281 387.913,-288"/>
</a>
</g>
</g>
<!-- Node37&#45;&gt;Node33 -->
<g id="edge51_Node000037_Node000033" class="edge"><title>Node37&#45;&gt;Node33</title>
<g id="a_edge51_Node000037_Node000033"><a xlink:title=" ">
<path fill="none" stroke="#63b8ff" d="M513.31,-290.721C533.424,-292.924 555.986,-295.395 575.87,-297.572"/>
<polygon fill="#63b8ff" stroke="#63b8ff" points="575.676,-301.072 585.998,-298.681 576.438,-294.113 575.676,-301.072"/>
</a>
</g>
</g>
<!-- Node38&#45;&gt;Node5 -->
<g id="edge55_Node000038_Node000005" class="edge"><title>Node38&#45;&gt;Node5</title>
<g id="a_edge55_Node000038_Node000005"><a xlink:title=" ">
<path fill="none" stroke="#63b8ff" d="M337.8,-153.761C389.312,-144.248 467.513,-135.537 533,-152.5 708.38,-197.927 888.367,-331.246 947.144,-377.486"/>
<polygon fill="#63b8ff" stroke="#63b8ff" points="945.212,-380.421 955.221,-383.896 949.563,-374.938 945.212,-380.421"/>
</a>
</g>
</g>
<!-- Node38&#45;&gt;Node34 -->
<g id="edge53_Node000038_Node000034" class="edge"><title>Node38&#45;&gt;Node34</title>
<g id="a_edge53_Node000038_Node000034"><a xlink:title=" ">
<path fill="none" stroke="#63b8ff" d="M337.53,-168.11C360.912,-168.787 387.758,-169.565 409.83,-170.205"/>
<polygon fill="#63b8ff" stroke="#63b8ff" points="409.827,-173.707 419.924,-170.498 410.03,-166.709 409.827,-173.707"/>
</a>
</g>
</g>
<!-- Node38&#45;&gt;Node35 -->
<g id="edge54_Node000038_Node000035" class="edge"><title>Node38&#45;&gt;Node35</title>
<g id="a_edge54_Node000038_Node000035"><a xlink:title=" ">
<path fill="none" stroke="#63b8ff" d="M320.489,-151.496C327.727,-148.385 335.164,-144.987 342,-141.5 358.704,-132.98 361.397,-128.215 378,-119.5 391.876,-112.216 407.635,-105.036 421.229,-99.1649"/>
<polygon fill="#63b8ff" stroke="#63b8ff" points="422.857,-102.276 430.686,-95.1382 420.115,-95.8353 422.857,-102.276"/>
</a>
</g>
</g>
<!-- Node40 -->
<g id="Node000040" class="node"><title>Node40</title>
<g id="a_Node000040"><a xlink:href="_t_vector_8c.html#ac9a7377bcfc71c2cc98592f1fa31deb0" target="_top" xlink:title=" ">
<polygon fill="white" stroke="#666666" points="533,-218 378,-218 378,-199 533,-199 533,-218"/>
<text text-anchor="middle" x="455.5" y="-206" font-family="Helvetica,sans-Serif" font-size="10.00">vector_fast_print_sortstats_item</text>
</a>
</g>
</g>
<!-- Node39&#45;&gt;Node40 -->
<g id="edge59_Node000039_Node000040" class="edge"><title>Node39&#45;&gt;Node40</title>
<g id="a_edge59_Node000039_Node000040"><a xlink:title=" ">
<path fill="none" stroke="#63b8ff" d="M324.198,-237.96C347.78,-232.628 377.367,-225.939 402.386,-220.282"/>
<polygon fill="#63b8ff" stroke="#63b8ff" points="403.457,-223.629 412.439,-218.009 401.913,-216.801 403.457,-223.629"/>
</a>
</g>
</g>
<!-- Node42 -->
<g id="Node000042" class="node"><title>Node42</title>
<g id="a_Node000042"><a xlink:href="group___t_vector_element.html#gaf9a34133c2292f807fe184c72fd3f8d8" target="_top" xlink:title="Načtení elementu ze souboru.">
<polygon fill="white" stroke="#666666" points="342,-19 220,-19 220,-0 342,-0 342,-19"/>
<text text-anchor="middle" x="281" y="-7" font-family="Helvetica,sans-Serif" font-size="10.00">vector_element_load_file</text>
</a>
</g>
</g>
<!-- Node41&#45;&gt;Node42 -->
<g id="edge62_Node000041_Node000042" class="edge"><title>Node41&#45;&gt;Node42</title>
<g id="a_edge62_Node000041_Node000042"><a xlink:title=" ">
<path fill="none" stroke="#63b8ff" d="M167.851,-9.5C180.562,-9.5 195.177,-9.5 209.567,-9.5"/>
<polygon fill="#63b8ff" stroke="#63b8ff" points="209.975,-13.0001 219.975,-9.5 209.975,-6.0001 209.975,-13.0001"/>
</a>
</g>
</g>
</g>
</svg>
