<?xml version="1.0" encoding="UTF-8" standalone="no"?>
<!DOCTYPE svg PUBLIC "-//W3C//DTD SVG 1.1//EN"
 "http://www.w3.org/Graphics/SVG/1.1/DTD/svg11.dtd">
<!-- Generated by graphviz version 2.38.0 (20140413.2041)
 -->
<!-- Title: vector_compare_position_value Pages: 1 -->
<svg width="653pt" height="176pt"
 viewBox="0.00 0.00 653.00 175.51" xmlns="http://www.w3.org/2000/svg" xmlns:xlink="http://www.w3.org/1999/xlink">
<g id="graph0" class="graph" transform="scale(1 1) rotate(0) translate(4 171.513)">
<title>vector_compare_position_value</title>
<!-- Node1 -->
<g id="Node000001" class="node"><title>Node1</title>
<g id="a_Node000001"><a xlink:title="Porovnání mezi hodnotou elementu vektoru a hodnotou typu VectorElement.">
<polygon fill="#999999" stroke="#666666" points="645,-104 521,-104 521,-74 645,-74 645,-104"/>
<text text-anchor="start" x="529" y="-92" font-family="Helvetica,sans-Serif" font-size="10.00">vector_compare_position</text>
<text text-anchor="middle" x="583" y="-81" font-family="Helvetica,sans-Serif" font-size="10.00">_value</text>
</a>
</g>
</g>
<!-- Node2 -->
<g id="Node000002" class="node"><title>Node2</title>
<g id="a_Node000002"><a xlink:href="group___basic_sorts.html#gac3903c3fd846908cd362e293ed40582e" target="_top" xlink:title="Třídění přímým vkládáním (Insert Sort)">
<polygon fill="white" stroke="#666666" points="160,-166.5 98,-166.5 98,-147.5 160,-147.5 160,-166.5"/>
<text text-anchor="middle" x="129" y="-154.5" font-family="Helvetica,sans-Serif" font-size="10.00">insert_sort</text>
</a>
</g>
</g>
<!-- Node1&#45;&gt;Node2 -->
<g id="edge1_Node000001_Node000002" class="edge"><title>Node1&#45;&gt;Node2</title>
<g id="a_edge1_Node000001_Node000002"><a xlink:title=" ">
<path fill="none" stroke="#63b8ff" d="M553.833,-109.801C535.292,-122.23 509.922,-136.936 485,-144 368.702,-176.965 222.391,-167.073 160.196,-160.625"/>
<polygon fill="#63b8ff" stroke="#63b8ff" points="555.849,-112.662 562.099,-104.107 551.878,-106.897 555.849,-112.662"/>
</a>
</g>
</g>
<!-- Node4 -->
<g id="Node000004" class="node"><title>Node4</title>
<g id="a_Node000004"><a xlink:href="advanced__sorts_8c.html#a0ae77c9640aa821e5507079ec5d2eb1d" target="_top" xlink:title="Vnitřní a lokální funkce realizující rekurzivní funkci pro metodu (Quick Sort)">
<polygon fill="white" stroke="#666666" points="473,-117.5 378,-117.5 378,-98.5 473,-98.5 473,-117.5"/>
<text text-anchor="middle" x="425.5" y="-105.5" font-family="Helvetica,sans-Serif" font-size="10.00">quick_sort_worker</text>
</a>
</g>
</g>
<!-- Node1&#45;&gt;Node4 -->
<g id="edge3_Node000001_Node000004" class="edge"><title>Node1&#45;&gt;Node4</title>
<g id="a_edge3_Node000001_Node000004"><a xlink:title=" ">
<path fill="none" stroke="#63b8ff" d="M510.87,-97.6911C498.157,-99.2445 485.206,-100.827 473.391,-102.271"/>
<polygon fill="#63b8ff" stroke="#63b8ff" points="511.487,-101.142 520.989,-96.4548 510.638,-94.1935 511.487,-101.142"/>
</a>
</g>
</g>
<!-- Node6 -->
<g id="Node000006" class="node"><title>Node6</title>
<g id="a_Node000006"><a xlink:href="group___advanced_sorts.html#gaee070b00692f425d83eaea28b37bab2b" target="_top" xlink:title="Shellovo třídění vkládáním s ubývajícím krokem (Shell Sort) dle Hibbardovy posloupnosti.">
<polygon fill="white" stroke="#666666" points="304.5,-85.5 245.5,-85.5 245.5,-66.5 304.5,-66.5 304.5,-85.5"/>
<text text-anchor="middle" x="275" y="-73.5" font-family="Helvetica,sans-Serif" font-size="10.00">shell_sort</text>
</a>
</g>
</g>
<!-- Node1&#45;&gt;Node6 -->
<g id="edge7_Node000001_Node000006" class="edge"><title>Node1&#45;&gt;Node6</title>
<g id="a_edge7_Node000001_Node000006"><a xlink:title=" ">
<path fill="none" stroke="#63b8ff" d="M510.557,-85.9648C445.08,-83.1832 351.447,-79.2053 304.762,-77.2219"/>
<polygon fill="#63b8ff" stroke="#63b8ff" points="510.672,-89.4728 520.812,-86.4005 510.969,-82.4791 510.672,-89.4728"/>
</a>
</g>
</g>
<!-- Node7 -->
<g id="Node000007" class="node"><title>Node7</title>
<g id="a_Node000007"><a xlink:href="group___t_span.html#gad64d53738a4da90ef126cd73d84b5f52" target="_top" xlink:title="Porovnání mezi hodnotou elementu Span a hodnotou typu VectorElement.">
<polygon fill="white" stroke="#666666" points="485,-38 366,-38 366,-8 485,-8 485,-38"/>
<text text-anchor="start" x="374" y="-26" font-family="Helvetica,sans-Serif" font-size="10.00">span_compare_position</text>
<text text-anchor="middle" x="425.5" y="-15" font-family="Helvetica,sans-Serif" font-size="10.00">_value</text>
</a>
</g>
</g>
<!-- Node1&#45;&gt;Node7 -->
<g id="edge9_Node000001_Node000007" class="edge"><title>Node1&#45;&gt;Node7</title>
<g id="a_edge9_Node000001_Node000007"><a xlink:title=" ">
<path fill="none" stroke="#63b8ff" d="M537.113,-69.9483C513.239,-59.8152 484.299,-47.5318 462.009,-38.0713"/>
<polygon fill="#63b8ff" stroke="#63b8ff" points="535.753,-73.173 546.325,-73.8583 538.487,-66.7294 535.753,-73.173"/>
</a>
</g>
</g>
<!-- Node3 -->
<g id="Node000003" class="node"><title>Node3</title>
<g id="a_Node000003"><a xlink:href="group___main_program.html#ga0ddf1224851353fc92bfbff6f499fa97" target="_top" xlink:title=" ">
<polygon fill="white" stroke="#666666" points="38,-103.5 0,-103.5 0,-84.5 38,-84.5 38,-103.5"/>
<text text-anchor="middle" x="19" y="-91.5" font-family="Helvetica,sans-Serif" font-size="10.00">main</text>
</a>
</g>
</g>
<!-- Node2&#45;&gt;Node3 -->
<g id="edge2_Node000002_Node000003" class="edge"><title>Node2&#45;&gt;Node3</title>
<g id="a_edge2_Node000002_Node000003"><a xlink:title=" ">
<path fill="none" stroke="#63b8ff" d="M101.363,-142.488C92.6032,-137.64 82.8452,-132.157 74,-127 60.9014,-119.364 46.233,-110.371 35.4935,-103.703"/>
<polygon fill="#63b8ff" stroke="#63b8ff" points="99.9378,-145.699 110.386,-147.455 103.313,-139.566 99.9378,-145.699"/>
</a>
</g>
</g>
<!-- Node4&#45;&gt;Node4 -->
<g id="edge6_Node000004_Node000004" class="edge"><title>Node4&#45;&gt;Node4</title>
<g id="a_edge6_Node000004_Node000004"><a xlink:title=" ">
<path fill="none" stroke="#63b8ff" d="M453.499,-126.321C452.329,-131.509 442.996,-135.5 425.5,-135.5 398.84,-135.5 391.133,-126.234 402.381,-117.583"/>
<polygon fill="#63b8ff" stroke="#63b8ff" points="456.551,-124.607 448.619,-117.583 450.439,-128.02 456.551,-124.607"/>
</a>
</g>
</g>
<!-- Node5 -->
<g id="Node000005" class="node"><title>Node5</title>
<g id="a_Node000005"><a xlink:href="group___advanced_sorts.html#gaa369b74c9050d30aa2416f9dba8cc8f5" target="_top" xlink:title="Rychlé třídění výměnou (Quick Sort) s volbou prostředního prvku jako pivota.">
<polygon fill="white" stroke="#666666" points="306,-122.5 244,-122.5 244,-103.5 306,-103.5 306,-122.5"/>
<text text-anchor="middle" x="275" y="-110.5" font-family="Helvetica,sans-Serif" font-size="10.00">quick_sort</text>
</a>
</g>
</g>
<!-- Node4&#45;&gt;Node5 -->
<g id="edge4_Node000004_Node000005" class="edge"><title>Node4&#45;&gt;Node5</title>
<g id="a_edge4_Node000004_Node000005"><a xlink:title=" ">
<path fill="none" stroke="#63b8ff" d="M367.793,-109.909C346.772,-110.617 323.761,-111.392 306.037,-111.989"/>
<polygon fill="#63b8ff" stroke="#63b8ff" points="368.045,-113.403 377.921,-109.568 367.809,-106.407 368.045,-113.403"/>
</a>
</g>
</g>
<!-- Node5&#45;&gt;Node3 -->
<g id="edge5_Node000005_Node000003" class="edge"><title>Node5&#45;&gt;Node3</title>
<g id="a_edge5_Node000005_Node000003"><a xlink:title=" ">
<path fill="none" stroke="#63b8ff" d="M233.838,-110.454C193.44,-107.831 129.372,-103.501 74,-99 62.176,-98.0389 48.9098,-96.8126 38.4854,-95.815"/>
<polygon fill="#63b8ff" stroke="#63b8ff" points="233.623,-113.948 243.828,-111.1 234.075,-106.962 233.623,-113.948"/>
</a>
</g>
</g>
<!-- Node6&#45;&gt;Node3 -->
<g id="edge8_Node000006_Node000003" class="edge"><title>Node6&#45;&gt;Node3</title>
<g id="a_edge8_Node000006_Node000003"><a xlink:title=" ">
<path fill="none" stroke="#63b8ff" d="M235.177,-78.7512C179.506,-82.6964 79.1998,-89.8047 38.2049,-92.7099"/>
<polygon fill="#63b8ff" stroke="#63b8ff" points="235.629,-82.2281 245.357,-78.0298 235.134,-75.2456 235.629,-82.2281"/>
</a>
</g>
</g>
<!-- Node8 -->
<g id="Node000008" class="node"><title>Node8</title>
<g id="a_Node000008"><a xlink:href="advanced__sorts__with__span_8c.html#a1526ecf4371ecb71f2bc68954f16681f" target="_top" xlink:title="Vnitřní a lokální funkce realizující rekurzivní funkci pro metodu (Quick Sort)">
<polygon fill="white" stroke="#666666" points="330,-30 220,-30 220,-0 330,-0 330,-30"/>
<text text-anchor="start" x="228" y="-18" font-family="Helvetica,sans-Serif" font-size="10.00">quick_sort_with_span</text>
<text text-anchor="middle" x="275" y="-7" font-family="Helvetica,sans-Serif" font-size="10.00">_worker</text>
</a>
</g>
</g>
<!-- Node7&#45;&gt;Node8 -->
<g id="edge10_Node000007_Node000008" class="edge"><title>Node7&#45;&gt;Node8</title>
<g id="a_edge10_Node000007_Node000008"><a xlink:title=" ">
<path fill="none" stroke="#63b8ff" d="M355.58,-19.2871C347.132,-18.832 338.592,-18.372 330.4,-17.9306"/>
<polygon fill="#63b8ff" stroke="#63b8ff" points="355.635,-22.7951 365.809,-19.8382 356.012,-15.8052 355.635,-22.7951"/>
</a>
</g>
</g>
<!-- Node8&#45;&gt;Node8 -->
<g id="edge13_Node000008_Node000008" class="edge"><title>Node8&#45;&gt;Node8</title>
<g id="a_edge13_Node000008_Node000008"><a xlink:title=" ">
<path fill="none" stroke="#63b8ff" d="M300.555,-40.5975C297.063,-44.9704 288.545,-48 275,-48 252.188,-48 243.633,-39.4063 249.336,-30.2754"/>
<polygon fill="#63b8ff" stroke="#63b8ff" points="304.059,-40.3117 300.664,-30.2754 297.059,-40.238 304.059,-40.3117"/>
</a>
</g>
</g>
<!-- Node9 -->
<g id="Node000009" class="node"><title>Node9</title>
<g id="a_Node000009"><a xlink:href="group___advanced_sorts_with_span.html#ga451c79ea7ae3de87d73ed333460ea2d5" target="_top" xlink:title="Rychlé třídění výměnou (Quick Sort with span) s volbou prostředního prvku jako pivota a využívající t...">
<polygon fill="white" stroke="#666666" points="184,-35.5 74,-35.5 74,-16.5 184,-16.5 184,-35.5"/>
<text text-anchor="middle" x="129" y="-23.5" font-family="Helvetica,sans-Serif" font-size="10.00">quick_sort_with_span</text>
</a>
</g>
</g>
<!-- Node8&#45;&gt;Node9 -->
<g id="edge11_Node000008_Node000009" class="edge"><title>Node8&#45;&gt;Node9</title>
<g id="a_edge11_Node000008_Node000009"><a xlink:title=" ">
<path fill="none" stroke="#63b8ff" d="M209.73,-19.9095C201.25,-20.5573 192.625,-21.2162 184.333,-21.8496"/>
<polygon fill="#63b8ff" stroke="#63b8ff" points="210.266,-23.3789 219.97,-19.1273 209.732,-16.3992 210.266,-23.3789"/>
</a>
</g>
</g>
<!-- Node9&#45;&gt;Node3 -->
<g id="edge12_Node000009_Node000003" class="edge"><title>Node9&#45;&gt;Node3</title>
<g id="a_edge12_Node000009_Node000003"><a xlink:title=" ">
<path fill="none" stroke="#63b8ff" d="M103.827,-41.2198C82.7769,-54.4738 52.9147,-73.2759 35.0969,-84.4946"/>
<polygon fill="#63b8ff" stroke="#63b8ff" points="105.929,-44.0327 112.526,-35.7427 102.199,-38.1091 105.929,-44.0327"/>
</a>
</g>
</g>
</g>
</svg>
