<?xml version="1.0" encoding="UTF-8" standalone="no"?>
<!DOCTYPE svg PUBLIC "-//W3C//DTD SVG 1.1//EN"
 "http://www.w3.org/Graphics/SVG/1.1/DTD/svg11.dtd">
<!-- Generated by graphviz version 2.38.0 (20140413.2041)
 -->
<!-- Title: 2.2. Doplnění pro Sortable Vector o vlastnost sdílení statistik třídění Pages: 1 -->
<svg width="398pt" height="49pt"
 viewBox="0.00 0.00 398.00 49.00" xmlns="http://www.w3.org/2000/svg" xmlns:xlink="http://www.w3.org/1999/xlink">
<g id="graph0" class="graph" transform="scale(1 1) rotate(0) translate(4 45)">
<title>2.2. Doplnění pro Sortable Vector o vlastnost sdílení statistik třídění</title>
<!-- Node3 -->
<g id="Node000003" class="node"><title>Node3</title>
<g id="a_Node000003"><a xlink:href="group___t_span.html" target="_top" xlink:title="Definice typu Span, který umožňuje přístup k omezené části vektoru (vyžaduje Sortable Vector s vlastn...">
<polygon fill="white" stroke="#666666" points="390,-41 265,-41 265,-0 390,-0 390,-41"/>
<text text-anchor="start" x="273" y="-29" font-family="Helvetica,sans-Serif" font-size="10.00">2.2.1. Datový typ</text>
<text text-anchor="start" x="273" y="-18" font-family="Helvetica,sans-Serif" font-size="10.00"> Span pro přístup</text>
<text text-anchor="middle" x="327.5" y="-7" font-family="Helvetica,sans-Serif" font-size="10.00"> k omezené části vektoru</text>
</a>
</g>
</g>
<!-- Node2 -->
<g id="Node000002" class="node"><title>Node2</title>
<g id="a_Node000002"><a xlink:href="group___t_vector.html" target="_top" xlink:title="Definice datového typu Vector a jeho funkcí">
<polygon fill="white" stroke="#666666" points="56,-30 3.55271e-015,-30 3.55271e-015,-11 56,-11 56,-30"/>
<text text-anchor="middle" x="28" y="-18" font-family="Helvetica,sans-Serif" font-size="10.00">2. Vector</text>
</a>
</g>
</g>
<!-- Node1 -->
<g id="Node000001" class="node"><title>Node1</title>
<g id="a_Node000001"><a xlink:title="Definice typu Vector (sortable_with_shareable_sortstats), popis jeho nově doplněných vlastností a fun...">
<polygon fill="#999999" stroke="#666666" points="229,-41 92,-41 92,-0 229,-0 229,-41"/>
<text text-anchor="start" x="100" y="-29" font-family="Helvetica,sans-Serif" font-size="10.00">2.2. Doplnění pro</text>
<text text-anchor="start" x="100" y="-18" font-family="Helvetica,sans-Serif" font-size="10.00"> Sortable Vector o vlastnost</text>
<text text-anchor="middle" x="160.5" y="-7" font-family="Helvetica,sans-Serif" font-size="10.00"> sdílení statistik třídění</text>
</a>
</g>
</g>
<!-- Node2&#45;&gt;Node1 -->
<g id="edge1" class="edge"><title>Node2&#45;&gt;Node1</title>
<path fill="none" stroke="black" d="M66.1777,-20.5C74.2406,-20.5 83.0101,-20.5 91.8386,-20.5"/>
<polygon fill="black" stroke="black" points="66.0397,-17.0001 56.0397,-20.5 66.0396,-24.0001 66.0397,-17.0001"/>
</g>
<!-- Node1&#45;&gt;Node3 -->
<g id="edge2" class="edge"><title>Node1&#45;&gt;Node3</title>
<path fill="none" stroke="black" d="M239.153,-20.5C247.774,-20.5 256.466,-20.5 264.85,-20.5"/>
<polygon fill="black" stroke="black" points="239.088,-17.0001 229.088,-20.5 239.088,-24.0001 239.088,-17.0001"/>
</g>
</g>
</svg>
