<?xml version="1.0" encoding="UTF-8" standalone="no"?>
<!DOCTYPE svg PUBLIC "-//W3C//DTD SVG 1.1//EN"
 "http://www.w3.org/Graphics/SVG/1.1/DTD/svg11.dtd">
<!-- Generated by graphviz version 2.38.0 (20140413.2041)
 -->
<!-- Title: sort_testing Pages: 1 -->
<svg width="542pt" height="338pt"
 viewBox="0.00 0.00 542.00 338.00" xmlns="http://www.w3.org/2000/svg" xmlns:xlink="http://www.w3.org/1999/xlink">
<g id="graph0" class="graph" transform="scale(1 1) rotate(0) translate(4 334)">
<title>sort_testing</title>
<!-- Node1 -->
<g id="Node000001" class="node"><title>Node1</title>
<g id="a_Node000001"><a xlink:title="Testování třídicí metody.">
<polygon fill="#999999" stroke="#666666" points="68,-174 0,-174 0,-155 68,-155 68,-174"/>
<text text-anchor="middle" x="34" y="-162" font-family="Helvetica,sans-Serif" font-size="10.00">sort_testing</text>
</a>
</g>
</g>
<!-- Node2 -->
<g id="Node000002" class="node"><title>Node2</title>
<g id="a_Node000002"><a xlink:href="main__support_8h.html#aa291195ad453d2b1e29004cc2e043c01" target="_top" xlink:title="Výpočet doby trvání časového intervalu.">
<polygon fill="white" stroke="#666666" points="194.5,-330 126.5,-330 126.5,-311 194.5,-311 194.5,-330"/>
<text text-anchor="middle" x="160.5" y="-318" font-family="Helvetica,sans-Serif" font-size="10.00">difftimespec</text>
</a>
</g>
</g>
<!-- Node1&#45;&gt;Node2 -->
<g id="edge1_Node000001_Node000002" class="edge"><title>Node1&#45;&gt;Node2</title>
<g id="a_edge1_Node000001_Node000002"><a xlink:title=" ">
<path fill="none" stroke="#63b8ff" d="M37.0809,-174.118C42.9802,-199.086 62.1677,-266.516 104,-302.5 107.884,-305.841 112.4,-308.565 117.146,-310.784"/>
<polygon fill="#63b8ff" stroke="#63b8ff" points="115.865,-314.041 126.451,-314.461 118.437,-307.531 115.865,-314.041"/>
</a>
</g>
</g>
<!-- Node3 -->
<g id="Node000003" class="node"><title>Node3</title>
<g id="a_Node000003"><a xlink:href="group___basic_sorts.html#ga25c7ac8991c266d71b75cf20c14b67cf" target="_top" xlink:title="Vytisknutí elementu vektoru pomocí iterátoru.">
<polygon fill="white" stroke="#666666" points="198,-293 123,-293 123,-274 198,-274 198,-293"/>
<text text-anchor="middle" x="160.5" y="-281" font-family="Helvetica,sans-Serif" font-size="10.00">print_element</text>
</a>
</g>
</g>
<!-- Node1&#45;&gt;Node3 -->
<g id="edge2_Node000001_Node000003" class="edge"><title>Node1&#45;&gt;Node3</title>
<g id="a_edge2_Node000001_Node000003"><a xlink:title=" ">
<path fill="none" stroke="#63b8ff" d="M39.7502,-174.167C49.425,-192.968 73.136,-234.776 104,-259.5 108.776,-263.326 114.255,-266.654 119.869,-269.513"/>
<polygon fill="#63b8ff" stroke="#63b8ff" points="118.798,-272.873 129.345,-273.885 121.731,-266.517 118.798,-272.873"/>
</a>
</g>
</g>
<!-- Node7 -->
<g id="Node000007" class="node"><title>Node7</title>
<g id="a_Node000007"><a xlink:href="group___t_vector_iterator.html#ga3f8a97a63f887539e270f6845bf22b9a" target="_top" xlink:title="Zjištění platnosti iterátoru.">
<polygon fill="white" stroke="#666666" points="534,-185.5 444,-185.5 444,-155.5 534,-155.5 534,-185.5"/>
<text text-anchor="start" x="452" y="-173.5" font-family="Helvetica,sans-Serif" font-size="10.00">vector_iterator_is</text>
<text text-anchor="middle" x="489" y="-162.5" font-family="Helvetica,sans-Serif" font-size="10.00">_valid</text>
</a>
</g>
</g>
<!-- Node1&#45;&gt;Node7 -->
<g id="edge18_Node000001_Node000007" class="edge"><title>Node1&#45;&gt;Node7</title>
<g id="a_edge18_Node000001_Node000007"><a xlink:title=" ">
<path fill="none" stroke="#63b8ff" d="M45.7832,-174.177C58.6306,-185.079 81.2312,-202.339 104,-210.5 231.342,-256.144 278.812,-265.624 408,-225.5 429.186,-218.92 449.735,-204.566 464.701,-192.172"/>
<polygon fill="#63b8ff" stroke="#63b8ff" points="467.105,-194.722 472.41,-185.55 462.544,-189.412 467.105,-194.722"/>
</a>
</g>
</g>
<!-- Node8 -->
<g id="Node000008" class="node"><title>Node8</title>
<g id="a_Node000008"><a xlink:href="group___t_vector.html#ga6b0b8780d60dad02b8569be119769548" target="_top" xlink:title="Vytvoření úplné kopie vektoru.">
<polygon fill="white" stroke="#666666" points="366,-217 295,-217 295,-198 366,-198 366,-217"/>
<text text-anchor="middle" x="330.5" y="-205" font-family="Helvetica,sans-Serif" font-size="10.00">vector_clone</text>
</a>
</g>
</g>
<!-- Node1&#45;&gt;Node8 -->
<g id="edge7_Node000001_Node000008" class="edge"><title>Node1&#45;&gt;Node8</title>
<g id="a_edge7_Node000001_Node000008"><a xlink:title=" ">
<path fill="none" stroke="#63b8ff" d="M57.9021,-174.09C71.1397,-179.219 88.2443,-185.152 104,-188.5 165.679,-201.608 238.655,-205.748 284.518,-207.013"/>
<polygon fill="#63b8ff" stroke="#63b8ff" points="284.643,-210.517 294.724,-207.259 284.812,-203.519 284.643,-210.517"/>
</a>
</g>
</g>
<!-- Node9 -->
<g id="Node000009" class="node"><title>Node9</title>
<g id="a_Node000009"><a xlink:href="group___t_vector.html#ga41fcff5418fe213f2caaa586f521bcd6" target="_top" xlink:title="Dealokace vektoru.">
<polygon fill="white" stroke="#666666" points="370.5,-143 290.5,-143 290.5,-124 370.5,-124 370.5,-143"/>
<text text-anchor="middle" x="330.5" y="-131" font-family="Helvetica,sans-Serif" font-size="10.00">vector_destroy</text>
</a>
</g>
</g>
<!-- Node1&#45;&gt;Node9 -->
<g id="edge8_Node000001_Node000009" class="edge"><title>Node1&#45;&gt;Node9</title>
<g id="a_edge8_Node000001_Node000009"><a xlink:title=" ">
<path fill="none" stroke="#63b8ff" d="M56.9087,-154.96C70.247,-149.641 87.7869,-143.499 104,-140.5 163.977,-129.407 234.426,-129.22 280.414,-130.775"/>
<polygon fill="#63b8ff" stroke="#63b8ff" points="280.289,-134.272 290.414,-131.153 280.554,-127.277 280.289,-134.272"/>
</a>
</g>
</g>
<!-- Node10 -->
<g id="Node000010" class="node"><title>Node10</title>
<g id="a_Node000010"><a xlink:href="group___iterator_algorithms.html#gac5ae89ba507530f7c51c45447efbe4ac" target="_top" xlink:title="Zavolání zvolené funkce na prvních N elementů vektoru od pozice určené iterátorem.">
<polygon fill="white" stroke="#666666" points="194.5,-93 126.5,-93 126.5,-74 194.5,-74 194.5,-93"/>
<text text-anchor="middle" x="160.5" y="-81" font-family="Helvetica,sans-Serif" font-size="10.00">vector_for_n</text>
</a>
</g>
</g>
<!-- Node1&#45;&gt;Node10 -->
<g id="edge9_Node000001_Node000010" class="edge"><title>Node1&#45;&gt;Node10</title>
<g id="a_edge9_Node000001_Node000010"><a xlink:title=" ">
<path fill="none" stroke="#63b8ff" d="M45.0493,-154.623C57.8939,-142.387 81.2062,-121.453 104,-107.5 110.279,-103.657 117.282,-100.118 124.142,-97.0056"/>
<polygon fill="#63b8ff" stroke="#63b8ff" points="125.535,-100.217 133.326,-93.0369 122.758,-93.7909 125.535,-100.217"/>
</a>
</g>
</g>
<!-- Node12 -->
<g id="Node000012" class="node"><title>Node12</title>
<g id="a_Node000012"><a xlink:href="group__sortable___t_vector.html#ga1b7a4850be6488c69c293bdd13f729a7" target="_top" xlink:title="Ověření korektního setřídění vektoru.">
<polygon fill="white" stroke="#666666" points="217,-179.5 104,-179.5 104,-149.5 217,-149.5 217,-179.5"/>
<text text-anchor="start" x="112" y="-167.5" font-family="Helvetica,sans-Serif" font-size="10.00">vector_is_ascendantly</text>
<text text-anchor="middle" x="160.5" y="-156.5" font-family="Helvetica,sans-Serif" font-size="10.00">_sorted</text>
</a>
</g>
</g>
<!-- Node1&#45;&gt;Node12 -->
<g id="edge13_Node000001_Node000012" class="edge"><title>Node1&#45;&gt;Node12</title>
<g id="a_edge13_Node000001_Node000012"><a xlink:title=" ">
<path fill="none" stroke="#63b8ff" d="M68.0369,-164.5C75.9926,-164.5 84.7717,-164.5 93.6487,-164.5"/>
<polygon fill="#63b8ff" stroke="#63b8ff" points="93.6742,-168 103.674,-164.5 93.6741,-161 93.6742,-168"/>
</a>
</g>
</g>
<!-- Node14 -->
<g id="Node000014" class="node"><title>Node14</title>
<g id="a_Node000014"><a xlink:href="group___t_vector_iterator.html#ga40d7eff2ece0eb356d27cdcdef255560" target="_top" xlink:title="Vytvoření nového iterátoru ukazujícího na počáteční element.">
<polygon fill="white" stroke="#666666" points="213.5,-56 107.5,-56 107.5,-37 213.5,-37 213.5,-56"/>
<text text-anchor="middle" x="160.5" y="-44" font-family="Helvetica,sans-Serif" font-size="10.00">vector_iterator_begin</text>
</a>
</g>
</g>
<!-- Node1&#45;&gt;Node14 -->
<g id="edge17_Node000001_Node000014" class="edge"><title>Node1&#45;&gt;Node14</title>
<g id="a_edge17_Node000001_Node000014"><a xlink:title=" ">
<path fill="none" stroke="#63b8ff" d="M38.9955,-154.969C47.7794,-135.159 70.676,-89.3225 104,-64.5 105.848,-63.1234 107.806,-61.8493 109.84,-60.6704"/>
<polygon fill="#63b8ff" stroke="#63b8ff" points="111.713,-63.649 119.135,-56.0881 108.618,-57.3704 111.713,-63.649"/>
</a>
</g>
</g>
<!-- Node15 -->
<g id="Node000015" class="node"><title>Node15</title>
<g id="a_Node000015"><a xlink:href="group__sortable___t_vector.html#gac0806530378fe49a3d61622ca8b9957e" target="_top" xlink:title="Zobrazení hodnoty statistik počtu operací s elementy vektoru.">
<polygon fill="white" stroke="#666666" points="215.5,-19 105.5,-19 105.5,-0 215.5,-0 215.5,-19"/>
<text text-anchor="middle" x="160.5" y="-7" font-family="Helvetica,sans-Serif" font-size="10.00">vector_print_sortstats</text>
</a>
</g>
</g>
<!-- Node1&#45;&gt;Node15 -->
<g id="edge19_Node000001_Node000015" class="edge"><title>Node1&#45;&gt;Node15</title>
<g id="a_edge19_Node000001_Node000015"><a xlink:title=" ">
<path fill="none" stroke="#63b8ff" d="M37.1027,-154.95C43.0546,-130.162 62.3579,-63.2149 104,-27.5 105.499,-26.2141 107.092,-25.0196 108.756,-23.9101"/>
<polygon fill="#63b8ff" stroke="#63b8ff" points="110.501,-26.9448 117.556,-19.0411 107.112,-20.8198 110.501,-26.9448"/>
</a>
</g>
</g>
<!-- Node4 -->
<g id="Node000004" class="node"><title>Node4</title>
<g id="a_Node000004"><a xlink:href="group___t_vector_element.html#gaaae5b52d7f1d155134792f040f00a385" target="_top" xlink:title="Uložení elementu do souboru.">
<polygon fill="white" stroke="#666666" points="393.5,-293 267.5,-293 267.5,-274 393.5,-274 393.5,-293"/>
<text text-anchor="middle" x="330.5" y="-281" font-family="Helvetica,sans-Serif" font-size="10.00">vector_element_store_file</text>
</a>
</g>
</g>
<!-- Node3&#45;&gt;Node4 -->
<g id="edge3_Node000003_Node000004" class="edge"><title>Node3&#45;&gt;Node4</title>
<g id="a_edge3_Node000003_Node000004"><a xlink:title=" ">
<path fill="none" stroke="#63b8ff" d="M198.368,-283.5C215.638,-283.5 236.837,-283.5 257.115,-283.5"/>
<polygon fill="#63b8ff" stroke="#63b8ff" points="257.291,-287 267.291,-283.5 257.291,-280 257.291,-287"/>
</a>
</g>
</g>
<!-- Node5 -->
<g id="Node000005" class="node"><title>Node5</title>
<g id="a_Node000005"><a xlink:href="group___t_vector_iterator.html#ga4d8032eb9dbbdccf794611f2b0c9821c" target="_top" xlink:title="Přečtení hodnoty elementu z vektoru pomocí iterátoru.">
<polygon fill="white" stroke="#666666" points="382.5,-330 278.5,-330 278.5,-311 382.5,-311 382.5,-330"/>
<text text-anchor="middle" x="330.5" y="-318" font-family="Helvetica,sans-Serif" font-size="10.00">vector_iterator_value</text>
</a>
</g>
</g>
<!-- Node3&#45;&gt;Node5 -->
<g id="edge4_Node000003_Node000005" class="edge"><title>Node3&#45;&gt;Node5</title>
<g id="a_edge4_Node000003_Node000005"><a xlink:title=" ">
<path fill="none" stroke="#63b8ff" d="M198.368,-291.62C221.221,-296.653 250.954,-303.201 276.329,-308.79"/>
<polygon fill="#63b8ff" stroke="#63b8ff" points="275.659,-312.226 286.178,-310.959 277.165,-305.39 275.659,-312.226"/>
</a>
</g>
</g>
<!-- Node6 -->
<g id="Node000006" class="node"><title>Node6</title>
<g id="a_Node000006"><a xlink:href="_t_vector_8c.html#a0fe5f1145e51f154b5470d640c5d682c" target="_top" xlink:title=" ">
<polygon fill="white" stroke="#666666" points="534,-330 444,-330 444,-311 534,-311 534,-330"/>
<text text-anchor="middle" x="489" y="-318" font-family="Helvetica,sans-Serif" font-size="10.00">vector_fast_value</text>
</a>
</g>
</g>
<!-- Node5&#45;&gt;Node6 -->
<g id="edge5_Node000005_Node000006" class="edge"><title>Node5&#45;&gt;Node6</title>
<g id="a_edge5_Node000005_Node000006"><a xlink:title=" ">
<path fill="none" stroke="#63b8ff" d="M382.744,-320.5C399.133,-320.5 417.323,-320.5 433.908,-320.5"/>
<polygon fill="#63b8ff" stroke="#63b8ff" points="433.996,-324 443.996,-320.5 433.996,-317 433.996,-324"/>
</a>
</g>
</g>
<!-- Node5&#45;&gt;Node7 -->
<g id="edge6_Node000005_Node000007" class="edge"><title>Node5&#45;&gt;Node7</title>
<g id="a_edge6_Node000005_Node000007"><a xlink:title=" ">
<path fill="none" stroke="#63b8ff" d="M382.532,-314.461C391.58,-311.782 400.495,-307.955 408,-302.5 445.035,-275.582 468.27,-225.798 479.628,-195.659"/>
<polygon fill="#63b8ff" stroke="#63b8ff" points="483.052,-196.482 483.154,-185.888 476.468,-194.107 483.052,-196.482"/>
</a>
</g>
</g>
<!-- Node10&#45;&gt;Node7 -->
<g id="edge10_Node000010_Node000007" class="edge"><title>Node10&#45;&gt;Node7</title>
<g id="a_edge10_Node000010_Node000007"><a xlink:title=" ">
<path fill="none" stroke="#63b8ff" d="M194.442,-73.9361C243.513,-61.5653 337.578,-45.1858 408,-77.5 438.657,-91.5673 462,-123.823 475.346,-146.379"/>
<polygon fill="#63b8ff" stroke="#63b8ff" points="472.468,-148.398 480.446,-155.37 478.556,-144.945 472.468,-148.398"/>
</a>
</g>
</g>
<!-- Node11 -->
<g id="Node000011" class="node"><title>Node11</title>
<g id="a_Node000011"><a xlink:href="group___t_vector_iterator.html#ga7ce07cda016d67e3ca891125613ece56" target="_top" xlink:title="Posunutí iterátoru vpřed.">
<polygon fill="white" stroke="#666666" points="388,-106 273,-106 273,-87 388,-87 388,-106"/>
<text text-anchor="middle" x="330.5" y="-94" font-family="Helvetica,sans-Serif" font-size="10.00">vector_iterator_to_next</text>
</a>
</g>
</g>
<!-- Node10&#45;&gt;Node11 -->
<g id="edge11_Node000010_Node000011" class="edge"><title>Node10&#45;&gt;Node11</title>
<g id="a_edge11_Node000010_Node000011"><a xlink:title=" ">
<path fill="none" stroke="#63b8ff" d="M194.691,-86.0684C214.1,-87.5702 239.305,-89.5207 262.662,-91.328"/>
<polygon fill="#63b8ff" stroke="#63b8ff" points="262.644,-94.837 272.885,-92.119 263.184,-87.8579 262.644,-94.837"/>
</a>
</g>
</g>
<!-- Node11&#45;&gt;Node7 -->
<g id="edge12_Node000011_Node000007" class="edge"><title>Node11&#45;&gt;Node7</title>
<g id="a_edge12_Node000011_Node000007"><a xlink:title=" ">
<path fill="none" stroke="#63b8ff" d="M383.817,-106.002C392.084,-108.297 400.404,-111.099 408,-114.5 427.845,-123.384 447.885,-137.421 462.943,-149.219"/>
<polygon fill="#63b8ff" stroke="#63b8ff" points="460.774,-151.966 470.763,-155.496 465.156,-146.507 460.774,-151.966"/>
</a>
</g>
</g>
<!-- Node12&#45;&gt;Node8 -->
<g id="edge14_Node000012_Node000008" class="edge"><title>Node12&#45;&gt;Node8</title>
<g id="a_edge14_Node000012_Node000008"><a xlink:title=" ">
<path fill="none" stroke="#63b8ff" d="M217.115,-179.212C228.953,-182.308 241.384,-185.534 253,-188.5 263.35,-191.142 274.5,-193.94 285,-196.552"/>
<polygon fill="#63b8ff" stroke="#63b8ff" points="284.273,-199.978 294.821,-198.989 285.958,-193.184 284.273,-199.978"/>
</a>
</g>
</g>
<!-- Node12&#45;&gt;Node9 -->
<g id="edge15_Node000012_Node000009" class="edge"><title>Node12&#45;&gt;Node9</title>
<g id="a_edge15_Node000012_Node000009"><a xlink:title=" ">
<path fill="none" stroke="#63b8ff" d="M217.442,-154.177C237.762,-150.428 260.558,-146.221 280.258,-142.586"/>
<polygon fill="#63b8ff" stroke="#63b8ff" points="281.048,-146 290.247,-140.743 279.778,-139.116 281.048,-146"/>
</a>
</g>
</g>
<!-- Node13 -->
<g id="Node000013" class="node"><title>Node13</title>
<g id="a_Node000013"><a xlink:href="group___t_vector_element.html#ga82e527836fce12c93af896f65e9f701d" target="_top" xlink:title="Porovnání dvou elementů">
<polygon fill="white" stroke="#666666" points="398.5,-180 262.5,-180 262.5,-161 398.5,-161 398.5,-180"/>
<text text-anchor="middle" x="330.5" y="-168" font-family="Helvetica,sans-Serif" font-size="10.00">vector_element_comparator</text>
</a>
</g>
</g>
<!-- Node12&#45;&gt;Node13 -->
<g id="edge16_Node000012_Node000013" class="edge"><title>Node12&#45;&gt;Node13</title>
<g id="a_edge16_Node000012_Node000013"><a xlink:title=" ">
<path fill="none" stroke="#63b8ff" d="M217.442,-166.498C228.589,-166.896 240.482,-167.321 252.199,-167.739"/>
<polygon fill="#63b8ff" stroke="#63b8ff" points="252.31,-171.245 262.429,-168.105 252.56,-164.25 252.31,-171.245"/>
</a>
</g>
</g>
<!-- Node16 -->
<g id="Node000016" class="node"><title>Node16</title>
<g id="a_Node000016"><a xlink:href="_t_vector_8c.html#ac9a7377bcfc71c2cc98592f1fa31deb0" target="_top" xlink:title=" ">
<polygon fill="white" stroke="#666666" points="408,-19 253,-19 253,-0 408,-0 408,-19"/>
<text text-anchor="middle" x="330.5" y="-7" font-family="Helvetica,sans-Serif" font-size="10.00">vector_fast_print_sortstats_item</text>
</a>
</g>
</g>
<!-- Node15&#45;&gt;Node16 -->
<g id="edge20_Node000015_Node000016" class="edge"><title>Node15&#45;&gt;Node16</title>
<g id="a_edge20_Node000015_Node000016"><a xlink:title=" ">
<path fill="none" stroke="#63b8ff" d="M215.581,-9.5C224.316,-9.5 233.547,-9.5 242.822,-9.5"/>
<polygon fill="#63b8ff" stroke="#63b8ff" points="242.882,-13.0001 252.882,-9.5 242.882,-6.0001 242.882,-13.0001"/>
</a>
</g>
</g>
</g>
</svg>
