<?xml version="1.0" encoding="UTF-8" standalone="no"?>
<!DOCTYPE svg PUBLIC "-//W3C//DTD SVG 1.1//EN"
 "http://www.w3.org/Graphics/SVG/1.1/DTD/svg11.dtd">
<!-- Generated by graphviz version 2.38.0 (20140413.2041)
 -->
<!-- Title: span_create Pages: 1 -->
<svg width="298pt" height="27pt"
 viewBox="0.00 0.00 298.00 27.00" xmlns="http://www.w3.org/2000/svg" xmlns:xlink="http://www.w3.org/1999/xlink">
<g id="graph0" class="graph" transform="scale(1 1) rotate(0) translate(4 23)">
<title>span_create</title>
<!-- Node1 -->
<g id="Node000001" class="node"><title>Node1</title>
<g id="a_Node000001"><a xlink:title="Vytvoření Spanu pro celý vektor.">
<polygon fill="#999999" stroke="#666666" points="290,-19 220,-19 220,-0 290,-0 290,-19"/>
<text text-anchor="middle" x="255" y="-7" font-family="Helvetica,sans-Serif" font-size="10.00">span_create</text>
</a>
</g>
</g>
<!-- Node2 -->
<g id="Node000002" class="node"><title>Node2</title>
<g id="a_Node000002"><a xlink:href="group___advanced_sorts_with_span.html#ga451c79ea7ae3de87d73ed333460ea2d5" target="_top" xlink:title="Rychlé třídění výměnou (Quick Sort with span) s volbou prostředního prvku jako pivota a využívající t...">
<polygon fill="white" stroke="#666666" points="184,-19 74,-19 74,-0 184,-0 184,-19"/>
<text text-anchor="middle" x="129" y="-7" font-family="Helvetica,sans-Serif" font-size="10.00">quick_sort_with_span</text>
</a>
</g>
</g>
<!-- Node1&#45;&gt;Node2 -->
<g id="edge1_Node000001_Node000002" class="edge"><title>Node1&#45;&gt;Node2</title>
<g id="a_edge1_Node000001_Node000002"><a xlink:title=" ">
<path fill="none" stroke="#63b8ff" d="M209.614,-9.5C201.35,-9.5 192.631,-9.5 184.113,-9.5"/>
<polygon fill="#63b8ff" stroke="#63b8ff" points="209.788,-13.0001 219.788,-9.5 209.788,-6.0001 209.788,-13.0001"/>
</a>
</g>
</g>
<!-- Node3 -->
<g id="Node000003" class="node"><title>Node3</title>
<g id="a_Node000003"><a xlink:href="group___main_program.html#ga0ddf1224851353fc92bfbff6f499fa97" target="_top" xlink:title=" ">
<polygon fill="white" stroke="#666666" points="38,-19 0,-19 0,-0 38,-0 38,-19"/>
<text text-anchor="middle" x="19" y="-7" font-family="Helvetica,sans-Serif" font-size="10.00">main</text>
</a>
</g>
</g>
<!-- Node2&#45;&gt;Node3 -->
<g id="edge2_Node000002_Node000003" class="edge"><title>Node2&#45;&gt;Node3</title>
<g id="a_edge2_Node000002_Node000003"><a xlink:title=" ">
<path fill="none" stroke="#63b8ff" d="M63.5294,-9.5C54.2761,-9.5 45.4493,-9.5 38.1929,-9.5"/>
<polygon fill="#63b8ff" stroke="#63b8ff" points="63.6836,-13.0001 73.6836,-9.5 63.6836,-6.0001 63.6836,-13.0001"/>
</a>
</g>
</g>
</g>
</svg>
