<?xml version="1.0" encoding="UTF-8" standalone="no"?>
<!DOCTYPE svg PUBLIC "-//W3C//DTD SVG 1.1//EN"
 "http://www.w3.org/Graphics/SVG/1.1/DTD/svg11.dtd">
<!-- Generated by graphviz version 2.38.0 (20140413.2041)
 -->
<!-- Title: quick_sort_with_span Pages: 1 -->
<svg width="939pt" height="248pt"
 viewBox="0.00 0.00 939.00 247.50" xmlns="http://www.w3.org/2000/svg" xmlns:xlink="http://www.w3.org/1999/xlink">
<g id="graph0" class="graph" transform="scale(1 1) rotate(0) translate(4 243.5)">
<title>quick_sort_with_span</title>
<!-- Node1 -->
<g id="Node000001" class="node"><title>Node1</title>
<g id="a_Node000001"><a xlink:title="Rychlé třídění výměnou (Quick Sort with span) s volbou prostředního prvku jako pivota a využívající t...">
<polygon fill="#999999" stroke="#666666" points="110,-74 0,-74 0,-55 110,-55 110,-74"/>
<text text-anchor="middle" x="55" y="-62" font-family="Helvetica,sans-Serif" font-size="10.00">quick_sort_with_span</text>
</a>
</g>
</g>
<!-- Node2 -->
<g id="Node000002" class="node"><title>Node2</title>
<g id="a_Node000002"><a xlink:href="advanced__sorts__with__span_8c.html#a1526ecf4371ecb71f2bc68954f16681f" target="_top" xlink:title="Vnitřní a lokální funkce realizující rekurzivní funkci pro metodu (Quick Sort)">
<polygon fill="white" stroke="#666666" points="256,-141.5 146,-141.5 146,-111.5 256,-111.5 256,-141.5"/>
<text text-anchor="start" x="154" y="-129.5" font-family="Helvetica,sans-Serif" font-size="10.00">quick_sort_with_span</text>
<text text-anchor="middle" x="201" y="-118.5" font-family="Helvetica,sans-Serif" font-size="10.00">_worker</text>
</a>
</g>
</g>
<!-- Node1&#45;&gt;Node2 -->
<g id="edge1_Node000001_Node000002" class="edge"><title>Node1&#45;&gt;Node2</title>
<g id="a_edge1_Node000001_Node000002"><a xlink:title=" ">
<path fill="none" stroke="#63b8ff" d="M78.1844,-74.0516C98.6815,-82.8767 129.743,-96.2506 155.37,-107.284"/>
<polygon fill="#63b8ff" stroke="#63b8ff" points="154.323,-110.644 164.892,-111.384 157.092,-104.215 154.323,-110.644"/>
</a>
</g>
</g>
<!-- Node16 -->
<g id="Node000016" class="node"><title>Node16</title>
<g id="a_Node000016"><a xlink:href="group___t_span.html#gac78c14bd69fa6a23ef2db50c75a51488" target="_top" xlink:title="Vytvoření Spanu pro celý vektor.">
<polygon fill="white" stroke="#666666" points="236,-93 166,-93 166,-74 236,-74 236,-93"/>
<text text-anchor="middle" x="201" y="-81" font-family="Helvetica,sans-Serif" font-size="10.00">span_create</text>
</a>
</g>
</g>
<!-- Node1&#45;&gt;Node16 -->
<g id="edge16_Node000001_Node000016" class="edge"><title>Node1&#45;&gt;Node16</title>
<g id="a_edge16_Node000001_Node000016"><a xlink:title=" ">
<path fill="none" stroke="#63b8ff" d="M110.03,-71.629C125.057,-73.6117 141.2,-75.7417 155.605,-77.6424"/>
<polygon fill="#63b8ff" stroke="#63b8ff" points="155.375,-81.1422 165.747,-78.9805 156.291,-74.2024 155.375,-81.1422"/>
</a>
</g>
</g>
<!-- Node17 -->
<g id="Node000017" class="node"><title>Node17</title>
<g id="a_Node000017"><a xlink:href="group___t_vector_iterator.html#ga40d7eff2ece0eb356d27cdcdef255560" target="_top" xlink:title="Vytvoření nového iterátoru ukazujícího na počáteční element.">
<polygon fill="white" stroke="#666666" points="254,-56 148,-56 148,-37 254,-37 254,-56"/>
<text text-anchor="middle" x="201" y="-44" font-family="Helvetica,sans-Serif" font-size="10.00">vector_iterator_begin</text>
</a>
</g>
</g>
<!-- Node1&#45;&gt;Node17 -->
<g id="edge17_Node000001_Node000017" class="edge"><title>Node1&#45;&gt;Node17</title>
<g id="a_edge17_Node000001_Node000017"><a xlink:title=" ">
<path fill="none" stroke="#63b8ff" d="M110.03,-57.7463C118.96,-56.6301 128.283,-55.4646 137.402,-54.3248"/>
<polygon fill="#63b8ff" stroke="#63b8ff" points="138.09,-57.7661 147.578,-53.0527 137.221,-50.8202 138.09,-57.7661"/>
</a>
</g>
</g>
<!-- Node18 -->
<g id="Node000018" class="node"><title>Node18</title>
<g id="a_Node000018"><a xlink:href="group___t_vector.html#ga2502e6ec116dbac5e49f5b62b07dc898" target="_top" xlink:title="Přečtení počtu elementů vektoru.">
<polygon fill="white" stroke="#666666" points="233.5,-19 168.5,-19 168.5,-0 233.5,-0 233.5,-19"/>
<text text-anchor="middle" x="201" y="-7" font-family="Helvetica,sans-Serif" font-size="10.00">vector_size</text>
</a>
</g>
</g>
<!-- Node1&#45;&gt;Node18 -->
<g id="edge18_Node000001_Node000018" class="edge"><title>Node1&#45;&gt;Node18</title>
<g id="a_edge18_Node000001_Node000018"><a xlink:title=" ">
<path fill="none" stroke="#63b8ff" d="M78.0256,-54.9522C96.1452,-47.2171 122.564,-36.2119 146,-27.5 150.62,-25.7827 155.489,-24.0513 160.336,-22.3765"/>
<polygon fill="#63b8ff" stroke="#63b8ff" points="161.819,-25.5692 170.164,-19.0409 159.569,-18.9405 161.819,-25.5692"/>
</a>
</g>
</g>
<!-- Node2&#45;&gt;Node2 -->
<g id="edge2_Node000002_Node000002" class="edge"><title>Node2&#45;&gt;Node2</title>
<g id="a_edge2_Node000002_Node000002"><a xlink:title=" ">
<path fill="none" stroke="#63b8ff" d="M175.336,-141.775C169.633,-150.906 178.188,-159.5 201,-159.5 214.545,-159.5 223.063,-156.47 226.555,-152.098"/>
<polygon fill="#63b8ff" stroke="#63b8ff" points="230.059,-151.812 226.664,-141.775 223.059,-151.738 230.059,-151.812"/>
</a>
</g>
</g>
<!-- Node3 -->
<g id="Node000003" class="node"><title>Node3</title>
<g id="a_Node000003"><a xlink:href="group___t_span.html#gad64d53738a4da90ef126cd73d84b5f52" target="_top" xlink:title="Porovnání mezi hodnotou elementu Span a hodnotou typu VectorElement.">
<polygon fill="white" stroke="#666666" points="419.5,-239.5 300.5,-239.5 300.5,-209.5 419.5,-209.5 419.5,-239.5"/>
<text text-anchor="start" x="308.5" y="-227.5" font-family="Helvetica,sans-Serif" font-size="10.00">span_compare_position</text>
<text text-anchor="middle" x="360" y="-216.5" font-family="Helvetica,sans-Serif" font-size="10.00">_value</text>
</a>
</g>
</g>
<!-- Node2&#45;&gt;Node3 -->
<g id="edge3_Node000002_Node000003" class="edge"><title>Node2&#45;&gt;Node3</title>
<g id="a_edge3_Node000002_Node000003"><a xlink:title=" ">
<path fill="none" stroke="#63b8ff" d="M217.027,-141.661C233.973,-158.05 262.97,-184.03 292,-200.5 294.992,-202.198 298.126,-203.81 301.336,-205.335"/>
<polygon fill="#63b8ff" stroke="#63b8ff" points="299.964,-208.556 310.525,-209.403 302.798,-202.155 299.964,-208.556"/>
</a>
</g>
</g>
<!-- Node7 -->
<g id="Node000007" class="node"><title>Node7</title>
<g id="a_Node000007"><a xlink:href="group___t_span.html#ga95663322132016bbaf40e6281480e122" target="_top" xlink:title="Vytvoření SubSpanu jako části od počátku a definované délce původního Spanu.">
<polygon fill="white" stroke="#666666" points="425,-191 295,-191 295,-172 425,-172 425,-191"/>
<text text-anchor="middle" x="360" y="-179" font-family="Helvetica,sans-Serif" font-size="10.00">span_create_left_subspan</text>
</a>
</g>
</g>
<!-- Node2&#45;&gt;Node7 -->
<g id="edge7_Node000002_Node000007" class="edge"><title>Node2&#45;&gt;Node7</title>
<g id="a_edge7_Node000002_Node000007"><a xlink:title=" ">
<path fill="none" stroke="#63b8ff" d="M235.801,-141.594C252.52,-148.751 273.117,-157.111 292,-163.5 297.915,-165.501 304.182,-167.43 310.416,-169.234"/>
<polygon fill="#63b8ff" stroke="#63b8ff" points="309.556,-172.628 320.129,-171.958 311.446,-165.888 309.556,-172.628"/>
</a>
</g>
</g>
<!-- Node8 -->
<g id="Node000008" class="node"><title>Node8</title>
<g id="a_Node000008"><a xlink:href="group___t_span.html#ga6270a02d3bfd6fa1fdbf37ca62276687" target="_top" xlink:title="Vytvoření SubSpanu jako části od definované pozice až do konce původního Spanu.">
<polygon fill="white" stroke="#666666" points="428,-154 292,-154 292,-135 428,-135 428,-154"/>
<text text-anchor="middle" x="360" y="-142" font-family="Helvetica,sans-Serif" font-size="10.00">span_create_right_subspan</text>
</a>
</g>
</g>
<!-- Node2&#45;&gt;Node8 -->
<g id="edge8_Node000002_Node000008" class="edge"><title>Node2&#45;&gt;Node8</title>
<g id="a_edge8_Node000002_Node000008"><a xlink:title=" ">
<path fill="none" stroke="#63b8ff" d="M256.03,-132.695C264.318,-133.645 273.011,-134.641 281.684,-135.636"/>
<polygon fill="#63b8ff" stroke="#63b8ff" points="281.497,-139.137 291.831,-136.799 282.295,-132.183 281.497,-139.137"/>
</a>
</g>
</g>
<!-- Node9 -->
<g id="Node000009" class="node"><title>Node9</title>
<g id="a_Node000009"><a xlink:href="group___t_span.html#ga873f8813d9a78c9b43e8a6b2b2a4c9d1" target="_top" xlink:title="Přečtení počtu elementů Spanu.">
<polygon fill="white" stroke="#666666" points="390.5,-117 329.5,-117 329.5,-98 390.5,-98 390.5,-117"/>
<text text-anchor="middle" x="360" y="-105" font-family="Helvetica,sans-Serif" font-size="10.00">span_size</text>
</a>
</g>
</g>
<!-- Node2&#45;&gt;Node9 -->
<g id="edge9_Node000002_Node000009" class="edge"><title>Node2&#45;&gt;Node9</title>
<g id="a_edge9_Node000002_Node000009"><a xlink:title=" ">
<path fill="none" stroke="#63b8ff" d="M256.03,-119.961C276.687,-117.462 299.854,-114.658 318.975,-112.344"/>
<polygon fill="#63b8ff" stroke="#63b8ff" points="319.633,-115.79 329.14,-111.114 318.792,-108.84 319.633,-115.79"/>
</a>
</g>
</g>
<!-- Node10 -->
<g id="Node000010" class="node"><title>Node10</title>
<g id="a_Node000010"><a xlink:href="group___t_span.html#gae81c37610069e0d3c8d3182ca4964c1a" target="_top" xlink:title="Výměna hodnot elementů Spanů">
<polygon fill="white" stroke="#666666" points="415,-80 305,-80 305,-61 415,-61 415,-80"/>
<text text-anchor="middle" x="360" y="-68" font-family="Helvetica,sans-Serif" font-size="10.00">span_swap_positions</text>
</a>
</g>
</g>
<!-- Node2&#45;&gt;Node10 -->
<g id="edge10_Node000002_Node000010" class="edge"><title>Node2&#45;&gt;Node10</title>
<g id="a_edge10_Node000002_Node000010"><a xlink:title=" ">
<path fill="none" stroke="#63b8ff" d="M234.916,-111.321C251.774,-103.877 272.752,-95.1142 292,-88.5 297.692,-86.5441 303.714,-84.666 309.721,-82.9098"/>
<polygon fill="#63b8ff" stroke="#63b8ff" points="311.083,-86.1624 319.756,-80.0772 309.181,-79.4257 311.083,-86.1624"/>
</a>
</g>
</g>
<!-- Node13 -->
<g id="Node000013" class="node"><title>Node13</title>
<g id="a_Node000013"><a xlink:href="group___t_span.html#ga4c772b349af71b9066651285a90ee21e" target="_top" xlink:title="Přečtení hodnoty elementu Spanu na požadované pozici.">
<polygon fill="white" stroke="#666666" points="392.5,-43 327.5,-43 327.5,-24 392.5,-24 392.5,-43"/>
<text text-anchor="middle" x="360" y="-31" font-family="Helvetica,sans-Serif" font-size="10.00">span_value</text>
</a>
</g>
</g>
<!-- Node2&#45;&gt;Node13 -->
<g id="edge13_Node000002_Node000013" class="edge"><title>Node2&#45;&gt;Node13</title>
<g id="a_edge13_Node000002_Node000013"><a xlink:title=" ">
<path fill="none" stroke="#63b8ff" d="M240.929,-111.463C246.263,-108.568 251.459,-105.249 256,-101.5 277.116,-84.066 269.471,-67.0658 292,-51.5 299.56,-46.2768 308.564,-42.5681 317.48,-39.9352"/>
<polygon fill="#63b8ff" stroke="#63b8ff" points="318.604,-43.2606 327.428,-37.3962 316.873,-36.4781 318.604,-43.2606"/>
</a>
</g>
</g>
<!-- Node4 -->
<g id="Node000004" class="node"><title>Node4</title>
<g id="a_Node000004"><a xlink:href="group__sortable___t_vector.html#ga09e150aa4cdd8faabf43474ab1dbe454" target="_top" xlink:title="Porovnání mezi hodnotou elementu vektoru a hodnotou typu VectorElement.">
<polygon fill="white" stroke="#666666" points="588,-239.5 464,-239.5 464,-209.5 588,-209.5 588,-239.5"/>
<text text-anchor="start" x="472" y="-227.5" font-family="Helvetica,sans-Serif" font-size="10.00">vector_compare_position</text>
<text text-anchor="middle" x="526" y="-216.5" font-family="Helvetica,sans-Serif" font-size="10.00">_value</text>
</a>
</g>
</g>
<!-- Node3&#45;&gt;Node4 -->
<g id="edge4_Node000003_Node000004" class="edge"><title>Node3&#45;&gt;Node4</title>
<g id="a_edge4_Node000003_Node000004"><a xlink:title=" ">
<path fill="none" stroke="#63b8ff" d="M419.745,-224.5C430.722,-224.5 442.306,-224.5 453.615,-224.5"/>
<polygon fill="#63b8ff" stroke="#63b8ff" points="453.9,-228 463.9,-224.5 453.9,-221 453.9,-228"/>
</a>
</g>
</g>
<!-- Node5 -->
<g id="Node000005" class="node"><title>Node5</title>
<g id="a_Node000005"><a xlink:href="_t_vector_8c.html#a8254190a2b4fe570173cc77dba0ee7a4" target="_top" xlink:title=" ">
<polygon fill="white" stroke="#666666" points="744.5,-239.5 638.5,-239.5 638.5,-209.5 744.5,-209.5 744.5,-239.5"/>
<text text-anchor="start" x="646.5" y="-227.5" font-family="Helvetica,sans-Serif" font-size="10.00">vector_fast_compare</text>
<text text-anchor="middle" x="691.5" y="-216.5" font-family="Helvetica,sans-Serif" font-size="10.00">_position_value</text>
</a>
</g>
</g>
<!-- Node4&#45;&gt;Node5 -->
<g id="edge5_Node000004_Node000005" class="edge"><title>Node4&#45;&gt;Node5</title>
<g id="a_edge5_Node000004_Node000005"><a xlink:title=" ">
<path fill="none" stroke="#63b8ff" d="M588.347,-224.5C601.359,-224.5 615.109,-224.5 628.159,-224.5"/>
<polygon fill="#63b8ff" stroke="#63b8ff" points="628.446,-228 638.446,-224.5 628.446,-221 628.446,-228"/>
</a>
</g>
</g>
<!-- Node6 -->
<g id="Node000006" class="node"><title>Node6</title>
<g id="a_Node000006"><a xlink:href="group___t_vector_element.html#ga82e527836fce12c93af896f65e9f701d" target="_top" xlink:title="Porovnání dvou elementů">
<polygon fill="white" stroke="#666666" points="931,-234 795,-234 795,-215 931,-215 931,-234"/>
<text text-anchor="middle" x="863" y="-222" font-family="Helvetica,sans-Serif" font-size="10.00">vector_element_comparator</text>
</a>
</g>
</g>
<!-- Node5&#45;&gt;Node6 -->
<g id="edge6_Node000005_Node000006" class="edge"><title>Node5&#45;&gt;Node6</title>
<g id="a_edge6_Node000005_Node000006"><a xlink:title=" ">
<path fill="none" stroke="#63b8ff" d="M744.739,-224.5C757.373,-224.5 771.144,-224.5 784.662,-224.5"/>
<polygon fill="#63b8ff" stroke="#63b8ff" points="784.926,-228 794.926,-224.5 784.926,-221 784.926,-228"/>
</a>
</g>
</g>
<!-- Node11 -->
<g id="Node000011" class="node"><title>Node11</title>
<g id="a_Node000011"><a xlink:href="group__sortable___t_vector.html#gac1982d8a0e5f66f933dc6a0413f2d23e" target="_top" xlink:title="Výměna hodnot elementů vektorů">
<polygon fill="white" stroke="#666666" points="583,-80 469,-80 469,-61 583,-61 583,-80"/>
<text text-anchor="middle" x="526" y="-68" font-family="Helvetica,sans-Serif" font-size="10.00">vector_swap_positions</text>
</a>
</g>
</g>
<!-- Node10&#45;&gt;Node11 -->
<g id="edge11_Node000010_Node000011" class="edge"><title>Node10&#45;&gt;Node11</title>
<g id="a_edge11_Node000010_Node000011"><a xlink:title=" ">
<path fill="none" stroke="#63b8ff" d="M415.154,-70.5C429.044,-70.5 444.142,-70.5 458.573,-70.5"/>
<polygon fill="#63b8ff" stroke="#63b8ff" points="458.936,-74.0001 468.936,-70.5 458.936,-67.0001 458.936,-74.0001"/>
</a>
</g>
</g>
<!-- Node12 -->
<g id="Node000012" class="node"><title>Node12</title>
<g id="a_Node000012"><a xlink:href="_t_vector_8c.html#ac70bbb23ab1ec16b867b3e33d40ae1c4" target="_top" xlink:title=" ">
<polygon fill="white" stroke="#666666" points="759,-80 624,-80 624,-61 759,-61 759,-80"/>
<text text-anchor="middle" x="691.5" y="-68" font-family="Helvetica,sans-Serif" font-size="10.00">vector_fast_swap_positions</text>
</a>
</g>
</g>
<!-- Node11&#45;&gt;Node12 -->
<g id="edge12_Node000011_Node000012" class="edge"><title>Node11&#45;&gt;Node12</title>
<g id="a_edge12_Node000011_Node000012"><a xlink:title=" ">
<path fill="none" stroke="#63b8ff" d="M583.267,-70.5C593.105,-70.5 603.49,-70.5 613.768,-70.5"/>
<polygon fill="#63b8ff" stroke="#63b8ff" points="613.987,-74.0001 623.987,-70.5 613.987,-67.0001 613.987,-74.0001"/>
</a>
</g>
</g>
<!-- Node14 -->
<g id="Node000014" class="node"><title>Node14</title>
<g id="a_Node000014"><a xlink:href="group___t_vector.html#ga2b08236d9825632cd96bcc89faed929c" target="_top" xlink:title="Přečtení hodnoty elementu z vektoru na požadované pozici.">
<polygon fill="white" stroke="#666666" points="560.5,-43 491.5,-43 491.5,-24 560.5,-24 560.5,-43"/>
<text text-anchor="middle" x="526" y="-31" font-family="Helvetica,sans-Serif" font-size="10.00">vector_value</text>
</a>
</g>
</g>
<!-- Node13&#45;&gt;Node14 -->
<g id="edge14_Node000013_Node000014" class="edge"><title>Node13&#45;&gt;Node14</title>
<g id="a_edge14_Node000013_Node000014"><a xlink:title=" ">
<path fill="none" stroke="#63b8ff" d="M392.621,-33.5C417.711,-33.5 453.077,-33.5 480.942,-33.5"/>
<polygon fill="#63b8ff" stroke="#63b8ff" points="481.218,-37.0001 491.218,-33.5 481.218,-30.0001 481.218,-37.0001"/>
</a>
</g>
</g>
<!-- Node15 -->
<g id="Node000015" class="node"><title>Node15</title>
<g id="a_Node000015"><a xlink:href="_t_vector_8c.html#a0fe5f1145e51f154b5470d640c5d682c" target="_top" xlink:title=" ">
<polygon fill="white" stroke="#666666" points="736.5,-43 646.5,-43 646.5,-24 736.5,-24 736.5,-43"/>
<text text-anchor="middle" x="691.5" y="-31" font-family="Helvetica,sans-Serif" font-size="10.00">vector_fast_value</text>
</a>
</g>
</g>
<!-- Node14&#45;&gt;Node15 -->
<g id="edge15_Node000014_Node000015" class="edge"><title>Node14&#45;&gt;Node15</title>
<g id="a_edge15_Node000014_Node000015"><a xlink:title=" ">
<path fill="none" stroke="#63b8ff" d="M560.877,-33.5C582.663,-33.5 611.451,-33.5 636.363,-33.5"/>
<polygon fill="#63b8ff" stroke="#63b8ff" points="636.411,-37.0001 646.411,-33.5 636.411,-30.0001 636.411,-37.0001"/>
</a>
</g>
</g>
</g>
</svg>
