<?xml version="1.0" encoding="UTF-8" standalone="no"?>
<!DOCTYPE svg PUBLIC "-//W3C//DTD SVG 1.1//EN"
 "http://www.w3.org/Graphics/SVG/1.1/DTD/svg11.dtd">
<!-- Generated by graphviz version 2.38.0 (20140413.2041)
 -->
<!-- Title: vector_iterator_is_valid Pages: 1 -->
<svg width="624pt" height="629pt"
 viewBox="0.00 0.00 624.00 629.31" xmlns="http://www.w3.org/2000/svg" xmlns:xlink="http://www.w3.org/1999/xlink">
<g id="graph0" class="graph" transform="scale(1 1) rotate(0) translate(4 625.312)">
<title>vector_iterator_is_valid</title>
<!-- Node1 -->
<g id="Node000001" class="node"><title>Node1</title>
<g id="a_Node000001"><a xlink:title="Zjištění platnosti iterátoru.">
<polygon fill="#999999" stroke="#666666" points="616,-336.5 526,-336.5 526,-306.5 616,-306.5 616,-336.5"/>
<text text-anchor="start" x="534" y="-324.5" font-family="Helvetica,sans-Serif" font-size="10.00">vector_iterator_is</text>
<text text-anchor="middle" x="571" y="-313.5" font-family="Helvetica,sans-Serif" font-size="10.00">_valid</text>
</a>
</g>
</g>
<!-- Node2 -->
<g id="Node000002" class="node"><title>Node2</title>
<g id="a_Node000002"><a xlink:href="group___main_program.html#ga7343209645c93203da0a86613abfed04" target="_top" xlink:title="Testování třídicí metody.">
<polygon fill="white" stroke="#666666" points="142,-364 74,-364 74,-345 142,-345 142,-364"/>
<text text-anchor="middle" x="108" y="-352" font-family="Helvetica,sans-Serif" font-size="10.00">sort_testing</text>
</a>
</g>
</g>
<!-- Node1&#45;&gt;Node2 -->
<g id="edge1_Node000001_Node000002" class="edge"><title>Node1&#45;&gt;Node2</title>
<g id="a_edge1_Node000001_Node000002"><a xlink:title=" ">
<path fill="none" stroke="#63b8ff" d="M570.802,-346.889C570.904,-399.372 562.739,-519.339 490,-572.5 377.218,-654.925 284.213,-625.233 178,-534.5 123.799,-488.198 112.025,-394.336 109.599,-364.11"/>
<polygon fill="#63b8ff" stroke="#63b8ff" points="574.301,-346.717 570.676,-336.762 567.301,-346.805 574.301,-346.717"/>
</a>
</g>
</g>
<!-- Node4 -->
<g id="Node000004" class="node"><title>Node4</title>
<g id="a_Node000004"><a xlink:href="group___t_span.html#ga67166afe9d2ba03b5db6208b2dcd2787" target="_top" xlink:title="Zjištění platnosti iterátoru.">
<polygon fill="white" stroke="#666666" points="478.5,-563 368.5,-563 368.5,-544 478.5,-544 478.5,-563"/>
<text text-anchor="middle" x="423.5" y="-551" font-family="Helvetica,sans-Serif" font-size="10.00">span_iterator_is_valid</text>
</a>
</g>
</g>
<!-- Node1&#45;&gt;Node4 -->
<g id="edge3_Node000001_Node000004" class="edge"><title>Node1&#45;&gt;Node4</title>
<g id="a_edge3_Node000001_Node000004"><a xlink:title=" ">
<path fill="none" stroke="#63b8ff" d="M567.758,-346.613C562.436,-391.029 545.028,-483.552 490,-534.5 485.83,-538.361 480.92,-541.442 475.696,-543.9"/>
<polygon fill="#63b8ff" stroke="#63b8ff" points="571.239,-346.978 568.843,-336.658 564.28,-346.22 571.239,-346.978"/>
</a>
</g>
</g>
<!-- Node5 -->
<g id="Node000005" class="node"><title>Node5</title>
<g id="a_Node000005"><a xlink:href="group__sortable___t_vector_iterator.html#gaa359594c5556fb685473666fad583ddf" target="_top" xlink:title="Porovnání mezi hodnotou elementu vektoru určenou iterátorem a hodnotou typu VectorElement.">
<polygon fill="white" stroke="#666666" points="477,-525.5 370,-525.5 370,-495.5 477,-495.5 477,-525.5"/>
<text text-anchor="start" x="378" y="-513.5" font-family="Helvetica,sans-Serif" font-size="10.00">vector_compare_with</text>
<text text-anchor="middle" x="423.5" y="-502.5" font-family="Helvetica,sans-Serif" font-size="10.00">_iterator_value</text>
</a>
</g>
</g>
<!-- Node1&#45;&gt;Node5 -->
<g id="edge4_Node000001_Node000005" class="edge"><title>Node1&#45;&gt;Node5</title>
<g id="a_edge4_Node000001_Node000005"><a xlink:title=" ">
<path fill="none" stroke="#63b8ff" d="M564.182,-346.665C554.645,-382.515 532.366,-448.181 490,-486.5 486.138,-489.993 481.725,-492.99 477.056,-495.559"/>
<polygon fill="#63b8ff" stroke="#63b8ff" points="567.679,-347.113 566.74,-336.56 560.893,-345.395 567.679,-347.113"/>
</a>
</g>
</g>
<!-- Node7 -->
<g id="Node000007" class="node"><title>Node7</title>
<g id="a_Node000007"><a xlink:href="group__sortable___t_vector_iterator.html#gadd8aded92ce2c6402742a57316412d39" target="_top" xlink:title="Porovnání hodnot elementů vektorů určených dvěma iterátory.">
<polygon fill="white" stroke="#666666" points="477,-477.5 370,-477.5 370,-447.5 477,-447.5 477,-477.5"/>
<text text-anchor="start" x="378" y="-465.5" font-family="Helvetica,sans-Serif" font-size="10.00">vector_compare_with</text>
<text text-anchor="middle" x="423.5" y="-454.5" font-family="Helvetica,sans-Serif" font-size="10.00">_iterators</text>
</a>
</g>
</g>
<!-- Node1&#45;&gt;Node7 -->
<g id="edge6_Node000001_Node000007" class="edge"><title>Node1&#45;&gt;Node7</title>
<g id="a_edge6_Node000001_Node000007"><a xlink:title=" ">
<path fill="none" stroke="#63b8ff" d="M557.811,-345.621C544.205,-370.486 520.092,-408.983 490,-433.5 483.348,-438.92 475.523,-443.525 467.641,-447.361"/>
<polygon fill="#63b8ff" stroke="#63b8ff" points="561.055,-346.976 562.664,-336.504 554.876,-343.687 561.055,-346.976"/>
</a>
</g>
</g>
<!-- Node9 -->
<g id="Node000009" class="node"><title>Node9</title>
<g id="a_Node000009"><a xlink:href="group___iterator_algorithms.html#gad9872ced82843c0e0864a8e2547ca579" target="_top" xlink:title="Zavolání zvolené funkce na každý element vektoru od pozice určené iterátorem až do konce vektoru.">
<polygon fill="white" stroke="#666666" points="291.5,-438 207.5,-438 207.5,-419 291.5,-419 291.5,-438"/>
<text text-anchor="middle" x="249.5" y="-426" font-family="Helvetica,sans-Serif" font-size="10.00">vector_for_each</text>
</a>
</g>
</g>
<!-- Node1&#45;&gt;Node9 -->
<g id="edge8_Node000001_Node000009" class="edge"><title>Node1&#45;&gt;Node9</title>
<g id="a_edge8_Node000001_Node000009"><a xlink:title=" ">
<path fill="none" stroke="#63b8ff" d="M553.069,-344.882C538.528,-363.029 515.86,-387.116 490,-399.5 425.782,-430.254 341.239,-432.951 291.684,-431.293"/>
<polygon fill="#63b8ff" stroke="#63b8ff" points="556.181,-346.579 559.532,-336.528 550.645,-342.295 556.181,-346.579"/>
</a>
</g>
</g>
<!-- Node10 -->
<g id="Node000010" class="node"><title>Node10</title>
<g id="a_Node000010"><a xlink:href="group___iterator_algorithms.html#gac5ae89ba507530f7c51c45447efbe4ac" target="_top" xlink:title="Zavolání zvolené funkce na prvních N elementů vektoru od pozice určené iterátorem.">
<polygon fill="white" stroke="#666666" points="283.5,-364 215.5,-364 215.5,-345 283.5,-345 283.5,-364"/>
<text text-anchor="middle" x="249.5" y="-352" font-family="Helvetica,sans-Serif" font-size="10.00">vector_for_n</text>
</a>
</g>
</g>
<!-- Node1&#45;&gt;Node10 -->
<g id="edge9_Node000001_Node000010" class="edge"><title>Node1&#45;&gt;Node10</title>
<g id="a_edge9_Node000001_Node000010"><a xlink:title=" ">
<path fill="none" stroke="#63b8ff" d="M515.645,-327.114C449.246,-333.972 338.979,-345.361 283.923,-351.048"/>
<polygon fill="#63b8ff" stroke="#63b8ff" points="516.323,-330.563 525.91,-326.054 515.604,-323.6 516.323,-330.563"/>
</a>
</g>
</g>
<!-- Node11 -->
<g id="Node000011" class="node"><title>Node11</title>
<g id="a_Node000011"><a xlink:href="group___t_vector_iterator.html#ga66f6b96e416a7e593b1cf703f58be7ca" target="_top" xlink:title="Zapsání hodnoty elementu do vektoru pomocí iterátoru.">
<polygon fill="white" stroke="#666666" points="471.5,-315.5 375.5,-315.5 375.5,-285.5 471.5,-285.5 471.5,-315.5"/>
<text text-anchor="start" x="383.5" y="-303.5" font-family="Helvetica,sans-Serif" font-size="10.00">vector_iterator_set</text>
<text text-anchor="middle" x="423.5" y="-292.5" font-family="Helvetica,sans-Serif" font-size="10.00">_value</text>
</a>
</g>
</g>
<!-- Node1&#45;&gt;Node11 -->
<g id="edge11_Node000001_Node000011" class="edge"><title>Node1&#45;&gt;Node11</title>
<g id="a_edge11_Node000001_Node000011"><a xlink:title=" ">
<path fill="none" stroke="#63b8ff" d="M515.649,-313.656C501.202,-311.57 485.719,-309.336 471.689,-307.311"/>
<polygon fill="#63b8ff" stroke="#63b8ff" points="515.553,-317.178 525.95,-315.142 516.553,-310.25 515.553,-317.178"/>
</a>
</g>
</g>
<!-- Node13 -->
<g id="Node000013" class="node"><title>Node13</title>
<g id="a_Node000013"><a xlink:href="group___t_vector_iterator.html#ga7ce07cda016d67e3ca891125613ece56" target="_top" xlink:title="Posunutí iterátoru vpřed.">
<polygon fill="white" stroke="#666666" points="481,-391 366,-391 366,-372 481,-372 481,-391"/>
<text text-anchor="middle" x="423.5" y="-379" font-family="Helvetica,sans-Serif" font-size="10.00">vector_iterator_to_next</text>
</a>
</g>
</g>
<!-- Node1&#45;&gt;Node13 -->
<g id="edge13_Node000001_Node000013" class="edge"><title>Node1&#45;&gt;Node13</title>
<g id="a_edge13_Node000001_Node000013"><a xlink:title=" ">
<path fill="none" stroke="#63b8ff" d="M528.742,-340.745C516.364,-346.335 502.7,-352.324 490,-357.5 477.663,-362.528 463.835,-367.667 452.075,-371.892"/>
<polygon fill="#63b8ff" stroke="#63b8ff" points="530.267,-343.896 537.92,-336.569 527.368,-337.525 530.267,-343.896"/>
</a>
</g>
</g>
<!-- Node15 -->
<g id="Node000015" class="node"><title>Node15</title>
<g id="a_Node000015"><a xlink:href="group___t_vector_iterator.html#ga8e1e1cc570f8a1c2bf1fb73c0d3c8826" target="_top" xlink:title="Posunutí iterátoru vzad.">
<polygon fill="white" stroke="#666666" points="480,-267 367,-267 367,-248 480,-248 480,-267"/>
<text text-anchor="middle" x="423.5" y="-255" font-family="Helvetica,sans-Serif" font-size="10.00">vector_iterator_to_prev</text>
</a>
</g>
</g>
<!-- Node1&#45;&gt;Node15 -->
<g id="edge17_Node000001_Node000015" class="edge"><title>Node1&#45;&gt;Node15</title>
<g id="a_edge17_Node000001_Node000015"><a xlink:title=" ">
<path fill="none" stroke="#63b8ff" d="M537.676,-301.073C523.437,-292.671 506.272,-283.329 490,-276.5 481.484,-272.926 472.077,-269.766 463.112,-267.1"/>
<polygon fill="#63b8ff" stroke="#63b8ff" points="536.199,-304.269 546.573,-306.423 539.807,-298.27 536.199,-304.269"/>
</a>
</g>
</g>
<!-- Node17 -->
<g id="Node000017" class="node"><title>Node17</title>
<g id="a_Node000017"><a xlink:href="group___t_vector_iterator.html#ga4d8032eb9dbbdccf794611f2b0c9821c" target="_top" xlink:title="Přečtení hodnoty elementu z vektoru pomocí iterátoru.">
<polygon fill="white" stroke="#666666" points="475.5,-222 371.5,-222 371.5,-203 475.5,-203 475.5,-222"/>
<text text-anchor="middle" x="423.5" y="-210" font-family="Helvetica,sans-Serif" font-size="10.00">vector_iterator_value</text>
</a>
</g>
</g>
<!-- Node1&#45;&gt;Node17 -->
<g id="edge19_Node000001_Node000017" class="edge"><title>Node1&#45;&gt;Node17</title>
<g id="a_edge19_Node000001_Node000017"><a xlink:title=" ">
<path fill="none" stroke="#63b8ff" d="M552.52,-298.564C537.583,-280.261 514.647,-255.032 490,-238.5 479.839,-231.685 467.622,-226.226 456.506,-222.105"/>
<polygon fill="#63b8ff" stroke="#63b8ff" points="549.825,-300.798 558.798,-306.431 555.296,-296.431 549.825,-300.798"/>
</a>
</g>
</g>
<!-- Node21 -->
<g id="Node000021" class="node"><title>Node21</title>
<g id="a_Node000021"><a xlink:href="group__sortable___t_vector__with__shareable__sortstats.html#ga6c48fdc01e22389dff6202955542499a" target="_top" xlink:title="Test shodnosti dvou iterátorů">
<polygon fill="white" stroke="#666666" points="489,-183 358,-183 358,-164 489,-164 489,-183"/>
<text text-anchor="middle" x="423.5" y="-171" font-family="Helvetica,sans-Serif" font-size="10.00">vector_iterators_are_same</text>
</a>
</g>
</g>
<!-- Node1&#45;&gt;Node21 -->
<g id="edge24_Node000001_Node000021" class="edge"><title>Node1&#45;&gt;Node21</title>
<g id="a_edge24_Node000001_Node000021"><a xlink:title=" ">
<path fill="none" stroke="#63b8ff" d="M560.941,-297.029C549.018,-268.139 525.341,-220.606 490,-193.5 484.339,-189.158 477.734,-185.753 470.938,-183.084"/>
<polygon fill="#63b8ff" stroke="#63b8ff" points="557.722,-298.405 564.668,-306.406 564.227,-295.82 557.722,-298.405"/>
</a>
</g>
</g>
<!-- Node23 -->
<g id="Node000023" class="node"><title>Node23</title>
<g id="a_Node000023"><a xlink:href="group__sortable___t_vector_iterator.html#gaa3e549d3e67e2168311acc8f4a494cc5" target="_top" xlink:title="Přesun hodnoty elementu vektoru určené dvěma iterátory.">
<polygon fill="white" stroke="#666666" points="490,-141 357,-141 357,-122 490,-122 490,-141"/>
<text text-anchor="middle" x="423.5" y="-129" font-family="Helvetica,sans-Serif" font-size="10.00">vector_move_with_iterators</text>
</a>
</g>
</g>
<!-- Node1&#45;&gt;Node23 -->
<g id="edge26_Node000001_Node000023" class="edge"><title>Node1&#45;&gt;Node23</title>
<g id="a_edge26_Node000001_Node000023"><a xlink:title=" ">
<path fill="none" stroke="#63b8ff" d="M564.459,-296.424C555.185,-260.154 533.137,-193.172 490,-154.5 483.539,-148.708 475.531,-144.354 467.357,-141.088"/>
<polygon fill="#63b8ff" stroke="#63b8ff" points="561.075,-297.322 566.84,-306.211 567.877,-295.667 561.075,-297.322"/>
</a>
</g>
</g>
<!-- Node25 -->
<g id="Node000025" class="node"><title>Node25</title>
<g id="a_Node000025"><a xlink:href="group__sortable___t_vector_iterator.html#ga015969daf209d461aaf0ba4391df4b5b" target="_top" xlink:title="Výměna mezi hodnotou elementu vektoru určenou iterátorem a proměnnou typu VectorElement.">
<polygon fill="white" stroke="#666666" points="487.5,-94.5 359.5,-94.5 359.5,-64.5 487.5,-64.5 487.5,-94.5"/>
<text text-anchor="start" x="367.5" y="-82.5" font-family="Helvetica,sans-Serif" font-size="10.00">vector_swap_with_iterator</text>
<text text-anchor="middle" x="423.5" y="-71.5" font-family="Helvetica,sans-Serif" font-size="10.00">_value</text>
</a>
</g>
</g>
<!-- Node1&#45;&gt;Node25 -->
<g id="edge28_Node000001_Node000025" class="edge"><title>Node1&#45;&gt;Node25</title>
<g id="a_edge28_Node000001_Node000025"><a xlink:title=" ">
<path fill="none" stroke="#63b8ff" d="M566.392,-296.337C559.089,-253.693 538.884,-166.596 490,-112.5 483.426,-105.226 474.881,-99.3417 466.146,-94.6699"/>
<polygon fill="#63b8ff" stroke="#63b8ff" points="562.969,-297.097 568.016,-306.412 569.88,-295.983 562.969,-297.097"/>
</a>
</g>
</g>
<!-- Node27 -->
<g id="Node000027" class="node"><title>Node27</title>
<g id="a_Node000027"><a xlink:href="group__sortable___t_vector_iterator.html#gac16589d02c81c789a7fa6cd323a49013" target="_top" xlink:title="Výměna hodnot elementů vektorů určených dvěma iterátory.">
<polygon fill="white" stroke="#666666" points="490,-28 357,-28 357,-9 490,-9 490,-28"/>
<text text-anchor="middle" x="423.5" y="-16" font-family="Helvetica,sans-Serif" font-size="10.00">vector_swap_with_iterators</text>
</a>
</g>
</g>
<!-- Node1&#45;&gt;Node27 -->
<g id="edge30_Node000001_Node000027" class="edge"><title>Node1&#45;&gt;Node27</title>
<g id="a_edge30_Node000001_Node000027"><a xlink:title=" ">
<path fill="none" stroke="#63b8ff" d="M568.58,-296.404C564.503,-245.608 548.911,-129.195 490,-55.5 480.051,-43.0542 464.709,-34.0677 451.373,-28.0699"/>
<polygon fill="#63b8ff" stroke="#63b8ff" points="565.097,-296.76 569.304,-306.483 572.079,-296.258 565.097,-296.76"/>
</a>
</g>
</g>
<!-- Node3 -->
<g id="Node000003" class="node"><title>Node3</title>
<g id="a_Node000003"><a xlink:href="group___main_program.html#ga0ddf1224851353fc92bfbff6f499fa97" target="_top" xlink:title=" ">
<polygon fill="white" stroke="#666666" points="38,-364 0,-364 0,-345 38,-345 38,-364"/>
<text text-anchor="middle" x="19" y="-352" font-family="Helvetica,sans-Serif" font-size="10.00">main</text>
</a>
</g>
</g>
<!-- Node2&#45;&gt;Node3 -->
<g id="edge2_Node000002_Node000003" class="edge"><title>Node2&#45;&gt;Node3</title>
<g id="a_edge2_Node000002_Node000003"><a xlink:title=" ">
<path fill="none" stroke="#63b8ff" d="M63.5417,-354.5C54.5485,-354.5 45.5529,-354.5 38.0925,-354.5"/>
<polygon fill="#63b8ff" stroke="#63b8ff" points="63.6124,-358 73.6123,-354.5 63.6123,-351 63.6124,-358"/>
</a>
</g>
</g>
<!-- Node6 -->
<g id="Node000006" class="node"><title>Node6</title>
<g id="a_Node000006"><a xlink:href="group___t_span.html#ga0b2e633085569b47c063161298794b98" target="_top" xlink:title="Porovnání mezi hodnotou elementu Spanu určenou iterátorem a hodnotou typu VectorElement.">
<polygon fill="white" stroke="#666666" points="318.5,-525.5 180.5,-525.5 180.5,-495.5 318.5,-495.5 318.5,-525.5"/>
<text text-anchor="start" x="188.5" y="-513.5" font-family="Helvetica,sans-Serif" font-size="10.00">span_compare_with_iterator</text>
<text text-anchor="middle" x="249.5" y="-502.5" font-family="Helvetica,sans-Serif" font-size="10.00">_value</text>
</a>
</g>
</g>
<!-- Node5&#45;&gt;Node6 -->
<g id="edge5_Node000005_Node000006" class="edge"><title>Node5&#45;&gt;Node6</title>
<g id="a_edge5_Node000005_Node000006"><a xlink:title=" ">
<path fill="none" stroke="#63b8ff" d="M359.878,-510.5C346.454,-510.5 332.207,-510.5 318.587,-510.5"/>
<polygon fill="#63b8ff" stroke="#63b8ff" points="359.96,-514 369.96,-510.5 359.96,-507 359.96,-514"/>
</a>
</g>
</g>
<!-- Node8 -->
<g id="Node000008" class="node"><title>Node8</title>
<g id="a_Node000008"><a xlink:href="group___t_span.html#ga1b60dd9d2211c7cb07b066f19237b0ac" target="_top" xlink:title="Porovnání hodnot elementů Spanů určených dvěma iterátory.">
<polygon fill="white" stroke="#666666" points="321,-475 178,-475 178,-456 321,-456 321,-475"/>
<text text-anchor="middle" x="249.5" y="-463" font-family="Helvetica,sans-Serif" font-size="10.00">span_compare_with_iterators</text>
</a>
</g>
</g>
<!-- Node7&#45;&gt;Node8 -->
<g id="edge7_Node000007_Node000008" class="edge"><title>Node7&#45;&gt;Node8</title>
<g id="a_edge7_Node000007_Node000008"><a xlink:title=" ">
<path fill="none" stroke="#63b8ff" d="M359.628,-463.597C347.099,-463.815 333.863,-464.046 321.095,-464.269"/>
<polygon fill="#63b8ff" stroke="#63b8ff" points="360.022,-467.09 369.96,-463.416 359.9,-460.091 360.022,-467.09"/>
</a>
</g>
</g>
<!-- Node10&#45;&gt;Node2 -->
<g id="edge10_Node000010_Node000002" class="edge"><title>Node10&#45;&gt;Node2</title>
<g id="a_edge10_Node000010_Node000002"><a xlink:title=" ">
<path fill="none" stroke="#63b8ff" d="M205.201,-354.5C184.925,-354.5 161.148,-354.5 142.306,-354.5"/>
<polygon fill="#63b8ff" stroke="#63b8ff" points="205.44,-358 215.44,-354.5 205.44,-351 205.44,-358"/>
</a>
</g>
</g>
<!-- Node12 -->
<g id="Node000012" class="node"><title>Node12</title>
<g id="a_Node000012"><a xlink:href="group___t_span.html#gad7325743f683c214db12e5f7070569a7" target="_top" xlink:title="Zapsání hodnoty elementu do Spanu pomocí iterátoru.">
<polygon fill="white" stroke="#666666" points="309,-327 190,-327 190,-308 309,-308 309,-327"/>
<text text-anchor="middle" x="249.5" y="-315" font-family="Helvetica,sans-Serif" font-size="10.00">span_iterator_set_value</text>
</a>
</g>
</g>
<!-- Node11&#45;&gt;Node12 -->
<g id="edge12_Node000011_Node000012" class="edge"><title>Node11&#45;&gt;Node12</title>
<g id="a_edge12_Node000011_Node000012"><a xlink:title=" ">
<path fill="none" stroke="#63b8ff" d="M364.996,-306.184C347.03,-307.959 327.193,-309.92 309.149,-311.703"/>
<polygon fill="#63b8ff" stroke="#63b8ff" points="365.438,-309.657 375.045,-305.19 364.749,-302.691 365.438,-309.657"/>
</a>
</g>
</g>
<!-- Node13&#45;&gt;Node9 -->
<g id="edge15_Node000013_Node000009" class="edge"><title>Node13&#45;&gt;Node9</title>
<g id="a_edge15_Node000013_Node000009"><a xlink:title=" ">
<path fill="none" stroke="#63b8ff" d="M378.131,-393.801C360.373,-398.708 339.723,-404.395 321,-409.5 309.626,-412.601 297.212,-415.957 286.015,-418.973"/>
<polygon fill="#63b8ff" stroke="#63b8ff" points="379.512,-397.051 388.217,-391.012 377.646,-390.304 379.512,-397.051"/>
</a>
</g>
</g>
<!-- Node13&#45;&gt;Node10 -->
<g id="edge16_Node000013_Node000010" class="edge"><title>Node13&#45;&gt;Node10</title>
<g id="a_edge16_Node000013_Node000010"><a xlink:title=" ">
<path fill="none" stroke="#63b8ff" d="M355.65,-371.006C330.965,-367.131 304.063,-362.908 283.649,-359.704"/>
<polygon fill="#63b8ff" stroke="#63b8ff" points="355.282,-374.491 365.704,-372.584 356.368,-367.576 355.282,-374.491"/>
</a>
</g>
</g>
<!-- Node14 -->
<g id="Node000014" class="node"><title>Node14</title>
<g id="a_Node000014"><a xlink:href="group___t_span.html#gaee1f79d544008f32cf2030c0d2156c04" target="_top" xlink:title="Posunutí iterátoru vpřed.">
<polygon fill="white" stroke="#666666" points="304.5,-401 194.5,-401 194.5,-382 304.5,-382 304.5,-401"/>
<text text-anchor="middle" x="249.5" y="-389" font-family="Helvetica,sans-Serif" font-size="10.00">span_iterator_to_next</text>
</a>
</g>
</g>
<!-- Node13&#45;&gt;Node14 -->
<g id="edge14_Node000013_Node000014" class="edge"><title>Node13&#45;&gt;Node14</title>
<g id="a_edge14_Node000013_Node000014"><a xlink:title=" ">
<path fill="none" stroke="#63b8ff" d="M355.382,-385.402C338.555,-386.381 320.713,-387.418 304.609,-388.354"/>
<polygon fill="#63b8ff" stroke="#63b8ff" points="355.924,-388.877 365.704,-384.802 355.518,-381.888 355.924,-388.877"/>
</a>
</g>
</g>
<!-- Node16 -->
<g id="Node000016" class="node"><title>Node16</title>
<g id="a_Node000016"><a xlink:href="group___t_span.html#gaba2bf18029ccee38147943a1176f1673" target="_top" xlink:title="Posunutí iterátoru vzad.">
<polygon fill="white" stroke="#666666" points="304,-290 195,-290 195,-271 304,-271 304,-290"/>
<text text-anchor="middle" x="249.5" y="-278" font-family="Helvetica,sans-Serif" font-size="10.00">span_iterator_to_prev</text>
</a>
</g>
</g>
<!-- Node15&#45;&gt;Node16 -->
<g id="edge18_Node000015_Node000016" class="edge"><title>Node15&#45;&gt;Node16</title>
<g id="a_edge18_Node000015_Node000016"><a xlink:title=" ">
<path fill="none" stroke="#63b8ff" d="M356.579,-266.315C339.196,-268.639 320.655,-271.119 304.015,-273.344"/>
<polygon fill="#63b8ff" stroke="#63b8ff" points="357.209,-269.762 366.657,-264.967 356.281,-262.824 357.209,-269.762"/>
</a>
</g>
</g>
<!-- Node18 -->
<g id="Node000018" class="node"><title>Node18</title>
<g id="a_Node000018"><a xlink:href="group___basic_sorts.html#ga25c7ac8991c266d71b75cf20c14b67cf" target="_top" xlink:title="Vytisknutí elementu vektoru pomocí iterátoru.">
<polygon fill="white" stroke="#666666" points="287,-253 212,-253 212,-234 287,-234 287,-253"/>
<text text-anchor="middle" x="249.5" y="-241" font-family="Helvetica,sans-Serif" font-size="10.00">print_element</text>
</a>
</g>
</g>
<!-- Node17&#45;&gt;Node18 -->
<g id="edge20_Node000017_Node000018" class="edge"><title>Node17&#45;&gt;Node18</title>
<g id="a_edge20_Node000017_Node000018"><a xlink:title=" ">
<path fill="none" stroke="#63b8ff" d="M361.32,-223.527C336.557,-227.99 308.792,-232.994 287.247,-236.877"/>
<polygon fill="#63b8ff" stroke="#63b8ff" points="362.139,-226.935 371.36,-221.717 360.898,-220.046 362.139,-226.935"/>
</a>
</g>
</g>
<!-- Node19 -->
<g id="Node000019" class="node"><title>Node19</title>
<g id="a_Node000019"><a xlink:href="advanced__sorts__with__span_8c.html#a9efda83f1182fe5f74ed8ce11b2ddfca" target="_top" xlink:title="Formátovaný tisk hodnoty elementu za předpokladu platné hodnoty.">
<polygon fill="white" stroke="#666666" points="292,-216 207,-216 207,-197 292,-197 292,-216"/>
<text text-anchor="middle" x="249.5" y="-204" font-family="Helvetica,sans-Serif" font-size="10.00">print_element_if</text>
</a>
</g>
</g>
<!-- Node17&#45;&gt;Node19 -->
<g id="edge22_Node000017_Node000019" class="edge"><title>Node17&#45;&gt;Node19</title>
<g id="a_edge22_Node000017_Node000019"><a xlink:title=" ">
<path fill="none" stroke="#63b8ff" d="M361.069,-210.357C338.229,-209.56 312.865,-208.676 292.197,-207.955"/>
<polygon fill="#63b8ff" stroke="#63b8ff" points="361.244,-213.865 371.36,-210.716 361.488,-206.869 361.244,-213.865"/>
</a>
</g>
</g>
<!-- Node20 -->
<g id="Node000020" class="node"><title>Node20</title>
<g id="a_Node000020"><a xlink:href="group___t_span.html#ga8796ef08880befbf07bda987120a58cb" target="_top" xlink:title="Přečtení hodnoty elementu z Spanu pomocí iterátoru.">
<polygon fill="white" stroke="#666666" points="299.5,-179 199.5,-179 199.5,-160 299.5,-160 299.5,-179"/>
<text text-anchor="middle" x="249.5" y="-167" font-family="Helvetica,sans-Serif" font-size="10.00">span_iterator_value</text>
</a>
</g>
</g>
<!-- Node17&#45;&gt;Node20 -->
<g id="edge23_Node000017_Node000020" class="edge"><title>Node17&#45;&gt;Node20</title>
<g id="a_edge23_Node000017_Node000020"><a xlink:title=" ">
<path fill="none" stroke="#63b8ff" d="M374.275,-200.444C347.17,-193.668 313.817,-185.329 288.566,-179.016"/>
<polygon fill="#63b8ff" stroke="#63b8ff" points="373.777,-203.927 384.328,-202.957 375.475,-197.136 373.777,-203.927"/>
</a>
</g>
</g>
<!-- Node18&#45;&gt;Node2 -->
<g id="edge21_Node000018_Node000002" class="edge"><title>Node18&#45;&gt;Node2</title>
<g id="a_edge21_Node000018_Node000002"><a xlink:title=" ">
<path fill="none" stroke="#63b8ff" d="M201.923,-250.586C193.518,-253.169 185.161,-256.692 178,-261.5 145.451,-283.351 122.453,-325.874 113.342,-344.897"/>
<polygon fill="#63b8ff" stroke="#63b8ff" points="202.983,-253.926 211.743,-247.967 201.178,-247.163 202.983,-253.926"/>
</a>
</g>
</g>
<!-- Node22 -->
<g id="Node000022" class="node"><title>Node22</title>
<g id="a_Node000022"><a xlink:href="group___t_span.html#gabda724224638fb2f6016b6f8eba08263" target="_top" xlink:title="Test shodnosti dvou iterátorů">
<polygon fill="white" stroke="#666666" points="312.5,-142 186.5,-142 186.5,-123 312.5,-123 312.5,-142"/>
<text text-anchor="middle" x="249.5" y="-130" font-family="Helvetica,sans-Serif" font-size="10.00">span_iterators_are_same</text>
</a>
</g>
</g>
<!-- Node21&#45;&gt;Node22 -->
<g id="edge25_Node000021_Node000022" class="edge"><title>Node21&#45;&gt;Node22</title>
<g id="a_edge25_Node000021_Node000022"><a xlink:title=" ">
<path fill="none" stroke="#63b8ff" d="M372.876,-161.671C346.712,-155.434 315.041,-147.885 290.474,-142.029"/>
<polygon fill="#63b8ff" stroke="#63b8ff" points="372.068,-165.077 382.607,-163.991 373.692,-158.267 372.068,-165.077"/>
</a>
</g>
</g>
<!-- Node24 -->
<g id="Node000024" class="node"><title>Node24</title>
<g id="a_Node000024"><a xlink:href="group___t_span.html#ga972048723036512595f461c3ba0a9d21" target="_top" xlink:title="Přesun hodnoty elementu Spanu určené dvěma iterátory.">
<polygon fill="white" stroke="#666666" points="313.5,-105 185.5,-105 185.5,-86 313.5,-86 313.5,-105"/>
<text text-anchor="middle" x="249.5" y="-93" font-family="Helvetica,sans-Serif" font-size="10.00">span_move_with_iterators</text>
</a>
</g>
</g>
<!-- Node23&#45;&gt;Node24 -->
<g id="edge27_Node000023_Node000024" class="edge"><title>Node23&#45;&gt;Node24</title>
<g id="a_edge27_Node000023_Node000024"><a xlink:title=" ">
<path fill="none" stroke="#63b8ff" d="M366.931,-119.869C344.021,-115.074 317.804,-109.587 296.056,-105.035"/>
<polygon fill="#63b8ff" stroke="#63b8ff" points="366.354,-123.324 376.859,-121.947 367.788,-116.473 366.354,-123.324"/>
</a>
</g>
</g>
<!-- Node26 -->
<g id="Node000026" class="node"><title>Node26</title>
<g id="a_Node000026"><a xlink:href="group___t_span.html#ga87439f0c5045aa7f177a37558b60d397" target="_top" xlink:title="Výměna mezi hodnotou elementu Spanu určenou iterátorem a proměnnou typu SpanElement.">
<polygon fill="white" stroke="#666666" points="311,-67.5 188,-67.5 188,-37.5 311,-37.5 311,-67.5"/>
<text text-anchor="start" x="196" y="-55.5" font-family="Helvetica,sans-Serif" font-size="10.00">span_swap_with_iterator</text>
<text text-anchor="middle" x="249.5" y="-44.5" font-family="Helvetica,sans-Serif" font-size="10.00">_value</text>
</a>
</g>
</g>
<!-- Node25&#45;&gt;Node26 -->
<g id="edge29_Node000025_Node000026" class="edge"><title>Node25&#45;&gt;Node26</title>
<g id="a_edge29_Node000025_Node000026"><a xlink:title=" ">
<path fill="none" stroke="#63b8ff" d="M349.355,-68.0179C336.662,-66.0254 323.587,-63.9729 311.269,-62.0394"/>
<polygon fill="#63b8ff" stroke="#63b8ff" points="349.008,-71.5063 359.43,-69.5995 350.094,-64.591 349.008,-71.5063"/>
</a>
</g>
</g>
<!-- Node28 -->
<g id="Node000028" class="node"><title>Node28</title>
<g id="a_Node000028"><a xlink:href="group___t_span.html#ga2bc9c4a1a22d533a1a01ddb8cb57cfca" target="_top" xlink:title="Výměna hodnot elementů Spanů určených dvěma iterátory.">
<polygon fill="white" stroke="#666666" points="313.5,-19 185.5,-19 185.5,-0 313.5,-0 313.5,-19"/>
<text text-anchor="middle" x="249.5" y="-7" font-family="Helvetica,sans-Serif" font-size="10.00">span_swap_with_iterators</text>
</a>
</g>
</g>
<!-- Node27&#45;&gt;Node28 -->
<g id="edge31_Node000027_Node000028" class="edge"><title>Node27&#45;&gt;Node28</title>
<g id="a_edge31_Node000027_Node000028"><a xlink:title=" ">
<path fill="none" stroke="#63b8ff" d="M346.861,-14.5422C335.744,-13.9604 324.392,-13.3665 313.564,-12.7999"/>
<polygon fill="#63b8ff" stroke="#63b8ff" points="346.814,-18.0444 356.984,-15.0718 347.18,-11.054 346.814,-18.0444"/>
</a>
</g>
</g>
</g>
</svg>
