<?xml version="1.0" encoding="UTF-8" standalone="no"?>
<!DOCTYPE svg PUBLIC "-//W3C//DTD SVG 1.1//EN"
 "http://www.w3.org/Graphics/SVG/1.1/DTD/svg11.dtd">
<!-- Generated by graphviz version 2.38.0 (20140413.2041)
 -->
<!-- Title: 2. Vector Pages: 1 -->
<svg width="237pt" height="98pt"
 viewBox="0.00 0.00 237.00 97.50" xmlns="http://www.w3.org/2000/svg" xmlns:xlink="http://www.w3.org/1999/xlink">
<g id="graph0" class="graph" transform="scale(1 1) rotate(0) translate(4 93.5)">
<title>2. Vector</title>
<!-- Node1 -->
<g id="Node000001" class="node"><title>Node1</title>
<g id="a_Node000001"><a xlink:title="Definice datového typu Vector a jeho funkcí">
<polygon fill="#999999" stroke="#666666" points="56,-57 3.55271e-015,-57 3.55271e-015,-38 56,-38 56,-57"/>
<text text-anchor="middle" x="28" y="-45" font-family="Helvetica,sans-Serif" font-size="10.00">2. Vector</text>
</a>
</g>
</g>
<!-- Node2 -->
<g id="Node000002" class="node"><title>Node2</title>
<g id="a_Node000002"><a xlink:href="group__sortable___t_vector.html" target="_top" xlink:title="Definice typu Vector (sortable), popis jeho nově doplněných vlastností a funkcí">
<polygon fill="white" stroke="#666666" points="212.5,-89.5 108.5,-89.5 108.5,-59.5 212.5,-59.5 212.5,-89.5"/>
<text text-anchor="start" x="116.5" y="-77.5" font-family="Helvetica,sans-Serif" font-size="10.00">2.1. Rozšíření</text>
<text text-anchor="middle" x="160.5" y="-66.5" font-family="Helvetica,sans-Serif" font-size="10.00"> pro Sortable Vector</text>
</a>
</g>
</g>
<!-- Node1&#45;&gt;Node2 -->
<g id="edge1" class="edge"><title>Node1&#45;&gt;Node2</title>
<path fill="none" stroke="black" d="M66.143,-55.1848C79.3132,-57.9096 94.372,-61.0252 108.495,-63.9472"/>
<polygon fill="black" stroke="black" points="66.5414,-51.6931 56.0397,-53.0944 65.1231,-58.548 66.5414,-51.6931"/>
</g>
<!-- Node3 -->
<g id="Node000003" class="node"><title>Node3</title>
<g id="a_Node000003"><a xlink:href="group__sortable___t_vector__with__shareable__sortstats.html" target="_top" xlink:title="Definice typu Vector (sortable_with_shareable_sortstats), popis jeho nově doplněných vlastností a fun...">
<polygon fill="white" stroke="#666666" points="229,-41 92,-41 92,-0 229,-0 229,-41"/>
<text text-anchor="start" x="100" y="-29" font-family="Helvetica,sans-Serif" font-size="10.00">2.2. Doplnění pro</text>
<text text-anchor="start" x="100" y="-18" font-family="Helvetica,sans-Serif" font-size="10.00"> Sortable Vector o vlastnost</text>
<text text-anchor="middle" x="160.5" y="-7" font-family="Helvetica,sans-Serif" font-size="10.00"> sdílení statistik třídění</text>
</a>
</g>
</g>
<!-- Node1&#45;&gt;Node3 -->
<g id="edge2" class="edge"><title>Node1&#45;&gt;Node3</title>
<path fill="none" stroke="black" d="M65.9062,-39.8642C74.0435,-38.1806 82.9109,-36.346 91.8386,-34.4989"/>
<polygon fill="black" stroke="black" points="65.1231,-36.452 56.0397,-41.9056 66.5414,-43.3069 65.1231,-36.452"/>
</g>
</g>
</svg>
