<?xml version="1.0" encoding="UTF-8" standalone="no"?>
<!DOCTYPE svg PUBLIC "-//W3C//DTD SVG 1.1//EN"
 "http://www.w3.org/Graphics/SVG/1.1/DTD/svg11.dtd">
<!-- Generated by graphviz version 2.38.0 (20140413.2041)
 -->
<!-- Title: vector_element_comparator Pages: 1 -->
<svg width="1003pt" height="502pt"
 viewBox="0.00 0.00 1003.00 501.58" xmlns="http://www.w3.org/2000/svg" xmlns:xlink="http://www.w3.org/1999/xlink">
<g id="graph0" class="graph" transform="scale(1 1) rotate(0) translate(4 497.579)">
<title>vector_element_comparator</title>
<!-- Node1 -->
<g id="Node000001" class="node"><title>Node1</title>
<g id="a_Node000001"><a xlink:title="Porovnání dvou elementů">
<polygon fill="#999999" stroke="#666666" points="995,-134.421 859,-134.421 859,-115.421 995,-115.421 995,-134.421"/>
<text text-anchor="middle" x="927" y="-122.421" font-family="Helvetica,sans-Serif" font-size="10.00">vector_element_comparator</text>
</a>
</g>
</g>
<!-- Node2 -->
<g id="Node000002" class="node"><title>Node2</title>
<g id="a_Node000002"><a xlink:href="_t_vector_8c.html#a8254190a2b4fe570173cc77dba0ee7a4" target="_top" xlink:title=" ">
<polygon fill="white" stroke="#666666" points="819.5,-314.921 713.5,-314.921 713.5,-284.921 819.5,-284.921 819.5,-314.921"/>
<text text-anchor="start" x="721.5" y="-302.921" font-family="Helvetica,sans-Serif" font-size="10.00">vector_fast_compare</text>
<text text-anchor="middle" x="766.5" y="-291.921" font-family="Helvetica,sans-Serif" font-size="10.00">_position_value</text>
</a>
</g>
</g>
<!-- Node1&#45;&gt;Node2 -->
<g id="edge1_Node000001_Node000002" class="edge"><title>Node1&#45;&gt;Node2</title>
<g id="a_edge1_Node000001_Node000002"><a xlink:title=" ">
<path fill="none" stroke="#63b8ff" d="M910.205,-142.361C879.116,-176.686 810.47,-252.478 781.179,-284.819"/>
<polygon fill="#63b8ff" stroke="#63b8ff" points="913.134,-144.341 917.253,-134.579 907.945,-139.642 913.134,-144.341"/>
</a>
</g>
</g>
<!-- Node14 -->
<g id="Node000014" class="node"><title>Node14</title>
<g id="a_Node000014"><a xlink:href="_t_vector_8c.html#a188bab569c3ae8a25070f632a6f53e62" target="_top" xlink:title=" ">
<polygon fill="white" stroke="#666666" points="819.5,-139.921 713.5,-139.921 713.5,-109.921 819.5,-109.921 819.5,-139.921"/>
<text text-anchor="start" x="721.5" y="-127.921" font-family="Helvetica,sans-Serif" font-size="10.00">vector_fast_compare</text>
<text text-anchor="middle" x="766.5" y="-116.921" font-family="Helvetica,sans-Serif" font-size="10.00">_positions</text>
</a>
</g>
</g>
<!-- Node1&#45;&gt;Node14 -->
<g id="edge18_Node000001_Node000014" class="edge"><title>Node1&#45;&gt;Node14</title>
<g id="a_edge18_Node000001_Node000014"><a xlink:title=" ">
<path fill="none" stroke="#63b8ff" d="M848.669,-124.921C838.927,-124.921 829.147,-124.921 819.917,-124.921"/>
<polygon fill="#63b8ff" stroke="#63b8ff" points="848.782,-128.421 858.782,-124.921 848.782,-121.421 848.782,-128.421"/>
</a>
</g>
</g>
<!-- Node24 -->
<g id="Node000024" class="node"><title>Node24</title>
<g id="a_Node000024"><a xlink:href="group__sortable___t_vector.html#ga1b7a4850be6488c69c293bdd13f729a7" target="_top" xlink:title="Ověření korektního setřídění vektoru.">
<polygon fill="white" stroke="#666666" points="823,-51.9214 710,-51.9214 710,-21.9214 823,-21.9214 823,-51.9214"/>
<text text-anchor="start" x="718" y="-39.9214" font-family="Helvetica,sans-Serif" font-size="10.00">vector_is_ascendantly</text>
<text text-anchor="middle" x="766.5" y="-28.9214" font-family="Helvetica,sans-Serif" font-size="10.00">_sorted</text>
</a>
</g>
</g>
<!-- Node1&#45;&gt;Node24 -->
<g id="edge28_Node000001_Node000024" class="edge"><title>Node1&#45;&gt;Node24</title>
<g id="a_edge28_Node000001_Node000024"><a xlink:title=" ">
<path fill="none" stroke="#63b8ff" d="M899.987,-110.479C870.99,-94.3793 824.304,-68.4591 794.796,-52.0765"/>
<polygon fill="#63b8ff" stroke="#63b8ff" points="898.294,-113.542 908.736,-115.336 901.692,-107.422 898.294,-113.542"/>
</a>
</g>
</g>
<!-- Node3 -->
<g id="Node000003" class="node"><title>Node3</title>
<g id="a_Node000003"><a xlink:href="group__sortable___t_vector.html#ga09e150aa4cdd8faabf43474ab1dbe454" target="_top" xlink:title="Porovnání mezi hodnotou elementu vektoru a hodnotou typu VectorElement.">
<polygon fill="white" stroke="#666666" points="671.5,-405.921 547.5,-405.921 547.5,-375.921 671.5,-375.921 671.5,-405.921"/>
<text text-anchor="start" x="555.5" y="-393.921" font-family="Helvetica,sans-Serif" font-size="10.00">vector_compare_position</text>
<text text-anchor="middle" x="609.5" y="-382.921" font-family="Helvetica,sans-Serif" font-size="10.00">_value</text>
</a>
</g>
</g>
<!-- Node2&#45;&gt;Node3 -->
<g id="edge2_Node000002_Node000003" class="edge"><title>Node2&#45;&gt;Node3</title>
<g id="a_edge2_Node000002_Node000003"><a xlink:title=" ">
<path fill="none" stroke="#63b8ff" d="M731.02,-320.164C702.307,-337.022 662.062,-360.65 636.133,-375.872"/>
<polygon fill="#63b8ff" stroke="#63b8ff" points="733.053,-323.029 739.905,-314.948 729.509,-316.993 733.053,-323.029"/>
</a>
</g>
</g>
<!-- Node12 -->
<g id="Node000012" class="node"><title>Node12</title>
<g id="a_Node000012"><a xlink:href="group__sortable___t_vector_iterator.html#gaa359594c5556fb685473666fad583ddf" target="_top" xlink:title="Porovnání mezi hodnotou elementu vektoru určenou iterátorem a hodnotou typu VectorElement.">
<polygon fill="white" stroke="#666666" points="663,-314.921 556,-314.921 556,-284.921 663,-284.921 663,-314.921"/>
<text text-anchor="start" x="564" y="-302.921" font-family="Helvetica,sans-Serif" font-size="10.00">vector_compare_with</text>
<text text-anchor="middle" x="609.5" y="-291.921" font-family="Helvetica,sans-Serif" font-size="10.00">_iterator_value</text>
</a>
</g>
</g>
<!-- Node2&#45;&gt;Node12 -->
<g id="edge16_Node000002_Node000012" class="edge"><title>Node2&#45;&gt;Node12</title>
<g id="a_edge16_Node000002_Node000012"><a xlink:title=" ">
<path fill="none" stroke="#63b8ff" d="M703.416,-299.921C690.09,-299.921 676.13,-299.921 663.199,-299.921"/>
<polygon fill="#63b8ff" stroke="#63b8ff" points="703.456,-303.421 713.456,-299.921 703.456,-296.421 703.456,-303.421"/>
</a>
</g>
</g>
<!-- Node4 -->
<g id="Node000004" class="node"><title>Node4</title>
<g id="a_Node000004"><a xlink:href="group___basic_sorts.html#gac3903c3fd846908cd362e293ed40582e" target="_top" xlink:title="Třídění přímým vkládáním (Insert Sort)">
<polygon fill="white" stroke="#666666" points="160,-485.421 98,-485.421 98,-466.421 160,-466.421 160,-485.421"/>
<text text-anchor="middle" x="129" y="-473.421" font-family="Helvetica,sans-Serif" font-size="10.00">insert_sort</text>
</a>
</g>
</g>
<!-- Node3&#45;&gt;Node4 -->
<g id="edge3_Node000003_Node000004" class="edge"><title>Node3&#45;&gt;Node4</title>
<g id="a_edge3_Node000003_Node000004"><a xlink:title=" ">
<path fill="none" stroke="#63b8ff" d="M587.065,-413.478C568.383,-431.428 539.555,-455.245 509,-465.921 385.657,-509.018 225.725,-491.294 160.104,-481.157"/>
<polygon fill="#63b8ff" stroke="#63b8ff" points="589.776,-415.72 594.426,-406.2 584.854,-410.743 589.776,-415.72"/>
</a>
</g>
</g>
<!-- Node6 -->
<g id="Node000006" class="node"><title>Node6</title>
<g id="a_Node000006"><a xlink:href="advanced__sorts_8c.html#a0ae77c9640aa821e5507079ec5d2eb1d" target="_top" xlink:title="Vnitřní a lokální funkce realizující rekurzivní funkci pro metodu (Quick Sort)">
<polygon fill="white" stroke="#666666" points="485,-438.421 390,-438.421 390,-419.421 485,-419.421 485,-438.421"/>
<text text-anchor="middle" x="437.5" y="-426.421" font-family="Helvetica,sans-Serif" font-size="10.00">quick_sort_worker</text>
</a>
</g>
</g>
<!-- Node3&#45;&gt;Node6 -->
<g id="edge5_Node000003_Node000006" class="edge"><title>Node3&#45;&gt;Node6</title>
<g id="a_edge5_Node000003_Node000006"><a xlink:title=" ">
<path fill="none" stroke="#63b8ff" d="M537.256,-406.846C518.177,-411.111 498.147,-415.589 481.151,-419.388"/>
<polygon fill="#63b8ff" stroke="#63b8ff" points="538.13,-410.237 547.126,-404.64 536.603,-403.406 538.13,-410.237"/>
</a>
</g>
</g>
<!-- Node8 -->
<g id="Node000008" class="node"><title>Node8</title>
<g id="a_Node000008"><a xlink:href="group___advanced_sorts.html#gaee070b00692f425d83eaea28b37bab2b" target="_top" xlink:title="Shellovo třídění vkládáním s ubývajícím krokem (Shell Sort) dle Hibbardovy posloupnosti.">
<polygon fill="white" stroke="#666666" points="304.5,-401.421 245.5,-401.421 245.5,-382.421 304.5,-382.421 304.5,-401.421"/>
<text text-anchor="middle" x="275" y="-389.421" font-family="Helvetica,sans-Serif" font-size="10.00">shell_sort</text>
</a>
</g>
</g>
<!-- Node3&#45;&gt;Node8 -->
<g id="edge9_Node000003_Node000008" class="edge"><title>Node3&#45;&gt;Node8</title>
<g id="a_edge9_Node000003_Node000008"><a xlink:title=" ">
<path fill="none" stroke="#63b8ff" d="M536.712,-391.137C464.289,-391.355 356.071,-391.681 304.853,-391.835"/>
<polygon fill="#63b8ff" stroke="#63b8ff" points="537.137,-394.636 547.127,-391.106 537.116,-387.636 537.137,-394.636"/>
</a>
</g>
</g>
<!-- Node9 -->
<g id="Node000009" class="node"><title>Node9</title>
<g id="a_Node000009"><a xlink:href="group___t_span.html#gad64d53738a4da90ef126cd73d84b5f52" target="_top" xlink:title="Porovnání mezi hodnotou elementu Span a hodnotou typu VectorElement.">
<polygon fill="white" stroke="#666666" points="497,-362.921 378,-362.921 378,-332.921 497,-332.921 497,-362.921"/>
<text text-anchor="start" x="386" y="-350.921" font-family="Helvetica,sans-Serif" font-size="10.00">span_compare_position</text>
<text text-anchor="middle" x="437.5" y="-339.921" font-family="Helvetica,sans-Serif" font-size="10.00">_value</text>
</a>
</g>
</g>
<!-- Node3&#45;&gt;Node9 -->
<g id="edge11_Node000003_Node000009" class="edge"><title>Node3&#45;&gt;Node9</title>
<g id="a_edge11_Node000003_Node000009"><a xlink:title=" ">
<path fill="none" stroke="#63b8ff" d="M539.022,-373.347C525.089,-369.823 510.581,-366.154 497.064,-362.735"/>
<polygon fill="#63b8ff" stroke="#63b8ff" points="538.489,-376.823 549.042,-375.882 540.206,-370.037 538.489,-376.823"/>
</a>
</g>
</g>
<!-- Node5 -->
<g id="Node000005" class="node"><title>Node5</title>
<g id="a_Node000005"><a xlink:href="group___main_program.html#ga0ddf1224851353fc92bfbff6f499fa97" target="_top" xlink:title=" ">
<polygon fill="white" stroke="#666666" points="38,-400.421 0,-400.421 0,-381.421 38,-381.421 38,-400.421"/>
<text text-anchor="middle" x="19" y="-388.421" font-family="Helvetica,sans-Serif" font-size="10.00">main</text>
</a>
</g>
</g>
<!-- Node4&#45;&gt;Node5 -->
<g id="edge4_Node000004_Node000005" class="edge"><title>Node4&#45;&gt;Node5</title>
<g id="a_edge4_Node000004_Node000005"><a xlink:title=" ">
<path fill="none" stroke="#63b8ff" d="M101.003,-460.997C92.1269,-455.683 82.3905,-449.4 74,-442.921 56.8997,-429.717 39.2709,-411.773 28.9892,-400.787"/>
<polygon fill="#63b8ff" stroke="#63b8ff" points="99.4464,-464.141 109.849,-466.152 102.971,-458.093 99.4464,-464.141"/>
</a>
</g>
</g>
<!-- Node6&#45;&gt;Node6 -->
<g id="edge8_Node000006_Node000006" class="edge"><title>Node6&#45;&gt;Node6</title>
<g id="a_edge8_Node000006_Node000006"><a xlink:title=" ">
<path fill="none" stroke="#63b8ff" d="M467.739,-447.242C466.475,-452.431 456.395,-456.421 437.5,-456.421 408.707,-456.421 400.384,-447.155 412.531,-438.504"/>
<polygon fill="#63b8ff" stroke="#63b8ff" points="470.631,-445.26 462.469,-438.504 464.637,-448.875 470.631,-445.26"/>
</a>
</g>
</g>
<!-- Node7 -->
<g id="Node000007" class="node"><title>Node7</title>
<g id="a_Node000007"><a xlink:href="group___advanced_sorts.html#gaa369b74c9050d30aa2416f9dba8cc8f5" target="_top" xlink:title="Rychlé třídění výměnou (Quick Sort) s volbou prostředního prvku jako pivota.">
<polygon fill="white" stroke="#666666" points="306,-438.421 244,-438.421 244,-419.421 306,-419.421 306,-438.421"/>
<text text-anchor="middle" x="275" y="-426.421" font-family="Helvetica,sans-Serif" font-size="10.00">quick_sort</text>
</a>
</g>
</g>
<!-- Node6&#45;&gt;Node7 -->
<g id="edge6_Node000006_Node000007" class="edge"><title>Node6&#45;&gt;Node7</title>
<g id="a_edge6_Node000006_Node000007"><a xlink:title=" ">
<path fill="none" stroke="#63b8ff" d="M379.329,-428.921C354.736,-428.921 326.982,-428.921 306.435,-428.921"/>
<polygon fill="#63b8ff" stroke="#63b8ff" points="379.645,-432.421 389.645,-428.921 379.645,-425.421 379.645,-432.421"/>
</a>
</g>
</g>
<!-- Node7&#45;&gt;Node5 -->
<g id="edge7_Node000007_Node000005" class="edge"><title>Node7&#45;&gt;Node5</title>
<g id="a_edge7_Node000007_Node000005"><a xlink:title=" ">
<path fill="none" stroke="#63b8ff" d="M233.965,-425.71C193.416,-422.085 129.006,-415.304 74,-404.921 62.0087,-402.658 48.7399,-399.231 38.356,-396.334"/>
<polygon fill="#63b8ff" stroke="#63b8ff" points="233.724,-429.202 243.99,-426.585 234.333,-422.229 233.724,-429.202"/>
</a>
</g>
</g>
<!-- Node8&#45;&gt;Node5 -->
<g id="edge10_Node000008_Node000005" class="edge"><title>Node8&#45;&gt;Node5</title>
<g id="a_edge10_Node000008_Node000005"><a xlink:title=" ">
<path fill="none" stroke="#63b8ff" d="M235.177,-391.769C179.506,-391.549 79.1998,-391.154 38.2049,-390.993"/>
<polygon fill="#63b8ff" stroke="#63b8ff" points="235.343,-395.269 245.357,-391.809 235.371,-388.269 235.343,-395.269"/>
</a>
</g>
</g>
<!-- Node10 -->
<g id="Node000010" class="node"><title>Node10</title>
<g id="a_Node000010"><a xlink:href="advanced__sorts__with__span_8c.html#a1526ecf4371ecb71f2bc68954f16681f" target="_top" xlink:title="Vnitřní a lokální funkce realizující rekurzivní funkci pro metodu (Quick Sort)">
<polygon fill="white" stroke="#666666" points="330,-345.921 220,-345.921 220,-315.921 330,-315.921 330,-345.921"/>
<text text-anchor="start" x="228" y="-333.921" font-family="Helvetica,sans-Serif" font-size="10.00">quick_sort_with_span</text>
<text text-anchor="middle" x="275" y="-322.921" font-family="Helvetica,sans-Serif" font-size="10.00">_worker</text>
</a>
</g>
</g>
<!-- Node9&#45;&gt;Node10 -->
<g id="edge12_Node000009_Node000010" class="edge"><title>Node9&#45;&gt;Node10</title>
<g id="a_edge12_Node000009_Node000010"><a xlink:title=" ">
<path fill="none" stroke="#63b8ff" d="M367.666,-340.63C355.087,-339.298 342.127,-337.925 330.055,-336.647"/>
<polygon fill="#63b8ff" stroke="#63b8ff" points="367.334,-344.115 377.647,-341.688 368.071,-337.154 367.334,-344.115"/>
</a>
</g>
</g>
<!-- Node10&#45;&gt;Node10 -->
<g id="edge15_Node000010_Node000010" class="edge"><title>Node10&#45;&gt;Node10</title>
<g id="a_edge15_Node000010_Node000010"><a xlink:title=" ">
<path fill="none" stroke="#63b8ff" d="M300.555,-356.519C297.063,-360.892 288.545,-363.921 275,-363.921 252.188,-363.921 243.633,-355.328 249.336,-346.197"/>
<polygon fill="#63b8ff" stroke="#63b8ff" points="304.059,-356.233 300.664,-346.197 297.059,-356.159 304.059,-356.233"/>
</a>
</g>
</g>
<!-- Node11 -->
<g id="Node000011" class="node"><title>Node11</title>
<g id="a_Node000011"><a xlink:href="group___advanced_sorts_with_span.html#ga451c79ea7ae3de87d73ed333460ea2d5" target="_top" xlink:title="Rychlé třídění výměnou (Quick Sort with span) s volbou prostředního prvku jako pivota a využívající t...">
<polygon fill="white" stroke="#666666" points="184,-351.421 74,-351.421 74,-332.421 184,-332.421 184,-351.421"/>
<text text-anchor="middle" x="129" y="-339.421" font-family="Helvetica,sans-Serif" font-size="10.00">quick_sort_with_span</text>
</a>
</g>
</g>
<!-- Node10&#45;&gt;Node11 -->
<g id="edge13_Node000010_Node000011" class="edge"><title>Node10&#45;&gt;Node11</title>
<g id="a_edge13_Node000010_Node000011"><a xlink:title=" ">
<path fill="none" stroke="#63b8ff" d="M209.73,-335.831C201.25,-336.479 192.625,-337.138 184.333,-337.771"/>
<polygon fill="#63b8ff" stroke="#63b8ff" points="210.266,-339.3 219.97,-335.049 209.732,-332.321 210.266,-339.3"/>
</a>
</g>
</g>
<!-- Node11&#45;&gt;Node5 -->
<g id="edge14_Node000011_Node000005" class="edge"><title>Node11&#45;&gt;Node5</title>
<g id="a_edge14_Node000011_Node000005"><a xlink:title=" ">
<path fill="none" stroke="#63b8ff" d="M97.6937,-355.671C78.5289,-364.367 54.3977,-375.315 38.1557,-382.684"/>
<polygon fill="#63b8ff" stroke="#63b8ff" points="99.2597,-358.804 106.92,-351.485 96.3675,-352.43 99.2597,-358.804"/>
</a>
</g>
</g>
<!-- Node13 -->
<g id="Node000013" class="node"><title>Node13</title>
<g id="a_Node000013"><a xlink:href="group___t_span.html#ga0b2e633085569b47c063161298794b98" target="_top" xlink:title="Porovnání mezi hodnotou elementu Spanu určenou iterátorem a hodnotou typu VectorElement.">
<polygon fill="white" stroke="#666666" points="506.5,-314.921 368.5,-314.921 368.5,-284.921 506.5,-284.921 506.5,-314.921"/>
<text text-anchor="start" x="376.5" y="-302.921" font-family="Helvetica,sans-Serif" font-size="10.00">span_compare_with_iterator</text>
<text text-anchor="middle" x="437.5" y="-291.921" font-family="Helvetica,sans-Serif" font-size="10.00">_value</text>
</a>
</g>
</g>
<!-- Node12&#45;&gt;Node13 -->
<g id="edge17_Node000012_Node000013" class="edge"><title>Node12&#45;&gt;Node13</title>
<g id="a_edge17_Node000012_Node000013"><a xlink:title=" ">
<path fill="none" stroke="#63b8ff" d="M545.636,-299.921C532.94,-299.921 519.536,-299.921 506.668,-299.921"/>
<polygon fill="#63b8ff" stroke="#63b8ff" points="545.643,-303.421 555.643,-299.921 545.643,-296.421 545.643,-303.421"/>
</a>
</g>
</g>
<!-- Node15 -->
<g id="Node000015" class="node"><title>Node15</title>
<g id="a_Node000015"><a xlink:href="group__sortable___t_vector.html#gaedaf9c79afa345e5e71e5c66ab25fa26" target="_top" xlink:title="Porovnání hodnot elementů vektorů">
<polygon fill="white" stroke="#666666" points="674,-155.421 545,-155.421 545,-136.421 674,-136.421 674,-155.421"/>
<text text-anchor="middle" x="609.5" y="-143.421" font-family="Helvetica,sans-Serif" font-size="10.00">vector_compare_positions</text>
</a>
</g>
</g>
<!-- Node14&#45;&gt;Node15 -->
<g id="edge19_Node000014_Node000015" class="edge"><title>Node14&#45;&gt;Node15</title>
<g id="a_edge19_Node000014_Node000015"><a xlink:title=" ">
<path fill="none" stroke="#63b8ff" d="M703.25,-133.355C693.702,-134.649 683.832,-135.986 674.251,-137.284"/>
<polygon fill="#63b8ff" stroke="#63b8ff" points="704.017,-136.783 713.456,-131.972 703.077,-129.847 704.017,-136.783"/>
</a>
</g>
</g>
<!-- Node22 -->
<g id="Node000022" class="node"><title>Node22</title>
<g id="a_Node000022"><a xlink:href="group__sortable___t_vector_iterator.html#gadd8aded92ce2c6402742a57316412d39" target="_top" xlink:title="Porovnání hodnot elementů vektorů určených dvěma iterátory.">
<polygon fill="white" stroke="#666666" points="663,-86.9214 556,-86.9214 556,-56.9214 663,-56.9214 663,-86.9214"/>
<text text-anchor="start" x="564" y="-74.9214" font-family="Helvetica,sans-Serif" font-size="10.00">vector_compare_with</text>
<text text-anchor="middle" x="609.5" y="-63.9214" font-family="Helvetica,sans-Serif" font-size="10.00">_iterators</text>
</a>
</g>
</g>
<!-- Node14&#45;&gt;Node22 -->
<g id="edge26_Node000014_Node000022" class="edge"><title>Node14&#45;&gt;Node22</title>
<g id="a_edge26_Node000014_Node000022"><a xlink:title=" ">
<path fill="none" stroke="#63b8ff" d="M711.931,-106.604C693.226,-100.208 672.459,-93.1073 654.612,-87.0049"/>
<polygon fill="#63b8ff" stroke="#63b8ff" points="710.903,-109.952 721.498,-109.875 713.168,-103.328 710.903,-109.952"/>
</a>
</g>
</g>
<!-- Node16 -->
<g id="Node000016" class="node"><title>Node16</title>
<g id="a_Node000016"><a xlink:href="group___basic_sorts.html#gaa1ef093f5205f293df8303ac228452fc" target="_top" xlink:title="Třídění přímou výměnou (Bubble Sort)">
<polygon fill="white" stroke="#666666" points="471,-266.421 404,-266.421 404,-247.421 471,-247.421 471,-266.421"/>
<text text-anchor="middle" x="437.5" y="-254.421" font-family="Helvetica,sans-Serif" font-size="10.00">bubble_sort</text>
</a>
</g>
</g>
<!-- Node15&#45;&gt;Node16 -->
<g id="edge20_Node000015_Node000016" class="edge"><title>Node15&#45;&gt;Node16</title>
<g id="a_edge20_Node000015_Node000016"><a xlink:title=" ">
<path fill="none" stroke="#63b8ff" d="M594.726,-163.308C577.095,-184.376 544.548,-219.464 509,-238.921 497.365,-245.29 483.414,-249.462 471.005,-252.169"/>
<polygon fill="#63b8ff" stroke="#63b8ff" points="597.511,-165.431 601.133,-155.475 592.093,-160.999 597.511,-165.431"/>
</a>
</g>
</g>
<!-- Node17 -->
<g id="Node000017" class="node"><title>Node17</title>
<g id="a_Node000017"><a xlink:href="group___basic_sorts.html#ga62a36eb31bf0a873f7c027e145843b1a" target="_top" xlink:title="Třídění přímou výměnou včetně optimalizace s pomocným příznakem ukončení třídění (Bubble Sort Optimiz...">
<polygon fill="white" stroke="#666666" points="494.5,-229.421 380.5,-229.421 380.5,-210.421 494.5,-210.421 494.5,-229.421"/>
<text text-anchor="middle" x="437.5" y="-217.421" font-family="Helvetica,sans-Serif" font-size="10.00">bubble_sort_optimized</text>
</a>
</g>
</g>
<!-- Node15&#45;&gt;Node17 -->
<g id="edge21_Node000015_Node000017" class="edge"><title>Node15&#45;&gt;Node17</title>
<g id="a_edge21_Node000015_Node000017"><a xlink:title=" ">
<path fill="none" stroke="#63b8ff" d="M585.727,-161.03C566.098,-173.484 536.637,-190.841 509,-201.921 500.91,-205.165 492.059,-207.968 483.446,-210.332"/>
<polygon fill="#63b8ff" stroke="#63b8ff" points="587.758,-163.886 594.268,-155.527 583.966,-158.002 587.758,-163.886"/>
</a>
</g>
</g>
<!-- Node18 -->
<g id="Node000018" class="node"><title>Node18</title>
<g id="a_Node000018"><a xlink:href="group___basic_sorts.html#gaba41a68f00241f38f7864b4e1dacd086" target="_top" xlink:title="Třídění přímou výměnou včetně optimalizace s výpočtem indexu poslední změny (Bubble Sort Optimized2)">
<polygon fill="white" stroke="#666666" points="497,-192.421 378,-192.421 378,-173.421 497,-173.421 497,-192.421"/>
<text text-anchor="middle" x="437.5" y="-180.421" font-family="Helvetica,sans-Serif" font-size="10.00">bubble_sort_optimized2</text>
</a>
</g>
</g>
<!-- Node15&#45;&gt;Node18 -->
<g id="edge22_Node000015_Node000018" class="edge"><title>Node15&#45;&gt;Node18</title>
<g id="a_edge22_Node000015_Node000018"><a xlink:title=" ">
<path fill="none" stroke="#63b8ff" d="M554.651,-157.642C531.37,-162.708 504.472,-168.563 482.426,-173.361"/>
<polygon fill="#63b8ff" stroke="#63b8ff" points="555.694,-160.996 564.721,-155.45 554.205,-154.157 555.694,-160.996"/>
</a>
</g>
</g>
<!-- Node19 -->
<g id="Node000019" class="node"><title>Node19</title>
<g id="a_Node000019"><a xlink:href="group___basic_sorts.html#ga3688a58781905ac2e518285b8bb711ec" target="_top" xlink:title="Třídění přímým výběrem (Select Sort)">
<polygon fill="white" stroke="#666666" points="470,-155.421 405,-155.421 405,-136.421 470,-136.421 470,-155.421"/>
<text text-anchor="middle" x="437.5" y="-143.421" font-family="Helvetica,sans-Serif" font-size="10.00">select_sort</text>
</a>
</g>
</g>
<!-- Node15&#45;&gt;Node19 -->
<g id="edge23_Node000015_Node000019" class="edge"><title>Node15&#45;&gt;Node19</title>
<g id="a_edge23_Node000015_Node000019"><a xlink:title=" ">
<path fill="none" stroke="#63b8ff" d="M534.459,-145.921C511.928,-145.921 488.351,-145.921 470.206,-145.921"/>
<polygon fill="#63b8ff" stroke="#63b8ff" points="534.715,-149.421 544.715,-145.921 534.715,-142.421 534.715,-149.421"/>
</a>
</g>
</g>
<!-- Node20 -->
<g id="Node000020" class="node"><title>Node20</title>
<g id="a_Node000020"><a xlink:href="group___basic_sorts.html#gaacee5d609500566a6ad1724486ab8bb2" target="_top" xlink:title="Třídění přímou výměnou se změnou postupu třídění (Shaker Sort)">
<polygon fill="white" stroke="#666666" points="471.5,-118.421 403.5,-118.421 403.5,-99.4214 471.5,-99.4214 471.5,-118.421"/>
<text text-anchor="middle" x="437.5" y="-106.421" font-family="Helvetica,sans-Serif" font-size="10.00">shaker_sort</text>
</a>
</g>
</g>
<!-- Node15&#45;&gt;Node20 -->
<g id="edge24_Node000015_Node000020" class="edge"><title>Node15&#45;&gt;Node20</title>
<g id="a_edge24_Node000015_Node000020"><a xlink:title=" ">
<path fill="none" stroke="#63b8ff" d="M554.92,-134.26C527.631,-128.32 495.314,-121.287 471.661,-116.139"/>
<polygon fill="#63b8ff" stroke="#63b8ff" points="554.205,-137.686 564.721,-136.393 555.694,-130.846 554.205,-137.686"/>
</a>
</g>
</g>
<!-- Node21 -->
<g id="Node000021" class="node"><title>Node21</title>
<g id="a_Node000021"><a xlink:href="group___t_span.html#gaffd3a758138012dac875ceda42a975db" target="_top" xlink:title="Porovnání hodnot elementů Spanů">
<polygon fill="white" stroke="#666666" points="500,-81.4214 375,-81.4214 375,-62.4214 500,-62.4214 500,-81.4214"/>
<text text-anchor="middle" x="437.5" y="-69.4214" font-family="Helvetica,sans-Serif" font-size="10.00">span_compare_positions</text>
</a>
</g>
</g>
<!-- Node15&#45;&gt;Node21 -->
<g id="edge25_Node000015_Node000021" class="edge"><title>Node15&#45;&gt;Node21</title>
<g id="a_edge25_Node000015_Node000021"><a xlink:title=" ">
<path fill="none" stroke="#63b8ff" d="M585.727,-130.813C566.098,-118.359 536.637,-101.002 509,-89.9214 500.91,-86.6778 492.059,-83.875 483.446,-81.5112"/>
<polygon fill="#63b8ff" stroke="#63b8ff" points="583.966,-133.841 594.268,-136.316 587.758,-127.957 583.966,-133.841"/>
</a>
</g>
</g>
<!-- Node23 -->
<g id="Node000023" class="node"><title>Node23</title>
<g id="a_Node000023"><a xlink:href="group___t_span.html#ga1b60dd9d2211c7cb07b066f19237b0ac" target="_top" xlink:title="Porovnání hodnot elementů Spanů určených dvěma iterátory.">
<polygon fill="white" stroke="#666666" points="509,-44.4214 366,-44.4214 366,-25.4214 509,-25.4214 509,-44.4214"/>
<text text-anchor="middle" x="437.5" y="-32.4214" font-family="Helvetica,sans-Serif" font-size="10.00">span_compare_with_iterators</text>
</a>
</g>
</g>
<!-- Node22&#45;&gt;Node23 -->
<g id="edge27_Node000022_Node000023" class="edge"><title>Node22&#45;&gt;Node23</title>
<g id="a_edge27_Node000022_Node000023"><a xlink:title=" ">
<path fill="none" stroke="#63b8ff" d="M545.774,-58.2692C524.641,-53.6698 501.533,-48.6402 482.193,-44.431"/>
<polygon fill="#63b8ff" stroke="#63b8ff" points="545.127,-61.7103 555.643,-60.4171 546.616,-54.8704 545.127,-61.7103"/>
</a>
</g>
</g>
<!-- Node25 -->
<g id="Node000025" class="node"><title>Node25</title>
<g id="a_Node000025"><a xlink:href="group___main_program.html#ga7343209645c93203da0a86613abfed04" target="_top" xlink:title="Testování třídicí metody.">
<polygon fill="white" stroke="#666666" points="163,-155.421 95,-155.421 95,-136.421 163,-136.421 163,-155.421"/>
<text text-anchor="middle" x="129" y="-143.421" font-family="Helvetica,sans-Serif" font-size="10.00">sort_testing</text>
</a>
</g>
</g>
<!-- Node24&#45;&gt;Node25 -->
<g id="edge29_Node000024_Node000025" class="edge"><title>Node24&#45;&gt;Node25</title>
<g id="a_edge29_Node000024_Node000025"><a xlink:title=" ">
<path fill="none" stroke="#63b8ff" d="M699.9,-21.5763C619.749,-5.524 480.658,13.5691 366,-15.9214 272.223,-40.041 175.799,-110.152 142.322,-136.107"/>
<polygon fill="#63b8ff" stroke="#63b8ff" points="699.355,-25.0373 709.854,-23.6152 700.76,-18.1797 699.355,-25.0373"/>
</a>
</g>
</g>
<!-- Node25&#45;&gt;Node5 -->
<g id="edge30_Node000025_Node000005" class="edge"><title>Node25&#45;&gt;Node5</title>
<g id="a_edge30_Node000025_Node000005"><a xlink:title=" ">
<path fill="none" stroke="#63b8ff" d="M119.72,-164.704C98.0594,-213.842 40.2834,-344.908 24.2045,-381.383"/>
<polygon fill="#63b8ff" stroke="#63b8ff" points="122.935,-166.088 123.766,-155.526 116.53,-163.264 122.935,-166.088"/>
</a>
</g>
</g>
</g>
</svg>
