<?xml version="1.0" encoding="UTF-8" standalone="no"?>
<!DOCTYPE svg PUBLIC "-//W3C//DTD SVG 1.1//EN"
 "http://www.w3.org/Graphics/SVG/1.1/DTD/svg11.dtd">
<!-- Generated by graphviz version 2.38.0 (20140413.2041)
 -->
<!-- Title: vector_move_positions Pages: 1 -->
<svg width="342pt" height="101pt"
 viewBox="0.00 0.00 342.00 101.00" xmlns="http://www.w3.org/2000/svg" xmlns:xlink="http://www.w3.org/1999/xlink">
<g id="graph0" class="graph" transform="scale(1 1) rotate(0) translate(4 97)">
<title>vector_move_positions</title>
<!-- Node1 -->
<g id="Node000001" class="node"><title>Node1</title>
<g id="a_Node000001"><a xlink:title="Přesun hodnoty elementu vektoru.">
<polygon fill="#999999" stroke="#666666" points="334,-56 220,-56 220,-37 334,-37 334,-56"/>
<text text-anchor="middle" x="277" y="-44" font-family="Helvetica,sans-Serif" font-size="10.00">vector_move_positions</text>
</a>
</g>
</g>
<!-- Node2 -->
<g id="Node000002" class="node"><title>Node2</title>
<g id="a_Node000002"><a xlink:href="group___basic_sorts.html#gac3903c3fd846908cd362e293ed40582e" target="_top" xlink:title="Třídění přímým vkládáním (Insert Sort)">
<polygon fill="white" stroke="#666666" points="160,-93 98,-93 98,-74 160,-74 160,-93"/>
<text text-anchor="middle" x="129" y="-81" font-family="Helvetica,sans-Serif" font-size="10.00">insert_sort</text>
</a>
</g>
</g>
<!-- Node1&#45;&gt;Node2 -->
<g id="edge1_Node000001_Node000002" class="edge"><title>Node1&#45;&gt;Node2</title>
<g id="a_edge1_Node000001_Node000002"><a xlink:title=" ">
<path fill="none" stroke="#63b8ff" d="M228.679,-58.4922C206.152,-64.2012 179.886,-70.8577 160.118,-75.8672"/>
<polygon fill="#63b8ff" stroke="#63b8ff" points="229.568,-61.8778 238.401,-56.0284 227.848,-55.0923 229.568,-61.8778"/>
</a>
</g>
</g>
<!-- Node4 -->
<g id="Node000004" class="node"><title>Node4</title>
<g id="a_Node000004"><a xlink:href="group___advanced_sorts.html#gaee070b00692f425d83eaea28b37bab2b" target="_top" xlink:title="Shellovo třídění vkládáním s ubývajícím krokem (Shell Sort) dle Hibbardovy posloupnosti.">
<polygon fill="white" stroke="#666666" points="158.5,-56 99.5,-56 99.5,-37 158.5,-37 158.5,-56"/>
<text text-anchor="middle" x="129" y="-44" font-family="Helvetica,sans-Serif" font-size="10.00">shell_sort</text>
</a>
</g>
</g>
<!-- Node1&#45;&gt;Node4 -->
<g id="edge3_Node000001_Node000004" class="edge"><title>Node1&#45;&gt;Node4</title>
<g id="a_edge3_Node000001_Node000004"><a xlink:title=" ">
<path fill="none" stroke="#63b8ff" d="M209.804,-46.5C191.874,-46.5 173.393,-46.5 158.736,-46.5"/>
<polygon fill="#63b8ff" stroke="#63b8ff" points="209.97,-50.0001 219.97,-46.5 209.97,-43.0001 209.97,-50.0001"/>
</a>
</g>
</g>
<!-- Node5 -->
<g id="Node000005" class="node"><title>Node5</title>
<g id="a_Node000005"><a xlink:href="group___t_span.html#ga8efc8ea3e4f239b6c154cdae03258740" target="_top" xlink:title="Přesun hodnoty elementu Spanu.">
<polygon fill="white" stroke="#666666" points="184,-19 74,-19 74,-0 184,-0 184,-19"/>
<text text-anchor="middle" x="129" y="-7" font-family="Helvetica,sans-Serif" font-size="10.00">span_move_positions</text>
</a>
</g>
</g>
<!-- Node1&#45;&gt;Node5 -->
<g id="edge5_Node000001_Node000005" class="edge"><title>Node1&#45;&gt;Node5</title>
<g id="a_edge5_Node000001_Node000005"><a xlink:title=" ">
<path fill="none" stroke="#63b8ff" d="M228.674,-34.5064C208.932,-29.5032 186.318,-23.7725 167.725,-19.0604"/>
<polygon fill="#63b8ff" stroke="#63b8ff" points="227.848,-37.9077 238.401,-36.9716 229.568,-31.1222 227.848,-37.9077"/>
</a>
</g>
</g>
<!-- Node3 -->
<g id="Node000003" class="node"><title>Node3</title>
<g id="a_Node000003"><a xlink:href="group___main_program.html#ga0ddf1224851353fc92bfbff6f499fa97" target="_top" xlink:title=" ">
<polygon fill="white" stroke="#666666" points="38,-74 0,-74 0,-55 38,-55 38,-74"/>
<text text-anchor="middle" x="19" y="-62" font-family="Helvetica,sans-Serif" font-size="10.00">main</text>
</a>
</g>
</g>
<!-- Node2&#45;&gt;Node3 -->
<g id="edge2_Node000002_Node000003" class="edge"><title>Node2&#45;&gt;Node3</title>
<g id="a_edge2_Node000002_Node000003"><a xlink:title=" ">
<path fill="none" stroke="#63b8ff" d="M87.6209,-76.3963C70.5781,-73.398 51.5986,-70.059 38.0958,-67.6835"/>
<polygon fill="#63b8ff" stroke="#63b8ff" points="87.4608,-79.9218 97.916,-78.2074 88.6737,-73.0276 87.4608,-79.9218"/>
</a>
</g>
</g>
<!-- Node4&#45;&gt;Node3 -->
<g id="edge4_Node000004_Node000003" class="edge"><title>Node4&#45;&gt;Node3</title>
<g id="a_edge4_Node000004_Node000003"><a xlink:title=" ">
<path fill="none" stroke="#63b8ff" d="M89.4138,-52.931C71.9893,-55.8351 52.2279,-59.1287 38.2587,-61.4569"/>
<polygon fill="#63b8ff" stroke="#63b8ff" points="90.053,-56.3729 99.3415,-51.2764 88.9022,-49.4681 90.053,-56.3729"/>
</a>
</g>
</g>
</g>
</svg>
