<?xml version="1.0" encoding="UTF-8" standalone="no"?>
<!DOCTYPE svg PUBLIC "-//W3C//DTD SVG 1.1//EN"
 "http://www.w3.org/Graphics/SVG/1.1/DTD/svg11.dtd">
<!-- Generated by graphviz version 2.38.0 (20140413.2041)
 -->
<!-- Title: main.c Pages: 1 -->
<svg width="523pt" height="258pt"
 viewBox="0.00 0.00 522.99 258.00" xmlns="http://www.w3.org/2000/svg" xmlns:xlink="http://www.w3.org/1999/xlink">
<g id="graph0" class="graph" transform="scale(1 1) rotate(0) translate(4 254)">
<title>main.c</title>
<!-- Node1 -->
<g id="Node000001" class="node"><title>Node1</title>
<g id="a_Node000001"><a xlink:title="Hlavní program testující API účinnějších metod třídění">
<polygon fill="#999999" stroke="#666666" points="314.49,-250 268.49,-250 268.49,-231 314.49,-231 314.49,-250"/>
<text text-anchor="middle" x="291.49" y="-238" font-family="Helvetica,sans-Serif" font-size="10.00">main.c</text>
</a>
</g>
</g>
<!-- Node2 -->
<g id="Node000002" class="node"><title>Node2</title>
<g id="a_Node000002"><a xlink:title=" ">
<polygon fill="#e0e0e0" stroke="#999999" points="77.4898,-19 31.4898,-19 31.4898,-0 77.4898,-0 77.4898,-19"/>
<text text-anchor="middle" x="54.4898" y="-7" font-family="Helvetica,sans-Serif" font-size="10.00">stdio.h</text>
</a>
</g>
</g>
<!-- Node1&#45;&gt;Node2 -->
<g id="edge1_Node000001_Node000002" class="edge"><title>Node1&#45;&gt;Node2</title>
<g id="a_edge1_Node000001_Node000002"><a xlink:title=" ">
<path fill="none" stroke="#63b8ff" d="M268.335,-239.403C208.242,-238.612 49.7314,-232.9 17.4898,-195 -24.1104,-146.099 19.9645,-63.5485 42.6899,-27.8303"/>
<polygon fill="#63b8ff" stroke="#63b8ff" points="45.8823,-29.345 48.4445,-19.0647 40.0306,-25.5034 45.8823,-29.345"/>
</a>
</g>
</g>
<!-- Node3 -->
<g id="Node000003" class="node"><title>Node3</title>
<g id="a_Node000003"><a xlink:title=" ">
<polygon fill="#e0e0e0" stroke="#999999" points="466.49,-129 422.49,-129 422.49,-110 466.49,-110 466.49,-129"/>
<text text-anchor="middle" x="444.49" y="-117" font-family="Helvetica,sans-Serif" font-size="10.00">time.h</text>
</a>
</g>
</g>
<!-- Node1&#45;&gt;Node3 -->
<g id="edge2_Node000001_Node000003" class="edge"><title>Node1&#45;&gt;Node3</title>
<g id="a_edge2_Node000001_Node000003"><a xlink:title=" ">
<path fill="none" stroke="#63b8ff" d="M314.204,-230.882C332.843,-223.162 359.35,-210.656 379.49,-195 400.787,-178.444 420.432,-154.139 432.427,-137.838"/>
<polygon fill="#63b8ff" stroke="#63b8ff" points="435.578,-139.451 438.56,-129.285 429.889,-135.372 435.578,-139.451"/>
</a>
</g>
</g>
<!-- Node4 -->
<g id="Node000004" class="node"><title>Node4</title>
<g id="a_Node000004"><a xlink:href="basic__sorts_8h.html" target="_top" xlink:title="Deklarace API přímých metod třídění">
<polygon fill="white" stroke="#666666" points="226.99,-189.5 151.99,-189.5 151.99,-170.5 226.99,-170.5 226.99,-189.5"/>
<text text-anchor="middle" x="189.49" y="-177.5" font-family="Helvetica,sans-Serif" font-size="10.00">basic_sorts.h</text>
</a>
</g>
</g>
<!-- Node1&#45;&gt;Node4 -->
<g id="edge3_Node000001_Node000004" class="edge"><title>Node1&#45;&gt;Node4</title>
<g id="a_edge3_Node000001_Node000004"><a xlink:title=" ">
<path fill="none" stroke="#63b8ff" d="M276.439,-230.868C259.866,-221.363 232.989,-205.948 213.499,-194.77"/>
<polygon fill="#63b8ff" stroke="#63b8ff" points="215.018,-191.606 204.602,-189.667 211.535,-197.679 215.018,-191.606"/>
</a>
</g>
</g>
<!-- Node11 -->
<g id="Node000011" class="node"><title>Node11</title>
<g id="a_Node000011"><a xlink:title=" ">
<polygon fill="#e0e0e0" stroke="#999999" points="390.99,-19 339.99,-19 339.99,-0 390.99,-0 390.99,-19"/>
<text text-anchor="middle" x="365.49" y="-7" font-family="Helvetica,sans-Serif" font-size="10.00">check.h</text>
</a>
</g>
</g>
<!-- Node1&#45;&gt;Node11 -->
<g id="edge21_Node000001_Node000011" class="edge"><title>Node1&#45;&gt;Node11</title>
<g id="a_edge21_Node000001_Node000011"><a xlink:title=" ">
<path fill="none" stroke="#63b8ff" d="M307.973,-230.956C320.8,-223.359 337.829,-210.983 346.49,-195 375.847,-140.821 371.931,-64.5445 368.082,-29.4825"/>
<polygon fill="#63b8ff" stroke="#63b8ff" points="371.52,-28.7624 366.827,-19.2634 364.572,-29.6154 371.52,-28.7624"/>
</a>
</g>
</g>
<!-- Node12 -->
<g id="Node000012" class="node"><title>Node12</title>
<g id="a_Node000012"><a xlink:href="advanced__sorts_8h.html" target="_top" xlink:title="Deklarace API účinnějších metod třídění">
<polygon fill="white" stroke="#666666" points="337.49,-189.5 245.49,-189.5 245.49,-170.5 337.49,-170.5 337.49,-189.5"/>
<text text-anchor="middle" x="291.49" y="-177.5" font-family="Helvetica,sans-Serif" font-size="10.00">advanced_sorts.h</text>
</a>
</g>
</g>
<!-- Node1&#45;&gt;Node12 -->
<g id="edge15_Node000001_Node000012" class="edge"><title>Node1&#45;&gt;Node12</title>
<g id="a_edge15_Node000001_Node000012"><a xlink:title=" ">
<path fill="none" stroke="#63b8ff" d="M291.49,-230.868C291.49,-222.746 291.49,-210.307 291.49,-199.885"/>
<polygon fill="#63b8ff" stroke="#63b8ff" points="294.99,-199.667 291.49,-189.667 287.99,-199.667 294.99,-199.667"/>
</a>
</g>
</g>
<!-- Node13 -->
<g id="Node000013" class="node"><title>Node13</title>
<g id="a_Node000013"><a xlink:href="advanced__sorts__with__span_8h.html" target="_top" xlink:title="Deklarace API účinnějších metod třídění využívající typ Span.">
<polygon fill="white" stroke="#666666" points="133.99,-195 26.9898,-195 26.9898,-165 133.99,-165 133.99,-195"/>
<text text-anchor="start" x="34.9898" y="-183" font-family="Helvetica,sans-Serif" font-size="10.00">advanced_sorts_with</text>
<text text-anchor="middle" x="80.4898" y="-172" font-family="Helvetica,sans-Serif" font-size="10.00">_span.h</text>
</a>
</g>
</g>
<!-- Node1&#45;&gt;Node13 -->
<g id="edge17_Node000001_Node000013" class="edge"><title>Node1&#45;&gt;Node13</title>
<g id="a_edge17_Node000001_Node000013"><a xlink:title=" ">
<path fill="none" stroke="#63b8ff" d="M268.103,-233.016C237.642,-224.571 183.282,-209.499 140.89,-197.746"/>
<polygon fill="#63b8ff" stroke="#63b8ff" points="141.79,-194.364 131.218,-195.065 139.92,-201.109 141.79,-194.364"/>
</a>
</g>
</g>
<!-- Node14 -->
<g id="Node000014" class="node"><title>Node14</title>
<g id="a_Node000014"><a xlink:href="main__support_8h.html" target="_top" xlink:title="Soubor pro multiplatformní podporu programu v různých OS.">
<polygon fill="white" stroke="#666666" points="514.99,-189.5 431.99,-189.5 431.99,-170.5 514.99,-170.5 514.99,-189.5"/>
<text text-anchor="middle" x="473.49" y="-177.5" font-family="Helvetica,sans-Serif" font-size="10.00">main_support.h</text>
</a>
</g>
</g>
<!-- Node1&#45;&gt;Node14 -->
<g id="edge19_Node000001_Node000014" class="edge"><title>Node1&#45;&gt;Node14</title>
<g id="a_edge19_Node000001_Node000014"><a xlink:title=" ">
<path fill="none" stroke="#63b8ff" d="M314.54,-232.091C345.404,-222.171 400.494,-204.463 437.019,-192.723"/>
<polygon fill="#63b8ff" stroke="#63b8ff" points="438.343,-195.974 446.792,-189.581 436.201,-189.309 438.343,-195.974"/>
</a>
</g>
</g>
<!-- Node5 -->
<g id="Node000005" class="node"><title>Node5</title>
<g id="a_Node000005"><a xlink:href="_t_vector_8h.html" target="_top" xlink:title="Definice typu Sortable Vector with shareable sortstats.">
<polygon fill="white" stroke="#666666" points="204.99,-129 145.99,-129 145.99,-110 204.99,-110 204.99,-129"/>
<text text-anchor="middle" x="175.49" y="-117" font-family="Helvetica,sans-Serif" font-size="10.00">TVector.h</text>
</a>
</g>
</g>
<!-- Node4&#45;&gt;Node5 -->
<g id="edge4_Node000004_Node000005" class="edge"><title>Node4&#45;&gt;Node5</title>
<g id="a_edge4_Node000004_Node000005"><a xlink:title=" ">
<path fill="none" stroke="#63b8ff" d="M187.424,-170.368C185.46,-162.159 182.44,-149.542 179.93,-139.053"/>
<polygon fill="#63b8ff" stroke="#63b8ff" points="183.295,-138.078 177.564,-129.167 176.488,-139.707 183.295,-138.078"/>
</a>
</g>
</g>
<!-- Node5&#45;&gt;Node2 -->
<g id="edge5_Node000005_Node000002" class="edge"><title>Node5&#45;&gt;Node2</title>
<g id="a_edge5_Node000005_Node000002"><a xlink:title=" ">
<path fill="none" stroke="#63b8ff" d="M145.538,-112.606C122.742,-106.617 92.1968,-95.1119 73.4898,-74 62.6387,-61.754 57.9801,-43.5221 55.9826,-29.7315"/>
<polygon fill="#63b8ff" stroke="#63b8ff" points="59.4213,-28.9803 54.853,-19.4209 52.463,-29.7426 59.4213,-28.9803"/>
</a>
</g>
</g>
<!-- Node6 -->
<g id="Node000006" class="node"><title>Node6</title>
<g id="a_Node000006"><a xlink:title=" ">
<polygon fill="#e0e0e0" stroke="#999999" points="185.49,-19 129.49,-19 129.49,-0 185.49,-0 185.49,-19"/>
<text text-anchor="middle" x="157.49" y="-7" font-family="Helvetica,sans-Serif" font-size="10.00">stdbool.h</text>
</a>
</g>
</g>
<!-- Node5&#45;&gt;Node6 -->
<g id="edge6_Node000005_Node000006" class="edge"><title>Node5&#45;&gt;Node6</title>
<g id="a_edge6_Node000005_Node000006"><a xlink:title=" ">
<path fill="none" stroke="#63b8ff" d="M174.017,-109.662C171.102,-92.1713 164.541,-52.8048 160.619,-29.2731"/>
<polygon fill="#63b8ff" stroke="#63b8ff" points="164.029,-28.4469 158.933,-19.1584 157.125,-29.5977 164.029,-28.4469"/>
</a>
</g>
</g>
<!-- Node7 -->
<g id="Node000007" class="node"><title>Node7</title>
<g id="a_Node000007"><a xlink:title=" ">
<polygon fill="#e0e0e0" stroke="#999999" points="133.99,-74 82.9898,-74 82.9898,-55 133.99,-55 133.99,-74"/>
<text text-anchor="middle" x="108.49" y="-62" font-family="Helvetica,sans-Serif" font-size="10.00">stddef.h</text>
</a>
</g>
</g>
<!-- Node5&#45;&gt;Node7 -->
<g id="edge7_Node000005_Node000007" class="edge"><title>Node5&#45;&gt;Node7</title>
<g id="a_edge7_Node000005_Node000007"><a xlink:title=" ">
<path fill="none" stroke="#63b8ff" d="M164.725,-109.985C154.724,-102.073 139.603,-90.1121 127.559,-80.5848"/>
<polygon fill="#63b8ff" stroke="#63b8ff" points="129.465,-77.6294 119.45,-74.1703 125.122,-83.1194 129.465,-77.6294"/>
</a>
</g>
</g>
<!-- Node8 -->
<g id="Node000008" class="node"><title>Node8</title>
<g id="a_Node000008"><a xlink:href="_t_vector_element_8h.html" target="_top" xlink:title="Definice typu Basic VectorElement a implementace API.">
<polygon fill="white" stroke="#666666" points="285.99,-74 190.99,-74 190.99,-55 285.99,-55 285.99,-74"/>
<text text-anchor="middle" x="238.49" y="-62" font-family="Helvetica,sans-Serif" font-size="10.00">TVectorElement.h</text>
</a>
</g>
</g>
<!-- Node5&#45;&gt;Node8 -->
<g id="edge8_Node000005_Node000008" class="edge"><title>Node5&#45;&gt;Node8</title>
<g id="a_edge8_Node000005_Node000008"><a xlink:title=" ">
<path fill="none" stroke="#63b8ff" d="M185.612,-109.985C194.925,-102.15 208.958,-90.344 220.228,-80.863"/>
<polygon fill="#63b8ff" stroke="#63b8ff" points="222.784,-83.2863 228.184,-74.1703 218.278,-77.9297 222.784,-83.2863"/>
</a>
</g>
</g>
<!-- Node5&#45;&gt;Node11 -->
<g id="edge14_Node000005_Node000011" class="edge"><title>Node5&#45;&gt;Node11</title>
<g id="a_edge14_Node000005_Node000011"><a xlink:title=" ">
<path fill="none" stroke="#63b8ff" d="M205.238,-110.734C230.187,-103.453 266.176,-91.1173 294.49,-74 316.257,-60.8402 337.498,-40.5707 350.988,-26.4856"/>
<polygon fill="#63b8ff" stroke="#63b8ff" points="353.706,-28.7025 357.98,-19.0077 348.593,-23.9217 353.706,-28.7025"/>
</a>
</g>
</g>
<!-- Node8&#45;&gt;Node2 -->
<g id="edge9_Node000008_Node000002" class="edge"><title>Node8&#45;&gt;Node2</title>
<g id="a_edge9_Node000008_Node000002"><a xlink:title=" ">
<path fill="none" stroke="#63b8ff" d="M208.927,-54.9846C175.641,-45.3969 121.71,-29.8623 87.1892,-19.9189"/>
<polygon fill="#63b8ff" stroke="#63b8ff" points="88.1504,-16.5535 77.5723,-17.1488 86.2128,-23.28 88.1504,-16.5535"/>
</a>
</g>
</g>
<!-- Node8&#45;&gt;Node6 -->
<g id="edge11_Node000008_Node000006" class="edge"><title>Node8&#45;&gt;Node6</title>
<g id="a_edge11_Node000008_Node000006"><a xlink:title=" ">
<path fill="none" stroke="#63b8ff" d="M225.476,-54.9846C213.032,-46.8426 194.034,-34.4119 179.281,-24.7587"/>
<polygon fill="#63b8ff" stroke="#63b8ff" points="181.025,-21.7169 170.741,-19.1703 177.192,-27.5744 181.025,-21.7169"/>
</a>
</g>
</g>
<!-- Node9 -->
<g id="Node000009" class="node"><title>Node9</title>
<g id="a_Node000009"><a xlink:title=" ">
<polygon fill="#e0e0e0" stroke="#999999" points="251.49,-19 203.49,-19 203.49,-0 251.49,-0 251.49,-19"/>
<text text-anchor="middle" x="227.49" y="-7" font-family="Helvetica,sans-Serif" font-size="10.00">stdlib.h</text>
</a>
</g>
</g>
<!-- Node8&#45;&gt;Node9 -->
<g id="edge10_Node000008_Node000009" class="edge"><title>Node8&#45;&gt;Node9</title>
<g id="a_edge10_Node000008_Node000009"><a xlink:title=" ">
<path fill="none" stroke="#63b8ff" d="M236.673,-54.7481C235.232,-47.8021 233.165,-37.8451 231.357,-29.1349"/>
<polygon fill="#63b8ff" stroke="#63b8ff" points="234.732,-28.1691 229.272,-19.089 227.878,-29.5916 234.732,-28.1691"/>
</a>
</g>
</g>
<!-- Node10 -->
<g id="Node000010" class="node"><title>Node10</title>
<g id="a_Node000010"><a xlink:title=" ">
<polygon fill="#e0e0e0" stroke="#999999" points="321.49,-19 269.49,-19 269.49,-0 321.49,-0 321.49,-19"/>
<text text-anchor="middle" x="295.49" y="-7" font-family="Helvetica,sans-Serif" font-size="10.00">assert.h</text>
</a>
</g>
</g>
<!-- Node8&#45;&gt;Node10 -->
<g id="edge12_Node000008_Node000010" class="edge"><title>Node8&#45;&gt;Node10</title>
<g id="a_edge12_Node000008_Node000010"><a xlink:title=" ">
<path fill="none" stroke="#63b8ff" d="M247.648,-54.9846C255.991,-47.2267 268.522,-35.5751 278.667,-26.1425"/>
<polygon fill="#63b8ff" stroke="#63b8ff" points="281.225,-28.543 286.165,-19.1703 276.458,-23.4166 281.225,-28.543"/>
</a>
</g>
</g>
<!-- Node8&#45;&gt;Node11 -->
<g id="edge13_Node000008_Node000011" class="edge"><title>Node8&#45;&gt;Node11</title>
<g id="a_edge13_Node000008_Node000011"><a xlink:title=" ">
<path fill="none" stroke="#63b8ff" d="M258.895,-54.9846C279.509,-46.3818 311.596,-32.991 335.184,-23.1475"/>
<polygon fill="#63b8ff" stroke="#63b8ff" points="336.833,-26.2517 344.714,-19.1703 334.137,-19.7917 336.833,-26.2517"/>
</a>
</g>
</g>
<!-- Node12&#45;&gt;Node5 -->
<g id="edge16_Node000012_Node000005" class="edge"><title>Node12&#45;&gt;Node5</title>
<g id="a_edge16_Node000012_Node000005"><a xlink:title=" ">
<path fill="none" stroke="#63b8ff" d="M274.374,-170.368C255.269,-160.733 224.123,-145.026 201.892,-133.815"/>
<polygon fill="#63b8ff" stroke="#63b8ff" points="203.181,-130.545 192.676,-129.167 200.029,-136.795 203.181,-130.545"/>
</a>
</g>
</g>
<!-- Node13&#45;&gt;Node5 -->
<g id="edge18_Node000013_Node000005" class="edge"><title>Node13&#45;&gt;Node5</title>
<g id="a_edge18_Node000013_Node000005"><a xlink:title=" ">
<path fill="none" stroke="#63b8ff" d="M103.487,-164.839C118.493,-155.598 137.993,-143.59 152.915,-134.401"/>
<polygon fill="#63b8ff" stroke="#63b8ff" points="154.853,-137.318 161.533,-129.095 151.183,-131.358 154.853,-137.318"/>
</a>
</g>
</g>
<!-- Node14&#45;&gt;Node3 -->
<g id="edge20_Node000014_Node000003" class="edge"><title>Node14&#45;&gt;Node3</title>
<g id="a_edge20_Node000014_Node000003"><a xlink:title=" ">
<path fill="none" stroke="#63b8ff" d="M469.211,-170.368C465.056,-161.986 458.622,-149.009 453.36,-138.394"/>
<polygon fill="#63b8ff" stroke="#63b8ff" points="456.364,-136.572 448.786,-129.167 450.092,-139.681 456.364,-136.572"/>
</a>
</g>
</g>
</g>
</svg>
