<?xml version="1.0" encoding="UTF-8" standalone="no"?>
<!DOCTYPE svg PUBLIC "-//W3C//DTD SVG 1.1//EN"
 "http://www.w3.org/Graphics/SVG/1.1/DTD/svg11.dtd">
<!-- Generated by graphviz version 2.38.0 (20140413.2041)
 -->
<!-- Title: TVector Pages: 1 -->
<svg width="155pt" height="374pt"
 viewBox="0.00 0.00 155.00 374.00" xmlns="http://www.w3.org/2000/svg" xmlns:xlink="http://www.w3.org/1999/xlink">
<g id="graph0" class="graph" transform="scale(1 1) rotate(0) translate(4 370)">
<title>TVector</title>
<!-- Node1 -->
<g id="Node000001" class="node"><title>Node1</title>
<g id="a_Node000001"><a xlink:title="Definice typu Vector.">
<polygon fill="#999999" stroke="#666666" points="147,-87 0,-87 0,-0 147,-0 147,-87"/>
<text text-anchor="start" x="57" y="-70.5" font-family="Helvetica,sans-Serif" font-size="10.00">TVector</text>
<text text-anchor="start" x="12.5" y="-55.5" font-family="Helvetica,sans-Serif" font-size="10.00">+</text>
<text text-anchor="start" x="23.5" y="-55.5" font-family="Helvetica,sans-Serif" font-size="10.00">TVectorElement * iValues</text>
<text text-anchor="start" x="12.5" y="-40.5" font-family="Helvetica,sans-Serif" font-size="10.00">+</text>
<text text-anchor="start" x="23.5" y="-40.5" font-family="Helvetica,sans-Serif" font-size="10.00">size_t iSize</text>
<text text-anchor="start" x="12.5" y="-25.5" font-family="Helvetica,sans-Serif" font-size="10.00">+</text>
<text text-anchor="start" x="23.5" y="-25.5" font-family="Helvetica,sans-Serif" font-size="10.00">bool iStatsAttached</text>
<text text-anchor="start" x="72" y="-10.5" font-family="Helvetica,sans-Serif" font-size="10.00"> </text>
<polygon fill="#666666" stroke="#666666" points="8.5,-65.5 8.5,-65.5 139.5,-65.5 139.5,-65.5 8.5,-65.5"/>
<polygon fill="#666666" stroke="#666666" points="8.5,-20.5 8.5,-20.5 21.5,-20.5 21.5,-20.5 8.5,-20.5"/>
<polygon fill="#666666" stroke="#666666" points="21.5,-20.5 21.5,-20.5 139.5,-20.5 139.5,-20.5 21.5,-20.5"/>
<polygon fill="none" stroke="#666666" points="8,-4 8,-83 139,-83 139,-4 8,-4"/>
</a>
</g>
</g>
<!-- Node2 -->
<g id="Node000002" class="node"><title>Node2</title>
<g id="a_Node000002"><a xlink:href="group__sortable___t_vector.html#struct_t_vector_sort_stats" target="_top" xlink:title="Definice typu VectorSortStats.">
<polygon fill="white" stroke="#666666" points="124.5,-191 22.5,-191 22.5,-134 124.5,-134 124.5,-191"/>
<text text-anchor="start" x="35.5" y="-174.5" font-family="Helvetica,sans-Serif" font-size="10.00">TVectorSortStats</text>
<text text-anchor="start" x="71.5" y="-159.5" font-family="Helvetica,sans-Serif" font-size="10.00"> </text>
<text text-anchor="start" x="71.5" y="-144.5" font-family="Helvetica,sans-Serif" font-size="10.00"> </text>
<polygon fill="#666666" stroke="#666666" points="30.5,-169.5 30.5,-169.5 116.5,-169.5 116.5,-169.5 30.5,-169.5"/>
<polygon fill="#666666" stroke="#666666" points="30.5,-154.5 30.5,-154.5 116.5,-154.5 116.5,-154.5 30.5,-154.5"/>
<polygon fill="none" stroke="#666666" points="30.5,-138 30.5,-187 116.5,-187 116.5,-138 30.5,-138"/>
</a>
</g>
</g>
<!-- Node2&#45;&gt;Node1 -->
<g id="edge1_Node000001_Node000002" class="edge"><title>Node2&#45;&gt;Node1</title>
<g id="a_edge1_Node000001_Node000002"><a xlink:title=" ">
<path fill="none" stroke="#63b8ff" d="M73.5,-133.773C73.5,-123.441 73.5,-111.319 73.5,-99.3977"/>
<polygon fill="none" stroke="#63b8ff" points="73.5001,-99.1302 69.5,-93.1302 73.5,-87.1302 77.5,-93.1301 73.5001,-99.1302"/>
</a>
</g>
<text text-anchor="middle" x="91" y="-108" font-family="Helvetica,sans-Serif" font-size="10.00" fill="grey"> +iStats</text>
</g>
<!-- Node3 -->
<g id="Node000003" class="node"><title>Node3</title>
<g id="a_Node000003"><a xlink:href="group__sortable___t_vector.html#struct_t_vector_sort_stats_item" target="_top" xlink:title="Definice typu VectorSortStatItem.">
<polygon fill="white" stroke="#666666" points="135.5,-366 11.5,-366 11.5,-249 135.5,-249 135.5,-366"/>
<text text-anchor="start" x="26.5" y="-349.5" font-family="Helvetica,sans-Serif" font-size="10.00">TVectorSortStatsItem</text>
<text text-anchor="start" x="23.5" y="-334.5" font-family="Helvetica,sans-Serif" font-size="10.00">+</text>
<text text-anchor="start" x="34.5" y="-334.5" font-family="Helvetica,sans-Serif" font-size="10.00">size_t iComparisons</text>
<text text-anchor="start" x="23.5" y="-319.5" font-family="Helvetica,sans-Serif" font-size="10.00">+</text>
<text text-anchor="start" x="34.5" y="-319.5" font-family="Helvetica,sans-Serif" font-size="10.00">size_t iSwaps</text>
<text text-anchor="start" x="23.5" y="-304.5" font-family="Helvetica,sans-Serif" font-size="10.00">+</text>
<text text-anchor="start" x="34.5" y="-304.5" font-family="Helvetica,sans-Serif" font-size="10.00">size_t iMoves</text>
<text text-anchor="start" x="23.5" y="-289.5" font-family="Helvetica,sans-Serif" font-size="10.00">+</text>
<text text-anchor="start" x="34.5" y="-289.5" font-family="Helvetica,sans-Serif" font-size="10.00">size_t iGets</text>
<text text-anchor="start" x="23.5" y="-274.5" font-family="Helvetica,sans-Serif" font-size="10.00">+</text>
<text text-anchor="start" x="34.5" y="-274.5" font-family="Helvetica,sans-Serif" font-size="10.00">size_t iSets</text>
<text text-anchor="start" x="71.5" y="-259.5" font-family="Helvetica,sans-Serif" font-size="10.00"> </text>
<polygon fill="#666666" stroke="#666666" points="19.5,-344.5 19.5,-344.5 127.5,-344.5 127.5,-344.5 19.5,-344.5"/>
<polygon fill="#666666" stroke="#666666" points="19.5,-269.5 19.5,-269.5 32.5,-269.5 32.5,-269.5 19.5,-269.5"/>
<polygon fill="#666666" stroke="#666666" points="32.5,-269.5 32.5,-269.5 127.5,-269.5 127.5,-269.5 32.5,-269.5"/>
<polygon fill="none" stroke="#666666" points="19.5,-253 19.5,-362 127.5,-362 127.5,-253 19.5,-253"/>
</a>
</g>
</g>
<!-- Node3&#45;&gt;Node2 -->
<g id="edge2_Node000002_Node000003" class="edge"><title>Node3&#45;&gt;Node2</title>
<g id="a_edge2_Node000002_Node000003"><a xlink:title=" ">
<path fill="none" stroke="#63b8ff" d="M73.5,-248.749C73.5,-233.556 73.5,-217.502 73.5,-203.473"/>
<polygon fill="none" stroke="#63b8ff" points="73.5001,-203.241 69.5,-197.241 73.5,-191.241 77.5,-197.241 73.5001,-203.241"/>
</a>
</g>
<text text-anchor="middle" x="101.5" y="-223" font-family="Helvetica,sans-Serif" font-size="10.00" fill="grey"> +iByIterator</text>
<text text-anchor="middle" x="101.5" y="-212" font-family="Helvetica,sans-Serif" font-size="10.00" fill="grey">+iByPosition</text>
</g>
</g>
</svg>
