<?xml version="1.0" encoding="UTF-8" standalone="no"?>
<!DOCTYPE svg PUBLIC "-//W3C//DTD SVG 1.1//EN"
 "http://www.w3.org/Graphics/SVG/1.1/DTD/svg11.dtd">
<!-- Generated by graphviz version 2.38.0 (20140413.2041)
 -->
<!-- Title: TSpanIterator Pages: 1 -->
<svg width="155pt" height="582pt"
 viewBox="0.00 0.00 155.00 582.00" xmlns="http://www.w3.org/2000/svg" xmlns:xlink="http://www.w3.org/1999/xlink">
<g id="graph0" class="graph" transform="scale(1 1) rotate(0) translate(4 578)">
<title>TSpanIterator</title>
<!-- Node1 -->
<g id="Node000001" class="node"><title>Node1</title>
<g id="a_Node000001"><a xlink:title="Definice typu SpanIterator.">
<polygon fill="#999999" stroke="#666666" points="115.5,-57 31.5,-57 31.5,-0 115.5,-0 115.5,-57"/>
<text text-anchor="start" x="44.5" y="-40.5" font-family="Helvetica,sans-Serif" font-size="10.00">TSpanIterator</text>
<text text-anchor="start" x="71.5" y="-25.5" font-family="Helvetica,sans-Serif" font-size="10.00"> </text>
<text text-anchor="start" x="71.5" y="-10.5" font-family="Helvetica,sans-Serif" font-size="10.00"> </text>
<polygon fill="#666666" stroke="#666666" points="39.5,-35.5 39.5,-35.5 107.5,-35.5 107.5,-35.5 39.5,-35.5"/>
<polygon fill="#666666" stroke="#666666" points="39.5,-20.5 39.5,-20.5 107.5,-20.5 107.5,-20.5 39.5,-20.5"/>
<polygon fill="none" stroke="#666666" points="39.5,-4 39.5,-53 107.5,-53 107.5,-4 39.5,-4"/>
</a>
</g>
</g>
<!-- Node2 -->
<g id="Node000002" class="node"><title>Node2</title>
<g id="a_Node000002"><a xlink:href="group___t_vector_iterator.html#struct_t_vector_iterator" target="_top" xlink:title="Definice typu VectorIterator.">
<polygon fill="white" stroke="#666666" points="118.5,-161 28.5,-161 28.5,-104 118.5,-104 118.5,-161"/>
<text text-anchor="start" x="41.5" y="-144.5" font-family="Helvetica,sans-Serif" font-size="10.00">TVectorIterator</text>
<text text-anchor="start" x="42" y="-129.5" font-family="Helvetica,sans-Serif" font-size="10.00">+</text>
<text text-anchor="start" x="54.5" y="-129.5" font-family="Helvetica,sans-Serif" font-size="10.00">size_t iPos</text>
<text text-anchor="start" x="71.5" y="-114.5" font-family="Helvetica,sans-Serif" font-size="10.00"> </text>
<polygon fill="#666666" stroke="#666666" points="36.5,-139.5 36.5,-139.5 110.5,-139.5 110.5,-139.5 36.5,-139.5"/>
<polygon fill="#666666" stroke="#666666" points="36.5,-124.5 36.5,-124.5 52.5,-124.5 52.5,-124.5 36.5,-124.5"/>
<polygon fill="#666666" stroke="#666666" points="52.5,-124.5 52.5,-124.5 110.5,-124.5 110.5,-124.5 52.5,-124.5"/>
<polygon fill="none" stroke="#666666" points="36.5,-108 36.5,-157 110.5,-157 110.5,-108 36.5,-108"/>
</a>
</g>
</g>
<!-- Node2&#45;&gt;Node1 -->
<g id="edge1_Node000001_Node000002" class="edge"><title>Node2&#45;&gt;Node1</title>
<g id="a_edge1_Node000001_Node000002"><a xlink:title=" ">
<path fill="none" stroke="#63b8ff" d="M73.5,-103.897C73.5,-93.2387 73.5,-80.8394 73.5,-69.2547"/>
<polygon fill="none" stroke="#63b8ff" points="73.5001,-69.1247 69.5,-63.1248 73.5,-57.1247 77.5,-63.1247 73.5001,-69.1247"/>
</a>
</g>
<text text-anchor="middle" x="100.5" y="-78" font-family="Helvetica,sans-Serif" font-size="10.00" fill="grey"> +iVectorIter</text>
</g>
<!-- Node3 -->
<g id="Node000003" class="node"><title>Node3</title>
<g id="a_Node000003"><a xlink:href="group___t_vector.html#struct_t_vector" target="_top" xlink:title="Definice typu Vector.">
<polygon fill="white" stroke="#666666" points="147,-295 0,-295 0,-208 147,-208 147,-295"/>
<text text-anchor="start" x="57" y="-278.5" font-family="Helvetica,sans-Serif" font-size="10.00">TVector</text>
<text text-anchor="start" x="12.5" y="-263.5" font-family="Helvetica,sans-Serif" font-size="10.00">+</text>
<text text-anchor="start" x="23.5" y="-263.5" font-family="Helvetica,sans-Serif" font-size="10.00">TVectorElement * iValues</text>
<text text-anchor="start" x="12.5" y="-248.5" font-family="Helvetica,sans-Serif" font-size="10.00">+</text>
<text text-anchor="start" x="23.5" y="-248.5" font-family="Helvetica,sans-Serif" font-size="10.00">size_t iSize</text>
<text text-anchor="start" x="12.5" y="-233.5" font-family="Helvetica,sans-Serif" font-size="10.00">+</text>
<text text-anchor="start" x="23.5" y="-233.5" font-family="Helvetica,sans-Serif" font-size="10.00">bool iStatsAttached</text>
<text text-anchor="start" x="72" y="-218.5" font-family="Helvetica,sans-Serif" font-size="10.00"> </text>
<polygon fill="#666666" stroke="#666666" points="8.5,-273.5 8.5,-273.5 139.5,-273.5 139.5,-273.5 8.5,-273.5"/>
<polygon fill="#666666" stroke="#666666" points="8.5,-228.5 8.5,-228.5 21.5,-228.5 21.5,-228.5 8.5,-228.5"/>
<polygon fill="#666666" stroke="#666666" points="21.5,-228.5 21.5,-228.5 139.5,-228.5 139.5,-228.5 21.5,-228.5"/>
<polygon fill="none" stroke="#666666" points="8,-212 8,-291 139,-291 139,-212 8,-212"/>
</a>
</g>
</g>
<!-- Node3&#45;&gt;Node2 -->
<g id="edge2_Node000002_Node000003" class="edge"><title>Node3&#45;&gt;Node2</title>
<g id="a_edge2_Node000002_Node000003"><a xlink:title=" ">
<path fill="none" stroke="#63b8ff" d="M73.5,-207.929C73.5,-196.631 73.5,-184.474 73.5,-173.328"/>
<polygon fill="none" stroke="#63b8ff" points="73.5001,-173.273 69.5,-167.273 73.5,-161.273 77.5,-167.273 73.5001,-173.273"/>
</a>
</g>
<text text-anchor="middle" x="93.5" y="-182" font-family="Helvetica,sans-Serif" font-size="10.00" fill="grey"> +iVector</text>
</g>
<!-- Node4 -->
<g id="Node000004" class="node"><title>Node4</title>
<g id="a_Node000004"><a xlink:href="group__sortable___t_vector.html#struct_t_vector_sort_stats" target="_top" xlink:title="Definice typu VectorSortStats.">
<polygon fill="white" stroke="#666666" points="124.5,-399 22.5,-399 22.5,-342 124.5,-342 124.5,-399"/>
<text text-anchor="start" x="35.5" y="-382.5" font-family="Helvetica,sans-Serif" font-size="10.00">TVectorSortStats</text>
<text text-anchor="start" x="71.5" y="-367.5" font-family="Helvetica,sans-Serif" font-size="10.00"> </text>
<text text-anchor="start" x="71.5" y="-352.5" font-family="Helvetica,sans-Serif" font-size="10.00"> </text>
<polygon fill="#666666" stroke="#666666" points="30.5,-377.5 30.5,-377.5 116.5,-377.5 116.5,-377.5 30.5,-377.5"/>
<polygon fill="#666666" stroke="#666666" points="30.5,-362.5 30.5,-362.5 116.5,-362.5 116.5,-362.5 30.5,-362.5"/>
<polygon fill="none" stroke="#666666" points="30.5,-346 30.5,-395 116.5,-395 116.5,-346 30.5,-346"/>
</a>
</g>
</g>
<!-- Node4&#45;&gt;Node3 -->
<g id="edge3_Node000003_Node000004" class="edge"><title>Node4&#45;&gt;Node3</title>
<g id="a_edge3_Node000003_Node000004"><a xlink:title=" ">
<path fill="none" stroke="#63b8ff" d="M73.5,-341.773C73.5,-331.441 73.5,-319.319 73.5,-307.398"/>
<polygon fill="none" stroke="#63b8ff" points="73.5001,-307.13 69.5,-301.13 73.5,-295.13 77.5,-301.13 73.5001,-307.13"/>
</a>
</g>
<text text-anchor="middle" x="91" y="-316" font-family="Helvetica,sans-Serif" font-size="10.00" fill="grey"> +iStats</text>
</g>
<!-- Node5 -->
<g id="Node000005" class="node"><title>Node5</title>
<g id="a_Node000005"><a xlink:href="group__sortable___t_vector.html#struct_t_vector_sort_stats_item" target="_top" xlink:title="Definice typu VectorSortStatItem.">
<polygon fill="white" stroke="#666666" points="135.5,-574 11.5,-574 11.5,-457 135.5,-457 135.5,-574"/>
<text text-anchor="start" x="26.5" y="-557.5" font-family="Helvetica,sans-Serif" font-size="10.00">TVectorSortStatsItem</text>
<text text-anchor="start" x="23.5" y="-542.5" font-family="Helvetica,sans-Serif" font-size="10.00">+</text>
<text text-anchor="start" x="34.5" y="-542.5" font-family="Helvetica,sans-Serif" font-size="10.00">size_t iComparisons</text>
<text text-anchor="start" x="23.5" y="-527.5" font-family="Helvetica,sans-Serif" font-size="10.00">+</text>
<text text-anchor="start" x="34.5" y="-527.5" font-family="Helvetica,sans-Serif" font-size="10.00">size_t iSwaps</text>
<text text-anchor="start" x="23.5" y="-512.5" font-family="Helvetica,sans-Serif" font-size="10.00">+</text>
<text text-anchor="start" x="34.5" y="-512.5" font-family="Helvetica,sans-Serif" font-size="10.00">size_t iMoves</text>
<text text-anchor="start" x="23.5" y="-497.5" font-family="Helvetica,sans-Serif" font-size="10.00">+</text>
<text text-anchor="start" x="34.5" y="-497.5" font-family="Helvetica,sans-Serif" font-size="10.00">size_t iGets</text>
<text text-anchor="start" x="23.5" y="-482.5" font-family="Helvetica,sans-Serif" font-size="10.00">+</text>
<text text-anchor="start" x="34.5" y="-482.5" font-family="Helvetica,sans-Serif" font-size="10.00">size_t iSets</text>
<text text-anchor="start" x="71.5" y="-467.5" font-family="Helvetica,sans-Serif" font-size="10.00"> </text>
<polygon fill="#666666" stroke="#666666" points="19.5,-552.5 19.5,-552.5 127.5,-552.5 127.5,-552.5 19.5,-552.5"/>
<polygon fill="#666666" stroke="#666666" points="19.5,-477.5 19.5,-477.5 32.5,-477.5 32.5,-477.5 19.5,-477.5"/>
<polygon fill="#666666" stroke="#666666" points="32.5,-477.5 32.5,-477.5 127.5,-477.5 127.5,-477.5 32.5,-477.5"/>
<polygon fill="none" stroke="#666666" points="19.5,-461 19.5,-570 127.5,-570 127.5,-461 19.5,-461"/>
</a>
</g>
</g>
<!-- Node5&#45;&gt;Node4 -->
<g id="edge4_Node000004_Node000005" class="edge"><title>Node5&#45;&gt;Node4</title>
<g id="a_edge4_Node000004_Node000005"><a xlink:title=" ">
<path fill="none" stroke="#63b8ff" d="M73.5,-456.749C73.5,-441.556 73.5,-425.502 73.5,-411.473"/>
<polygon fill="none" stroke="#63b8ff" points="73.5001,-411.241 69.5,-405.241 73.5,-399.241 77.5,-405.241 73.5001,-411.241"/>
</a>
</g>
<text text-anchor="middle" x="101.5" y="-431" font-family="Helvetica,sans-Serif" font-size="10.00" fill="grey"> +iByIterator</text>
<text text-anchor="middle" x="101.5" y="-420" font-family="Helvetica,sans-Serif" font-size="10.00" fill="grey">+iByPosition</text>
</g>
</g>
</svg>
