<?xml version="1.0" encoding="UTF-8" standalone="no"?>
<!DOCTYPE svg PUBLIC "-//W3C//DTD SVG 1.1//EN"
 "http://www.w3.org/Graphics/SVG/1.1/DTD/svg11.dtd">
<!-- Generated by graphviz version 2.38.0 (20140413.2041)
 -->
<!-- Title: stack_init Pages: 1 -->
<svg width="432pt" height="84pt"
 viewBox="0.00 0.00 432.00 84.34" xmlns="http://www.w3.org/2000/svg" xmlns:xlink="http://www.w3.org/1999/xlink">
<g id="graph0" class="graph" transform="scale(1 1) rotate(0) translate(4 80.3386)">
<title>stack_init</title>
<!-- Node1 -->
<g id="Node000001" class="node"><title>Node1</title>
<g id="a_Node000001"><a xlink:title="Inicializace prázdného zásobníku.">
<polygon fill="#999999" stroke="#666666" points="424,-57 365,-57 365,-38 424,-38 424,-57"/>
<text text-anchor="middle" x="394.5" y="-45" font-family="Helvetica,sans-Serif" font-size="10.00">stack_init</text>
</a>
</g>
</g>
<!-- Node2 -->
<g id="Node000002" class="node"><title>Node2</title>
<g id="a_Node000002"><a xlink:href="group___main_program.html#ga367aadf6f2e33e86efe4a50daff32e81" target="_top" xlink:title="Testování API Stack.">
<polygon fill="white" stroke="#666666" points="215,-57 74,-57 74,-38 215,-38 215,-57"/>
<text text-anchor="middle" x="144.5" y="-45" font-family="Helvetica,sans-Serif" font-size="10.00">demo_tiskni_slova_pozpatku</text>
</a>
</g>
</g>
<!-- Node1&#45;&gt;Node2 -->
<g id="edge1_Node000001_Node000002" class="edge"><title>Node1&#45;&gt;Node2</title>
<g id="a_edge1_Node000001_Node000002"><a xlink:title=" ">
<path fill="none" stroke="#63b8ff" d="M354.119,-47.5C316.811,-47.5 259.963,-47.5 215.026,-47.5"/>
<polygon fill="#63b8ff" stroke="#63b8ff" points="354.566,-51.0001 364.566,-47.5 354.566,-44.0001 354.566,-51.0001"/>
</a>
</g>
</g>
<!-- Node3 -->
<g id="Node000003" class="node"><title>Node3</title>
<g id="a_Node000003"><a xlink:href="group___main_program.html#gae66f6b31b5ad750f1fe042a706a4e3d4" target="_top" xlink:title=" ">
<polygon fill="white" stroke="#666666" points="38,-57 0,-57 0,-38 38,-38 38,-57"/>
<text text-anchor="middle" x="19" y="-45" font-family="Helvetica,sans-Serif" font-size="10.00">main</text>
</a>
</g>
</g>
<!-- Node1&#45;&gt;Node3 -->
<g id="edge3_Node000001_Node000003" class="edge"><title>Node1&#45;&gt;Node3</title>
<g id="a_edge3_Node000001_Node000003"><a xlink:title=" ">
<path fill="none" stroke="#63b8ff" d="M354.789,-57.076C346.338,-58.8369 337.407,-60.4487 329,-61.5 216.529,-75.5647 185.884,-83.6562 74,-65.5 61.7093,-63.5055 48.4358,-59.1139 38.1244,-55.1679"/>
<polygon fill="#63b8ff" stroke="#63b8ff" points="355.774,-60.4431 364.792,-54.8818 354.275,-53.6057 355.774,-60.4431"/>
</a>
</g>
</g>
<!-- Node4 -->
<g id="Node000004" class="node"><title>Node4</title>
<g id="a_Node000004"><a xlink:href="group___t_stack.html#ga543615a4df26ed863b9e92228b69d04a" target="_top" xlink:title="Deinicializace zásobníku.">
<polygon fill="white" stroke="#666666" points="329,-19 251,-19 251,-0 329,-0 329,-19"/>
<text text-anchor="middle" x="290" y="-7" font-family="Helvetica,sans-Serif" font-size="10.00">stack_destroy</text>
</a>
</g>
</g>
<!-- Node1&#45;&gt;Node4 -->
<g id="edge4_Node000001_Node000004" class="edge"><title>Node1&#45;&gt;Node4</title>
<g id="a_edge4_Node000001_Node000004"><a xlink:title=" ">
<path fill="none" stroke="#63b8ff" d="M358.116,-34.382C344.559,-29.3561 329.359,-23.7209 316.857,-19.0859"/>
<polygon fill="#63b8ff" stroke="#63b8ff" points="357.042,-37.7165 367.635,-37.911 359.475,-31.1531 357.042,-37.7165"/>
</a>
</g>
</g>
<!-- Node2&#45;&gt;Node3 -->
<g id="edge2_Node000002_Node000003" class="edge"><title>Node2&#45;&gt;Node3</title>
<g id="a_edge2_Node000002_Node000003"><a xlink:title=" ">
<path fill="none" stroke="#63b8ff" d="M63.7922,-47.5C54.3526,-47.5 45.5262,-47.5 38.3059,-47.5"/>
<polygon fill="#63b8ff" stroke="#63b8ff" points="63.8097,-51.0001 73.8096,-47.5 63.8096,-44.0001 63.8097,-51.0001"/>
</a>
</g>
</g>
<!-- Node4&#45;&gt;Node2 -->
<g id="edge5_Node000004_Node000002" class="edge"><title>Node4&#45;&gt;Node2</title>
<g id="a_edge5_Node000004_Node000002"><a xlink:title=" ">
<path fill="none" stroke="#63b8ff" d="M243.027,-21.6742C223.184,-26.9287 200.307,-32.9866 181.7,-37.9141"/>
<polygon fill="#63b8ff" stroke="#63b8ff" points="244.018,-25.0323 252.789,-19.089 242.226,-18.2655 244.018,-25.0323"/>
</a>
</g>
</g>
<!-- Node4&#45;&gt;Node3 -->
<g id="edge6_Node000004_Node000003" class="edge"><title>Node4&#45;&gt;Node3</title>
<g id="a_edge6_Node000004_Node000003"><a xlink:title=" ">
<path fill="none" stroke="#63b8ff" d="M240.786,-10.3249C196.87,-11.8848 130.452,-16.2767 74,-28.5 61.7612,-31.15 48.4886,-35.7941 38.1646,-39.8275"/>
<polygon fill="#63b8ff" stroke="#63b8ff" points="241.015,-13.8195 250.898,-10.0018 240.791,-6.82307 241.015,-13.8195"/>
</a>
</g>
</g>
</g>
</svg>
