<?xml version="1.0" encoding="UTF-8" standalone="no"?>
<!DOCTYPE svg PUBLIC "-//W3C//DTD SVG 1.1//EN"
 "http://www.w3.org/Graphics/SVG/1.1/DTD/svg11.dtd">
<!-- Generated by graphviz version 2.38.0 (20140413.2041)
 -->
<!-- Title: stack_iterator_is_valid Pages: 1 -->
<svg width="334pt" height="46pt"
 viewBox="0.00 0.00 334.00 46.00" xmlns="http://www.w3.org/2000/svg" xmlns:xlink="http://www.w3.org/1999/xlink">
<g id="graph0" class="graph" transform="scale(1 1) rotate(0) translate(4 42)">
<title>stack_iterator_is_valid</title>
<!-- Node1 -->
<g id="Node000001" class="node"><title>Node1</title>
<g id="a_Node000001"><a xlink:title="Zjištění platnosti iterátoru.">
<polygon fill="#999999" stroke="#666666" points="326,-38 213,-38 213,-19 326,-19 326,-38"/>
<text text-anchor="middle" x="269.5" y="-26" font-family="Helvetica,sans-Serif" font-size="10.00">stack_iterator_is_valid</text>
</a>
</g>
</g>
<!-- Node2 -->
<g id="Node000002" class="node"><title>Node2</title>
<g id="a_Node000002"><a xlink:href="group___main_program.html#gae66f6b31b5ad750f1fe042a706a4e3d4" target="_top" xlink:title=" ">
<polygon fill="white" stroke="#666666" points="38,-38 0,-38 0,-19 38,-19 38,-38"/>
<text text-anchor="middle" x="19" y="-26" font-family="Helvetica,sans-Serif" font-size="10.00">main</text>
</a>
</g>
</g>
<!-- Node1&#45;&gt;Node2 -->
<g id="edge1_Node000001_Node000002" class="edge"><title>Node1&#45;&gt;Node2</title>
<g id="a_edge1_Node000001_Node000002"><a xlink:title=" ">
<path fill="none" stroke="#63b8ff" d="M202.66,-28.5C147.402,-28.5 72.1885,-28.5 38.1077,-28.5"/>
<polygon fill="#63b8ff" stroke="#63b8ff" points="202.732,-32.0001 212.732,-28.5 202.732,-25.0001 202.732,-32.0001"/>
</a>
</g>
</g>
<!-- Node3 -->
<g id="Node000003" class="node"><title>Node3</title>
<g id="a_Node000003"><a xlink:href="group___t_stack_iterator.html#ga1e006b0649df0fac42315afb488f283e" target="_top" xlink:title="Přečtení hodnoty elementu ze zásobníku pomocí iterátoru.">
<polygon fill="white" stroke="#666666" points="177,-19 74,-19 74,-0 177,-0 177,-19"/>
<text text-anchor="middle" x="125.5" y="-7" font-family="Helvetica,sans-Serif" font-size="10.00">stack_iterator_value</text>
</a>
</g>
</g>
<!-- Node1&#45;&gt;Node3 -->
<g id="edge2_Node000001_Node000003" class="edge"><title>Node1&#45;&gt;Node3</title>
<g id="a_edge2_Node000001_Node000003"><a xlink:title=" ">
<path fill="none" stroke="#63b8ff" d="M202.844,-19.7151C194.31,-18.5732 185.673,-17.4175 177.428,-16.3144"/>
<polygon fill="#63b8ff" stroke="#63b8ff" points="202.41,-23.188 212.785,-21.0452 203.338,-16.2498 202.41,-23.188"/>
</a>
</g>
</g>
<!-- Node3&#45;&gt;Node2 -->
<g id="edge3_Node000003_Node000002" class="edge"><title>Node3&#45;&gt;Node2</title>
<g id="a_edge3_Node000003_Node000002"><a xlink:title=" ">
<path fill="none" stroke="#63b8ff" d="M63.7001,-20.5545C54.4902,-22.2291 45.6446,-23.8373 38.3502,-25.1636"/>
<polygon fill="#63b8ff" stroke="#63b8ff" points="64.568,-23.9542 73.7806,-18.7217 63.3157,-17.0671 64.568,-23.9542"/>
</a>
</g>
</g>
</g>
</svg>
