<?xml version="1.0" encoding="UTF-8" standalone="no"?>
<!DOCTYPE svg PUBLIC "-//W3C//DTD SVG 1.1//EN"
 "http://www.w3.org/Graphics/SVG/1.1/DTD/svg11.dtd">
<!-- Generated by graphviz version 2.38.0 (20140413.2041)
 -->
<!-- Title: TStackIterator Pages: 1 -->
<svg width="146pt" height="184pt"
 viewBox="0.00 0.00 146.00 184.00" xmlns="http://www.w3.org/2000/svg" xmlns:xlink="http://www.w3.org/1999/xlink">
<g id="graph0" class="graph" transform="scale(1 1) rotate(0) translate(4 180)">
<title>TStackIterator</title>
<!-- Node1 -->
<g id="Node000001" class="node"><title>Node1</title>
<g id="a_Node000001"><a xlink:title="Definice typu StackIterator.">
<polygon fill="#999999" stroke="#666666" points="112.5,-57 25.5,-57 25.5,-0 112.5,-0 112.5,-57"/>
<text text-anchor="start" x="39" y="-40.5" font-family="Helvetica,sans-Serif" font-size="10.00">TStackIterator</text>
<text text-anchor="start" x="38.5" y="-25.5" font-family="Helvetica,sans-Serif" font-size="10.00">+</text>
<text text-anchor="start" x="50" y="-25.5" font-family="Helvetica,sans-Serif" font-size="10.00">size_t iPos</text>
<text text-anchor="start" x="67.5" y="-10.5" font-family="Helvetica,sans-Serif" font-size="10.00"> </text>
<polygon fill="#666666" stroke="#666666" points="34,-35.5 34,-35.5 105,-35.5 105,-35.5 34,-35.5"/>
<polygon fill="#666666" stroke="#666666" points="34,-20.5 34,-20.5 48,-20.5 48,-20.5 34,-20.5"/>
<polygon fill="#666666" stroke="#666666" points="48,-20.5 48,-20.5 105,-20.5 105,-20.5 48,-20.5"/>
<polygon fill="none" stroke="#666666" points="33.5,-4 33.5,-53 104.5,-53 104.5,-4 33.5,-4"/>
</a>
</g>
</g>
<!-- Node2 -->
<g id="Node000002" class="node"><title>Node2</title>
<g id="a_Node000002"><a xlink:href="group___t_stack.html#struct_t_stack" target="_top" xlink:title="Definice typu Stack.">
<polygon fill="white" stroke="#666666" points="138,-176 0,-176 0,-104 138,-104 138,-176"/>
<text text-anchor="start" x="53.5" y="-160" font-family="Helvetica,sans-Serif" font-size="10.00">TStack</text>
<text text-anchor="start" x="12" y="-145" font-family="Helvetica,sans-Serif" font-size="10.00">+</text>
<text text-anchor="start" x="23" y="-145" font-family="Helvetica,sans-Serif" font-size="10.00">size_t iCount</text>
<text text-anchor="start" x="12" y="-130" font-family="Helvetica,sans-Serif" font-size="10.00">+</text>
<text text-anchor="start" x="23" y="-130" font-family="Helvetica,sans-Serif" font-size="10.00">TStackElement iValues</text>
<text text-anchor="start" x="67" y="-115" font-family="Helvetica,sans-Serif" font-size="10.00"> </text>
<polygon fill="#666666" stroke="#666666" points="8,-155 8,-155 130,-155 130,-155 8,-155"/>
<polygon fill="#666666" stroke="#666666" points="8,-125 8,-125 21,-125 21,-125 8,-125"/>
<polygon fill="#666666" stroke="#666666" points="21,-125 21,-125 130,-125 130,-125 21,-125"/>
<polygon fill="none" stroke="#666666" points="8,-108 8,-172 130,-172 130,-108 8,-108"/>
</a>
</g>
</g>
<!-- Node2&#45;&gt;Node1 -->
<g id="edge1_Node000001_Node000002" class="edge"><title>Node2&#45;&gt;Node1</title>
<g id="a_edge1_Node000001_Node000002"><a xlink:title=" ">
<path fill="none" stroke="#63b8ff" d="M69,-103.751C69,-92.758 69,-80.5587 69,-69.278"/>
<polygon fill="none" stroke="#63b8ff" points="69.0001,-69.0453 65,-63.0454 69,-57.0453 73,-63.0453 69.0001,-69.0453"/>
</a>
</g>
<text text-anchor="middle" x="87.5" y="-78" font-family="Helvetica,sans-Serif" font-size="10.00" fill="grey"> +iStack</text>
</g>
</g>
</svg>
