<?xml version="1.0" encoding="UTF-8" standalone="no"?>
<!DOCTYPE svg PUBLIC "-//W3C//DTD SVG 1.1//EN"
 "http://www.w3.org/Graphics/SVG/1.1/DTD/svg11.dtd">
<!-- Generated by graphviz version 2.38.0 (20140413.2041)
 -->
<!-- Title: TStack.h Pages: 1 -->
<svg width="128pt" height="82pt"
 viewBox="0.00 0.00 128.00 82.00" xmlns="http://www.w3.org/2000/svg" xmlns:xlink="http://www.w3.org/1999/xlink">
<g id="graph0" class="graph" transform="scale(1 1) rotate(0) translate(4 78)">
<title>TStack.h</title>
<!-- Node1 -->
<g id="Node000001" class="node"><title>Node1</title>
<g id="a_Node000001"><a xlink:title="Definice typu zásobník (realizace pomocí lineárního jednosměrně vázaného seznamu)">
<polygon fill="#999999" stroke="#666666" points="90,-74 34,-74 34,-55 90,-55 90,-74"/>
<text text-anchor="middle" x="62" y="-62" font-family="Helvetica,sans-Serif" font-size="10.00">TStack.h</text>
</a>
</g>
</g>
<!-- Node2 -->
<g id="Node000002" class="node"><title>Node2</title>
<g id="a_Node000002"><a xlink:href="_t_stack_8c.html" target="_top" xlink:title="Implementace API pro typ zásobník (realizace pomocí lineárního jednosměrně vázaného seznamu)">
<polygon fill="white" stroke="#666666" points="56,-19 3.55271e-015,-19 3.55271e-015,-0 56,-0 56,-19"/>
<text text-anchor="middle" x="28" y="-7" font-family="Helvetica,sans-Serif" font-size="10.00">TStack.c</text>
</a>
</g>
</g>
<!-- Node1&#45;&gt;Node2 -->
<g id="edge1_Node000001_Node000002" class="edge"><title>Node1&#45;&gt;Node2</title>
<g id="a_edge1_Node000001_Node000002"><a xlink:title=" ">
<path fill="none" stroke="#63b8ff" d="M50.8396,-46.103C45.0286,-37.0446 38.1813,-26.3709 33.5099,-19.089"/>
<polygon fill="#63b8ff" stroke="#63b8ff" points="48.0401,-48.221 56.3856,-54.7481 53.9319,-44.4413 48.0401,-48.221"/>
</a>
</g>
</g>
<!-- Node3 -->
<g id="Node000003" class="node"><title>Node3</title>
<g id="a_Node000003"><a xlink:href="main_8c.html" target="_top" xlink:title="Hlavní program pro testování ADT TStack.">
<polygon fill="white" stroke="#666666" points="120,-19 74,-19 74,-0 120,-0 120,-19"/>
<text text-anchor="middle" x="97" y="-7" font-family="Helvetica,sans-Serif" font-size="10.00">main.c</text>
</a>
</g>
</g>
<!-- Node1&#45;&gt;Node3 -->
<g id="edge2_Node000001_Node000003" class="edge"><title>Node1&#45;&gt;Node3</title>
<g id="a_edge2_Node000001_Node000003"><a xlink:title=" ">
<path fill="none" stroke="#63b8ff" d="M73.3001,-46.3885C79.3219,-37.2697 86.4686,-26.4475 91.328,-19.089"/>
<polygon fill="#63b8ff" stroke="#63b8ff" points="70.3696,-44.4747 67.7795,-54.7481 76.2108,-48.3322 70.3696,-44.4747"/>
</a>
</g>
</g>
</g>
</svg>
