<?xml version="1.0" encoding="UTF-8" standalone="no"?>
<!DOCTYPE svg PUBLIC "-//W3C//DTD SVG 1.1//EN"
 "http://www.w3.org/Graphics/SVG/1.1/DTD/svg11.dtd">
<!-- Generated by graphviz version 2.38.0 (20140413.2041)
 -->
<!-- Title: TStack.c Pages: 1 -->
<svg width="200pt" height="137pt"
 viewBox="0.00 0.00 199.50 137.00" xmlns="http://www.w3.org/2000/svg" xmlns:xlink="http://www.w3.org/1999/xlink">
<g id="graph0" class="graph" transform="scale(1 1) rotate(0) translate(4 133)">
<title>TStack.c</title>
<!-- Node1 -->
<g id="Node000001" class="node"><title>Node1</title>
<g id="a_Node000001"><a xlink:title="Implementace API pro typ zásobník (realizace pomocí lineárního jednosměrně vázaného seznamu)">
<polygon fill="#999999" stroke="#666666" points="126,-129 70,-129 70,-110 126,-110 126,-129"/>
<text text-anchor="middle" x="98" y="-117" font-family="Helvetica,sans-Serif" font-size="10.00">TStack.c</text>
</a>
</g>
</g>
<!-- Node2 -->
<g id="Node000002" class="node"><title>Node2</title>
<g id="a_Node000002"><a xlink:href="_t_stack_8h.html" target="_top" xlink:title="Definice typu zásobník (realizace pomocí lineárního jednosměrně vázaného seznamu)">
<polygon fill="white" stroke="#666666" points="126,-74 70,-74 70,-55 126,-55 126,-74"/>
<text text-anchor="middle" x="98" y="-62" font-family="Helvetica,sans-Serif" font-size="10.00">TStack.h</text>
</a>
</g>
</g>
<!-- Node1&#45;&gt;Node2 -->
<g id="edge1_Node000001_Node000002" class="edge"><title>Node1&#45;&gt;Node2</title>
<g id="a_edge1_Node000001_Node000002"><a xlink:title=" ">
<path fill="none" stroke="#63b8ff" d="M98,-109.748C98,-102.802 98,-92.8451 98,-84.1349"/>
<polygon fill="#63b8ff" stroke="#63b8ff" points="101.5,-84.089 98,-74.089 94.5001,-84.0891 101.5,-84.089"/>
</a>
</g>
</g>
<!-- Node3 -->
<g id="Node000003" class="node"><title>Node3</title>
<g id="a_Node000003"><a xlink:title=" ">
<polygon fill="#e0e0e0" stroke="#999999" points="56,-19 3.55271e-015,-19 3.55271e-015,-0 56,-0 56,-19"/>
<text text-anchor="middle" x="28" y="-7" font-family="Helvetica,sans-Serif" font-size="10.00">stdbool.h</text>
</a>
</g>
</g>
<!-- Node2&#45;&gt;Node3 -->
<g id="edge2_Node000002_Node000003" class="edge"><title>Node2&#45;&gt;Node3</title>
<g id="a_edge2_Node000002_Node000003"><a xlink:title=" ">
<path fill="none" stroke="#63b8ff" d="M86.7533,-54.9846C76.2026,-46.9963 60.1993,-34.8795 47.5578,-25.308"/>
<polygon fill="#63b8ff" stroke="#63b8ff" points="49.5367,-22.4163 39.4513,-19.1703 45.3112,-27.9971 49.5367,-22.4163"/>
</a>
</g>
</g>
<!-- Node4 -->
<g id="Node000004" class="node"><title>Node4</title>
<g id="a_Node000004"><a xlink:title=" ">
<polygon fill="#e0e0e0" stroke="#999999" points="122,-19 74,-19 74,-0 122,-0 122,-19"/>
<text text-anchor="middle" x="98" y="-7" font-family="Helvetica,sans-Serif" font-size="10.00">stdlib.h</text>
</a>
</g>
</g>
<!-- Node2&#45;&gt;Node4 -->
<g id="edge3_Node000002_Node000004" class="edge"><title>Node2&#45;&gt;Node4</title>
<g id="a_edge3_Node000002_Node000004"><a xlink:title=" ">
<path fill="none" stroke="#63b8ff" d="M98,-54.7481C98,-47.8021 98,-37.8451 98,-29.1349"/>
<polygon fill="#63b8ff" stroke="#63b8ff" points="101.5,-29.089 98,-19.089 94.5001,-29.0891 101.5,-29.089"/>
</a>
</g>
</g>
<!-- Node5 -->
<g id="Node000005" class="node"><title>Node5</title>
<g id="a_Node000005"><a xlink:title=" ">
<polygon fill="#e0e0e0" stroke="#999999" points="191.5,-19 140.5,-19 140.5,-0 191.5,-0 191.5,-19"/>
<text text-anchor="middle" x="166" y="-7" font-family="Helvetica,sans-Serif" font-size="10.00">check.h</text>
</a>
</g>
</g>
<!-- Node2&#45;&gt;Node5 -->
<g id="edge4_Node000002_Node000005" class="edge"><title>Node2&#45;&gt;Node5</title>
<g id="a_edge4_Node000002_Node000005"><a xlink:title=" ">
<path fill="none" stroke="#63b8ff" d="M108.925,-54.9846C119.076,-47.0731 134.422,-35.1121 146.646,-25.5848"/>
<polygon fill="#63b8ff" stroke="#63b8ff" points="149.14,-28.0783 154.876,-19.1703 144.837,-22.5572 149.14,-28.0783"/>
</a>
</g>
</g>
</g>
</svg>
