<?xml version="1.0" encoding="UTF-8" standalone="no"?>
<!DOCTYPE svg PUBLIC "-//W3C//DTD SVG 1.1//EN"
 "http://www.w3.org/Graphics/SVG/1.1/DTD/svg11.dtd">
<!-- Generated by graphviz version 2.38.0 (20140413.2041)
 -->
<!-- Title: stack_top Pages: 1 -->
<svg width="318pt" height="46pt"
 viewBox="0.00 0.00 318.00 46.00" xmlns="http://www.w3.org/2000/svg" xmlns:xlink="http://www.w3.org/1999/xlink">
<g id="graph0" class="graph" transform="scale(1 1) rotate(0) translate(4 42)">
<title>stack_top</title>
<!-- Node1 -->
<g id="Node000001" class="node"><title>Node1</title>
<g id="a_Node000001"><a xlink:title="Získání hodnoty elementu na vrcholu zásobníku.">
<polygon fill="#999999" stroke="#666666" points="310,-19 251,-19 251,-0 310,-0 310,-19"/>
<text text-anchor="middle" x="280.5" y="-7" font-family="Helvetica,sans-Serif" font-size="10.00">stack_top</text>
</a>
</g>
</g>
<!-- Node2 -->
<g id="Node000002" class="node"><title>Node2</title>
<g id="a_Node000002"><a xlink:href="group___main_program.html#ga367aadf6f2e33e86efe4a50daff32e81" target="_top" xlink:title="Testování API Stack.">
<polygon fill="white" stroke="#666666" points="215,-38 74,-38 74,-19 215,-19 215,-38"/>
<text text-anchor="middle" x="144.5" y="-26" font-family="Helvetica,sans-Serif" font-size="10.00">demo_tiskni_slova_pozpatku</text>
</a>
</g>
</g>
<!-- Node1&#45;&gt;Node2 -->
<g id="edge1_Node000001_Node000002" class="edge"><title>Node1&#45;&gt;Node2</title>
<g id="a_edge1_Node000001_Node000002"><a xlink:title=" ">
<path fill="none" stroke="#63b8ff" d="M240.817,-14.985C231.997,-16.2355 222.375,-17.5998 212.747,-18.965"/>
<polygon fill="#63b8ff" stroke="#63b8ff" points="241.344,-18.4453 250.754,-13.576 240.361,-11.5146 241.344,-18.4453"/>
</a>
</g>
</g>
<!-- Node3 -->
<g id="Node000003" class="node"><title>Node3</title>
<g id="a_Node000003"><a xlink:href="group___main_program.html#gae66f6b31b5ad750f1fe042a706a4e3d4" target="_top" xlink:title=" ">
<polygon fill="white" stroke="#666666" points="38,-19 0,-19 0,-0 38,-0 38,-19"/>
<text text-anchor="middle" x="19" y="-7" font-family="Helvetica,sans-Serif" font-size="10.00">main</text>
</a>
</g>
</g>
<!-- Node1&#45;&gt;Node3 -->
<g id="edge3_Node000001_Node000003" class="edge"><title>Node1&#45;&gt;Node3</title>
<g id="a_edge3_Node000001_Node000003"><a xlink:title=" ">
<path fill="none" stroke="#63b8ff" d="M240.674,-9.5C183.714,-9.5 79.7478,-9.5 38.0287,-9.5"/>
<polygon fill="#63b8ff" stroke="#63b8ff" points="240.737,-13.0001 250.737,-9.5 240.737,-6.0001 240.737,-13.0001"/>
</a>
</g>
</g>
<!-- Node2&#45;&gt;Node3 -->
<g id="edge2_Node000002_Node000003" class="edge"><title>Node2&#45;&gt;Node3</title>
<g id="a_edge2_Node000002_Node000003"><a xlink:title=" ">
<path fill="none" stroke="#63b8ff" d="M71.3969,-17.4072C59.0418,-15.5064 47.2559,-13.6932 38.0944,-12.2837"/>
<polygon fill="#63b8ff" stroke="#63b8ff" points="70.9722,-20.883 81.3882,-18.9443 72.0367,-13.9644 70.9722,-20.883"/>
</a>
</g>
</g>
</g>
</svg>
