<?xml version="1.0" encoding="UTF-8" standalone="no"?>
<!DOCTYPE svg PUBLIC "-//W3C//DTD SVG 1.1//EN"
 "http://www.w3.org/Graphics/SVG/1.1/DTD/svg11.dtd">
<!-- Generated by graphviz version 2.38.0 (20140413.2041)
 -->
<!-- Title: stack_is_empty Pages: 1 -->
<svg width="443pt" height="117pt"
 viewBox="0.00 0.00 443.00 116.55" xmlns="http://www.w3.org/2000/svg" xmlns:xlink="http://www.w3.org/1999/xlink">
<g id="graph0" class="graph" transform="scale(1 1) rotate(0) translate(4 112.547)">
<title>stack_is_empty</title>
<!-- Node1 -->
<g id="Node000001" class="node"><title>Node1</title>
<g id="a_Node000001"><a xlink:title="Zjištění, zda je zásobník prázdný">
<polygon fill="#999999" stroke="#666666" points="435,-76 349,-76 349,-57 435,-57 435,-76"/>
<text text-anchor="middle" x="392" y="-64" font-family="Helvetica,sans-Serif" font-size="10.00">stack_is_empty</text>
</a>
</g>
</g>
<!-- Node2 -->
<g id="Node000002" class="node"><title>Node2</title>
<g id="a_Node000002"><a xlink:href="group___main_program.html#ga367aadf6f2e33e86efe4a50daff32e81" target="_top" xlink:title="Testování API Stack.">
<polygon fill="white" stroke="#666666" points="215,-57 74,-57 74,-38 215,-38 215,-57"/>
<text text-anchor="middle" x="144.5" y="-45" font-family="Helvetica,sans-Serif" font-size="10.00">demo_tiskni_slova_pozpatku</text>
</a>
</g>
</g>
<!-- Node1&#45;&gt;Node2 -->
<g id="edge1_Node000001_Node000002" class="edge"><title>Node1&#45;&gt;Node2</title>
<g id="a_edge1_Node000001_Node000002"><a xlink:title=" ">
<path fill="none" stroke="#63b8ff" d="M338.537,-62.4397C302.628,-59.6606 254.615,-55.9447 215.456,-52.9141"/>
<polygon fill="#63b8ff" stroke="#63b8ff" points="338.557,-65.9516 348.797,-63.2338 339.097,-58.9725 338.557,-65.9516"/>
</a>
</g>
</g>
<!-- Node3 -->
<g id="Node000003" class="node"><title>Node3</title>
<g id="a_Node000003"><a xlink:href="group___main_program.html#gae66f6b31b5ad750f1fe042a706a4e3d4" target="_top" xlink:title=" ">
<polygon fill="white" stroke="#666666" points="38,-76 0,-76 0,-57 38,-57 38,-76"/>
<text text-anchor="middle" x="19" y="-64" font-family="Helvetica,sans-Serif" font-size="10.00">main</text>
</a>
</g>
</g>
<!-- Node1&#45;&gt;Node3 -->
<g id="edge3_Node000001_Node000003" class="edge"><title>Node1&#45;&gt;Node3</title>
<g id="a_edge3_Node000001_Node000003"><a xlink:title=" ">
<path fill="none" stroke="#63b8ff" d="M366.876,-81.3739C351.957,-89.683 332.071,-99.206 313,-103.5 262.172,-114.944 127.45,-103.907 74,-90.5 61.2628,-87.305 47.7628,-81.305 37.4471,-76.1037"/>
<polygon fill="#63b8ff" stroke="#63b8ff" points="368.998,-84.1902 375.904,-76.1561 365.495,-78.1295 368.998,-84.1902"/>
</a>
</g>
</g>
<!-- Node4 -->
<g id="Node000004" class="node"><title>Node4</title>
<g id="a_Node000004"><a xlink:href="group___t_stack.html#ga480af197cbd84970291358c870ec9b90" target="_top" xlink:title="Odstranění elementu na vrcholu zásobníku.">
<polygon fill="white" stroke="#666666" points="313,-95 251,-95 251,-76 313,-76 313,-95"/>
<text text-anchor="middle" x="282" y="-83" font-family="Helvetica,sans-Serif" font-size="10.00">stack_pop</text>
</a>
</g>
</g>
<!-- Node1&#45;&gt;Node4 -->
<g id="edge4_Node000001_Node000004" class="edge"><title>Node1&#45;&gt;Node4</title>
<g id="a_edge4_Node000001_Node000004"><a xlink:title=" ">
<path fill="none" stroke="#63b8ff" d="M338.988,-75.6503C330.105,-77.2131 321.15,-78.7885 313.086,-80.207"/>
<polygon fill="#63b8ff" stroke="#63b8ff" points="339.693,-79.0801 348.935,-73.9003 338.48,-72.186 339.693,-79.0801"/>
</a>
</g>
</g>
<!-- Node5 -->
<g id="Node000005" class="node"><title>Node5</title>
<g id="a_Node000005"><a xlink:href="group___t_stack.html#gac84fd2f3c38113a7d9d4cf5123b581f3" target="_top" xlink:title="Získání hodnoty elementu na vrcholu zásobníku.">
<polygon fill="white" stroke="#666666" points="311.5,-19 252.5,-19 252.5,-0 311.5,-0 311.5,-19"/>
<text text-anchor="middle" x="282" y="-7" font-family="Helvetica,sans-Serif" font-size="10.00">stack_top</text>
</a>
</g>
</g>
<!-- Node1&#45;&gt;Node5 -->
<g id="edge7_Node000001_Node000005" class="edge"><title>Node1&#45;&gt;Node5</title>
<g id="a_edge7_Node000001_Node000005"><a xlink:title=" ">
<path fill="none" stroke="#63b8ff" d="M363.616,-52.0475C343.997,-41.6931 318.128,-28.04 301.05,-19.0265"/>
<polygon fill="#63b8ff" stroke="#63b8ff" points="362.202,-55.2584 372.679,-56.8307 365.469,-49.0677 362.202,-55.2584"/>
</a>
</g>
</g>
<!-- Node2&#45;&gt;Node3 -->
<g id="edge2_Node000002_Node000003" class="edge"><title>Node2&#45;&gt;Node3</title>
<g id="a_edge2_Node000002_Node000003"><a xlink:title=" ">
<path fill="none" stroke="#63b8ff" d="M71.3969,-58.5928C59.0418,-60.4936 47.2559,-62.3068 38.0944,-63.7163"/>
<polygon fill="#63b8ff" stroke="#63b8ff" points="72.0367,-62.0356 81.3882,-57.0557 70.9722,-55.117 72.0367,-62.0356"/>
</a>
</g>
</g>
<!-- Node4&#45;&gt;Node2 -->
<g id="edge5_Node000004_Node000002" class="edge"><title>Node4&#45;&gt;Node2</title>
<g id="a_edge5_Node000004_Node000002"><a xlink:title=" ">
<path fill="none" stroke="#63b8ff" d="M241.127,-74.3179C221.652,-68.8564 198.455,-62.3509 179.785,-57.1151"/>
<polygon fill="#63b8ff" stroke="#63b8ff" points="240.355,-77.7362 250.928,-77.0666 242.245,-70.9963 240.355,-77.7362"/>
</a>
</g>
</g>
<!-- Node4&#45;&gt;Node3 -->
<g id="edge6_Node000004_Node000003" class="edge"><title>Node4&#45;&gt;Node3</title>
<g id="a_edge6_Node000004_Node000003"><a xlink:title=" ">
<path fill="none" stroke="#63b8ff" d="M240.623,-82.5607C183.113,-78.3741 79.9627,-70.8651 38.2489,-67.8285"/>
<polygon fill="#63b8ff" stroke="#63b8ff" points="240.577,-86.0665 250.805,-83.3019 241.086,-79.085 240.577,-86.0665"/>
</a>
</g>
</g>
<!-- Node5&#45;&gt;Node2 -->
<g id="edge8_Node000005_Node000002" class="edge"><title>Node5&#45;&gt;Node2</title>
<g id="a_edge8_Node000005_Node000002"><a xlink:title=" ">
<path fill="none" stroke="#63b8ff" d="M242.59,-20.2719C222.711,-25.8467 198.656,-32.5928 179.463,-37.9754"/>
<polygon fill="#63b8ff" stroke="#63b8ff" points="243.581,-23.6291 252.264,-17.5588 241.69,-16.8892 243.581,-23.6291"/>
</a>
</g>
</g>
<!-- Node5&#45;&gt;Node3 -->
<g id="edge9_Node000005_Node000003" class="edge"><title>Node5&#45;&gt;Node3</title>
<g id="a_edge9_Node000005_Node000003"><a xlink:title=" ">
<path fill="none" stroke="#63b8ff" d="M241.967,-7.19563C199.348,-6.00742 129.737,-8.00476 74,-28.5 57.0004,-34.751 40.415,-47.7609 30.208,-56.8056"/>
<polygon fill="#63b8ff" stroke="#63b8ff" points="242.079,-10.7017 252.196,-7.55703 242.326,-3.70603 242.079,-10.7017"/>
</a>
</g>
</g>
</g>
</svg>
