<?xml version="1.0" encoding="UTF-8" standalone="no"?>
<!DOCTYPE svg PUBLIC "-//W3C//DTD SVG 1.1//EN"
 "http://www.w3.org/Graphics/SVG/1.1/DTD/svg11.dtd">
<!-- Generated by graphviz version 2.38.0 (20140413.2041)
 -->
<!-- Title: demo_tiskni_slova_pozpatku Pages: 1 -->
<svg width="385pt" height="214pt"
 viewBox="0.00 0.00 385.00 214.00" xmlns="http://www.w3.org/2000/svg" xmlns:xlink="http://www.w3.org/1999/xlink">
<g id="graph0" class="graph" transform="scale(1 1) rotate(0) translate(4 210)">
<title>demo_tiskni_slova_pozpatku</title>
<!-- Node1 -->
<g id="Node000001" class="node"><title>Node1</title>
<g id="a_Node000001"><a xlink:title="Testování API Stack.">
<polygon fill="#999999" stroke="#666666" points="141,-112 0,-112 0,-93 141,-93 141,-112"/>
<text text-anchor="middle" x="70.5" y="-100" font-family="Helvetica,sans-Serif" font-size="10.00">demo_tiskni_slova_pozpatku</text>
</a>
</g>
</g>
<!-- Node2 -->
<g id="Node000002" class="node"><title>Node2</title>
<g id="a_Node000002"><a xlink:href="group___t_stack.html#ga543615a4df26ed863b9e92228b69d04a" target="_top" xlink:title="Deinicializace zásobníku.">
<polygon fill="white" stroke="#666666" points="255,-206 177,-206 177,-187 255,-187 255,-206"/>
<text text-anchor="middle" x="216" y="-194" font-family="Helvetica,sans-Serif" font-size="10.00">stack_destroy</text>
</a>
</g>
</g>
<!-- Node1&#45;&gt;Node2 -->
<g id="edge1_Node000001_Node000002" class="edge"><title>Node1&#45;&gt;Node2</title>
<g id="a_edge1_Node000001_Node000002"><a xlink:title=" ">
<path fill="none" stroke="#63b8ff" d="M83.3538,-112.143C102.38,-127.36 141.233,-157.383 177,-178.5 179.2,-179.799 181.509,-181.079 183.856,-182.322"/>
<polygon fill="#63b8ff" stroke="#63b8ff" points="182.437,-185.526 192.944,-186.885 185.578,-179.27 182.437,-185.526"/>
</a>
</g>
</g>
<!-- Node3 -->
<g id="Node000003" class="node"><title>Node3</title>
<g id="a_Node000003"><a xlink:href="group___t_stack.html#ga22a9f4ad0c450cdbbfb7546493b1f781" target="_top" xlink:title="Inicializace prázdného zásobníku.">
<polygon fill="white" stroke="#666666" points="245.5,-169 186.5,-169 186.5,-150 245.5,-150 245.5,-169"/>
<text text-anchor="middle" x="216" y="-157" font-family="Helvetica,sans-Serif" font-size="10.00">stack_init</text>
</a>
</g>
</g>
<!-- Node1&#45;&gt;Node3 -->
<g id="edge2_Node000001_Node000003" class="edge"><title>Node1&#45;&gt;Node3</title>
<g id="a_edge2_Node000001_Node000003"><a xlink:title=" ">
<path fill="none" stroke="#63b8ff" d="M95.5187,-112.041C119.007,-121.37 154.986,-135.662 181.326,-146.124"/>
<polygon fill="#63b8ff" stroke="#63b8ff" points="180.317,-149.49 190.903,-149.928 182.901,-142.984 180.317,-149.49"/>
</a>
</g>
</g>
<!-- Node4 -->
<g id="Node000004" class="node"><title>Node4</title>
<g id="a_Node000004"><a xlink:href="group___t_stack.html#gab2a53c66f9bb439a8749c97f9c9d9f2d" target="_top" xlink:title="Zjištění, zda je zásobník prázdný">
<polygon fill="white" stroke="#666666" points="377,-93 291,-93 291,-74 377,-74 377,-93"/>
<text text-anchor="middle" x="334" y="-81" font-family="Helvetica,sans-Serif" font-size="10.00">stack_is_empty</text>
</a>
</g>
</g>
<!-- Node1&#45;&gt;Node4 -->
<g id="edge3_Node000001_Node000004" class="edge"><title>Node1&#45;&gt;Node4</title>
<g id="a_edge3_Node000001_Node000004"><a xlink:title=" ">
<path fill="none" stroke="#63b8ff" d="M141.006,-106.394C175.418,-107.333 217.518,-106.999 255,-102.5 266.987,-101.061 279.793,-98.4204 291.491,-95.5561"/>
<polygon fill="#63b8ff" stroke="#63b8ff" points="292.62,-98.8799 301.437,-93.006 290.881,-92.0993 292.62,-98.8799"/>
</a>
</g>
</g>
<!-- Node5 -->
<g id="Node000005" class="node"><title>Node5</title>
<g id="a_Node000005"><a xlink:href="group___t_stack.html#ga480af197cbd84970291358c870ec9b90" target="_top" xlink:title="Odstranění elementu na vrcholu zásobníku.">
<polygon fill="white" stroke="#666666" points="247,-93 185,-93 185,-74 247,-74 247,-93"/>
<text text-anchor="middle" x="216" y="-81" font-family="Helvetica,sans-Serif" font-size="10.00">stack_pop</text>
</a>
</g>
</g>
<!-- Node1&#45;&gt;Node5 -->
<g id="edge4_Node000001_Node000005" class="edge"><title>Node1&#45;&gt;Node5</title>
<g id="a_edge4_Node000001_Node000005"><a xlink:title=" ">
<path fill="none" stroke="#63b8ff" d="M141.148,-93.2783C152.717,-91.7466 164.358,-90.2052 174.868,-88.8137"/>
<polygon fill="#63b8ff" stroke="#63b8ff" points="175.502,-92.2604 184.956,-87.478 174.583,-85.3209 175.502,-92.2604"/>
</a>
</g>
</g>
<!-- Node6 -->
<g id="Node000006" class="node"><title>Node6</title>
<g id="a_Node000006"><a xlink:href="group___t_stack.html#ga8ee1e96ca9c6c84eb97fea0a3506938c" target="_top" xlink:title="Vložení elementu na vrchol zásobníku.">
<polygon fill="white" stroke="#666666" points="249.5,-56 182.5,-56 182.5,-37 249.5,-37 249.5,-56"/>
<text text-anchor="middle" x="216" y="-44" font-family="Helvetica,sans-Serif" font-size="10.00">stack_push</text>
</a>
</g>
</g>
<!-- Node1&#45;&gt;Node6 -->
<g id="edge6_Node000001_Node000006" class="edge"><title>Node1&#45;&gt;Node6</title>
<g id="a_edge6_Node000001_Node000006"><a xlink:title=" ">
<path fill="none" stroke="#63b8ff" d="M96.1685,-92.8733C119.617,-83.7226 155.077,-69.8844 181.161,-59.7057"/>
<polygon fill="#63b8ff" stroke="#63b8ff" points="182.61,-62.8971 190.653,-56.0011 180.065,-56.3761 182.61,-62.8971"/>
</a>
</g>
</g>
<!-- Node7 -->
<g id="Node000007" class="node"><title>Node7</title>
<g id="a_Node000007"><a xlink:href="group___t_stack.html#gac84fd2f3c38113a7d9d4cf5123b581f3" target="_top" xlink:title="Získání hodnoty elementu na vrcholu zásobníku.">
<polygon fill="white" stroke="#666666" points="245.5,-19 186.5,-19 186.5,-0 245.5,-0 245.5,-19"/>
<text text-anchor="middle" x="216" y="-7" font-family="Helvetica,sans-Serif" font-size="10.00">stack_top</text>
</a>
</g>
</g>
<!-- Node1&#45;&gt;Node7 -->
<g id="edge7_Node000001_Node000007" class="edge"><title>Node1&#45;&gt;Node7</title>
<g id="a_edge7_Node000001_Node000007"><a xlink:title=" ">
<path fill="none" stroke="#63b8ff" d="M83.7652,-92.9948C103.034,-78.2721 141.835,-49.4674 177,-28.5 179.7,-26.8899 182.555,-25.2892 185.438,-23.7394"/>
<polygon fill="#63b8ff" stroke="#63b8ff" points="187.308,-26.7126 194.587,-19.0134 184.096,-20.4934 187.308,-26.7126"/>
</a>
</g>
</g>
<!-- Node5&#45;&gt;Node4 -->
<g id="edge5_Node000005_Node000004" class="edge"><title>Node5&#45;&gt;Node4</title>
<g id="a_edge5_Node000005_Node000004"><a xlink:title=" ">
<path fill="none" stroke="#63b8ff" d="M247.175,-83.5C257.351,-83.5 269.025,-83.5 280.418,-83.5"/>
<polygon fill="#63b8ff" stroke="#63b8ff" points="280.751,-87.0001 290.751,-83.5 280.751,-80.0001 280.751,-87.0001"/>
</a>
</g>
</g>
<!-- Node7&#45;&gt;Node4 -->
<g id="edge8_Node000007_Node000004" class="edge"><title>Node7&#45;&gt;Node4</title>
<g id="a_edge8_Node000007_Node000004"><a xlink:title=" ">
<path fill="none" stroke="#63b8ff" d="M237.419,-19.0045C243.198,-21.8829 249.429,-25.1689 255,-28.5 275.21,-40.5842 297.018,-56.2006 312.422,-67.7038"/>
<polygon fill="#63b8ff" stroke="#63b8ff" points="310.601,-70.7141 320.692,-73.9436 314.817,-65.1264 310.601,-70.7141"/>
</a>
</g>
</g>
</g>
</svg>
