<?xml version="1.0" encoding="UTF-8" standalone="no"?>
<!DOCTYPE svg PUBLIC "-//W3C//DTD SVG 1.1//EN"
 "http://www.w3.org/Graphics/SVG/1.1/DTD/svg11.dtd">
<!-- Generated by graphviz version 2.38.0 (20140413.2041)
 -->
<!-- Title: stack_iterator_is_valid Pages: 1 -->
<svg width="344pt" height="79pt"
 viewBox="0.00 0.00 344.00 79.01" xmlns="http://www.w3.org/2000/svg" xmlns:xlink="http://www.w3.org/1999/xlink">
<g id="graph0" class="graph" transform="scale(1 1) rotate(0) translate(4 75.0107)">
<title>stack_iterator_is_valid</title>
<!-- Node1 -->
<g id="Node000001" class="node"><title>Node1</title>
<g id="a_Node000001"><a xlink:title="Zjištění platnosti iterátoru.">
<polygon fill="#999999" stroke="#666666" points="336,-56 223,-56 223,-37 336,-37 336,-56"/>
<text text-anchor="middle" x="279.5" y="-44" font-family="Helvetica,sans-Serif" font-size="10.00">stack_iterator_is_valid</text>
</a>
</g>
</g>
<!-- Node2 -->
<g id="Node000002" class="node"><title>Node2</title>
<g id="a_Node000002"><a xlink:href="group___main_program.html#gae66f6b31b5ad750f1fe042a706a4e3d4" target="_top" xlink:title=" ">
<polygon fill="white" stroke="#666666" points="38,-56 0,-56 0,-37 38,-37 38,-56"/>
<text text-anchor="middle" x="19" y="-44" font-family="Helvetica,sans-Serif" font-size="10.00">main</text>
</a>
</g>
</g>
<!-- Node1&#45;&gt;Node2 -->
<g id="edge1_Node000001_Node000002" class="edge"><title>Node1&#45;&gt;Node2</title>
<g id="a_edge1_Node000001_Node000002"><a xlink:title=" ">
<path fill="none" stroke="#63b8ff" d="M231.357,-58.2114C217.19,-61.2087 201.546,-64.0057 187,-65.5 137.041,-70.6323 123.505,-73.9552 74,-65.5 61.6564,-63.3918 48.3821,-58.7561 38.0835,-54.5917"/>
<polygon fill="#63b8ff" stroke="#63b8ff" points="232.359,-61.5748 241.375,-56.0093 230.856,-54.738 232.359,-61.5748"/>
</a>
</g>
</g>
<!-- Node3 -->
<g id="Node000003" class="node"><title>Node3</title>
<g id="a_Node000003"><a xlink:href="group___t_stack_iterator.html#gaa94902ad8202ccc9fdfe08aa660e3903" target="_top" xlink:title="Posunutí iterátoru vpřed.">
<polygon fill="white" stroke="#666666" points="187,-56 74,-56 74,-37 187,-37 187,-56"/>
<text text-anchor="middle" x="130.5" y="-44" font-family="Helvetica,sans-Serif" font-size="10.00">stack_iterator_to_next</text>
</a>
</g>
</g>
<!-- Node1&#45;&gt;Node3 -->
<g id="edge2_Node000001_Node000003" class="edge"><title>Node1&#45;&gt;Node3</title>
<g id="a_edge2_Node000001_Node000003"><a xlink:title=" ">
<path fill="none" stroke="#63b8ff" d="M212.922,-46.5C204.319,-46.5 195.57,-46.5 187.153,-46.5"/>
<polygon fill="#63b8ff" stroke="#63b8ff" points="212.926,-50.0001 222.926,-46.5 212.926,-43.0001 212.926,-50.0001"/>
</a>
</g>
</g>
<!-- Node4 -->
<g id="Node000004" class="node"><title>Node4</title>
<g id="a_Node000004"><a xlink:href="group___t_stack_iterator.html#ga1e006b0649df0fac42315afb488f283e" target="_top" xlink:title="Přečtení hodnoty elementu ze zásobníku pomocí iterátoru.">
<polygon fill="white" stroke="#666666" points="182,-19 79,-19 79,-0 182,-0 182,-19"/>
<text text-anchor="middle" x="130.5" y="-7" font-family="Helvetica,sans-Serif" font-size="10.00">stack_iterator_value</text>
</a>
</g>
</g>
<!-- Node1&#45;&gt;Node4 -->
<g id="edge4_Node000001_Node000004" class="edge"><title>Node1&#45;&gt;Node4</title>
<g id="a_edge4_Node000001_Node000004"><a xlink:title=" ">
<path fill="none" stroke="#63b8ff" d="M230.85,-34.5064C210.972,-29.5032 188.204,-23.7725 169.483,-19.0604"/>
<polygon fill="#63b8ff" stroke="#63b8ff" points="230.092,-37.9248 240.644,-36.9716 231.801,-31.1365 230.092,-37.9248"/>
</a>
</g>
</g>
<!-- Node3&#45;&gt;Node2 -->
<g id="edge3_Node000003_Node000002" class="edge"><title>Node3&#45;&gt;Node2</title>
<g id="a_edge3_Node000003_Node000002"><a xlink:title=" ">
<path fill="none" stroke="#63b8ff" d="M63.5836,-46.5C54.2925,-46.5 45.4495,-46.5 38.1873,-46.5"/>
<polygon fill="#63b8ff" stroke="#63b8ff" points="63.7877,-50.0001 73.7876,-46.5 63.7876,-43.0001 63.7877,-50.0001"/>
</a>
</g>
</g>
<!-- Node4&#45;&gt;Node2 -->
<g id="edge5_Node000004_Node000002" class="edge"><title>Node4&#45;&gt;Node2</title>
<g id="a_edge5_Node000004_Node000002"><a xlink:title=" ">
<path fill="none" stroke="#63b8ff" d="M91.5794,-22.3133C73.4735,-28.4313 52.6476,-35.4684 38.145,-40.3688"/>
<polygon fill="#63b8ff" stroke="#63b8ff" points="92.9477,-25.5455 101.301,-19.0284 90.7068,-18.9138 92.9477,-25.5455"/>
</a>
</g>
</g>
</g>
</svg>
