<?xml version="1.0" encoding="UTF-8" standalone="no"?>
<!DOCTYPE svg PUBLIC "-//W3C//DTD SVG 1.1//EN"
 "http://www.w3.org/Graphics/SVG/1.1/DTD/svg11.dtd">
<!-- Generated by graphviz version 2.38.0 (20140413.2041)
 -->
<!-- Title: main Pages: 1 -->
<svg width="494pt" height="423pt"
 viewBox="0.00 0.00 494.00 422.64" xmlns="http://www.w3.org/2000/svg" xmlns:xlink="http://www.w3.org/1999/xlink">
<g id="graph0" class="graph" transform="scale(1 1) rotate(0) translate(4 418.636)">
<title>main</title>
<!-- Node1 -->
<g id="Node000001" class="node"><title>Node1</title>
<g id="a_Node000001"><a xlink:title=" ">
<polygon fill="#999999" stroke="#666666" points="38,-208 0,-208 0,-189 38,-189 38,-208"/>
<text text-anchor="middle" x="19" y="-196" font-family="Helvetica,sans-Serif" font-size="10.00">main</text>
</a>
</g>
</g>
<!-- Node2 -->
<g id="Node000002" class="node"><title>Node2</title>
<g id="a_Node000002"><a xlink:href="group___main_program.html#ga367aadf6f2e33e86efe4a50daff32e81" target="_top" xlink:title="Testování API Stack.">
<polygon fill="white" stroke="#666666" points="215,-284 74,-284 74,-265 215,-265 215,-284"/>
<text text-anchor="middle" x="144.5" y="-272" font-family="Helvetica,sans-Serif" font-size="10.00">demo_tiskni_slova_pozpatku</text>
</a>
</g>
</g>
<!-- Node1&#45;&gt;Node2 -->
<g id="edge1_Node000001_Node000002" class="edge"><title>Node1&#45;&gt;Node2</title>
<g id="a_edge1_Node000001_Node000002"><a xlink:title=" ">
<path fill="none" stroke="#63b8ff" d="M27.7998,-208.25C37.5101,-219.805 55.1318,-238.944 74,-250.5 80.9652,-254.766 88.7903,-258.398 96.6103,-261.448"/>
<polygon fill="#63b8ff" stroke="#63b8ff" points="95.4942,-264.766 106.088,-264.882 97.8787,-258.185 95.4942,-264.766"/>
</a>
</g>
</g>
<!-- Node3 -->
<g id="Node000003" class="node"><title>Node3</title>
<g id="a_Node000003"><a xlink:href="group___t_stack.html#ga543615a4df26ed863b9e92228b69d04a" target="_top" xlink:title="Deinicializace zásobníku.">
<polygon fill="white" stroke="#666666" points="346.5,-360 268.5,-360 268.5,-341 346.5,-341 346.5,-360"/>
<text text-anchor="middle" x="307.5" y="-348" font-family="Helvetica,sans-Serif" font-size="10.00">stack_destroy</text>
</a>
</g>
</g>
<!-- Node1&#45;&gt;Node3 -->
<g id="edge10_Node000001_Node000003" class="edge"><title>Node1&#45;&gt;Node3</title>
<g id="a_edge10_Node000001_Node000003"><a xlink:title=" ">
<path fill="none" stroke="#63b8ff" d="M21.0231,-208.23C24.1007,-232.138 35.5784,-293.895 74,-322.5 127.238,-362.136 207.127,-362.606 258.025,-357.745"/>
<polygon fill="#63b8ff" stroke="#63b8ff" points="258.538,-361.21 268.113,-356.675 257.8,-354.249 258.538,-361.21"/>
</a>
</g>
</g>
<!-- Node4 -->
<g id="Node000004" class="node"><title>Node4</title>
<g id="a_Node000004"><a xlink:href="group___t_stack.html#ga22a9f4ad0c450cdbbfb7546493b1f781" target="_top" xlink:title="Inicializace prázdného zásobníku.">
<polygon fill="white" stroke="#666666" points="337,-322 278,-322 278,-303 337,-303 337,-322"/>
<text text-anchor="middle" x="307.5" y="-310" font-family="Helvetica,sans-Serif" font-size="10.00">stack_init</text>
</a>
</g>
</g>
<!-- Node1&#45;&gt;Node4 -->
<g id="edge11_Node000001_Node000004" class="edge"><title>Node1&#45;&gt;Node4</title>
<g id="a_edge11_Node000001_Node000004"><a xlink:title=" ">
<path fill="none" stroke="#63b8ff" d="M22.2616,-208.11C27.498,-227.98 42.4895,-273.404 74,-293.5 133.134,-331.214 218.662,-326.597 267.811,-319.662"/>
<polygon fill="#63b8ff" stroke="#63b8ff" points="268.361,-323.119 277.725,-318.162 267.313,-316.198 268.361,-323.119"/>
</a>
</g>
</g>
<!-- Node5 -->
<g id="Node000005" class="node"><title>Node5</title>
<g id="a_Node000005"><a xlink:href="group___t_stack.html#gab2a53c66f9bb439a8749c97f9c9d9f2d" target="_top" xlink:title="Zjištění, zda je zásobník prázdný">
<polygon fill="white" stroke="#666666" points="486,-265 400,-265 400,-246 486,-246 486,-265"/>
<text text-anchor="middle" x="443" y="-253" font-family="Helvetica,sans-Serif" font-size="10.00">stack_is_empty</text>
</a>
</g>
</g>
<!-- Node1&#45;&gt;Node5 -->
<g id="edge12_Node000001_Node000005" class="edge"><title>Node1&#45;&gt;Node5</title>
<g id="a_edge12_Node000001_Node000005"><a xlink:title=" ">
<path fill="none" stroke="#63b8ff" d="M20.0023,-208.221C20.5896,-236.246 26.4922,-317.549 74,-354.5 175.874,-433.736 249.845,-429.712 364,-369.5 402.013,-349.45 425.029,-301.605 435.417,-274.706"/>
<polygon fill="#63b8ff" stroke="#63b8ff" points="438.74,-275.809 438.891,-265.215 432.167,-273.402 438.74,-275.809"/>
</a>
</g>
</g>
<!-- Node6 -->
<g id="Node000006" class="node"><title>Node6</title>
<g id="a_Node000006"><a xlink:href="group___t_stack.html#ga480af197cbd84970291358c870ec9b90" target="_top" xlink:title="Odstranění elementu na vrcholu zásobníku.">
<polygon fill="white" stroke="#666666" points="338.5,-246 276.5,-246 276.5,-227 338.5,-227 338.5,-246"/>
<text text-anchor="middle" x="307.5" y="-234" font-family="Helvetica,sans-Serif" font-size="10.00">stack_pop</text>
</a>
</g>
</g>
<!-- Node1&#45;&gt;Node6 -->
<g id="edge19_Node000001_Node000006" class="edge"><title>Node1&#45;&gt;Node6</title>
<g id="a_edge19_Node000001_Node000006"><a xlink:title=" ">
<path fill="none" stroke="#63b8ff" d="M38.3098,-204.433C48.6792,-207.579 61.9489,-211.248 74,-213.5 140.722,-225.971 219.562,-231.966 266.167,-234.622"/>
<polygon fill="#63b8ff" stroke="#63b8ff" points="265.992,-238.118 276.169,-235.169 266.375,-231.128 265.992,-238.118"/>
</a>
</g>
</g>
<!-- Node7 -->
<g id="Node000007" class="node"><title>Node7</title>
<g id="a_Node000007"><a xlink:href="group___t_stack.html#ga8ee1e96ca9c6c84eb97fea0a3506938c" target="_top" xlink:title="Vložení elementu na vrchol zásobníku.">
<polygon fill="white" stroke="#666666" points="341,-171 274,-171 274,-152 341,-152 341,-171"/>
<text text-anchor="middle" x="307.5" y="-159" font-family="Helvetica,sans-Serif" font-size="10.00">stack_push</text>
</a>
</g>
</g>
<!-- Node1&#45;&gt;Node7 -->
<g id="edge20_Node000001_Node000007" class="edge"><title>Node1&#45;&gt;Node7</title>
<g id="a_edge20_Node000001_Node000007"><a xlink:title=" ">
<path fill="none" stroke="#63b8ff" d="M38.3577,-196.129C83.3989,-190.312 200.322,-175.212 263.871,-167.005"/>
<polygon fill="#63b8ff" stroke="#63b8ff" points="264.498,-170.454 273.967,-165.701 263.601,-163.511 264.498,-170.454"/>
</a>
</g>
</g>
<!-- Node8 -->
<g id="Node000008" class="node"><title>Node8</title>
<g id="a_Node000008"><a xlink:href="group___t_stack.html#gac84fd2f3c38113a7d9d4cf5123b581f3" target="_top" xlink:title="Získání hodnoty elementu na vrcholu zásobníku.">
<polygon fill="white" stroke="#666666" points="337,-209 278,-209 278,-190 337,-190 337,-209"/>
<text text-anchor="middle" x="307.5" y="-197" font-family="Helvetica,sans-Serif" font-size="10.00">stack_top</text>
</a>
</g>
</g>
<!-- Node1&#45;&gt;Node8 -->
<g id="edge21_Node000001_Node000008" class="edge"><title>Node1&#45;&gt;Node8</title>
<g id="a_edge21_Node000001_Node000008"><a xlink:title=" ">
<path fill="none" stroke="#63b8ff" d="M38.3577,-198.564C84.24,-198.724 204.714,-199.145 267.375,-199.363"/>
<polygon fill="#63b8ff" stroke="#63b8ff" points="267.632,-202.864 277.644,-199.399 267.656,-195.864 267.632,-202.864"/>
</a>
</g>
</g>
<!-- Node9 -->
<g id="Node000009" class="node"><title>Node9</title>
<g id="a_Node000009"><a xlink:href="group___t_stack_iterator.html#gaa3bbe9fce0de463850601e23ebc552ff" target="_top" xlink:title="Vytvoření nového iterátoru ukazujícího na vrchol zásobníku.">
<polygon fill="white" stroke="#666666" points="196.5,-132 92.5,-132 92.5,-113 196.5,-113 196.5,-132"/>
<text text-anchor="middle" x="144.5" y="-120" font-family="Helvetica,sans-Serif" font-size="10.00">stack_iterator_begin</text>
</a>
</g>
</g>
<!-- Node1&#45;&gt;Node9 -->
<g id="edge13_Node000001_Node000009" class="edge"><title>Node1&#45;&gt;Node9</title>
<g id="a_edge13_Node000001_Node000009"><a xlink:title=" ">
<path fill="none" stroke="#63b8ff" d="M27.7998,-188.75C37.5101,-177.195 55.1318,-158.056 74,-146.5 80.9652,-142.234 88.7903,-138.602 96.6103,-135.552"/>
<polygon fill="#63b8ff" stroke="#63b8ff" points="97.8787,-138.815 106.088,-132.118 95.4942,-132.234 97.8787,-138.815"/>
</a>
</g>
</g>
<!-- Node10 -->
<g id="Node000010" class="node"><title>Node10</title>
<g id="a_Node000010"><a xlink:href="group___t_stack_iterator.html#gad5a597d5a1e8f27eaac18d9a030997e3" target="_top" xlink:title="Zjištění platnosti iterátoru.">
<polygon fill="white" stroke="#666666" points="364,-56 251,-56 251,-37 364,-37 364,-56"/>
<text text-anchor="middle" x="307.5" y="-44" font-family="Helvetica,sans-Serif" font-size="10.00">stack_iterator_is_valid</text>
</a>
</g>
</g>
<!-- Node1&#45;&gt;Node10 -->
<g id="edge14_Node000001_Node000010" class="edge"><title>Node1&#45;&gt;Node10</title>
<g id="a_edge14_Node000001_Node000010"><a xlink:title=" ">
<path fill="none" stroke="#63b8ff" d="M22.6198,-188.985C28.4407,-169.696 44.335,-125.919 74,-103.5 88.0053,-92.9155 184.802,-71.4732 249.003,-58.1161"/>
<polygon fill="#63b8ff" stroke="#63b8ff" points="249.927,-61.4992 259.01,-56.0446 248.508,-54.6445 249.927,-61.4992"/>
</a>
</g>
</g>
<!-- Node11 -->
<g id="Node000011" class="node"><title>Node11</title>
<g id="a_Node000011"><a xlink:href="group___t_stack_iterator.html#gaa94902ad8202ccc9fdfe08aa660e3903" target="_top" xlink:title="Posunutí iterátoru vpřed.">
<polygon fill="white" stroke="#666666" points="201,-56 88,-56 88,-37 201,-37 201,-56"/>
<text text-anchor="middle" x="144.5" y="-44" font-family="Helvetica,sans-Serif" font-size="10.00">stack_iterator_to_next</text>
</a>
</g>
</g>
<!-- Node1&#45;&gt;Node11 -->
<g id="edge15_Node000001_Node000011" class="edge"><title>Node1&#45;&gt;Node11</title>
<g id="a_edge15_Node000001_Node000011"><a xlink:title=" ">
<path fill="none" stroke="#63b8ff" d="M21.3313,-188.962C25.1119,-165.436 38.0676,-104.112 74,-70.5 78.2999,-66.4778 83.3066,-63.1259 88.6257,-60.3333"/>
<polygon fill="#63b8ff" stroke="#63b8ff" points="90.1605,-63.4801 97.8027,-56.142 87.2524,-57.1127 90.1605,-63.4801"/>
</a>
</g>
</g>
<!-- Node12 -->
<g id="Node000012" class="node"><title>Node12</title>
<g id="a_Node000012"><a xlink:href="group___t_stack_iterator.html#ga1e006b0649df0fac42315afb488f283e" target="_top" xlink:title="Přečtení hodnoty elementu ze zásobníku pomocí iterátoru.">
<polygon fill="white" stroke="#666666" points="196,-19 93,-19 93,-0 196,-0 196,-19"/>
<text text-anchor="middle" x="144.5" y="-7" font-family="Helvetica,sans-Serif" font-size="10.00">stack_iterator_value</text>
</a>
</g>
</g>
<!-- Node1&#45;&gt;Node12 -->
<g id="edge17_Node000001_Node000012" class="edge"><title>Node1&#45;&gt;Node12</title>
<g id="a_edge17_Node000001_Node000012"><a xlink:title=" ">
<path fill="none" stroke="#63b8ff" d="M20.0019,-188.698C20.5632,-159.563 26.3482,-72.7156 74,-27.5 76.9173,-24.7318 80.2033,-22.3755 83.7186,-20.3712"/>
<polygon fill="#63b8ff" stroke="#63b8ff" points="85.2882,-23.5009 92.85,-16.08 82.3109,-17.1656 85.2882,-23.5009"/>
</a>
</g>
</g>
<!-- Node2&#45;&gt;Node3 -->
<g id="edge2_Node000002_Node000003" class="edge"><title>Node2&#45;&gt;Node3</title>
<g id="a_edge2_Node000002_Node000003"><a xlink:title=" ">
<path fill="none" stroke="#63b8ff" d="M161.174,-284.036C181.426,-296.105 218.007,-317.058 251,-331.5 255.776,-333.59 260.86,-335.604 265.94,-337.489"/>
<polygon fill="#63b8ff" stroke="#63b8ff" points="265.024,-340.878 275.618,-340.94 267.375,-334.285 265.024,-340.878"/>
</a>
</g>
</g>
<!-- Node2&#45;&gt;Node4 -->
<g id="edge3_Node000002_Node000004" class="edge"><title>Node2&#45;&gt;Node4</title>
<g id="a_edge3_Node000002_Node000004"><a xlink:title=" ">
<path fill="none" stroke="#63b8ff" d="M186.127,-284.089C211.18,-290.002 243.127,-297.542 267.813,-303.369"/>
<polygon fill="#63b8ff" stroke="#63b8ff" points="267.029,-306.78 277.565,-305.671 268.637,-299.967 267.029,-306.78"/>
</a>
</g>
</g>
<!-- Node2&#45;&gt;Node5 -->
<g id="edge4_Node000002_Node000005" class="edge"><title>Node2&#45;&gt;Node5</title>
<g id="a_edge4_Node000002_Node000005"><a xlink:title=" ">
<path fill="none" stroke="#63b8ff" d="M215.016,-270.045C268.549,-266.615 341.376,-261.948 389.951,-258.835"/>
<polygon fill="#63b8ff" stroke="#63b8ff" points="390.177,-262.328 399.933,-258.196 389.73,-255.342 390.177,-262.328"/>
</a>
</g>
</g>
<!-- Node2&#45;&gt;Node6 -->
<g id="edge5_Node000002_Node000006" class="edge"><title>Node2&#45;&gt;Node6</title>
<g id="a_edge5_Node000002_Node000006"><a xlink:title=" ">
<path fill="none" stroke="#63b8ff" d="M186.127,-264.911C210.662,-259.12 241.807,-251.769 266.27,-245.995"/>
<polygon fill="#63b8ff" stroke="#63b8ff" points="267.377,-249.33 276.306,-243.627 265.769,-242.517 267.377,-249.33"/>
</a>
</g>
</g>
<!-- Node2&#45;&gt;Node7 -->
<g id="edge7_Node000002_Node000007" class="edge"><title>Node2&#45;&gt;Node7</title>
<g id="a_edge7_Node000002_Node000007"><a xlink:title=" ">
<path fill="none" stroke="#63b8ff" d="M153.836,-264.855C170.51,-246.113 209.91,-204.511 251,-180.5 255.177,-178.059 259.714,-175.87 264.335,-173.923"/>
<polygon fill="#63b8ff" stroke="#63b8ff" points="265.77,-177.121 273.847,-170.265 263.257,-170.588 265.77,-177.121"/>
</a>
</g>
</g>
<!-- Node2&#45;&gt;Node8 -->
<g id="edge8_Node000002_Node000008" class="edge"><title>Node2&#45;&gt;Node8</title>
<g id="a_edge8_Node000002_Node000008"><a xlink:title=" ">
<path fill="none" stroke="#63b8ff" d="M161.138,-264.88C181.351,-252.722 217.891,-231.674 251,-217.5 256.488,-215.15 262.391,-212.929 268.227,-210.9"/>
<polygon fill="#63b8ff" stroke="#63b8ff" points="269.516,-214.16 277.9,-207.681 267.306,-207.518 269.516,-214.16"/>
</a>
</g>
</g>
<!-- Node6&#45;&gt;Node5 -->
<g id="edge6_Node000006_Node000005" class="edge"><title>Node6&#45;&gt;Node5</title>
<g id="a_edge6_Node000006_Node000005"><a xlink:title=" ">
<path fill="none" stroke="#63b8ff" d="M338.793,-240.811C353.906,-242.962 372.615,-245.625 389.936,-248.09"/>
<polygon fill="#63b8ff" stroke="#63b8ff" points="389.542,-251.569 399.936,-249.513 390.529,-244.639 389.542,-251.569"/>
</a>
</g>
</g>
<!-- Node8&#45;&gt;Node5 -->
<g id="edge9_Node000008_Node000005" class="edge"><title>Node8&#45;&gt;Node5</title>
<g id="a_edge9_Node000008_Node000005"><a xlink:title=" ">
<path fill="none" stroke="#63b8ff" d="M337.008,-207.904C345.759,-210.708 355.358,-214.013 364,-217.5 381.303,-224.481 400.123,-233.603 414.941,-241.159"/>
<polygon fill="#63b8ff" stroke="#63b8ff" points="413.553,-244.382 424.044,-245.861 416.765,-238.162 413.553,-244.382"/>
</a>
</g>
</g>
<!-- Node11&#45;&gt;Node10 -->
<g id="edge16_Node000011_Node000010" class="edge"><title>Node11&#45;&gt;Node10</title>
<g id="a_edge16_Node000011_Node000010"><a xlink:title=" ">
<path fill="none" stroke="#63b8ff" d="M201.358,-46.5C213.971,-46.5 227.477,-46.5 240.464,-46.5"/>
<polygon fill="#63b8ff" stroke="#63b8ff" points="240.741,-50.0001 250.741,-46.5 240.741,-43.0001 240.741,-50.0001"/>
</a>
</g>
</g>
<!-- Node12&#45;&gt;Node10 -->
<g id="edge18_Node000012_Node000010" class="edge"><title>Node12&#45;&gt;Node10</title>
<g id="a_edge18_Node000012_Node000010"><a xlink:title=" ">
<path fill="none" stroke="#63b8ff" d="M186.962,-19.0284C207.726,-23.8004 233.063,-29.6232 255.058,-34.6778"/>
<polygon fill="#63b8ff" stroke="#63b8ff" points="254.37,-38.1109 264.899,-36.9396 255.937,-31.2887 254.37,-38.1109"/>
</a>
</g>
</g>
</g>
</svg>
