<?xml version="1.0" encoding="UTF-8" standalone="no"?>
<!DOCTYPE svg PUBLIC "-//W3C//DTD SVG 1.1//EN"
 "http://www.w3.org/Graphics/SVG/1.1/DTD/svg11.dtd">
<!-- Generated by graphviz version 2.38.0 (20140413.2041)
 -->
<!-- Title: TStackIterator Pages: 1 -->
<svg width="190pt" height="273pt"
 viewBox="0.00 0.00 190.00 273.00" xmlns="http://www.w3.org/2000/svg" xmlns:xlink="http://www.w3.org/1999/xlink">
<g id="graph0" class="graph" transform="scale(1 1) rotate(0) translate(4 269)">
<title>TStackIterator</title>
<!-- Node1 -->
<g id="Node000001" class="node"><title>Node1</title>
<g id="a_Node000001"><a xlink:title="Definice typu StackIterator.">
<polygon fill="#999999" stroke="#666666" points="109.5,-57 22.5,-57 22.5,-0 109.5,-0 109.5,-57"/>
<text text-anchor="start" x="36" y="-40.5" font-family="Helvetica,sans-Serif" font-size="10.00">TStackIterator</text>
<text text-anchor="start" x="64.5" y="-25.5" font-family="Helvetica,sans-Serif" font-size="10.00"> </text>
<text text-anchor="start" x="64.5" y="-10.5" font-family="Helvetica,sans-Serif" font-size="10.00"> </text>
<polygon fill="#666666" stroke="#666666" points="31,-35.5 31,-35.5 102,-35.5 102,-35.5 31,-35.5"/>
<polygon fill="#666666" stroke="#666666" points="31,-20.5 31,-20.5 102,-20.5 102,-20.5 31,-20.5"/>
<polygon fill="none" stroke="#666666" points="30.5,-4 30.5,-53 101.5,-53 101.5,-4 30.5,-4"/>
</a>
</g>
</g>
<!-- Node2 -->
<g id="Node000002" class="node"><title>Node2</title>
<g id="a_Node000002"><a xlink:href="group___t_stack.html#struct_t_stack" target="_top" xlink:title="Definice typu Stack.">
<polygon fill="white" stroke="#666666" points="151.5,-161 94.5,-161 94.5,-104 151.5,-104 151.5,-161"/>
<text text-anchor="start" x="108" y="-144.5" font-family="Helvetica,sans-Serif" font-size="10.00">TStack</text>
<text text-anchor="start" x="121.5" y="-129.5" font-family="Helvetica,sans-Serif" font-size="10.00"> </text>
<text text-anchor="start" x="121.5" y="-114.5" font-family="Helvetica,sans-Serif" font-size="10.00"> </text>
<polygon fill="#666666" stroke="#666666" points="103,-139.5 103,-139.5 144,-139.5 144,-139.5 103,-139.5"/>
<polygon fill="#666666" stroke="#666666" points="103,-124.5 103,-124.5 144,-124.5 144,-124.5 103,-124.5"/>
<polygon fill="none" stroke="#666666" points="102.5,-108 102.5,-157 143.5,-157 143.5,-108 102.5,-108"/>
</a>
</g>
</g>
<!-- Node2&#45;&gt;Node1 -->
<g id="edge1_Node000001_Node000002" class="edge"><title>Node2&#45;&gt;Node1</title>
<g id="a_edge1_Node000001_Node000002"><a xlink:title=" ">
<path fill="none" stroke="#63b8ff" d="M107.575,-103.897C101.365,-92.7851 94.0982,-79.7809 87.392,-67.7804"/>
<polygon fill="none" stroke="#63b8ff" points="87.2913,-67.6001 80.8725,-64.3137 81.4373,-57.1247 87.8561,-60.4111 87.2913,-67.6001"/>
</a>
</g>
<text text-anchor="middle" x="114.5" y="-78" font-family="Helvetica,sans-Serif" font-size="10.00" fill="grey"> +iStack</text>
</g>
<!-- Node3 -->
<g id="Node000003" class="node"><title>Node3</title>
<g id="a_Node000003"><a xlink:href="struct_t_stack_node.html" target="_top" xlink:title="Úplná definice privátního typu StackNode.">
<polygon fill="white" stroke="#666666" points="132,-265 0,-265 0,-208 132,-208 132,-265"/>
<text text-anchor="start" x="39" y="-248.5" font-family="Helvetica,sans-Serif" font-size="10.00">TStackNode</text>
<text text-anchor="start" x="12" y="-233.5" font-family="Helvetica,sans-Serif" font-size="10.00">+</text>
<text text-anchor="start" x="23" y="-233.5" font-family="Helvetica,sans-Serif" font-size="10.00">TStackElement iValue</text>
<text text-anchor="start" x="64" y="-218.5" font-family="Helvetica,sans-Serif" font-size="10.00"> </text>
<polygon fill="#666666" stroke="#666666" points="8,-243.5 8,-243.5 124,-243.5 124,-243.5 8,-243.5"/>
<polygon fill="#666666" stroke="#666666" points="8,-228.5 8,-228.5 21,-228.5 21,-228.5 8,-228.5"/>
<polygon fill="#666666" stroke="#666666" points="21,-228.5 21,-228.5 124,-228.5 124,-228.5 21,-228.5"/>
<polygon fill="none" stroke="#666666" points="8,-212 8,-261 124,-261 124,-212 8,-212"/>
</a>
</g>
</g>
<!-- Node3&#45;&gt;Node1 -->
<g id="edge4_Node000001_Node000003" class="edge"><title>Node3&#45;&gt;Node1</title>
<g id="a_edge4_Node000001_Node000003"><a xlink:title=" ">
<path fill="none" stroke="#63b8ff" d="M56.7375,-207.902C52.552,-194.008 48.0839,-176.8 46,-161 42.6874,-135.884 42.6874,-129.116 46,-104 47.5303,-92.3971 50.3465,-80.0343 53.3923,-68.7824"/>
<polygon fill="none" stroke="#63b8ff" points="53.4347,-68.6341 51.2406,-61.7649 56.7375,-57.0976 58.9316,-63.9668 53.4347,-68.6341"/>
</a>
</g>
<text text-anchor="middle" x="66" y="-130" font-family="Helvetica,sans-Serif" font-size="10.00" fill="grey"> +iActual</text>
</g>
<!-- Node3&#45;&gt;Node2 -->
<g id="edge2_Node000002_Node000003" class="edge"><title>Node3&#45;&gt;Node2</title>
<g id="a_edge2_Node000002_Node000003"><a xlink:title=" ">
<path fill="none" stroke="#63b8ff" d="M81.425,-207.897C87.6348,-196.785 94.9018,-183.781 101.608,-171.78"/>
<polygon fill="none" stroke="#63b8ff" points="101.709,-171.6 101.144,-164.411 107.563,-161.125 108.127,-168.314 101.709,-171.6"/>
</a>
</g>
<text text-anchor="middle" x="110" y="-182" font-family="Helvetica,sans-Serif" font-size="10.00" fill="grey"> +iTop</text>
</g>
<!-- Node3&#45;&gt;Node3 -->
<g id="edge3_Node000003_Node000003" class="edge"><title>Node3&#45;&gt;Node3</title>
<g id="a_edge3_Node000003_Node000003"><a xlink:title=" ">
<path fill="none" stroke="#63b8ff" d="M132.201,-245.479C142.768,-244.165 150,-241.172 150,-236.5 150,-233.945 147.837,-231.892 144.149,-230.342"/>
<polygon fill="none" stroke="#63b8ff" points="143.88,-230.278 137.122,-232.793 132.201,-227.521 138.96,-225.007 143.88,-230.278"/>
</a>
</g>
<text text-anchor="middle" x="166" y="-234" font-family="Helvetica,sans-Serif" font-size="10.00" fill="grey"> +iNext</text>
</g>
</g>
</svg>
