<?xml version="1.0" encoding="UTF-8" standalone="no"?>
<!DOCTYPE svg PUBLIC "-//W3C//DTD SVG 1.1//EN"
 "http://www.w3.org/Graphics/SVG/1.1/DTD/svg11.dtd">
<!-- Generated by graphviz version 2.38.0 (20140413.2041)
 -->
<!-- Title: TStack Pages: 1 -->
<svg width="190pt" height="169pt"
 viewBox="0.00 0.00 190.00 169.00" xmlns="http://www.w3.org/2000/svg" xmlns:xlink="http://www.w3.org/1999/xlink">
<g id="graph0" class="graph" transform="scale(1 1) rotate(0) translate(4 165)">
<title>TStack</title>
<!-- Node1 -->
<g id="Node000001" class="node"><title>Node1</title>
<g id="a_Node000001"><a xlink:title="Definice typu Stack.">
<polygon fill="#999999" stroke="#666666" points="94.5,-57 37.5,-57 37.5,-0 94.5,-0 94.5,-57"/>
<text text-anchor="start" x="51" y="-40.5" font-family="Helvetica,sans-Serif" font-size="10.00">TStack</text>
<text text-anchor="start" x="64.5" y="-25.5" font-family="Helvetica,sans-Serif" font-size="10.00"> </text>
<text text-anchor="start" x="64.5" y="-10.5" font-family="Helvetica,sans-Serif" font-size="10.00"> </text>
<polygon fill="#666666" stroke="#666666" points="46,-35.5 46,-35.5 87,-35.5 87,-35.5 46,-35.5"/>
<polygon fill="#666666" stroke="#666666" points="46,-20.5 46,-20.5 87,-20.5 87,-20.5 46,-20.5"/>
<polygon fill="none" stroke="#666666" points="45.5,-4 45.5,-53 86.5,-53 86.5,-4 45.5,-4"/>
</a>
</g>
</g>
<!-- Node2 -->
<g id="Node000002" class="node"><title>Node2</title>
<g id="a_Node000002"><a xlink:href="struct_t_stack_node.html" target="_top" xlink:title="Úplná definice privátního typu StackNode.">
<polygon fill="white" stroke="#666666" points="132,-161 0,-161 0,-104 132,-104 132,-161"/>
<text text-anchor="start" x="39" y="-144.5" font-family="Helvetica,sans-Serif" font-size="10.00">TStackNode</text>
<text text-anchor="start" x="12" y="-129.5" font-family="Helvetica,sans-Serif" font-size="10.00">+</text>
<text text-anchor="start" x="23" y="-129.5" font-family="Helvetica,sans-Serif" font-size="10.00">TStackElement iValue</text>
<text text-anchor="start" x="64" y="-114.5" font-family="Helvetica,sans-Serif" font-size="10.00"> </text>
<polygon fill="#666666" stroke="#666666" points="8,-139.5 8,-139.5 124,-139.5 124,-139.5 8,-139.5"/>
<polygon fill="#666666" stroke="#666666" points="8,-124.5 8,-124.5 21,-124.5 21,-124.5 8,-124.5"/>
<polygon fill="#666666" stroke="#666666" points="21,-124.5 21,-124.5 124,-124.5 124,-124.5 21,-124.5"/>
<polygon fill="none" stroke="#666666" points="8,-108 8,-157 124,-157 124,-108 8,-108"/>
</a>
</g>
</g>
<!-- Node2&#45;&gt;Node1 -->
<g id="edge1_Node000001_Node000002" class="edge"><title>Node2&#45;&gt;Node1</title>
<g id="a_edge1_Node000001_Node000002"><a xlink:title=" ">
<path fill="none" stroke="#63b8ff" d="M66,-103.897C66,-93.2387 66,-80.8394 66,-69.2547"/>
<polygon fill="none" stroke="#63b8ff" points="66.0001,-69.1247 62,-63.1248 66,-57.1247 70,-63.1247 66.0001,-69.1247"/>
</a>
</g>
<text text-anchor="middle" x="80" y="-78" font-family="Helvetica,sans-Serif" font-size="10.00" fill="grey"> +iTop</text>
</g>
<!-- Node2&#45;&gt;Node2 -->
<g id="edge2_Node000002_Node000002" class="edge"><title>Node2&#45;&gt;Node2</title>
<g id="a_edge2_Node000002_Node000002"><a xlink:title=" ">
<path fill="none" stroke="#63b8ff" d="M132.201,-141.479C142.768,-140.165 150,-137.172 150,-132.5 150,-129.945 147.837,-127.892 144.149,-126.342"/>
<polygon fill="none" stroke="#63b8ff" points="143.88,-126.278 137.122,-128.793 132.201,-123.521 138.96,-121.007 143.88,-126.278"/>
</a>
</g>
<text text-anchor="middle" x="166" y="-130" font-family="Helvetica,sans-Serif" font-size="10.00" fill="grey"> +iNext</text>
</g>
</g>
</svg>
