<?xml version="1.0" encoding="UTF-8" standalone="no"?>
<!DOCTYPE svg PUBLIC "-//W3C//DTD SVG 1.1//EN"
 "http://www.w3.org/Graphics/SVG/1.1/DTD/svg11.dtd">
<!-- Generated by graphviz version 2.38.0 (20140413.2041)
 -->
<!-- Title: TStackNode Pages: 1 -->
<svg width="190pt" height="65pt"
 viewBox="0.00 0.00 190.00 65.00" xmlns="http://www.w3.org/2000/svg" xmlns:xlink="http://www.w3.org/1999/xlink">
<g id="graph0" class="graph" transform="scale(1 1) rotate(0) translate(4 61)">
<title>TStackNode</title>
<!-- Node1 -->
<g id="Node000001" class="node"><title>Node1</title>
<g id="a_Node000001"><a xlink:title="Úplná definice privátního typu StackNode.">
<polygon fill="#999999" stroke="#666666" points="132,-57 0,-57 0,-0 132,-0 132,-57"/>
<text text-anchor="start" x="39" y="-40.5" font-family="Helvetica,sans-Serif" font-size="10.00">TStackNode</text>
<text text-anchor="start" x="12" y="-25.5" font-family="Helvetica,sans-Serif" font-size="10.00">+</text>
<text text-anchor="start" x="23" y="-25.5" font-family="Helvetica,sans-Serif" font-size="10.00">TStackElement iValue</text>
<text text-anchor="start" x="64" y="-10.5" font-family="Helvetica,sans-Serif" font-size="10.00"> </text>
<polygon fill="#666666" stroke="#666666" points="8,-35.5 8,-35.5 124,-35.5 124,-35.5 8,-35.5"/>
<polygon fill="#666666" stroke="#666666" points="8,-20.5 8,-20.5 21,-20.5 21,-20.5 8,-20.5"/>
<polygon fill="#666666" stroke="#666666" points="21,-20.5 21,-20.5 124,-20.5 124,-20.5 21,-20.5"/>
<polygon fill="none" stroke="#666666" points="8,-4 8,-53 124,-53 124,-4 8,-4"/>
</a>
</g>
</g>
<!-- Node1&#45;&gt;Node1 -->
<g id="edge1_Node000001_Node000001" class="edge"><title>Node1&#45;&gt;Node1</title>
<g id="a_edge1_Node000001_Node000001"><a xlink:title=" ">
<path fill="none" stroke="#63b8ff" d="M132.201,-38.1694C142.768,-36.7544 150,-33.5313 150,-28.5 150,-25.7485 147.837,-23.5378 144.149,-21.8679"/>
<polygon fill="none" stroke="#63b8ff" points="143.832,-21.7873 137.031,-24.1856 132.201,-18.8306 139.002,-16.4323 143.832,-21.7873"/>
</a>
</g>
<text text-anchor="middle" x="166" y="-26" font-family="Helvetica,sans-Serif" font-size="10.00" fill="grey"> +iNext</text>
</g>
</g>
</svg>
