<?xml version="1.0" encoding="UTF-8" standalone="no"?>
<!DOCTYPE svg PUBLIC "-//W3C//DTD SVG 1.1//EN"
 "http://www.w3.org/Graphics/SVG/1.1/DTD/svg11.dtd">
<!-- Generated by graphviz version 2.38.0 (20140413.2041)
 -->
<!-- Title: TQueue.c Pages: 1 -->
<svg width="170pt" height="137pt"
 viewBox="0.00 0.00 169.50 137.00" xmlns="http://www.w3.org/2000/svg" xmlns:xlink="http://www.w3.org/1999/xlink">
<g id="graph0" class="graph" transform="scale(1 1) rotate(0) translate(4 133)">
<title>TQueue.c</title>
<!-- Node1 -->
<g id="Node000001" class="node"><title>Node1</title>
<g id="a_Node000001"><a xlink:title="Implementace API pro typ fronta (realizace pomocí kruhového pole)">
<polygon fill="#999999" stroke="#666666" points="92.5,-129 33.5,-129 33.5,-110 92.5,-110 92.5,-129"/>
<text text-anchor="middle" x="63" y="-117" font-family="Helvetica,sans-Serif" font-size="10.00">TQueue.c</text>
</a>
</g>
</g>
<!-- Node2 -->
<g id="Node000002" class="node"><title>Node2</title>
<g id="a_Node000002"><a xlink:title=" ">
<polygon fill="#e0e0e0" stroke="#999999" points="52,-74 0,-74 0,-55 52,-55 52,-74"/>
<text text-anchor="middle" x="26" y="-62" font-family="Helvetica,sans-Serif" font-size="10.00">assert.h</text>
</a>
</g>
</g>
<!-- Node1&#45;&gt;Node2 -->
<g id="edge1_Node000001_Node000002" class="edge"><title>Node1&#45;&gt;Node2</title>
<g id="a_edge1_Node000001_Node000002"><a xlink:title=" ">
<path fill="none" stroke="#63b8ff" d="M56.8902,-109.748C51.7178,-102.339 44.1539,-91.5042 37.8056,-82.4107"/>
<polygon fill="#63b8ff" stroke="#63b8ff" points="40.5902,-80.2851 31.9961,-74.089 34.8505,-84.2921 40.5902,-80.2851"/>
</a>
</g>
</g>
<!-- Node3 -->
<g id="Node000003" class="node"><title>Node3</title>
<g id="a_Node000003"><a xlink:href="_t_queue_8h.html" target="_top" xlink:title="Definice typu fronta (realizace pomocí kruhového pole)">
<polygon fill="white" stroke="#666666" points="129.5,-74 70.5,-74 70.5,-55 129.5,-55 129.5,-74"/>
<text text-anchor="middle" x="100" y="-62" font-family="Helvetica,sans-Serif" font-size="10.00">TQueue.h</text>
</a>
</g>
</g>
<!-- Node1&#45;&gt;Node3 -->
<g id="edge2_Node000001_Node000003" class="edge"><title>Node1&#45;&gt;Node3</title>
<g id="a_edge2_Node000001_Node000003"><a xlink:title=" ">
<path fill="none" stroke="#63b8ff" d="M69.1098,-109.748C74.2822,-102.339 81.8461,-91.5042 88.1944,-82.4107"/>
<polygon fill="#63b8ff" stroke="#63b8ff" points="91.1495,-84.2921 94.0039,-74.089 85.4098,-80.2851 91.1495,-84.2921"/>
</a>
</g>
</g>
<!-- Node4 -->
<g id="Node000004" class="node"><title>Node4</title>
<g id="a_Node000004"><a xlink:title=" ">
<polygon fill="#e0e0e0" stroke="#999999" points="92,-19 36,-19 36,-0 92,-0 92,-19"/>
<text text-anchor="middle" x="64" y="-7" font-family="Helvetica,sans-Serif" font-size="10.00">stdbool.h</text>
</a>
</g>
</g>
<!-- Node3&#45;&gt;Node4 -->
<g id="edge3_Node000003_Node000004" class="edge"><title>Node3&#45;&gt;Node4</title>
<g id="a_edge3_Node000003_Node000004"><a xlink:title=" ">
<path fill="none" stroke="#63b8ff" d="M94.0553,-54.7481C89.0227,-47.339 81.6632,-36.5042 75.4865,-27.4107"/>
<polygon fill="#63b8ff" stroke="#63b8ff" points="78.3482,-25.3946 69.8341,-19.089 72.5577,-29.3278 78.3482,-25.3946"/>
</a>
</g>
</g>
<!-- Node5 -->
<g id="Node000005" class="node"><title>Node5</title>
<g id="a_Node000005"><a xlink:title=" ">
<polygon fill="#e0e0e0" stroke="#999999" points="161.5,-19 110.5,-19 110.5,-0 161.5,-0 161.5,-19"/>
<text text-anchor="middle" x="136" y="-7" font-family="Helvetica,sans-Serif" font-size="10.00">stddef.h</text>
</a>
</g>
</g>
<!-- Node3&#45;&gt;Node5 -->
<g id="edge4_Node000003_Node000005" class="edge"><title>Node3&#45;&gt;Node5</title>
<g id="a_edge4_Node000003_Node000005"><a xlink:title=" ">
<path fill="none" stroke="#63b8ff" d="M105.945,-54.7481C110.977,-47.339 118.337,-36.5042 124.513,-27.4107"/>
<polygon fill="#63b8ff" stroke="#63b8ff" points="127.442,-29.3278 130.166,-19.089 121.652,-25.3946 127.442,-29.3278"/>
</a>
</g>
</g>
</g>
</svg>
