<?xml version="1.0" encoding="UTF-8" standalone="no"?>
<!DOCTYPE svg PUBLIC "-//W3C//DTD SVG 1.1//EN"
 "http://www.w3.org/Graphics/SVG/1.1/DTD/svg11.dtd">
<!-- Generated by graphviz version 2.38.0 (20140413.2041)
 -->
<!-- Title: queue_init Pages: 1 -->
<svg width="259pt" height="46pt"
 viewBox="0.00 0.00 259.00 46.00" xmlns="http://www.w3.org/2000/svg" xmlns:xlink="http://www.w3.org/1999/xlink">
<g id="graph0" class="graph" transform="scale(1 1) rotate(0) translate(4 42)">
<title>queue_init</title>
<!-- Node1 -->
<g id="Node000001" class="node"><title>Node1</title>
<g id="a_Node000001"><a xlink:title="Inicializace prázdné fronty.">
<polygon fill="#999999" stroke="#666666" points="251,-38 190,-38 190,-19 251,-19 251,-38"/>
<text text-anchor="middle" x="220.5" y="-26" font-family="Helvetica,sans-Serif" font-size="10.00">queue_init</text>
</a>
</g>
</g>
<!-- Node2 -->
<g id="Node000002" class="node"><title>Node2</title>
<g id="a_Node000002"><a xlink:href="group___main_program.html#gae66f6b31b5ad750f1fe042a706a4e3d4" target="_top" xlink:title=" ">
<polygon fill="white" stroke="#666666" points="38,-38 0,-38 0,-19 38,-19 38,-38"/>
<text text-anchor="middle" x="19" y="-26" font-family="Helvetica,sans-Serif" font-size="10.00">main</text>
</a>
</g>
</g>
<!-- Node1&#45;&gt;Node2 -->
<g id="edge1_Node000001_Node000002" class="edge"><title>Node1&#45;&gt;Node2</title>
<g id="a_edge1_Node000001_Node000002"><a xlink:title=" ">
<path fill="none" stroke="#63b8ff" d="M179.5,-28.5C136.469,-28.5 69.9444,-28.5 38.1404,-28.5"/>
<polygon fill="#63b8ff" stroke="#63b8ff" points="179.633,-32.0001 189.633,-28.5 179.633,-25.0001 179.633,-32.0001"/>
</a>
</g>
</g>
<!-- Node3 -->
<g id="Node000003" class="node"><title>Node3</title>
<g id="a_Node000003"><a xlink:href="group___t_queue.html#ga85b3f0ae9d6f44ca6c102df1e0619dc9" target="_top" xlink:title="Deinicializace fronty.">
<polygon fill="white" stroke="#666666" points="154,-19 74,-19 74,-0 154,-0 154,-19"/>
<text text-anchor="middle" x="114" y="-7" font-family="Helvetica,sans-Serif" font-size="10.00">queue_destroy</text>
</a>
</g>
</g>
<!-- Node1&#45;&gt;Node3 -->
<g id="edge2_Node000001_Node000003" class="edge"><title>Node1&#45;&gt;Node3</title>
<g id="a_edge2_Node000001_Node000003"><a xlink:title=" ">
<path fill="none" stroke="#63b8ff" d="M179.847,-21.2904C171.419,-19.7579 162.525,-18.1409 154.116,-16.6121"/>
<polygon fill="#63b8ff" stroke="#63b8ff" points="179.369,-24.7608 189.834,-23.1062 180.621,-17.8737 179.369,-24.7608"/>
</a>
</g>
</g>
<!-- Node3&#45;&gt;Node2 -->
<g id="edge3_Node000003_Node000002" class="edge"><title>Node3&#45;&gt;Node2</title>
<g id="a_edge3_Node000003_Node000002"><a xlink:title=" ">
<path fill="none" stroke="#63b8ff" d="M63.9369,-19.5236C54.8067,-21.389 45.8086,-23.2273 38.3565,-24.7498"/>
<polygon fill="#63b8ff" stroke="#63b8ff" points="64.7322,-22.9336 73.8292,-17.5026 63.3309,-16.0752 64.7322,-22.9336"/>
</a>
</g>
</g>
</g>
</svg>
