<?xml version="1.0" encoding="UTF-8" standalone="no"?>
<!DOCTYPE svg PUBLIC "-//W3C//DTD SVG 1.1//EN"
 "http://www.w3.org/Graphics/SVG/1.1/DTD/svg11.dtd">
<!-- Generated by graphviz version 2.38.0 (20140413.2041)
 -->
<!-- Title: main.c Pages: 1 -->
<svg width="164pt" height="137pt"
 viewBox="0.00 0.00 163.50 137.00" xmlns="http://www.w3.org/2000/svg" xmlns:xlink="http://www.w3.org/1999/xlink">
<g id="graph0" class="graph" transform="scale(1 1) rotate(0) translate(4 133)">
<title>main.c</title>
<!-- Node1 -->
<g id="Node000001" class="node"><title>Node1</title>
<g id="a_Node000001"><a xlink:title="Hlavní program pro testování ADT TQueue.">
<polygon fill="#999999" stroke="#666666" points="81,-129 35,-129 35,-110 81,-110 81,-129"/>
<text text-anchor="middle" x="58" y="-117" font-family="Helvetica,sans-Serif" font-size="10.00">main.c</text>
</a>
</g>
</g>
<!-- Node2 -->
<g id="Node000002" class="node"><title>Node2</title>
<g id="a_Node000002"><a xlink:title=" ">
<polygon fill="#e0e0e0" stroke="#999999" points="46,-74 0,-74 0,-55 46,-55 46,-74"/>
<text text-anchor="middle" x="23" y="-62" font-family="Helvetica,sans-Serif" font-size="10.00">stdio.h</text>
</a>
</g>
</g>
<!-- Node1&#45;&gt;Node2 -->
<g id="edge1_Node000001_Node000002" class="edge"><title>Node1&#45;&gt;Node2</title>
<g id="a_edge1_Node000001_Node000002"><a xlink:title=" ">
<path fill="none" stroke="#63b8ff" d="M52.2205,-109.748C47.3786,-102.416 40.3214,-91.7295 34.3555,-82.6954"/>
<polygon fill="#63b8ff" stroke="#63b8ff" points="37.1033,-80.505 28.672,-74.089 31.262,-84.3624 37.1033,-80.505"/>
</a>
</g>
</g>
<!-- Node3 -->
<g id="Node000003" class="node"><title>Node3</title>
<g id="a_Node000003"><a xlink:href="_t_queue_8h.html" target="_top" xlink:title="Definice typu fronta (realizace pomocí kruhového pole)">
<polygon fill="white" stroke="#666666" points="123.5,-74 64.5,-74 64.5,-55 123.5,-55 123.5,-74"/>
<text text-anchor="middle" x="94" y="-62" font-family="Helvetica,sans-Serif" font-size="10.00">TQueue.h</text>
</a>
</g>
</g>
<!-- Node1&#45;&gt;Node3 -->
<g id="edge2_Node000001_Node000003" class="edge"><title>Node1&#45;&gt;Node3</title>
<g id="a_edge2_Node000001_Node000003"><a xlink:title=" ">
<path fill="none" stroke="#63b8ff" d="M63.9447,-109.748C68.9773,-102.339 76.3368,-91.5042 82.5135,-82.4107"/>
<polygon fill="#63b8ff" stroke="#63b8ff" points="85.4423,-84.3278 88.1659,-74.089 79.6518,-80.3946 85.4423,-84.3278"/>
</a>
</g>
</g>
<!-- Node4 -->
<g id="Node000004" class="node"><title>Node4</title>
<g id="a_Node000004"><a xlink:title=" ">
<polygon fill="#e0e0e0" stroke="#999999" points="86,-19 30,-19 30,-0 86,-0 86,-19"/>
<text text-anchor="middle" x="58" y="-7" font-family="Helvetica,sans-Serif" font-size="10.00">stdbool.h</text>
</a>
</g>
</g>
<!-- Node3&#45;&gt;Node4 -->
<g id="edge3_Node000003_Node000004" class="edge"><title>Node3&#45;&gt;Node4</title>
<g id="a_edge3_Node000003_Node000004"><a xlink:title=" ">
<path fill="none" stroke="#63b8ff" d="M88.0553,-54.7481C83.0227,-47.339 75.6632,-36.5042 69.4865,-27.4107"/>
<polygon fill="#63b8ff" stroke="#63b8ff" points="72.3482,-25.3946 63.8341,-19.089 66.5577,-29.3278 72.3482,-25.3946"/>
</a>
</g>
</g>
<!-- Node5 -->
<g id="Node000005" class="node"><title>Node5</title>
<g id="a_Node000005"><a xlink:title=" ">
<polygon fill="#e0e0e0" stroke="#999999" points="155.5,-19 104.5,-19 104.5,-0 155.5,-0 155.5,-19"/>
<text text-anchor="middle" x="130" y="-7" font-family="Helvetica,sans-Serif" font-size="10.00">stddef.h</text>
</a>
</g>
</g>
<!-- Node3&#45;&gt;Node5 -->
<g id="edge4_Node000003_Node000005" class="edge"><title>Node3&#45;&gt;Node5</title>
<g id="a_edge4_Node000003_Node000005"><a xlink:title=" ">
<path fill="none" stroke="#63b8ff" d="M99.9447,-54.7481C104.977,-47.339 112.337,-36.5042 118.513,-27.4107"/>
<polygon fill="#63b8ff" stroke="#63b8ff" points="121.442,-29.3278 124.166,-19.089 115.652,-25.3946 121.442,-29.3278"/>
</a>
</g>
</g>
</g>
</svg>
