<?xml version="1.0" encoding="UTF-8" standalone="no"?>
<!DOCTYPE svg PUBLIC "-//W3C//DTD SVG 1.1//EN"
 "http://www.w3.org/Graphics/SVG/1.1/DTD/svg11.dtd">
<!-- Generated by graphviz version 2.38.0 (20140413.2041)
 -->
<!-- Title: TQueueIterator Pages: 1 -->
<svg width="149pt" height="199pt"
 viewBox="0.00 0.00 149.00 199.00" xmlns="http://www.w3.org/2000/svg" xmlns:xlink="http://www.w3.org/1999/xlink">
<g id="graph0" class="graph" transform="scale(1 1) rotate(0) translate(4 195)">
<title>TQueueIterator</title>
<!-- Node1 -->
<g id="Node000001" class="node"><title>Node1</title>
<g id="a_Node000001"><a xlink:title="Definice typu QueueIterator.">
<polygon fill="#999999" stroke="#666666" points="115.5,-57 25.5,-57 25.5,-0 115.5,-0 115.5,-57"/>
<text text-anchor="start" x="38.5" y="-40.5" font-family="Helvetica,sans-Serif" font-size="10.00">TQueueIterator</text>
<text text-anchor="start" x="39" y="-25.5" font-family="Helvetica,sans-Serif" font-size="10.00">+</text>
<text text-anchor="start" x="51.5" y="-25.5" font-family="Helvetica,sans-Serif" font-size="10.00">size_t iPos</text>
<text text-anchor="start" x="68.5" y="-10.5" font-family="Helvetica,sans-Serif" font-size="10.00"> </text>
<polygon fill="#666666" stroke="#666666" points="33.5,-35.5 33.5,-35.5 107.5,-35.5 107.5,-35.5 33.5,-35.5"/>
<polygon fill="#666666" stroke="#666666" points="33.5,-20.5 33.5,-20.5 49.5,-20.5 49.5,-20.5 33.5,-20.5"/>
<polygon fill="#666666" stroke="#666666" points="49.5,-20.5 49.5,-20.5 107.5,-20.5 107.5,-20.5 49.5,-20.5"/>
<polygon fill="none" stroke="#666666" points="33.5,-4 33.5,-53 107.5,-53 107.5,-4 33.5,-4"/>
</a>
</g>
</g>
<!-- Node2 -->
<g id="Node000002" class="node"><title>Node2</title>
<g id="a_Node000002"><a xlink:href="group___t_queue.html#struct_t_queue" target="_top" xlink:title="Definice typu Queue.">
<polygon fill="white" stroke="#666666" points="141,-191 0,-191 0,-104 141,-104 141,-191"/>
<text text-anchor="start" x="54" y="-174.5" font-family="Helvetica,sans-Serif" font-size="10.00">TQueue</text>
<text text-anchor="start" x="12.5" y="-159.5" font-family="Helvetica,sans-Serif" font-size="10.00">+</text>
<text text-anchor="start" x="23.5" y="-159.5" font-family="Helvetica,sans-Serif" font-size="10.00">size_t iFrontPos</text>
<text text-anchor="start" x="12.5" y="-144.5" font-family="Helvetica,sans-Serif" font-size="10.00">+</text>
<text text-anchor="start" x="23.5" y="-144.5" font-family="Helvetica,sans-Serif" font-size="10.00">size_t iBackPos</text>
<text text-anchor="start" x="12.5" y="-129.5" font-family="Helvetica,sans-Serif" font-size="10.00">+</text>
<text text-anchor="start" x="23.5" y="-129.5" font-family="Helvetica,sans-Serif" font-size="10.00">TQueueElement iValues</text>
<text text-anchor="start" x="69" y="-114.5" font-family="Helvetica,sans-Serif" font-size="10.00"> </text>
<polygon fill="#666666" stroke="#666666" points="8.5,-169.5 8.5,-169.5 133.5,-169.5 133.5,-169.5 8.5,-169.5"/>
<polygon fill="#666666" stroke="#666666" points="8.5,-124.5 8.5,-124.5 21.5,-124.5 21.5,-124.5 8.5,-124.5"/>
<polygon fill="#666666" stroke="#666666" points="21.5,-124.5 21.5,-124.5 133.5,-124.5 133.5,-124.5 21.5,-124.5"/>
<polygon fill="none" stroke="#666666" points="8,-108 8,-187 133,-187 133,-108 8,-108"/>
</a>
</g>
</g>
<!-- Node2&#45;&gt;Node1 -->
<g id="edge1_Node000001_Node000002" class="edge"><title>Node2&#45;&gt;Node1</title>
<g id="a_edge1_Node000001_Node000002"><a xlink:title=" ">
<path fill="none" stroke="#63b8ff" d="M70.5,-103.929C70.5,-92.6309 70.5,-80.4744 70.5,-69.3282"/>
<polygon fill="none" stroke="#63b8ff" points="70.5001,-69.2726 66.5,-63.2726 70.5,-57.2726 74.5,-63.2725 70.5001,-69.2726"/>
</a>
</g>
<text text-anchor="middle" x="90.5" y="-78" font-family="Helvetica,sans-Serif" font-size="10.00" fill="grey"> +iQueue</text>
</g>
</g>
</svg>
