<?xml version="1.0" encoding="UTF-8" standalone="no"?>
<!DOCTYPE svg PUBLIC "-//W3C//DTD SVG 1.1//EN"
 "http://www.w3.org/Graphics/SVG/1.1/DTD/svg11.dtd">
<!-- Generated by graphviz version 2.38.0 (20140413.2041)
 -->
<!-- Title: TQueue Pages: 1 -->
<svg width="149pt" height="95pt"
 viewBox="0.00 0.00 149.00 95.00" xmlns="http://www.w3.org/2000/svg" xmlns:xlink="http://www.w3.org/1999/xlink">
<g id="graph0" class="graph" transform="scale(1 1) rotate(0) translate(4 91)">
<title>TQueue</title>
<!-- Node1 -->
<g id="Node000001" class="node"><title>Node1</title>
<g id="a_Node000001"><a xlink:title="Definice typu Queue.">
<polygon fill="#999999" stroke="#666666" points="141,-87 0,-87 0,-0 141,-0 141,-87"/>
<text text-anchor="start" x="54" y="-70.5" font-family="Helvetica,sans-Serif" font-size="10.00">TQueue</text>
<text text-anchor="start" x="12.5" y="-55.5" font-family="Helvetica,sans-Serif" font-size="10.00">+</text>
<text text-anchor="start" x="23.5" y="-55.5" font-family="Helvetica,sans-Serif" font-size="10.00">size_t iFrontPos</text>
<text text-anchor="start" x="12.5" y="-40.5" font-family="Helvetica,sans-Serif" font-size="10.00">+</text>
<text text-anchor="start" x="23.5" y="-40.5" font-family="Helvetica,sans-Serif" font-size="10.00">size_t iBackPos</text>
<text text-anchor="start" x="12.5" y="-25.5" font-family="Helvetica,sans-Serif" font-size="10.00">+</text>
<text text-anchor="start" x="23.5" y="-25.5" font-family="Helvetica,sans-Serif" font-size="10.00">TQueueElement iValues</text>
<text text-anchor="start" x="69" y="-10.5" font-family="Helvetica,sans-Serif" font-size="10.00"> </text>
<polygon fill="#666666" stroke="#666666" points="8.5,-65.5 8.5,-65.5 133.5,-65.5 133.5,-65.5 8.5,-65.5"/>
<polygon fill="#666666" stroke="#666666" points="8.5,-20.5 8.5,-20.5 21.5,-20.5 21.5,-20.5 8.5,-20.5"/>
<polygon fill="#666666" stroke="#666666" points="21.5,-20.5 21.5,-20.5 133.5,-20.5 133.5,-20.5 21.5,-20.5"/>
<polygon fill="none" stroke="#666666" points="8,-4 8,-83 133,-83 133,-4 8,-4"/>
</a>
</g>
</g>
</g>
</svg>
