<?xml version="1.0" encoding="UTF-8" standalone="no"?>
<!DOCTYPE svg PUBLIC "-//W3C//DTD SVG 1.1//EN"
 "http://www.w3.org/Graphics/SVG/1.1/DTD/svg11.dtd">
<!-- Generated by graphviz version 2.38.0 (20140413.2041)
 -->
<!-- Title: TVector.h Pages: 1 -->
<svg width="132pt" height="82pt"
 viewBox="0.00 0.00 131.50 82.00" xmlns="http://www.w3.org/2000/svg" xmlns:xlink="http://www.w3.org/1999/xlink">
<g id="graph0" class="graph" transform="scale(1 1) rotate(0) translate(4 78)">
<title>TVector.h</title>
<!-- Node1 -->
<g id="Node000001" class="node"><title>Node1</title>
<g id="a_Node000001"><a xlink:title="Definice typu Basic Vector.">
<polygon fill="#999999" stroke="#666666" points="94,-74 35,-74 35,-55 94,-55 94,-74"/>
<text text-anchor="middle" x="64.5" y="-62" font-family="Helvetica,sans-Serif" font-size="10.00">TVector.h</text>
</a>
</g>
</g>
<!-- Node2 -->
<g id="Node000002" class="node"><title>Node2</title>
<g id="a_Node000002"><a xlink:href="_t_vector_8c.html" target="_top" xlink:title="Implementace Basic Vector API.">
<polygon fill="white" stroke="#666666" points="59,-19 0,-19 0,-0 59,-0 59,-19"/>
<text text-anchor="middle" x="29.5" y="-7" font-family="Helvetica,sans-Serif" font-size="10.00">TVector.c</text>
</a>
</g>
</g>
<!-- Node1&#45;&gt;Node2 -->
<g id="edge1_Node000001_Node000002" class="edge"><title>Node1&#45;&gt;Node2</title>
<g id="a_edge1_Node000001_Node000002"><a xlink:title=" ">
<path fill="none" stroke="#63b8ff" d="M53.1999,-46.3885C47.1781,-37.2697 40.0314,-26.4475 35.172,-19.089"/>
<polygon fill="#63b8ff" stroke="#63b8ff" points="50.2892,-48.3322 58.7205,-54.7481 56.1304,-44.4747 50.2892,-48.3322"/>
</a>
</g>
</g>
<!-- Node3 -->
<g id="Node000003" class="node"><title>Node3</title>
<g id="a_Node000003"><a xlink:href="main_8c.html" target="_top" xlink:title="Hlavní program testující Basic Vector API.">
<polygon fill="white" stroke="#666666" points="123.5,-19 77.5,-19 77.5,-0 123.5,-0 123.5,-19"/>
<text text-anchor="middle" x="100.5" y="-7" font-family="Helvetica,sans-Serif" font-size="10.00">main.c</text>
</a>
</g>
</g>
<!-- Node1&#45;&gt;Node3 -->
<g id="edge2_Node000001_Node000003" class="edge"><title>Node1&#45;&gt;Node3</title>
<g id="a_edge2_Node000001_Node000003"><a xlink:title=" ">
<path fill="none" stroke="#63b8ff" d="M76.1229,-46.3885C82.3168,-37.2697 89.6677,-26.4475 94.6659,-19.089"/>
<polygon fill="#63b8ff" stroke="#63b8ff" points="73.1683,-44.5093 70.4447,-54.7481 78.9588,-48.4425 73.1683,-44.5093"/>
</a>
</g>
</g>
</g>
</svg>
