<?xml version="1.0" encoding="UTF-8" standalone="no"?>
<!DOCTYPE svg PUBLIC "-//W3C//DTD SVG 1.1//EN"
 "http://www.w3.org/Graphics/SVG/1.1/DTD/svg11.dtd">
<!-- Generated by graphviz version 2.38.0 (20140413.2041)
 -->
<!-- Title: vector_iterator_is_valid Pages: 1 -->
<svg width="369pt" height="213pt"
 viewBox="0.00 0.00 369.00 212.64" xmlns="http://www.w3.org/2000/svg" xmlns:xlink="http://www.w3.org/1999/xlink">
<g id="graph0" class="graph" transform="scale(1 1) rotate(0) translate(4 208.638)">
<title>vector_iterator_is_valid</title>
<!-- Node1 -->
<g id="Node000001" class="node"><title>Node1</title>
<g id="a_Node000001"><a xlink:title="Zjištění platnosti iterátoru.">
<polygon fill="#999999" stroke="#666666" points="361,-120.5 271,-120.5 271,-90.5 361,-90.5 361,-120.5"/>
<text text-anchor="start" x="279" y="-108.5" font-family="Helvetica,sans-Serif" font-size="10.00">vector_iterator_is</text>
<text text-anchor="middle" x="316" y="-97.5" font-family="Helvetica,sans-Serif" font-size="10.00">_valid</text>
</a>
</g>
</g>
<!-- Node2 -->
<g id="Node000002" class="node"><title>Node2</title>
<g id="a_Node000002"><a xlink:href="group___iterator_algorithms.html#gad9872ced82843c0e0864a8e2547ca579" target="_top" xlink:title="Zavolání zvolené funkce na každý element vektoru od pozice určené iterátorem až do konce vektoru.">
<polygon fill="white" stroke="#666666" points="84,-199 0,-199 0,-180 84,-180 84,-199"/>
<text text-anchor="middle" x="42" y="-187" font-family="Helvetica,sans-Serif" font-size="10.00">vector_for_each</text>
</a>
</g>
</g>
<!-- Node1&#45;&gt;Node2 -->
<g id="edge1_Node000001_Node000002" class="edge"><title>Node1&#45;&gt;Node2</title>
<g id="a_edge1_Node000001_Node000002"><a xlink:title=" ">
<path fill="none" stroke="#63b8ff" d="M300.646,-128.988C286.721,-149.3 263.54,-177.268 235,-189.5 186.439,-210.312 124.409,-205.353 84.2048,-198.557"/>
<polygon fill="#63b8ff" stroke="#63b8ff" points="303.627,-130.825 306.207,-120.549 297.782,-126.973 303.627,-130.825"/>
</a>
</g>
</g>
<!-- Node3 -->
<g id="Node000003" class="node"><title>Node3</title>
<g id="a_Node000003"><a xlink:href="group___iterator_algorithms.html#gac5ae89ba507530f7c51c45447efbe4ac" target="_top" xlink:title="Zavolání zvolené funkce na prvních N elementů vektoru od pozice určené iterátorem.">
<polygon fill="white" stroke="#666666" points="76,-128 8,-128 8,-109 76,-109 76,-128"/>
<text text-anchor="middle" x="42" y="-116" font-family="Helvetica,sans-Serif" font-size="10.00">vector_for_n</text>
</a>
</g>
</g>
<!-- Node1&#45;&gt;Node3 -->
<g id="edge2_Node000001_Node000003" class="edge"><title>Node1&#45;&gt;Node3</title>
<g id="a_edge2_Node000001_Node000003"><a xlink:title=" ">
<path fill="none" stroke="#63b8ff" d="M260.608,-101.854C221.421,-99.979 167.331,-98.9328 120,-103.5 105.495,-104.9 89.6632,-107.75 76.1481,-110.593"/>
<polygon fill="#63b8ff" stroke="#63b8ff" points="260.575,-105.357 270.741,-102.373 260.933,-98.3659 260.575,-105.357"/>
</a>
</g>
</g>
<!-- Node4 -->
<g id="Node000004" class="node"><title>Node4</title>
<g id="a_Node000004"><a xlink:href="group___t_vector_iterator.html#ga66f6b96e416a7e593b1cf703f58be7ca" target="_top" xlink:title="Zapsání hodnoty elementu do vektoru pomocí iterátoru.">
<polygon fill="white" stroke="#666666" points="225.5,-142.5 129.5,-142.5 129.5,-112.5 225.5,-112.5 225.5,-142.5"/>
<text text-anchor="start" x="137.5" y="-130.5" font-family="Helvetica,sans-Serif" font-size="10.00">vector_iterator_set</text>
<text text-anchor="middle" x="177.5" y="-119.5" font-family="Helvetica,sans-Serif" font-size="10.00">_value</text>
</a>
</g>
</g>
<!-- Node1&#45;&gt;Node4 -->
<g id="edge3_Node000001_Node000004" class="edge"><title>Node1&#45;&gt;Node4</title>
<g id="a_edge3_Node000001_Node000004"><a xlink:title=" ">
<path fill="none" stroke="#63b8ff" d="M260.734,-114.246C249.21,-116.103 237.131,-118.05 225.888,-119.862"/>
<polygon fill="#63b8ff" stroke="#63b8ff" points="261.367,-117.689 270.682,-112.643 260.253,-110.779 261.367,-117.689"/>
</a>
</g>
</g>
<!-- Node5 -->
<g id="Node000005" class="node"><title>Node5</title>
<g id="a_Node000005"><a xlink:href="group___t_vector_iterator.html#ga7ce07cda016d67e3ca891125613ece56" target="_top" xlink:title="Posunutí iterátoru vpřed.">
<polygon fill="white" stroke="#666666" points="235,-180 120,-180 120,-161 235,-161 235,-180"/>
<text text-anchor="middle" x="177.5" y="-168" font-family="Helvetica,sans-Serif" font-size="10.00">vector_iterator_to_next</text>
</a>
</g>
</g>
<!-- Node1&#45;&gt;Node5 -->
<g id="edge4_Node000001_Node000005" class="edge"><title>Node1&#45;&gt;Node5</title>
<g id="a_edge4_Node000001_Node000005"><a xlink:title=" ">
<path fill="none" stroke="#63b8ff" d="M282.585,-126.087C268.329,-134.625 251.178,-144.215 235,-151.5 227.262,-154.984 218.685,-158.186 210.599,-160.929"/>
<polygon fill="#63b8ff" stroke="#63b8ff" points="284.773,-128.852 291.495,-120.663 281.134,-122.873 284.773,-128.852"/>
</a>
</g>
</g>
<!-- Node6 -->
<g id="Node000006" class="node"><title>Node6</title>
<g id="a_Node000006"><a xlink:href="group___t_vector_iterator.html#ga8e1e1cc570f8a1c2bf1fb73c0d3c8826" target="_top" xlink:title="Posunutí iterátoru vzad.">
<polygon fill="white" stroke="#666666" points="234,-56 121,-56 121,-37 234,-37 234,-56"/>
<text text-anchor="middle" x="177.5" y="-44" font-family="Helvetica,sans-Serif" font-size="10.00">vector_iterator_to_prev</text>
</a>
</g>
</g>
<!-- Node1&#45;&gt;Node6 -->
<g id="edge7_Node000001_Node000006" class="edge"><title>Node1&#45;&gt;Node6</title>
<g id="a_edge7_Node000001_Node000006"><a xlink:title=" ">
<path fill="none" stroke="#63b8ff" d="M271.532,-86.3819C259.694,-81.2026 246.864,-75.6147 235,-70.5 223.843,-65.6901 211.419,-60.4047 201.068,-56.0212"/>
<polygon fill="#63b8ff" stroke="#63b8ff" points="270.213,-89.6248 280.777,-90.4312 273.021,-83.2129 270.213,-89.6248"/>
</a>
</g>
</g>
<!-- Node7 -->
<g id="Node000007" class="node"><title>Node7</title>
<g id="a_Node000007"><a xlink:href="group___t_vector_iterator.html#ga4d8032eb9dbbdccf794611f2b0c9821c" target="_top" xlink:title="Přečtení hodnoty elementu z vektoru pomocí iterátoru.">
<polygon fill="white" stroke="#666666" points="229.5,-19 125.5,-19 125.5,-0 229.5,-0 229.5,-19"/>
<text text-anchor="middle" x="177.5" y="-7" font-family="Helvetica,sans-Serif" font-size="10.00">vector_iterator_value</text>
</a>
</g>
</g>
<!-- Node1&#45;&gt;Node7 -->
<g id="edge8_Node000001_Node000007" class="edge"><title>Node1&#45;&gt;Node7</title>
<g id="a_edge8_Node000001_Node000007"><a xlink:title=" ">
<path fill="none" stroke="#63b8ff" d="M296.596,-82.4718C281.651,-65.1509 259.155,-41.9984 235,-27.5 229.439,-24.1622 223.193,-21.3772 216.937,-19.0749"/>
<polygon fill="#63b8ff" stroke="#63b8ff" points="294.185,-85.0427 303.3,-90.4429 299.542,-80.537 294.185,-85.0427"/>
</a>
</g>
</g>
<!-- Node5&#45;&gt;Node2 -->
<g id="edge5_Node000005_Node000002" class="edge"><title>Node5&#45;&gt;Node2</title>
<g id="a_edge5_Node000005_Node000002"><a xlink:title=" ">
<path fill="none" stroke="#63b8ff" d="M109.74,-180.001C101.07,-181.235 92.3995,-182.469 84.3146,-183.62"/>
<polygon fill="#63b8ff" stroke="#63b8ff" points="110.477,-183.432 119.884,-178.558 109.491,-176.502 110.477,-183.432"/>
</a>
</g>
</g>
<!-- Node5&#45;&gt;Node3 -->
<g id="edge6_Node000005_Node000003" class="edge"><title>Node5&#45;&gt;Node3</title>
<g id="a_edge6_Node000005_Node000003"><a xlink:title=" ">
<path fill="none" stroke="#63b8ff" d="M137.151,-157.721C131.372,-155.714 125.512,-153.604 120,-151.5 100.841,-144.187 79.4284,-134.919 64.0564,-128.068"/>
<polygon fill="#63b8ff" stroke="#63b8ff" points="136.129,-161.071 146.724,-160.986 138.389,-154.446 136.129,-161.071"/>
</a>
</g>
</g>
<!-- Node8 -->
<g id="Node000008" class="node"><title>Node8</title>
<g id="a_Node000008"><a xlink:href="group___main_program.html#ga25c7ac8991c266d71b75cf20c14b67cf" target="_top" xlink:title="Vytisknutí elementu vektoru pomocí iterátoru.">
<polygon fill="white" stroke="#666666" points="79.5,-19 4.5,-19 4.5,-0 79.5,-0 79.5,-19"/>
<text text-anchor="middle" x="42" y="-7" font-family="Helvetica,sans-Serif" font-size="10.00">print_element</text>
</a>
</g>
</g>
<!-- Node7&#45;&gt;Node8 -->
<g id="edge9_Node000007_Node000008" class="edge"><title>Node7&#45;&gt;Node8</title>
<g id="a_edge9_Node000007_Node000008"><a xlink:title=" ">
<path fill="none" stroke="#63b8ff" d="M115.2,-9.5C103.106,-9.5 90.7718,-9.5 79.7997,-9.5"/>
<polygon fill="#63b8ff" stroke="#63b8ff" points="115.267,-13.0001 125.267,-9.5 115.267,-6.0001 115.267,-13.0001"/>
</a>
</g>
</g>
</g>
</svg>
