<?xml version="1.0" encoding="UTF-8" standalone="no"?>
<!DOCTYPE svg PUBLIC "-//W3C//DTD SVG 1.1//EN"
 "http://www.w3.org/Graphics/SVG/1.1/DTD/svg11.dtd">
<!-- Generated by graphviz version 2.38.0 (20140413.2041)
 -->
<!-- Title: resize_testing Pages: 1 -->
<svg width="201pt" height="138pt"
 viewBox="0.00 0.00 201.00 138.00" xmlns="http://www.w3.org/2000/svg" xmlns:xlink="http://www.w3.org/1999/xlink">
<g id="graph0" class="graph" transform="scale(1 1) rotate(0) translate(4 134)">
<title>resize_testing</title>
<!-- Node1 -->
<g id="Node000001" class="node"><title>Node1</title>
<g id="a_Node000001"><a xlink:title="Testování funkce vector_resize()">
<polygon fill="#999999" stroke="#666666" points="77,-74 0,-74 0,-55 77,-55 77,-74"/>
<text text-anchor="middle" x="38.5" y="-62" font-family="Helvetica,sans-Serif" font-size="10.00">resize_testing</text>
</a>
</g>
</g>
<!-- Node2 -->
<g id="Node000002" class="node"><title>Node2</title>
<g id="a_Node000002"><a xlink:href="main__support_8h.html#aa291195ad453d2b1e29004cc2e043c01" target="_top" xlink:title="Výpočet doby trvání časového intervalu.">
<polygon fill="white" stroke="#666666" points="187,-130 119,-130 119,-111 187,-111 187,-130"/>
<text text-anchor="middle" x="153" y="-118" font-family="Helvetica,sans-Serif" font-size="10.00">difftimespec</text>
</a>
</g>
</g>
<!-- Node1&#45;&gt;Node2 -->
<g id="edge1_Node000001_Node000002" class="edge"><title>Node1&#45;&gt;Node2</title>
<g id="a_edge1_Node000001_Node000002"><a xlink:title=" ">
<path fill="none" stroke="#63b8ff" d="M57.5091,-74.0967C72.3193,-81.9196 93.9008,-93.1611 113,-102.5 115.791,-103.865 118.706,-105.262 121.631,-106.644"/>
<polygon fill="#63b8ff" stroke="#63b8ff" points="120.327,-109.898 130.869,-110.956 123.287,-103.555 120.327,-109.898"/>
</a>
</g>
</g>
<!-- Node3 -->
<g id="Node000003" class="node"><title>Node3</title>
<g id="a_Node000003"><a xlink:href="group___t_vector.html#ga6b0b8780d60dad02b8569be119769548" target="_top" xlink:title="Vytvoření úplné kopie vektoru.">
<polygon fill="white" stroke="#666666" points="188.5,-93 117.5,-93 117.5,-74 188.5,-74 188.5,-93"/>
<text text-anchor="middle" x="153" y="-81" font-family="Helvetica,sans-Serif" font-size="10.00">vector_clone</text>
</a>
</g>
</g>
<!-- Node1&#45;&gt;Node3 -->
<g id="edge2_Node000001_Node000003" class="edge"><title>Node1&#45;&gt;Node3</title>
<g id="a_edge2_Node000001_Node000003"><a xlink:title=" ">
<path fill="none" stroke="#63b8ff" d="M77.2738,-70.8796C86.8438,-72.4958 97.2164,-74.2477 107.101,-75.9171"/>
<polygon fill="#63b8ff" stroke="#63b8ff" points="106.728,-79.4035 117.171,-77.6178 107.894,-72.5013 106.728,-79.4035"/>
</a>
</g>
</g>
<!-- Node4 -->
<g id="Node000004" class="node"><title>Node4</title>
<g id="a_Node000004"><a xlink:href="group___t_vector.html#ga41fcff5418fe213f2caaa586f521bcd6" target="_top" xlink:title="Dealokace vektoru.">
<polygon fill="white" stroke="#666666" points="193,-56 113,-56 113,-37 193,-37 193,-56"/>
<text text-anchor="middle" x="153" y="-44" font-family="Helvetica,sans-Serif" font-size="10.00">vector_destroy</text>
</a>
</g>
</g>
<!-- Node1&#45;&gt;Node4 -->
<g id="edge3_Node000001_Node000004" class="edge"><title>Node1&#45;&gt;Node4</title>
<g id="a_edge3_Node000001_Node000004"><a xlink:title=" ">
<path fill="none" stroke="#63b8ff" d="M77.2738,-58.4562C85.5322,-57.1348 94.3883,-55.7179 103.013,-54.338"/>
<polygon fill="#63b8ff" stroke="#63b8ff" points="103.66,-57.7791 112.981,-52.743 102.554,-50.867 103.66,-57.7791"/>
</a>
</g>
</g>
<!-- Node5 -->
<g id="Node000005" class="node"><title>Node5</title>
<g id="a_Node000005"><a xlink:href="group___t_vector.html#gabf502ae8257c371ab9c7fb95a242ccb2" target="_top" xlink:title="Změna velikosti existujícího vektoru.">
<polygon fill="white" stroke="#666666" points="190,-19 116,-19 116,-0 190,-0 190,-19"/>
<text text-anchor="middle" x="153" y="-7" font-family="Helvetica,sans-Serif" font-size="10.00">vector_resize</text>
</a>
</g>
</g>
<!-- Node1&#45;&gt;Node5 -->
<g id="edge4_Node000001_Node000005" class="edge"><title>Node1&#45;&gt;Node5</title>
<g id="a_edge4_Node000001_Node000005"><a xlink:title=" ">
<path fill="none" stroke="#63b8ff" d="M59.1482,-54.8624C73.9487,-47.6061 94.7432,-37.4182 113,-28.5 116.21,-26.9318 119.57,-25.2924 122.913,-23.662"/>
<polygon fill="#63b8ff" stroke="#63b8ff" points="124.7,-26.685 132.156,-19.1577 121.633,-20.3925 124.7,-26.685"/>
</a>
</g>
</g>
</g>
</svg>
