<?xml version="1.0" encoding="UTF-8" standalone="no"?>
<!DOCTYPE svg PUBLIC "-//W3C//DTD SVG 1.1//EN"
 "http://www.w3.org/Graphics/SVG/1.1/DTD/svg11.dtd">
<!-- Generated by graphviz version 2.38.0 (20140413.2041)
 -->
<!-- Title: main Pages: 1 -->
<svg width="317pt" height="250pt"
 viewBox="0.00 0.00 317.00 250.00" xmlns="http://www.w3.org/2000/svg" xmlns:xlink="http://www.w3.org/1999/xlink">
<g id="graph0" class="graph" transform="scale(1 1) rotate(0) translate(4 246)">
<title>main</title>
<!-- Node1 -->
<g id="Node000001" class="node"><title>Node1</title>
<g id="a_Node000001"><a xlink:title=" ">
<polygon fill="#999999" stroke="#666666" points="38,-93 0,-93 0,-74 38,-74 38,-93"/>
<text text-anchor="middle" x="19" y="-81" font-family="Helvetica,sans-Serif" font-size="10.00">main</text>
</a>
</g>
</g>
<!-- Node2 -->
<g id="Node000002" class="node"><title>Node2</title>
<g id="a_Node000002"><a xlink:href="group___main_program.html#ga389209d8bde0a8922177efb8ed7a22a6" target="_top" xlink:title="Testování funkce vector_resize()">
<polygon fill="white" stroke="#666666" points="151,-169 74,-169 74,-150 151,-150 151,-169"/>
<text text-anchor="middle" x="112.5" y="-157" font-family="Helvetica,sans-Serif" font-size="10.00">resize_testing</text>
</a>
</g>
</g>
<!-- Node1&#45;&gt;Node2 -->
<g id="edge1_Node000001_Node000002" class="edge"><title>Node1&#45;&gt;Node2</title>
<g id="a_edge1_Node000001_Node000002"><a xlink:title=" ">
<path fill="none" stroke="#63b8ff" d="M29.0404,-93.3004C39.368,-104.227 57.0377,-122.119 74,-135.5 77.8915,-138.57 82.1863,-141.608 86.4383,-144.437"/>
<polygon fill="#63b8ff" stroke="#63b8ff" points="84.6539,-147.45 94.9629,-149.895 88.4283,-141.555 84.6539,-147.45"/>
</a>
</g>
</g>
<!-- Node5 -->
<g id="Node000005" class="node"><title>Node5</title>
<g id="a_Node000005"><a xlink:href="group___t_vector.html#ga41fcff5418fe213f2caaa586f521bcd6" target="_top" xlink:title="Dealokace vektoru.">
<polygon fill="white" stroke="#666666" points="288,-131 208,-131 208,-112 288,-112 288,-131"/>
<text text-anchor="middle" x="248" y="-119" font-family="Helvetica,sans-Serif" font-size="10.00">vector_destroy</text>
</a>
</g>
</g>
<!-- Node1&#45;&gt;Node5 -->
<g id="edge6_Node000001_Node000005" class="edge"><title>Node1&#45;&gt;Node5</title>
<g id="a_edge6_Node000001_Node000005"><a xlink:title=" ">
<path fill="none" stroke="#63b8ff" d="M38.1869,-91.0721C48.5179,-95.074 61.7901,-99.7201 74,-102.5 114.984,-111.831 162.51,-116.631 197.367,-119.07"/>
<polygon fill="#63b8ff" stroke="#63b8ff" points="197.548,-122.589 207.756,-119.753 198.008,-115.604 197.548,-122.589"/>
</a>
</g>
</g>
<!-- Node7 -->
<g id="Node000007" class="node"><title>Node7</title>
<g id="a_Node000007"><a xlink:href="group___t_vector.html#gac0009a6c19dd42237bbb6af9897f2e44" target="_top" xlink:title="Alokace vektoru a inicializace jeho elementů ze souboru.">
<polygon fill="white" stroke="#666666" points="151,-93 74,-93 74,-74 151,-74 151,-93"/>
<text text-anchor="middle" x="112.5" y="-81" font-family="Helvetica,sans-Serif" font-size="10.00">vector_init_file</text>
</a>
</g>
</g>
<!-- Node1&#45;&gt;Node7 -->
<g id="edge7_Node000001_Node000007" class="edge"><title>Node1&#45;&gt;Node7</title>
<g id="a_edge7_Node000001_Node000007"><a xlink:title=" ">
<path fill="none" stroke="#63b8ff" d="M38.0775,-83.5C45.4942,-83.5 54.4652,-83.5 63.5521,-83.5"/>
<polygon fill="#63b8ff" stroke="#63b8ff" points="63.7841,-87.0001 73.7841,-83.5 63.7841,-80.0001 63.7841,-87.0001"/>
</a>
</g>
</g>
<!-- Node9 -->
<g id="Node000009" class="node"><title>Node9</title>
<g id="a_Node000009"><a xlink:href="group___t_vector.html#ga2502e6ec116dbac5e49f5b62b07dc898" target="_top" xlink:title="Přečtení počtu elementů vektoru.">
<polygon fill="white" stroke="#666666" points="145,-56 80,-56 80,-37 145,-37 145,-56"/>
<text text-anchor="middle" x="112.5" y="-44" font-family="Helvetica,sans-Serif" font-size="10.00">vector_size</text>
</a>
</g>
</g>
<!-- Node1&#45;&gt;Node9 -->
<g id="edge9_Node000001_Node000009" class="edge"><title>Node1&#45;&gt;Node9</title>
<g id="a_edge9_Node000001_Node000009"><a xlink:title=" ">
<path fill="none" stroke="#63b8ff" d="M38.0775,-76.19C49.5607,-71.5465 64.7697,-65.3964 78.366,-59.8985"/>
<polygon fill="#63b8ff" stroke="#63b8ff" points="79.9463,-63.0348 87.9049,-56.0412 77.322,-56.5453 79.9463,-63.0348"/>
</a>
</g>
</g>
<!-- Node10 -->
<g id="Node000010" class="node"><title>Node10</title>
<g id="a_Node000010"><a xlink:href="group___t_vector.html#ga2b08236d9825632cd96bcc89faed929c" target="_top" xlink:title="Přečtení hodnoty elementu z vektoru na požadované pozici.">
<polygon fill="white" stroke="#666666" points="147,-19 78,-19 78,-0 147,-0 147,-19"/>
<text text-anchor="middle" x="112.5" y="-7" font-family="Helvetica,sans-Serif" font-size="10.00">vector_value</text>
</a>
</g>
</g>
<!-- Node1&#45;&gt;Node10 -->
<g id="edge10_Node000001_Node000010" class="edge"><title>Node1&#45;&gt;Node10</title>
<g id="a_edge10_Node000001_Node000010"><a xlink:title=" ">
<path fill="none" stroke="#63b8ff" d="M27.5439,-73.7624C37.2654,-61.7058 55.1685,-41.1023 74,-27.5 75.6245,-26.3266 77.3375,-25.1961 79.1006,-24.1129"/>
<polygon fill="#63b8ff" stroke="#63b8ff" points="81.0946,-27.0101 88.1573,-19.1128 77.7113,-20.882 81.0946,-27.0101"/>
</a>
</g>
</g>
<!-- Node3 -->
<g id="Node000003" class="node"><title>Node3</title>
<g id="a_Node000003"><a xlink:href="main__support_8h.html#aa291195ad453d2b1e29004cc2e043c01" target="_top" xlink:title="Výpočet doby trvání časového intervalu.">
<polygon fill="white" stroke="#666666" points="282,-242 214,-242 214,-223 282,-223 282,-242"/>
<text text-anchor="middle" x="248" y="-230" font-family="Helvetica,sans-Serif" font-size="10.00">difftimespec</text>
</a>
</g>
</g>
<!-- Node2&#45;&gt;Node3 -->
<g id="edge2_Node000002_Node000003" class="edge"><title>Node2&#45;&gt;Node3</title>
<g id="a_edge2_Node000002_Node000003"><a xlink:title=" ">
<path fill="none" stroke="#63b8ff" d="M124.141,-169.393C137.757,-181.574 162.522,-202.16 187,-214.5 192.35,-217.197 198.177,-219.567 204.026,-221.626"/>
<polygon fill="#63b8ff" stroke="#63b8ff" points="203.221,-225.044 213.813,-224.799 205.38,-218.385 203.221,-225.044"/>
</a>
</g>
</g>
<!-- Node4 -->
<g id="Node000004" class="node"><title>Node4</title>
<g id="a_Node000004"><a xlink:href="group___t_vector.html#ga6b0b8780d60dad02b8569be119769548" target="_top" xlink:title="Vytvoření úplné kopie vektoru.">
<polygon fill="white" stroke="#666666" points="283.5,-205 212.5,-205 212.5,-186 283.5,-186 283.5,-205"/>
<text text-anchor="middle" x="248" y="-193" font-family="Helvetica,sans-Serif" font-size="10.00">vector_clone</text>
</a>
</g>
</g>
<!-- Node2&#45;&gt;Node4 -->
<g id="edge3_Node000002_Node000004" class="edge"><title>Node2&#45;&gt;Node4</title>
<g id="a_edge3_Node000002_Node000004"><a xlink:title=" ">
<path fill="none" stroke="#63b8ff" d="M148.925,-169.053C165.327,-173.476 184.991,-178.779 202.392,-183.471"/>
<polygon fill="#63b8ff" stroke="#63b8ff" points="201.768,-186.927 212.334,-186.152 203.59,-180.169 201.768,-186.927"/>
</a>
</g>
</g>
<!-- Node2&#45;&gt;Node5 -->
<g id="edge4_Node000002_Node000005" class="edge"><title>Node2&#45;&gt;Node5</title>
<g id="a_edge4_Node000002_Node000005"><a xlink:title=" ">
<path fill="none" stroke="#63b8ff" d="M147.188,-149.911C164.263,-145.051 185.2,-139.091 203.482,-133.887"/>
<polygon fill="#63b8ff" stroke="#63b8ff" points="204.663,-137.19 213.323,-131.086 202.747,-130.457 204.663,-137.19"/>
</a>
</g>
</g>
<!-- Node6 -->
<g id="Node000006" class="node"><title>Node6</title>
<g id="a_Node000006"><a xlink:href="group___t_vector.html#gabf502ae8257c371ab9c7fb95a242ccb2" target="_top" xlink:title="Změna velikosti existujícího vektoru.">
<polygon fill="white" stroke="#666666" points="285,-168 211,-168 211,-149 285,-149 285,-168"/>
<text text-anchor="middle" x="248" y="-156" font-family="Helvetica,sans-Serif" font-size="10.00">vector_resize</text>
</a>
</g>
</g>
<!-- Node2&#45;&gt;Node6 -->
<g id="edge5_Node000002_Node000006" class="edge"><title>Node2&#45;&gt;Node6</title>
<g id="a_edge5_Node000002_Node000006"><a xlink:title=" ">
<path fill="none" stroke="#63b8ff" d="M151.042,-159.219C166.352,-159.104 184.215,-158.97 200.35,-158.849"/>
<polygon fill="#63b8ff" stroke="#63b8ff" points="200.686,-162.347 210.66,-158.772 200.634,-155.347 200.686,-162.347"/>
</a>
</g>
</g>
<!-- Node8 -->
<g id="Node000008" class="node"><title>Node8</title>
<g id="a_Node000008"><a xlink:href="group___t_vector_element.html#gaf9a34133c2292f807fe184c72fd3f8d8" target="_top" xlink:title="Načtení elementu ze souboru.">
<polygon fill="white" stroke="#666666" points="309,-93 187,-93 187,-74 309,-74 309,-93"/>
<text text-anchor="middle" x="248" y="-81" font-family="Helvetica,sans-Serif" font-size="10.00">vector_element_load_file</text>
</a>
</g>
</g>
<!-- Node7&#45;&gt;Node8 -->
<g id="edge8_Node000007_Node000008" class="edge"><title>Node7&#45;&gt;Node8</title>
<g id="a_edge8_Node000007_Node000008"><a xlink:title=" ">
<path fill="none" stroke="#63b8ff" d="M151.042,-83.5C159.111,-83.5 167.889,-83.5 176.75,-83.5"/>
<polygon fill="#63b8ff" stroke="#63b8ff" points="176.755,-87.0001 186.755,-83.5 176.755,-80.0001 176.755,-87.0001"/>
</a>
</g>
</g>
</g>
</svg>
