<?xml version="1.0" encoding="UTF-8" standalone="no"?>
<!DOCTYPE svg PUBLIC "-//W3C//DTD SVG 1.1//EN"
 "http://www.w3.org/Graphics/SVG/1.1/DTD/svg11.dtd">
<!-- Generated by graphviz version 2.38.0 (20140413.2041)
 -->
<!-- Title: difftimespec Pages: 1 -->
<svg width="263pt" height="27pt"
 viewBox="0.00 0.00 263.00 27.00" xmlns="http://www.w3.org/2000/svg" xmlns:xlink="http://www.w3.org/1999/xlink">
<g id="graph0" class="graph" transform="scale(1 1) rotate(0) translate(4 23)">
<title>difftimespec</title>
<!-- Node1 -->
<g id="Node000001" class="node"><title>Node1</title>
<g id="a_Node000001"><a xlink:title="Výpočet doby trvání časového intervalu.">
<polygon fill="#999999" stroke="#666666" points="255,-19 187,-19 187,-0 255,-0 255,-19"/>
<text text-anchor="middle" x="221" y="-7" font-family="Helvetica,sans-Serif" font-size="10.00">difftimespec</text>
</a>
</g>
</g>
<!-- Node2 -->
<g id="Node000002" class="node"><title>Node2</title>
<g id="a_Node000002"><a xlink:href="group___main_program.html#ga389209d8bde0a8922177efb8ed7a22a6" target="_top" xlink:title="Testování funkce vector_resize()">
<polygon fill="white" stroke="#666666" points="151,-19 74,-19 74,-0 151,-0 151,-19"/>
<text text-anchor="middle" x="112.5" y="-7" font-family="Helvetica,sans-Serif" font-size="10.00">resize_testing</text>
</a>
</g>
</g>
<!-- Node1&#45;&gt;Node2 -->
<g id="edge1_Node000001_Node000002" class="edge"><title>Node1&#45;&gt;Node2</title>
<g id="a_edge1_Node000001_Node000002"><a xlink:title=" ">
<path fill="none" stroke="#63b8ff" d="M176.74,-9.5C168.227,-9.5 159.361,-9.5 151.055,-9.5"/>
<polygon fill="#63b8ff" stroke="#63b8ff" points="176.887,-13.0001 186.887,-9.5 176.886,-6.0001 176.887,-13.0001"/>
</a>
</g>
</g>
<!-- Node3 -->
<g id="Node000003" class="node"><title>Node3</title>
<g id="a_Node000003"><a xlink:href="group___main_program.html#ga0ddf1224851353fc92bfbff6f499fa97" target="_top" xlink:title=" ">
<polygon fill="white" stroke="#666666" points="38,-19 0,-19 0,-0 38,-0 38,-19"/>
<text text-anchor="middle" x="19" y="-7" font-family="Helvetica,sans-Serif" font-size="10.00">main</text>
</a>
</g>
</g>
<!-- Node2&#45;&gt;Node3 -->
<g id="edge2_Node000002_Node000003" class="edge"><title>Node2&#45;&gt;Node3</title>
<g id="a_edge2_Node000002_Node000003"><a xlink:title=" ">
<path fill="none" stroke="#63b8ff" d="M63.6384,-9.5C54.6531,-9.5 45.7767,-9.5 38.3995,-9.5"/>
<polygon fill="#63b8ff" stroke="#63b8ff" points="63.7552,-13.0001 73.7552,-9.5 63.7551,-6.0001 63.7552,-13.0001"/>
</a>
</g>
</g>
</g>
</svg>
