<?xml version="1.0" encoding="UTF-8" standalone="no"?>
<!DOCTYPE svg PUBLIC "-//W3C//DTD SVG 1.1//EN"
 "http://www.w3.org/Graphics/SVG/1.1/DTD/svg11.dtd">
<!-- Generated by graphviz version 2.38.0 (20140413.2041)
 -->
<!-- Title: main.c Pages: 1 -->
<svg width="530pt" height="192pt"
 viewBox="0.00 0.00 529.50 192.00" xmlns="http://www.w3.org/2000/svg" xmlns:xlink="http://www.w3.org/1999/xlink">
<g id="graph0" class="graph" transform="scale(1 1) rotate(0) translate(4 188)">
<title>main.c</title>
<!-- Node1 -->
<g id="Node000001" class="node"><title>Node1</title>
<g id="a_Node000001"><a xlink:title="Hlavní program testující Basic Vector API.">
<polygon fill="#999999" stroke="#666666" points="376,-184 330,-184 330,-165 376,-165 376,-184"/>
<text text-anchor="middle" x="353" y="-172" font-family="Helvetica,sans-Serif" font-size="10.00">main.c</text>
</a>
</g>
</g>
<!-- Node2 -->
<g id="Node000002" class="node"><title>Node2</title>
<g id="a_Node000002"><a xlink:title=" ">
<polygon fill="#e0e0e0" stroke="#999999" points="46,-19 0,-19 0,-0 46,-0 46,-19"/>
<text text-anchor="middle" x="23" y="-7" font-family="Helvetica,sans-Serif" font-size="10.00">stdio.h</text>
</a>
</g>
</g>
<!-- Node1&#45;&gt;Node2 -->
<g id="edge1_Node000001_Node000002" class="edge"><title>Node1&#45;&gt;Node2</title>
<g id="a_edge1_Node000001_Node000002"><a xlink:title=" ">
<path fill="none" stroke="#63b8ff" d="M329.857,-172.437C274.877,-168.66 135.264,-151.523 58,-74 45.1123,-61.0691 35.5937,-42.409 29.7632,-28.6615"/>
<polygon fill="#63b8ff" stroke="#63b8ff" points="32.9798,-27.2784 26.0287,-19.2825 26.4763,-29.8679 32.9798,-27.2784"/>
</a>
</g>
</g>
<!-- Node3 -->
<g id="Node000003" class="node"><title>Node3</title>
<g id="a_Node000003"><a xlink:title=" ">
<polygon fill="#e0e0e0" stroke="#999999" points="392,-19 344,-19 344,-0 392,-0 392,-19"/>
<text text-anchor="middle" x="368" y="-7" font-family="Helvetica,sans-Serif" font-size="10.00">stdlib.h</text>
</a>
</g>
</g>
<!-- Node1&#45;&gt;Node3 -->
<g id="edge2_Node000001_Node000003" class="edge"><title>Node1&#45;&gt;Node3</title>
<g id="a_edge2_Node000001_Node000003"><a xlink:title=" ">
<path fill="none" stroke="#63b8ff" d="M353.806,-164.736C356.146,-139.309 362.978,-65.0771 366.234,-29.6914"/>
<polygon fill="#63b8ff" stroke="#63b8ff" points="369.758,-29.5856 367.19,-19.3069 362.788,-28.9441 369.758,-29.5856"/>
</a>
</g>
</g>
<!-- Node4 -->
<g id="Node000004" class="node"><title>Node4</title>
<g id="a_Node000004"><a xlink:title=" ">
<polygon fill="#e0e0e0" stroke="#999999" points="473,-74 429,-74 429,-55 473,-55 473,-74"/>
<text text-anchor="middle" x="451" y="-62" font-family="Helvetica,sans-Serif" font-size="10.00">time.h</text>
</a>
</g>
</g>
<!-- Node1&#45;&gt;Node4 -->
<g id="edge3_Node000001_Node000004" class="edge"><title>Node1&#45;&gt;Node4</title>
<g id="a_edge3_Node000001_Node000004"><a xlink:title=" ">
<path fill="none" stroke="#63b8ff" d="M361.02,-164.662C377.468,-146.535 415.236,-104.913 436.236,-81.7706"/>
<polygon fill="#63b8ff" stroke="#63b8ff" points="439.015,-83.916 443.143,-74.1584 433.831,-79.212 439.015,-83.916"/>
</a>
</g>
</g>
<!-- Node5 -->
<g id="Node000005" class="node"><title>Node5</title>
<g id="a_Node000005"><a xlink:href="_t_vector_8h.html" target="_top" xlink:title="Definice typu Basic Vector.">
<polygon fill="white" stroke="#666666" points="225.5,-129 166.5,-129 166.5,-110 225.5,-110 225.5,-129"/>
<text text-anchor="middle" x="196" y="-117" font-family="Helvetica,sans-Serif" font-size="10.00">TVector.h</text>
</a>
</g>
</g>
<!-- Node1&#45;&gt;Node5 -->
<g id="edge4_Node000001_Node000005" class="edge"><title>Node1&#45;&gt;Node5</title>
<g id="a_edge4_Node000001_Node000005"><a xlink:title=" ">
<path fill="none" stroke="#63b8ff" d="M329.834,-165.68C303.778,-156.884 261.175,-142.502 231.043,-132.33"/>
<polygon fill="#63b8ff" stroke="#63b8ff" points="231.939,-128.938 221.345,-129.056 229.7,-135.571 231.939,-128.938"/>
</a>
</g>
</g>
<!-- Node10 -->
<g id="Node000010" class="node"><title>Node10</title>
<g id="a_Node000010"><a xlink:title=" ">
<polygon fill="#e0e0e0" stroke="#999999" points="321.5,-19 270.5,-19 270.5,-0 321.5,-0 321.5,-19"/>
<text text-anchor="middle" x="296" y="-7" font-family="Helvetica,sans-Serif" font-size="10.00">check.h</text>
</a>
</g>
</g>
<!-- Node1&#45;&gt;Node10 -->
<g id="edge17_Node000001_Node000010" class="edge"><title>Node1&#45;&gt;Node10</title>
<g id="a_edge17_Node000001_Node000010"><a xlink:title=" ">
<path fill="none" stroke="#63b8ff" d="M349.935,-164.736C340.966,-139.088 314.633,-63.7824 302.391,-28.7772"/>
<polygon fill="#63b8ff" stroke="#63b8ff" points="305.685,-27.5911 299.08,-19.3069 299.077,-29.9018 305.685,-27.5911"/>
</a>
</g>
</g>
<!-- Node11 -->
<g id="Node000011" class="node"><title>Node11</title>
<g id="a_Node000011"><a xlink:href="main__support_8h.html" target="_top" xlink:title="Soubor pro multiplatformní podporu programu v různých OS.">
<polygon fill="white" stroke="#666666" points="521.5,-129 438.5,-129 438.5,-110 521.5,-110 521.5,-129"/>
<text text-anchor="middle" x="480" y="-117" font-family="Helvetica,sans-Serif" font-size="10.00">main_support.h</text>
</a>
</g>
</g>
<!-- Node1&#45;&gt;Node11 -->
<g id="edge15_Node000001_Node000011" class="edge"><title>Node1&#45;&gt;Node11</title>
<g id="a_edge15_Node000001_Node000011"><a xlink:title=" ">
<path fill="none" stroke="#63b8ff" d="M373.405,-164.985C394.019,-156.382 426.107,-142.991 449.694,-133.147"/>
<polygon fill="#63b8ff" stroke="#63b8ff" points="451.343,-136.252 459.224,-129.17 448.647,-129.792 451.343,-136.252"/>
</a>
</g>
</g>
<!-- Node5&#45;&gt;Node2 -->
<g id="edge5_Node000005_Node000002" class="edge"><title>Node5&#45;&gt;Node2</title>
<g id="a_edge5_Node000005_Node000002"><a xlink:title=" ">
<path fill="none" stroke="#63b8ff" d="M166.26,-110.5C142.666,-103.285 109.526,-91.1588 84,-74 64.6684,-61.0049 46.7386,-40.9828 35.3906,-26.9027"/>
<polygon fill="#63b8ff" stroke="#63b8ff" points="38.141,-24.738 29.2218,-19.0196 32.6283,-29.0519 38.141,-24.738"/>
</a>
</g>
</g>
<!-- Node6 -->
<g id="Node000006" class="node"><title>Node6</title>
<g id="a_Node000006"><a xlink:title=" ">
<polygon fill="#e0e0e0" stroke="#999999" points="120,-19 64,-19 64,-0 120,-0 120,-19"/>
<text text-anchor="middle" x="92" y="-7" font-family="Helvetica,sans-Serif" font-size="10.00">stdbool.h</text>
</a>
</g>
</g>
<!-- Node5&#45;&gt;Node6 -->
<g id="edge6_Node000005_Node000006" class="edge"><title>Node5&#45;&gt;Node6</title>
<g id="a_edge6_Node000005_Node000006"><a xlink:title=" ">
<path fill="none" stroke="#63b8ff" d="M166.379,-114.27C142.48,-109.147 110.255,-97.9927 94,-74 85.2037,-61.0161 85.5617,-42.8661 87.6186,-29.294"/>
<polygon fill="#63b8ff" stroke="#63b8ff" points="91.1113,-29.6681 89.5824,-19.1842 84.2397,-28.3333 91.1113,-29.6681"/>
</a>
</g>
</g>
<!-- Node7 -->
<g id="Node000007" class="node"><title>Node7</title>
<g id="a_Node000007"><a xlink:title=" ">
<polygon fill="#e0e0e0" stroke="#999999" points="267.5,-74 216.5,-74 216.5,-55 267.5,-55 267.5,-74"/>
<text text-anchor="middle" x="242" y="-62" font-family="Helvetica,sans-Serif" font-size="10.00">stddef.h</text>
</a>
</g>
</g>
<!-- Node5&#45;&gt;Node7 -->
<g id="edge7_Node000005_Node000007" class="edge"><title>Node5&#45;&gt;Node7</title>
<g id="a_edge7_Node000005_Node000007"><a xlink:title=" ">
<path fill="none" stroke="#63b8ff" d="M203.596,-109.748C210.161,-102.185 219.823,-91.0512 227.814,-81.8447"/>
<polygon fill="#63b8ff" stroke="#63b8ff" points="230.634,-83.9354 234.545,-74.089 225.347,-79.3471 230.634,-83.9354"/>
</a>
</g>
</g>
<!-- Node8 -->
<g id="Node000008" class="node"><title>Node8</title>
<g id="a_Node000008"><a xlink:href="_t_vector_element_8h.html" target="_top" xlink:title="Definice typu Basic VectorElement a implementace API.">
<polygon fill="white" stroke="#666666" points="198.5,-74 103.5,-74 103.5,-55 198.5,-55 198.5,-74"/>
<text text-anchor="middle" x="151" y="-62" font-family="Helvetica,sans-Serif" font-size="10.00">TVectorElement.h</text>
</a>
</g>
</g>
<!-- Node5&#45;&gt;Node8 -->
<g id="edge8_Node000005_Node000008" class="edge"><title>Node5&#45;&gt;Node8</title>
<g id="a_edge8_Node000005_Node000008"><a xlink:title=" ">
<path fill="none" stroke="#63b8ff" d="M188.569,-109.748C182.147,-102.185 172.694,-91.0512 164.878,-81.8447"/>
<polygon fill="#63b8ff" stroke="#63b8ff" points="167.433,-79.4467 158.293,-74.089 162.097,-83.9773 167.433,-79.4467"/>
</a>
</g>
</g>
<!-- Node5&#45;&gt;Node10 -->
<g id="edge14_Node000005_Node000010" class="edge"><title>Node5&#45;&gt;Node10</title>
<g id="a_edge14_Node000005_Node000010"><a xlink:title=" ">
<path fill="none" stroke="#63b8ff" d="M221.73,-109.991C239.33,-102.935 261.938,-91.243 276,-74 286.387,-61.2641 291.405,-43.0865 293.815,-29.4411"/>
<polygon fill="#63b8ff" stroke="#63b8ff" points="297.319,-29.6616 295.285,-19.2637 290.391,-28.6603 297.319,-29.6616"/>
</a>
</g>
</g>
<!-- Node8&#45;&gt;Node2 -->
<g id="edge9_Node000008_Node000002" class="edge"><title>Node8&#45;&gt;Node2</title>
<g id="a_edge9_Node000008_Node000002"><a xlink:title=" ">
<path fill="none" stroke="#63b8ff" d="M130.435,-54.9846C109.565,-46.3434 77.0288,-32.8713 53.2269,-23.0158"/>
<polygon fill="#63b8ff" stroke="#63b8ff" points="54.5179,-19.7623 43.9396,-19.1703 51.8399,-26.2298 54.5179,-19.7623"/>
</a>
</g>
</g>
<!-- Node8&#45;&gt;Node3 -->
<g id="edge10_Node000008_Node000003" class="edge"><title>Node8&#45;&gt;Node3</title>
<g id="a_edge10_Node000008_Node000003"><a xlink:title=" ">
<path fill="none" stroke="#63b8ff" d="M185.865,-54.9846C226.643,-45.0249 293.697,-28.6477 334.069,-18.7872"/>
<polygon fill="#63b8ff" stroke="#63b8ff" points="335.087,-22.1416 343.971,-16.3689 333.426,-15.3415 335.087,-22.1416"/>
</a>
</g>
</g>
<!-- Node8&#45;&gt;Node6 -->
<g id="edge11_Node000008_Node000006" class="edge"><title>Node8&#45;&gt;Node6</title>
<g id="a_edge11_Node000008_Node000006"><a xlink:title=" ">
<path fill="none" stroke="#63b8ff" d="M141.521,-54.9846C132.799,-47.1499 119.657,-35.344 109.102,-25.863"/>
<polygon fill="#63b8ff" stroke="#63b8ff" points="111.43,-23.2493 101.652,-19.1703 106.752,-28.4567 111.43,-23.2493"/>
</a>
</g>
</g>
<!-- Node9 -->
<g id="Node000009" class="node"><title>Node9</title>
<g id="a_Node000009"><a xlink:title=" ">
<polygon fill="#e0e0e0" stroke="#999999" points="190,-19 138,-19 138,-0 190,-0 190,-19"/>
<text text-anchor="middle" x="164" y="-7" font-family="Helvetica,sans-Serif" font-size="10.00">assert.h</text>
</a>
</g>
</g>
<!-- Node8&#45;&gt;Node9 -->
<g id="edge12_Node000008_Node000009" class="edge"><title>Node8&#45;&gt;Node9</title>
<g id="a_edge12_Node000008_Node000009"><a xlink:title=" ">
<path fill="none" stroke="#63b8ff" d="M153.147,-54.7481C154.869,-47.7249 157.347,-37.6235 159.5,-28.845"/>
<polygon fill="#63b8ff" stroke="#63b8ff" points="162.91,-29.6349 161.893,-19.089 156.112,-27.9673 162.91,-29.6349"/>
</a>
</g>
</g>
<!-- Node8&#45;&gt;Node10 -->
<g id="edge13_Node000008_Node000010" class="edge"><title>Node8&#45;&gt;Node10</title>
<g id="a_edge13_Node000008_Node000010"><a xlink:title=" ">
<path fill="none" stroke="#63b8ff" d="M174.297,-54.9846C198.253,-46.2281 235.781,-32.5112 262.832,-22.6236"/>
<polygon fill="#63b8ff" stroke="#63b8ff" points="264.089,-25.8907 272.279,-19.1703 261.686,-19.3161 264.089,-25.8907"/>
</a>
</g>
</g>
<!-- Node11&#45;&gt;Node4 -->
<g id="edge16_Node000011_Node000004" class="edge"><title>Node11&#45;&gt;Node4</title>
<g id="a_edge16_Node000011_Node000004"><a xlink:title=" ">
<path fill="none" stroke="#63b8ff" d="M475.211,-109.748C471.242,-102.493 465.475,-91.9541 460.565,-82.9813"/>
<polygon fill="#63b8ff" stroke="#63b8ff" points="463.57,-81.1816 455.7,-74.089 457.429,-84.5417 463.57,-81.1816"/>
</a>
</g>
</g>
</g>
</svg>
