<?xml version="1.0" encoding="UTF-8" standalone="no"?>
<!DOCTYPE svg PUBLIC "-//W3C//DTD SVG 1.1//EN"
 "http://www.w3.org/Graphics/SVG/1.1/DTD/svg11.dtd">
<!-- Generated by graphviz version 2.38.0 (20140413.2041)
 -->
<!-- Title: TVectorIterator Pages: 1 -->
<svg width="155pt" height="184pt"
 viewBox="0.00 0.00 155.00 184.00" xmlns="http://www.w3.org/2000/svg" xmlns:xlink="http://www.w3.org/1999/xlink">
<g id="graph0" class="graph" transform="scale(1 1) rotate(0) translate(4 180)">
<title>TVectorIterator</title>
<!-- Node1 -->
<g id="Node000001" class="node"><title>Node1</title>
<g id="a_Node000001"><a xlink:title="Definice typu VectorIterator.">
<polygon fill="#999999" stroke="#666666" points="118.5,-57 28.5,-57 28.5,-0 118.5,-0 118.5,-57"/>
<text text-anchor="start" x="41.5" y="-40.5" font-family="Helvetica,sans-Serif" font-size="10.00">TVectorIterator</text>
<text text-anchor="start" x="42" y="-25.5" font-family="Helvetica,sans-Serif" font-size="10.00">+</text>
<text text-anchor="start" x="54.5" y="-25.5" font-family="Helvetica,sans-Serif" font-size="10.00">size_t iPos</text>
<text text-anchor="start" x="71.5" y="-10.5" font-family="Helvetica,sans-Serif" font-size="10.00"> </text>
<polygon fill="#666666" stroke="#666666" points="36.5,-35.5 36.5,-35.5 110.5,-35.5 110.5,-35.5 36.5,-35.5"/>
<polygon fill="#666666" stroke="#666666" points="36.5,-20.5 36.5,-20.5 52.5,-20.5 52.5,-20.5 36.5,-20.5"/>
<polygon fill="#666666" stroke="#666666" points="52.5,-20.5 52.5,-20.5 110.5,-20.5 110.5,-20.5 52.5,-20.5"/>
<polygon fill="none" stroke="#666666" points="36.5,-4 36.5,-53 110.5,-53 110.5,-4 36.5,-4"/>
</a>
</g>
</g>
<!-- Node2 -->
<g id="Node000002" class="node"><title>Node2</title>
<g id="a_Node000002"><a xlink:href="group___t_vector.html#struct_t_vector" target="_top" xlink:title="Definice typu Vector.">
<polygon fill="white" stroke="#666666" points="147,-176 0,-176 0,-104 147,-104 147,-176"/>
<text text-anchor="start" x="57" y="-160" font-family="Helvetica,sans-Serif" font-size="10.00">TVector</text>
<text text-anchor="start" x="12.5" y="-145" font-family="Helvetica,sans-Serif" font-size="10.00">+</text>
<text text-anchor="start" x="23.5" y="-145" font-family="Helvetica,sans-Serif" font-size="10.00">TVectorElement * iValues</text>
<text text-anchor="start" x="12.5" y="-130" font-family="Helvetica,sans-Serif" font-size="10.00">+</text>
<text text-anchor="start" x="23.5" y="-130" font-family="Helvetica,sans-Serif" font-size="10.00">size_t iSize</text>
<text text-anchor="start" x="72" y="-115" font-family="Helvetica,sans-Serif" font-size="10.00"> </text>
<polygon fill="#666666" stroke="#666666" points="8.5,-155 8.5,-155 139.5,-155 139.5,-155 8.5,-155"/>
<polygon fill="#666666" stroke="#666666" points="8.5,-125 8.5,-125 21.5,-125 21.5,-125 8.5,-125"/>
<polygon fill="#666666" stroke="#666666" points="21.5,-125 21.5,-125 139.5,-125 139.5,-125 21.5,-125"/>
<polygon fill="none" stroke="#666666" points="8,-108 8,-172 139,-172 139,-108 8,-108"/>
</a>
</g>
</g>
<!-- Node2&#45;&gt;Node1 -->
<g id="edge1_Node000001_Node000002" class="edge"><title>Node2&#45;&gt;Node1</title>
<g id="a_edge1_Node000001_Node000002"><a xlink:title=" ">
<path fill="none" stroke="#63b8ff" d="M73.5,-103.751C73.5,-92.758 73.5,-80.5587 73.5,-69.278"/>
<polygon fill="none" stroke="#63b8ff" points="73.5001,-69.0453 69.5,-63.0454 73.5,-57.0453 77.5,-63.0453 73.5001,-69.0453"/>
</a>
</g>
<text text-anchor="middle" x="93.5" y="-78" font-family="Helvetica,sans-Serif" font-size="10.00" fill="grey"> +iVector</text>
</g>
</g>
</svg>
