<?xml version="1.0" encoding="UTF-8" standalone="no"?>
<!DOCTYPE svg PUBLIC "-//W3C//DTD SVG 1.1//EN"
 "http://www.w3.org/Graphics/SVG/1.1/DTD/svg11.dtd">
<!-- Generated by graphviz version 2.38.0 (20140413.2041)
 -->
<!-- Title: queue_find_if Pages: 1 -->
<svg width="508pt" height="46pt"
 viewBox="0.00 0.00 508.00 46.00" xmlns="http://www.w3.org/2000/svg" xmlns:xlink="http://www.w3.org/1999/xlink">
<g id="graph0" class="graph" transform="scale(1 1) rotate(0) translate(4 42)">
<title>queue_find_if</title>
<!-- Node1 -->
<g id="Node000001" class="node"><title>Node1</title>
<g id="a_Node000001"><a xlink:title="Vyhledání prvního elementu fronty splňujícího zadaný predikát.">
<polygon fill="#999999" stroke="#666666" points="73,-38 0,-38 0,-19 73,-19 73,-38"/>
<text text-anchor="middle" x="36.5" y="-26" font-family="Helvetica,sans-Serif" font-size="10.00">queue_find_if</text>
</a>
</g>
</g>
<!-- Node2 -->
<g id="Node000002" class="node"><title>Node2</title>
<g id="a_Node000002"><a xlink:href="group___t_queue_iterator.html#ga6cbf7aa3d466d2bf585fe988b8bc9593" target="_top" xlink:title="Zjištění platnosti iterátoru.">
<polygon fill="white" stroke="#666666" points="376,-38 261,-38 261,-19 376,-19 376,-38"/>
<text text-anchor="middle" x="318.5" y="-26" font-family="Helvetica,sans-Serif" font-size="10.00">queue_iterator_is_valid</text>
</a>
</g>
</g>
<!-- Node1&#45;&gt;Node2 -->
<g id="edge1_Node000001_Node000002" class="edge"><title>Node1&#45;&gt;Node2</title>
<g id="a_edge1_Node000001_Node000002"><a xlink:title=" ">
<path fill="none" stroke="#63b8ff" d="M73.2466,-28.5C117.868,-28.5 195.088,-28.5 250.772,-28.5"/>
<polygon fill="#63b8ff" stroke="#63b8ff" points="250.907,-32.0001 260.907,-28.5 250.907,-25.0001 250.907,-32.0001"/>
</a>
</g>
</g>
<!-- Node4 -->
<g id="Node000004" class="node"><title>Node4</title>
<g id="a_Node000004"><a xlink:href="group___t_queue_iterator.html#gae7e6145571ff51446a96862cda3d6e07" target="_top" xlink:title="Posunutí iterátoru vpřed.">
<polygon fill="white" stroke="#666666" points="225,-19 109,-19 109,-0 225,-0 225,-19"/>
<text text-anchor="middle" x="167" y="-7" font-family="Helvetica,sans-Serif" font-size="10.00">queue_iterator_to_next</text>
</a>
</g>
</g>
<!-- Node1&#45;&gt;Node4 -->
<g id="edge3_Node000001_Node000004" class="edge"><title>Node1&#45;&gt;Node4</title>
<g id="a_edge3_Node000001_Node000004"><a xlink:title=" ">
<path fill="none" stroke="#63b8ff" d="M73.2944,-23.2074C81.2799,-22.0267 90.0003,-20.7373 98.7947,-19.437"/>
<polygon fill="#63b8ff" stroke="#63b8ff" points="99.3396,-22.8946 108.72,-17.9694 98.3156,-15.9698 99.3396,-22.8946"/>
</a>
</g>
</g>
<!-- Node3 -->
<g id="Node000003" class="node"><title>Node3</title>
<g id="a_Node000003"><a xlink:href="group___t_queue.html#gaa9812b8f3c1b0707450f91283f97384c" target="_top" xlink:title="Zjištění, zda je fronta prázdná">
<polygon fill="white" stroke="#666666" points="500,-38 412,-38 412,-19 500,-19 500,-38"/>
<text text-anchor="middle" x="456" y="-26" font-family="Helvetica,sans-Serif" font-size="10.00">queue_is_empty</text>
</a>
</g>
</g>
<!-- Node2&#45;&gt;Node3 -->
<g id="edge2_Node000002_Node000003" class="edge"><title>Node2&#45;&gt;Node3</title>
<g id="a_edge2_Node000002_Node000003"><a xlink:title=" ">
<path fill="none" stroke="#63b8ff" d="M376.179,-28.5C384.635,-28.5 393.326,-28.5 401.709,-28.5"/>
<polygon fill="#63b8ff" stroke="#63b8ff" points="401.743,-32.0001 411.743,-28.5 401.743,-25.0001 401.743,-32.0001"/>
</a>
</g>
</g>
<!-- Node4&#45;&gt;Node2 -->
<g id="edge4_Node000004_Node000002" class="edge"><title>Node4&#45;&gt;Node2</title>
<g id="a_edge4_Node000004_Node000002"><a xlink:title=" ">
<path fill="none" stroke="#63b8ff" d="M225.373,-16.7916C233.569,-17.8332 242.06,-18.9123 250.421,-19.9749"/>
<polygon fill="#63b8ff" stroke="#63b8ff" points="250.166,-23.4705 260.527,-21.2593 251.048,-16.5264 250.166,-23.4705"/>
</a>
</g>
</g>
</g>
</svg>
