<?xml version="1.0" encoding="UTF-8" standalone="no"?>
<!DOCTYPE svg PUBLIC "-//W3C//DTD SVG 1.1//EN"
 "http://www.w3.org/Graphics/SVG/1.1/DTD/svg11.dtd">
<!-- Generated by graphviz version 2.38.0 (20140413.2041)
 -->
<!-- Title: queue_iterator_is_valid Pages: 1 -->
<svg width="514pt" height="335pt"
 viewBox="0.00 0.00 514.00 335.11" xmlns="http://www.w3.org/2000/svg" xmlns:xlink="http://www.w3.org/1999/xlink">
<g id="graph0" class="graph" transform="scale(1 1) rotate(0) translate(4 331.106)">
<title>queue_iterator_is_valid</title>
<!-- Node1 -->
<g id="Node000001" class="node"><title>Node1</title>
<g id="a_Node000001"><a xlink:title="Zjištění platnosti iterátoru.">
<polygon fill="#999999" stroke="#666666" points="506,-208 391,-208 391,-189 506,-189 506,-208"/>
<text text-anchor="middle" x="448.5" y="-196" font-family="Helvetica,sans-Serif" font-size="10.00">queue_iterator_is_valid</text>
</a>
</g>
</g>
<!-- Node2 -->
<g id="Node000002" class="node"><title>Node2</title>
<g id="a_Node000002"><a xlink:href="group___main_program.html#gae66f6b31b5ad750f1fe042a706a4e3d4" target="_top" xlink:title=" ">
<polygon fill="white" stroke="#666666" points="38,-170 0,-170 0,-151 38,-151 38,-170"/>
<text text-anchor="middle" x="19" y="-158" font-family="Helvetica,sans-Serif" font-size="10.00">main</text>
</a>
</g>
</g>
<!-- Node1&#45;&gt;Node2 -->
<g id="edge1_Node000001_Node000002" class="edge"><title>Node1&#45;&gt;Node2</title>
<g id="a_edge1_Node000001_Node000002"><a xlink:title=" ">
<path fill="none" stroke="#63b8ff" d="M428.873,-214.865C411.105,-229.588 382.977,-250.669 355,-262.5 239.319,-311.418 178.278,-362.507 74,-292.5 31.4468,-263.932 22.4036,-195.259 20.5008,-170.017"/>
<polygon fill="#63b8ff" stroke="#63b8ff" points="431.351,-217.352 436.717,-208.216 426.825,-212.012 431.351,-217.352"/>
</a>
</g>
</g>
<!-- Node3 -->
<g id="Node000003" class="node"><title>Node3</title>
<g id="a_Node000003"><a xlink:href="group___iterator_algorithms.html#gadccc11c611587469295868641ce95925" target="_top" xlink:title="Vyhledání prvního elementu fronty splňujícího zadaný predikát.">
<polygon fill="white" stroke="#666666" points="175,-283 102,-283 102,-264 175,-264 175,-283"/>
<text text-anchor="middle" x="138.5" y="-271" font-family="Helvetica,sans-Serif" font-size="10.00">queue_find_if</text>
</a>
</g>
</g>
<!-- Node1&#45;&gt;Node3 -->
<g id="edge2_Node000001_Node000003" class="edge"><title>Node1&#45;&gt;Node3</title>
<g id="a_edge2_Node000001_Node000003"><a xlink:title=" ">
<path fill="none" stroke="#63b8ff" d="M419.16,-212.487C401.167,-220.851 377.173,-231.07 355,-237.5 293.068,-255.461 218.358,-265.443 175.152,-270.122"/>
<polygon fill="#63b8ff" stroke="#63b8ff" points="420.951,-215.512 428.489,-208.067 417.954,-209.186 420.951,-215.512"/>
</a>
</g>
</g>
<!-- Node4 -->
<g id="Node000004" class="node"><title>Node4</title>
<g id="a_Node000004"><a xlink:href="group___iterator_algorithms.html#ga299db40016266a1a943c32a3a528ea9b" target="_top" xlink:title="Vyhledání prvního elementu fronty nesplňujícího zadaný predikát.">
<polygon fill="white" stroke="#666666" points="184.5,-246 92.5,-246 92.5,-227 184.5,-227 184.5,-246"/>
<text text-anchor="middle" x="138.5" y="-234" font-family="Helvetica,sans-Serif" font-size="10.00">queue_find_if_not</text>
</a>
</g>
</g>
<!-- Node1&#45;&gt;Node4 -->
<g id="edge4_Node000001_Node000004" class="edge"><title>Node1&#45;&gt;Node4</title>
<g id="a_edge4_Node000001_Node000004"><a xlink:title=" ">
<path fill="none" stroke="#63b8ff" d="M393.522,-209.942C380.921,-212.352 367.523,-214.705 355,-216.5 296.42,-224.897 228.351,-230.532 184.643,-233.625"/>
<polygon fill="#63b8ff" stroke="#63b8ff" points="394.282,-213.36 403.425,-208.006 392.939,-206.49 394.282,-213.36"/>
</a>
</g>
</g>
<!-- Node5 -->
<g id="Node000005" class="node"><title>Node5</title>
<g id="a_Node000005"><a xlink:href="group___iterator_algorithms.html#gade8cfe850fd247bfb33b1aa44e13bcff" target="_top" xlink:title="Zavolání zvolené funkce na každý element fronty od pozice určené iterátorem až do konce fronty.">
<polygon fill="white" stroke="#666666" points="181,-170 96,-170 96,-151 181,-151 181,-170"/>
<text text-anchor="middle" x="138.5" y="-158" font-family="Helvetica,sans-Serif" font-size="10.00">queue_for_each</text>
</a>
</g>
</g>
<!-- Node1&#45;&gt;Node5 -->
<g id="edge6_Node000001_Node000005" class="edge"><title>Node1&#45;&gt;Node5</title>
<g id="a_edge6_Node000001_Node000005"><a xlink:title=" ">
<path fill="none" stroke="#63b8ff" d="M396.251,-186.883C382.877,-184.151 368.444,-181.467 355,-179.5 294.982,-170.72 224.924,-165.456 181.381,-162.766"/>
<polygon fill="#63b8ff" stroke="#63b8ff" points="395.733,-190.35 406.237,-188.97 397.165,-183.498 395.733,-190.35"/>
</a>
</g>
</g>
<!-- Node6 -->
<g id="Node000006" class="node"><title>Node6</title>
<g id="a_Node000006"><a xlink:href="group___t_queue_iterator.html#ga43c723f0d3c461ff6b340e3a22885c94" target="_top" xlink:title="Zapsání hodnoty elementu do fronty pomocí iterátoru.">
<polygon fill="white" stroke="#666666" points="345.5,-132.5 248.5,-132.5 248.5,-102.5 345.5,-102.5 345.5,-132.5"/>
<text text-anchor="start" x="256.5" y="-120.5" font-family="Helvetica,sans-Serif" font-size="10.00">queue_iterator_set</text>
<text text-anchor="middle" x="297" y="-109.5" font-family="Helvetica,sans-Serif" font-size="10.00">_value</text>
</a>
</g>
</g>
<!-- Node1&#45;&gt;Node6 -->
<g id="edge8_Node000001_Node000006" class="edge"><title>Node1&#45;&gt;Node6</title>
<g id="a_edge8_Node000001_Node000006"><a xlink:title=" ">
<path fill="none" stroke="#63b8ff" d="M422.197,-183.902C403.693,-173.318 377.927,-158.77 355,-146.5 346.385,-141.89 336.958,-137.022 328.295,-132.619"/>
<polygon fill="#63b8ff" stroke="#63b8ff" points="420.489,-186.957 430.905,-188.896 423.972,-180.885 420.489,-186.957"/>
</a>
</g>
</g>
<!-- Node7 -->
<g id="Node000007" class="node"><title>Node7</title>
<g id="a_Node000007"><a xlink:href="group___t_queue_iterator.html#gae7e6145571ff51446a96862cda3d6e07" target="_top" xlink:title="Posunutí iterátoru vpřed.">
<polygon fill="white" stroke="#666666" points="355,-208 239,-208 239,-189 355,-189 355,-208"/>
<text text-anchor="middle" x="297" y="-196" font-family="Helvetica,sans-Serif" font-size="10.00">queue_iterator_to_next</text>
</a>
</g>
</g>
<!-- Node1&#45;&gt;Node7 -->
<g id="edge10_Node000001_Node000007" class="edge"><title>Node1&#45;&gt;Node7</title>
<g id="a_edge10_Node000001_Node000007"><a xlink:title=" ">
<path fill="none" stroke="#63b8ff" d="M380.95,-198.5C372.324,-198.5 363.55,-198.5 355.096,-198.5"/>
<polygon fill="#63b8ff" stroke="#63b8ff" points="380.98,-202 390.98,-198.5 380.98,-195 380.98,-202"/>
</a>
</g>
</g>
<!-- Node8 -->
<g id="Node000008" class="node"><title>Node8</title>
<g id="a_Node000008"><a xlink:href="group___t_queue_iterator.html#ga30db60bf663f58b83b1181d5406ec879" target="_top" xlink:title="Přečtení hodnoty elementu z fronty pomocí iterátoru.">
<polygon fill="white" stroke="#666666" points="349.5,-70 244.5,-70 244.5,-51 349.5,-51 349.5,-70"/>
<text text-anchor="middle" x="297" y="-58" font-family="Helvetica,sans-Serif" font-size="10.00">queue_iterator_value</text>
</a>
</g>
</g>
<!-- Node1&#45;&gt;Node8 -->
<g id="edge15_Node000001_Node000008" class="edge"><title>Node1&#45;&gt;Node8</title>
<g id="a_edge15_Node000001_Node000008"><a xlink:title=" ">
<path fill="none" stroke="#63b8ff" d="M434.673,-180.664C418.057,-158.402 387.364,-120.032 355,-93.5 343.681,-84.2207 329.431,-75.9707 318.011,-70.0405"/>
<polygon fill="#63b8ff" stroke="#63b8ff" points="431.965,-182.889 440.707,-188.875 437.606,-178.744 431.965,-182.889"/>
</a>
</g>
</g>
<!-- Node3&#45;&gt;Node2 -->
<g id="edge3_Node000003_Node000002" class="edge"><title>Node3&#45;&gt;Node2</title>
<g id="a_edge3_Node000003_Node000002"><a xlink:title=" ">
<path fill="none" stroke="#63b8ff" d="M92.2763,-265.439C85.729,-262.964 79.3916,-259.728 74,-255.5 44.8903,-232.67 28.7958,-189.5 22.7785,-170.223"/>
<polygon fill="#63b8ff" stroke="#63b8ff" points="91.3416,-268.815 101.933,-268.549 93.4874,-262.152 91.3416,-268.815"/>
</a>
</g>
</g>
<!-- Node4&#45;&gt;Node2 -->
<g id="edge5_Node000004_Node000002" class="edge"><title>Node4&#45;&gt;Node2</title>
<g id="a_edge5_Node000004_Node000002"><a xlink:title=" ">
<path fill="none" stroke="#63b8ff" d="M94.8886,-223.141C87.6707,-220.116 80.437,-216.571 74,-212.5 55.3005,-200.673 37.6234,-181.623 27.8569,-170.158"/>
<polygon fill="#63b8ff" stroke="#63b8ff" points="94.0569,-226.574 104.645,-226.945 96.5996,-220.052 94.0569,-226.574"/>
</a>
</g>
</g>
<!-- Node5&#45;&gt;Node2 -->
<g id="edge7_Node000005_Node000002" class="edge"><title>Node5&#45;&gt;Node2</title>
<g id="a_edge7_Node000005_Node000002"><a xlink:title=" ">
<path fill="none" stroke="#63b8ff" d="M85.3413,-160.5C68.3994,-160.5 50.7171,-160.5 38.0257,-160.5"/>
<polygon fill="#63b8ff" stroke="#63b8ff" points="85.7431,-164 95.7431,-160.5 85.743,-157 85.7431,-164"/>
</a>
</g>
</g>
<!-- Node6&#45;&gt;Node2 -->
<g id="edge9_Node000006_Node000002" class="edge"><title>Node6&#45;&gt;Node2</title>
<g id="a_edge9_Node000006_Node000002"><a xlink:title=" ">
<path fill="none" stroke="#63b8ff" d="M238.08,-120.1C192.928,-123.004 128.891,-129.052 74,-141.5 61.7877,-144.269 48.5155,-148.915 38.1851,-152.92"/>
<polygon fill="#63b8ff" stroke="#63b8ff" points="238.506,-123.581 248.274,-119.478 238.079,-116.594 238.506,-123.581"/>
</a>
</g>
</g>
<!-- Node7&#45;&gt;Node2 -->
<g id="edge11_Node000007_Node000002" class="edge"><title>Node7&#45;&gt;Node2</title>
<g id="a_edge11_Node000007_Node000002"><a xlink:title=" ">
<path fill="none" stroke="#63b8ff" d="M228.812,-196.497C184.472,-194.187 125.31,-189.211 74,-178.5 61.8113,-175.956 48.5394,-171.555 38.2033,-167.742"/>
<polygon fill="#63b8ff" stroke="#63b8ff" points="228.735,-199.998 238.894,-196.99 229.077,-193.006 228.735,-199.998"/>
</a>
</g>
</g>
<!-- Node7&#45;&gt;Node3 -->
<g id="edge12_Node000007_Node000003" class="edge"><title>Node7&#45;&gt;Node3</title>
<g id="a_edge12_Node000007_Node000003"><a xlink:title=" ">
<path fill="none" stroke="#63b8ff" d="M274.645,-213.934C256.367,-226.557 228.966,-244.12 203,-255.5 194.184,-259.364 184.317,-262.63 175.037,-265.274"/>
<polygon fill="#63b8ff" stroke="#63b8ff" points="276.904,-216.624 283.077,-208.013 272.881,-210.896 276.904,-216.624"/>
</a>
</g>
</g>
<!-- Node7&#45;&gt;Node4 -->
<g id="edge13_Node000007_Node000004" class="edge"><title>Node7&#45;&gt;Node4</title>
<g id="a_edge13_Node000007_Node000004"><a xlink:title=" ">
<path fill="none" stroke="#63b8ff" d="M246.711,-210.468C224.78,-215.793 199.315,-221.976 178.708,-226.98"/>
<polygon fill="#63b8ff" stroke="#63b8ff" points="247.617,-213.85 256.508,-208.089 245.965,-207.047 247.617,-213.85"/>
</a>
</g>
</g>
<!-- Node7&#45;&gt;Node5 -->
<g id="edge14_Node000007_Node000005" class="edge"><title>Node7&#45;&gt;Node5</title>
<g id="a_edge14_Node000007_Node000005"><a xlink:title=" ">
<path fill="none" stroke="#63b8ff" d="M246.711,-186.532C224.78,-181.207 199.315,-175.024 178.708,-170.02"/>
<polygon fill="#63b8ff" stroke="#63b8ff" points="245.965,-189.953 256.508,-188.911 247.617,-183.15 245.965,-189.953"/>
</a>
</g>
</g>
<!-- Node8&#45;&gt;Node2 -->
<g id="edge18_Node000008_Node000002" class="edge"><title>Node8&#45;&gt;Node2</title>
<g id="a_edge18_Node000008_Node000002"><a xlink:title=" ">
<path fill="none" stroke="#63b8ff" d="M234.089,-70.2559C188.243,-79.0481 125.131,-94.5112 74,-119.5 57.2905,-127.666 40.6371,-141.37 30.3355,-150.665"/>
<polygon fill="#63b8ff" stroke="#63b8ff" points="234.993,-73.6477 244.182,-68.3742 233.71,-66.7663 234.993,-73.6477"/>
</a>
</g>
</g>
<!-- Node9 -->
<g id="Node000009" class="node"><title>Node9</title>
<g id="a_Node000009"><a xlink:href="group___main_program.html#ga5ec1bf27394ea27ffb0109783ddf69ff" target="_top" xlink:title="Porovnání hodnoty elementu fronty pomocí iterátoru s hodnotou 43.">
<polygon fill="white" stroke="#666666" points="203,-56 74,-56 74,-37 203,-37 203,-56"/>
<text text-anchor="middle" x="138.5" y="-44" font-family="Helvetica,sans-Serif" font-size="10.00">is_element_with_value_43</text>
</a>
</g>
</g>
<!-- Node8&#45;&gt;Node9 -->
<g id="edge16_Node000008_Node000009" class="edge"><title>Node8&#45;&gt;Node9</title>
<g id="a_edge16_Node000008_Node000009"><a xlink:title=" ">
<path fill="none" stroke="#63b8ff" d="M234.253,-54.9763C224.025,-54.0614 213.403,-53.1112 203.13,-52.1921"/>
<polygon fill="#63b8ff" stroke="#63b8ff" points="234.05,-58.4721 244.322,-55.8771 234.674,-51.4999 234.05,-58.4721"/>
</a>
</g>
</g>
<!-- Node10 -->
<g id="Node000010" class="node"><title>Node10</title>
<g id="a_Node000010"><a xlink:href="group___main_program.html#ga46eef449f9e5694614f26704628baf7d" target="_top" xlink:title="Vytisknutí elementu fronty pomocí iterátoru.">
<polygon fill="white" stroke="#666666" points="176,-19 101,-19 101,-0 176,-0 176,-19"/>
<text text-anchor="middle" x="138.5" y="-7" font-family="Helvetica,sans-Serif" font-size="10.00">print_element</text>
</a>
</g>
</g>
<!-- Node8&#45;&gt;Node10 -->
<g id="edge19_Node000008_Node000010" class="edge"><title>Node8&#45;&gt;Node10</title>
<g id="a_edge19_Node000008_Node000010"><a xlink:title=" ">
<path fill="none" stroke="#63b8ff" d="M260.794,-47.4018C243.477,-41.1142 222.239,-33.6332 203,-27.5 193.939,-24.6114 184.078,-21.7037 174.889,-19.093"/>
<polygon fill="#63b8ff" stroke="#63b8ff" points="259.899,-50.8009 270.493,-50.9467 262.302,-44.2264 259.899,-50.8009"/>
</a>
</g>
</g>
<!-- Node9&#45;&gt;Node2 -->
<g id="edge17_Node000009_Node000002" class="edge"><title>Node9&#45;&gt;Node2</title>
<g id="a_edge17_Node000009_Node000002"><a xlink:title=" ">
<path fill="none" stroke="#63b8ff" d="M90.3466,-60.1564C84.4945,-63.0176 78.8675,-66.4344 74,-70.5 47.0087,-93.0444 30.023,-132.75 23.2975,-150.927"/>
<polygon fill="#63b8ff" stroke="#63b8ff" points="91.8804,-63.306 99.6512,-56.1043 89.0854,-56.8882 91.8804,-63.306"/>
</a>
</g>
</g>
<!-- Node10&#45;&gt;Node2 -->
<g id="edge20_Node000010_Node000002" class="edge"><title>Node10&#45;&gt;Node2</title>
<g id="a_edge20_Node000010_Node000002"><a xlink:title=" ">
<path fill="none" stroke="#63b8ff" d="M90.8904,-17.3062C84.7295,-19.8201 78.8722,-23.134 74,-27.5 35.9534,-61.5943 24.2133,-126.371 21.0456,-150.827"/>
<polygon fill="#63b8ff" stroke="#63b8ff" points="92.3734,-20.4994 100.723,-13.9781 90.1291,-13.8689 92.3734,-20.4994"/>
</a>
</g>
</g>
</g>
</svg>
