<?xml version="1.0" encoding="UTF-8" standalone="no"?>
<!DOCTYPE svg PUBLIC "-//W3C//DTD SVG 1.1//EN"
 "http://www.w3.org/Graphics/SVG/1.1/DTD/svg11.dtd">
<!-- Generated by graphviz version 2.38.0 (20140413.2041)
 -->
<!-- Title: is_element_with_value_43 Pages: 1 -->
<svg width="553pt" height="27pt"
 viewBox="0.00 0.00 553.00 27.00" xmlns="http://www.w3.org/2000/svg" xmlns:xlink="http://www.w3.org/1999/xlink">
<g id="graph0" class="graph" transform="scale(1 1) rotate(0) translate(4 23)">
<title>is_element_with_value_43</title>
<!-- Node1 -->
<g id="Node000001" class="node"><title>Node1</title>
<g id="a_Node000001"><a xlink:title="Porovnání hodnoty elementu fronty pomocí iterátoru s hodnotou 43.">
<polygon fill="#999999" stroke="#666666" points="129,-19 0,-19 0,-0 129,-0 129,-19"/>
<text text-anchor="middle" x="64.5" y="-7" font-family="Helvetica,sans-Serif" font-size="10.00">is_element_with_value_43</text>
</a>
</g>
</g>
<!-- Node2 -->
<g id="Node000002" class="node"><title>Node2</title>
<g id="a_Node000002"><a xlink:href="group___t_queue_iterator.html#ga30db60bf663f58b83b1181d5406ec879" target="_top" xlink:title="Přečtení hodnoty elementu z fronty pomocí iterátoru.">
<polygon fill="white" stroke="#666666" points="270,-19 165,-19 165,-0 270,-0 270,-19"/>
<text text-anchor="middle" x="217.5" y="-7" font-family="Helvetica,sans-Serif" font-size="10.00">queue_iterator_value</text>
</a>
</g>
</g>
<!-- Node1&#45;&gt;Node2 -->
<g id="edge1_Node000001_Node000002" class="edge"><title>Node1&#45;&gt;Node2</title>
<g id="a_edge1_Node000001_Node000002"><a xlink:title=" ">
<path fill="none" stroke="#63b8ff" d="M129.1,-9.5C137.581,-9.5 146.267,-9.5 154.716,-9.5"/>
<polygon fill="#63b8ff" stroke="#63b8ff" points="154.874,-13.0001 164.874,-9.5 154.874,-6.0001 154.874,-13.0001"/>
</a>
</g>
</g>
<!-- Node3 -->
<g id="Node000003" class="node"><title>Node3</title>
<g id="a_Node000003"><a xlink:href="group___t_queue_iterator.html#ga6cbf7aa3d466d2bf585fe988b8bc9593" target="_top" xlink:title="Zjištění platnosti iterátoru.">
<polygon fill="white" stroke="#666666" points="421,-19 306,-19 306,-0 421,-0 421,-19"/>
<text text-anchor="middle" x="363.5" y="-7" font-family="Helvetica,sans-Serif" font-size="10.00">queue_iterator_is_valid</text>
</a>
</g>
</g>
<!-- Node2&#45;&gt;Node3 -->
<g id="edge2_Node000002_Node000003" class="edge"><title>Node2&#45;&gt;Node3</title>
<g id="a_edge2_Node000002_Node000003"><a xlink:title=" ">
<path fill="none" stroke="#63b8ff" d="M270.081,-9.5C278.433,-9.5 287.186,-9.5 295.835,-9.5"/>
<polygon fill="#63b8ff" stroke="#63b8ff" points="295.91,-13.0001 305.91,-9.5 295.91,-6.0001 295.91,-13.0001"/>
</a>
</g>
</g>
<!-- Node4 -->
<g id="Node000004" class="node"><title>Node4</title>
<g id="a_Node000004"><a xlink:href="group___t_queue.html#gaa9812b8f3c1b0707450f91283f97384c" target="_top" xlink:title="Zjištění, zda je fronta prázdná">
<polygon fill="white" stroke="#666666" points="545,-19 457,-19 457,-0 545,-0 545,-19"/>
<text text-anchor="middle" x="501" y="-7" font-family="Helvetica,sans-Serif" font-size="10.00">queue_is_empty</text>
</a>
</g>
</g>
<!-- Node3&#45;&gt;Node4 -->
<g id="edge3_Node000003_Node000004" class="edge"><title>Node3&#45;&gt;Node4</title>
<g id="a_edge3_Node000003_Node000004"><a xlink:title=" ">
<path fill="none" stroke="#63b8ff" d="M421.179,-9.5C429.635,-9.5 438.326,-9.5 446.709,-9.5"/>
<polygon fill="#63b8ff" stroke="#63b8ff" points="446.743,-13.0001 456.743,-9.5 446.743,-6.0001 446.743,-13.0001"/>
</a>
</g>
</g>
</g>
</svg>
