<?xml version="1.0" encoding="UTF-8" standalone="no"?>
<!DOCTYPE svg PUBLIC "-//W3C//DTD SVG 1.1//EN"
 "http://www.w3.org/Graphics/SVG/1.1/DTD/svg11.dtd">
<!-- Generated by graphviz version 2.38.0 (20140413.2041)
 -->
<!-- Title: TSetElement.h Pages: 1 -->
<svg width="273pt" height="247pt"
 viewBox="0.00 0.00 272.50 247.00" xmlns="http://www.w3.org/2000/svg" xmlns:xlink="http://www.w3.org/1999/xlink">
<g id="graph0" class="graph" transform="scale(1 1) rotate(0) translate(4 243)">
<title>TSetElement.h</title>
<!-- Node1 -->
<g id="Node000001" class="node"><title>Node1</title>
<g id="a_Node000001"><a xlink:title="Definice typu Basic SetElement a implementace API.">
<polygon fill="#999999" stroke="#666666" points="139,-239 58,-239 58,-220 139,-220 139,-239"/>
<text text-anchor="middle" x="98.5" y="-227" font-family="Helvetica,sans-Serif" font-size="10.00">TSetElement.h</text>
</a>
</g>
</g>
<!-- Node2 -->
<g id="Node000002" class="node"><title>Node2</title>
<g id="a_Node000002"><a xlink:href="_t_set_element_8c.html" target="_top" xlink:title="Definice globální proměnné realizující počítadlo operací porovnání dvou hodnot typu SetElement.">
<polygon fill="white" stroke="#666666" points="81,-184 0,-184 0,-165 81,-165 81,-184"/>
<text text-anchor="middle" x="40.5" y="-172" font-family="Helvetica,sans-Serif" font-size="10.00">TSetElement.c</text>
</a>
</g>
</g>
<!-- Node1&#45;&gt;Node2 -->
<g id="edge1_Node000001_Node000002" class="edge"><title>Node1&#45;&gt;Node2</title>
<g id="a_edge1_Node000001_Node000002"><a xlink:title=" ">
<path fill="none" stroke="#63b8ff" d="M81.5869,-213.045C71.297,-203.642 58.5343,-191.98 49.9883,-184.17"/>
<polygon fill="#63b8ff" stroke="#63b8ff" points="79.4382,-215.823 89.1813,-219.985 84.1602,-210.655 79.4382,-215.823"/>
</a>
</g>
</g>
<!-- Node3 -->
<g id="Node000003" class="node"><title>Node3</title>
<g id="a_Node000003"><a xlink:href="_t_set_sorted_flex_array_8h.html" target="_top" xlink:title="Deklarace typu SetSortedFlexArray a jeho API pro realizaci množiny pomocí setříděného flexibilního dy...">
<polygon fill="white" stroke="#666666" points="215.5,-184 99.5,-184 99.5,-165 215.5,-165 215.5,-184"/>
<text text-anchor="middle" x="157.5" y="-172" font-family="Helvetica,sans-Serif" font-size="10.00">TSetSortedFlexArray.h</text>
</a>
</g>
</g>
<!-- Node1&#45;&gt;Node3 -->
<g id="edge2_Node000001_Node000003" class="edge"><title>Node1&#45;&gt;Node3</title>
<g id="a_edge2_Node000001_Node000003"><a xlink:title=" ">
<path fill="none" stroke="#63b8ff" d="M115.705,-213.045C126.172,-203.642 139.155,-191.98 147.848,-184.17"/>
<polygon fill="#63b8ff" stroke="#63b8ff" points="113.08,-210.698 107.979,-219.985 117.758,-215.906 113.08,-210.698"/>
</a>
</g>
</g>
<!-- Node4 -->
<g id="Node000004" class="node"><title>Node4</title>
<g id="a_Node000004"><a xlink:href="_t_set_8h.html" target="_top" xlink:title="Definice typu Set &#45; (realizace množiny pomocí setříděného flexibilního dynamicky alokovaného pole)">
<polygon fill="white" stroke="#666666" points="130,-129 85,-129 85,-110 130,-110 130,-129"/>
<text text-anchor="middle" x="107.5" y="-117" font-family="Helvetica,sans-Serif" font-size="10.00">TSet.h</text>
</a>
</g>
</g>
<!-- Node3&#45;&gt;Node4 -->
<g id="edge3_Node000003_Node000004" class="edge"><title>Node3&#45;&gt;Node4</title>
<g id="a_edge3_Node000003_Node000004"><a xlink:title=" ">
<path fill="none" stroke="#63b8ff" d="M142.159,-157.238C133.396,-147.949 122.762,-136.677 115.603,-129.089"/>
<polygon fill="#63b8ff" stroke="#63b8ff" points="139.835,-159.876 149.244,-164.748 144.927,-155.072 139.835,-159.876"/>
</a>
</g>
</g>
<!-- Node9 -->
<g id="Node000009" class="node"><title>Node9</title>
<g id="a_Node000009"><a xlink:href="_t_set_sorted_flex_array_8c.html" target="_top" xlink:title="Implementace API pro typ SetSortedFlexArray (Flexibilní, tzv. otevřené, pole pro realizaci množiny po...">
<polygon fill="white" stroke="#666666" points="264.5,-129 148.5,-129 148.5,-110 264.5,-110 264.5,-129"/>
<text text-anchor="middle" x="206.5" y="-117" font-family="Helvetica,sans-Serif" font-size="10.00">TSetSortedFlexArray.c</text>
</a>
</g>
</g>
<!-- Node3&#45;&gt;Node9 -->
<g id="edge9_Node000003_Node000009" class="edge"><title>Node3&#45;&gt;Node9</title>
<g id="a_edge9_Node000003_Node000009"><a xlink:title=" ">
<path fill="none" stroke="#63b8ff" d="M172.534,-157.238C181.122,-147.949 191.543,-136.677 198.559,-129.089"/>
<polygon fill="#63b8ff" stroke="#63b8ff" points="169.81,-155.029 165.591,-164.748 174.95,-159.781 169.81,-155.029"/>
</a>
</g>
</g>
<!-- Node5 -->
<g id="Node000005" class="node"><title>Node5</title>
<g id="a_Node000005"><a xlink:href="_t_set_8c.html" target="_top" xlink:title="Implementace API pro typ Set (realizace množiny pomocí setříděného flexibilního dynamicky alokovaného...">
<polygon fill="white" stroke="#666666" points="79,-74 34,-74 34,-55 79,-55 79,-74"/>
<text text-anchor="middle" x="56.5" y="-62" font-family="Helvetica,sans-Serif" font-size="10.00">TSet.c</text>
</a>
</g>
</g>
<!-- Node4&#45;&gt;Node5 -->
<g id="edge4_Node000004_Node000005" class="edge"><title>Node4&#45;&gt;Node5</title>
<g id="a_edge4_Node000004_Node000005"><a xlink:title=" ">
<path fill="none" stroke="#63b8ff" d="M92.1221,-102.519C83.1331,-93.1775 72.1408,-81.7541 64.7649,-74.089"/>
<polygon fill="#63b8ff" stroke="#63b8ff" points="89.6225,-104.969 99.0784,-109.748 94.6666,-100.116 89.6225,-104.969"/>
</a>
</g>
</g>
<!-- Node6 -->
<g id="Node000006" class="node"><title>Node6</title>
<g id="a_Node000006"><a xlink:href="main_8c.html" target="_top" xlink:title="Hlavní program pro testování ADT TSet.">
<polygon fill="white" stroke="#666666" points="130.5,-19 84.5,-19 84.5,-0 130.5,-0 130.5,-19"/>
<text text-anchor="middle" x="107.5" y="-7" font-family="Helvetica,sans-Serif" font-size="10.00">main.c</text>
</a>
</g>
</g>
<!-- Node4&#45;&gt;Node6 -->
<g id="edge5_Node000004_Node000006" class="edge"><title>Node4&#45;&gt;Node6</title>
<g id="a_edge5_Node000004_Node000006"><a xlink:title=" ">
<path fill="none" stroke="#63b8ff" d="M107.5,-99.4835C107.5,-75.8433 107.5,-36.498 107.5,-19.1584"/>
<polygon fill="#63b8ff" stroke="#63b8ff" points="104,-99.6619 107.5,-109.662 111,-99.6619 104,-99.6619"/>
</a>
</g>
</g>
<!-- Node7 -->
<g id="Node000007" class="node"><title>Node7</title>
<g id="a_Node000007"><a xlink:href="testbench_8h.html" target="_top" xlink:title="Definice testbench API pro testování operací zvoleného ADT.">
<polygon fill="white" stroke="#666666" points="203.5,-74 135.5,-74 135.5,-55 203.5,-55 203.5,-74"/>
<text text-anchor="middle" x="169.5" y="-62" font-family="Helvetica,sans-Serif" font-size="10.00">testbench.h</text>
</a>
</g>
</g>
<!-- Node4&#45;&gt;Node7 -->
<g id="edge6_Node000004_Node000007" class="edge"><title>Node4&#45;&gt;Node7</title>
<g id="a_edge6_Node000004_Node000007"><a xlink:title=" ">
<path fill="none" stroke="#63b8ff" d="M125.254,-103.324C136.308,-93.8734 150.131,-82.057 159.357,-74.1703"/>
<polygon fill="#63b8ff" stroke="#63b8ff" points="122.788,-100.826 117.461,-109.985 127.337,-106.147 122.788,-100.826"/>
</a>
</g>
</g>
<!-- Node7&#45;&gt;Node6 -->
<g id="edge7_Node000007_Node000006" class="edge"><title>Node7&#45;&gt;Node6</title>
<g id="a_edge7_Node000007_Node000006"><a xlink:title=" ">
<path fill="none" stroke="#63b8ff" d="M151.746,-48.3236C140.692,-38.8734 126.869,-27.057 117.643,-19.1703"/>
<polygon fill="#63b8ff" stroke="#63b8ff" points="149.663,-51.1472 159.539,-54.9846 154.212,-45.8264 149.663,-51.1472"/>
</a>
</g>
</g>
<!-- Node8 -->
<g id="Node000008" class="node"><title>Node8</title>
<g id="a_Node000008"><a xlink:href="testbench_8c.html" target="_top" xlink:title="Implementace testbench API pro testování operací zvoleného ADT.">
<polygon fill="white" stroke="#666666" points="216.5,-19 148.5,-19 148.5,-0 216.5,-0 216.5,-19"/>
<text text-anchor="middle" x="182.5" y="-7" font-family="Helvetica,sans-Serif" font-size="10.00">testbench.c</text>
</a>
</g>
</g>
<!-- Node7&#45;&gt;Node8 -->
<g id="edge8_Node000007_Node000008" class="edge"><title>Node7&#45;&gt;Node8</title>
<g id="a_edge8_Node000007_Node000008"><a xlink:title=" ">
<path fill="none" stroke="#63b8ff" d="M174.05,-44.9505C176.208,-36.1517 178.682,-26.0643 180.393,-19.089"/>
<polygon fill="#63b8ff" stroke="#63b8ff" points="170.63,-44.2022 171.647,-54.7481 177.428,-45.8698 170.63,-44.2022"/>
</a>
</g>
</g>
</g>
</svg>
