<?xml version="1.0" encoding="UTF-8" standalone="no"?>
<!DOCTYPE svg PUBLIC "-//W3C//DTD SVG 1.1//EN"
 "http://www.w3.org/Graphics/SVG/1.1/DTD/svg11.dtd">
<!-- Generated by graphviz version 2.38.0 (20140413.2041)
 -->
<!-- Title: set_iterator_is_valid Pages: 1 -->
<svg width="724pt" height="249pt"
 viewBox="0.00 0.00 724.00 249.37" xmlns="http://www.w3.org/2000/svg" xmlns:xlink="http://www.w3.org/1999/xlink">
<g id="graph0" class="graph" transform="scale(1 1) rotate(0) translate(4 245.371)">
<title>set_iterator_is_valid</title>
<!-- Node1 -->
<g id="Node000001" class="node"><title>Node1</title>
<g id="a_Node000001"><a xlink:title="Zjištění platnosti iterátoru.">
<polygon fill="#999999" stroke="#666666" points="716,-128.371 614,-128.371 614,-109.371 716,-109.371 716,-128.371"/>
<text text-anchor="middle" x="665" y="-116.371" font-family="Helvetica,sans-Serif" font-size="10.00">set_iterator_is_valid</text>
</a>
</g>
</g>
<!-- Node2 -->
<g id="Node000002" class="node"><title>Node2</title>
<g id="a_Node000002"><a xlink:href="group___iterator_algorithms.html#ga1785c6060679dcab5e6781b66659dbf3" target="_top" xlink:title="Vyhledání prvního elementu množiny splňujícího zadaný predikát.">
<polygon fill="white" stroke="#666666" points="412.5,-241.371 352.5,-241.371 352.5,-222.371 412.5,-222.371 412.5,-241.371"/>
<text text-anchor="middle" x="382.5" y="-229.371" font-family="Helvetica,sans-Serif" font-size="10.00">set_find_if</text>
</a>
</g>
</g>
<!-- Node1&#45;&gt;Node2 -->
<g id="edge1_Node000001_Node000002" class="edge"><title>Node1&#45;&gt;Node2</title>
<g id="a_edge1_Node000001_Node000002"><a xlink:title=" ">
<path fill="none" stroke="#63b8ff" d="M650.53,-136.402C635.137,-155.086 608.148,-183.984 578,-198.871 523.95,-225.56 452.287,-231.149 412.776,-232.036"/>
<polygon fill="#63b8ff" stroke="#63b8ff" points="653.425,-138.385 656.937,-128.389 647.958,-134.013 653.425,-138.385"/>
</a>
</g>
</g>
<!-- Node3 -->
<g id="Node000003" class="node"><title>Node3</title>
<g id="a_Node000003"><a xlink:href="group___iterator_algorithms.html#ga8ca52ed8ac7c0be83a19c7ed10f813cd" target="_top" xlink:title="Vyhledání prvního elementu množiny nesplňujícího zadaný predikát.">
<polygon fill="white" stroke="#666666" points="422,-204.371 343,-204.371 343,-185.371 422,-185.371 422,-204.371"/>
<text text-anchor="middle" x="382.5" y="-192.371" font-family="Helvetica,sans-Serif" font-size="10.00">set_find_if_not</text>
</a>
</g>
</g>
<!-- Node1&#45;&gt;Node3 -->
<g id="edge2_Node000001_Node000003" class="edge"><title>Node1&#45;&gt;Node3</title>
<g id="a_edge2_Node000001_Node000003"><a xlink:title=" ">
<path fill="none" stroke="#63b8ff" d="M645.176,-134.951C628.636,-148.096 603.319,-165.919 578,-174.871 526.313,-193.144 462.433,-196.322 422.314,-196.177"/>
<polygon fill="#63b8ff" stroke="#63b8ff" points="647.45,-137.613 652.98,-128.575 643.021,-132.192 647.45,-137.613"/>
</a>
</g>
</g>
<!-- Node4 -->
<g id="Node000004" class="node"><title>Node4</title>
<g id="a_Node000004"><a xlink:href="group___iterator_algorithms.html#gab8ba369b42eda61d010f35df73be73db" target="_top" xlink:title="Zavolání zvolené funkce na každý element množiny od pozice určené iterátorem až do posledního element...">
<polygon fill="white" stroke="#666666" points="418.5,-167.371 346.5,-167.371 346.5,-148.371 418.5,-148.371 418.5,-167.371"/>
<text text-anchor="middle" x="382.5" y="-155.371" font-family="Helvetica,sans-Serif" font-size="10.00">set_for_each</text>
</a>
</g>
</g>
<!-- Node1&#45;&gt;Node4 -->
<g id="edge3_Node000001_Node000004" class="edge"><title>Node1&#45;&gt;Node4</title>
<g id="a_edge3_Node000001_Node000004"><a xlink:title=" ">
<path fill="none" stroke="#63b8ff" d="M603.481,-123.173C566.28,-126.258 517.72,-131.078 475,-137.871 456.211,-140.859 435.484,-145.293 418.515,-149.227"/>
<polygon fill="#63b8ff" stroke="#63b8ff" points="603.973,-126.644 613.658,-122.348 603.408,-119.667 603.973,-126.644"/>
</a>
</g>
</g>
<!-- Node8 -->
<g id="Node000008" class="node"><title>Node8</title>
<g id="a_Node000008"><a xlink:href="group___main_program.html#ga66149067fad48c8944eb15c52e63a990" target="_top" xlink:title=" ">
<polygon fill="white" stroke="#666666" points="290,-54.3708 188,-54.3708 188,-35.3708 290,-35.3708 290,-54.3708"/>
<text text-anchor="middle" x="239" y="-42.3708" font-family="Helvetica,sans-Serif" font-size="10.00">testset2_hardcoded</text>
</a>
</g>
</g>
<!-- Node1&#45;&gt;Node8 -->
<g id="edge21_Node000001_Node000008" class="edge"><title>Node1&#45;&gt;Node8</title>
<g id="a_edge21_Node000001_Node000008"><a xlink:title=" ">
<path fill="none" stroke="#63b8ff" d="M653.806,-100.607C639.98,-77.8933 612.945,-40.1316 578,-23.8708 471.123,25.861 324.327,-15.189 265.701,-35.3254"/>
<polygon fill="#63b8ff" stroke="#63b8ff" points="650.832,-102.454 658.907,-109.313 656.871,-98.9155 650.832,-102.454"/>
</a>
</g>
</g>
<!-- Node9 -->
<g id="Node000009" class="node"><title>Node9</title>
<g id="a_Node000009"><a xlink:href="group___iterator_algorithms.html#gadbab6630263afa4c69e0c78118fa56df" target="_top" xlink:title="Zavolání zvolené funkce na prvních N elementů množiny od pozice určené iterátorem.">
<polygon fill="white" stroke="#666666" points="410.5,-91.3708 354.5,-91.3708 354.5,-72.3708 410.5,-72.3708 410.5,-91.3708"/>
<text text-anchor="middle" x="382.5" y="-79.3708" font-family="Helvetica,sans-Serif" font-size="10.00">set_for_n</text>
</a>
</g>
</g>
<!-- Node1&#45;&gt;Node9 -->
<g id="edge9_Node000001_Node000009" class="edge"><title>Node1&#45;&gt;Node9</title>
<g id="a_edge9_Node000001_Node000009"><a xlink:title=" ">
<path fill="none" stroke="#63b8ff" d="M603.6,-108.697C595.016,-107.351 586.291,-106.035 578,-104.871 518.4,-96.4999 448.237,-88.7094 410.608,-84.6984"/>
<polygon fill="#63b8ff" stroke="#63b8ff" points="603.153,-112.17 613.579,-110.285 604.253,-105.257 603.153,-112.17"/>
</a>
</g>
</g>
<!-- Node10 -->
<g id="Node000010" class="node"><title>Node10</title>
<g id="a_Node000010"><a xlink:href="group___t_set_iterator.html#ga6723a05c864198597ff49718020bd0d6" target="_top" xlink:title="Posunutí iterátoru vpřed.">
<polygon fill="white" stroke="#666666" points="578,-166.371 475,-166.371 475,-147.371 578,-147.371 578,-166.371"/>
<text text-anchor="middle" x="526.5" y="-154.371" font-family="Helvetica,sans-Serif" font-size="10.00">set_iterator_to_next</text>
</a>
</g>
</g>
<!-- Node1&#45;&gt;Node10 -->
<g id="edge10_Node000001_Node000010" class="edge"><title>Node1&#45;&gt;Node10</title>
<g id="a_edge10_Node000001_Node000010"><a xlink:title=" ">
<path fill="none" stroke="#63b8ff" d="M619.751,-131.189C600.997,-136.41 579.472,-142.402 561.934,-147.285"/>
<polygon fill="#63b8ff" stroke="#63b8ff" points="620.86,-134.514 629.555,-128.46 618.983,-127.77 620.86,-134.514"/>
</a>
</g>
</g>
<!-- Node11 -->
<g id="Node000011" class="node"><title>Node11</title>
<g id="a_Node000011"><a xlink:href="group___t_set_iterator.html#ga3928a980e2759ba130ce333e77f15fab" target="_top" xlink:title="Přečtení hodnoty elementu z množiny pomocí iterátoru.">
<polygon fill="white" stroke="#666666" points="572.5,-52.3708 480.5,-52.3708 480.5,-33.3708 572.5,-33.3708 572.5,-52.3708"/>
<text text-anchor="middle" x="526.5" y="-40.3708" font-family="Helvetica,sans-Serif" font-size="10.00">set_iterator_value</text>
</a>
</g>
</g>
<!-- Node1&#45;&gt;Node11 -->
<g id="edge16_Node000001_Node000011" class="edge"><title>Node1&#45;&gt;Node11</title>
<g id="a_edge16_Node000001_Node000011"><a xlink:title=" ">
<path fill="none" stroke="#63b8ff" d="M640.301,-103.661C623.234,-92.9267 599.519,-78.4524 578,-66.8708 568.597,-61.8104 557.951,-56.6676 548.866,-52.4476"/>
<polygon fill="#63b8ff" stroke="#63b8ff" points="638.722,-106.804 649.042,-109.198 642.467,-100.891 638.722,-106.804"/>
</a>
</g>
</g>
<!-- Node5 -->
<g id="Node000005" class="node"><title>Node5</title>
<g id="a_Node000005"><a xlink:href="testbench_8c.html#a068734a4e1d6209769e0c6b1675ca02b" target="_top" xlink:title="Provedení jednoho test z testovacího plánu na předaném ADT.">
<polygon fill="white" stroke="#666666" points="265,-92.3708 213,-92.3708 213,-73.3708 265,-73.3708 265,-92.3708"/>
<text text-anchor="middle" x="239" y="-80.3708" font-family="Helvetica,sans-Serif" font-size="10.00">test_run</text>
</a>
</g>
</g>
<!-- Node4&#45;&gt;Node5 -->
<g id="edge4_Node000004_Node000005" class="edge"><title>Node4&#45;&gt;Node5</title>
<g id="a_edge4_Node000004_Node000005"><a xlink:title=" ">
<path fill="none" stroke="#63b8ff" d="M348.499,-144.42C341.017,-141.145 333.167,-137.527 326,-133.871 300.332,-120.777 271.791,-103.22 254.897,-92.4939"/>
<polygon fill="#63b8ff" stroke="#63b8ff" points="347.129,-147.641 357.699,-148.362 349.886,-141.206 347.129,-147.641"/>
</a>
</g>
</g>
<!-- Node4&#45;&gt;Node8 -->
<g id="edge7_Node000004_Node000008" class="edge"><title>Node4&#45;&gt;Node8</title>
<g id="a_edge7_Node000004_Node000008"><a xlink:title=" ">
<path fill="none" stroke="#63b8ff" d="M340.029,-143.818C334.958,-141.019 330.121,-137.725 326,-133.871 300.449,-109.974 316.082,-87.1869 290,-63.8708 285.708,-60.0337 280.562,-56.9407 275.227,-54.4565"/>
<polygon fill="#63b8ff" stroke="#63b8ff" points="338.782,-147.103 349.305,-148.335 341.847,-140.81 338.782,-147.103"/>
</a>
</g>
</g>
<!-- Node6 -->
<g id="Node000006" class="node"><title>Node6</title>
<g id="a_Node000006"><a xlink:href="testbench_8c.html#a2fa1559684d267665b1c2433208511d3" target="_top" xlink:title="Provedení všech testů zadaného testovacího plánu na předaném ADT.">
<polygon fill="white" stroke="#666666" points="152,-92.3708 74,-92.3708 74,-73.3708 152,-73.3708 152,-92.3708"/>
<text text-anchor="middle" x="113" y="-80.3708" font-family="Helvetica,sans-Serif" font-size="10.00">testbench_run</text>
</a>
</g>
</g>
<!-- Node5&#45;&gt;Node6 -->
<g id="edge5_Node000005_Node000006" class="edge"><title>Node5&#45;&gt;Node6</title>
<g id="a_edge5_Node000005_Node000006"><a xlink:title=" ">
<path fill="none" stroke="#63b8ff" d="M202.536,-82.8708C186.813,-82.8708 168.285,-82.8708 152.253,-82.8708"/>
<polygon fill="#63b8ff" stroke="#63b8ff" points="202.907,-86.3709 212.907,-82.8708 202.907,-79.3709 202.907,-86.3709"/>
</a>
</g>
</g>
<!-- Node7 -->
<g id="Node000007" class="node"><title>Node7</title>
<g id="a_Node000007"><a xlink:href="group___main_program.html#ga0ddf1224851353fc92bfbff6f499fa97" target="_top" xlink:title=" ">
<polygon fill="white" stroke="#666666" points="38,-73.3708 0,-73.3708 0,-54.3708 38,-54.3708 38,-73.3708"/>
<text text-anchor="middle" x="19" y="-61.3708" font-family="Helvetica,sans-Serif" font-size="10.00">main</text>
</a>
</g>
</g>
<!-- Node6&#45;&gt;Node7 -->
<g id="edge6_Node000006_Node000007" class="edge"><title>Node6&#45;&gt;Node7</title>
<g id="a_edge6_Node000006_Node000007"><a xlink:title=" ">
<path fill="none" stroke="#63b8ff" d="M63.9337,-72.9441C54.8336,-71.0648 45.8417,-69.2077 38.3861,-67.668"/>
<polygon fill="#63b8ff" stroke="#63b8ff" points="63.2817,-76.3833 73.783,-74.9782 64.6976,-69.5279 63.2817,-76.3833"/>
</a>
</g>
</g>
<!-- Node8&#45;&gt;Node7 -->
<g id="edge8_Node000008_Node000007" class="edge"><title>Node8&#45;&gt;Node7</title>
<g id="a_edge8_Node000008_Node000007"><a xlink:title=" ">
<path fill="none" stroke="#63b8ff" d="M177.906,-50.1084C130.903,-54.205 68.593,-59.6357 38.2145,-62.2833"/>
<polygon fill="#63b8ff" stroke="#63b8ff" points="178.328,-53.585 187.986,-49.2298 177.72,-46.6114 178.328,-53.585"/>
</a>
</g>
</g>
<!-- Node10&#45;&gt;Node2 -->
<g id="edge11_Node000010_Node000002" class="edge"><title>Node10&#45;&gt;Node2</title>
<g id="a_edge11_Node000010_Node000002"><a xlink:title=" ">
<path fill="none" stroke="#63b8ff" d="M504.785,-172.353C487.774,-184.548 462.706,-201.355 439,-212.871 430.664,-216.92 421.241,-220.492 412.558,-223.413"/>
<polygon fill="#63b8ff" stroke="#63b8ff" points="506.872,-175.164 512.897,-166.449 502.752,-169.504 506.872,-175.164"/>
</a>
</g>
</g>
<!-- Node10&#45;&gt;Node3 -->
<g id="edge12_Node000010_Node000003" class="edge"><title>Node10&#45;&gt;Node3</title>
<g id="a_edge12_Node000010_Node000003"><a xlink:title=" ">
<path fill="none" stroke="#63b8ff" d="M480.007,-169.045C460.372,-174.3 437.734,-180.357 419.321,-185.285"/>
<polygon fill="#63b8ff" stroke="#63b8ff" points="480.912,-172.426 489.667,-166.46 479.103,-165.664 480.912,-172.426"/>
</a>
</g>
</g>
<!-- Node10&#45;&gt;Node4 -->
<g id="edge13_Node000010_Node000004" class="edge"><title>Node10&#45;&gt;Node4</title>
<g id="a_edge13_Node000010_Node000004"><a xlink:title=" ">
<path fill="none" stroke="#63b8ff" d="M464.524,-157.3C448.943,-157.41 432.704,-157.524 418.892,-157.622"/>
<polygon fill="#63b8ff" stroke="#63b8ff" points="464.661,-160.799 474.636,-157.229 464.611,-153.8 464.661,-160.799"/>
</a>
</g>
</g>
<!-- Node10&#45;&gt;Node8 -->
<g id="edge15_Node000010_Node000008" class="edge"><title>Node10&#45;&gt;Node8</title>
<g id="a_edge15_Node000010_Node000008"><a xlink:title=" ">
<path fill="none" stroke="#63b8ff" d="M473.149,-145.071C422.837,-133.17 350.885,-114.513 326,-99.8708 306.498,-88.3959 308.998,-76.1626 290,-63.8708 284.309,-60.1884 277.797,-57.0611 271.397,-54.4718"/>
<polygon fill="#63b8ff" stroke="#63b8ff" points="472.368,-148.482 482.903,-147.358 473.966,-141.667 472.368,-148.482"/>
</a>
</g>
</g>
<!-- Node10&#45;&gt;Node9 -->
<g id="edge14_Node000010_Node000009" class="edge"><title>Node10&#45;&gt;Node9</title>
<g id="a_edge14_Node000010_Node000009"><a xlink:title=" ">
<path fill="none" stroke="#63b8ff" d="M501.738,-141.775C484.607,-131.162 460.765,-116.939 439,-105.871 428.8,-100.684 417.225,-95.5633 407.294,-91.3925"/>
<polygon fill="#63b8ff" stroke="#63b8ff" points="500.174,-144.925 510.509,-147.257 503.883,-138.989 500.174,-144.925"/>
</a>
</g>
</g>
<!-- Node11&#45;&gt;Node8 -->
<g id="edge20_Node000011_Node000008" class="edge"><title>Node11&#45;&gt;Node8</title>
<g id="a_edge20_Node000011_Node000008"><a xlink:title=" ">
<path fill="none" stroke="#63b8ff" d="M475.843,-31.4C463.847,-29.1046 451.02,-27.0408 439,-25.8708 389.014,-21.0055 375.926,-20.4215 326,-25.8708 308.976,-27.729 290.387,-31.598 274.861,-35.3627"/>
<polygon fill="#63b8ff" stroke="#63b8ff" points="475.196,-34.8398 485.688,-33.3682 476.569,-27.9757 475.196,-34.8398"/>
</a>
</g>
</g>
<!-- Node12 -->
<g id="Node000012" class="node"><title>Node12</title>
<g id="a_Node000012"><a xlink:href="testbench_8c.html#ae7a610c069c6000940838c6a1e11bb42" target="_top" xlink:title="Vytisknutí hodnoty v ADT pomocí iterátoru.">
<polygon fill="white" stroke="#666666" points="439,-54.3708 326,-54.3708 326,-35.3708 439,-35.3708 439,-54.3708"/>
<text text-anchor="middle" x="382.5" y="-42.3708" font-family="Helvetica,sans-Serif" font-size="10.00">print_value_by_iterator</text>
</a>
</g>
</g>
<!-- Node11&#45;&gt;Node12 -->
<g id="edge17_Node000011_Node000012" class="edge"><title>Node11&#45;&gt;Node12</title>
<g id="a_edge17_Node000011_Node000012"><a xlink:title=" ">
<path fill="none" stroke="#63b8ff" d="M470.161,-43.6503C459.957,-43.794 449.299,-43.9441 439.088,-44.0879"/>
<polygon fill="#63b8ff" stroke="#63b8ff" points="470.23,-47.1497 480.18,-43.5092 470.132,-40.1504 470.23,-47.1497"/>
</a>
</g>
</g>
<!-- Node12&#45;&gt;Node5 -->
<g id="edge18_Node000012_Node000005" class="edge"><title>Node12&#45;&gt;Node5</title>
<g id="a_edge18_Node000012_Node000005"><a xlink:title=" ">
<path fill="none" stroke="#63b8ff" d="M336.067,-57.0719C312.681,-63.3523 285.043,-70.7744 265.43,-76.0416"/>
<polygon fill="#63b8ff" stroke="#63b8ff" points="337.044,-60.4338 345.794,-54.4599 335.228,-53.6733 337.044,-60.4338"/>
</a>
</g>
</g>
<!-- Node12&#45;&gt;Node8 -->
<g id="edge19_Node000012_Node000008" class="edge"><title>Node12&#45;&gt;Node8</title>
<g id="a_edge19_Node000012_Node000008"><a xlink:title=" ">
<path fill="none" stroke="#63b8ff" d="M315.943,-44.8708C307.324,-44.8708 298.602,-44.8708 290.292,-44.8708"/>
<polygon fill="#63b8ff" stroke="#63b8ff" points="315.982,-48.3709 325.982,-44.8708 315.982,-41.3709 315.982,-48.3709"/>
</a>
</g>
</g>
</g>
</svg>
