<?xml version="1.0" encoding="UTF-8" standalone="no"?>
<!DOCTYPE svg PUBLIC "-//W3C//DTD SVG 1.1//EN"
 "http://www.w3.org/Graphics/SVG/1.1/DTD/svg11.dtd">
<!-- Generated by graphviz version 2.38.0 (20140413.2041)
 -->
<!-- Title: set_for_n Pages: 1 -->
<svg width="532pt" height="103pt"
 viewBox="0.00 0.00 532.00 103.00" xmlns="http://www.w3.org/2000/svg" xmlns:xlink="http://www.w3.org/1999/xlink">
<g id="graph0" class="graph" transform="scale(1 1) rotate(0) translate(4 99)">
<title>set_for_n</title>
<!-- Node1 -->
<g id="Node000001" class="node"><title>Node1</title>
<g id="a_Node000001"><a xlink:title="Zavolání zvolené funkce na prvních N elementů množiny od pozice určené iterátorem.">
<polygon fill="#999999" stroke="#666666" points="56,-76 3.55271e-015,-76 3.55271e-015,-57 56,-57 56,-76"/>
<text text-anchor="middle" x="28" y="-64" font-family="Helvetica,sans-Serif" font-size="10.00">set_for_n</text>
</a>
</g>
</g>
<!-- Node2 -->
<g id="Node000002" class="node"><title>Node2</title>
<g id="a_Node000002"><a xlink:href="group___t_set_iterator.html#ga089f24c81ac3da7d1ac7ca24cc078dd8" target="_top" xlink:title="Zjištění platnosti iterátoru.">
<polygon fill="white" stroke="#666666" points="343,-95 241,-95 241,-76 343,-76 343,-95"/>
<text text-anchor="middle" x="292" y="-83" font-family="Helvetica,sans-Serif" font-size="10.00">set_iterator_is_valid</text>
</a>
</g>
</g>
<!-- Node1&#45;&gt;Node2 -->
<g id="edge1_Node000001_Node000002" class="edge"><title>Node1&#45;&gt;Node2</title>
<g id="a_edge1_Node000001_Node000002"><a xlink:title=" ">
<path fill="none" stroke="#63b8ff" d="M56.0518,-68.4618C97.0383,-71.4341 175.914,-77.154 230.915,-81.1427"/>
<polygon fill="#63b8ff" stroke="#63b8ff" points="230.666,-84.6337 240.893,-81.8663 231.172,-77.6521 230.666,-84.6337"/>
</a>
</g>
</g>
<!-- Node4 -->
<g id="Node000004" class="node"><title>Node4</title>
<g id="a_Node000004"><a xlink:href="group___t_set_iterator.html#ga6723a05c864198597ff49718020bd0d6" target="_top" xlink:title="Posunutí iterátoru vpřed.">
<polygon fill="white" stroke="#666666" points="195,-57 92,-57 92,-38 195,-38 195,-57"/>
<text text-anchor="middle" x="143.5" y="-45" font-family="Helvetica,sans-Serif" font-size="10.00">set_iterator_to_next</text>
</a>
</g>
</g>
<!-- Node1&#45;&gt;Node4 -->
<g id="edge3_Node000001_Node000004" class="edge"><title>Node1&#45;&gt;Node4</title>
<g id="a_edge3_Node000001_Node000004"><a xlink:title=" ">
<path fill="none" stroke="#63b8ff" d="M56.1861,-61.949C64.0006,-60.6409 72.8527,-59.159 81.8363,-57.6552"/>
<polygon fill="#63b8ff" stroke="#63b8ff" points="82.7016,-61.0591 91.9865,-55.956 81.5459,-54.1552 82.7016,-61.0591"/>
</a>
</g>
</g>
<!-- Node3 -->
<g id="Node000003" class="node"><title>Node3</title>
<g id="a_Node000003"><a xlink:href="group___t_set_sorted_flex_array.html#gacc6cb5e01b187a635190372a370bca56" target="_top" xlink:title="Zjištění platnosti pozice ve flexibilním poli.">
<polygon fill="white" stroke="#666666" points="524,-76 389,-76 389,-57 524,-57 524,-76"/>
<text text-anchor="middle" x="456.5" y="-64" font-family="Helvetica,sans-Serif" font-size="10.00">set_flex_array_is_valid_pos</text>
</a>
</g>
</g>
<!-- Node2&#45;&gt;Node3 -->
<g id="edge2_Node000002_Node000003" class="edge"><title>Node2&#45;&gt;Node3</title>
<g id="a_edge2_Node000002_Node000003"><a xlink:title=" ">
<path fill="none" stroke="#63b8ff" d="M343.081,-79.6443C354.374,-78.324 366.613,-76.8929 378.72,-75.4774"/>
<polygon fill="#63b8ff" stroke="#63b8ff" points="379.309,-78.9325 388.834,-74.2947 378.496,-71.9798 379.309,-78.9325"/>
</a>
</g>
</g>
<!-- Node4&#45;&gt;Node2 -->
<g id="edge6_Node000004_Node000002" class="edge"><title>Node4&#45;&gt;Node2</title>
<g id="a_edge6_Node000004_Node000002"><a xlink:title=" ">
<path fill="none" stroke="#63b8ff" d="M181.468,-57.089C200.626,-62.0583 224.214,-68.1767 244.588,-73.4613"/>
<polygon fill="#63b8ff" stroke="#63b8ff" points="243.739,-76.857 254.298,-75.9799 245.497,-70.0812 243.739,-76.857"/>
</a>
</g>
</g>
<!-- Node4&#45;&gt;Node3 -->
<g id="edge4_Node000004_Node000003" class="edge"><title>Node4&#45;&gt;Node3</title>
<g id="a_edge4_Node000004_Node000003"><a xlink:title=" ">
<path fill="none" stroke="#63b8ff" d="M195.16,-50.595C244.926,-53.6354 321.511,-58.3142 378.752,-61.8112"/>
<polygon fill="#63b8ff" stroke="#63b8ff" points="378.648,-65.3113 388.843,-62.4277 379.075,-58.3243 378.648,-65.3113"/>
</a>
</g>
</g>
<!-- Node5 -->
<g id="Node000005" class="node"><title>Node5</title>
<g id="a_Node000005"><a xlink:href="group___t_set_sorted_flex_array.html#gaa441922af31d7ed0f08ddc506dc3ab23" target="_top" xlink:title="Výpočet následující platné pozice ve flexibilním poli.">
<polygon fill="white" stroke="#666666" points="353,-19 231,-19 231,-0 353,-0 353,-19"/>
<text text-anchor="middle" x="292" y="-7" font-family="Helvetica,sans-Serif" font-size="10.00">set_flex_array_next_pos</text>
</a>
</g>
</g>
<!-- Node4&#45;&gt;Node5 -->
<g id="edge5_Node000004_Node000005" class="edge"><title>Node4&#45;&gt;Node5</title>
<g id="a_edge5_Node000004_Node000005"><a xlink:title=" ">
<path fill="none" stroke="#63b8ff" d="M181.468,-37.911C200.626,-32.9417 224.214,-26.8233 244.588,-21.5387"/>
<polygon fill="#63b8ff" stroke="#63b8ff" points="245.497,-24.9188 254.298,-19.0201 243.739,-18.143 245.497,-24.9188"/>
</a>
</g>
</g>
</g>
</svg>
