<?xml version="1.0" encoding="UTF-8" standalone="no"?>
<!DOCTYPE svg PUBLIC "-//W3C//DTD SVG 1.1//EN"
 "http://www.w3.org/Graphics/SVG/1.1/DTD/svg11.dtd">
<!-- Generated by graphviz version 2.38.0 (20140413.2041)
 -->
<!-- Title: set_flex_array_next_pos Pages: 1 -->
<svg width="710pt" height="177pt"
 viewBox="0.00 0.00 710.00 177.00" xmlns="http://www.w3.org/2000/svg" xmlns:xlink="http://www.w3.org/1999/xlink">
<g id="graph0" class="graph" transform="scale(1 1) rotate(0) translate(4 173)">
<title>set_flex_array_next_pos</title>
<!-- Node1 -->
<g id="Node000001" class="node"><title>Node1</title>
<g id="a_Node000001"><a xlink:title="Výpočet následující platné pozice ve flexibilním poli.">
<polygon fill="#999999" stroke="#666666" points="702,-95 580,-95 580,-76 702,-76 702,-95"/>
<text text-anchor="middle" x="641" y="-83" font-family="Helvetica,sans-Serif" font-size="10.00">set_flex_array_next_pos</text>
</a>
</g>
</g>
<!-- Node2 -->
<g id="Node000002" class="node"><title>Node2</title>
<g id="a_Node000002"><a xlink:href="group___t_set_iterator.html#ga6723a05c864198597ff49718020bd0d6" target="_top" xlink:title="Posunutí iterátoru vpřed.">
<polygon fill="white" stroke="#666666" points="544,-95 441,-95 441,-76 544,-76 544,-95"/>
<text text-anchor="middle" x="492.5" y="-83" font-family="Helvetica,sans-Serif" font-size="10.00">set_iterator_to_next</text>
</a>
</g>
</g>
<!-- Node1&#45;&gt;Node2 -->
<g id="edge1_Node000001_Node000002" class="edge"><title>Node1&#45;&gt;Node2</title>
<g id="a_edge1_Node000001_Node000002"><a xlink:title=" ">
<path fill="none" stroke="#63b8ff" d="M569.905,-85.5C561.266,-85.5 552.568,-85.5 544.294,-85.5"/>
<polygon fill="#63b8ff" stroke="#63b8ff" points="569.99,-89.0001 579.99,-85.5 569.99,-82.0001 569.99,-89.0001"/>
</a>
</g>
</g>
<!-- Node3 -->
<g id="Node000003" class="node"><title>Node3</title>
<g id="a_Node000003"><a xlink:href="group___iterator_algorithms.html#ga1785c6060679dcab5e6781b66659dbf3" target="_top" xlink:title="Vyhledání prvního elementu množiny splňujícího zadaný predikát.">
<polygon fill="white" stroke="#666666" points="395.5,-169 335.5,-169 335.5,-150 395.5,-150 395.5,-169"/>
<text text-anchor="middle" x="365.5" y="-157" font-family="Helvetica,sans-Serif" font-size="10.00">set_find_if</text>
</a>
</g>
</g>
<!-- Node2&#45;&gt;Node3 -->
<g id="edge2_Node000002_Node000003" class="edge"><title>Node2&#45;&gt;Node3</title>
<g id="a_edge2_Node000002_Node000003"><a xlink:title=" ">
<path fill="none" stroke="#63b8ff" d="M469.832,-100.714C452.638,-112.494 427.787,-128.875 405,-141.5 399.708,-144.432 393.856,-147.333 388.345,-149.921"/>
<polygon fill="#63b8ff" stroke="#63b8ff" points="471.838,-103.583 478.074,-95.0181 467.858,-97.8243 471.838,-103.583"/>
</a>
</g>
</g>
<!-- Node4 -->
<g id="Node000004" class="node"><title>Node4</title>
<g id="a_Node000004"><a xlink:href="group___iterator_algorithms.html#ga8ca52ed8ac7c0be83a19c7ed10f813cd" target="_top" xlink:title="Vyhledání prvního elementu množiny nesplňujícího zadaný predikát.">
<polygon fill="white" stroke="#666666" points="405,-132 326,-132 326,-113 405,-113 405,-132"/>
<text text-anchor="middle" x="365.5" y="-120" font-family="Helvetica,sans-Serif" font-size="10.00">set_find_if_not</text>
</a>
</g>
</g>
<!-- Node2&#45;&gt;Node4 -->
<g id="edge3_Node000002_Node000004" class="edge"><title>Node2&#45;&gt;Node4</title>
<g id="a_edge3_Node000002_Node000004"><a xlink:title=" ">
<path fill="none" stroke="#63b8ff" d="M449.393,-97.9637C432.952,-102.83 414.397,-108.323 399.016,-112.875"/>
<polygon fill="#63b8ff" stroke="#63b8ff" points="450.714,-101.223 459.309,-95.0284 448.727,-94.5107 450.714,-101.223"/>
</a>
</g>
</g>
<!-- Node5 -->
<g id="Node000005" class="node"><title>Node5</title>
<g id="a_Node000005"><a xlink:href="group___iterator_algorithms.html#gab8ba369b42eda61d010f35df73be73db" target="_top" xlink:title="Zavolání zvolené funkce na každý element množiny od pozice určené iterátorem až do posledního element...">
<polygon fill="white" stroke="#666666" points="401.5,-95 329.5,-95 329.5,-76 401.5,-76 401.5,-95"/>
<text text-anchor="middle" x="365.5" y="-83" font-family="Helvetica,sans-Serif" font-size="10.00">set_for_each</text>
</a>
</g>
</g>
<!-- Node2&#45;&gt;Node5 -->
<g id="edge4_Node000002_Node000005" class="edge"><title>Node2&#45;&gt;Node5</title>
<g id="a_edge4_Node000002_Node000005"><a xlink:title=" ">
<path fill="none" stroke="#63b8ff" d="M430.416,-85.5C420.531,-85.5 410.6,-85.5 401.61,-85.5"/>
<polygon fill="#63b8ff" stroke="#63b8ff" points="430.658,-89.0001 440.658,-85.5 430.658,-82.0001 430.658,-89.0001"/>
</a>
</g>
</g>
<!-- Node9 -->
<g id="Node000009" class="node"><title>Node9</title>
<g id="a_Node000009"><a xlink:href="group___main_program.html#ga66149067fad48c8944eb15c52e63a990" target="_top" xlink:title=" ">
<polygon fill="white" stroke="#666666" points="290,-57 188,-57 188,-38 290,-38 290,-57"/>
<text text-anchor="middle" x="239" y="-45" font-family="Helvetica,sans-Serif" font-size="10.00">testset2_hardcoded</text>
</a>
</g>
</g>
<!-- Node2&#45;&gt;Node9 -->
<g id="edge11_Node000002_Node000009" class="edge"><title>Node2&#45;&gt;Node9</title>
<g id="a_edge11_Node000002_Node000009"><a xlink:title=" ">
<path fill="none" stroke="#63b8ff" d="M439.603,-73.9572C428.234,-71.6369 416.238,-69.347 405,-67.5 366.703,-61.2059 323.102,-56.0048 290.342,-52.4856"/>
<polygon fill="#63b8ff" stroke="#63b8ff" points="438.894,-77.3846 449.397,-75.9939 440.319,-70.5312 438.894,-77.3846"/>
</a>
</g>
</g>
<!-- Node10 -->
<g id="Node000010" class="node"><title>Node10</title>
<g id="a_Node000010"><a xlink:href="group___iterator_algorithms.html#gadbab6630263afa4c69e0c78118fa56df" target="_top" xlink:title="Zavolání zvolené funkce na prvních N elementů množiny od pozice určené iterátorem.">
<polygon fill="white" stroke="#666666" points="393.5,-19 337.5,-19 337.5,-0 393.5,-0 393.5,-19"/>
<text text-anchor="middle" x="365.5" y="-7" font-family="Helvetica,sans-Serif" font-size="10.00">set_for_n</text>
</a>
</g>
</g>
<!-- Node2&#45;&gt;Node10 -->
<g id="edge10_Node000002_Node000010" class="edge"><title>Node2&#45;&gt;Node10</title>
<g id="a_edge10_Node000002_Node000010"><a xlink:title=" ">
<path fill="none" stroke="#63b8ff" d="M467.067,-70.6447C441.938,-55.3665 403.549,-32.0258 382.203,-19.0473"/>
<polygon fill="#63b8ff" stroke="#63b8ff" points="465.306,-73.67 475.669,-75.8745 468.942,-67.6887 465.306,-73.67"/>
</a>
</g>
</g>
<!-- Node6 -->
<g id="Node000006" class="node"><title>Node6</title>
<g id="a_Node000006"><a xlink:href="testbench_8c.html#a068734a4e1d6209769e0c6b1675ca02b" target="_top" xlink:title="Provedení jednoho test z testovacího plánu na předaném ADT.">
<polygon fill="white" stroke="#666666" points="265,-95 213,-95 213,-76 265,-76 265,-95"/>
<text text-anchor="middle" x="239" y="-83" font-family="Helvetica,sans-Serif" font-size="10.00">test_run</text>
</a>
</g>
</g>
<!-- Node5&#45;&gt;Node6 -->
<g id="edge5_Node000005_Node000006" class="edge"><title>Node5&#45;&gt;Node6</title>
<g id="a_edge5_Node000005_Node000006"><a xlink:title=" ">
<path fill="none" stroke="#63b8ff" d="M319.348,-85.5C301.134,-85.5 280.803,-85.5 265.281,-85.5"/>
<polygon fill="#63b8ff" stroke="#63b8ff" points="319.489,-89.0001 329.488,-85.5 319.488,-82.0001 319.489,-89.0001"/>
</a>
</g>
</g>
<!-- Node5&#45;&gt;Node9 -->
<g id="edge8_Node000005_Node000009" class="edge"><title>Node5&#45;&gt;Node9</title>
<g id="a_edge8_Node000005_Node000009"><a xlink:title=" ">
<path fill="none" stroke="#63b8ff" d="M323.43,-72.9647C306.494,-67.7952 287.182,-61.9009 271.407,-57.0859"/>
<polygon fill="#63b8ff" stroke="#63b8ff" points="322.497,-76.3392 333.083,-75.911 324.541,-69.6441 322.497,-76.3392"/>
</a>
</g>
</g>
<!-- Node7 -->
<g id="Node000007" class="node"><title>Node7</title>
<g id="a_Node000007"><a xlink:href="testbench_8c.html#a2fa1559684d267665b1c2433208511d3" target="_top" xlink:title="Provedení všech testů zadaného testovacího plánu na předaném ADT.">
<polygon fill="white" stroke="#666666" points="152,-95 74,-95 74,-76 152,-76 152,-95"/>
<text text-anchor="middle" x="113" y="-83" font-family="Helvetica,sans-Serif" font-size="10.00">testbench_run</text>
</a>
</g>
</g>
<!-- Node6&#45;&gt;Node7 -->
<g id="edge6_Node000006_Node000007" class="edge"><title>Node6&#45;&gt;Node7</title>
<g id="a_edge6_Node000006_Node000007"><a xlink:title=" ">
<path fill="none" stroke="#63b8ff" d="M202.536,-85.5C186.813,-85.5 168.285,-85.5 152.253,-85.5"/>
<polygon fill="#63b8ff" stroke="#63b8ff" points="202.907,-89.0001 212.907,-85.5 202.907,-82.0001 202.907,-89.0001"/>
</a>
</g>
</g>
<!-- Node8 -->
<g id="Node000008" class="node"><title>Node8</title>
<g id="a_Node000008"><a xlink:href="group___main_program.html#ga0ddf1224851353fc92bfbff6f499fa97" target="_top" xlink:title=" ">
<polygon fill="white" stroke="#666666" points="38,-76 0,-76 0,-57 38,-57 38,-76"/>
<text text-anchor="middle" x="19" y="-64" font-family="Helvetica,sans-Serif" font-size="10.00">main</text>
</a>
</g>
</g>
<!-- Node7&#45;&gt;Node8 -->
<g id="edge7_Node000007_Node000008" class="edge"><title>Node7&#45;&gt;Node8</title>
<g id="a_edge7_Node000007_Node000008"><a xlink:title=" ">
<path fill="none" stroke="#63b8ff" d="M63.9337,-75.5733C54.8336,-73.6939 45.8417,-71.8369 38.3861,-70.2971"/>
<polygon fill="#63b8ff" stroke="#63b8ff" points="63.2817,-79.0124 73.783,-77.6074 64.6976,-72.1571 63.2817,-79.0124"/>
</a>
</g>
</g>
<!-- Node9&#45;&gt;Node8 -->
<g id="edge9_Node000009_Node000008" class="edge"><title>Node9&#45;&gt;Node8</title>
<g id="a_edge9_Node000009_Node000008"><a xlink:title=" ">
<path fill="none" stroke="#63b8ff" d="M177.906,-52.7376C130.903,-56.8342 68.593,-62.2648 38.2145,-64.9125"/>
<polygon fill="#63b8ff" stroke="#63b8ff" points="178.328,-56.2141 187.986,-51.859 177.72,-49.2406 178.328,-56.2141"/>
</a>
</g>
</g>
</g>
</svg>
