<?xml version="1.0" encoding="UTF-8" standalone="no"?>
<!DOCTYPE svg PUBLIC "-//W3C//DTD SVG 1.1//EN"
 "http://www.w3.org/Graphics/SVG/1.1/DTD/svg11.dtd">
<!-- Generated by graphviz version 2.38.0 (20140413.2041)
 -->
<!-- Title: set_erase Pages: 1 -->
<svg width="518pt" height="64pt"
 viewBox="0.00 0.00 518.00 64.00" xmlns="http://www.w3.org/2000/svg" xmlns:xlink="http://www.w3.org/1999/xlink">
<g id="graph0" class="graph" transform="scale(1 1) rotate(0) translate(4 60)">
<title>set_erase</title>
<!-- Node1 -->
<g id="Node000001" class="node"><title>Node1</title>
<g id="a_Node000001"><a xlink:title="Odstranění elementu z množiny.">
<polygon fill="#999999" stroke="#666666" points="59,-37 0,-37 0,-18 59,-18 59,-37"/>
<text text-anchor="middle" x="29.5" y="-25" font-family="Helvetica,sans-Serif" font-size="10.00">set_erase</text>
</a>
</g>
</g>
<!-- Node2 -->
<g id="Node000002" class="node"><title>Node2</title>
<g id="a_Node000002"><a xlink:href="group___t_set_sorted_flex_array.html#ga0dc8c6ebd89da19ecfe8e32f60da22a7" target="_top" xlink:title="Odstranění elementu z flexibilního pole.">
<polygon fill="white" stroke="#666666" points="202,-56 95,-56 95,-37 202,-37 202,-56"/>
<text text-anchor="middle" x="148.5" y="-44" font-family="Helvetica,sans-Serif" font-size="10.00">set_flex_array_erase</text>
</a>
</g>
</g>
<!-- Node1&#45;&gt;Node2 -->
<g id="edge1_Node000001_Node000002" class="edge"><title>Node1&#45;&gt;Node2</title>
<g id="a_edge1_Node000001_Node000002"><a xlink:title=" ">
<path fill="none" stroke="#63b8ff" d="M59.1214,-32.1479C66.9859,-33.4251 75.8353,-34.8621 84.8168,-36.3207"/>
<polygon fill="#63b8ff" stroke="#63b8ff" points="84.5361,-39.8209 94.9679,-37.9691 85.6582,-32.9114 84.5361,-39.8209"/>
</a>
</g>
</g>
<!-- Node5 -->
<g id="Node000005" class="node"><title>Node5</title>
<g id="a_Node000005"><a xlink:href="group___t_set.html#ga213cfb714cece49d955fc452b2aeb186" target="_top" xlink:title="Přečtení počtu elementů množiny.">
<polygon fill="white" stroke="#666666" points="175,-19 122,-19 122,-0 175,-0 175,-19"/>
<text text-anchor="middle" x="148.5" y="-7" font-family="Helvetica,sans-Serif" font-size="10.00">set_size</text>
</a>
</g>
</g>
<!-- Node1&#45;&gt;Node5 -->
<g id="edge4_Node000001_Node000005" class="edge"><title>Node1&#45;&gt;Node5</title>
<g id="a_edge4_Node000001_Node000005"><a xlink:title=" ">
<path fill="none" stroke="#63b8ff" d="M59.1214,-23.0967C75.0323,-20.6489 94.9739,-17.5809 111.886,-14.9791"/>
<polygon fill="#63b8ff" stroke="#63b8ff" points="112.61,-18.4089 121.962,-13.429 111.546,-11.4903 112.61,-18.4089"/>
</a>
</g>
</g>
<!-- Node3 -->
<g id="Node000003" class="node"><title>Node3</title>
<g id="a_Node000003"><a xlink:href="group___t_set_sorted_flex_array.html#ga4462d6617422f696dd090a9cc3916282" target="_top" xlink:title="Funkce zjišťující, zda flexibilní pole obsahuje element o zadané hodnotě">
<polygon fill="white" stroke="#666666" points="350,-56 238,-56 238,-37 350,-37 350,-56"/>
<text text-anchor="middle" x="294" y="-44" font-family="Helvetica,sans-Serif" font-size="10.00">set_flex_array_search</text>
</a>
</g>
</g>
<!-- Node2&#45;&gt;Node3 -->
<g id="edge2_Node000002_Node000003" class="edge"><title>Node2&#45;&gt;Node3</title>
<g id="a_edge2_Node000002_Node000003"><a xlink:title=" ">
<path fill="none" stroke="#63b8ff" d="M202.119,-46.5C210.513,-46.5 219.284,-46.5 227.925,-46.5"/>
<polygon fill="#63b8ff" stroke="#63b8ff" points="227.978,-50.0001 237.978,-46.5 227.978,-43.0001 227.978,-50.0001"/>
</a>
</g>
</g>
<!-- Node4 -->
<g id="Node000004" class="node"><title>Node4</title>
<g id="a_Node000004"><a xlink:href="group___t_set_element.html#gad8cfc9a36f36c44c10b660c5b370f67e" target="_top" xlink:title="Porovnání dvou elementů">
<polygon fill="white" stroke="#666666" points="510,-56 386,-56 386,-37 510,-37 510,-56"/>
<text text-anchor="middle" x="448" y="-44" font-family="Helvetica,sans-Serif" font-size="10.00">set_element_comparator</text>
</a>
</g>
</g>
<!-- Node3&#45;&gt;Node4 -->
<g id="edge3_Node000003_Node000004" class="edge"><title>Node3&#45;&gt;Node4</title>
<g id="a_edge3_Node000003_Node000004"><a xlink:title=" ">
<path fill="none" stroke="#63b8ff" d="M350.305,-46.5C358.513,-46.5 367.068,-46.5 375.548,-46.5"/>
<polygon fill="#63b8ff" stroke="#63b8ff" points="375.826,-50.0001 385.826,-46.5 375.826,-43.0001 375.826,-50.0001"/>
</a>
</g>
</g>
</g>
</svg>
