<?xml version="1.0" encoding="UTF-8" standalone="no"?>
<!DOCTYPE svg PUBLIC "-//W3C//DTD SVG 1.1//EN"
 "http://www.w3.org/Graphics/SVG/1.1/DTD/svg11.dtd">
<!-- Generated by graphviz version 2.38.0 (20140413.2041)
 -->
<!-- Title: set_iterator_to_next Pages: 1 -->
<svg width="440pt" height="78pt"
 viewBox="0.00 0.00 440.00 77.67" xmlns="http://www.w3.org/2000/svg" xmlns:xlink="http://www.w3.org/1999/xlink">
<g id="graph0" class="graph" transform="scale(1 1) rotate(0) translate(4 73.6658)">
<title>set_iterator_to_next</title>
<!-- Node1 -->
<g id="Node000001" class="node"><title>Node1</title>
<g id="a_Node000001"><a xlink:title="Posunutí iterátoru vpřed.">
<polygon fill="#999999" stroke="#666666" points="103,-56 0,-56 0,-37 103,-37 103,-56"/>
<text text-anchor="middle" x="51.5" y="-44" font-family="Helvetica,sans-Serif" font-size="10.00">set_iterator_to_next</text>
</a>
</g>
</g>
<!-- Node2 -->
<g id="Node000002" class="node"><title>Node2</title>
<g id="a_Node000002"><a xlink:href="group___t_set_sorted_flex_array.html#gacc6cb5e01b187a635190372a370bca56" target="_top" xlink:title="Zjištění platnosti pozice ve flexibilním poli.">
<polygon fill="white" stroke="#666666" points="432,-56 297,-56 297,-37 432,-37 432,-56"/>
<text text-anchor="middle" x="364.5" y="-44" font-family="Helvetica,sans-Serif" font-size="10.00">set_flex_array_is_valid_pos</text>
</a>
</g>
</g>
<!-- Node1&#45;&gt;Node2 -->
<g id="edge1_Node000001_Node000002" class="edge"><title>Node1&#45;&gt;Node2</title>
<g id="a_edge1_Node000001_Node000002"><a xlink:title=" ">
<path fill="none" stroke="#63b8ff" d="M87.5666,-56.0083C103.183,-59.773 121.88,-63.6419 139,-65.5 192.906,-71.3505 207.005,-70.4621 261,-65.5 277.716,-63.9638 295.774,-61.0467 312.007,-57.951"/>
<polygon fill="#63b8ff" stroke="#63b8ff" points="312.716,-61.3787 321.851,-56.0112 311.363,-54.5108 312.716,-61.3787"/>
</a>
</g>
</g>
<!-- Node3 -->
<g id="Node000003" class="node"><title>Node3</title>
<g id="a_Node000003"><a xlink:href="group___t_set_sorted_flex_array.html#gaa441922af31d7ed0f08ddc506dc3ab23" target="_top" xlink:title="Výpočet následující platné pozice ve flexibilním poli.">
<polygon fill="white" stroke="#666666" points="261,-56 139,-56 139,-37 261,-37 261,-56"/>
<text text-anchor="middle" x="200" y="-44" font-family="Helvetica,sans-Serif" font-size="10.00">set_flex_array_next_pos</text>
</a>
</g>
</g>
<!-- Node1&#45;&gt;Node3 -->
<g id="edge2_Node000001_Node000003" class="edge"><title>Node1&#45;&gt;Node3</title>
<g id="a_edge2_Node000001_Node000003"><a xlink:title=" ">
<path fill="none" stroke="#63b8ff" d="M103.327,-46.5C111.584,-46.5 120.261,-46.5 128.88,-46.5"/>
<polygon fill="#63b8ff" stroke="#63b8ff" points="128.943,-50.0001 138.943,-46.5 128.943,-43.0001 128.943,-50.0001"/>
</a>
</g>
</g>
<!-- Node4 -->
<g id="Node000004" class="node"><title>Node4</title>
<g id="a_Node000004"><a xlink:href="group___t_set_iterator.html#ga089f24c81ac3da7d1ac7ca24cc078dd8" target="_top" xlink:title="Zjištění platnosti iterátoru.">
<polygon fill="white" stroke="#666666" points="251,-19 149,-19 149,-0 251,-0 251,-19"/>
<text text-anchor="middle" x="200" y="-7" font-family="Helvetica,sans-Serif" font-size="10.00">set_iterator_is_valid</text>
</a>
</g>
</g>
<!-- Node1&#45;&gt;Node4 -->
<g id="edge3_Node000001_Node000004" class="edge"><title>Node1&#45;&gt;Node4</title>
<g id="a_edge3_Node000001_Node000004"><a xlink:title=" ">
<path fill="none" stroke="#63b8ff" d="M90.2274,-36.9716C108.867,-32.2641 131.555,-26.534 151.378,-21.5275"/>
<polygon fill="#63b8ff" stroke="#63b8ff" points="152.308,-24.9026 161.146,-19.0604 150.593,-18.1157 152.308,-24.9026"/>
</a>
</g>
</g>
<!-- Node4&#45;&gt;Node2 -->
<g id="edge4_Node000004_Node000002" class="edge"><title>Node4&#45;&gt;Node2</title>
<g id="a_edge4_Node000004_Node000002"><a xlink:title=" ">
<path fill="none" stroke="#63b8ff" d="M242.848,-19.0284C263.806,-23.8004 289.379,-29.6232 311.578,-34.6778"/>
<polygon fill="#63b8ff" stroke="#63b8ff" points="310.984,-38.1321 321.512,-36.9396 312.539,-31.3068 310.984,-38.1321"/>
</a>
</g>
</g>
</g>
</svg>
