<?xml version="1.0" encoding="UTF-8" standalone="no"?>
<!DOCTYPE svg PUBLIC "-//W3C//DTD SVG 1.1//EN"
 "http://www.w3.org/Graphics/SVG/1.1/DTD/svg11.dtd">
<!-- Generated by graphviz version 2.38.0 (20140413.2041)
 -->
<!-- Title: main.c Pages: 1 -->
<svg width="414pt" height="302pt"
 viewBox="0.00 0.00 413.50 302.00" xmlns="http://www.w3.org/2000/svg" xmlns:xlink="http://www.w3.org/1999/xlink">
<g id="graph0" class="graph" transform="scale(1 1) rotate(0) translate(4 298)">
<title>main.c</title>
<!-- Node1 -->
<g id="Node000001" class="node"><title>Node1</title>
<g id="a_Node000001"><a xlink:title="Hlavní program pro testování ADT TSet.">
<polygon fill="#999999" stroke="#666666" points="262,-294 216,-294 216,-275 262,-275 262,-294"/>
<text text-anchor="middle" x="239" y="-282" font-family="Helvetica,sans-Serif" font-size="10.00">main.c</text>
</a>
</g>
</g>
<!-- Node2 -->
<g id="Node000002" class="node"><title>Node2</title>
<g id="a_Node000002"><a xlink:title=" ">
<polygon fill="#e0e0e0" stroke="#999999" points="46,-19 0,-19 0,-0 46,-0 46,-19"/>
<text text-anchor="middle" x="23" y="-7" font-family="Helvetica,sans-Serif" font-size="10.00">stdio.h</text>
</a>
</g>
</g>
<!-- Node1&#45;&gt;Node2 -->
<g id="edge1_Node000001_Node000002" class="edge"><title>Node1&#45;&gt;Node2</title>
<g id="a_edge1_Node000001_Node000002"><a xlink:title=" ">
<path fill="none" stroke="#63b8ff" d="M215.835,-282.191C161.419,-277.741 30,-258.411 30,-175.5 30,-175.5 30,-175.5 30,-118.5 30,-87.124 27.0216,-50.7278 24.9503,-29.211"/>
<polygon fill="#63b8ff" stroke="#63b8ff" points="28.4236,-28.7684 23.9441,-19.1671 21.4585,-29.4662 28.4236,-28.7684"/>
</a>
</g>
</g>
<!-- Node3 -->
<g id="Node000003" class="node"><title>Node3</title>
<g id="a_Node000003"><a xlink:href="testbench_8h.html" target="_top" xlink:title="Definice testbench API pro testování operací zvoleného ADT.">
<polygon fill="white" stroke="#666666" points="304,-239 236,-239 236,-220 304,-220 304,-239"/>
<text text-anchor="middle" x="270" y="-227" font-family="Helvetica,sans-Serif" font-size="10.00">testbench.h</text>
</a>
</g>
</g>
<!-- Node1&#45;&gt;Node3 -->
<g id="edge2_Node000001_Node000003" class="edge"><title>Node1&#45;&gt;Node3</title>
<g id="a_edge2_Node000001_Node000003"><a xlink:title=" ">
<path fill="none" stroke="#63b8ff" d="M244.119,-274.748C248.362,-267.493 254.527,-256.954 259.775,-247.981"/>
<polygon fill="#63b8ff" stroke="#63b8ff" points="262.949,-249.488 264.976,-239.089 256.906,-245.954 262.949,-249.488"/>
</a>
</g>
</g>
<!-- Node5 -->
<g id="Node000005" class="node"><title>Node5</title>
<g id="a_Node000005"><a xlink:href="_t_set_8h.html" target="_top" xlink:title="Definice typu Set &#45; (realizace množiny pomocí setříděného flexibilního dynamicky alokovaného pole)">
<polygon fill="white" stroke="#666666" points="261.5,-184 216.5,-184 216.5,-165 261.5,-165 261.5,-184"/>
<text text-anchor="middle" x="239" y="-172" font-family="Helvetica,sans-Serif" font-size="10.00">TSet.h</text>
</a>
</g>
</g>
<!-- Node1&#45;&gt;Node5 -->
<g id="edge17_Node000001_Node000005" class="edge"><title>Node1&#45;&gt;Node5</title>
<g id="a_edge17_Node000001_Node000005"><a xlink:title=" ">
<path fill="none" stroke="#63b8ff" d="M235.912,-274.774C232.948,-265.902 228.681,-251.692 227,-239 224.972,-223.688 228.595,-206.48 232.379,-193.844"/>
<polygon fill="#63b8ff" stroke="#63b8ff" points="235.791,-194.672 235.606,-184.079 229.145,-192.475 235.791,-194.672"/>
</a>
</g>
</g>
<!-- Node12 -->
<g id="Node000012" class="node"><title>Node12</title>
<g id="a_Node000012"><a xlink:href="testplan__set2_8h.html" target="_top" xlink:title=" ">
<polygon fill="white" stroke="#666666" points="405.5,-239 322.5,-239 322.5,-220 405.5,-220 405.5,-239"/>
<text text-anchor="middle" x="364" y="-227" font-family="Helvetica,sans-Serif" font-size="10.00">testplan_set2.h</text>
</a>
</g>
</g>
<!-- Node1&#45;&gt;Node12 -->
<g id="edge18_Node000001_Node000012" class="edge"><title>Node1&#45;&gt;Node12</title>
<g id="a_edge18_Node000001_Node000012"><a xlink:title=" ">
<path fill="none" stroke="#63b8ff" d="M259.083,-274.985C279.373,-266.382 310.955,-252.991 334.171,-243.147"/>
<polygon fill="#63b8ff" stroke="#63b8ff" points="335.711,-246.296 343.551,-239.17 332.978,-239.852 335.711,-246.296"/>
</a>
</g>
</g>
<!-- Node4 -->
<g id="Node000004" class="node"><title>Node4</title>
<g id="a_Node000004"><a xlink:title=" ">
<polygon fill="#e0e0e0" stroke="#999999" points="341,-19 285,-19 285,-0 341,-0 341,-19"/>
<text text-anchor="middle" x="313" y="-7" font-family="Helvetica,sans-Serif" font-size="10.00">stdbool.h</text>
</a>
</g>
</g>
<!-- Node3&#45;&gt;Node4 -->
<g id="edge3_Node000003_Node000004" class="edge"><title>Node3&#45;&gt;Node4</title>
<g id="a_edge3_Node000003_Node000004"><a xlink:title=" ">
<path fill="none" stroke="#63b8ff" d="M274.254,-219.725C285.208,-196.584 314.206,-131.708 324,-74 326.577,-58.8138 323.201,-41.5965 319.53,-28.9248"/>
<polygon fill="#63b8ff" stroke="#63b8ff" points="322.77,-27.5675 316.369,-19.1244 316.108,-29.716 322.77,-27.5675"/>
</a>
</g>
</g>
<!-- Node3&#45;&gt;Node5 -->
<g id="edge4_Node000003_Node000005" class="edge"><title>Node3&#45;&gt;Node5</title>
<g id="a_edge4_Node000003_Node000005"><a xlink:title=" ">
<path fill="none" stroke="#63b8ff" d="M264.881,-219.748C260.638,-212.493 254.473,-201.954 249.225,-192.981"/>
<polygon fill="#63b8ff" stroke="#63b8ff" points="252.094,-190.954 244.024,-184.089 246.051,-194.488 252.094,-190.954"/>
</a>
</g>
</g>
<!-- Node5&#45;&gt;Node4 -->
<g id="edge5_Node000005_Node000004" class="edge"><title>Node5&#45;&gt;Node4</title>
<g id="a_edge5_Node000005_Node000004"><a xlink:title=" ">
<path fill="none" stroke="#63b8ff" d="M248.259,-164.92C257.127,-156.384 270.523,-142.626 280,-129 295.662,-106.481 300.558,-100.401 308,-74 312.089,-59.4946 313.241,-42.4375 313.425,-29.6562"/>
<polygon fill="#63b8ff" stroke="#63b8ff" points="316.923,-29.3001 313.378,-19.3162 309.923,-29.3321 316.923,-29.3001"/>
</a>
</g>
</g>
<!-- Node6 -->
<g id="Node000006" class="node"><title>Node6</title>
<g id="a_Node000006"><a xlink:title=" ">
<polygon fill="#e0e0e0" stroke="#999999" points="299.5,-74 248.5,-74 248.5,-55 299.5,-55 299.5,-74"/>
<text text-anchor="middle" x="274" y="-62" font-family="Helvetica,sans-Serif" font-size="10.00">stddef.h</text>
</a>
</g>
</g>
<!-- Node5&#45;&gt;Node6 -->
<g id="edge6_Node000005_Node000006" class="edge"><title>Node5&#45;&gt;Node6</title>
<g id="a_edge6_Node000005_Node000006"><a xlink:title=" ">
<path fill="none" stroke="#63b8ff" d="M244.865,-164.691C250.386,-155.986 258.466,-142.107 263,-129 268.036,-114.443 270.837,-97.1783 272.35,-84.3281"/>
<polygon fill="#63b8ff" stroke="#63b8ff" points="275.835,-84.6557 273.372,-74.351 268.871,-83.9422 275.835,-84.6557"/>
</a>
</g>
</g>
<!-- Node7 -->
<g id="Node000007" class="node"><title>Node7</title>
<g id="a_Node000007"><a xlink:href="_t_set_sorted_flex_array_8h.html" target="_top" xlink:title="Deklarace typu SetSortedFlexArray a jeho API pro realizaci množiny pomocí setříděného flexibilního dy...">
<polygon fill="white" stroke="#666666" points="254,-129 138,-129 138,-110 254,-110 254,-129"/>
<text text-anchor="middle" x="196" y="-117" font-family="Helvetica,sans-Serif" font-size="10.00">TSetSortedFlexArray.h</text>
</a>
</g>
</g>
<!-- Node5&#45;&gt;Node7 -->
<g id="edge7_Node000005_Node000007" class="edge"><title>Node5&#45;&gt;Node7</title>
<g id="a_edge7_Node000005_Node000007"><a xlink:title=" ">
<path fill="none" stroke="#63b8ff" d="M231.899,-164.748C225.826,-157.262 216.914,-146.278 209.49,-137.127"/>
<polygon fill="#63b8ff" stroke="#63b8ff" points="211.987,-134.65 202.968,-129.089 206.551,-139.06 211.987,-134.65"/>
</a>
</g>
</g>
<!-- Node11 -->
<g id="Node000011" class="node"><title>Node11</title>
<g id="a_Node000011"><a xlink:title=" ">
<polygon fill="#e0e0e0" stroke="#999999" points="115.5,-19 64.5,-19 64.5,-0 115.5,-0 115.5,-19"/>
<text text-anchor="middle" x="90" y="-7" font-family="Helvetica,sans-Serif" font-size="10.00">check.h</text>
</a>
</g>
</g>
<!-- Node5&#45;&gt;Node11 -->
<g id="edge16_Node000005_Node000011" class="edge"><title>Node5&#45;&gt;Node11</title>
<g id="a_edge16_Node000005_Node000011"><a xlink:title=" ">
<path fill="none" stroke="#63b8ff" d="M216.239,-169.237C192.041,-163.675 153.9,-151.835 129,-129 100.495,-102.859 92.7809,-55.5276 90.7221,-29.2884"/>
<polygon fill="#63b8ff" stroke="#63b8ff" points="94.2079,-28.9411 90.1306,-19.1622 87.2198,-29.3494 94.2079,-28.9411"/>
</a>
</g>
</g>
<!-- Node7&#45;&gt;Node4 -->
<g id="edge8_Node000007_Node000004" class="edge"><title>Node7&#45;&gt;Node4</title>
<g id="a_edge8_Node000007_Node000004"><a xlink:title=" ">
<path fill="none" stroke="#63b8ff" d="M200.293,-109.828C207.098,-96.7306 221.411,-71.6671 239,-55 252.39,-42.3122 270.004,-31.5406 284.688,-23.7743"/>
<polygon fill="#63b8ff" stroke="#63b8ff" points="286.517,-26.7707 293.841,-19.1148 283.341,-20.5326 286.517,-26.7707"/>
</a>
</g>
</g>
<!-- Node7&#45;&gt;Node6 -->
<g id="edge9_Node000007_Node000006" class="edge"><title>Node7&#45;&gt;Node6</title>
<g id="a_edge9_Node000007_Node000006"><a xlink:title=" ">
<path fill="none" stroke="#63b8ff" d="M208.532,-109.985C220.402,-101.919 238.464,-89.6461 252.612,-80.0327"/>
<polygon fill="#63b8ff" stroke="#63b8ff" points="254.936,-82.6855 261.24,-74.1703 251.002,-76.8956 254.936,-82.6855"/>
</a>
</g>
</g>
<!-- Node8 -->
<g id="Node000008" class="node"><title>Node8</title>
<g id="a_Node000008"><a xlink:href="_t_set_element_8h.html" target="_top" xlink:title="Definice typu Basic SetElement a implementace API.">
<polygon fill="white" stroke="#666666" points="191.5,-74 110.5,-74 110.5,-55 191.5,-55 191.5,-74"/>
<text text-anchor="middle" x="151" y="-62" font-family="Helvetica,sans-Serif" font-size="10.00">TSetElement.h</text>
</a>
</g>
</g>
<!-- Node7&#45;&gt;Node8 -->
<g id="edge10_Node000007_Node000008" class="edge"><title>Node7&#45;&gt;Node8</title>
<g id="a_edge10_Node000007_Node000008"><a xlink:title=" ">
<path fill="none" stroke="#63b8ff" d="M188.569,-109.748C182.147,-102.185 172.694,-91.0512 164.878,-81.8447"/>
<polygon fill="#63b8ff" stroke="#63b8ff" points="167.433,-79.4467 158.293,-74.089 162.097,-83.9773 167.433,-79.4467"/>
</a>
</g>
</g>
<!-- Node8&#45;&gt;Node2 -->
<g id="edge11_Node000008_Node000002" class="edge"><title>Node8&#45;&gt;Node2</title>
<g id="a_edge11_Node000008_Node000002"><a xlink:title=" ">
<path fill="none" stroke="#63b8ff" d="M130.435,-54.9846C109.565,-46.3434 77.0288,-32.8713 53.2269,-23.0158"/>
<polygon fill="#63b8ff" stroke="#63b8ff" points="54.5179,-19.7623 43.9396,-19.1703 51.8399,-26.2298 54.5179,-19.7623"/>
</a>
</g>
</g>
<!-- Node8&#45;&gt;Node4 -->
<g id="edge13_Node000008_Node000004" class="edge"><title>Node8&#45;&gt;Node4</title>
<g id="a_edge13_Node000008_Node000004"><a xlink:title=" ">
<path fill="none" stroke="#63b8ff" d="M177.028,-54.9846C204.108,-46.125 246.71,-32.1875 277.006,-22.2759"/>
<polygon fill="#63b8ff" stroke="#63b8ff" points="278.352,-25.5181 286.768,-19.0821 276.175,-18.8651 278.352,-25.5181"/>
</a>
</g>
</g>
<!-- Node9 -->
<g id="Node000009" class="node"><title>Node9</title>
<g id="a_Node000009"><a xlink:title=" ">
<polygon fill="#e0e0e0" stroke="#999999" points="252,-19 204,-19 204,-0 252,-0 252,-19"/>
<text text-anchor="middle" x="228" y="-7" font-family="Helvetica,sans-Serif" font-size="10.00">stdlib.h</text>
</a>
</g>
</g>
<!-- Node8&#45;&gt;Node9 -->
<g id="edge12_Node000008_Node000009" class="edge"><title>Node8&#45;&gt;Node9</title>
<g id="a_edge12_Node000008_Node000009"><a xlink:title=" ">
<path fill="none" stroke="#63b8ff" d="M163.371,-54.9846C175.089,-46.9194 192.92,-34.6461 206.887,-25.0327"/>
<polygon fill="#63b8ff" stroke="#63b8ff" points="209.151,-27.7232 215.404,-19.1703 205.182,-21.9571 209.151,-27.7232"/>
</a>
</g>
</g>
<!-- Node10 -->
<g id="Node000010" class="node"><title>Node10</title>
<g id="a_Node000010"><a xlink:title=" ">
<polygon fill="#e0e0e0" stroke="#999999" points="186,-19 134,-19 134,-0 186,-0 186,-19"/>
<text text-anchor="middle" x="160" y="-7" font-family="Helvetica,sans-Serif" font-size="10.00">assert.h</text>
</a>
</g>
</g>
<!-- Node8&#45;&gt;Node10 -->
<g id="edge14_Node000008_Node000010" class="edge"><title>Node8&#45;&gt;Node10</title>
<g id="a_edge14_Node000008_Node000010"><a xlink:title=" ">
<path fill="none" stroke="#63b8ff" d="M152.486,-54.7481C153.666,-47.8021 155.356,-37.8451 156.836,-29.1349"/>
<polygon fill="#63b8ff" stroke="#63b8ff" points="160.318,-29.5339 158.541,-19.089 153.417,-28.3619 160.318,-29.5339"/>
</a>
</g>
</g>
<!-- Node8&#45;&gt;Node11 -->
<g id="edge15_Node000008_Node000011" class="edge"><title>Node8&#45;&gt;Node11</title>
<g id="a_edge15_Node000008_Node000011"><a xlink:title=" ">
<path fill="none" stroke="#63b8ff" d="M141.199,-54.9846C132.182,-47.1499 118.594,-35.344 107.682,-25.863"/>
<polygon fill="#63b8ff" stroke="#63b8ff" points="109.823,-23.087 99.979,-19.1703 105.232,-28.3711 109.823,-23.087"/>
</a>
</g>
</g>
</g>
</svg>
