<?xml version="1.0" encoding="UTF-8" standalone="no"?>
<!DOCTYPE svg PUBLIC "-//W3C//DTD SVG 1.1//EN"
 "http://www.w3.org/Graphics/SVG/1.1/DTD/svg11.dtd">
<!-- Generated by graphviz version 2.38.0 (20140413.2041)
 -->
<!-- Title: test_run Pages: 1 -->
<svg width="248pt" height="27pt"
 viewBox="0.00 0.00 248.00 27.00" xmlns="http://www.w3.org/2000/svg" xmlns:xlink="http://www.w3.org/1999/xlink">
<g id="graph0" class="graph" transform="scale(1 1) rotate(0) translate(4 23)">
<title>test_run</title>
<!-- Node1 -->
<g id="Node000001" class="node"><title>Node1</title>
<g id="a_Node000001"><a xlink:title="Provedení jednoho test z testovacího plánu na předaném ADT.">
<polygon fill="#999999" stroke="#666666" points="240,-19 188,-19 188,-0 240,-0 240,-19"/>
<text text-anchor="middle" x="214" y="-7" font-family="Helvetica,sans-Serif" font-size="10.00">test_run</text>
</a>
</g>
</g>
<!-- Node2 -->
<g id="Node000002" class="node"><title>Node2</title>
<g id="a_Node000002"><a xlink:href="testbench_8c.html#a2fa1559684d267665b1c2433208511d3" target="_top" xlink:title="Provedení všech testů zadaného testovacího plánu na předaném ADT.">
<polygon fill="white" stroke="#666666" points="152,-19 74,-19 74,-0 152,-0 152,-19"/>
<text text-anchor="middle" x="113" y="-7" font-family="Helvetica,sans-Serif" font-size="10.00">testbench_run</text>
</a>
</g>
</g>
<!-- Node1&#45;&gt;Node2 -->
<g id="edge1_Node000001_Node000002" class="edge"><title>Node1&#45;&gt;Node2</title>
<g id="a_edge1_Node000001_Node000002"><a xlink:title=" ">
<path fill="none" stroke="#63b8ff" d="M177.709,-9.5C169.469,-9.5 160.655,-9.5 152.291,-9.5"/>
<polygon fill="#63b8ff" stroke="#63b8ff" points="177.762,-13.0001 187.762,-9.5 177.762,-6.0001 177.762,-13.0001"/>
</a>
</g>
</g>
<!-- Node3 -->
<g id="Node000003" class="node"><title>Node3</title>
<g id="a_Node000003"><a xlink:href="group___main_program.html#ga0ddf1224851353fc92bfbff6f499fa97" target="_top" xlink:title=" ">
<polygon fill="white" stroke="#666666" points="38,-19 0,-19 0,-0 38,-0 38,-19"/>
<text text-anchor="middle" x="19" y="-7" font-family="Helvetica,sans-Serif" font-size="10.00">main</text>
</a>
</g>
</g>
<!-- Node2&#45;&gt;Node3 -->
<g id="edge2_Node000002_Node000003" class="edge"><title>Node2&#45;&gt;Node3</title>
<g id="a_edge2_Node000002_Node000003"><a xlink:title=" ">
<path fill="none" stroke="#63b8ff" d="M63.6433,-9.5C54.6425,-9.5 45.7624,-9.5 38.3861,-9.5"/>
<polygon fill="#63b8ff" stroke="#63b8ff" points="63.783,-13.0001 73.783,-9.5 63.7829,-6.0001 63.783,-13.0001"/>
</a>
</g>
</g>
</g>
</svg>
