<?xml version="1.0" encoding="UTF-8" standalone="no"?>
<!DOCTYPE svg PUBLIC "-//W3C//DTD SVG 1.1//EN"
 "http://www.w3.org/Graphics/SVG/1.1/DTD/svg11.dtd">
<!-- Generated by graphviz version 2.38.0 (20140413.2041)
 -->
<!-- Title: print_value_by_iterator Pages: 1 -->
<svg width="421pt" height="65pt"
 viewBox="0.00 0.00 421.00 65.00" xmlns="http://www.w3.org/2000/svg" xmlns:xlink="http://www.w3.org/1999/xlink">
<g id="graph0" class="graph" transform="scale(1 1) rotate(0) translate(4 61)">
<title>print_value_by_iterator</title>
<!-- Node1 -->
<g id="Node000001" class="node"><title>Node1</title>
<g id="a_Node000001"><a xlink:title="Vytisknutí hodnoty v ADT pomocí iterátoru.">
<polygon fill="#999999" stroke="#666666" points="413,-38 300,-38 300,-19 413,-19 413,-38"/>
<text text-anchor="middle" x="356.5" y="-26" font-family="Helvetica,sans-Serif" font-size="10.00">print_value_by_iterator</text>
</a>
</g>
</g>
<!-- Node2 -->
<g id="Node000002" class="node"><title>Node2</title>
<g id="a_Node000002"><a xlink:href="testbench_8c.html#a068734a4e1d6209769e0c6b1675ca02b" target="_top" xlink:title="Provedení jednoho test z testovacího plánu na předaném ADT.">
<polygon fill="white" stroke="#666666" points="264,-57 212,-57 212,-38 264,-38 264,-57"/>
<text text-anchor="middle" x="238" y="-45" font-family="Helvetica,sans-Serif" font-size="10.00">test_run</text>
</a>
</g>
</g>
<!-- Node1&#45;&gt;Node2 -->
<g id="edge1_Node000001_Node000002" class="edge"><title>Node1&#45;&gt;Node2</title>
<g id="a_edge1_Node000001_Node000002"><a xlink:title=" ">
<path fill="none" stroke="#63b8ff" d="M289.993,-39.1835C280.838,-40.6766 271.926,-42.1301 264.18,-43.3934"/>
<polygon fill="#63b8ff" stroke="#63b8ff" points="290.673,-42.6189 299.98,-37.5548 289.547,-35.7102 290.673,-42.6189"/>
</a>
</g>
</g>
<!-- Node5 -->
<g id="Node000005" class="node"><title>Node5</title>
<g id="a_Node000005"><a xlink:href="group___main_program.html#ga66149067fad48c8944eb15c52e63a990" target="_top" xlink:title=" ">
<polygon fill="white" stroke="#666666" points="176,-19 74,-19 74,-0 176,-0 176,-19"/>
<text text-anchor="middle" x="125" y="-7" font-family="Helvetica,sans-Serif" font-size="10.00">testset2_hardcoded</text>
</a>
</g>
</g>
<!-- Node1&#45;&gt;Node5 -->
<g id="edge4_Node000001_Node000005" class="edge"><title>Node1&#45;&gt;Node5</title>
<g id="a_edge4_Node000001_Node000005"><a xlink:title=" ">
<path fill="none" stroke="#63b8ff" d="M289.524,-23.0379C253.497,-20.0553 209.59,-16.4203 176.347,-13.6682"/>
<polygon fill="#63b8ff" stroke="#63b8ff" points="289.69,-26.5635 299.944,-23.9006 290.267,-19.5874 289.69,-26.5635"/>
</a>
</g>
</g>
<!-- Node3 -->
<g id="Node000003" class="node"><title>Node3</title>
<g id="a_Node000003"><a xlink:href="testbench_8c.html#a2fa1559684d267665b1c2433208511d3" target="_top" xlink:title="Provedení všech testů zadaného testovacího plánu na předaném ADT.">
<polygon fill="white" stroke="#666666" points="164,-56 86,-56 86,-37 164,-37 164,-56"/>
<text text-anchor="middle" x="125" y="-44" font-family="Helvetica,sans-Serif" font-size="10.00">testbench_run</text>
</a>
</g>
</g>
<!-- Node2&#45;&gt;Node3 -->
<g id="edge2_Node000002_Node000003" class="edge"><title>Node2&#45;&gt;Node3</title>
<g id="a_edge2_Node000002_Node000003"><a xlink:title=" ">
<path fill="none" stroke="#63b8ff" d="M201.738,-47.1823C189.771,-47.0745 176.349,-46.9536 164.166,-46.8438"/>
<polygon fill="#63b8ff" stroke="#63b8ff" points="201.781,-50.6828 211.812,-47.2731 201.844,-43.683 201.781,-50.6828"/>
</a>
</g>
</g>
<!-- Node4 -->
<g id="Node000004" class="node"><title>Node4</title>
<g id="a_Node000004"><a xlink:href="group___main_program.html#ga0ddf1224851353fc92bfbff6f499fa97" target="_top" xlink:title=" ">
<polygon fill="white" stroke="#666666" points="38,-37 0,-37 0,-18 38,-18 38,-37"/>
<text text-anchor="middle" x="19" y="-25" font-family="Helvetica,sans-Serif" font-size="10.00">main</text>
</a>
</g>
</g>
<!-- Node3&#45;&gt;Node4 -->
<g id="edge3_Node000003_Node000004" class="edge"><title>Node3&#45;&gt;Node4</title>
<g id="a_edge3_Node000003_Node000004"><a xlink:title=" ">
<path fill="none" stroke="#63b8ff" d="M75.7183,-37.6793C62.287,-35.2255 48.5231,-32.7109 38.0356,-30.795"/>
<polygon fill="#63b8ff" stroke="#63b8ff" points="75.3986,-41.1787 85.8648,-39.533 76.6566,-34.2927 75.3986,-41.1787"/>
</a>
</g>
</g>
<!-- Node5&#45;&gt;Node4 -->
<g id="edge5_Node000005_Node000004" class="edge"><title>Node5&#45;&gt;Node4</title>
<g id="a_edge5_Node000005_Node000004"><a xlink:title=" ">
<path fill="none" stroke="#63b8ff" d="M63.754,-19.9272C54.5462,-21.5208 45.6924,-23.0532 38.3873,-24.3176"/>
<polygon fill="#63b8ff" stroke="#63b8ff" points="64.5712,-23.3379 73.8278,-18.1837 63.3774,-16.4404 64.5712,-23.3379"/>
</a>
</g>
</g>
</g>
</svg>
