<?xml version="1.0" encoding="UTF-8" standalone="no"?>
<!DOCTYPE svg PUBLIC "-//W3C//DTD SVG 1.1//EN"
 "http://www.w3.org/Graphics/SVG/1.1/DTD/svg11.dtd">
<!-- Generated by graphviz version 2.38.0 (20140413.2041)
 -->
<!-- Title: TVector Pages: 1 -->
<svg width="155pt" height="244pt"
 viewBox="0.00 0.00 155.00 244.00" xmlns="http://www.w3.org/2000/svg" xmlns:xlink="http://www.w3.org/1999/xlink">
<g id="graph0" class="graph" transform="scale(1 1) rotate(0) translate(4 240)">
<title>TVector</title>
<!-- Node1 -->
<g id="Node000001" class="node"><title>Node1</title>
<g id="a_Node000001"><a xlink:title="Definice typu Vector.">
<polygon fill="#999999" stroke="#666666" points="147,-72 0,-72 0,-0 147,-0 147,-72"/>
<text text-anchor="start" x="57" y="-56" font-family="Helvetica,sans-Serif" font-size="10.00">TVector</text>
<text text-anchor="start" x="12.5" y="-41" font-family="Helvetica,sans-Serif" font-size="10.00">+</text>
<text text-anchor="start" x="23.5" y="-41" font-family="Helvetica,sans-Serif" font-size="10.00">TVectorElement * iValues</text>
<text text-anchor="start" x="12.5" y="-26" font-family="Helvetica,sans-Serif" font-size="10.00">+</text>
<text text-anchor="start" x="23.5" y="-26" font-family="Helvetica,sans-Serif" font-size="10.00">size_t iSize</text>
<text text-anchor="start" x="72" y="-11" font-family="Helvetica,sans-Serif" font-size="10.00"> </text>
<polygon fill="#666666" stroke="#666666" points="8.5,-51 8.5,-51 139.5,-51 139.5,-51 8.5,-51"/>
<polygon fill="#666666" stroke="#666666" points="8.5,-21 8.5,-21 21.5,-21 21.5,-21 8.5,-21"/>
<polygon fill="#666666" stroke="#666666" points="21.5,-21 21.5,-21 139.5,-21 139.5,-21 21.5,-21"/>
<polygon fill="none" stroke="#666666" points="8,-4 8,-68 139,-68 139,-4 8,-4"/>
</a>
</g>
</g>
<!-- Node2 -->
<g id="Node000002" class="node"><title>Node2</title>
<g id="a_Node000002"><a xlink:href="group__sortable___t_vector.html#struct_t_vector_sort_stats" target="_top" xlink:title="Definice typu VectorSortStats.">
<polygon fill="white" stroke="#666666" points="135.5,-236 11.5,-236 11.5,-119 135.5,-119 135.5,-236"/>
<text text-anchor="start" x="35.5" y="-219.5" font-family="Helvetica,sans-Serif" font-size="10.00">TVectorSortStats</text>
<text text-anchor="start" x="23.5" y="-204.5" font-family="Helvetica,sans-Serif" font-size="10.00">+</text>
<text text-anchor="start" x="34.5" y="-204.5" font-family="Helvetica,sans-Serif" font-size="10.00">size_t iComparisons</text>
<text text-anchor="start" x="23.5" y="-189.5" font-family="Helvetica,sans-Serif" font-size="10.00">+</text>
<text text-anchor="start" x="34.5" y="-189.5" font-family="Helvetica,sans-Serif" font-size="10.00">size_t iSwaps</text>
<text text-anchor="start" x="23.5" y="-174.5" font-family="Helvetica,sans-Serif" font-size="10.00">+</text>
<text text-anchor="start" x="34.5" y="-174.5" font-family="Helvetica,sans-Serif" font-size="10.00">size_t iMoves</text>
<text text-anchor="start" x="23.5" y="-159.5" font-family="Helvetica,sans-Serif" font-size="10.00">+</text>
<text text-anchor="start" x="34.5" y="-159.5" font-family="Helvetica,sans-Serif" font-size="10.00">size_t iGets</text>
<text text-anchor="start" x="23.5" y="-144.5" font-family="Helvetica,sans-Serif" font-size="10.00">+</text>
<text text-anchor="start" x="34.5" y="-144.5" font-family="Helvetica,sans-Serif" font-size="10.00">size_t iSets</text>
<text text-anchor="start" x="71.5" y="-129.5" font-family="Helvetica,sans-Serif" font-size="10.00"> </text>
<polygon fill="#666666" stroke="#666666" points="19.5,-214.5 19.5,-214.5 127.5,-214.5 127.5,-214.5 19.5,-214.5"/>
<polygon fill="#666666" stroke="#666666" points="19.5,-139.5 19.5,-139.5 32.5,-139.5 32.5,-139.5 19.5,-139.5"/>
<polygon fill="#666666" stroke="#666666" points="32.5,-139.5 32.5,-139.5 127.5,-139.5 127.5,-139.5 32.5,-139.5"/>
<polygon fill="none" stroke="#666666" points="19.5,-123 19.5,-232 127.5,-232 127.5,-123 19.5,-123"/>
</a>
</g>
</g>
<!-- Node2&#45;&gt;Node1 -->
<g id="edge1_Node000001_Node000002" class="edge"><title>Node2&#45;&gt;Node1</title>
<g id="a_edge1_Node000001_Node000002"><a xlink:title=" ">
<path fill="none" stroke="#63b8ff" d="M73.5,-118.955C73.5,-107.394 73.5,-95.3721 73.5,-84.2124"/>
<polygon fill="none" stroke="#63b8ff" points="73.5001,-84.0498 69.5,-78.0498 73.5,-72.0498 77.5,-78.0498 73.5001,-84.0498"/>
</a>
</g>
<text text-anchor="middle" x="91" y="-93" font-family="Helvetica,sans-Serif" font-size="10.00" fill="grey"> +iStats</text>
</g>
</g>
</svg>
