<?xml version="1.0" encoding="UTF-8" standalone="no"?>
<!DOCTYPE svg PUBLIC "-//W3C//DTD SVG 1.1//EN"
 "http://www.w3.org/Graphics/SVG/1.1/DTD/svg11.dtd">
<!-- Generated by graphviz version 2.38.0 (20140413.2041)
 -->
<!-- Title: main Pages: 1 -->
<svg width="538pt" height="537pt"
 viewBox="0.00 0.00 538.00 537.00" xmlns="http://www.w3.org/2000/svg" xmlns:xlink="http://www.w3.org/1999/xlink">
<g id="graph0" class="graph" transform="scale(1 1) rotate(0) translate(4 533)">
<title>main</title>
<!-- Node1 -->
<g id="Node000001" class="node"><title>Node1</title>
<g id="a_Node000001"><a xlink:title=" ">
<polygon fill="#999999" stroke="#666666" points="38,-295 0,-295 0,-276 38,-276 38,-295"/>
<text text-anchor="middle" x="19" y="-283" font-family="Helvetica,sans-Serif" font-size="10.00">main</text>
</a>
</g>
</g>
<!-- Node2 -->
<g id="Node000002" class="node"><title>Node2</title>
<g id="a_Node000002"><a xlink:href="group___basic_sorts.html#gaa1ef093f5205f293df8303ac228452fc" target="_top" xlink:title="Třídění přímou výměnou (Bubble Sort)">
<polygon fill="white" stroke="#666666" points="167,-295 100,-295 100,-276 167,-276 167,-295"/>
<text text-anchor="middle" x="133.5" y="-283" font-family="Helvetica,sans-Serif" font-size="10.00">bubble_sort</text>
</a>
</g>
</g>
<!-- Node1&#45;&gt;Node2 -->
<g id="edge1_Node000001_Node000002" class="edge"><title>Node1&#45;&gt;Node2</title>
<g id="a_edge1_Node000001_Node000002"><a xlink:title=" ">
<path fill="none" stroke="#63b8ff" d="M38.0751,-285.5C52.055,-285.5 71.9916,-285.5 89.9459,-285.5"/>
<polygon fill="#63b8ff" stroke="#63b8ff" points="89.9462,-289 99.9462,-285.5 89.9461,-282 89.9462,-289"/>
</a>
</g>
</g>
<!-- Node7 -->
<g id="Node000007" class="node"><title>Node7</title>
<g id="a_Node000007"><a xlink:href="group___basic_sorts.html#ga62a36eb31bf0a873f7c027e145843b1a" target="_top" xlink:title="Třídění přímou výměnou včetně optimalizace s pomocným příznakem ukončení třídění (Bubble Sort Optimiz...">
<polygon fill="white" stroke="#666666" points="190.5,-258 76.5,-258 76.5,-239 190.5,-239 190.5,-258"/>
<text text-anchor="middle" x="133.5" y="-246" font-family="Helvetica,sans-Serif" font-size="10.00">bubble_sort_optimized</text>
</a>
</g>
</g>
<!-- Node1&#45;&gt;Node7 -->
<g id="edge6_Node000001_Node000007" class="edge"><title>Node1&#45;&gt;Node7</title>
<g id="a_edge6_Node000001_Node000007"><a xlink:title=" ">
<path fill="none" stroke="#63b8ff" d="M38.4322,-278.81C48.8398,-275.084 62.1071,-270.42 74,-266.5 79.3614,-264.733 85.0168,-262.924 90.6135,-261.167"/>
<polygon fill="#63b8ff" stroke="#63b8ff" points="92.0366,-264.39 100.548,-258.08 89.9593,-257.705 92.0366,-264.39"/>
</a>
</g>
</g>
<!-- Node8 -->
<g id="Node000008" class="node"><title>Node8</title>
<g id="a_Node000008"><a xlink:href="group___basic_sorts.html#gaba41a68f00241f38f7864b4e1dacd086" target="_top" xlink:title="Třídění přímou výměnou včetně optimalizace s výpočtem indexu poslední změny (Bubble Sort Optimized2)">
<polygon fill="white" stroke="#666666" points="193,-406 74,-406 74,-387 193,-387 193,-406"/>
<text text-anchor="middle" x="133.5" y="-394" font-family="Helvetica,sans-Serif" font-size="10.00">bubble_sort_optimized2</text>
</a>
</g>
</g>
<!-- Node1&#45;&gt;Node8 -->
<g id="edge10_Node000001_Node000008" class="edge"><title>Node1&#45;&gt;Node8</title>
<g id="a_edge10_Node000001_Node000008"><a xlink:title=" ">
<path fill="none" stroke="#63b8ff" d="M22.9786,-295.257C29.255,-314.175 45.6461,-355.962 74,-378.5 75.7572,-379.897 77.6228,-381.186 79.5669,-382.375"/>
<polygon fill="#63b8ff" stroke="#63b8ff" points="78.0081,-385.509 88.5008,-386.976 81.2134,-379.286 78.0081,-385.509"/>
</a>
</g>
</g>
<!-- Node9 -->
<g id="Node000009" class="node"><title>Node9</title>
<g id="a_Node000009"><a xlink:href="group___basic_sorts.html#gac3903c3fd846908cd362e293ed40582e" target="_top" xlink:title="Třídění přímým vkládáním (Insert Sort)">
<polygon fill="white" stroke="#666666" points="164.5,-449 102.5,-449 102.5,-430 164.5,-430 164.5,-449"/>
<text text-anchor="middle" x="133.5" y="-437" font-family="Helvetica,sans-Serif" font-size="10.00">insert_sort</text>
</a>
</g>
</g>
<!-- Node1&#45;&gt;Node9 -->
<g id="edge14_Node000001_Node000009" class="edge"><title>Node1&#45;&gt;Node9</title>
<g id="a_edge14_Node000001_Node000009"><a xlink:title=" ">
<path fill="none" stroke="#63b8ff" d="M21.4058,-295.058C25.3564,-318.658 38.6695,-380.324 74,-415.5 79.3483,-420.825 86.0432,-425.021 92.9755,-428.31"/>
<polygon fill="#63b8ff" stroke="#63b8ff" points="91.8942,-431.651 102.472,-432.254 94.5791,-425.186 91.8942,-431.651"/>
</a>
</g>
</g>
<!-- Node14 -->
<g id="Node000014" class="node"><title>Node14</title>
<g id="a_Node000014"><a xlink:href="group___basic_sorts.html#ga3688a58781905ac2e518285b8bb711ec" target="_top" xlink:title="Třídění přímým výběrem (Select Sort)">
<polygon fill="white" stroke="#666666" points="166,-369 101,-369 101,-350 166,-350 166,-369"/>
<text text-anchor="middle" x="133.5" y="-357" font-family="Helvetica,sans-Serif" font-size="10.00">select_sort</text>
</a>
</g>
</g>
<!-- Node1&#45;&gt;Node14 -->
<g id="edge20_Node000001_Node000014" class="edge"><title>Node1&#45;&gt;Node14</title>
<g id="a_edge20_Node000001_Node000014"><a xlink:title=" ">
<path fill="none" stroke="#63b8ff" d="M26.9091,-295.269C36.2268,-307.747 53.9781,-329.196 74,-341.5 79.2198,-344.708 85.0557,-347.384 90.9655,-349.604"/>
<polygon fill="#63b8ff" stroke="#63b8ff" points="90.2913,-353.07 100.885,-352.926 92.514,-346.432 90.2913,-353.07"/>
</a>
</g>
</g>
<!-- Node15 -->
<g id="Node000015" class="node"><title>Node15</title>
<g id="a_Node000015"><a xlink:href="group___basic_sorts.html#gaacee5d609500566a6ad1724486ab8bb2" target="_top" xlink:title="Třídění přímou výměnou se změnou postupu třídění (Shaker Sort)">
<polygon fill="white" stroke="#666666" points="167.5,-332 99.5,-332 99.5,-313 167.5,-313 167.5,-332"/>
<text text-anchor="middle" x="133.5" y="-320" font-family="Helvetica,sans-Serif" font-size="10.00">shaker_sort</text>
</a>
</g>
</g>
<!-- Node1&#45;&gt;Node15 -->
<g id="edge24_Node000001_Node000015" class="edge"><title>Node1&#45;&gt;Node15</title>
<g id="a_edge24_Node000001_Node000015"><a xlink:title=" ">
<path fill="none" stroke="#63b8ff" d="M38.4827,-291.7C48.9062,-295.187 62.1724,-299.608 74,-303.5 80.1907,-305.537 86.7545,-307.683 93.1617,-309.769"/>
<polygon fill="#63b8ff" stroke="#63b8ff" points="92.433,-313.213 103.025,-312.976 94.5972,-306.556 92.433,-313.213"/>
</a>
</g>
</g>
<!-- Node16 -->
<g id="Node000016" class="node"><title>Node16</title>
<g id="a_Node000016"><a xlink:href="group___main_program.html#ga7343209645c93203da0a86613abfed04" target="_top" xlink:title="Testování třídicí metody.">
<polygon fill="white" stroke="#666666" points="167.5,-190 99.5,-190 99.5,-171 167.5,-171 167.5,-190"/>
<text text-anchor="middle" x="133.5" y="-178" font-family="Helvetica,sans-Serif" font-size="10.00">sort_testing</text>
</a>
</g>
</g>
<!-- Node1&#45;&gt;Node16 -->
<g id="edge28_Node000001_Node000016" class="edge"><title>Node1&#45;&gt;Node16</title>
<g id="a_edge28_Node000001_Node000016"><a xlink:title=" ">
<path fill="none" stroke="#63b8ff" d="M28.8727,-275.683C39.3346,-264.255 57.4044,-244.973 74,-229.5 86.2002,-218.125 100.55,-206.086 111.984,-196.788"/>
<polygon fill="#63b8ff" stroke="#63b8ff" points="114.485,-199.268 120.076,-190.269 110.093,-193.818 114.485,-199.268"/>
</a>
</g>
</g>
<!-- Node19 -->
<g id="Node000019" class="node"><title>Node19</title>
<g id="a_Node000019"><a xlink:href="group___t_vector.html#ga41fcff5418fe213f2caaa586f521bcd6" target="_top" xlink:title="Dealokace vektoru.">
<polygon fill="white" stroke="#666666" points="502,-133 422,-133 422,-114 502,-114 502,-133"/>
<text text-anchor="middle" x="462" y="-121" font-family="Helvetica,sans-Serif" font-size="10.00">vector_destroy</text>
</a>
</g>
</g>
<!-- Node1&#45;&gt;Node19 -->
<g id="edge37_Node000001_Node000019" class="edge"><title>Node1&#45;&gt;Node19</title>
<g id="a_edge37_Node000001_Node000019"><a xlink:title=" ">
<path fill="none" stroke="#63b8ff" d="M22.1178,-275.72C27.4023,-253.244 43.028,-197.112 74,-161.5 127.024,-100.534 151.236,-88.4349 229,-66.5 284.18,-50.9354 302.488,-52.1642 358,-66.5 388.888,-74.4768 420.403,-93.9177 440.296,-107.877"/>
<polygon fill="#63b8ff" stroke="#63b8ff" points="438.415,-110.836 448.574,-113.844 442.508,-105.157 438.415,-110.836"/>
</a>
</g>
</g>
<!-- Node22 -->
<g id="Node000022" class="node"><title>Node22</title>
<g id="a_Node000022"><a xlink:href="group___t_vector.html#gac0009a6c19dd42237bbb6af9897f2e44" target="_top" xlink:title="Alokace vektoru a inicializace jeho elementů ze souboru.">
<polygon fill="white" stroke="#666666" points="172,-19 95,-19 95,-0 172,-0 172,-19"/>
<text text-anchor="middle" x="133.5" y="-7" font-family="Helvetica,sans-Serif" font-size="10.00">vector_init_file</text>
</a>
</g>
</g>
<!-- Node1&#45;&gt;Node22 -->
<g id="edge38_Node000001_Node000022" class="edge"><title>Node1&#45;&gt;Node22</title>
<g id="a_edge38_Node000001_Node000022"><a xlink:title=" ">
<path fill="none" stroke="#63b8ff" d="M20.8655,-275.925C24.7753,-234.587 42.0028,-71.776 74,-33.5 77.3466,-29.4967 81.4671,-26.1526 85.9589,-23.361"/>
<polygon fill="#63b8ff" stroke="#63b8ff" points="87.7187,-26.3903 94.9483,-18.6454 84.4668,-20.1914 87.7187,-26.3903"/>
</a>
</g>
</g>
<!-- Node3 -->
<g id="Node000003" class="node"><title>Node3</title>
<g id="a_Node000003"><a xlink:href="group__sortable___t_vector.html#gaedaf9c79afa345e5e71e5c66ab25fa26" target="_top" xlink:title="Porovnání hodnot elementů vektorů">
<polygon fill="white" stroke="#666666" points="358,-369 229,-369 229,-350 358,-350 358,-369"/>
<text text-anchor="middle" x="293.5" y="-357" font-family="Helvetica,sans-Serif" font-size="10.00">vector_compare_positions</text>
</a>
</g>
</g>
<!-- Node2&#45;&gt;Node3 -->
<g id="edge2_Node000002_Node000003" class="edge"><title>Node2&#45;&gt;Node3</title>
<g id="a_edge2_Node000002_Node000003"><a xlink:title=" ">
<path fill="none" stroke="#63b8ff" d="M167.053,-292.303C175.873,-294.985 185.145,-298.625 193,-303.5 212.767,-315.768 209.098,-329.453 229,-341.5 231.794,-343.191 234.752,-344.729 237.805,-346.126"/>
<polygon fill="#63b8ff" stroke="#63b8ff" points="236.588,-349.41 247.171,-349.911 239.211,-342.919 236.588,-349.41"/>
</a>
</g>
</g>
<!-- Node5 -->
<g id="Node000005" class="node"><title>Node5</title>
<g id="a_Node000005"><a xlink:href="group___t_vector.html#ga2502e6ec116dbac5e49f5b62b07dc898" target="_top" xlink:title="Přečtení počtu elementů vektoru.">
<polygon fill="white" stroke="#666666" points="326,-332 261,-332 261,-313 326,-313 326,-332"/>
<text text-anchor="middle" x="293.5" y="-320" font-family="Helvetica,sans-Serif" font-size="10.00">vector_size</text>
</a>
</g>
</g>
<!-- Node2&#45;&gt;Node5 -->
<g id="edge4_Node000002_Node000005" class="edge"><title>Node2&#45;&gt;Node5</title>
<g id="a_edge4_Node000002_Node000005"><a xlink:title=" ">
<path fill="none" stroke="#63b8ff" d="M167.238,-293.166C191.496,-298.847 224.74,-306.632 250.884,-312.754"/>
<polygon fill="#63b8ff" stroke="#63b8ff" points="250.348,-316.224 260.882,-315.096 251.944,-309.408 250.348,-316.224"/>
</a>
</g>
</g>
<!-- Node6 -->
<g id="Node000006" class="node"><title>Node6</title>
<g id="a_Node000006"><a xlink:href="group__sortable___t_vector.html#gac1982d8a0e5f66f933dc6a0413f2d23e" target="_top" xlink:title="Výměna hodnot elementů vektorů">
<polygon fill="white" stroke="#666666" points="350.5,-295 236.5,-295 236.5,-276 350.5,-276 350.5,-295"/>
<text text-anchor="middle" x="293.5" y="-283" font-family="Helvetica,sans-Serif" font-size="10.00">vector_swap_positions</text>
</a>
</g>
</g>
<!-- Node2&#45;&gt;Node6 -->
<g id="edge5_Node000002_Node000006" class="edge"><title>Node2&#45;&gt;Node6</title>
<g id="a_edge5_Node000002_Node000006"><a xlink:title=" ">
<path fill="none" stroke="#63b8ff" d="M167.238,-285.5C184.327,-285.5 205.875,-285.5 226.258,-285.5"/>
<polygon fill="#63b8ff" stroke="#63b8ff" points="226.463,-289 236.463,-285.5 226.463,-282 226.463,-289"/>
</a>
</g>
</g>
<!-- Node4 -->
<g id="Node000004" class="node"><title>Node4</title>
<g id="a_Node000004"><a xlink:href="group___t_vector_element.html#ga82e527836fce12c93af896f65e9f701d" target="_top" xlink:title="Porovnání dvou elementů">
<polygon fill="white" stroke="#666666" points="530,-369 394,-369 394,-350 530,-350 530,-369"/>
<text text-anchor="middle" x="462" y="-357" font-family="Helvetica,sans-Serif" font-size="10.00">vector_element_comparator</text>
</a>
</g>
</g>
<!-- Node3&#45;&gt;Node4 -->
<g id="edge3_Node000003_Node000004" class="edge"><title>Node3&#45;&gt;Node4</title>
<g id="a_edge3_Node000003_Node000004"><a xlink:title=" ">
<path fill="none" stroke="#63b8ff" d="M358.397,-359.5C366.677,-359.5 375.228,-359.5 383.696,-359.5"/>
<polygon fill="#63b8ff" stroke="#63b8ff" points="383.96,-363 393.96,-359.5 383.96,-356 383.96,-363"/>
</a>
</g>
</g>
<!-- Node7&#45;&gt;Node3 -->
<g id="edge7_Node000007_Node000003" class="edge"><title>Node7&#45;&gt;Node3</title>
<g id="a_edge7_Node000007_Node000003"><a xlink:title=" ">
<path fill="none" stroke="#63b8ff" d="M179.652,-258.11C184.476,-260.346 189.054,-263.103 193,-266.5 221.019,-290.626 200.714,-317.688 229,-341.5 230.512,-342.773 232.109,-343.956 233.772,-345.056"/>
<polygon fill="#63b8ff" stroke="#63b8ff" points="232.105,-348.134 242.554,-349.888 235.48,-342.001 232.105,-348.134"/>
</a>
</g>
</g>
<!-- Node7&#45;&gt;Node5 -->
<g id="edge8_Node000007_Node000005" class="edge"><title>Node7&#45;&gt;Node5</title>
<g id="a_edge8_Node000007_Node000005"><a xlink:title=" ">
<path fill="none" stroke="#63b8ff" d="M174.992,-258.035C181.254,-260.327 187.47,-263.119 193,-266.5 212.575,-278.469 209.379,-291.607 229,-303.5 235.781,-307.61 243.512,-310.884 251.19,-313.474"/>
<polygon fill="#63b8ff" stroke="#63b8ff" points="250.227,-316.84 260.813,-316.401 252.264,-310.143 250.227,-316.84"/>
</a>
</g>
</g>
<!-- Node7&#45;&gt;Node6 -->
<g id="edge9_Node000007_Node000006" class="edge"><title>Node7&#45;&gt;Node6</title>
<g id="a_edge9_Node000007_Node000006"><a xlink:title=" ">
<path fill="none" stroke="#63b8ff" d="M175.189,-258.028C195.475,-262.779 220.208,-268.571 241.724,-273.609"/>
<polygon fill="#63b8ff" stroke="#63b8ff" points="241.14,-277.067 251.675,-275.94 242.736,-270.252 241.14,-277.067"/>
</a>
</g>
</g>
<!-- Node8&#45;&gt;Node3 -->
<g id="edge11_Node000008_Node000003" class="edge"><title>Node8&#45;&gt;Node3</title>
<g id="a_edge11_Node000008_Node000003"><a xlink:title=" ">
<path fill="none" stroke="#63b8ff" d="M175.189,-386.972C195.475,-382.221 220.208,-376.429 241.724,-371.391"/>
<polygon fill="#63b8ff" stroke="#63b8ff" points="242.736,-374.748 251.675,-369.06 241.14,-367.933 242.736,-374.748"/>
</a>
</g>
</g>
<!-- Node8&#45;&gt;Node5 -->
<g id="edge12_Node000008_Node000005" class="edge"><title>Node8&#45;&gt;Node5</title>
<g id="a_edge12_Node000008_Node000005"><a xlink:title=" ">
<path fill="none" stroke="#63b8ff" d="M174.992,-386.965C181.254,-384.673 187.47,-381.881 193,-378.5 212.575,-366.531 209.379,-353.393 229,-341.5 235.781,-337.39 243.512,-334.116 251.19,-331.526"/>
<polygon fill="#63b8ff" stroke="#63b8ff" points="252.264,-334.857 260.813,-328.599 250.227,-328.16 252.264,-334.857"/>
</a>
</g>
</g>
<!-- Node8&#45;&gt;Node6 -->
<g id="edge13_Node000008_Node000006" class="edge"><title>Node8&#45;&gt;Node6</title>
<g id="a_edge13_Node000008_Node000006"><a xlink:title=" ">
<path fill="none" stroke="#63b8ff" d="M179.652,-386.89C184.476,-384.654 189.054,-381.897 193,-378.5 221.019,-354.374 200.714,-327.312 229,-303.5 230.512,-302.227 232.109,-301.044 233.772,-299.944"/>
<polygon fill="#63b8ff" stroke="#63b8ff" points="235.48,-302.999 242.554,-295.112 232.105,-296.866 235.48,-302.999"/>
</a>
</g>
</g>
<!-- Node10 -->
<g id="Node000010" class="node"><title>Node10</title>
<g id="a_Node000010"><a xlink:href="group__sortable___t_vector.html#ga09e150aa4cdd8faabf43474ab1dbe454" target="_top" xlink:title="Porovnání mezi hodnotou elementu vektoru a hodnotou typu VectorElement.">
<polygon fill="white" stroke="#666666" points="355.5,-454.5 231.5,-454.5 231.5,-424.5 355.5,-424.5 355.5,-454.5"/>
<text text-anchor="start" x="239.5" y="-442.5" font-family="Helvetica,sans-Serif" font-size="10.00">vector_compare_position</text>
<text text-anchor="middle" x="293.5" y="-431.5" font-family="Helvetica,sans-Serif" font-size="10.00">_value</text>
</a>
</g>
</g>
<!-- Node9&#45;&gt;Node10 -->
<g id="edge15_Node000009_Node000010" class="edge"><title>Node9&#45;&gt;Node10</title>
<g id="a_edge15_Node000009_Node000010"><a xlink:title=" ">
<path fill="none" stroke="#63b8ff" d="M164.59,-439.5C180.752,-439.5 201.416,-439.5 221.399,-439.5"/>
<polygon fill="#63b8ff" stroke="#63b8ff" points="221.444,-443 231.444,-439.5 221.444,-436 221.444,-443"/>
</a>
</g>
</g>
<!-- Node11 -->
<g id="Node000011" class="node"><title>Node11</title>
<g id="a_Node000011"><a xlink:href="group__sortable___t_vector.html#ga16623c06371077674f5d4d31e38e42a4" target="_top" xlink:title="Přesun hodnoty elementu vektoru.">
<polygon fill="white" stroke="#666666" points="350.5,-406 236.5,-406 236.5,-387 350.5,-387 350.5,-406"/>
<text text-anchor="middle" x="293.5" y="-394" font-family="Helvetica,sans-Serif" font-size="10.00">vector_move_positions</text>
</a>
</g>
</g>
<!-- Node9&#45;&gt;Node11 -->
<g id="edge17_Node000009_Node000011" class="edge"><title>Node9&#45;&gt;Node11</title>
<g id="a_edge17_Node000009_Node000011"><a xlink:title=" ">
<path fill="none" stroke="#63b8ff" d="M164.59,-431.311C188.091,-424.915 221.111,-415.929 247.715,-408.688"/>
<polygon fill="#63b8ff" stroke="#63b8ff" points="248.833,-412.011 257.563,-406.008 246.995,-405.257 248.833,-412.011"/>
</a>
</g>
</g>
<!-- Node12 -->
<g id="Node000012" class="node"><title>Node12</title>
<g id="a_Node000012"><a xlink:href="group___t_vector.html#gabd5ba54950295545d27b1286234ead39" target="_top" xlink:title="Zapsání hodnoty elementu do vektoru na požadovanou pozici.">
<polygon fill="white" stroke="#666666" points="337.5,-529 249.5,-529 249.5,-510 337.5,-510 337.5,-529"/>
<text text-anchor="middle" x="293.5" y="-517" font-family="Helvetica,sans-Serif" font-size="10.00">vector_set_value</text>
</a>
</g>
</g>
<!-- Node9&#45;&gt;Node12 -->
<g id="edge18_Node000009_Node000012" class="edge"><title>Node9&#45;&gt;Node12</title>
<g id="a_edge18_Node000009_Node000012"><a xlink:title=" ">
<path fill="none" stroke="#63b8ff" d="M146.624,-449.219C163.953,-462.683 197.229,-486.99 229,-501.5 233.158,-503.399 237.562,-505.143 242.034,-506.735"/>
<polygon fill="#63b8ff" stroke="#63b8ff" points="241.272,-510.169 251.865,-509.976 243.464,-503.521 241.272,-510.169"/>
</a>
</g>
</g>
<!-- Node13 -->
<g id="Node000013" class="node"><title>Node13</title>
<g id="a_Node000013"><a xlink:href="group___t_vector.html#ga2b08236d9825632cd96bcc89faed929c" target="_top" xlink:title="Přečtení hodnoty elementu z vektoru na požadované pozici.">
<polygon fill="white" stroke="#666666" points="328,-492 259,-492 259,-473 328,-473 328,-492"/>
<text text-anchor="middle" x="293.5" y="-480" font-family="Helvetica,sans-Serif" font-size="10.00">vector_value</text>
</a>
</g>
</g>
<!-- Node9&#45;&gt;Node13 -->
<g id="edge19_Node000009_Node000013" class="edge"><title>Node9&#45;&gt;Node13</title>
<g id="a_edge19_Node000009_Node000013"><a xlink:title=" ">
<path fill="none" stroke="#63b8ff" d="M164.59,-447.689C188.488,-454.193 222.229,-463.376 249.057,-470.677"/>
<polygon fill="#63b8ff" stroke="#63b8ff" points="248.398,-474.125 258.966,-473.374 250.236,-467.37 248.398,-474.125"/>
</a>
</g>
</g>
<!-- Node10&#45;&gt;Node4 -->
<g id="edge16_Node000010_Node000004" class="edge"><title>Node10&#45;&gt;Node4</title>
<g id="a_edge16_Node000010_Node000004"><a xlink:title=" ">
<path fill="none" stroke="#63b8ff" d="M336.846,-424.419C343.977,-421.617 351.25,-418.593 358,-415.5 385.439,-402.927 415.65,-386.13 436.215,-374.221"/>
<polygon fill="#63b8ff" stroke="#63b8ff" points="438.069,-377.191 444.94,-369.126 434.539,-371.146 438.069,-377.191"/>
</a>
</g>
</g>
<!-- Node14&#45;&gt;Node3 -->
<g id="edge21_Node000014_Node000003" class="edge"><title>Node14&#45;&gt;Node3</title>
<g id="a_edge21_Node000014_Node000003"><a xlink:title=" ">
<path fill="none" stroke="#63b8ff" d="M166.094,-359.5C181.291,-359.5 200.202,-359.5 218.727,-359.5"/>
<polygon fill="#63b8ff" stroke="#63b8ff" points="218.954,-363 228.954,-359.5 218.954,-356 218.954,-363"/>
</a>
</g>
</g>
<!-- Node14&#45;&gt;Node5 -->
<g id="edge22_Node000014_Node000005" class="edge"><title>Node14&#45;&gt;Node5</title>
<g id="a_edge22_Node000014_Node000005"><a xlink:title=" ">
<path fill="none" stroke="#63b8ff" d="M166.094,-352.101C190.529,-346.379 224.567,-338.408 251.166,-332.179"/>
<polygon fill="#63b8ff" stroke="#63b8ff" points="252.022,-335.574 260.961,-329.886 250.426,-328.758 252.022,-335.574"/>
</a>
</g>
</g>
<!-- Node14&#45;&gt;Node6 -->
<g id="edge23_Node000014_Node000006" class="edge"><title>Node14&#45;&gt;Node6</title>
<g id="a_edge23_Node000014_Node000006"><a xlink:title=" ">
<path fill="none" stroke="#63b8ff" d="M166.143,-352.971C175.232,-350.265 184.874,-346.543 193,-341.5 212.767,-329.232 209.098,-315.547 229,-303.5 231.794,-301.809 234.752,-300.271 237.805,-298.874"/>
<polygon fill="#63b8ff" stroke="#63b8ff" points="239.211,-302.081 247.171,-295.089 236.588,-295.59 239.211,-302.081"/>
</a>
</g>
</g>
<!-- Node15&#45;&gt;Node3 -->
<g id="edge25_Node000015_Node000003" class="edge"><title>Node15&#45;&gt;Node3</title>
<g id="a_edge25_Node000015_Node000003"><a xlink:title=" ">
<path fill="none" stroke="#63b8ff" d="M167.622,-330.256C189.175,-335.304 217.7,-341.984 242.046,-347.685"/>
<polygon fill="#63b8ff" stroke="#63b8ff" points="241.308,-351.107 251.842,-349.979 242.904,-344.291 241.308,-351.107"/>
</a>
</g>
</g>
<!-- Node15&#45;&gt;Node5 -->
<g id="edge26_Node000015_Node000005" class="edge"><title>Node15&#45;&gt;Node5</title>
<g id="a_edge26_Node000015_Node000005"><a xlink:title=" ">
<path fill="none" stroke="#63b8ff" d="M167.622,-322.5C191.72,-322.5 224.534,-322.5 250.478,-322.5"/>
<polygon fill="#63b8ff" stroke="#63b8ff" points="250.769,-326 260.769,-322.5 250.769,-319 250.769,-326"/>
</a>
</g>
</g>
<!-- Node15&#45;&gt;Node6 -->
<g id="edge27_Node000015_Node000006" class="edge"><title>Node15&#45;&gt;Node6</title>
<g id="a_edge27_Node000015_Node000006"><a xlink:title=" ">
<path fill="none" stroke="#63b8ff" d="M167.622,-314.744C189.175,-309.696 217.7,-303.016 242.046,-297.315"/>
<polygon fill="#63b8ff" stroke="#63b8ff" points="242.904,-300.709 251.842,-295.021 241.308,-293.893 242.904,-300.709"/>
</a>
</g>
</g>
<!-- Node17 -->
<g id="Node000017" class="node"><title>Node17</title>
<g id="a_Node000017"><a xlink:href="main__support_8h.html#aa291195ad453d2b1e29004cc2e043c01" target="_top" xlink:title="Výpočet doby trvání časového intervalu.">
<polygon fill="white" stroke="#666666" points="327.5,-95 259.5,-95 259.5,-76 327.5,-76 327.5,-95"/>
<text text-anchor="middle" x="293.5" y="-83" font-family="Helvetica,sans-Serif" font-size="10.00">difftimespec</text>
</a>
</g>
</g>
<!-- Node16&#45;&gt;Node17 -->
<g id="edge29_Node000016_Node000017" class="edge"><title>Node16&#45;&gt;Node17</title>
<g id="a_edge29_Node000016_Node000017"><a xlink:title=" ">
<path fill="none" stroke="#63b8ff" d="M145.143,-170.888C161.945,-156.103 196.096,-127.598 229,-109.5 236.342,-105.462 244.503,-101.816 252.462,-98.6554"/>
<polygon fill="#63b8ff" stroke="#63b8ff" points="253.887,-101.859 262.002,-95.0474 251.411,-95.3112 253.887,-101.859"/>
</a>
</g>
</g>
<!-- Node18 -->
<g id="Node000018" class="node"><title>Node18</title>
<g id="a_Node000018"><a xlink:href="group___t_vector.html#ga6b0b8780d60dad02b8569be119769548" target="_top" xlink:title="Vytvoření úplné kopie vektoru.">
<polygon fill="white" stroke="#666666" points="497.5,-211 426.5,-211 426.5,-192 497.5,-192 497.5,-211"/>
<text text-anchor="middle" x="462" y="-199" font-family="Helvetica,sans-Serif" font-size="10.00">vector_clone</text>
</a>
</g>
</g>
<!-- Node16&#45;&gt;Node18 -->
<g id="edge30_Node000016_Node000018" class="edge"><title>Node16&#45;&gt;Node18</title>
<g id="a_edge30_Node000016_Node000018"><a xlink:title=" ">
<path fill="none" stroke="#63b8ff" d="M167.55,-178.433C211.26,-176.172 290.632,-173.702 358,-180.5 377.367,-182.454 398.476,-186.425 416.513,-190.394"/>
<polygon fill="#63b8ff" stroke="#63b8ff" points="415.937,-193.852 426.463,-192.649 417.484,-187.025 415.937,-193.852"/>
</a>
</g>
</g>
<!-- Node16&#45;&gt;Node19 -->
<g id="edge31_Node000016_Node000019" class="edge"><title>Node16&#45;&gt;Node19</title>
<g id="a_edge31_Node000016_Node000019"><a xlink:title=" ">
<path fill="none" stroke="#63b8ff" d="M167.603,-174.721C225.276,-164.652 344.443,-143.848 411.811,-132.087"/>
<polygon fill="#63b8ff" stroke="#63b8ff" points="412.512,-135.518 421.761,-130.35 411.308,-128.622 412.512,-135.518"/>
</a>
</g>
</g>
<!-- Node20 -->
<g id="Node000020" class="node"><title>Node20</title>
<g id="a_Node000020"><a xlink:href="group__sortable___t_vector.html#ga1b7a4850be6488c69c293bdd13f729a7" target="_top" xlink:title="Ověření korektního setřídění vektoru.">
<polygon fill="white" stroke="#666666" points="350,-257.5 237,-257.5 237,-227.5 350,-227.5 350,-257.5"/>
<text text-anchor="start" x="245" y="-245.5" font-family="Helvetica,sans-Serif" font-size="10.00">vector_is_ascendantly</text>
<text text-anchor="middle" x="293.5" y="-234.5" font-family="Helvetica,sans-Serif" font-size="10.00">_sorted</text>
</a>
</g>
</g>
<!-- Node16&#45;&gt;Node20 -->
<g id="edge32_Node000016_Node000020" class="edge"><title>Node16&#45;&gt;Node20</title>
<g id="a_edge32_Node000016_Node000020"><a xlink:title=" ">
<path fill="none" stroke="#63b8ff" d="M158.841,-190.052C181.628,-198.993 216.316,-212.605 244.643,-223.721"/>
<polygon fill="#63b8ff" stroke="#63b8ff" points="243.392,-226.989 253.979,-227.384 245.949,-220.473 243.392,-226.989"/>
</a>
</g>
</g>
<!-- Node21 -->
<g id="Node000021" class="node"><title>Node21</title>
<g id="a_Node000021"><a xlink:href="group__sortable___t_vector.html#gac0806530378fe49a3d61622ca8b9957e" target="_top" xlink:title="Zobrazení hodnoty statistik počtu operací s elementy vektoru.">
<polygon fill="white" stroke="#666666" points="348.5,-209 238.5,-209 238.5,-190 348.5,-190 348.5,-209"/>
<text text-anchor="middle" x="293.5" y="-197" font-family="Helvetica,sans-Serif" font-size="10.00">vector_print_sortstats</text>
</a>
</g>
</g>
<!-- Node16&#45;&gt;Node21 -->
<g id="edge36_Node000016_Node000021" class="edge"><title>Node16&#45;&gt;Node21</title>
<g id="a_edge36_Node000016_Node000021"><a xlink:title=" ">
<path fill="none" stroke="#63b8ff" d="M167.622,-184.483C185.197,-186.596 207.407,-189.267 228.208,-191.769"/>
<polygon fill="#63b8ff" stroke="#63b8ff" points="227.933,-195.261 238.279,-192.98 228.769,-188.311 227.933,-195.261"/>
</a>
</g>
</g>
<!-- Node20&#45;&gt;Node4 -->
<g id="edge35_Node000020_Node000004" class="edge"><title>Node20&#45;&gt;Node4</title>
<g id="a_edge35_Node000020_Node000004"><a xlink:title=" ">
<path fill="none" stroke="#63b8ff" d="M340.568,-257.555C346.601,-260.201 352.567,-263.185 358,-266.5 392.886,-287.788 426.763,-321.697 445.651,-342.154"/>
<polygon fill="#63b8ff" stroke="#63b8ff" points="443.256,-344.723 452.568,-349.776 448.439,-340.019 443.256,-344.723"/>
</a>
</g>
</g>
<!-- Node20&#45;&gt;Node18 -->
<g id="edge33_Node000020_Node000018" class="edge"><title>Node20&#45;&gt;Node18</title>
<g id="a_edge33_Node000020_Node000018"><a xlink:title=" ">
<path fill="none" stroke="#63b8ff" d="M350.405,-228.734C371.903,-223.44 396.137,-217.472 416.429,-212.475"/>
<polygon fill="#63b8ff" stroke="#63b8ff" points="417.472,-215.823 426.345,-210.034 415.798,-209.026 417.472,-215.823"/>
</a>
</g>
</g>
<!-- Node20&#45;&gt;Node19 -->
<g id="edge34_Node000020_Node000019" class="edge"><title>Node20&#45;&gt;Node19</title>
<g id="a_edge34_Node000020_Node000019"><a xlink:title=" ">
<path fill="none" stroke="#63b8ff" d="M339.337,-227.456C345.81,-224.548 352.226,-221.227 358,-217.5 376.749,-205.398 377.621,-197.656 394,-182.5 409.827,-167.855 428.239,-151.702 441.753,-140.006"/>
<polygon fill="#63b8ff" stroke="#63b8ff" points="444.18,-142.534 449.467,-133.353 439.608,-137.234 444.18,-142.534"/>
</a>
</g>
</g>
<!-- Node23 -->
<g id="Node000023" class="node"><title>Node23</title>
<g id="a_Node000023"><a xlink:href="group___t_vector_element.html#gaf9a34133c2292f807fe184c72fd3f8d8" target="_top" xlink:title="Načtení elementu ze souboru.">
<polygon fill="white" stroke="#666666" points="354.5,-19 232.5,-19 232.5,-0 354.5,-0 354.5,-19"/>
<text text-anchor="middle" x="293.5" y="-7" font-family="Helvetica,sans-Serif" font-size="10.00">vector_element_load_file</text>
</a>
</g>
</g>
<!-- Node22&#45;&gt;Node23 -->
<g id="edge39_Node000022_Node000023" class="edge"><title>Node22&#45;&gt;Node23</title>
<g id="a_edge39_Node000022_Node000023"><a xlink:title=" ">
<path fill="none" stroke="#63b8ff" d="M172.345,-9.5C187.379,-9.5 205.173,-9.5 222.395,-9.5"/>
<polygon fill="#63b8ff" stroke="#63b8ff" points="222.444,-13.0001 232.444,-9.5 222.444,-6.0001 222.444,-13.0001"/>
</a>
</g>
</g>
</g>
</svg>
