<?xml version="1.0" encoding="UTF-8" standalone="no"?>
<!DOCTYPE svg PUBLIC "-//W3C//DTD SVG 1.1//EN"
 "http://www.w3.org/Graphics/SVG/1.1/DTD/svg11.dtd">
<!-- Generated by graphviz version 2.38.0 (20140413.2041)
 -->
<!-- Title: vector_element_store_file Pages: 1 -->
<svg width="256pt" height="64pt"
 viewBox="0.00 0.00 256.00 64.00" xmlns="http://www.w3.org/2000/svg" xmlns:xlink="http://www.w3.org/1999/xlink">
<g id="graph0" class="graph" transform="scale(1 1) rotate(0) translate(4 60)">
<title>vector_element_store_file</title>
<!-- Node1 -->
<g id="Node000001" class="node"><title>Node1</title>
<g id="a_Node000001"><a xlink:title="Uložení elementu do souboru.">
<polygon fill="#999999" stroke="#666666" points="248,-37 122,-37 122,-18 248,-18 248,-37"/>
<text text-anchor="middle" x="185" y="-25" font-family="Helvetica,sans-Serif" font-size="10.00">vector_element_store_file</text>
</a>
</g>
</g>
<!-- Node2 -->
<g id="Node000002" class="node"><title>Node2</title>
<g id="a_Node000002"><a xlink:href="group___basic_sorts.html#ga25c7ac8991c266d71b75cf20c14b67cf" target="_top" xlink:title="Vytisknutí elementu vektoru pomocí iterátoru.">
<polygon fill="white" stroke="#666666" points="80.5,-56 5.5,-56 5.5,-37 80.5,-37 80.5,-56"/>
<text text-anchor="middle" x="43" y="-44" font-family="Helvetica,sans-Serif" font-size="10.00">print_element</text>
</a>
</g>
</g>
<!-- Node1&#45;&gt;Node2 -->
<g id="edge1_Node000001_Node000002" class="edge"><title>Node1&#45;&gt;Node2</title>
<g id="a_edge1_Node000001_Node000002"><a xlink:title=" ">
<path fill="none" stroke="#63b8ff" d="M111.55,-37.3326C100.871,-38.7818 90.2683,-40.2207 80.7376,-41.5142"/>
<polygon fill="#63b8ff" stroke="#63b8ff" points="112.34,-40.7574 121.779,-35.9443 111.399,-33.821 112.34,-40.7574"/>
</a>
</g>
</g>
<!-- Node3 -->
<g id="Node000003" class="node"><title>Node3</title>
<g id="a_Node000003"><a xlink:href="group___t_vector.html#gabc5c4a8f6f5f38932380f5e475ce862f" target="_top" xlink:title="Uložení vektoru a jeho elementů do souboru.">
<polygon fill="white" stroke="#666666" points="86,-19 0,-19 0,-0 86,-0 86,-19"/>
<text text-anchor="middle" x="43" y="-7" font-family="Helvetica,sans-Serif" font-size="10.00">vector_store_file</text>
</a>
</g>
</g>
<!-- Node1&#45;&gt;Node3 -->
<g id="edge2_Node000001_Node000003" class="edge"><title>Node1&#45;&gt;Node3</title>
<g id="a_edge2_Node000001_Node000003"><a xlink:title=" ">
<path fill="none" stroke="#63b8ff" d="M111.632,-18.1956C102.981,-17.0832 94.3774,-15.9771 86.3519,-14.9452"/>
<polygon fill="#63b8ff" stroke="#63b8ff" points="111.414,-21.6962 121.779,-19.5001 112.307,-14.7534 111.414,-21.6962"/>
</a>
</g>
</g>
</g>
</svg>
