<?xml version="1.0" encoding="UTF-8" standalone="no"?>
<!DOCTYPE svg PUBLIC "-//W3C//DTD SVG 1.1//EN"
 "http://www.w3.org/Graphics/SVG/1.1/DTD/svg11.dtd">
<!-- Generated by graphviz version 2.38.0 (20140413.2041)
 -->
<!-- Title: vector_compare_positions Pages: 1 -->
<svg width="366pt" height="224pt"
 viewBox="0.00 0.00 366.00 223.50" xmlns="http://www.w3.org/2000/svg" xmlns:xlink="http://www.w3.org/1999/xlink">
<g id="graph0" class="graph" transform="scale(1 1) rotate(0) translate(4 219.5)">
<title>vector_compare_positions</title>
<!-- Node1 -->
<g id="Node000001" class="node"><title>Node1</title>
<g id="a_Node000001"><a xlink:title="Porovnání hodnot elementů vektorů">
<polygon fill="#999999" stroke="#666666" points="358,-122.5 229,-122.5 229,-103.5 358,-103.5 358,-122.5"/>
<text text-anchor="middle" x="293.5" y="-110.5" font-family="Helvetica,sans-Serif" font-size="10.00">vector_compare_positions</text>
</a>
</g>
</g>
<!-- Node2 -->
<g id="Node000002" class="node"><title>Node2</title>
<g id="a_Node000002"><a xlink:href="group___basic_sorts.html#gaa1ef093f5205f293df8303ac228452fc" target="_top" xlink:title="Třídění přímou výměnou (Bubble Sort)">
<polygon fill="white" stroke="#666666" points="167,-215.5 100,-215.5 100,-196.5 167,-196.5 167,-215.5"/>
<text text-anchor="middle" x="133.5" y="-203.5" font-family="Helvetica,sans-Serif" font-size="10.00">bubble_sort</text>
</a>
</g>
</g>
<!-- Node1&#45;&gt;Node2 -->
<g id="edge1_Node000001_Node000002" class="edge"><title>Node1&#45;&gt;Node2</title>
<g id="a_edge1_Node000001_Node000002"><a xlink:title=" ">
<path fill="none" stroke="#63b8ff" d="M274.738,-129.455C255.773,-146.253 224.213,-172.058 193,-188 184.956,-192.108 175.805,-195.473 167.168,-198.135"/>
<polygon fill="#63b8ff" stroke="#63b8ff" points="277.202,-131.946 282.288,-122.651 272.516,-126.746 277.202,-131.946"/>
</a>
</g>
</g>
<!-- Node4 -->
<g id="Node000004" class="node"><title>Node4</title>
<g id="a_Node000004"><a xlink:href="group___basic_sorts.html#ga62a36eb31bf0a873f7c027e145843b1a" target="_top" xlink:title="Třídění přímou výměnou včetně optimalizace s pomocným příznakem ukončení třídění (Bubble Sort Optimiz...">
<polygon fill="white" stroke="#666666" points="190.5,-178.5 76.5,-178.5 76.5,-159.5 190.5,-159.5 190.5,-178.5"/>
<text text-anchor="middle" x="133.5" y="-166.5" font-family="Helvetica,sans-Serif" font-size="10.00">bubble_sort_optimized</text>
</a>
</g>
</g>
<!-- Node1&#45;&gt;Node4 -->
<g id="edge3_Node000001_Node000004" class="edge"><title>Node1&#45;&gt;Node4</title>
<g id="a_edge3_Node000001_Node000004"><a xlink:title=" ">
<path fill="none" stroke="#63b8ff" d="M259.414,-126.267C240.151,-133.833 215.332,-143.309 193,-151 184.56,-153.906 175.361,-156.843 166.809,-159.478"/>
<polygon fill="#63b8ff" stroke="#63b8ff" points="260.924,-129.434 268.939,-122.505 258.352,-122.923 260.924,-129.434"/>
</a>
</g>
</g>
<!-- Node5 -->
<g id="Node000005" class="node"><title>Node5</title>
<g id="a_Node000005"><a xlink:href="group___basic_sorts.html#gaba41a68f00241f38f7864b4e1dacd086" target="_top" xlink:title="Třídění přímou výměnou včetně optimalizace s výpočtem indexu poslední změny (Bubble Sort Optimized2)">
<polygon fill="white" stroke="#666666" points="193,-141.5 74,-141.5 74,-122.5 193,-122.5 193,-141.5"/>
<text text-anchor="middle" x="133.5" y="-129.5" font-family="Helvetica,sans-Serif" font-size="10.00">bubble_sort_optimized2</text>
</a>
</g>
</g>
<!-- Node1&#45;&gt;Node5 -->
<g id="edge5_Node000001_Node000005" class="edge"><title>Node1&#45;&gt;Node5</title>
<g id="a_edge5_Node000001_Node000005"><a xlink:title=" ">
<path fill="none" stroke="#63b8ff" d="M218.705,-121.874C210.145,-122.903 201.504,-123.943 193.185,-124.943"/>
<polygon fill="#63b8ff" stroke="#63b8ff" points="219.18,-125.342 228.691,-120.673 218.344,-118.392 219.18,-125.342"/>
</a>
</g>
</g>
<!-- Node6 -->
<g id="Node000006" class="node"><title>Node6</title>
<g id="a_Node000006"><a xlink:href="group___basic_sorts.html#ga3688a58781905ac2e518285b8bb711ec" target="_top" xlink:title="Třídění přímým výběrem (Select Sort)">
<polygon fill="white" stroke="#666666" points="166,-104.5 101,-104.5 101,-85.5 166,-85.5 166,-104.5"/>
<text text-anchor="middle" x="133.5" y="-92.5" font-family="Helvetica,sans-Serif" font-size="10.00">select_sort</text>
</a>
</g>
</g>
<!-- Node1&#45;&gt;Node6 -->
<g id="edge7_Node000001_Node000006" class="edge"><title>Node1&#45;&gt;Node6</title>
<g id="a_edge7_Node000001_Node000006"><a xlink:title=" ">
<path fill="none" stroke="#63b8ff" d="M218.741,-104.597C200.174,-102.482 181.218,-100.322 166.002,-98.5889"/>
<polygon fill="#63b8ff" stroke="#63b8ff" points="218.359,-108.076 228.691,-105.731 219.151,-101.121 218.359,-108.076"/>
</a>
</g>
</g>
<!-- Node7 -->
<g id="Node000007" class="node"><title>Node7</title>
<g id="a_Node000007"><a xlink:href="group___basic_sorts.html#gaacee5d609500566a6ad1724486ab8bb2" target="_top" xlink:title="Třídění přímou výměnou se změnou postupu třídění (Shaker Sort)">
<polygon fill="white" stroke="#666666" points="167.5,-67.5 99.5,-67.5 99.5,-48.5 167.5,-48.5 167.5,-67.5"/>
<text text-anchor="middle" x="133.5" y="-55.5" font-family="Helvetica,sans-Serif" font-size="10.00">shaker_sort</text>
</a>
</g>
</g>
<!-- Node1&#45;&gt;Node7 -->
<g id="edge9_Node000001_Node000007" class="edge"><title>Node1&#45;&gt;Node7</title>
<g id="a_edge9_Node000001_Node000007"><a xlink:title=" ">
<path fill="none" stroke="#63b8ff" d="M257.362,-99.9657C238.361,-92.9984 214.455,-84.363 193,-77 183.809,-73.8456 173.76,-70.533 164.625,-67.5733"/>
<polygon fill="#63b8ff" stroke="#63b8ff" points="256.219,-103.275 266.813,-103.442 258.636,-96.7048 256.219,-103.275"/>
</a>
</g>
</g>
<!-- Node8 -->
<g id="Node000008" class="node"><title>Node8</title>
<g id="a_Node000008"><a xlink:href="group__sortable___t_vector_iterator.html#gadd8aded92ce2c6402742a57316412d39" target="_top" xlink:title="Porovnání hodnot elementů vektorů určených dvěma iterátory.">
<polygon fill="white" stroke="#666666" points="187,-30 80,-30 80,-0 187,-0 187,-30"/>
<text text-anchor="start" x="88" y="-18" font-family="Helvetica,sans-Serif" font-size="10.00">vector_compare_with</text>
<text text-anchor="middle" x="133.5" y="-7" font-family="Helvetica,sans-Serif" font-size="10.00">_iterators</text>
</a>
</g>
</g>
<!-- Node1&#45;&gt;Node8 -->
<g id="edge11_Node000001_Node000008" class="edge"><title>Node1&#45;&gt;Node8</title>
<g id="a_edge11_Node000001_Node000008"><a xlink:title=" ">
<path fill="none" stroke="#63b8ff" d="M273.364,-96.8929C253.967,-81.076 222.666,-56.923 193,-40 186.764,-36.4427 179.924,-33.0802 173.187,-30.0428"/>
<polygon fill="#63b8ff" stroke="#63b8ff" points="271.209,-99.652 281.15,-103.317 275.664,-94.2527 271.209,-99.652"/>
</a>
</g>
</g>
<!-- Node3 -->
<g id="Node000003" class="node"><title>Node3</title>
<g id="a_Node000003"><a xlink:href="group___main_program.html#ga0ddf1224851353fc92bfbff6f499fa97" target="_top" xlink:title=" ">
<polygon fill="white" stroke="#666666" points="38,-141.5 0,-141.5 0,-122.5 38,-122.5 38,-141.5"/>
<text text-anchor="middle" x="19" y="-129.5" font-family="Helvetica,sans-Serif" font-size="10.00">main</text>
</a>
</g>
</g>
<!-- Node2&#45;&gt;Node3 -->
<g id="edge2_Node000002_Node000003" class="edge"><title>Node2&#45;&gt;Node3</title>
<g id="a_edge2_Node000002_Node000003"><a xlink:title=" ">
<path fill="none" stroke="#63b8ff" d="M90.3748,-195.881C84.6673,-193.705 79.0458,-191.101 74,-188 53.9781,-175.696 36.2268,-154.247 26.9091,-141.769"/>
<polygon fill="#63b8ff" stroke="#63b8ff" points="89.3801,-199.24 99.9746,-199.152 91.6379,-192.614 89.3801,-199.24"/>
</a>
</g>
</g>
<!-- Node4&#45;&gt;Node3 -->
<g id="edge4_Node000004_Node000003" class="edge"><title>Node4&#45;&gt;Node3</title>
<g id="a_edge4_Node000004_Node000003"><a xlink:title=" ">
<path fill="none" stroke="#63b8ff" d="M90.6135,-156.333C85.0168,-154.576 79.3614,-152.767 74,-151 62.1071,-147.08 48.8398,-142.416 38.4322,-138.69"/>
<polygon fill="#63b8ff" stroke="#63b8ff" points="89.9593,-159.795 100.548,-159.42 92.0366,-153.11 89.9593,-159.795"/>
</a>
</g>
</g>
<!-- Node5&#45;&gt;Node3 -->
<g id="edge6_Node000005_Node000003" class="edge"><title>Node5&#45;&gt;Node3</title>
<g id="a_edge6_Node000005_Node000003"><a xlink:title=" ">
<path fill="none" stroke="#63b8ff" d="M63.65,-132C54.2928,-132 45.426,-132 38.159,-132"/>
<polygon fill="#63b8ff" stroke="#63b8ff" points="63.9435,-135.5 73.9434,-132 63.9434,-128.5 63.9435,-135.5"/>
</a>
</g>
</g>
<!-- Node6&#45;&gt;Node3 -->
<g id="edge8_Node000006_Node000003" class="edge"><title>Node6&#45;&gt;Node3</title>
<g id="a_edge8_Node000006_Node000003"><a xlink:title=" ">
<path fill="none" stroke="#63b8ff" d="M93.1617,-107.731C86.7545,-109.817 80.1907,-111.963 74,-114 62.1724,-117.892 48.9062,-122.313 38.4827,-125.8"/>
<polygon fill="#63b8ff" stroke="#63b8ff" points="94.5972,-110.944 103.025,-104.524 92.433,-104.287 94.5972,-110.944"/>
</a>
</g>
</g>
<!-- Node7&#45;&gt;Node3 -->
<g id="edge10_Node000007_Node000003" class="edge"><title>Node7&#45;&gt;Node3</title>
<g id="a_edge10_Node000007_Node000003"><a xlink:title=" ">
<path fill="none" stroke="#63b8ff" d="M89.6001,-69.2591C84.1644,-71.4491 78.8235,-74.014 74,-77 54.2024,-89.2556 36.3705,-110.26 26.9782,-122.458"/>
<polygon fill="#63b8ff" stroke="#63b8ff" points="91.1848,-72.4078 99.3956,-65.712 88.8014,-65.826 91.1848,-72.4078"/>
</a>
</g>
</g>
</g>
</svg>
