<?xml version="1.0" encoding="UTF-8" standalone="no"?>
<!DOCTYPE svg PUBLIC "-//W3C//DTD SVG 1.1//EN"
 "http://www.w3.org/Graphics/SVG/1.1/DTD/svg11.dtd">
<!-- Generated by graphviz version 2.38.0 (20140413.2041)
 -->
<!-- Title: vector_size Pages: 1 -->
<svg width="302pt" height="175pt"
 viewBox="0.00 0.00 302.00 175.00" xmlns="http://www.w3.org/2000/svg" xmlns:xlink="http://www.w3.org/1999/xlink">
<g id="graph0" class="graph" transform="scale(1 1) rotate(0) translate(4 171)">
<title>vector_size</title>
<!-- Node1 -->
<g id="Node000001" class="node"><title>Node1</title>
<g id="a_Node000001"><a xlink:title="Přečtení počtu elementů vektoru.">
<polygon fill="#999999" stroke="#666666" points="294,-93 229,-93 229,-74 294,-74 294,-93"/>
<text text-anchor="middle" x="261.5" y="-81" font-family="Helvetica,sans-Serif" font-size="10.00">vector_size</text>
</a>
</g>
</g>
<!-- Node2 -->
<g id="Node000002" class="node"><title>Node2</title>
<g id="a_Node000002"><a xlink:href="group___basic_sorts.html#gaa1ef093f5205f293df8303ac228452fc" target="_top" xlink:title="Třídění přímou výměnou (Bubble Sort)">
<polygon fill="white" stroke="#666666" points="167,-167 100,-167 100,-148 167,-148 167,-167"/>
<text text-anchor="middle" x="133.5" y="-155" font-family="Helvetica,sans-Serif" font-size="10.00">bubble_sort</text>
</a>
</g>
</g>
<!-- Node1&#45;&gt;Node2 -->
<g id="edge1_Node000001_Node000002" class="edge"><title>Node1&#45;&gt;Node2</title>
<g id="a_edge1_Node000001_Node000002"><a xlink:title=" ">
<path fill="none" stroke="#63b8ff" d="M244.146,-100.266C231.26,-112.637 212.302,-129.067 193,-139.5 185.054,-143.795 175.936,-147.222 167.299,-149.884"/>
<polygon fill="#63b8ff" stroke="#63b8ff" points="246.671,-102.692 251.334,-93.1784 241.756,-97.7079 246.671,-102.692"/>
</a>
</g>
</g>
<!-- Node4 -->
<g id="Node000004" class="node"><title>Node4</title>
<g id="a_Node000004"><a xlink:href="group___basic_sorts.html#ga62a36eb31bf0a873f7c027e145843b1a" target="_top" xlink:title="Třídění přímou výměnou včetně optimalizace s pomocným příznakem ukončení třídění (Bubble Sort Optimiz...">
<polygon fill="white" stroke="#666666" points="190.5,-130 76.5,-130 76.5,-111 190.5,-111 190.5,-130"/>
<text text-anchor="middle" x="133.5" y="-118" font-family="Helvetica,sans-Serif" font-size="10.00">bubble_sort_optimized</text>
</a>
</g>
</g>
<!-- Node1&#45;&gt;Node4 -->
<g id="edge3_Node000001_Node000004" class="edge"><title>Node1&#45;&gt;Node4</title>
<g id="a_edge3_Node000001_Node000004"><a xlink:title=" ">
<path fill="none" stroke="#63b8ff" d="M219.09,-95.6602C202.225,-100.613 183.012,-106.255 167.163,-110.908"/>
<polygon fill="#63b8ff" stroke="#63b8ff" points="220.096,-99.0125 228.705,-92.8367 218.124,-92.2961 220.096,-99.0125"/>
</a>
</g>
</g>
<!-- Node5 -->
<g id="Node000005" class="node"><title>Node5</title>
<g id="a_Node000005"><a xlink:href="group___basic_sorts.html#gaba41a68f00241f38f7864b4e1dacd086" target="_top" xlink:title="Třídění přímou výměnou včetně optimalizace s výpočtem indexu poslední změny (Bubble Sort Optimized2)">
<polygon fill="white" stroke="#666666" points="193,-93 74,-93 74,-74 193,-74 193,-93"/>
<text text-anchor="middle" x="133.5" y="-81" font-family="Helvetica,sans-Serif" font-size="10.00">bubble_sort_optimized2</text>
</a>
</g>
</g>
<!-- Node1&#45;&gt;Node5 -->
<g id="edge5_Node000001_Node000005" class="edge"><title>Node1&#45;&gt;Node5</title>
<g id="a_edge5_Node000001_Node000005"><a xlink:title=" ">
<path fill="none" stroke="#63b8ff" d="M218.44,-83.5C210.364,-83.5 201.771,-83.5 193.281,-83.5"/>
<polygon fill="#63b8ff" stroke="#63b8ff" points="218.705,-87.0001 228.705,-83.5 218.705,-80.0001 218.705,-87.0001"/>
</a>
</g>
</g>
<!-- Node6 -->
<g id="Node000006" class="node"><title>Node6</title>
<g id="a_Node000006"><a xlink:href="group___basic_sorts.html#ga3688a58781905ac2e518285b8bb711ec" target="_top" xlink:title="Třídění přímým výběrem (Select Sort)">
<polygon fill="white" stroke="#666666" points="166,-56 101,-56 101,-37 166,-37 166,-56"/>
<text text-anchor="middle" x="133.5" y="-44" font-family="Helvetica,sans-Serif" font-size="10.00">select_sort</text>
</a>
</g>
</g>
<!-- Node1&#45;&gt;Node6 -->
<g id="edge7_Node000001_Node000006" class="edge"><title>Node1&#45;&gt;Node6</title>
<g id="a_edge7_Node000001_Node000006"><a xlink:title=" ">
<path fill="none" stroke="#63b8ff" d="M218.936,-71.2946C201.795,-66.2612 182.25,-60.5219 166.285,-55.8337"/>
<polygon fill="#63b8ff" stroke="#63b8ff" points="218.124,-74.7039 228.705,-74.1633 220.096,-67.9875 218.124,-74.7039"/>
</a>
</g>
</g>
<!-- Node7 -->
<g id="Node000007" class="node"><title>Node7</title>
<g id="a_Node000007"><a xlink:href="group___basic_sorts.html#gaacee5d609500566a6ad1724486ab8bb2" target="_top" xlink:title="Třídění přímou výměnou se změnou postupu třídění (Shaker Sort)">
<polygon fill="white" stroke="#666666" points="167.5,-19 99.5,-19 99.5,-0 167.5,-0 167.5,-19"/>
<text text-anchor="middle" x="133.5" y="-7" font-family="Helvetica,sans-Serif" font-size="10.00">shaker_sort</text>
</a>
</g>
</g>
<!-- Node1&#45;&gt;Node7 -->
<g id="edge9_Node000001_Node000007" class="edge"><title>Node1&#45;&gt;Node7</title>
<g id="a_edge9_Node000001_Node000007"><a xlink:title=" ">
<path fill="none" stroke="#63b8ff" d="M243.598,-66.7144C230.671,-54.6662 211.907,-38.8014 193,-28.5 185.123,-24.2085 176.117,-20.6876 167.571,-17.8937"/>
<polygon fill="#63b8ff" stroke="#63b8ff" points="241.194,-69.2588 250.841,-73.6391 246.032,-64.199 241.194,-69.2588"/>
</a>
</g>
</g>
<!-- Node3 -->
<g id="Node000003" class="node"><title>Node3</title>
<g id="a_Node000003"><a xlink:href="group___main_program.html#ga0ddf1224851353fc92bfbff6f499fa97" target="_top" xlink:title=" ">
<polygon fill="white" stroke="#666666" points="38,-93 0,-93 0,-74 38,-74 38,-93"/>
<text text-anchor="middle" x="19" y="-81" font-family="Helvetica,sans-Serif" font-size="10.00">main</text>
</a>
</g>
</g>
<!-- Node2&#45;&gt;Node3 -->
<g id="edge2_Node000002_Node000003" class="edge"><title>Node2&#45;&gt;Node3</title>
<g id="a_edge2_Node000002_Node000003"><a xlink:title=" ">
<path fill="none" stroke="#63b8ff" d="M90.3748,-147.381C84.6673,-145.205 79.0458,-142.601 74,-139.5 53.9781,-127.196 36.2268,-105.747 26.9091,-93.2688"/>
<polygon fill="#63b8ff" stroke="#63b8ff" points="89.3801,-150.74 99.9746,-150.652 91.6379,-144.114 89.3801,-150.74"/>
</a>
</g>
</g>
<!-- Node4&#45;&gt;Node3 -->
<g id="edge4_Node000004_Node000003" class="edge"><title>Node4&#45;&gt;Node3</title>
<g id="a_edge4_Node000004_Node000003"><a xlink:title=" ">
<path fill="none" stroke="#63b8ff" d="M90.6135,-107.833C85.0168,-106.076 79.3614,-104.267 74,-102.5 62.1071,-98.5798 48.8398,-93.9158 38.4322,-90.1899"/>
<polygon fill="#63b8ff" stroke="#63b8ff" points="89.9593,-111.295 100.548,-110.92 92.0366,-104.61 89.9593,-111.295"/>
</a>
</g>
</g>
<!-- Node5&#45;&gt;Node3 -->
<g id="edge6_Node000005_Node000003" class="edge"><title>Node5&#45;&gt;Node3</title>
<g id="a_edge6_Node000005_Node000003"><a xlink:title=" ">
<path fill="none" stroke="#63b8ff" d="M63.65,-83.5C54.2928,-83.5 45.426,-83.5 38.159,-83.5"/>
<polygon fill="#63b8ff" stroke="#63b8ff" points="63.9435,-87.0001 73.9434,-83.5 63.9434,-80.0001 63.9435,-87.0001"/>
</a>
</g>
</g>
<!-- Node6&#45;&gt;Node3 -->
<g id="edge8_Node000006_Node000003" class="edge"><title>Node6&#45;&gt;Node3</title>
<g id="a_edge8_Node000006_Node000003"><a xlink:title=" ">
<path fill="none" stroke="#63b8ff" d="M93.1617,-59.2306C86.7545,-61.3173 80.1907,-63.4629 74,-65.5 62.1724,-69.3919 48.9062,-73.8132 38.4827,-77.3"/>
<polygon fill="#63b8ff" stroke="#63b8ff" points="94.5972,-62.4443 103.025,-56.0241 92.433,-55.7872 94.5972,-62.4443"/>
</a>
</g>
</g>
<!-- Node7&#45;&gt;Node3 -->
<g id="edge10_Node000007_Node000003" class="edge"><title>Node7&#45;&gt;Node3</title>
<g id="a_edge10_Node000007_Node000003"><a xlink:title=" ">
<path fill="none" stroke="#63b8ff" d="M89.6001,-20.7591C84.1644,-22.9491 78.8235,-25.514 74,-28.5 54.2024,-40.7556 36.3705,-61.7599 26.9782,-73.9583"/>
<polygon fill="#63b8ff" stroke="#63b8ff" points="91.1848,-23.9078 99.3956,-17.212 88.8014,-17.326 91.1848,-23.9078"/>
</a>
</g>
</g>
</g>
</svg>
