<?xml version="1.0" encoding="UTF-8" standalone="no"?>
<!DOCTYPE svg PUBLIC "-//W3C//DTD SVG 1.1//EN"
 "http://www.w3.org/Graphics/SVG/1.1/DTD/svg11.dtd">
<!-- Generated by graphviz version 2.38.0 (20140413.2041)
 -->
<!-- Title: vector_iterator_is_valid Pages: 1 -->
<svg width="387pt" height="446pt"
 viewBox="0.00 0.00 387.00 445.50" xmlns="http://www.w3.org/2000/svg" xmlns:xlink="http://www.w3.org/1999/xlink">
<g id="graph0" class="graph" transform="scale(1 1) rotate(0) translate(4 441.5)">
<title>vector_iterator_is_valid</title>
<!-- Node1 -->
<g id="Node000001" class="node"><title>Node1</title>
<g id="a_Node000001"><a xlink:title="Zjištění platnosti iterátoru.">
<polygon fill="#999999" stroke="#666666" points="379,-222.5 289,-222.5 289,-192.5 379,-192.5 379,-222.5"/>
<text text-anchor="start" x="297" y="-210.5" font-family="Helvetica,sans-Serif" font-size="10.00">vector_iterator_is</text>
<text text-anchor="middle" x="334" y="-199.5" font-family="Helvetica,sans-Serif" font-size="10.00">_valid</text>
</a>
</g>
</g>
<!-- Node2 -->
<g id="Node000002" class="node"><title>Node2</title>
<g id="a_Node000002"><a xlink:href="group__sortable___t_vector_iterator.html#gaa359594c5556fb685473666fad583ddf" target="_top" xlink:title="Porovnání mezi hodnotou elementu vektoru určenou iterátorem a hodnotou typu VectorElement.">
<polygon fill="white" stroke="#666666" points="240,-437.5 133,-437.5 133,-407.5 240,-407.5 240,-437.5"/>
<text text-anchor="start" x="141" y="-425.5" font-family="Helvetica,sans-Serif" font-size="10.00">vector_compare_with</text>
<text text-anchor="middle" x="186.5" y="-414.5" font-family="Helvetica,sans-Serif" font-size="10.00">_iterator_value</text>
</a>
</g>
</g>
<!-- Node1&#45;&gt;Node2 -->
<g id="edge1_Node000001_Node000002" class="edge"><title>Node1&#45;&gt;Node2</title>
<g id="a_edge1_Node000001_Node000002"><a xlink:title=" ">
<path fill="none" stroke="#63b8ff" d="M329.053,-232.799C321.459,-273.236 301.094,-352.542 253,-398.5 249.235,-402.098 244.887,-405.164 240.257,-407.776"/>
<polygon fill="#63b8ff" stroke="#63b8ff" points="332.542,-233.169 330.831,-222.713 325.648,-231.953 332.542,-233.169"/>
</a>
</g>
</g>
<!-- Node3 -->
<g id="Node000003" class="node"><title>Node3</title>
<g id="a_Node000003"><a xlink:href="group__sortable___t_vector_iterator.html#gadd8aded92ce2c6402742a57316412d39" target="_top" xlink:title="Porovnání hodnot elementů vektorů určených dvěma iterátory.">
<polygon fill="white" stroke="#666666" points="240,-389.5 133,-389.5 133,-359.5 240,-359.5 240,-389.5"/>
<text text-anchor="start" x="141" y="-377.5" font-family="Helvetica,sans-Serif" font-size="10.00">vector_compare_with</text>
<text text-anchor="middle" x="186.5" y="-366.5" font-family="Helvetica,sans-Serif" font-size="10.00">_iterators</text>
</a>
</g>
</g>
<!-- Node1&#45;&gt;Node3 -->
<g id="edge2_Node000001_Node000003" class="edge"><title>Node1&#45;&gt;Node3</title>
<g id="a_edge2_Node000001_Node000003"><a xlink:title=" ">
<path fill="none" stroke="#63b8ff" d="M324.183,-232.261C312.272,-262.571 288.376,-313.77 253,-345.5 246.89,-350.98 239.577,-355.563 232.087,-359.345"/>
<polygon fill="#63b8ff" stroke="#63b8ff" points="327.482,-233.433 327.762,-222.842 320.938,-230.946 327.482,-233.433"/>
</a>
</g>
</g>
<!-- Node4 -->
<g id="Node000004" class="node"><title>Node4</title>
<g id="a_Node000004"><a xlink:href="group___iterator_algorithms.html#gad9872ced82843c0e0864a8e2547ca579" target="_top" xlink:title="Zavolání zvolené funkce na každý element vektoru od pozice určené iterátorem až do konce vektoru.">
<polygon fill="white" stroke="#666666" points="84,-322 0,-322 0,-303 84,-303 84,-322"/>
<text text-anchor="middle" x="42" y="-310" font-family="Helvetica,sans-Serif" font-size="10.00">vector_for_each</text>
</a>
</g>
</g>
<!-- Node1&#45;&gt;Node4 -->
<g id="edge3_Node000001_Node000004" class="edge"><title>Node1&#45;&gt;Node4</title>
<g id="a_edge3_Node000001_Node000004"><a xlink:title=" ">
<path fill="none" stroke="#63b8ff" d="M322.526,-231.878C310.097,-257.323 286.722,-295.799 253,-312.5 197.95,-339.765 124.389,-331.138 80.5352,-322.056"/>
<polygon fill="#63b8ff" stroke="#63b8ff" points="325.838,-233.057 326.895,-222.515 319.494,-230.097 325.838,-233.057"/>
</a>
</g>
</g>
<!-- Node5 -->
<g id="Node000005" class="node"><title>Node5</title>
<g id="a_Node000005"><a xlink:href="group___iterator_algorithms.html#gac5ae89ba507530f7c51c45447efbe4ac" target="_top" xlink:title="Zavolání zvolené funkce na prvních N elementů vektoru od pozice určené iterátorem.">
<polygon fill="white" stroke="#666666" points="76,-251 8,-251 8,-232 76,-232 76,-251"/>
<text text-anchor="middle" x="42" y="-239" font-family="Helvetica,sans-Serif" font-size="10.00">vector_for_n</text>
</a>
</g>
</g>
<!-- Node1&#45;&gt;Node5 -->
<g id="edge4_Node000001_Node000005" class="edge"><title>Node1&#45;&gt;Node5</title>
<g id="a_edge4_Node000001_Node000005"><a xlink:title=" ">
<path fill="none" stroke="#63b8ff" d="M278.786,-210.783C235.632,-213.769 173.769,-218.885 120,-226.5 105.571,-228.543 89.7523,-231.499 76.226,-234.247"/>
<polygon fill="#63b8ff" stroke="#63b8ff" points="279.049,-214.273 288.79,-210.105 278.576,-207.289 279.049,-214.273"/>
</a>
</g>
</g>
<!-- Node6 -->
<g id="Node000006" class="node"><title>Node6</title>
<g id="a_Node000006"><a xlink:href="group___t_vector_iterator.html#ga66f6b96e416a7e593b1cf703f58be7ca" target="_top" xlink:title="Zapsání hodnoty elementu do vektoru pomocí iterátoru.">
<polygon fill="white" stroke="#666666" points="234.5,-265.5 138.5,-265.5 138.5,-235.5 234.5,-235.5 234.5,-265.5"/>
<text text-anchor="start" x="146.5" y="-253.5" font-family="Helvetica,sans-Serif" font-size="10.00">vector_iterator_set</text>
<text text-anchor="middle" x="186.5" y="-242.5" font-family="Helvetica,sans-Serif" font-size="10.00">_value</text>
</a>
</g>
</g>
<!-- Node1&#45;&gt;Node6 -->
<g id="edge5_Node000001_Node000006" class="edge"><title>Node1&#45;&gt;Node6</title>
<g id="a_edge5_Node000001_Node000006"><a xlink:title=" ">
<path fill="none" stroke="#63b8ff" d="M279.07,-223.438C264.503,-227.743 248.855,-232.368 234.689,-236.554"/>
<polygon fill="#63b8ff" stroke="#63b8ff" points="280.352,-226.709 288.95,-220.518 278.368,-219.996 280.352,-226.709"/>
</a>
</g>
</g>
<!-- Node7 -->
<g id="Node000007" class="node"><title>Node7</title>
<g id="a_Node000007"><a xlink:href="group___t_vector_iterator.html#ga7ce07cda016d67e3ca891125613ece56" target="_top" xlink:title="Posunutí iterátoru vpřed.">
<polygon fill="white" stroke="#666666" points="244,-303 129,-303 129,-284 244,-284 244,-303"/>
<text text-anchor="middle" x="186.5" y="-291" font-family="Helvetica,sans-Serif" font-size="10.00">vector_iterator_to_next</text>
</a>
</g>
</g>
<!-- Node1&#45;&gt;Node7 -->
<g id="edge6_Node000001_Node000007" class="edge"><title>Node1&#45;&gt;Node7</title>
<g id="a_edge6_Node000001_Node000007"><a xlink:title=" ">
<path fill="none" stroke="#63b8ff" d="M311.443,-229.872C296.305,-244.43 274.918,-262.816 253,-274.5 245.895,-278.287 237.943,-281.403 230.096,-283.937"/>
<polygon fill="#63b8ff" stroke="#63b8ff" points="314.092,-232.175 318.759,-222.663 309.18,-227.189 314.092,-232.175"/>
</a>
</g>
</g>
<!-- Node8 -->
<g id="Node000008" class="node"><title>Node8</title>
<g id="a_Node000008"><a xlink:href="group___t_vector_iterator.html#ga8e1e1cc570f8a1c2bf1fb73c0d3c8826" target="_top" xlink:title="Posunutí iterátoru vzad.">
<polygon fill="white" stroke="#666666" points="243,-179 130,-179 130,-160 243,-160 243,-179"/>
<text text-anchor="middle" x="186.5" y="-167" font-family="Helvetica,sans-Serif" font-size="10.00">vector_iterator_to_prev</text>
</a>
</g>
</g>
<!-- Node1&#45;&gt;Node8 -->
<g id="edge9_Node000001_Node000008" class="edge"><title>Node1&#45;&gt;Node8</title>
<g id="a_edge9_Node000001_Node000008"><a xlink:title=" ">
<path fill="none" stroke="#63b8ff" d="M279.242,-193.46C260.868,-188.661 240.756,-183.409 224.057,-179.048"/>
<polygon fill="#63b8ff" stroke="#63b8ff" points="278.39,-196.855 288.95,-195.996 280.159,-190.082 278.39,-196.855"/>
</a>
</g>
</g>
<!-- Node9 -->
<g id="Node000009" class="node"><title>Node9</title>
<g id="a_Node000009"><a xlink:href="group___t_vector_iterator.html#ga4d8032eb9dbbdccf794611f2b0c9821c" target="_top" xlink:title="Přečtení hodnoty elementu z vektoru pomocí iterátoru.">
<polygon fill="white" stroke="#666666" points="238.5,-142 134.5,-142 134.5,-123 238.5,-123 238.5,-142"/>
<text text-anchor="middle" x="186.5" y="-130" font-family="Helvetica,sans-Serif" font-size="10.00">vector_iterator_value</text>
</a>
</g>
</g>
<!-- Node1&#45;&gt;Node9 -->
<g id="edge10_Node000001_Node000009" class="edge"><title>Node1&#45;&gt;Node9</title>
<g id="a_edge10_Node000001_Node000009"><a xlink:title=" ">
<path fill="none" stroke="#63b8ff" d="M306.75,-185.813C291.758,-174.302 272.174,-160.68 253,-151.5 245.204,-147.767 236.528,-144.619 228.108,-142.024"/>
<polygon fill="#63b8ff" stroke="#63b8ff" points="304.981,-188.874 315.008,-192.296 309.304,-183.368 304.981,-188.874"/>
</a>
</g>
</g>
<!-- Node11 -->
<g id="Node000011" class="node"><title>Node11</title>
<g id="a_Node000011"><a xlink:href="group__sortable___t_vector_iterator.html#gaa3e549d3e67e2168311acc8f4a494cc5" target="_top" xlink:title="Přesun hodnoty elementu vektoru určené dvěma iterátory.">
<polygon fill="white" stroke="#666666" points="253,-105 120,-105 120,-86 253,-86 253,-105"/>
<text text-anchor="middle" x="186.5" y="-93" font-family="Helvetica,sans-Serif" font-size="10.00">vector_move_with_iterators</text>
</a>
</g>
</g>
<!-- Node1&#45;&gt;Node11 -->
<g id="edge12_Node000001_Node000011" class="edge"><title>Node1&#45;&gt;Node11</title>
<g id="a_edge12_Node000001_Node000011"><a xlink:title=" ">
<path fill="none" stroke="#63b8ff" d="M318.401,-183.78C304.2,-162.63 280.746,-132.337 253,-114.5 247.024,-110.658 240.252,-107.574 233.384,-105.102"/>
<polygon fill="#63b8ff" stroke="#63b8ff" points="315.511,-185.757 323.906,-192.221 321.375,-181.933 315.511,-185.757"/>
</a>
</g>
</g>
<!-- Node12 -->
<g id="Node000012" class="node"><title>Node12</title>
<g id="a_Node000012"><a xlink:href="group__sortable___t_vector_iterator.html#ga015969daf209d461aaf0ba4391df4b5b" target="_top" xlink:title="Výměna mezi hodnotou elementu vektoru určenou iterátorem a proměnnou typu VectorElement.">
<polygon fill="white" stroke="#666666" points="250.5,-67.5 122.5,-67.5 122.5,-37.5 250.5,-37.5 250.5,-67.5"/>
<text text-anchor="start" x="130.5" y="-55.5" font-family="Helvetica,sans-Serif" font-size="10.00">vector_swap_with_iterator</text>
<text text-anchor="middle" x="186.5" y="-44.5" font-family="Helvetica,sans-Serif" font-size="10.00">_value</text>
</a>
</g>
</g>
<!-- Node1&#45;&gt;Node12 -->
<g id="edge13_Node000001_Node000012" class="edge"><title>Node1&#45;&gt;Node12</title>
<g id="a_edge13_Node000001_Node000012"><a xlink:title=" ">
<path fill="none" stroke="#63b8ff" d="M323.718,-183.055C311.576,-154.116 287.684,-106.235 253,-77.5 248.407,-73.695 243.173,-70.4307 237.711,-67.6395"/>
<polygon fill="#63b8ff" stroke="#63b8ff" points="320.521,-184.486 327.521,-192.439 327.008,-181.856 320.521,-184.486"/>
</a>
</g>
</g>
<!-- Node13 -->
<g id="Node000013" class="node"><title>Node13</title>
<g id="a_Node000013"><a xlink:href="group__sortable___t_vector_iterator.html#gac16589d02c81c789a7fa6cd323a49013" target="_top" xlink:title="Výměna hodnot elementů vektorů určených dvěma iterátory.">
<polygon fill="white" stroke="#666666" points="253,-19 120,-19 120,-0 253,-0 253,-19"/>
<text text-anchor="middle" x="186.5" y="-7" font-family="Helvetica,sans-Serif" font-size="10.00">vector_swap_with_iterators</text>
</a>
</g>
</g>
<!-- Node1&#45;&gt;Node13 -->
<g id="edge14_Node000001_Node000013" class="edge"><title>Node1&#45;&gt;Node13</title>
<g id="a_edge14_Node000001_Node000013"><a xlink:title=" ">
<path fill="none" stroke="#63b8ff" d="M328.749,-182.575C320.836,-143.886 300.164,-69.568 253,-28.5 248.535,-24.6123 243.316,-21.5185 237.807,-19.0567"/>
<polygon fill="#63b8ff" stroke="#63b8ff" points="325.329,-183.325 330.654,-192.485 332.203,-182.004 325.329,-183.325"/>
</a>
</g>
</g>
<!-- Node7&#45;&gt;Node4 -->
<g id="edge7_Node000007_Node000004" class="edge"><title>Node7&#45;&gt;Node4</title>
<g id="a_edge7_Node000007_Node000004"><a xlink:title=" ">
<path fill="none" stroke="#63b8ff" d="M118.538,-302.428C106.811,-303.992 94.9297,-305.576 84.1691,-307.011"/>
<polygon fill="#63b8ff" stroke="#63b8ff" points="119.321,-305.855 128.771,-301.064 118.396,-298.916 119.321,-305.855"/>
</a>
</g>
</g>
<!-- Node7&#45;&gt;Node5 -->
<g id="edge8_Node000007_Node000005" class="edge"><title>Node7&#45;&gt;Node5</title>
<g id="a_edge8_Node000007_Node000005"><a xlink:title=" ">
<path fill="none" stroke="#63b8ff" d="M139.853,-281.04C133.152,-278.985 126.367,-276.778 120,-274.5 100.418,-267.493 78.6865,-258.018 63.3173,-251.017"/>
<polygon fill="#63b8ff" stroke="#63b8ff" points="138.969,-284.428 149.552,-283.931 140.969,-277.72 138.969,-284.428"/>
</a>
</g>
</g>
<!-- Node10 -->
<g id="Node000010" class="node"><title>Node10</title>
<g id="a_Node000010"><a xlink:href="group___basic_sorts.html#ga25c7ac8991c266d71b75cf20c14b67cf" target="_top" xlink:title="Vytisknutí elementu vektoru pomocí iterátoru.">
<polygon fill="white" stroke="#666666" points="79.5,-142 4.5,-142 4.5,-123 79.5,-123 79.5,-142"/>
<text text-anchor="middle" x="42" y="-130" font-family="Helvetica,sans-Serif" font-size="10.00">print_element</text>
</a>
</g>
</g>
<!-- Node9&#45;&gt;Node10 -->
<g id="edge11_Node000009_Node000010" class="edge"><title>Node9&#45;&gt;Node10</title>
<g id="a_edge11_Node000009_Node000010"><a xlink:title=" ">
<path fill="none" stroke="#63b8ff" d="M124.14,-132.5C109.049,-132.5 93.3539,-132.5 79.8348,-132.5"/>
<polygon fill="#63b8ff" stroke="#63b8ff" points="124.457,-136 134.457,-132.5 124.457,-129 124.457,-136"/>
</a>
</g>
</g>
</g>
</svg>
