<?xml version="1.0" encoding="UTF-8" standalone="no"?>
<!DOCTYPE svg PUBLIC "-//W3C//DTD SVG 1.1//EN"
 "http://www.w3.org/Graphics/SVG/1.1/DTD/svg11.dtd">
<!-- Generated by graphviz version 2.38.0 (20140413.2041)
 -->
<!-- Title: main.c Pages: 1 -->
<svg width="479pt" height="247pt"
 viewBox="0.00 0.00 478.50 247.00" xmlns="http://www.w3.org/2000/svg" xmlns:xlink="http://www.w3.org/1999/xlink">
<g id="graph0" class="graph" transform="scale(1 1) rotate(0) translate(4 243)">
<title>main.c</title>
<!-- Node1 -->
<g id="Node000001" class="node"><title>Node1</title>
<g id="a_Node000001"><a xlink:title="Hlavní program testující API přímých metod třídění">
<polygon fill="#999999" stroke="#666666" points="344,-239 298,-239 298,-220 344,-220 344,-239"/>
<text text-anchor="middle" x="321" y="-227" font-family="Helvetica,sans-Serif" font-size="10.00">main.c</text>
</a>
</g>
</g>
<!-- Node2 -->
<g id="Node000002" class="node"><title>Node2</title>
<g id="a_Node000002"><a xlink:title=" ">
<polygon fill="#e0e0e0" stroke="#999999" points="46,-19 0,-19 0,-0 46,-0 46,-19"/>
<text text-anchor="middle" x="23" y="-7" font-family="Helvetica,sans-Serif" font-size="10.00">stdio.h</text>
</a>
</g>
</g>
<!-- Node1&#45;&gt;Node2 -->
<g id="edge1_Node000001_Node000002" class="edge"><title>Node1&#45;&gt;Node2</title>
<g id="a_edge1_Node000001_Node000002"><a xlink:title=" ">
<path fill="none" stroke="#63b8ff" d="M297.885,-223.232C269.976,-216.371 222.045,-202.973 184,-184 107.755,-145.976 68.6876,-148.305 27,-74 19.3995,-60.4528 18.9422,-42.6279 20.0737,-29.3129"/>
<polygon fill="#63b8ff" stroke="#63b8ff" points="23.5487,-29.73 21.276,-19.3818 16.5994,-28.8887 23.5487,-29.73"/>
</a>
</g>
</g>
<!-- Node3 -->
<g id="Node000003" class="node"><title>Node3</title>
<g id="a_Node000003"><a xlink:title=" ">
<polygon fill="#e0e0e0" stroke="#999999" points="422,-129 378,-129 378,-110 422,-110 422,-129"/>
<text text-anchor="middle" x="400" y="-117" font-family="Helvetica,sans-Serif" font-size="10.00">time.h</text>
</a>
</g>
</g>
<!-- Node1&#45;&gt;Node3 -->
<g id="edge2_Node000001_Node000003" class="edge"><title>Node1&#45;&gt;Node3</title>
<g id="a_edge2_Node000001_Node000003"><a xlink:title=" ">
<path fill="none" stroke="#63b8ff" d="M327.465,-219.662C340.608,-201.694 370.637,-160.641 387.65,-137.384"/>
<polygon fill="#63b8ff" stroke="#63b8ff" points="390.588,-139.296 393.667,-129.158 384.938,-135.163 390.588,-139.296"/>
</a>
</g>
</g>
<!-- Node4 -->
<g id="Node000004" class="node"><title>Node4</title>
<g id="a_Node000004"><a xlink:href="basic__sorts_8h.html" target="_top" xlink:title="Deklarace API přímých metod třídění">
<polygon fill="white" stroke="#666666" points="268.5,-184 193.5,-184 193.5,-165 268.5,-165 268.5,-184"/>
<text text-anchor="middle" x="231" y="-172" font-family="Helvetica,sans-Serif" font-size="10.00">basic_sorts.h</text>
</a>
</g>
</g>
<!-- Node1&#45;&gt;Node4 -->
<g id="edge3_Node000001_Node000004" class="edge"><title>Node1&#45;&gt;Node4</title>
<g id="a_edge3_Node000001_Node000004"><a xlink:title=" ">
<path fill="none" stroke="#63b8ff" d="M306.54,-219.985C292.583,-211.766 271.206,-199.177 254.75,-189.486"/>
<polygon fill="#63b8ff" stroke="#63b8ff" points="256.116,-186.229 245.723,-184.17 252.564,-192.261 256.116,-186.229"/>
</a>
</g>
</g>
<!-- Node11 -->
<g id="Node000011" class="node"><title>Node11</title>
<g id="a_Node000011"><a xlink:title=" ">
<polygon fill="#e0e0e0" stroke="#999999" points="346.5,-19 295.5,-19 295.5,-0 346.5,-0 346.5,-19"/>
<text text-anchor="middle" x="321" y="-7" font-family="Helvetica,sans-Serif" font-size="10.00">check.h</text>
</a>
</g>
</g>
<!-- Node1&#45;&gt;Node11 -->
<g id="edge17_Node000001_Node000011" class="edge"><title>Node1&#45;&gt;Node11</title>
<g id="a_edge17_Node000001_Node000011"><a xlink:title=" ">
<path fill="none" stroke="#63b8ff" d="M321,-219.954C321,-187.946 321,-74.6786 321,-29.4031"/>
<polygon fill="#63b8ff" stroke="#63b8ff" points="324.5,-29.2236 321,-19.2237 317.5,-29.2237 324.5,-29.2236"/>
</a>
</g>
</g>
<!-- Node12 -->
<g id="Node000012" class="node"><title>Node12</title>
<g id="a_Node000012"><a xlink:href="main__support_8h.html" target="_top" xlink:title="Soubor pro multiplatformní podporu programu v různých OS.">
<polygon fill="white" stroke="#666666" points="470.5,-184 387.5,-184 387.5,-165 470.5,-165 470.5,-184"/>
<text text-anchor="middle" x="429" y="-172" font-family="Helvetica,sans-Serif" font-size="10.00">main_support.h</text>
</a>
</g>
</g>
<!-- Node1&#45;&gt;Node12 -->
<g id="edge15_Node000001_Node000012" class="edge"><title>Node1&#45;&gt;Node12</title>
<g id="a_edge15_Node000001_Node000012"><a xlink:title=" ">
<path fill="none" stroke="#63b8ff" d="M338.352,-219.985C355.569,-211.535 382.198,-198.468 402.146,-188.678"/>
<polygon fill="#63b8ff" stroke="#63b8ff" points="403.897,-191.718 411.332,-184.17 400.813,-185.434 403.897,-191.718"/>
</a>
</g>
</g>
<!-- Node5 -->
<g id="Node000005" class="node"><title>Node5</title>
<g id="a_Node000005"><a xlink:href="_t_vector_8h.html" target="_top" xlink:title="Definice typu Sortable Vector.">
<polygon fill="white" stroke="#666666" points="198.5,-129 139.5,-129 139.5,-110 198.5,-110 198.5,-129"/>
<text text-anchor="middle" x="169" y="-117" font-family="Helvetica,sans-Serif" font-size="10.00">TVector.h</text>
</a>
</g>
</g>
<!-- Node4&#45;&gt;Node5 -->
<g id="edge4_Node000004_Node000005" class="edge"><title>Node4&#45;&gt;Node5</title>
<g id="a_edge4_Node000004_Node000005"><a xlink:title=" ">
<path fill="none" stroke="#63b8ff" d="M221.039,-164.985C211.873,-157.15 198.063,-145.344 186.972,-135.863"/>
<polygon fill="#63b8ff" stroke="#63b8ff" points="189.018,-133.008 179.143,-129.17 184.47,-138.329 189.018,-133.008"/>
</a>
</g>
</g>
<!-- Node5&#45;&gt;Node2 -->
<g id="edge5_Node000005_Node000002" class="edge"><title>Node5&#45;&gt;Node2</title>
<g id="a_edge5_Node000005_Node000002"><a xlink:title=" ">
<path fill="none" stroke="#63b8ff" d="M139.437,-115.787C110.7,-111.594 67.7327,-100.952 42,-74 30.4629,-61.9161 25.9008,-43.1141 24.113,-29.101"/>
<polygon fill="#63b8ff" stroke="#63b8ff" points="27.5952,-28.7465 23.1937,-19.1093 20.6247,-29.3879 27.5952,-28.7465"/>
</a>
</g>
</g>
<!-- Node6 -->
<g id="Node000006" class="node"><title>Node6</title>
<g id="a_Node000006"><a xlink:title=" ">
<polygon fill="#e0e0e0" stroke="#999999" points="141,-19 85,-19 85,-0 141,-0 141,-19"/>
<text text-anchor="middle" x="113" y="-7" font-family="Helvetica,sans-Serif" font-size="10.00">stdbool.h</text>
</a>
</g>
</g>
<!-- Node5&#45;&gt;Node6 -->
<g id="edge6_Node000005_Node000006" class="edge"><title>Node5&#45;&gt;Node6</title>
<g id="a_edge6_Node000005_Node000006"><a xlink:title=" ">
<path fill="none" stroke="#63b8ff" d="M164.417,-109.662C155.224,-91.9328 134.377,-51.7271 122.24,-28.3193"/>
<polygon fill="#63b8ff" stroke="#63b8ff" points="125.2,-26.4248 117.49,-19.1584 118.986,-29.6471 125.2,-26.4248"/>
</a>
</g>
</g>
<!-- Node7 -->
<g id="Node000007" class="node"><title>Node7</title>
<g id="a_Node000007"><a xlink:title=" ">
<polygon fill="#e0e0e0" stroke="#999999" points="102.5,-74 51.5,-74 51.5,-55 102.5,-55 102.5,-74"/>
<text text-anchor="middle" x="77" y="-62" font-family="Helvetica,sans-Serif" font-size="10.00">stddef.h</text>
</a>
</g>
</g>
<!-- Node5&#45;&gt;Node7 -->
<g id="edge7_Node000005_Node000007" class="edge"><title>Node5&#45;&gt;Node7</title>
<g id="a_edge7_Node000005_Node000007"><a xlink:title=" ">
<path fill="none" stroke="#63b8ff" d="M154.219,-109.985C139.819,-101.689 117.691,-88.9413 100.808,-79.2153"/>
<polygon fill="#63b8ff" stroke="#63b8ff" points="102.462,-76.1294 92.0503,-74.1703 98.9682,-82.1949 102.462,-76.1294"/>
</a>
</g>
</g>
<!-- Node8 -->
<g id="Node000008" class="node"><title>Node8</title>
<g id="a_Node000008"><a xlink:href="_t_vector_element_8h.html" target="_top" xlink:title="Definice typu Basic VectorElement a implementace API.">
<polygon fill="white" stroke="#666666" points="254.5,-74 159.5,-74 159.5,-55 254.5,-55 254.5,-74"/>
<text text-anchor="middle" x="207" y="-62" font-family="Helvetica,sans-Serif" font-size="10.00">TVectorElement.h</text>
</a>
</g>
</g>
<!-- Node5&#45;&gt;Node8 -->
<g id="edge8_Node000005_Node000008" class="edge"><title>Node5&#45;&gt;Node8</title>
<g id="a_edge8_Node000005_Node000008"><a xlink:title=" ">
<path fill="none" stroke="#63b8ff" d="M175.275,-109.748C180.587,-102.339 188.355,-91.5042 194.875,-82.4107"/>
<polygon fill="#63b8ff" stroke="#63b8ff" points="197.859,-84.2554 200.842,-74.089 192.17,-80.1766 197.859,-84.2554"/>
</a>
</g>
</g>
<!-- Node5&#45;&gt;Node11 -->
<g id="edge14_Node000005_Node000011" class="edge"><title>Node5&#45;&gt;Node11</title>
<g id="a_edge14_Node000005_Node000011"><a xlink:title=" ">
<path fill="none" stroke="#63b8ff" d="M193.599,-109.902C213.449,-102.273 241.509,-89.8811 263,-74 280.928,-60.7524 297.671,-41.3595 308.515,-27.4947"/>
<polygon fill="#63b8ff" stroke="#63b8ff" points="311.477,-29.3814 314.741,-19.302 305.904,-25.1457 311.477,-29.3814"/>
</a>
</g>
</g>
<!-- Node8&#45;&gt;Node2 -->
<g id="edge9_Node000008_Node000002" class="edge"><title>Node8&#45;&gt;Node2</title>
<g id="a_edge9_Node000008_Node000002"><a xlink:title=" ">
<path fill="none" stroke="#63b8ff" d="M177.437,-54.9846C144.152,-45.3969 90.2202,-29.8623 55.6995,-19.9189"/>
<polygon fill="#63b8ff" stroke="#63b8ff" points="56.6606,-16.5535 46.0825,-17.1488 54.7231,-23.28 56.6606,-16.5535"/>
</a>
</g>
</g>
<!-- Node8&#45;&gt;Node6 -->
<g id="edge11_Node000008_Node000006" class="edge"><title>Node8&#45;&gt;Node6</title>
<g id="a_edge11_Node000008_Node000006"><a xlink:title=" ">
<path fill="none" stroke="#63b8ff" d="M191.897,-54.9846C177.184,-46.689 154.575,-33.9413 137.325,-24.2153"/>
<polygon fill="#63b8ff" stroke="#63b8ff" points="138.807,-21.033 128.378,-19.1703 135.369,-27.1306 138.807,-21.033"/>
</a>
</g>
</g>
<!-- Node9 -->
<g id="Node000009" class="node"><title>Node9</title>
<g id="a_Node000009"><a xlink:title=" ">
<polygon fill="#e0e0e0" stroke="#999999" points="207,-19 159,-19 159,-0 207,-0 207,-19"/>
<text text-anchor="middle" x="183" y="-7" font-family="Helvetica,sans-Serif" font-size="10.00">stdlib.h</text>
</a>
</g>
</g>
<!-- Node8&#45;&gt;Node9 -->
<g id="edge10_Node000008_Node000009" class="edge"><title>Node8&#45;&gt;Node9</title>
<g id="a_edge10_Node000008_Node000009"><a xlink:title=" ">
<path fill="none" stroke="#63b8ff" d="M203.037,-54.7481C199.787,-47.5705 195.081,-37.178 191.046,-28.2682"/>
<polygon fill="#63b8ff" stroke="#63b8ff" points="194.203,-26.7548 186.889,-19.089 187.826,-29.6424 194.203,-26.7548"/>
</a>
</g>
</g>
<!-- Node10 -->
<g id="Node000010" class="node"><title>Node10</title>
<g id="a_Node000010"><a xlink:title=" ">
<polygon fill="#e0e0e0" stroke="#999999" points="277,-19 225,-19 225,-0 277,-0 277,-19"/>
<text text-anchor="middle" x="251" y="-7" font-family="Helvetica,sans-Serif" font-size="10.00">assert.h</text>
</a>
</g>
</g>
<!-- Node8&#45;&gt;Node10 -->
<g id="edge12_Node000008_Node000010" class="edge"><title>Node8&#45;&gt;Node10</title>
<g id="a_edge12_Node000008_Node000010"><a xlink:title=" ">
<path fill="none" stroke="#63b8ff" d="M214.266,-54.7481C220.545,-47.1846 229.788,-36.0512 237.431,-26.8447"/>
<polygon fill="#63b8ff" stroke="#63b8ff" points="240.175,-29.0188 243.869,-19.089 234.789,-24.5475 240.175,-29.0188"/>
</a>
</g>
</g>
<!-- Node8&#45;&gt;Node11 -->
<g id="edge13_Node000008_Node000011" class="edge"><title>Node8&#45;&gt;Node11</title>
<g id="a_edge13_Node000008_Node000011"><a xlink:title=" ">
<path fill="none" stroke="#63b8ff" d="M225.316,-54.9846C243.655,-46.4586 272.11,-33.2297 293.227,-23.412"/>
<polygon fill="#63b8ff" stroke="#63b8ff" points="294.758,-26.5599 302.351,-19.1703 291.807,-20.2124 294.758,-26.5599"/>
</a>
</g>
</g>
<!-- Node12&#45;&gt;Node3 -->
<g id="edge16_Node000012_Node000003" class="edge"><title>Node12&#45;&gt;Node3</title>
<g id="a_edge16_Node000012_Node000003"><a xlink:title=" ">
<path fill="none" stroke="#63b8ff" d="M424.211,-164.748C420.242,-157.493 414.475,-146.954 409.565,-137.981"/>
<polygon fill="#63b8ff" stroke="#63b8ff" points="412.57,-136.182 404.7,-129.089 406.429,-139.542 412.57,-136.182"/>
</a>
</g>
</g>
</g>
</svg>
