<?xml version="1.0" encoding="UTF-8" standalone="no"?>
<!DOCTYPE svg PUBLIC "-//W3C//DTD SVG 1.1//EN"
 "http://www.w3.org/Graphics/SVG/1.1/DTD/svg11.dtd">
<!-- Generated by graphviz version 2.38.0 (20140413.2041)
 -->
<!-- Title: TVector.h Pages: 1 -->
<svg width="303pt" height="137pt"
 viewBox="0.00 0.00 303.00 137.00" xmlns="http://www.w3.org/2000/svg" xmlns:xlink="http://www.w3.org/1999/xlink">
<g id="graph0" class="graph" transform="scale(1 1) rotate(0) translate(4 133)">
<title>TVector.h</title>
<!-- Node1 -->
<g id="Node000001" class="node"><title>Node1</title>
<g id="a_Node000001"><a xlink:title="Definice typu Sortable Vector.">
<polygon fill="#999999" stroke="#666666" points="153,-129 94,-129 94,-110 153,-110 153,-129"/>
<text text-anchor="middle" x="123.5" y="-117" font-family="Helvetica,sans-Serif" font-size="10.00">TVector.h</text>
</a>
</g>
</g>
<!-- Node2 -->
<g id="Node000002" class="node"><title>Node2</title>
<g id="a_Node000002"><a xlink:href="_t_vector_8c.html" target="_top" xlink:title="Implementace Sortable Vector API.">
<polygon fill="white" stroke="#666666" points="59,-74 0,-74 0,-55 59,-55 59,-74"/>
<text text-anchor="middle" x="29.5" y="-62" font-family="Helvetica,sans-Serif" font-size="10.00">TVector.c</text>
</a>
</g>
</g>
<!-- Node1&#45;&gt;Node2 -->
<g id="edge1_Node000001_Node000002" class="edge"><title>Node1&#45;&gt;Node2</title>
<g id="a_edge1_Node000001_Node000002"><a xlink:title=" ">
<path fill="none" stroke="#63b8ff" d="M99.4952,-104.965C82.3123,-95.2772 59.688,-82.5209 44.8775,-74.1703"/>
<polygon fill="#63b8ff" stroke="#63b8ff" points="97.9674,-108.122 108.397,-109.985 101.405,-102.024 97.9674,-108.122"/>
</a>
</g>
</g>
<!-- Node3 -->
<g id="Node000003" class="node"><title>Node3</title>
<g id="a_Node000003"><a xlink:href="advanced__sorts_8h.html" target="_top" xlink:title="Deklarace API účinnějších metod třídění">
<polygon fill="white" stroke="#666666" points="169.5,-74 77.5,-74 77.5,-55 169.5,-55 169.5,-74"/>
<text text-anchor="middle" x="123.5" y="-62" font-family="Helvetica,sans-Serif" font-size="10.00">advanced_sorts.h</text>
</a>
</g>
</g>
<!-- Node1&#45;&gt;Node3 -->
<g id="edge2_Node000001_Node000003" class="edge"><title>Node1&#45;&gt;Node3</title>
<g id="a_edge2_Node000001_Node000003"><a xlink:title=" ">
<path fill="none" stroke="#63b8ff" d="M123.5,-99.66C123.5,-90.9304 123.5,-80.9876 123.5,-74.089"/>
<polygon fill="#63b8ff" stroke="#63b8ff" points="120,-99.7481 123.5,-109.748 127,-99.7482 120,-99.7481"/>
</a>
</g>
</g>
<!-- Node6 -->
<g id="Node000006" class="node"><title>Node6</title>
<g id="a_Node000006"><a xlink:href="basic__sorts_8h.html" target="_top" xlink:title="Deklarace API přímých metod třídění">
<polygon fill="white" stroke="#666666" points="263,-74 188,-74 188,-55 263,-55 263,-74"/>
<text text-anchor="middle" x="225.5" y="-62" font-family="Helvetica,sans-Serif" font-size="10.00">basic_sorts.h</text>
</a>
</g>
</g>
<!-- Node1&#45;&gt;Node6 -->
<g id="edge5_Node000001_Node000006" class="edge"><title>Node1&#45;&gt;Node6</title>
<g id="a_edge5_Node000001_Node000006"><a xlink:title=" ">
<path fill="none" stroke="#63b8ff" d="M148.774,-105.367C167.509,-95.6323 192.52,-82.6369 208.814,-74.1703"/>
<polygon fill="#63b8ff" stroke="#63b8ff" points="147.148,-102.268 139.888,-109.985 150.375,-108.48 147.148,-102.268"/>
</a>
</g>
</g>
<!-- Node4 -->
<g id="Node000004" class="node"><title>Node4</title>
<g id="a_Node000004"><a xlink:href="advanced__sorts_8c.html" target="_top" xlink:title="Implementace API účinnějších metod třídění">
<polygon fill="white" stroke="#666666" points="137.5,-19 45.5,-19 45.5,-0 137.5,-0 137.5,-19"/>
<text text-anchor="middle" x="91.5" y="-7" font-family="Helvetica,sans-Serif" font-size="10.00">advanced_sorts.c</text>
</a>
</g>
</g>
<!-- Node3&#45;&gt;Node4 -->
<g id="edge3_Node000003_Node000004" class="edge"><title>Node3&#45;&gt;Node4</title>
<g id="a_edge3_Node000003_Node000004"><a xlink:title=" ">
<path fill="none" stroke="#63b8ff" d="M112.996,-46.103C107.527,-37.0446 101.082,-26.3709 96.6858,-19.089"/>
<polygon fill="#63b8ff" stroke="#63b8ff" points="110.051,-47.9965 118.216,-54.7481 116.043,-44.3784 110.051,-47.9965"/>
</a>
</g>
</g>
<!-- Node5 -->
<g id="Node000005" class="node"><title>Node5</title>
<g id="a_Node000005"><a xlink:href="main_8c.html" target="_top" xlink:title="Hlavní program testující API účinnějších metod třídění">
<polygon fill="white" stroke="#666666" points="201.5,-19 155.5,-19 155.5,-0 201.5,-0 201.5,-19"/>
<text text-anchor="middle" x="178.5" y="-7" font-family="Helvetica,sans-Serif" font-size="10.00">main.c</text>
</a>
</g>
</g>
<!-- Node3&#45;&gt;Node5 -->
<g id="edge4_Node000003_Node000005" class="edge"><title>Node3&#45;&gt;Node5</title>
<g id="a_edge4_Node000003_Node000005"><a xlink:title=" ">
<path fill="none" stroke="#63b8ff" d="M139.794,-47.7987C149.541,-38.4064 161.553,-26.8308 169.587,-19.089"/>
<polygon fill="#63b8ff" stroke="#63b8ff" points="137.354,-45.2889 132.582,-54.7481 142.212,-50.3294 137.354,-45.2889"/>
</a>
</g>
</g>
<!-- Node6&#45;&gt;Node5 -->
<g id="edge7_Node000006_Node000005" class="edge"><title>Node6&#45;&gt;Node5</title>
<g id="a_edge7_Node000006_Node000005"><a xlink:title=" ">
<path fill="none" stroke="#63b8ff" d="M211.079,-47.2382C202.842,-37.9494 192.846,-26.6775 186.117,-19.089"/>
<polygon fill="#63b8ff" stroke="#63b8ff" points="208.485,-49.5884 217.739,-54.7481 213.723,-44.944 208.485,-49.5884"/>
</a>
</g>
</g>
<!-- Node7 -->
<g id="Node000007" class="node"><title>Node7</title>
<g id="a_Node000007"><a xlink:href="basic__sorts_8c.html" target="_top" xlink:title="Implementace API přímých metod třídění">
<polygon fill="white" stroke="#666666" points="295,-19 220,-19 220,-0 295,-0 295,-19"/>
<text text-anchor="middle" x="257.5" y="-7" font-family="Helvetica,sans-Serif" font-size="10.00">basic_sorts.c</text>
</a>
</g>
</g>
<!-- Node6&#45;&gt;Node7 -->
<g id="edge6_Node000006_Node000007" class="edge"><title>Node6&#45;&gt;Node7</title>
<g id="a_edge6_Node000006_Node000007"><a xlink:title=" ">
<path fill="none" stroke="#63b8ff" d="M236.004,-46.103C241.473,-37.0446 247.918,-26.3709 252.314,-19.089"/>
<polygon fill="#63b8ff" stroke="#63b8ff" points="232.957,-44.3784 230.784,-54.7481 238.949,-47.9965 232.957,-44.3784"/>
</a>
</g>
</g>
</g>
</svg>
