<?xml version="1.0" encoding="UTF-8" standalone="no"?>
<!DOCTYPE svg PUBLIC "-//W3C//DTD SVG 1.1//EN"
 "http://www.w3.org/Graphics/SVG/1.1/DTD/svg11.dtd">
<!-- Generated by graphviz version 2.38.0 (20140413.2041)
 -->
<!-- Title: quick_sort_worker Pages: 1 -->
<svg width="275pt" height="45pt"
 viewBox="0.00 0.00 275.00 45.00" xmlns="http://www.w3.org/2000/svg" xmlns:xlink="http://www.w3.org/1999/xlink">
<g id="graph0" class="graph" transform="scale(1 1) rotate(0) translate(4 41)">
<title>quick_sort_worker</title>
<!-- Node1 -->
<g id="Node000001" class="node"><title>Node1</title>
<g id="a_Node000001"><a xlink:title="Vnitřní a lokální funkce realizující rekurzivní funkci pro metodu (Quick Sort)">
<polygon fill="#999999" stroke="#666666" points="267,-19 172,-19 172,-0 267,-0 267,-19"/>
<text text-anchor="middle" x="219.5" y="-7" font-family="Helvetica,sans-Serif" font-size="10.00">quick_sort_worker</text>
</a>
</g>
</g>
<!-- Node1&#45;&gt;Node1 -->
<g id="edge3_Node000001_Node000001" class="edge"><title>Node1&#45;&gt;Node1</title>
<g id="a_edge3_Node000001_Node000001"><a xlink:title=" ">
<path fill="none" stroke="#63b8ff" d="M240.61,-28.5536C239.2,-33.3804 232.164,-37 219.5,-37 199.238,-37 193.381,-27.7337 201.929,-19.0828"/>
<polygon fill="#63b8ff" stroke="#63b8ff" points="243.85,-27.2248 237.071,-19.0828 237.293,-29.6753 243.85,-27.2248"/>
</a>
</g>
</g>
<!-- Node2 -->
<g id="Node000002" class="node"><title>Node2</title>
<g id="a_Node000002"><a xlink:href="group___advanced_sorts.html#gaa369b74c9050d30aa2416f9dba8cc8f5" target="_top" xlink:title="Rychlé třídění výměnou (Quick Sort) s volbou prostředního prvku jako pivota.">
<polygon fill="white" stroke="#666666" points="136,-19 74,-19 74,-0 136,-0 136,-19"/>
<text text-anchor="middle" x="105" y="-7" font-family="Helvetica,sans-Serif" font-size="10.00">quick_sort</text>
</a>
</g>
</g>
<!-- Node1&#45;&gt;Node2 -->
<g id="edge1_Node000001_Node000002" class="edge"><title>Node1&#45;&gt;Node2</title>
<g id="a_edge1_Node000001_Node000002"><a xlink:title=" ">
<path fill="none" stroke="#63b8ff" d="M161.488,-9.5C152.698,-9.5 143.933,-9.5 136.051,-9.5"/>
<polygon fill="#63b8ff" stroke="#63b8ff" points="161.767,-13.0001 171.767,-9.5 161.767,-6.0001 161.767,-13.0001"/>
</a>
</g>
</g>
<!-- Node3 -->
<g id="Node000003" class="node"><title>Node3</title>
<g id="a_Node000003"><a xlink:href="group___main_program.html#ga0ddf1224851353fc92bfbff6f499fa97" target="_top" xlink:title=" ">
<polygon fill="white" stroke="#666666" points="38,-19 0,-19 0,-0 38,-0 38,-19"/>
<text text-anchor="middle" x="19" y="-7" font-family="Helvetica,sans-Serif" font-size="10.00">main</text>
</a>
</g>
</g>
<!-- Node2&#45;&gt;Node3 -->
<g id="edge2_Node000002_Node000003" class="edge"><title>Node2&#45;&gt;Node3</title>
<g id="a_edge2_Node000002_Node000003"><a xlink:title=" ">
<path fill="none" stroke="#63b8ff" d="M63.4561,-9.5C54.6389,-9.5 45.7361,-9.5 38.3044,-9.5"/>
<polygon fill="#63b8ff" stroke="#63b8ff" points="63.6741,-13.0001 73.6741,-9.5 63.674,-6.0001 63.6741,-13.0001"/>
</a>
</g>
</g>
</g>
</svg>
