<?xml version="1.0" encoding="UTF-8" standalone="no"?>
<!DOCTYPE svg PUBLIC "-//W3C//DTD SVG 1.1//EN"
 "http://www.w3.org/Graphics/SVG/1.1/DTD/svg11.dtd">
<!-- Generated by graphviz version 2.38.0 (20140413.2041)
 -->
<!-- Title: vector_swap_positions Pages: 1 -->
<svg width="463pt" height="267pt"
 viewBox="0.00 0.00 463.00 267.00" xmlns="http://www.w3.org/2000/svg" xmlns:xlink="http://www.w3.org/1999/xlink">
<g id="graph0" class="graph" transform="scale(1 1) rotate(0) translate(4 263)">
<title>vector_swap_positions</title>
<!-- Node1 -->
<g id="Node000001" class="node"><title>Node1</title>
<g id="a_Node000001"><a xlink:title="Výměna hodnot elementů vektorů">
<polygon fill="#999999" stroke="#666666" points="455,-130 341,-130 341,-111 455,-111 455,-130"/>
<text text-anchor="middle" x="398" y="-118" font-family="Helvetica,sans-Serif" font-size="10.00">vector_swap_positions</text>
</a>
</g>
</g>
<!-- Node2 -->
<g id="Node000002" class="node"><title>Node2</title>
<g id="a_Node000002"><a xlink:href="group___basic_sorts.html#gaa1ef093f5205f293df8303ac228452fc" target="_top" xlink:title="Třídění přímou výměnou (Bubble Sort)">
<polygon fill="white" stroke="#666666" points="272,-259 205,-259 205,-240 272,-240 272,-259"/>
<text text-anchor="middle" x="238.5" y="-247" font-family="Helvetica,sans-Serif" font-size="10.00">bubble_sort</text>
</a>
</g>
</g>
<!-- Node1&#45;&gt;Node2 -->
<g id="edge1_Node000001_Node000002" class="edge"><title>Node1&#45;&gt;Node2</title>
<g id="a_edge1_Node000001_Node000002"><a xlink:title=" ">
<path fill="none" stroke="#63b8ff" d="M386.646,-139.005C371.802,-163.819 342.123,-207.524 305,-231.5 295.192,-237.834 283.175,-241.961 272.123,-244.641"/>
<polygon fill="#63b8ff" stroke="#63b8ff" points="389.757,-140.617 391.756,-130.212 383.705,-137.099 389.757,-140.617"/>
</a>
</g>
</g>
<!-- Node3 -->
<g id="Node000003" class="node"><title>Node3</title>
<g id="a_Node000003"><a xlink:href="group___basic_sorts.html#ga62a36eb31bf0a873f7c027e145843b1a" target="_top" xlink:title="Třídění přímou výměnou včetně optimalizace s pomocným příznakem ukončení třídění (Bubble Sort Optimiz...">
<polygon fill="white" stroke="#666666" points="295.5,-222 181.5,-222 181.5,-203 295.5,-203 295.5,-222"/>
<text text-anchor="middle" x="238.5" y="-210" font-family="Helvetica,sans-Serif" font-size="10.00">bubble_sort_optimized</text>
</a>
</g>
</g>
<!-- Node1&#45;&gt;Node3 -->
<g id="edge2_Node000001_Node000003" class="edge"><title>Node1&#45;&gt;Node3</title>
<g id="a_edge2_Node000001_Node000003"><a xlink:title=" ">
<path fill="none" stroke="#63b8ff" d="M380.158,-137.663C362.781,-154.442 334.17,-179.58 305,-194.5 298.49,-197.83 291.292,-200.602 284.12,-202.892"/>
<polygon fill="#63b8ff" stroke="#63b8ff" points="383.082,-139.695 387.739,-130.178 378.164,-134.713 383.082,-139.695"/>
</a>
</g>
</g>
<!-- Node4 -->
<g id="Node000004" class="node"><title>Node4</title>
<g id="a_Node000004"><a xlink:href="group___basic_sorts.html#gaba41a68f00241f38f7864b4e1dacd086" target="_top" xlink:title="Třídění přímou výměnou včetně optimalizace s výpočtem indexu poslední změny (Bubble Sort Optimized2)">
<polygon fill="white" stroke="#666666" points="298,-185 179,-185 179,-166 298,-166 298,-185"/>
<text text-anchor="middle" x="238.5" y="-173" font-family="Helvetica,sans-Serif" font-size="10.00">bubble_sort_optimized2</text>
</a>
</g>
</g>
<!-- Node1&#45;&gt;Node4 -->
<g id="edge3_Node000001_Node000004" class="edge"><title>Node1&#45;&gt;Node4</title>
<g id="a_edge3_Node000001_Node000004"><a xlink:title=" ">
<path fill="none" stroke="#63b8ff" d="M366.059,-133.971C348.364,-141.415 325.646,-150.537 305,-157.5 296.06,-160.515 286.311,-163.404 277.132,-165.95"/>
<polygon fill="#63b8ff" stroke="#63b8ff" points="367.493,-137.165 375.328,-130.033 364.756,-130.722 367.493,-137.165"/>
</a>
</g>
</g>
<!-- Node5 -->
<g id="Node000005" class="node"><title>Node5</title>
<g id="a_Node000005"><a xlink:href="advanced__sorts_8c.html#a0ae77c9640aa821e5507079ec5d2eb1d" target="_top" xlink:title="Vnitřní a lokální funkce realizující rekurzivní funkci pro metodu (Quick Sort)">
<polygon fill="white" stroke="#666666" points="286,-130 191,-130 191,-111 286,-111 286,-130"/>
<text text-anchor="middle" x="238.5" y="-118" font-family="Helvetica,sans-Serif" font-size="10.00">quick_sort_worker</text>
</a>
</g>
</g>
<!-- Node1&#45;&gt;Node5 -->
<g id="edge4_Node000001_Node000005" class="edge"><title>Node1&#45;&gt;Node5</title>
<g id="a_edge4_Node000001_Node000005"><a xlink:title=" ">
<path fill="none" stroke="#63b8ff" d="M330.406,-120.5C315.528,-120.5 300.058,-120.5 286.187,-120.5"/>
<polygon fill="#63b8ff" stroke="#63b8ff" points="330.584,-124 340.584,-120.5 330.584,-117 330.584,-124"/>
</a>
</g>
</g>
<!-- Node8 -->
<g id="Node000008" class="node"><title>Node8</title>
<g id="a_Node000008"><a xlink:href="group___basic_sorts.html#ga3688a58781905ac2e518285b8bb711ec" target="_top" xlink:title="Třídění přímým výběrem (Select Sort)">
<polygon fill="white" stroke="#666666" points="271,-93 206,-93 206,-74 271,-74 271,-93"/>
<text text-anchor="middle" x="238.5" y="-81" font-family="Helvetica,sans-Serif" font-size="10.00">select_sort</text>
</a>
</g>
</g>
<!-- Node1&#45;&gt;Node8 -->
<g id="edge8_Node000001_Node000008" class="edge"><title>Node1&#45;&gt;Node8</title>
<g id="a_edge8_Node000001_Node000008"><a xlink:title=" ">
<path fill="none" stroke="#63b8ff" d="M346.5,-108.636C321.787,-102.831 292.796,-96.0203 271.229,-90.9538"/>
<polygon fill="#63b8ff" stroke="#63b8ff" points="345.904,-112.092 356.44,-110.972 347.505,-105.277 345.904,-112.092"/>
</a>
</g>
</g>
<!-- Node9 -->
<g id="Node000009" class="node"><title>Node9</title>
<g id="a_Node000009"><a xlink:href="group___basic_sorts.html#gaacee5d609500566a6ad1724486ab8bb2" target="_top" xlink:title="Třídění přímou výměnou se změnou postupu třídění (Shaker Sort)">
<polygon fill="white" stroke="#666666" points="272.5,-56 204.5,-56 204.5,-37 272.5,-37 272.5,-56"/>
<text text-anchor="middle" x="238.5" y="-44" font-family="Helvetica,sans-Serif" font-size="10.00">shaker_sort</text>
</a>
</g>
</g>
<!-- Node1&#45;&gt;Node9 -->
<g id="edge9_Node000001_Node000009" class="edge"><title>Node1&#45;&gt;Node9</title>
<g id="a_edge9_Node000001_Node000009"><a xlink:title=" ">
<path fill="none" stroke="#63b8ff" d="M374.926,-105.095C356.809,-93.0046 330.136,-76.4421 305,-65.5 294.795,-61.0577 283.253,-57.316 272.732,-54.3593"/>
<polygon fill="#63b8ff" stroke="#63b8ff" points="373.327,-108.239 383.567,-110.957 377.256,-102.446 373.327,-108.239"/>
</a>
</g>
</g>
<!-- Node10 -->
<g id="Node000010" class="node"><title>Node10</title>
<g id="a_Node000010"><a xlink:href="group__sortable___t_vector_iterator.html#gac16589d02c81c789a7fa6cd323a49013" target="_top" xlink:title="Výměna hodnot elementů vektorů určených dvěma iterátory.">
<polygon fill="white" stroke="#666666" points="305,-19 172,-19 172,-0 305,-0 305,-19"/>
<text text-anchor="middle" x="238.5" y="-7" font-family="Helvetica,sans-Serif" font-size="10.00">vector_swap_with_iterators</text>
</a>
</g>
</g>
<!-- Node1&#45;&gt;Node10 -->
<g id="edge10_Node000001_Node000010" class="edge"><title>Node1&#45;&gt;Node10</title>
<g id="a_edge10_Node000001_Node000010"><a xlink:title=" ">
<path fill="none" stroke="#63b8ff" d="M383.948,-102.852C367.692,-82.0982 338.008,-48.0115 305,-28.5 298.477,-24.6439 291.121,-21.5284 283.758,-19.0242"/>
<polygon fill="#63b8ff" stroke="#63b8ff" points="381.208,-105.031 390.063,-110.849 386.769,-100.779 381.208,-105.031"/>
</a>
</g>
</g>
<!-- Node5&#45;&gt;Node5 -->
<g id="edge7_Node000005_Node000005" class="edge"><title>Node5&#45;&gt;Node5</title>
<g id="a_edge7_Node000005_Node000005"><a xlink:title=" ">
<path fill="none" stroke="#63b8ff" d="M263.053,-139.189C261.714,-144.197 253.53,-148 238.5,-148 215.039,-148 208.257,-138.734 218.155,-130.083"/>
<polygon fill="#63b8ff" stroke="#63b8ff" points="266.217,-137.692 258.845,-130.083 259.863,-140.629 266.217,-137.692"/>
</a>
</g>
</g>
<!-- Node6 -->
<g id="Node000006" class="node"><title>Node6</title>
<g id="a_Node000006"><a xlink:href="group___advanced_sorts.html#gaa369b74c9050d30aa2416f9dba8cc8f5" target="_top" xlink:title="Rychlé třídění výměnou (Quick Sort) s volbou prostředního prvku jako pivota.">
<polygon fill="white" stroke="#666666" points="136,-130 74,-130 74,-111 136,-111 136,-130"/>
<text text-anchor="middle" x="105" y="-118" font-family="Helvetica,sans-Serif" font-size="10.00">quick_sort</text>
</a>
</g>
</g>
<!-- Node5&#45;&gt;Node6 -->
<g id="edge5_Node000005_Node000006" class="edge"><title>Node5&#45;&gt;Node6</title>
<g id="a_edge5_Node000005_Node000006"><a xlink:title=" ">
<path fill="none" stroke="#63b8ff" d="M180.37,-120.5C165.148,-120.5 149.298,-120.5 136.161,-120.5"/>
<polygon fill="#63b8ff" stroke="#63b8ff" points="180.768,-124 190.768,-120.5 180.768,-117 180.768,-124"/>
</a>
</g>
</g>
<!-- Node7 -->
<g id="Node000007" class="node"><title>Node7</title>
<g id="a_Node000007"><a xlink:href="group___main_program.html#ga0ddf1224851353fc92bfbff6f499fa97" target="_top" xlink:title=" ">
<polygon fill="white" stroke="#666666" points="38,-130 0,-130 0,-111 38,-111 38,-130"/>
<text text-anchor="middle" x="19" y="-118" font-family="Helvetica,sans-Serif" font-size="10.00">main</text>
</a>
</g>
</g>
<!-- Node6&#45;&gt;Node7 -->
<g id="edge6_Node000006_Node000007" class="edge"><title>Node6&#45;&gt;Node7</title>
<g id="a_edge6_Node000006_Node000007"><a xlink:title=" ">
<path fill="none" stroke="#63b8ff" d="M63.4561,-120.5C54.6389,-120.5 45.7361,-120.5 38.3044,-120.5"/>
<polygon fill="#63b8ff" stroke="#63b8ff" points="63.6741,-124 73.6741,-120.5 63.674,-117 63.6741,-124"/>
</a>
</g>
</g>
</g>
</svg>
