<?xml version="1.0" encoding="UTF-8" standalone="no"?>
<!DOCTYPE svg PUBLIC "-//W3C//DTD SVG 1.1//EN"
 "http://www.w3.org/Graphics/SVG/1.1/DTD/svg11.dtd">
<!-- Generated by graphviz version 2.38.0 (20140413.2041)
 -->
<!-- Title: vector_set_value Pages: 1 -->
<svg width="268pt" height="64pt"
 viewBox="0.00 0.00 268.00 64.00" xmlns="http://www.w3.org/2000/svg" xmlns:xlink="http://www.w3.org/1999/xlink">
<g id="graph0" class="graph" transform="scale(1 1) rotate(0) translate(4 60)">
<title>vector_set_value</title>
<!-- Node1 -->
<g id="Node000001" class="node"><title>Node1</title>
<g id="a_Node000001"><a xlink:title="Zapsání hodnoty elementu do vektoru na požadovanou pozici.">
<polygon fill="#999999" stroke="#666666" points="260,-37 172,-37 172,-18 260,-18 260,-37"/>
<text text-anchor="middle" x="216" y="-25" font-family="Helvetica,sans-Serif" font-size="10.00">vector_set_value</text>
</a>
</g>
</g>
<!-- Node2 -->
<g id="Node000002" class="node"><title>Node2</title>
<g id="a_Node000002"><a xlink:href="group___basic_sorts.html#gac3903c3fd846908cd362e293ed40582e" target="_top" xlink:title="Třídění přímým vkládáním (Insert Sort)">
<polygon fill="white" stroke="#666666" points="136,-56 74,-56 74,-37 136,-37 136,-56"/>
<text text-anchor="middle" x="105" y="-44" font-family="Helvetica,sans-Serif" font-size="10.00">insert_sort</text>
</a>
</g>
</g>
<!-- Node1&#45;&gt;Node2 -->
<g id="edge1_Node000001_Node000002" class="edge"><title>Node1&#45;&gt;Node2</title>
<g id="a_edge1_Node000001_Node000002"><a xlink:title=" ">
<path fill="none" stroke="#63b8ff" d="M161.937,-36.7496C153.03,-38.3022 144.071,-39.8637 136.015,-41.2681"/>
<polygon fill="#63b8ff" stroke="#63b8ff" points="162.67,-40.1746 171.92,-35.0093 161.468,-33.2786 162.67,-40.1746"/>
</a>
</g>
</g>
<!-- Node4 -->
<g id="Node000004" class="node"><title>Node4</title>
<g id="a_Node000004"><a xlink:href="group___advanced_sorts.html#gaee070b00692f425d83eaea28b37bab2b" target="_top" xlink:title="Shellovo třídění vkládáním s ubývajícím krokem (Shell Sort) dle Hibbardovy posloupnosti.">
<polygon fill="white" stroke="#666666" points="134.5,-19 75.5,-19 75.5,-0 134.5,-0 134.5,-19"/>
<text text-anchor="middle" x="105" y="-7" font-family="Helvetica,sans-Serif" font-size="10.00">shell_sort</text>
</a>
</g>
</g>
<!-- Node1&#45;&gt;Node4 -->
<g id="edge3_Node000001_Node000004" class="edge"><title>Node1&#45;&gt;Node4</title>
<g id="a_edge3_Node000001_Node000004"><a xlink:title=" ">
<path fill="none" stroke="#63b8ff" d="M161.837,-18.7208C152.477,-17.1752 143.065,-15.6208 134.705,-14.2403"/>
<polygon fill="#63b8ff" stroke="#63b8ff" points="161.484,-22.2098 171.92,-20.3859 162.624,-15.3033 161.484,-22.2098"/>
</a>
</g>
</g>
<!-- Node3 -->
<g id="Node000003" class="node"><title>Node3</title>
<g id="a_Node000003"><a xlink:href="group___main_program.html#ga0ddf1224851353fc92bfbff6f499fa97" target="_top" xlink:title=" ">
<polygon fill="white" stroke="#666666" points="38,-37 0,-37 0,-18 38,-18 38,-37"/>
<text text-anchor="middle" x="19" y="-25" font-family="Helvetica,sans-Serif" font-size="10.00">main</text>
</a>
</g>
</g>
<!-- Node2&#45;&gt;Node3 -->
<g id="edge2_Node000002_Node000003" class="edge"><title>Node2&#45;&gt;Node3</title>
<g id="a_edge2_Node000002_Node000003"><a xlink:title=" ">
<path fill="none" stroke="#63b8ff" d="M63.7436,-37.3944C54.8327,-35.3788 45.8169,-33.3395 38.3044,-31.6403"/>
<polygon fill="#63b8ff" stroke="#63b8ff" points="63.1483,-40.8481 73.6741,-39.6406 64.6927,-34.0206 63.1483,-40.8481"/>
</a>
</g>
</g>
<!-- Node4&#45;&gt;Node3 -->
<g id="edge4_Node000004_Node000003" class="edge"><title>Node4&#45;&gt;Node3</title>
<g id="a_edge4_Node000004_Node000003"><a xlink:title=" ">
<path fill="none" stroke="#63b8ff" d="M65.1543,-17.8241C55.8403,-19.8199 46.3182,-21.8604 38.4342,-23.5498"/>
<polygon fill="#63b8ff" stroke="#63b8ff" points="66.0473,-21.2123 75.092,-15.6946 64.5806,-14.3676 66.0473,-21.2123"/>
</a>
</g>
</g>
</g>
</svg>
