<?xml version="1.0" encoding="UTF-8" standalone="no"?>
<!DOCTYPE svg PUBLIC "-//W3C//DTD SVG 1.1//EN"
 "http://www.w3.org/Graphics/SVG/1.1/DTD/svg11.dtd">
<!-- Generated by graphviz version 2.38.0 (20140413.2041)
 -->
<!-- Title: sort_testing Pages: 1 -->
<svg width="523pt" height="338pt"
 viewBox="0.00 0.00 523.00 338.00" xmlns="http://www.w3.org/2000/svg" xmlns:xlink="http://www.w3.org/1999/xlink">
<g id="graph0" class="graph" transform="scale(1 1) rotate(0) translate(4 334)">
<title>sort_testing</title>
<!-- Node1 -->
<g id="Node000001" class="node"><title>Node1</title>
<g id="a_Node000001"><a xlink:title="Testování třídicí metody.">
<polygon fill="#999999" stroke="#666666" points="68,-174 0,-174 0,-155 68,-155 68,-174"/>
<text text-anchor="middle" x="34" y="-162" font-family="Helvetica,sans-Serif" font-size="10.00">sort_testing</text>
</a>
</g>
</g>
<!-- Node2 -->
<g id="Node000002" class="node"><title>Node2</title>
<g id="a_Node000002"><a xlink:href="main__support_8h.html#aa291195ad453d2b1e29004cc2e043c01" target="_top" xlink:title="Výpočet doby trvání časového intervalu.">
<polygon fill="white" stroke="#666666" points="194.5,-330 126.5,-330 126.5,-311 194.5,-311 194.5,-330"/>
<text text-anchor="middle" x="160.5" y="-318" font-family="Helvetica,sans-Serif" font-size="10.00">difftimespec</text>
</a>
</g>
</g>
<!-- Node1&#45;&gt;Node2 -->
<g id="edge1_Node000001_Node000002" class="edge"><title>Node1&#45;&gt;Node2</title>
<g id="a_edge1_Node000001_Node000002"><a xlink:title=" ">
<path fill="none" stroke="#63b8ff" d="M37.0809,-174.118C42.9802,-199.086 62.1677,-266.516 104,-302.5 107.884,-305.841 112.4,-308.565 117.146,-310.784"/>
<polygon fill="#63b8ff" stroke="#63b8ff" points="115.865,-314.041 126.451,-314.461 118.437,-307.531 115.865,-314.041"/>
</a>
</g>
</g>
<!-- Node3 -->
<g id="Node000003" class="node"><title>Node3</title>
<g id="a_Node000003"><a xlink:href="group___basic_sorts.html#ga25c7ac8991c266d71b75cf20c14b67cf" target="_top" xlink:title="Vytisknutí elementu vektoru pomocí iterátoru.">
<polygon fill="white" stroke="#666666" points="198,-293 123,-293 123,-274 198,-274 198,-293"/>
<text text-anchor="middle" x="160.5" y="-281" font-family="Helvetica,sans-Serif" font-size="10.00">print_element</text>
</a>
</g>
</g>
<!-- Node1&#45;&gt;Node3 -->
<g id="edge2_Node000001_Node000003" class="edge"><title>Node1&#45;&gt;Node3</title>
<g id="a_edge2_Node000001_Node000003"><a xlink:title=" ">
<path fill="none" stroke="#63b8ff" d="M39.7502,-174.167C49.425,-192.968 73.136,-234.776 104,-259.5 108.776,-263.326 114.255,-266.654 119.869,-269.513"/>
<polygon fill="#63b8ff" stroke="#63b8ff" points="118.798,-272.873 129.345,-273.885 121.731,-266.517 118.798,-272.873"/>
</a>
</g>
</g>
<!-- Node6 -->
<g id="Node000006" class="node"><title>Node6</title>
<g id="a_Node000006"><a xlink:href="group___t_vector_iterator.html#ga3f8a97a63f887539e270f6845bf22b9a" target="_top" xlink:title="Zjištění platnosti iterátoru.">
<polygon fill="white" stroke="#666666" points="515,-185.5 425,-185.5 425,-155.5 515,-155.5 515,-185.5"/>
<text text-anchor="start" x="433" y="-173.5" font-family="Helvetica,sans-Serif" font-size="10.00">vector_iterator_is</text>
<text text-anchor="middle" x="470" y="-162.5" font-family="Helvetica,sans-Serif" font-size="10.00">_valid</text>
</a>
</g>
</g>
<!-- Node1&#45;&gt;Node6 -->
<g id="edge17_Node000001_Node000006" class="edge"><title>Node1&#45;&gt;Node6</title>
<g id="a_edge17_Node000001_Node000006"><a xlink:title=" ">
<path fill="none" stroke="#63b8ff" d="M46.3062,-174.292C59.2827,-184.922 81.6643,-201.454 104,-209.5 223.382,-252.504 267.978,-264.649 389,-226.5 410.419,-219.748 431.092,-204.989 446.056,-192.318"/>
<polygon fill="#63b8ff" stroke="#63b8ff" points="448.549,-194.787 453.751,-185.557 443.928,-189.528 448.549,-194.787"/>
</a>
</g>
</g>
<!-- Node7 -->
<g id="Node000007" class="node"><title>Node7</title>
<g id="a_Node000007"><a xlink:href="group___t_vector.html#ga6b0b8780d60dad02b8569be119769548" target="_top" xlink:title="Vytvoření úplné kopie vektoru.">
<polygon fill="white" stroke="#666666" points="356.5,-217 285.5,-217 285.5,-198 356.5,-198 356.5,-217"/>
<text text-anchor="middle" x="321" y="-205" font-family="Helvetica,sans-Serif" font-size="10.00">vector_clone</text>
</a>
</g>
</g>
<!-- Node1&#45;&gt;Node7 -->
<g id="edge6_Node000001_Node000007" class="edge"><title>Node1&#45;&gt;Node7</title>
<g id="a_edge6_Node000001_Node000007"><a xlink:title=" ">
<path fill="none" stroke="#63b8ff" d="M57.9069,-174.068C71.1459,-179.19 88.2505,-185.123 104,-188.5 162.27,-200.995 231.073,-205.302 275.099,-206.77"/>
<polygon fill="#63b8ff" stroke="#63b8ff" points="275.092,-210.271 285.192,-207.071 275.3,-203.274 275.092,-210.271"/>
</a>
</g>
</g>
<!-- Node8 -->
<g id="Node000008" class="node"><title>Node8</title>
<g id="a_Node000008"><a xlink:href="group___t_vector.html#ga41fcff5418fe213f2caaa586f521bcd6" target="_top" xlink:title="Dealokace vektoru.">
<polygon fill="white" stroke="#666666" points="361,-143 281,-143 281,-124 361,-124 361,-143"/>
<text text-anchor="middle" x="321" y="-131" font-family="Helvetica,sans-Serif" font-size="10.00">vector_destroy</text>
</a>
</g>
</g>
<!-- Node1&#45;&gt;Node8 -->
<g id="edge7_Node000001_Node000008" class="edge"><title>Node1&#45;&gt;Node8</title>
<g id="a_edge7_Node000001_Node000008"><a xlink:title=" ">
<path fill="none" stroke="#63b8ff" d="M56.9102,-154.969C70.249,-149.652 87.789,-143.51 104,-140.5 160.521,-130.007 226.758,-129.566 270.835,-130.904"/>
<polygon fill="#63b8ff" stroke="#63b8ff" points="270.877,-134.408 280.993,-131.256 271.12,-127.412 270.877,-134.408"/>
</a>
</g>
</g>
<!-- Node9 -->
<g id="Node000009" class="node"><title>Node9</title>
<g id="a_Node000009"><a xlink:href="group___iterator_algorithms.html#gac5ae89ba507530f7c51c45447efbe4ac" target="_top" xlink:title="Zavolání zvolené funkce na prvních N elementů vektoru od pozice určené iterátorem.">
<polygon fill="white" stroke="#666666" points="194.5,-93 126.5,-93 126.5,-74 194.5,-74 194.5,-93"/>
<text text-anchor="middle" x="160.5" y="-81" font-family="Helvetica,sans-Serif" font-size="10.00">vector_for_n</text>
</a>
</g>
</g>
<!-- Node1&#45;&gt;Node9 -->
<g id="edge8_Node000001_Node000009" class="edge"><title>Node1&#45;&gt;Node9</title>
<g id="a_edge8_Node000001_Node000009"><a xlink:title=" ">
<path fill="none" stroke="#63b8ff" d="M45.0493,-154.623C57.8939,-142.387 81.2062,-121.453 104,-107.5 110.279,-103.657 117.282,-100.118 124.142,-97.0056"/>
<polygon fill="#63b8ff" stroke="#63b8ff" points="125.535,-100.217 133.326,-93.0369 122.758,-93.7909 125.535,-100.217"/>
</a>
</g>
</g>
<!-- Node11 -->
<g id="Node000011" class="node"><title>Node11</title>
<g id="a_Node000011"><a xlink:href="group__sortable___t_vector.html#ga1b7a4850be6488c69c293bdd13f729a7" target="_top" xlink:title="Ověření korektního setřídění vektoru.">
<polygon fill="white" stroke="#666666" points="217,-179.5 104,-179.5 104,-149.5 217,-149.5 217,-179.5"/>
<text text-anchor="start" x="112" y="-167.5" font-family="Helvetica,sans-Serif" font-size="10.00">vector_is_ascendantly</text>
<text text-anchor="middle" x="160.5" y="-156.5" font-family="Helvetica,sans-Serif" font-size="10.00">_sorted</text>
</a>
</g>
</g>
<!-- Node1&#45;&gt;Node11 -->
<g id="edge12_Node000001_Node000011" class="edge"><title>Node1&#45;&gt;Node11</title>
<g id="a_edge12_Node000001_Node000011"><a xlink:title=" ">
<path fill="none" stroke="#63b8ff" d="M68.0369,-164.5C75.9926,-164.5 84.7717,-164.5 93.6487,-164.5"/>
<polygon fill="#63b8ff" stroke="#63b8ff" points="93.6742,-168 103.674,-164.5 93.6741,-161 93.6742,-168"/>
</a>
</g>
</g>
<!-- Node13 -->
<g id="Node000013" class="node"><title>Node13</title>
<g id="a_Node000013"><a xlink:href="group___t_vector_iterator.html#ga40d7eff2ece0eb356d27cdcdef255560" target="_top" xlink:title="Vytvoření nového iterátoru ukazujícího na počáteční element.">
<polygon fill="white" stroke="#666666" points="213.5,-56 107.5,-56 107.5,-37 213.5,-37 213.5,-56"/>
<text text-anchor="middle" x="160.5" y="-44" font-family="Helvetica,sans-Serif" font-size="10.00">vector_iterator_begin</text>
</a>
</g>
</g>
<!-- Node1&#45;&gt;Node13 -->
<g id="edge16_Node000001_Node000013" class="edge"><title>Node1&#45;&gt;Node13</title>
<g id="a_edge16_Node000001_Node000013"><a xlink:title=" ">
<path fill="none" stroke="#63b8ff" d="M39.1907,-154.808C48.1837,-135.119 71.2111,-90.2185 104,-65.5 106.482,-63.6292 109.16,-61.9344 111.954,-60.4002"/>
<polygon fill="#63b8ff" stroke="#63b8ff" points="113.632,-63.478 121.165,-56.0285 110.63,-57.1541 113.632,-63.478"/>
</a>
</g>
</g>
<!-- Node14 -->
<g id="Node000014" class="node"><title>Node14</title>
<g id="a_Node000014"><a xlink:href="group__sortable___t_vector.html#gac0806530378fe49a3d61622ca8b9957e" target="_top" xlink:title="Zobrazení hodnoty statistik počtu operací s elementy vektoru.">
<polygon fill="white" stroke="#666666" points="215.5,-19 105.5,-19 105.5,-0 215.5,-0 215.5,-19"/>
<text text-anchor="middle" x="160.5" y="-7" font-family="Helvetica,sans-Serif" font-size="10.00">vector_print_sortstats</text>
</a>
</g>
</g>
<!-- Node1&#45;&gt;Node14 -->
<g id="edge18_Node000001_Node000014" class="edge"><title>Node1&#45;&gt;Node14</title>
<g id="a_edge18_Node000001_Node000014"><a xlink:title=" ">
<path fill="none" stroke="#63b8ff" d="M37.1027,-154.95C43.0546,-130.162 62.3579,-63.2149 104,-27.5 105.499,-26.2141 107.092,-25.0196 108.756,-23.9101"/>
<polygon fill="#63b8ff" stroke="#63b8ff" points="110.501,-26.9448 117.556,-19.0411 107.112,-20.8198 110.501,-26.9448"/>
</a>
</g>
</g>
<!-- Node4 -->
<g id="Node000004" class="node"><title>Node4</title>
<g id="a_Node000004"><a xlink:href="group___t_vector_element.html#gaaae5b52d7f1d155134792f040f00a385" target="_top" xlink:title="Uložení elementu do souboru.">
<polygon fill="white" stroke="#666666" points="384,-330 258,-330 258,-311 384,-311 384,-330"/>
<text text-anchor="middle" x="321" y="-318" font-family="Helvetica,sans-Serif" font-size="10.00">vector_element_store_file</text>
</a>
</g>
</g>
<!-- Node3&#45;&gt;Node4 -->
<g id="edge3_Node000003_Node000004" class="edge"><title>Node3&#45;&gt;Node4</title>
<g id="a_edge3_Node000003_Node000004"><a xlink:title=" ">
<path fill="none" stroke="#63b8ff" d="M198.261,-292.082C219.372,-297.01 246.193,-303.271 269.284,-308.661"/>
<polygon fill="#63b8ff" stroke="#63b8ff" points="268.726,-312.125 279.26,-310.99 270.317,-305.308 268.726,-312.125"/>
</a>
</g>
</g>
<!-- Node5 -->
<g id="Node000005" class="node"><title>Node5</title>
<g id="a_Node000005"><a xlink:href="group___t_vector_iterator.html#ga4d8032eb9dbbdccf794611f2b0c9821c" target="_top" xlink:title="Přečtení hodnoty elementu z vektoru pomocí iterátoru.">
<polygon fill="white" stroke="#666666" points="373,-293 269,-293 269,-274 373,-274 373,-293"/>
<text text-anchor="middle" x="321" y="-281" font-family="Helvetica,sans-Serif" font-size="10.00">vector_iterator_value</text>
</a>
</g>
</g>
<!-- Node3&#45;&gt;Node5 -->
<g id="edge4_Node000003_Node000005" class="edge"><title>Node3&#45;&gt;Node5</title>
<g id="a_edge4_Node000003_Node000005"><a xlink:title=" ">
<path fill="none" stroke="#63b8ff" d="M198.261,-283.5C216.177,-283.5 238.205,-283.5 258.576,-283.5"/>
<polygon fill="#63b8ff" stroke="#63b8ff" points="258.731,-287 268.731,-283.5 258.731,-280 258.731,-287"/>
</a>
</g>
</g>
<!-- Node5&#45;&gt;Node6 -->
<g id="edge5_Node000005_Node000006" class="edge"><title>Node5&#45;&gt;Node6</title>
<g id="a_edge5_Node000005_Node000006"><a xlink:title=" ">
<path fill="none" stroke="#63b8ff" d="M359.029,-273.889C369.235,-270.291 379.973,-265.561 389,-259.5 415.294,-241.845 438.641,-213.658 453.226,-193.742"/>
<polygon fill="#63b8ff" stroke="#63b8ff" points="456.145,-195.677 459.107,-185.505 450.448,-191.61 456.145,-195.677"/>
</a>
</g>
</g>
<!-- Node9&#45;&gt;Node6 -->
<g id="edge9_Node000009_Node000006" class="edge"><title>Node9&#45;&gt;Node6</title>
<g id="a_edge9_Node000009_Node000006"><a xlink:title=" ">
<path fill="none" stroke="#63b8ff" d="M194.712,-83.457C240.11,-84.4365 323.392,-89.9765 389,-115.5 409.278,-123.389 429.448,-137.307 444.462,-149.168"/>
<polygon fill="#63b8ff" stroke="#63b8ff" points="442.275,-151.9 452.241,-155.495 446.691,-146.47 442.275,-151.9"/>
</a>
</g>
</g>
<!-- Node10 -->
<g id="Node000010" class="node"><title>Node10</title>
<g id="a_Node000010"><a xlink:href="group___t_vector_iterator.html#ga7ce07cda016d67e3ca891125613ece56" target="_top" xlink:title="Posunutí iterátoru vpřed.">
<polygon fill="white" stroke="#666666" points="378.5,-67 263.5,-67 263.5,-48 378.5,-48 378.5,-67"/>
<text text-anchor="middle" x="321" y="-55" font-family="Helvetica,sans-Serif" font-size="10.00">vector_iterator_to_next</text>
</a>
</g>
</g>
<!-- Node9&#45;&gt;Node10 -->
<g id="edge10_Node000009_Node000010" class="edge"><title>Node9&#45;&gt;Node10</title>
<g id="a_edge10_Node000009_Node000010"><a xlink:title=" ">
<path fill="none" stroke="#63b8ff" d="M194.727,-78.0495C211.733,-75.2598 233.067,-71.7602 253.285,-68.4438"/>
<polygon fill="#63b8ff" stroke="#63b8ff" points="254.108,-71.8556 263.41,-66.7829 252.975,-64.9479 254.108,-71.8556"/>
</a>
</g>
</g>
<!-- Node10&#45;&gt;Node6 -->
<g id="edge11_Node000010_Node000006" class="edge"><title>Node10&#45;&gt;Node6</title>
<g id="a_edge11_Node000010_Node000006"><a xlink:title=" ">
<path fill="none" stroke="#63b8ff" d="M359.029,-67.1112C369.235,-70.7091 379.973,-75.4391 389,-81.5 415.294,-99.1545 438.641,-127.342 453.226,-147.258"/>
<polygon fill="#63b8ff" stroke="#63b8ff" points="450.448,-149.39 459.107,-155.495 456.145,-145.323 450.448,-149.39"/>
</a>
</g>
</g>
<!-- Node11&#45;&gt;Node7 -->
<g id="edge13_Node000011_Node000007" class="edge"><title>Node11&#45;&gt;Node7</title>
<g id="a_edge13_Node000011_Node000007"><a xlink:title=" ">
<path fill="none" stroke="#63b8ff" d="M216.649,-179.609C228.63,-182.88 241.238,-186.313 253,-189.5 260.275,-191.471 267.997,-193.554 275.512,-195.576"/>
<polygon fill="#63b8ff" stroke="#63b8ff" points="274.652,-198.97 285.218,-198.186 276.47,-192.21 274.652,-198.97"/>
</a>
</g>
</g>
<!-- Node11&#45;&gt;Node8 -->
<g id="edge14_Node000011_Node000008" class="edge"><title>Node11&#45;&gt;Node8</title>
<g id="a_edge14_Node000011_Node000008"><a xlink:title=" ">
<path fill="none" stroke="#63b8ff" d="M217.381,-153.571C234.652,-150.193 253.55,-146.497 270.368,-143.207"/>
<polygon fill="#63b8ff" stroke="#63b8ff" points="271.396,-146.572 280.539,-141.218 270.053,-139.703 271.396,-146.572"/>
</a>
</g>
</g>
<!-- Node12 -->
<g id="Node000012" class="node"><title>Node12</title>
<g id="a_Node000012"><a xlink:href="group___t_vector_element.html#ga82e527836fce12c93af896f65e9f701d" target="_top" xlink:title="Porovnání dvou elementů">
<polygon fill="white" stroke="#666666" points="389,-180 253,-180 253,-161 389,-161 389,-180"/>
<text text-anchor="middle" x="321" y="-168" font-family="Helvetica,sans-Serif" font-size="10.00">vector_element_comparator</text>
</a>
</g>
</g>
<!-- Node11&#45;&gt;Node12 -->
<g id="edge15_Node000011_Node000012" class="edge"><title>Node11&#45;&gt;Node12</title>
<g id="a_edge15_Node000011_Node000012"><a xlink:title=" ">
<path fill="none" stroke="#63b8ff" d="M217.381,-166.615C225.645,-166.928 234.281,-167.255 242.883,-167.581"/>
<polygon fill="#63b8ff" stroke="#63b8ff" points="242.817,-171.081 252.942,-167.962 243.082,-164.086 242.817,-171.081"/>
</a>
</g>
</g>
</g>
</svg>
