<?xml version="1.0" encoding="UTF-8" standalone="no"?>
<!DOCTYPE svg PUBLIC "-//W3C//DTD SVG 1.1//EN"
 "http://www.w3.org/Graphics/SVG/1.1/DTD/svg11.dtd">
<!-- Generated by graphviz version 2.38.0 (20140413.2041)
 -->
<!-- Title: vector_element_comparator Pages: 1 -->
<svg width="642pt" height="418pt"
 viewBox="0.00 0.00 642.00 417.87" xmlns="http://www.w3.org/2000/svg" xmlns:xlink="http://www.w3.org/1999/xlink">
<g id="graph0" class="graph" transform="scale(1 1) rotate(0) translate(4 413.869)">
<title>vector_element_comparator</title>
<!-- Node1 -->
<g id="Node000001" class="node"><title>Node1</title>
<g id="a_Node000001"><a xlink:title="Porovnání dvou elementů">
<polygon fill="#999999" stroke="#666666" points="634,-146.869 498,-146.869 498,-127.869 634,-127.869 634,-146.869"/>
<text text-anchor="middle" x="566" y="-134.869" font-family="Helvetica,sans-Serif" font-size="10.00">vector_element_comparator</text>
</a>
</g>
</g>
<!-- Node2 -->
<g id="Node000002" class="node"><title>Node2</title>
<g id="a_Node000002"><a xlink:href="group__sortable___t_vector.html#ga09e150aa4cdd8faabf43474ab1dbe454" target="_top" xlink:title="Porovnání mezi hodnotou elementu vektoru a hodnotou typu VectorElement.">
<polygon fill="white" stroke="#666666" points="459.5,-331.369 335.5,-331.369 335.5,-301.369 459.5,-301.369 459.5,-331.369"/>
<text text-anchor="start" x="343.5" y="-319.369" font-family="Helvetica,sans-Serif" font-size="10.00">vector_compare_position</text>
<text text-anchor="middle" x="397.5" y="-308.369" font-family="Helvetica,sans-Serif" font-size="10.00">_value</text>
</a>
</g>
</g>
<!-- Node1&#45;&gt;Node2 -->
<g id="edge1_Node000001_Node000002" class="edge"><title>Node1&#45;&gt;Node2</title>
<g id="a_edge1_Node000001_Node000002"><a xlink:title=" ">
<path fill="none" stroke="#63b8ff" d="M549.086,-154.478C516.694,-189.302 443.56,-267.926 412.682,-301.122"/>
<polygon fill="#63b8ff" stroke="#63b8ff" points="551.8,-156.699 556.048,-146.993 546.675,-151.931 551.8,-156.699"/>
</a>
</g>
</g>
<!-- Node9 -->
<g id="Node000009" class="node"><title>Node9</title>
<g id="a_Node000009"><a xlink:href="group__sortable___t_vector.html#gaedaf9c79afa345e5e71e5c66ab25fa26" target="_top" xlink:title="Porovnání hodnot elementů vektorů">
<polygon fill="white" stroke="#666666" points="462,-146.869 333,-146.869 333,-127.869 462,-127.869 462,-146.869"/>
<text text-anchor="middle" x="397.5" y="-134.869" font-family="Helvetica,sans-Serif" font-size="10.00">vector_compare_positions</text>
</a>
</g>
</g>
<!-- Node1&#45;&gt;Node9 -->
<g id="edge11_Node000001_Node000009" class="edge"><title>Node1&#45;&gt;Node9</title>
<g id="a_edge11_Node000001_Node000009"><a xlink:title=" ">
<path fill="none" stroke="#63b8ff" d="M487.496,-137.369C479.032,-137.369 470.488,-137.369 462.217,-137.369"/>
<polygon fill="#63b8ff" stroke="#63b8ff" points="487.758,-140.869 497.758,-137.369 487.758,-133.869 487.758,-140.869"/>
</a>
</g>
</g>
<!-- Node16 -->
<g id="Node000016" class="node"><title>Node16</title>
<g id="a_Node000016"><a xlink:href="group__sortable___t_vector.html#ga1b7a4850be6488c69c293bdd13f729a7" target="_top" xlink:title="Ověření korektního setřídění vektoru.">
<polygon fill="white" stroke="#666666" points="454,-69.3691 341,-69.3691 341,-39.3691 454,-39.3691 454,-69.3691"/>
<text text-anchor="start" x="349" y="-57.3691" font-family="Helvetica,sans-Serif" font-size="10.00">vector_is_ascendantly</text>
<text text-anchor="middle" x="397.5" y="-46.3691" font-family="Helvetica,sans-Serif" font-size="10.00">_sorted</text>
</a>
</g>
</g>
<!-- Node1&#45;&gt;Node16 -->
<g id="edge18_Node000001_Node000016" class="edge"><title>Node1&#45;&gt;Node16</title>
<g id="a_edge18_Node000001_Node000016"><a xlink:title=" ">
<path fill="none" stroke="#63b8ff" d="M536.797,-123.31C506.748,-108.331 459.36,-84.7078 428.604,-69.3758"/>
<polygon fill="#63b8ff" stroke="#63b8ff" points="535.389,-126.519 545.9,-127.848 538.512,-120.254 535.389,-126.519"/>
</a>
</g>
</g>
<!-- Node3 -->
<g id="Node000003" class="node"><title>Node3</title>
<g id="a_Node000003"><a xlink:href="group___basic_sorts.html#gac3903c3fd846908cd362e293ed40582e" target="_top" xlink:title="Třídění přímým vkládáním (Insert Sort)">
<polygon fill="white" stroke="#666666" points="139,-409.869 77,-409.869 77,-390.869 139,-390.869 139,-409.869"/>
<text text-anchor="middle" x="108" y="-397.869" font-family="Helvetica,sans-Serif" font-size="10.00">insert_sort</text>
</a>
</g>
</g>
<!-- Node2&#45;&gt;Node3 -->
<g id="edge2_Node000002_Node000003" class="edge"><title>Node2&#45;&gt;Node3</title>
<g id="a_edge2_Node000002_Node000003"><a xlink:title=" ">
<path fill="none" stroke="#63b8ff" d="M375.005,-338.757C356.287,-356.604 327.439,-380.366 297,-391.369 243.991,-410.531 177.059,-407.956 139.037,-404.237"/>
<polygon fill="#63b8ff" stroke="#63b8ff" points="377.691,-341.024 382.382,-331.524 372.791,-336.026 377.691,-341.024"/>
</a>
</g>
</g>
<!-- Node5 -->
<g id="Node000005" class="node"><title>Node5</title>
<g id="a_Node000005"><a xlink:href="advanced__sorts_8c.html#a0ae77c9640aa821e5507079ec5d2eb1d" target="_top" xlink:title="Vnitřní a lokální funkce realizující rekurzivní funkci pro metodu (Quick Sort)">
<polygon fill="white" stroke="#666666" points="285,-363.869 190,-363.869 190,-344.869 285,-344.869 285,-363.869"/>
<text text-anchor="middle" x="237.5" y="-351.869" font-family="Helvetica,sans-Serif" font-size="10.00">quick_sort_worker</text>
</a>
</g>
</g>
<!-- Node2&#45;&gt;Node5 -->
<g id="edge4_Node000002_Node000005" class="edge"><title>Node2&#45;&gt;Node5</title>
<g id="a_edge4_Node000002_Node000005"><a xlink:title=" ">
<path fill="none" stroke="#63b8ff" d="M325.456,-333.456C309.332,-337.333 292.762,-341.319 278.469,-344.756"/>
<polygon fill="#63b8ff" stroke="#63b8ff" points="326.509,-336.802 335.413,-331.061 324.872,-329.996 326.509,-336.802"/>
</a>
</g>
</g>
<!-- Node7 -->
<g id="Node000007" class="node"><title>Node7</title>
<g id="a_Node000007"><a xlink:href="group___advanced_sorts.html#gaee070b00692f425d83eaea28b37bab2b" target="_top" xlink:title="Shellovo třídění vkládáním s ubývajícím krokem (Shell Sort) dle Hibbardovy posloupnosti.">
<polygon fill="white" stroke="#666666" points="137.5,-325.869 78.5,-325.869 78.5,-306.869 137.5,-306.869 137.5,-325.869"/>
<text text-anchor="middle" x="108" y="-313.869" font-family="Helvetica,sans-Serif" font-size="10.00">shell_sort</text>
</a>
</g>
</g>
<!-- Node2&#45;&gt;Node7 -->
<g id="edge8_Node000002_Node000007" class="edge"><title>Node2&#45;&gt;Node7</title>
<g id="a_edge8_Node000002_Node000007"><a xlink:title=" ">
<path fill="none" stroke="#63b8ff" d="M324.938,-316.369C264.546,-316.369 181.197,-316.369 137.834,-316.369"/>
<polygon fill="#63b8ff" stroke="#63b8ff" points="325.177,-319.869 335.177,-316.369 325.177,-312.869 325.177,-319.869"/>
</a>
</g>
</g>
<!-- Node8 -->
<g id="Node000008" class="node"><title>Node8</title>
<g id="a_Node000008"><a xlink:href="group__sortable___t_vector_iterator.html#gaa359594c5556fb685473666fad583ddf" target="_top" xlink:title="Porovnání mezi hodnotou elementu vektoru určenou iterátorem a hodnotou typu VectorElement.">
<polygon fill="white" stroke="#666666" points="291,-288.369 184,-288.369 184,-258.369 291,-258.369 291,-288.369"/>
<text text-anchor="start" x="192" y="-276.369" font-family="Helvetica,sans-Serif" font-size="10.00">vector_compare_with</text>
<text text-anchor="middle" x="237.5" y="-265.369" font-family="Helvetica,sans-Serif" font-size="10.00">_iterator_value</text>
</a>
</g>
</g>
<!-- Node2&#45;&gt;Node8 -->
<g id="edge10_Node000002_Node000008" class="edge"><title>Node2&#45;&gt;Node8</title>
<g id="a_edge10_Node000002_Node000008"><a xlink:title=" ">
<path fill="none" stroke="#63b8ff" d="M331.551,-298.693C318.076,-295.026 304.039,-291.206 291.074,-287.677"/>
<polygon fill="#63b8ff" stroke="#63b8ff" points="330.671,-302.081 341.239,-301.33 332.509,-295.327 330.671,-302.081"/>
</a>
</g>
</g>
<!-- Node4 -->
<g id="Node000004" class="node"><title>Node4</title>
<g id="a_Node000004"><a xlink:href="group___main_program.html#ga0ddf1224851353fc92bfbff6f499fa97" target="_top" xlink:title=" ">
<polygon fill="white" stroke="#666666" points="38,-343.869 0,-343.869 0,-324.869 38,-324.869 38,-343.869"/>
<text text-anchor="middle" x="19" y="-331.869" font-family="Helvetica,sans-Serif" font-size="10.00">main</text>
</a>
</g>
</g>
<!-- Node3&#45;&gt;Node4 -->
<g id="edge3_Node000003_Node000004" class="edge"><title>Node3&#45;&gt;Node4</title>
<g id="a_edge3_Node000003_Node000004"><a xlink:title=" ">
<path fill="none" stroke="#63b8ff" d="M86.0793,-384.498C69.402,-371.847 46.5988,-354.548 32.607,-343.933"/>
<polygon fill="#63b8ff" stroke="#63b8ff" points="84.0806,-387.375 94.1629,-390.631 88.3113,-381.798 84.0806,-387.375"/>
</a>
</g>
</g>
<!-- Node5&#45;&gt;Node5 -->
<g id="edge7_Node000005_Node000005" class="edge"><title>Node5&#45;&gt;Node5</title>
<g id="a_edge7_Node000005_Node000005"><a xlink:title=" ">
<path fill="none" stroke="#63b8ff" d="M261.203,-373.423C259.62,-378.249 251.719,-381.869 237.5,-381.869 214.75,-381.869 208.174,-372.603 217.771,-363.952"/>
<polygon fill="#63b8ff" stroke="#63b8ff" points="264.325,-371.819 257.229,-363.952 257.87,-374.527 264.325,-371.819"/>
</a>
</g>
</g>
<!-- Node6 -->
<g id="Node000006" class="node"><title>Node6</title>
<g id="a_Node000006"><a xlink:href="group___advanced_sorts.html#gaa369b74c9050d30aa2416f9dba8cc8f5" target="_top" xlink:title="Rychlé třídění výměnou (Quick Sort) s volbou prostředního prvku jako pivota.">
<polygon fill="white" stroke="#666666" points="139,-362.869 77,-362.869 77,-343.869 139,-343.869 139,-362.869"/>
<text text-anchor="middle" x="108" y="-350.869" font-family="Helvetica,sans-Serif" font-size="10.00">quick_sort</text>
</a>
</g>
</g>
<!-- Node5&#45;&gt;Node6 -->
<g id="edge5_Node000005_Node000006" class="edge"><title>Node5&#45;&gt;Node6</title>
<g id="a_edge5_Node000005_Node000006"><a xlink:title=" ">
<path fill="none" stroke="#63b8ff" d="M179.679,-353.923C165.687,-353.814 151.246,-353.7 139.092,-353.605"/>
<polygon fill="#63b8ff" stroke="#63b8ff" points="179.721,-357.424 189.748,-354.002 179.775,-350.424 179.721,-357.424"/>
</a>
</g>
</g>
<!-- Node6&#45;&gt;Node4 -->
<g id="edge6_Node000006_Node000004" class="edge"><title>Node6&#45;&gt;Node4</title>
<g id="a_edge6_Node000006_Node000004"><a xlink:title=" ">
<path fill="none" stroke="#63b8ff" d="M66.7083,-344.57C56.6897,-342.382 46.4428,-340.144 38.109,-338.324"/>
<polygon fill="#63b8ff" stroke="#63b8ff" points="66.0551,-348.01 76.5716,-346.724 67.5487,-341.171 66.0551,-348.01"/>
</a>
</g>
</g>
<!-- Node7&#45;&gt;Node4 -->
<g id="edge9_Node000007_Node000004" class="edge"><title>Node7&#45;&gt;Node4</title>
<g id="a_edge9_Node000007_Node000004"><a xlink:title=" ">
<path fill="none" stroke="#63b8ff" d="M68.2049,-324.396C57.7565,-326.557 46.9417,-328.795 38.2099,-330.602"/>
<polygon fill="#63b8ff" stroke="#63b8ff" points="68.9468,-327.816 78.0303,-322.363 67.5285,-320.962 68.9468,-327.816"/>
</a>
</g>
</g>
<!-- Node10 -->
<g id="Node000010" class="node"><title>Node10</title>
<g id="a_Node000010"><a xlink:href="group___basic_sorts.html#gaa1ef093f5205f293df8303ac228452fc" target="_top" xlink:title="Třídění přímou výměnou (Bubble Sort)">
<polygon fill="white" stroke="#666666" points="271,-239.869 204,-239.869 204,-220.869 271,-220.869 271,-239.869"/>
<text text-anchor="middle" x="237.5" y="-227.869" font-family="Helvetica,sans-Serif" font-size="10.00">bubble_sort</text>
</a>
</g>
</g>
<!-- Node9&#45;&gt;Node10 -->
<g id="edge12_Node000009_Node000010" class="edge"><title>Node9&#45;&gt;Node10</title>
<g id="a_edge12_Node000009_Node000010"><a xlink:title=" ">
<path fill="none" stroke="#63b8ff" d="M378.738,-153.825C359.773,-170.622 328.213,-196.427 297,-212.369 288.956,-216.477 279.805,-219.842 271.168,-222.504"/>
<polygon fill="#63b8ff" stroke="#63b8ff" points="381.202,-156.315 386.288,-147.02 376.516,-151.115 381.202,-156.315"/>
</a>
</g>
</g>
<!-- Node11 -->
<g id="Node000011" class="node"><title>Node11</title>
<g id="a_Node000011"><a xlink:href="group___basic_sorts.html#ga62a36eb31bf0a873f7c027e145843b1a" target="_top" xlink:title="Třídění přímou výměnou včetně optimalizace s pomocným příznakem ukončení třídění (Bubble Sort Optimiz...">
<polygon fill="white" stroke="#666666" points="294.5,-202.869 180.5,-202.869 180.5,-183.869 294.5,-183.869 294.5,-202.869"/>
<text text-anchor="middle" x="237.5" y="-190.869" font-family="Helvetica,sans-Serif" font-size="10.00">bubble_sort_optimized</text>
</a>
</g>
</g>
<!-- Node9&#45;&gt;Node11 -->
<g id="edge13_Node000009_Node000011" class="edge"><title>Node9&#45;&gt;Node11</title>
<g id="a_edge13_Node000009_Node000011"><a xlink:title=" ">
<path fill="none" stroke="#63b8ff" d="M363.414,-150.636C344.151,-158.202 319.332,-167.678 297,-175.369 288.56,-178.276 279.361,-181.213 270.809,-183.847"/>
<polygon fill="#63b8ff" stroke="#63b8ff" points="364.924,-153.803 372.939,-146.874 362.352,-147.293 364.924,-153.803"/>
</a>
</g>
</g>
<!-- Node12 -->
<g id="Node000012" class="node"><title>Node12</title>
<g id="a_Node000012"><a xlink:href="group___basic_sorts.html#gaba41a68f00241f38f7864b4e1dacd086" target="_top" xlink:title="Třídění přímou výměnou včetně optimalizace s výpočtem indexu poslední změny (Bubble Sort Optimized2)">
<polygon fill="white" stroke="#666666" points="297,-165.869 178,-165.869 178,-146.869 297,-146.869 297,-165.869"/>
<text text-anchor="middle" x="237.5" y="-153.869" font-family="Helvetica,sans-Serif" font-size="10.00">bubble_sort_optimized2</text>
</a>
</g>
</g>
<!-- Node9&#45;&gt;Node12 -->
<g id="edge14_Node000009_Node000012" class="edge"><title>Node9&#45;&gt;Node12</title>
<g id="a_edge14_Node000009_Node000012"><a xlink:title=" ">
<path fill="none" stroke="#63b8ff" d="M322.705,-146.243C314.145,-147.273 305.504,-148.312 297.185,-149.312"/>
<polygon fill="#63b8ff" stroke="#63b8ff" points="323.18,-149.711 332.691,-145.042 322.344,-142.761 323.18,-149.711"/>
</a>
</g>
</g>
<!-- Node13 -->
<g id="Node000013" class="node"><title>Node13</title>
<g id="a_Node000013"><a xlink:href="group___basic_sorts.html#ga3688a58781905ac2e518285b8bb711ec" target="_top" xlink:title="Třídění přímým výběrem (Select Sort)">
<polygon fill="white" stroke="#666666" points="270,-128.869 205,-128.869 205,-109.869 270,-109.869 270,-128.869"/>
<text text-anchor="middle" x="237.5" y="-116.869" font-family="Helvetica,sans-Serif" font-size="10.00">select_sort</text>
</a>
</g>
</g>
<!-- Node9&#45;&gt;Node13 -->
<g id="edge15_Node000009_Node000013" class="edge"><title>Node9&#45;&gt;Node13</title>
<g id="a_edge15_Node000009_Node000013"><a xlink:title=" ">
<path fill="none" stroke="#63b8ff" d="M322.741,-128.966C304.174,-126.851 285.218,-124.691 270.002,-122.958"/>
<polygon fill="#63b8ff" stroke="#63b8ff" points="322.359,-132.445 332.691,-130.1 323.151,-125.49 322.359,-132.445"/>
</a>
</g>
</g>
<!-- Node14 -->
<g id="Node000014" class="node"><title>Node14</title>
<g id="a_Node000014"><a xlink:href="group___basic_sorts.html#gaacee5d609500566a6ad1724486ab8bb2" target="_top" xlink:title="Třídění přímou výměnou se změnou postupu třídění (Shaker Sort)">
<polygon fill="white" stroke="#666666" points="271.5,-91.8691 203.5,-91.8691 203.5,-72.8691 271.5,-72.8691 271.5,-91.8691"/>
<text text-anchor="middle" x="237.5" y="-79.8691" font-family="Helvetica,sans-Serif" font-size="10.00">shaker_sort</text>
</a>
</g>
</g>
<!-- Node9&#45;&gt;Node14 -->
<g id="edge16_Node000009_Node000014" class="edge"><title>Node9&#45;&gt;Node14</title>
<g id="a_edge16_Node000009_Node000014"><a xlink:title=" ">
<path fill="none" stroke="#63b8ff" d="M362.61,-124.216C343.449,-116.918 318.995,-107.836 297,-100.369 288.548,-97.4999 279.344,-94.5756 270.792,-91.9413"/>
<polygon fill="#63b8ff" stroke="#63b8ff" points="361.516,-127.545 372.106,-127.851 364.019,-121.007 361.516,-127.545"/>
</a>
</g>
</g>
<!-- Node15 -->
<g id="Node000015" class="node"><title>Node15</title>
<g id="a_Node000015"><a xlink:href="group__sortable___t_vector_iterator.html#gadd8aded92ce2c6402742a57316412d39" target="_top" xlink:title="Porovnání hodnot elementů vektorů určených dvěma iterátory.">
<polygon fill="white" stroke="#666666" points="291,-54.3691 184,-54.3691 184,-24.3691 291,-24.3691 291,-54.3691"/>
<text text-anchor="start" x="192" y="-42.3691" font-family="Helvetica,sans-Serif" font-size="10.00">vector_compare_with</text>
<text text-anchor="middle" x="237.5" y="-31.3691" font-family="Helvetica,sans-Serif" font-size="10.00">_iterators</text>
</a>
</g>
</g>
<!-- Node9&#45;&gt;Node15 -->
<g id="edge17_Node000009_Node000015" class="edge"><title>Node9&#45;&gt;Node15</title>
<g id="a_edge17_Node000009_Node000015"><a xlink:title=" ">
<path fill="none" stroke="#63b8ff" d="M377.77,-121.19C358.468,-105.072 327.04,-80.3459 297,-63.3691 291.361,-60.1825 285.214,-57.1899 279.093,-54.4712"/>
<polygon fill="#63b8ff" stroke="#63b8ff" points="375.603,-123.941 385.499,-127.726 380.124,-118.596 375.603,-123.941"/>
</a>
</g>
</g>
<!-- Node17 -->
<g id="Node000017" class="node"><title>Node17</title>
<g id="a_Node000017"><a xlink:href="group___main_program.html#ga7343209645c93203da0a86613abfed04" target="_top" xlink:title="Testování třídicí metody.">
<polygon fill="white" stroke="#666666" points="142,-147.869 74,-147.869 74,-128.869 142,-128.869 142,-147.869"/>
<text text-anchor="middle" x="108" y="-135.869" font-family="Helvetica,sans-Serif" font-size="10.00">sort_testing</text>
</a>
</g>
</g>
<!-- Node16&#45;&gt;Node17 -->
<g id="edge19_Node000016_Node000017" class="edge"><title>Node16&#45;&gt;Node17</title>
<g id="a_edge19_Node000016_Node000017"><a xlink:title=" ">
<path fill="none" stroke="#63b8ff" d="M361.506,-34.5446C316.112,-11.7201 235.895,18.5359 178,-15.3691 134.687,-40.7343 116.496,-104.349 110.967,-128.689"/>
<polygon fill="#63b8ff" stroke="#63b8ff" points="360.154,-37.7858 370.643,-39.2765 363.373,-31.5698 360.154,-37.7858"/>
</a>
</g>
</g>
<!-- Node17&#45;&gt;Node4 -->
<g id="edge20_Node000017_Node000004" class="edge"><title>Node17&#45;&gt;Node4</title>
<g id="a_edge20_Node000017_Node000004"><a xlink:title=" ">
<path fill="none" stroke="#63b8ff" d="M98.6262,-157.234C80.4737,-198.129 38.0316,-293.746 24.3404,-324.591"/>
<polygon fill="#63b8ff" stroke="#63b8ff" points="101.828,-158.649 102.686,-148.089 95.4295,-155.809 101.828,-158.649"/>
</a>
</g>
</g>
</g>
</svg>
