<?xml version="1.0" encoding="UTF-8" standalone="no"?>
<!DOCTYPE svg PUBLIC "-//W3C//DTD SVG 1.1//EN"
 "http://www.w3.org/Graphics/SVG/1.1/DTD/svg11.dtd">
<!-- Generated by graphviz version 2.38.0 (20140413.2041)
 -->
<!-- Title: vector_element_store_file Pages: 1 -->
<svg width="434pt" height="101pt"
 viewBox="0.00 0.00 434.00 101.00" xmlns="http://www.w3.org/2000/svg" xmlns:xlink="http://www.w3.org/1999/xlink">
<g id="graph0" class="graph" transform="scale(1 1) rotate(0) translate(4 97)">
<title>vector_element_store_file</title>
<!-- Node1 -->
<g id="Node000001" class="node"><title>Node1</title>
<g id="a_Node000001"><a xlink:title="Uložení elementu do souboru.">
<polygon fill="#999999" stroke="#666666" points="426,-56 300,-56 300,-37 426,-37 426,-56"/>
<text text-anchor="middle" x="363" y="-44" font-family="Helvetica,sans-Serif" font-size="10.00">vector_element_store_file</text>
</a>
</g>
</g>
<!-- Node2 -->
<g id="Node000002" class="node"><title>Node2</title>
<g id="a_Node000002"><a xlink:href="group___basic_sorts.html#ga25c7ac8991c266d71b75cf20c14b67cf" target="_top" xlink:title="Vytisknutí elementu vektoru pomocí iterátoru.">
<polygon fill="white" stroke="#666666" points="258.5,-93 183.5,-93 183.5,-74 258.5,-74 258.5,-93"/>
<text text-anchor="middle" x="221" y="-81" font-family="Helvetica,sans-Serif" font-size="10.00">print_element</text>
</a>
</g>
</g>
<!-- Node1&#45;&gt;Node2 -->
<g id="edge1_Node000001_Node000002" class="edge"><title>Node1&#45;&gt;Node2</title>
<g id="a_edge1_Node000001_Node000002"><a xlink:title=" ">
<path fill="none" stroke="#63b8ff" d="M316.139,-58.6204C297.409,-63.5706 276.05,-69.2152 258.418,-73.8753"/>
<polygon fill="#63b8ff" stroke="#63b8ff" points="317.173,-61.9674 325.947,-56.0284 315.384,-55.1998 317.173,-61.9674"/>
</a>
</g>
</g>
<!-- Node5 -->
<g id="Node000005" class="node"><title>Node5</title>
<g id="a_Node000005"><a xlink:href="advanced__sorts_8c.html#a4b9bbfb5712de6efbad32b8691e5cec6" target="_top" xlink:title="Formátovaný tisk hodnoty elementu za předpokladu platné hodnoty.">
<polygon fill="white" stroke="#666666" points="263.5,-56 178.5,-56 178.5,-37 263.5,-37 263.5,-56"/>
<text text-anchor="middle" x="221" y="-44" font-family="Helvetica,sans-Serif" font-size="10.00">print_element_if</text>
</a>
</g>
</g>
<!-- Node1&#45;&gt;Node5 -->
<g id="edge4_Node000001_Node000005" class="edge"><title>Node1&#45;&gt;Node5</title>
<g id="a_edge4_Node000001_Node000005"><a xlink:title=" ">
<path fill="none" stroke="#63b8ff" d="M289.673,-46.5C280.714,-46.5 271.806,-46.5 263.537,-46.5"/>
<polygon fill="#63b8ff" stroke="#63b8ff" points="289.779,-50.0001 299.779,-46.5 289.779,-43.0001 289.779,-50.0001"/>
</a>
</g>
</g>
<!-- Node6 -->
<g id="Node000006" class="node"><title>Node6</title>
<g id="a_Node000006"><a xlink:href="group___t_vector.html#gabc5c4a8f6f5f38932380f5e475ce862f" target="_top" xlink:title="Uložení vektoru a jeho elementů do souboru.">
<polygon fill="white" stroke="#666666" points="264,-19 178,-19 178,-0 264,-0 264,-19"/>
<text text-anchor="middle" x="221" y="-7" font-family="Helvetica,sans-Serif" font-size="10.00">vector_store_file</text>
</a>
</g>
</g>
<!-- Node1&#45;&gt;Node6 -->
<g id="edge5_Node000001_Node000006" class="edge"><title>Node1&#45;&gt;Node6</title>
<g id="a_edge5_Node000001_Node000006"><a xlink:title=" ">
<path fill="none" stroke="#63b8ff" d="M316.139,-34.3796C297.409,-29.4294 276.05,-23.7848 258.418,-19.1247"/>
<polygon fill="#63b8ff" stroke="#63b8ff" points="315.384,-37.8002 325.947,-36.9716 317.173,-31.0326 315.384,-37.8002"/>
</a>
</g>
</g>
<!-- Node3 -->
<g id="Node000003" class="node"><title>Node3</title>
<g id="a_Node000003"><a xlink:href="group___main_program.html#ga7343209645c93203da0a86613abfed04" target="_top" xlink:title="Testování třídicí metody.">
<polygon fill="white" stroke="#666666" points="142,-93 74,-93 74,-74 142,-74 142,-93"/>
<text text-anchor="middle" x="108" y="-81" font-family="Helvetica,sans-Serif" font-size="10.00">sort_testing</text>
</a>
</g>
</g>
<!-- Node2&#45;&gt;Node3 -->
<g id="edge2_Node000002_Node000003" class="edge"><title>Node2&#45;&gt;Node3</title>
<g id="a_edge2_Node000002_Node000003"><a xlink:title=" ">
<path fill="none" stroke="#63b8ff" d="M173.151,-83.5C162.762,-83.5 151.958,-83.5 142.244,-83.5"/>
<polygon fill="#63b8ff" stroke="#63b8ff" points="173.347,-87.0001 183.347,-83.5 173.347,-80.0001 173.347,-87.0001"/>
</a>
</g>
</g>
<!-- Node4 -->
<g id="Node000004" class="node"><title>Node4</title>
<g id="a_Node000004"><a xlink:href="group___main_program.html#ga0ddf1224851353fc92bfbff6f499fa97" target="_top" xlink:title=" ">
<polygon fill="white" stroke="#666666" points="38,-93 0,-93 0,-74 38,-74 38,-93"/>
<text text-anchor="middle" x="19" y="-81" font-family="Helvetica,sans-Serif" font-size="10.00">main</text>
</a>
</g>
</g>
<!-- Node3&#45;&gt;Node4 -->
<g id="edge3_Node000003_Node000004" class="edge"><title>Node3&#45;&gt;Node4</title>
<g id="a_edge3_Node000003_Node000004"><a xlink:title=" ">
<path fill="none" stroke="#63b8ff" d="M63.5417,-83.5C54.5485,-83.5 45.5529,-83.5 38.0925,-83.5"/>
<polygon fill="#63b8ff" stroke="#63b8ff" points="63.6124,-87.0001 73.6123,-83.5 63.6123,-80.0001 63.6124,-87.0001"/>
</a>
</g>
</g>
</g>
</svg>
