<?xml version="1.0" encoding="UTF-8" standalone="no"?>
<!DOCTYPE svg PUBLIC "-//W3C//DTD SVG 1.1//EN"
 "http://www.w3.org/Graphics/SVG/1.1/DTD/svg11.dtd">
<!-- Generated by graphviz version 2.38.0 (20140413.2041)
 -->
<!-- Title: vector_iterator_is_valid Pages: 1 -->
<svg width="565pt" height="484pt"
 viewBox="0.00 0.00 565.00 484.00" xmlns="http://www.w3.org/2000/svg" xmlns:xlink="http://www.w3.org/1999/xlink">
<g id="graph0" class="graph" transform="scale(1 1) rotate(0) translate(4 480)">
<title>vector_iterator_is_valid</title>
<!-- Node1 -->
<g id="Node000001" class="node"><title>Node1</title>
<g id="a_Node000001"><a xlink:title="Zjištění platnosti iterátoru.">
<polygon fill="#999999" stroke="#666666" points="557,-244.5 467,-244.5 467,-214.5 557,-214.5 557,-244.5"/>
<text text-anchor="start" x="475" y="-232.5" font-family="Helvetica,sans-Serif" font-size="10.00">vector_iterator_is</text>
<text text-anchor="middle" x="512" y="-221.5" font-family="Helvetica,sans-Serif" font-size="10.00">_valid</text>
</a>
</g>
</g>
<!-- Node2 -->
<g id="Node000002" class="node"><title>Node2</title>
<g id="a_Node000002"><a xlink:href="group___main_program.html#ga7343209645c93203da0a86613abfed04" target="_top" xlink:title="Testování třídicí metody.">
<polygon fill="white" stroke="#666666" points="142,-342 74,-342 74,-323 142,-323 142,-342"/>
<text text-anchor="middle" x="108" y="-330" font-family="Helvetica,sans-Serif" font-size="10.00">sort_testing</text>
</a>
</g>
</g>
<!-- Node1&#45;&gt;Node2 -->
<g id="edge1_Node000001_Node000002" class="edge"><title>Node1&#45;&gt;Node2</title>
<g id="a_edge1_Node000001_Node000002"><a xlink:title=" ">
<path fill="none" stroke="#63b8ff" d="M490.087,-251.714C475.095,-266.152 453.623,-283.998 431,-293.5 332.096,-335.04 202.083,-336.353 142.028,-334.305"/>
<polygon fill="#63b8ff" stroke="#63b8ff" points="492.683,-254.069 497.308,-244.537 487.748,-249.104 492.683,-254.069"/>
</a>
</g>
</g>
<!-- Node4 -->
<g id="Node000004" class="node"><title>Node4</title>
<g id="a_Node000004"><a xlink:href="group__sortable___t_vector_iterator.html#gaa359594c5556fb685473666fad583ddf" target="_top" xlink:title="Porovnání mezi hodnotou elementu vektoru určenou iterátorem a hodnotou typu VectorElement.">
<polygon fill="white" stroke="#666666" points="418,-438.5 311,-438.5 311,-408.5 418,-408.5 418,-438.5"/>
<text text-anchor="start" x="319" y="-426.5" font-family="Helvetica,sans-Serif" font-size="10.00">vector_compare_with</text>
<text text-anchor="middle" x="364.5" y="-415.5" font-family="Helvetica,sans-Serif" font-size="10.00">_iterator_value</text>
</a>
</g>
</g>
<!-- Node1&#45;&gt;Node4 -->
<g id="edge3_Node000001_Node000004" class="edge"><title>Node1&#45;&gt;Node4</title>
<g id="a_edge3_Node000001_Node000004"><a xlink:title=" ">
<path fill="none" stroke="#63b8ff" d="M505.657,-254.388C496.542,-291.073 474.585,-359.616 431,-399.5 427.158,-403.016 422.759,-406.027 418.098,-408.605"/>
<polygon fill="#63b8ff" stroke="#63b8ff" points="509.097,-255.05 507.99,-244.513 502.285,-253.441 509.097,-255.05"/>
</a>
</g>
</g>
<!-- Node5 -->
<g id="Node000005" class="node"><title>Node5</title>
<g id="a_Node000005"><a xlink:href="group__sortable___t_vector_iterator.html#gadd8aded92ce2c6402742a57316412d39" target="_top" xlink:title="Porovnání hodnot elementů vektorů určených dvěma iterátory.">
<polygon fill="white" stroke="#666666" points="418,-390.5 311,-390.5 311,-360.5 418,-360.5 418,-390.5"/>
<text text-anchor="start" x="319" y="-378.5" font-family="Helvetica,sans-Serif" font-size="10.00">vector_compare_with</text>
<text text-anchor="middle" x="364.5" y="-367.5" font-family="Helvetica,sans-Serif" font-size="10.00">_iterators</text>
</a>
</g>
</g>
<!-- Node1&#45;&gt;Node5 -->
<g id="edge4_Node000001_Node000005" class="edge"><title>Node1&#45;&gt;Node5</title>
<g id="a_edge4_Node000001_Node000005"><a xlink:title=" ">
<path fill="none" stroke="#63b8ff" d="M499.46,-253.951C486.142,-279.911 462.031,-320.683 431,-346.5 424.403,-351.988 416.604,-356.625 408.73,-360.47"/>
<polygon fill="#63b8ff" stroke="#63b8ff" points="502.699,-255.299 504.028,-244.788 496.434,-252.176 502.699,-255.299"/>
</a>
</g>
</g>
<!-- Node6 -->
<g id="Node000006" class="node"><title>Node6</title>
<g id="a_Node000006"><a xlink:href="group___iterator_algorithms.html#gad9872ced82843c0e0864a8e2547ca579" target="_top" xlink:title="Zavolání zvolené funkce na každý element vektoru od pozice určené iterátorem až do konce vektoru.">
<polygon fill="white" stroke="#666666" points="262,-279 178,-279 178,-260 262,-260 262,-279"/>
<text text-anchor="middle" x="220" y="-267" font-family="Helvetica,sans-Serif" font-size="10.00">vector_for_each</text>
</a>
</g>
</g>
<!-- Node1&#45;&gt;Node6 -->
<g id="edge5_Node000001_Node000006" class="edge"><title>Node1&#45;&gt;Node6</title>
<g id="a_edge5_Node000001_Node000006"><a xlink:title=" ">
<path fill="none" stroke="#63b8ff" d="M483.01,-250.435C468.338,-260.11 449.587,-270.537 431,-275.5 373.913,-290.742 304.982,-284.291 262.058,-277.498"/>
<polygon fill="#63b8ff" stroke="#63b8ff" points="485.309,-253.104 491.581,-244.565 481.353,-247.329 485.309,-253.104"/>
</a>
</g>
</g>
<!-- Node7 -->
<g id="Node000007" class="node"><title>Node7</title>
<g id="a_Node000007"><a xlink:href="group___iterator_algorithms.html#gac5ae89ba507530f7c51c45447efbe4ac" target="_top" xlink:title="Zavolání zvolené funkce na prvních N elementů vektoru od pozice určené iterátorem.">
<polygon fill="white" stroke="#666666" points="254,-218 186,-218 186,-199 254,-199 254,-218"/>
<text text-anchor="middle" x="220" y="-206" font-family="Helvetica,sans-Serif" font-size="10.00">vector_for_n</text>
</a>
</g>
</g>
<!-- Node1&#45;&gt;Node7 -->
<g id="edge6_Node000001_Node000007" class="edge"><title>Node1&#45;&gt;Node7</title>
<g id="a_edge6_Node000001_Node000007"><a xlink:title=" ">
<path fill="none" stroke="#63b8ff" d="M494.818,-206.146C480.476,-187.674 457.702,-163.263 431,-152.5 376.175,-130.402 354.214,-134.22 298,-152.5 270.02,-161.599 243.723,-185.118 230.296,-198.606"/>
<polygon fill="#63b8ff" stroke="#63b8ff" points="492.192,-208.479 500.979,-214.398 497.8,-204.291 492.192,-208.479"/>
</a>
</g>
</g>
<!-- Node8 -->
<g id="Node000008" class="node"><title>Node8</title>
<g id="a_Node000008"><a xlink:href="group___t_vector_iterator.html#ga66f6b96e416a7e593b1cf703f58be7ca" target="_top" xlink:title="Zapsání hodnoty elementu do vektoru pomocí iterátoru.">
<polygon fill="white" stroke="#666666" points="412.5,-266.5 316.5,-266.5 316.5,-236.5 412.5,-236.5 412.5,-266.5"/>
<text text-anchor="start" x="324.5" y="-254.5" font-family="Helvetica,sans-Serif" font-size="10.00">vector_iterator_set</text>
<text text-anchor="middle" x="364.5" y="-243.5" font-family="Helvetica,sans-Serif" font-size="10.00">_value</text>
</a>
</g>
</g>
<!-- Node1&#45;&gt;Node8 -->
<g id="edge8_Node000001_Node000008" class="edge"><title>Node1&#45;&gt;Node8</title>
<g id="a_edge8_Node000001_Node000008"><a xlink:title=" ">
<path fill="none" stroke="#63b8ff" d="M456.649,-237.718C442.202,-239.902 426.719,-242.244 412.689,-244.365"/>
<polygon fill="#63b8ff" stroke="#63b8ff" points="457.586,-241.116 466.95,-236.16 456.539,-234.195 457.586,-241.116"/>
</a>
</g>
</g>
<!-- Node9 -->
<g id="Node000009" class="node"><title>Node9</title>
<g id="a_Node000009"><a xlink:href="group___t_vector_iterator.html#ga7ce07cda016d67e3ca891125613ece56" target="_top" xlink:title="Posunutí iterátoru vpřed.">
<polygon fill="white" stroke="#666666" points="422,-218 307,-218 307,-199 422,-199 422,-218"/>
<text text-anchor="middle" x="364.5" y="-206" font-family="Helvetica,sans-Serif" font-size="10.00">vector_iterator_to_next</text>
</a>
</g>
</g>
<!-- Node1&#45;&gt;Node9 -->
<g id="edge9_Node000001_Node000009" class="edge"><title>Node1&#45;&gt;Node9</title>
<g id="a_edge9_Node000001_Node000009"><a xlink:title=" ">
<path fill="none" stroke="#63b8ff" d="M456.762,-221.672C445.434,-220.037 433.465,-218.309 422.056,-216.663"/>
<polygon fill="#63b8ff" stroke="#63b8ff" points="456.553,-225.178 466.95,-223.142 457.553,-218.25 456.553,-225.178"/>
</a>
</g>
</g>
<!-- Node10 -->
<g id="Node000010" class="node"><title>Node10</title>
<g id="a_Node000010"><a xlink:href="group___t_vector_iterator.html#ga8e1e1cc570f8a1c2bf1fb73c0d3c8826" target="_top" xlink:title="Posunutí iterátoru vzad.">
<polygon fill="white" stroke="#666666" points="421,-181 308,-181 308,-162 421,-162 421,-181"/>
<text text-anchor="middle" x="364.5" y="-169" font-family="Helvetica,sans-Serif" font-size="10.00">vector_iterator_to_prev</text>
</a>
</g>
</g>
<!-- Node1&#45;&gt;Node10 -->
<g id="edge12_Node000001_Node000010" class="edge"><title>Node1&#45;&gt;Node10</title>
<g id="a_edge12_Node000001_Node000010"><a xlink:title=" ">
<path fill="none" stroke="#63b8ff" d="M473.734,-209.69C460.464,-203.078 445.27,-196.001 431,-190.5 421.941,-187.008 411.965,-183.803 402.589,-181.06"/>
<polygon fill="#63b8ff" stroke="#63b8ff" points="472.514,-212.996 483.017,-214.394 475.678,-206.752 472.514,-212.996"/>
</a>
</g>
</g>
<!-- Node11 -->
<g id="Node000011" class="node"><title>Node11</title>
<g id="a_Node000011"><a xlink:href="group___t_vector_iterator.html#ga4d8032eb9dbbdccf794611f2b0c9821c" target="_top" xlink:title="Přečtení hodnoty elementu z vektoru pomocí iterátoru.">
<polygon fill="white" stroke="#666666" points="416.5,-476 312.5,-476 312.5,-457 416.5,-457 416.5,-476"/>
<text text-anchor="middle" x="364.5" y="-464" font-family="Helvetica,sans-Serif" font-size="10.00">vector_iterator_value</text>
</a>
</g>
</g>
<!-- Node1&#45;&gt;Node11 -->
<g id="edge13_Node000001_Node000011" class="edge"><title>Node1&#45;&gt;Node11</title>
<g id="a_edge13_Node000001_Node000011"><a xlink:title=" ">
<path fill="none" stroke="#63b8ff" d="M508.982,-254.858C504.002,-300.166 487.101,-395.163 431,-447.5 426.844,-451.377 421.944,-454.468 416.725,-456.932"/>
<polygon fill="#63b8ff" stroke="#63b8ff" points="512.484,-255.012 509.986,-244.716 505.518,-254.323 512.484,-255.012"/>
</a>
</g>
</g>
<!-- Node13 -->
<g id="Node000013" class="node"><title>Node13</title>
<g id="a_Node000013"><a xlink:href="group__sortable___t_vector_iterator.html#gaa3e549d3e67e2168311acc8f4a494cc5" target="_top" xlink:title="Přesun hodnoty elementu vektoru určené dvěma iterátory.">
<polygon fill="white" stroke="#666666" points="431,-105 298,-105 298,-86 431,-86 431,-105"/>
<text text-anchor="middle" x="364.5" y="-93" font-family="Helvetica,sans-Serif" font-size="10.00">vector_move_with_iterators</text>
</a>
</g>
</g>
<!-- Node1&#45;&gt;Node13 -->
<g id="edge16_Node000001_Node000013" class="edge"><title>Node1&#45;&gt;Node13</title>
<g id="a_edge16_Node000001_Node000013"><a xlink:title=" ">
<path fill="none" stroke="#63b8ff" d="M498.801,-205.017C485.326,-180.267 461.448,-142.484 431,-119.5 422.784,-113.298 412.803,-108.568 403.134,-105.018"/>
<polygon fill="#63b8ff" stroke="#63b8ff" points="495.843,-206.911 503.608,-214.119 502.033,-203.642 495.843,-206.911"/>
</a>
</g>
</g>
<!-- Node14 -->
<g id="Node000014" class="node"><title>Node14</title>
<g id="a_Node000014"><a xlink:href="group__sortable___t_vector_iterator.html#ga015969daf209d461aaf0ba4391df4b5b" target="_top" xlink:title="Výměna mezi hodnotou elementu vektoru určenou iterátorem a proměnnou typu VectorElement.">
<polygon fill="white" stroke="#666666" points="428.5,-67.5 300.5,-67.5 300.5,-37.5 428.5,-37.5 428.5,-67.5"/>
<text text-anchor="start" x="308.5" y="-55.5" font-family="Helvetica,sans-Serif" font-size="10.00">vector_swap_with_iterator</text>
<text text-anchor="middle" x="364.5" y="-44.5" font-family="Helvetica,sans-Serif" font-size="10.00">_value</text>
</a>
</g>
</g>
<!-- Node1&#45;&gt;Node14 -->
<g id="edge17_Node000001_Node000014" class="edge"><title>Node1&#45;&gt;Node14</title>
<g id="a_edge17_Node000001_Node000014"><a xlink:title=" ">
<path fill="none" stroke="#63b8ff" d="M504.056,-204.182C493.587,-170.532 470.648,-111.282 431,-76.5 427.085,-73.0657 422.638,-70.108 417.947,-67.5636"/>
<polygon fill="#63b8ff" stroke="#63b8ff" points="500.814,-205.559 507.022,-214.145 507.523,-203.562 500.814,-205.559"/>
</a>
</g>
</g>
<!-- Node15 -->
<g id="Node000015" class="node"><title>Node15</title>
<g id="a_Node000015"><a xlink:href="group__sortable___t_vector_iterator.html#gac16589d02c81c789a7fa6cd323a49013" target="_top" xlink:title="Výměna hodnot elementů vektorů určených dvěma iterátory.">
<polygon fill="white" stroke="#666666" points="431,-19 298,-19 298,-0 431,-0 431,-19"/>
<text text-anchor="middle" x="364.5" y="-7" font-family="Helvetica,sans-Serif" font-size="10.00">vector_swap_with_iterators</text>
</a>
</g>
</g>
<!-- Node1&#45;&gt;Node15 -->
<g id="edge18_Node000001_Node000015" class="edge"><title>Node1&#45;&gt;Node15</title>
<g id="a_edge18_Node000001_Node000015"><a xlink:title=" ">
<path fill="none" stroke="#63b8ff" d="M508.097,-204.307C501.85,-161.808 483.184,-75.8784 431,-28.5 426.705,-24.6001 421.654,-21.4971 416.294,-19.0287"/>
<polygon fill="#63b8ff" stroke="#63b8ff" points="504.649,-204.925 509.46,-214.364 511.585,-203.985 504.649,-204.925"/>
</a>
</g>
</g>
<!-- Node3 -->
<g id="Node000003" class="node"><title>Node3</title>
<g id="a_Node000003"><a xlink:href="group___main_program.html#ga0ddf1224851353fc92bfbff6f499fa97" target="_top" xlink:title=" ">
<polygon fill="white" stroke="#666666" points="38,-342 0,-342 0,-323 38,-323 38,-342"/>
<text text-anchor="middle" x="19" y="-330" font-family="Helvetica,sans-Serif" font-size="10.00">main</text>
</a>
</g>
</g>
<!-- Node2&#45;&gt;Node3 -->
<g id="edge2_Node000002_Node000003" class="edge"><title>Node2&#45;&gt;Node3</title>
<g id="a_edge2_Node000002_Node000003"><a xlink:title=" ">
<path fill="none" stroke="#63b8ff" d="M63.5417,-332.5C54.5485,-332.5 45.5529,-332.5 38.0925,-332.5"/>
<polygon fill="#63b8ff" stroke="#63b8ff" points="63.6124,-336 73.6123,-332.5 63.6123,-329 63.6124,-336"/>
</a>
</g>
</g>
<!-- Node7&#45;&gt;Node2 -->
<g id="edge7_Node000007_Node000002" class="edge"><title>Node7&#45;&gt;Node2</title>
<g id="a_edge7_Node000007_Node000002"><a xlink:title=" ">
<path fill="none" stroke="#63b8ff" d="M202.417,-225.451C194.865,-233.283 185.873,-242.766 178,-251.5 155.242,-276.747 129.553,-307.546 116.903,-322.874"/>
<polygon fill="#63b8ff" stroke="#63b8ff" points="204.945,-227.873 209.395,-218.258 199.92,-222.998 204.945,-227.873"/>
</a>
</g>
</g>
<!-- Node9&#45;&gt;Node6 -->
<g id="edge10_Node000009_Node000006" class="edge"><title>Node9&#45;&gt;Node6</title>
<g id="a_edge10_Node000009_Node000006"><a xlink:title=" ">
<path fill="none" stroke="#63b8ff" d="M315.367,-221.158C309.45,-223.094 303.54,-225.217 298,-227.5 275.614,-236.724 251.332,-250.692 236.145,-259.952"/>
<polygon fill="#63b8ff" stroke="#63b8ff" points="316.757,-224.391 325.266,-218.078 314.678,-217.706 316.757,-224.391"/>
</a>
</g>
</g>
<!-- Node9&#45;&gt;Node7 -->
<g id="edge11_Node000009_Node000007" class="edge"><title>Node9&#45;&gt;Node7</title>
<g id="a_edge11_Node000009_Node000007"><a xlink:title=" ">
<path fill="none" stroke="#63b8ff" d="M296.627,-208.5C281.871,-208.5 266.864,-208.5 254.15,-208.5"/>
<polygon fill="#63b8ff" stroke="#63b8ff" points="296.771,-212 306.771,-208.5 296.771,-205 296.771,-212"/>
</a>
</g>
</g>
<!-- Node12 -->
<g id="Node000012" class="node"><title>Node12</title>
<g id="a_Node000012"><a xlink:href="group___basic_sorts.html#ga25c7ac8991c266d71b75cf20c14b67cf" target="_top" xlink:title="Vytisknutí elementu vektoru pomocí iterátoru.">
<polygon fill="white" stroke="#666666" points="257.5,-428 182.5,-428 182.5,-409 257.5,-409 257.5,-428"/>
<text text-anchor="middle" x="220" y="-416" font-family="Helvetica,sans-Serif" font-size="10.00">print_element</text>
</a>
</g>
</g>
<!-- Node11&#45;&gt;Node12 -->
<g id="edge14_Node000011_Node000012" class="edge"><title>Node11&#45;&gt;Node12</title>
<g id="a_edge14_Node000011_Node000012"><a xlink:title=" ">
<path fill="none" stroke="#63b8ff" d="M318.653,-453.994C311.71,-451.913 304.642,-449.711 298,-447.5 280.109,-441.546 260.196,-434.022 245.103,-428.13"/>
<polygon fill="#63b8ff" stroke="#63b8ff" points="318.09,-457.477 328.671,-456.943 320.066,-450.762 318.09,-457.477"/>
</a>
</g>
</g>
<!-- Node12&#45;&gt;Node2 -->
<g id="edge15_Node000012_Node000002" class="edge"><title>Node12&#45;&gt;Node2</title>
<g id="a_edge15_Node000012_Node000002"><a xlink:title=" ">
<path fill="none" stroke="#63b8ff" d="M198.836,-402.735C176.151,-385 140.03,-356.759 121.247,-342.075"/>
<polygon fill="#63b8ff" stroke="#63b8ff" points="196.774,-405.566 206.808,-408.968 201.085,-400.051 196.774,-405.566"/>
</a>
</g>
</g>
</g>
</svg>
