<?xml version="1.0" encoding="UTF-8" standalone="no"?>
<!DOCTYPE svg PUBLIC "-//W3C//DTD SVG 1.1//EN"
 "http://www.w3.org/Graphics/SVG/1.1/DTD/svg11.dtd">
<!-- Generated by graphviz version 2.38.0 (20140413.2041)
 -->
<!-- Title: vector_move_positions Pages: 1 -->
<svg width="365pt" height="101pt"
 viewBox="0.00 0.00 365.00 101.00" xmlns="http://www.w3.org/2000/svg" xmlns:xlink="http://www.w3.org/1999/xlink">
<g id="graph0" class="graph" transform="scale(1 1) rotate(0) translate(4 97)">
<title>vector_move_positions</title>
<!-- Node1 -->
<g id="Node000001" class="node"><title>Node1</title>
<g id="a_Node000001"><a xlink:title="Přesun hodnoty elementu vektoru.">
<polygon fill="#999999" stroke="#666666" points="357,-56 243,-56 243,-37 357,-37 357,-56"/>
<text text-anchor="middle" x="300" y="-44" font-family="Helvetica,sans-Serif" font-size="10.00">vector_move_positions</text>
</a>
</g>
</g>
<!-- Node2 -->
<g id="Node000002" class="node"><title>Node2</title>
<g id="a_Node000002"><a xlink:href="group___basic_sorts.html#gac3903c3fd846908cd362e293ed40582e" target="_top" xlink:title="Třídění přímým vkládáním (Insert Sort)">
<polygon fill="white" stroke="#666666" points="171.5,-93 109.5,-93 109.5,-74 171.5,-74 171.5,-93"/>
<text text-anchor="middle" x="140.5" y="-81" font-family="Helvetica,sans-Serif" font-size="10.00">insert_sort</text>
</a>
</g>
</g>
<!-- Node1&#45;&gt;Node2 -->
<g id="edge1_Node000001_Node000002" class="edge"><title>Node1&#45;&gt;Node2</title>
<g id="a_edge1_Node000001_Node000002"><a xlink:title=" ">
<path fill="none" stroke="#63b8ff" d="M248.659,-58.3261C223.429,-64.2531 193.707,-71.2356 171.973,-76.3414"/>
<polygon fill="#63b8ff" stroke="#63b8ff" points="249.505,-61.7227 258.44,-56.0284 247.904,-54.9082 249.505,-61.7227"/>
</a>
</g>
</g>
<!-- Node4 -->
<g id="Node000004" class="node"><title>Node4</title>
<g id="a_Node000004"><a xlink:href="group___advanced_sorts.html#gaee070b00692f425d83eaea28b37bab2b" target="_top" xlink:title="Shellovo třídění vkládáním s ubývajícím krokem (Shell Sort) dle Hibbardovy posloupnosti.">
<polygon fill="white" stroke="#666666" points="170,-56 111,-56 111,-37 170,-37 170,-56"/>
<text text-anchor="middle" x="140.5" y="-44" font-family="Helvetica,sans-Serif" font-size="10.00">shell_sort</text>
</a>
</g>
</g>
<!-- Node1&#45;&gt;Node4 -->
<g id="edge3_Node000001_Node000004" class="edge"><title>Node1&#45;&gt;Node4</title>
<g id="a_edge3_Node000001_Node000004"><a xlink:title=" ">
<path fill="none" stroke="#63b8ff" d="M232.37,-46.5C210.614,-46.5 187.593,-46.5 170.166,-46.5"/>
<polygon fill="#63b8ff" stroke="#63b8ff" points="232.584,-50.0001 242.584,-46.5 232.584,-43.0001 232.584,-50.0001"/>
</a>
</g>
</g>
<!-- Node5 -->
<g id="Node000005" class="node"><title>Node5</title>
<g id="a_Node000005"><a xlink:href="group__sortable___t_vector_iterator.html#gaa3e549d3e67e2168311acc8f4a494cc5" target="_top" xlink:title="Přesun hodnoty elementu vektoru určené dvěma iterátory.">
<polygon fill="white" stroke="#666666" points="207,-19 74,-19 74,-0 207,-0 207,-19"/>
<text text-anchor="middle" x="140.5" y="-7" font-family="Helvetica,sans-Serif" font-size="10.00">vector_move_with_iterators</text>
</a>
</g>
</g>
<!-- Node1&#45;&gt;Node5 -->
<g id="edge5_Node000001_Node000005" class="edge"><title>Node1&#45;&gt;Node5</title>
<g id="a_edge5_Node000001_Node000005"><a xlink:title=" ">
<path fill="none" stroke="#63b8ff" d="M248.529,-34.6433C227.095,-29.608 202.438,-23.8155 182.196,-19.0604"/>
<polygon fill="#63b8ff" stroke="#63b8ff" points="247.904,-38.0918 258.44,-36.9716 249.505,-31.2773 247.904,-38.0918"/>
</a>
</g>
</g>
<!-- Node3 -->
<g id="Node000003" class="node"><title>Node3</title>
<g id="a_Node000003"><a xlink:href="group___main_program.html#ga0ddf1224851353fc92bfbff6f499fa97" target="_top" xlink:title=" ">
<polygon fill="white" stroke="#666666" points="38,-74 0,-74 0,-55 38,-55 38,-74"/>
<text text-anchor="middle" x="19" y="-62" font-family="Helvetica,sans-Serif" font-size="10.00">main</text>
</a>
</g>
</g>
<!-- Node2&#45;&gt;Node3 -->
<g id="edge2_Node000002_Node000003" class="edge"><title>Node2&#45;&gt;Node3</title>
<g id="a_edge2_Node000002_Node000003"><a xlink:title=" ">
<path fill="none" stroke="#63b8ff" d="M99.2218,-77.0959C78.5495,-73.8091 54.3858,-69.9672 38.2307,-67.3986"/>
<polygon fill="#63b8ff" stroke="#63b8ff" points="98.9195,-80.5918 109.345,-78.7055 100.019,-73.6786 98.9195,-80.5918"/>
</a>
</g>
</g>
<!-- Node4&#45;&gt;Node3 -->
<g id="edge4_Node000004_Node000003" class="edge"><title>Node4&#45;&gt;Node3</title>
<g id="a_edge4_Node000004_Node000003"><a xlink:title=" ">
<path fill="none" stroke="#63b8ff" d="M100.95,-52.3068C79.9607,-55.4683 54.9618,-59.2338 38.3539,-61.7354"/>
<polygon fill="#63b8ff" stroke="#63b8ff" points="101.51,-55.762 110.877,-50.8114 100.467,-48.84 101.51,-55.762"/>
</a>
</g>
</g>
</g>
</svg>
