<?xml version="1.0" encoding="UTF-8" standalone="no"?>
<!DOCTYPE svg PUBLIC "-//W3C//DTD SVG 1.1//EN"
 "http://www.w3.org/Graphics/SVG/1.1/DTD/svg11.dtd">
<!-- Generated by graphviz version 2.38.0 (20140413.2041)
 -->
<!-- Title: main Pages: 1 -->
<svg width="651pt" height="634pt"
 viewBox="0.00 0.00 651.00 634.00" xmlns="http://www.w3.org/2000/svg" xmlns:xlink="http://www.w3.org/1999/xlink">
<g id="graph0" class="graph" transform="scale(1 1) rotate(0) translate(4 630)">
<title>main</title>
<!-- Node1 -->
<g id="Node000001" class="node"><title>Node1</title>
<g id="a_Node000001"><a xlink:title=" ">
<polygon fill="#999999" stroke="#666666" points="38,-463 0,-463 0,-444 38,-444 38,-463"/>
<text text-anchor="middle" x="19" y="-451" font-family="Helvetica,sans-Serif" font-size="10.00">main</text>
</a>
</g>
</g>
<!-- Node2 -->
<g id="Node000002" class="node"><title>Node2</title>
<g id="a_Node000002"><a xlink:href="group___basic_sorts.html#gac3903c3fd846908cd362e293ed40582e" target="_top" xlink:title="Třídění přímým vkládáním (Insert Sort)">
<polygon fill="white" stroke="#666666" points="279,-574 217,-574 217,-555 279,-555 279,-574"/>
<text text-anchor="middle" x="248" y="-562" font-family="Helvetica,sans-Serif" font-size="10.00">insert_sort</text>
</a>
</g>
</g>
<!-- Node1&#45;&gt;Node2 -->
<g id="edge1_Node000001_Node000002" class="edge"><title>Node1&#45;&gt;Node2</title>
<g id="a_edge1_Node000001_Node000002"><a xlink:title=" ">
<path fill="none" stroke="#63b8ff" d="M32.9767,-463.156C43.7101,-470.954 59.4914,-481.991 74,-490.5 122.35,-518.855 134.86,-525.929 187,-546.5 193.389,-549.021 200.278,-551.393 207.03,-553.537"/>
<polygon fill="#63b8ff" stroke="#63b8ff" points="206.166,-556.933 216.752,-556.506 208.21,-550.238 206.166,-556.933"/>
</a>
</g>
</g>
<!-- Node8 -->
<g id="Node000008" class="node"><title>Node8</title>
<g id="a_Node000008"><a xlink:href="group___advanced_sorts.html#gaa369b74c9050d30aa2416f9dba8cc8f5" target="_top" xlink:title="Rychlé třídění výměnou (Quick Sort) s volbou prostředního prvku jako pivota.">
<polygon fill="white" stroke="#666666" points="143.5,-482 81.5,-482 81.5,-463 143.5,-463 143.5,-482"/>
<text text-anchor="middle" x="112.5" y="-470" font-family="Helvetica,sans-Serif" font-size="10.00">quick_sort</text>
</a>
</g>
</g>
<!-- Node1&#45;&gt;Node8 -->
<g id="edge7_Node000001_Node000008" class="edge"><title>Node1&#45;&gt;Node8</title>
<g id="a_edge7_Node000001_Node000008"><a xlink:title=" ">
<path fill="none" stroke="#63b8ff" d="M38.0775,-457.254C47.584,-459.228 59.644,-461.732 71.2286,-464.138"/>
<polygon fill="#63b8ff" stroke="#63b8ff" points="70.7078,-467.604 81.2105,-466.21 72.131,-460.75 70.7078,-467.604"/>
</a>
</g>
</g>
<!-- Node12 -->
<g id="Node000012" class="node"><title>Node12</title>
<g id="a_Node000012"><a xlink:href="group___advanced_sorts.html#gaee070b00692f425d83eaea28b37bab2b" target="_top" xlink:title="Shellovo třídění vkládáním s ubývajícím krokem (Shell Sort) dle Hibbardovy posloupnosti.">
<polygon fill="white" stroke="#666666" points="277.5,-611 218.5,-611 218.5,-592 277.5,-592 277.5,-611"/>
<text text-anchor="middle" x="248" y="-599" font-family="Helvetica,sans-Serif" font-size="10.00">shell_sort</text>
</a>
</g>
</g>
<!-- Node1&#45;&gt;Node12 -->
<g id="edge14_Node000001_Node000012" class="edge"><title>Node1&#45;&gt;Node12</title>
<g id="a_edge14_Node000001_Node000012"><a xlink:title=" ">
<path fill="none" stroke="#63b8ff" d="M25.3371,-463.227C33.9413,-478.193 52.1442,-507.063 74,-525.5 113.766,-559.046 170.655,-580.195 208.191,-591.434"/>
<polygon fill="#63b8ff" stroke="#63b8ff" points="207.655,-594.922 218.234,-594.343 209.603,-588.199 207.655,-594.922"/>
</a>
</g>
</g>
<!-- Node13 -->
<g id="Node000013" class="node"><title>Node13</title>
<g id="a_Node000013"><a xlink:href="group___main_program.html#ga7343209645c93203da0a86613abfed04" target="_top" xlink:title="Testování třídicí metody.">
<polygon fill="white" stroke="#666666" points="146.5,-264 78.5,-264 78.5,-245 146.5,-245 146.5,-264"/>
<text text-anchor="middle" x="112.5" y="-252" font-family="Helvetica,sans-Serif" font-size="10.00">sort_testing</text>
</a>
</g>
</g>
<!-- Node1&#45;&gt;Node13 -->
<g id="edge19_Node000001_Node000013" class="edge"><title>Node1&#45;&gt;Node13</title>
<g id="a_edge19_Node000001_Node000013"><a xlink:title=" ">
<path fill="none" stroke="#63b8ff" d="M24.4132,-443.902C38.6959,-412.839 83.8351,-314.667 102.885,-273.237"/>
<polygon fill="#63b8ff" stroke="#63b8ff" points="106.133,-274.55 107.131,-264.002 99.7735,-271.625 106.133,-274.55"/>
</a>
</g>
</g>
<!-- Node20 -->
<g id="Node000020" class="node"><title>Node20</title>
<g id="a_Node000020"><a xlink:href="group___t_vector.html#ga41fcff5418fe213f2caaa586f521bcd6" target="_top" xlink:title="Dealokace vektoru.">
<polygon fill="white" stroke="#666666" points="448,-406 368,-406 368,-387 448,-387 448,-406"/>
<text text-anchor="middle" x="408" y="-394" font-family="Helvetica,sans-Serif" font-size="10.00">vector_destroy</text>
</a>
</g>
</g>
<!-- Node1&#45;&gt;Node20 -->
<g id="edge38_Node000001_Node000020" class="edge"><title>Node1&#45;&gt;Node20</title>
<g id="a_edge38_Node000001_Node000020"><a xlink:title=" ">
<path fill="none" stroke="#63b8ff" d="M38.1467,-450.827C95.0119,-442.452 271.098,-416.517 357.778,-403.75"/>
<polygon fill="#63b8ff" stroke="#63b8ff" points="358.508,-407.18 367.892,-402.26 357.488,-400.255 358.508,-407.18"/>
</a>
</g>
</g>
<!-- Node26 -->
<g id="Node000026" class="node"><title>Node26</title>
<g id="a_Node000026"><a xlink:href="group___t_vector.html#gac0009a6c19dd42237bbb6af9897f2e44" target="_top" xlink:title="Alokace vektoru a inicializace jeho elementů ze souboru.">
<polygon fill="white" stroke="#666666" points="151,-114 74,-114 74,-95 151,-95 151,-114"/>
<text text-anchor="middle" x="112.5" y="-102" font-family="Helvetica,sans-Serif" font-size="10.00">vector_init_file</text>
</a>
</g>
</g>
<!-- Node1&#45;&gt;Node26 -->
<g id="edge39_Node000001_Node000026" class="edge"><title>Node1&#45;&gt;Node26</title>
<g id="a_edge39_Node000001_Node000026"><a xlink:title=" ">
<path fill="none" stroke="#63b8ff" d="M22.2461,-443.906C29.4227,-413.373 52.5841,-315.742 74,-235.5 84.6277,-195.68 98.1578,-149.387 105.718,-123.874"/>
<polygon fill="#63b8ff" stroke="#63b8ff" points="109.158,-124.584 108.653,-114.001 102.448,-122.589 109.158,-124.584"/>
</a>
</g>
</g>
<!-- Node3 -->
<g id="Node000003" class="node"><title>Node3</title>
<g id="a_Node000003"><a xlink:href="group__sortable___t_vector.html#ga09e150aa4cdd8faabf43474ab1dbe454" target="_top" xlink:title="Porovnání mezi hodnotou elementu vektoru a hodnotou typu VectorElement.">
<polygon fill="white" stroke="#666666" points="470,-514.5 346,-514.5 346,-484.5 470,-484.5 470,-514.5"/>
<text text-anchor="start" x="354" y="-502.5" font-family="Helvetica,sans-Serif" font-size="10.00">vector_compare_position</text>
<text text-anchor="middle" x="408" y="-491.5" font-family="Helvetica,sans-Serif" font-size="10.00">_value</text>
</a>
</g>
</g>
<!-- Node2&#45;&gt;Node3 -->
<g id="edge2_Node000002_Node000003" class="edge"><title>Node2&#45;&gt;Node3</title>
<g id="a_edge2_Node000002_Node000003"><a xlink:title=" ">
<path fill="none" stroke="#63b8ff" d="M279.201,-557.207C288.925,-554.396 299.609,-550.807 309,-546.5 326.258,-538.585 328.063,-532.081 345,-523.5 348.337,-521.81 351.822,-520.163 355.365,-518.575"/>
<polygon fill="#63b8ff" stroke="#63b8ff" points="357.004,-521.68 364.816,-514.523 354.246,-515.247 357.004,-521.68"/>
</a>
</g>
</g>
<!-- Node5 -->
<g id="Node000005" class="node"><title>Node5</title>
<g id="a_Node000005"><a xlink:href="group__sortable___t_vector.html#ga16623c06371077674f5d4d31e38e42a4" target="_top" xlink:title="Přesun hodnoty elementu vektoru.">
<polygon fill="white" stroke="#666666" points="465,-589 351,-589 351,-570 465,-570 465,-589"/>
<text text-anchor="middle" x="408" y="-577" font-family="Helvetica,sans-Serif" font-size="10.00">vector_move_positions</text>
</a>
</g>
</g>
<!-- Node2&#45;&gt;Node5 -->
<g id="edge4_Node000002_Node000005" class="edge"><title>Node2&#45;&gt;Node5</title>
<g id="a_edge4_Node000002_Node000005"><a xlink:title=" ">
<path fill="none" stroke="#63b8ff" d="M279.09,-567.357C296.559,-569.015 319.288,-571.173 340.731,-573.209"/>
<polygon fill="#63b8ff" stroke="#63b8ff" points="340.51,-576.703 350.796,-574.164 341.172,-569.735 340.51,-576.703"/>
</a>
</g>
</g>
<!-- Node6 -->
<g id="Node000006" class="node"><title>Node6</title>
<g id="a_Node000006"><a xlink:href="group___t_vector.html#gabd5ba54950295545d27b1286234ead39" target="_top" xlink:title="Zapsání hodnoty elementu do vektoru na požadovanou pozici.">
<polygon fill="white" stroke="#666666" points="452,-626 364,-626 364,-607 452,-607 452,-626"/>
<text text-anchor="middle" x="408" y="-614" font-family="Helvetica,sans-Serif" font-size="10.00">vector_set_value</text>
</a>
</g>
</g>
<!-- Node2&#45;&gt;Node6 -->
<g id="edge5_Node000002_Node000006" class="edge"><title>Node2&#45;&gt;Node6</title>
<g id="a_edge5_Node000002_Node000006"><a xlink:title=" ">
<path fill="none" stroke="#63b8ff" d="M279.084,-573.457C288.703,-576.472 299.354,-579.971 309,-583.5 325.278,-589.456 328.651,-592.741 345,-598.5 350.486,-600.432 356.295,-602.321 362.071,-604.104"/>
<polygon fill="#63b8ff" stroke="#63b8ff" points="361.114,-607.471 371.698,-606.994 363.127,-600.766 361.114,-607.471"/>
</a>
</g>
</g>
<!-- Node7 -->
<g id="Node000007" class="node"><title>Node7</title>
<g id="a_Node000007"><a xlink:href="group___t_vector.html#ga2b08236d9825632cd96bcc89faed929c" target="_top" xlink:title="Přečtení hodnoty elementu z vektoru na požadované pozici.">
<polygon fill="white" stroke="#666666" points="442.5,-552 373.5,-552 373.5,-533 442.5,-533 442.5,-552"/>
<text text-anchor="middle" x="408" y="-540" font-family="Helvetica,sans-Serif" font-size="10.00">vector_value</text>
</a>
</g>
</g>
<!-- Node2&#45;&gt;Node7 -->
<g id="edge6_Node000002_Node000007" class="edge"><title>Node2&#45;&gt;Node7</title>
<g id="a_edge6_Node000002_Node000007"><a xlink:title=" ">
<path fill="none" stroke="#63b8ff" d="M279.09,-560.31C302.988,-556.983 336.729,-552.285 363.557,-548.549"/>
<polygon fill="#63b8ff" stroke="#63b8ff" points="364.044,-552.015 373.466,-547.169 363.079,-545.082 364.044,-552.015"/>
</a>
</g>
</g>
<!-- Node4 -->
<g id="Node000004" class="node"><title>Node4</title>
<g id="a_Node000004"><a xlink:href="group___t_vector_element.html#ga82e527836fce12c93af896f65e9f701d" target="_top" xlink:title="Porovnání dvou elementů">
<polygon fill="white" stroke="#666666" points="643,-437 507,-437 507,-418 643,-418 643,-437"/>
<text text-anchor="middle" x="575" y="-425" font-family="Helvetica,sans-Serif" font-size="10.00">vector_element_comparator</text>
</a>
</g>
</g>
<!-- Node3&#45;&gt;Node4 -->
<g id="edge3_Node000003_Node000004" class="edge"><title>Node3&#45;&gt;Node4</title>
<g id="a_edge3_Node000003_Node000004"><a xlink:title=" ">
<path fill="none" stroke="#63b8ff" d="M447.146,-484.431C455.059,-481.218 463.322,-477.798 471,-474.5 495.946,-463.785 523.957,-450.951 544.464,-441.403"/>
<polygon fill="#63b8ff" stroke="#63b8ff" points="546.022,-444.538 553.601,-437.135 543.059,-438.196 546.022,-444.538"/>
</a>
</g>
</g>
<!-- Node9 -->
<g id="Node000009" class="node"><title>Node9</title>
<g id="a_Node000009"><a xlink:href="advanced__sorts_8c.html#a0ae77c9640aa821e5507079ec5d2eb1d" target="_top" xlink:title="Vnitřní a lokální funkce realizující rekurzivní funkci pro metodu (Quick Sort)">
<polygon fill="white" stroke="#666666" points="295.5,-482 200.5,-482 200.5,-463 295.5,-463 295.5,-482"/>
<text text-anchor="middle" x="248" y="-470" font-family="Helvetica,sans-Serif" font-size="10.00">quick_sort_worker</text>
</a>
</g>
</g>
<!-- Node8&#45;&gt;Node9 -->
<g id="edge8_Node000008_Node000009" class="edge"><title>Node8&#45;&gt;Node9</title>
<g id="a_edge8_Node000008_Node000009"><a xlink:title=" ">
<path fill="none" stroke="#63b8ff" d="M143.793,-472.5C157.487,-472.5 174.135,-472.5 190.026,-472.5"/>
<polygon fill="#63b8ff" stroke="#63b8ff" points="190.321,-476 200.321,-472.5 190.321,-469 190.321,-476"/>
</a>
</g>
</g>
<!-- Node11 -->
<g id="Node000011" class="node"><title>Node11</title>
<g id="a_Node000011"><a xlink:href="group___t_vector.html#ga2502e6ec116dbac5e49f5b62b07dc898" target="_top" xlink:title="Přečtení počtu elementů vektoru.">
<polygon fill="white" stroke="#666666" points="280.5,-537 215.5,-537 215.5,-518 280.5,-518 280.5,-537"/>
<text text-anchor="middle" x="248" y="-525" font-family="Helvetica,sans-Serif" font-size="10.00">vector_size</text>
</a>
</g>
</g>
<!-- Node8&#45;&gt;Node11 -->
<g id="edge13_Node000008_Node000011" class="edge"><title>Node8&#45;&gt;Node11</title>
<g id="a_edge13_Node000008_Node000011"><a xlink:title=" ">
<path fill="none" stroke="#63b8ff" d="M131.284,-482.14C145.964,-489.869 167.479,-500.679 187,-508.5 192.924,-510.873 199.268,-513.153 205.532,-515.258"/>
<polygon fill="#63b8ff" stroke="#63b8ff" points="204.646,-518.65 215.238,-518.41 206.808,-511.992 204.646,-518.65"/>
</a>
</g>
</g>
<!-- Node9&#45;&gt;Node3 -->
<g id="edge10_Node000009_Node000003" class="edge"><title>Node9&#45;&gt;Node3</title>
<g id="a_edge10_Node000009_Node000003"><a xlink:title=" ">
<path fill="none" stroke="#63b8ff" d="M295.551,-480.455C308.223,-482.62 322.243,-485.016 335.941,-487.357"/>
<polygon fill="#63b8ff" stroke="#63b8ff" points="335.389,-490.813 345.835,-489.048 336.568,-483.913 335.389,-490.813"/>
</a>
</g>
</g>
<!-- Node9&#45;&gt;Node7 -->
<g id="edge12_Node000009_Node000007" class="edge"><title>Node9&#45;&gt;Node7</title>
<g id="a_edge12_Node000009_Node000007"><a xlink:title=" ">
<path fill="none" stroke="#63b8ff" d="M264.849,-482.133C283.519,-493.191 315.709,-511.362 345,-523.5 350.938,-525.961 357.311,-528.269 363.63,-530.37"/>
<polygon fill="#63b8ff" stroke="#63b8ff" points="362.854,-533.796 373.445,-533.494 364.977,-527.126 362.854,-533.796"/>
</a>
</g>
</g>
<!-- Node9&#45;&gt;Node9 -->
<g id="edge9_Node000009_Node000009" class="edge"><title>Node9&#45;&gt;Node9</title>
<g id="a_edge9_Node000009_Node000009"><a xlink:title=" ">
<path fill="none" stroke="#63b8ff" d="M227.347,-482.083C217.299,-490.734 224.184,-500 248,-500 263.257,-500 271.566,-496.197 272.925,-491.189"/>
<polygon fill="#63b8ff" stroke="#63b8ff" points="276.069,-489.65 268.653,-482.083 269.732,-492.623 276.069,-489.65"/>
</a>
</g>
</g>
<!-- Node10 -->
<g id="Node000010" class="node"><title>Node10</title>
<g id="a_Node000010"><a xlink:href="group__sortable___t_vector.html#gac1982d8a0e5f66f933dc6a0413f2d23e" target="_top" xlink:title="Výměna hodnot elementů vektorů">
<polygon fill="white" stroke="#666666" points="465,-466 351,-466 351,-447 465,-447 465,-466"/>
<text text-anchor="middle" x="408" y="-454" font-family="Helvetica,sans-Serif" font-size="10.00">vector_swap_positions</text>
</a>
</g>
</g>
<!-- Node9&#45;&gt;Node10 -->
<g id="edge11_Node000009_Node000010" class="edge"><title>Node9&#45;&gt;Node10</title>
<g id="a_edge11_Node000009_Node000010"><a xlink:title=" ">
<path fill="none" stroke="#63b8ff" d="M295.551,-467.786C309.603,-466.363 325.313,-464.772 340.404,-463.244"/>
<polygon fill="#63b8ff" stroke="#63b8ff" points="341.129,-466.689 350.725,-462.199 340.423,-459.724 341.129,-466.689"/>
</a>
</g>
</g>
<!-- Node12&#45;&gt;Node3 -->
<g id="edge15_Node000012_Node000003" class="edge"><title>Node12&#45;&gt;Node3</title>
<g id="a_edge15_Node000012_Node000003"><a xlink:title=" ">
<path fill="none" stroke="#63b8ff" d="M277.59,-597.416C288.272,-594.797 299.985,-590.51 309,-583.5 333.55,-564.411 321.212,-543.531 345,-523.5 346.523,-522.218 348.122,-520.999 349.781,-519.841"/>
<polygon fill="#63b8ff" stroke="#63b8ff" points="351.758,-522.735 358.485,-514.55 348.122,-516.754 351.758,-522.735"/>
</a>
</g>
</g>
<!-- Node12&#45;&gt;Node5 -->
<g id="edge16_Node000012_Node000005" class="edge"><title>Node12&#45;&gt;Node5</title>
<g id="a_edge16_Node000012_Node000005"><a xlink:title=" ">
<path fill="none" stroke="#63b8ff" d="M277.613,-597.516C295.273,-595.057 318.698,-591.795 340.76,-588.723"/>
<polygon fill="#63b8ff" stroke="#63b8ff" points="341.353,-592.175 350.775,-587.329 340.387,-585.241 341.353,-592.175"/>
</a>
</g>
</g>
<!-- Node12&#45;&gt;Node6 -->
<g id="edge17_Node000012_Node000006" class="edge"><title>Node12&#45;&gt;Node6</title>
<g id="a_edge17_Node000012_Node000006"><a xlink:title=" ">
<path fill="none" stroke="#63b8ff" d="M277.613,-604.216C298.716,-606.22 328.052,-609.005 353.456,-611.417"/>
<polygon fill="#63b8ff" stroke="#63b8ff" points="353.414,-614.928 363.7,-612.389 354.076,-607.96 353.414,-614.928"/>
</a>
</g>
</g>
<!-- Node12&#45;&gt;Node7 -->
<g id="edge18_Node000012_Node000007" class="edge"><title>Node12&#45;&gt;Node7</title>
<g id="a_edge18_Node000012_Node000007"><a xlink:title=" ">
<path fill="none" stroke="#63b8ff" d="M277.624,-594.534C287.742,-591.651 299.07,-587.935 309,-583.5 326.121,-575.854 327.901,-569.197 345,-561.5 350.861,-558.862 357.192,-556.455 363.491,-554.308"/>
<polygon fill="#63b8ff" stroke="#63b8ff" points="364.846,-557.549 373.292,-551.152 362.7,-550.886 364.846,-557.549"/>
</a>
</g>
</g>
<!-- Node14 -->
<g id="Node000014" class="node"><title>Node14</title>
<g id="a_Node000014"><a xlink:href="main__support_8h.html#aa291195ad453d2b1e29004cc2e043c01" target="_top" xlink:title="Výpočet doby trvání časového intervalu.">
<polygon fill="white" stroke="#666666" points="282,-208 214,-208 214,-189 282,-189 282,-208"/>
<text text-anchor="middle" x="248" y="-196" font-family="Helvetica,sans-Serif" font-size="10.00">difftimespec</text>
</a>
</g>
</g>
<!-- Node13&#45;&gt;Node14 -->
<g id="edge20_Node000013_Node000014" class="edge"><title>Node13&#45;&gt;Node14</title>
<g id="a_edge20_Node000013_Node000014"><a xlink:title=" ">
<path fill="none" stroke="#63b8ff" d="M129.725,-244.997C144.351,-236.704 166.625,-224.74 187,-216.5 192.49,-214.28 198.359,-212.19 204.198,-210.275"/>
<polygon fill="#63b8ff" stroke="#63b8ff" points="205.428,-213.557 213.922,-207.225 203.333,-206.878 205.428,-213.557"/>
</a>
</g>
</g>
<!-- Node15 -->
<g id="Node000015" class="node"><title>Node15</title>
<g id="a_Node000015"><a xlink:href="group___basic_sorts.html#ga25c7ac8991c266d71b75cf20c14b67cf" target="_top" xlink:title="Vytisknutí elementu vektoru pomocí iterátoru.">
<polygon fill="white" stroke="#666666" points="285.5,-75 210.5,-75 210.5,-56 285.5,-56 285.5,-75"/>
<text text-anchor="middle" x="248" y="-63" font-family="Helvetica,sans-Serif" font-size="10.00">print_element</text>
</a>
</g>
</g>
<!-- Node13&#45;&gt;Node15 -->
<g id="edge21_Node000013_Node000015" class="edge"><title>Node13&#45;&gt;Node15</title>
<g id="a_edge21_Node000013_Node000015"><a xlink:title=" ">
<path fill="none" stroke="#63b8ff" d="M116.126,-244.966C123.543,-219.45 146.77,-148.489 187,-103.5 195.391,-94.1163 206.632,-86.1734 217.115,-80.0146"/>
<polygon fill="#63b8ff" stroke="#63b8ff" points="218.99,-82.9772 226.042,-75.0702 215.598,-76.8538 218.99,-82.9772"/>
</a>
</g>
</g>
<!-- Node18 -->
<g id="Node000018" class="node"><title>Node18</title>
<g id="a_Node000018"><a xlink:href="group___t_vector_iterator.html#ga3f8a97a63f887539e270f6845bf22b9a" target="_top" xlink:title="Zjištění platnosti iterátoru.">
<polygon fill="white" stroke="#666666" points="620,-118.5 530,-118.5 530,-88.5 620,-88.5 620,-118.5"/>
<text text-anchor="start" x="538" y="-106.5" font-family="Helvetica,sans-Serif" font-size="10.00">vector_iterator_is</text>
<text text-anchor="middle" x="575" y="-95.5" font-family="Helvetica,sans-Serif" font-size="10.00">_valid</text>
</a>
</g>
</g>
<!-- Node13&#45;&gt;Node18 -->
<g id="edge36_Node000013_Node000018" class="edge"><title>Node13&#45;&gt;Node18</title>
<g id="a_edge36_Node000013_Node000018"><a xlink:title=" ">
<path fill="none" stroke="#63b8ff" d="M119.643,-244.959C130.825,-228.483 156.217,-194.981 187,-179.5 300.823,-122.256 347.265,-170.868 471,-140.5 490.151,-135.8 510.702,-128.83 528.371,-122.203"/>
<polygon fill="#63b8ff" stroke="#63b8ff" points="529.773,-125.414 537.863,-118.573 527.272,-118.876 529.773,-125.414"/>
</a>
</g>
</g>
<!-- Node19 -->
<g id="Node000019" class="node"><title>Node19</title>
<g id="a_Node000019"><a xlink:href="group___t_vector.html#ga6b0b8780d60dad02b8569be119769548" target="_top" xlink:title="Vytvoření úplné kopie vektoru.">
<polygon fill="white" stroke="#666666" points="443.5,-323 372.5,-323 372.5,-304 443.5,-304 443.5,-323"/>
<text text-anchor="middle" x="408" y="-311" font-family="Helvetica,sans-Serif" font-size="10.00">vector_clone</text>
</a>
</g>
</g>
<!-- Node13&#45;&gt;Node19 -->
<g id="edge25_Node000013_Node000019" class="edge"><title>Node13&#45;&gt;Node19</title>
<g id="a_edge25_Node000013_Node000019"><a xlink:title=" ">
<path fill="none" stroke="#63b8ff" d="M128.91,-264.049C143.353,-272.503 165.833,-284.418 187,-290.5 246.067,-307.473 317.259,-312.213 362.333,-313.382"/>
<polygon fill="#63b8ff" stroke="#63b8ff" points="362.301,-316.882 372.373,-313.595 362.449,-309.884 362.301,-316.882"/>
</a>
</g>
</g>
<!-- Node13&#45;&gt;Node20 -->
<g id="edge26_Node000013_Node000020" class="edge"><title>Node13&#45;&gt;Node20</title>
<g id="a_edge26_Node000013_Node000020"><a xlink:title=" ">
<path fill="none" stroke="#63b8ff" d="M116.041,-264.331C122.85,-288.457 143.981,-350.58 187,-377.5 238.47,-409.709 310.459,-409.337 357.878,-404.369"/>
<polygon fill="#63b8ff" stroke="#63b8ff" points="358.369,-407.836 367.902,-403.213 357.567,-400.882 358.369,-407.836"/>
</a>
</g>
</g>
<!-- Node21 -->
<g id="Node000021" class="node"><title>Node21</title>
<g id="a_Node000021"><a xlink:href="group___iterator_algorithms.html#gac5ae89ba507530f7c51c45447efbe4ac" target="_top" xlink:title="Zavolání zvolené funkce na prvních N elementů vektoru od pozice určené iterátorem.">
<polygon fill="white" stroke="#666666" points="282,-132 214,-132 214,-113 282,-113 282,-132"/>
<text text-anchor="middle" x="248" y="-120" font-family="Helvetica,sans-Serif" font-size="10.00">vector_for_n</text>
</a>
</g>
</g>
<!-- Node13&#45;&gt;Node21 -->
<g id="edge27_Node000013_Node000021" class="edge"><title>Node13&#45;&gt;Node21</title>
<g id="a_edge27_Node000013_Node000021"><a xlink:title=" ">
<path fill="none" stroke="#63b8ff" d="M117.718,-244.712C127.17,-223.852 151.994,-174.628 187,-146.5 192.288,-142.251 198.426,-138.67 204.717,-135.679"/>
<polygon fill="#63b8ff" stroke="#63b8ff" points="206.154,-138.871 213.962,-131.709 203.392,-132.439 206.154,-138.871"/>
</a>
</g>
</g>
<!-- Node23 -->
<g id="Node000023" class="node"><title>Node23</title>
<g id="a_Node000023"><a xlink:href="group__sortable___t_vector.html#ga1b7a4850be6488c69c293bdd13f729a7" target="_top" xlink:title="Ověření korektního setřídění vektoru.">
<polygon fill="white" stroke="#666666" points="304.5,-368.5 191.5,-368.5 191.5,-338.5 304.5,-338.5 304.5,-368.5"/>
<text text-anchor="start" x="199.5" y="-356.5" font-family="Helvetica,sans-Serif" font-size="10.00">vector_is_ascendantly</text>
<text text-anchor="middle" x="248" y="-345.5" font-family="Helvetica,sans-Serif" font-size="10.00">_sorted</text>
</a>
</g>
</g>
<!-- Node13&#45;&gt;Node23 -->
<g id="edge31_Node000013_Node000023" class="edge"><title>Node13&#45;&gt;Node23</title>
<g id="a_edge31_Node000013_Node000023"><a xlink:title=" ">
<path fill="none" stroke="#63b8ff" d="M121.764,-264.089C134.607,-278.565 160.633,-306.243 187,-324.5 191.753,-327.791 196.936,-330.902 202.201,-333.778"/>
<polygon fill="#63b8ff" stroke="#63b8ff" points="200.589,-336.885 211.077,-338.387 203.815,-330.672 200.589,-336.885"/>
</a>
</g>
</g>
<!-- Node24 -->
<g id="Node000024" class="node"><title>Node24</title>
<g id="a_Node000024"><a xlink:href="group___t_vector_iterator.html#ga40d7eff2ece0eb356d27cdcdef255560" target="_top" xlink:title="Vytvoření nového iterátoru ukazujícího na počáteční element.">
<polygon fill="white" stroke="#666666" points="301,-282 195,-282 195,-263 301,-263 301,-282"/>
<text text-anchor="middle" x="248" y="-270" font-family="Helvetica,sans-Serif" font-size="10.00">vector_iterator_begin</text>
</a>
</g>
</g>
<!-- Node13&#45;&gt;Node24 -->
<g id="edge35_Node000013_Node000024" class="edge"><title>Node13&#45;&gt;Node24</title>
<g id="a_edge35_Node000013_Node000024"><a xlink:title=" ">
<path fill="none" stroke="#63b8ff" d="M146.5,-258.949C158.129,-260.517 171.613,-262.335 184.854,-264.121"/>
<polygon fill="#63b8ff" stroke="#63b8ff" points="184.519,-267.607 194.897,-265.475 185.454,-260.67 184.519,-267.607"/>
</a>
</g>
</g>
<!-- Node25 -->
<g id="Node000025" class="node"><title>Node25</title>
<g id="a_Node000025"><a xlink:href="group__sortable___t_vector.html#gac0806530378fe49a3d61622ca8b9957e" target="_top" xlink:title="Zobrazení hodnoty statistik počtu operací s elementy vektoru.">
<polygon fill="white" stroke="#666666" points="303,-245 193,-245 193,-226 303,-226 303,-245"/>
<text text-anchor="middle" x="248" y="-233" font-family="Helvetica,sans-Serif" font-size="10.00">vector_print_sortstats</text>
</a>
</g>
</g>
<!-- Node13&#45;&gt;Node25 -->
<g id="edge37_Node000013_Node000025" class="edge"><title>Node13&#45;&gt;Node25</title>
<g id="a_edge37_Node000013_Node000025"><a xlink:title=" ">
<path fill="none" stroke="#63b8ff" d="M146.5,-249.803C157.528,-248.234 170.223,-246.427 182.798,-244.637"/>
<polygon fill="#63b8ff" stroke="#63b8ff" points="183.415,-248.085 192.822,-243.211 182.429,-241.155 183.415,-248.085"/>
</a>
</g>
</g>
<!-- Node16 -->
<g id="Node000016" class="node"><title>Node16</title>
<g id="a_Node000016"><a xlink:href="group___t_vector_element.html#gaaae5b52d7f1d155134792f040f00a385" target="_top" xlink:title="Uložení elementu do souboru.">
<polygon fill="white" stroke="#666666" points="471,-56 345,-56 345,-37 471,-37 471,-56"/>
<text text-anchor="middle" x="408" y="-44" font-family="Helvetica,sans-Serif" font-size="10.00">vector_element_store_file</text>
</a>
</g>
</g>
<!-- Node15&#45;&gt;Node16 -->
<g id="edge22_Node000015_Node000016" class="edge"><title>Node15&#45;&gt;Node16</title>
<g id="a_edge22_Node000015_Node000016"><a xlink:title=" ">
<path fill="none" stroke="#63b8ff" d="M285.646,-61.0933C300.353,-59.3246 317.842,-57.2216 334.898,-55.1705"/>
<polygon fill="#63b8ff" stroke="#63b8ff" points="335.355,-58.6408 344.866,-53.9718 334.52,-51.6909 335.355,-58.6408"/>
</a>
</g>
</g>
<!-- Node17 -->
<g id="Node000017" class="node"><title>Node17</title>
<g id="a_Node000017"><a xlink:href="group___t_vector_iterator.html#ga4d8032eb9dbbdccf794611f2b0c9821c" target="_top" xlink:title="Přečtení hodnoty elementu z vektoru pomocí iterátoru.">
<polygon fill="white" stroke="#666666" points="460,-19 356,-19 356,-0 460,-0 460,-19"/>
<text text-anchor="middle" x="408" y="-7" font-family="Helvetica,sans-Serif" font-size="10.00">vector_iterator_value</text>
</a>
</g>
</g>
<!-- Node15&#45;&gt;Node17 -->
<g id="edge23_Node000015_Node000017" class="edge"><title>Node15&#45;&gt;Node17</title>
<g id="a_edge23_Node000015_Node000017"><a xlink:title=" ">
<path fill="none" stroke="#63b8ff" d="M282.706,-55.991C291.385,-53.2269 300.633,-49.9994 309,-46.5 325.691,-39.519 328.226,-34.2792 345,-27.5 349.749,-25.5805 354.779,-23.7727 359.837,-22.0978"/>
<polygon fill="#63b8ff" stroke="#63b8ff" points="361.046,-25.3867 369.535,-19.0465 358.945,-18.7095 361.046,-25.3867"/>
</a>
</g>
</g>
<!-- Node17&#45;&gt;Node18 -->
<g id="edge24_Node000017_Node000018" class="edge"><title>Node17&#45;&gt;Node18</title>
<g id="a_edge24_Node000017_Node000018"><a xlink:title=" ">
<path fill="none" stroke="#63b8ff" d="M449.475,-19.0047C456.813,-21.3531 464.268,-24.172 471,-27.5 500.24,-41.9551 529.81,-64.818 549.719,-81.6956"/>
<polygon fill="#63b8ff" stroke="#63b8ff" points="547.513,-84.4145 557.372,-88.2932 552.083,-79.1127 547.513,-84.4145"/>
</a>
</g>
</g>
<!-- Node21&#45;&gt;Node18 -->
<g id="edge28_Node000021_Node000018" class="edge"><title>Node21&#45;&gt;Node18</title>
<g id="a_edge28_Node000021_Node000018"><a xlink:title=" ">
<path fill="none" stroke="#63b8ff" d="M282.083,-114.293C300.48,-110.15 323.864,-105.572 345,-103.5 404.592,-97.6595 473.327,-98.6911 519.821,-100.53"/>
<polygon fill="#63b8ff" stroke="#63b8ff" points="519.836,-104.034 529.975,-100.959 520.131,-97.0403 519.836,-104.034"/>
</a>
</g>
</g>
<!-- Node22 -->
<g id="Node000022" class="node"><title>Node22</title>
<g id="a_Node000022"><a xlink:href="group___t_vector_iterator.html#ga7ce07cda016d67e3ca891125613ece56" target="_top" xlink:title="Posunutí iterátoru vpřed.">
<polygon fill="white" stroke="#666666" points="465.5,-132 350.5,-132 350.5,-113 465.5,-113 465.5,-132"/>
<text text-anchor="middle" x="408" y="-120" font-family="Helvetica,sans-Serif" font-size="10.00">vector_iterator_to_next</text>
</a>
</g>
</g>
<!-- Node21&#45;&gt;Node22 -->
<g id="edge29_Node000021_Node000022" class="edge"><title>Node21&#45;&gt;Node22</title>
<g id="a_edge29_Node000021_Node000022"><a xlink:title=" ">
<path fill="none" stroke="#63b8ff" d="M282.122,-122.5C298.998,-122.5 320.147,-122.5 340.219,-122.5"/>
<polygon fill="#63b8ff" stroke="#63b8ff" points="340.274,-126 350.274,-122.5 340.274,-119 340.274,-126"/>
</a>
</g>
</g>
<!-- Node22&#45;&gt;Node18 -->
<g id="edge30_Node000022_Node000018" class="edge"><title>Node22&#45;&gt;Node18</title>
<g id="a_edge30_Node000022_Node000018"><a xlink:title=" ">
<path fill="none" stroke="#63b8ff" d="M465.784,-115.961C483.317,-113.942 502.572,-111.725 519.918,-109.728"/>
<polygon fill="#63b8ff" stroke="#63b8ff" points="520.349,-113.201 529.883,-108.58 519.548,-106.247 520.349,-113.201"/>
</a>
</g>
</g>
<!-- Node23&#45;&gt;Node4 -->
<g id="edge34_Node000023_Node000004" class="edge"><title>Node23&#45;&gt;Node4</title>
<g id="a_edge34_Node000023_Node000004"><a xlink:title=" ">
<path fill="none" stroke="#63b8ff" d="M304.753,-354.25C350.275,-356.109 415.857,-361.655 471,-377.5 499.367,-385.651 529.479,-401.168 549.768,-412.763"/>
<polygon fill="#63b8ff" stroke="#63b8ff" points="548.222,-415.914 558.622,-417.933 551.751,-409.868 548.222,-415.914"/>
</a>
</g>
</g>
<!-- Node23&#45;&gt;Node19 -->
<g id="edge32_Node000023_Node000019" class="edge"><title>Node23&#45;&gt;Node19</title>
<g id="a_edge32_Node000023_Node000019"><a xlink:title=" ">
<path fill="none" stroke="#63b8ff" d="M304.705,-339.397C323.658,-334.599 344.575,-329.304 362.529,-324.758"/>
<polygon fill="#63b8ff" stroke="#63b8ff" points="363.609,-328.096 372.444,-322.248 361.891,-321.31 363.609,-328.096"/>
</a>
</g>
</g>
<!-- Node23&#45;&gt;Node20 -->
<g id="edge33_Node000023_Node000020" class="edge"><title>Node23&#45;&gt;Node20</title>
<g id="a_edge33_Node000023_Node000020"><a xlink:title=" ">
<path fill="none" stroke="#63b8ff" d="M304.261,-368.539C323.182,-373.689 344.106,-379.383 362.107,-384.282"/>
<polygon fill="#63b8ff" stroke="#63b8ff" points="361.207,-387.665 371.775,-386.914 363.045,-380.91 361.207,-387.665"/>
</a>
</g>
</g>
<!-- Node27 -->
<g id="Node000027" class="node"><title>Node27</title>
<g id="a_Node000027"><a xlink:href="group___t_vector_element.html#gaf9a34133c2292f807fe184c72fd3f8d8" target="_top" xlink:title="Načtení elementu ze souboru.">
<polygon fill="white" stroke="#666666" points="309,-38 187,-38 187,-19 309,-19 309,-38"/>
<text text-anchor="middle" x="248" y="-26" font-family="Helvetica,sans-Serif" font-size="10.00">vector_element_load_file</text>
</a>
</g>
</g>
<!-- Node26&#45;&gt;Node27 -->
<g id="edge40_Node000026_Node000027" class="edge"><title>Node26&#45;&gt;Node27</title>
<g id="a_edge40_Node000026_Node000027"><a xlink:title=" ">
<path fill="none" stroke="#63b8ff" d="M123.112,-94.9165C136.398,-82.1671 161.621,-59.7049 187,-46.5 190.482,-44.6882 194.175,-43.0295 197.95,-41.5167"/>
<polygon fill="#63b8ff" stroke="#63b8ff" points="199.239,-44.7723 207.43,-38.0528 196.836,-38.1975 199.239,-44.7723"/>
</a>
</g>
</g>
</g>
</svg>
