<?xml version="1.0" encoding="UTF-8" standalone="no"?>
<!DOCTYPE svg PUBLIC "-//W3C//DTD SVG 1.1//EN"
 "http://www.w3.org/Graphics/SVG/1.1/DTD/svg11.dtd">
<!-- Generated by graphviz version 2.38.0 (20140413.2041)
 -->
<!-- Title: vector_compare_positions Pages: 1 -->
<svg width="292pt" height="224pt"
 viewBox="0.00 0.00 292.00 223.50" xmlns="http://www.w3.org/2000/svg" xmlns:xlink="http://www.w3.org/1999/xlink">
<g id="graph0" class="graph" transform="scale(1 1) rotate(0) translate(4 219.5)">
<title>vector_compare_positions</title>
<!-- Node1 -->
<g id="Node000001" class="node"><title>Node1</title>
<g id="a_Node000001"><a xlink:title="Porovnání hodnot elementů vektorů">
<polygon fill="#999999" stroke="#666666" points="284,-122.5 155,-122.5 155,-103.5 284,-103.5 284,-122.5"/>
<text text-anchor="middle" x="219.5" y="-110.5" font-family="Helvetica,sans-Serif" font-size="10.00">vector_compare_positions</text>
</a>
</g>
</g>
<!-- Node2 -->
<g id="Node000002" class="node"><title>Node2</title>
<g id="a_Node000002"><a xlink:href="group___basic_sorts.html#gaa1ef093f5205f293df8303ac228452fc" target="_top" xlink:title="Třídění přímou výměnou (Bubble Sort)">
<polygon fill="white" stroke="#666666" points="93,-215.5 26,-215.5 26,-196.5 93,-196.5 93,-215.5"/>
<text text-anchor="middle" x="59.5" y="-203.5" font-family="Helvetica,sans-Serif" font-size="10.00">bubble_sort</text>
</a>
</g>
</g>
<!-- Node1&#45;&gt;Node2 -->
<g id="edge1_Node000001_Node000002" class="edge"><title>Node1&#45;&gt;Node2</title>
<g id="a_edge1_Node000001_Node000002"><a xlink:title=" ">
<path fill="none" stroke="#63b8ff" d="M200.738,-129.455C181.773,-146.253 150.213,-172.058 119,-188 110.956,-192.108 101.805,-195.473 93.1678,-198.135"/>
<polygon fill="#63b8ff" stroke="#63b8ff" points="203.202,-131.946 208.288,-122.651 198.516,-126.746 203.202,-131.946"/>
</a>
</g>
</g>
<!-- Node3 -->
<g id="Node000003" class="node"><title>Node3</title>
<g id="a_Node000003"><a xlink:href="group___basic_sorts.html#ga62a36eb31bf0a873f7c027e145843b1a" target="_top" xlink:title="Třídění přímou výměnou včetně optimalizace s pomocným příznakem ukončení třídění (Bubble Sort Optimiz...">
<polygon fill="white" stroke="#666666" points="116.5,-178.5 2.5,-178.5 2.5,-159.5 116.5,-159.5 116.5,-178.5"/>
<text text-anchor="middle" x="59.5" y="-166.5" font-family="Helvetica,sans-Serif" font-size="10.00">bubble_sort_optimized</text>
</a>
</g>
</g>
<!-- Node1&#45;&gt;Node3 -->
<g id="edge2_Node000001_Node000003" class="edge"><title>Node1&#45;&gt;Node3</title>
<g id="a_edge2_Node000001_Node000003"><a xlink:title=" ">
<path fill="none" stroke="#63b8ff" d="M185.414,-126.267C166.151,-133.833 141.332,-143.309 119,-151 110.56,-153.906 101.361,-156.843 92.8088,-159.478"/>
<polygon fill="#63b8ff" stroke="#63b8ff" points="186.924,-129.434 194.939,-122.505 184.352,-122.923 186.924,-129.434"/>
</a>
</g>
</g>
<!-- Node4 -->
<g id="Node000004" class="node"><title>Node4</title>
<g id="a_Node000004"><a xlink:href="group___basic_sorts.html#gaba41a68f00241f38f7864b4e1dacd086" target="_top" xlink:title="Třídění přímou výměnou včetně optimalizace s výpočtem indexu poslední změny (Bubble Sort Optimized2)">
<polygon fill="white" stroke="#666666" points="119,-141.5 -7.10543e-015,-141.5 -7.10543e-015,-122.5 119,-122.5 119,-141.5"/>
<text text-anchor="middle" x="59.5" y="-129.5" font-family="Helvetica,sans-Serif" font-size="10.00">bubble_sort_optimized2</text>
</a>
</g>
</g>
<!-- Node1&#45;&gt;Node4 -->
<g id="edge3_Node000001_Node000004" class="edge"><title>Node1&#45;&gt;Node4</title>
<g id="a_edge3_Node000001_Node000004"><a xlink:title=" ">
<path fill="none" stroke="#63b8ff" d="M144.705,-121.874C136.145,-122.903 127.504,-123.943 119.185,-124.943"/>
<polygon fill="#63b8ff" stroke="#63b8ff" points="145.18,-125.342 154.691,-120.673 144.344,-118.392 145.18,-125.342"/>
</a>
</g>
</g>
<!-- Node5 -->
<g id="Node000005" class="node"><title>Node5</title>
<g id="a_Node000005"><a xlink:href="group___basic_sorts.html#ga3688a58781905ac2e518285b8bb711ec" target="_top" xlink:title="Třídění přímým výběrem (Select Sort)">
<polygon fill="white" stroke="#666666" points="92,-104.5 27,-104.5 27,-85.5 92,-85.5 92,-104.5"/>
<text text-anchor="middle" x="59.5" y="-92.5" font-family="Helvetica,sans-Serif" font-size="10.00">select_sort</text>
</a>
</g>
</g>
<!-- Node1&#45;&gt;Node5 -->
<g id="edge4_Node000001_Node000005" class="edge"><title>Node1&#45;&gt;Node5</title>
<g id="a_edge4_Node000001_Node000005"><a xlink:title=" ">
<path fill="none" stroke="#63b8ff" d="M144.741,-104.597C126.174,-102.482 107.218,-100.322 92.0022,-98.5889"/>
<polygon fill="#63b8ff" stroke="#63b8ff" points="144.359,-108.076 154.691,-105.731 145.151,-101.121 144.359,-108.076"/>
</a>
</g>
</g>
<!-- Node6 -->
<g id="Node000006" class="node"><title>Node6</title>
<g id="a_Node000006"><a xlink:href="group___basic_sorts.html#gaacee5d609500566a6ad1724486ab8bb2" target="_top" xlink:title="Třídění přímou výměnou se změnou postupu třídění (Shaker Sort)">
<polygon fill="white" stroke="#666666" points="93.5,-67.5 25.5,-67.5 25.5,-48.5 93.5,-48.5 93.5,-67.5"/>
<text text-anchor="middle" x="59.5" y="-55.5" font-family="Helvetica,sans-Serif" font-size="10.00">shaker_sort</text>
</a>
</g>
</g>
<!-- Node1&#45;&gt;Node6 -->
<g id="edge5_Node000001_Node000006" class="edge"><title>Node1&#45;&gt;Node6</title>
<g id="a_edge5_Node000001_Node000006"><a xlink:title=" ">
<path fill="none" stroke="#63b8ff" d="M183.362,-99.9657C164.361,-92.9984 140.455,-84.363 119,-77 109.809,-73.8456 99.76,-70.533 90.6247,-67.5733"/>
<polygon fill="#63b8ff" stroke="#63b8ff" points="182.219,-103.275 192.813,-103.442 184.636,-96.7048 182.219,-103.275"/>
</a>
</g>
</g>
<!-- Node7 -->
<g id="Node000007" class="node"><title>Node7</title>
<g id="a_Node000007"><a xlink:href="group__sortable___t_vector_iterator.html#gadd8aded92ce2c6402742a57316412d39" target="_top" xlink:title="Porovnání hodnot elementů vektorů určených dvěma iterátory.">
<polygon fill="white" stroke="#666666" points="113,-30 6,-30 6,-0 113,-0 113,-30"/>
<text text-anchor="start" x="14" y="-18" font-family="Helvetica,sans-Serif" font-size="10.00">vector_compare_with</text>
<text text-anchor="middle" x="59.5" y="-7" font-family="Helvetica,sans-Serif" font-size="10.00">_iterators</text>
</a>
</g>
</g>
<!-- Node1&#45;&gt;Node7 -->
<g id="edge6_Node000001_Node000007" class="edge"><title>Node1&#45;&gt;Node7</title>
<g id="a_edge6_Node000001_Node000007"><a xlink:title=" ">
<path fill="none" stroke="#63b8ff" d="M199.364,-96.8929C179.967,-81.076 148.666,-56.923 119,-40 112.764,-36.4427 105.924,-33.0802 99.1873,-30.0428"/>
<polygon fill="#63b8ff" stroke="#63b8ff" points="197.209,-99.652 207.15,-103.317 201.664,-94.2527 197.209,-99.652"/>
</a>
</g>
</g>
</g>
</svg>
