<?xml version="1.0" encoding="UTF-8" standalone="no"?>
<!DOCTYPE svg PUBLIC "-//W3C//DTD SVG 1.1//EN"
 "http://www.w3.org/Graphics/SVG/1.1/DTD/svg11.dtd">
<!-- Generated by graphviz version 2.38.0 (20140413.2041)
 -->
<!-- Title: vector_value Pages: 1 -->
<svg width="380pt" height="111pt"
 viewBox="0.00 0.00 380.00 111.00" xmlns="http://www.w3.org/2000/svg" xmlns:xlink="http://www.w3.org/1999/xlink">
<g id="graph0" class="graph" transform="scale(1 1) rotate(0) translate(4 107)">
<title>vector_value</title>
<!-- Node1 -->
<g id="Node000001" class="node"><title>Node1</title>
<g id="a_Node000001"><a xlink:title="Přečtení hodnoty elementu z vektoru na požadované pozici.">
<polygon fill="#999999" stroke="#666666" points="372,-56 303,-56 303,-37 372,-37 372,-56"/>
<text text-anchor="middle" x="337.5" y="-44" font-family="Helvetica,sans-Serif" font-size="10.00">vector_value</text>
</a>
</g>
</g>
<!-- Node2 -->
<g id="Node000002" class="node"><title>Node2</title>
<g id="a_Node000002"><a xlink:href="group___basic_sorts.html#gac3903c3fd846908cd362e293ed40582e" target="_top" xlink:title="Třídění přímým vkládáním (Insert Sort)">
<polygon fill="white" stroke="#666666" points="136,-103 74,-103 74,-84 136,-84 136,-103"/>
<text text-anchor="middle" x="105" y="-91" font-family="Helvetica,sans-Serif" font-size="10.00">insert_sort</text>
</a>
</g>
</g>
<!-- Node1&#45;&gt;Node2 -->
<g id="edge1_Node000001_Node000002" class="edge"><title>Node1&#45;&gt;Node2</title>
<g id="a_edge1_Node000001_Node000002"><a xlink:title=" ">
<path fill="none" stroke="#63b8ff" d="M313.544,-61.436C300.454,-69.1547 283.426,-77.8996 267,-82.5 222.755,-94.8916 169.125,-95.9209 136.292,-95.0603"/>
<polygon fill="#63b8ff" stroke="#63b8ff" points="315.61,-64.2749 322.315,-56.0709 311.958,-58.3035 315.61,-64.2749"/>
</a>
</g>
</g>
<!-- Node4 -->
<g id="Node000004" class="node"><title>Node4</title>
<g id="a_Node000004"><a xlink:href="advanced__sorts_8c.html#a0ae77c9640aa821e5507079ec5d2eb1d" target="_top" xlink:title="Vnitřní a lokální funkce realizující rekurzivní funkci pro metodu (Quick Sort)">
<polygon fill="white" stroke="#666666" points="267,-56 172,-56 172,-37 267,-37 267,-56"/>
<text text-anchor="middle" x="219.5" y="-44" font-family="Helvetica,sans-Serif" font-size="10.00">quick_sort_worker</text>
</a>
</g>
</g>
<!-- Node1&#45;&gt;Node4 -->
<g id="edge3_Node000001_Node000004" class="edge"><title>Node1&#45;&gt;Node4</title>
<g id="a_edge3_Node000001_Node000004"><a xlink:title=" ">
<path fill="none" stroke="#63b8ff" d="M292.724,-46.5C284.434,-46.5 275.73,-46.5 267.35,-46.5"/>
<polygon fill="#63b8ff" stroke="#63b8ff" points="292.948,-50.0001 302.948,-46.5 292.948,-43.0001 292.948,-50.0001"/>
</a>
</g>
</g>
<!-- Node6 -->
<g id="Node000006" class="node"><title>Node6</title>
<g id="a_Node000006"><a xlink:href="group___advanced_sorts.html#gaee070b00692f425d83eaea28b37bab2b" target="_top" xlink:title="Shellovo třídění vkládáním s ubývajícím krokem (Shell Sort) dle Hibbardovy posloupnosti.">
<polygon fill="white" stroke="#666666" points="249,-19 190,-19 190,-0 249,-0 249,-19"/>
<text text-anchor="middle" x="219.5" y="-7" font-family="Helvetica,sans-Serif" font-size="10.00">shell_sort</text>
</a>
</g>
</g>
<!-- Node1&#45;&gt;Node6 -->
<g id="edge7_Node000001_Node000006" class="edge"><title>Node1&#45;&gt;Node6</title>
<g id="a_edge7_Node000001_Node000006"><a xlink:title=" ">
<path fill="none" stroke="#63b8ff" d="M296.681,-33.7991C281.032,-28.8075 263.418,-23.1893 249.072,-18.6134"/>
<polygon fill="#63b8ff" stroke="#63b8ff" points="296.036,-37.2672 306.627,-36.9716 298.164,-30.5982 296.036,-37.2672"/>
</a>
</g>
</g>
<!-- Node3 -->
<g id="Node000003" class="node"><title>Node3</title>
<g id="a_Node000003"><a xlink:href="group___main_program.html#ga0ddf1224851353fc92bfbff6f499fa97" target="_top" xlink:title=" ">
<polygon fill="white" stroke="#666666" points="38,-57 0,-57 0,-38 38,-38 38,-57"/>
<text text-anchor="middle" x="19" y="-45" font-family="Helvetica,sans-Serif" font-size="10.00">main</text>
</a>
</g>
</g>
<!-- Node2&#45;&gt;Node3 -->
<g id="edge2_Node000002_Node000003" class="edge"><title>Node2&#45;&gt;Node3</title>
<g id="a_edge2_Node000002_Node000003"><a xlink:title=" ">
<path fill="none" stroke="#63b8ff" d="M77.5539,-79.0176C64.4434,-71.8381 48.9784,-63.3691 37.3826,-57.019"/>
<polygon fill="#63b8ff" stroke="#63b8ff" points="76.1431,-82.2354 86.5951,-83.9688 79.5053,-76.0957 76.1431,-82.2354"/>
</a>
</g>
</g>
<!-- Node4&#45;&gt;Node4 -->
<g id="edge6_Node000004_Node000004" class="edge"><title>Node4&#45;&gt;Node4</title>
<g id="a_edge6_Node000004_Node000004"><a xlink:title=" ">
<path fill="none" stroke="#63b8ff" d="M240.61,-65.5536C239.2,-70.3804 232.164,-74 219.5,-74 199.238,-74 193.381,-64.7337 201.929,-56.0828"/>
<polygon fill="#63b8ff" stroke="#63b8ff" points="243.85,-64.2248 237.071,-56.0828 237.293,-66.6753 243.85,-64.2248"/>
</a>
</g>
</g>
<!-- Node5 -->
<g id="Node000005" class="node"><title>Node5</title>
<g id="a_Node000005"><a xlink:href="group___advanced_sorts.html#gaa369b74c9050d30aa2416f9dba8cc8f5" target="_top" xlink:title="Rychlé třídění výměnou (Quick Sort) s volbou prostředního prvku jako pivota.">
<polygon fill="white" stroke="#666666" points="136,-57 74,-57 74,-38 136,-38 136,-57"/>
<text text-anchor="middle" x="105" y="-45" font-family="Helvetica,sans-Serif" font-size="10.00">quick_sort</text>
</a>
</g>
</g>
<!-- Node4&#45;&gt;Node5 -->
<g id="edge4_Node000004_Node000005" class="edge"><title>Node4&#45;&gt;Node5</title>
<g id="a_edge4_Node000004_Node000005"><a xlink:title=" ">
<path fill="none" stroke="#63b8ff" d="M161.488,-47.0068C152.698,-47.0849 143.933,-47.1628 136.051,-47.2329"/>
<polygon fill="#63b8ff" stroke="#63b8ff" points="161.799,-50.5042 171.767,-46.9154 161.736,-43.5045 161.799,-50.5042"/>
</a>
</g>
</g>
<!-- Node5&#45;&gt;Node3 -->
<g id="edge5_Node000005_Node000003" class="edge"><title>Node5&#45;&gt;Node3</title>
<g id="a_edge5_Node000005_Node000003"><a xlink:title=" ">
<path fill="none" stroke="#63b8ff" d="M63.4561,-47.5C54.6389,-47.5 45.7361,-47.5 38.3044,-47.5"/>
<polygon fill="#63b8ff" stroke="#63b8ff" points="63.6741,-51.0001 73.6741,-47.5 63.674,-44.0001 63.6741,-51.0001"/>
</a>
</g>
</g>
<!-- Node6&#45;&gt;Node3 -->
<g id="edge8_Node000006_Node000003" class="edge"><title>Node6&#45;&gt;Node3</title>
<g id="a_edge8_Node000006_Node000003"><a xlink:title=" ">
<path fill="none" stroke="#63b8ff" d="M179.703,-12.4006C150.38,-15.1214 109.288,-20.0686 74,-28.5 61.8205,-31.41 48.5487,-36.0582 38.2104,-40.0286"/>
<polygon fill="#63b8ff" stroke="#63b8ff" points="180.287,-15.8626 189.941,-11.4965 179.671,-8.88977 180.287,-15.8626"/>
</a>
</g>
</g>
</g>
</svg>
