<?xml version="1.0" encoding="UTF-8" standalone="no"?>
<!DOCTYPE svg PUBLIC "-//W3C//DTD SVG 1.1//EN"
 "http://www.w3.org/Graphics/SVG/1.1/DTD/svg11.dtd">
<!-- Generated by graphviz version 2.38.0 (20140413.2041)
 -->
<!-- Title: vector_iterator_to_next Pages: 1 -->
<svg width="421pt" height="64pt"
 viewBox="0.00 0.00 421.00 64.00" xmlns="http://www.w3.org/2000/svg" xmlns:xlink="http://www.w3.org/1999/xlink">
<g id="graph0" class="graph" transform="scale(1 1) rotate(0) translate(4 60)">
<title>vector_iterator_to_next</title>
<!-- Node1 -->
<g id="Node000001" class="node"><title>Node1</title>
<g id="a_Node000001"><a xlink:title="Posunutí iterátoru vpřed.">
<polygon fill="#999999" stroke="#666666" points="413,-37 298,-37 298,-18 413,-18 413,-37"/>
<text text-anchor="middle" x="355.5" y="-25" font-family="Helvetica,sans-Serif" font-size="10.00">vector_iterator_to_next</text>
</a>
</g>
</g>
<!-- Node2 -->
<g id="Node000002" class="node"><title>Node2</title>
<g id="a_Node000002"><a xlink:href="group___iterator_algorithms.html#gad9872ced82843c0e0864a8e2547ca579" target="_top" xlink:title="Zavolání zvolené funkce na každý element vektoru od pozice určené iterátorem až do konce vektoru.">
<polygon fill="white" stroke="#666666" points="262,-56 178,-56 178,-37 262,-37 262,-56"/>
<text text-anchor="middle" x="220" y="-44" font-family="Helvetica,sans-Serif" font-size="10.00">vector_for_each</text>
</a>
</g>
</g>
<!-- Node1&#45;&gt;Node2 -->
<g id="edge1_Node000001_Node000002" class="edge"><title>Node1&#45;&gt;Node2</title>
<g id="a_edge1_Node000001_Node000002"><a xlink:title=" ">
<path fill="none" stroke="#63b8ff" d="M287.74,-37.0014C279.07,-38.2354 270.4,-39.4694 262.315,-40.62"/>
<polygon fill="#63b8ff" stroke="#63b8ff" points="288.477,-40.4319 297.884,-35.5577 287.491,-33.5017 288.477,-40.4319"/>
</a>
</g>
</g>
<!-- Node3 -->
<g id="Node000003" class="node"><title>Node3</title>
<g id="a_Node000003"><a xlink:href="group___iterator_algorithms.html#gac5ae89ba507530f7c51c45447efbe4ac" target="_top" xlink:title="Zavolání zvolené funkce na prvních N elementů vektoru od pozice určené iterátorem.">
<polygon fill="white" stroke="#666666" points="254,-19 186,-19 186,-0 254,-0 254,-19"/>
<text text-anchor="middle" x="220" y="-7" font-family="Helvetica,sans-Serif" font-size="10.00">vector_for_n</text>
</a>
</g>
</g>
<!-- Node1&#45;&gt;Node3 -->
<g id="edge2_Node000001_Node000003" class="edge"><title>Node1&#45;&gt;Node3</title>
<g id="a_edge2_Node000001_Node000003"><a xlink:title=" ">
<path fill="none" stroke="#63b8ff" d="M287.67,-18.4892C276.007,-16.9167 264.347,-15.3446 254.115,-13.965"/>
<polygon fill="#63b8ff" stroke="#63b8ff" points="287.506,-21.9987 297.884,-19.8664 288.441,-15.0615 287.506,-21.9987"/>
</a>
</g>
</g>
<!-- Node4 -->
<g id="Node000004" class="node"><title>Node4</title>
<g id="a_Node000004"><a xlink:href="group___main_program.html#ga7343209645c93203da0a86613abfed04" target="_top" xlink:title="Testování třídicí metody.">
<polygon fill="white" stroke="#666666" points="142,-19 74,-19 74,-0 142,-0 142,-19"/>
<text text-anchor="middle" x="108" y="-7" font-family="Helvetica,sans-Serif" font-size="10.00">sort_testing</text>
</a>
</g>
</g>
<!-- Node3&#45;&gt;Node4 -->
<g id="edge3_Node000003_Node000004" class="edge"><title>Node3&#45;&gt;Node4</title>
<g id="a_edge3_Node000003_Node000004"><a xlink:title=" ">
<path fill="none" stroke="#63b8ff" d="M175.988,-9.5C164.817,-9.5 152.952,-9.5 142.361,-9.5"/>
<polygon fill="#63b8ff" stroke="#63b8ff" points="175.996,-13.0001 185.996,-9.5 175.996,-6.0001 175.996,-13.0001"/>
</a>
</g>
</g>
<!-- Node5 -->
<g id="Node000005" class="node"><title>Node5</title>
<g id="a_Node000005"><a xlink:href="group___main_program.html#ga0ddf1224851353fc92bfbff6f499fa97" target="_top" xlink:title=" ">
<polygon fill="white" stroke="#666666" points="38,-19 0,-19 0,-0 38,-0 38,-19"/>
<text text-anchor="middle" x="19" y="-7" font-family="Helvetica,sans-Serif" font-size="10.00">main</text>
</a>
</g>
</g>
<!-- Node4&#45;&gt;Node5 -->
<g id="edge4_Node000004_Node000005" class="edge"><title>Node4&#45;&gt;Node5</title>
<g id="a_edge4_Node000004_Node000005"><a xlink:title=" ">
<path fill="none" stroke="#63b8ff" d="M63.5417,-9.5C54.5485,-9.5 45.5529,-9.5 38.0925,-9.5"/>
<polygon fill="#63b8ff" stroke="#63b8ff" points="63.6124,-13.0001 73.6123,-9.5 63.6123,-6.0001 63.6124,-13.0001"/>
</a>
</g>
</g>
</g>
</svg>
