<?xml version="1.0" encoding="UTF-8" standalone="no"?>
<!DOCTYPE svg PUBLIC "-//W3C//DTD SVG 1.1//EN"
 "http://www.w3.org/Graphics/SVG/1.1/DTD/svg11.dtd">
<!-- Generated by graphviz version 2.38.0 (20140413.2041)
 -->
<!-- Title: vector_compare_position_value Pages: 1 -->
<svg width="447pt" height="160pt"
 viewBox="0.00 0.00 447.00 159.50" xmlns="http://www.w3.org/2000/svg" xmlns:xlink="http://www.w3.org/1999/xlink">
<g id="graph0" class="graph" transform="scale(1 1) rotate(0) translate(4 155.5)">
<title>vector_compare_position_value</title>
<!-- Node1 -->
<g id="Node000001" class="node"><title>Node1</title>
<g id="a_Node000001"><a xlink:title="Porovnání mezi hodnotou elementu vektoru a hodnotou typu VectorElement.">
<polygon fill="#999999" stroke="#666666" points="439,-92 315,-92 315,-62 439,-62 439,-92"/>
<text text-anchor="start" x="323" y="-80" font-family="Helvetica,sans-Serif" font-size="10.00">vector_compare_position</text>
<text text-anchor="middle" x="377" y="-69" font-family="Helvetica,sans-Serif" font-size="10.00">_value</text>
</a>
</g>
</g>
<!-- Node2 -->
<g id="Node000002" class="node"><title>Node2</title>
<g id="a_Node000002"><a xlink:href="group___basic_sorts.html#gac3903c3fd846908cd362e293ed40582e" target="_top" xlink:title="Třídění přímým vkládáním (Insert Sort)">
<polygon fill="white" stroke="#666666" points="136,-151.5 74,-151.5 74,-132.5 136,-132.5 136,-151.5"/>
<text text-anchor="middle" x="105" y="-139.5" font-family="Helvetica,sans-Serif" font-size="10.00">insert_sort</text>
</a>
</g>
</g>
<!-- Node1&#45;&gt;Node2 -->
<g id="edge1_Node000001_Node000002" class="edge"><title>Node1&#45;&gt;Node2</title>
<g id="a_edge1_Node000001_Node000002"><a xlink:title=" ">
<path fill="none" stroke="#63b8ff" d="M348.209,-97.8044C329.645,-110.457 304.11,-125.568 279,-133 230.551,-147.34 171.187,-146.735 136.098,-144.624"/>
<polygon fill="#63b8ff" stroke="#63b8ff" points="350.29,-100.62 356.475,-92.0179 346.276,-94.8855 350.29,-100.62"/>
</a>
</g>
</g>
<!-- Node4 -->
<g id="Node000004" class="node"><title>Node4</title>
<g id="a_Node000004"><a xlink:href="advanced__sorts_8c.html#a0ae77c9640aa821e5507079ec5d2eb1d" target="_top" xlink:title="Vnitřní a lokální funkce realizující rekurzivní funkci pro metodu (Quick Sort)">
<polygon fill="white" stroke="#666666" points="273,-105.5 178,-105.5 178,-86.5 273,-86.5 273,-105.5"/>
<text text-anchor="middle" x="225.5" y="-93.5" font-family="Helvetica,sans-Serif" font-size="10.00">quick_sort_worker</text>
</a>
</g>
</g>
<!-- Node1&#45;&gt;Node4 -->
<g id="edge3_Node000001_Node000004" class="edge"><title>Node1&#45;&gt;Node4</title>
<g id="a_edge3_Node000001_Node000004"><a xlink:title=" ">
<path fill="none" stroke="#63b8ff" d="M304.599,-86.0743C293.942,-87.4288 283.194,-88.7948 273.223,-90.062"/>
<polygon fill="#63b8ff" stroke="#63b8ff" points="305.282,-89.5158 314.761,-84.7828 304.4,-82.5716 305.282,-89.5158"/>
</a>
</g>
</g>
<!-- Node6 -->
<g id="Node000006" class="node"><title>Node6</title>
<g id="a_Node000006"><a xlink:href="group___advanced_sorts.html#gaee070b00692f425d83eaea28b37bab2b" target="_top" xlink:title="Shellovo třídění vkládáním s ubývajícím krokem (Shell Sort) dle Hibbardovy posloupnosti.">
<polygon fill="white" stroke="#666666" points="134.5,-68.5 75.5,-68.5 75.5,-49.5 134.5,-49.5 134.5,-68.5"/>
<text text-anchor="middle" x="105" y="-56.5" font-family="Helvetica,sans-Serif" font-size="10.00">shell_sort</text>
</a>
</g>
</g>
<!-- Node1&#45;&gt;Node6 -->
<g id="edge7_Node000001_Node000006" class="edge"><title>Node1&#45;&gt;Node6</title>
<g id="a_edge7_Node000001_Node000006"><a xlink:title=" ">
<path fill="none" stroke="#63b8ff" d="M304.591,-72.2394C249.047,-68.5364 174.888,-63.5926 134.747,-60.9165"/>
<polygon fill="#63b8ff" stroke="#63b8ff" points="304.522,-75.7425 314.733,-72.9155 304.988,-68.758 304.522,-75.7425"/>
</a>
</g>
</g>
<!-- Node7 -->
<g id="Node000007" class="node"><title>Node7</title>
<g id="a_Node000007"><a xlink:href="group__sortable___t_vector_iterator.html#gaa359594c5556fb685473666fad583ddf" target="_top" xlink:title="Porovnání mezi hodnotou elementu vektoru určenou iterátorem a hodnotou typu VectorElement.">
<polygon fill="white" stroke="#666666" points="279,-30 172,-30 172,-0 279,-0 279,-30"/>
<text text-anchor="start" x="180" y="-18" font-family="Helvetica,sans-Serif" font-size="10.00">vector_compare_with</text>
<text text-anchor="middle" x="225.5" y="-7" font-family="Helvetica,sans-Serif" font-size="10.00">_iterator_value</text>
</a>
</g>
</g>
<!-- Node1&#45;&gt;Node7 -->
<g id="edge9_Node000001_Node000007" class="edge"><title>Node1&#45;&gt;Node7</title>
<g id="a_edge9_Node000001_Node000007"><a xlink:title=" ">
<path fill="none" stroke="#63b8ff" d="M330.473,-58.1191C308.797,-49.1299 283.231,-38.5272 262.875,-30.0851"/>
<polygon fill="#63b8ff" stroke="#63b8ff" points="329.232,-61.3937 339.81,-61.9915 331.914,-54.9277 329.232,-61.3937"/>
</a>
</g>
</g>
<!-- Node3 -->
<g id="Node000003" class="node"><title>Node3</title>
<g id="a_Node000003"><a xlink:href="group___main_program.html#ga0ddf1224851353fc92bfbff6f499fa97" target="_top" xlink:title=" ">
<polygon fill="white" stroke="#666666" points="38,-105.5 0,-105.5 0,-86.5 38,-86.5 38,-105.5"/>
<text text-anchor="middle" x="19" y="-93.5" font-family="Helvetica,sans-Serif" font-size="10.00">main</text>
</a>
</g>
</g>
<!-- Node2&#45;&gt;Node3 -->
<g id="edge2_Node000002_Node000003" class="edge"><title>Node2&#45;&gt;Node3</title>
<g id="a_edge2_Node000002_Node000003"><a xlink:title=" ">
<path fill="none" stroke="#63b8ff" d="M77.5539,-127.518C64.4434,-120.338 48.9784,-111.869 37.3826,-105.519"/>
<polygon fill="#63b8ff" stroke="#63b8ff" points="76.1431,-130.735 86.5951,-132.469 79.5053,-124.596 76.1431,-130.735"/>
</a>
</g>
</g>
<!-- Node4&#45;&gt;Node4 -->
<g id="edge6_Node000004_Node000004" class="edge"><title>Node4&#45;&gt;Node4</title>
<g id="a_edge6_Node000004_Node000004"><a xlink:title=" ">
<path fill="none" stroke="#63b8ff" d="M247.721,-115.054C246.237,-119.88 238.83,-123.5 225.5,-123.5 204.172,-123.5 198.007,-114.234 207.005,-105.583"/>
<polygon fill="#63b8ff" stroke="#63b8ff" points="250.913,-113.607 243.995,-105.583 244.399,-116.17 250.913,-113.607"/>
</a>
</g>
</g>
<!-- Node5 -->
<g id="Node000005" class="node"><title>Node5</title>
<g id="a_Node000005"><a xlink:href="group___advanced_sorts.html#gaa369b74c9050d30aa2416f9dba8cc8f5" target="_top" xlink:title="Rychlé třídění výměnou (Quick Sort) s volbou prostředního prvku jako pivota.">
<polygon fill="white" stroke="#666666" points="136,-105.5 74,-105.5 74,-86.5 136,-86.5 136,-105.5"/>
<text text-anchor="middle" x="105" y="-93.5" font-family="Helvetica,sans-Serif" font-size="10.00">quick_sort</text>
</a>
</g>
</g>
<!-- Node4&#45;&gt;Node5 -->
<g id="edge4_Node000004_Node000005" class="edge"><title>Node4&#45;&gt;Node5</title>
<g id="a_edge4_Node000004_Node000005"><a xlink:title=" ">
<path fill="none" stroke="#63b8ff" d="M167.39,-96C156.593,-96 145.702,-96 136.152,-96"/>
<polygon fill="#63b8ff" stroke="#63b8ff" points="167.666,-99.5001 177.666,-96 167.666,-92.5001 167.666,-99.5001"/>
</a>
</g>
</g>
<!-- Node5&#45;&gt;Node3 -->
<g id="edge5_Node000005_Node000003" class="edge"><title>Node5&#45;&gt;Node3</title>
<g id="a_edge5_Node000005_Node000003"><a xlink:title=" ">
<path fill="none" stroke="#63b8ff" d="M63.4561,-96C54.6389,-96 45.7361,-96 38.3044,-96"/>
<polygon fill="#63b8ff" stroke="#63b8ff" points="63.6741,-99.5001 73.6741,-96 63.674,-92.5001 63.6741,-99.5001"/>
</a>
</g>
</g>
<!-- Node6&#45;&gt;Node3 -->
<g id="edge8_Node000006_Node000003" class="edge"><title>Node6&#45;&gt;Node3</title>
<g id="a_edge8_Node000006_Node000003"><a xlink:title=" ">
<path fill="none" stroke="#63b8ff" d="M72.9112,-72.6939C61.2089,-77.8484 48.2924,-83.5379 38.1508,-88.005"/>
<polygon fill="#63b8ff" stroke="#63b8ff" points="74.6272,-75.7626 82.3679,-68.5284 71.8055,-69.3565 74.6272,-75.7626"/>
</a>
</g>
</g>
</g>
</svg>
