<?xml version="1.0" encoding="UTF-8" standalone="no"?>
<!DOCTYPE svg PUBLIC "-//W3C//DTD SVG 1.1//EN"
 "http://www.w3.org/Graphics/SVG/1.1/DTD/svg11.dtd">
<!-- Generated by graphviz version 2.38.0 (20140413.2041)
 -->
<!-- Title: main.c Pages: 1 -->
<svg width="479pt" height="247pt"
 viewBox="0.00 0.00 478.50 247.00" xmlns="http://www.w3.org/2000/svg" xmlns:xlink="http://www.w3.org/1999/xlink">
<g id="graph0" class="graph" transform="scale(1 1) rotate(0) translate(4 243)">
<title>main.c</title>
<!-- Node1 -->
<g id="Node000001" class="node"><title>Node1</title>
<g id="a_Node000001"><a xlink:title="Hlavní program testující API účinnějších metod třídění">
<polygon fill="#999999" stroke="#666666" points="307,-239 261,-239 261,-220 307,-220 307,-239"/>
<text text-anchor="middle" x="284" y="-227" font-family="Helvetica,sans-Serif" font-size="10.00">main.c</text>
</a>
</g>
</g>
<!-- Node2 -->
<g id="Node000002" class="node"><title>Node2</title>
<g id="a_Node000002"><a xlink:title=" ">
<polygon fill="#e0e0e0" stroke="#999999" points="46,-19 0,-19 0,-0 46,-0 46,-19"/>
<text text-anchor="middle" x="23" y="-7" font-family="Helvetica,sans-Serif" font-size="10.00">stdio.h</text>
</a>
</g>
</g>
<!-- Node1&#45;&gt;Node2 -->
<g id="edge1_Node000001_Node000002" class="edge"><title>Node1&#45;&gt;Node2</title>
<g id="a_edge1_Node000001_Node000002"><a xlink:title=" ">
<path fill="none" stroke="#63b8ff" d="M260.86,-228.37C223.281,-227.061 148.148,-219.759 98,-184 50.8185,-150.356 46.3746,-128.958 28,-74 23.1726,-59.5613 22.0913,-42.2876 22.1231,-29.4039"/>
<polygon fill="#63b8ff" stroke="#63b8ff" points="25.6223,-29.4773 22.3714,-19.3935 18.6244,-29.3036 25.6223,-29.4773"/>
</a>
</g>
</g>
<!-- Node3 -->
<g id="Node000003" class="node"><title>Node3</title>
<g id="a_Node000003"><a xlink:title=" ">
<polygon fill="#e0e0e0" stroke="#999999" points="422,-129 378,-129 378,-110 422,-110 422,-129"/>
<text text-anchor="middle" x="400" y="-117" font-family="Helvetica,sans-Serif" font-size="10.00">time.h</text>
</a>
</g>
</g>
<!-- Node1&#45;&gt;Node3 -->
<g id="edge2_Node000001_Node000003" class="edge"><title>Node1&#45;&gt;Node3</title>
<g id="a_edge2_Node000001_Node000003"><a xlink:title=" ">
<path fill="none" stroke="#63b8ff" d="M294.309,-219.801C304.718,-210.949 321.187,-196.755 335,-184 352.085,-168.224 371.046,-149.562 384.057,-136.569"/>
<polygon fill="#63b8ff" stroke="#63b8ff" points="386.736,-138.839 391.32,-129.287 381.78,-133.896 386.736,-138.839"/>
</a>
</g>
</g>
<!-- Node4 -->
<g id="Node000004" class="node"><title>Node4</title>
<g id="a_Node000004"><a xlink:href="basic__sorts_8h.html" target="_top" xlink:title="Deklarace API přímých metod třídění">
<polygon fill="white" stroke="#666666" points="182.5,-184 107.5,-184 107.5,-165 182.5,-165 182.5,-184"/>
<text text-anchor="middle" x="145" y="-172" font-family="Helvetica,sans-Serif" font-size="10.00">basic_sorts.h</text>
</a>
</g>
</g>
<!-- Node1&#45;&gt;Node4 -->
<g id="edge3_Node000001_Node000004" class="edge"><title>Node1&#45;&gt;Node4</title>
<g id="a_edge3_Node000001_Node000004"><a xlink:title=" ">
<path fill="none" stroke="#63b8ff" d="M261.667,-219.985C238.803,-211.267 203.043,-197.631 177.138,-187.754"/>
<polygon fill="#63b8ff" stroke="#63b8ff" points="178.33,-184.463 167.739,-184.17 175.836,-191.003 178.33,-184.463"/>
</a>
</g>
</g>
<!-- Node11 -->
<g id="Node000011" class="node"><title>Node11</title>
<g id="a_Node000011"><a xlink:title=" ">
<polygon fill="#e0e0e0" stroke="#999999" points="346.5,-19 295.5,-19 295.5,-0 346.5,-0 346.5,-19"/>
<text text-anchor="middle" x="321" y="-7" font-family="Helvetica,sans-Serif" font-size="10.00">check.h</text>
</a>
</g>
</g>
<!-- Node1&#45;&gt;Node11 -->
<g id="edge19_Node000001_Node000011" class="edge"><title>Node1&#45;&gt;Node11</title>
<g id="a_edge19_Node000001_Node000011"><a xlink:title=" ">
<path fill="none" stroke="#63b8ff" d="M288.321,-219.875C292.526,-211.081 298.743,-196.93 302,-184 315.841,-129.043 319.599,-61.7802 320.62,-29.5267"/>
<polygon fill="#63b8ff" stroke="#63b8ff" points="324.124,-29.4031 320.885,-19.3155 317.126,-29.221 324.124,-29.4031"/>
</a>
</g>
</g>
<!-- Node12 -->
<g id="Node000012" class="node"><title>Node12</title>
<g id="a_Node000012"><a xlink:href="advanced__sorts_8h.html" target="_top" xlink:title="Deklarace API účinnějších metod třídění">
<polygon fill="white" stroke="#666666" points="293,-184 201,-184 201,-165 293,-165 293,-184"/>
<text text-anchor="middle" x="247" y="-172" font-family="Helvetica,sans-Serif" font-size="10.00">advanced_sorts.h</text>
</a>
</g>
</g>
<!-- Node1&#45;&gt;Node12 -->
<g id="edge15_Node000001_Node000012" class="edge"><title>Node1&#45;&gt;Node12</title>
<g id="a_edge15_Node000001_Node000012"><a xlink:title=" ">
<path fill="none" stroke="#63b8ff" d="M277.89,-219.748C272.718,-212.339 265.154,-201.504 258.806,-192.411"/>
<polygon fill="#63b8ff" stroke="#63b8ff" points="261.59,-190.285 252.996,-184.089 255.851,-194.292 261.59,-190.285"/>
</a>
</g>
</g>
<!-- Node13 -->
<g id="Node000013" class="node"><title>Node13</title>
<g id="a_Node000013"><a xlink:href="main__support_8h.html" target="_top" xlink:title="Soubor pro multiplatformní podporu programu v různých OS.">
<polygon fill="white" stroke="#666666" points="470.5,-184 387.5,-184 387.5,-165 470.5,-165 470.5,-184"/>
<text text-anchor="middle" x="429" y="-172" font-family="Helvetica,sans-Serif" font-size="10.00">main_support.h</text>
</a>
</g>
</g>
<!-- Node1&#45;&gt;Node13 -->
<g id="edge17_Node000001_Node000013" class="edge"><title>Node1&#45;&gt;Node13</title>
<g id="a_edge17_Node000001_Node000013"><a xlink:title=" ">
<path fill="none" stroke="#63b8ff" d="M307.297,-219.985C331.253,-211.228 368.781,-197.511 395.832,-187.624"/>
<polygon fill="#63b8ff" stroke="#63b8ff" points="397.089,-190.891 405.279,-184.17 394.686,-184.316 397.089,-190.891"/>
</a>
</g>
</g>
<!-- Node5 -->
<g id="Node000005" class="node"><title>Node5</title>
<g id="a_Node000005"><a xlink:href="_t_vector_8h.html" target="_top" xlink:title="Definice typu Sortable Vector.">
<polygon fill="white" stroke="#666666" points="174.5,-129 115.5,-129 115.5,-110 174.5,-110 174.5,-129"/>
<text text-anchor="middle" x="145" y="-117" font-family="Helvetica,sans-Serif" font-size="10.00">TVector.h</text>
</a>
</g>
</g>
<!-- Node4&#45;&gt;Node5 -->
<g id="edge4_Node000004_Node000005" class="edge"><title>Node4&#45;&gt;Node5</title>
<g id="a_edge4_Node000004_Node000005"><a xlink:title=" ">
<path fill="none" stroke="#63b8ff" d="M145,-164.748C145,-157.802 145,-147.845 145,-139.135"/>
<polygon fill="#63b8ff" stroke="#63b8ff" points="148.5,-139.089 145,-129.089 141.5,-139.089 148.5,-139.089"/>
</a>
</g>
</g>
<!-- Node5&#45;&gt;Node2 -->
<g id="edge5_Node000005_Node000002" class="edge"><title>Node5&#45;&gt;Node2</title>
<g id="a_edge5_Node000005_Node000002"><a xlink:title=" ">
<path fill="none" stroke="#63b8ff" d="M115.232,-112.805C92.1659,-106.894 61.0285,-95.3979 42,-74 31.1272,-61.7733 26.471,-43.5393 24.4799,-29.743"/>
<polygon fill="#63b8ff" stroke="#63b8ff" points="27.9186,-28.9893 23.3563,-19.4271 20.9598,-29.7474 27.9186,-28.9893"/>
</a>
</g>
</g>
<!-- Node6 -->
<g id="Node000006" class="node"><title>Node6</title>
<g id="a_Node000006"><a xlink:title=" ">
<polygon fill="#e0e0e0" stroke="#999999" points="141,-19 85,-19 85,-0 141,-0 141,-19"/>
<text text-anchor="middle" x="113" y="-7" font-family="Helvetica,sans-Serif" font-size="10.00">stdbool.h</text>
</a>
</g>
</g>
<!-- Node5&#45;&gt;Node6 -->
<g id="edge6_Node000005_Node000006" class="edge"><title>Node5&#45;&gt;Node6</title>
<g id="a_edge6_Node000005_Node000006"><a xlink:title=" ">
<path fill="none" stroke="#63b8ff" d="M142.381,-109.662C137.175,-92.0918 125.429,-52.4465 118.468,-28.9532"/>
<polygon fill="#63b8ff" stroke="#63b8ff" points="121.762,-27.752 115.565,-19.1584 115.051,-29.7407 121.762,-27.752"/>
</a>
</g>
</g>
<!-- Node7 -->
<g id="Node000007" class="node"><title>Node7</title>
<g id="a_Node000007"><a xlink:title=" ">
<polygon fill="#e0e0e0" stroke="#999999" points="102.5,-74 51.5,-74 51.5,-55 102.5,-55 102.5,-74"/>
<text text-anchor="middle" x="77" y="-62" font-family="Helvetica,sans-Serif" font-size="10.00">stddef.h</text>
</a>
</g>
</g>
<!-- Node5&#45;&gt;Node7 -->
<g id="edge7_Node000005_Node000007" class="edge"><title>Node5&#45;&gt;Node7</title>
<g id="a_edge7_Node000005_Node000007"><a xlink:title=" ">
<path fill="none" stroke="#63b8ff" d="M134.075,-109.985C123.924,-102.073 108.578,-90.1121 96.3541,-80.5848"/>
<polygon fill="#63b8ff" stroke="#63b8ff" points="98.1631,-77.5572 88.1242,-74.1703 93.8598,-83.0783 98.1631,-77.5572"/>
</a>
</g>
</g>
<!-- Node8 -->
<g id="Node000008" class="node"><title>Node8</title>
<g id="a_Node000008"><a xlink:href="_t_vector_element_8h.html" target="_top" xlink:title="Definice typu Basic VectorElement a implementace API.">
<polygon fill="white" stroke="#666666" points="254.5,-74 159.5,-74 159.5,-55 254.5,-55 254.5,-74"/>
<text text-anchor="middle" x="207" y="-62" font-family="Helvetica,sans-Serif" font-size="10.00">TVectorElement.h</text>
</a>
</g>
</g>
<!-- Node5&#45;&gt;Node8 -->
<g id="edge8_Node000005_Node000008" class="edge"><title>Node5&#45;&gt;Node8</title>
<g id="a_edge8_Node000005_Node000008"><a xlink:title=" ">
<path fill="none" stroke="#63b8ff" d="M154.961,-109.985C164.127,-102.15 177.937,-90.344 189.028,-80.863"/>
<polygon fill="#63b8ff" stroke="#63b8ff" points="191.53,-83.3286 196.857,-74.1703 186.982,-78.0077 191.53,-83.3286"/>
</a>
</g>
</g>
<!-- Node5&#45;&gt;Node11 -->
<g id="edge14_Node000005_Node000011" class="edge"><title>Node5&#45;&gt;Node11</title>
<g id="a_edge14_Node000005_Node000011"><a xlink:title=" ">
<path fill="none" stroke="#63b8ff" d="M174.956,-111.407C199.974,-104.536 235.814,-92.4252 263,-74 281.655,-61.3565 298.475,-41.5478 309.138,-27.4184"/>
<polygon fill="#63b8ff" stroke="#63b8ff" points="312.15,-29.2281 315.214,-19.0859 306.494,-25.1039 312.15,-29.2281"/>
</a>
</g>
</g>
<!-- Node8&#45;&gt;Node2 -->
<g id="edge9_Node000008_Node000002" class="edge"><title>Node8&#45;&gt;Node2</title>
<g id="a_edge9_Node000008_Node000002"><a xlink:title=" ">
<path fill="none" stroke="#63b8ff" d="M177.437,-54.9846C144.152,-45.3969 90.2202,-29.8623 55.6995,-19.9189"/>
<polygon fill="#63b8ff" stroke="#63b8ff" points="56.6606,-16.5535 46.0825,-17.1488 54.7231,-23.28 56.6606,-16.5535"/>
</a>
</g>
</g>
<!-- Node8&#45;&gt;Node6 -->
<g id="edge11_Node000008_Node000006" class="edge"><title>Node8&#45;&gt;Node6</title>
<g id="a_edge11_Node000008_Node000006"><a xlink:title=" ">
<path fill="none" stroke="#63b8ff" d="M191.897,-54.9846C177.184,-46.689 154.575,-33.9413 137.325,-24.2153"/>
<polygon fill="#63b8ff" stroke="#63b8ff" points="138.807,-21.033 128.378,-19.1703 135.369,-27.1306 138.807,-21.033"/>
</a>
</g>
</g>
<!-- Node9 -->
<g id="Node000009" class="node"><title>Node9</title>
<g id="a_Node000009"><a xlink:title=" ">
<polygon fill="#e0e0e0" stroke="#999999" points="207,-19 159,-19 159,-0 207,-0 207,-19"/>
<text text-anchor="middle" x="183" y="-7" font-family="Helvetica,sans-Serif" font-size="10.00">stdlib.h</text>
</a>
</g>
</g>
<!-- Node8&#45;&gt;Node9 -->
<g id="edge10_Node000008_Node000009" class="edge"><title>Node8&#45;&gt;Node9</title>
<g id="a_edge10_Node000008_Node000009"><a xlink:title=" ">
<path fill="none" stroke="#63b8ff" d="M203.037,-54.7481C199.787,-47.5705 195.081,-37.178 191.046,-28.2682"/>
<polygon fill="#63b8ff" stroke="#63b8ff" points="194.203,-26.7548 186.889,-19.089 187.826,-29.6424 194.203,-26.7548"/>
</a>
</g>
</g>
<!-- Node10 -->
<g id="Node000010" class="node"><title>Node10</title>
<g id="a_Node000010"><a xlink:title=" ">
<polygon fill="#e0e0e0" stroke="#999999" points="277,-19 225,-19 225,-0 277,-0 277,-19"/>
<text text-anchor="middle" x="251" y="-7" font-family="Helvetica,sans-Serif" font-size="10.00">assert.h</text>
</a>
</g>
</g>
<!-- Node8&#45;&gt;Node10 -->
<g id="edge12_Node000008_Node000010" class="edge"><title>Node8&#45;&gt;Node10</title>
<g id="a_edge12_Node000008_Node000010"><a xlink:title=" ">
<path fill="none" stroke="#63b8ff" d="M214.266,-54.7481C220.545,-47.1846 229.788,-36.0512 237.431,-26.8447"/>
<polygon fill="#63b8ff" stroke="#63b8ff" points="240.175,-29.0188 243.869,-19.089 234.789,-24.5475 240.175,-29.0188"/>
</a>
</g>
</g>
<!-- Node8&#45;&gt;Node11 -->
<g id="edge13_Node000008_Node000011" class="edge"><title>Node8&#45;&gt;Node11</title>
<g id="a_edge13_Node000008_Node000011"><a xlink:title=" ">
<path fill="none" stroke="#63b8ff" d="M225.316,-54.9846C243.655,-46.4586 272.11,-33.2297 293.227,-23.412"/>
<polygon fill="#63b8ff" stroke="#63b8ff" points="294.758,-26.5599 302.351,-19.1703 291.807,-20.2124 294.758,-26.5599"/>
</a>
</g>
</g>
<!-- Node12&#45;&gt;Node5 -->
<g id="edge16_Node000012_Node000005" class="edge"><title>Node12&#45;&gt;Node5</title>
<g id="a_edge16_Node000012_Node000005"><a xlink:title=" ">
<path fill="none" stroke="#63b8ff" d="M230.612,-164.985C214.425,-156.574 189.43,-143.586 170.619,-133.812"/>
<polygon fill="#63b8ff" stroke="#63b8ff" points="172.174,-130.675 161.686,-129.17 168.946,-136.887 172.174,-130.675"/>
</a>
</g>
</g>
<!-- Node13&#45;&gt;Node3 -->
<g id="edge18_Node000013_Node000003" class="edge"><title>Node13&#45;&gt;Node3</title>
<g id="a_edge18_Node000013_Node000003"><a xlink:title=" ">
<path fill="none" stroke="#63b8ff" d="M424.211,-164.748C420.242,-157.493 414.475,-146.954 409.565,-137.981"/>
<polygon fill="#63b8ff" stroke="#63b8ff" points="412.57,-136.182 404.7,-129.089 406.429,-139.542 412.57,-136.182"/>
</a>
</g>
</g>
</g>
</svg>
