<?xml version="1.0" encoding="UTF-8" standalone="no"?>
<!DOCTYPE svg PUBLIC "-//W3C//DTD SVG 1.1//EN"
 "http://www.w3.org/Graphics/SVG/1.1/DTD/svg11.dtd">
<!-- Generated by graphviz version 2.38.0 (20140413.2041)
 -->
<!-- Title: TVector.c Pages: 1 -->
<svg width="430pt" height="192pt"
 viewBox="0.00 0.00 429.86 192.00" xmlns="http://www.w3.org/2000/svg" xmlns:xlink="http://www.w3.org/1999/xlink">
<g id="graph0" class="graph" transform="scale(1 1) rotate(0) translate(4 188)">
<title>TVector.c</title>
<!-- Node1 -->
<g id="Node000001" class="node"><title>Node1</title>
<g id="a_Node000001"><a xlink:title="Implementace Sortable Vector API.">
<polygon fill="#999999" stroke="#666666" points="181.5,-184 122.5,-184 122.5,-165 181.5,-165 181.5,-184"/>
<text text-anchor="middle" x="152" y="-172" font-family="Helvetica,sans-Serif" font-size="10.00">TVector.c</text>
</a>
</g>
</g>
<!-- Node2 -->
<g id="Node000002" class="node"><title>Node2</title>
<g id="a_Node000002"><a xlink:title=" ">
<polygon fill="#e0e0e0" stroke="#999999" points="48,-19 0,-19 0,-0 48,-0 48,-19"/>
<text text-anchor="middle" x="24" y="-7" font-family="Helvetica,sans-Serif" font-size="10.00">stdlib.h</text>
</a>
</g>
</g>
<!-- Node1&#45;&gt;Node2 -->
<g id="edge1_Node000001_Node000002" class="edge"><title>Node1&#45;&gt;Node2</title>
<g id="a_edge1_Node000001_Node000002"><a xlink:title=" ">
<path fill="none" stroke="#63b8ff" d="M145.118,-164.736C124.716,-138.756 64.3056,-61.8266 37.3023,-27.4397"/>
<polygon fill="#63b8ff" stroke="#63b8ff" points="39.8447,-25.0102 30.9159,-19.3069 34.3393,-29.3334 39.8447,-25.0102"/>
</a>
</g>
</g>
<!-- Node3 -->
<g id="Node000003" class="node"><title>Node3</title>
<g id="a_Node000003"><a xlink:title=" ">
<polygon fill="#e0e0e0" stroke="#999999" points="118,-19 66,-19 66,-0 118,-0 118,-19"/>
<text text-anchor="middle" x="92" y="-7" font-family="Helvetica,sans-Serif" font-size="10.00">assert.h</text>
</a>
</g>
</g>
<!-- Node1&#45;&gt;Node3 -->
<g id="edge2_Node000001_Node000003" class="edge"><title>Node1&#45;&gt;Node3</title>
<g id="a_edge2_Node000001_Node000003"><a xlink:title=" ">
<path fill="none" stroke="#63b8ff" d="M148.774,-164.736C139.333,-139.088 111.613,-63.7824 98.7278,-28.7772"/>
<polygon fill="#63b8ff" stroke="#63b8ff" points="101.981,-27.4823 95.2418,-19.3069 95.4117,-29.9004 101.981,-27.4823"/>
</a>
</g>
</g>
<!-- Node4 -->
<g id="Node000004" class="node"><title>Node4</title>
<g id="a_Node000004"><a xlink:href="_t_vector_8h.html" target="_top" xlink:title="Definice typu Sortable Vector.">
<polygon fill="white" stroke="#666666" points="283.5,-129 224.5,-129 224.5,-110 283.5,-110 283.5,-129"/>
<text text-anchor="middle" x="254" y="-117" font-family="Helvetica,sans-Serif" font-size="10.00">TVector.h</text>
</a>
</g>
</g>
<!-- Node1&#45;&gt;Node4 -->
<g id="edge3_Node000001_Node000004" class="edge"><title>Node1&#45;&gt;Node4</title>
<g id="a_edge3_Node000001_Node000004"><a xlink:title=" ">
<path fill="none" stroke="#63b8ff" d="M168.388,-164.985C184.575,-156.574 209.57,-143.586 228.381,-133.812"/>
<polygon fill="#63b8ff" stroke="#63b8ff" points="230.054,-136.887 237.314,-129.17 226.826,-130.675 230.054,-136.887"/>
</a>
</g>
</g>
<!-- Node10 -->
<g id="Node000010" class="node"><title>Node10</title>
<g id="a_Node000010"><a xlink:title=" ">
<polygon fill="#e0e0e0" stroke="#999999" points="393.5,-19 342.5,-19 342.5,-0 393.5,-0 393.5,-19"/>
<text text-anchor="middle" x="368" y="-7" font-family="Helvetica,sans-Serif" font-size="10.00">check.h</text>
</a>
</g>
</g>
<!-- Node1&#45;&gt;Node10 -->
<g id="edge15_Node000001_Node000010" class="edge"><title>Node1&#45;&gt;Node10</title>
<g id="a_edge15_Node000001_Node000010"><a xlink:title=" ">
<path fill="none" stroke="#63b8ff" d="M181.585,-172.924C239.217,-169.987 365.476,-154.237 418,-74 429.624,-56.2433 410.059,-37.3028 392.102,-24.7756"/>
<polygon fill="#63b8ff" stroke="#63b8ff" points="393.841,-21.7308 383.559,-19.1744 390.003,-27.5846 393.841,-21.7308"/>
</a>
</g>
</g>
<!-- Node5 -->
<g id="Node000005" class="node"><title>Node5</title>
<g id="a_Node000005"><a xlink:title=" ">
<polygon fill="#e0e0e0" stroke="#999999" points="182,-19 136,-19 136,-0 182,-0 182,-19"/>
<text text-anchor="middle" x="159" y="-7" font-family="Helvetica,sans-Serif" font-size="10.00">stdio.h</text>
</a>
</g>
</g>
<!-- Node4&#45;&gt;Node5 -->
<g id="edge4_Node000004_Node000005" class="edge"><title>Node4&#45;&gt;Node5</title>
<g id="a_edge4_Node000004_Node000005"><a xlink:title=" ">
<path fill="none" stroke="#63b8ff" d="M224.356,-113.341C202.161,-107.757 173.268,-96.4388 159,-74 150.589,-60.7724 151.521,-42.6493 154.013,-29.1495"/>
<polygon fill="#63b8ff" stroke="#63b8ff" points="157.492,-29.6337 156.301,-19.106 150.667,-28.0784 157.492,-29.6337"/>
</a>
</g>
</g>
<!-- Node6 -->
<g id="Node000006" class="node"><title>Node6</title>
<g id="a_Node000006"><a xlink:title=" ">
<polygon fill="#e0e0e0" stroke="#999999" points="324,-19 268,-19 268,-0 324,-0 324,-19"/>
<text text-anchor="middle" x="296" y="-7" font-family="Helvetica,sans-Serif" font-size="10.00">stdbool.h</text>
</a>
</g>
</g>
<!-- Node4&#45;&gt;Node6 -->
<g id="edge5_Node000004_Node000006" class="edge"><title>Node4&#45;&gt;Node6</title>
<g id="a_edge5_Node000004_Node000006"><a xlink:title=" ">
<path fill="none" stroke="#63b8ff" d="M257.509,-109.992C261.18,-101.053 267.082,-86.5731 272,-74 277.97,-58.737 284.536,-41.3185 289.289,-28.5902"/>
<polygon fill="#63b8ff" stroke="#63b8ff" points="292.594,-29.7445 292.802,-19.1517 286.034,-27.3027 292.594,-29.7445"/>
</a>
</g>
</g>
<!-- Node7 -->
<g id="Node000007" class="node"><title>Node7</title>
<g id="a_Node000007"><a xlink:title=" ">
<polygon fill="#e0e0e0" stroke="#999999" points="409.5,-74 358.5,-74 358.5,-55 409.5,-55 409.5,-74"/>
<text text-anchor="middle" x="384" y="-62" font-family="Helvetica,sans-Serif" font-size="10.00">stddef.h</text>
</a>
</g>
</g>
<!-- Node4&#45;&gt;Node7 -->
<g id="edge6_Node000004_Node000007" class="edge"><title>Node4&#45;&gt;Node7</title>
<g id="a_edge6_Node000004_Node000007"><a xlink:title=" ">
<path fill="none" stroke="#63b8ff" d="M274.887,-109.985C296.082,-101.343 329.127,-87.8713 353.301,-78.0158"/>
<polygon fill="#63b8ff" stroke="#63b8ff" points="354.795,-81.1866 362.733,-74.1703 352.152,-74.7046 354.795,-81.1866"/>
</a>
</g>
</g>
<!-- Node8 -->
<g id="Node000008" class="node"><title>Node8</title>
<g id="a_Node000008"><a xlink:href="_t_vector_element_8h.html" target="_top" xlink:title="Definice strukturovaného typu VectorElement a implementace API.">
<polygon fill="white" stroke="#666666" points="263.5,-74 168.5,-74 168.5,-55 263.5,-55 263.5,-74"/>
<text text-anchor="middle" x="216" y="-62" font-family="Helvetica,sans-Serif" font-size="10.00">TVectorElement.h</text>
</a>
</g>
</g>
<!-- Node4&#45;&gt;Node8 -->
<g id="edge7_Node000004_Node000008" class="edge"><title>Node4&#45;&gt;Node8</title>
<g id="a_edge7_Node000004_Node000008"><a xlink:title=" ">
<path fill="none" stroke="#63b8ff" d="M247.725,-109.748C242.413,-102.339 234.645,-91.5042 228.125,-82.4107"/>
<polygon fill="#63b8ff" stroke="#63b8ff" points="230.83,-80.1766 222.158,-74.089 225.141,-84.2554 230.83,-80.1766"/>
</a>
</g>
</g>
<!-- Node4&#45;&gt;Node10 -->
<g id="edge14_Node000004_Node000010" class="edge"><title>Node4&#45;&gt;Node10</title>
<g id="a_edge14_Node000004_Node000010"><a xlink:title=" ">
<path fill="none" stroke="#63b8ff" d="M263.329,-109.662C282.631,-91.3763 327.17,-49.1808 351.464,-26.1659"/>
<polygon fill="#63b8ff" stroke="#63b8ff" points="354.008,-28.5767 358.861,-19.1584 349.194,-23.495 354.008,-28.5767"/>
</a>
</g>
</g>
<!-- Node8&#45;&gt;Node2 -->
<g id="edge9_Node000008_Node000002" class="edge"><title>Node8&#45;&gt;Node2</title>
<g id="a_edge9_Node000008_Node000002"><a xlink:title=" ">
<path fill="none" stroke="#63b8ff" d="M185.152,-54.9846C150.419,-45.3969 94.1428,-29.8623 58.1212,-19.9189"/>
<polygon fill="#63b8ff" stroke="#63b8ff" points="58.657,-16.4359 48.0861,-17.1488 56.7943,-23.1836 58.657,-16.4359"/>
</a>
</g>
</g>
<!-- Node8&#45;&gt;Node3 -->
<g id="edge12_Node000008_Node000003" class="edge"><title>Node8&#45;&gt;Node3</title>
<g id="a_edge12_Node000008_Node000003"><a xlink:title=" ">
<path fill="none" stroke="#63b8ff" d="M196.077,-54.9846C175.95,-46.3818 144.62,-32.991 121.59,-23.1475"/>
<polygon fill="#63b8ff" stroke="#63b8ff" points="122.856,-19.8823 112.285,-19.1703 120.105,-26.319 122.856,-19.8823"/>
</a>
</g>
</g>
<!-- Node8&#45;&gt;Node5 -->
<g id="edge8_Node000008_Node000005" class="edge"><title>Node8&#45;&gt;Node5</title>
<g id="a_edge8_Node000008_Node000005"><a xlink:title=" ">
<path fill="none" stroke="#63b8ff" d="M206.842,-54.9846C198.499,-47.2267 185.968,-35.5751 175.823,-26.1425"/>
<polygon fill="#63b8ff" stroke="#63b8ff" points="178.031,-23.4166 168.325,-19.1703 173.265,-28.543 178.031,-23.4166"/>
</a>
</g>
</g>
<!-- Node8&#45;&gt;Node6 -->
<g id="edge11_Node000008_Node000006" class="edge"><title>Node8&#45;&gt;Node6</title>
<g id="a_edge11_Node000008_Node000006"><a xlink:title=" ">
<path fill="none" stroke="#63b8ff" d="M228.853,-54.9846C241.143,-46.8426 259.906,-34.4119 274.477,-24.7587"/>
<polygon fill="#63b8ff" stroke="#63b8ff" points="276.509,-27.6111 282.913,-19.1703 272.643,-21.7755 276.509,-27.6111"/>
</a>
</g>
</g>
<!-- Node9 -->
<g id="Node000009" class="node"><title>Node9</title>
<g id="a_Node000009"><a xlink:title=" ">
<polygon fill="#e0e0e0" stroke="#999999" points="249.5,-19 200.5,-19 200.5,-0 249.5,-0 249.5,-19"/>
<text text-anchor="middle" x="225" y="-7" font-family="Helvetica,sans-Serif" font-size="10.00">string.h</text>
</a>
</g>
</g>
<!-- Node8&#45;&gt;Node9 -->
<g id="edge10_Node000008_Node000009" class="edge"><title>Node8&#45;&gt;Node9</title>
<g id="a_edge10_Node000008_Node000009"><a xlink:title=" ">
<path fill="none" stroke="#63b8ff" d="M217.486,-54.7481C218.666,-47.8021 220.356,-37.8451 221.836,-29.1349"/>
<polygon fill="#63b8ff" stroke="#63b8ff" points="225.318,-29.5339 223.541,-19.089 218.417,-28.3619 225.318,-29.5339"/>
</a>
</g>
</g>
<!-- Node8&#45;&gt;Node10 -->
<g id="edge13_Node000008_Node000010" class="edge"><title>Node8&#45;&gt;Node10</title>
<g id="a_edge13_Node000008_Node000010"><a xlink:title=" ">
<path fill="none" stroke="#63b8ff" d="M240.421,-54.9846C265.72,-46.1636 305.455,-32.3086 333.856,-22.4054"/>
<polygon fill="#63b8ff" stroke="#63b8ff" points="335.097,-25.6795 343.387,-19.0821 332.792,-19.0697 335.097,-25.6795"/>
</a>
</g>
</g>
</g>
</svg>
