<?xml version="1.0" encoding="UTF-8" standalone="no"?>
<!DOCTYPE svg PUBLIC "-//W3C//DTD SVG 1.1//EN"
 "http://www.w3.org/Graphics/SVG/1.1/DTD/svg11.dtd">
<!-- Generated by graphviz version 2.38.0 (20140413.2041)
 -->
<!-- Title: TVectorElement.h Pages: 1 -->
<svg width="222pt" height="192pt"
 viewBox="0.00 0.00 222.00 192.00" xmlns="http://www.w3.org/2000/svg" xmlns:xlink="http://www.w3.org/1999/xlink">
<g id="graph0" class="graph" transform="scale(1 1) rotate(0) translate(4 188)">
<title>TVectorElement.h</title>
<!-- Node1 -->
<g id="Node000001" class="node"><title>Node1</title>
<g id="a_Node000001"><a xlink:title="Definice strukturovaného typu VectorElement a implementace API.">
<polygon fill="#999999" stroke="#666666" points="166,-184 71,-184 71,-165 166,-165 166,-184"/>
<text text-anchor="middle" x="118.5" y="-172" font-family="Helvetica,sans-Serif" font-size="10.00">TVectorElement.h</text>
</a>
</g>
</g>
<!-- Node2 -->
<g id="Node000002" class="node"><title>Node2</title>
<g id="a_Node000002"><a xlink:href="_t_vector_8h.html" target="_top" xlink:title="Definice typu Sortable Vector.">
<polygon fill="white" stroke="#666666" points="101,-129 42,-129 42,-110 101,-110 101,-129"/>
<text text-anchor="middle" x="71.5" y="-117" font-family="Helvetica,sans-Serif" font-size="10.00">TVector.h</text>
</a>
</g>
</g>
<!-- Node1&#45;&gt;Node2 -->
<g id="edge1_Node000001_Node000002" class="edge"><title>Node1&#45;&gt;Node2</title>
<g id="a_edge1_Node000001_Node000002"><a xlink:title=" ">
<path fill="none" stroke="#63b8ff" d="M104.079,-157.238C95.8419,-147.949 85.8461,-136.677 79.1167,-129.089"/>
<polygon fill="#63b8ff" stroke="#63b8ff" points="101.485,-159.588 110.739,-164.748 106.723,-154.944 101.485,-159.588"/>
</a>
</g>
</g>
<!-- Node7 -->
<g id="Node000007" class="node"><title>Node7</title>
<g id="a_Node000007"><a xlink:href="_t_vector_element_8c.html" target="_top" xlink:title="Definice proměnné určující položku podle které budou porovnávány dvě proměnné strukturovaného typu Ve...">
<polygon fill="white" stroke="#666666" points="214,-129 119,-129 119,-110 214,-110 214,-129"/>
<text text-anchor="middle" x="166.5" y="-117" font-family="Helvetica,sans-Serif" font-size="10.00">TVectorElement.c</text>
</a>
</g>
</g>
<!-- Node1&#45;&gt;Node7 -->
<g id="edge6_Node000001_Node000007" class="edge"><title>Node1&#45;&gt;Node7</title>
<g id="a_edge6_Node000001_Node000007"><a xlink:title=" ">
<path fill="none" stroke="#63b8ff" d="M133.228,-157.238C141.64,-147.949 151.849,-136.677 158.721,-129.089"/>
<polygon fill="#63b8ff" stroke="#63b8ff" points="130.545,-154.987 126.426,-164.748 135.733,-159.686 130.545,-154.987"/>
</a>
</g>
</g>
<!-- Node3 -->
<g id="Node000003" class="node"><title>Node3</title>
<g id="a_Node000003"><a xlink:href="_t_vector_8c.html" target="_top" xlink:title="Implementace Sortable Vector API.">
<polygon fill="white" stroke="#666666" points="59,-74 0,-74 0,-55 59,-55 59,-74"/>
<text text-anchor="middle" x="29.5" y="-62" font-family="Helvetica,sans-Serif" font-size="10.00">TVector.c</text>
</a>
</g>
</g>
<!-- Node2&#45;&gt;Node3 -->
<g id="edge2_Node000002_Node000003" class="edge"><title>Node2&#45;&gt;Node3</title>
<g id="a_edge2_Node000002_Node000003"><a xlink:title=" ">
<path fill="none" stroke="#63b8ff" d="M58.1653,-101.673C50.8927,-92.4955 42.1984,-81.5242 36.3064,-74.089"/>
<polygon fill="#63b8ff" stroke="#63b8ff" points="55.6106,-104.084 64.5646,-109.748 61.0968,-99.7368 55.6106,-104.084"/>
</a>
</g>
</g>
<!-- Node4 -->
<g id="Node000004" class="node"><title>Node4</title>
<g id="a_Node000004"><a xlink:href="basic__sorts_8h.html" target="_top" xlink:title="Deklarace API přímých metod třídění">
<polygon fill="white" stroke="#666666" points="152,-74 77,-74 77,-55 152,-55 152,-74"/>
<text text-anchor="middle" x="114.5" y="-62" font-family="Helvetica,sans-Serif" font-size="10.00">basic_sorts.h</text>
</a>
</g>
</g>
<!-- Node2&#45;&gt;Node4 -->
<g id="edge3_Node000002_Node000004" class="edge"><title>Node2&#45;&gt;Node4</title>
<g id="a_edge3_Node000002_Node000004"><a xlink:title=" ">
<path fill="none" stroke="#63b8ff" d="M84.9224,-101.956C92.4142,-92.7221 101.437,-81.6008 107.532,-74.089"/>
<polygon fill="#63b8ff" stroke="#63b8ff" points="82.183,-99.7773 78.6006,-109.748 87.619,-104.188 82.183,-99.7773"/>
</a>
</g>
</g>
<!-- Node5 -->
<g id="Node000005" class="node"><title>Node5</title>
<g id="a_Node000005"><a xlink:href="basic__sorts_8c.html" target="_top" xlink:title="Implementace API přímých metod třídění">
<polygon fill="white" stroke="#666666" points="112,-19 37,-19 37,-0 112,-0 112,-19"/>
<text text-anchor="middle" x="74.5" y="-7" font-family="Helvetica,sans-Serif" font-size="10.00">basic_sorts.c</text>
</a>
</g>
</g>
<!-- Node4&#45;&gt;Node5 -->
<g id="edge4_Node000004_Node000005" class="edge"><title>Node4&#45;&gt;Node5</title>
<g id="a_edge4_Node000004_Node000005"><a xlink:title=" ">
<path fill="none" stroke="#63b8ff" d="M101.8,-46.6729C94.874,-37.4955 86.5937,-26.5242 80.9823,-19.089"/>
<polygon fill="#63b8ff" stroke="#63b8ff" points="99.077,-48.8747 107.895,-54.7481 104.664,-44.6578 99.077,-48.8747"/>
</a>
</g>
</g>
<!-- Node6 -->
<g id="Node000006" class="node"><title>Node6</title>
<g id="a_Node000006"><a xlink:href="main_8c.html" target="_top" xlink:title="Hlavní program testující API přímých metod třídění">
<polygon fill="white" stroke="#666666" points="176.5,-19 130.5,-19 130.5,-0 176.5,-0 176.5,-19"/>
<text text-anchor="middle" x="153.5" y="-7" font-family="Helvetica,sans-Serif" font-size="10.00">main.c</text>
</a>
</g>
</g>
<!-- Node4&#45;&gt;Node6 -->
<g id="edge5_Node000004_Node000006" class="edge"><title>Node4&#45;&gt;Node6</title>
<g id="a_edge5_Node000004_Node000006"><a xlink:title=" ">
<path fill="none" stroke="#63b8ff" d="M126.882,-46.6729C133.635,-37.4955 141.709,-26.5242 147.18,-19.089"/>
<polygon fill="#63b8ff" stroke="#63b8ff" points="124.048,-44.6193 120.94,-54.7481 129.686,-48.7681 124.048,-44.6193"/>
</a>
</g>
</g>
</g>
</svg>
