<?xml version="1.0" encoding="UTF-8" standalone="no"?>
<!DOCTYPE svg PUBLIC "-//W3C//DTD SVG 1.1//EN"
 "http://www.w3.org/Graphics/SVG/1.1/DTD/svg11.dtd">
<!-- Generated by graphviz version 2.38.0 (20140413.2041)
 -->
<!-- Title: vector_element_comparator Pages: 1 -->
<svg width="538pt" height="347pt"
 viewBox="0.00 0.00 538.00 347.00" xmlns="http://www.w3.org/2000/svg" xmlns:xlink="http://www.w3.org/1999/xlink">
<g id="graph0" class="graph" transform="scale(1 1) rotate(0) translate(4 343)">
<title>vector_element_comparator</title>
<!-- Node1 -->
<g id="Node000001" class="node"><title>Node1</title>
<g id="a_Node000001"><a xlink:title="Porovnání dvou elementů">
<polygon fill="#999999" stroke="#666666" points="530,-160 394,-160 394,-141 530,-141 530,-160"/>
<text text-anchor="middle" x="462" y="-148" font-family="Helvetica,sans-Serif" font-size="10.00">vector_element_comparator</text>
</a>
</g>
</g>
<!-- Node2 -->
<g id="Node000002" class="node"><title>Node2</title>
<g id="a_Node000002"><a xlink:href="group__sortable___t_vector.html#ga09e150aa4cdd8faabf43474ab1dbe454" target="_top" xlink:title="Porovnání mezi hodnotou elementu vektoru a hodnotou typu VectorElement.">
<polygon fill="white" stroke="#666666" points="355.5,-301.5 231.5,-301.5 231.5,-271.5 355.5,-271.5 355.5,-301.5"/>
<text text-anchor="start" x="239.5" y="-289.5" font-family="Helvetica,sans-Serif" font-size="10.00">vector_compare_position</text>
<text text-anchor="middle" x="293.5" y="-278.5" font-family="Helvetica,sans-Serif" font-size="10.00">_value</text>
</a>
</g>
</g>
<!-- Node1&#45;&gt;Node2 -->
<g id="edge1_Node000001_Node000002" class="edge"><title>Node1&#45;&gt;Node2</title>
<g id="a_edge1_Node000001_Node000002"><a xlink:title=" ">
<path fill="none" stroke="#63b8ff" d="M441.423,-166.491C409.05,-192.933 344.796,-245.417 313.087,-271.318"/>
<polygon fill="#63b8ff" stroke="#63b8ff" points="443.761,-169.1 449.292,-160.063 439.333,-163.679 443.761,-169.1"/>
</a>
</g>
</g>
<!-- Node6 -->
<g id="Node000006" class="node"><title>Node6</title>
<g id="a_Node000006"><a xlink:href="group__sortable___t_vector.html#gaedaf9c79afa345e5e71e5c66ab25fa26" target="_top" xlink:title="Porovnání hodnot elementů vektorů">
<polygon fill="white" stroke="#666666" points="358,-160 229,-160 229,-141 358,-141 358,-160"/>
<text text-anchor="middle" x="293.5" y="-148" font-family="Helvetica,sans-Serif" font-size="10.00">vector_compare_positions</text>
</a>
</g>
</g>
<!-- Node1&#45;&gt;Node6 -->
<g id="edge5_Node000001_Node000006" class="edge"><title>Node1&#45;&gt;Node6</title>
<g id="a_edge5_Node000001_Node000006"><a xlink:title=" ">
<path fill="none" stroke="#63b8ff" d="M383.496,-150.5C375.032,-150.5 366.488,-150.5 358.217,-150.5"/>
<polygon fill="#63b8ff" stroke="#63b8ff" points="383.758,-154 393.758,-150.5 383.758,-147 383.758,-154"/>
</a>
</g>
</g>
<!-- Node13 -->
<g id="Node000013" class="node"><title>Node13</title>
<g id="a_Node000013"><a xlink:href="group__sortable___t_vector.html#ga1b7a4850be6488c69c293bdd13f729a7" target="_top" xlink:title="Ověření korektního setřídění vektoru.">
<polygon fill="white" stroke="#666666" points="350,-82.5 237,-82.5 237,-52.5 350,-52.5 350,-82.5"/>
<text text-anchor="start" x="245" y="-70.5" font-family="Helvetica,sans-Serif" font-size="10.00">vector_is_ascendantly</text>
<text text-anchor="middle" x="293.5" y="-59.5" font-family="Helvetica,sans-Serif" font-size="10.00">_sorted</text>
</a>
</g>
</g>
<!-- Node1&#45;&gt;Node13 -->
<g id="edge17_Node000001_Node000013" class="edge"><title>Node1&#45;&gt;Node13</title>
<g id="a_edge17_Node000001_Node000013"><a xlink:title=" ">
<path fill="none" stroke="#63b8ff" d="M432.797,-136.441C402.748,-121.461 355.36,-97.8387 324.604,-82.5066"/>
<polygon fill="#63b8ff" stroke="#63b8ff" points="431.389,-139.65 441.9,-140.979 434.512,-133.385 431.389,-139.65"/>
</a>
</g>
</g>
<!-- Node3 -->
<g id="Node000003" class="node"><title>Node3</title>
<g id="a_Node000003"><a xlink:href="group___basic_sorts.html#gac3903c3fd846908cd362e293ed40582e" target="_top" xlink:title="Třídění přímým vkládáním (Insert Sort)">
<polygon fill="white" stroke="#666666" points="164.5,-339 102.5,-339 102.5,-320 164.5,-320 164.5,-339"/>
<text text-anchor="middle" x="133.5" y="-327" font-family="Helvetica,sans-Serif" font-size="10.00">insert_sort</text>
</a>
</g>
</g>
<!-- Node2&#45;&gt;Node3 -->
<g id="edge2_Node000002_Node000003" class="edge"><title>Node2&#45;&gt;Node3</title>
<g id="a_edge2_Node000002_Node000003"><a xlink:title=" ">
<path fill="none" stroke="#63b8ff" d="M227.373,-304.224C205.623,-310.144 182.425,-316.457 164.655,-321.293"/>
<polygon fill="#63b8ff" stroke="#63b8ff" points="228.509,-307.543 237.239,-301.539 226.671,-300.788 228.509,-307.543"/>
</a>
</g>
</g>
<!-- Node5 -->
<g id="Node000005" class="node"><title>Node5</title>
<g id="a_Node000005"><a xlink:href="group__sortable___t_vector_iterator.html#gaa359594c5556fb685473666fad583ddf" target="_top" xlink:title="Porovnání mezi hodnotou elementu vektoru určenou iterátorem a hodnotou typu VectorElement.">
<polygon fill="white" stroke="#666666" points="187,-301.5 80,-301.5 80,-271.5 187,-271.5 187,-301.5"/>
<text text-anchor="start" x="88" y="-289.5" font-family="Helvetica,sans-Serif" font-size="10.00">vector_compare_with</text>
<text text-anchor="middle" x="133.5" y="-278.5" font-family="Helvetica,sans-Serif" font-size="10.00">_iterator_value</text>
</a>
</g>
</g>
<!-- Node2&#45;&gt;Node5 -->
<g id="edge4_Node000002_Node000005" class="edge"><title>Node2&#45;&gt;Node5</title>
<g id="a_edge4_Node000002_Node000005"><a xlink:title=" ">
<path fill="none" stroke="#63b8ff" d="M221.39,-286.5C209.889,-286.5 198.164,-286.5 187.201,-286.5"/>
<polygon fill="#63b8ff" stroke="#63b8ff" points="221.413,-290 231.413,-286.5 221.413,-283 221.413,-290"/>
</a>
</g>
</g>
<!-- Node4 -->
<g id="Node000004" class="node"><title>Node4</title>
<g id="a_Node000004"><a xlink:href="group___main_program.html#ga0ddf1224851353fc92bfbff6f499fa97" target="_top" xlink:title=" ">
<polygon fill="white" stroke="#666666" points="38,-179 0,-179 0,-160 38,-160 38,-179"/>
<text text-anchor="middle" x="19" y="-167" font-family="Helvetica,sans-Serif" font-size="10.00">main</text>
</a>
</g>
</g>
<!-- Node3&#45;&gt;Node4 -->
<g id="edge3_Node000003_Node000004" class="edge"><title>Node3&#45;&gt;Node4</title>
<g id="a_edge3_Node000003_Node000004"><a xlink:title=" ">
<path fill="none" stroke="#63b8ff" d="M92.9359,-321.989C86.0071,-319.266 79.3237,-315.555 74,-310.5 34.8428,-273.317 23.738,-204.675 20.894,-179.28"/>
<polygon fill="#63b8ff" stroke="#63b8ff" points="91.8386,-325.312 102.432,-325.124 94.0333,-318.665 91.8386,-325.312"/>
</a>
</g>
</g>
<!-- Node7 -->
<g id="Node000007" class="node"><title>Node7</title>
<g id="a_Node000007"><a xlink:href="group___basic_sorts.html#gaa1ef093f5205f293df8303ac228452fc" target="_top" xlink:title="Třídění přímou výměnou (Bubble Sort)">
<polygon fill="white" stroke="#666666" points="167,-253 100,-253 100,-234 167,-234 167,-253"/>
<text text-anchor="middle" x="133.5" y="-241" font-family="Helvetica,sans-Serif" font-size="10.00">bubble_sort</text>
</a>
</g>
</g>
<!-- Node6&#45;&gt;Node7 -->
<g id="edge6_Node000006_Node000007" class="edge"><title>Node6&#45;&gt;Node7</title>
<g id="a_edge6_Node000006_Node000007"><a xlink:title=" ">
<path fill="none" stroke="#63b8ff" d="M274.738,-166.955C255.773,-183.753 224.213,-209.558 193,-225.5 184.956,-229.608 175.805,-232.973 167.168,-235.635"/>
<polygon fill="#63b8ff" stroke="#63b8ff" points="277.202,-169.446 282.288,-160.151 272.516,-164.246 277.202,-169.446"/>
</a>
</g>
</g>
<!-- Node8 -->
<g id="Node000008" class="node"><title>Node8</title>
<g id="a_Node000008"><a xlink:href="group___basic_sorts.html#ga62a36eb31bf0a873f7c027e145843b1a" target="_top" xlink:title="Třídění přímou výměnou včetně optimalizace s pomocným příznakem ukončení třídění (Bubble Sort Optimiz...">
<polygon fill="white" stroke="#666666" points="190.5,-216 76.5,-216 76.5,-197 190.5,-197 190.5,-216"/>
<text text-anchor="middle" x="133.5" y="-204" font-family="Helvetica,sans-Serif" font-size="10.00">bubble_sort_optimized</text>
</a>
</g>
</g>
<!-- Node6&#45;&gt;Node8 -->
<g id="edge8_Node000006_Node000008" class="edge"><title>Node6&#45;&gt;Node8</title>
<g id="a_edge8_Node000006_Node000008"><a xlink:title=" ">
<path fill="none" stroke="#63b8ff" d="M259.414,-163.767C240.151,-171.333 215.332,-180.809 193,-188.5 184.56,-191.406 175.361,-194.343 166.809,-196.978"/>
<polygon fill="#63b8ff" stroke="#63b8ff" points="260.924,-166.934 268.939,-160.005 258.352,-160.423 260.924,-166.934"/>
</a>
</g>
</g>
<!-- Node9 -->
<g id="Node000009" class="node"><title>Node9</title>
<g id="a_Node000009"><a xlink:href="group___basic_sorts.html#gaba41a68f00241f38f7864b4e1dacd086" target="_top" xlink:title="Třídění přímou výměnou včetně optimalizace s výpočtem indexu poslední změny (Bubble Sort Optimized2)">
<polygon fill="white" stroke="#666666" points="193,-179 74,-179 74,-160 193,-160 193,-179"/>
<text text-anchor="middle" x="133.5" y="-167" font-family="Helvetica,sans-Serif" font-size="10.00">bubble_sort_optimized2</text>
</a>
</g>
</g>
<!-- Node6&#45;&gt;Node9 -->
<g id="edge10_Node000006_Node000009" class="edge"><title>Node6&#45;&gt;Node9</title>
<g id="a_edge10_Node000006_Node000009"><a xlink:title=" ">
<path fill="none" stroke="#63b8ff" d="M218.705,-159.374C210.145,-160.403 201.504,-161.443 193.185,-162.443"/>
<polygon fill="#63b8ff" stroke="#63b8ff" points="219.18,-162.842 228.691,-158.173 218.344,-155.892 219.18,-162.842"/>
</a>
</g>
</g>
<!-- Node10 -->
<g id="Node000010" class="node"><title>Node10</title>
<g id="a_Node000010"><a xlink:href="group___basic_sorts.html#ga3688a58781905ac2e518285b8bb711ec" target="_top" xlink:title="Třídění přímým výběrem (Select Sort)">
<polygon fill="white" stroke="#666666" points="166,-142 101,-142 101,-123 166,-123 166,-142"/>
<text text-anchor="middle" x="133.5" y="-130" font-family="Helvetica,sans-Serif" font-size="10.00">select_sort</text>
</a>
</g>
</g>
<!-- Node6&#45;&gt;Node10 -->
<g id="edge12_Node000006_Node000010" class="edge"><title>Node6&#45;&gt;Node10</title>
<g id="a_edge12_Node000006_Node000010"><a xlink:title=" ">
<path fill="none" stroke="#63b8ff" d="M218.741,-142.097C200.174,-139.982 181.218,-137.822 166.002,-136.089"/>
<polygon fill="#63b8ff" stroke="#63b8ff" points="218.359,-145.576 228.691,-143.231 219.151,-138.621 218.359,-145.576"/>
</a>
</g>
</g>
<!-- Node11 -->
<g id="Node000011" class="node"><title>Node11</title>
<g id="a_Node000011"><a xlink:href="group___basic_sorts.html#gaacee5d609500566a6ad1724486ab8bb2" target="_top" xlink:title="Třídění přímou výměnou se změnou postupu třídění (Shaker Sort)">
<polygon fill="white" stroke="#666666" points="167.5,-105 99.5,-105 99.5,-86 167.5,-86 167.5,-105"/>
<text text-anchor="middle" x="133.5" y="-93" font-family="Helvetica,sans-Serif" font-size="10.00">shaker_sort</text>
</a>
</g>
</g>
<!-- Node6&#45;&gt;Node11 -->
<g id="edge14_Node000006_Node000011" class="edge"><title>Node6&#45;&gt;Node11</title>
<g id="a_edge14_Node000006_Node000011"><a xlink:title=" ">
<path fill="none" stroke="#63b8ff" d="M257.362,-137.466C238.361,-130.498 214.455,-121.863 193,-114.5 183.809,-111.346 173.76,-108.033 164.625,-105.073"/>
<polygon fill="#63b8ff" stroke="#63b8ff" points="256.219,-140.775 266.813,-140.942 258.636,-134.205 256.219,-140.775"/>
</a>
</g>
</g>
<!-- Node12 -->
<g id="Node000012" class="node"><title>Node12</title>
<g id="a_Node000012"><a xlink:href="group__sortable___t_vector_iterator.html#gadd8aded92ce2c6402742a57316412d39" target="_top" xlink:title="Porovnání hodnot elementů vektorů určených dvěma iterátory.">
<polygon fill="white" stroke="#666666" points="187,-67.5 80,-67.5 80,-37.5 187,-37.5 187,-67.5"/>
<text text-anchor="start" x="88" y="-55.5" font-family="Helvetica,sans-Serif" font-size="10.00">vector_compare_with</text>
<text text-anchor="middle" x="133.5" y="-44.5" font-family="Helvetica,sans-Serif" font-size="10.00">_iterators</text>
</a>
</g>
</g>
<!-- Node6&#45;&gt;Node12 -->
<g id="edge16_Node000006_Node000012" class="edge"><title>Node6&#45;&gt;Node12</title>
<g id="a_edge16_Node000006_Node000012"><a xlink:title=" ">
<path fill="none" stroke="#63b8ff" d="M273.77,-134.32C254.468,-118.203 223.04,-93.4768 193,-76.5 187.361,-73.3133 181.214,-70.3208 175.093,-67.602"/>
<polygon fill="#63b8ff" stroke="#63b8ff" points="271.603,-137.072 281.499,-140.857 276.124,-131.727 271.603,-137.072"/>
</a>
</g>
</g>
<!-- Node7&#45;&gt;Node4 -->
<g id="edge7_Node000007_Node000004" class="edge"><title>Node7&#45;&gt;Node4</title>
<g id="a_edge7_Node000007_Node000004"><a xlink:title=" ">
<path fill="none" stroke="#63b8ff" d="M90.3748,-233.381C84.6673,-231.205 79.0458,-228.601 74,-225.5 53.9781,-213.196 36.2268,-191.747 26.9091,-179.269"/>
<polygon fill="#63b8ff" stroke="#63b8ff" points="89.3801,-236.74 99.9746,-236.652 91.6379,-230.114 89.3801,-236.74"/>
</a>
</g>
</g>
<!-- Node8&#45;&gt;Node4 -->
<g id="edge9_Node000008_Node000004" class="edge"><title>Node8&#45;&gt;Node4</title>
<g id="a_edge9_Node000008_Node000004"><a xlink:title=" ">
<path fill="none" stroke="#63b8ff" d="M90.6135,-193.833C85.0168,-192.076 79.3614,-190.267 74,-188.5 62.1071,-184.58 48.8398,-179.916 38.4322,-176.19"/>
<polygon fill="#63b8ff" stroke="#63b8ff" points="89.9593,-197.295 100.548,-196.92 92.0366,-190.61 89.9593,-197.295"/>
</a>
</g>
</g>
<!-- Node9&#45;&gt;Node4 -->
<g id="edge11_Node000009_Node000004" class="edge"><title>Node9&#45;&gt;Node4</title>
<g id="a_edge11_Node000009_Node000004"><a xlink:title=" ">
<path fill="none" stroke="#63b8ff" d="M63.65,-169.5C54.2928,-169.5 45.426,-169.5 38.159,-169.5"/>
<polygon fill="#63b8ff" stroke="#63b8ff" points="63.9435,-173 73.9434,-169.5 63.9434,-166 63.9435,-173"/>
</a>
</g>
</g>
<!-- Node10&#45;&gt;Node4 -->
<g id="edge13_Node000010_Node000004" class="edge"><title>Node10&#45;&gt;Node4</title>
<g id="a_edge13_Node000010_Node000004"><a xlink:title=" ">
<path fill="none" stroke="#63b8ff" d="M93.1617,-145.231C86.7545,-147.317 80.1907,-149.463 74,-151.5 62.1724,-155.392 48.9062,-159.813 38.4827,-163.3"/>
<polygon fill="#63b8ff" stroke="#63b8ff" points="94.5972,-148.444 103.025,-142.024 92.433,-141.787 94.5972,-148.444"/>
</a>
</g>
</g>
<!-- Node11&#45;&gt;Node4 -->
<g id="edge15_Node000011_Node000004" class="edge"><title>Node11&#45;&gt;Node4</title>
<g id="a_edge15_Node000011_Node000004"><a xlink:title=" ">
<path fill="none" stroke="#63b8ff" d="M89.6001,-106.759C84.1644,-108.949 78.8235,-111.514 74,-114.5 54.2024,-126.756 36.3705,-147.76 26.9782,-159.958"/>
<polygon fill="#63b8ff" stroke="#63b8ff" points="91.1848,-109.908 99.3956,-103.212 88.8014,-103.326 91.1848,-109.908"/>
</a>
</g>
</g>
<!-- Node14 -->
<g id="Node000014" class="node"><title>Node14</title>
<g id="a_Node000014"><a xlink:href="group___main_program.html#ga7343209645c93203da0a86613abfed04" target="_top" xlink:title="Testování třídicí metody.">
<polygon fill="white" stroke="#666666" points="167.5,-19 99.5,-19 99.5,-0 167.5,-0 167.5,-19"/>
<text text-anchor="middle" x="133.5" y="-7" font-family="Helvetica,sans-Serif" font-size="10.00">sort_testing</text>
</a>
</g>
</g>
<!-- Node13&#45;&gt;Node14 -->
<g id="edge18_Node000013_Node000014" class="edge"><title>Node13&#45;&gt;Node14</title>
<g id="a_edge18_Node000013_Node000014"><a xlink:title=" ">
<path fill="none" stroke="#63b8ff" d="M245.884,-48.5668C229.273,-41.9962 210.377,-34.7211 193,-28.5 183.952,-25.2606 174.035,-21.9506 164.979,-19.02"/>
<polygon fill="#63b8ff" stroke="#63b8ff" points="244.786,-51.8967 255.371,-52.3408 247.373,-45.3924 244.786,-51.8967"/>
</a>
</g>
</g>
<!-- Node14&#45;&gt;Node4 -->
<g id="edge19_Node000014_Node000004" class="edge"><title>Node14&#45;&gt;Node4</title>
<g id="a_edge19_Node000014_Node000004"><a xlink:title=" ">
<path fill="none" stroke="#63b8ff" d="M89.6056,-18.4081C83.8855,-20.9668 78.4646,-24.2605 74,-28.5 34.8428,-65.683 23.738,-134.325 20.894,-159.72"/>
<polygon fill="#63b8ff" stroke="#63b8ff" points="91.2502,-21.5304 99.3983,-14.7584 88.8056,-14.9711 91.2502,-21.5304"/>
</a>
</g>
</g>
</g>
</svg>
