<?xml version="1.0" encoding="UTF-8" standalone="no"?>
<!DOCTYPE svg PUBLIC "-//W3C//DTD SVG 1.1//EN"
 "http://www.w3.org/Graphics/SVG/1.1/DTD/svg11.dtd">
<!-- Generated by graphviz version 2.38.0 (20140413.2041)
 -->
<!-- Title: print_element Pages: 1 -->
<svg width="371pt" height="70pt"
 viewBox="0.00 0.00 371.00 69.50" xmlns="http://www.w3.org/2000/svg" xmlns:xlink="http://www.w3.org/1999/xlink">
<g id="graph0" class="graph" transform="scale(1 1) rotate(0) translate(4 65.5)">
<title>print_element</title>
<!-- Node1 -->
<g id="Node000001" class="node"><title>Node1</title>
<g id="a_Node000001"><a xlink:title="Vytisknutí elementu vektoru pomocí iterátoru.">
<polygon fill="#999999" stroke="#666666" points="75,-42.5 0,-42.5 0,-23.5 75,-23.5 75,-42.5"/>
<text text-anchor="middle" x="37.5" y="-30.5" font-family="Helvetica,sans-Serif" font-size="10.00">print_element</text>
</a>
</g>
</g>
<!-- Node2 -->
<g id="Node000002" class="node"><title>Node2</title>
<g id="a_Node000002"><a xlink:href="group___t_vector_element.html#gaaae5b52d7f1d155134792f040f00a385" target="_top" xlink:title="Uložení elementu do souboru.">
<polygon fill="white" stroke="#666666" points="237,-61.5 111,-61.5 111,-42.5 237,-42.5 237,-61.5"/>
<text text-anchor="middle" x="174" y="-49.5" font-family="Helvetica,sans-Serif" font-size="10.00">vector_element_store_file</text>
</a>
</g>
</g>
<!-- Node1&#45;&gt;Node2 -->
<g id="edge1_Node000001_Node000002" class="edge"><title>Node1&#45;&gt;Node2</title>
<g id="a_edge1_Node000001_Node000002"><a xlink:title=" ">
<path fill="none" stroke="#63b8ff" d="M75.2527,-38.1918C83.2773,-39.3254 92.037,-40.5628 100.91,-41.8162"/>
<polygon fill="#63b8ff" stroke="#63b8ff" points="100.551,-45.3002 110.942,-43.2334 101.53,-38.369 100.551,-45.3002"/>
</a>
</g>
</g>
<!-- Node3 -->
<g id="Node000003" class="node"><title>Node3</title>
<g id="a_Node000003"><a xlink:href="group___t_vector_iterator.html#ga4d8032eb9dbbdccf794611f2b0c9821c" target="_top" xlink:title="Přečtení hodnoty elementu z vektoru pomocí iterátoru.">
<polygon fill="white" stroke="#666666" points="226,-24.5 122,-24.5 122,-5.5 226,-5.5 226,-24.5"/>
<text text-anchor="middle" x="174" y="-12.5" font-family="Helvetica,sans-Serif" font-size="10.00">vector_iterator_value</text>
</a>
</g>
</g>
<!-- Node1&#45;&gt;Node3 -->
<g id="edge2_Node000001_Node000003" class="edge"><title>Node1&#45;&gt;Node3</title>
<g id="a_edge2_Node000001_Node000003"><a xlink:title=" ">
<path fill="none" stroke="#63b8ff" d="M75.2527,-28.0814C86.6067,-26.5619 99.432,-24.8455 111.967,-23.168"/>
<polygon fill="#63b8ff" stroke="#63b8ff" points="112.476,-26.6311 121.924,-21.8355 111.548,-19.693 112.476,-26.6311"/>
</a>
</g>
</g>
<!-- Node4 -->
<g id="Node000004" class="node"><title>Node4</title>
<g id="a_Node000004"><a xlink:href="group___t_vector_iterator.html#ga3f8a97a63f887539e270f6845bf22b9a" target="_top" xlink:title="Zjištění platnosti iterátoru.">
<polygon fill="white" stroke="#666666" points="363,-30 273,-30 273,-0 363,-0 363,-30"/>
<text text-anchor="start" x="281" y="-18" font-family="Helvetica,sans-Serif" font-size="10.00">vector_iterator_is</text>
<text text-anchor="middle" x="318" y="-7" font-family="Helvetica,sans-Serif" font-size="10.00">_valid</text>
</a>
</g>
</g>
<!-- Node3&#45;&gt;Node4 -->
<g id="edge3_Node000003_Node000004" class="edge"><title>Node3&#45;&gt;Node4</title>
<g id="a_edge3_Node000003_Node000004"><a xlink:title=" ">
<path fill="none" stroke="#63b8ff" d="M226.265,-15C238.062,-15 250.649,-15 262.575,-15"/>
<polygon fill="#63b8ff" stroke="#63b8ff" points="262.849,-18.5001 272.849,-15 262.849,-11.5001 262.849,-18.5001"/>
</a>
</g>
</g>
</g>
</svg>
