<?xml version="1.0" encoding="UTF-8" standalone="no"?>
<!DOCTYPE svg PUBLIC "-//W3C//DTD SVG 1.1//EN"
 "http://www.w3.org/Graphics/SVG/1.1/DTD/svg11.dtd">
<!-- Generated by graphviz version 2.38.0 (20140413.2041)
 -->
<!-- Title: vector_is_ascendantly_sorted Pages: 1 -->
<svg width="293pt" height="101pt"
 viewBox="0.00 0.00 293.00 101.00" xmlns="http://www.w3.org/2000/svg" xmlns:xlink="http://www.w3.org/1999/xlink">
<g id="graph0" class="graph" transform="scale(1 1) rotate(0) translate(4 97)">
<title>vector_is_ascendantly_sorted</title>
<!-- Node1 -->
<g id="Node000001" class="node"><title>Node1</title>
<g id="a_Node000001"><a xlink:title="Ověření korektního setřídění vektoru.">
<polygon fill="#999999" stroke="#666666" points="113,-61.5 0,-61.5 0,-31.5 113,-31.5 113,-61.5"/>
<text text-anchor="start" x="8" y="-49.5" font-family="Helvetica,sans-Serif" font-size="10.00">vector_is_ascendantly</text>
<text text-anchor="middle" x="56.5" y="-38.5" font-family="Helvetica,sans-Serif" font-size="10.00">_sorted</text>
</a>
</g>
</g>
<!-- Node2 -->
<g id="Node000002" class="node"><title>Node2</title>
<g id="a_Node000002"><a xlink:href="group___t_vector.html#ga6b0b8780d60dad02b8569be119769548" target="_top" xlink:title="Vytvoření úplné kopie vektoru.">
<polygon fill="white" stroke="#666666" points="252.5,-93 181.5,-93 181.5,-74 252.5,-74 252.5,-93"/>
<text text-anchor="middle" x="217" y="-81" font-family="Helvetica,sans-Serif" font-size="10.00">vector_clone</text>
</a>
</g>
</g>
<!-- Node1&#45;&gt;Node2 -->
<g id="edge1_Node000001_Node000002" class="edge"><title>Node1&#45;&gt;Node2</title>
<g id="a_edge1_Node000001_Node000002"><a xlink:title=" ">
<path fill="none" stroke="#63b8ff" d="M113.381,-59.5448C132.394,-63.9831 153.377,-68.8814 171.389,-73.086"/>
<polygon fill="#63b8ff" stroke="#63b8ff" points="170.801,-76.5427 181.334,-75.4077 172.392,-69.726 170.801,-76.5427"/>
</a>
</g>
</g>
<!-- Node3 -->
<g id="Node000003" class="node"><title>Node3</title>
<g id="a_Node000003"><a xlink:href="group___t_vector.html#ga41fcff5418fe213f2caaa586f521bcd6" target="_top" xlink:title="Dealokace vektoru.">
<polygon fill="white" stroke="#666666" points="257,-56 177,-56 177,-37 257,-37 257,-56"/>
<text text-anchor="middle" x="217" y="-44" font-family="Helvetica,sans-Serif" font-size="10.00">vector_destroy</text>
</a>
</g>
</g>
<!-- Node1&#45;&gt;Node3 -->
<g id="edge2_Node000001_Node000003" class="edge"><title>Node1&#45;&gt;Node3</title>
<g id="a_edge2_Node000001_Node000003"><a xlink:title=" ">
<path fill="none" stroke="#63b8ff" d="M113.381,-46.5C130.652,-46.5 149.55,-46.5 166.368,-46.5"/>
<polygon fill="#63b8ff" stroke="#63b8ff" points="166.539,-50.0001 176.539,-46.5 166.538,-43.0001 166.539,-50.0001"/>
</a>
</g>
</g>
<!-- Node4 -->
<g id="Node000004" class="node"><title>Node4</title>
<g id="a_Node000004"><a xlink:href="group___t_vector_element.html#ga82e527836fce12c93af896f65e9f701d" target="_top" xlink:title="Porovnání dvou elementů">
<polygon fill="white" stroke="#666666" points="285,-19 149,-19 149,-0 285,-0 285,-19"/>
<text text-anchor="middle" x="217" y="-7" font-family="Helvetica,sans-Serif" font-size="10.00">vector_element_comparator</text>
</a>
</g>
</g>
<!-- Node1&#45;&gt;Node4 -->
<g id="edge3_Node000001_Node000004" class="edge"><title>Node1&#45;&gt;Node4</title>
<g id="a_edge3_Node000001_Node000004"><a xlink:title=" ">
<path fill="none" stroke="#63b8ff" d="M113.381,-33.4552C130.209,-29.5268 148.582,-25.238 165.071,-21.3889"/>
<polygon fill="#63b8ff" stroke="#63b8ff" points="166.121,-24.7379 175.063,-19.0562 164.529,-17.9212 166.121,-24.7379"/>
</a>
</g>
</g>
</g>
</svg>
