<?xml version="1.0" encoding="UTF-8" standalone="no"?>
<!DOCTYPE svg PUBLIC "-//W3C//DTD SVG 1.1//EN"
 "http://www.w3.org/Graphics/SVG/1.1/DTD/svg11.dtd">
<!-- Generated by graphviz version 2.38.0 (20140413.2041)
 -->
<!-- Title: sort_testing Pages: 1 -->
<svg width="397pt" height="189pt"
 viewBox="0.00 0.00 397.00 189.00" xmlns="http://www.w3.org/2000/svg" xmlns:xlink="http://www.w3.org/1999/xlink">
<g id="graph0" class="graph" transform="scale(1 1) rotate(0) translate(4 185)">
<title>sort_testing</title>
<!-- Node1 -->
<g id="Node000001" class="node"><title>Node1</title>
<g id="a_Node000001"><a xlink:title="Testování třídicí metody.">
<polygon fill="#999999" stroke="#666666" points="68,-100 0,-100 0,-81 68,-81 68,-100"/>
<text text-anchor="middle" x="34" y="-88" font-family="Helvetica,sans-Serif" font-size="10.00">sort_testing</text>
</a>
</g>
</g>
<!-- Node2 -->
<g id="Node000002" class="node"><title>Node2</title>
<g id="a_Node000002"><a xlink:href="main__support_8h.html#aa291195ad453d2b1e29004cc2e043c01" target="_top" xlink:title="Výpočet doby trvání časového intervalu.">
<polygon fill="white" stroke="#666666" points="194.5,-181 126.5,-181 126.5,-162 194.5,-162 194.5,-181"/>
<text text-anchor="middle" x="160.5" y="-169" font-family="Helvetica,sans-Serif" font-size="10.00">difftimespec</text>
</a>
</g>
</g>
<!-- Node1&#45;&gt;Node2 -->
<g id="edge1_Node000001_Node000002" class="edge"><title>Node1&#45;&gt;Node2</title>
<g id="a_edge1_Node000001_Node000002"><a xlink:title=" ">
<path fill="none" stroke="#63b8ff" d="M45.0493,-100.377C57.8939,-112.613 81.2062,-133.547 104,-147.5 110.279,-151.343 117.282,-154.882 124.142,-157.994"/>
<polygon fill="#63b8ff" stroke="#63b8ff" points="122.758,-161.209 133.326,-161.963 125.535,-154.783 122.758,-161.209"/>
</a>
</g>
</g>
<!-- Node3 -->
<g id="Node000003" class="node"><title>Node3</title>
<g id="a_Node000003"><a xlink:href="group___t_vector.html#ga6b0b8780d60dad02b8569be119769548" target="_top" xlink:title="Vytvoření úplné kopie vektoru.">
<polygon fill="white" stroke="#666666" points="356.5,-140 285.5,-140 285.5,-121 356.5,-121 356.5,-140"/>
<text text-anchor="middle" x="321" y="-128" font-family="Helvetica,sans-Serif" font-size="10.00">vector_clone</text>
</a>
</g>
</g>
<!-- Node1&#45;&gt;Node3 -->
<g id="edge2_Node000001_Node000003" class="edge"><title>Node1&#45;&gt;Node3</title>
<g id="a_edge2_Node000001_Node000003"><a xlink:title=" ">
<path fill="none" stroke="#63b8ff" d="M57.5775,-100.029C70.8534,-105.206 88.1034,-111.206 104,-114.5 162.29,-126.579 231.088,-129.838 275.108,-130.565"/>
<polygon fill="#63b8ff" stroke="#63b8ff" points="275.155,-134.066 285.199,-130.695 275.244,-127.067 275.155,-134.066"/>
</a>
</g>
</g>
<!-- Node4 -->
<g id="Node000004" class="node"><title>Node4</title>
<g id="a_Node000004"><a xlink:href="group___t_vector.html#ga41fcff5418fe213f2caaa586f521bcd6" target="_top" xlink:title="Dealokace vektoru.">
<polygon fill="white" stroke="#666666" points="361,-60 281,-60 281,-41 361,-41 361,-60"/>
<text text-anchor="middle" x="321" y="-48" font-family="Helvetica,sans-Serif" font-size="10.00">vector_destroy</text>
</a>
</g>
</g>
<!-- Node1&#45;&gt;Node4 -->
<g id="edge3_Node000001_Node000004" class="edge"><title>Node1&#45;&gt;Node4</title>
<g id="a_edge3_Node000001_Node000004"><a xlink:title=" ">
<path fill="none" stroke="#63b8ff" d="M57.5775,-80.9707C70.8534,-75.7943 88.1034,-69.7943 104,-66.5 160.415,-54.8091 226.673,-51.381 270.784,-50.5128"/>
<polygon fill="#63b8ff" stroke="#63b8ff" points="271.007,-54.0098 280.95,-50.3504 270.895,-47.0107 271.007,-54.0098"/>
</a>
</g>
</g>
<!-- Node5 -->
<g id="Node000005" class="node"><title>Node5</title>
<g id="a_Node000005"><a xlink:href="group__sortable___t_vector.html#ga1b7a4850be6488c69c293bdd13f729a7" target="_top" xlink:title="Ověření korektního setřídění vektoru.">
<polygon fill="white" stroke="#666666" points="217,-105.5 104,-105.5 104,-75.5 217,-75.5 217,-105.5"/>
<text text-anchor="start" x="112" y="-93.5" font-family="Helvetica,sans-Serif" font-size="10.00">vector_is_ascendantly</text>
<text text-anchor="middle" x="160.5" y="-82.5" font-family="Helvetica,sans-Serif" font-size="10.00">_sorted</text>
</a>
</g>
</g>
<!-- Node1&#45;&gt;Node5 -->
<g id="edge4_Node000001_Node000005" class="edge"><title>Node1&#45;&gt;Node5</title>
<g id="a_edge4_Node000001_Node000005"><a xlink:title=" ">
<path fill="none" stroke="#63b8ff" d="M68.0369,-90.5C75.9926,-90.5 84.7717,-90.5 93.6487,-90.5"/>
<polygon fill="#63b8ff" stroke="#63b8ff" points="93.6742,-94.0001 103.674,-90.5 93.6741,-87.0001 93.6742,-94.0001"/>
</a>
</g>
</g>
<!-- Node7 -->
<g id="Node000007" class="node"><title>Node7</title>
<g id="a_Node000007"><a xlink:href="group__sortable___t_vector.html#gac0806530378fe49a3d61622ca8b9957e" target="_top" xlink:title="Zobrazení hodnoty statistik počtu operací s elementy vektoru.">
<polygon fill="white" stroke="#666666" points="215.5,-19 105.5,-19 105.5,-0 215.5,-0 215.5,-19"/>
<text text-anchor="middle" x="160.5" y="-7" font-family="Helvetica,sans-Serif" font-size="10.00">vector_print_sortstats</text>
</a>
</g>
</g>
<!-- Node1&#45;&gt;Node7 -->
<g id="edge8_Node000001_Node000007" class="edge"><title>Node1&#45;&gt;Node7</title>
<g id="a_edge8_Node000001_Node000007"><a xlink:title=" ">
<path fill="none" stroke="#63b8ff" d="M45.0493,-80.6233C57.8939,-68.3873 81.2062,-47.453 104,-33.5 110.279,-29.6566 117.282,-26.118 124.142,-23.0056"/>
<polygon fill="#63b8ff" stroke="#63b8ff" points="125.535,-26.2166 133.326,-19.0369 122.758,-19.7909 125.535,-26.2166"/>
</a>
</g>
</g>
<!-- Node5&#45;&gt;Node3 -->
<g id="edge5_Node000005_Node000003" class="edge"><title>Node5&#45;&gt;Node3</title>
<g id="a_edge5_Node000005_Node000003"><a xlink:title=" ">
<path fill="none" stroke="#63b8ff" d="M217.381,-104.603C236.394,-109.401 257.377,-114.696 275.389,-119.242"/>
<polygon fill="#63b8ff" stroke="#63b8ff" points="274.782,-122.698 285.334,-121.752 276.495,-115.911 274.782,-122.698"/>
</a>
</g>
</g>
<!-- Node5&#45;&gt;Node4 -->
<g id="edge6_Node000005_Node000004" class="edge"><title>Node5&#45;&gt;Node4</title>
<g id="a_edge6_Node000005_Node000004"><a xlink:title=" ">
<path fill="none" stroke="#63b8ff" d="M217.381,-76.3975C235.262,-71.8849 254.887,-66.9324 272.142,-62.5776"/>
<polygon fill="#63b8ff" stroke="#63b8ff" points="273.158,-65.9312 281.998,-60.0905 271.445,-59.1439 273.158,-65.9312"/>
</a>
</g>
</g>
<!-- Node6 -->
<g id="Node000006" class="node"><title>Node6</title>
<g id="a_Node000006"><a xlink:href="group___t_vector_element.html#ga82e527836fce12c93af896f65e9f701d" target="_top" xlink:title="Porovnání dvou elementů">
<polygon fill="white" stroke="#666666" points="389,-100 253,-100 253,-81 389,-81 389,-100"/>
<text text-anchor="middle" x="321" y="-88" font-family="Helvetica,sans-Serif" font-size="10.00">vector_element_comparator</text>
</a>
</g>
</g>
<!-- Node5&#45;&gt;Node6 -->
<g id="edge7_Node000005_Node000006" class="edge"><title>Node5&#45;&gt;Node6</title>
<g id="a_edge7_Node000005_Node000006"><a xlink:title=" ">
<path fill="none" stroke="#63b8ff" d="M217.381,-90.5C225.645,-90.5 234.281,-90.5 242.883,-90.5"/>
<polygon fill="#63b8ff" stroke="#63b8ff" points="242.942,-94.0001 252.942,-90.5 242.942,-87.0001 242.942,-94.0001"/>
</a>
</g>
</g>
</g>
</svg>
