<?xml version="1.0" encoding="UTF-8" standalone="no"?>
<!DOCTYPE svg PUBLIC "-//W3C//DTD SVG 1.1//EN"
 "http://www.w3.org/Graphics/SVG/1.1/DTD/svg11.dtd">
<!-- Generated by graphviz version 2.38.0 (20140413.2041)
 -->
<!-- Title: vector_swap_positions Pages: 1 -->
<svg width="365pt" height="212pt"
 viewBox="0.00 0.00 365.00 212.00" xmlns="http://www.w3.org/2000/svg" xmlns:xlink="http://www.w3.org/1999/xlink">
<g id="graph0" class="graph" transform="scale(1 1) rotate(0) translate(4 208)">
<title>vector_swap_positions</title>
<!-- Node1 -->
<g id="Node000001" class="node"><title>Node1</title>
<g id="a_Node000001"><a xlink:title="Výměna hodnot elementů vektorů">
<polygon fill="#999999" stroke="#666666" points="357,-111 243,-111 243,-92 357,-92 357,-111"/>
<text text-anchor="middle" x="300" y="-99" font-family="Helvetica,sans-Serif" font-size="10.00">vector_swap_positions</text>
</a>
</g>
</g>
<!-- Node2 -->
<g id="Node000002" class="node"><title>Node2</title>
<g id="a_Node000002"><a xlink:href="group___basic_sorts.html#gaa1ef093f5205f293df8303ac228452fc" target="_top" xlink:title="Třídění přímou výměnou (Bubble Sort)">
<polygon fill="white" stroke="#666666" points="174,-204 107,-204 107,-185 174,-185 174,-204"/>
<text text-anchor="middle" x="140.5" y="-192" font-family="Helvetica,sans-Serif" font-size="10.00">bubble_sort</text>
</a>
</g>
</g>
<!-- Node1&#45;&gt;Node2 -->
<g id="edge1_Node000001_Node000002" class="edge"><title>Node1&#45;&gt;Node2</title>
<g id="a_edge1_Node000001_Node000002"><a xlink:title=" ">
<path fill="none" stroke="#63b8ff" d="M282.951,-118.17C265.69,-135.178 236.701,-161.185 207,-176.5 196.833,-181.743 184.966,-185.596 174.149,-188.361"/>
<polygon fill="#63b8ff" stroke="#63b8ff" points="285.451,-120.62 290.017,-111.06 280.485,-115.686 285.451,-120.62"/>
</a>
</g>
</g>
<!-- Node4 -->
<g id="Node000004" class="node"><title>Node4</title>
<g id="a_Node000004"><a xlink:href="group___basic_sorts.html#ga62a36eb31bf0a873f7c027e145843b1a" target="_top" xlink:title="Třídění přímou výměnou včetně optimalizace s pomocným příznakem ukončení třídění (Bubble Sort Optimiz...">
<polygon fill="white" stroke="#666666" points="197.5,-167 83.5,-167 83.5,-148 197.5,-148 197.5,-167"/>
<text text-anchor="middle" x="140.5" y="-155" font-family="Helvetica,sans-Serif" font-size="10.00">bubble_sort_optimized</text>
</a>
</g>
</g>
<!-- Node1&#45;&gt;Node4 -->
<g id="edge3_Node000001_Node000004" class="edge"><title>Node1&#45;&gt;Node4</title>
<g id="a_edge3_Node000001_Node000004"><a xlink:title=" ">
<path fill="none" stroke="#63b8ff" d="M268.799,-115.08C251.016,-122.796 227.968,-132.319 207,-139.5 198.186,-142.518 188.574,-145.388 179.497,-147.913"/>
<polygon fill="#63b8ff" stroke="#63b8ff" points="270.338,-118.227 278.09,-111.005 267.526,-111.816 270.338,-118.227"/>
</a>
</g>
</g>
<!-- Node5 -->
<g id="Node000005" class="node"><title>Node5</title>
<g id="a_Node000005"><a xlink:href="group___basic_sorts.html#gaba41a68f00241f38f7864b4e1dacd086" target="_top" xlink:title="Třídění přímou výměnou včetně optimalizace s výpočtem indexu poslední změny (Bubble Sort Optimized2)">
<polygon fill="white" stroke="#666666" points="200,-130 81,-130 81,-111 200,-111 200,-130"/>
<text text-anchor="middle" x="140.5" y="-118" font-family="Helvetica,sans-Serif" font-size="10.00">bubble_sort_optimized2</text>
</a>
</g>
</g>
<!-- Node1&#45;&gt;Node5 -->
<g id="edge5_Node000001_Node000005" class="edge"><title>Node1&#45;&gt;Node5</title>
<g id="a_edge5_Node000001_Node000005"><a xlink:title=" ">
<path fill="none" stroke="#63b8ff" d="M232.431,-109.531C221.715,-110.823 210.691,-112.153 200.179,-113.421"/>
<polygon fill="#63b8ff" stroke="#63b8ff" points="233.075,-112.978 242.584,-108.306 232.237,-106.029 233.075,-112.978"/>
</a>
</g>
</g>
<!-- Node6 -->
<g id="Node000006" class="node"><title>Node6</title>
<g id="a_Node000006"><a xlink:href="group___basic_sorts.html#ga3688a58781905ac2e518285b8bb711ec" target="_top" xlink:title="Třídění přímým výběrem (Select Sort)">
<polygon fill="white" stroke="#666666" points="173,-93 108,-93 108,-74 173,-74 173,-93"/>
<text text-anchor="middle" x="140.5" y="-81" font-family="Helvetica,sans-Serif" font-size="10.00">select_sort</text>
</a>
</g>
</g>
<!-- Node1&#45;&gt;Node6 -->
<g id="edge7_Node000001_Node000006" class="edge"><title>Node1&#45;&gt;Node6</title>
<g id="a_edge7_Node000001_Node000006"><a xlink:title=" ">
<path fill="none" stroke="#63b8ff" d="M232.61,-93.9125C212.052,-91.563 190.341,-89.0818 173.272,-87.1311"/>
<polygon fill="#63b8ff" stroke="#63b8ff" points="232.251,-97.3942 242.584,-95.0524 233.046,-90.4395 232.251,-97.3942"/>
</a>
</g>
</g>
<!-- Node7 -->
<g id="Node000007" class="node"><title>Node7</title>
<g id="a_Node000007"><a xlink:href="group___basic_sorts.html#gaacee5d609500566a6ad1724486ab8bb2" target="_top" xlink:title="Třídění přímou výměnou se změnou postupu třídění (Shaker Sort)">
<polygon fill="white" stroke="#666666" points="174.5,-56 106.5,-56 106.5,-37 174.5,-37 174.5,-56"/>
<text text-anchor="middle" x="140.5" y="-44" font-family="Helvetica,sans-Serif" font-size="10.00">shaker_sort</text>
</a>
</g>
</g>
<!-- Node1&#45;&gt;Node7 -->
<g id="edge9_Node000001_Node000007" class="edge"><title>Node1&#45;&gt;Node7</title>
<g id="a_edge9_Node000001_Node000007"><a xlink:title=" ">
<path fill="none" stroke="#63b8ff" d="M266.43,-87.9232C248.951,-80.8488 226.955,-72.2829 207,-65.5 196.574,-61.9562 185.079,-58.4797 174.668,-55.4893"/>
<polygon fill="#63b8ff" stroke="#63b8ff" points="265.569,-91.3521 276.15,-91.8914 268.215,-84.8713 265.569,-91.3521"/>
</a>
</g>
</g>
<!-- Node8 -->
<g id="Node000008" class="node"><title>Node8</title>
<g id="a_Node000008"><a xlink:href="group__sortable___t_vector_iterator.html#gac16589d02c81c789a7fa6cd323a49013" target="_top" xlink:title="Výměna hodnot elementů vektorů určených dvěma iterátory.">
<polygon fill="white" stroke="#666666" points="207,-19 74,-19 74,-0 207,-0 207,-19"/>
<text text-anchor="middle" x="140.5" y="-7" font-family="Helvetica,sans-Serif" font-size="10.00">vector_swap_with_iterators</text>
</a>
</g>
</g>
<!-- Node1&#45;&gt;Node8 -->
<g id="edge11_Node000001_Node000008" class="edge"><title>Node1&#45;&gt;Node8</title>
<g id="a_edge11_Node000001_Node000008"><a xlink:title=" ">
<path fill="none" stroke="#63b8ff" d="M281.502,-84.1329C264.006,-67.6597 235.649,-43.2891 207,-28.5 199.74,-24.7525 191.636,-21.6448 183.669,-19.1043"/>
<polygon fill="#63b8ff" stroke="#63b8ff" points="279.538,-87.1 289.172,-91.5087 284.39,-82.0544 279.538,-87.1"/>
</a>
</g>
</g>
<!-- Node3 -->
<g id="Node000003" class="node"><title>Node3</title>
<g id="a_Node000003"><a xlink:href="group___main_program.html#ga0ddf1224851353fc92bfbff6f499fa97" target="_top" xlink:title=" ">
<polygon fill="white" stroke="#666666" points="38,-130 0,-130 0,-111 38,-111 38,-130"/>
<text text-anchor="middle" x="19" y="-118" font-family="Helvetica,sans-Serif" font-size="10.00">main</text>
</a>
</g>
</g>
<!-- Node2&#45;&gt;Node3 -->
<g id="edge2_Node000002_Node000003" class="edge"><title>Node2&#45;&gt;Node3</title>
<g id="a_edge2_Node000002_Node000003"><a xlink:title=" ">
<path fill="none" stroke="#63b8ff" d="M97.1415,-186.442C89.1355,-183.94 81.0647,-180.695 74,-176.5 53.7939,-164.501 36.1088,-142.942 26.8524,-130.363"/>
<polygon fill="#63b8ff" stroke="#63b8ff" points="96.2301,-189.821 106.803,-189.137 98.1116,-183.078 96.2301,-189.821"/>
</a>
</g>
</g>
<!-- Node4&#45;&gt;Node3 -->
<g id="edge4_Node000004_Node000003" class="edge"><title>Node4&#45;&gt;Node3</title>
<g id="a_edge4_Node000004_Node000003"><a xlink:title=" ">
<path fill="none" stroke="#63b8ff" d="M93.0316,-145.164C86.6174,-143.335 80.1304,-141.418 74,-139.5 62.049,-135.76 48.7809,-131.099 38.3873,-127.33"/>
<polygon fill="#63b8ff" stroke="#63b8ff" points="92.4159,-148.627 102.989,-147.954 94.3045,-141.886 92.4159,-148.627"/>
</a>
</g>
</g>
<!-- Node5&#45;&gt;Node3 -->
<g id="edge6_Node000005_Node000003" class="edge"><title>Node5&#45;&gt;Node3</title>
<g id="a_edge6_Node000005_Node000003"><a xlink:title=" ">
<path fill="none" stroke="#63b8ff" d="M70.6048,-120.5C58.5569,-120.5 47.017,-120.5 38.0076,-120.5"/>
<polygon fill="#63b8ff" stroke="#63b8ff" points="70.8003,-124 80.8002,-120.5 70.8002,-117 70.8003,-124"/>
</a>
</g>
</g>
<!-- Node6&#45;&gt;Node3 -->
<g id="edge8_Node000006_Node000003" class="edge"><title>Node6&#45;&gt;Node3</title>
<g id="a_edge8_Node000006_Node000003"><a xlink:title=" ">
<path fill="none" stroke="#63b8ff" d="M97.9172,-95.2946C89.9608,-97.627 81.7099,-100.098 74,-102.5 62.1122,-106.204 48.845,-110.622 38.4361,-114.155"/>
<polygon fill="#63b8ff" stroke="#63b8ff" points="99.1488,-98.5816 107.775,-92.4299 97.1954,-91.8597 99.1488,-98.5816"/>
</a>
</g>
</g>
<!-- Node7&#45;&gt;Node3 -->
<g id="edge10_Node000007_Node000003" class="edge"><title>Node7&#45;&gt;Node3</title>
<g id="a_edge10_Node000007_Node000003"><a xlink:title=" ">
<path fill="none" stroke="#63b8ff" d="M96.6626,-55.4872C88.8207,-58.0757 80.9328,-61.3589 74,-65.5 54.0106,-77.4401 36.2477,-98.5578 26.9192,-110.861"/>
<polygon fill="#63b8ff" stroke="#63b8ff" points="97.9056,-58.7693 106.496,-52.5678 95.9133,-52.0588 97.9056,-58.7693"/>
</a>
</g>
</g>
</g>
</svg>
