<?xml version="1.0" encoding="UTF-8" standalone="no"?>
<!DOCTYPE svg PUBLIC "-//W3C//DTD SVG 1.1//EN"
 "http://www.w3.org/Graphics/SVG/1.1/DTD/svg11.dtd">
<!-- Generated by graphviz version 2.38.0 (20140413.2041)
 -->
<!-- Title: vector_iterator_is_valid Pages: 1 -->
<svg width="461pt" height="447pt"
 viewBox="0.00 0.00 461.00 446.50" xmlns="http://www.w3.org/2000/svg" xmlns:xlink="http://www.w3.org/1999/xlink">
<g id="graph0" class="graph" transform="scale(1 1) rotate(0) translate(4 442.5)">
<title>vector_iterator_is_valid</title>
<!-- Node1 -->
<g id="Node000001" class="node"><title>Node1</title>
<g id="a_Node000001"><a xlink:title="Zjištění platnosti iterátoru.">
<polygon fill="#999999" stroke="#666666" points="453,-223.5 363,-223.5 363,-193.5 453,-193.5 453,-223.5"/>
<text text-anchor="start" x="371" y="-211.5" font-family="Helvetica,sans-Serif" font-size="10.00">vector_iterator_is</text>
<text text-anchor="middle" x="408" y="-200.5" font-family="Helvetica,sans-Serif" font-size="10.00">_valid</text>
</a>
</g>
</g>
<!-- Node2 -->
<g id="Node000002" class="node"><title>Node2</title>
<g id="a_Node000002"><a xlink:href="group__sortable___t_vector_iterator.html#gaa359594c5556fb685473666fad583ddf" target="_top" xlink:title="Porovnání mezi hodnotou elementu vektoru určenou iterátorem a hodnotou typu VectorElement.">
<polygon fill="white" stroke="#666666" points="314,-438.5 207,-438.5 207,-408.5 314,-408.5 314,-438.5"/>
<text text-anchor="start" x="215" y="-426.5" font-family="Helvetica,sans-Serif" font-size="10.00">vector_compare_with</text>
<text text-anchor="middle" x="260.5" y="-415.5" font-family="Helvetica,sans-Serif" font-size="10.00">_iterator_value</text>
</a>
</g>
</g>
<!-- Node1&#45;&gt;Node2 -->
<g id="edge1_Node000001_Node000002" class="edge"><title>Node1&#45;&gt;Node2</title>
<g id="a_edge1_Node000001_Node000002"><a xlink:title=" ">
<path fill="none" stroke="#63b8ff" d="M403.053,-233.799C395.459,-274.236 375.094,-353.542 327,-399.5 323.235,-403.098 318.887,-406.164 314.257,-408.776"/>
<polygon fill="#63b8ff" stroke="#63b8ff" points="406.542,-234.169 404.831,-223.713 399.648,-232.953 406.542,-234.169"/>
</a>
</g>
</g>
<!-- Node3 -->
<g id="Node000003" class="node"><title>Node3</title>
<g id="a_Node000003"><a xlink:href="group__sortable___t_vector_iterator.html#gadd8aded92ce2c6402742a57316412d39" target="_top" xlink:title="Porovnání hodnot elementů vektorů určených dvěma iterátory.">
<polygon fill="white" stroke="#666666" points="314,-390.5 207,-390.5 207,-360.5 314,-360.5 314,-390.5"/>
<text text-anchor="start" x="215" y="-378.5" font-family="Helvetica,sans-Serif" font-size="10.00">vector_compare_with</text>
<text text-anchor="middle" x="260.5" y="-367.5" font-family="Helvetica,sans-Serif" font-size="10.00">_iterators</text>
</a>
</g>
</g>
<!-- Node1&#45;&gt;Node3 -->
<g id="edge2_Node000001_Node000003" class="edge"><title>Node1&#45;&gt;Node3</title>
<g id="a_edge2_Node000001_Node000003"><a xlink:title=" ">
<path fill="none" stroke="#63b8ff" d="M399.112,-233.561C387.926,-265.242 364.537,-319.498 327,-351.5 322.945,-354.957 318.349,-357.935 313.518,-360.496"/>
<polygon fill="#63b8ff" stroke="#63b8ff" points="402.543,-234.341 402.441,-223.747 395.914,-232.093 402.543,-234.341"/>
</a>
</g>
</g>
<!-- Node4 -->
<g id="Node000004" class="node"><title>Node4</title>
<g id="a_Node000004"><a xlink:href="group___iterator_algorithms.html#gad9872ced82843c0e0864a8e2547ca579" target="_top" xlink:title="Zavolání zvolené funkce na každý element vektoru od pozice určené iterátorem až do konce vektoru.">
<polygon fill="white" stroke="#666666" points="158,-279 74,-279 74,-260 158,-260 158,-279"/>
<text text-anchor="middle" x="116" y="-267" font-family="Helvetica,sans-Serif" font-size="10.00">vector_for_each</text>
</a>
</g>
</g>
<!-- Node1&#45;&gt;Node4 -->
<g id="edge3_Node000001_Node000004" class="edge"><title>Node1&#45;&gt;Node4</title>
<g id="a_edge3_Node000001_Node000004"><a xlink:title=" ">
<path fill="none" stroke="#63b8ff" d="M387.72,-231.512C372.949,-247.237 351.069,-266.752 327,-275.5 270.439,-296.056 199.55,-287.622 156.3,-279.028"/>
<polygon fill="#63b8ff" stroke="#63b8ff" points="390.661,-233.477 394.769,-223.711 385.468,-228.784 390.661,-233.477"/>
</a>
</g>
</g>
<!-- Node5 -->
<g id="Node000005" class="node"><title>Node5</title>
<g id="a_Node000005"><a xlink:href="group___iterator_algorithms.html#gac5ae89ba507530f7c51c45447efbe4ac" target="_top" xlink:title="Zavolání zvolené funkce na prvních N elementů vektoru od pozice určené iterátorem.">
<polygon fill="white" stroke="#666666" points="150,-218 82,-218 82,-199 150,-199 150,-218"/>
<text text-anchor="middle" x="116" y="-206" font-family="Helvetica,sans-Serif" font-size="10.00">vector_for_n</text>
</a>
</g>
</g>
<!-- Node1&#45;&gt;Node5 -->
<g id="edge4_Node000001_Node000005" class="edge"><title>Node1&#45;&gt;Node5</title>
<g id="a_edge4_Node000001_Node000005"><a xlink:title=" ">
<path fill="none" stroke="#63b8ff" d="M383.701,-186.828C368.735,-174.434 348.186,-160.08 327,-153.5 270.549,-135.967 250.291,-135.461 194,-153.5 166.153,-162.424 139.804,-185.528 126.333,-198.779"/>
<polygon fill="#63b8ff" stroke="#63b8ff" points="381.544,-189.588 391.41,-193.45 386.105,-184.278 381.544,-189.588"/>
</a>
</g>
</g>
<!-- Node7 -->
<g id="Node000007" class="node"><title>Node7</title>
<g id="a_Node000007"><a xlink:href="group___t_vector_iterator.html#ga66f6b96e416a7e593b1cf703f58be7ca" target="_top" xlink:title="Zapsání hodnoty elementu do vektoru pomocí iterátoru.">
<polygon fill="white" stroke="#666666" points="308.5,-266.5 212.5,-266.5 212.5,-236.5 308.5,-236.5 308.5,-266.5"/>
<text text-anchor="start" x="220.5" y="-254.5" font-family="Helvetica,sans-Serif" font-size="10.00">vector_iterator_set</text>
<text text-anchor="middle" x="260.5" y="-243.5" font-family="Helvetica,sans-Serif" font-size="10.00">_value</text>
</a>
</g>
</g>
<!-- Node1&#45;&gt;Node7 -->
<g id="edge6_Node000001_Node000007" class="edge"><title>Node1&#45;&gt;Node7</title>
<g id="a_edge6_Node000001_Node000007"><a xlink:title=" ">
<path fill="none" stroke="#63b8ff" d="M353.07,-224.438C338.503,-228.743 322.855,-233.368 308.689,-237.554"/>
<polygon fill="#63b8ff" stroke="#63b8ff" points="354.352,-227.709 362.95,-221.518 352.368,-220.996 354.352,-227.709"/>
</a>
</g>
</g>
<!-- Node8 -->
<g id="Node000008" class="node"><title>Node8</title>
<g id="a_Node000008"><a xlink:href="group___t_vector_iterator.html#ga7ce07cda016d67e3ca891125613ece56" target="_top" xlink:title="Posunutí iterátoru vpřed.">
<polygon fill="white" stroke="#666666" points="318,-218 203,-218 203,-199 318,-199 318,-218"/>
<text text-anchor="middle" x="260.5" y="-206" font-family="Helvetica,sans-Serif" font-size="10.00">vector_iterator_to_next</text>
</a>
</g>
</g>
<!-- Node1&#45;&gt;Node8 -->
<g id="edge7_Node000001_Node000008" class="edge"><title>Node1&#45;&gt;Node8</title>
<g id="a_edge7_Node000001_Node000008"><a xlink:title=" ">
<path fill="none" stroke="#63b8ff" d="M352.762,-208.5C341.434,-208.5 329.465,-208.5 318.056,-208.5"/>
<polygon fill="#63b8ff" stroke="#63b8ff" points="352.95,-212 362.95,-208.5 352.95,-205 352.95,-212"/>
</a>
</g>
</g>
<!-- Node9 -->
<g id="Node000009" class="node"><title>Node9</title>
<g id="a_Node000009"><a xlink:href="group___t_vector_iterator.html#ga8e1e1cc570f8a1c2bf1fb73c0d3c8826" target="_top" xlink:title="Posunutí iterátoru vzad.">
<polygon fill="white" stroke="#666666" points="317,-181 204,-181 204,-162 317,-162 317,-181"/>
<text text-anchor="middle" x="260.5" y="-169" font-family="Helvetica,sans-Serif" font-size="10.00">vector_iterator_to_prev</text>
</a>
</g>
</g>
<!-- Node1&#45;&gt;Node9 -->
<g id="edge10_Node000001_Node000009" class="edge"><title>Node1&#45;&gt;Node9</title>
<g id="a_edge10_Node000001_Node000009"><a xlink:title=" ">
<path fill="none" stroke="#63b8ff" d="M353.152,-194.807C335.152,-190.229 315.493,-185.23 299.014,-181.04"/>
<polygon fill="#63b8ff" stroke="#63b8ff" points="352.396,-198.226 362.95,-197.298 354.121,-191.442 352.396,-198.226"/>
</a>
</g>
</g>
<!-- Node10 -->
<g id="Node000010" class="node"><title>Node10</title>
<g id="a_Node000010"><a xlink:href="group___t_vector_iterator.html#ga4d8032eb9dbbdccf794611f2b0c9821c" target="_top" xlink:title="Přečtení hodnoty elementu z vektoru pomocí iterátoru.">
<polygon fill="white" stroke="#666666" points="312.5,-342 208.5,-342 208.5,-323 312.5,-323 312.5,-342"/>
<text text-anchor="middle" x="260.5" y="-330" font-family="Helvetica,sans-Serif" font-size="10.00">vector_iterator_value</text>
</a>
</g>
</g>
<!-- Node1&#45;&gt;Node10 -->
<g id="edge11_Node000001_Node000010" class="edge"><title>Node1&#45;&gt;Node10</title>
<g id="a_edge11_Node000001_Node000010"><a xlink:title=" ">
<path fill="none" stroke="#63b8ff" d="M393.396,-232.138C379.367,-254.616 355.552,-287.959 327,-308.5 318.447,-314.653 308.142,-319.396 298.265,-322.976"/>
<polygon fill="#63b8ff" stroke="#63b8ff" points="396.425,-233.892 398.624,-223.528 390.442,-230.259 396.425,-233.892"/>
</a>
</g>
</g>
<!-- Node12 -->
<g id="Node000012" class="node"><title>Node12</title>
<g id="a_Node000012"><a xlink:href="group__sortable___t_vector_iterator.html#gaa3e549d3e67e2168311acc8f4a494cc5" target="_top" xlink:title="Přesun hodnoty elementu vektoru určené dvěma iterátory.">
<polygon fill="white" stroke="#666666" points="327,-105 194,-105 194,-86 327,-86 327,-105"/>
<text text-anchor="middle" x="260.5" y="-93" font-family="Helvetica,sans-Serif" font-size="10.00">vector_move_with_iterators</text>
</a>
</g>
</g>
<!-- Node1&#45;&gt;Node12 -->
<g id="edge14_Node000001_Node000012" class="edge"><title>Node1&#45;&gt;Node12</title>
<g id="a_edge14_Node000001_Node000012"><a xlink:title=" ">
<path fill="none" stroke="#63b8ff" d="M390.943,-184.963C376.322,-165.097 353.08,-137.148 327,-119.5 318.073,-113.459 307.437,-108.718 297.358,-105.103"/>
<polygon fill="#63b8ff" stroke="#63b8ff" points="388.175,-187.109 396.85,-193.192 393.862,-183.027 388.175,-187.109"/>
</a>
</g>
</g>
<!-- Node13 -->
<g id="Node000013" class="node"><title>Node13</title>
<g id="a_Node000013"><a xlink:href="group__sortable___t_vector_iterator.html#ga015969daf209d461aaf0ba4391df4b5b" target="_top" xlink:title="Výměna mezi hodnotou elementu vektoru určenou iterátorem a proměnnou typu VectorElement.">
<polygon fill="white" stroke="#666666" points="324.5,-67.5 196.5,-67.5 196.5,-37.5 324.5,-37.5 324.5,-67.5"/>
<text text-anchor="start" x="204.5" y="-55.5" font-family="Helvetica,sans-Serif" font-size="10.00">vector_swap_with_iterator</text>
<text text-anchor="middle" x="260.5" y="-44.5" font-family="Helvetica,sans-Serif" font-size="10.00">_value</text>
</a>
</g>
</g>
<!-- Node1&#45;&gt;Node13 -->
<g id="edge15_Node000001_Node000013" class="edge"><title>Node1&#45;&gt;Node13</title>
<g id="a_edge15_Node000001_Node000013"><a xlink:title=" ">
<path fill="none" stroke="#63b8ff" d="M397.767,-183.867C385.673,-154.705 361.828,-106.455 327,-77.5 322.414,-73.6872 317.184,-70.418 311.724,-67.6241"/>
<polygon fill="#63b8ff" stroke="#63b8ff" points="394.587,-185.34 401.553,-193.322 401.085,-182.738 394.587,-185.34"/>
</a>
</g>
</g>
<!-- Node14 -->
<g id="Node000014" class="node"><title>Node14</title>
<g id="a_Node000014"><a xlink:href="group__sortable___t_vector_iterator.html#gac16589d02c81c789a7fa6cd323a49013" target="_top" xlink:title="Výměna hodnot elementů vektorů určených dvěma iterátory.">
<polygon fill="white" stroke="#666666" points="327,-19 194,-19 194,-0 327,-0 327,-19"/>
<text text-anchor="middle" x="260.5" y="-7" font-family="Helvetica,sans-Serif" font-size="10.00">vector_swap_with_iterators</text>
</a>
</g>
</g>
<!-- Node1&#45;&gt;Node14 -->
<g id="edge16_Node000001_Node000014" class="edge"><title>Node1&#45;&gt;Node14</title>
<g id="a_edge16_Node000001_Node000014"><a xlink:title=" ">
<path fill="none" stroke="#63b8ff" d="M402.791,-183.438C394.936,-144.536 374.341,-69.8084 327,-28.5 322.539,-24.6077 317.322,-21.5111 311.815,-19.0477"/>
<polygon fill="#63b8ff" stroke="#63b8ff" points="399.379,-184.23 404.681,-193.403 406.256,-182.926 399.379,-184.23"/>
</a>
</g>
</g>
<!-- Node6 -->
<g id="Node000006" class="node"><title>Node6</title>
<g id="a_Node000006"><a xlink:href="group___main_program.html#ga0ddf1224851353fc92bfbff6f499fa97" target="_top" xlink:title=" ">
<polygon fill="white" stroke="#666666" points="38,-273 0,-273 0,-254 38,-254 38,-273"/>
<text text-anchor="middle" x="19" y="-261" font-family="Helvetica,sans-Serif" font-size="10.00">main</text>
</a>
</g>
</g>
<!-- Node5&#45;&gt;Node6 -->
<g id="edge5_Node000005_Node000006" class="edge"><title>Node5&#45;&gt;Node6</title>
<g id="a_edge5_Node000005_Node000006"><a xlink:title=" ">
<path fill="none" stroke="#63b8ff" d="M89.6897,-223.153C72.9002,-232.874 51.3399,-245.356 36.6769,-253.845"/>
<polygon fill="#63b8ff" stroke="#63b8ff" points="91.5516,-226.12 98.4523,-218.08 88.0443,-220.062 91.5516,-226.12"/>
</a>
</g>
</g>
<!-- Node8&#45;&gt;Node4 -->
<g id="edge8_Node000008_Node000004" class="edge"><title>Node8&#45;&gt;Node4</title>
<g id="a_edge8_Node000008_Node000004"><a xlink:title=" ">
<path fill="none" stroke="#63b8ff" d="M211.367,-221.158C205.45,-223.094 199.54,-225.217 194,-227.5 171.614,-236.724 147.332,-250.692 132.145,-259.952"/>
<polygon fill="#63b8ff" stroke="#63b8ff" points="212.757,-224.391 221.266,-218.078 210.678,-217.706 212.757,-224.391"/>
</a>
</g>
</g>
<!-- Node8&#45;&gt;Node5 -->
<g id="edge9_Node000008_Node000005" class="edge"><title>Node8&#45;&gt;Node5</title>
<g id="a_edge9_Node000008_Node000005"><a xlink:title=" ">
<path fill="none" stroke="#63b8ff" d="M192.627,-208.5C177.871,-208.5 162.864,-208.5 150.15,-208.5"/>
<polygon fill="#63b8ff" stroke="#63b8ff" points="192.771,-212 202.771,-208.5 192.771,-205 192.771,-212"/>
</a>
</g>
</g>
<!-- Node11 -->
<g id="Node000011" class="node"><title>Node11</title>
<g id="a_Node000011"><a xlink:href="group___basic_sorts.html#ga25c7ac8991c266d71b75cf20c14b67cf" target="_top" xlink:title="Vytisknutí elementu vektoru pomocí iterátoru.">
<polygon fill="white" stroke="#666666" points="153.5,-329 78.5,-329 78.5,-310 153.5,-310 153.5,-329"/>
<text text-anchor="middle" x="116" y="-317" font-family="Helvetica,sans-Serif" font-size="10.00">print_element</text>
</a>
</g>
</g>
<!-- Node10&#45;&gt;Node11 -->
<g id="edge12_Node000010_Node000011" class="edge"><title>Node10&#45;&gt;Node11</title>
<g id="a_edge12_Node000010_Node000011"><a xlink:title=" ">
<path fill="none" stroke="#63b8ff" d="M198.14,-326.902C183.049,-325.525 167.354,-324.094 153.835,-322.86"/>
<polygon fill="#63b8ff" stroke="#63b8ff" points="198.18,-330.42 208.457,-327.843 198.816,-323.449 198.18,-330.42"/>
</a>
</g>
</g>
<!-- Node11&#45;&gt;Node6 -->
<g id="edge13_Node000011_Node000006" class="edge"><title>Node11&#45;&gt;Node6</title>
<g id="a_edge13_Node000011_Node000006"><a xlink:title=" ">
<path fill="none" stroke="#63b8ff" d="M89.6324,-304.546C72.729,-294.582 51.0096,-281.779 36.3581,-273.143"/>
<polygon fill="#63b8ff" stroke="#63b8ff" points="88.0602,-307.683 98.4523,-309.746 91.6149,-301.652 88.0602,-307.683"/>
</a>
</g>
</g>
</g>
</svg>
