<?xml version="1.0" encoding="UTF-8" standalone="no"?>
<!DOCTYPE svg PUBLIC "-//W3C//DTD SVG 1.1//EN"
 "http://www.w3.org/Graphics/SVG/1.1/DTD/svg11.dtd">
<!-- Generated by graphviz version 2.38.0 (20140413.2041)
 -->
<!-- Title: vector_destroy Pages: 1 -->
<svg width="415pt" height="95pt"
 viewBox="0.00 0.00 415.00 94.50" xmlns="http://www.w3.org/2000/svg" xmlns:xlink="http://www.w3.org/1999/xlink">
<g id="graph0" class="graph" transform="scale(1 1) rotate(0) translate(4 90.5)">
<title>vector_destroy</title>
<!-- Node1 -->
<g id="Node000001" class="node"><title>Node1</title>
<g id="a_Node000001"><a xlink:title="Dealokace vektoru.">
<polygon fill="#999999" stroke="#666666" points="407,-67.5 327,-67.5 327,-48.5 407,-48.5 407,-67.5"/>
<text text-anchor="middle" x="367" y="-55.5" font-family="Helvetica,sans-Serif" font-size="10.00">vector_destroy</text>
</a>
</g>
</g>
<!-- Node2 -->
<g id="Node000002" class="node"><title>Node2</title>
<g id="a_Node000002"><a xlink:href="group___main_program.html#ga0ddf1224851353fc92bfbff6f499fa97" target="_top" xlink:title=" ">
<polygon fill="white" stroke="#666666" points="38,-86.5 0,-86.5 0,-67.5 38,-67.5 38,-86.5"/>
<text text-anchor="middle" x="19" y="-74.5" font-family="Helvetica,sans-Serif" font-size="10.00">main</text>
</a>
</g>
</g>
<!-- Node1&#45;&gt;Node2 -->
<g id="edge1_Node000001_Node000002" class="edge"><title>Node1&#45;&gt;Node2</title>
<g id="a_edge1_Node000001_Node000002"><a xlink:title=" ">
<path fill="none" stroke="#63b8ff" d="M316.927,-68.2579C308.319,-69.7425 299.423,-71.0779 291,-72 196.276,-82.3701 81.8422,-79.4629 38.1493,-77.7949"/>
<polygon fill="#63b8ff" stroke="#63b8ff" points="317.635,-71.6866 326.852,-66.4623 316.389,-64.7984 317.635,-71.6866"/>
</a>
</g>
</g>
<!-- Node3 -->
<g id="Node000003" class="node"><title>Node3</title>
<g id="a_Node000003"><a xlink:href="group___main_program.html#ga7343209645c93203da0a86613abfed04" target="_top" xlink:title="Testování třídicí metody.">
<polygon fill="white" stroke="#666666" points="142,-67.5 74,-67.5 74,-48.5 142,-48.5 142,-67.5"/>
<text text-anchor="middle" x="108" y="-55.5" font-family="Helvetica,sans-Serif" font-size="10.00">sort_testing</text>
</a>
</g>
</g>
<!-- Node1&#45;&gt;Node3 -->
<g id="edge2_Node000001_Node000003" class="edge"><title>Node1&#45;&gt;Node3</title>
<g id="a_edge2_Node000001_Node000003"><a xlink:title=" ">
<path fill="none" stroke="#63b8ff" d="M316.786,-58C265.521,-58 186.621,-58 142.255,-58"/>
<polygon fill="#63b8ff" stroke="#63b8ff" points="316.967,-61.5001 326.967,-58 316.967,-54.5001 316.967,-61.5001"/>
</a>
</g>
</g>
<!-- Node4 -->
<g id="Node000004" class="node"><title>Node4</title>
<g id="a_Node000004"><a xlink:href="group__sortable___t_vector.html#ga1b7a4850be6488c69c293bdd13f729a7" target="_top" xlink:title="Ověření korektního setřídění vektoru.">
<polygon fill="white" stroke="#666666" points="291,-30 178,-30 178,-0 291,-0 291,-30"/>
<text text-anchor="start" x="186" y="-18" font-family="Helvetica,sans-Serif" font-size="10.00">vector_is_ascendantly</text>
<text text-anchor="middle" x="234.5" y="-7" font-family="Helvetica,sans-Serif" font-size="10.00">_sorted</text>
</a>
</g>
</g>
<!-- Node1&#45;&gt;Node4 -->
<g id="edge4_Node000001_Node000004" class="edge"><title>Node1&#45;&gt;Node4</title>
<g id="a_edge4_Node000001_Node000004"><a xlink:title=" ">
<path fill="none" stroke="#63b8ff" d="M327.357,-45.2672C312.818,-40.4765 296.152,-34.985 281.042,-30.0063"/>
<polygon fill="#63b8ff" stroke="#63b8ff" points="326.445,-48.6515 337.038,-48.4569 328.635,-42.0031 326.445,-48.6515"/>
</a>
</g>
</g>
<!-- Node3&#45;&gt;Node2 -->
<g id="edge3_Node000003_Node000002" class="edge"><title>Node3&#45;&gt;Node2</title>
<g id="a_edge3_Node000003_Node000002"><a xlink:title=" ">
<path fill="none" stroke="#63b8ff" d="M63.8318,-67.4275C54.7421,-69.4126 45.6331,-71.402 38.0925,-73.0488"/>
<polygon fill="#63b8ff" stroke="#63b8ff" points="64.5894,-70.8447 73.6123,-65.2916 63.0958,-64.0058 64.5894,-70.8447"/>
</a>
</g>
</g>
<!-- Node4&#45;&gt;Node3 -->
<g id="edge5_Node000004_Node000003" class="edge"><title>Node4&#45;&gt;Node3</title>
<g id="a_edge5_Node000004_Node000003"><a xlink:title=" ">
<path fill="none" stroke="#63b8ff" d="M180.253,-33.3905C165.275,-38.5635 149.587,-43.9819 136.756,-48.4135"/>
<polygon fill="#63b8ff" stroke="#63b8ff" points="181.646,-36.6122 189.956,-30.0393 179.361,-29.9957 181.646,-36.6122"/>
</a>
</g>
</g>
</g>
</svg>
