<?xml version="1.0" encoding="UTF-8" standalone="no"?>
<!DOCTYPE svg PUBLIC "-//W3C//DTD SVG 1.1//EN"
 "http://www.w3.org/Graphics/SVG/1.1/DTD/svg11.dtd">
<!-- Generated by graphviz version 2.38.0 (20140413.2041)
 -->
<!-- Title: main Pages: 1 -->
<svg width="538pt" height="696pt"
 viewBox="0.00 0.00 538.00 695.50" xmlns="http://www.w3.org/2000/svg" xmlns:xlink="http://www.w3.org/1999/xlink">
<g id="graph0" class="graph" transform="scale(1 1) rotate(0) translate(4 691.5)">
<title>main</title>
<!-- Node1 -->
<g id="Node000001" class="node"><title>Node1</title>
<g id="a_Node000001"><a xlink:title=" ">
<polygon fill="#999999" stroke="#666666" points="38,-331 0,-331 0,-312 38,-312 38,-331"/>
<text text-anchor="middle" x="19" y="-319" font-family="Helvetica,sans-Serif" font-size="10.00">main</text>
</a>
</g>
</g>
<!-- Node2 -->
<g id="Node000002" class="node"><title>Node2</title>
<g id="a_Node000002"><a xlink:href="group___basic_sorts.html#gaa1ef093f5205f293df8303ac228452fc" target="_top" xlink:title="Třídění přímou výměnou (Bubble Sort)">
<polygon fill="white" stroke="#666666" points="167,-528 100,-528 100,-509 167,-509 167,-528"/>
<text text-anchor="middle" x="133.5" y="-516" font-family="Helvetica,sans-Serif" font-size="10.00">bubble_sort</text>
</a>
</g>
</g>
<!-- Node1&#45;&gt;Node2 -->
<g id="edge1_Node000001_Node000002" class="edge"><title>Node1&#45;&gt;Node2</title>
<g id="a_edge1_Node000001_Node000002"><a xlink:title=" ">
<path fill="none" stroke="#63b8ff" d="M19.9368,-331.222C20.2868,-360.971 25.4749,-451.707 74,-500.5 78.524,-505.049 84.1679,-508.453 90.1518,-511"/>
<polygon fill="#63b8ff" stroke="#63b8ff" points="89.1282,-514.35 99.723,-514.338 91.433,-507.74 89.1282,-514.35"/>
</a>
</g>
</g>
<!-- Node7 -->
<g id="Node000007" class="node"><title>Node7</title>
<g id="a_Node000007"><a xlink:href="group___basic_sorts.html#ga62a36eb31bf0a873f7c027e145843b1a" target="_top" xlink:title="Třídění přímou výměnou včetně optimalizace s pomocným příznakem ukončení třídění (Bubble Sort Optimiz...">
<polygon fill="white" stroke="#666666" points="190.5,-491 76.5,-491 76.5,-472 190.5,-472 190.5,-491"/>
<text text-anchor="middle" x="133.5" y="-479" font-family="Helvetica,sans-Serif" font-size="10.00">bubble_sort_optimized</text>
</a>
</g>
</g>
<!-- Node1&#45;&gt;Node7 -->
<g id="edge6_Node000001_Node000007" class="edge"><title>Node1&#45;&gt;Node7</title>
<g id="a_edge6_Node000001_Node000007"><a xlink:title=" ">
<path fill="none" stroke="#63b8ff" d="M20.7992,-331.012C23.4431,-356.366 34.1623,-426.167 74,-463.5 75.1388,-464.567 76.3395,-465.571 77.5913,-466.516"/>
<polygon fill="#63b8ff" stroke="#63b8ff" points="76.1166,-469.716 86.4783,-471.926 79.7566,-463.736 76.1166,-469.716"/>
</a>
</g>
</g>
<!-- Node8 -->
<g id="Node000008" class="node"><title>Node8</title>
<g id="a_Node000008"><a xlink:href="group___basic_sorts.html#gaba41a68f00241f38f7864b4e1dacd086" target="_top" xlink:title="Třídění přímou výměnou včetně optimalizace s výpočtem indexu poslední změny (Bubble Sort Optimized2)">
<polygon fill="white" stroke="#666666" points="193,-454 74,-454 74,-435 193,-435 193,-454"/>
<text text-anchor="middle" x="133.5" y="-442" font-family="Helvetica,sans-Serif" font-size="10.00">bubble_sort_optimized2</text>
</a>
</g>
</g>
<!-- Node1&#45;&gt;Node8 -->
<g id="edge10_Node000001_Node000008" class="edge"><title>Node1&#45;&gt;Node8</title>
<g id="a_edge10_Node000001_Node000008"><a xlink:title=" ">
<path fill="none" stroke="#63b8ff" d="M22.327,-331.086C27.7713,-351.487 43.2677,-399.459 74,-425.5 75.996,-427.191 78.1458,-428.733 80.4016,-430.138"/>
<polygon fill="#63b8ff" stroke="#63b8ff" points="79.0434,-433.377 89.5271,-434.908 82.2864,-427.174 79.0434,-433.377"/>
</a>
</g>
</g>
<!-- Node9 -->
<g id="Node000009" class="node"><title>Node9</title>
<g id="a_Node000009"><a xlink:href="group___basic_sorts.html#gac3903c3fd846908cd362e293ed40582e" target="_top" xlink:title="Třídění přímým vkládáním (Insert Sort)">
<polygon fill="white" stroke="#666666" points="164.5,-602 102.5,-602 102.5,-583 164.5,-583 164.5,-602"/>
<text text-anchor="middle" x="133.5" y="-590" font-family="Helvetica,sans-Serif" font-size="10.00">insert_sort</text>
</a>
</g>
</g>
<!-- Node1&#45;&gt;Node9 -->
<g id="edge14_Node000001_Node000009" class="edge"><title>Node1&#45;&gt;Node9</title>
<g id="a_edge14_Node000001_Node000009"><a xlink:title=" ">
<path fill="none" stroke="#63b8ff" d="M20.5033,-331.273C22.5298,-363.151 32.1394,-466.154 74,-537.5 83.0561,-552.935 97.7404,-566.72 110.131,-576.629"/>
<polygon fill="#63b8ff" stroke="#63b8ff" points="108.178,-579.542 118.245,-582.843 112.433,-573.984 108.178,-579.542"/>
</a>
</g>
</g>
<!-- Node14 -->
<g id="Node000014" class="node"><title>Node14</title>
<g id="a_Node000014"><a xlink:href="group___basic_sorts.html#ga25c7ac8991c266d71b75cf20c14b67cf" target="_top" xlink:title="Vytisknutí elementu vektoru pomocí iterátoru.">
<polygon fill="white" stroke="#666666" points="171,-179 96,-179 96,-160 171,-160 171,-179"/>
<text text-anchor="middle" x="133.5" y="-167" font-family="Helvetica,sans-Serif" font-size="10.00">print_element</text>
</a>
</g>
</g>
<!-- Node1&#45;&gt;Node14 -->
<g id="edge20_Node000001_Node000014" class="edge"><title>Node1&#45;&gt;Node14</title>
<g id="a_edge20_Node000001_Node000014"><a xlink:title=" ">
<path fill="none" stroke="#63b8ff" d="M21.5115,-311.742C25.6388,-288.25 39.2082,-227.949 74,-193.5 77.9491,-189.59 82.6241,-186.288 87.5834,-183.506"/>
<polygon fill="#63b8ff" stroke="#63b8ff" points="89.2728,-186.576 96.7218,-179.042 86.2003,-180.286 89.2728,-186.576"/>
</a>
</g>
</g>
<!-- Node18 -->
<g id="Node000018" class="node"><title>Node18</title>
<g id="a_Node000018"><a xlink:href="group___basic_sorts.html#ga3688a58781905ac2e518285b8bb711ec" target="_top" xlink:title="Třídění přímým výběrem (Select Sort)">
<polygon fill="white" stroke="#666666" points="166,-417 101,-417 101,-398 166,-398 166,-417"/>
<text text-anchor="middle" x="133.5" y="-405" font-family="Helvetica,sans-Serif" font-size="10.00">select_sort</text>
</a>
</g>
</g>
<!-- Node1&#45;&gt;Node18 -->
<g id="edge24_Node000001_Node000018" class="edge"><title>Node1&#45;&gt;Node18</title>
<g id="a_edge24_Node000001_Node000018"><a xlink:title=" ">
<path fill="none" stroke="#63b8ff" d="M25.3149,-331.192C33.7617,-345.718 51.6087,-373.075 74,-388.5 79.2516,-392.118 85.2364,-395.082 91.3267,-397.5"/>
<polygon fill="#63b8ff" stroke="#63b8ff" points="90.2988,-400.848 100.894,-400.866 92.6223,-394.245 90.2988,-400.848"/>
</a>
</g>
</g>
<!-- Node19 -->
<g id="Node000019" class="node"><title>Node19</title>
<g id="a_Node000019"><a xlink:href="group___basic_sorts.html#gaacee5d609500566a6ad1724486ab8bb2" target="_top" xlink:title="Třídění přímou výměnou se změnou postupu třídění (Shaker Sort)">
<polygon fill="white" stroke="#666666" points="167.5,-380 99.5,-380 99.5,-361 167.5,-361 167.5,-380"/>
<text text-anchor="middle" x="133.5" y="-368" font-family="Helvetica,sans-Serif" font-size="10.00">shaker_sort</text>
</a>
</g>
</g>
<!-- Node1&#45;&gt;Node19 -->
<g id="edge28_Node000001_Node000019" class="edge"><title>Node1&#45;&gt;Node19</title>
<g id="a_edge28_Node000001_Node000019"><a xlink:title=" ">
<path fill="none" stroke="#63b8ff" d="M38.0751,-329.373C55.1262,-336.799 81.0384,-348.086 101.407,-356.957"/>
<polygon fill="#63b8ff" stroke="#63b8ff" points="100.045,-360.182 110.611,-360.966 102.84,-353.764 100.045,-360.182"/>
</a>
</g>
</g>
<!-- Node20 -->
<g id="Node000020" class="node"><title>Node20</title>
<g id="a_Node000020"><a xlink:href="group___main_program.html#ga7343209645c93203da0a86613abfed04" target="_top" xlink:title="Testování třídicí metody.">
<polygon fill="white" stroke="#666666" points="167.5,-331 99.5,-331 99.5,-312 167.5,-312 167.5,-331"/>
<text text-anchor="middle" x="133.5" y="-319" font-family="Helvetica,sans-Serif" font-size="10.00">sort_testing</text>
</a>
</g>
</g>
<!-- Node1&#45;&gt;Node20 -->
<g id="edge32_Node000001_Node000020" class="edge"><title>Node1&#45;&gt;Node20</title>
<g id="a_edge32_Node000001_Node000020"><a xlink:title=" ">
<path fill="none" stroke="#63b8ff" d="M38.0751,-321.5C51.8862,-321.5 71.5108,-321.5 89.2945,-321.5"/>
<polygon fill="#63b8ff" stroke="#63b8ff" points="89.4946,-325 99.4946,-321.5 89.4946,-318 89.4946,-325"/>
</a>
</g>
</g>
<!-- Node23 -->
<g id="Node000023" class="node"><title>Node23</title>
<g id="a_Node000023"><a xlink:href="group___t_vector.html#ga41fcff5418fe213f2caaa586f521bcd6" target="_top" xlink:title="Dealokace vektoru.">
<polygon fill="white" stroke="#666666" points="502,-255 422,-255 422,-236 502,-236 502,-255"/>
<text text-anchor="middle" x="462" y="-243" font-family="Helvetica,sans-Serif" font-size="10.00">vector_destroy</text>
</a>
</g>
</g>
<!-- Node1&#45;&gt;Node23 -->
<g id="edge41_Node000001_Node000023" class="edge"><title>Node1&#45;&gt;Node23</title>
<g id="a_edge41_Node000001_Node000023"><a xlink:title=" ">
<path fill="none" stroke="#63b8ff" d="M37.7808,-311.99C73.0312,-293.738 154.792,-254.377 229,-240.5 285.356,-229.961 300.684,-239.11 358,-240.5 375.489,-240.924 394.635,-241.753 411.623,-242.616"/>
<polygon fill="#63b8ff" stroke="#63b8ff" points="411.719,-246.126 421.888,-243.154 412.085,-239.135 411.719,-246.126"/>
</a>
</g>
</g>
<!-- Node26 -->
<g id="Node000026" class="node"><title>Node26</title>
<g id="a_Node000026"><a xlink:href="group___t_vector_element.html#ga58c3bcf9f96681f3c9d6b0b36ed54da2" target="_top" xlink:title="Nastavení položky pro porovnání dvou elementů">
<polygon fill="white" stroke="#666666" points="184,-104.5 83,-104.5 83,-74.5 184,-74.5 184,-104.5"/>
<text text-anchor="start" x="91" y="-92.5" font-family="Helvetica,sans-Serif" font-size="10.00">vector_element_set</text>
<text text-anchor="middle" x="133.5" y="-81.5" font-family="Helvetica,sans-Serif" font-size="10.00">_comparator</text>
</a>
</g>
</g>
<!-- Node1&#45;&gt;Node26 -->
<g id="edge42_Node000001_Node000026" class="edge"><title>Node1&#45;&gt;Node26</title>
<g id="a_edge42_Node000001_Node000026"><a xlink:title=" ">
<path fill="none" stroke="#63b8ff" d="M19.6522,-311.853C19.0138,-279.565 21.2452,-173.924 74,-113.5 74.74,-112.652 75.5146,-111.834 76.3197,-111.044"/>
<polygon fill="#63b8ff" stroke="#63b8ff" points="78.6599,-113.655 84.2847,-104.676 74.2885,-108.187 78.6599,-113.655"/>
</a>
</g>
</g>
<!-- Node27 -->
<g id="Node000027" class="node"><title>Node27</title>
<g id="a_Node000027"><a xlink:href="group___iterator_algorithms.html#gac5ae89ba507530f7c51c45447efbe4ac" target="_top" xlink:title="Zavolání zvolené funkce na prvních N elementů vektoru od pozice určené iterátorem.">
<polygon fill="white" stroke="#666666" points="167.5,-142 99.5,-142 99.5,-123 167.5,-123 167.5,-142"/>
<text text-anchor="middle" x="133.5" y="-130" font-family="Helvetica,sans-Serif" font-size="10.00">vector_for_n</text>
</a>
</g>
</g>
<!-- Node1&#45;&gt;Node27 -->
<g id="edge43_Node000001_Node000027" class="edge"><title>Node1&#45;&gt;Node27</title>
<g id="a_edge43_Node000001_Node000027"><a xlink:title=" ">
<path fill="none" stroke="#63b8ff" d="M20.0974,-311.796C20.9257,-282.936 27.3792,-196.778 74,-150.5 78.5037,-146.029 84.0896,-142.665 90.0078,-140.134"/>
<polygon fill="#63b8ff" stroke="#63b8ff" points="91.2019,-143.424 99.4734,-136.804 88.8786,-136.821 91.2019,-143.424"/>
</a>
</g>
</g>
<!-- Node29 -->
<g id="Node000029" class="node"><title>Node29</title>
<g id="a_Node000029"><a xlink:href="group___t_vector.html#gac0009a6c19dd42237bbb6af9897f2e44" target="_top" xlink:title="Alokace vektoru a inicializace jeho elementů ze souboru.">
<polygon fill="white" stroke="#666666" points="172,-56 95,-56 95,-37 172,-37 172,-56"/>
<text text-anchor="middle" x="133.5" y="-44" font-family="Helvetica,sans-Serif" font-size="10.00">vector_init_file</text>
</a>
</g>
</g>
<!-- Node1&#45;&gt;Node29 -->
<g id="edge47_Node000001_Node000029" class="edge"><title>Node1&#45;&gt;Node29</title>
<g id="a_edge47_Node000001_Node000029"><a xlink:title=" ">
<path fill="none" stroke="#63b8ff" d="M20.7491,-311.995C24.2236,-270.21 40.0622,-103.246 74,-65.5 77.2642,-61.8696 81.2282,-58.9299 85.5381,-56.55"/>
<polygon fill="#63b8ff" stroke="#63b8ff" points="87.069,-59.6993 94.757,-52.4092 84.2008,-53.3138 87.069,-59.6993"/>
</a>
</g>
</g>
<!-- Node31 -->
<g id="Node000031" class="node"><title>Node31</title>
<g id="a_Node000031"><a xlink:href="group___t_vector_iterator.html#ga40d7eff2ece0eb356d27cdcdef255560" target="_top" xlink:title="Vytvoření nového iterátoru ukazujícího na počáteční element.">
<polygon fill="white" stroke="#666666" points="186.5,-19 80.5,-19 80.5,-0 186.5,-0 186.5,-19"/>
<text text-anchor="middle" x="133.5" y="-7" font-family="Helvetica,sans-Serif" font-size="10.00">vector_iterator_begin</text>
</a>
</g>
</g>
<!-- Node1&#45;&gt;Node31 -->
<g id="edge49_Node000001_Node000031" class="edge"><title>Node1&#45;&gt;Node31</title>
<g id="a_edge49_Node000001_Node000031"><a xlink:title=" ">
<path fill="none" stroke="#63b8ff" d="M20.4609,-311.837C22.8344,-266.036 35.1122,-71.2197 74,-27.5 74.7592,-26.6465 75.5578,-25.8329 76.3911,-25.0574"/>
<polygon fill="#63b8ff" stroke="#63b8ff" points="78.6443,-27.7476 84.7039,-19.0566 74.5471,-22.0719 78.6443,-27.7476"/>
</a>
</g>
</g>
<!-- Node3 -->
<g id="Node000003" class="node"><title>Node3</title>
<g id="a_Node000003"><a xlink:href="group__sortable___t_vector.html#gaedaf9c79afa345e5e71e5c66ab25fa26" target="_top" xlink:title="Porovnání hodnot elementů vektorů">
<polygon fill="white" stroke="#666666" points="358,-491 229,-491 229,-472 358,-472 358,-491"/>
<text text-anchor="middle" x="293.5" y="-479" font-family="Helvetica,sans-Serif" font-size="10.00">vector_compare_positions</text>
</a>
</g>
</g>
<!-- Node2&#45;&gt;Node3 -->
<g id="edge2_Node000002_Node000003" class="edge"><title>Node2&#45;&gt;Node3</title>
<g id="a_edge2_Node000002_Node000003"><a xlink:title=" ">
<path fill="none" stroke="#63b8ff" d="M167.238,-510.834C188.767,-505.792 217.374,-499.093 241.814,-493.37"/>
<polygon fill="#63b8ff" stroke="#63b8ff" points="242.71,-496.754 251.649,-491.066 241.114,-489.939 242.71,-496.754"/>
</a>
</g>
</g>
<!-- Node5 -->
<g id="Node000005" class="node"><title>Node5</title>
<g id="a_Node000005"><a xlink:href="group___t_vector.html#ga2502e6ec116dbac5e49f5b62b07dc898" target="_top" xlink:title="Přečtení počtu elementů vektoru.">
<polygon fill="white" stroke="#666666" points="326,-454 261,-454 261,-435 326,-435 326,-454"/>
<text text-anchor="middle" x="293.5" y="-442" font-family="Helvetica,sans-Serif" font-size="10.00">vector_size</text>
</a>
</g>
</g>
<!-- Node2&#45;&gt;Node5 -->
<g id="edge4_Node000002_Node000005" class="edge"><title>Node2&#45;&gt;Node5</title>
<g id="a_edge4_Node000002_Node000005"><a xlink:title=" ">
<path fill="none" stroke="#63b8ff" d="M167.011,-511.629C175.83,-508.946 185.113,-505.323 193,-500.5 212.575,-488.531 209.379,-475.393 229,-463.5 235.781,-459.39 243.512,-456.116 251.19,-453.526"/>
<polygon fill="#63b8ff" stroke="#63b8ff" points="252.264,-456.857 260.813,-450.599 250.227,-450.16 252.264,-456.857"/>
</a>
</g>
</g>
<!-- Node6 -->
<g id="Node000006" class="node"><title>Node6</title>
<g id="a_Node000006"><a xlink:href="group__sortable___t_vector.html#gac1982d8a0e5f66f933dc6a0413f2d23e" target="_top" xlink:title="Výměna hodnot elementů vektorů">
<polygon fill="white" stroke="#666666" points="350.5,-528 236.5,-528 236.5,-509 350.5,-509 350.5,-528"/>
<text text-anchor="middle" x="293.5" y="-516" font-family="Helvetica,sans-Serif" font-size="10.00">vector_swap_positions</text>
</a>
</g>
</g>
<!-- Node2&#45;&gt;Node6 -->
<g id="edge5_Node000002_Node000006" class="edge"><title>Node2&#45;&gt;Node6</title>
<g id="a_edge5_Node000002_Node000006"><a xlink:title=" ">
<path fill="none" stroke="#63b8ff" d="M167.238,-518.5C184.327,-518.5 205.875,-518.5 226.258,-518.5"/>
<polygon fill="#63b8ff" stroke="#63b8ff" points="226.463,-522 236.463,-518.5 226.463,-515 226.463,-522"/>
</a>
</g>
</g>
<!-- Node4 -->
<g id="Node000004" class="node"><title>Node4</title>
<g id="a_Node000004"><a xlink:href="group___t_vector_element.html#ga82e527836fce12c93af896f65e9f701d" target="_top" xlink:title="Porovnání dvou elementů">
<polygon fill="white" stroke="#666666" points="530,-491 394,-491 394,-472 530,-472 530,-491"/>
<text text-anchor="middle" x="462" y="-479" font-family="Helvetica,sans-Serif" font-size="10.00">vector_element_comparator</text>
</a>
</g>
</g>
<!-- Node3&#45;&gt;Node4 -->
<g id="edge3_Node000003_Node000004" class="edge"><title>Node3&#45;&gt;Node4</title>
<g id="a_edge3_Node000003_Node000004"><a xlink:title=" ">
<path fill="none" stroke="#63b8ff" d="M358.397,-481.5C366.677,-481.5 375.228,-481.5 383.696,-481.5"/>
<polygon fill="#63b8ff" stroke="#63b8ff" points="383.96,-485 393.96,-481.5 383.96,-478 383.96,-485"/>
</a>
</g>
</g>
<!-- Node7&#45;&gt;Node3 -->
<g id="edge7_Node000007_Node000003" class="edge"><title>Node7&#45;&gt;Node3</title>
<g id="a_edge7_Node000007_Node000003"><a xlink:title=" ">
<path fill="none" stroke="#63b8ff" d="M190.65,-481.5C199.769,-481.5 209.333,-481.5 218.795,-481.5"/>
<polygon fill="#63b8ff" stroke="#63b8ff" points="218.997,-485 228.997,-481.5 218.996,-478 218.997,-485"/>
</a>
</g>
</g>
<!-- Node7&#45;&gt;Node5 -->
<g id="edge8_Node000007_Node000005" class="edge"><title>Node7&#45;&gt;Node5</title>
<g id="a_edge8_Node000007_Node000005"><a xlink:title=" ">
<path fill="none" stroke="#63b8ff" d="M175.189,-471.972C198.446,-466.525 227.548,-459.71 250.948,-454.231"/>
<polygon fill="#63b8ff" stroke="#63b8ff" points="251.985,-457.582 260.924,-451.894 250.389,-450.767 251.985,-457.582"/>
</a>
</g>
</g>
<!-- Node7&#45;&gt;Node6 -->
<g id="edge9_Node000007_Node000006" class="edge"><title>Node7&#45;&gt;Node6</title>
<g id="a_edge9_Node000007_Node000006"><a xlink:title=" ">
<path fill="none" stroke="#63b8ff" d="M175.189,-491.028C195.475,-495.779 220.208,-501.571 241.724,-506.609"/>
<polygon fill="#63b8ff" stroke="#63b8ff" points="241.14,-510.067 251.675,-508.94 242.736,-503.252 241.14,-510.067"/>
</a>
</g>
</g>
<!-- Node8&#45;&gt;Node3 -->
<g id="edge11_Node000008_Node000003" class="edge"><title>Node8&#45;&gt;Node3</title>
<g id="a_edge11_Node000008_Node000003"><a xlink:title=" ">
<path fill="none" stroke="#63b8ff" d="M175.189,-454.028C195.475,-458.779 220.208,-464.571 241.724,-469.609"/>
<polygon fill="#63b8ff" stroke="#63b8ff" points="241.14,-473.067 251.675,-471.94 242.736,-466.252 241.14,-473.067"/>
</a>
</g>
</g>
<!-- Node8&#45;&gt;Node5 -->
<g id="edge12_Node000008_Node000005" class="edge"><title>Node8&#45;&gt;Node5</title>
<g id="a_edge12_Node000008_Node000005"><a xlink:title=" ">
<path fill="none" stroke="#63b8ff" d="M193.333,-444.5C212.224,-444.5 232.764,-444.5 250.225,-444.5"/>
<polygon fill="#63b8ff" stroke="#63b8ff" points="250.657,-448 260.657,-444.5 250.657,-441 250.657,-448"/>
</a>
</g>
</g>
<!-- Node8&#45;&gt;Node6 -->
<g id="edge13_Node000008_Node000006" class="edge"><title>Node8&#45;&gt;Node6</title>
<g id="a_edge13_Node000008_Node000006"><a xlink:title=" ">
<path fill="none" stroke="#63b8ff" d="M173.143,-454.097C180.023,-456.618 186.925,-459.72 193,-463.5 212.481,-475.621 209.293,-488.75 229,-500.5 231.854,-502.202 234.877,-503.749 237.992,-505.155"/>
<polygon fill="#63b8ff" stroke="#63b8ff" points="236.961,-508.511 247.546,-508.961 239.552,-502.008 236.961,-508.511"/>
</a>
</g>
</g>
<!-- Node10 -->
<g id="Node000010" class="node"><title>Node10</title>
<g id="a_Node000010"><a xlink:href="group__sortable___t_vector.html#ga09e150aa4cdd8faabf43474ab1dbe454" target="_top" xlink:title="Porovnání mezi hodnotou elementu vektoru a hodnotou typu VectorElement.">
<polygon fill="white" stroke="#666666" points="355.5,-687.5 231.5,-687.5 231.5,-657.5 355.5,-657.5 355.5,-687.5"/>
<text text-anchor="start" x="239.5" y="-675.5" font-family="Helvetica,sans-Serif" font-size="10.00">vector_compare_position</text>
<text text-anchor="middle" x="293.5" y="-664.5" font-family="Helvetica,sans-Serif" font-size="10.00">_value</text>
</a>
</g>
</g>
<!-- Node9&#45;&gt;Node10 -->
<g id="edge15_Node000009_Node000010" class="edge"><title>Node9&#45;&gt;Node10</title>
<g id="a_edge15_Node000009_Node000010"><a xlink:title=" ">
<path fill="none" stroke="#63b8ff" d="M148.798,-602.04C166.941,-613.893 199.438,-634.287 229,-648.5 232.601,-650.231 236.363,-651.925 240.178,-653.561"/>
<polygon fill="#63b8ff" stroke="#63b8ff" points="239.136,-656.917 249.715,-657.496 241.806,-650.446 239.136,-656.917"/>
</a>
</g>
</g>
<!-- Node11 -->
<g id="Node000011" class="node"><title>Node11</title>
<g id="a_Node000011"><a xlink:href="group__sortable___t_vector.html#ga16623c06371077674f5d4d31e38e42a4" target="_top" xlink:title="Přesun hodnoty elementu vektoru.">
<polygon fill="white" stroke="#666666" points="350.5,-639 236.5,-639 236.5,-620 350.5,-620 350.5,-639"/>
<text text-anchor="middle" x="293.5" y="-627" font-family="Helvetica,sans-Serif" font-size="10.00">vector_move_positions</text>
</a>
</g>
</g>
<!-- Node9&#45;&gt;Node11 -->
<g id="edge17_Node000009_Node000011" class="edge"><title>Node9&#45;&gt;Node11</title>
<g id="a_edge17_Node000009_Node000011"><a xlink:title=" ">
<path fill="none" stroke="#63b8ff" d="M164.59,-599.547C186.406,-604.655 216.426,-611.685 241.901,-617.651"/>
<polygon fill="#63b8ff" stroke="#63b8ff" points="241.241,-621.091 251.776,-619.963 242.837,-614.275 241.241,-621.091"/>
</a>
</g>
</g>
<!-- Node12 -->
<g id="Node000012" class="node"><title>Node12</title>
<g id="a_Node000012"><a xlink:href="group___t_vector.html#gabd5ba54950295545d27b1286234ead39" target="_top" xlink:title="Zapsání hodnoty elementu do vektoru na požadovanou pozici.">
<polygon fill="white" stroke="#666666" points="337.5,-602 249.5,-602 249.5,-583 337.5,-583 337.5,-602"/>
<text text-anchor="middle" x="293.5" y="-590" font-family="Helvetica,sans-Serif" font-size="10.00">vector_set_value</text>
</a>
</g>
</g>
<!-- Node9&#45;&gt;Node12 -->
<g id="edge18_Node000009_Node000012" class="edge"><title>Node9&#45;&gt;Node12</title>
<g id="a_edge18_Node000009_Node000012"><a xlink:title=" ">
<path fill="none" stroke="#63b8ff" d="M164.59,-592.5C185.68,-592.5 214.437,-592.5 239.343,-592.5"/>
<polygon fill="#63b8ff" stroke="#63b8ff" points="239.388,-596 249.388,-592.5 239.388,-589 239.388,-596"/>
</a>
</g>
</g>
<!-- Node13 -->
<g id="Node000013" class="node"><title>Node13</title>
<g id="a_Node000013"><a xlink:href="group___t_vector.html#ga2b08236d9825632cd96bcc89faed929c" target="_top" xlink:title="Přečtení hodnoty elementu z vektoru na požadované pozici.">
<polygon fill="white" stroke="#666666" points="328,-565 259,-565 259,-546 328,-546 328,-565"/>
<text text-anchor="middle" x="293.5" y="-553" font-family="Helvetica,sans-Serif" font-size="10.00">vector_value</text>
</a>
</g>
</g>
<!-- Node9&#45;&gt;Node13 -->
<g id="edge19_Node000009_Node000013" class="edge"><title>Node9&#45;&gt;Node13</title>
<g id="a_edge19_Node000009_Node000013"><a xlink:title=" ">
<path fill="none" stroke="#63b8ff" d="M164.59,-585.453C188.488,-579.857 222.229,-571.956 249.057,-565.673"/>
<polygon fill="#63b8ff" stroke="#63b8ff" points="250.027,-569.041 258.966,-563.353 248.431,-562.225 250.027,-569.041"/>
</a>
</g>
</g>
<!-- Node10&#45;&gt;Node4 -->
<g id="edge16_Node000010_Node000004" class="edge"><title>Node10&#45;&gt;Node4</title>
<g id="a_edge16_Node000010_Node000004"><a xlink:title=" ">
<path fill="none" stroke="#63b8ff" d="M344.466,-657.342C349.294,-654.805 353.909,-651.875 358,-648.5 408.009,-607.247 440.587,-535.036 454.013,-500.695"/>
<polygon fill="#63b8ff" stroke="#63b8ff" points="457.292,-501.92 457.563,-491.329 450.746,-499.439 457.292,-501.92"/>
</a>
</g>
</g>
<!-- Node15 -->
<g id="Node000015" class="node"><title>Node15</title>
<g id="a_Node000015"><a xlink:href="group___t_vector_element.html#gaaae5b52d7f1d155134792f040f00a385" target="_top" xlink:title="Uložení elementu do souboru.">
<polygon fill="white" stroke="#666666" points="356.5,-179 230.5,-179 230.5,-160 356.5,-160 356.5,-179"/>
<text text-anchor="middle" x="293.5" y="-167" font-family="Helvetica,sans-Serif" font-size="10.00">vector_element_store_file</text>
</a>
</g>
</g>
<!-- Node14&#45;&gt;Node15 -->
<g id="edge21_Node000014_Node000015" class="edge"><title>Node14&#45;&gt;Node15</title>
<g id="a_edge21_Node000014_Node000015"><a xlink:title=" ">
<path fill="none" stroke="#63b8ff" d="M171.146,-169.5C185.716,-169.5 203.015,-169.5 219.919,-169.5"/>
<polygon fill="#63b8ff" stroke="#63b8ff" points="220.366,-173 230.366,-169.5 220.366,-166 220.366,-173"/>
</a>
</g>
</g>
<!-- Node16 -->
<g id="Node000016" class="node"><title>Node16</title>
<g id="a_Node000016"><a xlink:href="group___t_vector_iterator.html#ga4d8032eb9dbbdccf794611f2b0c9821c" target="_top" xlink:title="Přečtení hodnoty elementu z vektoru pomocí iterátoru.">
<polygon fill="white" stroke="#666666" points="345.5,-142 241.5,-142 241.5,-123 345.5,-123 345.5,-142"/>
<text text-anchor="middle" x="293.5" y="-130" font-family="Helvetica,sans-Serif" font-size="10.00">vector_iterator_value</text>
</a>
</g>
</g>
<!-- Node14&#45;&gt;Node16 -->
<g id="edge22_Node000014_Node000016" class="edge"><title>Node14&#45;&gt;Node16</title>
<g id="a_edge22_Node000014_Node000016"><a xlink:title=" ">
<path fill="none" stroke="#63b8ff" d="M171.146,-160.918C192.189,-155.99 218.926,-149.729 241.944,-144.339"/>
<polygon fill="#63b8ff" stroke="#63b8ff" points="242.95,-147.698 251.888,-142.01 241.353,-140.883 242.95,-147.698"/>
</a>
</g>
</g>
<!-- Node17 -->
<g id="Node000017" class="node"><title>Node17</title>
<g id="a_Node000017"><a xlink:href="group___t_vector_iterator.html#ga3f8a97a63f887539e270f6845bf22b9a" target="_top" xlink:title="Zjištění platnosti iterátoru.">
<polygon fill="white" stroke="#666666" points="507,-109.5 417,-109.5 417,-79.5 507,-79.5 507,-109.5"/>
<text text-anchor="start" x="425" y="-97.5" font-family="Helvetica,sans-Serif" font-size="10.00">vector_iterator_is</text>
<text text-anchor="middle" x="462" y="-86.5" font-family="Helvetica,sans-Serif" font-size="10.00">_valid</text>
</a>
</g>
</g>
<!-- Node16&#45;&gt;Node17 -->
<g id="edge23_Node000016_Node000017" class="edge"><title>Node16&#45;&gt;Node17</title>
<g id="a_edge23_Node000016_Node000017"><a xlink:title=" ">
<path fill="none" stroke="#63b8ff" d="M336.515,-122.911C357.914,-118.027 384.176,-112.033 407.054,-106.812"/>
<polygon fill="#63b8ff" stroke="#63b8ff" points="407.991,-110.188 416.961,-104.551 406.433,-103.364 407.991,-110.188"/>
</a>
</g>
</g>
<!-- Node18&#45;&gt;Node3 -->
<g id="edge25_Node000018_Node000003" class="edge"><title>Node18&#45;&gt;Node3</title>
<g id="a_edge25_Node000018_Node000003"><a xlink:title=" ">
<path fill="none" stroke="#63b8ff" d="M166.143,-414.029C175.232,-416.735 184.874,-420.457 193,-425.5 212.767,-437.768 209.098,-451.453 229,-463.5 231.794,-465.191 234.752,-466.729 237.805,-468.126"/>
<polygon fill="#63b8ff" stroke="#63b8ff" points="236.588,-471.41 247.171,-471.911 239.211,-464.919 236.588,-471.41"/>
</a>
</g>
</g>
<!-- Node18&#45;&gt;Node5 -->
<g id="edge26_Node000018_Node000005" class="edge"><title>Node18&#45;&gt;Node5</title>
<g id="a_edge26_Node000018_Node000005"><a xlink:title=" ">
<path fill="none" stroke="#63b8ff" d="M166.094,-414.899C190.529,-420.621 224.567,-428.592 251.166,-434.821"/>
<polygon fill="#63b8ff" stroke="#63b8ff" points="250.426,-438.242 260.961,-437.114 252.022,-431.426 250.426,-438.242"/>
</a>
</g>
</g>
<!-- Node18&#45;&gt;Node6 -->
<g id="edge27_Node000018_Node000006" class="edge"><title>Node18&#45;&gt;Node6</title>
<g id="a_edge27_Node000018_Node000006"><a xlink:title=" ">
<path fill="none" stroke="#63b8ff" d="M166.037,-412.172C175.533,-414.824 185.431,-418.982 193,-425.5 221.019,-449.626 200.714,-476.688 229,-500.5 230.512,-501.773 232.109,-502.956 233.772,-504.056"/>
<polygon fill="#63b8ff" stroke="#63b8ff" points="232.105,-507.134 242.554,-508.888 235.48,-501.001 232.105,-507.134"/>
</a>
</g>
</g>
<!-- Node19&#45;&gt;Node3 -->
<g id="edge29_Node000019_Node000003" class="edge"><title>Node19&#45;&gt;Node3</title>
<g id="a_edge29_Node000019_Node000003"><a xlink:title=" ">
<path fill="none" stroke="#63b8ff" d="M167.555,-375.608C176.579,-378.273 185.833,-382.329 193,-388.5 221.019,-412.626 200.714,-439.688 229,-463.5 230.512,-464.773 232.109,-465.956 233.772,-467.056"/>
<polygon fill="#63b8ff" stroke="#63b8ff" points="232.105,-470.134 242.554,-471.888 235.48,-464.001 232.105,-470.134"/>
</a>
</g>
</g>
<!-- Node19&#45;&gt;Node5 -->
<g id="edge30_Node000019_Node000005" class="edge"><title>Node19&#45;&gt;Node5</title>
<g id="a_edge30_Node000019_Node000005"><a xlink:title=" ">
<path fill="none" stroke="#63b8ff" d="M167.62,-377.558C176.256,-380.221 185.294,-383.788 193,-388.5 212.575,-400.469 209.379,-413.607 229,-425.5 235.781,-429.61 243.512,-432.884 251.19,-435.474"/>
<polygon fill="#63b8ff" stroke="#63b8ff" points="250.227,-438.84 260.813,-438.401 252.264,-432.143 250.227,-438.84"/>
</a>
</g>
</g>
<!-- Node19&#45;&gt;Node6 -->
<g id="edge31_Node000019_Node000006" class="edge"><title>Node19&#45;&gt;Node6</title>
<g id="a_edge31_Node000019_Node000006"><a xlink:title=" ">
<path fill="none" stroke="#63b8ff" d="M167.505,-374.826C176.739,-377.467 186.12,-381.705 193,-388.5 230.202,-425.24 191.391,-464.177 229,-500.5 230.108,-501.57 231.274,-502.577 232.489,-503.525"/>
<polygon fill="#63b8ff" stroke="#63b8ff" points="230.805,-506.6 241.133,-508.962 234.532,-500.675 230.805,-506.6"/>
</a>
</g>
</g>
<!-- Node21 -->
<g id="Node000021" class="node"><title>Node21</title>
<g id="a_Node000021"><a xlink:href="main__support_8h.html#aa291195ad453d2b1e29004cc2e043c01" target="_top" xlink:title="Výpočet doby trvání časového intervalu.">
<polygon fill="white" stroke="#666666" points="327.5,-293 259.5,-293 259.5,-274 327.5,-274 327.5,-293"/>
<text text-anchor="middle" x="293.5" y="-281" font-family="Helvetica,sans-Serif" font-size="10.00">difftimespec</text>
</a>
</g>
</g>
<!-- Node20&#45;&gt;Node21 -->
<g id="edge33_Node000020_Node000021" class="edge"><title>Node20&#45;&gt;Node21</title>
<g id="a_edge33_Node000020_Node000021"><a xlink:title=" ">
<path fill="none" stroke="#63b8ff" d="M167.622,-313.534C191.428,-307.809 223.739,-300.037 249.531,-293.834"/>
<polygon fill="#63b8ff" stroke="#63b8ff" points="250.517,-297.197 259.422,-291.456 248.88,-290.391 250.517,-297.197"/>
</a>
</g>
</g>
<!-- Node22 -->
<g id="Node000022" class="node"><title>Node22</title>
<g id="a_Node000022"><a xlink:href="group___t_vector.html#ga6b0b8780d60dad02b8569be119769548" target="_top" xlink:title="Vytvoření úplné kopie vektoru.">
<polygon fill="white" stroke="#666666" points="497.5,-352 426.5,-352 426.5,-333 497.5,-333 497.5,-352"/>
<text text-anchor="middle" x="462" y="-340" font-family="Helvetica,sans-Serif" font-size="10.00">vector_clone</text>
</a>
</g>
</g>
<!-- Node20&#45;&gt;Node22 -->
<g id="edge34_Node000020_Node000022" class="edge"><title>Node20&#45;&gt;Node22</title>
<g id="a_edge34_Node000020_Node000022"><a xlink:title=" ">
<path fill="none" stroke="#63b8ff" d="M167.603,-323.629C226.542,-327.42 349.707,-335.342 416.173,-339.617"/>
<polygon fill="#63b8ff" stroke="#63b8ff" points="416.131,-343.121 426.335,-340.27 416.581,-336.136 416.131,-343.121"/>
</a>
</g>
</g>
<!-- Node20&#45;&gt;Node23 -->
<g id="edge35_Node000020_Node000023" class="edge"><title>Node20&#45;&gt;Node23</title>
<g id="a_edge35_Node000020_Node000023"><a xlink:title=" ">
<path fill="none" stroke="#63b8ff" d="M146.147,-311.991C163.165,-298.705 196.362,-275.035 229,-264.5 289.731,-244.897 363.815,-242.248 411.67,-243.097"/>
<polygon fill="#63b8ff" stroke="#63b8ff" points="411.685,-246.598 421.765,-243.335 411.85,-239.6 411.685,-246.598"/>
</a>
</g>
</g>
<!-- Node24 -->
<g id="Node000024" class="node"><title>Node24</title>
<g id="a_Node000024"><a xlink:href="group__sortable___t_vector.html#ga1b7a4850be6488c69c293bdd13f729a7" target="_top" xlink:title="Ověření korektního setřídění vektoru.">
<polygon fill="white" stroke="#666666" points="350,-379.5 237,-379.5 237,-349.5 350,-349.5 350,-379.5"/>
<text text-anchor="start" x="245" y="-367.5" font-family="Helvetica,sans-Serif" font-size="10.00">vector_is_ascendantly</text>
<text text-anchor="middle" x="293.5" y="-356.5" font-family="Helvetica,sans-Serif" font-size="10.00">_sorted</text>
</a>
</g>
</g>
<!-- Node20&#45;&gt;Node24 -->
<g id="edge36_Node000020_Node000024" class="edge"><title>Node20&#45;&gt;Node24</title>
<g id="a_edge36_Node000020_Node000024"><a xlink:title=" ">
<path fill="none" stroke="#63b8ff" d="M167.622,-330.514C185.042,-335.255 207.017,-341.236 227.659,-346.853"/>
<polygon fill="#63b8ff" stroke="#63b8ff" points="226.774,-350.24 237.342,-349.489 228.612,-343.486 226.774,-350.24"/>
</a>
</g>
</g>
<!-- Node25 -->
<g id="Node000025" class="node"><title>Node25</title>
<g id="a_Node000025"><a xlink:href="group__sortable___t_vector.html#gac0806530378fe49a3d61622ca8b9957e" target="_top" xlink:title="Zobrazení hodnoty statistik počtu operací s elementy vektoru.">
<polygon fill="white" stroke="#666666" points="348.5,-417 238.5,-417 238.5,-398 348.5,-398 348.5,-417"/>
<text text-anchor="middle" x="293.5" y="-405" font-family="Helvetica,sans-Serif" font-size="10.00">vector_print_sortstats</text>
</a>
</g>
</g>
<!-- Node20&#45;&gt;Node25 -->
<g id="edge40_Node000020_Node000025" class="edge"><title>Node20&#45;&gt;Node25</title>
<g id="a_edge40_Node000020_Node000025"><a xlink:title=" ">
<path fill="none" stroke="#63b8ff" d="M157.163,-331.012C168.443,-336.259 181.985,-343.359 193,-351.5 211.451,-365.137 209.379,-376.607 229,-388.5 232.444,-390.588 236.134,-392.46 239.937,-394.136"/>
<polygon fill="#63b8ff" stroke="#63b8ff" points="238.962,-397.513 249.55,-397.911 241.521,-390.998 238.962,-397.513"/>
</a>
</g>
</g>
<!-- Node24&#45;&gt;Node4 -->
<g id="edge39_Node000024_Node000004" class="edge"><title>Node24&#45;&gt;Node4</title>
<g id="a_edge39_Node000024_Node000004"><a xlink:title=" ">
<path fill="none" stroke="#63b8ff" d="M340.568,-379.555C346.601,-382.201 352.567,-385.185 358,-388.5 392.886,-409.788 426.763,-443.697 445.651,-464.154"/>
<polygon fill="#63b8ff" stroke="#63b8ff" points="443.256,-466.723 452.568,-471.776 448.439,-462.019 443.256,-466.723"/>
</a>
</g>
</g>
<!-- Node24&#45;&gt;Node22 -->
<g id="edge37_Node000024_Node000022" class="edge"><title>Node24&#45;&gt;Node22</title>
<g id="a_edge37_Node000024_Node000022"><a xlink:title=" ">
<path fill="none" stroke="#63b8ff" d="M350.405,-357.113C371.903,-354.273 396.137,-351.07 416.429,-348.389"/>
<polygon fill="#63b8ff" stroke="#63b8ff" points="416.889,-351.859 426.345,-347.079 415.972,-344.919 416.889,-351.859"/>
</a>
</g>
</g>
<!-- Node24&#45;&gt;Node23 -->
<g id="edge38_Node000024_Node000023" class="edge"><title>Node24&#45;&gt;Node23</title>
<g id="a_edge38_Node000024_Node000023"><a xlink:title=" ">
<path fill="none" stroke="#63b8ff" d="M315.587,-349.429C347.262,-326.791 406.829,-284.217 439.019,-261.21"/>
<polygon fill="#63b8ff" stroke="#63b8ff" points="441.225,-263.935 447.326,-255.273 437.155,-258.24 441.225,-263.935"/>
</a>
</g>
</g>
<!-- Node27&#45;&gt;Node17 -->
<g id="edge44_Node000027_Node000017" class="edge"><title>Node27&#45;&gt;Node17</title>
<g id="a_edge44_Node000027_Node000017"><a xlink:title=" ">
<path fill="none" stroke="#63b8ff" d="M167.575,-124.865C185.639,-120.945 208.452,-116.397 229,-113.5 289.582,-104.959 359.647,-99.8749 406.791,-97.1463"/>
<polygon fill="#63b8ff" stroke="#63b8ff" points="406.999,-100.64 416.786,-96.5833 406.605,-93.6513 406.999,-100.64"/>
</a>
</g>
</g>
<!-- Node28 -->
<g id="Node000028" class="node"><title>Node28</title>
<g id="a_Node000028"><a xlink:href="group___t_vector_iterator.html#ga7ce07cda016d67e3ca891125613ece56" target="_top" xlink:title="Posunutí iterátoru vpřed.">
<polygon fill="white" stroke="#666666" points="351,-66 236,-66 236,-47 351,-47 351,-66"/>
<text text-anchor="middle" x="293.5" y="-54" font-family="Helvetica,sans-Serif" font-size="10.00">vector_iterator_to_next</text>
</a>
</g>
</g>
<!-- Node27&#45;&gt;Node28 -->
<g id="edge45_Node000027_Node000028" class="edge"><title>Node27&#45;&gt;Node28</title>
<g id="a_edge45_Node000027_Node000028"><a xlink:title=" ">
<path fill="none" stroke="#63b8ff" d="M167.745,-124.414C176.29,-121.618 185.252,-118.019 193,-113.5 211.749,-102.565 210.515,-91.8755 229,-80.5 235.705,-76.3742 243.233,-72.7674 250.7,-69.6898"/>
<polygon fill="#63b8ff" stroke="#63b8ff" points="251.991,-72.9434 260.058,-66.0752 249.469,-66.4136 251.991,-72.9434"/>
</a>
</g>
</g>
<!-- Node28&#45;&gt;Node17 -->
<g id="edge46_Node000028_Node000017" class="edge"><title>Node28&#45;&gt;Node17</title>
<g id="a_edge46_Node000028_Node000017"><a xlink:title=" ">
<path fill="none" stroke="#63b8ff" d="M336.515,-66.089C357.914,-70.9729 384.176,-76.9666 407.054,-82.188"/>
<polygon fill="#63b8ff" stroke="#63b8ff" points="406.433,-85.6363 416.961,-84.4491 407.991,-78.8117 406.433,-85.6363"/>
</a>
</g>
</g>
<!-- Node30 -->
<g id="Node000030" class="node"><title>Node30</title>
<g id="a_Node000030"><a xlink:href="group___t_vector_element.html#gaf9a34133c2292f807fe184c72fd3f8d8" target="_top" xlink:title="Načtení elementu ze souboru.">
<polygon fill="white" stroke="#666666" points="354.5,-29 232.5,-29 232.5,-10 354.5,-10 354.5,-29"/>
<text text-anchor="middle" x="293.5" y="-17" font-family="Helvetica,sans-Serif" font-size="10.00">vector_element_load_file</text>
</a>
</g>
</g>
<!-- Node29&#45;&gt;Node30 -->
<g id="edge48_Node000029_Node000030" class="edge"><title>Node29&#45;&gt;Node30</title>
<g id="a_edge48_Node000029_Node000030"><a xlink:title=" ">
<path fill="none" stroke="#63b8ff" d="M172.345,-40.0328C188.673,-37.2425 208.256,-33.896 226.828,-30.7225"/>
<polygon fill="#63b8ff" stroke="#63b8ff" points="227.45,-34.1669 236.718,-29.0324 226.271,-27.2669 227.45,-34.1669"/>
</a>
</g>
</g>
</g>
</svg>
