<?xml version="1.0" encoding="UTF-8" standalone="no"?>
<!DOCTYPE svg PUBLIC "-//W3C//DTD SVG 1.1//EN"
 "http://www.w3.org/Graphics/SVG/1.1/DTD/svg11.dtd">
<!-- Generated by graphviz version 2.38.0 (20140413.2041)
 -->
<!-- Title: insert_sort Pages: 1 -->
<svg width="402pt" height="150pt"
 viewBox="0.00 0.00 402.00 149.50" xmlns="http://www.w3.org/2000/svg" xmlns:xlink="http://www.w3.org/1999/xlink">
<g id="graph0" class="graph" transform="scale(1 1) rotate(0) translate(4 145.5)">
<title>insert_sort</title>
<!-- Node1 -->
<g id="Node000001" class="node"><title>Node1</title>
<g id="a_Node000001"><a xlink:title="Třídění přímým vkládáním (Insert Sort)">
<polygon fill="#999999" stroke="#666666" points="62,-74 0,-74 0,-55 62,-55 62,-74"/>
<text text-anchor="middle" x="31" y="-62" font-family="Helvetica,sans-Serif" font-size="10.00">insert_sort</text>
</a>
</g>
</g>
<!-- Node2 -->
<g id="Node000002" class="node"><title>Node2</title>
<g id="a_Node000002"><a xlink:href="group__sortable___t_vector.html#ga09e150aa4cdd8faabf43474ab1dbe454" target="_top" xlink:title="Porovnání mezi hodnotou elementu vektoru a hodnotou typu VectorElement.">
<polygon fill="white" stroke="#666666" points="222,-141.5 98,-141.5 98,-111.5 222,-111.5 222,-141.5"/>
<text text-anchor="start" x="106" y="-129.5" font-family="Helvetica,sans-Serif" font-size="10.00">vector_compare_position</text>
<text text-anchor="middle" x="160" y="-118.5" font-family="Helvetica,sans-Serif" font-size="10.00">_value</text>
</a>
</g>
</g>
<!-- Node1&#45;&gt;Node2 -->
<g id="edge1_Node000001_Node000002" class="edge"><title>Node1&#45;&gt;Node2</title>
<g id="a_edge1_Node000001_Node000002"><a xlink:title=" ">
<path fill="none" stroke="#63b8ff" d="M47.1223,-74.0638C60.2807,-82.1759 80.0107,-93.8407 98,-102.5 101.533,-104.201 105.22,-105.878 108.955,-107.508"/>
<polygon fill="#63b8ff" stroke="#63b8ff" points="107.706,-110.78 118.28,-111.447 110.43,-104.332 107.706,-110.78"/>
</a>
</g>
</g>
<!-- Node4 -->
<g id="Node000004" class="node"><title>Node4</title>
<g id="a_Node000004"><a xlink:href="group__sortable___t_vector.html#ga16623c06371077674f5d4d31e38e42a4" target="_top" xlink:title="Přesun hodnoty elementu vektoru.">
<polygon fill="white" stroke="#666666" points="217,-93 103,-93 103,-74 217,-74 217,-93"/>
<text text-anchor="middle" x="160" y="-81" font-family="Helvetica,sans-Serif" font-size="10.00">vector_move_positions</text>
</a>
</g>
</g>
<!-- Node1&#45;&gt;Node4 -->
<g id="edge3_Node000001_Node000004" class="edge"><title>Node1&#45;&gt;Node4</title>
<g id="a_edge3_Node000001_Node000004"><a xlink:title=" ">
<path fill="none" stroke="#63b8ff" d="M62.0972,-69.0027C71.4758,-70.4058 82.2134,-72.0122 93.0463,-73.6329"/>
<polygon fill="#63b8ff" stroke="#63b8ff" points="92.5777,-77.1017 102.985,-75.1199 93.6134,-70.1787 92.5777,-77.1017"/>
</a>
</g>
</g>
<!-- Node5 -->
<g id="Node000005" class="node"><title>Node5</title>
<g id="a_Node000005"><a xlink:href="group___t_vector.html#gabd5ba54950295545d27b1286234ead39" target="_top" xlink:title="Zapsání hodnoty elementu do vektoru na požadovanou pozici.">
<polygon fill="white" stroke="#666666" points="204,-56 116,-56 116,-37 204,-37 204,-56"/>
<text text-anchor="middle" x="160" y="-44" font-family="Helvetica,sans-Serif" font-size="10.00">vector_set_value</text>
</a>
</g>
</g>
<!-- Node1&#45;&gt;Node5 -->
<g id="edge4_Node000001_Node000005" class="edge"><title>Node1&#45;&gt;Node5</title>
<g id="a_edge4_Node000001_Node000005"><a xlink:title=" ">
<path fill="none" stroke="#63b8ff" d="M62.0972,-60.2343C75.0895,-58.3928 90.6898,-56.1818 105.539,-54.0772"/>
<polygon fill="#63b8ff" stroke="#63b8ff" points="106.247,-57.5118 115.657,-52.6431 105.265,-50.5811 106.247,-57.5118"/>
</a>
</g>
</g>
<!-- Node6 -->
<g id="Node000006" class="node"><title>Node6</title>
<g id="a_Node000006"><a xlink:href="group___t_vector.html#ga2b08236d9825632cd96bcc89faed929c" target="_top" xlink:title="Přečtení hodnoty elementu z vektoru na požadované pozici.">
<polygon fill="white" stroke="#666666" points="194.5,-19 125.5,-19 125.5,-0 194.5,-0 194.5,-19"/>
<text text-anchor="middle" x="160" y="-7" font-family="Helvetica,sans-Serif" font-size="10.00">vector_value</text>
</a>
</g>
</g>
<!-- Node1&#45;&gt;Node6 -->
<g id="edge5_Node000001_Node000006" class="edge"><title>Node1&#45;&gt;Node6</title>
<g id="a_edge5_Node000001_Node000006"><a xlink:title=" ">
<path fill="none" stroke="#63b8ff" d="M47.5666,-54.8651C60.6723,-47.0358 80.0925,-36.0849 98,-28.5 103.562,-26.1443 109.517,-23.9311 115.448,-21.9064"/>
<polygon fill="#63b8ff" stroke="#63b8ff" points="116.907,-25.112 125.33,-18.6849 114.737,-18.4566 116.907,-25.112"/>
</a>
</g>
</g>
<!-- Node3 -->
<g id="Node000003" class="node"><title>Node3</title>
<g id="a_Node000003"><a xlink:href="group___t_vector_element.html#ga82e527836fce12c93af896f65e9f701d" target="_top" xlink:title="Porovnání dvou elementů">
<polygon fill="white" stroke="#666666" points="394,-136 258,-136 258,-117 394,-117 394,-136"/>
<text text-anchor="middle" x="326" y="-124" font-family="Helvetica,sans-Serif" font-size="10.00">vector_element_comparator</text>
</a>
</g>
</g>
<!-- Node2&#45;&gt;Node3 -->
<g id="edge2_Node000002_Node000003" class="edge"><title>Node2&#45;&gt;Node3</title>
<g id="a_edge2_Node000002_Node000003"><a xlink:title=" ">
<path fill="none" stroke="#63b8ff" d="M222.068,-126.5C230.446,-126.5 239.137,-126.5 247.757,-126.5"/>
<polygon fill="#63b8ff" stroke="#63b8ff" points="247.822,-130 257.822,-126.5 247.822,-123 247.822,-130"/>
</a>
</g>
</g>
</g>
</svg>
