<?xml version="1.0" encoding="UTF-8" standalone="no"?>
<!DOCTYPE svg PUBLIC "-//W3C//DTD SVG 1.1//EN"
 "http://www.w3.org/Graphics/SVG/1.1/DTD/svg11.dtd">
<!-- Generated by graphviz version 2.38.0 (20140413.2041)
 -->
<!-- Title: main.c Pages: 1 -->
<svg width="504pt" height="247pt"
 viewBox="0.00 0.00 503.50 247.00" xmlns="http://www.w3.org/2000/svg" xmlns:xlink="http://www.w3.org/1999/xlink">
<g id="graph0" class="graph" transform="scale(1 1) rotate(0) translate(4 243)">
<title>main.c</title>
<!-- Node1 -->
<g id="Node000001" class="node"><title>Node1</title>
<g id="a_Node000001"><a xlink:title="Hlavní program testující API přímých metod třídění">
<polygon fill="#999999" stroke="#666666" points="369,-239 323,-239 323,-220 369,-220 369,-239"/>
<text text-anchor="middle" x="346" y="-227" font-family="Helvetica,sans-Serif" font-size="10.00">main.c</text>
</a>
</g>
</g>
<!-- Node2 -->
<g id="Node000002" class="node"><title>Node2</title>
<g id="a_Node000002"><a xlink:title=" ">
<polygon fill="#e0e0e0" stroke="#999999" points="46,-19 0,-19 0,-0 46,-0 46,-19"/>
<text text-anchor="middle" x="23" y="-7" font-family="Helvetica,sans-Serif" font-size="10.00">stdio.h</text>
</a>
</g>
</g>
<!-- Node1&#45;&gt;Node2 -->
<g id="edge1_Node000001_Node000002" class="edge"><title>Node1&#45;&gt;Node2</title>
<g id="a_edge1_Node000001_Node000002"><a xlink:title=" ">
<path fill="none" stroke="#63b8ff" d="M322.941,-223.119C295.086,-216.147 247.21,-202.639 209,-184 130.45,-145.682 99.7455,-142.918 46,-74 35.7476,-60.8533 29.7887,-42.7213 26.5167,-29.1975"/>
<polygon fill="#63b8ff" stroke="#63b8ff" points="29.8781,-28.1792 24.3648,-19.1319 23.0328,-29.6427 29.8781,-28.1792"/>
</a>
</g>
</g>
<!-- Node3 -->
<g id="Node000003" class="node"><title>Node3</title>
<g id="a_Node000003"><a xlink:title=" ">
<polygon fill="#e0e0e0" stroke="#999999" points="447,-129 403,-129 403,-110 447,-110 447,-129"/>
<text text-anchor="middle" x="425" y="-117" font-family="Helvetica,sans-Serif" font-size="10.00">time.h</text>
</a>
</g>
</g>
<!-- Node1&#45;&gt;Node3 -->
<g id="edge2_Node000001_Node000003" class="edge"><title>Node1&#45;&gt;Node3</title>
<g id="a_edge2_Node000001_Node000003"><a xlink:title=" ">
<path fill="none" stroke="#63b8ff" d="M352.465,-219.662C365.608,-201.694 395.637,-160.641 412.65,-137.384"/>
<polygon fill="#63b8ff" stroke="#63b8ff" points="415.588,-139.296 418.667,-129.158 409.938,-135.163 415.588,-139.296"/>
</a>
</g>
</g>
<!-- Node4 -->
<g id="Node000004" class="node"><title>Node4</title>
<g id="a_Node000004"><a xlink:href="basic__sorts_8h.html" target="_top" xlink:title="Deklarace API přímých metod třídění">
<polygon fill="white" stroke="#666666" points="293.5,-184 218.5,-184 218.5,-165 293.5,-165 293.5,-184"/>
<text text-anchor="middle" x="256" y="-172" font-family="Helvetica,sans-Serif" font-size="10.00">basic_sorts.h</text>
</a>
</g>
</g>
<!-- Node1&#45;&gt;Node4 -->
<g id="edge3_Node000001_Node000004" class="edge"><title>Node1&#45;&gt;Node4</title>
<g id="a_edge3_Node000001_Node000004"><a xlink:title=" ">
<path fill="none" stroke="#63b8ff" d="M331.54,-219.985C317.583,-211.766 296.206,-199.177 279.75,-189.486"/>
<polygon fill="#63b8ff" stroke="#63b8ff" points="281.116,-186.229 270.723,-184.17 277.564,-192.261 281.116,-186.229"/>
</a>
</g>
</g>
<!-- Node12 -->
<g id="Node000012" class="node"><title>Node12</title>
<g id="a_Node000012"><a xlink:title=" ">
<polygon fill="#e0e0e0" stroke="#999999" points="393.5,-19 342.5,-19 342.5,-0 393.5,-0 393.5,-19"/>
<text text-anchor="middle" x="368" y="-7" font-family="Helvetica,sans-Serif" font-size="10.00">check.h</text>
</a>
</g>
</g>
<!-- Node1&#45;&gt;Node12 -->
<g id="edge18_Node000001_Node000012" class="edge"><title>Node1&#45;&gt;Node12</title>
<g id="a_edge18_Node000001_Node000012"><a xlink:title=" ">
<path fill="none" stroke="#63b8ff" d="M346.862,-219.954C350.093,-187.946 361.523,-74.6786 366.092,-29.4031"/>
<polygon fill="#63b8ff" stroke="#63b8ff" points="369.598,-29.5246 367.12,-19.2237 362.633,-28.8217 369.598,-29.5246"/>
</a>
</g>
</g>
<!-- Node13 -->
<g id="Node000013" class="node"><title>Node13</title>
<g id="a_Node000013"><a xlink:href="main__support_8h.html" target="_top" xlink:title="Soubor pro multiplatformní podporu programu v různých OS.">
<polygon fill="white" stroke="#666666" points="495.5,-184 412.5,-184 412.5,-165 495.5,-165 495.5,-184"/>
<text text-anchor="middle" x="454" y="-172" font-family="Helvetica,sans-Serif" font-size="10.00">main_support.h</text>
</a>
</g>
</g>
<!-- Node1&#45;&gt;Node13 -->
<g id="edge16_Node000001_Node000013" class="edge"><title>Node1&#45;&gt;Node13</title>
<g id="a_edge16_Node000001_Node000013"><a xlink:title=" ">
<path fill="none" stroke="#63b8ff" d="M363.352,-219.985C380.569,-211.535 407.198,-198.468 427.146,-188.678"/>
<polygon fill="#63b8ff" stroke="#63b8ff" points="428.897,-191.718 436.332,-184.17 425.813,-185.434 428.897,-191.718"/>
</a>
</g>
</g>
<!-- Node5 -->
<g id="Node000005" class="node"><title>Node5</title>
<g id="a_Node000005"><a xlink:href="_t_vector_8h.html" target="_top" xlink:title="Definice typu Sortable Vector.">
<polygon fill="white" stroke="#666666" points="223.5,-129 164.5,-129 164.5,-110 223.5,-110 223.5,-129"/>
<text text-anchor="middle" x="194" y="-117" font-family="Helvetica,sans-Serif" font-size="10.00">TVector.h</text>
</a>
</g>
</g>
<!-- Node4&#45;&gt;Node5 -->
<g id="edge4_Node000004_Node000005" class="edge"><title>Node4&#45;&gt;Node5</title>
<g id="a_edge4_Node000004_Node000005"><a xlink:title=" ">
<path fill="none" stroke="#63b8ff" d="M246.039,-164.985C236.873,-157.15 223.063,-145.344 211.972,-135.863"/>
<polygon fill="#63b8ff" stroke="#63b8ff" points="214.018,-133.008 204.143,-129.17 209.47,-138.329 214.018,-133.008"/>
</a>
</g>
</g>
<!-- Node5&#45;&gt;Node2 -->
<g id="edge5_Node000005_Node000002" class="edge"><title>Node5&#45;&gt;Node2</title>
<g id="a_edge5_Node000005_Node000002"><a xlink:title=" ">
<path fill="none" stroke="#63b8ff" d="M164.276,-113.544C136.811,-107.778 95.9936,-96.0838 67,-74 51.2022,-61.9672 38.9599,-42.6117 31.4448,-28.4291"/>
<polygon fill="#63b8ff" stroke="#63b8ff" points="34.4293,-26.5721 26.8248,-19.1949 28.1691,-29.7041 34.4293,-26.5721"/>
</a>
</g>
</g>
<!-- Node6 -->
<g id="Node000006" class="node"><title>Node6</title>
<g id="a_Node000006"><a xlink:title=" ">
<polygon fill="#e0e0e0" stroke="#999999" points="120,-19 64,-19 64,-0 120,-0 120,-19"/>
<text text-anchor="middle" x="92" y="-7" font-family="Helvetica,sans-Serif" font-size="10.00">stdbool.h</text>
</a>
</g>
</g>
<!-- Node5&#45;&gt;Node6 -->
<g id="edge6_Node000005_Node000006" class="edge"><title>Node5&#45;&gt;Node6</title>
<g id="a_edge6_Node000005_Node000006"><a xlink:title=" ">
<path fill="none" stroke="#63b8ff" d="M186.227,-109.773C175.197,-97.4391 154.308,-74.2647 136,-55 126.925,-45.4511 116.576,-34.965 108.196,-26.5715"/>
<polygon fill="#63b8ff" stroke="#63b8ff" points="110.422,-23.8483 100.87,-19.2642 105.478,-28.8044 110.422,-23.8483"/>
</a>
</g>
</g>
<!-- Node7 -->
<g id="Node000007" class="node"><title>Node7</title>
<g id="a_Node000007"><a xlink:title=" ">
<polygon fill="#e0e0e0" stroke="#999999" points="127.5,-74 76.5,-74 76.5,-55 127.5,-55 127.5,-74"/>
<text text-anchor="middle" x="102" y="-62" font-family="Helvetica,sans-Serif" font-size="10.00">stddef.h</text>
</a>
</g>
</g>
<!-- Node5&#45;&gt;Node7 -->
<g id="edge7_Node000005_Node000007" class="edge"><title>Node5&#45;&gt;Node7</title>
<g id="a_edge7_Node000005_Node000007"><a xlink:title=" ">
<path fill="none" stroke="#63b8ff" d="M179.219,-109.985C164.819,-101.689 142.691,-88.9413 125.808,-79.2153"/>
<polygon fill="#63b8ff" stroke="#63b8ff" points="127.462,-76.1294 117.05,-74.1703 123.968,-82.1949 127.462,-76.1294"/>
</a>
</g>
</g>
<!-- Node8 -->
<g id="Node000008" class="node"><title>Node8</title>
<g id="a_Node000008"><a xlink:href="_t_vector_element_8h.html" target="_top" xlink:title="Definice strukturovaného typu VectorElement a implementace API.">
<polygon fill="white" stroke="#666666" points="279.5,-74 184.5,-74 184.5,-55 279.5,-55 279.5,-74"/>
<text text-anchor="middle" x="232" y="-62" font-family="Helvetica,sans-Serif" font-size="10.00">TVectorElement.h</text>
</a>
</g>
</g>
<!-- Node5&#45;&gt;Node8 -->
<g id="edge8_Node000005_Node000008" class="edge"><title>Node5&#45;&gt;Node8</title>
<g id="a_edge8_Node000005_Node000008"><a xlink:title=" ">
<path fill="none" stroke="#63b8ff" d="M200.275,-109.748C205.587,-102.339 213.355,-91.5042 219.875,-82.4107"/>
<polygon fill="#63b8ff" stroke="#63b8ff" points="222.859,-84.2554 225.842,-74.089 217.17,-80.1766 222.859,-84.2554"/>
</a>
</g>
</g>
<!-- Node5&#45;&gt;Node12 -->
<g id="edge15_Node000005_Node000012" class="edge"><title>Node5&#45;&gt;Node12</title>
<g id="a_edge15_Node000005_Node000012"><a xlink:title=" ">
<path fill="none" stroke="#63b8ff" d="M215.632,-109.931C235.169,-101.808 264.39,-88.6883 288,-74 311.121,-59.6158 335.29,-39.6396 350.929,-25.9559"/>
<polygon fill="#63b8ff" stroke="#63b8ff" points="353.524,-28.3326 358.68,-19.0767 348.878,-23.0973 353.524,-28.3326"/>
</a>
</g>
</g>
<!-- Node8&#45;&gt;Node2 -->
<g id="edge9_Node000008_Node000002" class="edge"><title>Node8&#45;&gt;Node2</title>
<g id="a_edge9_Node000008_Node000002"><a xlink:title=" ">
<path fill="none" stroke="#63b8ff" d="M197.371,-54.9386C163.687,-46.5787 110.809,-33.3711 55.9597,-19.223"/>
<polygon fill="#63b8ff" stroke="#63b8ff" points="56.6201,-15.7787 46.0624,-16.6652 54.8686,-22.556 56.6201,-15.7787"/>
</a>
</g>
</g>
<!-- Node8&#45;&gt;Node6 -->
<g id="edge12_Node000008_Node000006" class="edge"><title>Node8&#45;&gt;Node6</title>
<g id="a_edge12_Node000008_Node000006"><a xlink:title=" ">
<path fill="none" stroke="#63b8ff" d="M209.507,-54.9846C186.478,-46.2665 150.46,-32.6314 124.369,-22.7539"/>
<polygon fill="#63b8ff" stroke="#63b8ff" points="125.494,-19.4376 114.903,-19.1703 123.016,-25.9842 125.494,-19.4376"/>
</a>
</g>
</g>
<!-- Node9 -->
<g id="Node000009" class="node"><title>Node9</title>
<g id="a_Node000009"><a xlink:title=" ">
<polygon fill="#e0e0e0" stroke="#999999" points="324,-19 276,-19 276,-0 324,-0 324,-19"/>
<text text-anchor="middle" x="300" y="-7" font-family="Helvetica,sans-Serif" font-size="10.00">stdlib.h</text>
</a>
</g>
</g>
<!-- Node8&#45;&gt;Node9 -->
<g id="edge10_Node000008_Node000009" class="edge"><title>Node8&#45;&gt;Node9</title>
<g id="a_edge10_Node000008_Node000009"><a xlink:title=" ">
<path fill="none" stroke="#63b8ff" d="M242.925,-54.9846C253.076,-47.0731 268.422,-35.1121 280.646,-25.5848"/>
<polygon fill="#63b8ff" stroke="#63b8ff" points="283.14,-28.0783 288.876,-19.1703 278.837,-22.5572 283.14,-28.0783"/>
</a>
</g>
</g>
<!-- Node10 -->
<g id="Node000010" class="node"><title>Node10</title>
<g id="a_Node000010"><a xlink:title=" ">
<polygon fill="#e0e0e0" stroke="#999999" points="187.5,-19 138.5,-19 138.5,-0 187.5,-0 187.5,-19"/>
<text text-anchor="middle" x="163" y="-7" font-family="Helvetica,sans-Serif" font-size="10.00">string.h</text>
</a>
</g>
</g>
<!-- Node8&#45;&gt;Node10 -->
<g id="edge11_Node000008_Node000010" class="edge"><title>Node8&#45;&gt;Node10</title>
<g id="a_edge11_Node000008_Node000010"><a xlink:title=" ">
<path fill="none" stroke="#63b8ff" d="M220.914,-54.9846C210.514,-46.9963 194.739,-34.8795 182.278,-25.308"/>
<polygon fill="#63b8ff" stroke="#63b8ff" points="184.35,-22.4862 174.288,-19.1703 180.086,-28.0376 184.35,-22.4862"/>
</a>
</g>
</g>
<!-- Node11 -->
<g id="Node000011" class="node"><title>Node11</title>
<g id="a_Node000011"><a xlink:title=" ">
<polygon fill="#e0e0e0" stroke="#999999" points="258,-19 206,-19 206,-0 258,-0 258,-19"/>
<text text-anchor="middle" x="232" y="-7" font-family="Helvetica,sans-Serif" font-size="10.00">assert.h</text>
</a>
</g>
</g>
<!-- Node8&#45;&gt;Node11 -->
<g id="edge13_Node000008_Node000011" class="edge"><title>Node8&#45;&gt;Node11</title>
<g id="a_edge13_Node000008_Node000011"><a xlink:title=" ">
<path fill="none" stroke="#63b8ff" d="M232,-54.7481C232,-47.8021 232,-37.8451 232,-29.1349"/>
<polygon fill="#63b8ff" stroke="#63b8ff" points="235.5,-29.089 232,-19.089 228.5,-29.0891 235.5,-29.089"/>
</a>
</g>
</g>
<!-- Node8&#45;&gt;Node12 -->
<g id="edge14_Node000008_Node000012" class="edge"><title>Node8&#45;&gt;Node12</title>
<g id="a_edge14_Node000008_Node000012"><a xlink:title=" ">
<path fill="none" stroke="#63b8ff" d="M253.851,-54.9846C276.123,-46.305 310.902,-32.7515 336.221,-22.8847"/>
<polygon fill="#63b8ff" stroke="#63b8ff" points="337.705,-26.0626 345.752,-19.1703 335.163,-19.5403 337.705,-26.0626"/>
</a>
</g>
</g>
<!-- Node13&#45;&gt;Node3 -->
<g id="edge17_Node000013_Node000003" class="edge"><title>Node13&#45;&gt;Node3</title>
<g id="a_edge17_Node000013_Node000003"><a xlink:title=" ">
<path fill="none" stroke="#63b8ff" d="M449.211,-164.748C445.242,-157.493 439.475,-146.954 434.565,-137.981"/>
<polygon fill="#63b8ff" stroke="#63b8ff" points="437.57,-136.182 429.7,-129.089 431.429,-139.542 437.57,-136.182"/>
</a>
</g>
</g>
</g>
</svg>
