<?xml version="1.0" encoding="UTF-8" standalone="no"?>
<!DOCTYPE svg PUBLIC "-//W3C//DTD SVG 1.1//EN"
 "http://www.w3.org/Graphics/SVG/1.1/DTD/svg11.dtd">
<!-- Generated by graphviz version 2.38.0 (20140413.2041)
 -->
<!-- Title: TSetElement.h Pages: 1 -->
<svg width="286pt" height="247pt"
 viewBox="0.00 0.00 285.50 247.00" xmlns="http://www.w3.org/2000/svg" xmlns:xlink="http://www.w3.org/1999/xlink">
<g id="graph0" class="graph" transform="scale(1 1) rotate(0) translate(4 243)">
<title>TSetElement.h</title>
<!-- Node1 -->
<g id="Node000001" class="node"><title>Node1</title>
<g id="a_Node000001"><a xlink:title="Definice typu Basic SetElement a implementace API.">
<polygon fill="#999999" stroke="#666666" points="142,-239 61,-239 61,-220 142,-220 142,-239"/>
<text text-anchor="middle" x="101.5" y="-227" font-family="Helvetica,sans-Serif" font-size="10.00">TSetElement.h</text>
</a>
</g>
</g>
<!-- Node2 -->
<g id="Node000002" class="node"><title>Node2</title>
<g id="a_Node000002"><a xlink:href="_t_set_element_8c.html" target="_top" xlink:title="Definice globální proměnné realizující počítadlo operací porovnání dvou hodnot typu SetElement.">
<polygon fill="white" stroke="#666666" points="81,-184 0,-184 0,-165 81,-165 81,-184"/>
<text text-anchor="middle" x="40.5" y="-172" font-family="Helvetica,sans-Serif" font-size="10.00">TSetElement.c</text>
</a>
</g>
</g>
<!-- Node1&#45;&gt;Node2 -->
<g id="edge1_Node000001_Node000002" class="edge"><title>Node1&#45;&gt;Node2</title>
<g id="a_edge1_Node000001_Node000002"><a xlink:title=" ">
<path fill="none" stroke="#63b8ff" d="M84.0328,-213.324C73.1562,-203.873 59.5561,-192.057 50.479,-184.17"/>
<polygon fill="#63b8ff" stroke="#63b8ff" points="81.855,-216.068 91.6993,-219.985 86.4461,-210.784 81.855,-216.068"/>
</a>
</g>
</g>
<!-- Node3 -->
<g id="Node000003" class="node"><title>Node3</title>
<g id="a_Node000003"><a xlink:href="_t_set_unsorted_flex_array_8h.html" target="_top" xlink:title="Deklarace typu SetUnsortedFlexArray a jeho API pro realizaci množiny pomocí nesetříděného flexibilníh...">
<polygon fill="white" stroke="#666666" points="225.5,-184 99.5,-184 99.5,-165 225.5,-165 225.5,-184"/>
<text text-anchor="middle" x="162.5" y="-172" font-family="Helvetica,sans-Serif" font-size="10.00">TSetUnsortedFlexArray.h</text>
</a>
</g>
</g>
<!-- Node1&#45;&gt;Node3 -->
<g id="edge2_Node000001_Node000003" class="edge"><title>Node1&#45;&gt;Node3</title>
<g id="a_edge2_Node000001_Node000003"><a xlink:title=" ">
<path fill="none" stroke="#63b8ff" d="M118.967,-213.324C129.844,-203.873 143.444,-192.057 152.521,-184.17"/>
<polygon fill="#63b8ff" stroke="#63b8ff" points="116.554,-210.784 111.301,-219.985 121.145,-216.068 116.554,-210.784"/>
</a>
</g>
</g>
<!-- Node4 -->
<g id="Node000004" class="node"><title>Node4</title>
<g id="a_Node000004"><a xlink:href="_t_set_8h.html" target="_top" xlink:title="Definice typu Set &#45; (realizace množiny pomocí nesetříděného flexibilního dynamicky alokovaného pole)">
<polygon fill="white" stroke="#666666" points="133,-129 88,-129 88,-110 133,-110 133,-129"/>
<text text-anchor="middle" x="110.5" y="-117" font-family="Helvetica,sans-Serif" font-size="10.00">TSet.h</text>
</a>
</g>
</g>
<!-- Node3&#45;&gt;Node4 -->
<g id="edge3_Node000003_Node000004" class="edge"><title>Node3&#45;&gt;Node4</title>
<g id="a_edge3_Node000003_Node000004"><a xlink:title=" ">
<path fill="none" stroke="#63b8ff" d="M146.821,-157.519C137.655,-148.178 126.447,-136.754 118.927,-129.089"/>
<polygon fill="#63b8ff" stroke="#63b8ff" points="144.411,-160.061 153.913,-164.748 149.408,-155.159 144.411,-160.061"/>
</a>
</g>
</g>
<!-- Node9 -->
<g id="Node000009" class="node"><title>Node9</title>
<g id="a_Node000009"><a xlink:href="_t_set_unsorted_flex_array_8c.html" target="_top" xlink:title="Implementace API pro typ SetUnsortedFlexArray (Flexibilní, tzv. otevřené, pole pro realizaci množiny ...">
<polygon fill="white" stroke="#666666" points="277.5,-129 151.5,-129 151.5,-110 277.5,-110 277.5,-129"/>
<text text-anchor="middle" x="214.5" y="-117" font-family="Helvetica,sans-Serif" font-size="10.00">TSetUnsortedFlexArray.c</text>
</a>
</g>
</g>
<!-- Node3&#45;&gt;Node9 -->
<g id="edge9_Node000003_Node000009" class="edge"><title>Node3&#45;&gt;Node9</title>
<g id="a_edge9_Node000003_Node000009"><a xlink:title=" ">
<path fill="none" stroke="#63b8ff" d="M178.179,-157.519C187.345,-148.178 198.553,-136.754 206.073,-129.089"/>
<polygon fill="#63b8ff" stroke="#63b8ff" points="175.592,-155.159 171.087,-164.748 180.589,-160.061 175.592,-155.159"/>
</a>
</g>
</g>
<!-- Node5 -->
<g id="Node000005" class="node"><title>Node5</title>
<g id="a_Node000005"><a xlink:href="_t_set_8c.html" target="_top" xlink:title="Implementace API pro typ Set (realizace množiny pomocí nesetříděného flexibilního dynamicky alokované...">
<polygon fill="white" stroke="#666666" points="82,-74 37,-74 37,-55 82,-55 82,-74"/>
<text text-anchor="middle" x="59.5" y="-62" font-family="Helvetica,sans-Serif" font-size="10.00">TSet.c</text>
</a>
</g>
</g>
<!-- Node4&#45;&gt;Node5 -->
<g id="edge4_Node000004_Node000005" class="edge"><title>Node4&#45;&gt;Node5</title>
<g id="a_edge4_Node000004_Node000005"><a xlink:title=" ">
<path fill="none" stroke="#63b8ff" d="M95.1221,-102.519C86.1331,-93.1775 75.1408,-81.7541 67.7649,-74.089"/>
<polygon fill="#63b8ff" stroke="#63b8ff" points="92.6225,-104.969 102.078,-109.748 97.6666,-100.116 92.6225,-104.969"/>
</a>
</g>
</g>
<!-- Node6 -->
<g id="Node000006" class="node"><title>Node6</title>
<g id="a_Node000006"><a xlink:href="main_8c.html" target="_top" xlink:title="Hlavní program pro testování ADT TSet.">
<polygon fill="white" stroke="#666666" points="133.5,-19 87.5,-19 87.5,-0 133.5,-0 133.5,-19"/>
<text text-anchor="middle" x="110.5" y="-7" font-family="Helvetica,sans-Serif" font-size="10.00">main.c</text>
</a>
</g>
</g>
<!-- Node4&#45;&gt;Node6 -->
<g id="edge5_Node000004_Node000006" class="edge"><title>Node4&#45;&gt;Node6</title>
<g id="a_edge5_Node000004_Node000006"><a xlink:title=" ">
<path fill="none" stroke="#63b8ff" d="M110.5,-99.4835C110.5,-75.8433 110.5,-36.498 110.5,-19.1584"/>
<polygon fill="#63b8ff" stroke="#63b8ff" points="107,-99.6619 110.5,-109.662 114,-99.6619 107,-99.6619"/>
</a>
</g>
</g>
<!-- Node7 -->
<g id="Node000007" class="node"><title>Node7</title>
<g id="a_Node000007"><a xlink:href="testbench_8h.html" target="_top" xlink:title="Definice testbench API pro testování operací zvoleného ADT.">
<polygon fill="white" stroke="#666666" points="206.5,-74 138.5,-74 138.5,-55 206.5,-55 206.5,-74"/>
<text text-anchor="middle" x="172.5" y="-62" font-family="Helvetica,sans-Serif" font-size="10.00">testbench.h</text>
</a>
</g>
</g>
<!-- Node4&#45;&gt;Node7 -->
<g id="edge6_Node000004_Node000007" class="edge"><title>Node4&#45;&gt;Node7</title>
<g id="a_edge6_Node000004_Node000007"><a xlink:title=" ">
<path fill="none" stroke="#63b8ff" d="M128.254,-103.324C139.308,-93.8734 153.131,-82.057 162.357,-74.1703"/>
<polygon fill="#63b8ff" stroke="#63b8ff" points="125.788,-100.826 120.461,-109.985 130.337,-106.147 125.788,-100.826"/>
</a>
</g>
</g>
<!-- Node7&#45;&gt;Node6 -->
<g id="edge7_Node000007_Node000006" class="edge"><title>Node7&#45;&gt;Node6</title>
<g id="a_edge7_Node000007_Node000006"><a xlink:title=" ">
<path fill="none" stroke="#63b8ff" d="M154.746,-48.3236C143.692,-38.8734 129.869,-27.057 120.643,-19.1703"/>
<polygon fill="#63b8ff" stroke="#63b8ff" points="152.663,-51.1472 162.539,-54.9846 157.212,-45.8264 152.663,-51.1472"/>
</a>
</g>
</g>
<!-- Node8 -->
<g id="Node000008" class="node"><title>Node8</title>
<g id="a_Node000008"><a xlink:href="testbench_8c.html" target="_top" xlink:title="Implementace testbench API pro testování operací zvoleného ADT.">
<polygon fill="white" stroke="#666666" points="219.5,-19 151.5,-19 151.5,-0 219.5,-0 219.5,-19"/>
<text text-anchor="middle" x="185.5" y="-7" font-family="Helvetica,sans-Serif" font-size="10.00">testbench.c</text>
</a>
</g>
</g>
<!-- Node7&#45;&gt;Node8 -->
<g id="edge8_Node000007_Node000008" class="edge"><title>Node7&#45;&gt;Node8</title>
<g id="a_edge8_Node000007_Node000008"><a xlink:title=" ">
<path fill="none" stroke="#63b8ff" d="M177.05,-44.9505C179.208,-36.1517 181.682,-26.0643 183.393,-19.089"/>
<polygon fill="#63b8ff" stroke="#63b8ff" points="173.63,-44.2022 174.647,-54.7481 180.428,-45.8698 173.63,-44.2022"/>
</a>
</g>
</g>
</g>
</svg>
