<?xml version="1.0" encoding="UTF-8" standalone="no"?>
<!DOCTYPE svg PUBLIC "-//W3C//DTD SVG 1.1//EN"
 "http://www.w3.org/Graphics/SVG/1.1/DTD/svg11.dtd">
<!-- Generated by graphviz version 2.38.0 (20140413.2041)
 -->
<!-- Title: TSetUnsortedFlexArray.c Pages: 1 -->
<svg width="352pt" height="192pt"
 viewBox="0.00 0.00 351.50 192.00" xmlns="http://www.w3.org/2000/svg" xmlns:xlink="http://www.w3.org/1999/xlink">
<g id="graph0" class="graph" transform="scale(1 1) rotate(0) translate(4 188)">
<title>TSetUnsortedFlexArray.c</title>
<!-- Node1 -->
<g id="Node000001" class="node"><title>Node1</title>
<g id="a_Node000001"><a xlink:title="Implementace API pro typ SetUnsortedFlexArray (Flexibilní, tzv. otevřené, pole pro realizaci množiny ...">
<polygon fill="#999999" stroke="#666666" points="210,-184 84,-184 84,-165 210,-165 210,-184"/>
<text text-anchor="middle" x="147" y="-172" font-family="Helvetica,sans-Serif" font-size="10.00">TSetUnsortedFlexArray.c</text>
</a>
</g>
</g>
<!-- Node2 -->
<g id="Node000002" class="node"><title>Node2</title>
<g id="a_Node000002"><a xlink:title=" ">
<polygon fill="#e0e0e0" stroke="#999999" points="48,-19 0,-19 0,-0 48,-0 48,-19"/>
<text text-anchor="middle" x="24" y="-7" font-family="Helvetica,sans-Serif" font-size="10.00">stdlib.h</text>
</a>
</g>
</g>
<!-- Node1&#45;&gt;Node2 -->
<g id="edge1_Node000001_Node000002" class="edge"><title>Node1&#45;&gt;Node2</title>
<g id="a_edge1_Node000001_Node000002"><a xlink:title=" ">
<path fill="none" stroke="#63b8ff" d="M140.387,-164.736C120.782,-138.756 62.7311,-61.8266 36.7827,-27.4397"/>
<polygon fill="#63b8ff" stroke="#63b8ff" points="39.4631,-25.181 30.6457,-19.3069 33.8754,-29.3975 39.4631,-25.181"/>
</a>
</g>
</g>
<!-- Node3 -->
<g id="Node000003" class="node"><title>Node3</title>
<g id="a_Node000003"><a xlink:title=" ">
<polygon fill="#e0e0e0" stroke="#999999" points="118,-19 66,-19 66,-0 118,-0 118,-19"/>
<text text-anchor="middle" x="92" y="-7" font-family="Helvetica,sans-Serif" font-size="10.00">assert.h</text>
</a>
</g>
</g>
<!-- Node1&#45;&gt;Node3 -->
<g id="edge2_Node000001_Node000003" class="edge"><title>Node1&#45;&gt;Node3</title>
<g id="a_edge2_Node000001_Node000003"><a xlink:title=" ">
<path fill="none" stroke="#63b8ff" d="M143.338,-164.824C136.176,-147.672 120.053,-108.128 109,-74 104.159,-59.0525 99.6084,-41.8172 96.4357,-29.0778"/>
<polygon fill="#63b8ff" stroke="#63b8ff" points="99.7991,-28.0965 94.0297,-19.2103 92.9983,-29.7548 99.7991,-28.0965"/>
</a>
</g>
</g>
<!-- Node4 -->
<g id="Node000004" class="node"><title>Node4</title>
<g id="a_Node000004"><a xlink:href="_t_set_unsorted_flex_array_8h.html" target="_top" xlink:title="Deklarace typu SetUnsortedFlexArray a jeho API pro realizaci množiny pomocí nesetříděného flexibilníh...">
<polygon fill="white" stroke="#666666" points="267,-129 141,-129 141,-110 267,-110 267,-129"/>
<text text-anchor="middle" x="204" y="-117" font-family="Helvetica,sans-Serif" font-size="10.00">TSetUnsortedFlexArray.h</text>
</a>
</g>
</g>
<!-- Node1&#45;&gt;Node4 -->
<g id="edge3_Node000001_Node000004" class="edge"><title>Node1&#45;&gt;Node4</title>
<g id="a_edge3_Node000001_Node000004"><a xlink:title=" ">
<path fill="none" stroke="#63b8ff" d="M156.158,-164.985C164.501,-157.227 177.032,-145.575 187.177,-136.143"/>
<polygon fill="#63b8ff" stroke="#63b8ff" points="189.735,-138.543 194.675,-129.17 184.969,-133.417 189.735,-138.543"/>
</a>
</g>
</g>
<!-- Node9 -->
<g id="Node000009" class="node"><title>Node9</title>
<g id="a_Node000009"><a xlink:title=" ">
<polygon fill="#e0e0e0" stroke="#999999" points="343.5,-19 292.5,-19 292.5,-0 343.5,-0 343.5,-19"/>
<text text-anchor="middle" x="318" y="-7" font-family="Helvetica,sans-Serif" font-size="10.00">check.h</text>
</a>
</g>
</g>
<!-- Node1&#45;&gt;Node9 -->
<g id="edge12_Node000001_Node000009" class="edge"><title>Node1&#45;&gt;Node9</title>
<g id="a_edge12_Node000001_Node000009"><a xlink:title=" ">
<path fill="none" stroke="#63b8ff" d="M192.606,-164.933C218.87,-158.337 251.434,-147.18 276,-129 300.296,-111.02 306.202,-102.593 316,-74 320.978,-59.4737 321.133,-41.9672 320.239,-29.0179"/>
<polygon fill="#63b8ff" stroke="#63b8ff" points="323.717,-28.6208 319.278,-19.0008 316.749,-29.2895 323.717,-28.6208"/>
</a>
</g>
</g>
<!-- Node5 -->
<g id="Node000005" class="node"><title>Node5</title>
<g id="a_Node000005"><a xlink:title=" ">
<polygon fill="#e0e0e0" stroke="#999999" points="256,-19 200,-19 200,-0 256,-0 256,-19"/>
<text text-anchor="middle" x="228" y="-7" font-family="Helvetica,sans-Serif" font-size="10.00">stdbool.h</text>
</a>
</g>
</g>
<!-- Node4&#45;&gt;Node5 -->
<g id="edge4_Node000004_Node000005" class="edge"><title>Node4&#45;&gt;Node5</title>
<g id="a_edge4_Node000004_Node000005"><a xlink:title=" ">
<path fill="none" stroke="#63b8ff" d="M205.964,-109.662C209.868,-92.0918 218.679,-52.4465 223.899,-28.9532"/>
<polygon fill="#63b8ff" stroke="#63b8ff" points="227.323,-29.6795 226.076,-19.1584 220.49,-28.161 227.323,-29.6795"/>
</a>
</g>
</g>
<!-- Node6 -->
<g id="Node000006" class="node"><title>Node6</title>
<g id="a_Node000006"><a xlink:title=" ">
<polygon fill="#e0e0e0" stroke="#999999" points="307.5,-74 256.5,-74 256.5,-55 307.5,-55 307.5,-74"/>
<text text-anchor="middle" x="282" y="-62" font-family="Helvetica,sans-Serif" font-size="10.00">stddef.h</text>
</a>
</g>
</g>
<!-- Node4&#45;&gt;Node6 -->
<g id="edge5_Node000004_Node000006" class="edge"><title>Node4&#45;&gt;Node6</title>
<g id="a_edge5_Node000004_Node000006"><a xlink:title=" ">
<path fill="none" stroke="#63b8ff" d="M216.532,-109.985C228.402,-101.919 246.464,-89.6461 260.612,-80.0327"/>
<polygon fill="#63b8ff" stroke="#63b8ff" points="262.936,-82.6855 269.24,-74.1703 259.002,-76.8956 262.936,-82.6855"/>
</a>
</g>
</g>
<!-- Node7 -->
<g id="Node000007" class="node"><title>Node7</title>
<g id="a_Node000007"><a xlink:href="_t_set_element_8h.html" target="_top" xlink:title="Definice typu Basic SetElement a implementace API.">
<polygon fill="white" stroke="#666666" points="199.5,-74 118.5,-74 118.5,-55 199.5,-55 199.5,-74"/>
<text text-anchor="middle" x="159" y="-62" font-family="Helvetica,sans-Serif" font-size="10.00">TSetElement.h</text>
</a>
</g>
</g>
<!-- Node4&#45;&gt;Node7 -->
<g id="edge6_Node000004_Node000007" class="edge"><title>Node4&#45;&gt;Node7</title>
<g id="a_edge6_Node000004_Node000007"><a xlink:title=" ">
<path fill="none" stroke="#63b8ff" d="M196.569,-109.748C190.147,-102.185 180.694,-91.0512 172.878,-81.8447"/>
<polygon fill="#63b8ff" stroke="#63b8ff" points="175.433,-79.4467 166.293,-74.089 170.097,-83.9773 175.433,-79.4467"/>
</a>
</g>
</g>
<!-- Node7&#45;&gt;Node2 -->
<g id="edge8_Node000007_Node000002" class="edge"><title>Node7&#45;&gt;Node2</title>
<g id="a_edge8_Node000007_Node000002"><a xlink:title=" ">
<path fill="none" stroke="#63b8ff" d="M137.31,-54.9846C115.201,-46.305 80.6782,-32.7515 55.5458,-22.8847"/>
<polygon fill="#63b8ff" stroke="#63b8ff" points="56.6722,-19.5668 46.0847,-19.1703 54.114,-26.0827 56.6722,-19.5668"/>
</a>
</g>
</g>
<!-- Node7&#45;&gt;Node3 -->
<g id="edge10_Node000007_Node000003" class="edge"><title>Node7&#45;&gt;Node3</title>
<g id="a_edge10_Node000007_Node000003"><a xlink:title=" ">
<path fill="none" stroke="#63b8ff" d="M148.235,-54.9846C138.234,-47.0731 123.113,-35.1121 111.07,-25.5848"/>
<polygon fill="#63b8ff" stroke="#63b8ff" points="112.975,-22.6294 102.961,-19.1703 108.632,-28.1194 112.975,-22.6294"/>
</a>
</g>
</g>
<!-- Node7&#45;&gt;Node5 -->
<g id="edge9_Node000007_Node000005" class="edge"><title>Node7&#45;&gt;Node5</title>
<g id="a_edge9_Node000007_Node000005"><a xlink:title=" ">
<path fill="none" stroke="#63b8ff" d="M170.086,-54.9846C180.486,-46.9963 196.261,-34.8795 208.722,-25.308"/>
<polygon fill="#63b8ff" stroke="#63b8ff" points="210.914,-28.0376 216.712,-19.1703 206.65,-22.4862 210.914,-28.0376"/>
</a>
</g>
</g>
<!-- Node8 -->
<g id="Node000008" class="node"><title>Node8</title>
<g id="a_Node000008"><a xlink:title=" ">
<polygon fill="#e0e0e0" stroke="#999999" points="182,-19 136,-19 136,-0 182,-0 182,-19"/>
<text text-anchor="middle" x="159" y="-7" font-family="Helvetica,sans-Serif" font-size="10.00">stdio.h</text>
</a>
</g>
</g>
<!-- Node7&#45;&gt;Node8 -->
<g id="edge7_Node000007_Node000008" class="edge"><title>Node7&#45;&gt;Node8</title>
<g id="a_edge7_Node000007_Node000008"><a xlink:title=" ">
<path fill="none" stroke="#63b8ff" d="M159,-54.7481C159,-47.8021 159,-37.8451 159,-29.1349"/>
<polygon fill="#63b8ff" stroke="#63b8ff" points="162.5,-29.089 159,-19.089 155.5,-29.0891 162.5,-29.089"/>
</a>
</g>
</g>
<!-- Node7&#45;&gt;Node9 -->
<g id="edge11_Node000007_Node000009" class="edge"><title>Node7&#45;&gt;Node9</title>
<g id="a_edge11_Node000007_Node000009"><a xlink:title=" ">
<path fill="none" stroke="#63b8ff" d="M184.546,-54.9846C211.125,-46.125 252.938,-32.1875 282.672,-22.2759"/>
<polygon fill="#63b8ff" stroke="#63b8ff" points="283.874,-25.5648 292.254,-19.0821 281.66,-18.9241 283.874,-25.5648"/>
</a>
</g>
</g>
</g>
</svg>
