<?xml version="1.0" encoding="UTF-8" standalone="no"?>
<!DOCTYPE svg PUBLIC "-//W3C//DTD SVG 1.1//EN"
 "http://www.w3.org/Graphics/SVG/1.1/DTD/svg11.dtd">
<!-- Generated by graphviz version 2.38.0 (20140413.2041)
 -->
<!-- Title: TSet.c Pages: 1 -->
<svg width="334pt" height="247pt"
 viewBox="0.00 0.00 333.50 247.00" xmlns="http://www.w3.org/2000/svg" xmlns:xlink="http://www.w3.org/1999/xlink">
<g id="graph0" class="graph" transform="scale(1 1) rotate(0) translate(4 243)">
<title>TSet.c</title>
<!-- Node1 -->
<g id="Node000001" class="node"><title>Node1</title>
<g id="a_Node000001"><a xlink:title="Implementace API pro typ Set (realizace množiny pomocí nesetříděného flexibilního dynamicky alokované...">
<polygon fill="#999999" stroke="#666666" points="252.5,-239 207.5,-239 207.5,-220 252.5,-220 252.5,-239"/>
<text text-anchor="middle" x="230" y="-227" font-family="Helvetica,sans-Serif" font-size="10.00">TSet.c</text>
</a>
</g>
</g>
<!-- Node2 -->
<g id="Node000002" class="node"><title>Node2</title>
<g id="a_Node000002"><a xlink:href="_t_set_8h.html" target="_top" xlink:title="Definice typu Set &#45; (realizace množiny pomocí nesetříděného flexibilního dynamicky alokovaného pole)">
<polygon fill="white" stroke="#666666" points="183.5,-184 138.5,-184 138.5,-165 183.5,-165 183.5,-184"/>
<text text-anchor="middle" x="161" y="-172" font-family="Helvetica,sans-Serif" font-size="10.00">TSet.h</text>
</a>
</g>
</g>
<!-- Node1&#45;&gt;Node2 -->
<g id="edge1_Node000001_Node000002" class="edge"><title>Node1&#45;&gt;Node2</title>
<g id="a_edge1_Node000001_Node000002"><a xlink:title=" ">
<path fill="none" stroke="#63b8ff" d="M218.914,-219.985C208.514,-211.996 192.739,-199.88 180.278,-190.308"/>
<polygon fill="#63b8ff" stroke="#63b8ff" points="182.35,-187.486 172.288,-184.17 178.086,-193.038 182.35,-187.486"/>
</a>
</g>
</g>
<!-- Node10 -->
<g id="Node000010" class="node"><title>Node10</title>
<g id="a_Node000010"><a xlink:title=" ">
<polygon fill="#e0e0e0" stroke="#999999" points="325.5,-19 274.5,-19 274.5,-0 325.5,-0 325.5,-19"/>
<text text-anchor="middle" x="300" y="-7" font-family="Helvetica,sans-Serif" font-size="10.00">check.h</text>
</a>
</g>
</g>
<!-- Node1&#45;&gt;Node10 -->
<g id="edge14_Node000001_Node000010" class="edge"><title>Node1&#45;&gt;Node10</title>
<g id="a_edge14_Node000001_Node000010"><a xlink:title=" ">
<path fill="none" stroke="#63b8ff" d="M233.561,-219.92C243.087,-196.729 269.545,-130.719 286,-74 290.33,-59.0736 294.052,-41.8368 296.567,-29.0913"/>
<polygon fill="#63b8ff" stroke="#63b8ff" points="300.015,-29.6969 298.452,-19.2179 293.139,-28.3842 300.015,-29.6969"/>
</a>
</g>
</g>
<!-- Node3 -->
<g id="Node000003" class="node"><title>Node3</title>
<g id="a_Node000003"><a xlink:title=" ">
<polygon fill="#e0e0e0" stroke="#999999" points="56,-19 3.55271e-015,-19 3.55271e-015,-0 56,-0 56,-19"/>
<text text-anchor="middle" x="28" y="-7" font-family="Helvetica,sans-Serif" font-size="10.00">stdbool.h</text>
</a>
</g>
</g>
<!-- Node2&#45;&gt;Node3 -->
<g id="edge2_Node000002_Node000003" class="edge"><title>Node2&#45;&gt;Node3</title>
<g id="a_edge2_Node000002_Node000003"><a xlink:title=" ">
<path fill="none" stroke="#63b8ff" d="M138.445,-165.231C120.016,-157.72 93.9997,-145.323 75,-129 52.0733,-109.304 45.9101,-102.188 35,-74 29.4265,-59.6001 27.8448,-42.0825 27.5615,-29.0968"/>
<polygon fill="#63b8ff" stroke="#63b8ff" points="31.0615,-29.0502 27.5792,-19.044 24.0615,-29.0378 31.0615,-29.0502"/>
</a>
</g>
</g>
<!-- Node4 -->
<g id="Node000004" class="node"><title>Node4</title>
<g id="a_Node000004"><a xlink:title=" ">
<polygon fill="#e0e0e0" stroke="#999999" points="95.5,-74 44.5,-74 44.5,-55 95.5,-55 95.5,-74"/>
<text text-anchor="middle" x="70" y="-62" font-family="Helvetica,sans-Serif" font-size="10.00">stddef.h</text>
</a>
</g>
</g>
<!-- Node2&#45;&gt;Node4 -->
<g id="edge3_Node000002_Node000004" class="edge"><title>Node2&#45;&gt;Node4</title>
<g id="a_edge3_Node000002_Node000004"><a xlink:title=" ">
<path fill="none" stroke="#63b8ff" d="M138.771,-164.892C122.751,-157.609 101.783,-145.678 89,-129 79.0464,-116.014 74.2883,-97.8642 72.025,-84.2928"/>
<polygon fill="#63b8ff" stroke="#63b8ff" points="75.466,-83.6211 70.6512,-74.1835 68.5297,-84.5637 75.466,-83.6211"/>
</a>
</g>
</g>
<!-- Node5 -->
<g id="Node000005" class="node"><title>Node5</title>
<g id="a_Node000005"><a xlink:href="_t_set_unsorted_flex_array_8h.html" target="_top" xlink:title="Deklarace typu SetUnsortedFlexArray a jeho API pro realizaci množiny pomocí nesetříděného flexibilníh...">
<polygon fill="white" stroke="#666666" points="224,-129 98,-129 98,-110 224,-110 224,-129"/>
<text text-anchor="middle" x="161" y="-117" font-family="Helvetica,sans-Serif" font-size="10.00">TSetUnsortedFlexArray.h</text>
</a>
</g>
</g>
<!-- Node2&#45;&gt;Node5 -->
<g id="edge4_Node000002_Node000005" class="edge"><title>Node2&#45;&gt;Node5</title>
<g id="a_edge4_Node000002_Node000005"><a xlink:title=" ">
<path fill="none" stroke="#63b8ff" d="M161,-164.748C161,-157.802 161,-147.845 161,-139.135"/>
<polygon fill="#63b8ff" stroke="#63b8ff" points="164.5,-139.089 161,-129.089 157.5,-139.089 164.5,-139.089"/>
</a>
</g>
</g>
<!-- Node2&#45;&gt;Node10 -->
<g id="edge13_Node000002_Node000010" class="edge"><title>Node2&#45;&gt;Node10</title>
<g id="a_edge13_Node000002_Node000010"><a xlink:title=" ">
<path fill="none" stroke="#63b8ff" d="M180.266,-164.947C195.922,-157.267 217.823,-144.781 233,-129 262.099,-98.7431 283.073,-53.4247 293.188,-28.5121"/>
<polygon fill="#63b8ff" stroke="#63b8ff" points="296.452,-29.7753 296.85,-19.1879 289.937,-27.2162 296.452,-29.7753"/>
</a>
</g>
</g>
<!-- Node5&#45;&gt;Node3 -->
<g id="edge5_Node000005_Node000003" class="edge"><title>Node5&#45;&gt;Node3</title>
<g id="a_edge5_Node000005_Node000003"><a xlink:title=" ">
<path fill="none" stroke="#63b8ff" d="M154.701,-109.923C144.886,-96.9506 124.888,-72.0476 104,-55 89.1328,-42.8665 70.576,-31.9342 55.5209,-23.9418"/>
<polygon fill="#63b8ff" stroke="#63b8ff" points="56.6981,-20.6106 46.2071,-19.131 53.4857,-26.8299 56.6981,-20.6106"/>
</a>
</g>
</g>
<!-- Node5&#45;&gt;Node4 -->
<g id="edge6_Node000005_Node000004" class="edge"><title>Node5&#45;&gt;Node4</title>
<g id="a_edge6_Node000005_Node000004"><a xlink:title=" ">
<path fill="none" stroke="#63b8ff" d="M146.379,-109.985C132.136,-101.689 110.248,-88.9413 93.5489,-79.2153"/>
<polygon fill="#63b8ff" stroke="#63b8ff" points="95.2895,-76.1787 84.8868,-74.1703 91.7665,-82.2276 95.2895,-76.1787"/>
</a>
</g>
</g>
<!-- Node6 -->
<g id="Node000006" class="node"><title>Node6</title>
<g id="a_Node000006"><a xlink:href="_t_set_element_8h.html" target="_top" xlink:title="Definice typu Basic SetElement a implementace API.">
<polygon fill="white" stroke="#666666" points="233.5,-74 152.5,-74 152.5,-55 233.5,-55 233.5,-74"/>
<text text-anchor="middle" x="193" y="-62" font-family="Helvetica,sans-Serif" font-size="10.00">TSetElement.h</text>
</a>
</g>
</g>
<!-- Node5&#45;&gt;Node6 -->
<g id="edge7_Node000005_Node000006" class="edge"><title>Node5&#45;&gt;Node6</title>
<g id="a_edge7_Node000005_Node000006"><a xlink:title=" ">
<path fill="none" stroke="#63b8ff" d="M166.284,-109.748C170.711,-102.416 177.163,-91.7295 182.618,-82.6954"/>
<polygon fill="#63b8ff" stroke="#63b8ff" points="185.642,-84.4587 187.814,-74.089 179.649,-80.8406 185.642,-84.4587"/>
</a>
</g>
</g>
<!-- Node6&#45;&gt;Node3 -->
<g id="edge10_Node000006_Node000003" class="edge"><title>Node6&#45;&gt;Node3</title>
<g id="a_edge10_Node000006_Node000003"><a xlink:title=" ">
<path fill="none" stroke="#63b8ff" d="M166.49,-54.9846C138.788,-46.0865 95.14,-32.0662 64.2591,-22.1469"/>
<polygon fill="#63b8ff" stroke="#63b8ff" points="65.3092,-18.8081 54.7179,-19.0821 63.1684,-25.4727 65.3092,-18.8081"/>
</a>
</g>
</g>
<!-- Node7 -->
<g id="Node000007" class="node"><title>Node7</title>
<g id="a_Node000007"><a xlink:title=" ">
<polygon fill="#e0e0e0" stroke="#999999" points="120,-19 74,-19 74,-0 120,-0 120,-19"/>
<text text-anchor="middle" x="97" y="-7" font-family="Helvetica,sans-Serif" font-size="10.00">stdio.h</text>
</a>
</g>
</g>
<!-- Node6&#45;&gt;Node7 -->
<g id="edge8_Node000006_Node000007" class="edge"><title>Node6&#45;&gt;Node7</title>
<g id="a_edge8_Node000006_Node000007"><a xlink:title=" ">
<path fill="none" stroke="#63b8ff" d="M177.576,-54.9846C162.55,-46.689 139.46,-33.9413 121.843,-24.2153"/>
<polygon fill="#63b8ff" stroke="#63b8ff" points="123.151,-20.9395 112.705,-19.1703 119.768,-27.0676 123.151,-20.9395"/>
</a>
</g>
</g>
<!-- Node8 -->
<g id="Node000008" class="node"><title>Node8</title>
<g id="a_Node000008"><a xlink:title=" ">
<polygon fill="#e0e0e0" stroke="#999999" points="186,-19 138,-19 138,-0 186,-0 186,-19"/>
<text text-anchor="middle" x="162" y="-7" font-family="Helvetica,sans-Serif" font-size="10.00">stdlib.h</text>
</a>
</g>
</g>
<!-- Node6&#45;&gt;Node8 -->
<g id="edge9_Node000006_Node000008" class="edge"><title>Node6&#45;&gt;Node8</title>
<g id="a_edge9_Node000006_Node000008"><a xlink:title=" ">
<path fill="none" stroke="#63b8ff" d="M187.881,-54.7481C183.638,-47.4933 177.473,-36.9541 172.225,-27.9813"/>
<polygon fill="#63b8ff" stroke="#63b8ff" points="175.094,-25.9538 167.024,-19.089 169.051,-29.488 175.094,-25.9538"/>
</a>
</g>
</g>
<!-- Node9 -->
<g id="Node000009" class="node"><title>Node9</title>
<g id="a_Node000009"><a xlink:title=" ">
<polygon fill="#e0e0e0" stroke="#999999" points="256,-19 204,-19 204,-0 256,-0 256,-19"/>
<text text-anchor="middle" x="230" y="-7" font-family="Helvetica,sans-Serif" font-size="10.00">assert.h</text>
</a>
</g>
</g>
<!-- Node6&#45;&gt;Node9 -->
<g id="edge11_Node000006_Node000009" class="edge"><title>Node6&#45;&gt;Node9</title>
<g id="a_edge11_Node000006_Node000009"><a xlink:title=" ">
<path fill="none" stroke="#63b8ff" d="M199.11,-54.7481C204.282,-47.339 211.846,-36.5042 218.194,-27.4107"/>
<polygon fill="#63b8ff" stroke="#63b8ff" points="221.149,-29.2921 224.004,-19.089 215.41,-25.2851 221.149,-29.2921"/>
</a>
</g>
</g>
<!-- Node6&#45;&gt;Node10 -->
<g id="edge12_Node000006_Node000010" class="edge"><title>Node6&#45;&gt;Node10</title>
<g id="a_edge12_Node000006_Node000010"><a xlink:title=" ">
<path fill="none" stroke="#63b8ff" d="M210.191,-54.9846C227.249,-46.5354 253.631,-33.4677 273.395,-23.6781"/>
<polygon fill="#63b8ff" stroke="#63b8ff" points="275.088,-26.7453 282.496,-19.1703 271.981,-20.4726 275.088,-26.7453"/>
</a>
</g>
</g>
</g>
</svg>
