<?xml version="1.0" encoding="UTF-8" standalone="no"?>
<!DOCTYPE svg PUBLIC "-//W3C//DTD SVG 1.1//EN"
 "http://www.w3.org/Graphics/SVG/1.1/DTD/svg11.dtd">
<!-- Generated by graphviz version 2.38.0 (20140413.2041)
 -->
<!-- Title: TSet.h Pages: 1 -->
<svg width="191pt" height="137pt"
 viewBox="0.00 0.00 190.50 137.00" xmlns="http://www.w3.org/2000/svg" xmlns:xlink="http://www.w3.org/1999/xlink">
<g id="graph0" class="graph" transform="scale(1 1) rotate(0) translate(4 133)">
<title>TSet.h</title>
<!-- Node1 -->
<g id="Node000001" class="node"><title>Node1</title>
<g id="a_Node000001"><a xlink:title="Definice typu Set &#45; (realizace množiny pomocí nesetříděného flexibilního dynamicky alokovaného pole)">
<polygon fill="#999999" stroke="#666666" points="96,-129 51,-129 51,-110 96,-110 96,-129"/>
<text text-anchor="middle" x="73.5" y="-117" font-family="Helvetica,sans-Serif" font-size="10.00">TSet.h</text>
</a>
</g>
</g>
<!-- Node2 -->
<g id="Node000002" class="node"><title>Node2</title>
<g id="a_Node000002"><a xlink:href="_t_set_8c.html" target="_top" xlink:title="Implementace API pro typ Set (realizace množiny pomocí nesetříděného flexibilního dynamicky alokované...">
<polygon fill="white" stroke="#666666" points="45,-74 0,-74 0,-55 45,-55 45,-74"/>
<text text-anchor="middle" x="22.5" y="-62" font-family="Helvetica,sans-Serif" font-size="10.00">TSet.c</text>
</a>
</g>
</g>
<!-- Node1&#45;&gt;Node2 -->
<g id="edge1_Node000001_Node000002" class="edge"><title>Node1&#45;&gt;Node2</title>
<g id="a_edge1_Node000001_Node000002"><a xlink:title=" ">
<path fill="none" stroke="#63b8ff" d="M58.1221,-102.519C49.1331,-93.1775 38.1408,-81.7541 30.7649,-74.089"/>
<polygon fill="#63b8ff" stroke="#63b8ff" points="55.6225,-104.969 65.0784,-109.748 60.6666,-100.116 55.6225,-104.969"/>
</a>
</g>
</g>
<!-- Node3 -->
<g id="Node000003" class="node"><title>Node3</title>
<g id="a_Node000003"><a xlink:href="main_8c.html" target="_top" xlink:title="Hlavní program pro testování ADT TSet.">
<polygon fill="white" stroke="#666666" points="96.5,-19 50.5,-19 50.5,-0 96.5,-0 96.5,-19"/>
<text text-anchor="middle" x="73.5" y="-7" font-family="Helvetica,sans-Serif" font-size="10.00">main.c</text>
</a>
</g>
</g>
<!-- Node1&#45;&gt;Node3 -->
<g id="edge2_Node000001_Node000003" class="edge"><title>Node1&#45;&gt;Node3</title>
<g id="a_edge2_Node000001_Node000003"><a xlink:title=" ">
<path fill="none" stroke="#63b8ff" d="M73.5,-99.4835C73.5,-75.8433 73.5,-36.498 73.5,-19.1584"/>
<polygon fill="#63b8ff" stroke="#63b8ff" points="70.0001,-99.6619 73.5,-109.662 77.0001,-99.6619 70.0001,-99.6619"/>
</a>
</g>
</g>
<!-- Node4 -->
<g id="Node000004" class="node"><title>Node4</title>
<g id="a_Node000004"><a xlink:href="testbench_8h.html" target="_top" xlink:title="Definice testbench API pro testování operací zvoleného ADT.">
<polygon fill="white" stroke="#666666" points="169.5,-74 101.5,-74 101.5,-55 169.5,-55 169.5,-74"/>
<text text-anchor="middle" x="135.5" y="-62" font-family="Helvetica,sans-Serif" font-size="10.00">testbench.h</text>
</a>
</g>
</g>
<!-- Node1&#45;&gt;Node4 -->
<g id="edge3_Node000001_Node000004" class="edge"><title>Node1&#45;&gt;Node4</title>
<g id="a_edge3_Node000001_Node000004"><a xlink:title=" ">
<path fill="none" stroke="#63b8ff" d="M91.2536,-103.324C102.308,-93.8734 116.131,-82.057 125.357,-74.1703"/>
<polygon fill="#63b8ff" stroke="#63b8ff" points="88.7884,-100.826 83.4614,-109.985 93.3369,-106.147 88.7884,-100.826"/>
</a>
</g>
</g>
<!-- Node4&#45;&gt;Node3 -->
<g id="edge4_Node000004_Node000003" class="edge"><title>Node4&#45;&gt;Node3</title>
<g id="a_edge4_Node000004_Node000003"><a xlink:title=" ">
<path fill="none" stroke="#63b8ff" d="M117.746,-48.3236C106.692,-38.8734 92.8685,-27.057 83.6426,-19.1703"/>
<polygon fill="#63b8ff" stroke="#63b8ff" points="115.663,-51.1472 125.539,-54.9846 120.212,-45.8264 115.663,-51.1472"/>
</a>
</g>
</g>
<!-- Node5 -->
<g id="Node000005" class="node"><title>Node5</title>
<g id="a_Node000005"><a xlink:href="testbench_8c.html" target="_top" xlink:title="Implementace testbench API pro testování operací zvoleného ADT.">
<polygon fill="white" stroke="#666666" points="182.5,-19 114.5,-19 114.5,-0 182.5,-0 182.5,-19"/>
<text text-anchor="middle" x="148.5" y="-7" font-family="Helvetica,sans-Serif" font-size="10.00">testbench.c</text>
</a>
</g>
</g>
<!-- Node4&#45;&gt;Node5 -->
<g id="edge5_Node000004_Node000005" class="edge"><title>Node4&#45;&gt;Node5</title>
<g id="a_edge5_Node000004_Node000005"><a xlink:title=" ">
<path fill="none" stroke="#63b8ff" d="M140.05,-44.9505C142.208,-36.1517 144.682,-26.0643 146.393,-19.089"/>
<polygon fill="#63b8ff" stroke="#63b8ff" points="136.63,-44.2022 137.647,-54.7481 143.428,-45.8698 136.63,-44.2022"/>
</a>
</g>
</g>
</g>
</svg>
