<?xml version="1.0" encoding="UTF-8" standalone="no"?>
<!DOCTYPE svg PUBLIC "-//W3C//DTD SVG 1.1//EN"
 "http://www.w3.org/Graphics/SVG/1.1/DTD/svg11.dtd">
<!-- Generated by graphviz version 2.38.0 (20140413.2041)
 -->
<!-- Title: TSet.h Pages: 1 -->
<svg width="334pt" height="192pt"
 viewBox="0.00 0.00 333.50 192.00" xmlns="http://www.w3.org/2000/svg" xmlns:xlink="http://www.w3.org/1999/xlink">
<g id="graph0" class="graph" transform="scale(1 1) rotate(0) translate(4 188)">
<title>TSet.h</title>
<!-- Node1 -->
<g id="Node000001" class="node"><title>Node1</title>
<g id="a_Node000001"><a xlink:title="Definice typu Set &#45; (realizace množiny pomocí nesetříděného flexibilního dynamicky alokovaného pole)">
<polygon fill="#999999" stroke="#666666" points="120.5,-184 75.5,-184 75.5,-165 120.5,-165 120.5,-184"/>
<text text-anchor="middle" x="98" y="-172" font-family="Helvetica,sans-Serif" font-size="10.00">TSet.h</text>
</a>
</g>
</g>
<!-- Node2 -->
<g id="Node000002" class="node"><title>Node2</title>
<g id="a_Node000002"><a xlink:title=" ">
<polygon fill="#e0e0e0" stroke="#999999" points="56,-19 3.55271e-015,-19 3.55271e-015,-0 56,-0 56,-19"/>
<text text-anchor="middle" x="28" y="-7" font-family="Helvetica,sans-Serif" font-size="10.00">stdbool.h</text>
</a>
</g>
</g>
<!-- Node1&#45;&gt;Node2 -->
<g id="edge1_Node000001_Node000002" class="edge"><title>Node1&#45;&gt;Node2</title>
<g id="a_edge1_Node000001_Node000002"><a xlink:title=" ">
<path fill="none" stroke="#63b8ff" d="M88.4678,-164.796C71.7559,-148.789 37.8211,-112.75 26,-74 21.5693,-59.4759 22.4825,-42.2086 24.2733,-29.3492"/>
<polygon fill="#63b8ff" stroke="#63b8ff" points="27.7456,-29.8062 25.9607,-19.3628 20.8434,-28.6399 27.7456,-29.8062"/>
</a>
</g>
</g>
<!-- Node3 -->
<g id="Node000003" class="node"><title>Node3</title>
<g id="a_Node000003"><a xlink:title=" ">
<polygon fill="#e0e0e0" stroke="#999999" points="86.5,-74 35.5,-74 35.5,-55 86.5,-55 86.5,-74"/>
<text text-anchor="middle" x="61" y="-62" font-family="Helvetica,sans-Serif" font-size="10.00">stddef.h</text>
</a>
</g>
</g>
<!-- Node1&#45;&gt;Node3 -->
<g id="edge2_Node000001_Node000003" class="edge"><title>Node1&#45;&gt;Node3</title>
<g id="a_edge2_Node000001_Node000003"><a xlink:title=" ">
<path fill="none" stroke="#63b8ff" d="M91.6187,-164.767C85.617,-156.118 76.8497,-142.28 72,-129 66.716,-114.531 63.934,-97.2598 62.4911,-84.3846"/>
<polygon fill="#63b8ff" stroke="#63b8ff" points="65.971,-84.0058 61.5386,-74.3827 59.0025,-84.6695 65.971,-84.0058"/>
</a>
</g>
</g>
<!-- Node4 -->
<g id="Node000004" class="node"><title>Node4</title>
<g id="a_Node000004"><a xlink:href="_t_set_unsorted_flex_array_8h.html" target="_top" xlink:title="Deklarace typu SetUnsortedFlexArray a jeho API pro realizaci množiny pomocí nesetříděného flexibilníh...">
<polygon fill="white" stroke="#666666" points="207,-129 81,-129 81,-110 207,-110 207,-129"/>
<text text-anchor="middle" x="144" y="-117" font-family="Helvetica,sans-Serif" font-size="10.00">TSetUnsortedFlexArray.h</text>
</a>
</g>
</g>
<!-- Node1&#45;&gt;Node4 -->
<g id="edge3_Node000001_Node000004" class="edge"><title>Node1&#45;&gt;Node4</title>
<g id="a_edge3_Node000001_Node000004"><a xlink:title=" ">
<path fill="none" stroke="#63b8ff" d="M105.596,-164.748C112.161,-157.185 121.823,-146.051 129.814,-136.845"/>
<polygon fill="#63b8ff" stroke="#63b8ff" points="132.634,-138.935 136.545,-129.089 127.347,-134.347 132.634,-138.935"/>
</a>
</g>
</g>
<!-- Node9 -->
<g id="Node000009" class="node"><title>Node9</title>
<g id="a_Node000009"><a xlink:title=" ">
<polygon fill="#e0e0e0" stroke="#999999" points="325.5,-19 274.5,-19 274.5,-0 325.5,-0 325.5,-19"/>
<text text-anchor="middle" x="300" y="-7" font-family="Helvetica,sans-Serif" font-size="10.00">check.h</text>
</a>
</g>
</g>
<!-- Node1&#45;&gt;Node9 -->
<g id="edge12_Node000001_Node000009" class="edge"><title>Node1&#45;&gt;Node9</title>
<g id="a_edge12_Node000001_Node000009"><a xlink:title=" ">
<path fill="none" stroke="#63b8ff" d="M120.831,-169.102C146.155,-163.326 187.23,-151.209 216,-129 251.791,-101.372 278.652,-54.3163 291.535,-28.5987"/>
<polygon fill="#63b8ff" stroke="#63b8ff" points="294.835,-29.8154 296.051,-19.2906 288.537,-26.76 294.835,-29.8154"/>
</a>
</g>
</g>
<!-- Node4&#45;&gt;Node2 -->
<g id="edge4_Node000004_Node000002" class="edge"><title>Node4&#45;&gt;Node2</title>
<g id="a_edge4_Node000004_Node000002"><a xlink:title=" ">
<path fill="none" stroke="#63b8ff" d="M138.733,-109.98C130.487,-97.0813 113.545,-72.2737 95,-55 82.2149,-43.0911 65.9217,-32.1928 52.6041,-24.1621"/>
<polygon fill="#63b8ff" stroke="#63b8ff" points="54.3364,-21.1206 43.9392,-19.0834 50.7966,-27.1597 54.3364,-21.1206"/>
</a>
</g>
</g>
<!-- Node4&#45;&gt;Node3 -->
<g id="edge5_Node000004_Node000003" class="edge"><title>Node4&#45;&gt;Node3</title>
<g id="a_edge5_Node000004_Node000003"><a xlink:title=" ">
<path fill="none" stroke="#63b8ff" d="M130.665,-109.985C117.914,-101.843 98.447,-89.4119 83.3297,-79.7587"/>
<polygon fill="#63b8ff" stroke="#63b8ff" points="84.89,-76.6024 74.578,-74.1703 81.1226,-82.5021 84.89,-76.6024"/>
</a>
</g>
</g>
<!-- Node5 -->
<g id="Node000005" class="node"><title>Node5</title>
<g id="a_Node000005"><a xlink:href="_t_set_element_8h.html" target="_top" xlink:title="Definice typu Basic SetElement a implementace API.">
<polygon fill="white" stroke="#666666" points="224.5,-74 143.5,-74 143.5,-55 224.5,-55 224.5,-74"/>
<text text-anchor="middle" x="184" y="-62" font-family="Helvetica,sans-Serif" font-size="10.00">TSetElement.h</text>
</a>
</g>
</g>
<!-- Node4&#45;&gt;Node5 -->
<g id="edge6_Node000004_Node000005" class="edge"><title>Node4&#45;&gt;Node5</title>
<g id="a_edge6_Node000004_Node000005"><a xlink:title=" ">
<path fill="none" stroke="#63b8ff" d="M150.605,-109.748C156.255,-102.262 164.545,-91.2781 171.451,-82.1271"/>
<polygon fill="#63b8ff" stroke="#63b8ff" points="174.287,-84.1794 177.518,-74.089 168.7,-79.9625 174.287,-84.1794"/>
</a>
</g>
</g>
<!-- Node5&#45;&gt;Node2 -->
<g id="edge9_Node000005_Node000002" class="edge"><title>Node5&#45;&gt;Node2</title>
<g id="a_edge9_Node000005_Node000002"><a xlink:title=" ">
<path fill="none" stroke="#63b8ff" d="M158.936,-54.9846C132.972,-46.1636 92.1913,-32.3086 63.0424,-22.4054"/>
<polygon fill="#63b8ff" stroke="#63b8ff" points="63.8549,-18.9851 53.2605,-19.0821 61.6031,-25.613 63.8549,-18.9851"/>
</a>
</g>
</g>
<!-- Node6 -->
<g id="Node000006" class="node"><title>Node6</title>
<g id="a_Node000006"><a xlink:title=" ">
<polygon fill="#e0e0e0" stroke="#999999" points="120,-19 74,-19 74,-0 120,-0 120,-19"/>
<text text-anchor="middle" x="97" y="-7" font-family="Helvetica,sans-Serif" font-size="10.00">stdio.h</text>
</a>
</g>
</g>
<!-- Node5&#45;&gt;Node6 -->
<g id="edge7_Node000005_Node000006" class="edge"><title>Node5&#45;&gt;Node6</title>
<g id="a_edge7_Node000005_Node000006"><a xlink:title=" ">
<path fill="none" stroke="#63b8ff" d="M170.022,-54.9846C156.531,-46.7658 135.866,-34.177 119.959,-24.4863"/>
<polygon fill="#63b8ff" stroke="#63b8ff" points="121.593,-21.3839 111.232,-19.1703 117.952,-27.362 121.593,-21.3839"/>
</a>
</g>
</g>
<!-- Node7 -->
<g id="Node000007" class="node"><title>Node7</title>
<g id="a_Node000007"><a xlink:title=" ">
<polygon fill="#e0e0e0" stroke="#999999" points="186,-19 138,-19 138,-0 186,-0 186,-19"/>
<text text-anchor="middle" x="162" y="-7" font-family="Helvetica,sans-Serif" font-size="10.00">stdlib.h</text>
</a>
</g>
</g>
<!-- Node5&#45;&gt;Node7 -->
<g id="edge8_Node000005_Node000007" class="edge"><title>Node5&#45;&gt;Node7</title>
<g id="a_edge8_Node000005_Node000007"><a xlink:title=" ">
<path fill="none" stroke="#63b8ff" d="M180.367,-54.7481C177.42,-47.6477 173.167,-37.4011 169.495,-28.5561"/>
<polygon fill="#63b8ff" stroke="#63b8ff" points="172.632,-26.9831 165.565,-19.089 166.167,-29.6668 172.632,-26.9831"/>
</a>
</g>
</g>
<!-- Node8 -->
<g id="Node000008" class="node"><title>Node8</title>
<g id="a_Node000008"><a xlink:title=" ">
<polygon fill="#e0e0e0" stroke="#999999" points="256,-19 204,-19 204,-0 256,-0 256,-19"/>
<text text-anchor="middle" x="230" y="-7" font-family="Helvetica,sans-Serif" font-size="10.00">assert.h</text>
</a>
</g>
</g>
<!-- Node5&#45;&gt;Node8 -->
<g id="edge10_Node000005_Node000008" class="edge"><title>Node5&#45;&gt;Node8</title>
<g id="a_edge10_Node000005_Node000008"><a xlink:title=" ">
<path fill="none" stroke="#63b8ff" d="M191.596,-54.7481C198.161,-47.1846 207.823,-36.0512 215.814,-26.8447"/>
<polygon fill="#63b8ff" stroke="#63b8ff" points="218.634,-28.9354 222.545,-19.089 213.347,-24.3471 218.634,-28.9354"/>
</a>
</g>
</g>
<!-- Node5&#45;&gt;Node9 -->
<g id="edge11_Node000005_Node000009" class="edge"><title>Node5&#45;&gt;Node9</title>
<g id="a_edge11_Node000005_Node000009"><a xlink:title=" ">
<path fill="none" stroke="#63b8ff" d="M202.637,-54.9846C221.298,-46.4586 250.252,-33.2297 271.74,-23.412"/>
<polygon fill="#63b8ff" stroke="#63b8ff" points="273.382,-26.5096 281.023,-19.1703 270.473,-20.1426 273.382,-26.5096"/>
</a>
</g>
</g>
</g>
</svg>
