<?xml version="1.0" encoding="UTF-8" standalone="no"?>
<!DOCTYPE svg PUBLIC "-//W3C//DTD SVG 1.1//EN"
 "http://www.w3.org/Graphics/SVG/1.1/DTD/svg11.dtd">
<!-- Generated by graphviz version 2.38.0 (20140413.2041)
 -->
<!-- Title: set_destroy Pages: 1 -->
<svg width="288pt" height="46pt"
 viewBox="0.00 0.00 288.00 46.00" xmlns="http://www.w3.org/2000/svg" xmlns:xlink="http://www.w3.org/1999/xlink">
<g id="graph0" class="graph" transform="scale(1 1) rotate(0) translate(4 42)">
<title>set_destroy</title>
<!-- Node1 -->
<g id="Node000001" class="node"><title>Node1</title>
<g id="a_Node000001"><a xlink:title="Deinicializace množiny.">
<polygon fill="#999999" stroke="#666666" points="280,-38 212,-38 212,-19 280,-19 280,-38"/>
<text text-anchor="middle" x="246" y="-26" font-family="Helvetica,sans-Serif" font-size="10.00">set_destroy</text>
</a>
</g>
</g>
<!-- Node2 -->
<g id="Node000002" class="node"><title>Node2</title>
<g id="a_Node000002"><a xlink:href="group___main_program.html#ga0ddf1224851353fc92bfbff6f499fa97" target="_top" xlink:title=" ">
<polygon fill="white" stroke="#666666" points="38,-38 0,-38 0,-19 38,-19 38,-38"/>
<text text-anchor="middle" x="19" y="-26" font-family="Helvetica,sans-Serif" font-size="10.00">main</text>
</a>
</g>
</g>
<!-- Node1&#45;&gt;Node2 -->
<g id="edge1_Node000001_Node000002" class="edge"><title>Node1&#45;&gt;Node2</title>
<g id="a_edge1_Node000001_Node000002"><a xlink:title=" ">
<path fill="none" stroke="#63b8ff" d="M201.71,-28.5C152.22,-28.5 73.5082,-28.5 38.1924,-28.5"/>
<polygon fill="#63b8ff" stroke="#63b8ff" points="201.801,-32.0001 211.8,-28.5 201.8,-25.0001 201.801,-32.0001"/>
</a>
</g>
</g>
<!-- Node3 -->
<g id="Node000003" class="node"><title>Node3</title>
<g id="a_Node000003"><a xlink:href="group___main_program.html#ga66149067fad48c8944eb15c52e63a990" target="_top" xlink:title=" ">
<polygon fill="white" stroke="#666666" points="176,-19 74,-19 74,-0 176,-0 176,-19"/>
<text text-anchor="middle" x="125" y="-7" font-family="Helvetica,sans-Serif" font-size="10.00">testset2_hardcoded</text>
</a>
</g>
</g>
<!-- Node1&#45;&gt;Node3 -->
<g id="edge2_Node000001_Node000003" class="edge"><title>Node1&#45;&gt;Node3</title>
<g id="a_edge2_Node000001_Node000003"><a xlink:title=" ">
<path fill="none" stroke="#63b8ff" d="M201.706,-21.5876C193.465,-20.2718 184.775,-18.8843 176.337,-17.5371"/>
<polygon fill="#63b8ff" stroke="#63b8ff" points="201.425,-25.0869 211.852,-23.2074 202.529,-18.1745 201.425,-25.0869"/>
</a>
</g>
</g>
<!-- Node3&#45;&gt;Node2 -->
<g id="edge3_Node000003_Node000002" class="edge"><title>Node3&#45;&gt;Node2</title>
<g id="a_edge3_Node000003_Node000002"><a xlink:title=" ">
<path fill="none" stroke="#63b8ff" d="M63.754,-20.5065C54.5462,-22.1887 45.6924,-23.8062 38.3873,-25.1408"/>
<polygon fill="#63b8ff" stroke="#63b8ff" points="64.6196,-23.9063 73.8278,-18.6661 63.3616,-17.0203 64.6196,-23.9063"/>
</a>
</g>
</g>
</g>
</svg>
