<?xml version="1.0" encoding="UTF-8" standalone="no"?>
<!DOCTYPE svg PUBLIC "-//W3C//DTD SVG 1.1//EN"
 "http://www.w3.org/Graphics/SVG/1.1/DTD/svg11.dtd">
<!-- Generated by graphviz version 2.38.0 (20140413.2041)
 -->
<!-- Title: set_for_each Pages: 1 -->
<svg width="548pt" height="103pt"
 viewBox="0.00 0.00 548.00 103.00" xmlns="http://www.w3.org/2000/svg" xmlns:xlink="http://www.w3.org/1999/xlink">
<g id="graph0" class="graph" transform="scale(1 1) rotate(0) translate(4 99)">
<title>set_for_each</title>
<!-- Node1 -->
<g id="Node000001" class="node"><title>Node1</title>
<g id="a_Node000001"><a xlink:title="Zavolání zvolené funkce na každý element množiny od pozice určené iterátorem až do posledního element...">
<polygon fill="#999999" stroke="#666666" points="72,-76 0,-76 0,-57 72,-57 72,-76"/>
<text text-anchor="middle" x="36" y="-64" font-family="Helvetica,sans-Serif" font-size="10.00">set_for_each</text>
</a>
</g>
</g>
<!-- Node2 -->
<g id="Node000002" class="node"><title>Node2</title>
<g id="a_Node000002"><a xlink:href="group___t_set_iterator.html#ga089f24c81ac3da7d1ac7ca24cc078dd8" target="_top" xlink:title="Zjištění platnosti iterátoru.">
<polygon fill="white" stroke="#666666" points="359,-95 257,-95 257,-76 359,-76 359,-95"/>
<text text-anchor="middle" x="308" y="-83" font-family="Helvetica,sans-Serif" font-size="10.00">set_iterator_is_valid</text>
</a>
</g>
</g>
<!-- Node1&#45;&gt;Node2 -->
<g id="edge1_Node000001_Node000002" class="edge"><title>Node1&#45;&gt;Node2</title>
<g id="a_edge1_Node000001_Node000002"><a xlink:title=" ">
<path fill="none" stroke="#63b8ff" d="M72.021,-68.9644C116.257,-72.0773 193.075,-77.483 246.799,-81.2636"/>
<polygon fill="#63b8ff" stroke="#63b8ff" points="246.663,-84.7626 256.884,-81.9733 247.154,-77.7799 246.663,-84.7626"/>
</a>
</g>
</g>
<!-- Node4 -->
<g id="Node000004" class="node"><title>Node4</title>
<g id="a_Node000004"><a xlink:href="group___t_set_iterator.html#ga6723a05c864198597ff49718020bd0d6" target="_top" xlink:title="Posunutí iterátoru vpřed.">
<polygon fill="white" stroke="#666666" points="211,-57 108,-57 108,-38 211,-38 211,-57"/>
<text text-anchor="middle" x="159.5" y="-45" font-family="Helvetica,sans-Serif" font-size="10.00">set_iterator_to_next</text>
</a>
</g>
</g>
<!-- Node1&#45;&gt;Node4 -->
<g id="edge3_Node000001_Node000004" class="edge"><title>Node1&#45;&gt;Node4</title>
<g id="a_edge3_Node000001_Node000004"><a xlink:title=" ">
<path fill="none" stroke="#63b8ff" d="M72.1428,-61.0044C80.1019,-59.7598 88.7787,-58.4029 97.4633,-57.0448"/>
<polygon fill="#63b8ff" stroke="#63b8ff" points="98.2802,-60.4597 107.619,-55.4566 97.1986,-53.5438 98.2802,-60.4597"/>
</a>
</g>
</g>
<!-- Node3 -->
<g id="Node000003" class="node"><title>Node3</title>
<g id="a_Node000003"><a xlink:href="group___t_set_unsorted_flex_array.html#gad3346f67be35632c3b0fbd9ea616a0c1" target="_top" xlink:title="Zjištění platnosti pozice ve flexibilním poli.">
<polygon fill="white" stroke="#666666" points="540,-76 405,-76 405,-57 540,-57 540,-76"/>
<text text-anchor="middle" x="472.5" y="-64" font-family="Helvetica,sans-Serif" font-size="10.00">set_flex_array_is_valid_pos</text>
</a>
</g>
</g>
<!-- Node2&#45;&gt;Node3 -->
<g id="edge2_Node000002_Node000003" class="edge"><title>Node2&#45;&gt;Node3</title>
<g id="a_edge2_Node000002_Node000003"><a xlink:title=" ">
<path fill="none" stroke="#63b8ff" d="M359.081,-79.6443C370.374,-78.324 382.613,-76.8929 394.72,-75.4774"/>
<polygon fill="#63b8ff" stroke="#63b8ff" points="395.309,-78.9325 404.834,-74.2947 394.496,-71.9798 395.309,-78.9325"/>
</a>
</g>
</g>
<!-- Node4&#45;&gt;Node2 -->
<g id="edge6_Node000004_Node000002" class="edge"><title>Node4&#45;&gt;Node2</title>
<g id="a_edge6_Node000004_Node000002"><a xlink:title=" ">
<path fill="none" stroke="#63b8ff" d="M197.468,-57.089C216.626,-62.0583 240.214,-68.1767 260.588,-73.4613"/>
<polygon fill="#63b8ff" stroke="#63b8ff" points="259.739,-76.857 270.298,-75.9799 261.497,-70.0812 259.739,-76.857"/>
</a>
</g>
</g>
<!-- Node4&#45;&gt;Node3 -->
<g id="edge4_Node000004_Node000003" class="edge"><title>Node4&#45;&gt;Node3</title>
<g id="a_edge4_Node000004_Node000003"><a xlink:title=" ">
<path fill="none" stroke="#63b8ff" d="M211.16,-50.595C260.926,-53.6354 337.511,-58.3142 394.752,-61.8112"/>
<polygon fill="#63b8ff" stroke="#63b8ff" points="394.648,-65.3113 404.843,-62.4277 395.075,-58.3243 394.648,-65.3113"/>
</a>
</g>
</g>
<!-- Node5 -->
<g id="Node000005" class="node"><title>Node5</title>
<g id="a_Node000005"><a xlink:href="group___t_set_unsorted_flex_array.html#ga8bc0de187146b066ae844c2278b6e198" target="_top" xlink:title="Výpočet následující platné pozice ve flexibilním poli.">
<polygon fill="white" stroke="#666666" points="369,-19 247,-19 247,-0 369,-0 369,-19"/>
<text text-anchor="middle" x="308" y="-7" font-family="Helvetica,sans-Serif" font-size="10.00">set_flex_array_next_pos</text>
</a>
</g>
</g>
<!-- Node4&#45;&gt;Node5 -->
<g id="edge5_Node000004_Node000005" class="edge"><title>Node4&#45;&gt;Node5</title>
<g id="a_edge5_Node000004_Node000005"><a xlink:title=" ">
<path fill="none" stroke="#63b8ff" d="M197.468,-37.911C216.626,-32.9417 240.214,-26.8233 260.588,-21.5387"/>
<polygon fill="#63b8ff" stroke="#63b8ff" points="261.497,-24.9188 270.298,-19.0201 259.739,-18.143 261.497,-24.9188"/>
</a>
</g>
</g>
</g>
</svg>
