<?xml version="1.0" encoding="UTF-8" standalone="no"?>
<!DOCTYPE svg PUBLIC "-//W3C//DTD SVG 1.1//EN"
 "http://www.w3.org/Graphics/SVG/1.1/DTD/svg11.dtd">
<!-- Generated by graphviz version 2.38.0 (20140413.2041)
 -->
<!-- Title: set_find_if_not Pages: 1 -->
<svg width="555pt" height="103pt"
 viewBox="0.00 0.00 555.00 103.00" xmlns="http://www.w3.org/2000/svg" xmlns:xlink="http://www.w3.org/1999/xlink">
<g id="graph0" class="graph" transform="scale(1 1) rotate(0) translate(4 99)">
<title>set_find_if_not</title>
<!-- Node1 -->
<g id="Node000001" class="node"><title>Node1</title>
<g id="a_Node000001"><a xlink:title="Vyhledání prvního elementu množiny nesplňujícího zadaný predikát.">
<polygon fill="#999999" stroke="#666666" points="79,-76 0,-76 0,-57 79,-57 79,-76"/>
<text text-anchor="middle" x="39.5" y="-64" font-family="Helvetica,sans-Serif" font-size="10.00">set_find_if_not</text>
</a>
</g>
</g>
<!-- Node2 -->
<g id="Node000002" class="node"><title>Node2</title>
<g id="a_Node000002"><a xlink:href="group___t_set_iterator.html#ga089f24c81ac3da7d1ac7ca24cc078dd8" target="_top" xlink:title="Zjištění platnosti iterátoru.">
<polygon fill="white" stroke="#666666" points="366,-95 264,-95 264,-76 366,-76 366,-95"/>
<text text-anchor="middle" x="315" y="-83" font-family="Helvetica,sans-Serif" font-size="10.00">set_iterator_is_valid</text>
</a>
</g>
</g>
<!-- Node1&#45;&gt;Node2 -->
<g id="edge1_Node000001_Node000002" class="edge"><title>Node1&#45;&gt;Node2</title>
<g id="a_edge1_Node000001_Node000002"><a xlink:title=" ">
<path fill="none" stroke="#63b8ff" d="M79.1058,-69.1819C124.617,-72.3436 200.781,-77.6347 254.003,-81.3321"/>
<polygon fill="#63b8ff" stroke="#63b8ff" points="253.775,-84.8245 263.994,-82.0261 254.26,-77.8414 253.775,-84.8245"/>
</a>
</g>
</g>
<!-- Node4 -->
<g id="Node000004" class="node"><title>Node4</title>
<g id="a_Node000004"><a xlink:href="group___t_set_iterator.html#ga6723a05c864198597ff49718020bd0d6" target="_top" xlink:title="Posunutí iterátoru vpřed.">
<polygon fill="white" stroke="#666666" points="218,-57 115,-57 115,-38 218,-38 218,-57"/>
<text text-anchor="middle" x="166.5" y="-45" font-family="Helvetica,sans-Serif" font-size="10.00">set_iterator_to_next</text>
</a>
</g>
</g>
<!-- Node1&#45;&gt;Node4 -->
<g id="edge3_Node000001_Node000004" class="edge"><title>Node1&#45;&gt;Node4</title>
<g id="a_edge3_Node000001_Node000004"><a xlink:title=" ">
<path fill="none" stroke="#63b8ff" d="M79.0241,-60.6443C87.259,-59.3926 96.1484,-58.0414 104.985,-56.6983"/>
<polygon fill="#63b8ff" stroke="#63b8ff" points="105.541,-60.1541 114.901,-55.191 104.489,-53.2336 105.541,-60.1541"/>
</a>
</g>
</g>
<!-- Node3 -->
<g id="Node000003" class="node"><title>Node3</title>
<g id="a_Node000003"><a xlink:href="group___t_set_unsorted_flex_array.html#gad3346f67be35632c3b0fbd9ea616a0c1" target="_top" xlink:title="Zjištění platnosti pozice ve flexibilním poli.">
<polygon fill="white" stroke="#666666" points="547,-76 412,-76 412,-57 547,-57 547,-76"/>
<text text-anchor="middle" x="479.5" y="-64" font-family="Helvetica,sans-Serif" font-size="10.00">set_flex_array_is_valid_pos</text>
</a>
</g>
</g>
<!-- Node2&#45;&gt;Node3 -->
<g id="edge2_Node000002_Node000003" class="edge"><title>Node2&#45;&gt;Node3</title>
<g id="a_edge2_Node000002_Node000003"><a xlink:title=" ">
<path fill="none" stroke="#63b8ff" d="M366.081,-79.6443C377.374,-78.324 389.613,-76.8929 401.72,-75.4774"/>
<polygon fill="#63b8ff" stroke="#63b8ff" points="402.309,-78.9325 411.834,-74.2947 401.496,-71.9798 402.309,-78.9325"/>
</a>
</g>
</g>
<!-- Node4&#45;&gt;Node2 -->
<g id="edge6_Node000004_Node000002" class="edge"><title>Node4&#45;&gt;Node2</title>
<g id="a_edge6_Node000004_Node000002"><a xlink:title=" ">
<path fill="none" stroke="#63b8ff" d="M204.468,-57.089C223.626,-62.0583 247.214,-68.1767 267.588,-73.4613"/>
<polygon fill="#63b8ff" stroke="#63b8ff" points="266.739,-76.857 277.298,-75.9799 268.497,-70.0812 266.739,-76.857"/>
</a>
</g>
</g>
<!-- Node4&#45;&gt;Node3 -->
<g id="edge4_Node000004_Node000003" class="edge"><title>Node4&#45;&gt;Node3</title>
<g id="a_edge4_Node000004_Node000003"><a xlink:title=" ">
<path fill="none" stroke="#63b8ff" d="M218.16,-50.595C267.926,-53.6354 344.511,-58.3142 401.752,-61.8112"/>
<polygon fill="#63b8ff" stroke="#63b8ff" points="401.648,-65.3113 411.843,-62.4277 402.075,-58.3243 401.648,-65.3113"/>
</a>
</g>
</g>
<!-- Node5 -->
<g id="Node000005" class="node"><title>Node5</title>
<g id="a_Node000005"><a xlink:href="group___t_set_unsorted_flex_array.html#ga8bc0de187146b066ae844c2278b6e198" target="_top" xlink:title="Výpočet následující platné pozice ve flexibilním poli.">
<polygon fill="white" stroke="#666666" points="376,-19 254,-19 254,-0 376,-0 376,-19"/>
<text text-anchor="middle" x="315" y="-7" font-family="Helvetica,sans-Serif" font-size="10.00">set_flex_array_next_pos</text>
</a>
</g>
</g>
<!-- Node4&#45;&gt;Node5 -->
<g id="edge5_Node000004_Node000005" class="edge"><title>Node4&#45;&gt;Node5</title>
<g id="a_edge5_Node000004_Node000005"><a xlink:title=" ">
<path fill="none" stroke="#63b8ff" d="M204.468,-37.911C223.626,-32.9417 247.214,-26.8233 267.588,-21.5387"/>
<polygon fill="#63b8ff" stroke="#63b8ff" points="268.497,-24.9188 277.298,-19.0201 266.739,-18.143 268.497,-24.9188"/>
</a>
</g>
</g>
</g>
</svg>
