<?xml version="1.0" encoding="UTF-8" standalone="no"?>
<!DOCTYPE svg PUBLIC "-//W3C//DTD SVG 1.1//EN"
 "http://www.w3.org/Graphics/SVG/1.1/DTD/svg11.dtd">
<!-- Generated by graphviz version 2.38.0 (20140413.2041)
 -->
<!-- Title: testset2_hardcoded Pages: 1 -->
<svg width="751pt" height="439pt"
 viewBox="0.00 0.00 751.00 439.00" xmlns="http://www.w3.org/2000/svg" xmlns:xlink="http://www.w3.org/1999/xlink">
<g id="graph0" class="graph" transform="scale(1 1) rotate(0) translate(4 435)">
<title>testset2_hardcoded</title>
<!-- Node1 -->
<g id="Node000001" class="node"><title>Node1</title>
<g id="a_Node000001"><a xlink:title=" ">
<polygon fill="#999999" stroke="#666666" points="102,-222 0,-222 0,-203 102,-203 102,-222"/>
<text text-anchor="middle" x="51" y="-210" font-family="Helvetica,sans-Serif" font-size="10.00">testset2_hardcoded</text>
</a>
</g>
</g>
<!-- Node2 -->
<g id="Node000002" class="node"><title>Node2</title>
<g id="a_Node000002"><a xlink:href="testbench_8c.html#ae7a610c069c6000940838c6a1e11bb42" target="_top" xlink:title="Vytisknutí hodnoty v ADT pomocí iterátoru.">
<polygon fill="white" stroke="#666666" points="251,-431 138,-431 138,-412 251,-412 251,-431"/>
<text text-anchor="middle" x="194.5" y="-419" font-family="Helvetica,sans-Serif" font-size="10.00">print_value_by_iterator</text>
</a>
</g>
</g>
<!-- Node1&#45;&gt;Node2 -->
<g id="edge1_Node000001_Node000002" class="edge"><title>Node1&#45;&gt;Node2</title>
<g id="a_edge1_Node000001_Node000002"><a xlink:title=" ">
<path fill="none" stroke="#63b8ff" d="M53.9797,-222.375C60.5258,-252.625 84.193,-345.126 138,-397.5 141.949,-401.344 146.613,-404.621 151.532,-407.401"/>
<polygon fill="#63b8ff" stroke="#63b8ff" points="150.049,-410.573 160.562,-411.886 153.162,-404.303 150.049,-410.573"/>
</a>
</g>
</g>
<!-- Node4 -->
<g id="Node000004" class="node"><title>Node4</title>
<g id="a_Node000004"><a xlink:href="group___t_set_iterator.html#ga3928a980e2759ba130ce333e77f15fab" target="_top" xlink:title="Přečtení hodnoty elementu z množiny pomocí iterátoru.">
<polygon fill="white" stroke="#666666" points="396.5,-393 304.5,-393 304.5,-374 396.5,-374 396.5,-393"/>
<text text-anchor="middle" x="350.5" y="-381" font-family="Helvetica,sans-Serif" font-size="10.00">set_iterator_value</text>
</a>
</g>
</g>
<!-- Node1&#45;&gt;Node4 -->
<g id="edge33_Node000001_Node000004" class="edge"><title>Node1&#45;&gt;Node4</title>
<g id="a_edge33_Node000001_Node000004"><a xlink:title=" ">
<path fill="none" stroke="#63b8ff" d="M54.3955,-222.135C61.665,-249.139 86.2161,-325.778 138,-359.5 184.351,-389.684 248.804,-392.777 294.345,-390.139"/>
<polygon fill="#63b8ff" stroke="#63b8ff" points="294.601,-393.629 304.337,-389.451 294.12,-386.646 294.601,-393.629"/>
</a>
</g>
</g>
<!-- Node6 -->
<g id="Node000006" class="node"><title>Node6</title>
<g id="a_Node000006"><a xlink:href="group___t_set_iterator.html#ga089f24c81ac3da7d1ac7ca24cc078dd8" target="_top" xlink:title="Zjištění platnosti iterátoru.">
<polygon fill="white" stroke="#666666" points="562,-333 460,-333 460,-314 562,-314 562,-333"/>
<text text-anchor="middle" x="511" y="-321" font-family="Helvetica,sans-Serif" font-size="10.00">set_iterator_is_valid</text>
</a>
</g>
</g>
<!-- Node1&#45;&gt;Node6 -->
<g id="edge31_Node000001_Node000006" class="edge"><title>Node1&#45;&gt;Node6</title>
<g id="a_edge31_Node000001_Node000006"><a xlink:title=" ">
<path fill="none" stroke="#63b8ff" d="M55.805,-222.09C65.4813,-244.995 93.4609,-302.677 138,-325.5 245.922,-380.803 395.654,-353.905 467.805,-335.637"/>
<polygon fill="#63b8ff" stroke="#63b8ff" points="469.078,-338.923 477.873,-333.016 467.314,-332.149 469.078,-338.923"/>
</a>
</g>
</g>
<!-- Node8 -->
<g id="Node000008" class="node"><title>Node8</title>
<g id="a_Node000008"><a xlink:href="group___t_set.html#ga8094d1ab68434b8413cd905895ff37ae" target="_top" xlink:title="Deinicializace množiny.">
<polygon fill="white" stroke="#666666" points="228.5,-241 160.5,-241 160.5,-222 228.5,-222 228.5,-241"/>
<text text-anchor="middle" x="194.5" y="-229" font-family="Helvetica,sans-Serif" font-size="10.00">set_destroy</text>
</a>
</g>
</g>
<!-- Node1&#45;&gt;Node8 -->
<g id="edge7_Node000001_Node000008" class="edge"><title>Node1&#45;&gt;Node8</title>
<g id="a_edge7_Node000001_Node000008"><a xlink:title=" ">
<path fill="none" stroke="#63b8ff" d="M102.286,-219.252C117.905,-221.349 134.98,-223.642 150.089,-225.671"/>
<polygon fill="#63b8ff" stroke="#63b8ff" points="149.816,-229.166 160.193,-227.028 150.748,-222.228 149.816,-229.166"/>
</a>
</g>
</g>
<!-- Node10 -->
<g id="Node000010" class="node"><title>Node10</title>
<g id="a_Node000010"><a xlink:href="group___t_set.html#ga2a711b02282ff309c0d6a4fdcfbac738" target="_top" xlink:title="Odstranění elementu z množiny.">
<polygon fill="white" stroke="#666666" points="224,-93 165,-93 165,-74 224,-74 224,-93"/>
<text text-anchor="middle" x="194.5" y="-81" font-family="Helvetica,sans-Serif" font-size="10.00">set_erase</text>
</a>
</g>
</g>
<!-- Node1&#45;&gt;Node10 -->
<g id="edge9_Node000001_Node000010" class="edge"><title>Node1&#45;&gt;Node10</title>
<g id="a_edge9_Node000001_Node000010"><a xlink:title=" ">
<path fill="none" stroke="#63b8ff" d="M56.819,-202.914C68.0582,-181.515 98.1107,-129.535 138,-101.5 143.221,-97.8305 149.234,-94.8769 155.332,-92.5092"/>
<polygon fill="#63b8ff" stroke="#63b8ff" points="156.549,-95.7922 164.884,-89.252 154.289,-89.1668 156.549,-95.7922"/>
</a>
</g>
</g>
<!-- Node15 -->
<g id="Node000015" class="node"><title>Node15</title>
<g id="a_Node000015"><a xlink:href="group___iterator_algorithms.html#gab8ba369b42eda61d010f35df73be73db" target="_top" xlink:title="Zavolání zvolené funkce na každý element množiny od pozice určené iterátorem až do posledního element...">
<polygon fill="white" stroke="#666666" points="230.5,-317 158.5,-317 158.5,-298 230.5,-298 230.5,-317"/>
<text text-anchor="middle" x="194.5" y="-305" font-family="Helvetica,sans-Serif" font-size="10.00">set_for_each</text>
</a>
</g>
</g>
<!-- Node1&#45;&gt;Node15 -->
<g id="edge14_Node000001_Node000015" class="edge"><title>Node1&#45;&gt;Node15</title>
<g id="a_edge14_Node000001_Node000015"><a xlink:title=" ">
<path fill="none" stroke="#63b8ff" d="M61.6185,-222.016C76.818,-236.672 107.778,-265.006 138,-283.5 144.279,-287.342 151.283,-290.881 158.143,-293.993"/>
<polygon fill="#63b8ff" stroke="#63b8ff" points="156.759,-297.208 167.327,-297.962 159.535,-290.782 156.759,-297.208"/>
</a>
</g>
</g>
<!-- Node16 -->
<g id="Node000016" class="node"><title>Node16</title>
<g id="a_Node000016"><a xlink:href="group___t_set_iterator.html#ga6723a05c864198597ff49718020bd0d6" target="_top" xlink:title="Posunutí iterátoru vpřed.">
<polygon fill="white" stroke="#666666" points="402,-279 299,-279 299,-260 402,-260 402,-279"/>
<text text-anchor="middle" x="350.5" y="-267" font-family="Helvetica,sans-Serif" font-size="10.00">set_iterator_to_next</text>
</a>
</g>
</g>
<!-- Node1&#45;&gt;Node16 -->
<g id="edge32_Node000001_Node000016" class="edge"><title>Node1&#45;&gt;Node16</title>
<g id="a_edge32_Node000001_Node000016"><a xlink:title=" ">
<path fill="none" stroke="#63b8ff" d="M69.8704,-222.152C86.8729,-230.854 113.434,-243.22 138,-249.5 187.682,-262.201 245.784,-267.005 288.506,-268.744"/>
<polygon fill="#63b8ff" stroke="#63b8ff" points="288.627,-272.251 298.746,-269.114 288.88,-265.255 288.627,-272.251"/>
</a>
</g>
</g>
<!-- Node18 -->
<g id="Node000018" class="node"><title>Node18</title>
<g id="a_Node000018"><a xlink:href="group___t_set.html#ga674fb4a9d4cac982bca65b8b264b04b5" target="_top" xlink:title="Inicializace prázdné množiny.">
<polygon fill="white" stroke="#666666" points="218.5,-56 170.5,-56 170.5,-37 218.5,-37 218.5,-56"/>
<text text-anchor="middle" x="194.5" y="-44" font-family="Helvetica,sans-Serif" font-size="10.00">set_init</text>
</a>
</g>
</g>
<!-- Node1&#45;&gt;Node18 -->
<g id="edge20_Node000001_Node000018" class="edge"><title>Node1&#45;&gt;Node18</title>
<g id="a_edge20_Node000001_Node000018"><a xlink:title=" ">
<path fill="none" stroke="#63b8ff" d="M54.8633,-202.936C63.1884,-176.76 89.8981,-103.32 138,-64.5 144.485,-59.2666 152.533,-55.5379 160.47,-52.8873"/>
<polygon fill="#63b8ff" stroke="#63b8ff" points="161.681,-56.1816 170.339,-50.0743 159.762,-49.4498 161.681,-56.1816"/>
</a>
</g>
</g>
<!-- Node19 -->
<g id="Node000019" class="node"><title>Node19</title>
<g id="a_Node000019"><a xlink:href="group___t_set.html#ga0d1464cea78691ff9ad3dd1e32b55c60" target="_top" xlink:title="Vložení elementu do množiny.">
<polygon fill="white" stroke="#666666" points="224,-204 165,-204 165,-185 224,-185 224,-204"/>
<text text-anchor="middle" x="194.5" y="-192" font-family="Helvetica,sans-Serif" font-size="10.00">set_insert</text>
</a>
</g>
</g>
<!-- Node1&#45;&gt;Node19 -->
<g id="edge21_Node000001_Node000019" class="edge"><title>Node1&#45;&gt;Node19</title>
<g id="a_edge21_Node000001_Node000019"><a xlink:title=" ">
<path fill="none" stroke="#63b8ff" d="M102.286,-206.103C119.489,-203.915 138.458,-201.502 154.621,-199.446"/>
<polygon fill="#63b8ff" stroke="#63b8ff" points="155.312,-202.886 164.791,-198.152 154.429,-195.942 155.312,-202.886"/>
</a>
</g>
</g>
<!-- Node21 -->
<g id="Node000021" class="node"><title>Node21</title>
<g id="a_Node000021"><a xlink:href="group___t_set.html#ga768d36614713a921e88985484ac63cc1" target="_top" xlink:title="Zjištění, zda množina obsahuje zadanou hodnotu elementu.">
<polygon fill="white" stroke="#666666" points="242,-167 147,-167 147,-148 242,-148 242,-167"/>
<text text-anchor="middle" x="194.5" y="-155" font-family="Helvetica,sans-Serif" font-size="10.00">set_is_element_of</text>
</a>
</g>
</g>
<!-- Node1&#45;&gt;Node21 -->
<g id="edge24_Node000001_Node000021" class="edge"><title>Node1&#45;&gt;Node21</title>
<g id="a_edge24_Node000001_Node000021"><a xlink:title=" ">
<path fill="none" stroke="#63b8ff" d="M72.6338,-202.983C89.9193,-195.165 115.334,-184.03 138,-175.5 142.616,-173.763 147.483,-172.035 152.34,-170.377"/>
<polygon fill="#63b8ff" stroke="#63b8ff" points="153.828,-173.57 162.209,-167.088 151.615,-166.929 153.828,-173.57"/>
</a>
</g>
</g>
<!-- Node22 -->
<g id="Node000022" class="node"><title>Node22</title>
<g id="a_Node000022"><a xlink:href="group___t_set.html#ga2f7fd9486a5c300158d70dc79c6c6c8f" target="_top" xlink:title="Zjištění, zda je množina prázdná">
<polygon fill="white" stroke="#666666" points="232,-130 157,-130 157,-111 232,-111 232,-130"/>
<text text-anchor="middle" x="194.5" y="-118" font-family="Helvetica,sans-Serif" font-size="10.00">set_is_empty</text>
</a>
</g>
</g>
<!-- Node1&#45;&gt;Node22 -->
<g id="edge27_Node000001_Node000022" class="edge"><title>Node1&#45;&gt;Node22</title>
<g id="a_edge27_Node000001_Node000022"><a xlink:title=" ">
<path fill="none" stroke="#63b8ff" d="M60.6101,-202.954C75.1356,-187.381 106.063,-156.452 138,-138.5 141.051,-136.785 144.288,-135.206 147.608,-133.756"/>
<polygon fill="#63b8ff" stroke="#63b8ff" points="149.075,-136.939 157.089,-130.009 146.502,-130.429 149.075,-136.939"/>
</a>
</g>
</g>
<!-- Node23 -->
<g id="Node000023" class="node"><title>Node23</title>
<g id="a_Node000023"><a xlink:href="group___t_set_iterator.html#gab11bafbe7585e4bb0bd9ff2353d77765" target="_top" xlink:title="Vytvoření nového iterátoru ukazujícího na první element množiny.">
<polygon fill="white" stroke="#666666" points="241.5,-19 147.5,-19 147.5,-0 241.5,-0 241.5,-19"/>
<text text-anchor="middle" x="194.5" y="-7" font-family="Helvetica,sans-Serif" font-size="10.00">set_iterator_begin</text>
</a>
</g>
</g>
<!-- Node1&#45;&gt;Node23 -->
<g id="edge29_Node000001_Node000023" class="edge"><title>Node1&#45;&gt;Node23</title>
<g id="a_edge29_Node000001_Node000023"><a xlink:title=" ">
<path fill="none" stroke="#63b8ff" d="M53.6829,-202.828C59.4883,-172.371 81.5134,-77.5077 138,-27.5 139.33,-26.3229 140.737,-25.2225 142.206,-24.194"/>
<polygon fill="#63b8ff" stroke="#63b8ff" points="144.237,-27.0642 151.172,-19.0538 140.755,-20.9915 144.237,-27.0642"/>
</a>
</g>
</g>
<!-- Node3 -->
<g id="Node000003" class="node"><title>Node3</title>
<g id="a_Node000003"><a xlink:href="group___t_set_element.html#ga3473fca967dede884b1c910838f2d8df" target="_top" xlink:title="Uložení elementu do souboru.">
<polygon fill="white" stroke="#666666" points="407.5,-431 293.5,-431 293.5,-412 407.5,-412 407.5,-431"/>
<text text-anchor="middle" x="350.5" y="-419" font-family="Helvetica,sans-Serif" font-size="10.00">set_element_store_file</text>
</a>
</g>
</g>
<!-- Node2&#45;&gt;Node3 -->
<g id="edge2_Node000002_Node000003" class="edge"><title>Node2&#45;&gt;Node3</title>
<g id="a_edge2_Node000002_Node000003"><a xlink:title=" ">
<path fill="none" stroke="#63b8ff" d="M251.098,-421.5C261.544,-421.5 272.561,-421.5 283.293,-421.5"/>
<polygon fill="#63b8ff" stroke="#63b8ff" points="283.467,-425 293.467,-421.5 283.467,-418 283.467,-425"/>
</a>
</g>
</g>
<!-- Node2&#45;&gt;Node4 -->
<g id="edge3_Node000002_Node000004" class="edge"><title>Node2&#45;&gt;Node4</title>
<g id="a_edge3_Node000002_Node000004"><a xlink:title=" ">
<path fill="none" stroke="#63b8ff" d="M234.361,-411.911C254.591,-406.919 279.521,-400.768 301.004,-395.467"/>
<polygon fill="#63b8ff" stroke="#63b8ff" points="302.048,-398.814 310.919,-393.02 300.371,-392.018 302.048,-398.814"/>
</a>
</g>
</g>
<!-- Node5 -->
<g id="Node000005" class="node"><title>Node5</title>
<g id="a_Node000005"><a xlink:href="group___t_set_unsorted_flex_array.html#ga9e462daa460e7e102258837658e80ceb" target="_top" xlink:title="Přečtení hodnoty elementu z flexibilního pole.">
<polygon fill="white" stroke="#666666" points="563,-398.5 459,-398.5 459,-368.5 563,-368.5 563,-398.5"/>
<text text-anchor="start" x="467" y="-386.5" font-family="Helvetica,sans-Serif" font-size="10.00">set_flex_array_value</text>
<text text-anchor="middle" x="511" y="-375.5" font-family="Helvetica,sans-Serif" font-size="10.00">_at_pos</text>
</a>
</g>
</g>
<!-- Node4&#45;&gt;Node5 -->
<g id="edge4_Node000004_Node000005" class="edge"><title>Node4&#45;&gt;Node5</title>
<g id="a_edge4_Node000004_Node000005"><a xlink:title=" ">
<path fill="none" stroke="#63b8ff" d="M396.92,-383.5C412.904,-383.5 431.149,-383.5 448.249,-383.5"/>
<polygon fill="#63b8ff" stroke="#63b8ff" points="448.718,-387 458.718,-383.5 448.718,-380 448.718,-387"/>
</a>
</g>
</g>
<!-- Node4&#45;&gt;Node6 -->
<g id="edge5_Node000004_Node000006" class="edge"><title>Node4&#45;&gt;Node6</title>
<g id="a_edge5_Node000004_Node000006"><a xlink:title=" ">
<path fill="none" stroke="#63b8ff" d="M376.615,-373.993C403.201,-363.929 445.357,-347.971 475.151,-336.692"/>
<polygon fill="#63b8ff" stroke="#63b8ff" points="476.628,-339.876 484.741,-333.062 474.149,-333.329 476.628,-339.876"/>
</a>
</g>
</g>
<!-- Node7 -->
<g id="Node000007" class="node"><title>Node7</title>
<g id="a_Node000007"><a xlink:href="group___t_set_unsorted_flex_array.html#gad3346f67be35632c3b0fbd9ea616a0c1" target="_top" xlink:title="Zjištění platnosti pozice ve flexibilním poli.">
<polygon fill="white" stroke="#666666" points="743,-314 608,-314 608,-295 743,-295 743,-314"/>
<text text-anchor="middle" x="675.5" y="-302" font-family="Helvetica,sans-Serif" font-size="10.00">set_flex_array_is_valid_pos</text>
</a>
</g>
</g>
<!-- Node6&#45;&gt;Node7 -->
<g id="edge6_Node000006_Node000007" class="edge"><title>Node6&#45;&gt;Node7</title>
<g id="a_edge6_Node000006_Node000007"><a xlink:title=" ">
<path fill="none" stroke="#63b8ff" d="M562.081,-317.644C573.374,-316.324 585.613,-314.893 597.72,-313.477"/>
<polygon fill="#63b8ff" stroke="#63b8ff" points="598.309,-316.932 607.834,-312.295 597.496,-309.98 598.309,-316.932"/>
</a>
</g>
</g>
<!-- Node9 -->
<g id="Node000009" class="node"><title>Node9</title>
<g id="a_Node000009"><a xlink:href="group___t_set_unsorted_flex_array.html#gad077ee65d964556f86e5dfa4a680bd10" target="_top" xlink:title="Deinicializace flexibilního pole.">
<polygon fill="white" stroke="#666666" points="408,-242 293,-242 293,-223 408,-223 408,-242"/>
<text text-anchor="middle" x="350.5" y="-230" font-family="Helvetica,sans-Serif" font-size="10.00">set_flex_array_destroy</text>
</a>
</g>
</g>
<!-- Node8&#45;&gt;Node9 -->
<g id="edge8_Node000008_Node000009" class="edge"><title>Node8&#45;&gt;Node9</title>
<g id="a_edge8_Node000008_Node000009"><a xlink:title=" ">
<path fill="none" stroke="#63b8ff" d="M228.537,-231.715C244.419,-231.818 264.054,-231.945 282.85,-232.067"/>
<polygon fill="#63b8ff" stroke="#63b8ff" points="282.854,-235.567 292.877,-232.132 282.9,-228.567 282.854,-235.567"/>
</a>
</g>
</g>
<!-- Node11 -->
<g id="Node000011" class="node"><title>Node11</title>
<g id="a_Node000011"><a xlink:href="group___t_set_unsorted_flex_array.html#ga85a89d1ea648e9219f9c904727c8f7ef" target="_top" xlink:title="Odstranění elementu z flexibilního pole.">
<polygon fill="white" stroke="#666666" points="404,-92 297,-92 297,-73 404,-73 404,-92"/>
<text text-anchor="middle" x="350.5" y="-80" font-family="Helvetica,sans-Serif" font-size="10.00">set_flex_array_erase</text>
</a>
</g>
</g>
<!-- Node10&#45;&gt;Node11 -->
<g id="edge10_Node000010_Node000011" class="edge"><title>Node10&#45;&gt;Node11</title>
<g id="a_edge10_Node000010_Node000011"><a xlink:title=" ">
<path fill="none" stroke="#63b8ff" d="M224.105,-83.3143C241.677,-83.2002 264.902,-83.0493 286.585,-82.9085"/>
<polygon fill="#63b8ff" stroke="#63b8ff" points="286.766,-86.4075 296.743,-82.8426 286.72,-79.4077 286.766,-86.4075"/>
</a>
</g>
</g>
<!-- Node14 -->
<g id="Node000014" class="node"><title>Node14</title>
<g id="a_Node000014"><a xlink:href="group___t_set.html#ga213cfb714cece49d955fc452b2aeb186" target="_top" xlink:title="Přečtení počtu elementů množiny.">
<polygon fill="white" stroke="#666666" points="377,-129 324,-129 324,-110 377,-110 377,-129"/>
<text text-anchor="middle" x="350.5" y="-117" font-family="Helvetica,sans-Serif" font-size="10.00">set_size</text>
</a>
</g>
</g>
<!-- Node10&#45;&gt;Node14 -->
<g id="edge13_Node000010_Node000014" class="edge"><title>Node10&#45;&gt;Node14</title>
<g id="a_edge13_Node000010_Node000014"><a xlink:title=" ">
<path fill="none" stroke="#63b8ff" d="M224.105,-90.187C249.404,-96.1009 286.424,-104.755 313.685,-111.128"/>
<polygon fill="#63b8ff" stroke="#63b8ff" points="313.076,-114.58 323.61,-113.448 314.669,-107.763 313.076,-114.58"/>
</a>
</g>
</g>
<!-- Node12 -->
<g id="Node000012" class="node"><title>Node12</title>
<g id="a_Node000012"><a xlink:href="group___t_set_unsorted_flex_array.html#ga5d5631db0bf286d944f4e538a072c2eb" target="_top" xlink:title="Funkce zjišťující, zda flexibilní pole obsahuje element o zadané hodnotě">
<polygon fill="white" stroke="#666666" points="567,-167 455,-167 455,-148 567,-148 567,-167"/>
<text text-anchor="middle" x="511" y="-155" font-family="Helvetica,sans-Serif" font-size="10.00">set_flex_array_search</text>
</a>
</g>
</g>
<!-- Node11&#45;&gt;Node12 -->
<g id="edge11_Node000011_Node000012" class="edge"><title>Node11&#45;&gt;Node12</title>
<g id="a_edge11_Node000011_Node000012"><a xlink:title=" ">
<path fill="none" stroke="#63b8ff" d="M390.384,-92.0288C398.329,-94.4379 406.538,-97.2734 414,-100.5 440.603,-112.003 468.882,-129.515 487.802,-142.092"/>
<polygon fill="#63b8ff" stroke="#63b8ff" points="486.043,-145.128 496.29,-147.822 489.959,-139.326 486.043,-145.128"/>
</a>
</g>
</g>
<!-- Node13 -->
<g id="Node000013" class="node"><title>Node13</title>
<g id="a_Node000013"><a xlink:href="group___t_set_element.html#gad8cfc9a36f36c44c10b660c5b370f67e" target="_top" xlink:title="Porovnání dvou elementů">
<polygon fill="white" stroke="#666666" points="737.5,-167 613.5,-167 613.5,-148 737.5,-148 737.5,-167"/>
<text text-anchor="middle" x="675.5" y="-155" font-family="Helvetica,sans-Serif" font-size="10.00">set_element_comparator</text>
</a>
</g>
</g>
<!-- Node12&#45;&gt;Node13 -->
<g id="edge12_Node000012_Node000013" class="edge"><title>Node12&#45;&gt;Node13</title>
<g id="a_edge12_Node000012_Node000013"><a xlink:title=" ">
<path fill="none" stroke="#63b8ff" d="M567.015,-157.5C578.668,-157.5 591.128,-157.5 603.284,-157.5"/>
<polygon fill="#63b8ff" stroke="#63b8ff" points="603.399,-161 613.399,-157.5 603.398,-154 603.399,-161"/>
</a>
</g>
</g>
<!-- Node15&#45;&gt;Node6 -->
<g id="edge15_Node000015_Node000006" class="edge"><title>Node15&#45;&gt;Node6</title>
<g id="a_edge15_Node000015_Node000006"><a xlink:title=" ">
<path fill="none" stroke="#63b8ff" d="M230.662,-309.289C283.686,-311.986 384.8,-317.131 449.728,-320.434"/>
<polygon fill="#63b8ff" stroke="#63b8ff" points="449.66,-323.935 459.825,-320.947 450.016,-316.944 449.66,-323.935"/>
</a>
</g>
</g>
<!-- Node15&#45;&gt;Node16 -->
<g id="edge16_Node000015_Node000016" class="edge"><title>Node15&#45;&gt;Node16</title>
<g id="a_edge16_Node000015_Node000016"><a xlink:title=" ">
<path fill="none" stroke="#63b8ff" d="M230.831,-298.782C251.639,-293.648 278.257,-287.079 301.008,-281.465"/>
<polygon fill="#63b8ff" stroke="#63b8ff" points="301.953,-284.837 310.823,-279.044 300.276,-278.041 301.953,-284.837"/>
</a>
</g>
</g>
<!-- Node16&#45;&gt;Node6 -->
<g id="edge19_Node000016_Node000006" class="edge"><title>Node16&#45;&gt;Node6</title>
<g id="a_edge19_Node000016_Node000006"><a xlink:title=" ">
<path fill="none" stroke="#63b8ff" d="M379.472,-279.03C405.309,-287.832 443.889,-300.976 472.41,-310.693"/>
<polygon fill="#63b8ff" stroke="#63b8ff" points="471.447,-314.063 482.042,-313.975 473.705,-307.437 471.447,-314.063"/>
</a>
</g>
</g>
<!-- Node16&#45;&gt;Node7 -->
<g id="edge17_Node000016_Node000007" class="edge"><title>Node16&#45;&gt;Node7</title>
<g id="a_edge17_Node000016_Node000007"><a xlink:title=" ">
<path fill="none" stroke="#63b8ff" d="M402.324,-275.007C454.722,-280.685 537.07,-289.608 597.474,-296.154"/>
<polygon fill="#63b8ff" stroke="#63b8ff" points="597.408,-299.667 607.727,-297.265 598.163,-292.708 597.408,-299.667"/>
</a>
</g>
</g>
<!-- Node17 -->
<g id="Node000017" class="node"><title>Node17</title>
<g id="a_Node000017"><a xlink:href="group___t_set_unsorted_flex_array.html#ga8bc0de187146b066ae844c2278b6e198" target="_top" xlink:title="Výpočet následující platné pozice ve flexibilním poli.">
<polygon fill="white" stroke="#666666" points="572,-257 450,-257 450,-238 572,-238 572,-257"/>
<text text-anchor="middle" x="511" y="-245" font-family="Helvetica,sans-Serif" font-size="10.00">set_flex_array_next_pos</text>
</a>
</g>
</g>
<!-- Node16&#45;&gt;Node17 -->
<g id="edge18_Node000016_Node000017" class="edge"><title>Node16&#45;&gt;Node17</title>
<g id="a_edge18_Node000016_Node000017"><a xlink:title=" ">
<path fill="none" stroke="#63b8ff" d="M402.086,-262.479C414.096,-260.812 427.121,-259.004 439.83,-257.24"/>
<polygon fill="#63b8ff" stroke="#63b8ff" points="440.506,-260.68 449.93,-255.838 439.543,-253.746 440.506,-260.68"/>
</a>
</g>
</g>
<!-- Node20 -->
<g id="Node000020" class="node"><title>Node20</title>
<g id="a_Node000020"><a xlink:href="group___t_set_unsorted_flex_array.html#gadd504f9127a4e850da202073bddd6024" target="_top" xlink:title="Vložení elementu do flexibilního pole.">
<polygon fill="white" stroke="#666666" points="404,-205 297,-205 297,-186 404,-186 404,-205"/>
<text text-anchor="middle" x="350.5" y="-193" font-family="Helvetica,sans-Serif" font-size="10.00">set_flex_array_insert</text>
</a>
</g>
</g>
<!-- Node19&#45;&gt;Node20 -->
<g id="edge22_Node000019_Node000020" class="edge"><title>Node19&#45;&gt;Node20</title>
<g id="a_edge22_Node000019_Node000020"><a xlink:title=" ">
<path fill="none" stroke="#63b8ff" d="M224.105,-194.686C241.677,-194.8 264.902,-194.951 286.585,-195.091"/>
<polygon fill="#63b8ff" stroke="#63b8ff" points="286.72,-198.592 296.743,-195.157 286.766,-191.592 286.72,-198.592"/>
</a>
</g>
</g>
<!-- Node20&#45;&gt;Node12 -->
<g id="edge23_Node000020_Node000012" class="edge"><title>Node20&#45;&gt;Node12</title>
<g id="a_edge23_Node000020_Node000012"><a xlink:title=" ">
<path fill="none" stroke="#63b8ff" d="M391.496,-185.911C412.412,-180.896 438.208,-174.712 460.386,-169.395"/>
<polygon fill="#63b8ff" stroke="#63b8ff" points="461.383,-172.755 470.291,-167.02 459.751,-165.948 461.383,-172.755"/>
</a>
</g>
</g>
<!-- Node21&#45;&gt;Node12 -->
<g id="edge25_Node000021_Node000012" class="edge"><title>Node21&#45;&gt;Node12</title>
<g id="a_edge25_Node000021_Node000012"><a xlink:title=" ">
<path fill="none" stroke="#63b8ff" d="M242.244,-157.5C295.866,-157.5 384.153,-157.5 444.584,-157.5"/>
<polygon fill="#63b8ff" stroke="#63b8ff" points="444.78,-161 454.78,-157.5 444.78,-154 444.78,-161"/>
</a>
</g>
</g>
<!-- Node21&#45;&gt;Node14 -->
<g id="edge26_Node000021_Node000014" class="edge"><title>Node21&#45;&gt;Node14</title>
<g id="a_edge26_Node000021_Node000014"><a xlink:title=" ">
<path fill="none" stroke="#63b8ff" d="M234.361,-147.911C258.733,-141.897 289.925,-134.2 313.694,-128.335"/>
<polygon fill="#63b8ff" stroke="#63b8ff" points="314.843,-131.657 323.713,-125.863 313.166,-124.861 314.843,-131.657"/>
</a>
</g>
</g>
<!-- Node22&#45;&gt;Node14 -->
<g id="edge28_Node000022_Node000014" class="edge"><title>Node22&#45;&gt;Node14</title>
<g id="a_edge28_Node000022_Node000014"><a xlink:title=" ">
<path fill="none" stroke="#63b8ff" d="M232.387,-120.26C257.036,-120.1 289.294,-119.891 313.712,-119.732"/>
<polygon fill="#63b8ff" stroke="#63b8ff" points="314.011,-123.231 323.988,-119.666 313.965,-116.231 314.011,-123.231"/>
</a>
</g>
</g>
<!-- Node24 -->
<g id="Node000024" class="node"><title>Node24</title>
<g id="a_Node000024"><a xlink:href="group___t_set_unsorted_flex_array.html#ga24753753dacb74f17de6ba082505440c" target="_top" xlink:title="Výpočet první platné pozice ve flexibilním poli.">
<polygon fill="white" stroke="#666666" points="414,-19 287,-19 287,-0 414,-0 414,-19"/>
<text text-anchor="middle" x="350.5" y="-7" font-family="Helvetica,sans-Serif" font-size="10.00">set_flex_array_begin_pos</text>
</a>
</g>
</g>
<!-- Node23&#45;&gt;Node24 -->
<g id="edge30_Node000023_Node000024" class="edge"><title>Node23&#45;&gt;Node24</title>
<g id="a_edge30_Node000023_Node000024"><a xlink:title=" ">
<path fill="none" stroke="#63b8ff" d="M241.705,-9.5C252.669,-9.5 264.63,-9.5 276.466,-9.5"/>
<polygon fill="#63b8ff" stroke="#63b8ff" points="276.807,-13.0001 286.807,-9.5 276.807,-6.0001 276.807,-13.0001"/>
</a>
</g>
</g>
</g>
</svg>
