<?xml version="1.0" encoding="UTF-8" standalone="no"?>
<!DOCTYPE svg PUBLIC "-//W3C//DTD SVG 1.1//EN"
 "http://www.w3.org/Graphics/SVG/1.1/DTD/svg11.dtd">
<!-- Generated by graphviz version 2.38.0 (20140413.2041)
 -->
<!-- Title: main Pages: 1 -->
<svg width="939pt" height="515pt"
 viewBox="0.00 0.00 939.00 515.00" xmlns="http://www.w3.org/2000/svg" xmlns:xlink="http://www.w3.org/1999/xlink">
<g id="graph0" class="graph" transform="scale(1 1) rotate(0) translate(4 511)">
<title>main</title>
<!-- Node1 -->
<g id="Node000001" class="node"><title>Node1</title>
<g id="a_Node000001"><a xlink:title=" ">
<polygon fill="#999999" stroke="#666666" points="38,-329 0,-329 0,-310 38,-310 38,-329"/>
<text text-anchor="middle" x="19" y="-317" font-family="Helvetica,sans-Serif" font-size="10.00">main</text>
</a>
</g>
</g>
<!-- Node2 -->
<g id="Node000002" class="node"><title>Node2</title>
<g id="a_Node000002"><a xlink:href="group___t_set.html#ga8094d1ab68434b8413cd905895ff37ae" target="_top" xlink:title="Deinicializace množiny.">
<polygon fill="white" stroke="#666666" points="416.5,-470 348.5,-470 348.5,-451 416.5,-451 416.5,-470"/>
<text text-anchor="middle" x="382.5" y="-458" font-family="Helvetica,sans-Serif" font-size="10.00">set_destroy</text>
</a>
</g>
</g>
<!-- Node1&#45;&gt;Node2 -->
<g id="edge1_Node000001_Node000002" class="edge"><title>Node1&#45;&gt;Node2</title>
<g id="a_edge1_Node000001_Node000002"><a xlink:title=" ">
<path fill="none" stroke="#63b8ff" d="M29.052,-329.283C39.1169,-339.629 56.3005,-355.771 74,-365.5 161.483,-413.588 276.631,-440.826 338.218,-452.895"/>
<polygon fill="#63b8ff" stroke="#63b8ff" points="337.873,-456.392 348.354,-454.838 339.192,-449.517 337.873,-456.392"/>
</a>
</g>
</g>
<!-- Node4 -->
<g id="Node000004" class="node"><title>Node4</title>
<g id="a_Node000004"><a xlink:href="group___t_set.html#ga674fb4a9d4cac982bca65b8b264b04b5" target="_top" xlink:title="Inicializace prázdné množiny.">
<polygon fill="white" stroke="#666666" points="406.5,-283 358.5,-283 358.5,-264 406.5,-264 406.5,-283"/>
<text text-anchor="middle" x="382.5" y="-271" font-family="Helvetica,sans-Serif" font-size="10.00">set_init</text>
</a>
</g>
</g>
<!-- Node1&#45;&gt;Node4 -->
<g id="edge3_Node000001_Node000004" class="edge"><title>Node1&#45;&gt;Node4</title>
<g id="a_edge3_Node000001_Node000004"><a xlink:title=" ">
<path fill="none" stroke="#63b8ff" d="M38.4238,-317.156C96.0209,-309.827 273.277,-287.271 347.869,-277.779"/>
<polygon fill="#63b8ff" stroke="#63b8ff" points="348.625,-281.212 358.103,-276.477 347.741,-274.268 348.625,-281.212"/>
</a>
</g>
</g>
<!-- Node5 -->
<g id="Node000005" class="node"><title>Node5</title>
<g id="a_Node000005"><a xlink:href="testbench_8c.html#a2fa1559684d267665b1c2433208511d3" target="_top" xlink:title="Provedení všech testů zadaného testovacího plánu na předaném ADT.">
<polygon fill="white" stroke="#666666" points="152,-357 74,-357 74,-338 152,-338 152,-357"/>
<text text-anchor="middle" x="113" y="-345" font-family="Helvetica,sans-Serif" font-size="10.00">testbench_run</text>
</a>
</g>
</g>
<!-- Node1&#45;&gt;Node5 -->
<g id="edge4_Node000001_Node000005" class="edge"><title>Node1&#45;&gt;Node5</title>
<g id="a_edge4_Node000001_Node000005"><a xlink:title=" ">
<path fill="none" stroke="#63b8ff" d="M38.1762,-325.032C47.4917,-327.867 59.2458,-331.444 70.6193,-334.906"/>
<polygon fill="#63b8ff" stroke="#63b8ff" points="69.8596,-338.333 80.4454,-337.896 71.8978,-331.636 69.8596,-338.333"/>
</a>
</g>
</g>
<!-- Node19 -->
<g id="Node000019" class="node"><title>Node19</title>
<g id="a_Node000019"><a xlink:href="group___main_program.html#ga66149067fad48c8944eb15c52e63a990" target="_top" xlink:title=" ">
<polygon fill="white" stroke="#666666" points="290,-245 188,-245 188,-226 290,-226 290,-245"/>
<text text-anchor="middle" x="239" y="-233" font-family="Helvetica,sans-Serif" font-size="10.00">testset2_hardcoded</text>
</a>
</g>
</g>
<!-- Node1&#45;&gt;Node19 -->
<g id="edge22_Node000001_Node000019" class="edge"><title>Node1&#45;&gt;Node19</title>
<g id="a_edge22_Node000001_Node000019"><a xlink:title=" ">
<path fill="none" stroke="#63b8ff" d="M29.8878,-309.74C40.1096,-300.181 56.9377,-285.866 74,-277.5 106.504,-261.563 145.695,-251.239 177.613,-244.816"/>
<polygon fill="#63b8ff" stroke="#63b8ff" points="178.549,-248.2 187.703,-242.865 177.221,-241.327 178.549,-248.2"/>
</a>
</g>
</g>
<!-- Node3 -->
<g id="Node000003" class="node"><title>Node3</title>
<g id="a_Node000003"><a xlink:href="group___t_set_unsorted_flex_array.html#gad077ee65d964556f86e5dfa4a680bd10" target="_top" xlink:title="Deinicializace flexibilního pole.">
<polygon fill="white" stroke="#666666" points="596,-470 481,-470 481,-451 596,-451 596,-470"/>
<text text-anchor="middle" x="538.5" y="-458" font-family="Helvetica,sans-Serif" font-size="10.00">set_flex_array_destroy</text>
</a>
</g>
</g>
<!-- Node2&#45;&gt;Node3 -->
<g id="edge2_Node000002_Node000003" class="edge"><title>Node2&#45;&gt;Node3</title>
<g id="a_edge2_Node000002_Node000003"><a xlink:title=" ">
<path fill="none" stroke="#63b8ff" d="M416.537,-460.5C432.419,-460.5 452.054,-460.5 470.85,-460.5"/>
<polygon fill="#63b8ff" stroke="#63b8ff" points="470.877,-464 480.877,-460.5 470.877,-457 470.877,-464"/>
</a>
</g>
</g>
<!-- Node6 -->
<g id="Node000006" class="node"><title>Node6</title>
<g id="a_Node000006"><a xlink:href="testbench_8c.html#a068734a4e1d6209769e0c6b1675ca02b" target="_top" xlink:title="Provedení jednoho test z testovacího plánu na předaném ADT.">
<polygon fill="white" stroke="#666666" points="265,-375 213,-375 213,-356 265,-356 265,-375"/>
<text text-anchor="middle" x="239" y="-363" font-family="Helvetica,sans-Serif" font-size="10.00">test_run</text>
</a>
</g>
</g>
<!-- Node5&#45;&gt;Node6 -->
<g id="edge5_Node000005_Node000006" class="edge"><title>Node5&#45;&gt;Node6</title>
<g id="a_edge5_Node000005_Node000006"><a xlink:title=" ">
<path fill="none" stroke="#63b8ff" d="M152.216,-353.047C168.327,-355.386 186.964,-358.092 202.742,-360.382"/>
<polygon fill="#63b8ff" stroke="#63b8ff" points="202.244,-363.846 212.643,-361.819 203.249,-356.919 202.244,-363.846"/>
</a>
</g>
</g>
<!-- Node7 -->
<g id="Node000007" class="node"><title>Node7</title>
<g id="a_Node000007"><a xlink:href="testbench_8c.html#aa291195ad453d2b1e29004cc2e043c01" target="_top" xlink:title=" ">
<polygon fill="white" stroke="#666666" points="416.5,-507 348.5,-507 348.5,-488 416.5,-488 416.5,-507"/>
<text text-anchor="middle" x="382.5" y="-495" font-family="Helvetica,sans-Serif" font-size="10.00">difftimespec</text>
</a>
</g>
</g>
<!-- Node6&#45;&gt;Node7 -->
<g id="edge6_Node000006_Node000007" class="edge"><title>Node6&#45;&gt;Node7</title>
<g id="a_edge6_Node000006_Node000007"><a xlink:title=" ">
<path fill="none" stroke="#63b8ff" d="M244.805,-375.214C256.016,-396.908 286.015,-449.649 326,-478.5 329.923,-481.331 334.301,-483.765 338.83,-485.853"/>
<polygon fill="#63b8ff" stroke="#63b8ff" points="337.659,-489.154 348.241,-489.667 340.288,-482.667 337.659,-489.154"/>
</a>
</g>
</g>
<!-- Node8 -->
<g id="Node000008" class="node"><title>Node8</title>
<g id="a_Node000008"><a xlink:href="testbench_8c.html#ae7a610c069c6000940838c6a1e11bb42" target="_top" xlink:title="Vytisknutí hodnoty v ADT pomocí iterátoru.">
<polygon fill="white" stroke="#666666" points="439,-394 326,-394 326,-375 439,-375 439,-394"/>
<text text-anchor="middle" x="382.5" y="-382" font-family="Helvetica,sans-Serif" font-size="10.00">print_value_by_iterator</text>
</a>
</g>
</g>
<!-- Node6&#45;&gt;Node8 -->
<g id="edge7_Node000006_Node000008" class="edge"><title>Node6&#45;&gt;Node8</title>
<g id="a_edge7_Node000006_Node000008"><a xlink:title=" ">
<path fill="none" stroke="#63b8ff" d="M265.297,-368.897C279.517,-370.806 297.984,-373.286 315.995,-375.704"/>
<polygon fill="#63b8ff" stroke="#63b8ff" points="315.548,-379.176 325.924,-377.038 316.479,-372.238 315.548,-379.176"/>
</a>
</g>
</g>
<!-- Node9 -->
<g id="Node000009" class="node"><title>Node9</title>
<g id="a_Node000009"><a xlink:href="group___t_set_element.html#ga3473fca967dede884b1c910838f2d8df" target="_top" xlink:title="Uložení elementu do souboru.">
<polygon fill="white" stroke="#666666" points="595.5,-413 481.5,-413 481.5,-394 595.5,-394 595.5,-413"/>
<text text-anchor="middle" x="538.5" y="-401" font-family="Helvetica,sans-Serif" font-size="10.00">set_element_store_file</text>
</a>
</g>
</g>
<!-- Node6&#45;&gt;Node9 -->
<g id="edge13_Node000006_Node000009" class="edge"><title>Node6&#45;&gt;Node9</title>
<g id="a_edge13_Node000006_Node000009"><a xlink:title=" ">
<path fill="none" stroke="#63b8ff" d="M256.788,-375.139C273.652,-384.23 300.7,-397.226 326,-402.5 373.82,-412.468 429.054,-412.347 471.083,-409.93"/>
<polygon fill="#63b8ff" stroke="#63b8ff" points="471.439,-413.414 481.198,-409.289 470.997,-406.428 471.439,-413.414"/>
</a>
</g>
</g>
<!-- Node14 -->
<g id="Node000014" class="node"><title>Node14</title>
<g id="a_Node000014"><a xlink:href="group___iterator_algorithms.html#gab8ba369b42eda61d010f35df73be73db" target="_top" xlink:title="Zavolání zvolené funkce na každý element množiny od pozice určené iterátorem až do posledního element...">
<polygon fill="white" stroke="#666666" points="418.5,-320 346.5,-320 346.5,-301 418.5,-301 418.5,-320"/>
<text text-anchor="middle" x="382.5" y="-308" font-family="Helvetica,sans-Serif" font-size="10.00">set_for_each</text>
</a>
</g>
</g>
<!-- Node6&#45;&gt;Node14 -->
<g id="edge14_Node000006_Node000014" class="edge"><title>Node6&#45;&gt;Node14</title>
<g id="a_edge14_Node000006_Node000014"><a xlink:title=" ">
<path fill="none" stroke="#63b8ff" d="M260.634,-355.983C277.919,-348.165 303.334,-337.03 326,-328.5 330.616,-326.763 335.483,-325.035 340.34,-323.377"/>
<polygon fill="#63b8ff" stroke="#63b8ff" points="341.828,-326.57 350.209,-320.088 339.615,-319.929 341.828,-326.57"/>
</a>
</g>
</g>
<!-- Node17 -->
<g id="Node000017" class="node"><title>Node17</title>
<g id="a_Node000017"><a xlink:href="group___t_set_iterator.html#gab11bafbe7585e4bb0bd9ff2353d77765" target="_top" xlink:title="Vytvoření nového iterátoru ukazujícího na první element množiny.">
<polygon fill="white" stroke="#666666" points="429.5,-357 335.5,-357 335.5,-338 429.5,-338 429.5,-357"/>
<text text-anchor="middle" x="382.5" y="-345" font-family="Helvetica,sans-Serif" font-size="10.00">set_iterator_begin</text>
</a>
</g>
</g>
<!-- Node6&#45;&gt;Node17 -->
<g id="edge20_Node000006_Node000017" class="edge"><title>Node6&#45;&gt;Node17</title>
<g id="a_edge20_Node000006_Node000017"><a xlink:title=" ">
<path fill="none" stroke="#63b8ff" d="M265.297,-362.282C281.966,-360.162 304.472,-357.299 325.238,-354.657"/>
<polygon fill="#63b8ff" stroke="#63b8ff" points="325.781,-358.116 335.259,-353.382 324.898,-351.172 325.781,-358.116"/>
</a>
</g>
</g>
<!-- Node8&#45;&gt;Node9 -->
<g id="edge8_Node000008_Node000009" class="edge"><title>Node8&#45;&gt;Node9</title>
<g id="a_edge8_Node000008_Node000009"><a xlink:title=" ">
<path fill="none" stroke="#63b8ff" d="M439.098,-391.359C449.544,-392.648 460.561,-394.008 471.293,-395.332"/>
<polygon fill="#63b8ff" stroke="#63b8ff" points="471.113,-398.836 481.467,-396.587 471.971,-391.889 471.113,-398.836"/>
</a>
</g>
</g>
<!-- Node10 -->
<g id="Node000010" class="node"><title>Node10</title>
<g id="a_Node000010"><a xlink:href="group___t_set_iterator.html#ga3928a980e2759ba130ce333e77f15fab" target="_top" xlink:title="Přečtení hodnoty elementu z množiny pomocí iterátoru.">
<polygon fill="white" stroke="#666666" points="584.5,-283 492.5,-283 492.5,-264 584.5,-264 584.5,-283"/>
<text text-anchor="middle" x="538.5" y="-271" font-family="Helvetica,sans-Serif" font-size="10.00">set_iterator_value</text>
</a>
</g>
</g>
<!-- Node8&#45;&gt;Node10 -->
<g id="edge9_Node000008_Node000010" class="edge"><title>Node8&#45;&gt;Node10</title>
<g id="a_edge9_Node000008_Node000010"><a xlink:title=" ">
<path fill="none" stroke="#63b8ff" d="M419.574,-374.915C426.294,-372.372 433.063,-369.259 439,-365.5 458.385,-353.226 458.375,-344.313 475,-328.5 488.955,-315.226 505.316,-300.87 517.797,-290.154"/>
<polygon fill="#63b8ff" stroke="#63b8ff" points="520.406,-292.528 525.741,-283.375 515.862,-287.204 520.406,-292.528"/>
</a>
</g>
</g>
<!-- Node11 -->
<g id="Node000011" class="node"><title>Node11</title>
<g id="a_Node000011"><a xlink:href="group___t_set_unsorted_flex_array.html#ga9e462daa460e7e102258837658e80ceb" target="_top" xlink:title="Přečtení hodnoty elementu z flexibilního pole.">
<polygon fill="white" stroke="#666666" points="751,-288.5 647,-288.5 647,-258.5 751,-258.5 751,-288.5"/>
<text text-anchor="start" x="655" y="-276.5" font-family="Helvetica,sans-Serif" font-size="10.00">set_flex_array_value</text>
<text text-anchor="middle" x="699" y="-265.5" font-family="Helvetica,sans-Serif" font-size="10.00">_at_pos</text>
</a>
</g>
</g>
<!-- Node10&#45;&gt;Node11 -->
<g id="edge10_Node000010_Node000011" class="edge"><title>Node10&#45;&gt;Node11</title>
<g id="a_edge10_Node000010_Node000011"><a xlink:title=" ">
<path fill="none" stroke="#63b8ff" d="M584.92,-273.5C600.904,-273.5 619.149,-273.5 636.249,-273.5"/>
<polygon fill="#63b8ff" stroke="#63b8ff" points="636.718,-277 646.718,-273.5 636.718,-270 636.718,-277"/>
</a>
</g>
</g>
<!-- Node12 -->
<g id="Node000012" class="node"><title>Node12</title>
<g id="a_Node000012"><a xlink:href="group___t_set_iterator.html#ga089f24c81ac3da7d1ac7ca24cc078dd8" target="_top" xlink:title="Zjištění platnosti iterátoru.">
<polygon fill="white" stroke="#666666" points="750,-223 648,-223 648,-204 750,-204 750,-223"/>
<text text-anchor="middle" x="699" y="-211" font-family="Helvetica,sans-Serif" font-size="10.00">set_iterator_is_valid</text>
</a>
</g>
</g>
<!-- Node10&#45;&gt;Node12 -->
<g id="edge11_Node000010_Node000012" class="edge"><title>Node10&#45;&gt;Node12</title>
<g id="a_edge11_Node000010_Node000012"><a xlink:title=" ">
<path fill="none" stroke="#63b8ff" d="M564.615,-263.993C591.201,-253.929 633.357,-237.971 663.151,-226.692"/>
<polygon fill="#63b8ff" stroke="#63b8ff" points="664.628,-229.876 672.741,-223.062 662.149,-223.329 664.628,-229.876"/>
</a>
</g>
</g>
<!-- Node13 -->
<g id="Node000013" class="node"><title>Node13</title>
<g id="a_Node000013"><a xlink:href="group___t_set_unsorted_flex_array.html#gad3346f67be35632c3b0fbd9ea616a0c1" target="_top" xlink:title="Zjištění platnosti pozice ve flexibilním poli.">
<polygon fill="white" stroke="#666666" points="931,-204 796,-204 796,-185 931,-185 931,-204"/>
<text text-anchor="middle" x="863.5" y="-192" font-family="Helvetica,sans-Serif" font-size="10.00">set_flex_array_is_valid_pos</text>
</a>
</g>
</g>
<!-- Node12&#45;&gt;Node13 -->
<g id="edge12_Node000012_Node000013" class="edge"><title>Node12&#45;&gt;Node13</title>
<g id="a_edge12_Node000012_Node000013"><a xlink:title=" ">
<path fill="none" stroke="#63b8ff" d="M750.081,-207.644C761.374,-206.324 773.613,-204.893 785.72,-203.477"/>
<polygon fill="#63b8ff" stroke="#63b8ff" points="786.309,-206.932 795.834,-202.295 785.496,-199.98 786.309,-206.932"/>
</a>
</g>
</g>
<!-- Node14&#45;&gt;Node12 -->
<g id="edge15_Node000014_Node000012" class="edge"><title>Node14&#45;&gt;Node12</title>
<g id="a_edge15_Node000014_Node000012"><a xlink:title=" ">
<path fill="none" stroke="#63b8ff" d="M418.698,-301.243C425.704,-298.642 432.805,-295.423 439,-291.5 458.385,-279.226 454.761,-265.307 475,-254.5 525.628,-227.466 590.922,-217.926 637.754,-214.723"/>
<polygon fill="#63b8ff" stroke="#63b8ff" points="637.982,-218.216 647.752,-214.116 637.558,-211.228 637.982,-218.216"/>
</a>
</g>
</g>
<!-- Node15 -->
<g id="Node000015" class="node"><title>Node15</title>
<g id="a_Node000015"><a xlink:href="group___t_set_iterator.html#ga6723a05c864198597ff49718020bd0d6" target="_top" xlink:title="Posunutí iterátoru vpřed.">
<polygon fill="white" stroke="#666666" points="590,-169 487,-169 487,-150 590,-150 590,-169"/>
<text text-anchor="middle" x="538.5" y="-157" font-family="Helvetica,sans-Serif" font-size="10.00">set_iterator_to_next</text>
</a>
</g>
</g>
<!-- Node14&#45;&gt;Node15 -->
<g id="edge16_Node000014_Node000015" class="edge"><title>Node14&#45;&gt;Node15</title>
<g id="a_edge16_Node000014_Node000015"><a xlink:title=" ">
<path fill="none" stroke="#63b8ff" d="M418.545,-303.037C425.874,-300.293 433.144,-296.562 439,-291.5 465.467,-268.622 454.327,-249.723 475,-221.5 487.565,-204.346 504.932,-187.526 518.171,-175.742"/>
<polygon fill="#63b8ff" stroke="#63b8ff" points="520.557,-178.305 525.8,-169.099 515.96,-173.026 520.557,-178.305"/>
</a>
</g>
</g>
<!-- Node15&#45;&gt;Node12 -->
<g id="edge19_Node000015_Node000012" class="edge"><title>Node15&#45;&gt;Node12</title>
<g id="a_edge19_Node000015_Node000012"><a xlink:title=" ">
<path fill="none" stroke="#63b8ff" d="M567.472,-169.03C593.309,-177.832 631.889,-190.976 660.41,-200.693"/>
<polygon fill="#63b8ff" stroke="#63b8ff" points="659.447,-204.063 670.042,-203.975 661.705,-197.437 659.447,-204.063"/>
</a>
</g>
</g>
<!-- Node15&#45;&gt;Node13 -->
<g id="edge17_Node000015_Node000013" class="edge"><title>Node15&#45;&gt;Node13</title>
<g id="a_edge17_Node000015_Node000013"><a xlink:title=" ">
<path fill="none" stroke="#63b8ff" d="M590.324,-165.007C642.722,-170.685 725.07,-179.608 785.474,-186.154"/>
<polygon fill="#63b8ff" stroke="#63b8ff" points="785.408,-189.667 795.727,-187.265 786.163,-182.708 785.408,-189.667"/>
</a>
</g>
</g>
<!-- Node16 -->
<g id="Node000016" class="node"><title>Node16</title>
<g id="a_Node000016"><a xlink:href="group___t_set_unsorted_flex_array.html#ga8bc0de187146b066ae844c2278b6e198" target="_top" xlink:title="Výpočet následující platné pozice ve flexibilním poli.">
<polygon fill="white" stroke="#666666" points="760,-147 638,-147 638,-128 760,-128 760,-147"/>
<text text-anchor="middle" x="699" y="-135" font-family="Helvetica,sans-Serif" font-size="10.00">set_flex_array_next_pos</text>
</a>
</g>
</g>
<!-- Node15&#45;&gt;Node16 -->
<g id="edge18_Node000015_Node000016" class="edge"><title>Node15&#45;&gt;Node16</title>
<g id="a_edge18_Node000015_Node000016"><a xlink:title=" ">
<path fill="none" stroke="#63b8ff" d="M590.086,-152.479C602.096,-150.812 615.121,-149.004 627.83,-147.24"/>
<polygon fill="#63b8ff" stroke="#63b8ff" points="628.506,-150.68 637.93,-145.838 627.543,-143.746 628.506,-150.68"/>
</a>
</g>
</g>
<!-- Node18 -->
<g id="Node000018" class="node"><title>Node18</title>
<g id="a_Node000018"><a xlink:href="group___t_set_unsorted_flex_array.html#ga24753753dacb74f17de6ba082505440c" target="_top" xlink:title="Výpočet první platné pozice ve flexibilním poli.">
<polygon fill="white" stroke="#666666" points="602,-357 475,-357 475,-338 602,-338 602,-357"/>
<text text-anchor="middle" x="538.5" y="-345" font-family="Helvetica,sans-Serif" font-size="10.00">set_flex_array_begin_pos</text>
</a>
</g>
</g>
<!-- Node17&#45;&gt;Node18 -->
<g id="edge21_Node000017_Node000018" class="edge"><title>Node17&#45;&gt;Node18</title>
<g id="a_edge21_Node000017_Node000018"><a xlink:title=" ">
<path fill="none" stroke="#63b8ff" d="M429.705,-347.5C440.669,-347.5 452.63,-347.5 464.466,-347.5"/>
<polygon fill="#63b8ff" stroke="#63b8ff" points="464.807,-351 474.807,-347.5 464.807,-344 464.807,-351"/>
</a>
</g>
</g>
<!-- Node19&#45;&gt;Node2 -->
<g id="edge24_Node000019_Node000002" class="edge"><title>Node19&#45;&gt;Node2</title>
<g id="a_edge24_Node000019_Node000002"><a xlink:title=" ">
<path fill="none" stroke="#63b8ff" d="M243.783,-245.087C254.458,-271.543 286.617,-347.272 326,-402.5 336.782,-417.62 351.376,-432.714 362.893,-443.712"/>
<polygon fill="#63b8ff" stroke="#63b8ff" points="360.593,-446.353 370.29,-450.622 365.372,-441.238 360.593,-446.353"/>
</a>
</g>
</g>
<!-- Node19&#45;&gt;Node4 -->
<g id="edge31_Node000019_Node000004" class="edge"><title>Node19&#45;&gt;Node4</title>
<g id="a_edge31_Node000019_Node000004"><a xlink:title=" ">
<path fill="none" stroke="#63b8ff" d="M275.706,-245.089C298.041,-251.087 326.608,-258.759 348.427,-264.618"/>
<polygon fill="#63b8ff" stroke="#63b8ff" points="347.668,-268.038 358.233,-267.252 349.483,-261.278 347.668,-268.038"/>
</a>
</g>
</g>
<!-- Node19&#45;&gt;Node8 -->
<g id="edge23_Node000019_Node000008" class="edge"><title>Node19&#45;&gt;Node8</title>
<g id="a_edge23_Node000019_Node000008"><a xlink:title=" ">
<path fill="none" stroke="#63b8ff" d="M243.797,-245.233C253.646,-269.232 282.324,-331.736 326,-365.5 328.42,-367.371 331.036,-369.064 333.768,-370.595"/>
<polygon fill="#63b8ff" stroke="#63b8ff" points="332.269,-373.758 342.796,-374.957 335.314,-367.455 332.269,-373.758"/>
</a>
</g>
</g>
<!-- Node19&#45;&gt;Node10 -->
<g id="edge43_Node000019_Node000010" class="edge"><title>Node19&#45;&gt;Node10</title>
<g id="a_edge43_Node000019_Node000010"><a xlink:title=" ">
<path fill="none" stroke="#63b8ff" d="M290.044,-238.95C330.382,-242.049 388.502,-247.236 439,-254.5 453.288,-256.555 468.649,-259.271 482.89,-262.005"/>
<polygon fill="#63b8ff" stroke="#63b8ff" points="482.545,-265.504 493.031,-263.989 483.89,-258.634 482.545,-265.504"/>
</a>
</g>
</g>
<!-- Node19&#45;&gt;Node12 -->
<g id="edge41_Node000019_Node000012" class="edge"><title>Node19&#45;&gt;Node12</title>
<g id="a_edge41_Node000019_Node000012"><a xlink:title=" ">
<path fill="none" stroke="#63b8ff" d="M290.352,-230.101C337.887,-225.268 411.194,-218.497 475,-215.5 530.075,-212.913 592.882,-212.585 637.776,-212.804"/>
<polygon fill="#63b8ff" stroke="#63b8ff" points="637.909,-216.305 647.929,-212.864 637.95,-209.305 637.909,-216.305"/>
</a>
</g>
</g>
<!-- Node19&#45;&gt;Node14 -->
<g id="edge30_Node000019_Node000014" class="edge"><title>Node19&#45;&gt;Node14</title>
<g id="a_edge30_Node000019_Node000014"><a xlink:title=" ">
<path fill="none" stroke="#63b8ff" d="M252.521,-245.084C268.759,-257.169 298.293,-277.995 326,-291.5 330.349,-293.619 334.994,-295.607 339.677,-297.437"/>
<polygon fill="#63b8ff" stroke="#63b8ff" points="338.664,-300.794 349.257,-300.968 341.085,-294.226 338.664,-300.794"/>
</a>
</g>
</g>
<!-- Node19&#45;&gt;Node15 -->
<g id="edge42_Node000019_Node000015" class="edge"><title>Node19&#45;&gt;Node15</title>
<g id="a_edge42_Node000019_Node000015"><a xlink:title=" ">
<path fill="none" stroke="#63b8ff" d="M251.973,-225.926C267.861,-213.796 297.264,-193.292 326,-183.5 374.899,-166.838 433.46,-161.216 476.551,-159.546"/>
<polygon fill="#63b8ff" stroke="#63b8ff" points="476.723,-163.043 486.603,-159.217 476.494,-156.046 476.723,-163.043"/>
</a>
</g>
</g>
<!-- Node19&#45;&gt;Node17 -->
<g id="edge40_Node000019_Node000017" class="edge"><title>Node19&#45;&gt;Node17</title>
<g id="a_edge40_Node000019_Node000017"><a xlink:title=" ">
<path fill="none" stroke="#63b8ff" d="M246.399,-245.126C259.295,-263.816 290.248,-305.221 326,-328.5 329.083,-330.507 332.401,-332.327 335.827,-333.971"/>
<polygon fill="#63b8ff" stroke="#63b8ff" points="334.487,-337.204 345.057,-337.923 337.242,-330.77 334.487,-337.204"/>
</a>
</g>
</g>
<!-- Node20 -->
<g id="Node000020" class="node"><title>Node20</title>
<g id="a_Node000020"><a xlink:href="group___t_set.html#ga2a711b02282ff309c0d6a4fdcfbac738" target="_top" xlink:title="Odstranění elementu z množiny.">
<polygon fill="white" stroke="#666666" points="412,-20 353,-20 353,-1 412,-1 412,-20"/>
<text text-anchor="middle" x="382.5" y="-8" font-family="Helvetica,sans-Serif" font-size="10.00">set_erase</text>
</a>
</g>
</g>
<!-- Node19&#45;&gt;Node20 -->
<g id="edge25_Node000019_Node000020" class="edge"><title>Node19&#45;&gt;Node20</title>
<g id="a_edge25_Node000019_Node000020"><a xlink:title=" ">
<path fill="none" stroke="#63b8ff" d="M241.18,-225.639C245.647,-192.681 264.515,-85.2451 326,-28.5 330.836,-24.0367 336.792,-20.6795 342.988,-18.1544"/>
<polygon fill="#63b8ff" stroke="#63b8ff" points="344.447,-21.3555 352.796,-14.8321 342.202,-14.7256 344.447,-21.3555"/>
</a>
</g>
</g>
<!-- Node25 -->
<g id="Node000025" class="node"><title>Node25</title>
<g id="a_Node000025"><a xlink:href="group___t_set.html#ga0d1464cea78691ff9ad3dd1e32b55c60" target="_top" xlink:title="Vložení elementu do množiny.">
<polygon fill="white" stroke="#666666" points="412,-131 353,-131 353,-112 412,-112 412,-131"/>
<text text-anchor="middle" x="382.5" y="-119" font-family="Helvetica,sans-Serif" font-size="10.00">set_insert</text>
</a>
</g>
</g>
<!-- Node19&#45;&gt;Node25 -->
<g id="edge32_Node000019_Node000025" class="edge"><title>Node19&#45;&gt;Node25</title>
<g id="a_edge32_Node000019_Node000025"><a xlink:title=" ">
<path fill="none" stroke="#63b8ff" d="M247.052,-225.883C260.598,-207.979 291.945,-169.207 326,-145.5 331.615,-141.591 337.968,-138.117 344.319,-135.11"/>
<polygon fill="#63b8ff" stroke="#63b8ff" points="345.802,-138.281 353.538,-131.041 342.976,-131.877 345.802,-138.281"/>
</a>
</g>
</g>
<!-- Node27 -->
<g id="Node000027" class="node"><title>Node27</title>
<g id="a_Node000027"><a xlink:href="group___t_set.html#ga768d36614713a921e88985484ac63cc1" target="_top" xlink:title="Zjištění, zda množina obsahuje zadanou hodnotu elementu.">
<polygon fill="white" stroke="#666666" points="430,-94 335,-94 335,-75 430,-75 430,-94"/>
<text text-anchor="middle" x="382.5" y="-82" font-family="Helvetica,sans-Serif" font-size="10.00">set_is_element_of</text>
</a>
</g>
</g>
<!-- Node19&#45;&gt;Node27 -->
<g id="edge35_Node000019_Node000027" class="edge"><title>Node19&#45;&gt;Node27</title>
<g id="a_edge35_Node000019_Node000027"><a xlink:title=" ">
<path fill="none" stroke="#63b8ff" d="M243.558,-225.857C253.044,-201.471 281.304,-136.847 326,-102.5 327.795,-101.121 329.699,-99.8454 331.68,-98.666"/>
<polygon fill="#63b8ff" stroke="#63b8ff" points="333.404,-101.716 340.754,-94.0863 330.25,-95.4671 333.404,-101.716"/>
</a>
</g>
</g>
<!-- Node28 -->
<g id="Node000028" class="node"><title>Node28</title>
<g id="a_Node000028"><a xlink:href="group___t_set.html#ga2f7fd9486a5c300158d70dc79c6c6c8f" target="_top" xlink:title="Zjištění, zda je množina prázdná">
<polygon fill="white" stroke="#666666" points="420,-57 345,-57 345,-38 420,-38 420,-57"/>
<text text-anchor="middle" x="382.5" y="-45" font-family="Helvetica,sans-Serif" font-size="10.00">set_is_empty</text>
</a>
</g>
</g>
<!-- Node19&#45;&gt;Node28 -->
<g id="edge38_Node000019_Node000028" class="edge"><title>Node19&#45;&gt;Node28</title>
<g id="a_edge38_Node000019_Node000028"><a xlink:title=" ">
<path fill="none" stroke="#63b8ff" d="M242.123,-225.795C248.939,-196.944 272.985,-110.887 326,-65.5 328.902,-63.0152 332.154,-60.8719 335.59,-59.0233"/>
<polygon fill="#63b8ff" stroke="#63b8ff" points="337.317,-62.0839 344.998,-54.7865 334.443,-55.7012 337.317,-62.0839"/>
</a>
</g>
</g>
<!-- Node21 -->
<g id="Node000021" class="node"><title>Node21</title>
<g id="a_Node000021"><a xlink:href="group___t_set_unsorted_flex_array.html#ga85a89d1ea648e9219f9c904727c8f7ef" target="_top" xlink:title="Odstranění elementu z flexibilního pole.">
<polygon fill="white" stroke="#666666" points="592,-19 485,-19 485,-0 592,-0 592,-19"/>
<text text-anchor="middle" x="538.5" y="-7" font-family="Helvetica,sans-Serif" font-size="10.00">set_flex_array_erase</text>
</a>
</g>
</g>
<!-- Node20&#45;&gt;Node21 -->
<g id="edge26_Node000020_Node000021" class="edge"><title>Node20&#45;&gt;Node21</title>
<g id="a_edge26_Node000020_Node000021"><a xlink:title=" ">
<path fill="none" stroke="#63b8ff" d="M412.105,-10.3143C429.677,-10.2002 452.902,-10.0493 474.585,-9.90854"/>
<polygon fill="#63b8ff" stroke="#63b8ff" points="474.766,-13.4075 484.743,-9.84258 474.72,-6.40769 474.766,-13.4075"/>
</a>
</g>
</g>
<!-- Node24 -->
<g id="Node000024" class="node"><title>Node24</title>
<g id="a_Node000024"><a xlink:href="group___t_set.html#ga213cfb714cece49d955fc452b2aeb186" target="_top" xlink:title="Přečtení počtu elementů množiny.">
<polygon fill="white" stroke="#666666" points="565,-56 512,-56 512,-37 565,-37 565,-56"/>
<text text-anchor="middle" x="538.5" y="-44" font-family="Helvetica,sans-Serif" font-size="10.00">set_size</text>
</a>
</g>
</g>
<!-- Node20&#45;&gt;Node24 -->
<g id="edge29_Node000020_Node000024" class="edge"><title>Node20&#45;&gt;Node24</title>
<g id="a_edge29_Node000020_Node000024"><a xlink:title=" ">
<path fill="none" stroke="#63b8ff" d="M412.105,-17.187C437.404,-23.1009 474.424,-31.7549 501.685,-38.1276"/>
<polygon fill="#63b8ff" stroke="#63b8ff" points="501.076,-41.5795 511.61,-40.4478 502.669,-34.7633 501.076,-41.5795"/>
</a>
</g>
</g>
<!-- Node22 -->
<g id="Node000022" class="node"><title>Node22</title>
<g id="a_Node000022"><a xlink:href="group___t_set_unsorted_flex_array.html#ga5d5631db0bf286d944f4e538a072c2eb" target="_top" xlink:title="Funkce zjišťující, zda flexibilní pole obsahuje element o zadané hodnotě">
<polygon fill="white" stroke="#666666" points="755,-94 643,-94 643,-75 755,-75 755,-94"/>
<text text-anchor="middle" x="699" y="-82" font-family="Helvetica,sans-Serif" font-size="10.00">set_flex_array_search</text>
</a>
</g>
</g>
<!-- Node21&#45;&gt;Node22 -->
<g id="edge27_Node000021_Node000022" class="edge"><title>Node21&#45;&gt;Node22</title>
<g id="a_edge27_Node000021_Node000022"><a xlink:title=" ">
<path fill="none" stroke="#63b8ff" d="M578.384,-19.0288C586.329,-21.4379 594.538,-24.2734 602,-27.5 628.603,-39.003 656.882,-56.5153 675.802,-69.0922"/>
<polygon fill="#63b8ff" stroke="#63b8ff" points="674.043,-72.1278 684.29,-74.8219 677.959,-66.326 674.043,-72.1278"/>
</a>
</g>
</g>
<!-- Node23 -->
<g id="Node000023" class="node"><title>Node23</title>
<g id="a_Node000023"><a xlink:href="group___t_set_element.html#gad8cfc9a36f36c44c10b660c5b370f67e" target="_top" xlink:title="Porovnání dvou elementů">
<polygon fill="white" stroke="#666666" points="925.5,-94 801.5,-94 801.5,-75 925.5,-75 925.5,-94"/>
<text text-anchor="middle" x="863.5" y="-82" font-family="Helvetica,sans-Serif" font-size="10.00">set_element_comparator</text>
</a>
</g>
</g>
<!-- Node22&#45;&gt;Node23 -->
<g id="edge28_Node000022_Node000023" class="edge"><title>Node22&#45;&gt;Node23</title>
<g id="a_edge28_Node000022_Node000023"><a xlink:title=" ">
<path fill="none" stroke="#63b8ff" d="M755.015,-84.5C766.668,-84.5 779.128,-84.5 791.284,-84.5"/>
<polygon fill="#63b8ff" stroke="#63b8ff" points="791.399,-88.0001 801.399,-84.5 791.398,-81.0001 791.399,-88.0001"/>
</a>
</g>
</g>
<!-- Node26 -->
<g id="Node000026" class="node"><title>Node26</title>
<g id="a_Node000026"><a xlink:href="group___t_set_unsorted_flex_array.html#gadd504f9127a4e850da202073bddd6024" target="_top" xlink:title="Vložení elementu do flexibilního pole.">
<polygon fill="white" stroke="#666666" points="592,-132 485,-132 485,-113 592,-113 592,-132"/>
<text text-anchor="middle" x="538.5" y="-120" font-family="Helvetica,sans-Serif" font-size="10.00">set_flex_array_insert</text>
</a>
</g>
</g>
<!-- Node25&#45;&gt;Node26 -->
<g id="edge33_Node000025_Node000026" class="edge"><title>Node25&#45;&gt;Node26</title>
<g id="a_edge33_Node000025_Node000026"><a xlink:title=" ">
<path fill="none" stroke="#63b8ff" d="M412.105,-121.686C429.677,-121.8 452.902,-121.951 474.585,-122.091"/>
<polygon fill="#63b8ff" stroke="#63b8ff" points="474.72,-125.592 484.743,-122.157 474.766,-118.592 474.72,-125.592"/>
</a>
</g>
</g>
<!-- Node26&#45;&gt;Node22 -->
<g id="edge34_Node000026_Node000022" class="edge"><title>Node26&#45;&gt;Node22</title>
<g id="a_edge34_Node000026_Node000022"><a xlink:title=" ">
<path fill="none" stroke="#63b8ff" d="M579.496,-112.911C600.412,-107.896 626.208,-101.712 648.386,-96.3947"/>
<polygon fill="#63b8ff" stroke="#63b8ff" points="649.383,-99.7551 658.291,-94.0201 647.751,-92.948 649.383,-99.7551"/>
</a>
</g>
</g>
<!-- Node27&#45;&gt;Node22 -->
<g id="edge36_Node000027_Node000022" class="edge"><title>Node27&#45;&gt;Node22</title>
<g id="a_edge36_Node000027_Node000022"><a xlink:title=" ">
<path fill="none" stroke="#63b8ff" d="M430.244,-84.5C483.866,-84.5 572.153,-84.5 632.584,-84.5"/>
<polygon fill="#63b8ff" stroke="#63b8ff" points="632.78,-88.0001 642.78,-84.5 632.78,-81.0001 632.78,-88.0001"/>
</a>
</g>
</g>
<!-- Node27&#45;&gt;Node24 -->
<g id="edge37_Node000027_Node000024" class="edge"><title>Node27&#45;&gt;Node24</title>
<g id="a_edge37_Node000027_Node000024"><a xlink:title=" ">
<path fill="none" stroke="#63b8ff" d="M422.361,-74.911C446.733,-68.8971 477.925,-61.2004 501.694,-55.3351"/>
<polygon fill="#63b8ff" stroke="#63b8ff" points="502.843,-58.6569 511.713,-52.863 501.166,-51.8607 502.843,-58.6569"/>
</a>
</g>
</g>
<!-- Node28&#45;&gt;Node24 -->
<g id="edge39_Node000028_Node000024" class="edge"><title>Node28&#45;&gt;Node24</title>
<g id="a_edge39_Node000028_Node000024"><a xlink:title=" ">
<path fill="none" stroke="#63b8ff" d="M420.387,-47.2605C445.036,-47.1004 477.294,-46.8909 501.712,-46.7324"/>
<polygon fill="#63b8ff" stroke="#63b8ff" points="502.011,-50.2306 511.988,-46.6657 501.965,-43.2308 502.011,-50.2306"/>
</a>
</g>
</g>
</g>
</svg>
