<?xml version="1.0" encoding="UTF-8" standalone="no"?>
<!DOCTYPE svg PUBLIC "-//W3C//DTD SVG 1.1//EN"
 "http://www.w3.org/Graphics/SVG/1.1/DTD/svg11.dtd">
<!-- Generated by graphviz version 2.38.0 (20140413.2041)
 -->
<!-- Title: set_insert Pages: 1 -->
<svg width="518pt" height="27pt"
 viewBox="0.00 0.00 518.00 27.00" xmlns="http://www.w3.org/2000/svg" xmlns:xlink="http://www.w3.org/1999/xlink">
<g id="graph0" class="graph" transform="scale(1 1) rotate(0) translate(4 23)">
<title>set_insert</title>
<!-- Node1 -->
<g id="Node000001" class="node"><title>Node1</title>
<g id="a_Node000001"><a xlink:title="Vložení elementu do množiny.">
<polygon fill="#999999" stroke="#666666" points="59,-19 0,-19 0,-0 59,-0 59,-19"/>
<text text-anchor="middle" x="29.5" y="-7" font-family="Helvetica,sans-Serif" font-size="10.00">set_insert</text>
</a>
</g>
</g>
<!-- Node2 -->
<g id="Node000002" class="node"><title>Node2</title>
<g id="a_Node000002"><a xlink:href="group___t_set_unsorted_flex_array.html#gadd504f9127a4e850da202073bddd6024" target="_top" xlink:title="Vložení elementu do flexibilního pole.">
<polygon fill="white" stroke="#666666" points="202,-19 95,-19 95,-0 202,-0 202,-19"/>
<text text-anchor="middle" x="148.5" y="-7" font-family="Helvetica,sans-Serif" font-size="10.00">set_flex_array_insert</text>
</a>
</g>
</g>
<!-- Node1&#45;&gt;Node2 -->
<g id="edge1_Node000001_Node000002" class="edge"><title>Node1&#45;&gt;Node2</title>
<g id="a_edge1_Node000001_Node000002"><a xlink:title=" ">
<path fill="none" stroke="#63b8ff" d="M59.1214,-9.5C66.9859,-9.5 75.8353,-9.5 84.8168,-9.5"/>
<polygon fill="#63b8ff" stroke="#63b8ff" points="84.9679,-13.0001 94.9679,-9.5 84.9678,-6.0001 84.9679,-13.0001"/>
</a>
</g>
</g>
<!-- Node3 -->
<g id="Node000003" class="node"><title>Node3</title>
<g id="a_Node000003"><a xlink:href="group___t_set_unsorted_flex_array.html#ga5d5631db0bf286d944f4e538a072c2eb" target="_top" xlink:title="Funkce zjišťující, zda flexibilní pole obsahuje element o zadané hodnotě">
<polygon fill="white" stroke="#666666" points="350,-19 238,-19 238,-0 350,-0 350,-19"/>
<text text-anchor="middle" x="294" y="-7" font-family="Helvetica,sans-Serif" font-size="10.00">set_flex_array_search</text>
</a>
</g>
</g>
<!-- Node2&#45;&gt;Node3 -->
<g id="edge2_Node000002_Node000003" class="edge"><title>Node2&#45;&gt;Node3</title>
<g id="a_edge2_Node000002_Node000003"><a xlink:title=" ">
<path fill="none" stroke="#63b8ff" d="M202.119,-9.5C210.513,-9.5 219.284,-9.5 227.925,-9.5"/>
<polygon fill="#63b8ff" stroke="#63b8ff" points="227.978,-13.0001 237.978,-9.5 227.978,-6.0001 227.978,-13.0001"/>
</a>
</g>
</g>
<!-- Node4 -->
<g id="Node000004" class="node"><title>Node4</title>
<g id="a_Node000004"><a xlink:href="group___t_set_element.html#gad8cfc9a36f36c44c10b660c5b370f67e" target="_top" xlink:title="Porovnání dvou elementů">
<polygon fill="white" stroke="#666666" points="510,-19 386,-19 386,-0 510,-0 510,-19"/>
<text text-anchor="middle" x="448" y="-7" font-family="Helvetica,sans-Serif" font-size="10.00">set_element_comparator</text>
</a>
</g>
</g>
<!-- Node3&#45;&gt;Node4 -->
<g id="edge3_Node000003_Node000004" class="edge"><title>Node3&#45;&gt;Node4</title>
<g id="a_edge3_Node000003_Node000004"><a xlink:title=" ">
<path fill="none" stroke="#63b8ff" d="M350.305,-9.5C358.513,-9.5 367.068,-9.5 375.548,-9.5"/>
<polygon fill="#63b8ff" stroke="#63b8ff" points="375.826,-13.0001 385.826,-9.5 375.826,-6.0001 375.826,-13.0001"/>
</a>
</g>
</g>
</g>
</svg>
