<?xml version="1.0" encoding="UTF-8" standalone="no"?>
<!DOCTYPE svg PUBLIC "-//W3C//DTD SVG 1.1//EN"
 "http://www.w3.org/Graphics/SVG/1.1/DTD/svg11.dtd">
<!-- Generated by graphviz version 2.38.0 (20140413.2041)
 -->
<!-- Title: set_find_if Pages: 1 -->
<svg width="536pt" height="103pt"
 viewBox="0.00 0.00 536.00 103.00" xmlns="http://www.w3.org/2000/svg" xmlns:xlink="http://www.w3.org/1999/xlink">
<g id="graph0" class="graph" transform="scale(1 1) rotate(0) translate(4 99)">
<title>set_find_if</title>
<!-- Node1 -->
<g id="Node000001" class="node"><title>Node1</title>
<g id="a_Node000001"><a xlink:title="Vyhledání prvního elementu množiny splňujícího zadaný predikát.">
<polygon fill="#999999" stroke="#666666" points="60,-76 0,-76 0,-57 60,-57 60,-76"/>
<text text-anchor="middle" x="30" y="-64" font-family="Helvetica,sans-Serif" font-size="10.00">set_find_if</text>
</a>
</g>
</g>
<!-- Node2 -->
<g id="Node000002" class="node"><title>Node2</title>
<g id="a_Node000002"><a xlink:href="group___t_set_iterator.html#ga089f24c81ac3da7d1ac7ca24cc078dd8" target="_top" xlink:title="Zjištění platnosti iterátoru.">
<polygon fill="white" stroke="#666666" points="347,-95 245,-95 245,-76 347,-76 347,-95"/>
<text text-anchor="middle" x="296" y="-83" font-family="Helvetica,sans-Serif" font-size="10.00">set_iterator_is_valid</text>
</a>
</g>
</g>
<!-- Node1&#45;&gt;Node2 -->
<g id="edge1_Node000001_Node000002" class="edge"><title>Node1&#45;&gt;Node2</title>
<g id="a_edge1_Node000001_Node000002"><a xlink:title=" ">
<path fill="none" stroke="#63b8ff" d="M60.0078,-68.5877C101.785,-71.5944 179.868,-77.214 234.519,-81.1472"/>
<polygon fill="#63b8ff" stroke="#63b8ff" points="234.553,-84.6586 244.778,-81.8855 235.055,-77.6766 234.553,-84.6586"/>
</a>
</g>
</g>
<!-- Node4 -->
<g id="Node000004" class="node"><title>Node4</title>
<g id="a_Node000004"><a xlink:href="group___t_set_iterator.html#ga6723a05c864198597ff49718020bd0d6" target="_top" xlink:title="Posunutí iterátoru vpřed.">
<polygon fill="white" stroke="#666666" points="199,-57 96,-57 96,-38 199,-38 199,-57"/>
<text text-anchor="middle" x="147.5" y="-45" font-family="Helvetica,sans-Serif" font-size="10.00">set_iterator_to_next</text>
</a>
</g>
</g>
<!-- Node1&#45;&gt;Node4 -->
<g id="edge3_Node000001_Node000004" class="edge"><title>Node1&#45;&gt;Node4</title>
<g id="a_edge3_Node000001_Node000004"><a xlink:title=" ">
<path fill="none" stroke="#63b8ff" d="M60.1455,-61.7055C68.0114,-60.4115 76.8244,-58.9618 85.7335,-57.4962"/>
<polygon fill="#63b8ff" stroke="#63b8ff" points="86.4883,-60.9192 95.7875,-55.8423 85.352,-54.012 86.4883,-60.9192"/>
</a>
</g>
</g>
<!-- Node3 -->
<g id="Node000003" class="node"><title>Node3</title>
<g id="a_Node000003"><a xlink:href="group___t_set_unsorted_flex_array.html#gad3346f67be35632c3b0fbd9ea616a0c1" target="_top" xlink:title="Zjištění platnosti pozice ve flexibilním poli.">
<polygon fill="white" stroke="#666666" points="528,-76 393,-76 393,-57 528,-57 528,-76"/>
<text text-anchor="middle" x="460.5" y="-64" font-family="Helvetica,sans-Serif" font-size="10.00">set_flex_array_is_valid_pos</text>
</a>
</g>
</g>
<!-- Node2&#45;&gt;Node3 -->
<g id="edge2_Node000002_Node000003" class="edge"><title>Node2&#45;&gt;Node3</title>
<g id="a_edge2_Node000002_Node000003"><a xlink:title=" ">
<path fill="none" stroke="#63b8ff" d="M347.081,-79.6443C358.374,-78.324 370.613,-76.8929 382.72,-75.4774"/>
<polygon fill="#63b8ff" stroke="#63b8ff" points="383.309,-78.9325 392.834,-74.2947 382.496,-71.9798 383.309,-78.9325"/>
</a>
</g>
</g>
<!-- Node4&#45;&gt;Node2 -->
<g id="edge6_Node000004_Node000002" class="edge"><title>Node4&#45;&gt;Node2</title>
<g id="a_edge6_Node000004_Node000002"><a xlink:title=" ">
<path fill="none" stroke="#63b8ff" d="M185.468,-57.089C204.626,-62.0583 228.214,-68.1767 248.588,-73.4613"/>
<polygon fill="#63b8ff" stroke="#63b8ff" points="247.739,-76.857 258.298,-75.9799 249.497,-70.0812 247.739,-76.857"/>
</a>
</g>
</g>
<!-- Node4&#45;&gt;Node3 -->
<g id="edge4_Node000004_Node000003" class="edge"><title>Node4&#45;&gt;Node3</title>
<g id="a_edge4_Node000004_Node000003"><a xlink:title=" ">
<path fill="none" stroke="#63b8ff" d="M199.16,-50.595C248.926,-53.6354 325.511,-58.3142 382.752,-61.8112"/>
<polygon fill="#63b8ff" stroke="#63b8ff" points="382.648,-65.3113 392.843,-62.4277 383.075,-58.3243 382.648,-65.3113"/>
</a>
</g>
</g>
<!-- Node5 -->
<g id="Node000005" class="node"><title>Node5</title>
<g id="a_Node000005"><a xlink:href="group___t_set_unsorted_flex_array.html#ga8bc0de187146b066ae844c2278b6e198" target="_top" xlink:title="Výpočet následující platné pozice ve flexibilním poli.">
<polygon fill="white" stroke="#666666" points="357,-19 235,-19 235,-0 357,-0 357,-19"/>
<text text-anchor="middle" x="296" y="-7" font-family="Helvetica,sans-Serif" font-size="10.00">set_flex_array_next_pos</text>
</a>
</g>
</g>
<!-- Node4&#45;&gt;Node5 -->
<g id="edge5_Node000004_Node000005" class="edge"><title>Node4&#45;&gt;Node5</title>
<g id="a_edge5_Node000004_Node000005"><a xlink:title=" ">
<path fill="none" stroke="#63b8ff" d="M185.468,-37.911C204.626,-32.9417 228.214,-26.8233 248.588,-21.5387"/>
<polygon fill="#63b8ff" stroke="#63b8ff" points="249.497,-24.9188 258.298,-19.0201 247.739,-18.143 249.497,-24.9188"/>
</a>
</g>
</g>
</g>
</svg>
