<?xml version="1.0" encoding="UTF-8" standalone="no"?>
<!DOCTYPE svg PUBLIC "-//W3C//DTD SVG 1.1//EN"
 "http://www.w3.org/Graphics/SVG/1.1/DTD/svg11.dtd">
<!-- Generated by graphviz version 2.38.0 (20140413.2041)
 -->
<!-- Title: main.c Pages: 1 -->
<svg width="411pt" height="302pt"
 viewBox="0.00 0.00 410.50 302.00" xmlns="http://www.w3.org/2000/svg" xmlns:xlink="http://www.w3.org/1999/xlink">
<g id="graph0" class="graph" transform="scale(1 1) rotate(0) translate(4 298)">
<title>main.c</title>
<!-- Node1 -->
<g id="Node000001" class="node"><title>Node1</title>
<g id="a_Node000001"><a xlink:title="Hlavní program pro testování ADT TSet.">
<polygon fill="#999999" stroke="#666666" points="259,-294 213,-294 213,-275 259,-275 259,-294"/>
<text text-anchor="middle" x="236" y="-282" font-family="Helvetica,sans-Serif" font-size="10.00">main.c</text>
</a>
</g>
</g>
<!-- Node2 -->
<g id="Node000002" class="node"><title>Node2</title>
<g id="a_Node000002"><a xlink:title=" ">
<polygon fill="#e0e0e0" stroke="#999999" points="46,-19 0,-19 0,-0 46,-0 46,-19"/>
<text text-anchor="middle" x="23" y="-7" font-family="Helvetica,sans-Serif" font-size="10.00">stdio.h</text>
</a>
</g>
</g>
<!-- Node1&#45;&gt;Node2 -->
<g id="edge1_Node000001_Node000002" class="edge"><title>Node1&#45;&gt;Node2</title>
<g id="a_edge1_Node000001_Node000002"><a xlink:title=" ">
<path fill="none" stroke="#63b8ff" d="M212.77,-282.035C158.895,-277.254 30,-257.271 30,-175.5 30,-175.5 30,-175.5 30,-118.5 30,-87.124 27.0216,-50.7278 24.9503,-29.211"/>
<polygon fill="#63b8ff" stroke="#63b8ff" points="28.4236,-28.7684 23.9441,-19.1671 21.4585,-29.4662 28.4236,-28.7684"/>
</a>
</g>
</g>
<!-- Node3 -->
<g id="Node000003" class="node"><title>Node3</title>
<g id="a_Node000003"><a xlink:href="testbench_8h.html" target="_top" xlink:title="Definice testbench API pro testování operací zvoleného ADT.">
<polygon fill="white" stroke="#666666" points="301,-239 233,-239 233,-220 301,-220 301,-239"/>
<text text-anchor="middle" x="267" y="-227" font-family="Helvetica,sans-Serif" font-size="10.00">testbench.h</text>
</a>
</g>
</g>
<!-- Node1&#45;&gt;Node3 -->
<g id="edge2_Node000001_Node000003" class="edge"><title>Node1&#45;&gt;Node3</title>
<g id="a_edge2_Node000001_Node000003"><a xlink:title=" ">
<path fill="none" stroke="#63b8ff" d="M241.119,-274.748C245.362,-267.493 251.527,-256.954 256.775,-247.981"/>
<polygon fill="#63b8ff" stroke="#63b8ff" points="259.949,-249.488 261.976,-239.089 253.906,-245.954 259.949,-249.488"/>
</a>
</g>
</g>
<!-- Node5 -->
<g id="Node000005" class="node"><title>Node5</title>
<g id="a_Node000005"><a xlink:href="_t_set_8h.html" target="_top" xlink:title="Definice typu Set &#45; (realizace množiny pomocí nesetříděného flexibilního dynamicky alokovaného pole)">
<polygon fill="white" stroke="#666666" points="258.5,-184 213.5,-184 213.5,-165 258.5,-165 258.5,-184"/>
<text text-anchor="middle" x="236" y="-172" font-family="Helvetica,sans-Serif" font-size="10.00">TSet.h</text>
</a>
</g>
</g>
<!-- Node1&#45;&gt;Node5 -->
<g id="edge17_Node000001_Node000005" class="edge"><title>Node1&#45;&gt;Node5</title>
<g id="a_edge17_Node000001_Node000005"><a xlink:title=" ">
<path fill="none" stroke="#63b8ff" d="M232.912,-274.774C229.948,-265.902 225.681,-251.692 224,-239 221.972,-223.688 225.595,-206.48 229.379,-193.844"/>
<polygon fill="#63b8ff" stroke="#63b8ff" points="232.791,-194.672 232.606,-184.079 226.145,-192.475 232.791,-194.672"/>
</a>
</g>
</g>
<!-- Node12 -->
<g id="Node000012" class="node"><title>Node12</title>
<g id="a_Node000012"><a xlink:href="testplan__set2_8h.html" target="_top" xlink:title=" ">
<polygon fill="white" stroke="#666666" points="402.5,-239 319.5,-239 319.5,-220 402.5,-220 402.5,-239"/>
<text text-anchor="middle" x="361" y="-227" font-family="Helvetica,sans-Serif" font-size="10.00">testplan_set2.h</text>
</a>
</g>
</g>
<!-- Node1&#45;&gt;Node12 -->
<g id="edge18_Node000001_Node000012" class="edge"><title>Node1&#45;&gt;Node12</title>
<g id="a_edge18_Node000001_Node000012"><a xlink:title=" ">
<path fill="none" stroke="#63b8ff" d="M256.083,-274.985C276.373,-266.382 307.955,-252.991 331.171,-243.147"/>
<polygon fill="#63b8ff" stroke="#63b8ff" points="332.711,-246.296 340.551,-239.17 329.978,-239.852 332.711,-246.296"/>
</a>
</g>
</g>
<!-- Node4 -->
<g id="Node000004" class="node"><title>Node4</title>
<g id="a_Node000004"><a xlink:title=" ">
<polygon fill="#e0e0e0" stroke="#999999" points="341,-19 285,-19 285,-0 341,-0 341,-19"/>
<text text-anchor="middle" x="313" y="-7" font-family="Helvetica,sans-Serif" font-size="10.00">stdbool.h</text>
</a>
</g>
</g>
<!-- Node3&#45;&gt;Node4 -->
<g id="edge3_Node000003_Node000004" class="edge"><title>Node3&#45;&gt;Node4</title>
<g id="a_edge3_Node000003_Node000004"><a xlink:title=" ">
<path fill="none" stroke="#63b8ff" d="M271.489,-219.756C283.047,-196.69 313.646,-131.978 324,-74 326.708,-58.8365 323.322,-41.6176 319.613,-28.9393"/>
<polygon fill="#63b8ff" stroke="#63b8ff" points="322.844,-27.5552 316.416,-19.1326 316.188,-29.7249 322.844,-27.5552"/>
</a>
</g>
</g>
<!-- Node3&#45;&gt;Node5 -->
<g id="edge4_Node000003_Node000005" class="edge"><title>Node3&#45;&gt;Node5</title>
<g id="a_edge4_Node000003_Node000005"><a xlink:title=" ">
<path fill="none" stroke="#63b8ff" d="M261.881,-219.748C257.638,-212.493 251.473,-201.954 246.225,-192.981"/>
<polygon fill="#63b8ff" stroke="#63b8ff" points="249.094,-190.954 241.024,-184.089 243.051,-194.488 249.094,-190.954"/>
</a>
</g>
</g>
<!-- Node5&#45;&gt;Node4 -->
<g id="edge5_Node000005_Node000004" class="edge"><title>Node5&#45;&gt;Node4</title>
<g id="a_edge5_Node000005_Node000004"><a xlink:title=" ">
<path fill="none" stroke="#63b8ff" d="M246.355,-164.725C255.91,-156.26 270.079,-142.742 280,-129 296.056,-106.761 300.558,-100.401 308,-74 312.089,-59.4946 313.241,-42.4375 313.425,-29.6562"/>
<polygon fill="#63b8ff" stroke="#63b8ff" points="316.923,-29.3001 313.378,-19.3162 309.923,-29.3321 316.923,-29.3001"/>
</a>
</g>
</g>
<!-- Node6 -->
<g id="Node000006" class="node"><title>Node6</title>
<g id="a_Node000006"><a xlink:title=" ">
<polygon fill="#e0e0e0" stroke="#999999" points="299.5,-74 248.5,-74 248.5,-55 299.5,-55 299.5,-74"/>
<text text-anchor="middle" x="274" y="-62" font-family="Helvetica,sans-Serif" font-size="10.00">stddef.h</text>
</a>
</g>
</g>
<!-- Node5&#45;&gt;Node6 -->
<g id="edge6_Node000005_Node000006" class="edge"><title>Node5&#45;&gt;Node6</title>
<g id="a_edge6_Node000005_Node000006"><a xlink:title=" ">
<path fill="none" stroke="#63b8ff" d="M242.639,-164.807C248.88,-156.188 257.991,-142.37 263,-129 268.404,-114.576 271.177,-97.3008 272.586,-84.413"/>
<polygon fill="#63b8ff" stroke="#63b8ff" points="276.076,-84.6767 273.505,-74.3987 269.105,-84.037 276.076,-84.6767"/>
</a>
</g>
</g>
<!-- Node7 -->
<g id="Node000007" class="node"><title>Node7</title>
<g id="a_Node000007"><a xlink:href="_t_set_unsorted_flex_array_8h.html" target="_top" xlink:title="Deklarace typu SetUnsortedFlexArray a jeho API pro realizaci množiny pomocí nesetříděného flexibilníh...">
<polygon fill="white" stroke="#666666" points="254,-129 128,-129 128,-110 254,-110 254,-129"/>
<text text-anchor="middle" x="191" y="-117" font-family="Helvetica,sans-Serif" font-size="10.00">TSetUnsortedFlexArray.h</text>
</a>
</g>
</g>
<!-- Node5&#45;&gt;Node7 -->
<g id="edge7_Node000005_Node000007" class="edge"><title>Node5&#45;&gt;Node7</title>
<g id="a_edge7_Node000005_Node000007"><a xlink:title=" ">
<path fill="none" stroke="#63b8ff" d="M228.569,-164.748C222.147,-157.185 212.694,-146.051 204.878,-136.845"/>
<polygon fill="#63b8ff" stroke="#63b8ff" points="207.433,-134.447 198.293,-129.089 202.097,-138.977 207.433,-134.447"/>
</a>
</g>
</g>
<!-- Node11 -->
<g id="Node000011" class="node"><title>Node11</title>
<g id="a_Node000011"><a xlink:title=" ">
<polygon fill="#e0e0e0" stroke="#999999" points="115.5,-19 64.5,-19 64.5,-0 115.5,-0 115.5,-19"/>
<text text-anchor="middle" x="90" y="-7" font-family="Helvetica,sans-Serif" font-size="10.00">check.h</text>
</a>
</g>
</g>
<!-- Node5&#45;&gt;Node11 -->
<g id="edge16_Node000005_Node000011" class="edge"><title>Node5&#45;&gt;Node11</title>
<g id="a_edge16_Node000005_Node000011"><a xlink:title=" ">
<path fill="none" stroke="#63b8ff" d="M213.43,-170.783C187.22,-166.456 144.351,-155.575 119,-129 93.0211,-101.766 89.1353,-55.2422 89.1884,-29.3313"/>
<polygon fill="#63b8ff" stroke="#63b8ff" points="92.688,-29.3874 89.412,-19.3117 85.6897,-29.2311 92.688,-29.3874"/>
</a>
</g>
</g>
<!-- Node7&#45;&gt;Node4 -->
<g id="edge8_Node000007_Node000004" class="edge"><title>Node7&#45;&gt;Node4</title>
<g id="a_edge8_Node000007_Node000004"><a xlink:title=" ">
<path fill="none" stroke="#63b8ff" d="M196.026,-109.866C203.928,-96.8185 220.299,-71.819 239,-55 252.898,-42.5004 270.813,-31.6203 285.534,-23.7473"/>
<polygon fill="#63b8ff" stroke="#63b8ff" points="287.398,-26.7237 294.673,-19.0211 284.183,-20.506 287.398,-26.7237"/>
</a>
</g>
</g>
<!-- Node7&#45;&gt;Node6 -->
<g id="edge9_Node000007_Node000006" class="edge"><title>Node7&#45;&gt;Node6</title>
<g id="a_edge9_Node000007_Node000006"><a xlink:title=" ">
<path fill="none" stroke="#63b8ff" d="M204.335,-109.985C217.086,-101.843 236.553,-89.4119 251.67,-79.7587"/>
<polygon fill="#63b8ff" stroke="#63b8ff" points="253.877,-82.5021 260.422,-74.1703 250.11,-76.6024 253.877,-82.5021"/>
</a>
</g>
</g>
<!-- Node8 -->
<g id="Node000008" class="node"><title>Node8</title>
<g id="a_Node000008"><a xlink:href="_t_set_element_8h.html" target="_top" xlink:title="Definice typu Basic SetElement a implementace API.">
<polygon fill="white" stroke="#666666" points="191.5,-74 110.5,-74 110.5,-55 191.5,-55 191.5,-74"/>
<text text-anchor="middle" x="151" y="-62" font-family="Helvetica,sans-Serif" font-size="10.00">TSetElement.h</text>
</a>
</g>
</g>
<!-- Node7&#45;&gt;Node8 -->
<g id="edge10_Node000007_Node000008" class="edge"><title>Node7&#45;&gt;Node8</title>
<g id="a_edge10_Node000007_Node000008"><a xlink:title=" ">
<path fill="none" stroke="#63b8ff" d="M184.395,-109.748C178.745,-102.262 170.455,-91.2781 163.549,-82.1271"/>
<polygon fill="#63b8ff" stroke="#63b8ff" points="166.3,-79.9625 157.482,-74.089 160.713,-84.1794 166.3,-79.9625"/>
</a>
</g>
</g>
<!-- Node8&#45;&gt;Node2 -->
<g id="edge11_Node000008_Node000002" class="edge"><title>Node8&#45;&gt;Node2</title>
<g id="a_edge11_Node000008_Node000002"><a xlink:title=" ">
<path fill="none" stroke="#63b8ff" d="M130.435,-54.9846C109.565,-46.3434 77.0288,-32.8713 53.2269,-23.0158"/>
<polygon fill="#63b8ff" stroke="#63b8ff" points="54.5179,-19.7623 43.9396,-19.1703 51.8399,-26.2298 54.5179,-19.7623"/>
</a>
</g>
</g>
<!-- Node8&#45;&gt;Node4 -->
<g id="edge13_Node000008_Node000004" class="edge"><title>Node8&#45;&gt;Node4</title>
<g id="a_edge13_Node000008_Node000004"><a xlink:title=" ">
<path fill="none" stroke="#63b8ff" d="M177.028,-54.9846C204.108,-46.125 246.71,-32.1875 277.006,-22.2759"/>
<polygon fill="#63b8ff" stroke="#63b8ff" points="278.352,-25.5181 286.768,-19.0821 276.175,-18.8651 278.352,-25.5181"/>
</a>
</g>
</g>
<!-- Node9 -->
<g id="Node000009" class="node"><title>Node9</title>
<g id="a_Node000009"><a xlink:title=" ">
<polygon fill="#e0e0e0" stroke="#999999" points="252,-19 204,-19 204,-0 252,-0 252,-19"/>
<text text-anchor="middle" x="228" y="-7" font-family="Helvetica,sans-Serif" font-size="10.00">stdlib.h</text>
</a>
</g>
</g>
<!-- Node8&#45;&gt;Node9 -->
<g id="edge12_Node000008_Node000009" class="edge"><title>Node8&#45;&gt;Node9</title>
<g id="a_edge12_Node000008_Node000009"><a xlink:title=" ">
<path fill="none" stroke="#63b8ff" d="M163.371,-54.9846C175.089,-46.9194 192.92,-34.6461 206.887,-25.0327"/>
<polygon fill="#63b8ff" stroke="#63b8ff" points="209.151,-27.7232 215.404,-19.1703 205.182,-21.9571 209.151,-27.7232"/>
</a>
</g>
</g>
<!-- Node10 -->
<g id="Node000010" class="node"><title>Node10</title>
<g id="a_Node000010"><a xlink:title=" ">
<polygon fill="#e0e0e0" stroke="#999999" points="186,-19 134,-19 134,-0 186,-0 186,-19"/>
<text text-anchor="middle" x="160" y="-7" font-family="Helvetica,sans-Serif" font-size="10.00">assert.h</text>
</a>
</g>
</g>
<!-- Node8&#45;&gt;Node10 -->
<g id="edge14_Node000008_Node000010" class="edge"><title>Node8&#45;&gt;Node10</title>
<g id="a_edge14_Node000008_Node000010"><a xlink:title=" ">
<path fill="none" stroke="#63b8ff" d="M152.486,-54.7481C153.666,-47.8021 155.356,-37.8451 156.836,-29.1349"/>
<polygon fill="#63b8ff" stroke="#63b8ff" points="160.318,-29.5339 158.541,-19.089 153.417,-28.3619 160.318,-29.5339"/>
</a>
</g>
</g>
<!-- Node8&#45;&gt;Node11 -->
<g id="edge15_Node000008_Node000011" class="edge"><title>Node8&#45;&gt;Node11</title>
<g id="a_edge15_Node000008_Node000011"><a xlink:title=" ">
<path fill="none" stroke="#63b8ff" d="M141.199,-54.9846C132.182,-47.1499 118.594,-35.344 107.682,-25.863"/>
<polygon fill="#63b8ff" stroke="#63b8ff" points="109.823,-23.087 99.979,-19.1703 105.232,-28.3711 109.823,-23.087"/>
</a>
</g>
</g>
</g>
</svg>
