<?xml version="1.0" encoding="UTF-8" standalone="no"?>
<!DOCTYPE svg PUBLIC "-//W3C//DTD SVG 1.1//EN"
 "http://www.w3.org/Graphics/SVG/1.1/DTD/svg11.dtd">
<!-- Generated by graphviz version 2.38.0 (20140413.2041)
 -->
<!-- Title: TSetUnsortedFlexArray Pages: 1 -->
<svg width="141pt" height="80pt"
 viewBox="0.00 0.00 141.00 80.00" xmlns="http://www.w3.org/2000/svg" xmlns:xlink="http://www.w3.org/1999/xlink">
<g id="graph0" class="graph" transform="scale(1 1) rotate(0) translate(4 76)">
<title>TSetUnsortedFlexArray</title>
<!-- Node1 -->
<g id="Node000001" class="node"><title>Node1</title>
<g id="a_Node000001"><a xlink:title="Úplná definice privátního typu SetUnsortedFlexArray.">
<polygon fill="#999999" stroke="#666666" points="133,-72 0,-72 0,-0 133,-0 133,-72"/>
<text text-anchor="start" x="16" y="-56" font-family="Helvetica,sans-Serif" font-size="10.00">TSetUnsortedFlexArray</text>
<text text-anchor="start" x="12.5" y="-41" font-family="Helvetica,sans-Serif" font-size="10.00">+</text>
<text text-anchor="start" x="23.5" y="-41" font-family="Helvetica,sans-Serif" font-size="10.00">size_t iCapacity</text>
<text text-anchor="start" x="12.5" y="-26" font-family="Helvetica,sans-Serif" font-size="10.00">+</text>
<text text-anchor="start" x="23.5" y="-26" font-family="Helvetica,sans-Serif" font-size="10.00">TSetElement iElement</text>
<text text-anchor="start" x="65" y="-11" font-family="Helvetica,sans-Serif" font-size="10.00"> </text>
<polygon fill="#666666" stroke="#666666" points="8.5,-51 8.5,-51 125.5,-51 125.5,-51 8.5,-51"/>
<polygon fill="#666666" stroke="#666666" points="8.5,-21 8.5,-21 21.5,-21 21.5,-21 8.5,-21"/>
<polygon fill="#666666" stroke="#666666" points="21.5,-21 21.5,-21 125.5,-21 125.5,-21 21.5,-21"/>
<polygon fill="none" stroke="#666666" points="8,-4 8,-68 125,-68 125,-4 8,-4"/>
</a>
</g>
</g>
</g>
</svg>
