<?xml version="1.0" encoding="UTF-8" standalone="no"?>
<!DOCTYPE svg PUBLIC "-//W3C//DTD SVG 1.1//EN"
 "http://www.w3.org/Graphics/SVG/1.1/DTD/svg11.dtd">
<!-- Generated by graphviz version 2.38.0 (20140413.2041)
 -->
<!-- Title: testbench.h Pages: 1 -->
<svg width="340pt" height="247pt"
 viewBox="0.00 0.00 339.50 247.00" xmlns="http://www.w3.org/2000/svg" xmlns:xlink="http://www.w3.org/1999/xlink">
<g id="graph0" class="graph" transform="scale(1 1) rotate(0) translate(4 243)">
<title>testbench.h</title>
<!-- Node1 -->
<g id="Node000001" class="node"><title>Node1</title>
<g id="a_Node000001"><a xlink:title="Definice testbench API pro testování operací zvoleného ADT.">
<polygon fill="#999999" stroke="#666666" points="68,-239 0,-239 0,-220 68,-220 68,-239"/>
<text text-anchor="middle" x="34" y="-227" font-family="Helvetica,sans-Serif" font-size="10.00">testbench.h</text>
</a>
</g>
</g>
<!-- Node2 -->
<g id="Node000002" class="node"><title>Node2</title>
<g id="a_Node000002"><a xlink:title=" ">
<polygon fill="#e0e0e0" stroke="#999999" points="62,-19 6,-19 6,-0 62,-0 62,-19"/>
<text text-anchor="middle" x="34" y="-7" font-family="Helvetica,sans-Serif" font-size="10.00">stdbool.h</text>
</a>
</g>
</g>
<!-- Node1&#45;&gt;Node2 -->
<g id="edge1_Node000001_Node000002" class="edge"><title>Node1&#45;&gt;Node2</title>
<g id="a_edge1_Node000001_Node000002"><a xlink:title=" ">
<path fill="none" stroke="#63b8ff" d="M34,-219.954C34,-187.946 34,-74.6786 34,-29.4031"/>
<polygon fill="#63b8ff" stroke="#63b8ff" points="37.5001,-29.2236 34,-19.2237 30.5001,-29.2237 37.5001,-29.2236"/>
</a>
</g>
</g>
<!-- Node3 -->
<g id="Node000003" class="node"><title>Node3</title>
<g id="a_Node000003"><a xlink:href="_t_set_8h.html" target="_top" xlink:title="Definice typu Set &#45; (realizace množiny pomocí nesetříděného flexibilního dynamicky alokovaného pole)">
<polygon fill="white" stroke="#666666" points="94.5,-184 49.5,-184 49.5,-165 94.5,-165 94.5,-184"/>
<text text-anchor="middle" x="72" y="-172" font-family="Helvetica,sans-Serif" font-size="10.00">TSet.h</text>
</a>
</g>
</g>
<!-- Node1&#45;&gt;Node3 -->
<g id="edge2_Node000001_Node000003" class="edge"><title>Node1&#45;&gt;Node3</title>
<g id="a_edge2_Node000001_Node000003"><a xlink:title=" ">
<path fill="none" stroke="#63b8ff" d="M40.2749,-219.748C45.5871,-212.339 53.3555,-201.504 59.8754,-192.411"/>
<polygon fill="#63b8ff" stroke="#63b8ff" points="62.8594,-194.255 65.8418,-184.089 57.1705,-190.177 62.8594,-194.255"/>
</a>
</g>
</g>
<!-- Node3&#45;&gt;Node2 -->
<g id="edge3_Node000003_Node000002" class="edge"><title>Node3&#45;&gt;Node2</title>
<g id="a_edge3_Node000003_Node000002"><a xlink:title=" ">
<path fill="none" stroke="#63b8ff" d="M69.957,-164.736C64.0032,-139.198 46.5728,-64.4307 38.367,-29.2321"/>
<polygon fill="#63b8ff" stroke="#63b8ff" points="41.7322,-28.2511 36.0531,-19.3069 34.915,-29.8404 41.7322,-28.2511"/>
</a>
</g>
</g>
<!-- Node4 -->
<g id="Node000004" class="node"><title>Node4</title>
<g id="a_Node000004"><a xlink:title=" ">
<polygon fill="#e0e0e0" stroke="#999999" points="113.5,-74 62.5,-74 62.5,-55 113.5,-55 113.5,-74"/>
<text text-anchor="middle" x="88" y="-62" font-family="Helvetica,sans-Serif" font-size="10.00">stddef.h</text>
</a>
</g>
</g>
<!-- Node3&#45;&gt;Node4 -->
<g id="edge4_Node000003_Node000004" class="edge"><title>Node3&#45;&gt;Node4</title>
<g id="a_edge4_Node000003_Node000004"><a xlink:title=" ">
<path fill="none" stroke="#63b8ff" d="M73.3093,-164.662C75.9006,-147.171 81.7326,-107.805 85.2188,-84.2731"/>
<polygon fill="#63b8ff" stroke="#63b8ff" points="88.7139,-84.5634 86.7173,-74.1584 81.7895,-83.5375 88.7139,-84.5634"/>
</a>
</g>
</g>
<!-- Node5 -->
<g id="Node000005" class="node"><title>Node5</title>
<g id="a_Node000005"><a xlink:href="_t_set_unsorted_flex_array_8h.html" target="_top" xlink:title="Deklarace typu SetUnsortedFlexArray a jeho API pro realizaci množiny pomocí nesetříděného flexibilníh...">
<polygon fill="white" stroke="#666666" points="226,-129 100,-129 100,-110 226,-110 226,-129"/>
<text text-anchor="middle" x="163" y="-117" font-family="Helvetica,sans-Serif" font-size="10.00">TSetUnsortedFlexArray.h</text>
</a>
</g>
</g>
<!-- Node3&#45;&gt;Node5 -->
<g id="edge5_Node000003_Node000005" class="edge"><title>Node3&#45;&gt;Node5</title>
<g id="a_edge5_Node000003_Node000005"><a xlink:title=" ">
<path fill="none" stroke="#63b8ff" d="M86.6207,-164.985C100.864,-156.689 122.752,-143.941 139.451,-134.215"/>
<polygon fill="#63b8ff" stroke="#63b8ff" points="141.234,-137.228 148.113,-129.17 137.711,-131.179 141.234,-137.228"/>
</a>
</g>
</g>
<!-- Node10 -->
<g id="Node000010" class="node"><title>Node10</title>
<g id="a_Node000010"><a xlink:title=" ">
<polygon fill="#e0e0e0" stroke="#999999" points="331.5,-19 280.5,-19 280.5,-0 331.5,-0 331.5,-19"/>
<text text-anchor="middle" x="306" y="-7" font-family="Helvetica,sans-Serif" font-size="10.00">check.h</text>
</a>
</g>
</g>
<!-- Node3&#45;&gt;Node10 -->
<g id="edge14_Node000003_Node000010" class="edge"><title>Node3&#45;&gt;Node10</title>
<g id="a_edge14_Node000003_Node000010"><a xlink:title=" ">
<path fill="none" stroke="#63b8ff" d="M94.5999,-172.56C128.374,-170.091 192.575,-161.168 235,-129 269.433,-102.892 290.567,-54.835 300.066,-28.6577"/>
<polygon fill="#63b8ff" stroke="#63b8ff" points="303.376,-29.7932 303.334,-19.1984 296.76,-27.5074 303.376,-29.7932"/>
</a>
</g>
</g>
<!-- Node5&#45;&gt;Node2 -->
<g id="edge6_Node000005_Node000002" class="edge"><title>Node5&#45;&gt;Node2</title>
<g id="a_edge6_Node000005_Node000002"><a xlink:title=" ">
<path fill="none" stroke="#63b8ff" d="M159.153,-109.655C152.986,-96.3317 139.752,-70.9772 122,-55 106.539,-41.0848 85.9315,-30.3543 68.5453,-22.9201"/>
<polygon fill="#63b8ff" stroke="#63b8ff" points="69.8518,-19.673 59.2709,-19.1298 67.2036,-26.1528 69.8518,-19.673"/>
</a>
</g>
</g>
<!-- Node5&#45;&gt;Node4 -->
<g id="edge7_Node000005_Node000004" class="edge"><title>Node5&#45;&gt;Node4</title>
<g id="a_edge7_Node000005_Node000004"><a xlink:title=" ">
<path fill="none" stroke="#63b8ff" d="M150.95,-109.985C139.537,-101.919 122.169,-89.6461 108.565,-80.0327"/>
<polygon fill="#63b8ff" stroke="#63b8ff" points="110.456,-77.0831 100.269,-74.1703 106.416,-82.7998 110.456,-77.0831"/>
</a>
</g>
</g>
<!-- Node6 -->
<g id="Node000006" class="node"><title>Node6</title>
<g id="a_Node000006"><a xlink:href="_t_set_element_8h.html" target="_top" xlink:title="Definice typu Basic SetElement a implementace API.">
<polygon fill="white" stroke="#666666" points="251.5,-74 170.5,-74 170.5,-55 251.5,-55 251.5,-74"/>
<text text-anchor="middle" x="211" y="-62" font-family="Helvetica,sans-Serif" font-size="10.00">TSetElement.h</text>
</a>
</g>
</g>
<!-- Node5&#45;&gt;Node6 -->
<g id="edge8_Node000005_Node000006" class="edge"><title>Node5&#45;&gt;Node6</title>
<g id="a_edge8_Node000005_Node000006"><a xlink:title=" ">
<path fill="none" stroke="#63b8ff" d="M170.926,-109.748C177.846,-102.107 188.065,-90.8237 196.452,-81.5634"/>
<polygon fill="#63b8ff" stroke="#63b8ff" points="199.103,-83.8506 203.221,-74.089 193.914,-79.1516 199.103,-83.8506"/>
</a>
</g>
</g>
<!-- Node6&#45;&gt;Node2 -->
<g id="edge11_Node000006_Node000002" class="edge"><title>Node6&#45;&gt;Node2</title>
<g id="a_edge11_Node000006_Node000002"><a xlink:title=" ">
<path fill="none" stroke="#63b8ff" d="M182.562,-54.9846C152.54,-45.995 105.058,-31.7771 71.878,-21.842"/>
<polygon fill="#63b8ff" stroke="#63b8ff" points="72.659,-18.4224 62.0752,-18.9067 70.6509,-25.1282 72.659,-18.4224"/>
</a>
</g>
</g>
<!-- Node7 -->
<g id="Node000007" class="node"><title>Node7</title>
<g id="a_Node000007"><a xlink:title=" ">
<polygon fill="#e0e0e0" stroke="#999999" points="126,-19 80,-19 80,-0 126,-0 126,-19"/>
<text text-anchor="middle" x="103" y="-7" font-family="Helvetica,sans-Serif" font-size="10.00">stdio.h</text>
</a>
</g>
</g>
<!-- Node6&#45;&gt;Node7 -->
<g id="edge9_Node000006_Node000007" class="edge"><title>Node6&#45;&gt;Node7</title>
<g id="a_edge9_Node000006_Node000007"><a xlink:title=" ">
<path fill="none" stroke="#63b8ff" d="M193.648,-54.9846C176.431,-46.5354 149.802,-33.4677 129.854,-23.6781"/>
<polygon fill="#63b8ff" stroke="#63b8ff" points="131.187,-20.4338 120.668,-19.1703 128.103,-26.7179 131.187,-20.4338"/>
</a>
</g>
</g>
<!-- Node8 -->
<g id="Node000008" class="node"><title>Node8</title>
<g id="a_Node000008"><a xlink:title=" ">
<polygon fill="#e0e0e0" stroke="#999999" points="192,-19 144,-19 144,-0 192,-0 192,-19"/>
<text text-anchor="middle" x="168" y="-7" font-family="Helvetica,sans-Serif" font-size="10.00">stdlib.h</text>
</a>
</g>
</g>
<!-- Node6&#45;&gt;Node8 -->
<g id="edge10_Node000006_Node000008" class="edge"><title>Node6&#45;&gt;Node8</title>
<g id="a_edge10_Node000006_Node000008"><a xlink:title=" ">
<path fill="none" stroke="#63b8ff" d="M203.899,-54.7481C197.826,-47.2618 188.914,-36.2781 181.49,-27.1271"/>
<polygon fill="#63b8ff" stroke="#63b8ff" points="183.987,-24.6495 174.968,-19.089 178.551,-29.0598 183.987,-24.6495"/>
</a>
</g>
</g>
<!-- Node9 -->
<g id="Node000009" class="node"><title>Node9</title>
<g id="a_Node000009"><a xlink:title=" ">
<polygon fill="#e0e0e0" stroke="#999999" points="262,-19 210,-19 210,-0 262,-0 262,-19"/>
<text text-anchor="middle" x="236" y="-7" font-family="Helvetica,sans-Serif" font-size="10.00">assert.h</text>
</a>
</g>
</g>
<!-- Node6&#45;&gt;Node9 -->
<g id="edge12_Node000006_Node000009" class="edge"><title>Node6&#45;&gt;Node9</title>
<g id="a_edge12_Node000006_Node000009"><a xlink:title=" ">
<path fill="none" stroke="#63b8ff" d="M215.128,-54.7481C218.514,-47.5705 223.416,-37.178 227.619,-28.2682"/>
<polygon fill="#63b8ff" stroke="#63b8ff" points="230.848,-29.6265 231.949,-19.089 224.517,-26.6402 230.848,-29.6265"/>
</a>
</g>
</g>
<!-- Node6&#45;&gt;Node10 -->
<g id="edge13_Node000006_Node000010" class="edge"><title>Node6&#45;&gt;Node10</title>
<g id="a_edge13_Node000006_Node000010"><a xlink:title=" ">
<path fill="none" stroke="#63b8ff" d="M226.263,-54.9846C241.133,-46.689 263.983,-33.9413 281.416,-24.2153"/>
<polygon fill="#63b8ff" stroke="#63b8ff" points="283.431,-27.0989 290.459,-19.1703 280.021,-20.9859 283.431,-27.0989"/>
</a>
</g>
</g>
</g>
</svg>
