<?xml version="1.0" encoding="UTF-8" standalone="no"?>
<!DOCTYPE svg PUBLIC "-//W3C//DTD SVG 1.1//EN"
 "http://www.w3.org/Graphics/SVG/1.1/DTD/svg11.dtd">
<!-- Generated by graphviz version 2.38.0 (20140413.2041)
 -->
<!-- Title: print_value_by_iterator Pages: 1 -->
<svg width="582pt" height="85pt"
 viewBox="0.00 0.00 582.00 85.00" xmlns="http://www.w3.org/2000/svg" xmlns:xlink="http://www.w3.org/1999/xlink">
<g id="graph0" class="graph" transform="scale(1 1) rotate(0) translate(4 81)">
<title>print_value_by_iterator</title>
<!-- Node1 -->
<g id="Node000001" class="node"><title>Node1</title>
<g id="a_Node000001"><a xlink:title="Vytisknutí hodnoty v ADT pomocí iterátoru.">
<polygon fill="#999999" stroke="#666666" points="113,-58 0,-58 0,-39 113,-39 113,-58"/>
<text text-anchor="middle" x="56.5" y="-46" font-family="Helvetica,sans-Serif" font-size="10.00">print_value_by_iterator</text>
</a>
</g>
</g>
<!-- Node2 -->
<g id="Node000002" class="node"><title>Node2</title>
<g id="a_Node000002"><a xlink:href="group___t_set_element.html#ga3473fca967dede884b1c910838f2d8df" target="_top" xlink:title="Uložení elementu do souboru.">
<polygon fill="white" stroke="#666666" points="263,-77 149,-77 149,-58 263,-58 263,-77"/>
<text text-anchor="middle" x="206" y="-65" font-family="Helvetica,sans-Serif" font-size="10.00">set_element_store_file</text>
</a>
</g>
</g>
<!-- Node1&#45;&gt;Node2 -->
<g id="edge1_Node000001_Node000002" class="edge"><title>Node1&#45;&gt;Node2</title>
<g id="a_edge1_Node000001_Node000002"><a xlink:title=" ">
<path fill="none" stroke="#63b8ff" d="M113.263,-55.6831C121.499,-56.744 130.054,-57.8459 138.481,-58.9315"/>
<polygon fill="#63b8ff" stroke="#63b8ff" points="138.303,-62.4373 148.668,-60.2436 139.197,-55.4947 138.303,-62.4373"/>
</a>
</g>
</g>
<!-- Node3 -->
<g id="Node000003" class="node"><title>Node3</title>
<g id="a_Node000003"><a xlink:href="group___t_set_iterator.html#ga3928a980e2759ba130ce333e77f15fab" target="_top" xlink:title="Přečtení hodnoty elementu z množiny pomocí iterátoru.">
<polygon fill="white" stroke="#666666" points="252,-40 160,-40 160,-21 252,-21 252,-40"/>
<text text-anchor="middle" x="206" y="-28" font-family="Helvetica,sans-Serif" font-size="10.00">set_iterator_value</text>
</a>
</g>
</g>
<!-- Node1&#45;&gt;Node3 -->
<g id="edge2_Node000001_Node000003" class="edge"><title>Node1&#45;&gt;Node3</title>
<g id="a_edge2_Node000001_Node000003"><a xlink:title=" ">
<path fill="none" stroke="#63b8ff" d="M113.263,-41.695C125.126,-40.2474 137.649,-38.7191 149.502,-37.2727"/>
<polygon fill="#63b8ff" stroke="#63b8ff" points="150.209,-40.7124 159.711,-36.0268 149.361,-33.764 150.209,-40.7124"/>
</a>
</g>
</g>
<!-- Node4 -->
<g id="Node000004" class="node"><title>Node4</title>
<g id="a_Node000004"><a xlink:href="group___t_set_unsorted_flex_array.html#ga9e462daa460e7e102258837658e80ceb" target="_top" xlink:title="Přečtení hodnoty elementu z flexibilního pole.">
<polygon fill="white" stroke="#666666" points="403,-67.5 299,-67.5 299,-37.5 403,-37.5 403,-67.5"/>
<text text-anchor="start" x="307" y="-55.5" font-family="Helvetica,sans-Serif" font-size="10.00">set_flex_array_value</text>
<text text-anchor="middle" x="351" y="-44.5" font-family="Helvetica,sans-Serif" font-size="10.00">_at_pos</text>
</a>
</g>
</g>
<!-- Node3&#45;&gt;Node4 -->
<g id="edge3_Node000003_Node000004" class="edge"><title>Node3&#45;&gt;Node4</title>
<g id="a_edge3_Node000003_Node000004"><a xlink:title=" ">
<path fill="none" stroke="#63b8ff" d="M252.246,-37.4609C263.817,-39.241 276.453,-41.185 288.683,-43.0665"/>
<polygon fill="#63b8ff" stroke="#63b8ff" points="288.412,-46.566 298.828,-44.6274 289.477,-39.6474 288.412,-46.566"/>
</a>
</g>
</g>
<!-- Node5 -->
<g id="Node000005" class="node"><title>Node5</title>
<g id="a_Node000005"><a xlink:href="group___t_set_iterator.html#ga089f24c81ac3da7d1ac7ca24cc078dd8" target="_top" xlink:title="Zjištění platnosti iterátoru.">
<polygon fill="white" stroke="#666666" points="402,-19 300,-19 300,-0 402,-0 402,-19"/>
<text text-anchor="middle" x="351" y="-7" font-family="Helvetica,sans-Serif" font-size="10.00">set_iterator_is_valid</text>
</a>
</g>
</g>
<!-- Node3&#45;&gt;Node5 -->
<g id="edge4_Node000003_Node000005" class="edge"><title>Node3&#45;&gt;Node5</title>
<g id="a_edge4_Node000003_Node000005"><a xlink:title=" ">
<path fill="none" stroke="#63b8ff" d="M252.246,-23.8555C264.191,-22.1014 277.27,-20.1806 289.867,-18.3307"/>
<polygon fill="#63b8ff" stroke="#63b8ff" points="290.45,-21.7828 299.835,-16.8669 289.432,-14.8571 290.45,-21.7828"/>
</a>
</g>
</g>
<!-- Node6 -->
<g id="Node000006" class="node"><title>Node6</title>
<g id="a_Node000006"><a xlink:href="group___t_set_unsorted_flex_array.html#gad3346f67be35632c3b0fbd9ea616a0c1" target="_top" xlink:title="Zjištění platnosti pozice ve flexibilním poli.">
<polygon fill="white" stroke="#666666" points="574,-19 439,-19 439,-0 574,-0 574,-19"/>
<text text-anchor="middle" x="506.5" y="-7" font-family="Helvetica,sans-Serif" font-size="10.00">set_flex_array_is_valid_pos</text>
</a>
</g>
</g>
<!-- Node5&#45;&gt;Node6 -->
<g id="edge5_Node000005_Node000006" class="edge"><title>Node5&#45;&gt;Node6</title>
<g id="a_edge5_Node000005_Node000006"><a xlink:title=" ">
<path fill="none" stroke="#63b8ff" d="M402.262,-9.5C410.774,-9.5 419.783,-9.5 428.79,-9.5"/>
<polygon fill="#63b8ff" stroke="#63b8ff" points="428.933,-13.0001 438.933,-9.5 428.933,-6.0001 428.933,-13.0001"/>
</a>
</g>
</g>
</g>
</svg>
