<?xml version="1.0" encoding="UTF-8" standalone="no"?>
<!DOCTYPE svg PUBLIC "-//W3C//DTD SVG 1.1//EN"
 "http://www.w3.org/Graphics/SVG/1.1/DTD/svg11.dtd">
<!-- Generated by graphviz version 2.38.0 (20140413.2041)
 -->
<!-- Title: test_run Pages: 1 -->
<svg width="701pt" height="216pt"
 viewBox="0.00 0.00 701.00 216.00" xmlns="http://www.w3.org/2000/svg" xmlns:xlink="http://www.w3.org/1999/xlink">
<g id="graph0" class="graph" transform="scale(1 1) rotate(0) translate(4 212)">
<title>test_run</title>
<!-- Node1 -->
<g id="Node000001" class="node"><title>Node1</title>
<g id="a_Node000001"><a xlink:title="Provedení jednoho test z testovacího plánu na předaném ADT.">
<polygon fill="#999999" stroke="#666666" points="52,-132 0,-132 0,-113 52,-113 52,-132"/>
<text text-anchor="middle" x="26" y="-120" font-family="Helvetica,sans-Serif" font-size="10.00">test_run</text>
</a>
</g>
</g>
<!-- Node2 -->
<g id="Node000002" class="node"><title>Node2</title>
<g id="a_Node000002"><a xlink:href="testbench_8c.html#aa291195ad453d2b1e29004cc2e043c01" target="_top" xlink:title=" ">
<polygon fill="white" stroke="#666666" points="178.5,-208 110.5,-208 110.5,-189 178.5,-189 178.5,-208"/>
<text text-anchor="middle" x="144.5" y="-196" font-family="Helvetica,sans-Serif" font-size="10.00">difftimespec</text>
</a>
</g>
</g>
<!-- Node1&#45;&gt;Node2 -->
<g id="edge1_Node000001_Node000002" class="edge"><title>Node1&#45;&gt;Node2</title>
<g id="a_edge1_Node000001_Node000002"><a xlink:title=" ">
<path fill="none" stroke="#63b8ff" d="M36.6338,-132.328C48.0863,-143.608 68.1554,-162.14 88,-174.5 94.0468,-178.266 100.788,-181.722 107.43,-184.767"/>
<polygon fill="#63b8ff" stroke="#63b8ff" points="106.431,-188.15 116.998,-188.924 109.22,-181.729 106.431,-188.15"/>
</a>
</g>
</g>
<!-- Node3 -->
<g id="Node000003" class="node"><title>Node3</title>
<g id="a_Node000003"><a xlink:href="testbench_8c.html#ae7a610c069c6000940838c6a1e11bb42" target="_top" xlink:title="Vytisknutí hodnoty v ADT pomocí iterátoru.">
<polygon fill="white" stroke="#666666" points="201,-132 88,-132 88,-113 201,-113 201,-132"/>
<text text-anchor="middle" x="144.5" y="-120" font-family="Helvetica,sans-Serif" font-size="10.00">print_value_by_iterator</text>
</a>
</g>
</g>
<!-- Node1&#45;&gt;Node3 -->
<g id="edge2_Node000001_Node000003" class="edge"><title>Node1&#45;&gt;Node3</title>
<g id="a_edge2_Node000001_Node000003"><a xlink:title=" ">
<path fill="none" stroke="#63b8ff" d="M52.2788,-122.5C59.8638,-122.5 68.5611,-122.5 77.5064,-122.5"/>
<polygon fill="#63b8ff" stroke="#63b8ff" points="77.6652,-126 87.6652,-122.5 77.6652,-119 77.6652,-126"/>
</a>
</g>
</g>
<!-- Node4 -->
<g id="Node000004" class="node"><title>Node4</title>
<g id="a_Node000004"><a xlink:href="group___t_set_element.html#ga3473fca967dede884b1c910838f2d8df" target="_top" xlink:title="Uložení elementu do souboru.">
<polygon fill="white" stroke="#666666" points="357.5,-170 243.5,-170 243.5,-151 357.5,-151 357.5,-170"/>
<text text-anchor="middle" x="300.5" y="-158" font-family="Helvetica,sans-Serif" font-size="10.00">set_element_store_file</text>
</a>
</g>
</g>
<!-- Node1&#45;&gt;Node4 -->
<g id="edge8_Node000001_Node000004" class="edge"><title>Node1&#45;&gt;Node4</title>
<g id="a_edge8_Node000001_Node000004"><a xlink:title=" ">
<path fill="none" stroke="#63b8ff" d="M52.2129,-131.675C63.0862,-135.285 76.0318,-139.127 88,-141.5 136.107,-151.04 191.33,-155.796 233.282,-158.164"/>
<polygon fill="#63b8ff" stroke="#63b8ff" points="233.204,-161.664 243.377,-158.702 233.577,-154.674 233.204,-161.664"/>
</a>
</g>
</g>
<!-- Node9 -->
<g id="Node000009" class="node"><title>Node9</title>
<g id="a_Node000009"><a xlink:href="group___iterator_algorithms.html#gab8ba369b42eda61d010f35df73be73db" target="_top" xlink:title="Zavolání zvolené funkce na každý element množiny od pozice určené iterátorem až do posledního element...">
<polygon fill="white" stroke="#666666" points="180.5,-95 108.5,-95 108.5,-76 180.5,-76 180.5,-95"/>
<text text-anchor="middle" x="144.5" y="-83" font-family="Helvetica,sans-Serif" font-size="10.00">set_for_each</text>
</a>
</g>
</g>
<!-- Node1&#45;&gt;Node9 -->
<g id="edge9_Node000001_Node000009" class="edge"><title>Node1&#45;&gt;Node9</title>
<g id="a_edge9_Node000001_Node000009"><a xlink:title=" ">
<path fill="none" stroke="#63b8ff" d="M52.2788,-114.472C67.2712,-109.71 86.6086,-103.569 103.618,-98.1663"/>
<polygon fill="#63b8ff" stroke="#63b8ff" points="104.842,-101.45 113.314,-95.0871 102.723,-94.7783 104.842,-101.45"/>
</a>
</g>
</g>
<!-- Node12 -->
<g id="Node000012" class="node"><title>Node12</title>
<g id="a_Node000012"><a xlink:href="group___t_set_iterator.html#gab11bafbe7585e4bb0bd9ff2353d77765" target="_top" xlink:title="Vytvoření nového iterátoru ukazujícího na první element množiny.">
<polygon fill="white" stroke="#666666" points="191.5,-39 97.5,-39 97.5,-20 191.5,-20 191.5,-39"/>
<text text-anchor="middle" x="144.5" y="-27" font-family="Helvetica,sans-Serif" font-size="10.00">set_iterator_begin</text>
</a>
</g>
</g>
<!-- Node1&#45;&gt;Node12 -->
<g id="edge15_Node000001_Node000012" class="edge"><title>Node1&#45;&gt;Node12</title>
<g id="a_edge15_Node000001_Node000012"><a xlink:title=" ">
<path fill="none" stroke="#63b8ff" d="M36.5176,-112.895C48.1823,-101.332 68.7733,-81.5873 88,-66.5 97.7651,-58.8373 109.083,-51.1048 118.941,-44.7044"/>
<polygon fill="#63b8ff" stroke="#63b8ff" points="120.952,-47.5727 127.497,-39.2412 117.185,-41.6727 120.952,-47.5727"/>
</a>
</g>
</g>
<!-- Node3&#45;&gt;Node4 -->
<g id="edge3_Node000003_Node000004" class="edge"><title>Node3&#45;&gt;Node4</title>
<g id="a_edge3_Node000003_Node000004"><a xlink:title=" ">
<path fill="none" stroke="#63b8ff" d="M184.361,-132.089C204.591,-137.081 229.521,-143.232 251.004,-148.533"/>
<polygon fill="#63b8ff" stroke="#63b8ff" points="250.371,-151.982 260.919,-150.98 252.048,-145.186 250.371,-151.982"/>
</a>
</g>
</g>
<!-- Node5 -->
<g id="Node000005" class="node"><title>Node5</title>
<g id="a_Node000005"><a xlink:href="group___t_set_iterator.html#ga3928a980e2759ba130ce333e77f15fab" target="_top" xlink:title="Přečtení hodnoty elementu z množiny pomocí iterátoru.">
<polygon fill="white" stroke="#666666" points="346.5,-133 254.5,-133 254.5,-114 346.5,-114 346.5,-133"/>
<text text-anchor="middle" x="300.5" y="-121" font-family="Helvetica,sans-Serif" font-size="10.00">set_iterator_value</text>
</a>
</g>
</g>
<!-- Node3&#45;&gt;Node5 -->
<g id="edge4_Node000003_Node000005" class="edge"><title>Node3&#45;&gt;Node5</title>
<g id="a_edge4_Node000003_Node000005"><a xlink:title=" ">
<path fill="none" stroke="#63b8ff" d="M201.098,-122.861C214.966,-122.951 229.84,-123.048 243.717,-123.138"/>
<polygon fill="#63b8ff" stroke="#63b8ff" points="244.079,-126.64 254.102,-123.205 244.125,-119.64 244.079,-126.64"/>
</a>
</g>
</g>
<!-- Node6 -->
<g id="Node000006" class="node"><title>Node6</title>
<g id="a_Node000006"><a xlink:href="group___t_set_unsorted_flex_array.html#ga9e462daa460e7e102258837658e80ceb" target="_top" xlink:title="Přečtení hodnoty elementu z flexibilního pole.">
<polygon fill="white" stroke="#666666" points="513,-143.5 409,-143.5 409,-113.5 513,-113.5 513,-143.5"/>
<text text-anchor="start" x="417" y="-131.5" font-family="Helvetica,sans-Serif" font-size="10.00">set_flex_array_value</text>
<text text-anchor="middle" x="461" y="-120.5" font-family="Helvetica,sans-Serif" font-size="10.00">_at_pos</text>
</a>
</g>
</g>
<!-- Node5&#45;&gt;Node6 -->
<g id="edge5_Node000005_Node000006" class="edge"><title>Node5&#45;&gt;Node6</title>
<g id="a_edge5_Node000005_Node000006"><a xlink:title=" ">
<path fill="none" stroke="#63b8ff" d="M346.92,-124.933C362.904,-125.437 381.149,-126.013 398.249,-126.552"/>
<polygon fill="#63b8ff" stroke="#63b8ff" points="398.613,-130.065 408.718,-126.882 398.834,-123.069 398.613,-130.065"/>
</a>
</g>
</g>
<!-- Node7 -->
<g id="Node000007" class="node"><title>Node7</title>
<g id="a_Node000007"><a xlink:href="group___t_set_iterator.html#ga089f24c81ac3da7d1ac7ca24cc078dd8" target="_top" xlink:title="Zjištění platnosti iterátoru.">
<polygon fill="white" stroke="#666666" points="512,-95 410,-95 410,-76 512,-76 512,-95"/>
<text text-anchor="middle" x="461" y="-83" font-family="Helvetica,sans-Serif" font-size="10.00">set_iterator_is_valid</text>
</a>
</g>
</g>
<!-- Node5&#45;&gt;Node7 -->
<g id="edge6_Node000005_Node000007" class="edge"><title>Node5&#45;&gt;Node7</title>
<g id="a_edge6_Node000005_Node000007"><a xlink:title=" ">
<path fill="none" stroke="#63b8ff" d="M341.496,-113.911C362.412,-108.896 388.208,-102.712 410.386,-97.3947"/>
<polygon fill="#63b8ff" stroke="#63b8ff" points="411.383,-100.755 420.291,-95.0201 409.751,-93.948 411.383,-100.755"/>
</a>
</g>
</g>
<!-- Node8 -->
<g id="Node000008" class="node"><title>Node8</title>
<g id="a_Node000008"><a xlink:href="group___t_set_unsorted_flex_array.html#gad3346f67be35632c3b0fbd9ea616a0c1" target="_top" xlink:title="Zjištění platnosti pozice ve flexibilním poli.">
<polygon fill="white" stroke="#666666" points="693,-76 558,-76 558,-57 693,-57 693,-76"/>
<text text-anchor="middle" x="625.5" y="-64" font-family="Helvetica,sans-Serif" font-size="10.00">set_flex_array_is_valid_pos</text>
</a>
</g>
</g>
<!-- Node7&#45;&gt;Node8 -->
<g id="edge7_Node000007_Node000008" class="edge"><title>Node7&#45;&gt;Node8</title>
<g id="a_edge7_Node000007_Node000008"><a xlink:title=" ">
<path fill="none" stroke="#63b8ff" d="M512.081,-79.6443C523.374,-78.324 535.613,-76.8929 547.72,-75.4774"/>
<polygon fill="#63b8ff" stroke="#63b8ff" points="548.309,-78.9325 557.834,-74.2947 547.496,-71.9798 548.309,-78.9325"/>
</a>
</g>
</g>
<!-- Node9&#45;&gt;Node7 -->
<g id="edge10_Node000009_Node000007" class="edge"><title>Node9&#45;&gt;Node7</title>
<g id="a_edge10_Node000009_Node000007"><a xlink:title=" ">
<path fill="none" stroke="#63b8ff" d="M180.662,-85.5C233.686,-85.5 334.8,-85.5 399.728,-85.5"/>
<polygon fill="#63b8ff" stroke="#63b8ff" points="399.825,-89.0001 409.825,-85.5 399.825,-82.0001 399.825,-89.0001"/>
</a>
</g>
</g>
<!-- Node10 -->
<g id="Node000010" class="node"><title>Node10</title>
<g id="a_Node000010"><a xlink:href="group___t_set_iterator.html#ga6723a05c864198597ff49718020bd0d6" target="_top" xlink:title="Posunutí iterátoru vpřed.">
<polygon fill="white" stroke="#666666" points="352,-57 249,-57 249,-38 352,-38 352,-57"/>
<text text-anchor="middle" x="300.5" y="-45" font-family="Helvetica,sans-Serif" font-size="10.00">set_iterator_to_next</text>
</a>
</g>
</g>
<!-- Node9&#45;&gt;Node10 -->
<g id="edge11_Node000009_Node000010" class="edge"><title>Node9&#45;&gt;Node10</title>
<g id="a_edge11_Node000009_Node000010"><a xlink:title=" ">
<path fill="none" stroke="#63b8ff" d="M180.831,-76.782C201.639,-71.6475 228.257,-65.0795 251.008,-59.4655"/>
<polygon fill="#63b8ff" stroke="#63b8ff" points="251.953,-62.8374 260.823,-57.0436 250.276,-56.0413 251.953,-62.8374"/>
</a>
</g>
</g>
<!-- Node10&#45;&gt;Node7 -->
<g id="edge14_Node000010_Node000007" class="edge"><title>Node10&#45;&gt;Node7</title>
<g id="a_edge14_Node000010_Node000007"><a xlink:title=" ">
<path fill="none" stroke="#63b8ff" d="M341.496,-57.089C362.412,-62.1035 388.208,-68.2881 410.386,-73.6053"/>
<polygon fill="#63b8ff" stroke="#63b8ff" points="409.751,-77.052 420.291,-75.9799 411.383,-70.2449 409.751,-77.052"/>
</a>
</g>
</g>
<!-- Node10&#45;&gt;Node8 -->
<g id="edge12_Node000010_Node000008" class="edge"><title>Node10&#45;&gt;Node8</title>
<g id="a_edge12_Node000010_Node000008"><a xlink:title=" ">
<path fill="none" stroke="#63b8ff" d="M352.324,-50.4897C404.722,-53.5719 487.07,-58.4159 547.474,-61.9691"/>
<polygon fill="#63b8ff" stroke="#63b8ff" points="547.539,-65.4788 557.727,-62.5722 547.95,-58.4909 547.539,-65.4788"/>
</a>
</g>
</g>
<!-- Node11 -->
<g id="Node000011" class="node"><title>Node11</title>
<g id="a_Node000011"><a xlink:href="group___t_set_unsorted_flex_array.html#ga8bc0de187146b066ae844c2278b6e198" target="_top" xlink:title="Výpočet následující platné pozice ve flexibilním poli.">
<polygon fill="white" stroke="#666666" points="522,-19 400,-19 400,-0 522,-0 522,-19"/>
<text text-anchor="middle" x="461" y="-7" font-family="Helvetica,sans-Serif" font-size="10.00">set_flex_array_next_pos</text>
</a>
</g>
</g>
<!-- Node10&#45;&gt;Node11 -->
<g id="edge13_Node000010_Node000011" class="edge"><title>Node10&#45;&gt;Node11</title>
<g id="a_edge13_Node000010_Node000011"><a xlink:title=" ">
<path fill="none" stroke="#63b8ff" d="M341.496,-37.911C362.412,-32.8965 388.208,-26.7119 410.386,-21.3947"/>
<polygon fill="#63b8ff" stroke="#63b8ff" points="411.383,-24.7551 420.291,-19.0201 409.751,-17.948 411.383,-24.7551"/>
</a>
</g>
</g>
<!-- Node13 -->
<g id="Node000013" class="node"><title>Node13</title>
<g id="a_Node000013"><a xlink:href="group___t_set_unsorted_flex_array.html#ga24753753dacb74f17de6ba082505440c" target="_top" xlink:title="Výpočet první platné pozice ve flexibilním poli.">
<polygon fill="white" stroke="#666666" points="364,-20 237,-20 237,-1 364,-1 364,-20"/>
<text text-anchor="middle" x="300.5" y="-8" font-family="Helvetica,sans-Serif" font-size="10.00">set_flex_array_begin_pos</text>
</a>
</g>
</g>
<!-- Node12&#45;&gt;Node13 -->
<g id="edge16_Node000012_Node000013" class="edge"><title>Node12&#45;&gt;Node13</title>
<g id="a_edge16_Node000012_Node000013"><a xlink:title=" ">
<path fill="none" stroke="#63b8ff" d="M191.705,-23.7994C202.78,-22.433 214.872,-20.9411 226.825,-19.4664"/>
<polygon fill="#63b8ff" stroke="#63b8ff" points="227.311,-22.9331 236.807,-18.2349 226.453,-15.9858 227.311,-22.9331"/>
</a>
</g>
</g>
</g>
</svg>
